/* XPM */
static char * bottom_right_inactive_xpm[] = {
"16 16 5 1",
" 	c None",
"+	c #000000",
".	c #e6e6e6 s inactive_color_2",
"@	c #c1c1c1 s inactive_mid_2",
"#	c #a7a7a7 s inactive_shadow_2",
"           ....+",
"           ....+",
"           ....+",
"           ....+",
"           ....+",
"           ....+",
"           ....+",
"           ....+",
"           ....+",
"           ...@+",
"           ...#+",
"..............+ ",
".............@+ ",
"............@+  ",
".........@#++   ",
"+++++++++++     "};
