/* XPM */
static char * bottom_active_xpm[] = {
"4 5 3 1",
" 	c None",
"+	c #000000",
".	c #e6e6e6 s active_color_2",
"....",
"....",
"....",
"....",
"++++"};
