/* XPM */
static char * hide_active_xpm[] = {
"18 16 28 1",
" 	c None",
".	c #A97A7A",
"+	c #FEF6F6",
"@	c #FADBDB",
"#	c #FADCDC",
"$	c #FADCDC",
"%	c #FADDDD",
"&	c #FADEDE",
"*	c #FADEDE",
"=	c #FADFDF",
"-	c #FAE0E0",
";	c #FBE1E1",
">	c #FBE2E2",
",	c #FBE2E2",
"'	c #DEC7C7",
")	c #FBE4E4",
"!	c #FBE5E5",
"~	c #FBE6E6",
"{	c #925C5C",
"]	c #925D5D",
"^	c #925D5D",
"/	c #FCE8E8",
"(	c #925E5E",
"_	c #FCE8E8",
":	c #FCE9E9",
"<	c #FCEAEA",
"[	c #FCEAEA",
"}	c #FCEBEB",
"  ..............  ",
" .++++++++++++++. ",
".+@@#$%&*==-;>,,'.",
".+@#$%&*==-;>,,)'.",
".+#$%&*==-;>,,))'.",
".+$%&*==-;>,,))!'.",
".+%&*==-;>,,))!~'.",
".+&*==-;>,,))!~~'.",
".+==-{]]]]]^~~//'.",
".+=-;]]]]]^(~//_'.",
".+-;>]]]]^((//_:'.",
".+;>,,))!~~//_:<'.",
".+>,,))!~~//_:<['.",
".+,,))!~~//_:<[}'.",
" .''''''''''''''. ",
"  ..............  "};
