/* XPM */
static char * title_3_active_xpm[] = {
"5 22 56 1",
" 	c None",
".	c #000000",
"+	c #E29797",
"@	c #C05656",
"#	c #783333",
"$	c #CD7F7F",
"%	c #BD4F4F",
"&	c #CB7B7B",
"*	c #BB4949",
"=	c #762F2F",
"-	c #B94343",
";	c #752B2B",
">	c #CA7878",
",	c #B73D3D",
"'	c #742727",
")	c #C97474",
"!	c #B63B3B",
"~	c #732626",
"{	c #C87272",
"]	c #732525",
"^	c #C77171",
"/	c #B53939",
"(	c #C77070",
"_	c #B43737",
":	c #712323",
"<	c #B33636",
"[	c #712222",
"}	c #C66F6F",
"|	c #B33333",
"1	c #722121",
"2	c #C66D6D",
"3	c #702323",
"4	c #C56F6F",
"5	c #742424",
"6	c #C77070",
"7	c #B43838",
"8	c #C87373",
"9	c #B63E3E",
"0	c #772929",
"a	c #B94343",
"b	c #7C3030",
"c	c #CA7676",
"d	c #BB4848",
"e	c #803636",
"f	c #CA7777",
"g	c #BE5050",
"h	c #873D3D",
"i	c #CD7B7B",
"j	c #8C4343",
"k	c #CD7E7E",
"l	c #C15757",
"m	c #CD8181",
"n	c #C35D5D",
"o	c #904949",
"p	c #C56363",
"q	c #0C0A0A",
".....",
"+++++",
"@@@@@",
"#$%%%",
"&***=",
"---;>",
",,'),",
"!~{!!",
"]^///",
"(___:",
"<<<[}",
"||12|",
"<34<<",
"56777",
"89990",
"aaabc",
"ddefd",
"ghigg",
"jklll",
"mnnno",
"ppppp",
"qqqqq"};
