/* XPM */
static char * top_right_inactive_xpm[] = {
"10 22 16 1",
" 	c None",
".	c #000000",
"+	c #E7E2E2",
"@	c #CBC7C7",
"#	c #414040",
"$	c #E2DDDD",
"%	c #B4B0B0",
"&	c #DED8D8",
"*	c #B1ACAC",
"=	c #D9D2D2",
"-	c #413F3F",
";	c #BCB6B6",
">	c #D7D0D0",
",	c #D5CECE",
"'	c #D2CBCB",
")	c #C6BDBD",
".....     ",
"++++@#.   ",
"$$$$$$%.  ",
"&&&&&&&*. ",
"========- ",
"========;.",
"=========.",
"=========.",
"=========.",
"=========.",
"=========.",
"=========.",
"=========.",
"=========.",
"=========.",
"=========.",
"=========.",
">>>>>>>>>.",
",,,,,,,,,.",
"'''''''''.",
"'''''''''.",
")))))))))."};
