<?xml version='1.0' encoding='UTF-8'?>
<svg xmlns="http://www.w3.org/2000/svg" xmlns:xlink="http://www.w3.org/1999/xlink" id="Layer_9" data-name="Layer 9" width="96" height="96" viewBox="0 0 96 96">
  <defs>
    <mask id="mask" x="53.2576933" y="26.6797" width="38.608598" height="32.7282865" maskUnits="userSpaceOnUse">
      <path d="M55.4565,43.5664l2.8399-7.9248s-.0733-.5693,1.2436-.6963c1.2295-.1162,4.2266-.8691,8.272-1.7226,3.9927-.8409,6.6001-1.7315,7.8941-1.8086,1.2968-.0752,1.8525.8603,1.8525.8603,0,0,1.7256,1.7344,4.0981,4.0293,3.3955,3.2901,5.3184,4.044,5.6275,5.3828.2114.918,2.5386,9.4278,2.5386,9.4278,0,0,.3022.8935-.6866,1.2519-4.436,1.0957-19.1186,4.7568-19.893,4.9424-.9146.2207-1.6763.1611-2.7657-1.0977-.6504-.75-8.208-7.8906-10.7133-10.8945-.918-.9434-.3077-1.75-.3077-1.75Z" fill="#fff" fill-rule="evenodd" stroke="#fff" stroke-miterlimit="3.8637" stroke-width="4"/>
    </mask>
    <linearGradient id="New_Gradient_124" data-name="New Gradient 124" x1="67.7785301" y1="25.8502746" x2="75.7155053" y2="51.8109508" gradientTransform="translate(0 5.7705)" gradientUnits="userSpaceOnUse">
      <stop offset="0" stop-color="#e5e5e5"/>
      <stop offset="1" stop-color="#b2b2b2"/>
    </linearGradient>
    <linearGradient id="New_Gradient_173" data-name="New Gradient 173" x1="79.1409817" y1="33.5093683" x2="79.8285891" y2="53.1998662" gradientTransform="translate(0 5.7705)" gradientUnits="userSpaceOnUse">
      <stop offset="0" stop-color="#ccc"/>
      <stop offset="1" stop-color="#999"/>
    </linearGradient>
    <linearGradient id="New_Gradient_172" data-name="New Gradient 172" x1="70.6118293" y1="20.7394884" x2="73.0682393" y2="40.7453422" gradientTransform="translate(0 5.7705)" gradientUnits="userSpaceOnUse">
      <stop offset="0" stop-color="#b2b2b2"/>
      <stop offset="1" stop-color="#fff"/>
    </linearGradient>
    <mask id="mask-1" x="55.2576933" y="26.6797" width="36.5445067" height="31.9453" maskUnits="userSpaceOnUse">
      <path d="M55.4565,43.5664l2.8399-7.9248s-.0733-.5693,1.2436-.6963c1.2295-.1162,4.1363-.7529,8.272-1.7226,3.9741-.9307,6.6001-1.7315,7.8941-1.8086,1.2968-.0752,1.8525.8603,1.8525.8603,0,0,1.2012,2.2569,4.9985,6.251,3.6763,3.8711,4.1538,1.4824,4.7271,3.1611.3056.8916,2.5386,9.4278,2.5386,9.4278,0,0,.3022.8935-.6866,1.2519-4.436,1.0957-19.1186,4.7568-19.893,4.9424-.9146.2207-1.6763.1611-2.7657-1.0977-.6504-.75-8.208-7.8906-10.7133-10.8945-.918-.9434-.3077-1.75-.3077-1.75Z" fill="#fff" fill-rule="evenodd"/>
    </mask>
    <linearGradient id="New_Gradient_124-2" data-name="New Gradient 124" x1="67.7708556" y1="25.8287326" x2="75.7078309" y2="51.7894088" gradientTransform="translate(0 5.7705)" gradientUnits="userSpaceOnUse"><stop offset="0" stop-color="#e5e5e5"/><stop offset="1" stop-color="#b2b2b2"/></linearGradient>
    <linearGradient id="New_Gradient_164" data-name="New Gradient 164" x1="79.1409817" y1="33.5093683" x2="79.8285891" y2="53.1998662" gradientTransform="translate(0 5.7705)" gradientUnits="userSpaceOnUse">
      <stop offset="0" stop-color="#ccc"/>
      <stop offset="1" stop-color="gray"/>
    </linearGradient>
    <linearGradient id="New_Gradient_159" data-name="New Gradient 159" x1="70.6118293" y1="20.7394884" x2="73.0682393" y2="40.7453422" gradientTransform="translate(0 5.7705)" gradientUnits="userSpaceOnUse">
      <stop offset="0" stop-color="#b2b2b2"/>
      <stop offset=".859558" stop-color="#fff"/>
      <stop offset="1" stop-color="#fff"/>
    </linearGradient>
    <linearGradient id="New_Gradient_123" data-name="New Gradient 123" x1="73.1053124" y1="25.3291855" x2="72.7314709" y2="36.0346034" gradientTransform="translate(0 5.7705)" gradientUnits="userSpaceOnUse">
      <stop offset="0" stop-color="#e5e5e5"/>
      <stop offset=".741577" stop-color="#fff"/>
      <stop offset="1" stop-color="#fff"/>
    </linearGradient>
    <linearGradient id="New_Gradient_113" data-name="New Gradient 113" x1="61.8272583" y1="40.5769353" x2="56.3166576" y2="32.4071338" gradientTransform="translate(0 5.7705)" gradientUnits="userSpaceOnUse">
      <stop offset="0" stop-color="#d9d9d9"/>
      <stop offset=".146072" stop-color="#d9d9d9"/>
      <stop offset=".528091" stop-color="#e5e5e5"/>
      <stop offset="1" stop-color="#fff"/>
    </linearGradient>
    <linearGradient id="New_Gradient_106" data-name="New Gradient 106" x1="64.8368694" y1="44.0766737" x2="68.982682" y2="43.5676319" gradientTransform="translate(0 5.7705)" gradientUnits="userSpaceOnUse">
      <stop offset="0" stop-color="#ccc"/>
      <stop offset=".561798" stop-color="#ccc"/>
      <stop offset="1" stop-color="#e5e5e5"/>
    </linearGradient>
    <linearGradient id="New_Gradient_105" data-name="New Gradient 105" x1="69.3428736" y1="45.4538227" x2="88.9748109" y2="41.9921825" gradientTransform="translate(0 5.7705)" gradientUnits="userSpaceOnUse">
      <stop offset="0" stop-color="#999"/>
      <stop offset=".5" stop-color="#999"/>
      <stop offset=".870789" stop-color="#b2b2b2"/>
      <stop offset="1" stop-color="#d9d9d9"/>
    </linearGradient>
    <mask id="mask-2" x="28.778023" y="32.7832" width="38.6086344" height="32.728036" maskUnits="userSpaceOnUse">
      <path d="M30.9771,49.6689l2.8403-7.9238s-.0733-.5693,1.2431-.6963c1.2305-.1152,4.2271-.8691,8.2715-1.7236,3.9937-.8408,6.6011-1.7305,7.8946-1.8066,1.2968-.0752,1.8525.8593,1.8525.8593,0,0,1.7261,1.7344,4.0981,4.0303,3.396,3.2891,5.3184,4.0439,5.6285,5.3828.2104.917,2.5376,9.4278,2.5376,9.4278,0,0,.3017.8906-.6866,1.2509-4.4345,1.0948-19.1171,4.7559-19.8935,4.9424-.9141.2197-1.6753.1621-2.7637-1.0967-.6504-.75-8.2095-7.8906-10.7148-10.8955-.9185-.9424-.3076-1.751-.3076-1.751Z" fill="#fff" fill-rule="evenodd" stroke="#fff" stroke-miterlimit="3.8637" stroke-width="4"/>
    </mask>
    <linearGradient id="New_Gradient_336" data-name="New Gradient 336" x1="43.2992067" y1="31.9537939" x2="51.2361606" y2="57.9144003" gradientTransform="translate(0 5.7705)" gradientUnits="userSpaceOnUse">
      <stop offset="0" stop-color="#e5e5e5"/>
      <stop offset="1" stop-color="#b2b2b2"/>
    </linearGradient>
    <linearGradient id="New_Gradient_340" data-name="New Gradient 340" x1="54.6614776" y1="39.6108684" x2="55.3491938" y2="59.3044846" gradientTransform="translate(0 5.7705)" gradientUnits="userSpaceOnUse">
      <stop offset="0" stop-color="#ccc"/>
      <stop offset="1" stop-color="#999"/>
    </linearGradient>
    <linearGradient id="New_Gradient_339" data-name="New Gradient 339" x1="46.1329267" y1="26.8429977" x2="48.5892608" y2="46.8482334" gradientTransform="translate(0 5.7705)" gradientUnits="userSpaceOnUse">
      <stop offset="0" stop-color="#b2b2b2"/>
      <stop offset="1" stop-color="#fff"/>
    </linearGradient>
    <mask id="mask-3" x="30.778023" y="32.7832" width="36.544777" height="31.9463" maskUnits="userSpaceOnUse">
      <path d="M30.9771,49.6689l2.8403-7.9238s-.0733-.5693,1.2431-.6963c1.2305-.1152,4.1377-.7539,8.2715-1.7236,3.9746-.9307,6.6011-1.7305,7.8946-1.8066,1.2968-.0752,1.8525.8593,1.8525.8593,0,0,1.2022,2.2569,5,6.251,3.6763,3.8721,4.1523,1.4824,4.7266,3.1621.3061.8906,2.5376,9.4278,2.5376,9.4278,0,0,.3017.8906-.6866,1.2509-4.4345,1.0948-19.1171,4.7559-19.8935,4.9424-.9141.2197-1.6753.1621-2.7637-1.0967-.6504-.75-8.2095-7.8906-10.7148-10.8955-.9185-.9424-.3076-1.751-.3076-1.751Z" fill="#fff" fill-rule="evenodd"/>
    </mask>
    <linearGradient id="New_Gradient_336-2" data-name="New Gradient 336" x1="43.2916083" y1="31.9322287" x2="51.2285622" y2="57.8928352" gradientTransform="translate(0 5.7705)" gradientUnits="userSpaceOnUse"><stop offset="0" stop-color="#e5e5e5"/><stop offset="1" stop-color="#b2b2b2"/></linearGradient>
    <linearGradient id="New_Gradient_338" data-name="New Gradient 338" x1="54.6614776" y1="39.6108684" x2="55.3491938" y2="59.3044846" gradientTransform="translate(0 5.7705)" gradientUnits="userSpaceOnUse">
      <stop offset="0" stop-color="#ccc"/>
      <stop offset="1" stop-color="gray"/>
    </linearGradient>
    <linearGradient id="New_Gradient_337" data-name="New Gradient 337" x1="46.1329267" y1="26.8429977" x2="48.5892608" y2="46.8482334" gradientTransform="translate(0 5.7705)" gradientUnits="userSpaceOnUse">
      <stop offset="0" stop-color="#b2b2b2"/>
      <stop offset=".859558" stop-color="#fff"/>
      <stop offset="1" stop-color="#fff"/>
    </linearGradient>
    <linearGradient id="New_Gradient_325" data-name="New Gradient 325" x1="48.626089" y1="31.4327374" x2="48.2522699" y2="42.1375158" gradientTransform="translate(0 5.7705)" gradientUnits="userSpaceOnUse">
      <stop offset="0" stop-color="#e5e5e5"/>
      <stop offset=".741577" stop-color="#fff"/>
      <stop offset="1" stop-color="#fff"/>
    </linearGradient>
    <linearGradient id="New_Gradient_324" data-name="New Gradient 324" x1="37.3474676" y1="46.6791337" x2="31.8377996" y2="38.5107149" gradientTransform="translate(0 5.7705)" gradientUnits="userSpaceOnUse">
      <stop offset="0" stop-color="#d9d9d9"/>
      <stop offset=".146072" stop-color="#d9d9d9"/>
      <stop offset=".528091" stop-color="#e5e5e5"/>
      <stop offset="1" stop-color="#fff"/>
    </linearGradient>
    <linearGradient id="New_Gradient_323" data-name="New Gradient 323" x1="40.3574286" y1="50.1797033" x2="44.5030152" y2="49.6706892" gradientTransform="translate(0 5.7705)" gradientUnits="userSpaceOnUse">
      <stop offset="0" stop-color="#ccc"/>
      <stop offset=".561798" stop-color="#ccc"/>
      <stop offset="1" stop-color="#e5e5e5"/>
    </linearGradient>
    <linearGradient id="New_Gradient_322" data-name="New Gradient 322" x1="44.8633783" y1="51.5574601" x2="64.4962726" y2="48.0956511" gradientTransform="translate(0 5.7705)" gradientUnits="userSpaceOnUse">
      <stop offset="0" stop-color="#999"/>
      <stop offset=".5" stop-color="#999"/>
      <stop offset=".870789" stop-color="#b2b2b2"/>
      <stop offset="1" stop-color="#d9d9d9"/>
    </linearGradient>
    <mask id="mask-4" x="3.907738" y="38.9844" width="38.6083195" height="32.7274687" maskUnits="userSpaceOnUse">
      <path d="M6.106,55.8711l2.8403-7.9258s-.0728-.5683,1.2436-.6953c1.2305-.1172,4.2266-.8682,8.2725-1.7236,3.9917-.8409,6.5991-1.7305,7.894-1.8076,1.2979-.0752,1.8526.8603,1.8526.8603,0,0,1.7251,1.7344,4.0967,4.0293,3.3974,3.29,5.3183,4.0439,5.6294,5.3828.2109.918,2.5376,9.4287,2.5376,9.4287,0,0,.3017.8906-.6866,1.251-4.434,1.0947-19.1167,4.7549-19.8925,4.9414-.9151.2207-1.6758.1621-2.7657-1.0967-.6489-.7519-8.2085-7.8916-10.7133-10.8965-.918-.9414-.3086-1.748-.3086-1.748Z" fill="#fff" fill-rule="evenodd" stroke="#fff" stroke-miterlimit="3.8637" stroke-width="4"/>
    </mask>
    <linearGradient id="New_Gradient_336-3" data-name="New Gradient 336" x1="18.4290701" y1="38.1547412" x2="26.3660563" y2="64.1154533" gradientTransform="translate(0 5.7705)" gradientUnits="userSpaceOnUse"><stop offset="0" stop-color="#e5e5e5"/><stop offset="1" stop-color="#b2b2b2"/></linearGradient>
    <linearGradient id="New_Gradient_340-2" data-name="New Gradient 340" x1="29.7908782" y1="45.8130159" x2="30.4785237" y2="65.5046078" gradientTransform="translate(0 5.7705)" gradientUnits="userSpaceOnUse"><stop offset="0" stop-color="#ccc"/><stop offset="1" stop-color="#999"/></linearGradient>
    <linearGradient id="New_Gradient_339-2" data-name="New Gradient 339" x1="21.2625932" y1="33.0440824" x2="23.7190029" y2="53.0499337" gradientTransform="translate(0 5.7705)" gradientUnits="userSpaceOnUse"><stop offset="0" stop-color="#b2b2b2"/><stop offset="1" stop-color="#fff"/></linearGradient>
    <mask id="mask-5" x="5.907738" y="38.9844" width="36.544362" height="31.9453" maskUnits="userSpaceOnUse">
      <path d="M6.106,55.8711l2.8403-7.9258s-.0728-.5683,1.2436-.6953c1.2305-.1172,4.1368-.7549,8.2725-1.7236,3.9741-.9307,6.5991-1.7305,7.894-1.8076,1.2979-.0752,1.8526.8603,1.8526.8603,0,0,1.2012,2.2568,4.9985,6.25,3.6763,3.8721,4.1533,1.4834,4.7276,3.1621.3051.8906,2.5376,9.4287,2.5376,9.4287,0,0,.3017.8906-.6866,1.251-4.434,1.0947-19.1167,4.7549-19.8925,4.9414-.9151.2207-1.6758.1621-2.7657-1.0967-.6489-.7519-8.2085-7.8916-10.7133-10.8965-.918-.9414-.3086-1.748-.3086-1.748Z" fill="#fff" fill-rule="evenodd"/>
    </mask>
    <linearGradient id="New_Gradient_336-4" data-name="New Gradient 336" x1="18.4214538" y1="38.1331815" x2="26.35844" y2="64.0938935" gradientTransform="translate(0 5.7705)" gradientUnits="userSpaceOnUse"><stop offset="0" stop-color="#e5e5e5"/><stop offset="1" stop-color="#b2b2b2"/></linearGradient>
    <linearGradient id="New_Gradient_338-2" data-name="New Gradient 338" x1="29.7908782" y1="45.8130159" x2="30.4785237" y2="65.5046078" gradientTransform="translate(0 5.7705)" gradientUnits="userSpaceOnUse"><stop offset="0" stop-color="#ccc"/><stop offset="1" stop-color="gray"/></linearGradient>
    <linearGradient id="New_Gradient_337-2" data-name="New Gradient 337" x1="21.2625932" y1="33.0440824" x2="23.7190029" y2="53.0499337" gradientTransform="translate(0 5.7705)" gradientUnits="userSpaceOnUse"><stop offset="0" stop-color="#b2b2b2"/><stop offset=".859558" stop-color="#fff"/><stop offset="1" stop-color="#fff"/></linearGradient>
    <linearGradient id="New_Gradient_325-2" data-name="New Gradient 325" x1="23.7560249" y1="37.6343469" x2="23.3821968" y2="48.339385" gradientTransform="translate(0 5.7705)" gradientUnits="userSpaceOnUse"><stop offset="0" stop-color="#e5e5e5"/><stop offset=".741577" stop-color="#fff"/><stop offset="1" stop-color="#fff"/></linearGradient>
    <linearGradient id="New_Gradient_324-2" data-name="New Gradient 324" x1="12.4770645" y1="52.8798291" x2="6.9675621" y2="44.7116558" gradientTransform="translate(0 5.7705)" gradientUnits="userSpaceOnUse"><stop offset="0" stop-color="#d9d9d9"/><stop offset=".146072" stop-color="#d9d9d9"/><stop offset=".528091" stop-color="#e5e5e5"/><stop offset="1" stop-color="#fff"/></linearGradient>
    <linearGradient id="New_Gradient_323-2" data-name="New Gradient 323" x1="15.4875094" y1="56.3813995" x2="19.632983" y2="55.8723993" gradientTransform="translate(0 5.7705)" gradientUnits="userSpaceOnUse"><stop offset="0" stop-color="#ccc"/><stop offset=".561798" stop-color="#ccc"/><stop offset="1" stop-color="#e5e5e5"/></linearGradient>
    <linearGradient id="New_Gradient_322-2" data-name="New Gradient 322" x1="19.9935106" y1="57.7581132" x2="39.6260317" y2="54.29637" gradientTransform="translate(0 5.7705)" gradientUnits="userSpaceOnUse"><stop offset="0" stop-color="#999"/><stop offset=".5" stop-color="#999"/><stop offset=".870789" stop-color="#b2b2b2"/><stop offset="1" stop-color="#d9d9d9"/></linearGradient>
    <mask id="mask-6" x="50.1999702" y="44.376" width="38.6085372" height="32.7261247" maskUnits="userSpaceOnUse">
      <path d="M52.3984,61.2607l2.8399-7.9248s-.0728-.5703,1.2436-.6972c1.231-.1153,4.2266-.8682,8.2725-1.7207,3.9927-.8409,6.6001-1.7325,7.8935-1.8096,1.2979-.0742,1.8531.8613,1.8531.8613,0,0,1.7251,1.7344,4.0971,4.0293,3.3965,3.2901,5.3194,4.044,5.6285,5.3819.2119.9189,2.539,9.4296,2.539,9.4296,0,0,.3003.8907-.688,1.251-4.4345,1.0948-19.1172,4.7559-19.8921,4.9405-.9145.2216-1.6752.163-2.7651-1.0957-.6504-.751-8.2085-7.8917-10.7134-10.8956-.9184-.9414-.3086-1.75-.3086-1.75Z" fill="#fff" fill-rule="evenodd" stroke="#fff" stroke-miterlimit="3.8637" stroke-width="4"/>
    </mask>
    <linearGradient id="New_Gradient_181" data-name="New Gradient 181" x1="64.720538" y1="43.5437001" x2="72.6580046" y2="69.5059836" gradientTransform="translate(0 5.7705)" gradientUnits="userSpaceOnUse">
      <stop offset="0" stop-color="#e5e5e5"/>
      <stop offset="1" stop-color="#b2b2b2"/>
    </linearGradient>
    <linearGradient id="New_Gradient_204" data-name="New Gradient 204" x1="76.0830593" y1="51.202644" x2="76.7707762" y2="70.896279" gradientTransform="translate(0 5.7705)" gradientUnits="userSpaceOnUse">
      <stop offset="0" stop-color="#ccc"/>
      <stop offset="1" stop-color="#999"/>
    </linearGradient>
    <linearGradient id="New_Gradient_203" data-name="New Gradient 203" x1="67.5541606" y1="38.4357771" x2="70.0104223" y2="58.440423" gradientTransform="translate(0 5.7705)" gradientUnits="userSpaceOnUse">
      <stop offset="0" stop-color="#b2b2b2"/>
      <stop offset="1" stop-color="#fff"/>
    </linearGradient>
    <mask id="mask-7" x="52.1999702" y="44.376" width="36.5446298" height="31.9453" maskUnits="userSpaceOnUse">
      <path d="M52.3984,61.2607l2.8399-7.9248s-.0728-.5703,1.2436-.6972c1.231-.1153,4.1372-.753,8.2725-1.7207,3.9746-.9317,6.6001-1.7325,7.8935-1.8096,1.2979-.0742,1.8531.8613,1.8531.8613,0,0,1.2011,2.2569,4.999,6.251,3.6763,3.8711,4.1538,1.4824,4.7266,3.1602.3061.8925,2.539,9.4296,2.539,9.4296,0,0,.3003.8907-.688,1.251-4.4345,1.0948-19.1172,4.7559-19.8921,4.9405-.9145.2216-1.6752.163-2.7651-1.0957-.6504-.751-8.2085-7.8917-10.7134-10.8956-.9184-.9414-.3086-1.75-.3086-1.75Z" fill="#fff" fill-rule="evenodd"/>
    </mask>
    <linearGradient id="New_Gradient_181-2" data-name="New Gradient 181" x1="64.712885" y1="43.52215" x2="72.6503517" y2="69.4844336" gradientTransform="translate(0 5.7705)" gradientUnits="userSpaceOnUse"><stop offset="0" stop-color="#e5e5e5"/><stop offset="1" stop-color="#b2b2b2"/></linearGradient>
    <linearGradient id="New_Gradient_202" data-name="New Gradient 202" x1="76.0830593" y1="51.202644" x2="76.7707762" y2="70.896279" gradientTransform="translate(0 5.7705)" gradientUnits="userSpaceOnUse">
      <stop offset="0" stop-color="#ccc"/>
      <stop offset="1" stop-color="gray"/>
    </linearGradient>
    <linearGradient id="New_Gradient_194" data-name="New Gradient 194" x1="67.5541606" y1="38.4357771" x2="70.0104223" y2="58.440423" gradientTransform="translate(0 5.7705)" gradientUnits="userSpaceOnUse">
      <stop offset="0" stop-color="#b2b2b2"/>
      <stop offset=".859558" stop-color="#fff"/>
      <stop offset="1" stop-color="#fff"/>
    </linearGradient>
    <linearGradient id="New_Gradient_180" data-name="New Gradient 180" x1="70.0475853" y1="43.0244354" x2="69.673793" y2="53.728449" gradientTransform="translate(0 5.7705)" gradientUnits="userSpaceOnUse">
      <stop offset="0" stop-color="#e5e5e5"/>
      <stop offset=".741577" stop-color="#fff"/>
      <stop offset="1" stop-color="#fff"/>
    </linearGradient>
    <linearGradient id="New_Gradient_179" data-name="New Gradient 179" x1="58.7686684" y1="58.2718796" x2="53.2585095" y2="50.1027331" gradientTransform="translate(0 5.7705)" gradientUnits="userSpaceOnUse">
      <stop offset="0" stop-color="#d9d9d9"/>
      <stop offset=".146072" stop-color="#d9d9d9"/>
      <stop offset=".528091" stop-color="#e5e5e5"/>
      <stop offset="1" stop-color="#fff"/>
    </linearGradient>
    <linearGradient id="New_Gradient_178" data-name="New Gradient 178" x1="61.7783164" y1="61.7710907" x2="65.9253966" y2="61.2618933" gradientTransform="translate(0 5.7705)" gradientUnits="userSpaceOnUse">
      <stop offset="0" stop-color="#ccc"/>
      <stop offset=".561798" stop-color="#ccc"/>
      <stop offset="1" stop-color="#e5e5e5"/>
    </linearGradient>
    <linearGradient id="New_Gradient_177" data-name="New Gradient 177" x1="66.2855341" y1="63.148759" x2="85.9175975" y2="59.6870966" gradientTransform="translate(0 5.7705)" gradientUnits="userSpaceOnUse">
      <stop offset="0" stop-color="#999"/>
      <stop offset=".5" stop-color="#999"/>
      <stop offset=".870789" stop-color="#b2b2b2"/>
      <stop offset="1" stop-color="#d9d9d9"/>
    </linearGradient>
    <mask id="mask-8" x="25.3295677" y="50.5762" width="38.6083398" height="32.727036" maskUnits="userSpaceOnUse">
      <path d="M27.5283,67.4629l2.8399-7.9258s-.0738-.5693,1.2441-.6953c1.2305-.1172,4.2266-.8701,8.272-1.7236,3.9922-.8418,6.5996-1.7305,7.8945-1.8086,1.2964-.0742,1.8521.8613,1.8521.8613,0,0,1.7255,1.7324,4.0971,4.0293,3.3965,3.2891,5.3184,4.0439,5.628,5.3828.2124.917,2.539,9.4287,2.539,9.4287,0,0,.3003.8906-.688,1.251-4.4341,1.0937-19.1162,4.7549-19.8916,4.9414-.915.2197-1.6767.1621-2.7651-1.0967-.6504-.751-8.2095-7.8916-10.7139-10.8945-.9184-.9434-.3081-1.75-.3081-1.75Z" fill="#fff" fill-rule="evenodd" stroke="#fff" stroke-miterlimit="3.8637" stroke-width="4"/>
    </mask>
    <linearGradient id="New_Gradient_181-3" data-name="New Gradient 181" x1="39.8502605" y1="49.7463494" x2="47.7872767" y2="75.7071596" gradientTransform="translate(0 5.7705)" gradientUnits="userSpaceOnUse"><stop offset="0" stop-color="#e5e5e5"/><stop offset="1" stop-color="#b2b2b2"/></linearGradient>
    <linearGradient id="New_Gradient_204-2" data-name="New Gradient 204" x1="51.2122463" y1="57.4039046" x2="51.8999244" y2="77.0964268" gradientTransform="translate(0 5.7705)" gradientUnits="userSpaceOnUse"><stop offset="0" stop-color="#ccc"/><stop offset="1" stop-color="#999"/></linearGradient>
    <linearGradient id="New_Gradient_203-2" data-name="New Gradient 203" x1="42.6838361" y1="44.6358588" x2="45.14018" y2="64.6411747" gradientTransform="translate(0 5.7705)" gradientUnits="userSpaceOnUse"><stop offset="0" stop-color="#b2b2b2"/><stop offset="1" stop-color="#fff"/></linearGradient>
    <mask id="mask-9" x="27.3295677" y="50.5762" width="36.5444323" height="31.9453" maskUnits="userSpaceOnUse">
      <path d="M27.5283,67.4629l2.8399-7.9258s-.0738-.5693,1.2441-.6953c1.2305-.1172,4.1357-.7549,8.272-1.7236,3.9741-.9317,6.5996-1.7305,7.8945-1.8086,1.2964-.0742,1.8521.8613,1.8521.8613,0,0,1.2016,2.2568,4.9975,6.251,3.6778,3.8711,4.1538,1.4824,4.7276,3.1611.3066.8906,2.539,9.4287,2.539,9.4287,0,0,.3003.8906-.688,1.251-4.4341,1.0937-19.1162,4.7549-19.8916,4.9414-.915.2197-1.6767.1621-2.7651-1.0967-.6504-.751-8.2095-7.8916-10.7139-10.8945-.9184-.9434-.3081-1.75-.3081-1.75Z" fill="#fff" fill-rule="evenodd"/>
    </mask>
    <linearGradient id="New_Gradient_181-4" data-name="New Gradient 181" x1="39.8426727" y1="49.7247808" x2="47.7796889" y2="75.685591" gradientTransform="translate(0 5.7705)" gradientUnits="userSpaceOnUse"><stop offset="0" stop-color="#e5e5e5"/><stop offset="1" stop-color="#b2b2b2"/></linearGradient>
    <linearGradient id="New_Gradient_202-2" data-name="New Gradient 202" x1="51.2122463" y1="57.4039046" x2="51.8999244" y2="77.0964268" gradientTransform="translate(0 5.7705)" gradientUnits="userSpaceOnUse"><stop offset="0" stop-color="#ccc"/><stop offset="1" stop-color="gray"/></linearGradient>
    <linearGradient id="New_Gradient_194-2" data-name="New Gradient 194" x1="42.6838361" y1="44.6358588" x2="45.14018" y2="64.6411747" gradientTransform="translate(0 5.7705)" gradientUnits="userSpaceOnUse"><stop offset="0" stop-color="#b2b2b2"/><stop offset=".859558" stop-color="#fff"/><stop offset="1" stop-color="#fff"/></linearGradient>
    <linearGradient id="New_Gradient_180-2" data-name="New Gradient 180" x1="45.1775786" y1="49.2256375" x2="44.8037858" y2="59.9296614" gradientTransform="translate(0 5.7705)" gradientUnits="userSpaceOnUse"><stop offset="0" stop-color="#e5e5e5"/><stop offset=".741577" stop-color="#fff"/><stop offset="1" stop-color="#fff"/></linearGradient>
    <linearGradient id="New_Gradient_179-2" data-name="New Gradient 179" x1="33.8986637" y1="64.4719245" x2="28.3888302" y2="56.3032603" gradientTransform="translate(0 5.7705)" gradientUnits="userSpaceOnUse"><stop offset="0" stop-color="#d9d9d9"/><stop offset=".146072" stop-color="#d9d9d9"/><stop offset=".528091" stop-color="#e5e5e5"/><stop offset="1" stop-color="#fff"/></linearGradient>
    <linearGradient id="New_Gradient_178-2" data-name="New Gradient 178" x1="36.9083104" y1="67.972273" x2="41.0543572" y2="67.4632025" gradientTransform="translate(0 5.7705)" gradientUnits="userSpaceOnUse"><stop offset="0" stop-color="#ccc"/><stop offset=".561798" stop-color="#ccc"/><stop offset="1" stop-color="#e5e5e5"/></linearGradient>
    <linearGradient id="New_Gradient_177-2" data-name="New Gradient 177" x1="41.414616" y1="69.3494563" x2="61.0468436" y2="65.8877649" gradientTransform="translate(0 5.7705)" gradientUnits="userSpaceOnUse"><stop offset="0" stop-color="#999"/><stop offset=".5" stop-color="#999"/><stop offset=".870789" stop-color="#b2b2b2"/><stop offset="1" stop-color="#d9d9d9"/></linearGradient>
    <mask id="mask-10" x="20.8701" y="7.8369" width="29.6646" height="25.2901" maskUnits="userSpaceOnUse">
      <polygon points="41.9883 31.127 29.3511 21.3086 34.894 19.9277 32.8872 11.8916 41.1313 9.8369 43.1318 17.873 48.5347 16.5264 41.9883 31.127" fill="#fff" stroke="#fff" stroke-linecap="round" stroke-linejoin="round" stroke-width="4"/>
    </mask>
    <radialGradient id="New_Gradient_190" data-name="New Gradient 190" cx="28.0389418" cy="8.4573015" fx="28.0389418" fy="8.4573015" r="23.4944817" gradientUnits="userSpaceOnUse">
      <stop offset="0" stop-color="#328e36"/>
      <stop offset="1" stop-color="#00cd00"/>
    </radialGradient>
    <radialGradient id="New_Gradient_191" data-name="New Gradient 191" cx="-105.7410357" cy="-191.6052737" fx="-105.7410357" fy="-191.6052737" r="25.3591738" gradientTransform="translate(185.9363 165.7905) rotate(-14.0008848) scale(.9432212)" gradientUnits="userSpaceOnUse">
      <stop offset="0" stop-color="#fff"/>
      <stop offset="1" stop-color="#00cd00"/>
    </radialGradient>
    <mask id="mask-11" x="20.8701" y="8.3105" width="27.6646" height="23.1963" maskUnits="userSpaceOnUse">
      <polygon points="41.9883 31.127 29.3511 21.3086 34.894 19.9277 32.8872 11.8916 41.1313 9.8369 43.1318 17.873 48.5347 16.5264 41.9883 31.127" fill="#fff"/>
    </mask>
    <radialGradient id="New_Gradient_190-2" data-name="New Gradient 190" cx="29.3511" cy="9.8369" fx="29.3511" fy="9.8369" r="20.8012426" gradientUnits="userSpaceOnUse"><stop offset="0" stop-color="#328e36"/><stop offset="1" stop-color="#00cd00"/></radialGradient>
  </defs>
  <g>
    <g>
      <g mask="url(#mask)">
        <g>
          <path d="M55.4565,43.5664l2.8399-7.9248s-.0733-.5693,1.2436-.6963c1.2295-.1162,4.2266-.8691,8.272-1.7226,3.9927-.8409,6.6001-1.7315,7.8941-1.8086,1.2968-.0752,1.8525.8603,1.8525.8603,0,0,1.7256,1.7344,4.0981,4.0293,3.3955,3.2901,5.3184,4.044,5.6275,5.3828.2114.918,2.5386,9.4278,2.5386,9.4278,0,0,.3022.8935-.6866,1.2519-4.436,1.0957-19.1186,4.7568-19.893,4.9424-.9146.2207-1.6763.1611-2.7657-1.0977-.6504-.75-8.208-7.8906-10.7133-10.8945-.918-.9434-.3077-1.75-.3077-1.75Z" fill="url(#New_Gradient_124)" fill-rule="evenodd"/>
          <polygon points="69.395 44.9775 67.6421 58.625 91.8022 53.2197 87.7412 39.6113 69.395 44.9775" fill="url(#New_Gradient_173)" fill-rule="evenodd"/>
          <path d="M56.7329,30.7676s-.7617.6513.0767,1.6367c.7656.9004,11.2905,12.5742,11.8989,13.291.6113.7158,1.3193.7647,2.0034.5801.6865-.1826,15.0342-3.7481,15.811-3.9609,1.521-.417.1509-2.587.1509-2.587l-11.8237-13.0478-18.1172,4.0879Z" fill="url(#New_Gradient_172)" fill-rule="evenodd"/>
          <path d="M55.4565,43.5664l2.8399-7.9248s-.0733-.5693,1.2436-.6963c1.2295-.1162,4.2266-.8691,8.272-1.7226,3.9927-.8409,6.6001-1.7315,7.8941-1.8086,1.2968-.0752,1.8525.8603,1.8525.8603,0,0,1.7256,1.7344,4.0981,4.0293,3.3955,3.2901,5.3184,4.044,5.6275,5.3828.2114.918,2.5386,9.4278,2.5386,9.4278,0,0,.3022.8935-.6866,1.2519-4.436,1.0957-19.1186,4.7568-19.893,4.9424-.9146.2207-1.6763.1611-2.7657-1.0977-.6504-.75-8.208-7.8906-10.7133-10.8945-.918-.9434-.3077-1.75-.3077-1.75Z" fill="none" fill-rule="evenodd" stroke="#000" stroke-miterlimit="3.8637" stroke-width="4"/>
        </g>
      </g>
      <g mask="url(#mask-1)">
        <g>
          <path d="M55.4565,43.5664l2.8399-7.9248s-.0733-.5693,1.2436-.6963c1.2295-.1162,4.1363-.7529,8.272-1.7226,3.9741-.9307,6.6001-1.7315,7.8941-1.8086,1.2968-.0752,1.8525.8603,1.8525.8603,0,0,1.2012,2.2569,4.9985,6.251,3.6763,3.8711,4.1538,1.4824,4.7271,3.1611.3056.8916,2.5386,9.4278,2.5386,9.4278,0,0,.3022.8935-.6866,1.2519-4.436,1.0957-19.1186,4.7568-19.893,4.9424-.9146.2207-1.6763.1611-2.7657-1.0977-.6504-.75-8.208-7.8906-10.7133-10.8945-.918-.9434-.3077-1.75-.3077-1.75Z" fill="url(#New_Gradient_124-2)" fill-rule="evenodd"/>
          <polygon points="69.395 44.9775 67.6421 58.625 91.8022 53.2197 87.7412 39.6113 69.395 44.9775" fill="url(#New_Gradient_164)" fill-rule="evenodd"/>
          <path d="M56.7329,30.7676s-.7617.6513.0767,1.6367c.7656.9004,11.2905,12.5742,11.8989,13.291.6113.7158,1.3193.7647,2.0034.5801.6865-.1826,15.0342-3.7481,15.811-3.9609,1.521-.417.1509-2.587.1509-2.587l-11.8237-13.0478-18.1172,4.0879Z" fill="url(#New_Gradient_159)" fill-rule="evenodd"/>
        </g>
      </g>
      <line x1="69.4697" y1="46.2871" x2="67.8701" y2="56.6846" fill="none" stroke="gray" stroke-linecap="round" stroke-linejoin="round" stroke-width="1.5"/>
      <path d="M59.2168,35.0625s4.2461-.8789,8.271-1.7842c4.0581-.9111,6.7661-1.6767,7.3984-1.7929,2.5581-.4747,2.0767.2041,4.3374,2.2568,2.4449,2.2236,3.2002,3.5596,7.5694,6.9648.6772.5264-.8482,1.2285-1.4449.6114,0,0-2.0927-2.127-4.7373-4.459-1.8955-1.6719-2.146-2.2266-3.9306-4.168-.3438-.374-1.2368-.2715-1.5835-.2051-.6319.1162-3.2442.8535-7.2432,1.753-4.0644.9111-8.4214,1.874-8.4214,1.874-.7539.0967-.9707-.9561-.2153-1.0508Z" fill="url(#New_Gradient_123)"/>
      <path d="M59.2485,35.5215s7.835,7.5605,8.5953,8.3799c.6171.6621.9414.8037,1.6997.6435.9917-.2041,14.375-2.0722,12.7431-6.1699.541-.1445,4.4971,1.7158,4.8408,2.832.1123.3682.5552,1.0547-.2138,1.1817,0,0-15.0733,4.0283-16.0635,4.2353-1.2227.253-2.0059-.1064-2.918-1.084-.7607-.8222-9.4023-9.2363-9.4023-9.2363-.5562-.6562.1616-1.4365.7187-.7822Z" fill="#fff"/>
      <path d="M64.2686,41.9844l-6.0264-5.9834s-2.7759,7.8769-2.9346,8.1152c-.1597.2363.1587.7832.1587.7832l2.2866,2.6572s-1.1474-2.2187.2784-4.1826c1.8188-2.5078,6.2373-1.3896,6.2373-1.3896Z" fill="url(#New_Gradient_113)" fill-rule="evenodd"/>
      <path d="M67.1523,56.7891l1.6465-10.4893s-.2617-.207-.6357-.5889c-.6924-.708-3.1206-3.1152-3.1206-3.1152,0,0,2.3755,4.1123,1.9521,7.874-.3486,3.0772-1.6162,4.6573-1.6162,4.6573l1.7739,1.6621Z" fill="url(#New_Gradient_106)" fill-rule="evenodd"/>
      <line x1="67.2598" y1="56.4375" x2="68.6392" y2="46.5361" fill="none" stroke="#b2b2b2" stroke-linecap="round" stroke-miterlimit="3.8637" stroke-width=".75"/>
      <path d="M68.7988,57.3965c.5347-.1172,20.168-4.9776,20.168-4.9776,0,0,1.0107-.3525.8506-1.0732-.1602-.7158-2.4048-9.3838-2.4048-9.3838,0,0-.2109.3858-.7974.5488,0,0,.9571,3.6348.3203,6.6163-.6396,2.9814-8.0581,5.0419-9.2285,5.3691-1.167.3223-8.9082,2.3193-8.9082,2.3193,0,0-.478.5,0,.5811Z" fill="url(#New_Gradient_105)" fill-rule="evenodd"/>
      <path d="M69.7573,46.8516s.2237.0293.7559-.0381c.5288-.0655,16.4761-4.3438,16.4761-4.3438" fill="none" stroke="#999" stroke-linecap="round" stroke-miterlimit="3.8637" stroke-width=".5"/>
    </g>
    <g>
      <g mask="url(#mask-2)">
        <g>
          <path d="M30.9771,49.6689l2.8403-7.9238s-.0733-.5693,1.2431-.6963c1.2305-.1152,4.2271-.8691,8.2715-1.7236,3.9937-.8408,6.6011-1.7305,7.8946-1.8066,1.2968-.0752,1.8525.8593,1.8525.8593,0,0,1.7261,1.7344,4.0981,4.0303,3.396,3.2891,5.3184,4.0439,5.6285,5.3828.2104.917,2.5376,9.4278,2.5376,9.4278,0,0,.3017.8906-.6866,1.2509-4.4345,1.0948-19.1171,4.7559-19.8935,4.9424-.9141.2197-1.6753.1621-2.7637-1.0967-.6504-.75-8.2095-7.8906-10.7148-10.8955-.9185-.9424-.3076-1.751-.3076-1.751Z" fill="url(#New_Gradient_336)" fill-rule="evenodd"/>
          <polygon points="44.9165 51.0801 43.1626 64.7295 67.3228 59.3213 63.2617 45.7129 44.9165 51.0801" fill="url(#New_Gradient_340)" fill-rule="evenodd"/>
          <path d="M32.2549,36.8721s-.7627.6504.0757,1.6357c.7651.9004,11.2905,12.5733,11.8984,13.2901.6118.7167,1.3189.7656,2.0039.58.6865-.1816,15.0337-3.747,15.8106-3.9609,1.521-.417.1518-2.5859.1518-2.5859l-11.8242-13.0479-18.1162,4.0889Z" fill="url(#New_Gradient_339)" fill-rule="evenodd"/>
          <path d="M30.9771,49.6689l2.8403-7.9238s-.0733-.5693,1.2431-.6963c1.2305-.1152,4.2271-.8691,8.2715-1.7236,3.9937-.8408,6.6011-1.7305,7.8946-1.8066,1.2968-.0752,1.8525.8593,1.8525.8593,0,0,1.7261,1.7344,4.0981,4.0303,3.396,3.2891,5.3184,4.0439,5.6285,5.3828.2104.917,2.5376,9.4278,2.5376,9.4278,0,0,.3017.8906-.6866,1.2509-4.4345,1.0948-19.1171,4.7559-19.8935,4.9424-.9141.2197-1.6753.1621-2.7637-1.0967-.6504-.75-8.2095-7.8906-10.7148-10.8955-.9185-.9424-.3076-1.751-.3076-1.751Z" fill="none" fill-rule="evenodd" stroke="#000" stroke-miterlimit="3.8637" stroke-width="4"/>
        </g>
      </g>
      <g mask="url(#mask-3)">
        <g>
          <path d="M30.9771,49.6689l2.8403-7.9238s-.0733-.5693,1.2431-.6963c1.2305-.1152,4.1377-.7539,8.2715-1.7236,3.9746-.9307,6.6011-1.7305,7.8946-1.8066,1.2968-.0752,1.8525.8593,1.8525.8593,0,0,1.2022,2.2569,5,6.251,3.6763,3.8721,4.1523,1.4824,4.7266,3.1621.3061.8906,2.5376,9.4278,2.5376,9.4278,0,0,.3017.8906-.6866,1.2509-4.4345,1.0948-19.1171,4.7559-19.8935,4.9424-.9141.2197-1.6753.1621-2.7637-1.0967-.6504-.75-8.2095-7.8906-10.7148-10.8955-.9185-.9424-.3076-1.751-.3076-1.751Z" fill="url(#New_Gradient_336-2)" fill-rule="evenodd"/>
          <polygon points="44.9165 51.0801 43.1626 64.7295 67.3228 59.3213 63.2617 45.7129 44.9165 51.0801" fill="url(#New_Gradient_338)" fill-rule="evenodd"/>
          <path d="M32.2549,36.8721s-.7627.6504.0757,1.6357c.7651.9004,11.2905,12.5733,11.8984,13.2901.6118.7167,1.3189.7656,2.0039.58.6865-.1816,15.0337-3.747,15.8106-3.9609,1.521-.417.1518-2.5859.1518-2.5859l-11.8242-13.0479-18.1162,4.0889Z" fill="url(#New_Gradient_337)" fill-rule="evenodd"/>
        </g>
      </g>
      <line x1="44.9897" y1="52.3887" x2="43.3916" y2="62.7871" fill="none" stroke="gray" stroke-linecap="round" stroke-linejoin="round" stroke-width="1.5"/>
      <path d="M34.7383,41.166s4.2456-.8789,8.2695-1.7832c4.0586-.9111,6.7676-1.6767,7.3989-1.7949,2.5581-.4727,2.0782.206,4.337,2.2578,2.4453,2.2217,3.2001,3.5606,7.5698,6.9639.6777.5263-.8482,1.2285-1.4448.6123,0,0-2.0923-2.126-4.7378-4.458-1.8946-1.6719-2.1455-2.2285-3.9302-4.168-.3438-.374-1.2368-.2715-1.583-.207-.6323.1152-3.2451.8545-7.2427,1.7539-4.0649.9101-8.4224,1.874-8.4224,1.874-.7539.0977-.9702-.957-.2143-1.0508Z" fill="url(#New_Gradient_325)"/>
      <path d="M34.7695,41.624s7.8345,7.5606,8.5948,8.3809c.6171.6611.9419.8027,1.7002.6426.9912-.2041,14.374-2.0704,12.7431-6.1709.5405-.1426,4.4981,1.7177,4.8403,2.8349.1124.3672.5557,1.0547-.2128,1.1787,0,0-15.0743,4.0293-16.064,4.2364-1.2232.2529-2.0068-.1055-2.9185-1.083-.7607-.8213-9.4028-9.2383-9.4028-9.2383-.5547-.6533.1626-1.4356.7197-.7813Z" fill="#fff"/>
      <path d="M39.7886,48.0869l-6.0264-5.9814s-2.7744,7.8759-2.9341,8.1142c-.1587.2354.1597.7832.1597.7832l2.2851,2.6563s-1.1459-2.2197.2784-4.1826c1.8193-2.5069,6.2373-1.3897,6.2373-1.3897Z" fill="url(#New_Gradient_324)" fill-rule="evenodd"/>
      <path d="M42.6729,62.8916l1.6464-10.4873s-.2622-.208-.6352-.5908c-.6929-.7061-3.1206-3.1143-3.1206-3.1143,0,0,2.375,4.1113,1.9521,7.874-.3491,3.0762-1.6167,4.6563-1.6167,4.6563l1.774,1.6621Z" fill="url(#New_Gradient_323)" fill-rule="evenodd"/>
      <line x1="42.7803" y1="62.54" x2="44.1597" y2="52.6387" fill="none" stroke="#b2b2b2" stroke-linecap="round" stroke-miterlimit="3.8637" stroke-width=".75"/>
      <path d="M44.3193,63.501c.5342-.1182,20.168-4.9795,20.168-4.9795,0,0,1.0112-.3516.8516-1.0723-.1612-.7168-2.4048-9.3847-2.4048-9.3847,0,0-.2119.3876-.7984.5488,0,0,.9576,3.6357.3204,6.6172-.6392,2.9814-8.0582,5.0429-9.2286,5.3691-1.1665.3223-8.9082,2.3184-8.9082,2.3184,0,0-.478.5019,0,.583Z" fill="url(#New_Gradient_322)" fill-rule="evenodd"/>
      <path d="M45.2773,52.9551s.2242.0283.7569-.0381c.5298-.0645,16.4761-4.3438,16.4761-4.3438" fill="none" stroke="#999" stroke-linecap="round" stroke-miterlimit="3.8637" stroke-width=".5"/>
    </g>
    <g>
      <g mask="url(#mask-4)">
        <g>
          <path d="M6.106,55.8711l2.8403-7.9258s-.0728-.5683,1.2436-.6953c1.2305-.1172,4.2266-.8682,8.2725-1.7236,3.9917-.8409,6.5991-1.7305,7.894-1.8076,1.2979-.0752,1.8526.8603,1.8526.8603,0,0,1.7251,1.7344,4.0967,4.0293,3.3974,3.29,5.3183,4.0439,5.6294,5.3828.2109.918,2.5376,9.4287,2.5376,9.4287,0,0,.3017.8906-.6866,1.251-4.434,1.0947-19.1167,4.7549-19.8925,4.9414-.9151.2207-1.6758.1621-2.7657-1.0967-.6489-.7519-8.2085-7.8916-10.7133-10.8965-.918-.9414-.3086-1.748-.3086-1.748Z" fill="url(#New_Gradient_336-3)" fill-rule="evenodd"/>
          <polygon points="20.0454 57.2832 18.292 70.9297 42.4521 65.5225 38.3906 51.915 20.0454 57.2832" fill="url(#New_Gradient_340-2)" fill-rule="evenodd"/>
          <path d="M7.3833,43.0723s-.7622.6513.0762,1.6367c.7661.9004,11.291,12.5742,11.8994,13.29.6103.7168,1.3198.7656,2.0029.5811.6875-.1826,15.0347-3.7481,15.8111-3.96,1.5229-.418.1528-2.5888.1528-2.5888l-11.8257-13.0469-18.1167,4.0879Z" fill="url(#New_Gradient_339-2)" fill-rule="evenodd"/>
          <path d="M6.106,55.8711l2.8403-7.9258s-.0728-.5683,1.2436-.6953c1.2305-.1172,4.2266-.8682,8.2725-1.7236,3.9917-.8409,6.5991-1.7305,7.894-1.8076,1.2979-.0752,1.8526.8603,1.8526.8603,0,0,1.7251,1.7344,4.0967,4.0293,3.3974,3.29,5.3183,4.0439,5.6294,5.3828.2109.918,2.5376,9.4287,2.5376,9.4287,0,0,.3017.8906-.6866,1.251-4.434,1.0947-19.1167,4.7549-19.8925,4.9414-.9151.2207-1.6758.1621-2.7657-1.0967-.6489-.7519-8.2085-7.8916-10.7133-10.8965-.918-.9414-.3086-1.748-.3086-1.748Z" fill="none" fill-rule="evenodd" stroke="#000" stroke-miterlimit="3.8637" stroke-width="4"/>
        </g>
      </g>
      <g mask="url(#mask-5)">
        <g>
          <path d="M6.106,55.8711l2.8403-7.9258s-.0728-.5683,1.2436-.6953c1.2305-.1172,4.1368-.7549,8.2725-1.7236,3.9741-.9307,6.5991-1.7305,7.894-1.8076,1.2979-.0752,1.8526.8603,1.8526.8603,0,0,1.2012,2.2568,4.9985,6.25,3.6763,3.8721,4.1533,1.4834,4.7276,3.1621.3051.8906,2.5376,9.4287,2.5376,9.4287,0,0,.3017.8906-.6866,1.251-4.434,1.0947-19.1167,4.7549-19.8925,4.9414-.9151.2207-1.6758.1621-2.7657-1.0967-.6489-.7519-8.2085-7.8916-10.7133-10.8965-.918-.9414-.3086-1.748-.3086-1.748Z" fill="url(#New_Gradient_336-4)" fill-rule="evenodd"/>
          <polygon points="20.0454 57.2832 18.292 70.9297 42.4521 65.5225 38.3906 51.915 20.0454 57.2832" fill="url(#New_Gradient_338-2)" fill-rule="evenodd"/>
          <path d="M7.3833,43.0723s-.7622.6513.0762,1.6367c.7661.9004,11.291,12.5742,11.8994,13.29.6103.7168,1.3198.7656,2.0029.5811.6875-.1826,15.0347-3.7481,15.8111-3.96,1.5229-.418.1528-2.5888.1528-2.5888l-11.8257-13.0469-18.1167,4.0879Z" fill="url(#New_Gradient_337-2)" fill-rule="evenodd"/>
        </g>
      </g>
      <line x1="20.1206" y1="58.5918" x2="18.5205" y2="68.9883" fill="none" stroke="gray" stroke-linecap="round" stroke-linejoin="round" stroke-width="1.5"/>
      <path d="M9.8682,47.3662s4.2465-.8789,8.2685-1.7822c4.0596-.9121,6.7686-1.6768,7.4004-1.794,2.5571-.4736,2.0772.2051,4.3369,2.2559,2.4434,2.2246,3.1992,3.5605,7.5698,6.9648.6763.5284-.8486,1.2295-1.4453.6123,0,0-2.0927-2.1279-4.7373-4.4589-1.8955-1.6719-2.146-2.2276-3.9321-4.167-.3433-.375-1.2353-.2725-1.583-.2071-.6318.1153-3.2441.8536-7.2417,1.7539-4.0645.9102-8.4224,1.8741-8.4224,1.8741-.7539.0957-.9687-.9561-.2138-1.0518Z" fill="url(#New_Gradient_325-2)"/>
      <path d="M9.8999,47.8252s7.8325,7.5605,8.5938,8.3799c.6171.6621.9418.8037,1.7011.6445.9907-.2051,14.3731-2.0723,12.7422-6.1719.541-.1435,4.4971,1.7178,4.8408,2.834.1114.3682.5557,1.0547-.2138,1.1797,0,0-15.0738,4.0283-16.064,4.2363-1.2222.253-2.0068-.1054-2.9175-1.083-.7607-.8222-9.4033-9.2373-9.4033-9.2373-.5552-.6553.1626-1.4375.7207-.7822Z" fill="#fff"/>
      <path d="M14.9189,54.2881l-6.0258-5.9824s-2.7764,7.8769-2.9356,8.1152c-.1577.2354.1592.7822.1592.7822l2.2866,2.6563s-1.147-2.2188.2774-4.1817c1.8198-2.5068,6.2382-1.3896,6.2382-1.3896Z" fill="url(#New_Gradient_324-2)" fill-rule="evenodd"/>
      <path d="M17.8022,69.0938l1.647-10.4883s-.2607-.208-.6352-.5909c-.6939-.706-3.1197-3.1142-3.1197-3.1142,0,0,2.3741,4.1103,1.9497,7.874-.3476,3.0772-1.6152,4.6553-1.6152,4.6553l1.7734,1.6641Z" fill="url(#New_Gradient_323-2)" fill-rule="evenodd"/>
      <line x1="17.9097" y1="68.7412" x2="19.29" y2="58.8398" fill="none" stroke="#b2b2b2" stroke-linecap="round" stroke-miterlimit="3.8637" stroke-width=".75"/>
      <path d="M19.4492,69.7012c.5337-.1182,20.1675-4.9766,20.1675-4.9766,0,0,1.0103-.3535.8521-1.0742-.1607-.7168-2.4043-9.3848-2.4043-9.3848,0,0-.2129.3858-.7989.5489,0,0,.9566,3.6357.3203,6.6171-.6391,2.9815-8.0586,5.042-9.229,5.3682-1.1665.3232-8.9077,2.3193-8.9077,2.3193,0,0-.4775.501,0,.5821Z" fill="url(#New_Gradient_322-2)" fill-rule="evenodd"/>
      <path d="M20.4067,59.1563s.2242.0283.7569-.0381c.5302-.0645,16.476-4.3438,16.476-4.3438" fill="none" stroke="#999" stroke-linecap="round" stroke-miterlimit="3.8637" stroke-width=".5"/>
    </g>
    <g>
      <g mask="url(#mask-6)">
        <g>
          <path d="M52.3984,61.2607l2.8399-7.9248s-.0728-.5703,1.2436-.6972c1.231-.1153,4.2266-.8682,8.2725-1.7207,3.9927-.8409,6.6001-1.7325,7.8935-1.8096,1.2979-.0742,1.8531.8613,1.8531.8613,0,0,1.7251,1.7344,4.0971,4.0293,3.3965,3.2901,5.3194,4.044,5.6285,5.3819.2119.9189,2.539,9.4296,2.539,9.4296,0,0,.3003.8907-.688,1.251-4.4345,1.0948-19.1172,4.7559-19.8921,4.9405-.9145.2216-1.6752.163-2.7651-1.0957-.6504-.751-8.2085-7.8917-10.7134-10.8956-.9184-.9414-.3086-1.75-.3086-1.75Z" fill="url(#New_Gradient_181)" fill-rule="evenodd"/>
          <polygon points="66.3374 62.6719 64.584 76.3213 88.7446 70.9141 84.6826 57.3047 66.3374 62.6719" fill="url(#New_Gradient_204)" fill-rule="evenodd"/>
          <path d="M53.6758,48.4629s-.7627.6514.0757,1.6357c.7666.9014,11.291,12.5743,11.8994,13.291.6113.7168,1.3193.7667,2.0029.5801.687-.1816,15.0337-3.747,15.8106-3.9599,1.5219-.418.1518-2.5869.1518-2.5869l-11.8242-13.0469-18.1162,4.0869Z" fill="url(#New_Gradient_203)" fill-rule="evenodd"/>
          <path d="M52.3984,61.2607l2.8399-7.9248s-.0728-.5703,1.2436-.6972c1.231-.1153,4.2266-.8682,8.2725-1.7207,3.9927-.8409,6.6001-1.7325,7.8935-1.8096,1.2979-.0742,1.8531.8613,1.8531.8613,0,0,1.7251,1.7344,4.0971,4.0293,3.3965,3.2901,5.3194,4.044,5.6285,5.3819.2119.9189,2.539,9.4296,2.539,9.4296,0,0,.3003.8907-.688,1.251-4.4345,1.0948-19.1172,4.7559-19.8921,4.9405-.9145.2216-1.6752.163-2.7651-1.0957-.6504-.751-8.2085-7.8917-10.7134-10.8956-.9184-.9414-.3086-1.75-.3086-1.75Z" fill="none" fill-rule="evenodd" stroke="#000" stroke-miterlimit="3.8637" stroke-width="4"/>
        </g>
      </g>
      <g mask="url(#mask-7)">
        <g>
          <path d="M52.3984,61.2607l2.8399-7.9248s-.0728-.5703,1.2436-.6972c1.231-.1153,4.1372-.753,8.2725-1.7207,3.9746-.9317,6.6001-1.7325,7.8935-1.8096,1.2979-.0742,1.8531.8613,1.8531.8613,0,0,1.2011,2.2569,4.999,6.251,3.6763,3.8711,4.1538,1.4824,4.7266,3.1602.3061.8925,2.539,9.4296,2.539,9.4296,0,0,.3003.8907-.688,1.251-4.4345,1.0948-19.1172,4.7559-19.8921,4.9405-.9145.2216-1.6752.163-2.7651-1.0957-.6504-.751-8.2085-7.8917-10.7134-10.8956-.9184-.9414-.3086-1.75-.3086-1.75Z" fill="url(#New_Gradient_181-2)" fill-rule="evenodd"/>
          <polygon points="66.3374 62.6719 64.584 76.3213 88.7446 70.9141 84.6826 57.3047 66.3374 62.6719" fill="url(#New_Gradient_202)" fill-rule="evenodd"/>
          <path d="M53.6758,48.4629s-.7627.6514.0757,1.6357c.7666.9014,11.291,12.5743,11.8994,13.291.6113.7168,1.3193.7667,2.0029.5801.687-.1816,15.0337-3.747,15.8106-3.9599,1.5219-.418.1518-2.5869.1518-2.5869l-11.8242-13.0469-18.1162,4.0869Z" fill="url(#New_Gradient_194)" fill-rule="evenodd"/>
        </g>
      </g>
      <line x1="66.4121" y1="63.9805" x2="64.8125" y2="74.3789" fill="none" stroke="gray" stroke-linecap="round" stroke-linejoin="round" stroke-width="1.5"/>
      <path d="M56.1592,52.7568s4.2461-.8789,8.2695-1.7832c4.0596-.9111,6.7686-1.6767,7.3999-1.7939,2.5571-.4727,2.0772.2051,4.3374,2.2568,2.4439,2.2227,3.1997,3.5606,7.5694,6.9649.6772.5263-.8482,1.2285-1.4449.6103,0,0-2.0923-2.125-4.7373-4.457-1.8955-1.6719-2.1455-2.2276-3.9316-4.169-.3433-.373-1.2354-.2695-1.583-.2041-.6323.1153-3.2442.8526-7.2422,1.753-4.0654.9101-8.4229,1.873-8.4229,1.873-.7534.0987-.9697-.9551-.2143-1.0508Z" fill="url(#New_Gradient_180)"/>
      <path d="M56.1914,53.2168s7.8345,7.5586,8.5952,8.3799c.6167.6611.9409.8027,1.6997.6426.9917-.2041,14.3741-2.0723,12.7432-6.17.541-.1435,4.4971,1.7168,4.8408,2.834.1109.3662.5547,1.0528-.2143,1.1797,0,0-15.0733,4.0283-16.064,4.2354-1.2227.2529-2.0054-.1055-2.917-1.083-.7612-.8233-9.4028-9.2383-9.4028-9.2383-.5562-.6543.1616-1.4356.7192-.7803Z" fill="#fff"/>
      <path d="M61.2095,59.6797l-6.0249-5.9834s-2.7759,7.8769-2.9341,8.1152c-.1602.2354.1582.7832.1582.7832l2.2866,2.6563s-1.1474-2.2188.2783-4.1826c1.8189-2.5069,6.2359-1.3887,6.2359-1.3887Z" fill="url(#New_Gradient_179)" fill-rule="evenodd"/>
      <path d="M64.0942,74.4834l1.6475-10.4883s-.2622-.207-.6362-.5898c-.6924-.7071-3.1201-3.1153-3.1201-3.1153,0,0,2.3754,4.1123,1.9511,7.8741-.3486,3.0771-1.6167,4.6572-1.6167,4.6572l1.7744,1.6621Z" fill="url(#New_Gradient_178)" fill-rule="evenodd"/>
      <line x1="64.2012" y1="74.1309" x2="65.5811" y2="64.2305" fill="none" stroke="#b2b2b2" stroke-linecap="round" stroke-miterlimit="3.8637" stroke-width=".75"/>
      <path d="M65.7417,75.0918c.5342-.1182,20.167-4.9785,20.167-4.9785,0,0,1.0107-.3516.8516-1.0723-.1607-.7168-2.4043-9.3847-2.4043-9.3847,0,0-.212.3867-.7979.5488,0,0,.957,3.6357.3203,6.6172-.6391,2.9804-8.0581,5.041-9.2295,5.3691-1.1665.3223-8.9072,2.3184-8.9072,2.3184,0,0-.4785.5009,0,.582Z" fill="url(#New_Gradient_177)" fill-rule="evenodd"/>
      <path d="M66.6982,64.5469s.2242.0283.7574-.0381c.5293-.0645,16.4765-4.3438,16.4765-4.3438" fill="none" stroke="#999" stroke-linecap="round" stroke-miterlimit="3.8637" stroke-width=".5"/>
    </g>
    <g>
      <g mask="url(#mask-8)">
        <g>
          <path d="M27.5283,67.4629l2.8399-7.9258s-.0738-.5693,1.2441-.6953c1.2305-.1172,4.2266-.8701,8.272-1.7236,3.9922-.8418,6.5996-1.7305,7.8945-1.8086,1.2964-.0742,1.8521.8613,1.8521.8613,0,0,1.7255,1.7324,4.0971,4.0293,3.3965,3.2891,5.3184,4.0439,5.628,5.3828.2124.917,2.539,9.4287,2.539,9.4287,0,0,.3003.8906-.688,1.251-4.4341,1.0937-19.1162,4.7549-19.8916,4.9414-.915.2197-1.6767.1621-2.7651-1.0967-.6504-.751-8.2095-7.8916-10.7139-10.8945-.9184-.9434-.3081-1.75-.3081-1.75Z" fill="url(#New_Gradient_181-3)" fill-rule="evenodd"/>
          <polygon points="41.4663 68.873 39.7129 82.5215 63.874 77.1143 59.8125 63.5059 41.4663 68.873" fill="url(#New_Gradient_204-2)" fill-rule="evenodd"/>
          <path d="M28.8047,54.6641s-.7622.6504.0766,1.6367c.7666.8994,11.2916,12.5742,11.8985,13.29.6118.7158,1.3198.7656,2.0044.5801.686-.1826,15.0332-3.7471,15.8096-3.9609,1.5229-.4161.1528-2.586.1528-2.586l-11.8257-13.0478-18.1162,4.0879Z" fill="url(#New_Gradient_203-2)" fill-rule="evenodd"/>
          <path d="M27.5283,67.4629l2.8399-7.9258s-.0738-.5693,1.2441-.6953c1.2305-.1172,4.2266-.8701,8.272-1.7236,3.9922-.8418,6.5996-1.7305,7.8945-1.8086,1.2964-.0742,1.8521.8613,1.8521.8613,0,0,1.7255,1.7324,4.0971,4.0293,3.3965,3.2891,5.3184,4.0439,5.628,5.3828.2124.917,2.539,9.4287,2.539,9.4287,0,0,.3003.8906-.688,1.251-4.4341,1.0937-19.1162,4.7549-19.8916,4.9414-.915.2197-1.6767.1621-2.7651-1.0967-.6504-.751-8.2095-7.8916-10.7139-10.8945-.9184-.9434-.3081-1.75-.3081-1.75Z" fill="none" fill-rule="evenodd" stroke="#000" stroke-miterlimit="3.8637" stroke-width="4"/>
        </g>
      </g>
      <g mask="url(#mask-9)">
        <g>
          <path d="M27.5283,67.4629l2.8399-7.9258s-.0738-.5693,1.2441-.6953c1.2305-.1172,4.1357-.7549,8.272-1.7236,3.9741-.9317,6.5996-1.7305,7.8945-1.8086,1.2964-.0742,1.8521.8613,1.8521.8613,0,0,1.2016,2.2568,4.9975,6.251,3.6778,3.8711,4.1538,1.4824,4.7276,3.1611.3066.8906,2.539,9.4287,2.539,9.4287,0,0,.3003.8906-.688,1.251-4.4341,1.0937-19.1162,4.7549-19.8916,4.9414-.915.2197-1.6767.1621-2.7651-1.0967-.6504-.751-8.2095-7.8916-10.7139-10.8945-.9184-.9434-.3081-1.75-.3081-1.75Z" fill="url(#New_Gradient_181-4)" fill-rule="evenodd"/>
          <polygon points="41.4663 68.873 39.7129 82.5215 63.874 77.1143 59.8125 63.5059 41.4663 68.873" fill="url(#New_Gradient_202-2)" fill-rule="evenodd"/>
          <path d="M28.8047,54.6641s-.7622.6504.0766,1.6367c.7666.8994,11.2916,12.5742,11.8985,13.29.6118.7158,1.3198.7656,2.0044.5801.686-.1826,15.0332-3.7471,15.8096-3.9609,1.5229-.4161.1528-2.586.1528-2.586l-11.8257-13.0478-18.1162,4.0879Z" fill="url(#New_Gradient_194-2)" fill-rule="evenodd"/>
        </g>
      </g>
      <line x1="41.542" y1="70.1816" x2="39.9429" y2="80.5801" fill="none" stroke="gray" stroke-linecap="round" stroke-linejoin="round" stroke-width="1.5"/>
      <path d="M31.2891,58.96s4.247-.8809,8.27-1.7842c4.0581-.9121,6.7671-1.6768,7.3989-1.7949,2.5576-.4727,2.0772.205,4.3369,2.2568,2.4448,2.2227,3.1992,3.5605,7.5708,6.9648.6763.5264-.8496,1.2286-1.4448.6104,0,0-2.0928-2.124-4.7383-4.457-1.896-1.6719-2.1465-2.2286-3.9311-4.167-.3448-.375-1.2354-.2725-1.5835-.2071-.6319.1153-3.2437.8536-7.2417,1.7539-4.0655.9102-8.4224,1.8741-8.4224,1.8741-.7539.0957-.9697-.9571-.2148-1.0498Z" fill="url(#New_Gradient_180-2)"/>
      <path d="M31.3208,59.417s7.834,7.5605,8.5942,8.3799c.6177.6611.9419.8037,1.7007.6445.9907-.2051,14.3731-2.0732,12.7437-6.1699.5405-.1455,4.4966,1.7139,4.8408,2.832.1113.3682.5542,1.0557-.2148,1.1797,0,0-15.0728,4.0283-16.063,4.2363-1.2232.253-2.0069-.1054-2.918-1.084-.7617-.8212-9.4028-9.2363-9.4028-9.2363-.5562-.6553.1626-1.4365.7192-.7822Z" fill="#fff"/>
      <path d="M36.3403,65.8789l-6.0263-5.9814s-2.7759,7.8769-2.9351,8.1142c-.1582.2363.1592.7842.1592.7842l2.2871,2.6553s-1.148-2.2188.2773-4.1817c1.8189-2.5068,6.2378-1.3906,6.2378-1.3906Z" fill="url(#New_Gradient_179-2)" fill-rule="evenodd"/>
      <path d="M39.2241,80.6836l1.6465-10.4873s-.2612-.208-.6357-.5899c-.6924-.707-3.1197-3.1142-3.1197-3.1142,0,0,2.375,4.1084,1.9512,7.874-.3486,3.0772-1.6167,4.6553-1.6167,4.6553l1.7744,1.6621Z" fill="url(#New_Gradient_178-2)" fill-rule="evenodd"/>
      <line x1="39.3311" y1="80.333" x2="40.7109" y2="70.4307" fill="none" stroke="#b2b2b2" stroke-linecap="round" stroke-miterlimit="3.8637" stroke-width=".75"/>
      <path d="M40.8706,81.293c.5347-.1182,20.168-4.9776,20.168-4.9776,0,0,1.0107-.3545.851-1.0732-.1606-.7178-2.4038-9.3858-2.4038-9.3858,0,0-.2124.3877-.7978.5489,0,0,.9565,3.6347.3198,6.6162-.6401,2.9834-8.0581,5.0439-9.2285,5.3701-1.1665.3223-8.9087,2.3184-8.9087,2.3184,0,0-.478.5019,0,.583Z" fill="url(#New_Gradient_177-2)" fill-rule="evenodd"/>
      <path d="M41.8276,70.748s.2256.0274.7569-.038c.5302-.0655,16.4775-4.3438,16.4775-4.3438" fill="none" stroke="#999" stroke-linecap="round" stroke-miterlimit="3.8637" stroke-width=".5"/>
    </g>
    <path d="M72.7964,39.1016c-.252.1797-.836.4961-1.7202.7265l-.1118.4541c.5581-.0849,1.2133.0176,1.4619.3721.3701.5264-.1992.9131-1.0181,1.1172-.3345.083-.7886.1221-1.0923.0801l-.063-.4327c.291.0245.6011,0,.8784-.0693.3355-.084.5777-.2285.4229-.4463-.1782-.2314-.6724-.2275-1.4009-.0869l.1436-.8262c-1.8687.295-3.6128-.2812-4.46-1.4882-.9477-1.3536-.1533-2.7129,2.1402-3.2842.7597-.1895,1.5283-.2432,1.9619-.2119l.1342.6796c-.3779-.0234-.9355-.0117-1.6508.167-1.606.3995-1.9532,1.3721-1.3106,2.2881.7124,1.0166,2.2031,1.3809,3.6055,1.0303.7153-.1777,1.1431-.4229,1.4311-.6006l.648.5313Z" fill="#666"/>
    <path d="M44.7954,41.207c2.4531-.6103,5.2588.1602,6.3408,1.7032,1.0962,1.5586.0464,3.2929-2.4214,3.9091-2.4819.6182-5.3178-.1474-6.413-1.707-1.0826-1.542-.0039-3.2832,2.4795-3.9014l.0141-.0039ZM45.0415,41.583c-2.0879.5205-2.9438,1.9912-1.977,3.3721.9501,1.3515,3.3017,2.0117,5.4028,1.4863,2.0727-.4932,2.9204-1.9736,1.9531-3.3535-.9473-1.3525-3.3057-2.0225-5.3647-1.5088l-.0142.0039ZM47.8022,42.5371c-.2402-.0264-.8823-.0371-1.583.1367-1.3574.3379-1.6479,1.0528-1.1396,1.7783.498.7071,1.6147,1.1006,2.9433.7686.5997-.1484,1.084-.3877,1.3238-.6074l.4184.3008c-.3672.3369-1.0005.58-1.6001.7295-1.6933.4218-3.1816-.0586-3.8242-.9756-.7261-1.0332.1304-2.0157,1.605-2.3838.7588-.1885,1.4971-.2129,1.7778-.1553l.0786.4082Z" fill="#666"/>
    <path d="M20.4058,54.8848l-2.8775-4.1016c-.727-1.0342-.7387-1.7129-.3369-2.2402.3237-.4444.9165-.7715,1.793-.9903,1.4009-.3486,2.9892-.1172,3.6899.8809.2163.3086.2378.6328.1856.8281-.5362.336-.752.6875-.5362.9961.2168.3086.6426.4268,1.2984.6045.8388.2178,1.707.4502,2.164,1.1025.6001.8536.0196,1.6905-1.6025,2.0938-.5542.1396-1.1616.2266-1.6807.1953l-.1919-.665c.4615.0224.9141-.0157,1.3536-.125.9345-.2325,1.1889-.7022.895-1.1182-.2666-.3809-.7242-.5674-1.4444-.7373-.8667-.2109-1.6289-.415-1.9853-.9238-.3242-.4639-.1519-.9756.5176-1.4395.0102-.1299-.0357-.2685-.1436-.4228-.439-.628-1.3213-.834-2.2124-.6114-1.124.2793-1.4097.9278-.5044,2.2139l2.9043,4.1387-1.2856.3213Z" fill="#666"/>
    <path d="M70.5332,57.3809c.2651.3808.5566.747.8403,1.0283l-1.1552.2871-.5044-.5244-.0445.0107c-.1377.4385-.6943.9404-1.7016,1.1904-1.4317.3594-2.6011-.0849-3.0469-.7216-.7446-1.0606.3667-2.0196,3.104-2.6934l-.063-.0889c-.2554-.3642-.8818-.9843-2.3208-.6171-.6704.1679-1.2759.458-1.626.79l-.667-.4619c.4258-.3721,1.1792-.7403,2.0694-.9649,2.1748-.542,3.3452.2432,3.9629,1.1231l1.1528,1.6426ZM68.4419,56.5059c-1.4146.333-2.8984.8828-2.2988,1.7353.3686.5274,1.0903.6231,1.7329.4639.9336-.2324,1.2783-.7461,1.2221-1.168-.0156-.0928-.0649-.1875-.121-.2685l-.5352-.7627ZM64.1611,52.5293c.8745-.2168,1.7061.0137,2.044.4932.3291.4736-.044.9921-.8755,1.1992-.877.2197-1.7515.001-2.0737-.4629-.3335-.4717-.0147-.999.8901-1.2256l.0151-.0039ZM64.3579,52.8867c-.4375.1104-.5498.4151-.3594.6865.1739.2452.6368.418,1.0743.3077.4668-.1163.6005-.4151.4101-.6875-.1914-.2725-.6435-.4278-1.1103-.3106l-.0147.0039Z" fill="#666"/>
    <path d="M44.459,61.293c.6997.998,2.0747,1.2949,3.4331.956.8769-.2177,1.3276-.4795,1.7261-.7177l.6298.5039c-.4311.3408-1.3105.6787-2.0834.8711-1.2266.3056-2.4712.2441-3.5289-.337l-.0288.0078c-.0239.8497-.9257,1.4463-2.0063,1.7168-1.8701.4649-3.918-.0595-4.8911-1.4462-1.0074-1.4336-.1402-2.6934,1.7563-3.1661,1.1988-.2988,2.4863-.1728,3.397.3887l.0293-.0078c.0293-.8379.7505-1.4229,1.8452-1.6963,2.2793-.5674,3.7603.5654,4.3076,1.3467.1089.1533.1978.3027.2246.3916l-4.8105,1.1885ZM39.8872,60.2783c-1.5332.3828-1.4058,1.4697-.8769,2.2237.6684.9521,2.061,1.4697,3.2719,1.1679,1.2407-.3086,1.5962-1.1982.8838-2.2148-.5864-.835-1.8203-1.541-3.2651-1.1807l-.0137.0039ZM47.6504,59.8271c-.3301-.4951-1.2109-1.2138-2.627-.8613-1.2714.3184-1.2963,1.1885-.9951,1.7637l3.6221-.9024Z" fill="#666"/>
  </g>
  <g>
    <g mask="url(#mask-10)">
      <g>
        <polygon points="41.9883 31.127 29.3511 21.3086 34.894 19.9277 32.8872 11.8916 41.1313 9.8369 43.1318 17.873 48.5347 16.5264 41.9883 31.127" fill="url(#New_Gradient_190)"/>
        <polygon points="20.8701 14.915 39.7744 8.3105 42.4717 19.1318 46.8105 18.0508 40.7256 31.5068 20.8701 14.915" fill="url(#New_Gradient_191)" fill-rule="evenodd"/>
        <polygon points="41.9883 31.127 29.3511 21.3086 34.894 19.9277 32.8872 11.8916 41.1313 9.8369 43.1318 17.873 48.5347 16.5264 41.9883 31.127" fill="none" stroke="#000" stroke-linecap="round" stroke-linejoin="round" stroke-width="4"/>
      </g>
    </g>
    <g mask="url(#mask-11)">
      <g>
        <polygon points="41.9883 31.127 29.3511 21.3086 34.894 19.9277 32.8872 11.8916 41.1313 9.8369 43.1318 17.873 48.5347 16.5264 41.9883 31.127" fill="url(#New_Gradient_190-2)"/>
        <polygon points="20.8701 14.915 39.7744 8.3105 42.4717 19.1318 46.8105 18.0508 40.7256 31.5068 20.8701 14.915" fill="url(#New_Gradient_191)" fill-rule="evenodd"/>
      </g>
    </g>
  </g>
</svg>