<?xml version="1.0" encoding="UTF-8"?>
<svg id="Layer_1" data-name="Layer 1" xmlns="http://www.w3.org/2000/svg" width="96" height="96" xmlns:xlink="http://www.w3.org/1999/xlink" viewBox="0 0 96 96">
  <defs>
    <linearGradient id="New_Gradient_80" data-name="New Gradient 80" x1="63.7411116" y1="121.2970391" x2="33.611872" y2="-9.2070354" gradientUnits="userSpaceOnUse">
      <stop offset="0" stop-color="#ffff87"/>
      <stop offset="1" stop-color="#ffad00"/>
    </linearGradient>
    <mask id="mask" x="27.5250378" y="27.5345415" width="42.0169622" height="59.0035585" maskUnits="userSpaceOnUse">
      <path d="M41.7041,40.8965c1.9082-1.1045,2.5166-3.6436,1.3457-5.6704-1.1768-2.0235-3.668-2.7705-5.583-1.6665-1.9102,1.1015-2.5127,3.6396-1.3418,5.6665,1.1699,2.0244,3.667,2.7724,5.5791,1.6704ZM54.1631,54.5654l15.3789,26.6382-.4756,2.0117-2.0068,1.1568-5.2305-1.5694.3984-1.6865-1.1582-2.0171-1.5254-.4546.7012-2.9716-1.0556-1.834-3.6387-1.0904.3994-1.7036-1.0361-1.7988-2.4883-.7446-1.1172-1.9327.4414-1.8784-1.8418-.5522-3.0439-5.2676-2.0791,1.2354s-.7959.2495-1.3155-.6451c-1.0976-1.8999,1.7442-2.6508.708-4.4419,0,0-1.5996-1.2251-2.5009-.7075-.8975.5181-7.6592,1.0684-12.044-6.5224-5.373-9.2998.6817-15.2188,5.3086-17.8902,4.6328-2.6738,12.9209-4.9741,18.2647,4.2827,4.3847,7.5918.5244,13.17-.3711,13.6895-.9014.5137-.6416,2.5205-.6416,2.5205,1.0371,1.7959,3.0586-.3667,4.1552,1.5278.5225.899-.3349,1.5992-.3349,1.5992l-1.8506,1.0468Z" fill="#fff" fill-rule="evenodd"/>
    </mask>
    <linearGradient id="linear-gradient" x1="46.0418209" y1="61.8064803" x2="80.2574213" y2="29.6417127" gradientUnits="userSpaceOnUse">
      <stop offset="0" stop-color="#f2f2f2"/>
      <stop offset=".3596726" stop-color="#9d9d9d"/>
      <stop offset="1" stop-color="#000"/>
    </linearGradient>
    <linearGradient id="linear-gradient-2" x1="72.9644006" y1="383.517036" x2="79.0385575" y2="391.1100333" gradientTransform="translate(-225.0137 -243.428) rotate(-30.0007278)" gradientUnits="userSpaceOnUse">
      <stop offset=".005618" stop-color="#fff"/>
      <stop offset="1" stop-color="#ccc"/>
    </linearGradient>
    <linearGradient id="New_Gradient_79" data-name="New Gradient 79" x1="90.7216258" y1="369.1928506" x2="102.3260356" y2="392.8396437" gradientTransform="translate(-225.0137 -243.428) rotate(-30.0007278)" gradientUnits="userSpaceOnUse">
      <stop offset="0" stop-color="#fff"/>
      <stop offset=".112366" stop-color="#fff"/>
      <stop offset="1" stop-color="#ccc"/>
    </linearGradient>
    <linearGradient id="New_Gradient_78" data-name="New Gradient 78" x1="79.7427079" y1="379.3130282" x2="93.4145906" y2="379.095747" gradientTransform="translate(-225.0137 -243.428) rotate(-30.0007278)" gradientUnits="userSpaceOnUse">
      <stop offset="0" stop-color="#d9d9d9"/>
      <stop offset=".814606" stop-color="#fff"/>
      <stop offset="1" stop-color="#fff"/>
    </linearGradient>
    <mask id="mask-1" x="31.8310712" y="22.1447083" width="51.4453288" height="51.9563917" maskUnits="userSpaceOnUse">
      <path d="M45.8975,35.7524c1.5615-1.559,1.4853-4.1684-.1661-5.8208-1.6591-1.6552-4.2646-1.7295-5.8271-.1689-1.5576,1.5625-1.4814,4.168.166,5.8223,1.6572,1.6518,4.2666,1.728,5.8272.1674ZM61.4727,45.7334l21.748,21.7476.0557,2.0659-1.6358,1.6382-5.4551-.1587-.0517-1.7344-1.6465-1.647-1.5869-.0498-.0899-3.0478-1.496-1.4966-3.8018-.1113-.0508-1.7535-1.4697-1.4648-2.5928-.0762-1.582-1.5805-.0567-1.9268-1.916-.0547-4.3027-4.3008-1.6934,1.7261s-.706.4507-1.4394-.2803c-1.5488-1.5522,1.0019-3.0127-.4649-4.4731,0,0-1.8681-.7671-2.6005-.0342-.7295.7324-7.125,3.0137-13.3223-3.1841-7.5879-7.5937-3.2783-14.8813.501-18.6572,3.7841-3.7773,11.1914-8.146,18.7451-.5913,6.2051,6.1997,3.9219,12.5869,3.1845,13.3218-.7285.7324.0362,2.6015.0362,2.6015,1.4648,1.4639,2.8613-1.1474,4.4092.3999.7343.7368.0879,1.6328.0879,1.6328l-1.5127,1.4893Z" fill="#fff" fill-rule="evenodd"/>
    </mask>
    <linearGradient id="New_Gradient_77" data-name="New Gradient 77" x1="68.189583" y1="98.8513301" x2="46.4156108" y2="4.5378945" gradientUnits="userSpaceOnUse">
      <stop offset="0" stop-color="#ffff87"/>
      <stop offset="1" stop-color="#ffad00"/>
    </linearGradient>
    <linearGradient id="linear-gradient-3" x1="33.8354949" y1="518.1084734" x2="69.5792647" y2="628.1164853" gradientTransform="translate(-372.1146 -310.4091) rotate(-45)" gradientUnits="userSpaceOnUse">
      <stop offset="0" stop-color="#ffffb3"/>
      <stop offset=".44382" stop-color="#fcd72f"/>
      <stop offset="1" stop-color="#ffcd00"/>
    </linearGradient>
    <linearGradient id="New_Gradient_76" data-name="New Gradient 76" x1="52.1749237" y1="521.689267" x2="66.3714017" y2="565.3815335" gradientTransform="translate(-372.1146 -310.4091) rotate(-45)" gradientUnits="userSpaceOnUse">
      <stop offset="0" stop-color="#ffffb3"/>
      <stop offset=".404495" stop-color="#ffffb3"/>
      <stop offset=".938202" stop-color="#ffcd00"/>
      <stop offset="1" stop-color="#ffcd00"/>
    </linearGradient>
    <linearGradient id="New_Gradient_75" data-name="New Gradient 75" x1="49.2950351" y1="533.0262827" x2="51.9428824" y2="543.646218" gradientTransform="translate(-372.1146 -310.4091) rotate(-45)" gradientUnits="userSpaceOnUse">
      <stop offset="0" stop-color="#ffcd00"/>
      <stop offset=".578659" stop-color="#ffffb3"/>
      <stop offset="1" stop-color="#ffffb3"/>
    </linearGradient>
    <mask id="mask-2" x="6.8916" y="15.0015" width="40.3193" height="40.9736" maskUnits="userSpaceOnUse">
      <path d="M44.9688,29.0269v-14.0254H12.1768v8.7602h-5.2852v25.9888h10.5684v6.2246h16.1445v-2.0029c-1.2012-.9956-2.3789-2.3272-3.4209-4.1343-1.043-1.8081-1.6475-3.4829-1.9219-5.0361-1.1777-3.3912-.7871-6.25.3682-8.5909h-3.1338v-4.3413h13.4717c-.0498.2671-.084.5469-.084.8311,0,2.3008,1.8682,4.1636,4.166,4.1636,2.2969,0,4.1611-1.8628,4.1611-4.1636,0-1.6016-.917-2.9756-2.2421-3.6738Z" fill="#fff"/>
    </mask>
    <mask id="mask-3" x="11.7857647" y="16.4946436" width="32.355092" height="32.4395084" maskUnits="userSpaceOnUse">
      <path d="M30.0107,48.8931c-.0673.1635-4.6347-.1953-5.79-.4795-8.5742-2.1148-14.0674-10.7881-11.998-19.4873,2.0683-8.7036,10.9677-14.0284,19.4921-12.0015,8.5206,2.0293,14.0498,10.7607,11.9971,19.4907-.1426.5977-.2041.9185-.292,1.0049-.374.3496-4.0928-.2685-4.3017-1.0508-.0684-.2334.1718-.477.29-.9756,1.1279-4.7304-2.0146-11.0781-9.0576-12.7529-7.0391-1.6787-12.6983,2.5772-13.8233,7.3081-1.1308,4.7241,2.0147,11.0767,9.0567,12.7505.9443.229,1.9043.3442,2.2607.3535l2.166,5.8399Z" fill="#fff"/>
    </mask>
    <radialGradient id="New_Gradient_72" data-name="New Gradient 72" cx="39.6079084" cy="44.5613063" fx="39.6079084" fy="44.5613063" r="31.3004626" gradientUnits="userSpaceOnUse">
      <stop offset="0" stop-color="#333"/>
      <stop offset="1" stop-color="#999"/>
    </radialGradient>
    <linearGradient id="New_Gradient_74" data-name="New Gradient 74" x1="70.0485429" y1="-189.1215264" x2="83.8932577" y2="-182.3690078" gradientTransform="translate(-72.1102 172.5022927) rotate(13.3828989) scale(.8018749)" gradientUnits="userSpaceOnUse">
      <stop offset="0" stop-color="gray"/>
      <stop offset="1" stop-color="#e5e5e5"/>
    </linearGradient>
    <linearGradient id="New_Gradient_73" data-name="New Gradient 73" x1="91.8248899" y1="-205.9984932" x2="95.8146574" y2="-202.0087258" gradientTransform="translate(-72.1102 172.5022927) rotate(13.3828989) scale(.8018749)" gradientUnits="userSpaceOnUse">
      <stop offset="0" stop-color="#737373"/>
      <stop offset="1" stop-color="#d9d9d9"/>
    </linearGradient>
    <linearGradient id="New_Gradient_71" data-name="New Gradient 71" x1="65.0294286" y1="-217.3568289" x2="90.1720315" y2="-187.3930416" gradientTransform="translate(-72.1102 172.5022927) rotate(13.3828989) scale(.8018749)" gradientUnits="userSpaceOnUse">
      <stop offset="0" stop-color="#fff"/>
      <stop offset=".146072" stop-color="#fff"/>
      <stop offset="1" stop-color="#737373"/>
    </linearGradient>
  </defs>
  <path d="M83.2207,67.481l-20.4424-20.4454.7559-.7451s.3486-2.5708-.3838-3.3027c-.0518-.1265-.1309-.2529-.2529-.3765-1.4746-1.4726-2.8096.812-4.1983-.2251.0274-.2832.1172-.5415.3018-.728.5224-.5234,1.8125-3.896.3037-8.0269-.3799-2.208-1.4815-4.7871-4.0371-7.3432-5.1192-5.1177-10.1631-4.7593-14.0674-2.8257-2.2022-3.1768-5.5137-5.5908-9.4854-6.5376-8.5244-2.0269-17.4238,3.2979-19.4921,12.0015-2.0694,8.6992,3.4238,17.3725,11.998,19.4873.9873.2427,4.4414.5371,5.4834.5205.1543.2969.3027.5962.4795.9038,4.3838,7.5908,11.1406,7.0425,12.0352,6.522.5527-.316,1.3701.0195,1.9179.3281-.4404.7622-1.2041,1.4473-.8066,2.4712-.0488.5908.1142,1.3506.6875,2.3496.5224.8975,1.3154.644,1.3154.644l2.085-1.2363,3.039,5.2744.9522.5479.4472,1.8755,1.1143,1.9365,2.4922.7427.0879,1.455.541,2.0508,3.6436,1.0884.3291.5644-.5206,2.1924.5479,2.0454,1.5205.4566.4365.7461-.2197.9101.5459,2.0469,5.2344,1.5689,1.999-1.1563.4775-2.0112-.5439-2.0474-14.3506-24.8584,1.3652-.7764s.378-.3178.4717-.7954l3.3623,3.3599,1.4268-.0688.5488,2.0454,1.5811,1.5844,2.5966.0743.96.9638.0088.2071.0449.0019.5039,2.0488,3.8018.1075.9971.9936.04,1.5039.5508,2.0513,1.5849.0425,1.1416,1.1479.0078.1895.1905.0039.3564,2.0434,5.461.1582,1.6347-1.6381-.6074-4.1128ZM33.5,30.8179c-3.4219,2.3872-6.8721,6.4526-5.7061,12.2314-.3984-.0166-1.3007-.1284-2.2099-.3496-7.042-1.6738-10.1875-8.0264-9.0567-12.7505,1.125-4.7309,6.7842-8.9868,13.8233-7.3081,2.8281.6694,5.0146,2.1016,6.5605,3.8721-.1289.1225-.2646.2451-.3886.3662-1.0616,1.061-2.1553,2.3999-3.0225,3.9385Z" fill="url(#New_Gradient_80)" fill-rule="evenodd" stroke="#000" stroke-miterlimit="3.8637" stroke-width="4"/>
  <path d="M83.2207,67.481l-20.4424-20.4454.7559-.7451s.3486-2.5708-.3838-3.3027c-.0518-.1265-.1309-.2529-.2529-.3765-1.4746-1.4726-2.8096.812-4.1983-.2251.0274-.2832.1172-.5415.3018-.728.5224-.5234,1.8125-3.896.3037-8.0269-.3799-2.208-1.4815-4.7871-4.0371-7.3432-5.1192-5.1177-10.1631-4.7593-14.0674-2.8257-2.2022-3.1768-5.5137-5.5908-9.4854-6.5376-8.5244-2.0269-17.4238,3.2979-19.4921,12.0015-2.0694,8.6992,3.4238,17.3725,11.998,19.4873.9873.2427,4.4414.5371,5.4834.5205.1543.2969.3027.5962.4795.9038,4.3838,7.5908,11.1406,7.0425,12.0352,6.522.5527-.316,1.3701.0195,1.9179.3281-.4404.7622-1.2041,1.4473-.8066,2.4712-.0488.5908.1142,1.3506.6875,2.3496.5224.8975,1.3154.644,1.3154.644l2.085-1.2363,3.039,5.2744.9522.5479.4472,1.8755,1.1143,1.9365,2.4922.7427.0879,1.455.541,2.0508,3.6436,1.0884.3291.5644-.5206,2.1924.5479,2.0454,1.5205.4566.4365.7461-.2197.9101.5459,2.0469,5.2344,1.5689,1.999-1.1563.4775-2.0112-.5439-2.0474-14.3506-24.8584,1.3652-.7764s.378-.3178.4717-.7954l3.3623,3.3599,1.4268-.0688.5488,2.0454,1.5811,1.5844,2.5966.0743.96.9638.0088.2071.0449.0019.5039,2.0488,3.8018.1075.9971.9936.04,1.5039.5508,2.0513,1.5849.0425,1.1416,1.1479.0078.1895.1905.0039.3564,2.0434,5.461.1582,1.6347-1.6381-.6074-4.1128ZM33.5,30.8179c-3.4219,2.3872-6.8721,6.4526-5.7061,12.2314-.3984-.0166-1.3007-.1284-2.2099-.3496-7.042-1.6738-10.1875-8.0264-9.0567-12.7505,1.125-4.7309,6.7842-8.9868,13.8233-7.3081,2.8281.6694,5.0146,2.1016,6.5605,3.8721-.1289.1225-.2646.2451-.3886.3662-1.0616,1.061-2.1553,2.3999-3.0225,3.9385Z" fill-rule="evenodd"/>
  <path d="M69.542,81.2036l-14.3506-24.8584,1.3652-.7764s.8604-.6997.3389-1.5986c-.1963-.3437-.4267-.5513-.6728-.6772.2128-.2749.4716-.7788.1259-1.3736-.9111-1.5844-2.4814-.3442-3.5713-.9345.0811-.4439.2549-.8667.6055-1.0674.7871-.4536,3.8408-4.7945,1.6358-10.9697-.2793-1.4698-.8321-3.0621-1.8125-4.7662-5.3438-9.2568-13.6319-6.9565-18.2647-4.2827-4.1016,2.3706-9.3203,7.313-6.6797,14.9029.2744,1.5532.8789,3.228,1.9219,5.0361,4.3838,7.5908,11.1406,7.0425,12.0352,6.522.5527-.316,1.3701.0195,1.9179.3281-.4404.7622-1.2041,1.4473-.8066,2.4712-.0488.5908.1142,1.3506.6875,2.3496.5224.8975,1.3154.644,1.3154.644l2.085-1.2363,3.039,5.2744.9522.5479.4472,1.8755,1.1143,1.9365,2.4922.7427.0879,1.455.541,2.0508,3.6436,1.0884.3291.5644-.5206,2.1924.5479,2.0454,1.5205.4566.4365.7461-.2197.9101.5459,2.0469,5.2344,1.5689,1.999-1.1563.4775-2.0112-.5439-2.0474ZM41.7041,40.8965c-1.9121,1.102-4.4092.354-5.5791-1.6704-.0156-.022-.0205-.0464-.0352-.0659-.0273-1.439.6514-2.816,1.92-3.5528,1.917-1.104,4.4131-.3584,5.583,1.667.0117.0225.0195.0444.0371.0669.0273,1.4395-.6494,2.8164-1.9258,3.5552Z" fill="gray" fill-rule="evenodd"/>
  <g>
    <g mask="url(#mask)">
      <g>
        <path d="M41.7041,40.8965c1.9082-1.1045,2.5166-3.6436,1.3457-5.6704-1.1768-2.0235-3.668-2.7705-5.583-1.6665-1.9102,1.1015-2.5127,3.6396-1.3418,5.6665,1.1699,2.0244,3.667,2.7724,5.5791,1.6704ZM54.1631,54.5654l15.3789,26.6382-.4756,2.0117-2.0068,1.1568-5.2305-1.5694.3984-1.6865-1.1582-2.0171-1.5254-.4546.7012-2.9716-1.0556-1.834-3.6387-1.0904.3994-1.7036-1.0361-1.7988-2.4883-.7446-1.1172-1.9327.4414-1.8784-1.8418-.5522-3.0439-5.2676-2.0791,1.2354s-.7959.2495-1.3155-.6451c-1.0976-1.8999,1.7442-2.6508.708-4.4419,0,0-1.5996-1.2251-2.5009-.7075-.8975.5181-7.6592,1.0684-12.044-6.5224-5.373-9.2998.6817-15.2188,5.3086-17.8902,4.6328-2.6738,12.9209-4.9741,18.2647,4.2827,4.3847,7.5918.5244,13.17-.3711,13.6895-.9014.5137-.6416,2.5205-.6416,2.5205,1.0371,1.7959,3.0586-.3667,4.1552,1.5278.5225.899-.3349,1.5992-.3349,1.5992l-1.8506,1.0468Z" fill="url(#linear-gradient)" fill-rule="evenodd"/>
        <path d="M48.6963,48.2905l20.1084,34.8247c.5078.8882-1.4229,2.001-1.9346,1.1148l-19.2148-33.2852c-.5098-.8862.5244-3.5395,1.041-2.6543Z" fill="#666"/>
        <line x1="48.4834" y1="48.5215" x2="68.5879" y2="83.3467" fill="none" stroke="#fff" stroke-linecap="round" stroke-miterlimit="3.8637" stroke-width=".4623"/>
        <path d="M33.0654,32.3818s-7.166,6.2076-2.4629,14.3477c5.5518,9.6157,13.3623,5.3164,13.6348,5.7847.2725.4721,19.6455,34.0239,19.6455,34.0239l2.1563-1.2461-23.6182-40.9116s-6.2705,2.8042-10.0645-3.7681c-2.4375-4.2197.709-8.2305.709-8.2305Z" fill="url(#linear-gradient-2)" fill-rule="evenodd"/>
        <path d="M41.7041,40.8965c1.9082-1.1045,2.5166-3.6436,1.3457-5.6704-1.1768-2.0235-3.668-2.7705-5.583-1.6665-1.9102,1.1015-2.5127,3.6396-1.3418,5.6665,1.1699,2.0244,3.667,2.7724,5.5791,1.6704ZM54.1631,54.5654l15.3789,26.6382-.4756,2.0117-2.0068,1.1568-5.2305-1.5694.3984-1.6865-1.1582-2.0171-1.5254-.4546.7012-2.9716-1.0556-1.834-3.6387-1.0904.3994-1.7036-1.0361-1.7988-2.4883-.7446-1.1172-1.9327.4414-1.8784-1.8418-.5522-3.0439-5.2676-2.0791,1.2354s-.7959.2495-1.3155-.6451c-1.0976-1.8999,1.7442-2.6508.708-4.4419,0,0-1.5996-1.2251-2.5009-.7075-.8975.5181-7.6592,1.0684-12.044-6.5224-5.373-9.2998.6817-15.2188,5.3086-17.8902,4.6328-2.6738,12.9209-4.9741,18.2647,4.2827,4.3847,7.5918.5244,13.17-.3711,13.6895-.9014.5137-.6416,2.5205-.6416,2.5205,1.0371,1.7959,3.0586-.3667,4.1552,1.5278.5225.899-.3349,1.5992-.3349,1.5992l-1.8506,1.0468Z" fill="none" fill-rule="evenodd"/>
      </g>
    </g>
    <path d="M36.0391,29.8804s.7099-.3877,1.8662-.7862c7.4472-2.5786,12.3359.9375,14.8847,5.3472,4.1924,7.2593-.1396,12.4258-.3496,12.6694-.9277,1.0591-2.4687.3643-1.5468-.6958l.0996-.1333c2.664-3.622,1.3418-8.1767-.1328-10.726-2.1563-3.7373-6.2872-7.1148-12.7413-4.8843-.8515.2993-1.374.5781-1.374.5781-1.3037.7109-2.0049-.6577-.706-1.3691Z" fill="url(#New_Gradient_79)"/>
    <path d="M44.3174,36.5039s.0732.1582.1445.4209c.6992,2.5024-1.1318,4.124-2.4599,4.8916-1.2627.7324-4.2784,1.6514-5.9932-.6953-.6367-.9126-1.5254-.165-.8906.7461,0,0,.2002.2959.5908.6816,2.4365,2.3911,5.2314,1.8135,7.1308.7154,1.7061-.9825,4.2862-3.837,2.5498-7.2046-.5009-.9927-1.5683-.5523-1.0722.4443Z" fill="url(#New_Gradient_78)"/>
  </g>
  <path d="M83.2207,67.481l-20.4424-20.4454.7559-.7451s.3486-2.5708-.3838-3.3027c-.0518-.1265-.1309-.2529-.2529-.3765-1.4746-1.4726-2.8096.812-4.1983-.2251.0274-.2832.1172-.5415.3018-.728.5224-.5234,1.8125-3.896.3037-8.0269-.3799-2.208-1.4815-4.7871-4.0371-7.3432-7.5537-7.5547-14.961-3.186-18.7451.5913-2.8985,2.8999-6.0928,7.8652-4,13.4463.3681,2.3149,1.5576,4.7685,4.0546,7.2588,6.1924,6.1977,12.5831,3.9165,13.3155,3.1831.5644-.5674,1.8076-.2383,2.3408-.0611-.1758.5215-.3965,1.0435-.3232,1.5772-.2998.6807-.3252,1.6172,1.0478,2.9912.7344.7344,1.4375.2822,1.4375.2822l1.6943-1.729,4.3008,4.3052,1.4268-.0688.5488,2.0454,1.5811,1.5844,2.5966.0743.96.9638h0l.0088.2071.0449.0019.5039,2.0488,3.8018.1075.9971.9936.04,1.5039.5508,2.0513,1.5849.0425,1.1416,1.1479.0078.1895.1905.0039h0l.3564,2.0434,5.461.1582,1.6347-1.6381-.6074-4.1128ZM40.0703,35.585c-.3017-.3057-.5312-.649-.7305-1.0074-.0009-1.0141.3623-2.0131,1.1182-2.769,1.5576-1.5586,4.166-1.4834,5.8203.1719.3028.3022.541.6435.7354,1.0005.0029,1.018-.3633,2.0205-1.1162,2.7714-1.5606,1.5606-4.17,1.4844-5.8272-.1674Z" fill="#d68100" fill-rule="evenodd" stroke="#000" stroke-miterlimit="3.8637"/>
  <path d="M83.2207,67.481l-20.4424-20.4454.7559-.7451s.3486-2.5708-.3838-3.3027c-.0518-.1265-.1309-.2529-.2529-.3765-1.4746-1.4726-2.8096.812-4.1983-.2251.0274-.2832.1172-.5415.3018-.728.5224-.5234,1.8125-3.896.3037-8.0269-.3799-2.208-1.4815-4.7871-4.0371-7.3432-7.5537-7.5547-14.961-3.186-18.7451.5913-2.8985,2.8999-6.0928,7.8652-4,13.4463.3681,2.3149,1.5576,4.7685,4.0546,7.2588,6.1924,6.1977,12.5831,3.9165,13.3155,3.1831.5644-.5674,1.8076-.2383,2.3408-.0611-.1758.5215-.3965,1.0435-.3232,1.5772-.2998.6807-.3252,1.6172,1.0478,2.9912.7344.7344,1.4375.2822,1.4375.2822l1.6943-1.729,4.3008,4.3052,1.4268-.0688.5488,2.0454,1.5811,1.5844,2.5966.0743.96.9638h0l.0088.2071.0449.0019.5039,2.0488,3.8018.1075.9971.9936.04,1.5039.5508,2.0513,1.5849.0425,1.1416,1.1479.0078.1895.1905.0039h0l.3564,2.0434,5.461.1582,1.6347-1.6381-.6074-4.1128ZM40.0703,35.585c-.3017-.3057-.5312-.649-.7305-1.0074-.0009-1.0141.3623-2.0131,1.1182-2.769,1.5576-1.5586,4.166-1.4834,5.8203.1719.3028.3022.541.6435.7354,1.0005.0029,1.018-.3633,2.0205-1.1162,2.7714-1.5606,1.5606-4.17,1.4844-5.8272-.1674Z" fill="#d68100" fill-rule="evenodd"/>
  <g>
    <g mask="url(#mask-1)">
      <g>
        <path d="M45.8975,35.7524c1.5615-1.559,1.4853-4.1684-.1661-5.8208-1.6591-1.6552-4.2646-1.7295-5.8271-.1689-1.5576,1.5625-1.4814,4.168.166,5.8223,1.6572,1.6518,4.2666,1.728,5.8272.1674ZM61.4727,45.7334l21.748,21.7476.0557,2.0659-1.6358,1.6382-5.4551-.1587-.0517-1.7344-1.6465-1.647-1.5869-.0498-.0899-3.0478-1.496-1.4966-3.8018-.1113-.0508-1.7535-1.4697-1.4648-2.5928-.0762-1.582-1.5805-.0567-1.9268-1.916-.0547-4.3027-4.3008-1.6934,1.7261s-.706.4507-1.4394-.2803c-1.5488-1.5522,1.0019-3.0127-.4649-4.4731,0,0-1.8681-.7671-2.6005-.0342-.7295.7324-7.125,3.0137-13.3223-3.1841-7.5879-7.5937-3.2783-14.8813.501-18.6572,3.7841-3.7773,11.1914-8.146,18.7451-.5913,6.2051,6.1997,3.9219,12.5869,3.1845,13.3218-.7285.7324.0362,2.6015.0362,2.6015,1.4648,1.4639,2.8613-1.1474,4.4092.3999.7343.7368.0879,1.6328.0879,1.6328l-1.5127,1.4893Z" fill="url(#New_Gradient_77)" fill-rule="evenodd"/>
        <path d="M54.5664,41.0864l28.4336,28.4356c.7256.7226-.8486,2.2988-1.5732,1.5771l-27.1768-27.1787c-.7197-.7231-.4062-3.5566.3164-2.834Z" fill="#d68100" fill-rule="evenodd"/>
        <line x1="54.4209" y1="41.3628" x2="82.8564" y2="69.7988" fill="none" stroke="#fff" stroke-linecap="round" stroke-miterlimit="3.8637" stroke-width=".4623"/>
        <path d="M35.3535,29.7627s-5.3144,7.8501,1.335,14.499c7.8545,7.8516,14.2851,1.6734,14.6689,2.0596.3799.3818,27.7764,27.7798,27.7764,27.7798l1.7627-1.7671-33.4014-33.4014s-5.331,4.3316-10.6982-1.0351c-3.4444-3.4439-1.4434-8.1348-1.4434-8.1348Z" fill="url(#linear-gradient-3)"/>
        <path d="M45.8975,35.7524c1.5615-1.559,1.4853-4.1684-.1661-5.8208-1.6591-1.6552-4.2646-1.7295-5.8271-.1689-1.5576,1.5625-1.4814,4.168.166,5.8223,1.6572,1.6518,4.2666,1.728,5.8272.1674ZM61.4727,45.7334l21.748,21.7476.0557,2.0659-1.6358,1.6382-5.4551-.1587-.0517-1.7344-1.6465-1.647-1.5869-.0498-.0899-3.0478-1.496-1.4966-3.8018-.1113-.0508-1.7535-1.4697-1.4648-2.5928-.0762-1.582-1.5805-.0567-1.9268-1.916-.0547-4.3027-4.3008-1.6934,1.7261s-.706.4507-1.4394-.2803c-1.5488-1.5522,1.0019-3.0127-.4649-4.4731,0,0-1.8681-.7671-2.6005-.0342-.7295.7324-7.125,3.0137-13.3223-3.1841-7.5879-7.5937-3.2783-14.8813.501-18.6572,3.7841-3.7773,11.1914-8.146,18.7451-.5913,6.2051,6.1997,3.9219,12.5869,3.1845,13.3218-.7285.7324.0362,2.6015.0362,2.6015,1.4648,1.4639,2.8613-1.1474,4.4092.3999.7343.7368.0879,1.6328.0879,1.6328l-1.5127,1.4893Z" fill="none" fill-rule="evenodd"/>
      </g>
    </g>
    <path d="M37.583,26.5791s.5752-.5576,1.5879-1.2432c6.5352-4.4155,12.1709-2.288,15.7705,1.3155,5.9238,5.9248,3.0781,12.0346,2.9356,12.3237-.6143,1.2661-2.2911.9951-1.6788-.2656l.0704-.1607c1.6308-4.186-.8213-8.2392-2.9063-10.3242-3.0508-3.0542-7.9131-5.2432-13.5684-1.4175-.748.5069-1.1826.9107-1.1826.9107-1.0771,1.0229-2.1064-.1172-1.0283-1.1387Z" fill="url(#New_Gradient_76)"/>
    <path d="M47.291,30.8354s.1084.1334.252.3687c1.3125,2.2349-.0332,4.2783-1.1201,5.3604-1.0323,1.038-3.6954,2.7055-5.9668.8803-.8487-.7177-1.5137.2324-.6661.9507,0,0,.2686.2319.752.5059,2.9658,1.6806,5.5127.3969,7.0605-1.1563,1.3946-1.3891,3.1504-4.8174.6045-7.6177-.7392-.8305-1.6523-.1245-.916.708Z" fill="url(#New_Gradient_75)"/>
  </g>
  <g mask="url(#mask-2)">
    <g>
      <g mask="url(#mask-3)">
        <g>
          <path d="M30.0107,48.8931c-.0673.1635-4.6347-.1953-5.79-.4795-8.5742-2.1148-14.0674-10.7881-11.998-19.4873,2.0683-8.7036,10.9677-14.0284,19.4921-12.0015,8.5206,2.0293,14.0498,10.7607,11.9971,19.4907-.1426.5977-.2041.9185-.292,1.0049-.374.3496-4.0928-.2685-4.3017-1.0508-.0684-.2334.1718-.477.29-.9756,1.1279-4.7304-2.0146-11.0781-9.0576-12.7529-7.0391-1.6787-12.6983,2.5772-13.8233,7.3081-1.1308,4.7241,2.0147,11.0767,9.0567,12.7505.9443.229,1.9043.3442,2.2607.3535l2.166,5.8399Z" fill="url(#New_Gradient_72)"/>
          <path d="M17.4111,38.167s.126.2895.4366.7344c2.4785,3.5634,7.3496,4.8637,11.0029,5.1845.8164.0738.5752,1.6817-.2442,1.6094-3.3671-.2949-10.4736-2.1738-12.3154-6.6274-.3662-.8892.749-1.7935,1.1201-.9009Z" fill="url(#New_Gradient_74)"/>
          <path d="M38.042,24.248s.3613.3462.8535.98c2.3633,3.0464,3.749,7.4502,1.9131,12.2285-.3857,1.0093-1.4922.4556-1.1065-.5542,1.6739-4.3652-.0078-8.9326-2.4873-11.3139-.6289-.6001.2032-1.939.8272-1.3404Z" fill="url(#New_Gradient_73)"/>
        </g>
      </g>
      <path d="M13.6699,38.3867s-.1953-.4443-.4228-1.2119c-1.1651-3.9521-.9717-8.6606,1.4209-12.4707,5.4443-8.6738,17.455-9.4106,24.9072-2.3613.6162.5864-.1934,1.9389-.8154,1.3496-6.8448-6.4868-18.0733-6.105-23.1407,1.8926-2.1689,3.4336-2.3232,8.4868-.8398,11.8774.3877.8804-.7217,1.8052-1.1094.9243Z" fill="url(#New_Gradient_71)"/>
    </g>
  </g>
</svg>