<?xml version='1.0' encoding='UTF-8'?>
<svg xmlns="http://www.w3.org/2000/svg" xmlns:xlink="http://www.w3.org/1999/xlink" id="Layer_1" data-name="Layer 1" width="96" height="96" viewBox="0 0 96 96">
  <defs>
    <linearGradient id="New_Gradient_386" data-name="New Gradient 386" x1="42.8983646" y1="40.2051425" x2="76.1511828" y2="73.4579607" gradientUnits="userSpaceOnUse">
      <stop offset="0" stop-color="#d9d9d9"/>
      <stop offset="1" stop-color="#fff"/>
    </linearGradient>
    <mask id="mask" x="45.7441" y="21.4463" width="35.4844" height="64.6099" maskUnits="userSpaceOnUse">
      <path d="M47.0176,27.4468v37.4009l19.7119,19.8671s2.4111.8272,7.1523-.4502c4.7393-1.2807,5.3409-3.2377,5.3409-3.2377v-37.7037l-19.1172-19.1679-13.0879,3.2915Z" fill="#fff" fill-rule="evenodd"/>
    </mask>
    <linearGradient id="New_Gradient_386-2" data-name="New Gradient 386" x1="49.8505532" y1="40.8681032" x2="76.8176465" y2="67.8351965" gradientUnits="userSpaceOnUse"><stop offset="0" stop-color="#d9d9d9"/><stop offset="1" stop-color="#fff"/></linearGradient>
    <mask id="mask-1" x="66.7988" y="42.0806" width="14.4297" height="43.9756" maskUnits="userSpaceOnUse">
      <rect x="66.7988" y="42.0806" width="14.4297" height="43.9756" fill="#fff"/>
    </mask>
    <linearGradient id="New_Gradient_388" data-name="New Gradient 388" x1="66.7988" y1="64.0684" x2="81.2285" y2="64.0684" gradientUnits="userSpaceOnUse">
      <stop offset="0" stop-color="#d9d9d9"/>
      <stop offset=".196625" stop-color="#fff"/>
      <stop offset="1" stop-color="#999"/>
    </linearGradient>
    <linearGradient id="New_Gradient_387" data-name="New Gradient 387" x1="49.9845296" y1="47.4555641" x2="75.5069257" y2="21.933168" gradientUnits="userSpaceOnUse">
      <stop offset="0" stop-color="#f2f2f2"/>
      <stop offset="1" stop-color="#e5e5e5"/>
    </linearGradient>
    <linearGradient id="New_Gradient_385" data-name="New Gradient 385" x1="72.1059604" y1="47.6824281" x2="77.1427653" y2="53.2763667" gradientUnits="userSpaceOnUse">
      <stop offset="0" stop-color="#666"/>
      <stop offset="1" stop-color="#b2b2b2"/>
    </linearGradient>
    <mask id="mask-2" x="71.238525" y="47.8295231" width="6.5117332" height="4.2345111" maskUnits="userSpaceOnUse">
      <path d="M72.6309,49.5103c2.041-.1084,3.4736-1.0049,3.4736-1.0049,1.8037-.4322,1.8037,2.2734,0,2.707,0,0-1.4014.7427-3.4736.833-1.8565.0811-1.8565-2.439,0-2.5351Z" fill="#fff"/>
    </mask>
    <linearGradient id="New_Gradient_383" data-name="New Gradient 383" x1="75.1752752" y1="52.4511789" x2="73.5672793" y2="48.0332465" gradientUnits="userSpaceOnUse">
      <stop offset="0" stop-color="#328e36"/>
      <stop offset="1" stop-color="#005e00"/>
    </linearGradient>
    <radialGradient id="New_Gradient_384" data-name="New Gradient 384" cx="168.0591138" cy="75.0407539" fx="168.0591138" fy="75.0407539" r="6.125896" gradientTransform="translate(-64.0995 -11.7368) scale(.8144)" gradientUnits="userSpaceOnUse">
      <stop offset="0" stop-color="#00cd00"/>
      <stop offset="1" stop-color="#328e36"/>
    </radialGradient>
    <linearGradient id="New_Gradient_385-2" data-name="New Gradient 385" x1="72.1062231" y1="52.1643984" x2="77.1423864" y2="57.7576244" gradientUnits="userSpaceOnUse"><stop offset="0" stop-color="#666"/><stop offset="1" stop-color="#b2b2b2"/></linearGradient>
    <mask id="mask-3" x="71.238525" y="52.3090001" width="6.5117332" height="4.2381495" maskUnits="userSpaceOnUse">
      <path d="M72.6309,53.9883c2.041-.1074,3.4736-1.0005,3.4736-1.0005,1.8037-.4321,1.8037,2.2715,0,2.707,0,0-1.4014.7442-3.4736.8325-1.8565.0787-1.8565-2.4399,0-2.539Z" fill="#fff"/>
    </mask>
    <linearGradient id="New_Gradient_383-2" data-name="New Gradient 383" x1="75.1767657" y1="56.936431" x2="73.5659773" y2="52.5108263" gradientUnits="userSpaceOnUse"><stop offset="0" stop-color="#328e36"/><stop offset="1" stop-color="#005e00"/></linearGradient>
    <radialGradient id="New_Gradient_384-2" data-name="New Gradient 384" cy="80.5427261" fy="80.5427261" r="6.1270828" cx="168.0591138" fx="168.0591138" gradientTransform="translate(-64.0995 -11.7368) scale(.8144)" gradientUnits="userSpaceOnUse"><stop offset="0" stop-color="#00cd00"/><stop offset="1" stop-color="#328e36"/></radialGradient>
    <linearGradient id="New_Gradient_385-3" data-name="New Gradient 385" x1="72.1054429" y1="56.6442876" x2="77.1429621" y2="62.2390195" gradientUnits="userSpaceOnUse"><stop offset="0" stop-color="#666"/><stop offset="1" stop-color="#b2b2b2"/></linearGradient>
    <mask id="mask-4" x="71.238525" y="56.7931034" width="6.5117332" height="4.2352458" maskUnits="userSpaceOnUse">
      <path d="M72.6309,58.4707c2.041-.1079,3.4736-1.0015,3.4736-1.0015,1.8037-.4336,1.8037,2.272,0,2.7037,0,0-1.4014.7446-3.4736.8364-1.8565.0781-1.8565-2.4409,0-2.5386Z" fill="#fff"/>
    </mask>
    <linearGradient id="New_Gradient_383-3" data-name="New Gradient 383" x1="75.1755157" y1="61.4140879" x2="73.5669619" y2="56.9946227" gradientUnits="userSpaceOnUse"><stop offset="0" stop-color="#328e36"/><stop offset="1" stop-color="#005e00"/></linearGradient>
    <radialGradient id="New_Gradient_384-3" data-name="New Gradient 384" cy="86.0474444" fy="86.0474444" r="6.1261356" cx="168.0591138" fx="168.0591138" gradientTransform="translate(-64.0995 -11.7368) scale(.8144)" gradientUnits="userSpaceOnUse"><stop offset="0" stop-color="#00cd00"/><stop offset="1" stop-color="#328e36"/></radialGradient>
    <linearGradient id="New_Gradient_385-4" data-name="New Gradient 385" x1="72.1043399" y1="61.1243073" x2="77.1429653" y2="66.7202677" gradientUnits="userSpaceOnUse"><stop offset="0" stop-color="#666"/><stop offset="1" stop-color="#b2b2b2"/></linearGradient>
    <mask id="mask-5" x="71.238525" y="61.2740529" width="6.5117332" height="4.234093" maskUnits="userSpaceOnUse">
      <path d="M72.6309,62.9541c2.041-.1084,3.4736-1.0054,3.4736-1.0054,1.8037-.4311,1.8037,2.2744,0,2.708,0,0-1.4014.7408-3.4736.8316-1.8565.0815-1.8565-2.44,0-2.5342Z" fill="#fff"/>
    </mask>
    <linearGradient id="New_Gradient_383-4" data-name="New Gradient 383" x1="75.1755525" y1="65.8954207" x2="73.5675893" y2="61.4775781" gradientUnits="userSpaceOnUse"><stop offset="0" stop-color="#328e36"/><stop offset="1" stop-color="#005e00"/></linearGradient>
    <radialGradient id="New_Gradient_384-4" data-name="New Gradient 384" cy="91.5490755" fy="91.5490755" r="6.1257597" cx="168.0591138" fx="168.0591138" gradientTransform="translate(-64.0995 -11.7368) scale(.8144)" gradientUnits="userSpaceOnUse"><stop offset="0" stop-color="#00cd00"/><stop offset="1" stop-color="#328e36"/></radialGradient>
    <radialGradient id="New_Gradient_382" data-name="New Gradient 382" cx="142.2658036" cy="97.2678436" fx="142.2658036" fy="97.2678436" r="17.8721542" gradientTransform="translate(-64.0995 -11.7368) scale(.8144)" gradientUnits="userSpaceOnUse">
      <stop offset="0" stop-color="#b2b2b2"/>
      <stop offset="1" stop-color="#4c4c4c"/>
    </radialGradient>
    <mask id="mask-6" x="18.0166" y="46.2324" width="36.3008" height="32.1094" maskUnits="userSpaceOnUse">
      <polygon points="38.8145 46.2324 54.3174 61.8862 34.9189 77.2075 25.6074 67.8794 23.8496 68.1211 19.3662 63.6294 19.3662 51.5771 38.8145 46.2324" fill="#fff"/>
    </mask>
    <linearGradient id="New_Gradient_381" data-name="New Gradient 381" x1="23.033102" y1="70.540348" x2="45.6648977" y2="47.9085523" gradientUnits="userSpaceOnUse">
      <stop offset="0" stop-color="#b2b2b2"/>
      <stop offset=".320221" stop-color="#f2f2f2"/>
      <stop offset="1" stop-color="#e5e5e5"/>
    </linearGradient>
    <mask id="mask-7" x="34.9189" y="61.8779" width="19.4463" height="15.8194" maskUnits="userSpaceOnUse">
      <polygon points="34.9189 67.1279 54.3652 61.8779 54.3652 72.0044 34.9189 77.2559 34.9189 67.1279" fill="#fff" fill-rule="evenodd"/>
    </mask>
    <linearGradient id="New_Gradient_380" data-name="New Gradient 380" x1="48.6704287" y1="60.7746298" x2="33.1596635" y2="54.5078739" gradientUnits="userSpaceOnUse">
      <stop offset="0" stop-color="#999"/>
      <stop offset=".966293" stop-color="#d9d9d9"/>
      <stop offset="1" stop-color="#e5e5e5"/>
    </linearGradient>
    <mask id="mask-8" x="30.7451" y="47.0029" width="18.751" height="19.3633" maskUnits="userSpaceOnUse">
      <polygon points="39.7471 65.6494 37.666 63.5669 36.0889 58.2266 31.6738 50.9824 31.6738 49.1899 38.8789 47.4116 46.7021 56.2534 49.4961 60.0903 39.7471 65.6494" fill="#fff" fill-rule="evenodd"/>
    </mask>
    <mask id="mask-9" x="38.4541" y="60.0337" width="12.7109" height="11.4604" maskUnits="userSpaceOnUse">
      <polygon points="51.165 61.7319 51.165 67.1309 41.4609 69.7305 39.7275 68.0386 39.7275 62.6489 49.4395 60.0337 51.165 61.7319" fill="#fff"/>
    </mask>
  </defs>
  <g>
    <path d="M47.0176,27.4468l13.0879-3.2915,19.1172,19.1679v37.7037s-.6016,1.957-5.3409,3.2377c-4.7412,1.2774-7.1523.4502-7.1523.4502l-2.874-2.8974c-13.5674,1.8476-26.5772-8.3994-15.0801-15.1987l-1.7578-1.771V27.4468Z" fill="url(#New_Gradient_386)" stroke="#000" stroke-linecap="round" stroke-linejoin="round" stroke-width="4"/>
    <g mask="url(#mask)">
      <g>
        <path d="M47.0176,27.4468v37.4009l19.7119,19.8671s2.4111.8272,7.1523-.4502c4.7393-1.2807,5.3409-3.2377,5.3409-3.2377v-37.7037l-19.1172-19.1679-13.0879,3.2915Z" fill="url(#New_Gradient_386-2)" fill-rule="evenodd"/>
        <g mask="url(#mask-1)">
          <g>
            <rect x="66.7988" y="42.0806" width="14.4297" height="43.9756" fill="url(#New_Gradient_388)"/>
            <line x1="77.9805" y1="43.3545" x2="77.9805" y2="83.5229" fill="none" stroke="#d9d9d9" stroke-linecap="round" stroke-miterlimit="3.8637" stroke-width=".5"/>
          </g>
        </g>
        <path d="M79.207,41.1685l-19.1015-19.7222-14.3614,4.7305,20.9854,20.9878s2.4111.8266,7.1523-.4522c4.7393-1.2808,5.3409-3.2373,5.3409-3.2373l-.0157-2.3066Z" fill="url(#New_Gradient_387)" fill-rule="evenodd"/>
      </g>
    </g>
    <g>
      <path d="M72.417,49.5078c2.4502-.1279,4.167-1.2051,4.167-1.2051,2.1621-.518,2.1621,2.7281,0,3.2471,0,0-1.6826.895-4.167,1.0015-2.2236.0966-2.2236-2.9297,0-3.0435Z" fill="url(#New_Gradient_385)"/>
      <g mask="url(#mask-2)">
        <g>
          <path d="M72.6309,49.5103c2.041-.1084,3.4736-1.0049,3.4736-1.0049,1.8037-.4322,1.8037,2.2734,0,2.707,0,0-1.4014.7427-3.4736.833-1.8565.0811-1.8565-2.439,0-2.5351Z" fill="url(#New_Gradient_383)"/>
          <path d="M72.334,49.4556s1.3877-.2915,2.2129.5024c.8203.7944.5293,1.749.3984,2.0317-.1338.2798,2.0908-.2382,2.6231-1.4204.7158-1.5913-.8272-3.1289-2.0938-2.6513-1.2744.478-3.1406,1.5376-3.1406,1.5376Z" fill="url(#New_Gradient_384)" fill-rule="evenodd"/>
        </g>
      </g>
      <path d="M72.5186,50.4878s1.7656-.1055,3.2744-.7695" fill="none" stroke="#7cc771" stroke-linecap="round" stroke-miterlimit="3.8637" stroke-width=".75"/>
    </g>
    <g>
      <path d="M72.417,53.9883c2.4502-.1299,4.167-1.2007,4.167-1.2007,2.1621-.522,2.1621,2.7246,0,3.2432,0,0-1.6826.896-4.167,1.0009-2.2236.0962-2.2236-2.9257,0-3.0434Z" fill="url(#New_Gradient_385-2)"/>
      <g mask="url(#mask-3)">
        <g>
          <path d="M72.6309,53.9883c2.041-.1074,3.4736-1.0005,3.4736-1.0005,1.8037-.4321,1.8037,2.2715,0,2.707,0,0-1.4014.7442-3.4736.8325-1.8565.0787-1.8565-2.4399,0-2.539Z" fill="url(#New_Gradient_383-2)"/>
          <path d="M72.334,53.9375s1.3877-.2935,2.2129.501c.8203.7969.5293,1.7505.3984,2.0332-.1338.2822,2.0908-.2349,2.6231-1.4224.7158-1.5913-.8272-3.1284-2.0938-2.6523-1.2744.4785-3.1406,1.5405-3.1406,1.5405Z" fill="url(#New_Gradient_384-2)" fill-rule="evenodd"/>
        </g>
      </g>
      <path d="M72.5186,54.9707s1.7656-.1055,3.2744-.7686" fill="none" stroke="#7cc771" stroke-linecap="round" stroke-miterlimit="3.8637" stroke-width=".75"/>
    </g>
    <g>
      <path d="M72.417,58.4683c2.4502-.128,4.167-1.2022,4.167-1.2022,2.1621-.5166,2.1621,2.7266,0,3.2466,0,0-1.6826.8931-4.167.9995-2.2236.0957-2.2236-2.9258,0-3.0439Z" fill="url(#New_Gradient_385-3)"/>
      <g mask="url(#mask-4)">
        <g>
          <path d="M72.6309,58.4707c2.041-.1079,3.4736-1.0015,3.4736-1.0015,1.8037-.4336,1.8037,2.272,0,2.7037,0,0-1.4014.7446-3.4736.8364-1.8565.0781-1.8565-2.4409,0-2.5386Z" fill="url(#New_Gradient_383-3)"/>
          <path d="M72.334,58.4185s1.3877-.2915,2.2129.5014c.8203.7945.5293,1.7495.3984,2.0332-.1338.2823,2.0908-.2378,2.6231-1.4238.7158-1.5898-.8272-3.1255-2.0938-2.6475-1.2744.4761-3.1406,1.5367-3.1406,1.5367Z" fill="url(#New_Gradient_384-3)" fill-rule="evenodd"/>
        </g>
      </g>
      <path d="M72.5186,59.4492s1.7656-.102,3.2744-.7661" fill="none" stroke="#7cc771" stroke-linecap="round" stroke-miterlimit="3.8637" stroke-width=".75"/>
    </g>
    <g>
      <path d="M72.417,62.9502c2.4502-.1279,4.167-1.2026,4.167-1.2026,2.1621-.5201,2.1621,2.727,0,3.2475,0,0-1.6826.8931-4.167,1.0005-2.2236.0942-2.2236-2.9277,0-3.0454Z" fill="url(#New_Gradient_385-4)"/>
      <g mask="url(#mask-5)">
        <g>
          <path d="M72.6309,62.9541c2.041-.1084,3.4736-1.0054,3.4736-1.0054,1.8037-.4311,1.8037,2.2744,0,2.708,0,0-1.4014.7408-3.4736.8316-1.8565.0815-1.8565-2.44,0-2.5342Z" fill="url(#New_Gradient_383-4)"/>
          <path d="M72.334,62.8984s1.3877-.292,2.2129.5025c.8203.7973.5293,1.7505.3984,2.0327-.1338.2803,2.0908-.2378,2.6231-1.4204.7158-1.5923-.8272-3.1275-2.0938-2.6509-1.2744.4756-3.1406,1.5361-3.1406,1.5361Z" fill="url(#New_Gradient_384-4)" fill-rule="evenodd"/>
        </g>
      </g>
      <path d="M72.5186,63.9346s1.7656-.1094,3.2744-.7705" fill="none" stroke="#7cc771" stroke-linecap="round" stroke-miterlimit="3.8637" stroke-width=".75"/>
    </g>
    <path d="M49.2949,66.5303s3.5049-2.6411,8.668,2.2666c4.8496,4.6035,6.2559,8.5425,6.8721,13.0244" fill="none" stroke="#ccc" stroke-linecap="round" stroke-miterlimit="3.8637" stroke-width="1.25"/>
    <path d="M63.8447,81.895c.1221-.6181-.2939-6.5747-6.2529-12.5342-5.4668-5.4677-8.793-2.7587-8.793-2.7587-11.542,6.7983,1.4805,17.0649,15.0459,15.2929Z" fill="url(#New_Gradient_382)" fill-rule="evenodd"/>
    <path d="M52.249,37.7422l8.544,8.522c.8896.8867.8896,2.2216,0,1.3335l-8.544-8.5196c-.8877-.8872-.8877-2.2241,0-1.3359Z" fill="#b2b2b2"/>
    <path d="M52.249,40.7471l8.544,8.5166c.8896.8906.8896,2.2256,0,1.3384l-8.544-8.5201c-.8877-.8882-.8877-2.2241,0-1.3349Z" fill="#b2b2b2"/>
    <path d="M52.249,43.7515l8.544,8.518c.8896.8882.8896,2.2256,0,1.3369l-8.544-8.521c-.8877-.8896-.8877-2.2236,0-1.3339Z" fill="#b2b2b2"/>
    <path d="M52.249,46.7554l8.544,8.5171c.8896.8881.8896,2.2255,0,1.3354l-8.544-8.5171c-.8877-.8882-.8877-2.2246,0-1.3354Z" fill="#b2b2b2"/>
    <path d="M47.4238,27.7671l19.4024,19.3979s4.0752.7437,7.5771-.3921c3.5049-1.1372,4.5537-3.1093,4.5537-3.1093" fill="none" stroke="#fff" stroke-linecap="round" stroke-miterlimit="3.8637" stroke-width=".5"/>
    <line x1="66.6953" y1="47.4307" x2="66.6953" y2="84.3047" fill="none" stroke="#fff" stroke-linecap="round" stroke-miterlimit="3.8637" stroke-width=".5"/>
  </g>
  <path d="M15.8838,46.5864c-5.2002-8.9248-.1416-20.4995,15.1631-19.726,10.3222.5195,11.166-12.191,2.084-12.7374l.3183-5.3325c16.0596.96,14.6856,24.2779-2.6748,23.4048-9.5156-.4785-13.8437,6.0576-10.5166,11.7158l8.4346-2.2675c1.3623-.3638,2.0791,1.1748,1.4697,2.0595l1.9404-.5268c1.46-.3975,2.1827,1.3974,1.3213,2.2363l1.9649-.5347c1.2724-.3457,1.9853.9615,1.5879,1.8609l1.8379-.5064,15.5029,15.6538.0478,10.1182-19.4463,5.2515-9.3115-9.3765-1.7578.2417-4.4834-4.4917v-1.4614c-.7012.0478-1.4414-.398-1.4414-1.334v-1.021c-.5488-.1201-1.0205-.5542-1.0205-1.3023v-.9228c-.5488-.1187-1.0205-.5542-1.0205-1.3027v-9.6988Z" fill="#ccc" stroke="#000" stroke-linecap="round" stroke-linejoin="round" stroke-width="4"/>
  <path d="M25.2197,54.3862c-16.831-7.0234-14.8779-28.5698,5.8272-27.5258,10.3222.5195,11.166-12.191,2.084-12.7374l.3183-5.3325c16.0596.96,14.6856,24.2779-2.6748,23.4048-13.0556-.6577-16.3447,11.898-3.501,17.2603l-2.0537,4.9306Z" fill="#ccc"/>
  <path d="M34.9414,10.771s.5762.0923,1.3867.4028c4.8506,1.8384,6.2696,6.19,4.876,11.2471-.2363.8599-1.5225.5059-1.2852-.353,1.2002-4.3721-.1074-7.3672-4.3115-8.96-.6679-.2539-1.1367-.3354-1.1367-.3354-.875-.1499-.4023-2.1529.4707-2.0015Z" fill="#f2f2f2"/>
  <path d="M20.9785,33.0435c7.3477-5.5826,11.8242-.4854,18.0313-5.586,3.7988-3.1177,4.039-5.8657,3.4726-9.9477-.126-.8814,1.1973-1.0679,1.3223-.1856.2158,1.5464.4922,2.9238.332,4.5127-.5752,5.7007-5.6191,9.3897-11.0127,9.6587-4.4795.2232-7.2246-.5146-11.3388,2.6113-.7032.5391-1.5157-.5244-.8067-1.0634Z" fill="#999"/>
  <path d="M16.3223,46.7651c-2.6719-3.8047-2.7285-10.0717.1328-13.9633,3.4873-4.7422,10.1865-5.4883,15.6328-5.4805l.4131-.0005c1.372-.022,1.0088,1.3184.0263,1.3355l-.4404.0019c-4.9951-.0083-10.9961.8423-14.1894,5.1836-2.5137,3.4155-2.0596,8.25.2666,11.5845.5127.7314-1.3213,2.0703-1.8418,1.3388Z" fill="#f2f2f2"/>
  <path d="M15.8838,56.2852v-10.1763c0-.4722.5342-1.1655.9922-1.2876l11.8164-3.1777c1.7226-.46,2.4131,2.1196.6963,2.5815l-10.8321,2.9111v9.149c0,1.7812-2.6728,1.7812-2.6728,0Z" fill="#999"/>
  <polyline points="17.0801 56.7769 17.0801 47.1128 29.8262 43.583" fill="none" stroke="#4c4c4c" stroke-linecap="round" stroke-linejoin="round"/>
  <path d="M16.9043,58.5107v-10.1757c0-.4703.5342-1.1661.9853-1.2901l14.2129-3.8686c1.7217-.4673,2.4219,2.1113.7041,2.5776l-13.2304,3.6001v9.1567c0,1.7789-2.6719,1.7789-2.6719,0Z" fill="#999"/>
  <polyline points="18.1846 59.3608 18.1592 49.3462 33.5908 45.3706" fill="none" stroke="#4c4c4c" stroke-linecap="round" stroke-linejoin="round"/>
  <path d="M17.9248,60.834v-10.1753c0-.4688.5342-1.165.9863-1.2891l16.4776-4.4917c1.7256-.4682,2.4228,2.1094.7051,2.5786l-15.5,4.2222v9.1553c0,1.7822-2.669,1.7822-2.669,0Z" fill="#999"/>
  <g mask="url(#mask-6)">
    <g>
      <polygon points="38.8145 46.2324 54.3174 61.8862 34.9189 77.2075 25.6074 67.8794 23.8496 68.1211 19.3662 63.6294 19.3662 51.5771 38.8145 46.2324" fill="url(#New_Gradient_381)"/>
      <polygon points="18.4473 50.4785 35.7627 67.8008 35.7627 78.3418 18.0166 64.5737 18.4473 50.4785" fill="#e5e5e5" fill-rule="evenodd"/>
    </g>
  </g>
  <g mask="url(#mask-7)">
    <g>
      <polygon points="34.9189 67.1279 54.3652 61.8779 54.3652 72.0044 34.9189 77.2559 34.9189 67.1279" fill="#b2b2b2" fill-rule="evenodd"/>
      <polygon points="39.1699 70.2041 39.1699 77.6973 37.1641 77.6973 37.1641 70.7051 39.1699 70.2041" fill="#666"/>
      <polygon points="42.4326 69.3418 42.4326 76.8354 40.4287 76.8354 40.4287 69.8442 42.4326 69.3418" fill="#666"/>
      <polygon points="45.6934 68.4805 45.6934 75.9751 43.6924 75.9751 43.6924 68.9839 45.6934 68.4805" fill="#666"/>
      <polygon points="48.9561 67.6191 48.9561 75.1147 46.9551 75.1147 46.9551 68.123 48.9561 67.6191" fill="#666"/>
      <polygon points="52.2178 66.7603 52.2178 74.2554 50.2168 74.2554 50.2168 67.2622 52.2178 66.7603" fill="#666"/>
    </g>
  </g>
  <polyline points="19.9658 52.1108 34.9053 67.085 34.832 76.1924" fill="none" stroke="#fff" stroke-linecap="round" stroke-miterlimit="3.8637" stroke-width=".75"/>
  <polygon points="38.0576 66.2798 34.0039 61.8379 30.6172 53.2813 33.666 52.3652 39.623 47.3262 47.4531 55.5947 50.3438 59.6445 51.8916 61.4536 51.8916 62.6665 44.2275 64.8579 38.0576 66.2798" fill="url(#New_Gradient_380)" fill-rule="evenodd"/>
  <g mask="url(#mask-8)">
    <g>
      <polygon points="39.7471 65.6494 37.666 63.5669 36.0889 58.2266 31.6738 50.9824 31.6738 49.1899 38.8789 47.4116 46.7021 56.2534 49.4961 60.0903 39.7471 65.6494" fill="#d9d9d9" fill-rule="evenodd"/>
      <polygon points="37.5908 58.3706 47.5654 55.6792 38.4541 47.0029 31.0332 49.1899 37.5908 58.3706" fill="#fff" fill-rule="evenodd"/>
      <polygon points="31.3906 48.9033 38.5264 58.1558 39.8184 62.6011 39.8877 66.3662 36.8047 63.9292 30.7451 51.627 31.3906 48.9033" fill="#e5e5e5" fill-rule="evenodd"/>
    </g>
  </g>
  <g mask="url(#mask-9)">
    <g>
      <polygon points="51.165 61.7319 51.165 67.1309 41.4609 69.7305 39.7275 68.0386 39.7275 62.6489 49.4395 60.0337 51.165 61.7319" fill="#ccc"/>
      <polygon points="39.2451 61.9541 42.3633 65.0757 42.3633 71.4941 38.4541 67.5854 39.2451 61.9541" fill="#e5e5e5" fill-rule="evenodd"/>
    </g>
  </g>
  <polygon points="41.4375 64.3569 51.165 61.7319 51.165 67.1309 41.4375 69.7554 41.4375 64.3569" fill="#999" fill-rule="evenodd"/>
  <polyline points="31.8311 50.0679 31.8311 51.6543 36.0977 58.5967 37.627 63.8252 39.4014 65.7627" fill="none" stroke="#999" stroke-linecap="round" stroke-linejoin="round" stroke-width=".75"/>
  <polyline points="19.1895 62.4058 19.0576 51.2046 36.8965 46.5083" fill="none" stroke="#4c4c4c" stroke-linecap="round" stroke-linejoin="round" stroke-width=".5"/>
</svg>