<?xml version='1.0' encoding='UTF-8'?>
<svg xmlns="http://www.w3.org/2000/svg" xmlns:xlink="http://www.w3.org/1999/xlink" id="Layer_1" data-name="Layer 1" width="96" height="96" viewBox="0 0 96 96">
  <defs>
    <linearGradient id="New_Gradient_477" data-name="New Gradient 477" x1="36.49855" y1="10.6216" x2="36.49855" y2="74.8823" gradientUnits="userSpaceOnUse">
      <stop offset="0" stop-color="#c0aa94"/>
      <stop offset="1" stop-color="#e5c9b0"/>
    </linearGradient>
    <mask id="mask" x="13.4326" y="6.0244" width="52.7705" height="72.8244051" maskUnits="userSpaceOnUse">
      <polygon points="15.7256 67.1025 15.7256 25.7031 49.0859 17.4185 57.0586 25.3882 23.7373 75.1128 15.7256 67.1025" fill="#fff" fill-rule="evenodd"/>
    </mask>
    <linearGradient id="New_Gradient_477-2" data-name="New Gradient 477" x1="36.3921" y1="17.4185" x2="36.3921" y2="75.1128" gradientUnits="userSpaceOnUse"><stop offset="0" stop-color="#c0aa94"/><stop offset="1" stop-color="#e5c9b0"/></linearGradient>
    <linearGradient id="New_Gradient_479" data-name="New Gradient 479" x1="40.6936244" y1="12.0253129" x2="37.9677868" y2="31.420655" gradientUnits="userSpaceOnUse">
      <stop offset="0" stop-color="#a48765"/>
      <stop offset="1" stop-color="#5b391c"/>
    </linearGradient>
    <linearGradient id="New_Gradient_478" data-name="New Gradient 478" x1="57.4878" y1="6.0244" x2="57.4878" y2="33.98" gradientUnits="userSpaceOnUse">
      <stop offset="0" stop-color="#c0aa94"/>
      <stop offset="1" stop-color="#7e5b39"/>
    </linearGradient>
    <linearGradient id="New_Gradient_476" data-name="New Gradient 476" x1="19.7714403" y1="29.6246903" x2="60.9869084" y2="70.8401584" gradientUnits="userSpaceOnUse">
      <stop offset="0" stop-color="#a48765"/>
      <stop offset="1" stop-color="#c0aa94"/>
    </linearGradient>
    <linearGradient id="New_Gradient_475" data-name="New Gradient 475" x1="47.4644783" y1="38.7735783" x2="83.2773234" y2="74.5864234" gradientUnits="userSpaceOnUse">
      <stop offset="0" stop-color="#5587c0"/>
      <stop offset="1" stop-color="#69c"/>
    </linearGradient>
    <linearGradient id="New_Gradient_475-2" data-name="New Gradient 475" x1="45.3709116" y1="36.6790616" x2="81.1832464" y2="72.4913964" gradientUnits="userSpaceOnUse"><stop offset="0" stop-color="#5587c0"/><stop offset="1" stop-color="#69c"/></linearGradient>
    <linearGradient id="New_Gradient_474" data-name="New Gradient 474" x1="51.41745" y1="39.6567" x2="51.41745" y2="80.6372" gradientUnits="userSpaceOnUse">
      <stop offset="0" stop-color="#b3e0ff"/>
      <stop offset="1" stop-color="#97bae0"/>
    </linearGradient>
    <linearGradient id="New_Gradient_473" data-name="New Gradient 473" x1="63.7138961" y1="32.677511" x2="66.806206" y2="47.2256853" gradientUnits="userSpaceOnUse">
      <stop offset="0" stop-color="#ccc"/>
      <stop offset="1" stop-color="#fff"/>
    </linearGradient>
    <linearGradient id="New_Gradient_472" data-name="New Gradient 472" x1="51.247334" y1="38.74688" x2="83.6858501" y2="78.8051113" gradientUnits="userSpaceOnUse">
      <stop offset="0" stop-color="#97bae0"/>
      <stop offset="1" stop-color="#69c"/>
    </linearGradient>
    <mask id="mask-1" x="23.4766" y="47.7192" width="44.4345" height="46.23" maskUnits="userSpaceOnUse">
      <path d="M45.7578,50.7266c-11.0615,2.792-20.0303,14.0786-20.0303,25.2075,0,11.1294,8.9688,17.8857,20.0303,15.0947,11.0654-2.7939,20.0293-14.0771,20.0293-25.2085,0-11.1294-8.9639-17.8867-20.0293-15.0937ZM45.7578,77.9331c-3.8711.9766-7.0098-1.3916-7.0098-5.2856,0-3.8926,3.1387-7.8404,7.0098-8.8189,3.8692-.98,7.0108,1.3862,7.0108,5.2832,0,3.8916-3.1416,7.8438-7.0108,8.8213Z" fill="#fff" fill-rule="evenodd"/>
    </mask>
    <mask id="mask-2" x="23.4766" y="47.7192" width="44.4345" height="46.23" maskUnits="userSpaceOnUse">
      <path d="M45.7578,51.7368c10.5088-2.6543,19.0293,3.7661,19.0293,14.3428,0,10.5679-8.5205,21.2886-19.0293,23.9438-10.5068,2.6538-19.0293-3.768-19.0293-14.3408,0-10.5732,8.5225-21.2915,19.0293-23.9458Z" fill="#fff"/>
    </mask>
    <linearGradient id="New_Gradient_7" data-name="New Gradient 7" x1="29.3323916" y1="57.5784541" x2="62.1836207" y2="84.1808549" gradientUnits="userSpaceOnUse">
      <stop offset="0" stop-color="#fff"/>
      <stop offset="1" stop-color="#ccc"/>
    </linearGradient>
    <linearGradient id="New_Gradient_118" data-name="New Gradient 118" x1="70.825075" y1="227.2082814" x2="26.1003284" y2="182.4835349" gradientTransform="translate(0 -119.8735) rotate(-13.9984894) scale(1.0306069 .9703021) skewX(-13.2089399)" gradientUnits="userSpaceOnUse">
      <stop offset="0" stop-color="#fff"/>
      <stop offset="1" stop-color="#ccc"/>
    </linearGradient>
  </defs>
  <g>
    <polygon points="57.0791 25.3423 63.3428 26.7832 57.0791 28.3379 57.0791 66.7344 23.8711 74.8823 15.8477 66.9487 15.8477 30.9932 9.6543 24.7964 15.8477 25.6577 12.8857 18.8892 46.1689 10.6216 49.0801 17.2827 54.9141 11.438 62.8594 19.3853 56.998 25.2642 57.0791 25.3423" fill="url(#New_Gradient_477)" stroke="#000" stroke-linecap="round" stroke-linejoin="round" stroke-width="4"/>
    <g>
      <g mask="url(#mask)">
        <g>
          <polygon points="15.7256 67.1025 15.7256 25.7031 49.0859 17.4185 57.0586 25.3882 23.7373 75.1128 15.7256 67.1025" fill="url(#New_Gradient_477-2)" fill-rule="evenodd"/>
          <polygon points="14.4434 68.6494 24.5039 78.7119 24.5039 34.4941 14.4434 24.4297 14.4434 68.6494" fill="none" fill-rule="evenodd" stroke="#000" stroke-miterlimit="3.8637" stroke-width=".1134"/>
          <polygon points="13.4326 23.7764 23.6973 33.6743 64.3711 25.7725 53.877 9.6528 13.4326 23.7764" fill="url(#New_Gradient_479)" fill-rule="evenodd"/>
          <rect x="48.7725" y="6.0244" width="17.4306" height="27.9556" fill="url(#New_Gradient_478)"/>
        </g>
      </g>
      <polygon points="49.0859 17.4185 15.7256 25.7031 12.7578 18.9194 46.1201 10.6348 49.0859 17.4185" fill="#c0aa94" fill-rule="evenodd"/>
      <polygon points="9.5186 24.8418 17.4902 32.8135 23.6973 33.6743 15.7256 25.7031 9.5186 24.8418" fill="#c0aa94" fill-rule="evenodd"/>
      <polygon points="48.9658 17.3848 56.9346 25.356 62.8525 19.4175 54.8857 11.4497 48.9658 17.3848" fill="#e5c9b0" fill-rule="evenodd"/>
      <polygon points="23.6973 75.0742 23.6973 33.6743 57.0586 25.3882 57.0586 66.8862 23.6973 75.0742" fill="url(#New_Gradient_476)" fill-rule="evenodd"/>
      <polygon points="57.0059 25.4097 23.6436 33.6958 29.9727 35.1172 63.335 26.832 57.0059 25.4097" fill="#e5c9b0" fill-rule="evenodd"/>
      <line x1="23.749" y1="74.6162" x2="23.749" y2="34.1641" fill="none" stroke="#f9e3c9" stroke-linecap="round" stroke-miterlimit="3.8637" stroke-width=".4667"/>
      <line x1="16.4346" y1="25.6309" x2="48.4063" y2="17.7891" fill="none" stroke="#a48765" stroke-linecap="round" stroke-miterlimit="3.8637" stroke-width=".4667"/>
      <polyline points="45.7656 11.0337 13.25 19.105 15.9922 25.4097" fill="none" stroke="#f9e3c9" stroke-linecap="round" stroke-miterlimit="3.8637" stroke-width=".4667"/>
      <polyline points="24.3018 33.832 30.168 35.1636 62.6943 26.9624" fill="none" stroke="#7e5b39" stroke-linecap="round" stroke-miterlimit="3.8637" stroke-width=".4667"/>
      <polyline points="23.3018 33.4946 17.4395 32.7178 9.8994 25.2983" fill="none" stroke="#f9e3c9" stroke-linecap="round" stroke-miterlimit="3.8637" stroke-width=".4667"/>
      <polyline points="57.1973 24.9375 62.7959 19.4214 55.0488 11.8179" fill="none" stroke="#a48765" stroke-linecap="round" stroke-miterlimit="3.8637" stroke-width=".4667"/>
    </g>
  </g>
  <g>
    <polygon points="77.2275 35.6787 79.0498 37.5 81.4189 36.9116 81.4189 73.7891 53.5117 80.6372 49.3232 76.4463 49.3232 39.6567 77.2295 32.7227 77.2275 35.6787" fill="url(#New_Gradient_475)" stroke="#000" stroke-linecap="round" stroke-linejoin="round" stroke-width="4"/>
    <g>
      <polygon points="49.3232 76.4463 49.3232 39.6567 77.2295 32.7227 77.2295 69.5962 49.3232 76.4463" fill="url(#New_Gradient_475-2)" fill-rule="evenodd"/>
      <polygon points="53.5117 80.6372 49.3232 76.4463 49.3232 39.6567 53.5117 43.8438 53.5117 80.6372" fill="url(#New_Gradient_474)" fill-rule="evenodd"/>
      <polygon points="50.8701 41.002 76.2676 34.7163 79.4326 37.8784 54.2041 45.2339 50.8701 41.002" fill="url(#New_Gradient_473)" fill-rule="evenodd"/>
      <polygon points="53.5117 80.6372 53.5117 43.8438 81.4189 36.9116 81.4189 73.7891 53.5117 80.6372" fill="url(#New_Gradient_472)" fill-rule="evenodd"/>
      <polyline points="81.0977 37.0664 53.6924 43.8096 49.71 39.8271 77.1123 33.082" fill="none" stroke="#b3e0ff" stroke-linecap="round" stroke-linejoin="round" stroke-width=".5"/>
      <line x1="53.6055" y1="44.292" x2="53.6055" y2="80.293" fill="none" stroke="#69c" stroke-linecap="round" stroke-linejoin="round" stroke-width=".5"/>
    </g>
  </g>
  <g>
    <path d="M45.7578,51.7368c10.5088-2.6543,19.0293,3.7661,19.0293,14.3428,0,10.5679-8.5205,21.2886-19.0293,23.9438-10.5068,2.6538-19.0293-3.768-19.0293-14.3408,0-10.5732,8.5225-21.2915,19.0293-23.9458Z" fill="none" stroke="#000" stroke-linecap="round" stroke-linejoin="round" stroke-width="4"/>
    <path d="M45.7578,63.8286c-3.8711.9785-7.0098,4.9263-7.0098,8.8189,0,3.894,3.1387,6.2622,7.0098,5.2856,3.8692-.9775,7.0108-4.9297,7.0108-8.8213,0-3.897-3.1416-6.2632-7.0108-5.2832ZM45.7578,74.5103c-1.9902.498-3.6064-.7173-3.6064-2.7203,0-2.0029,1.6162-4.0332,3.6064-4.538,1.9951-.502,3.6035.7133,3.6035,2.7163,0,2.0029-1.6084,4.0371-3.6035,4.542Z" fill="none" opacity=".5" stroke="#000" stroke-miterlimit="3.8637"/>
    <path d="M45.7578,63.8286c-3.8711.9785-7.0098,4.9263-7.0098,8.8189,0,3.894,3.1387,6.2622,7.0098,5.2856,3.8692-.9775,7.0108-4.9297,7.0108-8.8213,0-3.897-3.1416-6.2632-7.0108-5.2832ZM45.7578,74.5103c-1.9902.498-3.6064-.7173-3.6064-2.7203,0-2.0029,1.6162-4.0332,3.6064-4.538,1.9951-.502,3.6035.7133,3.6035,2.7163,0,2.0029-1.6084,4.0371-3.6035,4.542Z" fill="#ccc" opacity=".9" stroke="#666" stroke-miterlimit="3.8637" stroke-width=".525"/>
    <g mask="url(#mask-1)">
      <g>
        <path d="M45.7578,50.7266c-11.0615,2.792-20.0303,14.0786-20.0303,25.2075,0,11.1294,8.9688,17.8857,20.0303,15.0947,11.0654-2.7939,20.0293-14.0771,20.0293-25.2085,0-11.1294-8.9639-17.8867-20.0293-15.0937ZM45.7578,77.9331c-3.8711.9766-7.0098-1.3916-7.0098-5.2856,0-3.8926,3.1387-7.8404,7.0098-8.8189,3.8692-.98,7.0108,1.3862,7.0108,5.2832,0,3.8916-3.1416,7.8438-7.0108,8.8213Z" fill="none" fill-rule="evenodd"/>
        <g mask="url(#mask-2)">
          <g>
            <path d="M45.7578,51.7368c10.5088-2.6543,19.0293,3.7661,19.0293,14.3428,0,10.5679-8.5205,21.2886-19.0293,23.9438-10.5068,2.6538-19.0293-3.768-19.0293-14.3408,0-10.5732,8.5225-21.2915,19.0293-23.9458Z" fill="url(#New_Gradient_7)"/>
            <path d="M47.9131,53.3364c10.5068-2.6557,19.0303,3.7666,19.0303,14.3384,0,10.5708-8.5235,21.293-19.0303,23.9463-10.5088,2.6543-19.0274-3.7671-19.0274-14.3394,0-10.5752,8.5186-21.2939,19.0274-23.9453Z" fill="url(#New_Gradient_118)" stroke="#b2b2b2" stroke-miterlimit="3.8637" stroke-width=".5"/>
            <polygon points="45.6611 70.8799 56.6064 47.7192 60.5381 49.8047 45.6611 70.8799" fill="#b2d6e8" fill-rule="evenodd"/>
            <polygon points="64.1221 52.9092 45.6611 70.8799 60.5381 49.8047 64.1221 52.9092" fill="#f6f8b2" fill-rule="evenodd"/>
            <polygon points="45.6611 70.8799 66.2676 56.6616 64.1221 52.9092 45.6611 70.8799" fill="#c9ffc9" fill-rule="evenodd"/>
            <polygon points="45.6611 70.8799 67.6953 61.0938 66.2676 56.6616 45.6611 70.8799" fill="#e5c9b0" fill-rule="evenodd"/>
            <polygon points="45.6611 70.8799 67.9111 65.978 67.6953 61.0938 45.6611 70.8799" fill="#fff" fill-rule="evenodd"/>
            <polygon points="45.7295 70.7866 34.7803 93.9492 30.8467 91.8633 45.7295 70.7866" fill="#b2d6e8" fill-rule="evenodd"/>
            <polygon points="27.2705 88.7612 45.7295 70.7866 30.8467 91.8633 27.2705 88.7612" fill="#f6f8b2" fill-rule="evenodd"/>
            <polygon points="45.7295 70.7866 25.1201 85.0059 27.2705 88.7612 45.7295 70.7866" fill="#c9ffc9" fill-rule="evenodd"/>
            <polygon points="45.7295 70.7866 23.6904 80.5732 25.1201 85.0059 45.7295 70.7866" fill="#e5c9b0" fill-rule="evenodd"/>
            <polygon points="45.7295 70.7866 23.4766 75.6934 23.6904 80.5732 45.7295 70.7866" fill="#fff" fill-rule="evenodd"/>
            <path d="M45.7578,50.7266c-11.0615,2.792-20.0303,14.0786-20.0303,25.2075,0,11.1294,8.9688,17.8857,20.0303,15.0947,11.0654-2.7939,20.0293-14.0771,20.0293-25.2085,0-11.1294-8.9639-17.8867-20.0293-15.0937ZM45.7578,77.9331c-3.8711.9766-7.0098-1.3916-7.0098-5.2856,0-3.8926,3.1387-7.8404,7.0098-8.8189,3.8692-.98,7.0108,1.3862,7.0108,5.2832,0,3.8916-3.1416,7.8438-7.0108,8.8213Z" fill="none" fill-rule="evenodd" stroke="gray" stroke-linecap="round" stroke-linejoin="round"/>
          </g>
        </g>
        <path d="M45.7578,50.7266c-11.0615,2.792-20.0303,14.0786-20.0303,25.2075,0,11.1294,8.9688,17.8857,20.0303,15.0947,11.0654-2.7939,20.0293-14.0771,20.0293-25.2085,0-11.1294-8.9639-17.8867-20.0293-15.0937ZM45.7578,77.9331c-3.8711.9766-7.0098-1.3916-7.0098-5.2856,0-3.8926,3.1387-7.8404,7.0098-8.8189,3.8692-.98,7.0108,1.3862,7.0108,5.2832,0,3.8916-3.1416,7.8438-7.0108,8.8213Z" fill="none" fill-rule="evenodd"/>
      </g>
    </g>
  </g>
</svg>