<?xml version='1.0' encoding='UTF-8'?>
<svg xmlns="http://www.w3.org/2000/svg" xmlns:xlink="http://www.w3.org/1999/xlink" id="Layer_1" data-name="Layer 1" width="96" height="96" viewBox="0 0 96 96">
  <defs>
    <linearGradient id="New_Gradient_208" data-name="New Gradient 208" x1="26.4293366" y1="35.3483415" x2="66.3614264" y2="70.0607776" gradientUnits="userSpaceOnUse">
      <stop offset="0" stop-color="#5387ba"/>
      <stop offset="1" stop-color="#96bad6"/>
    </linearGradient>
    <mask id="mask" x="11.2567924" y="36.4136" width="76.8652981" height="47.9179" maskUnits="userSpaceOnUse">
      <polygon points="44.7636916 78.6724 85.312 68.6377 85.2533906 66.8423 54.5951913 36.4136 13.9823924 46.3633 14.0463924 48.188 44.7636916 78.6724" fill="#fff" fill-rule="evenodd"/>
    </mask>
    <linearGradient id="New_Gradient_208-2" data-name="New Gradient 208" x1="34.0602207" y1="43.9654185" x2="65.2611687" y2="71.0879888" gradientUnits="userSpaceOnUse"><stop offset="0" stop-color="#5387ba"/><stop offset="1" stop-color="#96bad6"/></linearGradient>
    <linearGradient id="New_Gradient_209" data-name="New Gradient 209" x1="26.2820778" y1="49.7992967" x2="73.0989637" y2="80.2025378" gradientUnits="userSpaceOnUse">
      <stop offset="0" stop-color="#b4daea"/>
      <stop offset=".51123" stop-color="#b4daea"/>
      <stop offset=".646072" stop-color="#5387ba"/>
      <stop offset="1" stop-color="#16336e"/>
    </linearGradient>
    <linearGradient id="New_Gradient_210" data-name="New Gradient 210" x1="49.1039915" y1="38.0884" x2="49.1039915" y2="75.7998" gradientUnits="userSpaceOnUse">
      <stop offset="0" stop-color="#b2b2b2"/>
      <stop offset="1" stop-color="#f2f2f2"/>
    </linearGradient>
    <mask id="mask-1" x="11.2567924" y="26.7148" width="76.8652981" height="47.9165" maskUnits="userSpaceOnUse">
      <polygon points="44.7636916 68.9727 85.312 58.9375 85.2533906 57.1416 54.5951913 26.7148 13.9823924 36.6621 14.0463924 38.4854 44.7636916 68.9727" fill="#fff" fill-rule="evenodd"/>
    </mask>
    <linearGradient id="New_Gradient_211" data-name="New Gradient 211" x1="34.0593534" y1="34.2654146" x2="65.2606005" y2="61.3882449" gradientUnits="userSpaceOnUse">
      <stop offset="0" stop-color="#6498c1"/>
      <stop offset="1" stop-color="#b4daea"/>
    </linearGradient>
    <linearGradient id="New_Gradient_209-2" data-name="New Gradient 209" x1="26.2820063" y1="40.0988002" x2="73.0990534" y2="70.5021461" gradientUnits="userSpaceOnUse"><stop offset="0" stop-color="#b4daea"/><stop offset=".51123" stop-color="#b4daea"/><stop offset=".646072" stop-color="#5387ba"/><stop offset="1" stop-color="#16336e"/></linearGradient>
    <linearGradient id="New_Gradient_212" data-name="New Gradient 212" x1="6.8183122" y1="37.5442951" x2="20.5868844" y2="46.8313143" gradientUnits="userSpaceOnUse">
      <stop offset="0" stop-color="#fff"/>
      <stop offset="1" stop-color="gray"/>
    </linearGradient>
    <linearGradient id="New_Gradient_213" data-name="New Gradient 213" x1="13.548908" y1="34.9772056" x2="17.5147472" y2="45.30857" gradientUnits="userSpaceOnUse">
      <stop offset="0" stop-color="#000"/>
      <stop offset="1" stop-color="gray"/>
    </linearGradient>
    <linearGradient id="New_Gradient_214" data-name="New Gradient 214" x1="13.7782199" y1="50.8120271" x2="13.4465399" y2="49.3753633" gradientUnits="userSpaceOnUse">
      <stop offset="0" stop-color="#fff"/>
      <stop offset="1" stop-color="gray"/>
    </linearGradient>
    <linearGradient id="New_Gradient_215" data-name="New Gradient 215" x1="15.3980092" y1="53.2682415" x2="13.673048" y2="50.397424" gradientUnits="userSpaceOnUse">
      <stop offset="0" stop-color="#000"/>
      <stop offset="1" stop-color="gray"/>
    </linearGradient>
    <linearGradient id="New_Gradient_212-2" data-name="New Gradient 212" x1="11.6545431" y1="42.3438931" x2="25.421495" y2="51.6298194" gradientUnits="userSpaceOnUse"><stop offset="0" stop-color="#fff"/><stop offset="1" stop-color="gray"/></linearGradient>
    <linearGradient id="New_Gradient_213-2" data-name="New Gradient 213" x1="18.3853761" y1="39.7776697" x2="22.3509292" y2="50.1082886" gradientUnits="userSpaceOnUse"><stop offset="0" stop-color="#000"/><stop offset="1" stop-color="gray"/></linearGradient>
    <linearGradient id="New_Gradient_214-2" data-name="New Gradient 214" x1="18.6136778" y1="55.6107742" x2="18.2819468" y2="54.1738894" gradientUnits="userSpaceOnUse"><stop offset="0" stop-color="#fff"/><stop offset="1" stop-color="gray"/></linearGradient>
    <linearGradient id="New_Gradient_215-2" data-name="New Gradient 215" x1="20.2338508" y1="58.0671393" x2="18.5104042" y2="55.1988425" gradientUnits="userSpaceOnUse"><stop offset="0" stop-color="#000"/><stop offset="1" stop-color="gray"/></linearGradient>
    <linearGradient id="New_Gradient_212-3" data-name="New Gradient 212" x1="16.4902584" y1="47.1419566" x2="30.2573448" y2="56.4279736" gradientUnits="userSpaceOnUse"><stop offset="0" stop-color="#fff"/><stop offset="1" stop-color="gray"/></linearGradient>
    <linearGradient id="New_Gradient_213-3" data-name="New Gradient 213" x1="23.2212444" y1="44.5756521" x2="27.1868517" y2="54.9064123" gradientUnits="userSpaceOnUse"><stop offset="0" stop-color="#000"/><stop offset="1" stop-color="gray"/></linearGradient>
    <linearGradient id="New_Gradient_214-3" data-name="New Gradient 214" x1="23.4502249" y1="60.4108775" x2="23.1184879" y2="58.9739665" gradientUnits="userSpaceOnUse"><stop offset="0" stop-color="#fff"/><stop offset="1" stop-color="gray"/></linearGradient>
    <linearGradient id="New_Gradient_215-3" data-name="New Gradient 215" x1="25.0707718" y1="62.8673621" x2="23.3454791" y2="59.9959929" gradientUnits="userSpaceOnUse"><stop offset="0" stop-color="#000"/><stop offset="1" stop-color="gray"/></linearGradient>
    <linearGradient id="New_Gradient_212-4" data-name="New Gradient 212" x1="21.3264345" y1="51.942196" x2="35.0936365" y2="61.228291" gradientUnits="userSpaceOnUse"><stop offset="0" stop-color="#fff"/><stop offset="1" stop-color="gray"/></linearGradient>
    <linearGradient id="New_Gradient_213-4" data-name="New Gradient 213" x1="28.0574667" y1="49.3753401" x2="32.0224111" y2="59.7043734" gradientUnits="userSpaceOnUse"><stop offset="0" stop-color="#000"/><stop offset="1" stop-color="gray"/></linearGradient>
    <linearGradient id="New_Gradient_214-4" data-name="New Gradient 214" x1="28.2861648" y1="65.208759" x2="27.9543602" y2="63.7715551" gradientUnits="userSpaceOnUse"><stop offset="0" stop-color="#fff"/><stop offset="1" stop-color="gray"/></linearGradient>
    <linearGradient id="New_Gradient_215-4" data-name="New Gradient 215" x1="29.9065353" y1="67.6659656" x2="28.181624" y2="64.7952311" gradientUnits="userSpaceOnUse"><stop offset="0" stop-color="#000"/><stop offset="1" stop-color="gray"/></linearGradient>
    <linearGradient id="New_Gradient_212-5" data-name="New Gradient 212" x1="26.1636192" y1="56.7414646" x2="39.9290933" y2="66.0263941" gradientUnits="userSpaceOnUse"><stop offset="0" stop-color="#fff"/><stop offset="1" stop-color="gray"/></linearGradient>
    <linearGradient id="New_Gradient_213-5" data-name="New Gradient 213" x1="32.8951162" y1="54.1783841" x2="36.8583437" y2="64.5029448" gradientUnits="userSpaceOnUse"><stop offset="0" stop-color="#000"/><stop offset="1" stop-color="gray"/></linearGradient>
    <linearGradient id="New_Gradient_214-5" data-name="New Gradient 214" x1="33.1227239" y1="70.0100697" x2="32.790853" y2="68.5725787" gradientUnits="userSpaceOnUse"><stop offset="0" stop-color="#fff"/><stop offset="1" stop-color="gray"/></linearGradient>
    <linearGradient id="New_Gradient_215-5" data-name="New Gradient 215" x1="34.7444569" y1="72.4671353" x2="33.0184412" y2="69.5945628" gradientUnits="userSpaceOnUse"><stop offset="0" stop-color="#000"/><stop offset="1" stop-color="gray"/></linearGradient>
    <linearGradient id="New_Gradient_212-6" data-name="New Gradient 212" x1="30.9979962" y1="61.5408018" x2="44.7677058" y2="70.8285881" gradientUnits="userSpaceOnUse"><stop offset="0" stop-color="#fff"/><stop offset="1" stop-color="gray"/></linearGradient>
    <linearGradient id="New_Gradient_213-6" data-name="New Gradient 213" x1="37.7300041" y1="58.9748254" x2="41.6946895" y2="69.303184" gradientUnits="userSpaceOnUse"><stop offset="0" stop-color="#000"/><stop offset="1" stop-color="gray"/></linearGradient>
    <linearGradient id="New_Gradient_214-6" data-name="New Gradient 214" x1="37.9586791" y1="74.8089243" x2="37.6269007" y2="73.3718344" gradientUnits="userSpaceOnUse"><stop offset="0" stop-color="#fff"/><stop offset="1" stop-color="gray"/></linearGradient>
    <linearGradient id="New_Gradient_215-6" data-name="New Gradient 215" x1="39.5796891" y1="77.2655279" x2="37.8539747" y2="74.3934569" gradientUnits="userSpaceOnUse"><stop offset="0" stop-color="#000"/><stop offset="1" stop-color="gray"/></linearGradient>
    <linearGradient id="New_Gradient_216" data-name="New Gradient 216" x1="43.2471446" y1="31.6724979" x2="48.1949779" y2="46.0420494" gradientUnits="userSpaceOnUse">
      <stop offset="0" stop-color="#ccc"/>
      <stop offset="1" stop-color="#f2f2f2"/>
    </linearGradient>
  </defs>
  <path d="M42.1542917,76.0796c-4.7689999,2.1045-8.8021998-.1226-9.8949998-4.1499-2.3827999-.5278-4.1654999-2.3257-4.8368999-4.8003-2.3832999-.5269-4.1635999-2.3237-4.837392-4.7988-2.3799078-.5293-4.1646077-2.3252-4.835-4.7984-2.3823077-.5293-4.1641076-2.3271-4.8359076-4.8003-3.0590924-.6782-5.1288999-3.4458-5.1288999-7.063,0-7.1762,7.4095998-12.3203,12.4823997-10.5434l34.3275991-8.4107,30.6581992,30.4268.0586094,1.7959-2.6304094.6519c-.2959.8129-.6045,1.9575-.6045,3.2153,0,.3413.0181.6528.0557.937l3.1205999,3.1006.0586094,1.7954-40.5483084,10.0347-2.6093999-2.5928ZM15.5180923,49.6489c-.0235.1831-.0376.3672-.045.5586.1626-.0303.3277-.0703.4888-.1167l-.4438-.4419ZM12.6513924,49.6909c.1684-2.2348,1.0507-4.2475,2.3329999-5.8774v-4.3941l-.4698-.4677c-2.1229999,1.4004-3.8822999,3.8852-3.8822999,6.7172,0,1.9043.8325,3.2911,2.0190999,4.022ZM20.3534922,54.4473c-.022.1831-.0371.3691-.043.5586.1626-.0308.3252-.0704.4888-.1172l-.4458-.4414ZM17.4877923,54.4883c.062-.8316.2241-1.6328.4683-2.396-.6905.3003-1.3628.5137-2.0151999.6435.3589.7642.9004,1.3575,1.5469,1.7525ZM25.1894921,59.2476c-.0234921.1831-.0367.3671-.0434921.5581.1620921-.0318.3251921-.0703.4882921-.1182l-.4448-.4399ZM22.3227922,59.2896c.0625-.834.2236-1.6353.4682078-2.3975-.6885078.3008-1.3608078.5107-2.0132078.6426.3584.7636.9004,1.3569,1.545,1.7549ZM34.8183918,69.4043c.1626082-.0317.3256082-.0703.4897-.1182l-.4458-.4399c-.0234.1831-.0381.3701-.0439.5581ZM30.449692,67.1333c.3589.7637.8994,1.3584,1.5459,1.7534.0635-.833.2236-1.6338.4683-2.3974-.689.3012-1.3618.5156-2.0141999.644ZM30.024392,64.0459c-.022.1831-.0376.3682-.0425.5581.1626-.0298.3272-.0679.4888-.1162l-.4463-.4419ZM27.158692,64.0884c.0625-.8345.2246-1.6348.4707-2.3975-.6909.3003-1.3648.5142-2.0160999.6436.3584.7646.9013,1.3589,1.5454,1.7539ZM37.3187918,71.2813c-.6957918.3066-1.3769.5219-2.0306999.6518.8906,1.898,2.9032999,2.7339,4.8563999,2.1519l-2.8256999-2.8037Z" fill="url(#New_Gradient_208)" stroke="#000" stroke-linecap="round" stroke-linejoin="round" stroke-width="4"/>
  <g mask="url(#mask)">
    <g>
      <polygon points="44.7636916 78.6724 85.312 68.6377 85.2533906 66.8423 54.5951913 36.4136 13.9823924 46.3633 14.0463924 48.188 44.7636916 78.6724" fill="url(#New_Gradient_208-2)" fill-rule="evenodd"/>
      <polygon points="13.6947924 46.1689 44.9350916 77.1699 87.5502905 66.3301 88.1220905 72.6152 43.644 84.3315 11.2567924 51.6011 11.4008924 45.5991 13.6947924 46.1689" fill="url(#New_Gradient_209)" fill-rule="evenodd"/>
    </g>
  </g>
  <path d="M83.2235906,58.3687s-1.1465,2.0151-1.1465,4.436c0,2.4175,1.003,3.2978,1.003,3.2978l-38.2890906,9.6973-29.8066077-29.5747v-8.1367l68.2391983,20.2803Z" fill="url(#New_Gradient_210)" fill-rule="evenodd"/>
  <g mask="url(#mask-1)">
    <g>
      <polygon points="44.7636916 68.9727 85.312 58.9375 85.2533906 57.1416 54.5951913 26.7148 13.9823924 36.6621 14.0463924 38.4854 44.7636916 68.9727" fill="url(#New_Gradient_211)" fill-rule="evenodd"/>
      <polygon points="13.6947924 36.4683 44.9350916 67.4697 87.5502905 56.6294 88.1220905 62.915 43.644 74.6313 11.2567924 41.9004 11.4008924 35.8984 13.6947924 36.4683" fill="url(#New_Gradient_209-2)" fill-rule="evenodd"/>
    </g>
  </g>
  <g>
    <path d="M21.6996922,36.8525c1.3574,0,2.4594999.7525,2.4594999,1.6802,0,.9292-1.1021,1.6817-2.4594999,1.6817-1.3589-.0005-2.4603999-.7525-2.4603999-1.6831,0-.9263,1.1015-1.6788,2.4603999-1.6788Z" fill="#5387ba" stroke="#16336e" stroke-miterlimit="3.8637" stroke-width=".5"/>
    <g>
      <path d="M17.9877923,52.0781c-5.6088999,2.481-10.2025997-1.019-10.2025997-6.4092,0-9.1713,12.1004997-15.0195,15.9603996-7.3598.0913.6196-.7803,1.521-2.6742999,1.0688-2.4911999-4.1738-10.4389997.27-10.4389997,6.291,0,3.4493,2.7338999,5.2066,5.3461999,4.4175l2.0092999,1.9917Z" fill="gray"/>
      <path d="M9.0897925,49.4648c-.0477925-.0649-1.5151-2.1254-.7866-6.1738.749-4.1636,5.8188999-8.6582,10.2172997-8.2119.5117.0508.4336.8164-.0796.7622-3.9262999-.3984-8.6864998,3.7446-9.3768923,7.582-.2671075,1.4873-.3399075,4.1939.6537925,5.5928.3027.4141-.3257.8648-.628.4487Z" fill="url(#New_Gradient_212)"/>
      <path d="M21.2660922,38.7656s-.0366-.0776-.125-.1992c-.7109-.9712-2.0389999-1.2954-3.1849999-1.2954-2.6894999,0-6.1645998,2.333-7.4301998,6.3643-.1538.4882-.8931.2563-.7378-.2325,1.3506-4.2954,5.0863999-6.8989,8.1679998-6.8989,1.3388,0,3.4071999.5464,4.0174999,1.9473.2124078.4677-.4951.7827-.7075.3144Z" fill="url(#New_Gradient_213)"/>
      <path d="M11.7377924,49.3208s.0781.0933.23.2271c1.0356.8916,2.4427999,1.1074,3.7772999.8408.5069077-.1021.6602.6513.1558.7539-1.5513.3076-3.7011999-.0196-4.7602999-1.3374-.3275924-.395.2735-.8794.5972-.4844Z" fill="url(#New_Gradient_214)"/>
      <path d="M12.2812924,51.4238s.0742.0479.2182.1114c1.2852.5429,3.0835076.2617,4.3358999-.0997.4927-.1425.71.5943.2149.7383-1.2388.357-3.9486999.7827-5.2108999-.1201-.4239-.2905.0175-.9199.4419-.6299Z" fill="url(#New_Gradient_215)"/>
    </g>
  </g>
  <g>
    <path d="M26.5360921,41.6509c1.3584,0,2.4594999.7539,2.4594999,1.6802,0,.9306-1.1011,1.6831-2.4594999,1.6831-1.3603,0-2.4613999-.7525-2.4613999-1.6831,0-.9263,1.1011-1.6802,2.4613999-1.6802Z" fill="#5387ba" stroke="#16336e" stroke-miterlimit="3.8637" stroke-width=".5"/>
    <g>
      <path d="M22.8236921,56.8779c-5.6063999,2.479-10.2035997-1.0205-10.2035997-6.4087,0-9.1718,12.1029997-15.0214,15.9613996-7.3584.0914.6163-.7783,1.5191-2.6751999,1.0674-2.4897999-4.1738-10.4389997.2696-10.4389997,6.291,0,3.4473,2.7343999,5.2046,5.3485999,4.4141l2.0077999,1.9946Z" fill="gray"/>
      <path d="M13.9262924,54.2651c-.0469-.0669-1.5171-2.1274-.7867-6.1757.7486-4.1631,5.8184076-8.6578,10.2148997-8.2115.5146.0518.436.8169-.0781.7617-3.9257999-.3955-8.6855998,3.7447-9.3764998,7.584-.2671,1.4873-.3394,4.1939.6548,5.5909.3022.414-.3266924.8632-.6284.4506Z" fill="url(#New_Gradient_212-2)"/>
      <path d="M26.104,43.5654s-.0395079-.0781-.1279079-.2007c-.71-.9697-2.0375999-1.2934-3.1835999-1.2934-2.6894921,0-6.1635998,2.3306-7.4301998,6.3623-.1532923.4888-.8931.2583-.7392923-.2315,1.3496923-4.2949,5.0883922-6.8989,8.1694921-6.8989,1.3388,0,3.4076999.5459,4.0179999,1.9483.212.4677-.4956.7807-.706492.3139Z" fill="url(#New_Gradient_213-2)"/>
      <path d="M16.5761923,54.1201s.0757.0923.227.2261c1.0371.8926,2.4458077,1.1089,3.7788077.8428.5063922-.1021.6596922.6504.1552922.7519-1.5482922.3106-3.6996999-.0176-4.7626999-1.334-.3242-.3974.2754077-.8828.6016-.4868Z" fill="url(#New_Gradient_214-2)"/>
      <path d="M17.1161923,56.2241s.0737.0479.2202.1099c1.2837.5439,3.0834999.2612,4.3339999-.0986.4946078-.1441.71.5932.2153.7387-1.2382.356-3.9496922.7808-5.2108999-.122-.4227923-.2896.0171-.92.4414-.628Z" fill="url(#New_Gradient_215-2)"/>
    </g>
  </g>
  <g>
    <path d="M31.3725919,46.4512c1.3569,0,2.4598999.7524,2.4598999,1.6792,0,.9297-1.103,1.6841-2.4598999,1.6841-1.3589,0-2.4609999-.7544-2.4609999-1.6841,0-.9268,1.1021-1.6792,2.4609999-1.6792Z" fill="#5387ba" stroke="#16336e" stroke-miterlimit="3.8637" stroke-width=".5"/>
    <g>
      <path d="M27.660592,61.6763c-5.6087999,2.4814-10.2030997-1.0186-10.2030997-6.4073,0-9.1733,12.1020997-15.021,15.9585077-7.3598.0937919.6172-.7768081,1.519-2.6714081,1.0669-2.4930999-4.1724-10.4408997.2705-10.4408997,6.2929,0,3.4478,2.7328999,5.2051,5.3481999,4.4165l2.0086999,1.9908Z" fill="gray"/>
      <path d="M18.7631923,59.0625c-.0488-.0654-1.5151923-2.1245-.7866-6.1743.7485-4.1641,5.8168999-8.6582,10.2147997-8.2114.5137.0532.4341.8164-.0762.7631-3.928192-.3974-8.6864998,3.7437-9.3768998,7.5826-.2695,1.4882-.3422923,4.1938.6509,5.5908.3032.4155-.3243.8642-.626.4492Z" fill="url(#New_Gradient_212-3)"/>
      <path d="M30.9408919,48.3657s-.04-.081-.1264-.2016c-.712-.9688-2.0395999-1.293-3.1835999-1.293-2.692892,0-6.1655998,2.3315-7.4321998,6.3608-.1538.4903-.894.2583-.7373-.2295,1.3496078-4.2963,5.0854999-6.9008,8.1694998-6.9008,1.3354,0,3.4056999.5459,4.0155999,1.9497.2109.4663-.4932.7807-.7056.3144Z" fill="url(#New_Gradient_213-3)"/>
      <path d="M21.4115922,58.9204s.0767.0923.23.2241c1.0347.8936,2.4418999,1.1109,3.7768999.8428.5058-.1011.6582.6514.1547.7539-1.5493.3086-3.7010999-.019-4.7601921-1.3354-.3281078-.396.2733922-.8814.5985922-.4854Z" fill="url(#New_Gradient_214-3)"/>
      <path d="M21.9555922,61.0239s.0717.0464.2168.1099c1.2841.5425,3.0814999.2617,4.3358999-.0996.4932-.1421.7085.5947.2158.7383-1.2397.3579-3.9511999.7837-5.2128999-.1202-.4228-.2915.0191-.9209.4444-.6284Z" fill="url(#New_Gradient_215-3)"/>
    </g>
  </g>
  <g>
    <path d="M36.209,51.2495c1.3568918,0,2.4594917.7544,2.4594917,1.6792,0,.9317-1.1026,1.6841-2.4594917,1.6841-1.3623082,0-2.4595081-.7524-2.4595081-1.6841,0-.9248,1.0972-1.6792,2.4595081-1.6792Z" fill="#5387ba" stroke="#16336e" stroke-miterlimit="3.8637" stroke-width=".5"/>
    <g>
      <path d="M32.4970919,66.4751c-5.6083999,2.481-10.2031997-1.0186-10.2031997-6.4077,0-9.1704,12.1001078-15.0191,15.9599996-7.3599.0923.6182-.7783,1.5215-2.6737999,1.0674-2.4902999-4.1709-10.4384997.27-10.4384997,6.2925,0,3.4477,2.7314079,5.2051,5.3461999,4.4165l2.0092999,1.9912Z" fill="gray"/>
      <path d="M23.5985921,63.8638c-.0493-.0655-1.5161-2.1275-.7865921-6.1758.7484921-4.1631,5.818892-8.6563,10.2157919-8.2109.5132081.0498.4356.8164-.0781.7626-3.9267999-.3984-8.6850998,3.7422-9.3764998,7.5811-.268,1.4868-.3398,4.1938.6524,5.5923.3027.4145-.3247.8647-.627.4507Z" fill="url(#New_Gradient_212-4)"/>
      <path d="M35.7753918,53.1641s-.0386-.0782-.1265-.2007c-.7098918-.9697-2.0355999-1.294-3.1830999-1.294-2.6898999,0-6.1639998,2.3355-7.4305998,6.3628-.1539.4888-.8936.2569-.7398-.2314,1.3506079-4.2945,5.0888999-6.8999,8.1703998-6.8999,1.3369,0,3.4072081.5469,4.0175999,1.9507.2114.4663-.4961.7807-.708.3125Z" fill="url(#New_Gradient_213-4)"/>
      <path d="M26.2465921,63.7188s.0796.0942.2295.2255c1.0361.8941,2.4447999,1.1099,3.7782999.8423.5078-.102.6582.6504.1533.7539-1.5483.3086-3.6991999-.018-4.7597999-1.3369-.3261-.3955.2745-.8808.5987-.4848Z" fill="url(#New_Gradient_214-4)"/>
      <path d="M26.790492,65.8228s.0718.0463.2178.1098c1.2832.5425,3.0829999.2603,4.3339999-.0996.4946-.144.7114.5957.2182.7383-1.2397.3564-3.9515999.7832-5.2127999-.1196-.4234-.2911.019-.919.4428-.6289Z" fill="url(#New_Gradient_215-4)"/>
    </g>
  </g>
  <g>
    <path d="M41.0453917,56.0498c1.3569,0,2.4589999.7524,2.4589999,1.6787,0,.9307-1.1021,1.6846-2.4589999,1.6846-1.3603,0-2.4613917-.7539-2.4613917-1.6846,0-.9263,1.1010917-1.6787,2.4613917-1.6787Z" fill="#5387ba" stroke="#16336e" stroke-miterlimit="3.8637" stroke-width=".5"/>
    <g>
      <path d="M37.332,71.2749c-5.6079081,2.481-10.203108-1.02-10.203108-6.4072,0-9.1724,12.102108-15.021,15.9618996-7.3599.0908.6172-.7787916,1.521-2.6742999,1.0669-2.4906999-4.1724-10.4408997.2705-10.4408997,6.293,0,3.4477,2.7357999,5.2046,5.3490999,4.416l2.0073082,1.9912Z" fill="gray"/>
      <path d="M28.435092,68.6621c-.0464-.0654-1.5162-2.1269-.7867-6.1753.748608-4.1636,5.8193999-8.6567,10.2172997-8.2095.5137.0498.4336.8145-.0796.7618-3.9266999-.396-8.6864998,3.7441-9.3763998,7.5835-.2686,1.4868-.3404,4.1928.653308,5.5908.300792.414-.326208.8628-.627908.4487Z" fill="url(#New_Gradient_212-5)"/>
      <path d="M40.6127917,57.9624s-.0391-.0771-.127-.1978c-.7094-.9707-2.0360999-1.2949-3.1844999-1.2949-2.6884999,0-6.1650998,2.3335-7.4311998,6.3618-.1538.4893-.892092.2579-.7383-.2304,1.3506-4.2969,5.0883999-6.898,8.1694998-6.898,1.3374,0,3.4077082.5445,4.0184999,1.9473.21.4658-.4946.7803-.707.312Z" fill="url(#New_Gradient_213-5)"/>
      <path d="M31.083,68.519s.0780919.0923.2294919.2247c1.0361.895,2.4433999,1.1103,3.7782999.8422.5064-.101.6597.6524.1538.7549-1.5483.3076-3.7006999-.02-4.7601999-1.3364-.3267-.396.2744-.8809.598608-.4854Z" fill="url(#New_Gradient_214-5)"/>
      <path d="M31.6264919,70.6211s.0727.0478.2182.1118c1.2852.542,3.0829999.2612,4.3339999-.1016.4951-.142.7129.5958.2183082.7417-1.2407082.355-3.9522081.7798-5.2124081-.121-.4224-.2911.0175-.9219.4419-.6309Z" fill="url(#New_Gradient_215-5)"/>
    </g>
  </g>
  <g>
    <path d="M45.8803916,60.8481c1.3584,0,2.4623999.754,2.4623999,1.6788,0,.9306-1.104,1.6845-2.4623999,1.6845-1.3593916,0-2.4594999-.7539-2.4594999-1.6845,0-.9248,1.1001084-1.6788,2.4594999-1.6788Z" fill="#5387ba" stroke="#16336e" stroke-miterlimit="3.8637" stroke-width=".5"/>
    <g>
      <path d="M42.168,76.0752c-5.6079082,2.48-10.2027081-1.0205-10.2027081-6.4092,0-9.1723,12.1010997-15.0205,15.9609996-7.3594.0918.6172-.7798,1.521-2.6733999,1.0684-2.4911999-4.1714-10.4408916.27-10.4408916,6.291,0,3.4483,2.7338918,5.2066,5.3476917,4.416l2.0083083,1.9932Z" fill="gray"/>
      <path d="M33.27,73.4624c-.0459081-.0664-1.5151081-2.127-.7851081-6.1763.7485-4.1631,5.8187999-8.6577,10.2152997-8.2104.5132.0517.4336.8164-.0786.7617-3.9252999-.396-8.6860998,3.7441-9.3744998,7.5835-.2690919,1.4868-.3433,4.1929.6508,5.5913.3057.4136-.3247.8643-.6278919.4502Z" fill="url(#New_Gradient_212-6)"/>
      <path d="M45.4477916,62.7632s-.0386-.0806-.126-.1997c-.7105-.9727-2.0370999-1.2949-3.1840999-1.2949-2.6903999,0-6.1649998,2.3349-7.4301998,6.3613-.1557.4897-.893.2578-.7392-.2305,1.3496-4.2944,5.0878999-6.8989,8.1693998-6.8989,1.3369,0,3.4086999.5454,4.0175999,1.9502.2109.4643-.4956.7803-.7075.3125Z" fill="url(#New_Gradient_213-6)"/>
      <path d="M35.9213918,73.3174s.0762.0932.2261.2246c1.038.895,2.4466999,1.1108,3.7796999.8442.5064-.103.6578083.6504.1534.7534-1.5479.3077-3.6992999-.019-4.7602999-1.3369-.3257-.394.2744-.8808.6011-.4853Z" fill="url(#New_Gradient_214-6)"/>
      <path d="M36.4638918,75.4214s.0698.0478.2177.1094c1.2837.5444,3.0810999.2617,4.3320999-.0992.4966-.1425.7119.5957.2197.7398-1.2407.3559-3.9516999.7817-5.2123917-.1211-.4238082-.2905.0180918-.9209.4428918-.6289Z" fill="url(#New_Gradient_215-6)"/>
    </g>
  </g>
  <polygon points="58.8222912 40.3496 51.2968914 32.7461 32.6190919 37.3628 40.2836917 44.9668 58.8222912 40.3496" fill="url(#New_Gradient_216)" fill-rule="evenodd" stroke="#5387ba" stroke-linecap="round" stroke-linejoin="round"/>
</svg>