<?xml version="1.0" encoding="UTF-8"?>
<svg xmlns="http://www.w3.org/2000/svg" width="96" height="96" xmlns:xlink="http://www.w3.org/1999/xlink" viewBox="0 0 96 96">
  <defs>
    <radialGradient id="b" cx="-50.4489041" cy="119.6442957" fx="-50.4489041" fy="119.6442957" r="40.5343476" gradientTransform="translate(92.6109 -107.6282) scale(1.1892)" gradientUnits="userSpaceOnUse">
      <stop offset="0" stop-color="#fff"/>
      <stop offset=".207865" stop-color="#b7e9ff"/>
      <stop offset=".47191" stop-color="#3c97f6"/>
      <stop offset=".668539" stop-color="#032c87"/>
      <stop offset="1" stop-color="#0342d3"/>
    </radialGradient>
    <mask id="c" data-name="mask" x="12.877" y="17.0713" width="63.8837" height="74.9161512" maskUnits="userSpaceOnUse">
      <path d="M12.877,49.0122c0-17.6406,14.3017-31.9409,31.9443-31.9409,17.6387,0,31.9394,14.3003,31.9394,31.9409,0,17.6411-14.3007,31.9424-31.9394,31.9424-17.6426,0-31.9443-14.3003-31.9443-31.9424Z" fill="#fff" fill-rule="evenodd"/>
    </mask>
    <radialGradient id="d" cx="33.3070073" cy="35.4760787" fx="33.3070073" fy="35.4760787" r="45.4783776" gradientUnits="userSpaceOnUse">
      <stop offset="0" stop-color="#dfeaeb"/>
      <stop offset=".303371" stop-color="#b7e9ff"/>
      <stop offset=".52809" stop-color="#3c97f6"/>
      <stop offset=".825843" stop-color="#032c87"/>
      <stop offset="1" stop-color="#0342d3"/>
    </radialGradient>
    <mask id="e" data-name="mask-1" x="42.7245212" y="43.2140293" width="33.8894288" height="37.1896352" maskUnits="userSpaceOnUse">
      <path d="M74.4141,46.1064c0,18.5303-11.2178,31.5259-29.6036,32.8106-1.9511.1396-2.2265-1.5444-.3222-1.9966,15.6435-3.6977,26.2373-21.0244,27.958-30.9932.1787-2.3017,1.9678-1.7788,1.9678.1792Z" fill="#fff"/>
    </mask>
    <linearGradient id="f" x1="41.912847" y1="24.0237982" x2="38.3149418" y2="92.6759196" gradientUnits="userSpaceOnUse">
      <stop offset="0" stop-color="#65bd7b"/>
      <stop offset=".0074065" stop-color="#60bb74"/>
      <stop offset=".0565792" stop-color="#45af4f"/>
      <stop offset=".1023037" stop-color="#32a734"/>
      <stop offset=".1428936" stop-color="#27a224"/>
      <stop offset=".174157" stop-color="#23a11f"/>
      <stop offset=".2984012" stop-color="#1c871d"/>
      <stop offset=".4981417" stop-color="#14651b"/>
      <stop offset=".6872815" stop-color="#0e4c19"/>
      <stop offset=".8596362" stop-color="#0b3d18"/>
      <stop offset="1" stop-color="#0a3818"/>
    </linearGradient>
    <mask id="g" data-name="mask-2" x="17.0797379" y="24.6657057" width="59.5342121" height="66.1481961" maskUnits="userSpaceOnUse">
      <path d="M19.0586,27.5801c.1963.5058-.6318.8384-.0723.9165,1.2305.1714,1.9258-.7461,3.1543-.5718.416.0566.6123.1431,1.0147.231-.1143.8213.166,1.3671.0508,2.1855-.1758,1.2319-1.1885,1.6548-1.3633,2.8872-.1026.7612.3076,1.2368.1982,1.9966-.0469.3501-.2549.5312-.3535.8452l.1445-1.0522c-.2363-.0347-.332-.167-.5683-.1993-1.2032-.1689-.9463,1.6255-1.5645,2.6436-1.1943,1.9238-2.2109,2.9741-2.5254,5.2012-.4599,3.2754.9405,5.2075.4805,8.4839-.168,1.2319.502,1.9209,1.2607,2.9238.1768.0254.3575.0195.4854-.0508-.2119-2.7456-.665-4.1816-.584-6.8896.7031.935.3115,1.8359.791,2.8579.9717,2.0185,1.6162,3.1548,2.2354,5.33.2226.7774-.2627,1.4834.1748,2.1739.9326,1.4443,1.3681,2.5805,2.8525,3.5063.8233.5054,1.7295.0049,2.4102.6939,1.04,1.0776,1.2246,2.5591,2.7138,2.7734.7598.1079,1.2354-.3042,1.9961-.1992.9092.1323.3409,1.4199.6973,2.2558.3154.7237,1.251.4717,1.8955.9766.7803.6177.8975,1.6792,1.8945,1.8198.584.0816.8038-.6054,1.3868-.521.9365.1314.6328,1.4605.4961,2.399-.251,1.8105-2.4366,2.0429-2.6875,3.8554-.0489.3247.2871.4912.2431.8106-.0635.4682-.6728.563-.7431,1.0332-.1817,1.2895.8144,1.8755,1.5009,2.9546.6075.9546.5313,1.8974,1.4219,2.5893,1.2373.9829,3.3106,1.0928,3.0889,2.647-.3633,2.6016-2.6953,3.0825-4.0918,5.3335.248.1553.3828.2939.6709.3359,3.1357.4361,4.6601-1.7368,7.6689-2.7456,2.0401-.6699,3.4297-.3838,5.335-1.4028.999-.5142,1.1094-1.5151,2.081-2.0913,2.0254-1.208,3.4961-1.5137,5.1104-3.2271,1.0224-1.08.8642-2.2934,1.5849-3.5971,1.0352-1.8531,2.2881-2.4844,3.1329-4.4571-.251-.1523-.3614-.4062-.6836-.4536l-2.1651-.3012c-1.3457-.191-2.3457-1.3741-2.1572-2.7207-1.4854-.2398-2.3408-.3023-3.8379-.5108-1.9053-.2661-2.2969-2.3506-4.1973-2.6206-.8212-.1138-1.1836.7886-2.0058.6738-1.0899-.1508-1.6055-.7031-2.6904-.8559-.6709-.0923-.9932.518-1.294,1.1313l-.4824.0508c-.1192-.4321-.0078-.7734.0547-1.2441.0263-.1739-.2735-.189-.3076-.3418-1.3663.3745-1.8194,1.8925-3.2237,1.6982-.3525-.0498-.4765-.4287-.833-.4761-.6367-.0879-1,.3384-1.6455.2461-1.2002-.1704-2.3642-1.0185-2.1973-2.2202.0625-.4389.5557-.5488.6133-.9873.1602-1.0845-.7031-1.771-1.7041-2.2724l-.7334.1342-1.0595-.1484c.0322-.2026-.0694-.3384-.0411-.541.1045-.7603,1.1289-.7974,1.2325-1.5625.0996-.668.0087-1.0991.248-1.7515l-1.9326-.2729c-.8193.5102-1.2207,1.5024-2.2197,1.3613-1.7559-.2476-2.8262-2.0117-2.5752-3.7671.289-2.0801,1.3603-4.4033,3.4424-4.1133.7001.0996,1.0087.4971,1.7041.5982.5039.0693.6562-.6245,1.1542-.5533,1.3165.1831,2.8741.7915,2.6954,2.1075-.17,1.2021.6943,2.0405,1.7812,2.5776.1035-.2803.1582-.4531.2295-.7412l-.3076-3.8037c1.0312-1.7969,3.5625-1.5318,3.8447-3.5513l.1914-1.3462c.2178-1.5498,1.9649-2.2632,3.5108-2.043-.1016-.581-.4688-.9033-.3877-1.4873.0869-.646.8144-.7241,1.4394-.8725-.0117.2637-.0039.4448.0166.7182,1.4033-.25,2.9356-.4843,3.1289-1.8901.0274-.1728-.2715-.1875-.3125-.3433-.4599.1148-.7763.2491-1.2793.1788-.666-.0933-.4482-1.0494-.292-1.7154-.414-.0561-.6504-.0595-1.0703-.0278.3037-.4678.7305-.5537,1.2862-.6558l.6679.3301c.3799-.1518.6397-.2939,1.0205-.4526.128.5566-.0351,1.3105.5489,1.3945l2.5517.3569c.1768-.6328-.6992-.7553-1.1406-1.2353-.3916-.4111.0801-1.0049-.2715-1.4722-.6035-.8013-1.4892-.6562-2.3457-1.1636-1.457-.8911-1.4453-2.8603-3.1523-3.0991-.3203-.0454-.4414.4131-.7657.3687-1.1386-.1626-1.3125-1.4986-2.4511-1.6573-.3565-.0502-.5762.0684-.9102.1104.0361.6006.4688.9004.3809,1.4873-.1377.9956-1.5616.9443-1.7022,1.939-.083.6172.2256.958.253,1.5898-.917-.039-.6485-1.3164-1.2715-1.9722-1.0703-1.1054-3.4746-.7871-3.2539-2.3393.3037-2.1948,4.0322-1.4927,4.3408-3.688.0234-.1738-.1758-.2646-.1807-.4121.2774-.0523.4404-.1782.7334-.1343.9365.1299,1.3838.7593,1.8076,1.5938-.5605.1577-.9101.1113-1.4756.2734,1.2129.7378,2.3702.5679,3.2237,1.7051l1.1553-.5542c-.2374-.4243-.4415-.6885-.8135-1.0112.247-.0542.457-.0831.7178-.0167-.5704-1.0351-1.6426-1.0371-2.6221-1.7119-.9815-.6767-1.4492-1.3989-2.6504-1.5644l.081-.5581c.0997-.7324.587-.9947,1.0557-1.5552-.3076-.1597-.4922-.3096-.8486-.3584-.7549-.1079-1.7227-.0601-1.8272.7002-.0654.4678.3877.6211.5752,1.0342-.333.2505-.5713.4311-.8232.7231.2676.2437.5224.522.4668.9019-.0313.2622-.3047.2827-.5322.4023-.4542-.812-1.0069-1.3379-.8721-2.2749-.4238.0322-.9649.0459-1.0196.4546-.0693.4971.3165.73.5528,1.1543-.4102.1802-.6768.3823-1.1465.3164l-1.0234-.146c.123-.2778.4043-.3569.4511-.6792l.1641-1.2007c-.6787-.0337-1.0352-.2094-1.7158-.3042-.5528-.081-1.2373.0948-1.3125.6514-.0879.6196.5088.8198.8877,1.3184-.2842.1113-.4385.3296-.753.2817-.6162-.0859-.4033-.9785-.8867-1.3486-.6455-.5059-1.2939-.148-2.125-.1778.0459-.77-.122-1.6889-.8838-1.7944-2.1357-.3008-3.3642.5991-5.3925,1.3916-1.5127.5923-2.8282.4067-4.0225,1.4634ZM33.3672,39.6211c1.0635-.3872,1.7119-.9517,2.8574-.794.7275.1036.6582,1.0206,1.2285,1.4595.7764.6143,1.5635.5474,2.208,1.2661-.5234.522-.8711.8907-1.5869,1.0879.0938-.644-.2285-1.3432-.8769-1.4355-1.0489-.1465-.5498,1.8325-1.5127,2.2949-.1485-.8267-.2842-1.3545-.1729-2.1753.0615-.439.3926-.6587.7324-.9111-.3642-.229-.5527-.5562-.997-.6177-.583-.0806-1.292-.1484-1.8799-.1748ZM41.2295,42.3091l.668.3315c-.9873,1.0845-2.1289,1.5518-3.5928,1.3477l-.6475-.0923c.916-1.1821,2.0293-1.4756,3.5723-1.5869ZM42.3271,61.6582c-.3232-.0483-.0771-.52-.0957-.8203.3077-.0474.4961-.1104.8243-.1221.0078-.27.0048-.4487-.0176-.7202.206.0298.3105-.0781.5137-.0493,1.2002.1714,1.749.7246,2.9336,1.0112-.9375,1.3628-2.5469.9273-4.1583.7007ZM36.5518,58.5752c-.6094-.1143-1.1123-.3648-1.2637-.9849.7881-.1259,1.2168-.1855,2.0117-.0761,1.0762.1562,1.6494.5659,2.5938,1.0854.7177.3955,1.8378.4981,1.7236,1.314-.0664.5005-.6758.5644-1.1768.4956l-1.0224-.145c.1269-.2544.2705-.4424.4521-.6514-.875-.7817-1.4531-1.3399-2.6289-1.5064-.2012-.0263-.5049.4351-.6894.4688ZM43.5518,26.6055c1.1123.7827,1.7041,1.6723,3.0742,1.7119.1504.8594.8955,1.0552,1.4648,1.6719,1.0362,1.1328,1.6426,2.1411,3.1651,2.3549.2636.0376.4209-.0288.6884-.0195-.4004-.9849-1.3574-1.4194-1.206-2.4712.0928-.645.7168-.8535.8056-1.499.1602-1.083-1.4648-1.0103-2.4062-1.5337-1.335-.7222-2.0195-1.5947-3.5381-1.8101-1.3779-.1909-2.7461-.0283-3.3955,1.1939.3721.1421.9355.3706,1.3477.4009Z" fill="#fff" fill-rule="evenodd"/>
    </mask>
    <radialGradient id="h" cx="27.2114051" cy="32.4182743" fx="27.2114051" fy="32.4182743" r="58.4027807" gradientUnits="userSpaceOnUse">
      <stop offset="0" stop-color="#d3edd5"/>
      <stop offset=".0881577" stop-color="#ceebd0"/>
      <stop offset=".1888042" stop-color="#c1e5c2"/>
      <stop offset=".2955934" stop-color="#aadbab"/>
      <stop offset=".4067144" stop-color="#8bce8b"/>
      <stop offset=".5211732" stop-color="#64bd62"/>
      <stop offset=".6367876" stop-color="#34a830"/>
      <stop offset=".674157" stop-color="#23a11f"/>
      <stop offset=".6869737" stop-color="#209b1c"/>
      <stop offset=".7628023" stop-color="#128010"/>
      <stop offset=".8398735" stop-color="#086d07"/>
      <stop offset=".9182832" stop-color="#016101"/>
      <stop offset="1" stop-color="#005e00"/>
    </radialGradient>
    <mask id="i" data-name="mask-3" x="42.7245212" y="43.2140293" width="33.8894288" height="37.1896352" maskUnits="userSpaceOnUse">
      <path d="M74.4141,46.1064c0,18.5303-11.2178,31.5259-29.6036,32.8106-1.9511.1396-2.2265-1.5444-.3222-1.9966,15.6435-3.6977,26.2373-21.0244,27.958-30.9932.1787-2.3017,1.9678-1.7788,1.9678.1792Z" fill="#fff"/>
    </mask>
  </defs>
  <g isolation="isolate">
    <g id="a" data-name="Layer 7">
      <g>
        <path d="M12.877,49.0122c0-17.6406,14.3017-31.9409,31.9443-31.9409,17.6387,0,31.9394,14.3003,31.9394,31.9409,0,17.6411-14.3007,31.9424-31.9394,31.9424-17.6426,0-31.9443-14.3003-31.9443-31.9424Z" fill="url(#b)" fill-rule="evenodd" stroke="#000" stroke-miterlimit="3.8637" stroke-width="4"/>
        <g mask="url(#c)">
          <g>
            <path d="M12.877,49.0122c0-17.6406,14.3017-31.9409,31.9443-31.9409,17.6387,0,31.9394,14.3003,31.9394,31.9409,0,17.6411-14.3007,31.9424-31.9394,31.9424-17.6426,0-31.9443-14.3003-31.9443-31.9424Z" fill="url(#d)" fill-rule="evenodd"/>
            <g mask="url(#e)">
              <g>
                <path d="M74.4141,46.1064c0,18.5303-11.2178,31.5259-29.6036,32.8106-1.9511.1396-2.2265-1.5444-.3222-1.9966,15.6435-3.6977,26.2373-21.0244,27.958-30.9932.1787-2.3017,1.9678-1.7788,1.9678.1792Z" fill="#3c97f6"/>
                <path d="M75.2793,46.2456c0,18.5342-11.2139,31.5308-29.6025,32.8154-1.9532.1382-2.2295-1.5507-.3233-1.9975,15.6455-3.6988,26.2315-21.0254,27.9619-30.9942.1758-2.3037,1.9639-1.7817,1.9639.1763Z" fill="none" stroke="#2b76b4" stroke-miterlimit="3.8637" stroke-width="2.6693"/>
                <path d="M74.8428,46.1748c0,18.5337-11.2129,31.5293-29.5996,32.8154-1.9522.1363-2.2325-1.5464-.3233-1.9985,15.6475-3.6958,26.2364-21.022,27.9551-30.9912.1836-2.3047,1.9678-1.7808,1.9678.1743Z" fill="none" stroke="#1459a5" stroke-miterlimit="3.8637" stroke-width="1.3347"/>
                <path d="M74.4141,46.1064c0,18.5303-11.2178,31.5259-29.6036,32.8106-1.9511.1396-2.2265-1.5444-.3222-1.9966,15.6435-3.6977,26.2373-21.0244,27.958-30.9932.1787-2.3017,1.9678-1.7788,1.9678.1792Z" fill="none" stroke="#1d3f99" stroke-miterlimit="3.8637"/>
              </g>
            </g>
            <path d="M33.3184,26.9175l.2597.2602c.4785.4366,1.0332,1.2808.0606,1.6534l-.2608.1533c-1.3398.7348-1.7519-.378-2.1367-1.2989-.5723-.4497-2.5361.5547-2.4414-.8916.0117-.1962.0166-.7832-.168-.9443-2.3369-.3306-4.0644,1.188-6.2422,1.6924-.7753.1816-1.621.2759-2.2949.7383-.0459.2602-.1777.4887-.331.7041-.9278-.1323-.8047-.4297-.4356-.9483,1.2373.1719,1.2725-.9643,4.2266-.3296,1.0459.2222.7002,3.4156.3262,4.127-.9981,1.8892-1.1036.9453-.8194,3.0845.086.665-.0312,1.0576-.3437,1.6269-.3408.9956-1.3946.878-1.5694.1289l-.1162.4492c-.0869.3296-.208.7276-.4287,1.0801-2.251,3.6182-3.0156,4.252-2.1767,8.8843.2812,1.5503.4716,2.9189.2451,4.498-.0928.6641.1992,1.1285.5732,1.6309l.5352.7041-.4795-.2861c-.2539.0361-.4453.9751-.461.7729-.207-2.7832-.6689-4.2358-.5839-6.9756.0468-1.4951,1.8007-1.0932,2.0605,1.3389.04.4082.0635.8228.2412,1.2017.8682,1.8012,1.7363,3.52,2.2832,5.4555.1328.48-.0527,1.7525.0733,1.961.8027,1.2378,1.3007,2.4487,2.6054,3.2597.5957.3614,1.6153-.1479,2.5606.816.9717.999,1.2763,2.8735,2.9541,2.4589,3.2929-.812,2.1484,1.523,2.6201,2.6021.9248.5679,1.3603.0742,2.291,1.3618.1992.2769.5156.9209.875.9712.5361-.249.5918-.6313,1.3897-.5225,1.3398.1866,1.4082,1.5269,1.2822,2.5293l-.1113.7657c-.292,2.103-2.3916,2.4682-2.6719,3.7504.4961.8687.1738,1.4327-.5283,2.0171-.0674.7818.9824,1.709,1.3886,2.3511.4395.6782.6563,1.9307,1.2471,2.3926,1.2412.9824,3.7061,1.1323,3.3877,3.3804-.3564,2.5214-2.1143,3.1987-3.5654,4.8003,2.4052.0673,4.5371-1.9893,6.7773-2.7413,1.7266-.5683,3.5869-.4809,5.2139-1.3466.6924-.3589,1.0605-1.4908,2.0459-2.0767,2.0215-1.208,4.918-1.9736,5.6562-4.4849.2119-.6967.3916-1.395.751-2.0434.7793-1.3858,2.0371-2.3985,2.8008-3.7715-1.9932-.2783-4.4775-.4644-4.7774-3.0972-2.705-.3891-3.8027.0078-5.708-1.9428-.2666-.2745-1.2246-1.2837-1.7724-1.0562-.4072.2417-.2627.147-.583.353-1.4942.8931-2.5772-.3603-3.9795-.5581-.7364.545-.1201,1.0308-1.5879,1.1856-.8272.0874-.9688-.9033-.9102-1.4776l.041-.2954c-.1142-.1216-.1923-.2583-.2343-.4116.3242.189.6543.3814.9824.5713-1.3701.3765-2.5332,2.9311-4.377,1.291-.5595-.0625-.9033.3037-1.6455.1997-2.0078-.2842-3.997-2.4209-2.3369-4.0596.1719-.5742-.1347-.9326-.9648-1.375l-.4717.086-.2529.0093-1.0557-.1514-.6748-.896c-.1504-.7114.1064-1.2397.6631-1.6831.293-.2183.1611-.1187.416-.3042.1357-.397.1562-.6924.1758-.9468l-.7569-.2578-.2099.1899c-.6748.6529-1.25,1.2784-2.3233,1.126-5.8232-.8178-3.042-11.6714,2.1846-9.0727.1963.0991.333.1626.4815.1992,1.5293-1.4566,4.9316.4097,4.6425,2.4731-.0517.3853.0713.7476.3828,1.0796-.2392-2.9751-.9521-3.7988,1.7637-5.2383l.6153-.3159c1.4121-.7275,1.1972-1.0991,1.4121-2.6094.2373-1.7109,1.7177-2.5502,3.1767-2.7275-.3369-1.2222.3838-1.9492,1.5049-2.228l.4727-.1109c.4795-.1162.8593.1148.9609.5425.5703-.1299,1.2451-.2949,1.4922-.727-.0986-.1114-.1592-.2359-.1914-.3682.3193.1953.6367.3872.956.5811-1.3037.3237-2.8935.4775-2.706-1.5484-1.6153.1079-1.1084-1.7212.5801-2.1338l.4335-.0874c.2676-.0483.6192.1314.8331.2359,1.4589-.6607,1.665-.4663,1.8691,1.0581l.248.0337c-.1845-.42-.0488-.7661-.0859-1.1885-.2744-.3608-1.5986-.6255-2.0957-.9238-1.1328-.6968-1.8975-2.7178-2.6572-2.9478-.793.6885-1.7666.1939-2.4014-.4639-.3281-.3662-.1992-.2207-.501-.5522-.4707-.4966-.623-.2827-1.2109-.209l.6894-.8296c.0508.9321,1.1612,1.8345-.5224,2.9795l-.3233.2022-.2529.1572c-.3037.209-.2764.331-.168.7007l.1172.4043c.4737,1.9433-1.6826,1.8134-2.2119.0957-.4355-1.416-.7041-1.1895-2.1455-1.7032-2.7432-.9804-1.8389-3.4565.2334-4.3637.6475-.2852,2.1533-.6538,2.4014-1.3286-.793-1.3921,2.292-2.5767,3.8945.6108.1231.2305.127.4653.0479.6606.1591.0655.3222.1329.4716.2173-.04-.1479-.0273-.2973.0293-.4282l-.6533-.2822c-1.1084-.4937-2.082-1.7588-3.1748-1.9121-1.1299-.1582-.5791-1.9419-.1748-2.499-.1514,0-.2851.0112-.3867.039.4541.5425.6787,1.2031.1758,1.5772l-.2051.1621c.8476,1.5849-1.3086,2.5737-1.8457,1.6181-.5332-.956-1.1397-1.5561-.9639-2.771l.8399.9014c.9131,1.3399-.708,2.0669-1.7803,1.919-.874-.1246-2.5488-.2994-1.3897-1.6309l.1612-.1743.04-.3389c-.3603-.0771-.9248-.2612-1.2851-.1738ZM18.5674,28.1167l.1992-.8047c1.3779-1.2231,2.7393-1.0141,4.2598-1.6084,1.831-.7173,6.7656-3.2334,7.3174.2935l.3291-.0362c.4521-.0283.9941.0157,1.5214.4351.3555.2651.5196.6577.6358,1.0644.0771-.039.1601-.0786.2392-.1108l-.3476,1.2149c-.6084-.8042-1.7168-1.523-.6865-2.6709.9638-1.0787,2.3486-.3243,3.5078-.2642,1.1982.064.7724,2.2685.164,2.8989-.1074.1074-1.3086-1.0908-.7158-1.0083,1.2568.1763.8535.2744,1.7451-.1142l-.3769,1.1162c-.4629-.8155-1.4151-2.1607.2802-2.6709.1436-.0425.2969-.0703.4581-.0865l.3632-.0302c1.0811-.0742.6768,1.0239.9776,1.6133.1738.3418.4199.6679.6426,1.0629l-.7959-.2402c-.6163-.6118-.8916-.8013-.1094-1.5288-1.293-1.7993,1.3691-3.1157,3.5693-1.9448,1.2852.6802-.4053,1.6201-.6035,2.2168,1.0811.4057,1.7695,1.3706,2.8193,1.8427.75.3379,3.0694,1.4957,2.2832,2.5728.6612,1.1675-1.8095,2.3257-2.4248,1.5151-.6064-.8105-2.1132-.9668-3.0009-1.5058-1.0713-.6548-.2286-1.375.5136-1.5156-.0791-.0582-.1631-.106-.2451-.1456-.5801,2.523-4.75,2.1846-4.2627,3.6509.4531.4424,2.0615.5108,3.0059,1.4932.4121.4297.5429.98.7129,1.5268.0605.191.0224.1929.0263.2007-.6074-.3008-.6338,1.5122-.872.5513l-.0948-.3374c-.2959-1.0147-.0888-1.855.7969-2.4561l.3262-.207.25-.1543c.5029-.3408-.1367-1.0102-.1709-1.5766-.0742-1.337,2.3545-1.0865,3.25-.1529.3662.4024.1689.188.5019.5542.0987.1001.2041.2007.333.2603,1.584-1.3682,3.0049,1.2412,3.7637,2.2719.1856.2652.3848.4678.6328.6197,1.3604.8081,3.0547.4507,2.833,2.8198.6524.562,1.6182.7417,1.2745,1.9463-.3204,1.1426-4.1241.7109-4.504-.8062-.4121.1695-.7988-.0293-1.1591-.2075-.25.0601-.4121.1099-.5078.2593l-.7256-1.2261c1.3974-.0981,2.0693-.0649,1.7988,1.4927l-.043.27c.3604-.0605.541-.1206.7617-.1743l.9639.583c-.124-.0708-.1611-.2109-.1992-.3345,1.5928.9278-.334,2.9019-2.1621,3.3228-.5361.1225-1.4756.4575-1.8799-.1016l.2041.4883c1.0693,2.7212-3.0088.3882-3.3506,2.8374-.2832,2.0147-.2637,2.7769-2.2519,3.8018l-.6035.3066c-.4249.2261-.8536.4858-1.1465.8843l.2734,3.5376-.0166.248c-.7939,3.252-3.8486-.1479-3.5654-2.1323.1113-.7827-1.3731-1.1099-1.8897-1.1968-1.2656,1.2134-1.8769.0962-2.9863-.061-2.4326-.3394-3.9482,5.8433-.6445,6.3057.6289.0976,1.3291-1.481,2.2177-1.3565,2.8184.3975,2.5821-.0859,2.4375,1.9844-.0683.9131-.0127,1.4775-.7802,2.0776-.2608.1939-.1475.1094-.2608.1939,2.2754-.4068,4.4239,2.2929,2.6592,4.04-.126.898,1.1953,1.5025,1.9795,1.2349.7734-.2613,1.3799-.2945,2.0186.2739.6523.0981,1.9609-1.3716,2.9013-1.6313l.9824.5761c-.123-.0718-.1679-.2114-.1953-.3354.1875.1113.3272.2436.4209.4057,1.3711-.9243,3.3252.8365,3.9619.5723.418-.2534.2422-.1421.5762-.3564,2.5567-1.522,3.6699,2.0654,5.4981,2.3232,1.5.2104,2.3564.2739,3.8545.5161,1.2636.2007-.0206,2.4131,2.1416,2.7119.6113.0865,2.2519.062,2.9541.687l.2021.1851s.4443.6782.3057.9863c-.7569,1.7793-2.251,2.8872-3.167,4.5308-.7158,1.2949-.5196,2.4995-1.6973,3.7515-1.6855,1.7949-3.2861,2.1733-5.2812,3.3691-.7901.4643-.9444,1.5034-2.1221,2.1113-1.8223.9712-3.5801.8364-5.4492,1.4512-2.7705.9282-6.0117,4.2021-9.0098,2.3325-1.3955-.8711,1.7041-3.2456,2.3184-3.7988,3.3457-3.0254.3447-2.8526-1.3858-4.2324-1.1123-.8628-.9726-1.7974-1.6006-2.7837-.832-1.3067-2.7851-3.0039-.9697-4.5122-1.1435-2.1011,2.3301-3.1875,2.5371-4.6841l.1104-.7363c.0234-.2144.0498-.4258.0381-.6124-2.2647,1.605-2.8555-1.4111-3.9102-1.7504-.7871-.2505-1.4688-.2769-1.8516-1.1563-.2353-.5332-.1865-1.1025-.2089-1.6709l-.1846-.1011c-2.4326.3208-2.7363.3868-4.3047-2.08-1.0137-1.5987-1.4619-.479-2.8096-1.3057-1.6172-1.0059-2.126-2.2383-3.1025-3.7515-.6602-1.0288-.0713-1.6967-.2705-2.3852-.2705-.9448-.5967-1.8379-.9981-2.7349.125,1.1318.2754,2.2749-1.2793,2.0562-.08-.0113-.4726-.2432-.5195-.3072l-.543-.7114c-1.4746-1.98-.6386-2.709-.8222-4.8696-.3008-3.5298-1.4893-5.9048.499-9.4087.4404-.79,1.001-1.5391,1.6064-2.5127.6446-1.0654.5586-3.9907,2.9209-2.8164.9873.1406.6055,1.3979.5264,1.9492l-1.5361-.3594c.0341-.1206.0879-.2285.1396-.33.6602-1.2012-.9101-1.7798.8086-4.167.8213-1.1416.5137-1.3204.4541-2.5562l-.3057-.0566c-.623-.0913-5.9453,2.0449-3.79-.9712l.0928.0532ZM37.4697,42.4395l-.0576.1933-.1045.4287c-.3994,1.5088-1.9287,2.2036-2.1689.9087-.2364-1.291-.5869-2.7217.5927-3.664l.2647-.2037.0478,1.3023c-.1894-.1206-.3593-.272-.5322-.4219-.249-.1929-1.626-.2305-1.9492-.2466-1.0439-.0385-1.2168-1.1806-.2354-1.5361,1.4317-.5181,3.5245-1.8218,4.5186.208.3789.7764.4512.7246,1.2861,1.0601.6133.2461,2.1787,1.1064,1.3194,1.9648l-.378.3818c-.455.4302-.9394.7447-1.5556.9141-1.2178.3408-.8682-.9795-1.0479-1.2895ZM38.6123,41.9688c-.5146-.2081-.9756-.3848-1.416-.7364-.6035-.4682-.6553-1.0957-.8516-1.2944-.8857-.1235-1.6806.4643-2.4775.7539l-.2393-1.5396c.8867.0352,2.1485.0152,2.8731.5938.4883.4097,1.3027.9766.4433,1.6265l-.2197.1694c-.6484.6675.5996,1.8852-1.1211,1.5434.0879-.1074.1397-.3022.1729-.4335l.0957-.3873c.1992-.8598.6152-1.6689,1.6738-1.517,1.1279.1552,1.6914,1.2915,1.5488,2.3291l-.999-.8775c.2178-.0566.374-.1318.5166-.2304ZM42.4814,42.2554c1.5772.7842-1.1835,3.2466-4.0566,2.8413-.6592-.0923-1.9658-.3106-1.1631-1.3584,1.1221-1.4531,2.5205-1.7788,4.1416-1.8975.3184-.0224.9033.3262,1.0781.4146ZM41.7793,43.6753l-.4766-.2339c-1.3252.1162-2.1162.3926-2.7851,1.2622l-.5156-1.27c1.5078.2124,2.4189.2222,3.5419-1.0039l.2354,1.2456ZM42.4912,60.5581l.8916-1.021c1.1084-.2759,2.4063.7066,3.5225.9746,1.5019.3638.1601,2.4116-1.9766,2.5078-.8359.0381-1.6572-.1362-2.4785-.2529-.6641-.0918-.916-.5254-.8408-1.1929l.0527-.3012c.3643-.3418.6279-.5645.8291-.7144ZM44.8799,61.4351c-.2744-.1246-.5195-.2247-.8037-.2969-.0518.3525-.3994.6782-.753.6938-.2929.0103-.4638.0738-.7363.1133l.669-.8306c.0156.2183-.0323.4317-.0723.646-.3457-.0478-.5576-.2182-.5166-.5659.7334.104,1.4795.273,2.2129.2403ZM37.6201,59.2612c-.3584.3116-.5469.3921-.6953.4204l-.292-.0019c-2.2607-.4292-3.2148-3.2173,1.0049-2.624,1.1982.1689,1.8545.6113,2.873,1.1723.8926.4986,2.3331.6436,2.1241,2.1226-.2207,1.5762-2.0762,1.1675-3.0899,1.0264-.6133-.0909-.875-.5904-.6074-1.1407l.1025-.1826c-.4384-.3647-.8496-.6621-1.4199-.7925ZM36.6084,58.0381c.8154-.7505,1.8965-.2852,2.7246.2505.4717.3008,1.5654,1.0625,1.5449,1.6748-.0088.4189-.3388.624-.5195.979l-.5938-1.1387.5889.0816c-1.0195-.3921-1.8281-1.1021-2.9316-1.2549-.6739-.0987-1.001-.0552-1.7754.0683l.6445-.9716c.0244.1181.085.2236.3174.311ZM44,26.1914l.2412.0918c.8125.5698,1.5684,1.5366,2.6406,1.5669.6641.0234.6592.7759,1.0625,1.1118.3262.2754.6729.4995.9668.8174.6719.7344,1.7071,2.2207,2.8399,2.1016.1338-.0166.2724-.0323.4521-.0288l-.7588,1.0947c-.4785-1.1724-2.0146-1.919-1.0009-3.5938.0566-.0859.1132-.167.1718-.2466.1768-.2182.1114-.1376.2676-.3256.0928-.1431.1084-.1763.1162-.2124-.0996-.0982-1.6875-.5459-2.0136-.7242-1.5928-.8706-2.9483-2.3398-4.9854-1.6528ZM44.7686,28.7124c-.4122-.2944-.7969-.6645-1.2862-1.0205-4.5859-.7783.3291-5.0356,4.6153-2.3091.5117.3242,1.0019.7158,1.6474,1.0689,1.0625.5859,3.0801.4975,2.8233,2.3383-.0547.3599-.2178.6802-.4366.9624-.1894.2388-.0966.1202-.2627.3252-.3212.5132.8477,1.7959,1.0401,2.2686.4385,1.0684-.8574,1.2026-1.5342,1.1084-1.8086-.2534-2.5371-1.4043-3.6338-2.6069-.5029-.5401-1.1045-.733-1.4736-1.4712-.6026-.1114-1.0791-.3658-1.499-.6641Z" fill="url(#f)"/>
            <g mask="url(#g)">
              <g>
                <path d="M19.0586,27.5801c.1963.5058-.6318.8384-.0723.9165,1.2305.1714,1.9258-.7461,3.1543-.5718.416.0566.6123.1431,1.0147.231-.1143.8213.166,1.3671.0508,2.1855-.1758,1.2319-1.1885,1.6548-1.3633,2.8872-.1026.7612.3076,1.2368.1982,1.9966-.0469.3501-.2549.5312-.3535.8452l.1445-1.0522c-.2363-.0347-.332-.167-.5683-.1993-1.2032-.1689-.9463,1.6255-1.5645,2.6436-1.1943,1.9238-2.2109,2.9741-2.5254,5.2012-.4599,3.2754.9405,5.2075.4805,8.4839-.168,1.2319.502,1.9209,1.2607,2.9238.1768.0254.3575.0195.4854-.0508-.2119-2.7456-.665-4.1816-.584-6.8896.7031.935.3115,1.8359.791,2.8579.9717,2.0185,1.6162,3.1548,2.2354,5.33.2226.7774-.2627,1.4834.1748,2.1739.9326,1.4443,1.3681,2.5805,2.8525,3.5063.8233.5054,1.7295.0049,2.4102.6939,1.04,1.0776,1.2246,2.5591,2.7138,2.7734.7598.1079,1.2354-.3042,1.9961-.1992.9092.1323.3409,1.4199.6973,2.2558.3154.7237,1.251.4717,1.8955.9766.7803.6177.8975,1.6792,1.8945,1.8198.584.0816.8038-.6054,1.3868-.521.9365.1314.6328,1.4605.4961,2.399-.251,1.8105-2.4366,2.0429-2.6875,3.8554-.0489.3247.2871.4912.2431.8106-.0635.4682-.6728.563-.7431,1.0332-.1817,1.2895.8144,1.8755,1.5009,2.9546.6075.9546.5313,1.8974,1.4219,2.5893,1.2373.9829,3.3106,1.0928,3.0889,2.647-.3633,2.6016-2.6953,3.0825-4.0918,5.3335.248.1553.3828.2939.6709.3359,3.1357.4361,4.6601-1.7368,7.6689-2.7456,2.0401-.6699,3.4297-.3838,5.335-1.4028.999-.5142,1.1094-1.5151,2.081-2.0913,2.0254-1.208,3.4961-1.5137,5.1104-3.2271,1.0224-1.08.8642-2.2934,1.5849-3.5971,1.0352-1.8531,2.2881-2.4844,3.1329-4.4571-.251-.1523-.3614-.4062-.6836-.4536l-2.1651-.3012c-1.3457-.191-2.3457-1.3741-2.1572-2.7207-1.4854-.2398-2.3408-.3023-3.8379-.5108-1.9053-.2661-2.2969-2.3506-4.1973-2.6206-.8212-.1138-1.1836.7886-2.0058.6738-1.0899-.1508-1.6055-.7031-2.6904-.8559-.6709-.0923-.9932.518-1.294,1.1313l-.4824.0508c-.1192-.4321-.0078-.7734.0547-1.2441.0263-.1739-.2735-.189-.3076-.3418-1.3663.3745-1.8194,1.8925-3.2237,1.6982-.3525-.0498-.4765-.4287-.833-.4761-.6367-.0879-1,.3384-1.6455.2461-1.2002-.1704-2.3642-1.0185-2.1973-2.2202.0625-.4389.5557-.5488.6133-.9873.1602-1.0845-.7031-1.771-1.7041-2.2724l-.7334.1342-1.0595-.1484c.0322-.2026-.0694-.3384-.0411-.541.1045-.7603,1.1289-.7974,1.2325-1.5625.0996-.668.0087-1.0991.248-1.7515l-1.9326-.2729c-.8193.5102-1.2207,1.5024-2.2197,1.3613-1.7559-.2476-2.8262-2.0117-2.5752-3.7671.289-2.0801,1.3603-4.4033,3.4424-4.1133.7001.0996,1.0087.4971,1.7041.5982.5039.0693.6562-.6245,1.1542-.5533,1.3165.1831,2.8741.7915,2.6954,2.1075-.17,1.2021.6943,2.0405,1.7812,2.5776.1035-.2803.1582-.4531.2295-.7412l-.3076-3.8037c1.0312-1.7969,3.5625-1.5318,3.8447-3.5513l.1914-1.3462c.2178-1.5498,1.9649-2.2632,3.5108-2.043-.1016-.581-.4688-.9033-.3877-1.4873.0869-.646.8144-.7241,1.4394-.8725-.0117.2637-.0039.4448.0166.7182,1.4033-.25,2.9356-.4843,3.1289-1.8901.0274-.1728-.2715-.1875-.3125-.3433-.4599.1148-.7763.2491-1.2793.1788-.666-.0933-.4482-1.0494-.292-1.7154-.414-.0561-.6504-.0595-1.0703-.0278.3037-.4678.7305-.5537,1.2862-.6558l.6679.3301c.3799-.1518.6397-.2939,1.0205-.4526.128.5566-.0351,1.3105.5489,1.3945l2.5517.3569c.1768-.6328-.6992-.7553-1.1406-1.2353-.3916-.4111.0801-1.0049-.2715-1.4722-.6035-.8013-1.4892-.6562-2.3457-1.1636-1.457-.8911-1.4453-2.8603-3.1523-3.0991-.3203-.0454-.4414.4131-.7657.3687-1.1386-.1626-1.3125-1.4986-2.4511-1.6573-.3565-.0502-.5762.0684-.9102.1104.0361.6006.4688.9004.3809,1.4873-.1377.9956-1.5616.9443-1.7022,1.939-.083.6172.2256.958.253,1.5898-.917-.039-.6485-1.3164-1.2715-1.9722-1.0703-1.1054-3.4746-.7871-3.2539-2.3393.3037-2.1948,4.0322-1.4927,4.3408-3.688.0234-.1738-.1758-.2646-.1807-.4121.2774-.0523.4404-.1782.7334-.1343.9365.1299,1.3838.7593,1.8076,1.5938-.5605.1577-.9101.1113-1.4756.2734,1.2129.7378,2.3702.5679,3.2237,1.7051l1.1553-.5542c-.2374-.4243-.4415-.6885-.8135-1.0112.247-.0542.457-.0831.7178-.0167-.5704-1.0351-1.6426-1.0371-2.6221-1.7119-.9815-.6767-1.4492-1.3989-2.6504-1.5644l.081-.5581c.0997-.7324.587-.9947,1.0557-1.5552-.3076-.1597-.4922-.3096-.8486-.3584-.7549-.1079-1.7227-.0601-1.8272.7002-.0654.4678.3877.6211.5752,1.0342-.333.2505-.5713.4311-.8232.7231.2676.2437.5224.522.4668.9019-.0313.2622-.3047.2827-.5322.4023-.4542-.812-1.0069-1.3379-.8721-2.2749-.4238.0322-.9649.0459-1.0196.4546-.0693.4971.3165.73.5528,1.1543-.4102.1802-.6768.3823-1.1465.3164l-1.0234-.146c.123-.2778.4043-.3569.4511-.6792l.1641-1.2007c-.6787-.0337-1.0352-.2094-1.7158-.3042-.5528-.081-1.2373.0948-1.3125.6514-.0879.6196.5088.8198.8877,1.3184-.2842.1113-.4385.3296-.753.2817-.6162-.0859-.4033-.9785-.8867-1.3486-.6455-.5059-1.2939-.148-2.125-.1778.0459-.77-.122-1.6889-.8838-1.7944-2.1357-.3008-3.3642.5991-5.3925,1.3916-1.5127.5923-2.8282.4067-4.0225,1.4634ZM33.3672,39.6211c1.0635-.3872,1.7119-.9517,2.8574-.794.7275.1036.6582,1.0206,1.2285,1.4595.7764.6143,1.5635.5474,2.208,1.2661-.5234.522-.8711.8907-1.5869,1.0879.0938-.644-.2285-1.3432-.8769-1.4355-1.0489-.1465-.5498,1.8325-1.5127,2.2949-.1485-.8267-.2842-1.3545-.1729-2.1753.0615-.439.3926-.6587.7324-.9111-.3642-.229-.5527-.5562-.997-.6177-.583-.0806-1.292-.1484-1.8799-.1748ZM41.2295,42.3091l.668.3315c-.9873,1.0845-2.1289,1.5518-3.5928,1.3477l-.6475-.0923c.916-1.1821,2.0293-1.4756,3.5723-1.5869ZM42.3271,61.6582c-.3232-.0483-.0771-.52-.0957-.8203.3077-.0474.4961-.1104.8243-.1221.0078-.27.0048-.4487-.0176-.7202.206.0298.3105-.0781.5137-.0493,1.2002.1714,1.749.7246,2.9336,1.0112-.9375,1.3628-2.5469.9273-4.1583.7007ZM36.5518,58.5752c-.6094-.1143-1.1123-.3648-1.2637-.9849.7881-.1259,1.2168-.1855,2.0117-.0761,1.0762.1562,1.6494.5659,2.5938,1.0854.7177.3955,1.8378.4981,1.7236,1.314-.0664.5005-.6758.5644-1.1768.4956l-1.0224-.145c.1269-.2544.2705-.4424.4521-.6514-.875-.7817-1.4531-1.3399-2.6289-1.5064-.2012-.0263-.5049.4351-.6894.4688ZM43.5518,26.6055c1.1123.7827,1.7041,1.6723,3.0742,1.7119.1504.8594.8955,1.0552,1.4648,1.6719,1.0362,1.1328,1.6426,2.1411,3.1651,2.3549.2636.0376.4209-.0288.6884-.0195-.4004-.9849-1.3574-1.4194-1.206-2.4712.0928-.645.7168-.8535.8056-1.499.1602-1.083-1.4648-1.0103-2.4062-1.5337-1.335-.7222-2.0195-1.5947-3.5381-1.8101-1.3779-.1909-2.7461-.0283-3.3955,1.1939.3721.1421.9355.3706,1.3477.4009Z" fill="url(#h)" fill-rule="evenodd"/>
                <g mask="url(#i)">
                  <g mix-blend-mode="screen" opacity=".3">
                    <path d="M74.4141,46.1064c0,18.5303-11.2178,31.5259-29.6036,32.8106-1.9511.1396-2.2265-1.5444-.3222-1.9966,15.6435-3.6977,26.2373-21.0244,27.958-30.9932.1787-2.3017,1.9678-1.7788,1.9678.1792Z" fill="#c9ffc9"/>
                    <path d="M75.2793,46.2456c0,18.5342-11.2139,31.5308-29.6025,32.8154-1.9532.1382-2.2295-1.5507-.3233-1.9975,15.6455-3.6988,26.2315-21.0254,27.9619-30.9942.1758-2.3037,1.9639-1.7817,1.9639.1763Z" fill="none" stroke="#a7dbaa" stroke-miterlimit="3.8637" stroke-width="2.6693"/>
                    <path d="M74.8428,46.1748c0,18.5337-11.2129,31.5293-29.5996,32.8154-1.9522.1363-2.2325-1.5464-.3233-1.9985,15.6475-3.6958,26.2364-21.022,27.9551-30.9912.1836-2.3047,1.9678-1.7808,1.9678.1743Z" fill="none" stroke="#85cd92" stroke-miterlimit="3.8637" stroke-width="1.3347"/>
                    <path d="M74.4141,46.1064c0,18.5303-11.2178,31.5259-29.6036,32.8106-1.9511.1396-2.2265-1.5444-.3222-1.9966,15.6435-3.6977,26.2373-21.0244,27.958-30.9932.1787-2.3017,1.9678-1.7788,1.9678.1792Z" fill="none" stroke="#65bd7b" stroke-miterlimit="3.8637"/>
                  </g>
                </g>
                <path d="M19.0586,27.5801c.1963.5058-.6318.8384-.0723.9165,1.2305.1714,1.9258-.7461,3.1543-.5718.416.0566.6123.1431,1.0147.231-.1143.8213.166,1.3671.0508,2.1855-.1758,1.2319-1.1885,1.6548-1.3633,2.8872-.1026.7612.3076,1.2368.1982,1.9966-.0469.3501-.2549.5312-.3535.8452l.1445-1.0522c-.2363-.0347-.332-.167-.5683-.1993-1.2032-.1689-.9463,1.6255-1.5645,2.6436-1.1943,1.9238-2.2109,2.9741-2.5254,5.2012-.4599,3.2754.9405,5.2075.4805,8.4839-.168,1.2319.502,1.9209,1.2607,2.9238.1768.0254.3575.0195.4854-.0508-.2119-2.7456-.665-4.1816-.584-6.8896.7031.935.3115,1.8359.791,2.8579.9717,2.0185,1.6162,3.1548,2.2354,5.33.2226.7774-.2627,1.4834.1748,2.1739.9326,1.4443,1.3681,2.5805,2.8525,3.5063.8233.5054,1.7295.0049,2.4102.6939,1.04,1.0776,1.2246,2.5591,2.7138,2.7734.7598.1079,1.2354-.3042,1.9961-.1992.9092.1323.3409,1.4199.6973,2.2558.3154.7237,1.251.4717,1.8955.9766.7803.6177.8975,1.6792,1.8945,1.8198.584.0816.8038-.6054,1.3868-.521.9365.1314.6328,1.4605.4961,2.399-.251,1.8105-2.4366,2.0429-2.6875,3.8554-.0489.3247.2871.4912.2431.8106-.0635.4682-.6728.563-.7431,1.0332-.1817,1.2895.8144,1.8755,1.5009,2.9546.6075.9546.5313,1.8974,1.4219,2.5893,1.2373.9829,3.3106,1.0928,3.0889,2.647-.3633,2.6016-2.6953,3.0825-4.0918,5.3335.248.1553.3828.2939.6709.3359,3.1357.4361,4.6601-1.7368,7.6689-2.7456,2.0401-.6699,3.4297-.3838,5.335-1.4028.999-.5142,1.1094-1.5151,2.081-2.0913,2.0254-1.208,3.4961-1.5137,5.1104-3.2271,1.0224-1.08.8642-2.2934,1.5849-3.5971,1.0352-1.8531,2.2881-2.4844,3.1329-4.4571-.251-.1523-.3614-.4062-.6836-.4536l-2.1651-.3012c-1.3457-.191-2.3457-1.3741-2.1572-2.7207-1.4854-.2398-2.3408-.3023-3.8379-.5108-1.9053-.2661-2.2969-2.3506-4.1973-2.6206-.8212-.1138-1.1836.7886-2.0058.6738-1.0899-.1508-1.6055-.7031-2.6904-.8559-.6709-.0923-.9932.518-1.294,1.1313l-.4824.0508c-.1192-.4321-.0078-.7734.0547-1.2441.0263-.1739-.2735-.189-.3076-.3418-1.3663.3745-1.8194,1.8925-3.2237,1.6982-.3525-.0498-.4765-.4287-.833-.4761-.6367-.0879-1,.3384-1.6455.2461-1.2002-.1704-2.3642-1.0185-2.1973-2.2202.0625-.4389.5557-.5488.6133-.9873.1602-1.0845-.7031-1.771-1.7041-2.2724l-.7334.1342-1.0595-.1484c.0322-.2026-.0694-.3384-.0411-.541.1045-.7603,1.1289-.7974,1.2325-1.5625.0996-.668.0087-1.0991.248-1.7515l-1.9326-.2729c-.8193.5102-1.2207,1.5024-2.2197,1.3613-1.7559-.2476-2.8262-2.0117-2.5752-3.7671.289-2.0801,1.3603-4.4033,3.4424-4.1133.7001.0996,1.0087.4971,1.7041.5982.5039.0693.6562-.6245,1.1542-.5533,1.3165.1831,2.8741.7915,2.6954,2.1075-.17,1.2021.6943,2.0405,1.7812,2.5776.1035-.2803.1582-.4531.2295-.7412l-.3076-3.8037c1.0312-1.7969,3.5625-1.5318,3.8447-3.5513l.1914-1.3462c.2178-1.5498,1.9649-2.2632,3.5108-2.043-.1016-.581-.4688-.9033-.3877-1.4873.0869-.646.8144-.7241,1.4394-.8725-.0117.2637-.0039.4448.0166.7182,1.4033-.25,2.9356-.4843,3.1289-1.8901.0274-.1728-.2715-.1875-.3125-.3433-.4599.1148-.7763.2491-1.2793.1788-.666-.0933-.4482-1.0494-.292-1.7154-.414-.0561-.6504-.0595-1.0703-.0278.3037-.4678.7305-.5537,1.2862-.6558l.6679.3301c.3799-.1518.6397-.2939,1.0205-.4526.128.5566-.0351,1.3105.5489,1.3945l2.5517.3569c.1768-.6328-.6992-.7553-1.1406-1.2353-.3916-.4111.0801-1.0049-.2715-1.4722-.6035-.8013-1.4892-.6562-2.3457-1.1636-1.457-.8911-1.4453-2.8603-3.1523-3.0991-.3203-.0454-.4414.4131-.7657.3687-1.1386-.1626-1.3125-1.4986-2.4511-1.6573-.3565-.0502-.5762.0684-.9102.1104.0361.6006.4688.9004.3809,1.4873-.1377.9956-1.5616.9443-1.7022,1.939-.083.6172.2256.958.253,1.5898-.917-.039-.6485-1.3164-1.2715-1.9722-1.0703-1.1054-3.4746-.7871-3.2539-2.3393.3037-2.1948,4.0322-1.4927,4.3408-3.688.0234-.1738-.1758-.2646-.1807-.4121.2774-.0523.4404-.1782.7334-.1343.9365.1299,1.3838.7593,1.8076,1.5938-.5605.1577-.9101.1113-1.4756.2734,1.2129.7378,2.3702.5679,3.2237,1.7051l1.1553-.5542c-.2374-.4243-.4415-.6885-.8135-1.0112.247-.0542.457-.0831.7178-.0167-.5704-1.0351-1.6426-1.0371-2.6221-1.7119-.9815-.6767-1.4492-1.3989-2.6504-1.5644l.081-.5581c.0997-.7324.587-.9947,1.0557-1.5552-.3076-.1597-.4922-.3096-.8486-.3584-.7549-.1079-1.7227-.0601-1.8272.7002-.0654.4678.3877.6211.5752,1.0342-.333.2505-.5713.4311-.8232.7231.2676.2437.5224.522.4668.9019-.0313.2622-.3047.2827-.5322.4023-.4542-.812-1.0069-1.3379-.8721-2.2749-.4238.0322-.9649.0459-1.0196.4546-.0693.4971.3165.73.5528,1.1543-.4102.1802-.6768.3823-1.1465.3164l-1.0234-.146c.123-.2778.4043-.3569.4511-.6792l.1641-1.2007c-.6787-.0337-1.0352-.2094-1.7158-.3042-.5528-.081-1.2373.0948-1.3125.6514-.0879.6196.5088.8198.8877,1.3184-.2842.1113-.4385.3296-.753.2817-.6162-.0859-.4033-.9785-.8867-1.3486-.6455-.5059-1.2939-.148-2.125-.1778.0459-.77-.122-1.6889-.8838-1.7944-2.1357-.3008-3.3642.5991-5.3925,1.3916-1.5127.5923-2.8282.4067-4.0225,1.4634ZM33.3672,39.6211c1.0635-.3872,1.7119-.9517,2.8574-.794.7275.1036.6582,1.0206,1.2285,1.4595.7764.6143,1.5635.5474,2.208,1.2661-.5234.522-.8711.8907-1.5869,1.0879.0938-.644-.2285-1.3432-.8769-1.4355-1.0489-.1465-.5498,1.8325-1.5127,2.2949-.1485-.8267-.2842-1.3545-.1729-2.1753.0615-.439.3926-.6587.7324-.9111-.3642-.229-.5527-.5562-.997-.6177-.583-.0806-1.292-.1484-1.8799-.1748ZM41.2295,42.3091l.668.3315c-.9873,1.0845-2.1289,1.5518-3.5928,1.3477l-.6475-.0923c.916-1.1821,2.0293-1.4756,3.5723-1.5869ZM42.3271,61.6582c-.3232-.0483-.0771-.52-.0957-.8203.3077-.0474.4961-.1104.8243-.1221.0078-.27.0048-.4487-.0176-.7202.206.0298.3105-.0781.5137-.0493,1.2002.1714,1.749.7246,2.9336,1.0112-.9375,1.3628-2.5469.9273-4.1583.7007ZM36.5518,58.5752c-.6094-.1143-1.1123-.3648-1.2637-.9849.7881-.1259,1.2168-.1855,2.0117-.0761,1.0762.1562,1.6494.5659,2.5938,1.0854.7177.3955,1.8378.4981,1.7236,1.314-.0664.5005-.6758.5644-1.1768.4956l-1.0224-.145c.1269-.2544.2705-.4424.4521-.6514-.875-.7817-1.4531-1.3399-2.6289-1.5064-.2012-.0263-.5049.4351-.6894.4688ZM43.5518,26.6055c1.1123.7827,1.7041,1.6723,3.0742,1.7119.1504.8594.8955,1.0552,1.4648,1.6719,1.0362,1.1328,1.6426,2.1411,3.1651,2.3549.2636.0376.4209-.0288.6884-.0195-.4004-.9849-1.3574-1.4194-1.206-2.4712.0928-.645.7168-.8535.8056-1.499.1602-1.083-1.4648-1.0103-2.4062-1.5337-1.335-.7222-2.0195-1.5947-3.5381-1.8101-1.3779-.1909-2.7461-.0283-3.3955,1.1939.3721.1421.9355.3706,1.3477.4009Z" fill="none" fill-rule="evenodd"/>
              </g>
            </g>
          </g>
        </g>
      </g>
    </g>
  </g>
</svg>