<?xml version='1.0' encoding='UTF-8'?>
<svg xmlns="http://www.w3.org/2000/svg" xmlns:xlink="http://www.w3.org/1999/xlink" id="Layer_1" data-name="Layer 1" width="96" height="96" viewBox="0 0 96 96">
  <defs>
    <linearGradient id="New_Gradient_371" data-name="New Gradient 371" x1="16.8627947" y1="51.3390914" x2="80.6435913" y2="51.3390914" gradientUnits="userSpaceOnUse">
      <stop offset="0" stop-color="#999"/>
      <stop offset=".20224" stop-color="#f2f2f2"/>
      <stop offset=".516861" stop-color="#b2b2b2"/>
      <stop offset=".769669" stop-color="#b2b2b2"/>
      <stop offset="1" stop-color="#737373"/>
    </linearGradient>
    <linearGradient id="New_Gradient_371-2" data-name="New Gradient 371" x1="16.6781947" y1="47.4767952" x2="63.6142935" y2="47.4767952" gradientUnits="userSpaceOnUse"><stop offset="0" stop-color="#999"/><stop offset=".20224" stop-color="#f2f2f2"/><stop offset=".516861" stop-color="#b2b2b2"/><stop offset=".769669" stop-color="#b2b2b2"/><stop offset="1" stop-color="#737373"/></linearGradient>
    <mask id="mask" x="16.2445947" y="19.7314" width="47.3696988" height="37.0835" maskUnits="userSpaceOnUse">
      <path d="M40.2382941,20.6836c12.9105997-.0015,23.3759994,6.7593,23.3759994,15.0996,0,8.3418-10.4653997,15.1035-23.3759994,15.1035-12.9115997,0-23.3754994-6.7617-23.3754994-15.1035,0-8.3403,10.4638997-15.0996,23.3754994-15.0996Z" fill="#fff"/>
    </mask>
    <linearGradient id="New_Gradient_372" data-name="New Gradient 372" x1="16.8627947" y1="35.7851499" x2="63.6142935" y2="35.7851499" gradientUnits="userSpaceOnUse">
      <stop offset="0" stop-color="#999"/>
      <stop offset=".219101" stop-color="#b2b2b2"/>
      <stop offset=".466293" stop-color="#b2b2b2"/>
      <stop offset=".769669" stop-color="#f2f2f2"/>
      <stop offset="1" stop-color="#737373"/>
    </linearGradient>
    <mask id="mask-1" x="18.7231947" y="24.521" width="43.0311989" height="32.2939" maskUnits="userSpaceOnUse">
      <path d="M40.2382941,24.9995c11.6195997,0,21.0375995,6.0835,21.0375995,13.5928,0,7.5058-9.4179998,13.5908-21.0375995,13.5908-11.6181997,0-21.0365995-6.084-21.0365995-13.5908,0-7.5093,9.4183998-13.5928,21.0365995-13.5928Z" fill="#fff" stroke="#fff" stroke-miterlimit="3.8637" stroke-width=".957"/>
    </mask>
    <linearGradient id="New_Gradient_373" data-name="New Gradient 373" x1="19.2016947" y1="38.5913" x2="61.2758936" y2="38.5913" gradientUnits="userSpaceOnUse">
      <stop offset="0" stop-color="#5587c0"/>
      <stop offset=".20787" stop-color="#97bae0"/>
      <stop offset=".865173" stop-color="#b3e0ff"/>
      <stop offset="1" stop-color="#5587c0"/>
    </linearGradient>
    <radialGradient id="New_Gradient_374" data-name="New Gradient 374" cx="-51.1728646" cy="45.2867545" fx="-51.1728646" fy="45.2867545" r="38.4415985" gradientTransform="translate(72.421675 -10.0151249) scale(.8754)" gradientUnits="userSpaceOnUse">
      <stop offset="0" stop-color="#78dcff"/>
      <stop offset="1" stop-color="#b7e9ff"/>
    </radialGradient>
    <linearGradient id="linear-gradient" x1="25.5793504" y1="21.1260727" x2="53.5697264" y2="49.1164487" gradientUnits="userSpaceOnUse">
      <stop offset="0" stop-color="gray"/>
      <stop offset=".187809" stop-color="#82868b"/>
      <stop offset=".5233754" stop-color="#8a99aa"/>
      <stop offset=".9651405" stop-color="#95b7db"/>
      <stop offset="1" stop-color="#97bae0"/>
    </linearGradient>
    <linearGradient id="New_Gradient_375" data-name="New Gradient 375" x1="26.2423595" y1="21.7890245" x2="54.2331495" y2="49.7798145" gradientUnits="userSpaceOnUse">
      <stop offset="0" stop-color="gray"/>
      <stop offset="1" stop-color="#fff"/>
    </linearGradient>
    <mask id="mask-2" x="19.2016947" y="28.073598" width="42.0741989" height="28.741302" maskUnits="userSpaceOnUse">
      <path d="M33.311,28.1597c3.9618942-.4898,7.4267941,1.1601,7.7353941,3.6777.3105,2.5166-2.6532999,4.9546-6.6171998,5.4409-3.9652999.4854-7.4291943-1.1626-7.7357998-3.6782-.3096-2.5176,2.6517999-4.9551,6.6176055-5.4404Z" fill="#fff"/>
    </mask>
    <linearGradient id="New_Gradient_376" data-name="New Gradient 376" x1="65.4173811" y1="51.2056831" x2="49.85578" y2="66.7672841" gradientUnits="userSpaceOnUse">
      <stop offset="0" stop-color="#4c4c4c"/>
      <stop offset=".623596" stop-color="#d9d9d9"/>
      <stop offset="1" stop-color="#4c4c4c"/>
    </linearGradient>
    <mask id="mask-3" x="54.7179058" y="56.0696067" width="26.0858373" height="26.0549433" maskUnits="userSpaceOnUse">
      <path d="M66.9838935,58.2808l11.4481997,11.4477c6.7045998,6.7061-3.3490932,16.7578-10.0536997,10.0557l-11.4496997-11.4468c-6.7040998-6.707,3.3529999-16.7607,10.0551997-10.0566Z" fill="#fff"/>
    </mask>
    <linearGradient id="New_Gradient_377" data-name="New Gradient 377" x1="78.43351" y1="58.2799847" x2="56.9264225" y2="79.7870721" gradientUnits="userSpaceOnUse">
      <stop offset="0" stop-color="#a70000"/>
      <stop offset=".662918" stop-color="#df4e15"/>
      <stop offset="1" stop-color="#740000"/>
    </linearGradient>
    <linearGradient id="New_Gradient_146" data-name="New Gradient 146" x1="69.7927112" y1="68.8738426" x2="77.2554938" y2="80.8167913" gradientUnits="userSpaceOnUse">
      <stop offset="0" stop-color="#df4e15"/>
      <stop offset="1" stop-color="#c42e00"/>
    </linearGradient>
    <linearGradient id="New_Gradient_378" data-name="New Gradient 378" x1="69.7927112" y1="68.8738426" x2="77.2554938" y2="80.8167913" gradientUnits="userSpaceOnUse">
      <stop offset="0" stop-color="#df4e15"/>
      <stop offset="1" stop-color="#c42e00"/>
    </linearGradient>
  </defs>
  <path d="M58.3212937,53.6396l2.5375999,2.5352c2.0009999-.3613,4.2015999.1812,6.1249998,2.106l11.4481997,11.4477c6.7045998,6.7061-3.3490932,16.7578-10.0536997,10.0557l-11.4496997-11.4468c-1.9253-1.9272-2.4677999-4.126-2.1034999-6.1289l-4.5116999-4.5098c-3.0492999.9463-6.4677998,1.4717-10.0751997,1.4717-12.9115997,0-23.3754994-6.7607-23.3754994-15.1045,0-6.0439.0019-8.0864.0019-8.0864l-.0019-.1963c0-8.3403,10.4638997-15.0996,23.3754994-15.0996,12.9105997-.0015,23.3759994,6.7593,23.3759994,15.0996v8.2827c0,3.6372-1.9853999,6.9683-5.2929999,9.5737Z" fill="url(#New_Gradient_371)" stroke="#000" stroke-miterlimit="3.8637" stroke-width="4"/>
  <path d="M16.8627947,44.0659c0-6.0439-.1846-8.0864-.1846-8.0864l46.9360988-.1963s0-.0557,0,8.2827c0,8.3433-10.4653997,15.1045-23.3759994,15.1045-12.9115997,0-23.3754994-6.7607-23.3754994-15.1045Z" fill="url(#New_Gradient_371-2)" fill-rule="evenodd"/>
  <g mask="url(#mask)">
    <g>
      <path d="M40.2382941,20.6836c12.9105997-.0015,23.3759994,6.7593,23.3759994,15.0996,0,8.3418-10.4653997,15.1035-23.3759994,15.1035-12.9115997,0-23.3754994-6.7617-23.3754994-15.1035,0-8.3403,10.4638997-15.0996,23.3754994-15.0996Z" fill="url(#New_Gradient_372)"/>
      <g mask="url(#mask-1)">
        <g>
          <path d="M40.2382941,24.9995c11.6195997,0,21.0375995,6.0835,21.0375995,13.5928,0,7.5058-9.4179998,13.5908-21.0375995,13.5908-11.6181997,0-21.0365995-6.084-21.0365995-13.5908,0-7.5093,9.4183998-13.5928,21.0365995-13.5928Z" fill="url(#New_Gradient_373)"/>
          <path d="M40.2382941,29.6289c11.6195997,0,21.0375995,6.085,21.0375995,13.5913,0,7.5083-9.4179998,13.5947-21.0375995,13.5947-11.6181997,0-21.0365995-6.0864-21.0365995-13.5937s9.4183998-13.5923,21.0365995-13.5923Z" fill="url(#New_Gradient_374)"/>
          <path d="M40.2382941,24.9995c11.6195997,0,21.0375995,6.0835,21.0375995,13.5928,0,7.5058-9.4179998,13.5908-21.0375995,13.5908-11.6181997,0-21.0365995-6.084-21.0365995-13.5908,0-7.5093,9.4183998-13.5928,21.0365995-13.5928Z" fill="none" stroke="#69c" stroke-miterlimit="3.8637" stroke-width=".957"/>
        </g>
      </g>
      <path d="M39.5761941,19.7314c12.4935997,0,23.3275994,6.5777,23.3275994,15.3902,0,8.8135-10.8339997,15.3852-23.3275994,15.3852-12.4955997,0-23.3315994-6.5717-23.3315994-15.3838,0-8.8139,10.8359997-15.3916,23.3315994-15.3916ZM39.5761941,21.5107c-12.2939997,0-21.5527995,6.4068-21.5527995,13.6123,0,7.2002,9.2587998,13.6065,21.5527995,13.6065,12.2909997,0,21.5516995-6.4072,21.5516995-13.6079,0-7.2041-9.2606998-13.6109-21.5516995-13.6109Z" fill="url(#linear-gradient)"/>
    </g>
  </g>
  <path d="M40.2382941,20.3965c12.4940997,0,23.3295994,6.5762,23.3295994,15.3867,0,8.814-10.8354997,15.3897-23.3295994,15.3897-12.4941997,0-23.3310994-6.5757-23.3310994-15.3897,0-8.8105,10.8368997-15.3867,23.3310994-15.3867ZM40.2382941,22.1748c-12.2934997,0-21.5517995,6.4077-21.5517995,13.6084,0,7.2031,9.2582998,13.6108,21.5517995,13.6108,12.2924997,0,21.5521995-6.4077,21.5521995-13.6108,0-7.2007-9.2596998-13.6084-21.5521995-13.6084Z" fill="url(#New_Gradient_375)"/>
  <g mask="url(#mask-2)">
    <g>
      <path d="M33.311,28.1597c3.9618942-.4898,7.4267941,1.1601,7.7353941,3.6777.3105,2.5166-2.6532999,4.9546-6.6171998,5.4409-3.9652999.4854-7.4291943-1.1626-7.7357998-3.6782-.3096-2.5176,2.6517999-4.9551,6.6176055-5.4404Z" fill="#b3e0ff"/>
      <path d="M40.2382941,29.6289c11.6195997,0,21.0375995,6.085,21.0375995,13.5913,0,7.5083-9.4179998,13.5947-21.0375995,13.5947-11.6181997,0-21.0365995-6.0864-21.0365995-13.5937s9.4183998-13.5923,21.0365995-13.5923Z" fill="#fff"/>
    </g>
  </g>
  <path d="M55.8915937,51.2085l9.5244063,9.5225c4.022,4.0244-2.0141065,10.0581-6.0361064,6.0336l-9.5234998-9.5234c-4.0199999-4.022,2.0117999-10.0561,6.0351998-6.0327Z" fill="url(#New_Gradient_376)"/>
  <g mask="url(#mask-3)">
    <g>
      <path d="M66.9838935,58.2808l11.4481997,11.4477c6.7045998,6.7061-3.3490932,16.7578-10.0536997,10.0557l-11.4496997-11.4468c-6.7040998-6.707,3.3529999-16.7607,10.0551997-10.0566Z" fill="url(#New_Gradient_377)"/>
      <path d="M73.5243933,67.8032c3.8876999,0,7.0400998,3.1553,7.0400998,7.0425,0,3.8897-3.1523999,7.0396-7.0400998,7.0396-3.8861999,0-7.0404998-3.1499-7.0404998-7.0396,0-3.8872,3.1542999-7.0425,7.0404998-7.0425Z" fill="url(#New_Gradient_146)" stroke="#a70000" stroke-miterlimit="3.8637" stroke-width=".4785"/>
      <path d="M73.5243933,67.8032c3.8876999,0,7.0400998,3.1553,7.0400998,7.0425,0,3.8897-3.1523999,7.0396-7.0400998,7.0396-3.8861999,0-7.0404998-3.1499-7.0404998-7.0396,0-3.8872,3.1542999-7.0425,7.0404998-7.0425Z" fill="url(#New_Gradient_378)"/>
      <line x1="57.5321937" y1="60.1929" x2="66.7187935" y2="69.3794" fill="none" stroke="#ff7845" stroke-linecap="round" stroke-miterlimit="3.8637" stroke-width="1.4356"/>
    </g>
  </g>
</svg>