<?xml version='1.0' encoding='UTF-8'?>
<svg xmlns="http://www.w3.org/2000/svg" xmlns:xlink="http://www.w3.org/1999/xlink" id="Layer_1" data-name="Layer 1" width="96" height="96" viewBox="0 0 96 96">
  <defs>
    <linearGradient id="New_Gradient_253" data-name="New Gradient 253" x1="48.3989684" y1="31.3446195" x2="48.3989684" y2="72.171212" gradientUnits="userSpaceOnUse">
      <stop offset="0" stop-color="#e5e5e5"/>
      <stop offset="1" stop-color="#fff"/>
    </linearGradient>
    <linearGradient id="New_Gradient_253-2" data-name="New Gradient 253" x1="43.4680551" y1="37.3983314" x2="43.4680551" y2="78.2260715" gradientUnits="userSpaceOnUse"><stop offset="0" stop-color="#e5e5e5"/><stop offset="1" stop-color="#fff"/></linearGradient>
    <linearGradient id="New_Gradient_253-3" data-name="New Gradient 253" x1="43.4680551" y1="37.3983314" x2="43.4680551" y2="78.2260715" gradientUnits="userSpaceOnUse"><stop offset="0" stop-color="#e5e5e5"/><stop offset="1" stop-color="#fff"/></linearGradient>
    <linearGradient id="New_Gradient_253-4" data-name="New Gradient 253" x1="49.4755036" y1="39.9193163" x2="49.4755036" y2="80.7474216" gradientUnits="userSpaceOnUse"><stop offset="0" stop-color="#e5e5e5"/><stop offset="1" stop-color="#fff"/></linearGradient>
    <mask id="mask" x="16.9313882" y="39.9193163" width="73.2366118" height="40.8281052" maskUnits="userSpaceOnUse">
      <path d="M79.752381,72.793l-31.4637992,7.9316c-.5161.1304-2.1498999-.3242-2.5243999-.6987l-27.7968993-27.773c-1.7818-1.7793-1.1992-3.8603,1.2422-4.4643l31.5702992-7.8477c.5146-.1264,2.1444999.3277,2.5189999.7027l27.6879993,27.6884c1.7749,1.7735,1.1973,3.8526-1.2344,4.461Z" fill="#fff"/>
    </mask>
    <linearGradient id="New_Gradient_253-5" data-name="New Gradient 253" x1="49.4755036" y1="39.9193163" x2="49.4755036" y2="80.7474216" gradientUnits="userSpaceOnUse"><stop offset="0" stop-color="#e5e5e5"/><stop offset="1" stop-color="#fff"/></linearGradient>
    <radialGradient id="New_Gradient_254" data-name="New Gradient 254" cx="79.0160402" cy="57.3098222" fx="79.0160402" fy="57.3098222" r="49.887958" gradientTransform="translate(-.4457101 4.3192897) scale(.9489)" gradientUnits="userSpaceOnUse">
      <stop offset="0" stop-color="#d9d9d9"/>
      <stop offset="1" stop-color="#4c4c4c"/>
    </radialGradient>
    <radialGradient id="New_Gradient_255" data-name="New Gradient 255" cx="81.6500807" cy="66.2069874" fx="81.6500807" fy="66.2069874" r="25.1889482" gradientTransform="translate(-.4457101 4.3192897) scale(.9489)" gradientUnits="userSpaceOnUse">
      <stop offset="0" stop-color="#e5e5e5"/>
      <stop offset="1" stop-color="#666"/>
    </radialGradient>
    <radialGradient id="New_Gradient_256" data-name="New Gradient 256" cx="64.8024637" cy="51.3394536" fx="64.8024637" fy="51.3394536" r="15.872688" gradientTransform="translate(-.4457101 4.3192897) scale(.9489)" gradientUnits="userSpaceOnUse">
      <stop offset="0" stop-color="#fff"/>
      <stop offset="1" stop-color="gray"/>
    </radialGradient>
    <linearGradient id="New_Gradient_257" data-name="New Gradient 257" x1="74" y1="43.4949" x2="59.4740815" y2="43.4949" gradientUnits="userSpaceOnUse">
      <stop offset="0" stop-color="#ccc"/>
      <stop offset="1" stop-color="#737373"/>
    </linearGradient>
    <radialGradient id="New_Gradient_258" data-name="New Gradient 258" cx="66.2808739" cy="24.392451" fx="66.2808739" fy="24.392451" r="11.9256123" gradientTransform="translate(-.4457101 4.3192897) scale(.9489)" gradientUnits="userSpaceOnUse">
      <stop offset="0" stop-color="#e5e5e5"/>
      <stop offset=".044937" stop-color="#fff"/>
      <stop offset="1" stop-color="#737373"/>
    </radialGradient>
    <radialGradient id="New_Gradient_259" data-name="New Gradient 259" cx="73.7216233" cy="20.9865106" fx="73.7216233" fy="20.9865106" r="12.0154759" gradientTransform="translate(-.4457101 4.3192897) scale(.9489)" gradientUnits="userSpaceOnUse">
      <stop offset="0" stop-color="#fff"/>
      <stop offset="1" stop-color="#737373"/>
    </radialGradient>
    <radialGradient id="New_Gradient_260" data-name="New Gradient 260" cx="68.5810323" cy="14.8548428" fx="68.5810323" fy="14.8548428" r="3.0813047" gradientTransform="translate(-.4457101 4.3192897) scale(.9489)" gradientUnits="userSpaceOnUse">
      <stop offset="0" stop-color="#f2f2f2"/>
      <stop offset="1" stop-color="#ccc"/>
    </radialGradient>
    <radialGradient id="New_Gradient_261" data-name="New Gradient 261" cx="64.711285" cy="52.5710156" fx="64.711285" fy="52.5710156" r="21.6752374" gradientTransform="translate(-.4457101 4.3192897) scale(.9489)" gradientUnits="userSpaceOnUse">
      <stop offset="0" stop-color="#fff"/>
      <stop offset="1" stop-color="#999"/>
    </radialGradient>
    <radialGradient id="New_Gradient_262" data-name="New Gradient 262" cx="57.7781812" cy="64.1611393" fx="57.7781812" fy="64.1611393" r="9.1802664" gradientTransform="translate(-.4457101 4.3192897) scale(.9489)" gradientUnits="userSpaceOnUse">
      <stop offset="0" stop-color="#e5e5e5"/>
      <stop offset="1" stop-color="#999"/>
    </radialGradient>
  </defs>
  <g>
    <path d="M78.675281,64.2202l-31.4623992,7.9282c-.52.1299-2.1474999-.3208-2.5253999-.6982l-27.7978993-27.7739c-1.7802-1.7764-1.1977-3.8599,1.2447-4.4639l31.5673992-7.8457c.5141-.1284,2.1468999.3291,2.5189999.7026l27.6908993,27.6885c1.7725,1.7735,1.1963,3.8526-1.2363,4.4624Z" fill="url(#New_Gradient_253)" stroke="#000" stroke-linecap="round" stroke-linejoin="round" stroke-width="4"/>
    <g>
      <path d="M78.675281,64.2202l-31.4623992,7.9282c-.52.1299-2.1474999-.3208-2.5253999-.6982l-27.7978993-27.7739c-1.7802-1.7764-1.1977-3.8599,1.2447-4.4639l31.5673992-7.8457c.5141-.1284,2.1468999.3291,2.5189999.7026l27.6908993,27.6885c1.7725,1.7735,1.1963,3.8526-1.2363,4.4624Z" fill="url(#New_Gradient_253)"/>
      <polygon points="39.760682 52.0122 40.760282 43.6582 54.6166816 48.147 53.6195817 56.4985 39.760682 52.0122" fill="red"/>
      <path d="M23.5453824,42.564c-.0386-.0205-.0708-.0381-.102-.0464-.0269-.0117-.044-.0152-.0581-.0117-.0108.0039-.0201.0156-.0201.0346,0,.0196.0069.043.0176.0718l.5191,1.2905c-.003.0054-.003.0078,0,.0176.0097.0176.0161176.0293.0234.0361.0098.0118.0293.0181.0522.0215.0245176-.0014.0557-.0053.0938-.0132l1.2646-.309c.0401176-.0113.0684-.021.0806-.0328.0142-.0112.0142-.0263,0-.0385-.0166-.0176-.0337-.0313-.0469-.044-.0132-.0097-.0249-.0205-.0395-.0283l-1.7847-.9482ZM23.459,41.1172l5.4066823,2.8794c.2544.1406.4741.2446.6592.3096.1792.0649.3467.0971.4976.104.0595177.0039.1421-.003.2514-.0196.2403-.0234.399.003.479.084.0435.0425.0498.0781.0181178.1108-.0327178.0293-.1143178.0596-.2481177.0943-.0117.001-.1748.0327-.4863.0908-.3065823.0591-.603.124-.8813.1899-.2378.0586-.5161.1353-.8306.2286-.3154.0918-.5093.1489-.5893.1704-.105.0244-.188.0322-.2525.0273-.064-.0078-.1157-.0337-.1597-.0776-.0854-.084-.0297-.1685.1685-.2476.1992-.0801.2554-.1621.1689-.249-.0175-.0176-.041-.0361-.0693-.0571-.0264-.0171-.0557-.0386-.0942-.0586l-1.2046-.6734c-.0996-.0532-.2163-.0766-.3457-.0669-.1304.0059-.4447824.0699-.9473.1939-.4619.1108-.7304824.1919-.8081.2339-.0835.0444-.1001.1152-.0547.2168.0777.1753.147.3174.2129.4355.0664176.1192.124.2012.1782.2593.0977.0957.1988.1592.3086.1914.1153.0327.2759.0459.4854.0425.0703-.002.167-.0069.29-.0098.2588-.0185.4224.0098.4986.0869.0478.0445.0581.0801.0415.1079-.0196.0225-.0831.0498-.189.0743-.021.0063-.0391.0097-.0532.0146h-.041c-.0264.0044-.0708.0142-.1402.0278-.3486.0606-.666.126-.9546.1968-.2026.0488-.417.1138-.6508824.1919-.0419176.0127-.0712176.0259-.0908176.0313-.0146.0078-.0263.0117-.0356.0185-.0171.0039-.0327.0098-.0449.0122-.0913.0191-.1661.0254-.2206824.0157-.0596176-.0044-.1065176-.0279-.146-.0679-.0816176-.084-.0494176-.1641.0965824-.249.0635-.0313.104-.0557.1289-.0718.0728-.0493.1109-.1138.1197-.1914.0078176-.0782-.0121824-.1846-.0586-.3223l-1.4165-4.042c-.042-.1255-.0474-.2148-.0170825-.2676.0287825-.0527.1171825-.0971.2670825-.1323.1391-.0342.2436-.0439.3183-.0307.0747.0126.2203.0776.4356176.1943Z" fill="red" fill-rule="evenodd"/>
      <path d="M71.9721812,60.4707c.0366.0205.0683.0376.0991.0474.0268.0092.0434.0166.0596.0127.0102-.0035.0161188-.0166.0161188-.0362.0018812-.0185-.0025188-.0415-.0161188-.0713l-.5113-1.2749c0-.0024,0-.0068-.0039-.0161-.0049-.0156-.0126812-.0288-.0195-.0361-.0131812-.0117-.0293-.0186-.0518-.0225-.0253812.0039-.0556.0069-.0918.0147l-1.2475.3037c-.0435.0107-.0674.0225-.084.0342-.0112.0102-.0112.0244,0,.0371.0185.019.0356.0332.0508.0429.0097.0118.0229.0215.0356.0293l1.7647.9351ZM72.0561812,61.9009l-5.3393999-2.8428c-.2515-.1387-.4673-.2432-.6509-.3076-.1802-.0625-.3447-.0952-.4917-.1026-.0566-.0019-.1411.004-.2485.021-.2378.0225-.3931-.0039-.4726814-.0835-.041-.0434-.0464186-.0795-.018-.1074.0326814-.0307.1136814-.0605.2455814-.0942.0107-.0015.1728-.0337.4795-.0918.3051-.0586.5957-.1201.8676-.188.2388-.0571.5132-.1333.8223187-.2241.3100813-.0928.5053813-.1485.5824813-.1685.1045187-.0219.1851-.0317.2486-.0259.0634.0064.1157.0333.1567.0757.0869.084.0332187.166-.1646.2437-.1967.0801-.2529.1606-.166.2485.0161.0161.041.0357.0679.0537.0259187.0166.0562.0376.0933.0601l1.1909.6621c.0971.0532.2124.0767.3418.0669.1264-.0064.4385-.0689.9345-.1904.4541-.1104.7203-.188.7974188-.232.0810812-.0405.0976812-.1142.0536812-.2163-.0746812-.1684-.143-.3115-.2085-.4277-.0659-.1167-.1255-.2012-.1791812-.2539-.0932188-.0962-.1968188-.1587-.3047188-.1909-.1137-.0313-.2724-.0459-.477-.042-.0698.0029-.1655.0063-.2871.0107-.2549.0171-.417-.0107-.4907-.0849-.0459-.0455-.0596-.0816-.0401-.1075.0166187-.0244.0786187-.0488.1846187-.0742.021-.0063.0365813-.0102.0492813-.0137.0151,0,.0303-.0019.042-.0029.0264-.0059.0718-.0127.1382-.022.3457-.0649.6601-.1308.9424-.1992.2006-.0483.416-.1118.6425-.188.042-.0151.0743-.0263.0923-.0322.0152-.0059.0269-.0122.0381-.0166.0117-.0034.0283-.0073.04-.0093.0904-.0224.1636-.0307.2193-.0224.0581.0097.1059188.0341.146.0713.0801.0805.0469188.1611-.0996.2465-.0601.0308-.1021.0547-.1241.0708-.0703.0474-.1113.1114-.1196.188-.0077812.0786.0122188.1856.0591.3179l1.396,3.9917c.043.1255.0493.2129.02.2617-.0303.0552-.1186.0986-.2646.1323-.1377.0367-.2408.045-.3145.0328-.0737-.0123-.2157812-.0762-.4306-.1929Z" fill="red" fill-rule="evenodd"/>
    </g>
  </g>
  <g>
    <path d="M73.7431812,70.2715l-31.4628992,7.9316c-.5161.1304-2.1489999-.3203-2.5229999-.6977l-27.7987993-27.7754c-1.7778-1.7754-1.1992-3.8584,1.2432-4.461l31.5693173-7.8491c.5160819-.1264,2.145.3281,2.519.7031l27.6884811,27.6905c1.7744,1.771,1.1997,3.8515-1.2353,4.458Z" fill="url(#New_Gradient_253-2)" stroke="#000" stroke-linecap="round" stroke-linejoin="round" stroke-width="4"/>
    <g>
      <path d="M73.7431812,70.2715l-31.4628992,7.9316c-.5161.1304-2.1489999-.3203-2.5229999-.6977l-27.7987993-27.7754c-1.7778-1.7754-1.1992-3.8584,1.2432-4.461l31.5693173-7.8491c.5160819-.1264,2.145.3281,2.519.7031l27.6884811,27.6905c1.7744,1.771,1.1997,3.8515-1.2353,4.458Z" fill="url(#New_Gradient_253-3)"/>
      <polygon points="34.8285821 58.0635 35.8266821 49.7129 49.686 54.2017 48.6864818 62.5537 34.8285821 58.0635" fill="red"/>
      <path d="M18.6127826,48.6191c-.0381-.0219-.0717826-.038-.1001-.0463-.0264-.0118-.0459-.0147-.0596-.0118-.0117.0039-.0185.0142-.0185.0318,0,.02.0068.0468.018.0737l.5186,1.2896c-.0029.0034-.0029.0097,0,.019.0078175.0181.0151.0298.0234.0361.0098.0108.0264175.0181.0518.0201.0229,0,.0566175-.004.0942-.0137l1.2632-.3076c.0405-.0103.0679-.021.082-.0332.0132175-.0127.0132175-.024.002-.0391-.02-.0166-.0366-.0308-.0523-.042-.0102-.0122-.0219-.021-.0346-.0288l-1.7881-.9478ZM18.5268826,47.1738l5.4071999,2.877c.2558.1426.4761.2427.6572.3096.1841.062.3501.0981.499.1054.0591.0025.1446-.0034.2544-.02.2368-.0259.3955.0034.4776.0815.0405.0464.0478.0806.0175.1104-.0341.0322-.1137.0635-.249.0957-.0112.0029-.1714.0327-.4863.0923-.3071.0586-.5996.1225-.8794.1889-.2393.0596-.5166.1353-.8296.2291-.3149.0932-.5127.1499-.5908.1689-.104.0264-.188.0342-.2525.0278-.062-.0083-.1157-.0322-.1601-.0761-.0869-.0879-.0303-.168.1689175-.2505.1996824-.0786.2538824-.1621.169-.2476-.0196175-.0185-.042-.0376-.0723175-.0547-.0254-.0195-.0536825-.04-.0932-.0635l-1.2022-.6684c-.1025-.0537-.2187-.0786-.3481-.0684-.128.0064-.4429.0699-.9449.1909-.4604.1143-.7299.1919-.8105.2354-.082.0444-.0996.1157-.0517825.2178.0751825.1733.1445825.3193.21.4365.0658825.1167.1264825.2021.1820825.2568.0938.0957.1978.1617.3067.1929.1137.0303.2778.0469.4858.043.0684175-.003.1646-.0059.291-.0127.2569-.0152.4199.0127.4956.0874.0474.0473.0586.083.0401.1113-.0162.022-.0801.0474-.188.0742-.02.0054-.0366.0083-.0489.0103-.0161.0039-.0297.0039-.0459.0039-.0239.0049-.0678.0151-.1362.0239-.3501.0635-.668.1299-.9555.1997-.2012.0508-.42.1123-.6504.1929-.042.0137-.0743.0254-.0923.0312-.0152.0059-.0279.0118-.0376.0166-.0156.0039-.0288.0069-.0424825.0108-.0918175.0224-.1646175.0293-.2202175.019-.0581-.0088-.1094-.0307-.1485-.0678-.082-.084-.0492826-.1665.1001-.2491.0621-.0332.1021-.0581.1265-.0737.0718-.0498.1113-.1123.1206-.1895.0078-.081-.0122-.1845-.0586-.3242l-1.4184-4.0385c-.0401-.128-.0464-.2164-.0166-.2701.0302-.0517.1186-.0957.268-.1323.1382-.0371.2422-.0444.3169-.0332.0762174.0171.2202174.0781.4361.1992Z" fill="red" fill-rule="evenodd"/>
      <path d="M67.0390813,66.5244c.0371.023.0717.0391.1005.0488.0264187.0098.0464187.0137.0591.0098.0113187-.0029.0176-.0132.0176-.0337.002-.019-.0044-.0439-.0176-.0718l-.5106813-1.2729c.0004813-.0034,0-.0098-.0015187-.0171-.0063-.0171-.0141-.0283-.0229-.0386-.0098-.0097-.0269-.0166-.0508-.0185-.0234,0-.0566.0039-.0927813.0127l-1.2461186.3042c-.0428814.0097-.0703.0219-.0835.0337-.0132.0122-.0132.0234,0,.038.0166186.0162.0357.0308.0489.0425.0131.0093.0258.02.0376.0274l1.7622.9355ZM67.124,67.9561l-5.3364185-2.8453c-.2539-.1381-.4707-.2402-.6523-.3061-.1782815-.0615-.3442815-.0972-.4912815-.1026-.0605185-.0014-.143.0054-.2509185.0201-.2359.0244-.3936-.002-.4712-.083-.042-.042-.0484-.0782-.0181-.107.0327-.0298.1123-.0634.2456-.0942.0112-.002.1714-.0352.4795-.0894.3057-.06.5938-.1201.8701185-.188.2358815-.06.5102815-.1337.8202814-.2251.3111-.0947.503-.1489.5826-.1689.1025-.0269.185-.0356.248-.0269.0645.0069.1162.0303.1582.0748.0845.0859.0303.1684-.166.2446-.1973.081-.252.1631-.168.2461.0186.0195.0425.0366.0723.0556.022.0186.0557.0391.0903.0616l1.1919.6621c.0957.0537.211.0747.3418.0644.1245-.0034.4375-.0683.9326186-.188.4560814-.1093.7192813-.188.7973813-.2319.081-.0425.0996187-.1143.0542-.2163-.0733-.1709-.1445-.3145-.208-.4268-.0669-.1171-.126-.2021-.1802-.2558-.0903-.0962-.1948-.1577-.3047-.1919-.1113-.0288-.272-.0425-.477-.0405-.0694.0039-.1651.0048-.2852.0097-.2558.0166-.4189-.0097-.4927-.0835-.0459-.0459-.0576-.082-.04-.1084.0186-.0254.0786-.0488.1846-.0752.0219-.0044.0376186-.0083.0517-.0117.0132-.0019.0283-.0034.0406-.0034.0273186-.0059.0737-.0151.1376-.0215.3477186-.0654.6592-.1304.9444-.1982.1982-.0493.4155-.1143.6406-.1914.0454-.0118.0757187-.0235.0938-.0288.0127-.0074.0263-.0137.0346-.0196.0161-.0019.0298-.0053.042-.0083.0918-.0254.1636-.0298.2188-.0215.0591.0098.1059.0323.1455187.0684.0800813.0811.0477813.1655-.0972187.2495-.06.0288-.1035.0523-.1274.0708-.0673813.0479-.1079.1113-.1162.189-.0083.0761.0102.1821.059.3144l1.3941,3.9937c.0469.123.0522.2129.0234.2632-.0316813.0517-.1206.0957-.2671.1308-.1362.0347-.2392.0464-.3144.0308-.0747-.0122-.2168-.0737-.4311813-.1904Z" fill="red" fill-rule="evenodd"/>
    </g>
  </g>
  <path d="M79.752381,72.793l-31.4637992,7.9316c-.5161.1304-2.1498999-.3242-2.5243999-.6987l-27.7968993-27.773c-1.7818-1.7793-1.1992-3.8603,1.2422-4.4643l31.5702992-7.8477c.5146-.1264,2.1444999.3277,2.5189999.7027l27.6879993,27.6884c1.7749,1.7735,1.1973,3.8526-1.2344,4.461Z" fill="url(#New_Gradient_253-4)" stroke="#000" stroke-linecap="round" stroke-linejoin="round" stroke-width="4"/>
  <g>
    <g mask="url(#mask)">
      <g>
        <path d="M79.752381,72.793l-31.4637992,7.9316c-.5161.1304-2.1498999-.3242-2.5243999-.6987l-27.7968993-27.773c-1.7818-1.7793-1.1992-3.8603,1.2422-4.4643l31.5702992-7.8477c.5146-.1264,2.1444999.3277,2.5189999.7027l27.6879993,27.6884c1.7749,1.7735,1.1973,3.8526-1.2344,4.461Z" fill="url(#New_Gradient_253-5)"/>
        <path d="M72.085,51.3765c9.848581,0,17.833,4.9961,17.833,11.1538,0,6.1621-7.984419,11.1548-17.833,11.1548-9.8496185,0-17.8335183-4.9927-17.8335183-11.1548,0-6.1577,7.9838998-11.1538,17.8335183-11.1538Z" fill="#b2b2b2" stroke="#d9d9d9" stroke-miterlimit="3.8637" stroke-width=".5"/>
      </g>
    </g>
    <polygon points="40.165482 60.5864 41.165 52.2339 55.022 56.7231 54.0238817 65.0732 40.165482 60.5864" fill="red"/>
    <path d="M24.6215824,51.1401c-.0381-.0234-.0723-.0385-.1001-.0483-.0283-.0098-.0464-.0171-.0596-.0132-.0127.0034-.02.0171-.02.0352,0,.0239.0073.0459.0181176.0742l.52,1.2891c-.0034176.0073-.0034176.0112,0,.0161.0077824.019.0140824.0307.0214824.0381.0107.0097.0288.0209.0522.0239.0244-.003.0576-.0069.0957-.0166l1.2627-.3057c.0405-.0122.0669176-.022.0806-.0351.0151-.0118.0151-.0254.0034-.0391-.0195-.0156-.0360824-.0322-.0513-.042-.0117-.0098-.0224-.0215-.039-.0288l-1.7842-.9478ZM24.5355824,49.6914l5.4062999,2.8799c.2549.1401.477.2456.6582.311.1821.0625.3486.0972.499.1001.0596.0039.1436-.0029.2534-.0156.2378-.0259.3965178.001.4786.0825.0405.0415.0473.0796.0175.1104-.0341.0312-.1142.06-.2495.0932-.0127.003-.1723.0357-.4863.0938-.3081.0586-.6006.1186-.8789.1899-.2402.0567-.5181.1343-.8316.2246-.3149.0977-.5112.1524-.5902823.1719-.1045177.0249-.1865177.0327-.251.0269-.062-.0069-.1176177-.0328-.1601177-.0743-.0878823-.0864-.0308-.1709.1679-.25.1988-.0786.2549-.163.1685-.249-.0181-.0176-.042-.0351-.0698-.0552-.0264-.02-.0557-.041-.0952-.062l-1.2012-.6709c-.1035-.0537-.2188-.0766-.3496-.0673-.1264823.0073-.4429.0703-.9453.1918-.4605.1143-.73.1919-.8101.2373-.0800824.0425-.0980824.1133-.0517.2164.0752.1748.146.3188.2114.436.0654.1167.1264.2031.1806.2578.0948.0952.1993.1572.3082.1909.1137.0318.2758.0479.4838.044.0689-.0034.1656176-.0074.2915-.0122.2569-.0162.4195.0122.4971177.0864.0458823.0459.0585823.0815.0400823.1103-.0167.0254-.0800823.0489-.1885.0752-.0195823.0049-.0362.0098-.0513.0137-.0142,0-.0269,0-.0435.0029-.0244.0044-.0673.0122-.1386.022-.3471823.0635-.6656.1299-.9536.2007-.2017.0478-.42.1138-.6499.1919-.0415.0137-.0738.0234-.0943.0298-.0132.0083-.0259.0151-.0356.018-.0161.0039-.0283.0079-.0415.0108-.0932824.0205-.1675.0288-.2227.019-.0581-.0063-.1079-.0298-.147-.0683-.082-.0821-.0488-.1651.0987-.25.0625-.0318.1035-.0562.1284-.0738.0708-.0483.1099-.1098.1196-.1919.0088-.0766-.0117-.1845-.0581-.3169l-1.4179-4.0459c-.0401-.1245-.0469-.2143-.0167-.267.0303-.0508.1187-.0967.2671-.1324.1397-.0327.2417-.0439.3174-.0288.0742.0098.2207.0757.4365.1924Z" fill="red" fill-rule="evenodd"/>
    <path d="M73.0478812,69.0493c.0356.0191.0712.0352.1005.0435.0264.0107.0454.0146.0591.0107.0117-.0024.0156-.0146.0156-.0322.003-.021-.0024-.0449-.0156-.0718l-.5122-1.2749c.002-.0029,0-.0083-.0019-.0171-.0043812-.0185-.0137-.0293-.0215-.0356-.0093-.0117-.0264-.0191-.0513-.022-.0225,0-.0557.0049-.0918.0127l-1.2471.3057c-.0429.0097-.0708.0219-.083.0322-.0126812.0117-.0126812.0244,0,.0395.0157.0162.0352.0328.0489.0406.0127.0102.0263.02.0356.0298l1.7647.9389ZM73.1312812,70.4756l-5.3377999-2.8433c-.25-.1406-.4678-.2407-.6499-.3066-.1822-.0635-.3438-.0962-.4932-.1021-.0581-.0034-.1426.003-.25.0176-.2353813.0244-.3931-.0039-.4702-.081-.042-.042-.0489-.0787-.0191-.1099.0342-.0288.1128-.0586.2461-.0913.0108186-.0029.1724-.0347.4795-.0938.3062-.0556.5933187-.1196.8687-.185.2378-.0591.5112-.1328.8213-.2281.309-.0903.5029-.1445.582-.165.103-.0244.187-.0332.249-.0264.0615.0079.1143187.0308.1592.0743.0845.0864.0288.167-.1675.248-.1958.0781-.2505.1592-.1665.2432.0171187.0195.0425.0361.0708.0551.0234.0201.0562.0386.0903187.0621l1.1918812.6601c.0962.0532.2124.0762.3409.0684.1254-.0054.4389-.0684.934-.1895.4561-.1128.7203-.1885.7984-.2344.0805-.0419.0981-.1127.0542-.2124-.0733-.1733-.146-.3164-.21-.434-.0649-.1133-.1225-.1978-.1782-.2525-.0938-.0932-.1948-.1596-.3061812-.1899-.1098188-.0298-.2705188-.0464-.4755188-.0435-.0694.0039-.1651.0083-.2852.0137-.2559.0176-.4189-.0137-.4927-.0879-.0473-.0439-.0591-.0801-.04-.1069.0181-.023.0786-.0469.1846-.0752.0219-.0039.0376-.0098.0517-.0117.0127,0,.0278,0,.0405-.002.0259-.0068.0738-.0127.1377-.0264.3438-.06.6592-.1255.9405-.1923.2021-.0499.4179-.1133.6445-.1915.0439188-.0141.0752-.0239.0933-.0341.0131-.0044.0258-.0088.0351-.0127.0152-.0054.0288-.0093.042-.0122.0918-.0215.1636-.0259.2183-.0181.0595.0063.1064.0303.1455.0698.0815.0786.0483.1607-.0967.2427-.0625.0327-.1035.0566-.1284.0747-.0674.0479-.1074.1099-.1161812.189-.0093188.0761.0101812.1811.0585812.3164l1.395,3.9922c.0449.1225.0508.2089.0239.2641-.0322.0503-.1206.0948-.2661.1309-.1382.0322-.2441.043-.3145.0293-.0756-.0117-.2177-.0777-.4336-.1919Z" fill="red" fill-rule="evenodd"/>
  </g>
  <g>
    <path d="M59.6156815,28.0972c0-.5464.1856-1.0713.5239-1.5474-1.1411-1.4448-1.8178-3.2656-1.8178-5.2471,0-4.6816,3.7924999-8.4751,8.4725998-8.4751,4.6801999,0,8.4721998,3.7935,8.4721998,8.4751,0,2.0459-.7222,3.9229-1.9292,5.3872.2764.439.4268.9146.4268,1.4073,0,1.2656-.9931812,2.4004-2.5541812,3.1513-.5816188,2.3345-1.626,8.9825,1.917,18.6514,1.8333811.9941,2.9793811,2.4067,2.9793811,3.9761,0,.3301-.0522.6557-.1479.9692,4.4232999,3.8565,4.3363999,8.7246,4.3363999,8.7246-.0556,4.3277-6.1215998,7.8365-13.6063997,7.8365-7.4799998,0-13.5492997-3.5088-13.5571997-7.8365-.0234,0-.1112817-4.8579,4.2963999-8.7094-.1001-.3184-.1523-.6485-.1523-.9844,0-1.6172,1.2168-3.0723,3.1547999-4.0689,3.4628999-9.518,2.4823999-16.0952,1.9013-18.4843-1.6543-.75-2.7157999-1.9161-2.7157999-3.2256Z" fill="url(#New_Gradient_254)" stroke="#000" stroke-linecap="round" stroke-linejoin="round" stroke-width="4"/>
    <path d="M80.250481,63.5698c-.0112,4.3277-6.0771998,7.8365-13.5619997,7.8365-7.4799998,0-13.5492997-3.5088-13.5571997-7.8365-.0262817,0-.1167-5.2964,4.9091999-9.2163h17.3217996c5.0268999,3.9199,4.9325999,9.2163,4.9325999,9.2163h-.0444Z" fill="url(#New_Gradient_255)"/>
    <path d="M66.6884813,48.4272c5.2015999,0,9.4178998,2.439,9.4178998,5.4488,0,3.0107-4.2162999,5.4502-9.4178998,5.4502-5.2006999,0-9.4130998-2.4395-9.4130998-5.4502,0-3.0098,4.2123999-5.4488,9.4130998-5.4488Z" fill="url(#New_Gradient_256)"/>
    <path d="M74,52.1162h-.1206188c.0176188.1226.0283.2461.0283.3721,0,2.3071-3.2323999,4.1748-7.2191998,4.1748-3.9828999,0-7.2143998-1.8677-7.2143998-4.1748,0-.5674.1934-1.104.5469185-1.5943,4.9906814-12.7739,2.0204815-20.5673,2.0204815-20.5673h9.4395185s-3.1617187,8.2929,2.519,21.7895Z" fill="url(#New_Gradient_257)"/>
    <path d="M66.6884813,24.0034c3.9081999,0,7.0756998,1.8325,7.0756998,4.0938,0,2.2612-3.1674999,4.0942-7.0756998,4.0942-3.9028999,0-7.0727998-1.833-7.0727998-4.0942,0-2.2613,3.1698999-4.0938,7.0727998-4.0938Z" fill="url(#New_Gradient_258)"/>
    <path d="M66.7943813,12.8276c4.6801999,0,8.4721998,3.7935,8.4721998,8.4751,0,4.6807-3.7919999,8.4751-8.4721998,8.4751-4.6800999,0-8.4725998-3.7944-8.4725998-8.4751,0-4.6816,3.7924999-8.4751,8.4725998-8.4751Z" fill="url(#New_Gradient_259)"/>
    <path d="M64.6298814,15.4907c1.6138,0,2.9242999,1.3106,2.9242999,2.9258,0,1.6123-1.3105,2.9229-2.9242999,2.9229s-2.9223999-1.3106-2.9223999-2.9229c0-1.6152,1.3086-2.9258,2.9223999-2.9258Z" fill="url(#New_Gradient_260)"/>
    <path d="M63.8373814,33.7656s1.1709,8.8316-2.8764999,18.2891c0,0-.1997,2.2344,4.0473999,2.5557,2.1181999-10.5225,1.6938-20.3121,1.6938-20.3121l-2.8646999-.5327Z" fill="url(#New_Gradient_261)" fill-rule="evenodd"/>
    <path d="M54.3822817,63.3232c-.1102817,2.4478,3.8090999,5.0997,7.1127998,5.7388,0,0,.1065-4.7798,1.5957-8.6055,0,0-3.7137814-.4243-5.8475999-3.1958-2.4365999,2.2388-2.8608999,6.0625-2.8608999,6.0625Z" fill="url(#New_Gradient_262)" fill-rule="evenodd"/>
  </g>
</svg>