<?xml version='1.0' encoding='UTF-8'?>
<svg xmlns="http://www.w3.org/2000/svg" xmlns:xlink="http://www.w3.org/1999/xlink" id="Layer_1" data-name="Layer 1" width="16" height="16" viewBox="0 0 16 16">
  <defs>
    <linearGradient id="New_Gradient_253" data-name="New Gradient 253" x1="8.3706902" y1="4.7357008" x2="8.3706902" y2="12.2376142" gradientUnits="userSpaceOnUse">
      <stop offset="0" stop-color="#e5e5e5"/>
      <stop offset="1" stop-color="#fff"/>
    </linearGradient>
    <linearGradient id="New_Gradient_253-2" data-name="New Gradient 253" x1="8.5685856" y1="6.9783636" x2="8.5685856" y2="14.4806364" gradientUnits="userSpaceOnUse"><stop offset="0" stop-color="#e5e5e5"/><stop offset="1" stop-color="#fff"/></linearGradient>
    <mask id="mask" x="2.5884252" y="6.9783636" width="13.6615748" height="7.5022728" maskUnits="userSpaceOnUse">
      <path d="M14.1317968,13.0186l-5.7811999,1.458c-.0947.0234-.395-.0596-.4639-.1289l-5.1078999-5.1031c-.3276-.3266-.2202-.7094.2285-.8203l5.8007999-1.4419c.0947-.0234.394.0596.4629031.1289l5.0878968,5.0879c.3262.3257.2202.7075-.2271.8194Z" fill="#fff"/>
    </mask>
    <linearGradient id="New_Gradient_253-3" data-name="New Gradient 253" x1="8.5685856" y1="6.9783636" x2="8.5685856" y2="14.4806364" gradientUnits="userSpaceOnUse"><stop offset="0" stop-color="#e5e5e5"/><stop offset="1" stop-color="#fff"/></linearGradient>
    <radialGradient id="New_Gradient_254" data-name="New Gradient 254" cx="26.4160825" cy="10.7401448" fx="26.4160825" fy="10.7401448" r="8.3393896" gradientTransform="translate(-14.3816 -.7736) scale(1.0431)" gradientUnits="userSpaceOnUse">
      <stop offset="0" stop-color="#d9d9d9"/>
      <stop offset="1" stop-color="#4c4c4c"/>
    </radialGradient>
    <radialGradient id="New_Gradient_255" data-name="New Gradient 255" cx="26.8563947" cy="12.2273512" fx="26.8563947" fy="12.2273512" r="4.210896" gradientTransform="translate(-14.3816 -.7736) scale(1.0431)" gradientUnits="userSpaceOnUse">
      <stop offset="0" stop-color="#e5e5e5"/>
      <stop offset="1" stop-color="#666"/>
    </radialGradient>
    <radialGradient id="New_Gradient_256" data-name="New Gradient 256" cx="24.0401413" cy="9.742044" fx="24.0401413" fy="9.742044" r="2.65306" gradientTransform="translate(-14.3816 -.7736) scale(1.0431)" gradientUnits="userSpaceOnUse">
      <stop offset="0" stop-color="#fff"/>
      <stop offset="1" stop-color="gray"/>
    </radialGradient>
    <linearGradient id="New_Gradient_257" data-name="New Gradient 257" x1="13.0751968" y1="7.635" x2="10.4057969" y2="7.635" gradientUnits="userSpaceOnUse">
      <stop offset="0" stop-color="#ccc"/>
      <stop offset="1" stop-color="#737373"/>
    </linearGradient>
    <radialGradient id="New_Gradient_258" data-name="New Gradient 258" cx="24.2870645" cy="5.2378216" fx="24.2870645" fy="5.2378216" r="1.9940378" gradientTransform="translate(-14.3816 -.7736) scale(1.0431)" gradientUnits="userSpaceOnUse">
      <stop offset="0" stop-color="#e5e5e5"/>
      <stop offset=".044937" stop-color="#fff"/>
      <stop offset="1" stop-color="#737373"/>
    </radialGradient>
    <radialGradient id="New_Gradient_259" data-name="New Gradient 259" cx="25.5309151" cy="4.6680208" fx="25.5309151" fy="4.6680208" r="2.0082627" gradientTransform="translate(-14.3816 -.7736) scale(1.0431)" gradientUnits="userSpaceOnUse">
      <stop offset="0" stop-color="#fff"/>
      <stop offset="1" stop-color="#737373"/>
    </radialGradient>
    <radialGradient id="New_Gradient_260" data-name="New Gradient 260" cx="24.6717447" cy="3.6432269" fx="24.6717447" fy="3.6432269" r=".5150273" gradientTransform="translate(-14.3816 -.7736) scale(1.0431)" gradientUnits="userSpaceOnUse">
      <stop offset="0" stop-color="#f2f2f2"/>
      <stop offset="1" stop-color="#ccc"/>
    </radialGradient>
    <radialGradient id="New_Gradient_261" data-name="New Gradient 261" cx="24.0244768" cy="9.9478621" fx="24.0244768" fy="9.9478621" r="3.6254181" gradientTransform="translate(-14.3816 -.7736) scale(1.0431)" gradientUnits="userSpaceOnUse">
      <stop offset="0" stop-color="#fff"/>
      <stop offset="1" stop-color="#999"/>
    </radialGradient>
    <radialGradient id="New_Gradient_262" data-name="New Gradient 262" cx="22.8658702" cy="11.8850698" fx="22.8658702" fy="11.8850698" r="1.5344479" gradientTransform="translate(-14.3816 -.7736) scale(1.0431)" gradientUnits="userSpaceOnUse">
      <stop offset="0" stop-color="#e5e5e5"/>
      <stop offset="1" stop-color="#999"/>
    </radialGradient>
  </defs>
  <g>
    <path d="M13.9340968,10.7764l-5.7812999,1.457c-.0952.0239-.3945-.0586-.4643-.1279L2.5810971,7.002c-.3272-.3267-.2207-.7095.2285-.8204l5.8007999-1.4419c.0942-.0234.3945.0606.4624.1294l5.0882999,5.0879c.3257.3257.2198.708-.227.8194Z" fill="url(#New_Gradient_253)" stroke="#000" stroke-linecap="round" stroke-linejoin="round" stroke-width="2"/>
    <g>
      <path d="M13.9340968,10.7764l-5.7812999,1.457c-.0952.0239-.3945-.0586-.4643-.1279L2.5810971,7.002c-.3272-.3267-.2207-.7095.2285-.8204l5.8007999-1.4419c.0942-.0234.3945.0606.4624.1294l5.0882999,5.0879c.3257.3257.2198.708-.227.8194Z" fill="url(#New_Gradient_253)"/>
      <polygon points="6.783197 8.5337 6.967297 6.9985 9.5136969 7.8232 9.3300969 9.3584 6.783197 8.5337" fill="red"/>
      <path d="M3.8041971,6.7974c-.0073-.0035-.0131971-.0074-.019-.0083-.0049-.0025-.0083-.003-.0108-.0025-.0019.0005-.0039.003-.0039.0064,0,.0039.0015029.0078.0034.0136l.0952.2373v.0025c.002.0034.0035.0058.0044.0068.002.0025.0054.0034.0103.0039.0039,0,.0098-.0005.0166-.0019l.2324-.0572c.0078-.0019.0127-.0039.0147-.0058.0029-.002.0029-.0049,0-.0073-.003-.0035-.0059-.0054-.0083-.0078-.0025-.002-.0044-.004-.0074-.0054l-.3276-.1743ZM3.7880971,6.5317l.9936.5288c.0464.0264.087.0455.1206.0567.0332.0122.064.0181.0918.0195.0108.001.025903-.001.045903-.0039.044497-.0039.073797.001.087897.0156.0083.0079.0098.0147.0039.0205-.0063.0054-.0214.0108-.0459.0171-.001897.0005-.0322.0064-.0888.0171-.0567.0108-.1114.0225-.162097.0342-.044.0107-.0953029.0254-.1529029.0425-.0580971.0171-.0937.0273-.1084.0317-.019.0039-.0346.0054-.0464.0049-.0117-.0015-.0214-.0068-.0292971-.0146-.0156029-.0157-.0053029-.0308.0312971-.0455.0361-.0141.0469-.0297.0303-.0459-.003-.0029-.0069-.0063-.0122-.0102-.0043971-.0034-.0103-.0068-.0176-.0107l-.2212-.1236c-.0181-.0102-.0395971-.0141-.0635-.0127-.0239.0015-.082.0132-.1738.0357-.085.0205-.1348.0351-.1484.0429-.0157.0083-.0186.0215-.0103.0401.0142.0322.0269.0581.0391.0801.0122.0214.0229.0371.0327.0478.018.0171.0366029.0288.0566029.0347.0214971.0063.0507971.0083.0893971.0078.0132-.0005.0307-.001.0532-.0015.0478-.0039.0776.0015.0913.0156.0093.0088.0107.0152.0078.0201-.0034.0044-.0151.0092-.0346971.0136-.0039029.0015-.0073029.0015-.0097029.0025h-.0078c-.0044.001-.0127.0029-.0254.0053-.064.0113-.1226.023-.1758.0362-.0371.0088-.0762.021-.1191.0356-.0079.002-.0131971.0044-.0166.0054-.003.0015-.0049.0024-.0069.0034-.0029.0005-.0058.002-.0083.0025-.0166.0034-.0303.0044-.0405.0029-.0108-.0015-.0195-.0054-.0264-.0132-.0156-.0146-.0097-.0298.0176-.0459.0117-.0054.019-.0098.0234-.0127.0137-.0093.0205029-.0205.022-.0351.0015029-.0142-.0019-.0342-.0107-.0591l-.2603-.7427c-.0078-.0234-.0088-.0396-.0034-.0493.0059029-.0098.022-.0181.0493-.0244.0254-.0059.0449-.0083.0586029-.0054.0136971.0019.04.0142.0800971.0356Z" fill="red" fill-rule="evenodd"/>
      <path d="M12.7020968,10.0879c.0069032.0039.0127.0068.0186.0088.0049.0014.0078.0029.0107.0019.002-.0005.003-.0029.003-.0063.0005-.0034,0-.0078-.003-.0132l-.0937-.2344s0-.0014-.001-.0029c-.0005-.0029-.0019-.0054-.0034-.0064-.0024-.0019-.0054-.0034-.0092969-.0043-.0049031.0009-.0102031.0014-.0171031.0029l-.229.0556c-.0078.002-.0127.004-.0156.0064-.0019.0015-.0019.0044,0,.0068.0034.0035.0068.0059.0088.0078.0024.0025.0049031.004.0068.0054l.3242.1719ZM12.7177968,10.3506l-.9815-.5225c-.0459-.0254-.0859-.0444-.1191-.0566-.0331969-.0112-.0635-.0171-.0903-.0186-.0108-.0005-.0258969.001-.0458969.0039-.0435031.0039-.0723031-.0009-.0865031-.0156-.0078-.0078-.0088-.0146-.0039-.0195.0064031-.0059.021-.0113.0454031-.0171.0024969-.0005.0317969-.0064.0878969-.0171.0562-.0107.1099-.022.1597-.0347.0439-.0107.0947-.0239.1514031-.041.0565969-.0171.0926969-.0278.1068969-.0312.019-.0039.0337-.0054.0454-.0044.0117031.0009.0215.0058.0293.0136.0156.0157.0059.0303-.0308.045-.0361.0146-.0463.0298-.0302.0454.0029.0034.0073.0068.0122.0102.0049.003.0107.0069.0171.0108l.2192.122c.0176.0093.0391.0137.0625.0122.0234031-.0014.0806-.0126.1719-.0351.083-.02.1323-.0347.1465031-.043.0145969-.0073.018-.0205.0096969-.039-.0136-.0313-.0263-.0572-.0381-.0787-.0122-.0214-.0234-.0375-.0327-.0468-.0171-.0176-.0366-.0293-.0561-.0352-.0215-.0058-.0503-.0083-.0879-.0078-.0127.001-.0303.001-.0528.002-.0468.0029-.0766-.002-.0903-.0157-.0083-.0083-.0107-.0146-.0073-.0195.0029-.0049.0146-.0088.0342-.0137.0039-.0014.0068-.0019.0088-.0024.0029,0,.0058-.0005.0078-.0005.0049-.001.0132-.0024.0254-.0044.0634-.0112.1215-.0239.1728-.0366.0376-.0088.0767-.0205.1182-.0342.0078-.0029.0137-.0049.0176-.0059.0029-.0014.0048-.0024.0068-.0034.0019031-.0005.0049031-.0014.0073-.0014.0161-.0044.0298-.0059.0401-.0044.0107.0024.0195031.0063.0268.0132.0147032.0146.0088.0297-.0185.0454-.0107969.0058-.0186.0102-.0225.0131-.0132.0083-.0205.0201-.0215.0342-.0019.0147.002.0342.0108.0586l.2558.7334c.0078.0235.0098.0391.0039.0479-.0049.0102-.0215.018-.0482968.0244-.0254032.0068-.0445032.0083-.0576032.0063-.0137-.0024-.0406-.0141-.0796-.0356Z" fill="red" fill-rule="evenodd"/>
    </g>
  </g>
  <path d="M14.1317968,13.0186l-5.7811999,1.458c-.0947.0234-.395-.0596-.4639-.1289l-5.1078999-5.1031c-.3276-.3266-.2202-.7094.2285-.8203l5.8007999-1.4419c.0947-.0234.394.0596.4629031.1289l5.0878968,5.0879c.3262.3257.2202.7075-.2271.8194Z" fill="url(#New_Gradient_253-2)" stroke="#000" stroke-linecap="round" stroke-linejoin="round" stroke-width="2"/>
  <g>
    <g mask="url(#mask)">
      <g>
        <path d="M14.1317968,13.0186l-5.7811999,1.458c-.0947.0234-.395-.0596-.4639-.1289l-5.1078999-5.1031c-.3276-.3266-.2202-.7094.2285-.8203l5.8007999-1.4419c.0947-.0234.394.0596.4629031.1289l5.0878968,5.0879c.3262.3257.2202.7075-.2271.8194Z" fill="url(#New_Gradient_253-3)"/>
        <path d="M12.7230968,9.084c1.8096,0,3.2769032.9175,3.2769032,2.0488,0,1.1323-1.4673032,2.0498-3.2769032,2.0498-1.81,0-3.2767999-.9175-3.2767999-2.0498,0-1.1313,1.4668-2.0488,3.2767999-2.0488Z" fill="#b2b2b2" stroke="#d9d9d9" stroke-miterlimit="3.8637" stroke-width=".5"/>
      </g>
    </g>
    <polygon points="6.857897 10.7754 7.041497 9.2412 9.5878969 10.0659 9.4042969 11.6006 6.857897 10.7754" fill="red"/>
    <path d="M4.0014971,9.04c-.0074-.0044-.0132-.0073-.0186-.0087-.0048971-.002-.0083-.0035-.0107-.003-.002.001-.0034.0034-.0034.0069,0,.0039.0014.0083.0029.0136l.0957.2368c-.001.0015-.001.002,0,.003.0014.0034.0029.0053.0039.0068.0019.0025.0054.0039.0098.0044.0043-.0005.0107-.001.0175-.0029l.2325-.0562c.0068-.0019.0117-.0039.0146-.0063.0024-.002.0024-.0049,0-.0073-.0034-.0025-.0063-.0059-.0093-.0074-.0019-.0019-.0043971-.0044-.0073-.0058l-.3276-.1739ZM3.9857971,8.7739l.9937.5288c.0469.0264.0874.0454.1206.0572.0337.0112.064.018.0918.0185.0112.001.0264-.0005.0464-.0024.0439-.0054.0732,0,.0879.0146.007803.0078.008803.0147.0034.0205-.0064.0059-.021.0108-.0459.0171-.0024.0005-.031697.0064-.0894.0171-.0566.0108-.110297.022-.1611.0352-.0449.0107-.0957.0249-.1533.041-.0576.0181-.0938.0283-.1084.0317-.0191.0044-.0342.0064-.0459.0049s-.022-.0059-.0298-.0137c-.0156-.0156-.0054-.0312.0313-.0454.0366-.0146.0468-.0302.0307-.0459-.0034-.0039-.0077971-.0068-.0127-.0102-.0049-.0039-.0102-.0078-.0176-.0113l-.2207-.1235c-.019-.0098-.04-.0142-.0644-.0127-.023.0015-.0811.0132-.1733971.0357-.0849029.021-.1342029.0351-.1489029.0429-.0146.0078-.0185.0215-.0097.0401.0136029.0322.0273.059.039.0805.0117.021.0235.0371.0332.0474.0171.0176.0366.0288.0567.0347.0205.0058.0507029.0087.0888.0083.0127-.001.0308-.0015.0537-.0025.0469-.0029.0772029.0025.0913.0161.0083.0083.0108.0147.0074.0205-.003.0039-.0147.0083-.0347.0137-.0034.0005-.0067971.0015-.0093.0025-.0029,0-.0049,0-.0083.0004-.0044.001-.0121971.002-.0249.0039-.0644.0118-.1225.0235-.1758.0372-.0371.0087-.0771.021-.1191.0351-.0078.0025-.0137.0044-.0176.0054-.0019.0015-.0049.0024-.0067971.0034-.0025029.0005-.0049029.0015-.0073029.002-.0171.0039-.0308.0048-.0406.0039-.0107-.002-.0205-.0059-.0273-.0132-.0151-.0152-.0087971-.0298.0176-.0454.0122-.0059.0195-.0108.0239-.0137.0132-.0093.0205-.0205.022-.0352.0014-.0146-.002-.0341-.0108-.0586l-.2602-.7431c-.0074-.0235-.0088-.0396-.003-.0493.0054-.0093.0215-.0181.0494-.0244.0253029-.0059.0439-.0079.0581-.0054.0136.0019.0405.0141.08.0356Z" fill="red" fill-rule="evenodd"/>
    <path d="M12.9003968,12.3306c.0063.0034.0127.0063.0181.0083.0048.0019.0083.0024.0112.0019.0019-.0005.0029-.0029.0029-.0058,0-.0039-.001-.0088-.0029-.0132l-.0946968-.2344c.0008968-.0005,0-.0015,0-.0029-.001-.0034-.003-.0054-.0039032-.0069-.0015-.0019-.0049-.0034-.0098-.0039-.0039,0-.0098.0005-.0166.0025l-.2295.0561c-.0078.0015-.0127.0034-.0147.0059-.0024.0024-.0024.0044,0,.0073.003.0029.0064.0059.0088.0073.0025.002.0049.0039.0069.0054l.3242.1724ZM12.915,12.5928l-.9804031-.5225c-.0459-.0259-.086-.0439-.1192-.0557-.0337-.0122-.0633969-.018-.0908-.0195-.0107,0-.0264.0005-.0459.0034-.0434.0044-.0723-.0005-.0869-.0151-.0073-.0073-.0083-.0142-.0034-.0195.0063-.0059.021-.0108.0454-.0171.0019-.0005.0322031-.0064.0884-.0171.0561-.0108.1089-.022.1596-.0342.044-.0107.0938-.0244.1504-.042.0572-.0166.0928031-.0264.1074-.0303.0186-.0044.0342-.0058.0459-.0048.0113.0014.0206.0058.0293.0136.0152031.0157.0049.0308-.0312.0459-.0361.0142-.0459.0293-.0303.0445.003.0034.0078.0068.0127031.0102.0043969.0039.0107969.0069.0165969.0112l.2193.1216c.0175.0098.039.0137.0625.0122.0229-.0009.0805-.0122.1718-.0346.0835-.0205.1324-.0347.147-.043.0147-.0078.0176-.0205.0098032-.0391-.0137032-.0317-.0274032-.0581-.0386032-.0796-.0122-.0209-.023-.0366-.0327-.0463-.0176-.0176-.0362-.0293-.0566968-.0352-.0205031-.0054-.0498031-.0088-.0874031-.0078-.0127.0005-.0302.001-.0522.0024-.0469.003-.0772-.0024-.0908-.0161-.0083-.0078-.0108-.0146-.0074-.0195.0035-.0039.0147-.0088.0342-.0142.0034-.0005.0064-.0014.0093-.0024h.0078c.0044-.001.0132-.0025.0254-.0049.063-.0107.1211031-.0229.1724-.0352.0371-.0092.0766-.0209.1186-.0351.0078-.0024.0137-.0049.0171032-.0059.0024968-.0014.0043968-.0024.0063968-.0029.0029-.001.0053-.0019.0078-.0024.0166-.0035.0302-.0044.04-.0035.0112.0015.0195.0059.0269.0132.0151.0147.0088.0298-.0180968.0445-.0112032.0058-.0186032.0107-.0234032.0136-.0122.0088-.0195968.0205-.0215.0352-.0015.0137.0019032.0332.0107.0581l.2569.7334c.0078.022.0087.0386.0039.0483-.0059.0093-.022.0176-.0489.024-.0254.0063-.0449.0083-.0576.0058-.0137-.0024-.04-.0141-.0800968-.0356Z" fill="red" fill-rule="evenodd"/>
  </g>
  <g>
    <path d="M10.4315969,4.8057c0-.1006.0347-.1968.0967-.2842-.2099-.2656-.334-.6001-.334-.9644,0-.8598.6968-1.5571,1.5567031-1.5571.8602969,0,1.5565968.6973,1.5565968,1.5571,0,.376-.1328.7207-.3545.9898.0508.081.0791.1684.0791.2588,0,.2324-.1826.4414-.4697.5796-.1069.4282-.2988,1.6499.3521,3.4267.3374032.1831.5473.4424.5473.731,0,.0605-.0098.1201-.0273.1777.8134032.709.7973,1.603.7973,1.603-.0102.7954-1.1245,1.4405-2.5004999,1.4405-1.374,0-2.4896999-.6451-2.4911999-1.4405-.0039,0-.0205-.8925.7896-1.6001-.0181-.0586-.0277969-.1191-.0277969-.1806,0-.2979.2235969-.565.5794969-.7476.6363-1.7495.4561-2.958.3492-3.397-.3036969-.1377-.4991-.3515-.4991-.5927Z" fill="url(#New_Gradient_254)" stroke="#000" stroke-linecap="round" stroke-linejoin="round" stroke-width="2"/>
    <path d="M14.2235968,11.3237c-.0019.7954-1.1162,1.4405-2.4921999,1.4405-1.374,0-2.4896999-.6451-2.4911999-1.4405-.0048,0-.0214-.9731.9024-1.6933h3.1825999c.9238032.7202.9067,1.6933.9067,1.6933h-.0083Z" fill="url(#New_Gradient_255)"/>
    <path d="M11.7313969,8.5415c.9561,0,1.7305.4487,1.7305,1.0015,0,.5527-.7744,1.0014-1.7305,1.0014-.955,0-1.7293969-.4487-1.7293969-1.0014,0-.5528.7743969-1.0015,1.7293969-1.0015Z" fill="url(#New_Gradient_256)"/>
    <path d="M13.0751968,9.2192h-.0225c.0035.0225.0054.0454.0054.0684,0,.4243-.5942.7671-1.3267.7671-.7319,0-1.3256-.3428-1.3256-.7671,0-.104.0356-.2026.1005-.2925.917-2.3476.3716-3.7798.3716-3.7798h1.7344s-.581,1.524.4629,4.0039Z" fill="url(#New_Gradient_257)"/>
    <path d="M11.7313969,4.0537c.7183,0,1.3008.3369,1.3008.752,0,.4155-.5825.7529-1.3008.7529-.7168,0-1.2998-.3374-1.2998-.7529,0-.4151.583-.752,1.2998-.752Z" fill="url(#New_Gradient_258)"/>
    <path d="M11.751,2c.8602969,0,1.5565968.6973,1.5565968,1.5571,0,.8604-.6963,1.5572-1.5565968,1.5572-.8599031,0-1.5567031-.6968-1.5567031-1.5572,0-.8598.6968-1.5571,1.5567031-1.5571Z" fill="url(#New_Gradient_259)"/>
    <path d="M11.3534969,2.4893c.2964,0,.5371.2407.5371.5376,0,.2963-.2407.5371-.5371.5371-.2969,0-.5371-.2408-.5371-.5371,0-.2969.2402-.5376.5371-.5376Z" fill="url(#New_Gradient_260)"/>
    <path d="M11.208,5.8477s.2148969,1.6225-.5293031,3.3603c0,0-.0361.4107.7442.4697.3891031-1.9336.3115-3.7324.3115-3.7324l-.5263969-.0976Z" fill="url(#New_Gradient_261)" fill-rule="evenodd"/>
    <path d="M9.4701969,11.2788c-.02.4497.6997.937,1.3071,1.0542,0,0,.0196-.8784.293-1.581,0,0-.6821-.0782-1.0742-.5874-.4482.4116-.5259,1.1142-.5259,1.1142Z" fill="url(#New_Gradient_262)" fill-rule="evenodd"/>
  </g>
</svg>