<?xml version='1.0' encoding='UTF-8'?>
<svg xmlns="http://www.w3.org/2000/svg" xmlns:xlink="http://www.w3.org/1999/xlink" id="Layer_1" data-name="Layer 1" width="16" height="16" viewBox="0 0 16 16">
  <defs>
    <linearGradient id="New_Gradient_171" data-name="New Gradient 171" x1="-169.4552898" y1="86.7380778" x2="-164.3584425" y2="91.1686996" gradientTransform="translate(188.9977 -47.4736) rotate(21.7566897) scale(.7613325 1.3134613) skewX(-17.300561)" gradientUnits="userSpaceOnUse">
      <stop offset="0" stop-color="#e5e5e5"/>
      <stop offset="1" stop-color="#fff"/>
    </linearGradient>
    <mask id="mask" x="1.4023" y="2.667" width="13.3525972" height="6.8525" maskUnits="userSpaceOnUse">
      <path d="M6.0150974,9.5195c2.9135999-.7397,5.8266999-1.4795,8.7397998-2.2197-1.8633-1.8525-2.7948972-2.7798-4.6591999-4.6328-2.8983999.7544-5.7958999,1.5107-8.6933973,2.2656,1.8453,1.835,2.7675975,2.7529,4.6127974,4.5869Z" fill="#fff" fill-rule="evenodd"/>
    </mask>
    <linearGradient id="New_Gradient_171-2" data-name="New Gradient 171" x1="5.4598798" y1="3.837001" x2="10.7070938" y2="8.3983346" gradientTransform="matrix(1,0,0,1,0,0)" gradientUnits="userSpaceOnUse"><stop offset="0" stop-color="#e5e5e5"/><stop offset="1" stop-color="#fff"/></linearGradient>
    <mask id="mask-1" x="2.2617" y="3.189" width="11.5725188" height="6.1347" maskUnits="userSpaceOnUse">
      <path d="M5.9384974,8.395c2.8187999-.7207,4.2285026-1.081,7.0468998-1.8027-1.2452-1.2378-1.8672-1.8565-3.1123972-3.0943-2.811.7281-4.2167026,1.0928-7.0283,1.8218,1.2373,1.23,1.8564975,1.8452,3.0937974,3.0752Z" fill="#fff" fill-rule="evenodd" stroke="#fff" stroke-miterlimit="3.8637" stroke-width=".475"/>
    </mask>
    <mask id="mask-2" x="2.2617" y="3.189" width="8.7724973" height="6.1347" maskUnits="userSpaceOnUse">
      <path d="M10.1684973,3.189c-2.6342999.6616-5.2714973,1.3203-7.9067973,1.9829,1.6748,1.6606,2.5116975,2.4912,4.1855974,4.1518.4917026-.2026.7373-.3051,1.2285-.5092-1.2154-1.2295-1.8223-1.8448-3.0385999-3.0752,2.5580999-.6553,3.8378999-.983,6.3969998-1.6382-.3461973-.3643-.5186-.5474-.8657-.9121Z" fill="#fff" fill-rule="evenodd"/>
    </mask>
    <mask id="mask-3" x="2.199518" y="6.527866" width="10.26719" height="8.8420612" maskUnits="userSpaceOnUse">
      <path d="M6.8080974,7.6152c2.4604999.1455,4.3881999,1.7012,4.3061999,3.4766-.0826,1.7734-2.1440999,3.0947-4.6054999,2.9487-2.4613999-.145-4.3896974-1.7011-4.3066974-3.4751.0826-1.7744,2.1445975-3.0957,4.6059974-2.9502Z" fill="#fff" fill-rule="evenodd"/>
    </mask>
    <linearGradient id="linear-gradient" x1="2.5882249" y1="12.8311837" x2="10.8035428" y2="8.7880515" gradientUnits="userSpaceOnUse">
      <stop offset="0" stop-color="#2c6eb2"/>
      <stop offset=".213483" stop-color="#fff"/>
    </linearGradient>
    <linearGradient id="linear-gradient-2" x1="1.8145783" y1="14.8804184" x2="11.7923253" y2="10.6656735" gradientUnits="userSpaceOnUse">
      <stop offset="0" stop-color="#fff"/>
      <stop offset=".0659937" stop-color="#d7d9e1"/>
      <stop offset=".1372393" stop-color="#b5b8c7"/>
      <stop offset=".2162204" stop-color="#989bb1"/>
      <stop offset=".3033519" stop-color="#80849f"/>
      <stop offset=".4021126" stop-color="#6e7291"/>
      <stop offset=".5192141" stop-color="#616687"/>
      <stop offset=".672578" stop-color="#5a5f81"/>
      <stop offset="1" stop-color="#585d80"/>
    </linearGradient>
    <mask id="mask-4" x="2.199518" y="6.3137281" width="10.2944843" height="7.9048445" maskUnits="userSpaceOnUse">
      <path d="M6.8080974,7.3032c2.4604999.1299,4.3881999,1.5122,4.3061999,3.0884-.0826,1.5767-2.1440999,2.75-4.6054999,2.6211s-4.3896974-1.5122-4.3066974-3.0884c.0826-1.5766,2.1445975-2.7505,4.6059974-2.6211Z" fill="#fff" fill-rule="evenodd"/>
    </mask>
    <linearGradient id="linear-gradient-3" x1=".4104308" y1="14.1969101" x2="8.9306242" y2="8.6889146" gradientUnits="userSpaceOnUse">
      <stop offset="0" stop-color="#fff"/>
      <stop offset=".193443" stop-color="#c3dffc"/>
      <stop offset=".5249655" stop-color="#62abf7"/>
      <stop offset=".674157" stop-color="#3c97f6"/>
    </linearGradient>
    <linearGradient id="linear-gradient-4" x1="2.9088266" y1="14.1514851" x2="10.3065439" y2="10.9257426" gradientUnits="userSpaceOnUse">
      <stop offset="0" stop-color="#fff"/>
      <stop offset=".5218671" stop-color="#a7abcf"/>
      <stop offset=".780899" stop-color="#8187ba"/>
    </linearGradient>
  </defs>
  <g>
    <path d="M6.0150974,9.5195c2.9135999-.7397,5.8266999-1.4795,8.7397998-2.2197-1.8633-1.8525-2.7948972-2.7798-4.6591999-4.6328-2.8983999.7544-5.7958999,1.5107-8.6933973,2.2656,1.8453,1.835,2.7675975,2.7529,4.6127974,4.5869Z" fill="url(#New_Gradient_171)" fill-rule="evenodd" stroke="#000" stroke-linecap="round" stroke-linejoin="round" stroke-width="2"/>
    <g mask="url(#mask)">
      <path d="M6.0150974,9.5195c2.9135999-.7397,5.8266999-1.4795,8.7397998-2.2197-1.8633-1.8525-2.7948972-2.7798-4.6591999-4.6328-2.8983999.7544-5.7958999,1.5107-8.6933973,2.2656,1.8453,1.835,2.7675975,2.7529,4.6127974,4.5869Z" fill="url(#New_Gradient_171-2)" fill-rule="evenodd"/>
    </g>
    <g mask="url(#mask-1)">
      <g>
        <g mask="url(#mask-2)">
          <path d="M10.1684973,3.189c-2.6342999.6616-5.2714973,1.3203-7.9067973,1.9829,1.6748,1.6606,2.5116975,2.4912,4.1855974,4.1518.4917026-.2026.7373-.3051,1.2285-.5092-1.2154-1.2295-1.8223-1.8448-3.0385999-3.0752,2.5580999-.6553,3.8378999-.983,6.3969998-1.6382-.3461973-.3643-.5186-.5474-.8657-.9121Z" fill="#b7e9ff" fill-rule="evenodd"/>
        </g>
        <path d="M11.1356973,4.0742c-2.6942999.7031-5.3876973,1.4063-8.0824973,2.1079,2.6948-.7016,5.3881974-1.4048,8.0824973-2.1079Z" fill="none" fill-rule="evenodd" stroke="#999" stroke-miterlimit="3.8637" stroke-width=".475"/>
        <path d="M11.7948973,4.6533c-2.6971999.6992-5.3939999,1.4004-8.0912973,2.0996,2.6972974-.6992,5.3940973-1.4004,8.0912973-2.0996Z" fill="none" fill-rule="evenodd" stroke="#999" stroke-miterlimit="3.8637" stroke-width=".475"/>
        <path d="M12.4555973,5.2319c-2.7006999.6988-5.4008999,1.396-8.1015973,2.0933,2.7006974-.6973,5.4008973-1.3945,8.1015973-2.0933Z" fill="none" fill-rule="evenodd" stroke="#999" stroke-miterlimit="3.8637" stroke-width=".475"/>
        <path d="M13.1151972,5.8115c-2.7030999.6953-5.4066999,1.3902-8.1097998,2.0845,2.7030999-.6943,5.4066999-1.3892,8.1097998-2.0845Z" fill="none" fill-rule="evenodd" stroke="#999" stroke-miterlimit="3.8637" stroke-width=".475"/>
        <path d="M13.7753972,6.3911c-2.7065999.6919-5.4130999,1.3843-8.1186998,2.0762,2.7055999-.6919,5.4120999-1.3843,8.1186998-2.0762Z" fill="none" fill-rule="evenodd" stroke="#999" stroke-miterlimit="3.8637" stroke-width=".475"/>
        <path d="M5.9384974,8.395c2.8187999-.7207,4.2285026-1.081,7.0468998-1.8027-1.2452-1.2378-1.8672-1.8565-3.1123972-3.0943-2.811.7281-4.2167026,1.0928-7.0283,1.8218,1.2373,1.23,1.8564975,1.8452,3.0937974,3.0752Z" fill="none" fill-rule="evenodd" stroke="#999" stroke-miterlimit="3.8637" stroke-width=".475"/>
      </g>
    </g>
    <path d="M3.9512,5.0815c1.2211974,1.2164,1.8324974,1.8248,3.0546974,3.0406" fill="none" stroke="#999" stroke-miterlimit="3.8637" stroke-width=".5"/>
    <path d="M5.7670974,4.5439c1.2456,1.2398,1.8686,1.8584,3.1137999,3.0987" fill="none" stroke="#999" stroke-miterlimit="3.8637" stroke-width=".5"/>
    <path d="M7.7841974,4.0371c1.2431,1.2363,1.8652,1.8545,3.1073999,3.0918" fill="none" stroke="#999" stroke-miterlimit="3.8637" stroke-width=".5"/>
  </g>
  <g>
    <path d="M11.1142973,10.3916c.082-1.5762-1.8457-2.9585-4.3061999-3.0884-2.4613999-.1294-4.5233974,1.0445-4.6059974,2.6211-.0078.1382.001.273.0235.4068-.0112.0771-.0195.1543-.0235.2343-.083,1.774,1.8452975,3.3301,4.3066974,3.4751,2.4613999.146,4.5228999-1.1753,4.6054999-2.9487.0078-.1611-.0025-.3213-.0264-.4771.0127-.0732.0225-.1479.0264-.2231Z" fill="#2c6eb2" fill-rule="evenodd" stroke="#000" stroke-width="2"/>
    <g mask="url(#mask-3)">
      <g>
        <path d="M6.8080974,7.6152c2.4604999.1455,4.3881999,1.7012,4.3061999,3.4766-.0826,1.7734-2.1440999,3.0947-4.6054999,2.9487-2.4613999-.145-4.3896974-1.7011-4.3066974-3.4751.0826-1.7744,2.1445975-3.0957,4.6059974-2.9502Z" fill="url(#linear-gradient)" fill-rule="evenodd"/>
        <polygon points="3.6396 10.814 3.6484 13.4863 9.147 15.0786 12 10.7568 3.6396 10.814" fill="url(#linear-gradient-2)" fill-rule="evenodd" stroke="#585d80" stroke-width=".5"/>
        <polygon points="6.5800974 10.7568 7.4413974 6.8994 11.7602973 9.1406 6.5800974 10.7568" fill="#ff7845" fill-rule="evenodd" stroke="#000" stroke-width=".5"/>
      </g>
    </g>
    <g mask="url(#mask-4)">
      <g>
        <path d="M6.8080974,7.3032c2.4604999.1299,4.3881999,1.5122,4.3061999,3.0884-.0826,1.5767-2.1440999,2.75-4.6054999,2.6211s-4.3896974-1.5122-4.3066974-3.0884c.0826-1.5766,2.1445975-2.7505,4.6059974-2.6211Z" fill="url(#linear-gradient-3)" fill-rule="evenodd"/>
        <polygon points="6.5800974 10.0474 3.2671 12.4224 9.147 13.9346 12 10.0947 6.5800974 10.0474" fill="url(#linear-gradient-4)" fill-rule="evenodd" stroke="#8187ba" stroke-width=".5"/>
        <polygon points="6.5800974 10.0947 11.8563973 10.5259 10.8983973 8.3428 6.5800974 10.0947" fill="#65d081" fill-rule="evenodd" stroke="#4b995f" stroke-width=".5"/>
        <polygon points="6.5800974 10.0947 7.4413974 6.667 11.7602973 8.6592 6.5800974 10.0947" fill="#ff7845" fill-rule="evenodd" stroke="#cc6037" stroke-width=".5"/>
      </g>
    </g>
  </g>
</svg>