<?xml version='1.0' encoding='UTF-8'?>
<svg xmlns="http://www.w3.org/2000/svg" xmlns:xlink="http://www.w3.org/1999/xlink" id="Layer_7" data-name="Layer 7" width="16" height="16" viewBox="0 0 16 16">
  <defs>
    <mask id="mask" x="5.6347514" y="3.0015" width="9.4710935" height="7.63297" maskUnits="userSpaceOnUse">
      <path d="M6.677695,6.6465l.613305-1.711s-.016605-.1225.268595-.1499c.2656-.0253.9121-.1879,1.7851-.372.8623051-.1812,1.4248-.3736,1.7041-.3902.2803-.0166.4004.1856.4004.1856,0,0,.3721.374.8838051.8701.7333948.71,1.1483948.873,1.2157948,1.1616.045.1983.5479,2.0357.5479,2.0357,0,0,.0644.1924-.1485.27-.958.2363-4.1268999,1.0264-4.2938999,1.0664-.1982.0478-.3622949.0356-.5977-.2363-.1405949-.1621-1.7714-1.7036-2.3124999-2.3521-.1982-.2036-.0664-.3779-.0664-.3779Z" fill="#fff" fill-rule="evenodd" stroke="#fff" stroke-miterlimit="3.8637" stroke-width="2"/>
    </mask>
    <linearGradient id="New_Gradient_241" data-name="New Gradient 241" x1="9.3378229" y1="4.067844" x2="11.0512382" y2="9.6721731" gradientUnits="userSpaceOnUse">
      <stop offset="0" stop-color="#e5e5e5"/>
      <stop offset="1" stop-color="#b2b2b2"/>
    </linearGradient>
    <linearGradient id="New_Gradient_269" data-name="New Gradient 269" x1="11.7905216" y1="5.7209157" x2="11.9389758" y2="9.9720881" gradientUnits="userSpaceOnUse">
      <stop offset="0" stop-color="#ccc"/>
      <stop offset="1" stop-color="#999"/>
    </linearGradient>
    <linearGradient id="New_Gradient_268" data-name="New Gradient 268" x1="9.949527" y1="2.9648521" x2="10.4797713" y2="7.2833455" gradientUnits="userSpaceOnUse">
      <stop offset="0" stop-color="#b2b2b2"/>
      <stop offset="1" stop-color="#fff"/>
    </linearGradient>
    <mask id="mask-1" x="6.6347514" y="3.0015" width="7.8886434" height="6.896" maskUnits="userSpaceOnUse">
      <path d="M6.677695,6.6465l.613305-1.711s-.016605-.1225.268595-.1499c.2656-.0253.8925-.1626,1.7851-.372.8584-.2007,1.4248-.3736,1.7041-.3902.2803-.0166.4004.1856.4004.1856,0,0,.2588051.4873,1.0791,1.3491.794.8359.8965.3203,1.0205.6826.0655.1929.5479,2.0357.5479,2.0357,0,0,.0644.1924-.1485.27-.958.2363-4.1268999,1.0264-4.2938999,1.0664-.1982.0478-.3622949.0356-.5977-.2363-.1405949-.1621-1.7714-1.7036-2.3124999-2.3521-.1982-.2036-.0664-.3779-.0664-.3779Z" fill="#fff" fill-rule="evenodd"/>
    </mask>
    <linearGradient id="New_Gradient_241-2" data-name="New Gradient 241" x1="9.3361643" y1="4.0631942" x2="11.0495796" y2="9.6675232" gradientUnits="userSpaceOnUse"><stop offset="0" stop-color="#e5e5e5"/><stop offset="1" stop-color="#b2b2b2"/></linearGradient>
    <linearGradient id="New_Gradient_250" data-name="New Gradient 250" x1="11.7905216" y1="5.7209157" x2="11.9389758" y2="9.9720881" gradientUnits="userSpaceOnUse">
      <stop offset="0" stop-color="#ccc"/>
      <stop offset="1" stop-color="gray"/>
    </linearGradient>
    <linearGradient id="New_Gradient_249" data-name="New Gradient 249" x1="9.949527" y1="2.9648521" x2="10.4797713" y2="7.2833455" gradientUnits="userSpaceOnUse">
      <stop offset="0" stop-color="#b2b2b2"/>
      <stop offset=".859558" stop-color="#fff"/>
      <stop offset="1" stop-color="#fff"/>
    </linearGradient>
    <linearGradient id="New_Gradient_240" data-name="New Gradient 240" x1="10.4875583" y1="3.9555355" x2="10.4068668" y2="6.2662371" gradientUnits="userSpaceOnUse">
      <stop offset="0" stop-color="#e5e5e5"/>
      <stop offset=".741577" stop-color="#fff"/>
      <stop offset="1" stop-color="#fff"/>
    </linearGradient>
    <linearGradient id="New_Gradient_238" data-name="New Gradient 238" x1="8.0528955" y1="7.2470242" x2="6.8634807" y2="5.4836441" gradientUnits="userSpaceOnUse">
      <stop offset="0" stop-color="#d9d9d9"/>
      <stop offset=".146072" stop-color="#d9d9d9"/>
      <stop offset=".528091" stop-color="#e5e5e5"/>
      <stop offset="1" stop-color="#fff"/>
    </linearGradient>
    <linearGradient id="New_Gradient_225" data-name="New Gradient 225" x1="8.7024021" y1="8.0024211" x2="9.5972761" y2="7.8925444" gradientUnits="userSpaceOnUse">
      <stop offset="0" stop-color="#ccc"/>
      <stop offset=".561798" stop-color="#ccc"/>
      <stop offset="1" stop-color="#e5e5e5"/>
    </linearGradient>
    <linearGradient id="New_Gradient_224" data-name="New Gradient 224" x1="9.6753577" y1="8.299579" x2="13.9137822" y2="7.5522304" gradientUnits="userSpaceOnUse">
      <stop offset="0" stop-color="#999"/>
      <stop offset=".5" stop-color="#999"/>
      <stop offset=".870789" stop-color="#b2b2b2"/>
      <stop offset="1" stop-color="#d9d9d9"/>
    </linearGradient>
    <mask id="mask-2" x="-.3554485" y="5.4595" width="11.7398692" height="8.1986215" maskUnits="userSpaceOnUse">
      <path d="M.6874951,9.6704l.6133-1.7114s-.0156-.1226.2676-.1499c.2666049-.0249.913-.1875,1.7861-.3716.8623-.1816,3.6933999-.9399,3.9725999-.9561.2803-.0166.4004.1856.4004.1856,0,0,.3721.374.8838.8696.7334.7105,1.1485.8731,1.2158,1.1621.0459051.1983.5479051,2.0357.5479051,2.0357,0,0,.0653949.1924-.1484051.2695-.958.2363-6.3954998,1.5928-6.5634998,1.6328-.1973.0474-.3613.0352-.5967-.2368-.1406-.1621-1.7715-1.7031-2.3124999-2.352-.1982-.2037-.0664-.3775-.0664-.3775Z" fill="#fff" fill-rule="evenodd" stroke="#fff" stroke-miterlimit="3.8637" stroke-width="2"/>
    </mask>
    <linearGradient id="New_Gradient_241-3" data-name="New Gradient 241" x1="4.4629665" y1="5.4991395" x2="6.2145579" y2="11.2283366" gradientTransform="translate(0 1.2476)" gradientUnits="userSpaceOnUse"><stop offset="0" stop-color="#e5e5e5"/><stop offset="1" stop-color="#b2b2b2"/></linearGradient>
    <linearGradient id="New_Gradient_269-2" data-name="New Gradient 269" x1="6.9255587" y1="6.9544849" x2="7.0922865" y2="11.7289437" gradientTransform="translate(0 1.2476)" gradientUnits="userSpaceOnUse"><stop offset="0" stop-color="#ccc"/><stop offset="1" stop-color="#999"/></linearGradient>
    <linearGradient id="New_Gradient_268-2" data-name="New Gradient 268" x1="5.0747515" y1="4.3064713" x2="5.6418743" y2="8.9253162" gradientTransform="translate(0 1.2476)" gradientUnits="userSpaceOnUse"><stop offset="0" stop-color="#b2b2b2"/><stop offset="1" stop-color="#fff"/></linearGradient>
    <mask id="mask-3" x=".6445515" y="5.4595" width="10.1572433" height="7.4619" maskUnits="userSpaceOnUse">
      <path d="M.6874951,9.6704l.6133-1.7114s-.0156-.1226.2676-.1499c.2666049-.0249.8935-.1626,1.7861-.3716.8574-.2012,3.6933999-.9399,3.9725999-.9561.2803-.0166.4004.1856.4004.1856,0,0,.2598.4873,1.0782,1.3491.7939.836.8974.3203,1.0214.6826.0655.1924.5479051,2.0357.5479051,2.0357,0,0,.0653949.1924-.1484051.2695-.958.2363-6.3954998,1.5928-6.5634998,1.6328-.1973.0474-.3613.0352-.5967-.2368-.1406-.1621-1.7715-1.7031-2.3124999-2.352-.1982-.2037-.0664-.3775-.0664-.3775Z" fill="#fff" fill-rule="evenodd"/>
    </mask>
    <linearGradient id="New_Gradient_241-4" data-name="New Gradient 241" x1="4.4612755" y1="5.4943846" x2="6.2128668" y2="11.2235818" gradientTransform="translate(0 1.2476)" gradientUnits="userSpaceOnUse"><stop offset="0" stop-color="#e5e5e5"/><stop offset="1" stop-color="#b2b2b2"/></linearGradient>
    <linearGradient id="New_Gradient_250-2" data-name="New Gradient 250" x1="6.9255587" y1="6.9544849" x2="7.0922865" y2="11.7289437" gradientTransform="translate(0 1.2476)" gradientUnits="userSpaceOnUse"><stop offset="0" stop-color="#ccc"/><stop offset="1" stop-color="gray"/></linearGradient>
    <linearGradient id="New_Gradient_249-2" data-name="New Gradient 249" x1="5.0747515" y1="4.3064713" x2="5.6418743" y2="8.9253162" gradientTransform="translate(0 1.2476)" gradientUnits="userSpaceOnUse"><stop offset="0" stop-color="#b2b2b2"/><stop offset=".859558" stop-color="#fff"/><stop offset="1" stop-color="#fff"/></linearGradient>
    <linearGradient id="New_Gradient_240-2" data-name="New Gradient 240" x1="5.6428332" y1="5.1264211" x2="5.5621278" y2="7.4375219" gradientTransform="translate(0 1.2476)" gradientUnits="userSpaceOnUse"><stop offset="0" stop-color="#e5e5e5"/><stop offset=".741577" stop-color="#fff"/><stop offset="1" stop-color="#fff"/></linearGradient>
    <linearGradient id="New_Gradient_238-2" data-name="New Gradient 238" x1="2.0623585" y1="9.0223983" x2=".8732257" y2="7.2594364" gradientTransform="translate(0 1.2476)" gradientUnits="userSpaceOnUse"><stop offset="0" stop-color="#d9d9d9"/><stop offset=".146072" stop-color="#d9d9d9"/><stop offset=".528091" stop-color="#e5e5e5"/><stop offset="1" stop-color="#fff"/></linearGradient>
    <linearGradient id="New_Gradient_225-2" data-name="New Gradient 225" x1="2.7121724" y1="9.7784686" x2="3.6070916" y2="9.6685863" gradientTransform="translate(0 1.2476)" gradientUnits="userSpaceOnUse"><stop offset="0" stop-color="#ccc"/><stop offset=".561798" stop-color="#ccc"/><stop offset="1" stop-color="#e5e5e5"/></linearGradient>
    <linearGradient id="New_Gradient_224-2" data-name="New Gradient 224" x1="3.8581721" y1="9.9624708" x2="10.1844636" y2="8.8469749" gradientTransform="translate(0 1.2476)" gradientUnits="userSpaceOnUse"><stop offset="0" stop-color="#999"/><stop offset=".5" stop-color="#999"/><stop offset=".870789" stop-color="#b2b2b2"/><stop offset="1" stop-color="#d9d9d9"/></linearGradient>
  </defs>
  <g>
    <g mask="url(#mask)">
      <g>
        <path d="M6.677695,6.6465l.613305-1.711s-.016605-.1225.268595-.1499c.2656-.0253.9121-.1879,1.7851-.372.8623051-.1812,1.4248-.3736,1.7041-.3902.2803-.0166.4004.1856.4004.1856,0,0,.3721.374.8838051.8701.7333948.71,1.1483948.873,1.2157948,1.1616.045.1983.5479,2.0357.5479,2.0357,0,0,.0644.1924-.1485.27-.958.2363-4.1268999,1.0264-4.2938999,1.0664-.1982.0478-.3622949.0356-.5977-.2363-.1405949-.1621-1.7714-1.7036-2.3124999-2.3521-.1982-.2036-.0664-.3779-.0664-.3779Z" fill="url(#New_Gradient_241)" fill-rule="evenodd"/>
        <polygon points="9.6864949 6.9512 9.3085949 9.8975 14.5233948 8.7305 13.6464948 5.7925 9.6864949 6.9512" fill="url(#New_Gradient_269)" fill-rule="evenodd"/>
        <path d="M6.953095,3.8838s-.164.1406.0166.353c.1651.1948,2.4374999,2.7149,2.5683999,2.8692.1318.1547.2851.1655.4326.1254.1484-.0395,3.2460999-.809,3.4130999-.8554.3291-.0899.0332052-.5581.0332052-.5581l-2.5527051-2.8164-3.9111999.8823Z" fill="url(#New_Gradient_268)" fill-rule="evenodd"/>
        <path d="M6.677695,6.6465l.613305-1.711s-.016605-.1225.268595-.1499c.2656-.0253.9121-.1879,1.7851-.372.8623051-.1812,1.4248-.3736,1.7041-.3902.2803-.0166.4004.1856.4004.1856,0,0,.3721.374.8838051.8701.7333948.71,1.1483948.873,1.2157948,1.1616.045.1983.5479,2.0357.5479,2.0357,0,0,.0644.1924-.1485.27-.958.2363-4.1268999,1.0264-4.2938999,1.0664-.1982.0478-.3622949.0356-.5977-.2363-.1405949-.1621-1.7714-1.7036-2.3124999-2.3521-.1982-.2036-.0664-.3779-.0664-.3779Z" fill="none" fill-rule="evenodd" stroke="#000" stroke-miterlimit="3.8637" stroke-width="2"/>
      </g>
    </g>
    <g mask="url(#mask-1)">
      <g>
        <path d="M6.677695,6.6465l.613305-1.711s-.016605-.1225.268595-.1499c.2656-.0253.8925-.1626,1.7851-.372.8584-.2007,1.4248-.3736,1.7041-.3902.2803-.0166.4004.1856.4004.1856,0,0,.2588051.4873,1.0791,1.3491.794.8359.8965.3203,1.0205.6826.0655.1929.5479,2.0357.5479,2.0357,0,0,.0644.1924-.1485.27-.958.2363-4.1268999,1.0264-4.2938999,1.0664-.1982.0478-.3622949.0356-.5977-.2363-.1405949-.1621-1.7714-1.7036-2.3124999-2.3521-.1982-.2036-.0664-.3779-.0664-.3779Z" fill="url(#New_Gradient_241-2)" fill-rule="evenodd"/>
        <polygon points="9.6864949 6.9512 9.3085949 9.8975 14.5233948 8.7305 13.6464948 5.7925 9.6864949 6.9512" fill="url(#New_Gradient_250)" fill-rule="evenodd"/>
        <path d="M6.953095,3.8838s-.164.1406.0166.353c.1651.1948,2.4374999,2.7149,2.5683999,2.8692.1318.1547.2851.1655.4326.1254.1484-.0395,3.2460999-.809,3.4130999-.8554.3291-.0899.0332052-.5581.0332052-.5581l-2.5527051-2.8164-3.9111999.8823Z" fill="url(#New_Gradient_249)" fill-rule="evenodd"/>
      </g>
    </g>
    <line x1="9.7030949" y1="7.2339" x2="9.3573949" y2="9.4785" fill="none" stroke="gray" stroke-linecap="round" stroke-linejoin="round" stroke-width="1.5"/>
    <path d="M7.489295,4.811s.917-.1899,1.7851-.3852c.877-.1968,1.461-.3618,1.5977-.3872.5517-.1021.4482.0444.9365.4873.5273.4795.6904051.7685,1.6338,1.5034.1465.1138-.1836.2651-.3115.1318,0,0-.4522-.459-1.0235-.9624-.4092-.3608-.4629-.4809-.8486-.8999-.0742-.0805-.2666-.0581-.3407949-.0444-.1367051.0254-.7012051.1846-1.5645051.3784-.8769.1968-1.8174.4053-1.8174.4053-.163095.0205-.2099-.2066-.0468-.2271Z" fill="url(#New_Gradient_240)"/>
    <path d="M7.496095,4.9097s1.6914,1.6323,1.8555,1.8091c.1338.143.2031.1738.3672.1391.2138-.0444,3.1034999-.4473,2.7508999-1.332.1162-.0313.9707.3706,1.0449.6118.0245.0791.1202.2275-.0458.2549,0,0-3.2539999.8691-3.4677948.914-.2637051.0547-.4336051-.0229-.6299051-.2338-.165-.1778-2.0302999-1.9942-2.0302999-1.9942-.1201-.1411.035205-.31.1553-.1689Z" fill="#fff"/>
    <path d="M8.6474949,5.0347l.2685051-.0645c.1845949-.0366.2646949.0181.3105949.0918.0449.0733.0439.148-.1328.1973l-.2696.0644-.1767-.289ZM9.124,5.3794c.0673949-.0112.1298949-.0313.2040949,0,.083.0337.1289051.1099.1944.1909.042.0537.0986.1094.1474.1616l.1748-.042c-.0966949-.0776-.1709-.1738-.2461-.2622-.082-.1006-.1385949-.1552-.2968-.1484l-.001-.0024c.1211-.0586.1523-.1651.083-.2779-.1133-.1841-.3467-.1845-.5449-.1377l-.42.1001.5723.9322.1631-.0391-.2588-.4204.2285051-.0547Z" fill="#666" fill-rule="evenodd"/>
    <path d="M8.5800949,6.3052l-1.3008-1.2915s-.5996,1.7002-.6338,1.7514c-.0342.0513.0342.1695.0342.1695l.4941.5732s-.248-.479.0596-.9028c.392605-.541,1.3467-.2998,1.3467-.2998Z" fill="url(#New_Gradient_238)" fill-rule="evenodd"/>
    <path d="M9.2020949,9.501l.3555-2.2642s-.0555949-.0449-.1367-.1274c-.1494-.1529-.6738-.6724-.6738-.6724,0,0,.5127.8872.4209051,1.6997-.0752051.6646-.3487051,1.0054-.3487051,1.0054l.3828.3589Z" fill="url(#New_Gradient_225)" fill-rule="evenodd"/>
    <line x1="9.2255949" y1="9.4248" x2="9.5233949" y2="7.2876" fill="none" stroke="#b2b2b2" stroke-linecap="round" stroke-miterlimit="3.8637" stroke-width=".75"/>
    <path d="M9.5575949,9.6323c.1153-.0254,4.3534999-1.0747,4.3534999-1.0747,0,0,.2188-.0762.1846-.2319-.0352-.1548-.5195-2.0259-.5195-2.0259,0,0-.0459.084-.1719.1187,0,0,.2061.7846.0693,1.4282-.1385948.6435-1.7402,1.0888-1.9921999,1.1596-.2519.0694-1.9238.5-1.9238.5,0,0-.1025.1084,0,.126Z" fill="url(#New_Gradient_224)" fill-rule="evenodd"/>
    <path d="M9.7645949,7.356s.0489.0058.1631-.0083c.1143051-.0142,3.5566999-.938,3.5566999-.938" fill="none" stroke="#999" stroke-linecap="round" stroke-miterlimit="3.8637" stroke-width=".5"/>
  </g>
  <g>
    <g>
      <g mask="url(#mask-2)">
        <g>
          <path d="M.6874951,9.6704l.6133-1.7114s-.0156-.1226.2676-.1499c.2666049-.0249.913-.1875,1.7861-.3716.8623-.1816,3.6933999-.9399,3.9725999-.9561.2803-.0166.4004.1856.4004.1856,0,0,.3721.374.8838.8696.7334.7105,1.1485.8731,1.2158,1.1621.0459051.1983.5479051,2.0357.5479051,2.0357,0,0,.0653949.1924-.1484051.2695-.958.2363-6.3954998,1.5928-6.5634998,1.6328-.1973.0474-.3613.0352-.5967-.2368-.1406-.1621-1.7715-1.7031-2.3124999-2.352-.1982-.2037-.0664-.3775-.0664-.3775Z" fill="url(#New_Gradient_241-3)" fill-rule="evenodd"/>
          <polygon points="3.6962951 9.9751 3.3183951 12.9214 10.8017949 11.188 9.9257949 8.2505 3.6962951 9.9751" fill="url(#New_Gradient_269-2)" fill-rule="evenodd"/>
          <path d="M.9628951,6.9072s-.165.1407.0166.3531c.165.1948,2.4375049,2.7148,2.5683999,2.8696.1328.1543.2851049.165.4335.125.1475-.0396,5.5136999-1.3745,5.6806999-1.4209.3291-.0899.0332-.5581.0332-.5581l-2.5526999-2.8164L.9628951,6.9072Z" fill="url(#New_Gradient_268-2)" fill-rule="evenodd"/>
          <path d="M.6874951,9.6704l.6133-1.7114s-.0156-.1226.2676-.1499c.2666049-.0249.913-.1875,1.7861-.3716.8623-.1816,3.6933999-.9399,3.9725999-.9561.2803-.0166.4004.1856.4004.1856,0,0,.3721.374.8838.8696.7334.7105,1.1485.8731,1.2158,1.1621.0459051.1983.5479051,2.0357.5479051,2.0357,0,0,.0653949.1924-.1484051.2695-.958.2363-6.3954998,1.5928-6.5634998,1.6328-.1973.0474-.3613.0352-.5967-.2368-.1406-.1621-1.7715-1.7031-2.3124999-2.352-.1982-.2037-.0664-.3775-.0664-.3775Z" fill="none" fill-rule="evenodd" stroke="#000" stroke-miterlimit="3.8637" stroke-width="2"/>
        </g>
      </g>
      <g mask="url(#mask-3)">
        <g>
          <path d="M.6874951,9.6704l.6133-1.7114s-.0156-.1226.2676-.1499c.2666049-.0249.8935-.1626,1.7861-.3716.8574-.2012,3.6933999-.9399,3.9725999-.9561.2803-.0166.4004.1856.4004.1856,0,0,.2598.4873,1.0782,1.3491.7939.836.8974.3203,1.0214.6826.0655.1924.5479051,2.0357.5479051,2.0357,0,0,.0653949.1924-.1484051.2695-.958.2363-6.3954998,1.5928-6.5634998,1.6328-.1973.0474-.3613.0352-.5967-.2368-.1406-.1621-1.7715-1.7031-2.3124999-2.352-.1982-.2037-.0664-.3775-.0664-.3775Z" fill="url(#New_Gradient_241-4)" fill-rule="evenodd"/>
          <polygon points="3.6962951 9.9751 3.3183951 12.9214 10.8017949 11.188 9.9257949 8.2505 3.6962951 9.9751" fill="url(#New_Gradient_250-2)" fill-rule="evenodd"/>
          <path d="M.9628951,6.9072s-.165.1407.0166.3531c.165.1948,2.4375049,2.7148,2.5683999,2.8696.1328.1543.2851049.165.4335.125.1475-.0396,5.5136999-1.3745,5.6806999-1.4209.3291-.0899.0332-.5581.0332-.5581l-2.5526999-2.8164L.9628951,6.9072Z" fill="url(#New_Gradient_249-2)" fill-rule="evenodd"/>
        </g>
      </g>
      <line x1="3.7128951" y1="10.2573" x2="3.3671951" y2="12.502" fill="none" stroke="gray" stroke-linecap="round" stroke-linejoin="round" stroke-width="1.5"/>
      <path d="M1.499,7.8345s.917-.1895,1.7851951-.3853c.8769-.1963,3.7294999-.9272,3.8661999-.9531.5517-.1016.4482.0444.9365.4878.5274.4795.6904.7685,1.6338,1.5034.1465.1143-.1836.2651-.3115.1318,0,0-.4521949-.4594-1.0225-.9624-.4092-.3608-.4638-.4809-.8496-.8999-.0742-.08-.2656-.0586-.3408-.0449-.1367.0259-2.9696999.7505-3.8329999.9444-.877.1972-1.8174.4052-1.8174.4052-.1631.0205-.21-.2065-.0468951-.227Z" fill="url(#New_Gradient_240-2)"/>
      <path d="M1.5058951,7.9336s1.6914,1.6318,1.8554,1.8086c.1328.1431.2041.1738.3672.1396.2139-.0449,5.3710999-1.0131,5.0195049-1.8979.1162949-.0313.9707949.3706,1.045.6118.0243949.0791.1190949.2275-.0459051.2549,0,0-5.5234999,1.4346-5.7363999,1.4795-.2646.0547-.4336-.023-.6298-.2339-.1651-.1773-2.0302999-1.9941-2.0302999-1.9941-.1201-.1412.0351-.3101.1553-.1685Z" fill="#fff"/>
      <path d="M2.5897951,9.3286l-1.3007-1.2915s-.5996,1.7002-.6338,1.7515c-.0342.0512.0342.1694.0342.1694l.4931.5733s-.2471-.4791.0606-.9029c.3916-.541,1.3466-.2998,1.3466-.2998Z" fill="url(#New_Gradient_238-2)" fill-rule="evenodd"/>
      <path d="M3.2118951,12.5249l.3555-2.2646s-.0567-.045-.1367-.1275c-.1494-.1523-.6739-.6724-.6739-.6724,0,0,.5127.8877.4209,1.6998-.0742.6645-.3486,1.0058-.3486,1.0058l.3828.3589Z" fill="url(#New_Gradient_225-2)" fill-rule="evenodd"/>
      <line x1="3.2353951" y1="12.4482" x2="3.5331951" y2="10.3115" fill="none" stroke="#b2b2b2" stroke-linecap="round" stroke-miterlimit="3.8637" stroke-width=".75"/>
      <path d="M3.5673951,12.6563c.1152-.0259,6.6220998-1.6407,6.6220998-1.6407,0,0,.2187-.0766.1845051-.2319-.0351051-.1548-.5195051-2.0259-.5195051-2.0259,0,0-.0459.084-.1729.1187,0,0,.208.7846.0694051,1.4282-.1377051.6435-1.7393051,1.0889-1.991205,1.1597-.253.0693-4.1923999,1.0654-4.1923999,1.0654,0,0-.1026.1084,0,.1265Z" fill="url(#New_Gradient_224-2)" fill-rule="evenodd"/>
      <path d="M3.7743951,10.3794s.0488.0059.1631-.0083c.1152-.0137,5.8251999-1.5034,5.8251999-1.5034" fill="none" stroke="#999" stroke-linecap="round" stroke-miterlimit="3.8637" stroke-width=".5"/>
    </g>
    <g>
      <path d="M4.459,9.0469c-.042.0429-.151405.102-.314505.1426-.3759.0937-.7988-.0396-1.062495-.4161-.2519049-.3598-.1367049-.6709.2773951-.7744.164-.041.292-.0371.3515-.0278l.0411049.1313c-.0821049-.0117-.1895049-.0087-.3008049.0191-.3125.0776-.4004.3013-.1905.6011.1963049.2817.5098.4126.8321.332.1064-.0264.2011-.0718.25-.1177l.116205.1099Z" fill="#666"/>
      <path d="M4.244095,7.9478l-.4062.101-.0878951-.125.988295-.2466.0869.1255-.407195.1016.711895,1.0176-.1748.0434-.711-1.0175Z" fill="#666"/>
      <path d="M4.898395,7.6572c.0762-.0366.1954-.0786.3125-.1079.1846-.0459.3262-.0454.454105-.0019.100595.0327.194395.101.256895.1914.1045.1489.0625.2773-.047895.352l.003.0059c.123.0049.241195.0708.357395.1811.1552.149.264605.251.3203.2891l-.177695.0439c-.044-.0268-.142605-.1176-.278405-.2509-.1504-.1485-.264595-.189-.4248-.1553l-.1621.0405.3467.4951-.1729.043-.7871-1.126ZM5.433595,8.1333l.1758-.0439c.183605-.0459.2402-.1617.1494-.2925-.1035-.147-.2734-.1807-.4551-.1353-.084.021-.135695.042-.1611.0562l.291.4155Z" fill="#666"/>
      <path d="M5.949195,7.3755l.174805-.044.712895,1.0196.5703-.1421.086.1235-.744195.1856-.799805-1.1426Z" fill="#666"/>
    </g>
  </g>
</svg>