<?xml version='1.0' encoding='UTF-8'?>
<svg xmlns="http://www.w3.org/2000/svg" xmlns:xlink="http://www.w3.org/1999/xlink" id="Layer_7" data-name="Layer 7" width="16" height="16" viewBox="0 0 16 16">
  <defs>
    <linearGradient id="New_Gradient_295" data-name="New Gradient 295" x1="5.0460071" y1="14.2883857" x2="12.632252" y2="7.9227704" gradientUnits="userSpaceOnUse">
      <stop offset="0" stop-color="#b2b2b2"/>
      <stop offset=".168533" stop-color="#e5e5e5"/>
      <stop offset=".230331" stop-color="#fff"/>
      <stop offset=".280899" stop-color="#e5e5e5"/>
      <stop offset="1" stop-color="#ccc"/>
    </linearGradient>
    <linearGradient id="linear-gradient" x1="5.4203413" y1="13.410633" x2="11.160396" y2="7.6705783" gradientUnits="userSpaceOnUse">
      <stop offset="0" stop-color="#b2b2b2"/>
      <stop offset=".168533" stop-color="#e5e5e5"/>
      <stop offset=".230331" stop-color="#fff"/>
      <stop offset=".280899" stop-color="#e5e5e5"/>
      <stop offset=".5" stop-color="#c2c2c2"/>
    </linearGradient>
    <linearGradient id="New_Gradient_287" data-name="New Gradient 287" x1="8.0344729" y1="10.2671952" x2="13.0744995" y2="15.3072218" gradientUnits="userSpaceOnUse">
      <stop offset="0" stop-color="#ccc"/>
      <stop offset="1" stop-color="#fff"/>
    </linearGradient>
    <linearGradient id="New_Gradient_294" data-name="New Gradient 294" x1="11.8036345" y1="15.5662708" x2="9.3101623" y2="9.9658405" gradientUnits="userSpaceOnUse">
      <stop offset="0" stop-color="#b2b2b2"/>
      <stop offset=".5" stop-color="#e5e5e5"/>
      <stop offset="1" stop-color="#fff"/>
    </linearGradient>
    <linearGradient id="New_Gradient_291" data-name="New Gradient 291" x1="12.5855954" y1="12.4700035" x2="12.8336857" y2="13.1516259" gradientUnits="userSpaceOnUse">
      <stop offset="0" stop-color="#0f6124"/>
      <stop offset="1" stop-color="#219630"/>
    </linearGradient>
    <linearGradient id="New_Gradient_290" data-name="New Gradient 290" x1="4.0458783" y1="13.8916139" x2="7.2253152" y2="10.7121769" gradientUnits="userSpaceOnUse">
      <stop offset="0" stop-color="#e5e5e5"/>
      <stop offset="1" stop-color="#ccc"/>
    </linearGradient>
    <linearGradient id="linear-gradient-2" x1="9.4937122" y1="10.9647299" x2="12.6465937" y2="7.8118484" gradientUnits="userSpaceOnUse">
      <stop offset="0" stop-color="#bfbfbf"/>
      <stop offset="1" stop-color="#f2f2f2"/>
    </linearGradient>
    <mask id="mask" x=".3954923" y="1.6606" width="9.4511998" height="9.8321" maskUnits="userSpaceOnUse">
      <path d="M4.3798922,6.7759c0-.4165.3379-.8399.7549-.9453.417-.105.7539.1479.7539.5644,0,.417-.3369.8399-.7539.9453-.417.105-.7549-.1474-.7549-.5644ZM.8222923,7.6738c0-2.3813,1.9306-4.7998,4.3124999-5.4004,2.3817999-.6015,4.3124999.8418,4.3124999,3.2237,0,2.3813-1.9307,4.7993-4.3124999,5.4004-2.3818999.601-4.3124999-.8418-4.3124999-3.2237Z" fill="#fff" fill-rule="evenodd"/>
    </mask>
    <mask id="mask-1" x=".3954923" y="1.6606" width="9.4511998" height="9.8321" maskUnits="userSpaceOnUse">
      <path d="M5.1347922,2.4893c2.2626999-.5708,4.0965999.8003,4.0965999,3.0629,0,2.2623-1.8339,4.5591-4.0965999,5.1304s-4.0966999-.8003-4.0966999-3.0625c0-2.2627,1.834-4.5596,4.0966999-5.1308Z" fill="#fff"/>
    </mask>
    <linearGradient id="New_Gradient_288" data-name="New Gradient 288" x1="1.6091123" y1="3.7310502" x2="8.6603111" y2="9.4409983" gradientUnits="userSpaceOnUse">
      <stop offset="0" stop-color="#fff"/>
      <stop offset="1" stop-color="#ccc"/>
    </linearGradient>
    <radialGradient id="radial-gradient" cx="-57.7151014" cy="-67.795486" fx="-57.7151014" fy="-67.795486" r="5.3462488" gradientTransform="translate(89.8072 105.7486) scale(1.4871)" gradientUnits="userSpaceOnUse">
      <stop offset="0" stop-color="#fff"/>
      <stop offset=".0189232" stop-color="#edf5f9"/>
      <stop offset=".0834349" stop-color="#b6d7e8"/>
      <stop offset=".1463504" stop-color="#89beda"/>
      <stop offset=".2062392" stop-color="#65abd0"/>
      <stop offset=".262314" stop-color="#4c9dc8"/>
      <stop offset=".3131118" stop-color="#3d94c3"/>
      <stop offset=".353932" stop-color="#3892c2"/>
      <stop offset=".7437657" stop-color="#378dbf"/>
      <stop offset="1" stop-color="#3786bb"/>
    </radialGradient>
    <radialGradient id="radial-gradient-2" cx="28.0680712" cy="-12.0628321" fx="28.0680712" fy="-12.0628321" r="10.5978104" gradientTransform="translate(-19.5355176 22.1508819) scale(.9142)" gradientUnits="userSpaceOnUse"><stop offset="0" stop-color="#fff"/><stop offset=".0189232" stop-color="#edf5f9"/><stop offset=".0834349" stop-color="#b6d7e8"/><stop offset=".1463504" stop-color="#89beda"/><stop offset=".2062392" stop-color="#65abd0"/><stop offset=".262314" stop-color="#4c9dc8"/><stop offset=".3131118" stop-color="#3d94c3"/><stop offset=".353932" stop-color="#3892c2"/><stop offset=".7437657" stop-color="#378dbf"/><stop offset="1" stop-color="#3786bb"/></radialGradient>
  </defs>
  <g>
    <path d="M7.4130921,14.6841l-3.4237999-3.3794c-.0352-.0396-.0528-.0923-.0528-.1558v-1.8828c0-.1636.1319-.3286.2959-.3696l5.8066999-1.438c.0996-.0249.1875.0019.2412.063l3.4159999,3.3696c.0391.0503.0576.1011.0576.1621v1.8823c0,.1631-.1328.3287-.296892.3697l-5.8066079,1.4375c-.0967.0249-.1836-.0005-.2373-.0586Z" fill="url(#New_Gradient_295)" stroke="#000" stroke-miterlimit="3.8637" stroke-width="1.8248"/>
    <path d="M7.4130921,14.6841l-3.4237999-3.3794c-.0352-.0396-.0528-.0923-.0528-.1558v-1.8828c0-.1636.1319-.3286.2959-.3696l5.8066999-1.438c.0996-.0249.1875.0019.2412.063l3.4247999,3.3808-6.2919998,3.7818Z" fill="url(#linear-gradient)" fill-rule="evenodd"/>
    <path d="M7.6503921,12.2686l5.8066079-1.438c.164092-.0406.296892.0586.296892.2226v1.8823c0,.1631-.1328.3287-.296892.3697l-5.8066079,1.4375c-.1631.0415-.2959-.0586-.2959-.2217v-1.8818c0-.1631.1328-.3287.2959-.3706Z" fill="url(#New_Gradient_287)" fill-rule="evenodd"/>
    <path d="M13.289092,10.7505c.2832-.0767.4648.0649.4648.3633v1.7876c0,.2138-.1631.4091-.3613.459l-5.560592,1.4184c-.1513079.0376-.4648079.0396-.4648079-.3252v-1.8266c0-.2134.1631-.4087.3613-.4585l5.5605999-1.418ZM7.6337921,14.5308c.0156.0009.0459,0,.0947-.0118l5.5615079-1.4184c.112292-.0283.201192-.148.201192-.2451v-1.7881c0-.0415,0-.0586-.0049-.0723-.0175-.0005-.0468.0025-.0927.0142l-5.561592,1.4194c-.1132079.0283-.2021079.1475-.2021079.2446v1.8267l.0039.0308Z" fill="url(#New_Gradient_294)"/>
    <path d="M12.464792,12.6318l.4903-.1137c.3144-.0733.3144.3984,0,.4716l-.4903.1133c-.3154.0738-.3154-.3984,0-.4712Z" fill="url(#New_Gradient_291)"/>
    <line x1="12.445292" y1="12.8315" x2="12.918" y2="12.7207" fill="none" stroke="#7cc771" stroke-linecap="round" stroke-miterlimit="3.8637" stroke-width="1.1405"/>
    <path d="M4.1620922,11.1875l2.9472999,2.8179-.0147-.9341c-.5088.2417-2.9325999-2.4732-2.9325999-2.4732v.5894Z" fill="url(#New_Gradient_290)" fill-rule="evenodd"/>
    <path d="M10.0907921,7.7188l2.9638999,2.8378-3.0331999.8233c3.1923999-1.9854-.6143-3.4815-.6143-3.4815l.6836-.1796Z" fill="url(#linear-gradient-2)" fill-rule="evenodd"/>
  </g>
  <g>
    <g>
      <path d="M4.3798922,6.7759c0-.4165.3379-.8399.7549-.9453.417-.105.7539.1479.7539.5644,0,.417-.3369.8399-.7539.9453-.417.105-.7549-.1474-.7549-.5644ZM.8222923,7.6738c0-2.3813,1.9306-4.7998,4.3124999-5.4004,2.3817999-.6015,4.3124999.8418,4.3124999,3.2237,0,2.3813-1.9307,4.7993-4.3124999,5.4004-2.3818999.601-4.3124999-.8418-4.3124999-3.2237Z" fill="#b2b2b2" fill-rule="evenodd" stroke="#000" stroke-miterlimit="3.8637"/>
      <g mask="url(#mask)">
        <g>
          <path d="M4.3798922,6.7759c0-.4165.3379-.8399.7549-.9453.417-.105.7539.1479.7539.5644,0,.417-.3369.8399-.7539.9453-.417.105-.7549-.1474-.7549-.5644ZM.8222923,7.6738c0-2.3813,1.9306-4.7998,4.3124999-5.4004,2.3817999-.6015,4.3124999.8418,4.3124999,3.2237,0,2.3813-1.9307,4.7993-4.3124999,5.4004-2.3818999.601-4.3124999-.8418-4.3124999-3.2237Z" fill="#b2b2b2" fill-rule="evenodd"/>
          <g mask="url(#mask-1)">
            <g>
              <path d="M5.1347922,2.4893c2.2626999-.5708,4.0965999.8003,4.0965999,3.0629,0,2.2623-1.8339,4.5591-4.0965999,5.1304s-4.0966999-.8003-4.0966999-3.0625c0-2.2627,1.834-4.5596,4.0966999-5.1308Z" fill="url(#New_Gradient_288)"/>
              <g>
                <polygon points="5.1132922 6.5859 7.4413921 1.6606 8.2782921 2.104 5.1132922 6.5859" fill="#b2d6e8" fill-rule="evenodd"/>
                <polygon points="9.04 2.7637 5.1132922 6.5859 8.2782921 2.104 9.04 2.7637" fill="#f6f8b2" fill-rule="evenodd"/>
                <polygon points="5.1132922 6.5859 9.4970921 3.5625 9.04 2.7637 5.1132922 6.5859" fill="#c8e9c2" fill-rule="evenodd"/>
                <polygon points="5.1132922 6.5859 9.8007921 4.5054 9.4970921 3.5625 5.1132922 6.5859" fill="#e5c9b0" fill-rule="evenodd"/>
                <polygon points="5.1132922 6.5859 9.8466921 5.5439 9.8007921 4.5054 5.1132922 6.5859" fill="#fff" fill-rule="evenodd"/>
              </g>
              <g>
                <polygon points="5.1278922 6.5674 2.7997922 11.4927 1.9628923 11.0488 5.1278922 6.5674" fill="#b2d6e8" fill-rule="evenodd"/>
                <polygon points="1.2020923 10.3892 5.1278922 6.5674 1.9628923 11.0488 1.2020923 10.3892" fill="#f6f8b2" fill-rule="evenodd"/>
                <polygon points="5.1278922 6.5674 .7450923 9.5908 1.2020923 10.3892 5.1278922 6.5674" fill="#c8e9c2" fill-rule="evenodd"/>
                <polygon points="5.1278922 6.5674 .4413923 8.6479 .7450923 9.5908 5.1278922 6.5674" fill="#e5c9b0" fill-rule="evenodd"/>
                <polygon points="5.1278922 6.5674 .3954923 7.6094 .4413923 8.6479 5.1278922 6.5674" fill="#fff" fill-rule="evenodd"/>
              </g>
            </g>
          </g>
          <path d="M5.1347922,5.0767c.833-.21,1.5088.2949,1.5088,1.1284s-.6758,1.6802-1.5088,1.8906c-.834.21-1.5097922-.2949-1.5097922-1.1284s.6757922-1.6802,1.5097922-1.8906Z" fill="#999" stroke="#666" stroke-miterlimit="3.8637" stroke-width="1.05"/>
          <path d="M4.3798922,6.7759c0-.4165.3379-.8399.7549-.9453.417-.105.7539.1479.7539.5644,0,.417-.3369.8399-.7539.9453-.417.105-.7549-.1474-.7549-.5644ZM.8222923,7.6738c0-2.3813,1.9306-4.7998,4.3124999-5.4004,2.3817999-.6015,4.3124999.8418,4.3124999,3.2237,0,2.3813-1.9307,4.7993-4.3124999,5.4004-2.3818999.601-4.3124999-.8418-4.3124999-3.2237Z" fill="none" fill-rule="evenodd"/>
        </g>
      </g>
    </g>
    <g>
      <path d="M6.7978921,1.3608c-.254-.0644-.5157.0826-.7774.1871-.331.1328-.5204922.0244-.8124922-.0323l.0331922-.103c.0645-.2041-.2109-.2422-.2744-.0376l-1.0097922,3.1978c-.2646078-.3199-.7685078-.4082-1.2119077-.2598-.3710923.124-.7402.4975-.5976.8999.2119.5947,1.8105077.8237,1.9453-.1939.0117-.0175.0215-.0366.0283-.0581l.5889078-1.8652c.1258922.4902.667.0522.9686922-.1846.333-.2617.7481-.6147,1.1152-.4834.0411079.0152.2149.149.2696.0899.0742-.0781.0488-.2974.0459-.377-.0088-.2641-.0479-.7129-.3115-.7798" fill="#d68112" fill-rule="evenodd" stroke="#000"/>
      <path d="M6.7978921,1.3608c-.254-.0644-.5157.0826-.7774.1871-.331.1328-.5204922.0244-.8124922-.0323l.0331922-.103c.0645-.2041-.2109-.2422-.2744-.0376l-1.0097922,3.1978c-.2646078-.3199-.7685078-.4082-1.2119077-.2598-.3710923.124-.7402.4975-.5976.8999.2119.5947,1.8105077.8237,1.9453-.1939.0117-.0175.0215-.0366.0283-.0581l.5889078-1.8652c.1258922.4902.667.0522.9686922-.1846.333-.2617.7481-.6147,1.1152-.4834.0411079.0152.2149.149.2696.0899.0742-.0781.0488-.2974.0459-.377-.0088-.2641-.0479-.7129-.3115-.7798" fill="url(#radial-gradient)" fill-rule="evenodd"/>
    </g>
    <g>
      <path d="M9.9911921,7.7646c.0293-.0917-.0185-.1718-.0996-.1743-.0322-.0215-.0869-.0371-.1699-.0493l-1.21-.166-.2549-.0356-1.2089-.1661c-.084-.0117-.1446-.0102-.1885.0005-.0752-.0224-.1699.0401-.1983.1328l-.9912,3.1387c-.2666-.3218-.7812-.4067-1.2246-.2427-.3408.1255-.6719.4688-.5605.8428.1191.4014.5771.5518.9648.5313.3428-.0166.8906-.2207.9531-.6934.0127-.0171.0215-.0356.0284-.0566l.6543-2.0762c.0185.0034.039.0068.0615.0098l1.209.1665.2548.0351,1.209.166c.0205.003.0401.0049.0576.0064l-.5459,1.7319c-.2666-.3218-.7802-.4067-1.2246-.2427-.3407921.126-.6717921.4693-.5595.8438.1181.4004.5761.5503.9638.5312.3438-.0175.8907-.2221.9532-.6943.0117079-.0171.0205-.0361.0283-.0566l1.0986-3.483M9.4071921,8.5361l-1.209-.1665-.2558-.0346-1.209-.1665c-.0225-.0025-.043-.0054-.0615-.0064l.1279-.4072c.0186.0034.0391.0073.0606.0102l1.2089.1661.2559.0351,1.209.167c.0205.0024.04.0049.0576.0059l-.1279.4062c-.0176-.0034-.0362-.0068-.0567-.0093" fill="#d68112" fill-rule="evenodd" stroke="#000"/>
      <path d="M9.9911921,7.7646c.0293-.0917-.0185-.1718-.0996-.1743-.0322-.0215-.0869-.0371-.1699-.0493l-1.21-.166-.2549-.0356-1.2089-.1661c-.084-.0117-.1446-.0102-.1885.0005-.0752-.0224-.1699.0401-.1983.1328l-.9912,3.1387c-.2666-.3218-.7812-.4067-1.2246-.2427-.3408.1255-.6719.4688-.5605.8428.1191.4014.5771.5518.9648.5313.3428-.0166.8906-.2207.9531-.6934.0127-.0171.0215-.0356.0284-.0566l.6543-2.0762c.0185.0034.039.0068.0615.0098l1.209.1665.2548.0351,1.209.166c.0205.003.0401.0049.0576.0064l-.5459,1.7319c-.2666-.3218-.7802-.4067-1.2246-.2427-.3407921.126-.6717921.4693-.5595.8438.1181.4004.5761.5503.9638.5312.3438-.0175.8907-.2221.9532-.6943.0117079-.0171.0205-.0361.0283-.0566l1.0986-3.483M9.4071921,8.5361l-1.209-.1665-.2558-.0346-1.209-.1665c-.0225-.0025-.043-.0054-.0615-.0064l.1279-.4072c.0186.0034.0391.0073.0606.0102l1.2089.1661.2559.0351,1.209.167c.0205.0024.04.0049.0576.0059l-.1279.4062c-.0176-.0034-.0362-.0068-.0567-.0093" fill="url(#radial-gradient-2)" fill-rule="evenodd"/>
    </g>
  </g>
</svg>