<?xml version='1.0' encoding='UTF-8'?>
<svg xmlns="http://www.w3.org/2000/svg" xmlns:xlink="http://www.w3.org/1999/xlink" id="Layer_1" data-name="Layer 1" width="16" height="16" viewBox="0 0 16 16">
  <defs>
    <mask id="mask" x=".8015596" y="4.3297272" width="15.1325477" height="10.7204609" maskUnits="userSpaceOnUse">
      <path d="M14.5464,12.4541l-6.2554,1.5923c-.0898.022-.3725-.0562-.4385-.1216L1.9868,8.0586c-.271-.2705-.2778-1.0303.2036-1.1489l6.2676-1.5762c.0894-.022.3721.0566.437.1221l5.855,5.8549c.2705.2706.2749,1.0245-.2036,1.1436Z" fill="#fff" stroke="#fff" stroke-linecap="round" stroke-linejoin="round" stroke-width="2"/>
    </mask>
    <linearGradient id="New_Gradient_3" data-name="New Gradient 3" x1="11.1013074" y1="9.9242374" x2="12.0897928" y2="15.0095541" gradientUnits="userSpaceOnUse">
      <stop offset="0" stop-color="#b2b2b2"/>
      <stop offset="1" stop-color="#666"/>
    </linearGradient>
    <linearGradient id="New_Gradient_2" data-name="New Gradient 2" x1="8.0891612" y1="7.0286336" x2="1.6788927" y2="13.666661" gradientUnits="userSpaceOnUse">
      <stop offset="0" stop-color="#ccc"/>
      <stop offset="1" stop-color="#999"/>
    </linearGradient>
    <mask id="mask-1" x="1.3335" y="5.3297272" width="15.644" height="9.7786728" maskUnits="userSpaceOnUse">
      <path d="M14.5464,12.4541l-6.2554,1.5923c-.0898.022-.3725-.0562-.4385-.1216L1.9868,8.0586c-.271-.2705-.2778-1.0303.2036-1.1489l6.2676-1.5762c.0889-.022.3721.0566.437.1221l5.855,5.8549c.2705.2706.2749,1.0245-.2036,1.1436Z" fill="#fff"/>
    </mask>
    <linearGradient id="New_Gradient_3-2" data-name="New Gradient 3" x1="11.7905743" y1="10.1390717" x2="12.9087347" y2="15.8915082" gradientUnits="userSpaceOnUse"><stop offset="0" stop-color="#b2b2b2"/><stop offset="1" stop-color="#666"/></linearGradient>
    <linearGradient id="New_Gradient_2-2" data-name="New Gradient 2" x1="8.3843707" y1="6.8662052" x2="1.1359766" y2="14.3721369" gradientUnits="userSpaceOnUse"><stop offset="0" stop-color="#ccc"/><stop offset="1" stop-color="#999"/></linearGradient>
    <mask id="mask-2" x="3.1855" y="5.9307" width="6.4131" height="2.875" maskUnits="userSpaceOnUse">
      <polygon points="3.1855 7.2021 4.4849 8.5015 9.5986 7.2021 8.3271 5.9307 3.1855 7.2021" fill="#fff" fill-rule="evenodd"/>
    </mask>
    <mask id="mask-3" x="4.9651337" y="8.2924191" width="2.155838" height="1.3434803" maskUnits="userSpaceOnUse">
      <path d="M6.9355,9.209l-1.2089.3013c-.0137.0034-.0581-.0083-.0684-.0191l-.5391-.5391c-.0424-.0419-.0434-.2167.0318-.2353l1.2104-.2988c.0142-.0034.0586.0088.0684.019l.5376.5376c.042.042.043.2158-.0318.2344Z" fill="#fff" stroke="#fff" stroke-width=".25"/>
    </mask>
    <linearGradient id="linear-gradient" x1="5.9612138" y1="8.2826438" x2="6.194812" y2="9.3816369" gradientUnits="userSpaceOnUse">
      <stop offset="0" stop-color="#ccc"/>
      <stop offset=".0685891" stop-color="#d1d1d1"/>
      <stop offset=".3565746" stop-color="#e3e3e3"/>
      <stop offset=".6596427" stop-color="#eee"/>
      <stop offset="1" stop-color="#f2f2f2"/>
    </linearGradient>
    <mask id="mask-4" x="5.9189113" y="9.2456652" width="2.1556281" height="1.3438156" maskUnits="userSpaceOnUse">
      <path d="M7.8887,10.1621l-1.2085.3018c-.0142.0034-.0581-.0088-.0684-.0191l-.539-.539c-.0425-.042-.043-.2168.0317-.2359l1.21-.2988c.0146-.0029.0585.0093.0688.019l.5376.5376c.042.0425.043.2159-.0322.2344Z" fill="#fff" stroke="#fff" stroke-width=".25"/>
    </mask>
    <linearGradient id="linear-gradient-2" x1="6.9148875" y1="9.2360902" x2="7.1485312" y2="10.3352977" gradientUnits="userSpaceOnUse"><stop offset="0" stop-color="#ccc"/><stop offset=".0685891" stop-color="#d1d1d1"/><stop offset=".3565746" stop-color="#e3e3e3"/><stop offset=".6596427" stop-color="#eee"/><stop offset="1" stop-color="#f2f2f2"/></linearGradient>
    <mask id="mask-5" x="6.8720113" y="10.1991367" width="2.1557863" height="1.3439265" maskUnits="userSpaceOnUse">
      <path d="M8.8423,11.1162l-1.2085.3013c-.0142.0034-.0586-.0093-.0689-.0191l-.539-.539c-.0425-.042-.043-.2173.0317-.2359l1.2105-.2988c.0141-.0034.0586.0093.0683.0191l.5371.538c.043.0415.0435.2154-.0312.2344Z" fill="#fff" stroke="#fff" stroke-width=".25"/>
    </mask>
    <linearGradient id="linear-gradient-3" x1="7.8685985" y1="10.1894775" x2="8.1021452" y2="11.2882281" gradientUnits="userSpaceOnUse"><stop offset="0" stop-color="#ccc"/><stop offset=".0685891" stop-color="#d1d1d1"/><stop offset=".3565746" stop-color="#e3e3e3"/><stop offset=".6596427" stop-color="#eee"/><stop offset="1" stop-color="#f2f2f2"/></linearGradient>
    <mask id="mask-6" x="6.7582515" y="7.8384258" width="2.1558556" height="1.3437855" maskUnits="userSpaceOnUse">
      <path d="M8.7285,8.7549l-1.2085.3017c-.0141.0035-.0581-.0087-.0683-.0195l-.5396-.5386c-.0425-.0424-.043-.2168.0322-.2353l1.2105-.2993c.0141-.003.0581.0088.0683.0195l.5372.5371c.0424.042.0429.2158-.0318.2344Z" fill="#fff" stroke="#fff" stroke-width=".25"/>
    </mask>
    <linearGradient id="linear-gradient-4" x1="7.7546857" y1="7.8290878" x2="7.9879966" y2="8.9267292" gradientUnits="userSpaceOnUse"><stop offset="0" stop-color="#ccc"/><stop offset=".0685891" stop-color="#d1d1d1"/><stop offset=".3565746" stop-color="#e3e3e3"/><stop offset=".6596427" stop-color="#eee"/><stop offset="1" stop-color="#f2f2f2"/></linearGradient>
    <mask id="mask-7" x="7.7118511" y="8.7919366" width="2.155856" height="1.343445" maskUnits="userSpaceOnUse">
      <path d="M9.6821,9.7085l-1.209.3013c-.0141.0034-.0581-.0088-.0683-.0186l-.5391-.5391c-.0425-.0424-.0429-.2177.0318-.2358l1.2109-.2988c.0137-.0034.0581.0093.0679.019l.5376.5376c.0424.042.0429.2158-.0318.2344Z" fill="#fff" stroke="#fff" stroke-width=".25"/>
    </mask>
    <linearGradient id="linear-gradient-5" x1="8.7083863" y1="8.7819846" x2="8.9419721" y2="9.8809196" gradientUnits="userSpaceOnUse"><stop offset="0" stop-color="#ccc"/><stop offset=".0685891" stop-color="#d1d1d1"/><stop offset=".3565746" stop-color="#e3e3e3"/><stop offset=".6596427" stop-color="#eee"/><stop offset="1" stop-color="#f2f2f2"/></linearGradient>
    <mask id="mask-8" x="8.6656601" y="9.7455183" width="2.155261" height="1.3434625" maskUnits="userSpaceOnUse">
      <path d="M10.6357,10.6621l-1.2089.3013c-.0142.0034-.0581-.0088-.0684-.0191l-.5391-.539c-.042-.0425-.0429-.2168.0318-.2354l1.2104-.2988c.0137-.0034.0586.0088.0684.0185l.5371.5376c.0425.0425.043.2164-.0313.2349Z" fill="#fff" stroke="#fff" stroke-width=".25"/>
    </mask>
    <linearGradient id="linear-gradient-6" x1="9.6618673" y1="9.7362008" x2="9.8953156" y2="10.834489" gradientUnits="userSpaceOnUse"><stop offset="0" stop-color="#ccc"/><stop offset=".0685891" stop-color="#d1d1d1"/><stop offset=".3565746" stop-color="#e3e3e3"/><stop offset=".6596427" stop-color="#eee"/><stop offset="1" stop-color="#f2f2f2"/></linearGradient>
    <mask id="mask-9" x="8.5519202" y="7.3843374" width="2.1556686" height="1.3437748" maskUnits="userSpaceOnUse">
      <path d="M10.522,8.3008l-1.209.3017c-.0137.0035-.0581-.0087-.0679-.019l-.5395-.5386c-.042-.0429-.043-.2173.0317-.2363l1.2109-.2988c.0137-.003.0577.0092.0684.019l.5371.5376c.0425.0425.043.2163-.0317.2344Z" fill="#fff" stroke="#fff" stroke-width=".25"/>
    </mask>
    <linearGradient id="linear-gradient-7" x1="9.5484099" y1="7.3746105" x2="9.7820315" y2="8.4737137" gradientUnits="userSpaceOnUse"><stop offset="0" stop-color="#ccc"/><stop offset=".0685891" stop-color="#d1d1d1"/><stop offset=".3565746" stop-color="#e3e3e3"/><stop offset=".6596427" stop-color="#eee"/><stop offset="1" stop-color="#f2f2f2"/></linearGradient>
    <mask id="mask-10" x="9.5053194" y="8.3381555" width="2.1554098" height="1.3436078" maskUnits="userSpaceOnUse">
      <path d="M11.4756,9.2549l-1.209.3013c-.0137.0034-.0586-.0093-.0684-.0191l-.539-.5391c-.042-.0424-.0435-.2172.0312-.2353l1.2115-.2988c.0141-.0039.0576.0083.0678.0185l.5371.5376c.0425.042.043.2158-.0312.2349Z" fill="#fff" stroke="#fff" stroke-width=".25"/>
    </mask>
    <linearGradient id="linear-gradient-8" x1="10.5017367" y1="8.3283569" x2="10.7352248" y2="9.4268324" gradientUnits="userSpaceOnUse"><stop offset="0" stop-color="#ccc"/><stop offset=".0685891" stop-color="#d1d1d1"/><stop offset=".3565746" stop-color="#e3e3e3"/><stop offset=".6596427" stop-color="#eee"/><stop offset="1" stop-color="#f2f2f2"/></linearGradient>
    <mask id="mask-11" x="10.4586606" y="9.2914191" width="2.15572" height="1.3434803" maskUnits="userSpaceOnUse">
      <path d="M12.4287,10.208l-1.209.3013c-.0136.0034-.0576-.0083-.0683-.0191l-.5391-.539c-.042-.042-.043-.2168.0322-.2354l1.2105-.2988c.0141-.0034.0581.0088.0683.019l.5376.5376c.042.042.0425.2159-.0322.2344Z" fill="#fff" stroke="#fff" stroke-width=".25"/>
    </mask>
    <linearGradient id="linear-gradient-9" x1="11.4547298" y1="9.2814542" x2="11.6883329" y2="10.3804704" gradientUnits="userSpaceOnUse"><stop offset="0" stop-color="#ccc"/><stop offset=".0685891" stop-color="#d1d1d1"/><stop offset=".3565746" stop-color="#e3e3e3"/><stop offset=".6596427" stop-color="#eee"/><stop offset="1" stop-color="#f2f2f2"/></linearGradient>
    <mask id="mask-12" x="7.8027423" y="11.1294772" width="2.155597" height="1.3438044" maskUnits="userSpaceOnUse">
      <path d="M9.7725,12.0464l-1.208.3013c-.0142.0034-.0586-.0088-.0684-.0186l-.5396-.5391c-.0419-.0424-.0434-.2172.0318-.2353l1.2109-.2998c.0142-.0029.0586.0097.0684.02l.5371.5371c.042.0425.043.2158-.0322.2344Z" fill="#fff" stroke="#fff" stroke-width=".25"/>
    </mask>
    <linearGradient id="linear-gradient-10" x1="8.7990799" y1="11.1205605" x2="9.03253" y2="12.2188568" gradientUnits="userSpaceOnUse"><stop offset="0" stop-color="#ccc"/><stop offset=".0685891" stop-color="#d1d1d1"/><stop offset=".3565746" stop-color="#e3e3e3"/><stop offset=".6596427" stop-color="#eee"/><stop offset="1" stop-color="#f2f2f2"/></linearGradient>
    <mask id="mask-13" x="9.5961113" y="10.676187" width="2.1558775" height="1.3434252" maskUnits="userSpaceOnUse">
      <path d="M11.5664,11.5928l-1.209.3012c-.0136.0035-.0581-.0087-.0683-.019l-.5391-.5391c-.0425-.042-.043-.2168.0317-.2353l1.2105-.2988c.0141-.0035.0586.0087.0688.0185l.5371.5371c.0425.043.043.2168-.0317.2354Z" fill="#fff" stroke="#fff" stroke-width=".25"/>
    </mask>
    <linearGradient id="linear-gradient-11" x1="10.5922848" y1="10.6664984" x2="10.825711" y2="11.7646821" gradientUnits="userSpaceOnUse"><stop offset="0" stop-color="#ccc"/><stop offset=".0685891" stop-color="#d1d1d1"/><stop offset=".3565746" stop-color="#e3e3e3"/><stop offset=".6596427" stop-color="#eee"/><stop offset="1" stop-color="#f2f2f2"/></linearGradient>
    <mask id="mask-14" x="11.3894519" y="10.2220878" width="2.1556288" height="1.3434252" maskUnits="userSpaceOnUse">
      <path d="M13.3594,11.1387l-1.2085.3012c-.0142.0035-.0581-.0087-.0684-.0185l-.539-.5391c-.0425-.0429-.0435-.2173.0317-.2358l1.2109-.2988c.0137-.0035.0577.0087.0679.019l.5376.5376c.042.042.0425.2158-.0322.2344Z" fill="#fff" stroke="#fff" stroke-width=".25"/>
    </mask>
    <linearGradient id="linear-gradient-12" x1="12.3853833" y1="10.212356" x2="12.6189185" y2="11.3110528" gradientUnits="userSpaceOnUse"><stop offset="0" stop-color="#ccc"/><stop offset=".0685891" stop-color="#d1d1d1"/><stop offset=".3565746" stop-color="#e3e3e3"/><stop offset=".6596427" stop-color="#eee"/><stop offset="1" stop-color="#f2f2f2"/></linearGradient>
  </defs>
  <g>
    <g mask="url(#mask)">
      <g>
        <path d="M14.5464,12.4541l-6.2554,1.5923c-.0898.022-.3725-.0562-.4385-.1216L1.9868,8.0586c-.271-.2705-.2778-1.0303.2036-1.1489l6.2676-1.5762c.0894-.022.3721.0566.437.1221l5.855,5.8549c.2705.2706.2749,1.0245-.2036,1.1436Z" fill="#d9d9d9"/>
        <polygon points="7.5977 12.5088 15.6152 10.6025 15.6885 12.2153 7.5732 14.3174 7.5977 12.5088" fill="url(#New_Gradient_3)" fill-rule="evenodd"/>
        <path d="M2.0493,6.667l5.7637,5.7725c-.1699.6113,0,1.4912,0,1.4912L1.8535,8.3042l.1958-1.6372Z" fill="url(#New_Gradient_2)" fill-rule="evenodd"/>
        <path d="M14.5464,12.4541l-6.2554,1.5923c-.0898.022-.3725-.0562-.4385-.1216L1.9868,8.0586c-.271-.2705-.2778-1.0303.2036-1.1489l6.2676-1.5762c.0894-.022.3721.0566.437.1221l5.855,5.8549c.2705.2706.2749,1.0245-.2036,1.1436Z" fill="none" stroke="#000" stroke-linecap="round" stroke-linejoin="round" stroke-width="2"/>
      </g>
    </g>
    <g>
      <g mask="url(#mask-1)">
        <g>
          <path d="M14.5464,12.4541l-6.2554,1.5923c-.0898.022-.3725-.0562-.4385-.1216L1.9868,8.0586c-.271-.2705-.2778-1.0303.2036-1.1489l6.2676-1.5762c.0889-.022.3721.0566.437.1221l5.855,5.8549c.2705.2706.2749,1.0245-.2036,1.1436Z" fill="#d9d9d9"/>
          <polygon points="7.8291 13.0625 16.895 10.9067 16.9775 12.7314 7.8013 15.1084 7.8291 13.0625" fill="url(#New_Gradient_3-2)" fill-rule="evenodd"/>
          <path d="M1.5547,6.457l6.5176,6.5279c-.1924.6904,0,1.686,0,1.686L1.3335,8.3086l.2212-1.8516Z" fill="url(#New_Gradient_2-2)" fill-rule="evenodd"/>
        </g>
      </g>
      <g mask="url(#mask-2)">
        <g>
          <polygon points="3.1855 7.2021 4.4849 8.5015 9.5986 7.2021 8.3271 5.9307 3.1855 7.2021" fill="#487653" fill-rule="evenodd"/>
          <polygon points="3.1855 7.5068 4.4849 8.8057 9.5986 7.5068 8.3271 6.2349 3.1855 7.5068" fill="#76b781" fill-rule="evenodd"/>
        </g>
      </g>
      <g>
        <g mask="url(#mask-3)">
          <g>
            <path d="M6.9355,9.209l-1.2089.3013c-.0137.0034-.0581-.0083-.0684-.0191l-.5391-.5391c-.0424-.0419-.0434-.2167.0318-.2353l1.2104-.2988c.0142-.0034.0586.0088.0684.019l.5376.5376c.042.042.043.2158-.0318.2344Z" fill="#666"/>
            <polygon points="5.0908 8.6963 5.749 9.3315 7.0654 8.9688 6.4531 8.3325 5.0908 8.6963" fill="url(#linear-gradient)" fill-rule="evenodd"/>
            <path d="M6.9355,9.209l-1.2089.3013c-.0137.0034-.0581-.0083-.0684-.0191l-.5391-.5391c-.0424-.0419-.0434-.2167.0318-.2353l1.2104-.2988c.0142-.0034.0586.0088.0684.019l.5376.5376c.042.042.043.2158-.0318.2344Z" fill="none" stroke="#4f4f4f" stroke-width=".25"/>
          </g>
        </g>
        <g mask="url(#mask-4)">
          <g>
            <path d="M7.8887,10.1621l-1.2085.3018c-.0142.0034-.0581-.0088-.0684-.0191l-.539-.539c-.0425-.042-.043-.2168.0317-.2359l1.21-.2988c.0146-.0029.0585.0093.0688.019l.5376.5376c.042.0425.043.2159-.0322.2344Z" fill="#666"/>
            <polygon points="6.0439 9.6494 6.7031 10.2852 8.0195 9.9219 7.4063 9.2861 6.0439 9.6494" fill="url(#linear-gradient-2)" fill-rule="evenodd"/>
            <path d="M7.8887,10.1621l-1.2085.3018c-.0142.0034-.0581-.0088-.0684-.0191l-.539-.539c-.0425-.042-.043-.2168.0317-.2359l1.21-.2988c.0146-.0029.0585.0093.0688.019l.5376.5376c.042.0425.043.2159-.0322.2344Z" fill="none" stroke="#4f4f4f" stroke-width=".25"/>
          </g>
        </g>
        <g mask="url(#mask-5)">
          <g>
            <path d="M8.8423,11.1162l-1.2085.3013c-.0142.0034-.0586-.0093-.0689-.0191l-.539-.539c-.0425-.042-.043-.2173.0317-.2359l1.2105-.2988c.0141-.0034.0586.0093.0683.0191l.5371.538c.043.0415.0435.2154-.0312.2344Z" fill="#666"/>
            <polygon points="6.998 10.6025 7.6563 11.2383 8.9727 10.875 8.3594 10.2397 6.998 10.6025" fill="url(#linear-gradient-3)" fill-rule="evenodd"/>
            <path d="M8.8423,11.1162l-1.2085.3013c-.0142.0034-.0586-.0093-.0689-.0191l-.539-.539c-.0425-.042-.043-.2173.0317-.2359l1.2105-.2988c.0141-.0034.0586.0093.0683.0191l.5371.538c.043.0415.0435.2154-.0312.2344Z" fill="none" stroke="#4f4f4f" stroke-width=".25"/>
          </g>
        </g>
        <g mask="url(#mask-6)">
          <g>
            <path d="M8.7285,8.7549l-1.2085.3017c-.0141.0035-.0581-.0087-.0683-.0195l-.5396-.5386c-.0425-.0424-.043-.2168.0322-.2353l1.2105-.2993c.0141-.003.0581.0088.0683.0195l.5372.5371c.0424.042.0429.2158-.0318.2344Z" fill="#666"/>
            <polygon points="6.8838 8.2417 7.5425 8.877 8.8589 8.5142 8.2461 7.8789 6.8838 8.2417" fill="url(#linear-gradient-4)" fill-rule="evenodd"/>
            <path d="M8.7285,8.7549l-1.2085.3017c-.0141.0035-.0581-.0087-.0683-.0195l-.5396-.5386c-.0425-.0424-.043-.2168.0322-.2353l1.2105-.2993c.0141-.003.0581.0088.0683.0195l.5372.5371c.0424.042.0429.2158-.0318.2344Z" fill="none" stroke="#4f4f4f" stroke-width=".25"/>
          </g>
        </g>
        <g mask="url(#mask-7)">
          <g>
            <path d="M9.6821,9.7085l-1.209.3013c-.0141.0034-.0581-.0088-.0683-.0186l-.5391-.5391c-.0425-.0424-.0429-.2177.0318-.2358l1.2109-.2988c.0137-.0034.0581.0093.0679.019l.5376.5376c.0424.042.0429.2158-.0318.2344Z" fill="#666"/>
            <polygon points="7.8379 9.1953 8.4961 9.8311 9.8125 9.4678 9.1997 8.832 7.8379 9.1953" fill="url(#linear-gradient-5)" fill-rule="evenodd"/>
            <path d="M9.6821,9.7085l-1.209.3013c-.0141.0034-.0581-.0088-.0683-.0186l-.5391-.5391c-.0425-.0424-.0429-.2177.0318-.2358l1.2109-.2988c.0137-.0034.0581.0093.0679.019l.5376.5376c.0424.042.0429.2158-.0318.2344Z" fill="none" stroke="#4f4f4f" stroke-width=".25"/>
          </g>
        </g>
        <g mask="url(#mask-8)">
          <g>
            <path d="M10.6357,10.6621l-1.2089.3013c-.0142.0034-.0581-.0088-.0684-.0191l-.5391-.539c-.042-.0425-.0429-.2168.0318-.2354l1.2104-.2988c.0137-.0034.0586.0088.0684.0185l.5371.5376c.0425.0425.043.2164-.0313.2349Z" fill="#666"/>
            <polygon points="8.791 10.1489 9.4497 10.7847 10.7661 10.4214 10.1533 9.7861 8.791 10.1489" fill="url(#linear-gradient-6)" fill-rule="evenodd"/>
            <path d="M10.6357,10.6621l-1.2089.3013c-.0142.0034-.0581-.0088-.0684-.0191l-.5391-.539c-.042-.0425-.0429-.2168.0318-.2354l1.2104-.2988c.0137-.0034.0586.0088.0684.0185l.5371.5376c.0425.0425.043.2164-.0313.2349Z" fill="none" stroke="#4f4f4f" stroke-width=".25"/>
          </g>
        </g>
        <g mask="url(#mask-9)">
          <g>
            <path d="M10.522,8.3008l-1.209.3017c-.0137.0035-.0581-.0087-.0679-.019l-.5395-.5386c-.042-.0429-.043-.2173.0317-.2363l1.2109-.2988c.0137-.003.0577.0092.0684.019l.5371.5376c.0425.0425.043.2163-.0317.2344Z" fill="#666"/>
            <polygon points="8.6777 7.7881 9.3359 8.4238 10.6528 8.0605 10.0396 7.4248 8.6777 7.7881" fill="url(#linear-gradient-7)" fill-rule="evenodd"/>
            <path d="M10.522,8.3008l-1.209.3017c-.0137.0035-.0581-.0087-.0679-.019l-.5395-.5386c-.042-.0429-.043-.2173.0317-.2363l1.2109-.2988c.0137-.003.0577.0092.0684.019l.5371.5376c.0425.0425.043.2163-.0317.2344Z" fill="none" stroke="#4f4f4f" stroke-width=".25"/>
          </g>
        </g>
        <g mask="url(#mask-10)">
          <g>
            <path d="M11.4756,9.2549l-1.209.3013c-.0137.0034-.0586-.0093-.0684-.0191l-.539-.5391c-.042-.0424-.0435-.2172.0312-.2353l1.2115-.2988c.0141-.0039.0576.0083.0678.0185l.5371.5376c.0425.042.043.2158-.0312.2349Z" fill="#666"/>
            <polygon points="9.6309 8.7412 10.2891 9.377 11.606 9.0137 10.9932 8.3784 9.6309 8.7412" fill="url(#linear-gradient-8)" fill-rule="evenodd"/>
            <path d="M11.4756,9.2549l-1.209.3013c-.0137.0034-.0586-.0093-.0684-.0191l-.539-.5391c-.042-.0424-.0435-.2172.0312-.2353l1.2115-.2988c.0141-.0039.0576.0083.0678.0185l.5371.5376c.0425.042.043.2158-.0312.2349Z" fill="none" stroke="#4f4f4f" stroke-width=".25"/>
          </g>
        </g>
        <g mask="url(#mask-11)">
          <g>
            <path d="M12.4287,10.208l-1.209.3013c-.0136.0034-.0576-.0083-.0683-.0191l-.5391-.539c-.042-.042-.043-.2168.0322-.2354l1.2105-.2988c.0141-.0034.0581.0088.0683.019l.5376.5376c.042.042.0425.2159-.0322.2344Z" fill="#666"/>
            <polygon points="10.584 9.6948 11.2427 10.3306 12.5591 9.9673 11.9463 9.3315 10.584 9.6948" fill="url(#linear-gradient-9)" fill-rule="evenodd"/>
            <path d="M12.4287,10.208l-1.209.3013c-.0136.0034-.0576-.0083-.0683-.0191l-.5391-.539c-.042-.042-.043-.2168.0322-.2354l1.2105-.2988c.0141-.0034.0581.0088.0683.019l.5376.5376c.042.042.0425.2159-.0322.2344Z" fill="none" stroke="#4f4f4f" stroke-width=".25"/>
          </g>
        </g>
        <g mask="url(#mask-12)">
          <g>
            <path d="M9.7725,12.0464l-1.208.3013c-.0142.0034-.0586-.0088-.0684-.0186l-.5396-.5391c-.0419-.0424-.0434-.2172.0318-.2353l1.2109-.2998c.0142-.0029.0586.0097.0684.02l.5371.5371c.042.0425.043.2158-.0322.2344Z" fill="#666"/>
            <polygon points="7.9282 11.5332 8.5869 12.1689 9.9033 11.8057 9.29 11.1704 7.9282 11.5332" fill="url(#linear-gradient-10)" fill-rule="evenodd"/>
            <path d="M9.7725,12.0464l-1.208.3013c-.0142.0034-.0586-.0088-.0684-.0186l-.5396-.5391c-.0419-.0424-.0434-.2172.0318-.2353l1.2109-.2998c.0142-.0029.0586.0097.0684.02l.5371.5371c.042.0425.043.2158-.0322.2344Z" fill="none" stroke="#4f4f4f" stroke-width=".25"/>
          </g>
        </g>
        <g mask="url(#mask-13)">
          <g>
            <path d="M11.5664,11.5928l-1.209.3012c-.0136.0035-.0581-.0087-.0683-.019l-.5391-.5391c-.0425-.042-.043-.2168.0317-.2353l1.2105-.2988c.0141-.0035.0586.0087.0688.0185l.5371.5371c.0425.043.043.2168-.0317.2354Z" fill="#666"/>
            <polygon points="9.7217 11.0796 10.3799 11.7148 11.6963 11.3516 11.084 10.7163 9.7217 11.0796" fill="url(#linear-gradient-11)" fill-rule="evenodd"/>
            <path d="M11.5664,11.5928l-1.209.3012c-.0136.0035-.0581-.0087-.0683-.019l-.5391-.5391c-.0425-.042-.043-.2168.0317-.2353l1.2105-.2988c.0141-.0035.0586.0087.0688.0185l.5371.5371c.0425.043.043.2168-.0317.2354Z" fill="none" stroke="#4f4f4f" stroke-width=".25"/>
          </g>
        </g>
        <g mask="url(#mask-14)">
          <g>
            <path d="M13.3594,11.1387l-1.2085.3012c-.0142.0035-.0581-.0087-.0684-.0185l-.539-.5391c-.0425-.0429-.0435-.2173.0317-.2358l1.2109-.2988c.0137-.0035.0577.0087.0679.019l.5376.5376c.042.042.0425.2158-.0322.2344Z" fill="#666"/>
            <polygon points="11.5146 10.6255 12.1733 11.2612 13.4897 10.8979 12.877 10.2622 11.5146 10.6255" fill="url(#linear-gradient-12)" fill-rule="evenodd"/>
            <path d="M13.3594,11.1387l-1.2085.3012c-.0142.0035-.0581-.0087-.0684-.0185l-.539-.5391c-.0425-.0429-.0435-.2173.0317-.2358l1.2109-.2988c.0137-.0035.0577.0087.0679.019l.5376.5376c.042.042.0425.2158-.0322.2344Z" fill="none" stroke="#4f4f4f" stroke-width=".25"/>
          </g>
        </g>
      </g>
    </g>
  </g>
  <g>
    <polyline points="7.3833 9.3901 6.1045 9.6699 6.7031 10.2852" fill="none" stroke="#fff" stroke-linecap="square" stroke-linejoin="bevel" stroke-width=".5"/>
    <polyline points="8.3364 10.3438 7.0576 10.6235 7.6563 11.2383" fill="none" stroke="#fff" stroke-linecap="square" stroke-linejoin="bevel" stroke-width=".5"/>
    <polyline points="9.2676 11.2749 7.9883 11.5547 8.5869 12.1689" fill="none" stroke="#fff" stroke-linecap="square" stroke-linejoin="bevel" stroke-width=".5"/>
    <polyline points="6.4282 8.4355 5.1494 8.7153 5.748 9.3301" fill="none" stroke="#fff" stroke-linecap="square" stroke-linejoin="bevel" stroke-width=".5"/>
    <polyline points="9.1084 8.9175 7.8291 9.1973 8.4282 9.812" fill="none" stroke="#fff" stroke-linecap="square" stroke-linejoin="bevel" stroke-width=".5"/>
    <polyline points="10.0615 9.8706 8.7832 10.1504 9.3813 10.7651" fill="none" stroke="#fff" stroke-linecap="square" stroke-linejoin="bevel" stroke-width=".5"/>
    <polyline points="10.9922 10.8018 9.7134 11.0815 10.3115 11.6963" fill="none" stroke="#fff" stroke-linecap="square" stroke-linejoin="bevel" stroke-width=".5"/>
    <polyline points="8.1533 7.9629 6.875 8.2422 7.4731 8.8569" fill="none" stroke="#fff" stroke-linecap="square" stroke-linejoin="bevel" stroke-width=".5"/>
    <polyline points="10.9019 8.4639 9.623 8.7437 10.2212 9.3584" fill="none" stroke="#fff" stroke-linecap="square" stroke-linejoin="bevel" stroke-width=".5"/>
    <polyline points="11.855 9.417 10.5762 9.6968 11.1748 10.3115" fill="none" stroke="#fff" stroke-linecap="square" stroke-linejoin="bevel" stroke-width=".5"/>
    <polyline points="12.7861 10.3477 11.5068 10.6274 12.1055 11.2422" fill="none" stroke="#fff" stroke-linecap="square" stroke-linejoin="bevel" stroke-width=".5"/>
    <polyline points="9.9468 7.5088 8.668 7.7886 9.2666 8.4033" fill="none" stroke="#fff" stroke-linecap="square" stroke-linejoin="bevel" stroke-width=".5"/>
  </g>
</svg>