<?xml version="1.0" encoding="UTF-8"?>
<svg id="Layer_1" data-name="Layer 1" xmlns="http://www.w3.org/2000/svg" width="16" height="16" xmlns:xlink="http://www.w3.org/1999/xlink" viewBox="0 0 16 16">
  <defs>
    <linearGradient id="New_Gradient_170" data-name="New Gradient 170" x1="1.292" y1="7.63741" x2="10.6903953" y2="7.63741" gradientUnits="userSpaceOnUse">
      <stop offset="0" stop-color="#ccc"/>
      <stop offset=".337082" stop-color="#999"/>
      <stop offset=".629211" stop-color="#b2b2b2"/>
      <stop offset="1" stop-color="#d9d9d9"/>
    </linearGradient>
    <linearGradient id="linear-gradient" x1="1.292" y1="7.63741" x2="10.6903953" y2="7.63741" gradientUnits="userSpaceOnUse">
      <stop offset="0" stop-color="#ccc"/>
      <stop offset=".337082" stop-color="#999"/>
      <stop offset=".629211" stop-color="#b2b2b2"/>
      <stop offset="1" stop-color="#d9d9d9"/>
    </linearGradient>
    <radialGradient id="radial-gradient" cx="2.2781934" cy="7.2317813" fx="2.2781934" fy="7.2317813" r="9.6190928" gradientTransform="translate(-.0516025 -.5093) scale(.9877)" gradientUnits="userSpaceOnUse">
      <stop offset=".140449" stop-color="#ffe900"/>
      <stop offset=".1588104" stop-color="#ffe204"/>
      <stop offset=".2913167" stop-color="#ffb420"/>
      <stop offset=".4092463" stop-color="#ff9334"/>
      <stop offset=".5071755" stop-color="#ff7f40"/>
      <stop offset=".573034" stop-color="#ff7845"/>
    </radialGradient>
    <linearGradient id="New_Gradient_161" data-name="New Gradient 161" x1="6.5557203" y1="13.0316892" x2="14.8252787" y2="6.0927058" gradientUnits="userSpaceOnUse">
      <stop offset="0" stop-color="#ccc"/>
      <stop offset=".415726" stop-color="#f2f2f2"/>
      <stop offset=".48877" stop-color="#fff"/>
      <stop offset=".578659" stop-color="#e5e5e5"/>
      <stop offset="1" stop-color="#d9d9d9"/>
    </linearGradient>
    <linearGradient id="New_Gradient_157" data-name="New Gradient 157" x1="6.8470461" y1="11.4545241" x2="12.5949458" y2="5.7066244" gradientUnits="userSpaceOnUse">
      <stop offset="0" stop-color="#999"/>
      <stop offset=".415726" stop-color="#f2f2f2"/>
      <stop offset=".48877" stop-color="#fff"/>
      <stop offset=".578659" stop-color="#e5e5e5"/>
      <stop offset="1" stop-color="#d9d9d9"/>
    </linearGradient>
    <mask id="mask" x="8.8593953" y="6.168287" width="5.6493999" height="8.8305456" maskUnits="userSpaceOnUse">
      <path d="M9.6708953,7.4429l4.2567999-1.0938c.3223048-.083.5811.1118.5811.4336v6.3736c0,.3212-.2587952.6494-.5811.7309l-4.2567999,1.0928c-.3232.082-.585-.1113-.585-.4336v-6.3721c0-.3222.2618-.6494.585-.7314Z" fill="#fff" fill-rule="evenodd"/>
    </mask>
    <linearGradient id="New_Gradient_155" data-name="New Gradient 155" x1="11.4859539" y1="6.2113595" x2="12.1088065" y2="15.1185659" gradientUnits="userSpaceOnUse">
      <stop offset="0" stop-color="#d9d9d9"/>
      <stop offset="1" stop-color="#ccc"/>
    </linearGradient>
    <linearGradient id="New_Gradient_156" data-name="New Gradient 156" x1="8.4764396" y1="6.66255" x2="14.5549794" y2="14.1689215" gradientUnits="userSpaceOnUse">
      <stop offset="0" stop-color="#ccc"/>
      <stop offset="1" stop-color="#fff"/>
    </linearGradient>
    <mask id="mask-1" x="8.7772953" y="8.7584916" width="5.1719999" height="5.2937215" maskUnits="userSpaceOnUse">
      <path d="M9.6522953,12.2461c0-1.1045.8936-2.2232,1.9990999-2.5,1.1045-.2769,1.9969999.394,1.9969999,1.4976,0,1.1044-.8925,2.2236-1.9969999,2.4995-1.1055.2768-1.9990999-.3931-1.9990999-1.4971Z" fill="#fff" fill-rule="evenodd"/>
    </mask>
    <radialGradient id="New_Gradient_154" data-name="New Gradient 154" cx="41.5583473" cy="18.8631602" fx="41.5583473" fy="18.8631602" r="4.3328722" gradientTransform="translate(-24.0977222 -3.7481224) scale(.8898)" gradientUnits="userSpaceOnUse">
      <stop offset="0" stop-color="#f2f2f2"/>
      <stop offset=".415726" stop-color="#ccc"/>
      <stop offset="1" stop-color="gray"/>
    </radialGradient>
    <mask id="mask-2" x="10.2088953" y="6.7911099" width="2.7031999" height="2.7650488" maskUnits="userSpaceOnUse">
      <path d="M10.7255953,8.6177c0-.5528.4463-1.1133.999-1.251.5527-.1387,1,.1973,1,.748,0,.5538-.4473,1.1133-1,1.2515s-.999-.1977-.999-.7485Z" fill="#fff" fill-rule="evenodd"/>
    </mask>
    <mask id="mask-3" x="10.2088953" y="6.7911099" width="2.7031999" height="2.7650488" maskUnits="userSpaceOnUse">
      <path d="M10.5604953,8.4238c0-.5512.4483-1.1118,1.001-1.25.5528-.1382.999.1973.999.7491,0,.5522-.4462,1.1127-.999,1.2504-.5527.1387-1.001-.1972-1.001-.7495Z" fill="#fff" fill-rule="evenodd" stroke="#fff" stroke-miterlimit="3.8637" stroke-width=".7032"/>
    </mask>
    <radialGradient id="New_Gradient_152" data-name="New Gradient 152" cx="12.5082952" cy="9.298579" fx="12.5082952" fy="9.298579" r="2.2722378" gradientUnits="userSpaceOnUse">
      <stop offset="0" stop-color="#f2f2f2"/>
      <stop offset=".443817" stop-color="#ccc"/>
      <stop offset="1" stop-color="gray"/>
    </radialGradient>
    <radialGradient id="New_Gradient_153" data-name="New Gradient 153" cx="39.6134476" cy="12.9565836" fx="39.6134476" fy="12.9565836" r=".8205316" gradientTransform="translate(-24.0977222 -3.7481224) scale(.8898)" gradientUnits="userSpaceOnUse">
      <stop offset="0" stop-color="#f2f2f2"/>
      <stop offset="1" stop-color="#999"/>
    </radialGradient>
    <radialGradient id="New_Gradient_151" data-name="New Gradient 151" cx="39.1492652" cy="16.399316" fx="39.1492652" fy="16.399316" r="1.4526376" gradientTransform="translate(-24.0977222 -3.7481224) scale(.8898)" gradientUnits="userSpaceOnUse">
      <stop offset="0" stop-color="#f2f2f2"/>
      <stop offset="1" stop-color="#999"/>
    </radialGradient>
    <mask id="mask-4" x="9.3280953" y="7.7387144" width=".6211" height=".6586396" maskUnits="userSpaceOnUse">
      <path d="M9.7011953,7.8892c.1386-.0337.248.0493.248.1879,0,.1373-.1094.2769-.248.313-.1407.0332-.25-.0507-.25-.1875,0-.1386.1093-.2793.25-.3134Z" fill="#fff"/>
    </mask>
    <mask id="mask-5" x="9.3280953" y="13.6436053" width=".6211" height=".6582614" maskUnits="userSpaceOnUse">
      <path d="M9.7011953,13.7949c.1386-.0351.248.0484.248.187,0,.1372-.1094.2774-.248.3125-.1407.0337-.25-.0498-.25-.1875,0-.1381.1093-.2778.25-.312Z" fill="#fff"/>
    </mask>
    <mask id="mask-6" x="13.2372952" y="6.7069248" width=".6221" height=".6581063" maskUnits="userSpaceOnUse">
      <path d="M13.6093952,6.8579c.1386048-.0351.25.0488.25.1865s-.1113952.2784-.25.313c-.1387.0342-.25-.0498-.25-.187,0-.1377.1113-.2793.25-.3125Z" fill="#fff"/>
    </mask>
    <mask id="mask-7" x="13.2577952" y="12.5745459" width=".6211" height=".6581033" maskUnits="userSpaceOnUse">
      <path d="M13.6288952,12.7251c.1397-.0347.25.0488.25.187,0,.1387-.1103.2778-.25.3125-.1377.0352-.25-.0483-.25-.187,0-.1382.1123-.2773.25-.3125Z" fill="#fff"/>
    </mask>
    <linearGradient id="New_Gradient_150" data-name="New Gradient 150" x1="8.8126676" y1="6.7026597" x2="14.7834602" y2="14.6261691" gradientUnits="userSpaceOnUse">
      <stop offset="0" stop-color="#fff"/>
      <stop offset="1" stop-color="#e5e5e5"/>
    </linearGradient>
    <linearGradient id="New_Gradient_149" data-name="New Gradient 149" x1="10.3054932" y1="5.8055869" x2="12.5067322" y2="14.6342746" gradientUnits="userSpaceOnUse">
      <stop offset="0" stop-color="#b2b2b2"/>
      <stop offset="1" stop-color="gray"/>
    </linearGradient>
    <linearGradient id="New_Gradient_148" data-name="New Gradient 148" x1="6.5890658" y1="13.6787674" x2="9.3288278" y2="11.3798341" gradientUnits="userSpaceOnUse">
      <stop offset="0" stop-color="#ccc"/>
      <stop offset="1" stop-color="#b2b2b2"/>
    </linearGradient>
    <linearGradient id="New_Gradient_147" data-name="New Gradient 147" x1="11.2026575" y1="6.3410395" x2="13.6364587" y2="4.2988378" gradientUnits="userSpaceOnUse">
      <stop offset="0" stop-color="#d9d9d9"/>
      <stop offset="1" stop-color="#fff"/>
    </linearGradient>
  </defs>
  <g>
    <path d="M7.3241954,3.9858c-.2529.1202-.4921954.2447-.7431.3672v-1.0044h-.0489c.2676-.1298.5235-.2641.792-.3911v1.0283ZM5.7440954,4.7231c-.1933.0733-.3994.1426-.623.2066l-.1934.0522v-1.0288l.1934-.0522c.2236-.0635.4297-.1333.623-.2056v1.0278ZM4.0917955,5.1714c-.3467.0649-.666.1094-.959.1367v-1.0288c.293-.0273.6123-.0718.959-.1362v1.0283ZM8.9237953,11.1646c-.2802.0576-.5302.1284-.7617.2041v-1.0284c.2315-.0771.4815-.1469.7617-.2041v1.0284ZM7.3241954,11.7109c-.2529.1187-.4921954.2427-.7431.3658v-1.0035h-.0489c.2676-.1318.5235-.2651.792-.3911v1.0288ZM5.7440954,12.4478c-.1933.0732-.3994.1416-.623.206l-.1934.0518v-1.0288l.1934-.0513c.2236-.0645.4297-.1333.623-.2061v1.0284ZM4.0917955,12.895c-.3467.0654-.666.1089-.959.1377v-1.0288c.293-.0288.6123-.0718.959-.1377v1.0288ZM8.9237953,3.4399c-.2802.0586-.5302.128-.7617.2056v-1.0298c.2315-.0771.4815-.145.7617-.2041v1.0283ZM1.292,11.6255v-6.3262c.1171955.0166.4530955.0586.956.0547v-1.0293c-.5029045.0049-.8388045-.0366-.956-.0547v-.5088s1.5341955.2876,3.8290954-.3603c2.0214999-.5703,2.4609046-1.6006,5.5692999-1.6719v.478c-.3115.0093-.5947.0279-.8563953.0547v1.0283c.2616953-.0273.5448953-.0454.8563953-.0546v6.6958c-.3115.0087-.5947.0273-.8563953.0537v1.0283c.2616953-.0264.5448953-.044.8563953-.0537v.479c-3.1083953.0718-3.5477999,1.102-5.5692999,1.6714-2.2948999.6479-3.8290954.3818-3.8290954.3818v-.4692c.1171955.018.4530955.059.956.0551v-1.0293c-.5029045.0039-.8388045-.0361-.956-.0546v-.3682Z" fill="url(#New_Gradient_170)" fill-rule="evenodd" stroke="#000" stroke-linecap="round" stroke-linejoin="round" stroke-width="1.75"/>
    <path d="M7.3241954,3.9858c-.2529.1202-.4921954.2447-.7431.3672v-1.0044h-.0489c.2676-.1298.5235-.2641.792-.3911v1.0283ZM5.7440954,4.7231c-.1933.0733-.3994.1426-.623.2066l-.1934.0522v-1.0288l.1934-.0522c.2236-.0635.4297-.1333.623-.2056v1.0278ZM4.0917955,5.1714c-.3467.0649-.666.1094-.959.1367v-1.0288c.293-.0273.6123-.0718.959-.1362v1.0283ZM8.9237953,11.1646c-.2802.0576-.5302.1284-.7617.2041v-1.0284c.2315-.0771.4815-.1469.7617-.2041v1.0284ZM7.3241954,11.7109c-.2529.1187-.4921954.2427-.7431.3658v-1.0035h-.0489c.2676-.1318.5235-.2651.792-.3911v1.0288ZM5.7440954,12.4478c-.1933.0732-.3994.1416-.623.206l-.1934.0518v-1.0288l.1934-.0513c.2236-.0645.4297-.1333.623-.2061v1.0284ZM4.0917955,12.895c-.3467.0654-.666.1089-.959.1377v-1.0288c.293-.0288.6123-.0718.959-.1377v1.0288ZM8.9237953,3.4399c-.2802.0586-.5302.128-.7617.2056v-1.0298c.2315-.0771.4815-.145.7617-.2041v1.0283ZM1.292,11.6255v-6.3262c.1171955.0166.4530955.0586.956.0547v-1.0293c-.5029045.0049-.8388045-.0366-.956-.0547v-.5088s1.5341955.2876,3.8290954-.3603c2.0214999-.5703,2.4609046-1.6006,5.5692999-1.6719v.478c-.3115.0093-.5947.0279-.8563953.0547v1.0283c.2616953-.0273.5448953-.0454.8563953-.0546v6.6958c-.3115.0087-.5947.0273-.8563953.0537v1.0283c.2616953-.0264.5448953-.044.8563953-.0537v.479c-3.1083953.0718-3.5477999,1.102-5.5692999,1.6714-2.2948999.6479-3.8290954.3818-3.8290954.3818v-.4692c.1171955.018.4530955.059.956.0551v-1.0293c-.5029045.0039-.8388045-.0361-.956-.0546v-.3682Z" fill="url(#linear-gradient)" fill-rule="evenodd"/>
    <path d="M4.1151954,11.457c-1.7275.3286-2.8231954.1241-2.8231954.1241v-5.834s1.0956955.205,2.8231954-.1241v5.834ZM8.9433953,9.7524c-1.6329.3287-2.2656999,1.0284-3.8222999,1.4668-.082.023-.1610954.045-.2393.0655v-5.834c.0782046-.0205.1573-.041.2393-.0645,1.5635-.4409,2.1815999-1.1582,3.8222999-1.4931v5.8593ZM10.7157953,9.5718c-.3525.0083-.667.0273-.959.0586V3.7705c.2852047-.0283.5928-.0474.9336-.0557l.0254,5.857Z" fill="url(#radial-gradient)" fill-rule="evenodd" stroke="#d68100" stroke-width=".5"/>
  </g>
  <g>
    <path d="M9.1972953,14.8579l-2.2109999-2.2109c-.0682954-.0786-.1074-.1851-.1074-.3106v-6.3735c0-.3213.2598-.6499.5801046-.7319l4.2597953-1.0918c.1953-.0508.3574-.001.4707.1215l2.2010999,2.1988c.0733.0801.1182.1914.1182.3232v6.3736c0,.3212-.2587952.6494-.5811.7309l-4.2567999,1.0928c-.1963.0498-.3701-.002-.4736-.1221Z" fill="url(#New_Gradient_161)" stroke="#000" stroke-miterlimit="3.8637" stroke-width="2"/>
    <path d="M9.1972953,14.8579l-2.2109999-2.2109c-.0682954-.0786-.1074-.1851-.1074-.3106v-6.3735c0-.3213.2598-.6499.5801046-.7319l4.2597953-1.0918c.1953-.0508.3574-.001.4707.1215l2.2108999,2.2115-5.2030999,8.3857Z" fill="url(#New_Gradient_157)" fill-rule="evenodd"/>
    <g mask="url(#mask)">
      <g>
        <path d="M9.6708953,7.4429l4.2567999-1.0938c.3223048-.083.5811.1118.5811.4336v6.3736c0,.3212-.2587952.6494-.5811.7309l-4.2567999,1.0928c-.3232.082-.585-.1113-.585-.4336v-6.3721c0-.3222.2618-.6494.585-.7314Z" fill="url(#New_Gradient_155)" fill-rule="evenodd"/>
        <path d="M9.4286953,7.2573l4.1728999-1.0703c.3144048-.081.5722.1084.5722.4243v6.2456c0,.316-.2577952.6368-.5722.7178l-4.1728999,1.0703c-.3154.0821-.5693-.1094-.5693-.4228v-6.2466c0-.3159.2539-.6372.5693-.7183Z" fill="url(#New_Gradient_156)" fill-rule="evenodd"/>
      </g>
    </g>
    <g mask="url(#mask-1)">
      <g>
        <path d="M9.6522953,12.2461c0-1.1045.8936-2.2232,1.9990999-2.5,1.1045-.2769,1.9969999.394,1.9969999,1.4976,0,1.1044-.8925,2.2236-1.9969999,2.4995-1.1055.2768-1.9990999-.3931-1.9990999-1.4971Z" fill="#ccc" fill-rule="evenodd"/>
        <path d="M9.3632953,11.9067c0-1.1045.8965-2.2236,1.9989999-2.5,1.1025-.2763,2.0009999.3936,2.0009999,1.4976s-.8985,2.2231-2.0009999,2.4995c-1.1025.2769-1.9989999-.3935-1.9989999-1.4971Z" fill="url(#New_Gradient_154)" fill-rule="evenodd" stroke="#4c4c4c" stroke-miterlimit="3.8637" stroke-width="1.172"/>
      </g>
    </g>
    <g mask="url(#mask-2)">
      <g>
        <path d="M10.7255953,8.6177c0-.5528.4463-1.1133.999-1.251.5527-.1387,1,.1973,1,.748,0,.5538-.4473,1.1133-1,1.2515s-.999-.1977-.999-.7485Z" fill="#b2b2b2" fill-rule="evenodd"/>
        <g mask="url(#mask-3)">
          <g>
            <path d="M10.5604953,8.4238c0-.5512.4483-1.1118,1.001-1.25.5528-.1382.999.1973.999.7491,0,.5522-.4462,1.1127-.999,1.2504-.5527.1387-1.001-.1972-1.001-.7495Z" fill="url(#New_Gradient_152)" fill-rule="evenodd"/>
            <path d="M11.3690953,7.5513c.25-.063.4493.0883.4493.3369,0,.248-.1993.501-.4493.5625-.247.0625-.4472-.0889-.4472-.3379,0-.2476.2002-.5.4472-.5615Z" fill="url(#New_Gradient_153)" stroke="#737373" stroke-miterlimit="3.8637" stroke-width=".3161"/>
            <path d="M10.5604953,8.4238c0-.5512.4483-1.1118,1.001-1.25.5528-.1382.999.1973.999.7491,0,.5522-.4462,1.1127-.999,1.2504-.5527.1387-1.001-.1972-1.001-.7495Z" fill="none" fill-rule="evenodd" stroke="#4c4c4c" stroke-miterlimit="3.8637" stroke-width=".7032"/>
          </g>
        </g>
      </g>
    </g>
    <path d="M11.0897953,10.2671c.4756-.1201.8633.1699.8633.6465,0,.477-.3877.9599-.8633,1.0796-.4785.1196-.8632-.17-.8632-.647,0-.4761.3847-.96.8632-1.0791Z" fill="url(#New_Gradient_151)" stroke="#737373" stroke-miterlimit="3.8637" stroke-width=".4215"/>
    <g mask="url(#mask-4)">
      <g>
        <path d="M9.7011953,7.8892c.1386-.0337.248.0493.248.1879,0,.1373-.1094.2769-.248.313-.1407.0332-.25-.0507-.25-.1875,0-.1386.1093-.2793.25-.3134Z" fill="gray"/>
        <path d="M9.5780953,7.7466c.1387-.0347.25.0483.25.1865,0,.1387-.1113.2783-.25.3125-.1367.0352-.25-.0483-.25-.1865,0-.1387.1133-.2774.25-.3125Z" fill="#4c4c4c"/>
      </g>
    </g>
    <g mask="url(#mask-5)">
      <g>
        <path d="M9.7011953,13.7949c.1386-.0351.248.0484.248.187,0,.1372-.1094.2774-.248.3125-.1407.0337-.25-.0498-.25-.1875,0-.1381.1093-.2778.25-.312Z" fill="gray"/>
        <path d="M9.5780953,13.6514c.1387-.0347.25.0498.25.187,0,.1387-.1113.2783-.25.3125-.1367.0351-.25-.0488-.25-.1875,0-.1377.1133-.2779.25-.312Z" fill="#4c4c4c"/>
      </g>
    </g>
    <g mask="url(#mask-6)">
      <g>
        <path d="M13.6093952,6.8579c.1386048-.0351.25.0488.25.1865s-.1113952.2784-.25.313c-.1387.0342-.25-.0498-.25-.187,0-.1377.1113-.2793.25-.3125Z" fill="gray"/>
        <path d="M13.4872952,6.7153c.1387048-.0361.251.0479.251.1866,0,.1381-.1122952.2773-.251.3125-.1367.0351-.25-.0489-.25-.1871,0-.1391.1133-.2778.25-.312Z" fill="#4c4c4c"/>
      </g>
    </g>
    <g mask="url(#mask-7)">
      <g>
        <path d="M13.6288952,12.7251c.1397-.0347.25.0488.25.187,0,.1387-.1103.2778-.25.3125-.1377.0352-.25-.0483-.25-.187,0-.1382.1123-.2773.25-.3125Z" fill="gray"/>
        <path d="M13.5077952,12.5825c.1367-.0351.251.0493.251.1875,0,.1367-.1143.2774-.251.3115-.1367.0342-.25-.0488-.25-.1875,0-.1367.1133-.2773.25-.3115Z" fill="#4c4c4c"/>
      </g>
    </g>
    <path d="M13.8417952,6.3301c.3711-.0943.7207.1396.7207.5483v6.2461c0,.3633-.2861.7149-.6348.8042l-4.1737999,1.0713c-.3691.0947-.7197-.1401-.7197-.5488v-6.2456c0-.3633.2851-.7159.6357-.8047l4.1718999-1.0708ZM13.9276952,6.5415l-4.1737999,1.0713c-.2793.0718-.5048953.3628-.5048953.6294v6.2471c0,.2221.1611953.3657.4208953.2993l4.1718999-1.0713c.2803-.0718.5068-.3618.5068-.6304v-6.2456c0-.2222-.1591-.3677-.4209-.2998Z" fill="url(#New_Gradient_150)"/>
    <path d="M8.8651953,14.2202v-5.9863c0-.4844.3213-.8775.668-.9898.3262-.1049,4.3183999-1.0835,4.3183999-1.0835.0908-.0224.1474048.1211.0566.1441,0,0-3.9852999.9751-4.3085999,1.0806-.3008.0976-.5869.4482-.5869.875l-.001,5.9853c0,.0972-.1465.0718-.1465-.0254Z" fill="url(#New_Gradient_149)"/>
    <polygon points="7.0448954 10.8374 8.8710953 12.6929 8.873 14.2212 7.0458954 12.4604 7.0448954 10.8374" fill="url(#New_Gradient_148)"/>
    <polygon points="11.8554953 4.2749 13.7880952 6.1606 12.9394952 6.3618 11.0478953 4.4819 11.8554953 4.2749" fill="url(#New_Gradient_147)"/>
  </g>
</svg>