<?xml version="1.0" encoding="UTF-8"?>
<svg id="Layer_1" data-name="Layer 1" xmlns="http://www.w3.org/2000/svg" width="16" height="16" xmlns:xlink="http://www.w3.org/1999/xlink" viewBox="0 0 16 16">
  <defs>
    <mask id="mask" x="2.8414" y="3.1348" width="9.231" height="9.8628" maskUnits="userSpaceOnUse">
      <path d="M9.4244,3.1348c-.769.7876-3.3511,4.5141-3.9619,6.5635-.5918-.7701-1.3599-1.9322-1.7529-2.3257-.1968.5122-.6348,1.5346-.8682,2.1875.2319.187,2.0684,1.6367,2.8384,2.622.8857-2.2661,4.1582-5.3222,5.5771-6.4067-.5112-.5112-1.5273-2.3354-1.8325-2.6406Z" fill="#fff"/>
    </mask>
  </defs>
  <path d="M9.4244,3.1348c-.769.7876-3.3511,4.5141-3.9619,6.5635-.5918-.7701-1.3599-1.9322-1.7529-2.3257-.1968.5122-.6348,1.5346-.8682,2.1875.2319.187,2.0684,1.6367,2.8384,2.622.8857-2.2661,4.1582-5.3222,5.5771-6.4067-.5112-.5112-1.5273-2.3354-1.8325-2.6406Z" fill="#fff" stroke="#000" stroke-width="2"/>
  <g mask="url(#mask)">
    <g>
      <path d="M9.4244,3.1348c-.769.7876-3.3511,4.5141-3.9619,6.5635-.5918-.7701-1.3599-1.9322-1.7529-2.3257-.1968.5122-.6348,1.5346-.8682,2.1875.2319.187,2.0684,1.6367,2.8384,2.622.8857-2.2661,4.1582-5.3222,5.5771-6.4067-.5112-.5112-1.5273-2.3354-1.8325-2.6406Z" fill="#b4daea"/>
      <path d="M10.2393,3.9492c-.7695.7896-3.3505,4.5147-3.9609,6.5655-.5918-.7701-1.3603-1.9331-1.7544-2.3262-.1963.5102-.6333,1.5332-.8672,2.188.232.1855,2.0689,1.6333,2.8374,2.6211.8872-2.2652,4.1597-5.3203,5.5782-6.4068-.5123-.5136-1.5274-2.3344-1.8331-2.6416Z" fill="#33a02c"/>
    </g>
  </g>
</svg>