<?xml version='1.0' encoding='UTF-8'?>
<svg xmlns="http://www.w3.org/2000/svg" xmlns:xlink="http://www.w3.org/1999/xlink" id="Layer_1" data-name="Layer 1" width="16" height="16" viewBox="0 0 16 16">
  <defs>
    <radialGradient id="radial-gradient" cx="5.0587243" cy="3.1092144" fx="5.0587243" fy="3.1092144" r="11.3429829" gradientTransform="translate(6.5282) scale(1.0276 1)" gradientUnits="userSpaceOnUse">
      <stop offset="0" stop-color="#fff"/>
      <stop offset="1" stop-color="#cacaca"/>
    </radialGradient>
    <radialGradient id="radial-gradient-2" cx=".732153" cy="2.6665687" fx=".732153" fy="2.6665687" r="2.4724795" gradientTransform="translate(2.9172 3.7973884) scale(1.3835 .944)" gradientUnits="userSpaceOnUse">
      <stop offset="0" stop-color="#fff"/>
      <stop offset=".331467" stop-color="#f7f7f7"/>
      <stop offset=".561798" stop-color="#d6d6d6"/>
      <stop offset=".865173" stop-color="#8c8c8c"/>
    </radialGradient>
    <radialGradient id="radial-gradient-3" cx="1.1427056" cy="-7.9343592" fx="1.1427056" fy="-7.9343592" r="11.6954528" gradientTransform="translate(6.5282 9.3554) scale(1.0276 .7273)" gradientUnits="userSpaceOnUse">
      <stop offset="0" stop-color="#fff"/>
      <stop offset=".1317347" stop-color="#fcfcfc"/>
      <stop offset=".2296964" stop-color="#f2f2f2"/>
      <stop offset=".316744" stop-color="#e2e2e2"/>
      <stop offset=".3974831" stop-color="#cbcbcb"/>
      <stop offset=".4738526" stop-color="#aeaeae"/>
      <stop offset=".5458712" stop-color="#8a8a8a"/>
      <stop offset=".612359" stop-color="#636363"/>
      <stop offset="1" stop-color="#000"/>
    </radialGradient>
    <radialGradient id="radial-gradient-4" cx="62.4267933" cy="10.8086041" fx="62.4267933" fy="10.8086041" r="5.4434812" gradientTransform="translate(61.2372 71.169) rotate(-134.5723832) scale(1.3643298 .9572899) skewX(-1.0925723)" gradientUnits="userSpaceOnUse"><stop offset="0" stop-color="#fff"/><stop offset=".331467" stop-color="#f7f7f7"/><stop offset=".561798" stop-color="#d6d6d6"/><stop offset=".865173" stop-color="#8c8c8c"/></radialGradient>
    <radialGradient id="radial-gradient-5" cx="61.2967025" cy="12.7856734" fx="61.2967025" fy="12.7856734" r="5.450893" gradientTransform="translate(61.2372 71.169) rotate(-134.5723832) scale(1.3643298 .9572899) skewX(-1.0925723)" gradientUnits="userSpaceOnUse"><stop offset="0" stop-color="#fff"/><stop offset=".331467" stop-color="#f7f7f7"/><stop offset=".561798" stop-color="#d6d6d6"/><stop offset=".865173" stop-color="#8c8c8c"/></radialGradient>
    <mask id="mask" x="7.0597186" y="3.1554024" width="10.1458814" height="7.6899606" maskUnits="userSpaceOnUse">
      <path d="M14.5452,5.818c0,1.6397-1.9629,2.377-4.8427,2.4902-.3067.0118-.3497-.1367-.0508-.1777,2.4492-.3262,4.3154-1.4463,4.5859-2.3281.0283-.2041.3076-.1582.3076.0156Z" fill="#fff"/>
    </mask>
  </defs>
  <g>
    <path d="M4.806,8.82c-3.9151-.1797-3.251-3.8457.2031-3.4864-.0449-.9414.3691-1.748,1.3369-2.1972.6856-.3174,2.0264-.1348,2.4414.6269.4151-.9863.875-1.5234,1.8418-1.7031,1.2959-.2393,2.999.7734,2.6748,2.585,1.792-.1182,2.0235,1.9697,1.377,2.6787-1.1504,1.2597-2.833,1.1015-5.0996,1.3379-1.084.1132-4.7754.1582-4.7754.1582Z" fill="url(#radial-gradient)" fill-rule="evenodd" stroke="#000" stroke-width=".75"/>
    <path d="M2.2571,6.9811c0-.8252.8497-1.5274,2.0586-1.5274,1.209,0,3.1729.5909,3.1729,1.4151,0,.8262-1.9639,1.5732-3.1729,1.5732-1.2089,0-2.0586-.6357-2.0586-1.4609Z" fill="url(#radial-gradient-2)" fill-rule="evenodd"/>
    <path d="M14.9134,6.4469c0,1.044-1.3809,1.7529-2.9141,1.9199-1.4463.1582-7.0517.5118-8.1035.2754-1.5332-.3418-1.6543-1.3965-1.6387-1.5547.0196-.2246.418,1.4786,2.2862.709,2.0635-.8515,6.7178-2.6387,8.6406-3.0332,1.1729-.1181,1.7295.6397,1.7295,1.6836Z" fill="url(#radial-gradient-3)" fill-rule="evenodd"/>
    <path d="M13.2591,4.3942c.0176,1.7324-5.9043,3.6777-7.4824,2.2402-.3438-.3144-1.2266-1.6426-.1817-2.8164,1.4571-1.6348,3.1368-.2949,3.1778.1973.6767-2.6192,4.455-2.6641,4.4863.3789Z" fill="url(#radial-gradient-4)" fill-rule="evenodd"/>
    <path d="M13.2435,4.5856c-.1407,1.2207-2.5088,2.2461-3.8242,1.084-.3497-.3086-1.1622-1.545-.1211-2.7227.8711-.9844-.1416,1.6817,1.1084,2.2744,2.9589,1.4033,2.9814-1.8779,2.8369-.6357Z" fill="url(#radial-gradient-5)" fill-rule="evenodd"/>
    <g mask="url(#mask)">
      <g>
        <path d="M14.5452,5.818c0,1.6397-1.9629,2.377-4.8427,2.4902-.3067.0118-.3497-.1367-.0508-.1777,2.4492-.3262,4.3154-1.4463,4.5859-2.3281.0283-.2041.3076-.1582.3076.0156Z" fill="#a1a1a1"/>
        <path d="M14.681,5.8297c0,1.6406-1.9629,2.377-4.8438,2.4903-.3056.0127-.3486-.1368-.0498-.1758,2.4502-.3281,4.3154-1.4473,4.586-2.3301.0283-.2031.3076-.1572.3076.0156Z" fill="none" stroke="#a7a7a7" stroke-miterlimit="3.8637" stroke-width="5.0492"/>
        <path d="M14.6136,5.8239c0,1.6396-1.9639,2.3769-4.8438,2.4902-.3056.0117-.3486-.1367-.0507-.1777,2.4502-.3262,4.3154-1.4463,4.5869-2.3282.0273-.2041.3076-.1582.3076.0157Z" fill="none" stroke="#9a9a9a" stroke-miterlimit="3.8637" stroke-width="2.5247"/>
        <path d="M14.5452,5.818c0,1.6397-1.9629,2.377-4.8427,2.4902-.3067.0118-.3497-.1367-.0508-.1777,2.4492-.3262,4.3154-1.4463,4.5859-2.3281.0283-.2041.3076-.1582.3076.0156Z" fill="none" stroke="#a7a7a7" stroke-miterlimit="3.8637"/>
      </g>
    </g>
  </g>
  <g>
    <line x1="11.8079" y1="9.1422" x2="11.8079" y2="12.2946" fill="none" stroke="#6973d1" stroke-linecap="round" stroke-width=".5"/>
    <line x1="13.2493" y1="11.3629" x2="10.3704" y2="10.0758" fill="none" stroke="#6973d1" stroke-linecap="round" stroke-width=".5"/>
    <line x1="13.1077" y1="9.8229" x2="10.5159" y2="11.6168" fill="none" stroke="#6973d1" stroke-linecap="round" stroke-width=".5"/>
    <g>
      <line x1="11.8411" y1="9.778" x2="12.263" y2="9.3571" fill="none" stroke="#6973d1" stroke-linecap="round" stroke-width=".5"/>
      <line x1="11.7601" y1="9.778" x2="11.3372" y2="9.3571" fill="none" stroke="#6973d1" stroke-linecap="round" stroke-width=".5"/>
    </g>
    <g>
      <line x1="11.7747" y1="11.6315" x2="11.3528" y2="12.0543" fill="none" stroke="#6973d1" stroke-linecap="round" stroke-width=".5"/>
      <line x1="11.8558" y1="11.6315" x2="12.2777" y2="12.0543" fill="none" stroke="#6973d1" stroke-linecap="round" stroke-width=".5"/>
    </g>
    <g>
      <line x1="11.0491" y1="11.1959" x2="10.4622" y2="11.0895" fill="none" stroke="#6973d1" stroke-linecap="round" stroke-width=".5"/>
      <line x1="11.095" y1="11.2623" x2="10.9886" y2="11.8493" fill="none" stroke="#6973d1" stroke-linecap="round" stroke-width=".5"/>
    </g>
    <g>
      <line x1="12.5989" y1="11.109" x2="12.8118" y2="11.6666" fill="none" stroke="#6973d1" stroke-linecap="round" stroke-width=".5"/>
      <line x1="12.6321" y1="11.0358" x2="13.1888" y2="10.8229" fill="none" stroke="#6973d1" stroke-linecap="round" stroke-width=".5"/>
    </g>
    <g>
      <line x1="12.5521" y1="10.2477" x2="13.14" y2="10.3541" fill="none" stroke="#6973d1" stroke-linecap="round" stroke-width=".5"/>
      <line x1="12.5052" y1="10.1813" x2="12.6126" y2="9.5934" fill="none" stroke="#6973d1" stroke-linecap="round" stroke-width=".5"/>
    </g>
    <g>
      <line x1="10.9935" y1="10.3532" x2="10.7806" y2="9.7946" fill="none" stroke="#6973d1" stroke-linecap="round" stroke-width=".5"/>
      <line x1="10.9593" y1="10.4264" x2="10.4027" y2="10.6403" fill="none" stroke="#6973d1" stroke-linecap="round" stroke-width=".5"/>
    </g>
  </g>
  <g>
    <line x1="6.9017" y1="7.3766" x2="6.9017" y2="10.3317" fill="none" stroke="#484f8f" stroke-linecap="round" stroke-width=".5"/>
    <line x1="8.2532" y1="9.4586" x2="5.555" y2="8.2526" fill="none" stroke="#484f8f" stroke-linecap="round" stroke-width=".5"/>
    <line x1="8.1204" y1="8.0153" x2="5.6907" y2="9.6969" fill="none" stroke="#484f8f" stroke-linecap="round" stroke-width=".5"/>
    <g>
      <line x1="6.9329" y1="7.9723" x2="7.3275" y2="7.5778" fill="none" stroke="#484f8f" stroke-linecap="round" stroke-width=".5"/>
      <line x1="6.8568" y1="7.9723" x2="6.4612" y2="7.5778" fill="none" stroke="#484f8f" stroke-linecap="round" stroke-width=".5"/>
    </g>
    <g>
      <line x1="6.8704" y1="9.7106" x2="6.4749" y2="10.1061" fill="none" stroke="#484f8f" stroke-linecap="round" stroke-width=".5"/>
      <line x1="6.9476" y1="9.7106" x2="7.3431" y2="10.1061" fill="none" stroke="#484f8f" stroke-linecap="round" stroke-width=".5"/>
    </g>
    <g>
      <line x1="6.1907" y1="9.3024" x2="5.64" y2="9.2008" fill="none" stroke="#484f8f" stroke-linecap="round" stroke-width=".5"/>
      <line x1="6.2337" y1="9.3649" x2="6.1341" y2="9.9147" fill="none" stroke="#484f8f" stroke-linecap="round" stroke-width=".5"/>
    </g>
    <g>
      <line x1="7.6439" y1="9.2213" x2="7.8431" y2="9.7438" fill="none" stroke="#484f8f" stroke-linecap="round" stroke-width=".5"/>
      <line x1="7.6751" y1="9.151" x2="8.1966" y2="8.9518" fill="none" stroke="#484f8f" stroke-linecap="round" stroke-width=".5"/>
    </g>
    <g>
      <line x1="7.5989" y1="8.4137" x2="8.1497" y2="8.5133" fill="none" stroke="#484f8f" stroke-linecap="round" stroke-width=".5"/>
      <line x1="7.556" y1="8.3502" x2="7.6566" y2="7.8004" fill="none" stroke="#484f8f" stroke-linecap="round" stroke-width=".5"/>
    </g>
    <g>
      <line x1="6.138" y1="8.5114" x2="5.9378" y2="7.9889" fill="none" stroke="#484f8f" stroke-linecap="round" stroke-width=".5"/>
      <line x1="6.1068" y1="8.5807" x2="5.5843" y2="8.7799" fill="none" stroke="#484f8f" stroke-linecap="round" stroke-width=".5"/>
    </g>
  </g>
  <g>
    <line x1="8.4925" y1="12.1305" x2="8.4925" y2="14.8893" fill="none" stroke="#808dff" stroke-linecap="round" stroke-width=".25"/>
    <line x1="9.7532" y1="14.0739" x2="7.2347" y2="12.9479" fill="none" stroke="#808dff" stroke-linecap="round" stroke-width=".25"/>
    <line x1="9.6302" y1="12.7262" x2="7.3626" y2="14.2965" fill="none" stroke="#808dff" stroke-linecap="round" stroke-width=".25"/>
    <g>
      <line x1="8.5208" y1="12.6871" x2="8.8909" y2="12.318" fill="none" stroke="#808dff" stroke-linecap="round" stroke-width=".25"/>
      <line x1="8.4505" y1="12.6871" x2="8.0814" y2="12.318" fill="none" stroke="#808dff" stroke-linecap="round" stroke-width=".25"/>
    </g>
    <g>
      <line x1="8.4642" y1="14.3092" x2="8.095" y2="14.6774" fill="none" stroke="#808dff" stroke-linecap="round" stroke-width=".25"/>
      <line x1="8.5345" y1="14.3092" x2="8.9046" y2="14.6774" fill="none" stroke="#808dff" stroke-linecap="round" stroke-width=".25"/>
    </g>
    <g>
      <line x1="7.8284" y1="13.9274" x2="7.3148" y2="13.8336" fill="none" stroke="#808dff" stroke-linecap="round" stroke-width=".25"/>
      <line x1="7.8685" y1="13.986" x2="7.7757" y2="14.4996" fill="none" stroke="#808dff" stroke-linecap="round" stroke-width=".25"/>
    </g>
    <g>
      <line x1="9.1849" y1="13.8522" x2="9.3704" y2="14.3395" fill="none" stroke="#808dff" stroke-linecap="round" stroke-width=".25"/>
      <line x1="9.2142" y1="13.7877" x2="9.7015" y2="13.6012" fill="none" stroke="#808dff" stroke-linecap="round" stroke-width=".25"/>
    </g>
    <g>
      <line x1="9.1439" y1="13.0973" x2="9.6575" y2="13.1911" fill="none" stroke="#808dff" stroke-linecap="round" stroke-width=".25"/>
      <line x1="9.1028" y1="13.0387" x2="9.1966" y2="12.525" fill="none" stroke="#808dff" stroke-linecap="round" stroke-width=".25"/>
    </g>
    <g>
      <line x1="7.7796" y1="13.1891" x2="7.5931" y2="12.7028" fill="none" stroke="#808dff" stroke-linecap="round" stroke-width=".25"/>
      <line x1="7.7513" y1="13.2545" x2="7.263" y2="13.4411" fill="none" stroke="#808dff" stroke-linecap="round" stroke-width=".25"/>
    </g>
  </g>
</svg>