<?xml version="1.0" encoding="UTF-8"?>
<svg id="Icons_-_24x24" data-name="Icons - 24x24" xmlns="http://www.w3.org/2000/svg" width="20" height="20" xmlns:xlink="http://www.w3.org/1999/xlink" viewBox="0 0 20 20">
  <defs>
    <mask id="mask" x="2.3280944" y="1.4229" width="15.2685997" height="17.851" maskUnits="userSpaceOnUse">
      <path d="M12.7460941,18.2729l-9.4169998.001-.001-15.851,13.2685997.0004-.0059,12.3335c0,1.6748-2.0555999,3.5161-3.8446999,3.5161Z" fill="#fff" fill-rule="evenodd" stroke="#fff" stroke-linecap="round" stroke-linejoin="round" stroke-width="2"/>
    </mask>
    <linearGradient id="New_Gradient_399" data-name="New Gradient 399" x1="5.5651212" y1="1.3318291" x2="14.3321045" y2="19.3068088" gradientUnits="userSpaceOnUse">
      <stop offset="0" stop-color="#e5e5e5"/>
      <stop offset="1" stop-color="#fff"/>
    </linearGradient>
    <radialGradient id="New_Gradient_400" data-name="New Gradient 400" cx="-6.8387315" cy="4.6735448" fx="-6.8387315" fy="4.6735448" r="5.2375592" gradientTransform="translate(18.011 10.5525) scale(.8594 .7851)" gradientUnits="userSpaceOnUse">
      <stop offset="0" stop-color="#fff"/>
      <stop offset="1" stop-color="#ccc"/>
    </radialGradient>
    <mask id="mask-1" x="3.3280944" y="2.4229" width="13.2890997" height="15.9106" maskUnits="userSpaceOnUse">
      <path d="M12.7460941,18.2729l-9.4169998.001-.001-15.851,13.2685997.0004-.0059,12.3335c0,1.6748-2.0555999,3.5161-3.8446999,3.5161Z" fill="#fff" fill-rule="evenodd"/>
    </mask>
    <linearGradient id="New_Gradient_401" data-name="New Gradient 401" x1="5.5651212" y1="1.3318291" x2="14.3321045" y2="19.3068088" gradientUnits="userSpaceOnUse">
      <stop offset="0" stop-color="#e5e5e5"/>
      <stop offset=".286514" stop-color="#f2f2f2"/>
      <stop offset=".646072" stop-color="#fff"/>
      <stop offset="1" stop-color="#fff"/>
    </linearGradient>
    <radialGradient id="New_Gradient_402" data-name="New Gradient 402" cx="-6.8387315" cy="4.6735448" fx="-6.8387315" fy="4.6735448" r="5.2375592" gradientTransform="translate(18.011 10.5525) scale(.8594 .7851)" gradientUnits="userSpaceOnUse">
      <stop offset="0" stop-color="#e5e5e5"/>
      <stop offset=".331467" stop-color="#e5e5e5"/>
      <stop offset="1" stop-color="#999"/>
    </radialGradient>
    <mask id="mask-2" x="10.689894" y="4.0355905" width="9.7313605" height="12.9618969" maskUnits="userSpaceOnUse">
      <path d="M11.6386941,15.6738l-.1396941-.0947s.6894941-2.0205,3.6630941-6.4282c2.6630999-3.9483,3.2870999-4.0913,3.5263999-3.9292.2402.1616.3408.7939-2.3212999,4.7417-2.9735999,4.4077-4.5878999,5.8047-4.5878999,5.8047l-.1406-.0943Z" fill="#fff" fill-rule="evenodd"/>
    </mask>
    <linearGradient id="New_Gradient_66" data-name="New Gradient 66" x1="10.3017779" y1="7.1684133" x2="20.0463515" y2="13.7412112" gradientUnits="userSpaceOnUse">
      <stop offset="0" stop-color="#b2b2b2"/>
      <stop offset="1" stop-color="#fff"/>
    </linearGradient>
    <linearGradient id="New_Gradient_72" data-name="New Gradient 72" x1="15.0689431" y1="9.0384746" x2="16.465907" y2="9.9807387" gradientTransform="translate(14.8251348 -8.8793658) rotate(55.9720012)" gradientUnits="userSpaceOnUse">
      <stop offset="0" stop-color="gray"/>
      <stop offset=".10112" stop-color="gray"/>
      <stop offset=".258423" stop-color="#d9d9d9"/>
      <stop offset=".943817" stop-color="#737373"/>
      <stop offset="1" stop-color="#737373"/>
    </linearGradient>
    <linearGradient id="New_Gradient_67" data-name="New Gradient 67" x1="17.5773612" y1="5.7874648" x2="18.6177825" y2="6.4892379" gradientTransform="translate(13.0821776 -12.3020228) rotate(56.0485446)" gradientUnits="userSpaceOnUse">
      <stop offset="0" stop-color="gray"/>
      <stop offset=".168533" stop-color="gray"/>
      <stop offset=".286514" stop-color="#d9d9d9"/>
      <stop offset=".70224" stop-color="#737373"/>
      <stop offset="1" stop-color="#737373"/>
    </linearGradient>
    <linearGradient id="New_Gradient_371" data-name="New Gradient 371" x1=".8573944" y1="9.3164" x2="7.2812943" y2="9.3164" gradientUnits="userSpaceOnUse">
      <stop offset="0" stop-color="#999"/>
      <stop offset=".20224" stop-color="#f2f2f2"/>
      <stop offset=".516861" stop-color="#b2b2b2"/>
      <stop offset=".769669" stop-color="#b2b2b2"/>
      <stop offset="1" stop-color="#737373"/>
    </linearGradient>
    <linearGradient id="New_Gradient_376" data-name="New Gradient 376" x1="8.0502715" y1="9.6959864" x2="5.9115806" y2="11.8346772" gradientUnits="userSpaceOnUse">
      <stop offset="0" stop-color="#4c4c4c"/>
      <stop offset=".623596" stop-color="#d9d9d9"/>
      <stop offset="1" stop-color="#4c4c4c"/>
    </linearGradient>
    <linearGradient id="New_Gradient_377" data-name="New Gradient 377" x1="9.5439774" y1="10.3715548" x2="6.5870108" y2="13.3285214" gradientUnits="userSpaceOnUse">
      <stop offset="0" stop-color="#a70000"/>
      <stop offset=".662918" stop-color="#df4e15"/>
      <stop offset="1" stop-color="#740000"/>
    </linearGradient>
    <linearGradient id="New_Gradient_146" data-name="New Gradient 146" x1="8.5126947" y1="12.0675221" x2="9.1846676" y2="13.1429036" gradientUnits="userSpaceOnUse">
      <stop offset="0" stop-color="#df4e15"/>
      <stop offset="1" stop-color="#c42e00"/>
    </linearGradient>
    <linearGradient id="New_Gradient_378" data-name="New Gradient 378" x1="8.5126947" y1="12.0675221" x2="9.1846676" y2="13.1429036" gradientUnits="userSpaceOnUse">
      <stop offset="0" stop-color="#df4e15"/>
      <stop offset="1" stop-color="#c42e00"/>
    </linearGradient>
    <mask id="mask-3" x=".7011944" y="4.2456" width="6.7363056" height="7.0117" maskUnits="userSpaceOnUse">
      <path d="M4.0702943,4.4253c1.7735,0,3.2109999,1.2788,3.2109999,2.856,0,1.5771-1.4375,2.8554-3.2109999,2.8554-1.7744,0-3.2128999-1.2783-3.2128999-2.8554,0-1.5772,1.4385-2.856,3.2128999-2.856Z" fill="#fff"/>
    </mask>
    <linearGradient id="New_Gradient_372" data-name="New Gradient 372" x1=".8573944" y1="7.281" x2="7.2812943" y2="7.281" gradientUnits="userSpaceOnUse">
      <stop offset="0" stop-color="#999"/>
      <stop offset=".219101" stop-color="#b2b2b2"/>
      <stop offset=".466293" stop-color="#b2b2b2"/>
      <stop offset=".769669" stop-color="#f2f2f2"/>
      <stop offset="1" stop-color="#737373"/>
    </linearGradient>
    <mask id="mask-4" x=".7011944" y="4.7622" width="6.7363056" height="6.4951" maskUnits="userSpaceOnUse">
      <path d="M4.0702943,5.2407c1.5957057,0,2.8887057,1.1519,2.8887057,2.5708,0,1.4199-1.293,2.5703-2.8887057,2.5703-1.5976,0-2.8905999-1.1504-2.8905999-2.5703,0-1.4189,1.293-2.5708,2.8905999-2.5708Z" fill="#fff" stroke="#fff" stroke-miterlimit="3.8637" stroke-width=".957"/>
    </mask>
    <linearGradient id="New_Gradient_373" data-name="New Gradient 373" x1="1.1796944" y1="7.81125" x2="6.959" y2="7.81125" gradientUnits="userSpaceOnUse">
      <stop offset="0" stop-color="#5587c0"/>
      <stop offset=".20787" stop-color="#97bae0"/>
      <stop offset=".865173" stop-color="#b3e0ff"/>
      <stop offset="1" stop-color="#5587c0"/>
    </linearGradient>
    <radialGradient id="New_Gradient_374" data-name="New Gradient 374" cx="50.2318525" cy="16.1900891" fx="50.2318525" fy="16.1900891" r="6.2307397" gradientTransform="translate(-34.9303 -10.4145) scale(.7419 1.0211)" gradientUnits="userSpaceOnUse">
      <stop offset="0" stop-color="#78dcff"/>
      <stop offset="1" stop-color="#b7e9ff"/>
    </radialGradient>
    <linearGradient id="linear-gradient" x1="1.8113495" y1="4.9882651" x2="6.1454442" y2="9.3223597" gradientUnits="userSpaceOnUse">
      <stop offset="0" stop-color="gray"/>
      <stop offset=".187809" stop-color="#82868b"/>
      <stop offset=".5233754" stop-color="#8a99aa"/>
      <stop offset=".9651405" stop-color="#95b7db"/>
      <stop offset="1" stop-color="#97bae0"/>
    </linearGradient>
    <linearGradient id="New_Gradient_375" data-name="New Gradient 375" x1="1.9019583" y1="5.1139659" x2="6.2363219" y2="9.4483295" gradientUnits="userSpaceOnUse">
      <stop offset="0" stop-color="gray"/>
      <stop offset="1" stop-color="#fff"/>
    </linearGradient>
    <mask id="mask-5" x="1.1796944" y="5.8231053" width="5.7793056" height="5.4341947" maskUnits="userSpaceOnUse">
      <path d="M3.1171944,5.8389c.5439-.0909,1.0215.2197,1.0635.6963.042.4755-.3643.9365-.9082,1.0283-.5459.0908-1.0204944-.2197-1.0634944-.6958s.3632944-.9361.9081944-1.0288Z" fill="#fff"/>
    </mask>
  </defs>
  <g>
    <g>
      <g mask="url(#mask)">
        <g>
          <path d="M12.7460941,18.2729l-9.4169998.001-.001-15.851,13.2685997.0004-.0059,12.3335c0,1.6748-2.0555999,3.5161-3.8446999,3.5161Z" fill="url(#New_Gradient_399)" fill-rule="evenodd"/>
          <path d="M12.1337941,18.3325s2.2002059-.0766,2.2002059-2.3061c2.265594.0005,2.283194-1.8047,2.283194-1.8047v4.1118l-4.4833999-.001Z" fill="url(#New_Gradient_400)" fill-rule="evenodd"/>
          <path d="M12.7460941,18.2729l-9.4169998.001-.001-15.851,13.2685997.0004-.0059,12.3335c0,1.6748-2.0555999,3.5161-3.8446999,3.5161Z" fill="none" fill-rule="evenodd" stroke="#000" stroke-linecap="round" stroke-linejoin="round" stroke-width="2"/>
        </g>
      </g>
      <g mask="url(#mask-1)">
        <g>
          <path d="M12.7460941,18.2729l-9.4169998.001-.001-15.851,13.2685997.0004-.0059,12.3335c0,1.6748-2.0555999,3.5161-3.8446999,3.5161Z" fill="url(#New_Gradient_401)" fill-rule="evenodd"/>
          <path d="M12.1337941,18.3325s1.5293-.561,1.5293-2.7915c2.2655999,0,2.9540999-1.3193,2.9540999-1.3193v4.1118l-4.4833999-.001Z" fill="url(#New_Gradient_402)" fill-rule="evenodd"/>
        </g>
      </g>
    </g>
    <g>
      <line x1="5.0761943" y1="8.1138" x2="8.0556942" y2="8.1138" fill="none" stroke="#999" stroke-linecap="round" stroke-miterlimit="3.8637" stroke-width=".7125"/>
      <line x1="11.9550941" y1="5.6138" x2="14.9354941" y2="5.6138" fill="none" stroke="#999" stroke-linecap="round" stroke-miterlimit="3.8637" stroke-width=".7125"/>
      <line x1="9.7763942" y1="8.1138" x2="14.9354941" y2="8.1138" fill="none" stroke="#999" stroke-linecap="round" stroke-miterlimit="3.8637" stroke-width=".7125"/>
      <line x1="4.9501943" y1="15.6138" x2="12.3554941" y2="15.6138" fill="none" stroke="#999" stroke-linecap="round" stroke-miterlimit="3.8637" stroke-width=".7125"/>
      <line x1="5.0761943" y1="10.6138" x2="7.4823943" y2="10.6138" fill="none" stroke="#999" stroke-linecap="round" stroke-miterlimit="3.8637" stroke-width=".7125"/>
      <line x1="8.8983942" y1="10.6138" x2="11.3046942" y2="10.6138" fill="none" stroke="#999" stroke-linecap="round" stroke-miterlimit="3.8637" stroke-width=".7125"/>
      <line x1="12.2597941" y1="10.6138" x2="14.9354941" y2="10.6138" fill="none" stroke="#999" stroke-linecap="round" stroke-miterlimit="3.8637" stroke-width=".7125"/>
      <line x1="5.0761943" y1="5.6138" x2="9.7763942" y2="5.6138" fill="none" stroke="#999" stroke-linecap="round" stroke-miterlimit="3.8637" stroke-width=".7125"/>
      <line x1="5.0761943" y1="13.1138" x2="9.0116942" y2="13.1138" fill="none" stroke="#999" stroke-linecap="round" stroke-miterlimit="3.8637" stroke-width=".7125"/>
      <line x1="10.1093942" y1="13.1138" x2="15.127" y2="13.1138" fill="none" stroke="#999" stroke-linecap="round" stroke-miterlimit="3.8637" stroke-width=".7125"/>
    </g>
  </g>
  <g>
    <path d="M11.7665941,15.7598l-.1152.1699c-.1153.1709-.3701-.002-.2559-.1719l.1152-.1699c-.0116942-.0088.6778-2.0293,3.6513999-6.437,1.0156-1.5049,1.7334-2.4571,2.2480999-3.0498-.4444-.1787-1.586,1.6377-1.586,1.6377,0,0-.0146.1938-.1924.456-.1767.2632-.4013.0781-.4013.0781,0,0,.999-1.395,1.4863-2.1166.5723-.8487,1.0439-.6089,1.1465-.5401.498-.48.708-.4741.8252-.3945.2402.1616.3408.7939-2.3212999,4.7417-2.9735999,4.4077-4.5878999,5.8047-4.5878999,5.8047l-.0127-.0083Z" fill="#f2f2f2" stroke="#000" stroke-linecap="round" stroke-linejoin="round" stroke-width="2"/>
    <g>
      <g>
        <path d="M17.884794,5.6313s-.5186-.437-1.168.525c-.4873.7216-1.4863,2.1166-1.4863,2.1166,0,0,.2246.1851.4013-.0781.1778-.2622.1924-.456.1924-.456,0,0,1.1963-1.9048,1.6172-1.6216.3242.2192.4434-.4859.4434-.4859Z" fill="#f2f2f2" fill-rule="evenodd"/>
        <path d="M12.0712941,15.3076l-.4199.6221c-.1153.1709-.3701-.002-.2559-.1719l.4209-.6225c.1143-.17.3701.0019.2549.1723Z" fill="#999"/>
        <g mask="url(#mask-2)">
          <g>
            <path d="M11.6386941,15.6738l-.1396941-.0947s.6894941-2.0205,3.6630941-6.4282c2.6630999-3.9483,3.2870999-4.0913,3.5263999-3.9292.2402.1616.3408.7939-2.3212999,4.7417-2.9735999,4.4077-4.5878999,5.8047-4.5878999,5.8047l-.1406-.0943Z" fill="url(#New_Gradient_66)" fill-rule="evenodd"/>
            <path d="M11.7860941,15.9736s1.9483-2.0859,4.6113999-6.0332c2.9569999-4.3838,2.4979999-4.8344,2.4979999-4.8344" fill="none" stroke="#b2b2b2" stroke-miterlimit="3.8637" stroke-width="3"/>
            <rect x="15.2594015" y="8.5180147" width="1.015838" height="1.9830707" transform="translate(-.9372146 17.2554162) rotate(-55.9720012)" fill="url(#New_Gradient_72)" stroke="#666" stroke-miterlimit="3.8637"/>
            <rect x="17.7724135" y="5.2689869" width=".6504639" height="1.7388762" transform="translate(2.8983948 17.7223713) rotate(-56.0485446)" fill="url(#New_Gradient_67)" stroke="#666" stroke-miterlimit="3.8637"/>
          </g>
        </g>
      </g>
      <path d="M11.7597941,15.3359s.8349-1.8227,3.1874999-5.4272l.2705.1831-3.4579999,5.2441Z" fill="#fff" fill-rule="evenodd"/>
      <path d="M16.071294,8.8018l1.583-2.253-.2051-.1386s-.8496,1.0244-1.6474,2.2094l.2695.1822Z" fill="#fff" fill-rule="evenodd"/>
    </g>
  </g>
  <g>
    <path d="M9.5761942,11.978c-.3985-.3979-.8271942-.8271-1.4229-1.4223-.25-.2491-.539-.3101-.8076-.2554l-.6465-.6465c.3653-.4634.5821-1.0268.5821-1.6362v-.2588h-.0489c.0293-.1553.0489-.3145.0489-.4775,0-.2544-.0411-.4986-.1114-.733-.0976-.3496-.2636-.6709-.4824-.9521-.5781-.8242-1.5937-1.3506-2.7099999-1.3506-1.7158,0-3.2040999,1.2437-3.2040999,2.9092,0,.23.0303.4516.084.6626v.2002c0,1.5776,1.4385,2.8564,3.2128999,2.8564.6397057,0,1.2344-.1689,1.7354-.4555v.0004l.7099.71c-.0547.2686.0059.5596.2549.8086.5957.5957,1.0254,1.0239,1.4248,1.4229.583.5839,1.9629-.7994,1.3809-1.3824Z" stroke="#000" stroke-linecap="round" stroke-linejoin="round" stroke-width="2"/>
    <g>
      <path d="M.8573944,7.7588v.2588c0,1.5776,1.4385,2.8564,3.2128999,2.8564,1.7735,0,3.2109999-1.2788,3.2109999-2.8564v-.2588H.8573944Z" fill="url(#New_Gradient_371)" fill-rule="evenodd"/>
      <path d="M6.6347943,9.5898l1.3086,1.3086c.8369.837.0078,1.6661-.8301.8287l-1.3076-1.3082c-.5528-.5527.2763057-1.3818.8291-.8291Z" fill="url(#New_Gradient_376)"/>
      <g>
        <path d="M8.1532942,10.5557c.5957058.5952,1.0244,1.0244,1.4229,1.4223.582.583-.7979,1.9663-1.3809,1.3824-.3994-.399-.8291-.8272-1.4248-1.4229-.8701-.8716.5117-2.2539,1.3828-1.3818Z" fill="url(#New_Gradient_377)"/>
        <path d="M6.8632943,10.8276c.5049.5044.9756.9746,1.3291,1.3291" fill="none" stroke="#ff7845" stroke-linecap="round" stroke-miterlimit="3.8637" stroke-width="1.4356"/>
        <path d="M9.0370942,11.8491c.4756-.0586.75.2173.6104.6104-.1416.3935-.5743.8257-.9678.9673-.3945.1396-.6699-.1363-.6113-.6109.0605-.4741.4941-.9077.9687-.9668Z" fill="url(#New_Gradient_146)" stroke="#a70000" stroke-miterlimit="3.8637" stroke-width=".4785"/>
        <path d="M9.0370942,11.8491c.4756-.0586.75.2173.6104.6104-.1416.3935-.5743.8257-.9678.9673-.3945.1396-.6699-.1363-.6113-.6109.0605-.4741.4941-.9077.9687-.9668Z" fill="url(#New_Gradient_378)"/>
      </g>
      <g mask="url(#mask-3)">
        <g>
          <path d="M4.0702943,4.4253c1.7735,0,3.2109999,1.2788,3.2109999,2.856,0,1.5771-1.4375,2.8554-3.2109999,2.8554-1.7744,0-3.2128999-1.2783-3.2128999-2.8554,0-1.5772,1.4385-2.856,3.2128999-2.856Z" fill="url(#New_Gradient_372)"/>
          <g mask="url(#mask-4)">
            <g>
              <path d="M4.0702943,5.2407c1.5957057,0,2.8887057,1.1519,2.8887057,2.5708,0,1.4199-1.293,2.5703-2.8887057,2.5703-1.5976,0-2.8905999-1.1504-2.8905999-2.5703,0-1.4189,1.293-2.5708,2.8905999-2.5708Z" fill="url(#New_Gradient_373)"/>
              <path d="M4.0702943,6.1172c1.5957057,0,2.8887057,1.1504,2.8887057,2.5703,0,1.4189-1.293,2.5698-2.8887057,2.5698-1.5976,0-2.8905999-1.1509-2.8905999-2.5698,0-1.4199,1.293-2.5703,2.8905999-2.5703Z" fill="url(#New_Gradient_374)"/>
              <path d="M4.0702943,5.2407c1.5957057,0,2.8887057,1.1519,2.8887057,2.5708,0,1.4199-1.293,2.5703-2.8887057,2.5703-1.5976,0-2.8905999-1.1504-2.8905999-2.5703,0-1.4189,1.293-2.5708,2.8905999-2.5708Z" fill="none" stroke="#69c" stroke-miterlimit="3.8637" stroke-width=".957"/>
            </g>
          </g>
          <path d="M3.9774943,4.2456c1.7178,0,3.2060999,1.2437,3.2060999,2.9092,0,1.6675-1.4883,2.9097-3.2060999,2.9097-1.7158,0-3.2040999-1.2422-3.2040999-2.9097,0-1.6655,1.4883-2.9092,3.2040999-2.9092ZM3.9774943,4.582c-1.6884,0-2.9598999,1.2115-2.9598999,2.5728,0,1.3623,1.2715,2.5747,2.9598999,2.5747,1.6895057,0,2.9619999-1.2124,2.9619999-2.5747,0-1.3613-1.2724943-2.5728-2.9619999-2.5728Z" fill="url(#linear-gradient)"/>
        </g>
      </g>
      <path d="M4.0702943,4.3711c1.7158,0,3.2040999,1.2441,3.2040999,2.9102,0,1.666-1.4883,2.9096-3.2040999,2.9096-1.7178,0-3.2069999-1.2436-3.2069999-2.9096,0-1.6661,1.4892-2.9102,3.2069999-2.9102ZM4.0702943,4.708c-1.6894,0-2.9608999,1.2109-2.9608999,2.5733,0,1.3613,1.2715,2.5732,2.9608999,2.5732,1.6875,0,2.9599999-1.2119,2.9599999-2.5732,0-1.3624-1.2725-2.5733-2.9599999-2.5733Z" fill="url(#New_Gradient_375)"/>
      <g mask="url(#mask-5)">
        <g>
          <path d="M3.1171944,5.8389c.5439-.0909,1.0215.2197,1.0635.6963.042.4755-.3643.9365-.9082,1.0283-.5459.0908-1.0204944-.2197-1.0634944-.6958s.3632944-.9361.9081944-1.0288Z" fill="#b3e0ff"/>
          <path d="M4.0702943,6.1172c1.5957057,0,2.8887057,1.1504,2.8887057,2.5703,0,1.4189-1.293,2.5698-2.8887057,2.5698-1.5976,0-2.8905999-1.1509-2.8905999-2.5698,0-1.4199,1.293-2.5703,2.8905999-2.5703Z" fill="#fff"/>
        </g>
      </g>
    </g>
  </g>
</svg>