<?xml version="1.0" encoding="UTF-8"?>
<svg id="Set_3" data-name="Set 3" xmlns="http://www.w3.org/2000/svg" width="20" height="20" xmlns:xlink="http://www.w3.org/1999/xlink" viewBox="0 0 20 20">
  <defs>
    <mask id="mask" x="4.9893183" y="4.83045" width="10.7183997" height="10.717125" maskUnits="userSpaceOnUse">
      <path d="M12.3283931,5.2887c0,.0012-.0023931.0019-.0023931.0036l-2.3312068,2.33-2.3337932-2.333h0v-.0006c-.6107067-.611-1.6005067-.611-2.2126067,0-.6121.6109-.6121,1.6018,0,2.2127l2.3336067,2.3343-2.3323067,2.333c-.6122.6108-.6122,1.6018,0,2.2127.6108.611,1.6006.611,2.2113067,0,0,0,.0012932-.0013.0024932-.0031l2.3312999-2.33,2.3335999,2.3331h0c.611.611,1.6006069.611,2.2116069,0,.610793-.6109.610793-1.6019,0-2.2121h0l-2.3325069-2.3336,2.3325069-2.3343c.612-.6109.612-1.6018,0-2.2127-.6098069-.611-1.6006069-.611-2.2116069,0Z" fill="#fff"/>
    </mask>
    <linearGradient id="linear-gradient" x1="6.3784644" y1=".8525619" x2="12.3901265" y2="15.7847457" gradientUnits="userSpaceOnUse">
      <stop offset=".005618" stop-color="#f8cccc"/>
      <stop offset="1" stop-color="#cb1009"/>
    </linearGradient>
    <linearGradient id="linear-gradient-2" x1="8.7101592" y1="6.3801049" x2="13.5065563" y2="16.395264" gradientUnits="userSpaceOnUse">
      <stop offset="0" stop-color="#f3403f"/>
      <stop offset=".3789338" stop-color="#d02a27"/>
      <stop offset=".7765172" stop-color="#b11713"/>
      <stop offset="1" stop-color="#a6100c"/>
    </linearGradient>
  </defs>
  <path d="M12.3283931,5.2887c0,.0012-.0023931.0019-.0023931.0036l-2.3312068,2.33-2.3337932-2.333h0v-.0006c-.6107067-.611-1.6005067-.611-2.2126067,0-.6121.6109-.6121,1.6018,0,2.2127l2.3336067,2.3343-2.3323067,2.333c-.6122.6108-.6122,1.6018,0,2.2127.6108.611,1.6006.611,2.2113067,0,0,0,.0012932-.0013.0024932-.0031l2.3312999-2.33,2.3335999,2.3331h0c.611.611,1.6006069.611,2.2116069,0,.610793-.6109.610793-1.6019,0-2.2121h0l-2.3325069-2.3336,2.3325069-2.3343c.612-.6109.612-1.6018,0-2.2127-.6098069-.611-1.6006069-.611-2.2116069,0Z" stroke="#000" stroke-linecap="round" stroke-linejoin="round" stroke-width="2"/>
  <g mask="url(#mask)">
    <g>
      <path d="M12.3283931,5.2887c0,.0012-.0023931.0019-.0023931.0036l-2.3312068,2.33-2.3337932-2.333h0v-.0006c-.6107067-.611-1.6005067-.611-2.2126067,0-.6121.6109-.6121,1.6018,0,2.2127l2.3336067,2.3343-2.3323067,2.333c-.6122.6108-.6122,1.6018,0,2.2127.6108.611,1.6006.611,2.2113067,0,0,0,.0012932-.0013.0024932-.0031l2.3312999-2.33,2.3335999,2.3331h0c.611.611,1.6006069.611,2.2116069,0,.610793-.6109.610793-1.6019,0-2.2121h0l-2.3325069-2.3336,2.3325069-2.3343c.612-.6109.612-1.6018,0-2.2127-.6098069-.611-1.6006069-.611-2.2116069,0Z" fill="url(#linear-gradient)"/>
      <path d="M13.0370931,5.9966c0,.0007-.0013.0019-.0013.0032l-2.3323999,2.3306-2.3336999-2.3331h0v-.0007c-.6108-.6113-1.603-.6113-2.2125999,0-.611.611-.611,1.6013,0,2.2129l2.3335999,2.3342-2.3323999,2.3331c-.6109.6102-.6109,1.601,0,2.2126.6084.6109,1.6006.6109,2.2113999,0,.0013068-.0006.0025-.0018.0025-.0018l2.3311999-2.3311,2.3336999,2.3323h0v.0006c.6108.6109,1.6006.6109,2.2113999,0,.611-.6116.611-1.6024,0-2.2121h0l-2.3335999-2.3336,2.3335999-2.3342c.6123-.6116.6123-1.6019,0-2.2129-.6108-.6113-1.6006-.6113-2.2113999,0Z" fill="url(#linear-gradient-2)"/>
    </g>
  </g>
</svg>