<?xml version='1.0' encoding='UTF-8'?>
<svg xmlns="http://www.w3.org/2000/svg" xmlns:xlink="http://www.w3.org/1999/xlink" id="Set_2" data-name="Set 2" width="20" height="20" viewBox="0 0 20 20">
  <defs>
    <linearGradient id="linear-gradient" x1="292.3343017" y1="-120.7110889" x2="296.2990971" y2="-120.7110889" gradientTransform="translate(-191.9558 -9.664023) rotate(28.0714524) scale(.6515471) skewX(.078627)" gradientUnits="userSpaceOnUse">
      <stop offset="0" stop-color="#ffdea0"/>
      <stop offset=".1547921" stop-color="#f0cf91"/>
      <stop offset=".4521036" stop-color="#c9aa6d"/>
      <stop offset=".8582073" stop-color="#8a6e32"/>
      <stop offset="1" stop-color="#73581c"/>
    </linearGradient>
    <radialGradient id="radial-gradient" cx="573.6167712" cy="-139.3157342" fx="573.6167712" fy="-139.3157342" r="20.777822" gradientTransform="translate(-248.7278 -33.4324) rotate(28.0647822) scale(.4374353 .624906) skewX(.1037942)" gradientUnits="userSpaceOnUse">
      <stop offset="0" stop-color="#ffdea0"/>
      <stop offset=".0080435" stop-color="#fedc9e"/>
      <stop offset=".3050006" stop-color="#edb55a"/>
      <stop offset=".5538701" stop-color="#e09929"/>
      <stop offset=".7422677" stop-color="#d8870b"/>
      <stop offset=".848315" stop-color="#d68100"/>
    </radialGradient>
    <mask id="mask" x="9.0865952" y="14.4594" width="3.7606999" height="3.9036" maskUnits="userSpaceOnUse">
      <polygon points="12.8472951 15.2951 12.3292951 15.84 12.0653951 14.8773 11.1196952 15.1949 11.1196952 15.1949 11.2820952 14.4594 10.764 15.0055 10.3816952 18.0454 12.6847951 16.03 12.8472951 15.2951" fill="#fff"/>
    </mask>
    <radialGradient id="radial-gradient-2" cx="11.2490932" cy="15.063641" fx="11.2490932" fy="15.063641" r="2.7938375" gradientUnits="userSpaceOnUse">
      <stop offset="0" stop-color="#ffdea0"/>
      <stop offset=".1216866" stop-color="#f0d091"/>
      <stop offset=".354407" stop-color="#cbad6a"/>
      <stop offset=".41573" stop-color="#c1a35f"/>
    </radialGradient>
    <radialGradient id="radial-gradient-3" cx="-1314.2821849" cy="-182.8514034" fx="-1314.2821849" fy="-182.8514034" r="6.9336419" gradientTransform="translate(-467.6596 -147.5682) rotate(-151.9283976) scale(.3810235 -.4373765) skewX(-.088324)" gradientUnits="userSpaceOnUse">
      <stop offset="0" stop-color="#999"/>
      <stop offset=".0504786" stop-color="#898989"/>
      <stop offset=".2007028" stop-color="#5f5f5f"/>
      <stop offset=".3543074" stop-color="#3d3d3d"/>
      <stop offset=".5095904" stop-color="#222"/>
      <stop offset=".6672868" stop-color="#0f0f0f"/>
      <stop offset=".8287757" stop-color="#030303"/>
      <stop offset="1" stop-color="#000"/>
    </radialGradient>
    <radialGradient id="radial-gradient-4" cx="79.8095428" cy="-182.8896663" fx="79.8095428" fy="-182.8896663" r="6.9287238" gradientTransform="translate(-99.5309 48.7879) rotate(28.066432) scale(1.0019235 .4373765) skewX(.0313319)" gradientUnits="userSpaceOnUse"><stop offset="0" stop-color="#999"/><stop offset=".0504786" stop-color="#898989"/><stop offset=".2007028" stop-color="#5f5f5f"/><stop offset=".3543074" stop-color="#3d3d3d"/><stop offset=".5095904" stop-color="#222"/><stop offset=".6672868" stop-color="#0f0f0f"/><stop offset=".8287757" stop-color="#030303"/><stop offset="1" stop-color="#000"/></radialGradient>
    <linearGradient id="White_Black" data-name="White, Black" x1="293.8587457" y1="-128.3640744" x2="296.6430827" y2="-124.4659769" gradientTransform="translate(-191.9558 -9.664023) rotate(28.0714524) scale(.6515471) skewX(.078627)" gradientUnits="userSpaceOnUse">
      <stop offset="0" stop-color="#fff"/>
      <stop offset="1" stop-color="#000"/>
    </linearGradient>
    <linearGradient id="linear-gradient-2" x1="254.670119" y1="-128.4916679" x2="258.0134307" y2="-128.4916679" gradientTransform="translate(-179.946 -4.1004188) rotate(28.0637696) scale(.6959235 .6515237) skewX(.0664206)" gradientUnits="userSpaceOnUse">
      <stop offset="0" stop-color="#ccc"/>
      <stop offset=".0646036" stop-color="#cacaca"/>
      <stop offset=".0891761" stop-color="#c3c3c3"/>
      <stop offset=".1069277" stop-color="#b7b7b7"/>
      <stop offset=".1212965" stop-color="#a6a6a6"/>
      <stop offset=".129213" stop-color="#999"/>
      <stop offset=".1363661" stop-color="#a2a2a2"/>
      <stop offset=".153957" stop-color="#b5b5b5"/>
      <stop offset=".1748508" stop-color="#c2c2c2"/>
      <stop offset=".2020002" stop-color="#c9c9c9"/>
      <stop offset=".258427" stop-color="#ccc"/>
      <stop offset=".3265975" stop-color="#cacaca"/>
      <stop offset=".3539575" stop-color="#c2c2c2"/>
      <stop offset=".3739927" stop-color="#b6b6b6"/>
      <stop offset=".3903486" stop-color="#a5a5a5"/>
      <stop offset=".398876" stop-color="#999"/>
      <stop offset=".4052794" stop-color="#9f9f9f"/>
      <stop offset=".4282017" stop-color="#b3b3b3"/>
      <stop offset=".4546022" stop-color="#c1c1c1"/>
      <stop offset=".4872499" stop-color="#c9c9c9"/>
      <stop offset=".544944" stop-color="#ccc"/>
      <stop offset=".592446" stop-color="#c9c9c9"/>
      <stop offset=".6267399" stop-color="#bfbfbf"/>
      <stop offset=".6567881" stop-color="#b0b0b0"/>
      <stop offset=".6843986" stop-color="#999"/>
      <stop offset=".685393" stop-color="#999"/>
      <stop offset=".7146848" stop-color="#adadad"/>
      <stop offset=".7510613" stop-color="#bebebe"/>
      <stop offset=".7902871" stop-color="#c8c8c8"/>
      <stop offset=".837079" stop-color="#ccc"/>
      <stop offset=".8808857" stop-color="#c7c7c7"/>
      <stop offset=".9290745" stop-color="#bababa"/>
      <stop offset=".9791801" stop-color="#a4a4a4"/>
      <stop offset="1" stop-color="#999"/>
    </linearGradient>
    <linearGradient id="White_Black-2" data-name="White, Black" x1="293.8586579" y1="-130.6162599" x2="296.6431245" y2="-126.717981" gradientTransform="translate(-191.9558 -9.664023) rotate(28.0714524) scale(.6515471) skewX(.078627)" gradientUnits="userSpaceOnUse"><stop offset="0" stop-color="#fff"/><stop offset="1" stop-color="#000"/></linearGradient>
    <radialGradient id="radial-gradient-5" cx="293.5154815" cy="-132.2068886" fx="293.5154815" fy="-132.2068886" r="4.449106" gradientTransform="translate(-191.9558 -9.664023) rotate(28.0714524) scale(.6515471) skewX(.078627)" gradientUnits="userSpaceOnUse">
      <stop offset="0" stop-color="#ff7845"/>
      <stop offset=".0609421" stop-color="#f87241"/>
      <stop offset=".1468911" stop-color="#e66238"/>
      <stop offset=".2476895" stop-color="#c74829"/>
      <stop offset=".3588101" stop-color="#9e2414"/>
      <stop offset=".455056" stop-color="#740000"/>
    </radialGradient>
  </defs>
  <g>
    <g>
      <polygon points="2.4142954 2.292 2.4142954 12.3011 3.2743954 12.3011 16.176695 12.3011 16.176695 3.2022 16.176695 2.292 2.4142954 2.292" fill="#555"/>
      <polygon points="2.4142954 2.292 2.4142954 12.3011 3.2743954 12.3011 16.176695 12.3011 16.176695 3.2022 16.176695 2.292 2.4142954 2.292" fill="none" stroke="#555" stroke-width="2"/>
    </g>
    <rect x="2.4142954" y="2.292" width="13.7623997" height="10.0091" fill="#fff"/>
    <rect x="3.2743954" y="3.2022" width="12.9022997" height="9.0989" fill="silver"/>
    <rect x="3.2743954" y="3.2022" width="12.0420997" height="8.1892" fill="#d7d7d7"/>
  </g>
  <g opacity=".75">
    <path d="M7.4907953,9.7335c-.9127,0-1.5444-.8144-1.5444-2.0174,0-1.262.6732-2.0873,1.5909-2.0873.9432,0,1.5493.8314,1.5493,2.0111,0,1.3623-.7185,2.0936-1.5895952,2.0936h-.0062047ZM7.5116953,9.3143c.7036,0,1.1008-.7489,1.1008-1.6512,0-.79-.3568-1.6158-1.096-1.6158-.7391,0-1.1058.7966-1.1058,1.6573,0,.8376.3984,1.6097,1.0961,1.6097h.0049Z"/>
    <path d="M10.0492952,5.694h.5132v1.9159h.0172c.1075-.1527.2125-.2945.3127-.4246l1.2145-1.4913h.6377l-1.4393,1.6863,1.5518,2.2877h-.6085l-1.3025-1.9519-.3836.4363v1.5156h-.5132v-3.974Z"/>
  </g>
  <g>
    <path d="M17.497495,7.0071l.226-.4259c.195505-.0991.3702-.2438.507-.4313.055-.0783.0758-.1772.0538-.27-.017-.0721-.056295-.1344-.1112-.181.0221-.0677.038-.1367.0453-.2064l.0721-.1362c.2822-.5309.0806-1.1901-.4509-1.4734-.5302-.2823-1.187595-.0814-1.4711.4496l-.072.1361c-.0526.0447-.101495.0954-.1466.1522-.0685-.0202-.141895-.0177-.2102.0079-.0904.0342-.1613.1062-.1943.1967-.0793951.2175-.1013951.4435-.0745.661l-.2261.4263c-.0634-.0151-.1319-.0121-.1941.0117-.0893.0343-.1602.1064-.1944.1967-.0941.2572-.1075.5272-.0538.7815l-4.2909999,8.0749.0525048.028-.3823048,3.0399,2.3030999-2.0154.0501-.2206,4.1883999-7.8818c.2418-.0977.4568-.2596.6181-.4821.0562-.0775.0759-.1765.0538-.2706-.0145-.0659-.0513-.1227-.0977-.1678Z" stroke="#000" stroke-linecap="round" stroke-linejoin="round" stroke-width="2"/>
    <polygon points="12.6322951 16.0013 10.7114952 14.9775 15.4215951 6.1132 17.343495 7.1376 12.6322951 16.0013" fill="url(#linear-gradient)"/>
    <polygon points="12.2754951 15.812 11.0658952 15.1668 15.7783951 6.3026 16.988 6.9477 12.2754951 15.812" fill="url(#radial-gradient)"/>
    <g mask="url(#mask)">
      <g>
        <polygon points="12.8472951 15.2951 12.3292951 15.84 12.0653951 14.8773 11.1196952 15.1949 11.1196952 15.1949 11.2820952 14.4594 10.764 15.0055 10.3816952 18.0454 12.6847951 16.03 12.8472951 15.2951" fill="url(#radial-gradient-2)"/>
        <polygon points="10.29 17.944 10.0224952 17.4334 10.5440952 16.4503 11.1562952 17.6183 10.8312952 18.2317 10.29 17.944" fill="url(#radial-gradient-3)"/>
        <polygon points="10.5086952 18.0607 11.7646952 18.363 12.2875951 17.3808 9.4128952 16.6892 9.0865952 17.3026 10.5086952 18.0607" fill="url(#radial-gradient-4)"/>
      </g>
    </g>
    <path d="M17.595195,7.1749c-.0219-.0941-.083-.174-.1686-.2198l-1.9011-1.0129c-.0843-.0458-.1857-.0519-.2748-.0178-.0893.0343-.1602.1064-.1944.1967-.2419.6629.0439,1.4137.6672,1.7454.623.3323,1.4049.1515,1.8179-.421.0562-.0775.0759-.1765.0538-.2706Z" fill="url(#White_Black)"/>
    <path d="M17.590295,4.3544c-.5668-.3025-1.2547-.1166-1.537.4142l-.6268,1.1779c-.2822.5308-.05,1.2053.5156,1.5083.5669049.3023,1.2548.1166,1.537-.4143l.626905-1.1778c.280895-.5309.051295-1.2059-.515705-1.5083Z" fill="url(#linear-gradient-2)"/>
    <path d="M18.284295,5.8799c-.0219-.0947-.083-.1748-.1686-.22l-1.9011-1.0129c-.0843-.0464-.1858-.0526-.2749-.0183-.0904.0342-.1613.1062-.1943.1967-.2431.6628.0428,1.413.6672,1.746.6218.3317,1.4037.1509,1.8179-.4215.055-.0783.0758-.1772.0538-.27Z" fill="url(#White_Black-2)"/>
    <path d="M17.839595,3.8829c-.5302-.2823-1.187595-.0814-1.4711.4496l-.1882.353c-.281.5309-.0805,1.1906.449705,1.4729.531395.2835,1.190095.0825,1.472395-.4484l.1881-.3537c.2822-.5309.0806-1.1901-.4509-1.4734Z" fill="url(#radial-gradient-5)"/>
    <path d="M14.9268951,10.2563c-.1064.201-.3593.2755-.5621.1668h0c-.204-.1087-.2834-.3598-.176-.5607l.7086-1.3349c.1076049-.201.3592-.2761.5633-.1674h0c.2041.1094.2822.3604.176.5614l-.7098,1.3348Z"/>
    <path d="M14.9268951,9.4622l.2235.1198-.0207.0384c-.0464.0873-.0928.1619-.1382.2248-.0427.0574-.0892.1075-.1404951.1496-.1149049.0953-.2113049.1229-.2882049.0808-.0759-.0398-.1087951-.1338-.1003-.2798.0098-.1479.0587-.3036.1467-.4687.0892-.1691.193-.2987.309-.3878.1187-.0892.2164-.1125.2945-.0698.0428.0221.0721.0612.0893049.1187.0157951.0561.017.1355.006.237l-.1209049.0891c.0231-.1508.0024-.2436-.0610951-.2774-.0574049-.0304-.1284049-.0133-.2114049.0507-.0831.0623-.1577.1559-.2249.2817-.0684.1296-.1038.248-.1051.3543,0,.0989.0221.1612.0698.1864.0402.0214.0915.0116.154-.0288.0623-.0403.1185-.1013.1649-.1795l-.1357-.0722.0893-.1673Z" fill="#fff"/>
  </g>
</svg>