<?xml version="1.0" encoding="UTF-8"?>
<svg id="Set_3" data-name="Set 3" xmlns="http://www.w3.org/2000/svg" width="20" height="20" viewBox="0 0 20 20">
  <path d="M5.5856,16.9433c-.9579,0-1.6152-1.0349-1.6298-2.9017,0-1.9025.7166-2.9373,1.7129-2.9373,1.0263,0,1.6232,1.0599,1.6232,2.859,0,1.9201-.6262,2.98-1.6989,2.98h-.0074ZM5.6236,16.3525c.6719,0,.9957-.9132.9957-2.3549,0-1.3893-.3006-2.3025-.9957-2.3025-.6042,0-.9959.8865-.9959,2.3025-.0158,1.4685.377,2.3549.988,2.3549h.0079Z"/>
  <g>
    <polyline points="10.9396 15.0269 10.9396 16.0874 8.543 14.2059 10.9396 12.323 10.9396 13.4112"/>
    <polyline points="15.668 11.1043 15.668 14.2059 10.2114 14.2059" fill="none" stroke="#000" stroke-linecap="round" stroke-miterlimit="3.8637" stroke-width=".7125"/>
  </g>
  <path d="M1.8598,9.4365c-.2383,0-.4069-.179-.4069-.4172,0-.2383.1753-.4172.4215-.4172.2444,0,.413.1722.413.4172,0,.2382-.1686.4172-.4203.4172h-.0073Z"/>
  <path d="M15.594,9.4365c-.9578,0-1.6151-1.0343-1.6298-2.9017,0-1.9029.7173-2.9373,1.713-2.9373,1.0263,0,1.6238,1.0599,1.6238,2.8591,0,1.92-.6268,2.9799-1.6996,2.9799h-.0074ZM15.6326,8.8457c.672,0,.9952-.9127.9952-2.3549,0-1.3898-.3006-2.3025-.9952-2.3025-.6042,0-.9964.8864-.9964,2.3025-.0152,1.4685.3776,2.3549.9885,2.3549h.0079Z" opacity=".5"/>
  <path d="M10.5902,9.4365c-.9579,0-1.6153-1.0343-1.6299-2.9017,0-1.9029.7167-2.9373,1.7129-2.9373,1.0264,0,1.6233,1.0599,1.6233,2.8591,0,1.92-.6263,2.9799-1.6989,2.9799h-.0074ZM10.6281,8.8457c.6719,0,.9957-.9127.9957-2.3549,0-1.3898-.3005-2.3025-.9957-2.3025-.6043,0-.9958.8864-.9958,2.3025-.0159,1.4685.377,2.3549.9879,2.3549h.0079Z"/>
  <path d="M5.5856,9.4365c-.9579,0-1.6152-1.0343-1.6298-2.9017,0-1.9029.7166-2.9373,1.7129-2.9373,1.0263,0,1.6232,1.0599,1.6232,2.8591,0,1.92-.6262,2.9799-1.6989,2.9799h-.0074ZM5.6242,8.8457c.672,0,.9951-.9127.9951-2.3549,0-1.3898-.3006-2.3025-.9951-2.3025-.6048,0-.9965.8864-.9965,2.3025-.0152,1.4685.377,2.3549.988,2.3549h.0085Z"/>
</svg>