<?xml version="1.0" encoding="UTF-8"?>
<svg id="Icons_-_24x24" data-name="Icons - 24x24" xmlns="http://www.w3.org/2000/svg" width="20" height="20" xmlns:xlink="http://www.w3.org/1999/xlink" viewBox="0 0 20 20">
  <defs>
    <linearGradient id="New_Gradient_19" data-name="New Gradient 19" x1="9.8843542" y1="1.6200215" x2="9.8843542" y2="18.3565344" gradientUnits="userSpaceOnUse">
      <stop offset="0" stop-color="#999"/>
      <stop offset=".303375" stop-color="#b2b2b2"/>
      <stop offset="1" stop-color="#b2b2b2"/>
    </linearGradient>
    <linearGradient id="New_Gradient_26" data-name="New Gradient 26" x1="4.0261806" y1="-8.823116" x2="15.7421935" y2="-8.823116" gradientTransform="translate(0 19.8568) rotate(13.9984894) scale(1.0306069 .9703021) skewX(13.2089399)" gradientUnits="userSpaceOnUse">
      <stop offset="0" stop-color="#ebb310"/>
      <stop offset=".168533" stop-color="#f9e917"/>
      <stop offset=".280899" stop-color="#f6f8b2"/>
      <stop offset=".387634" stop-color="#f9e917"/>
      <stop offset="1" stop-color="#d68112"/>
    </linearGradient>
    <radialGradient id="New_Gradient_27" data-name="New Gradient 27" cx="-62.2979016" cy="-167.2564275" fx="-62.2979016" fy="-167.2564275" r="22.0565872" gradientTransform="translate(29.5479 40.729) rotate(7.731741) scale(.3396882 .1815345) skewX(4.149952)" gradientUnits="userSpaceOnUse">
      <stop offset="0" stop-color="#fff"/>
      <stop offset="1" stop-color="#fff95e"/>
    </radialGradient>
    <linearGradient id="New_Gradient_28" data-name="New Gradient 28" x1="4.4487462" y1="-9.0227114" x2="7.7265837" y2="-7.1302511" gradientTransform="translate(0 19.8568) rotate(13.9984894) scale(1.0306069 .9703021) skewX(13.2089399)" gradientUnits="userSpaceOnUse">
      <stop offset="0" stop-color="#ecd600"/>
      <stop offset=".314606" stop-color="#f6f8b2"/>
      <stop offset="1" stop-color="#fff"/>
    </linearGradient>
    <radialGradient id="New_Gradient_29" data-name="New Gradient 29" cx="-55.7575714" cy="-62.0782603" fx="-55.7575714" fy="-62.0782603" r="15.1854253" gradientTransform="translate(29.5479 39.2399) rotate(14.7150717) scale(.3480145) skewX(14.5108183)" gradientUnits="userSpaceOnUse">
      <stop offset="0" stop-color="#ebb310"/>
      <stop offset=".325836" stop-color="#ebb310"/>
      <stop offset=".853928" stop-color="#c96b0a"/>
      <stop offset="1" stop-color="#995510"/>
    </radialGradient>
    <linearGradient id="New_Gradient_32" data-name="New Gradient 32" x1="6.0987715" y1="-19.9579038" x2="13.2220325" y2="-12.0467209" gradientTransform="translate(0 19.8568) rotate(13.9984894) scale(1.0306069 .9703021) skewX(13.2089399)" gradientUnits="userSpaceOnUse">
      <stop offset="0" stop-color="gray"/>
      <stop offset="1" stop-color="#4c4c4c"/>
    </linearGradient>
    <linearGradient id="New_Gradient_33" data-name="New Gradient 33" x1="14.2914073" y1="-14.8655695" x2="5.2126547" y2="-17.4688599" gradientTransform="translate(0 19.8568) rotate(13.9984894) scale(1.0306069 .9703021) skewX(13.2089399)" gradientUnits="userSpaceOnUse">
      <stop offset="0" stop-color="#666"/>
      <stop offset=".219101" stop-color="#737373"/>
      <stop offset="1" stop-color="#fff"/>
    </linearGradient>
    <linearGradient id="New_Gradient_34" data-name="New Gradient 34" x1="11.9112501" y1="-17.8599803" x2="12.7584232" y2="-13.8743442" gradientTransform="translate(0 19.8568) rotate(13.9984894) scale(1.0306069 .9703021) skewX(13.2089399)" gradientUnits="userSpaceOnUse">
      <stop offset="0" stop-color="#666"/>
      <stop offset=".51123" stop-color="#e5e5e5"/>
      <stop offset=".79776" stop-color="#fff"/>
      <stop offset="1" stop-color="gray"/>
    </linearGradient>
    <linearGradient id="New_Gradient_35" data-name="New Gradient 35" x1="10.2378924" y1="-16.3460598" x2="8.1238478" y2="-14.9201187" gradientTransform="translate(0 19.8568) rotate(13.9984894) scale(1.0306069 .9703021) skewX(13.2089399)" gradientUnits="userSpaceOnUse">
      <stop offset="0" stop-color="#666"/>
      <stop offset=".657303" stop-color="#191919"/>
      <stop offset="1" stop-color="#191919"/>
    </linearGradient>
    <linearGradient id="New_Gradient_36" data-name="New Gradient 36" x1="13.5417853" y1="-19.9174908" x2="13.5417853" y2="-13.8988616" gradientTransform="translate(0 19.8568) rotate(13.9984894) scale(1.0306069 .9703021) skewX(13.2089399)" gradientUnits="userSpaceOnUse">
      <stop offset="0" stop-color="#737373"/>
      <stop offset=".629211" stop-color="#191919"/>
      <stop offset="1" stop-color="#191919"/>
    </linearGradient>
    <linearGradient id="New_Gradient_37" data-name="New Gradient 37" x1="8.4686587" y1="-20.104431" x2="8.4686587" y2="-12.1410643" gradientTransform="translate(0 19.8568) rotate(13.9984894) scale(1.0306069 .9703021) skewX(13.2089399)" gradientUnits="userSpaceOnUse">
      <stop offset="0" stop-color="#999"/>
      <stop offset=".303375" stop-color="#b2b2b2"/>
      <stop offset="1" stop-color="#b2b2b2"/>
    </linearGradient>
    <linearGradient id="New_Gradient_30" data-name="New Gradient 30" x1="11.3857323" y1="-11.1693281" x2="10.9139654" y2="-5.7770074" gradientTransform="translate(0 19.8568) rotate(13.9984894) scale(1.0306069 .9703021) skewX(13.2089399)" gradientUnits="userSpaceOnUse">
      <stop offset="0" stop-color="#ebb310"/>
      <stop offset=".561798" stop-color="#fff95e"/>
      <stop offset="1" stop-color="#ecd600"/>
    </linearGradient>
    <mask id="mask" x="8.6576896" y="11.3574" width="3.732904" height="5.3833" maskUnits="userSpaceOnUse">
      <path d="M10.8114937,14.313c.001.56.002.8408.0049,1.4009.0029.8169-1.1913937.6958-1.1953-.1216-.002-.523-.002-.7837-.0039-1.3076-.5195-.211-.9053-.6787-.9541-1.2388-.0713-.8022.5713-1.4946,1.4326-1.5483.8623063-.0523,1.6211.5566,1.6904,1.3603.0586.6519-.3554,1.2339-.9746,1.4551Z" fill="#fff"/>
    </mask>
    <linearGradient id="New_Gradient_31" data-name="New Gradient 31" x1="9.2019135" y1="-9.5341671" x2="12.9904547" y2="-7.6038089" gradientTransform="translate(0 19.8568) rotate(13.9984894) scale(1.0306069 .9703021) skewX(13.2089399)" gradientUnits="userSpaceOnUse">
      <stop offset="0" stop-color="#000"/>
      <stop offset=".241577" stop-color="#000"/>
      <stop offset="1" stop-color="#995510"/>
    </linearGradient>
  </defs>
  <g>
    <path d="M15.7304935,9.603c.0644-.2402-.127-.5664-.6387-1.0102-.1006-.0884-.2147936-.1685-.3301-.2422v-2.0005c-.123-2.9199-2.6063999-5.1084-5.3593999-4.6753-2.3163999.3648-3.9549999,2.4219-3.9286999,4.8862,0,0-.0117.4898-.0165938,1.0181-.8105062.104-1.6054062.3296-1.3847062.873-.0039-.0009-.0059-.0009-.0088-.0009v5.4419c-.1026.3784.001.8838.3779,1.5464,1.2793,2.2373,2.3280999,2.8549,3.7987999,2.894.9161.0664,1.9356-.0239,2.7743999-.1045.5489-.0322,1.1153-.0796,1.7471-.1489.2031-.02.4141-.044.6279-.0747.1172-.0157.2364064-.0308.3584064-.0464,1.1376936-.1548,1.876-.4736,1.9824935-1.2002.0156-.1182.0156-.249,0-.3906v-6.7652ZM11.7108936,7.4609c-.5693-.0546-1.0438936-.0625-1.292-.0644-.4501-.0015-1.1787.0098-1.9188937.0264v-.2198c.0087937-.3266.1532937-.6699.2645937-1.0595.2793-.9717,1.7354063-1.628,2.6455999-1.0752.2197.1352.2929.3549.3281.6088,0,0-.0215.9473-.0274,1.7837Z" fill="url(#New_Gradient_19)" stroke="#000" stroke-miterlimit="3.8637" stroke-width="2"/>
    <path d="M4.4413938,15.4395c-.3769-.6626-.4805-1.168-.3779-1.5464v-5.4419c3.8876999.416,7.7715062.7968,11.6669997,1.1499v6.7671c.0156.1416.0156.2724,0,.3906-.1064935.7266-.8448,1.0454-1.9824935,1.2002-2.0566064.2783-3.3554063.3061-5.0898063.3721-1.6991937.0639-2.8192999-.4468-4.2167999-2.8916Z" fill="url(#New_Gradient_26)"/>
    <path d="M4.4413938,8.9243c1.4004,1.2652,2.5176062,1.5283,4.2167999,1.4946,1.7344-.0341,3.0331999-.0493,5.0898063-.1933,1.8662935-.1304,2.6591935-.4893,1.3437936-1.6328-1.3145-1.1416-3.9501999-1.1919-4.6728999-1.1963-.9208937-.0039-2.9979999.0439-3.9813999.0986-1.0614938.0601-3.3310999.2207-1.9960999,1.4292Z" fill="url(#New_Gradient_27)" fill-rule="evenodd"/>
    <path d="M7.2333938,10.5386c0,2.3716-.001,4.7431,0,7.1152,0,.4443-.4813938.1719-.4961-.2563-.0957-2.8872-1.7842-8.854-1.7842-8.854.002-.001,2.2802999,1.9951,2.2802999,1.9951Z" fill="url(#New_Gradient_28)"/>
    <path d="M4.9784938,8.9272c-.4648-.3959-.2412-.5791-.2412-.5791,0,0,.2012-.351,1.9892999-.4589,1.8066-.1094,4.3554062-.0977,5.6649999-.1363" fill="none" stroke="#ecd600" stroke-linecap="round" stroke-miterlimit="3.8637" stroke-width=".7366"/>
    <path d="M4.2685938,8.4683v5.9677" fill="none" stroke="#fff95e" stroke-linecap="round" stroke-linejoin="round" stroke-width="1.0246"/>
    <path d="M4.25,8.4048s1.0507938,1.479,2.666,1.8603c2.1777937.5152,4.8075936.1514,7.0966936-.1025.8076-.0894,1.5303064-.2983,1.5303064-.2983" fill="none" stroke="#d68112" stroke-linecap="round" stroke-linejoin="round" stroke-width=".6058"/>
    <path d="M15.252,9.877s.0311936,1.2983.0311936,3.3759c0,2.0791-.0967,3.4131-.1601936,3.5205-.0654064.1079-.4277064.751-4.3476063.9527,0,0,2.7284999-.9414,3.0946999-3.0498.4776-2.7451-1.7715-4.127-1.7715-4.127,0,0,1.1866-.1587,1.7676-.2451.6143-.0879,1.3858064-.4272,1.3858064-.4272Z" fill="url(#New_Gradient_29)" fill-rule="evenodd"/>
    <path d="M4.6562938,15.0317s.0488.1016.1396.2627c1.4229,2.5244,2.3837999,2.5342,4.1454999,2.5342,1.8916063,0,5.5702999-.0503,6.1161998-1.1465.5928-1.1953-.2998-6.2378.0967-6.7104.0713-.084.541-.2832.541-.2832,0,0,.0195,1.6289.0195,3.1518,0,1.5078-.0185,3.6133-.0986,4.1016-.1787,1.0684-3.1503999,1.1548-4.0946999,1.2393-1.4277.1293-3.7558999.4335-4.9482999-.2847-.7734-.4663-1.7031-1.6514-2.2547999-2.7598-.1523938-.3086.1914-.416.3379-.105Z" fill="#ebb310"/>
    <path d="M7.0253938,8.2651c.8223.044,1.5693.4263,1.5693.8575,0,.4306-.747.7465-1.5693.7026-.8233-.0415-1.5243938-.4258-1.5243938-.8579s.7010938-.7446,1.5243938-.7022Z" fill="#995510"/>
    <path d="M13.1503936,8.1055c.8232.0429,1.5684.4262,1.5684.8593,0,.4307-.7452.7461-1.5684.7022-.8233-.043-1.5225-.4263-1.5225-.8584,0-.4297.6992-.7456,1.5225-.7031Z" fill="#995510"/>
    <g>
      <path d="M5.4745938,8.8198c-.0449-.3149-.001-2.2588-.001-2.2588-.0263-2.4643,1.6123-4.5214,3.9286999-4.8862,2.7529999-.4331,5.2363999,1.7554,5.3593999,4.6753v2.6333c-.5732.6836-2.8680999.4658-3.0233999-.2959-.0625-.3027,0-3.0103,0-3.0103-.0352-.2539-.1084-.4736-.3281-.6088-.9101936-.5528-2.3662999.1035-2.6455999,1.0752-.1113.3896-.2558.7329-.2645937,1.0595v1.9219c-.4453063.7798-2.9102062.4878-3.0254062-.3052Z" fill="url(#New_Gradient_32)"/>
      <path d="M5.7597938,8.7197v-1.7129c-.0332-4.2846,4.8817999-7.0595,7.6952998-3.4238.375.4893.1181.6953-.2696.2354-2.6102999-3.1202-6.4491998-.0645-6.4266998,3.5366v1.7344c0,.4721-.999.0561-.999-.3697Z" fill="url(#New_Gradient_33)"/>
      <path d="M11.9218936,8.5229v-3.1127c0-.4493.7949-.9385.7949.2099v2.8721c.085.3125.4102064.4106.4102064.6225,0,.4737-1.2051064-.1826-1.2051064-.5918Z" fill="url(#New_Gradient_34)"/>
      <path d="M7.0487938,9.2837c0-.2993.3526-.3106.3526-1.2134v-.9731c.0468-2.1704,2.0360999-3.899,3.9930999-2.9409.3819.187.3496.5664-.0371.3666-1.1191-.5742-3.2733937.7154-3.2733937,2.5513v2.126c0,.3643-1.0352062.457-1.0352062.0835Z" fill="url(#New_Gradient_35)"/>
      <path d="M13.3944936,9.1211v-3.291c0-.7022-.125-1.6465-.5927-2.0825-.336-.3116.0966-.7701.4287-.4551,0,0,.0781.0742.1963.2134.624.7407.9765,1.6762.9765,2.5571v3.0718c0,.3574-1.0088.3418-1.0088-.0137Z" fill="url(#New_Gradient_36)"/>
      <path d="M6.2831938,9.1626v-1.9839c.0342-2.5513,1.6055-4.8144,4.1855999-4.8115.1894,0,.2656.3232.0742063.3232-2.3711063.0039-3.7012062,2.2974-3.7549062,4.5645v1.9946c0,.1865-.5049.0938-.5049-.0869Z" fill="url(#New_Gradient_37)"/>
    </g>
  </g>
  <g>
    <path d="M11.2235937,11.417s.0635.0356.1524063.103c.4911936.3687.7821936.9131.7821936,1.4927,0,.9604-.5996,1.4038-1.0215,1.5708v1.6289c0,.4609-.5449.5322-.9101.4805-.2373-.0318-.2715-.4048-.0332-.3745,0,0,.04.0073.1005.0083.1475.0053.4844-.0059.4844-.1973v-1.8447c.5908-.1919,1.0225-.6006,1.0225-1.356,0-.4482-.2686-.9497-.6856-1.1855-.2256-.1304-.1171937-.4517.1084-.3262Z" fill="url(#New_Gradient_30)"/>
    <g mask="url(#mask)">
      <g>
        <path d="M10.8114937,14.313c.001.56.002.8408.0049,1.4009.0029.8169-1.1913937.6958-1.1953-.1216-.002-.523-.002-.7837-.0039-1.3076-.5195-.211-.9053-.6787-.9541-1.2388-.0713-.8022.5713-1.4946,1.4326-1.5483.8623063-.0523,1.6211.5566,1.6904,1.3603.0586.6519-.3554,1.2339-.9746,1.4551Z"/>
        <path d="M9.8261937,11.3613s.9541.0659.9541.7783c0,.7105-.4756,1.1929-.9971,1.3418v2.7603c.4141.1987.625.2988,1.042.499.625-1.1782.9404-1.7666,1.5654-2.9443-.2627-.9756-.3925936-1.4634-.6523-2.439-.7637.0015-1.1465.0025-1.9121.0039Z" fill="url(#New_Gradient_31)" fill-rule="evenodd"/>
      </g>
    </g>
  </g>
</svg>