<?xml version="1.0" encoding="UTF-8"?>
<svg id="Icons_-_24x24" data-name="Icons - 24x24" xmlns="http://www.w3.org/2000/svg" width="20" height="20" xmlns:xlink="http://www.w3.org/1999/xlink" viewBox="0 0 20 20">
  <defs>
    <linearGradient id="New_Gradient_519" data-name="New Gradient 519" x1="2.6634657" y1="-55.5580142" x2="16.1816429" y2="-66.9011117" gradientTransform="translate(0 72.5652) rotate(13.9984894) scale(1.0306069 .9703021) skewX(13.2089399)" gradientUnits="userSpaceOnUse">
      <stop offset="0" stop-color="#b2b2b2"/>
      <stop offset=".168533" stop-color="#e5e5e5"/>
      <stop offset=".230331" stop-color="#fff"/>
      <stop offset=".280899" stop-color="#e5e5e5"/>
      <stop offset="1" stop-color="#ccc"/>
    </linearGradient>
    <linearGradient id="linear-gradient" x1="3.0472885" y1="-56.9213812" x2="13.7622616" y2="-67.6363543" gradientTransform="translate(0 72.5652) rotate(13.9984894) scale(1.0306069 .9703021) skewX(13.2089399)" gradientUnits="userSpaceOnUse">
      <stop offset="0" stop-color="#b2b2b2"/>
      <stop offset=".168533" stop-color="#e5e5e5"/>
      <stop offset=".230331" stop-color="#fff"/>
      <stop offset=".280899" stop-color="#e5e5e5"/>
      <stop offset=".5" stop-color="#c2c2c2"/>
    </linearGradient>
    <linearGradient id="New_Gradient_518" data-name="New Gradient 518" x1="5.7972736" y1="-64.8262166" x2="15.19175" y2="-55.4317403" gradientTransform="translate(0 72.5652) rotate(13.9984894) scale(1.0306069 .9703021) skewX(13.2089399)" gradientUnits="userSpaceOnUse">
      <stop offset="0" stop-color="#ccc"/>
      <stop offset="1" stop-color="#fff"/>
    </linearGradient>
    <linearGradient id="New_Gradient_517" data-name="New Gradient 517" x1="12.8175108" y1="-54.9610331" x2="8.1805599" y2="-65.3757952" gradientTransform="translate(0 72.5652) rotate(13.9984894) scale(1.0306069 .9703021) skewX(13.2089399)" gradientUnits="userSpaceOnUse">
      <stop offset="0" stop-color="#b2b2b2"/>
      <stop offset=".5" stop-color="#e5e5e5"/>
      <stop offset="1" stop-color="#fff"/>
    </linearGradient>
    <linearGradient id="New_Gradient_516" data-name="New Gradient 516" x1="14.2897238" y1="-60.7242662" x2="14.7504133" y2="-59.4585324" gradientTransform="translate(0 72.5652) rotate(13.9984894) scale(1.0306069 .9703021) skewX(13.2089399)" gradientUnits="userSpaceOnUse">
      <stop offset="0" stop-color="#0f6124"/>
      <stop offset="1" stop-color="#219630"/>
    </linearGradient>
    <linearGradient id="New_Gradient_515" data-name="New Gradient 515" x1=".7928062" y1="-56.3525771" x2="6.1183187" y2="-61.6780897" gradientTransform="translate(0 72.5652) rotate(13.9984894) scale(1.0306069 .9703021) skewX(13.2089399)" gradientUnits="userSpaceOnUse">
      <stop offset="0" stop-color="#e5e5e5"/>
      <stop offset="1" stop-color="#ccc"/>
    </linearGradient>
    <linearGradient id="New_Gradient_510" data-name="New Gradient 510" x1="11.0008478" y1="-61.0314735" x2="16.8476944" y2="-66.8783201" gradientTransform="translate(0 72.5652) rotate(13.9984894) scale(1.0306069 .9703021) skewX(13.2089399)" gradientUnits="userSpaceOnUse">
      <stop offset="0" stop-color="#d9d9d9"/>
      <stop offset="1" stop-color="#f2f2f2"/>
    </linearGradient>
    <mask id="mask" x="2.2284939" y="1.4229" width="12.6073997" height="11.2163" maskUnits="userSpaceOnUse">
      <polygon points="9.5 11.6392 5.1601938 6.1162 7.668 6.1162 7.667 2.4229 11.3944936 2.4229 11.3925936 6.1162 13.8358936 6.1162 9.5 11.6392" fill="#fff" stroke="#fff" stroke-linecap="round" stroke-linejoin="round" stroke-width="2"/>
    </mask>
    <radialGradient id="New_Gradient_74" data-name="New Gradient 74" cx="4.5667759" cy="1.8256838" fx="4.5667759" fy="1.8256838" r="10.3775402" gradientUnits="userSpaceOnUse">
      <stop offset="0" stop-color="#328e36"/>
      <stop offset="1" stop-color="#00cd00"/>
    </radialGradient>
    <radialGradient id="New_Gradient_75" data-name="New Gradient 75" cx="25.7455218" cy="27.6707777" fx="25.7455218" fy="27.6707777" r="14.160306" gradientTransform="translate(-6.4713 -15.7219) scale(.7457)" gradientUnits="userSpaceOnUse">
      <stop offset="0" stop-color="#fff"/>
      <stop offset="1" stop-color="#00cd00"/>
    </radialGradient>
    <mask id="mask-1" x="2.2284939" y="1.6289" width="11.6073997" height="10.0376" maskUnits="userSpaceOnUse">
      <polygon points="9.5 11.6392 5.1601938 6.1162 7.668 6.1162 7.667 2.4229 11.3944936 2.4229 11.3925936 6.1162 13.8358936 6.1162 9.5 11.6392" fill="#fff"/>
    </mask>
    <radialGradient id="radial-gradient" cx="6.2750212" cy="2.7869438" fx="6.2750212" fy="2.7869438" r="5.5367938" gradientUnits="userSpaceOnUse">
      <stop offset="0" stop-color="#c9ffc9"/>
      <stop offset=".80899" stop-color="#00cd00"/>
    </radialGradient>
    <radialGradient id="radial-gradient-2" cx="22.8722753" cy="26.5387378" fx="22.8722753" fy="26.5387378" r="9.8318979" gradientTransform="translate(-6.4713 -15.7219) scale(.7457)" gradientUnits="userSpaceOnUse">
      <stop offset="0" stop-color="#c9ffc9"/>
      <stop offset=".80899" stop-color="#00cd00"/>
      <stop offset="1" stop-color="#00cd00"/>
    </radialGradient>
  </defs>
  <g>
    <path d="M4.6288938,17.1196l-2.1327999-2.7622c-.0654-.0908-.0996-.1953-.0996-.3149v-3.4927c0-.3042.2471-.5508.5537-.5498l10.8446997.0186c.1856-.002.3496.0883.4502.228l2.1161999,2.7402c.0752.1128.1084.2149.1084.3262v3.4961c0,.3022-.247.5483-.5536935.5483l-10.8437062-.0185c-.1827,0-.3438-.0869-.4434-.2193Z" fill="url(#New_Gradient_519)" stroke="#000" stroke-miterlimit="3.8637" stroke-width="1.8248"/>
    <path d="M4.6288938,17.1196l-2.1327999-2.7622c-.0654-.0908-.0996-.1953-.0996-.3149v-3.4927c0-.3042.2471-.5508.5537-.5498l10.8446997.0186c.1856-.002.3496.0883.4502.228l2.1337999,2.7656-11.7499997,4.1074Z" fill="url(#linear-gradient)" fill-rule="evenodd"/>
    <path d="M5.0722938,12.7461l10.8437062.0185c.3066935.0005.5536935.2452.5536935.5484v3.4961c0,.3022-.247.5483-.5536935.5483l-10.8437062-.0185c-.3077,0-.5537-.2451-.5537-.5484v-3.4941c0-.3032.246-.5488.5537-.5503Z" fill="url(#New_Gradient_518)" fill-rule="evenodd"/>
    <path d="M15.6024935,12.5371c.5284-.0117.8672.3364.8672.8901v3.3184c0,.397-.3046935.6826-.6748.6841l-10.3856997.0591c-.2803,0-.8671938-.1411-.8671938-.8179v-3.3906c0-.3965.3036938-.6831.6747938-.6841l10.3856997-.0591ZM5.04,16.9385c.0292938.0078.086.0205.1767938.02l10.3866997-.0596c.209,0,.377-.1806.377-.3613v-3.3184c0-.0781,0-.1093-.0098-.1352-.0342-.0108-.0898-.0181-.1728-.0181l-10.3886997.0611c-.21,0-.376.1796-.376.3603v3.3911l.0068062.0601Z" fill="url(#New_Gradient_517)"/>
    <path d="M14.0614936,15.6484l.917.0152c.5869.0107.5869.8852,0,.8755l-.917-.0162c-.5869-.0097-.5869-.8857,0-.8745Z" fill="url(#New_Gradient_516)"/>
    <line x1="14.0263936" y1="16.0098" x2="14.9071936" y2="16.0225" fill="none" stroke="#7cc771" stroke-linecap="round" stroke-miterlimit="3.8637" stroke-width="1.1405"/>
    <path d="M2.8202939,14.2192l1.2412,1.5005-.0273-1.7407c-.9501938.2124-1.2139-.854-1.2139-.854v1.0942Z" fill="url(#New_Gradient_515)" fill-rule="evenodd"/>
    <path d="M13.8905936,10.5259l2.1074064,3.2095-6.498-1.543c5.9608935-2.2075,3.1151936-1.6509,3.1151936-1.6509l1.2754-.0156Z" fill="url(#New_Gradient_510)" fill-rule="evenodd"/>
  </g>
  <g>
    <g mask="url(#mask)">
      <g>
        <polygon points="9.5 11.6392 5.1601938 6.1162 7.668 6.1162 7.667 2.4229 11.3944936 2.4229 11.3925936 6.1162 13.8358936 6.1162 9.5 11.6392" fill="url(#New_Gradient_74)"/>
        <polygon points="2.2284939 2.4937 10.9774937 1.6289 10.9774937 6.582 12.9413936 6.582 8.9208937 11.6665 2.2284939 2.4937" fill="url(#New_Gradient_75)" fill-rule="evenodd"/>
        <polygon points="9.5 11.6392 5.1601938 6.1162 7.668 6.1162 7.667 2.4229 11.3944936 2.4229 11.3925936 6.1162 13.8358936 6.1162 9.5 11.6392" fill="none" stroke="#000" stroke-linecap="round" stroke-linejoin="round" stroke-width="2"/>
      </g>
    </g>
    <g mask="url(#mask-1)">
      <g>
        <polygon points="9.5 11.6392 5.1601938 6.1162 7.668 6.1162 7.667 2.4229 11.3944936 2.4229 11.3925936 6.1162 13.8358936 6.1162 9.5 11.6392" fill="url(#radial-gradient)"/>
        <polygon points="2.2284939 2.4937 10.9774937 1.6289 10.9774937 6.582 12.9413936 6.582 8.9208937 11.6665 2.2284939 2.4937" fill="url(#radial-gradient-2)"/>
      </g>
    </g>
  </g>
</svg>