<?xml version="1.0" encoding="UTF-8"?>
<svg id="Set_5" data-name="Set 5" xmlns="http://www.w3.org/2000/svg" width="20" height="20" xmlns:xlink="http://www.w3.org/1999/xlink" viewBox="0 0 20 20">
  <defs>
    <mask id="mask" x="2.432373" y="3.7244263" width="13.7612457" height="11.2588501" maskUnits="userSpaceOnUse">
      <polyline points="16.1936188 14.9832764 2.432373 14.9832764 2.432373 3.7244263 16.1936188 3.7244263 16.1936188 14.9832764" fill="#fff"/>
    </mask>
  </defs>
  <g>
    <path d="M2.432373,3.7244263h13.7624207v3.7521667h-.0011749v7.5066833h.9999237H2.432373V3.7244263M17.1935425,2.7244263H1.432373v13.2588501h15.7611694V2.7244263"/>
    <path d="M3.5480347,12.4920044h-.134552v.0832214h.134552v-.0832214M6.5927277,12.4920044h-2.294754v.0832214h2.294754v-.0832214M7.9635925,12.4920044h-.6209259v.0832214h.6209259v-.0832214M11.220932,12.4920044h-2.5073395v.0832214h2.5073395v-.0832214M12.1055756,12.4920044h-.1347046v.0832214h.1347046v-.0832214M16.1936188,12.4920044h-3.3380432v.0832214h3.3380432v-.0832214M3.5480347,10.4076233h-.134552v1.3343811h.134552v-1.3343811M6.5927277,10.4076233h-2.294754v1.3343811h2.294754v-1.3343811M7.9635925,10.4076233h-.6209259v1.3343811h.6209259v-1.3343811M11.220932,10.4076233h-2.5073395v1.3343811h2.5073395v-1.3343811M12.1055756,10.4076233h-.1347046v1.3343811h.1347046v-1.3343811M16.1936188,10.4076233h-3.3380432v1.3343811h3.3380432v-1.3343811M3.5480347,7.7489624h-.134552v1.9086609h.134552v-1.9086609M6.5927277,7.7489624h-2.294754v1.9086609h2.294754v-1.9086609M7.9635925,7.7489624h-.6209259v1.9086609h.6209259v-1.9086609M11.220932,7.7489624h-2.5073395v1.9086609h2.5073395v-1.9086609M12.1055756,7.7489624h-.1347046v1.9086609h.1347046v-1.9086609M16.1936188,7.7489624h-3.3380432v1.9086609h3.3380432v-1.9086609M2.432373,3.7244263h0v11.2588501h13.7612457v-1.6580505h-3.3380432v1.6580505h-.75v-1.6580505h-.1347046v1.6580505h-.749939v-1.6580505h-2.5073395v1.6580505h-.75v-1.6580505h-.6209259v1.6580505h-.749939v-1.6580505h-2.294754v1.6580505h-.749939v-1.6580505h-.134552v1.6580505h-.75v-2.491272h-.2311096v-.75h.2311096v-1.3343811h-.2311096v-.75h.2311096v-2.1810303h-.2311096v-3.7521667" fill="#e5e5e5"/>
    <g mask="url(#mask)">
      <g>
        <path d="M3.5480347,7.476593h-.134552v.2723694h.134552v-.2723694M6.5927277,7.476593h-2.294754v.2723694h2.294754v-.2723694M7.9635925,7.476593h-.6209259v.2723694h.6209259v-.2723694M11.220932,7.476593h-2.5073395v.2723694h2.5073395v-.2723694M12.1055756,7.476593h-.1347046v.2723694h.1347046v-.2723694M16.1936188,7.476593h-3.3380432v.2723694h3.3380432v-.2723694" fill="#fff"/>
        <path d="M12.8555756,13.3252258h-.75v1.6580505h.75v-1.6580505M12.8555756,12.4920044h-.75v.0832214h.75v-.0832214M12.8555756,10.4076233h-.75v1.3343811h.75v-1.3343811M12.8555756,7.476593h-.75v2.1810303h.75v-2.1810303" fill="#fff"/>
        <path d="M8.7135925,13.3252258h-.75v1.6580505h.75v-1.6580505M8.7135925,12.4920044h-.75v.0832214h.75v-.0832214M8.7135925,10.4076233h-.75v1.3343811h.75v-1.3343811M8.7135925,7.476593h-.75v2.1810303h.75v-2.1810303" fill="#fff"/>
        <path d="M4.2979736,13.3252258h-.749939v1.6580505h.749939v-1.6580505M4.2979736,12.4920044h-.749939v.0832214h.749939v-.0832214M4.2979736,10.4076233h-.749939v1.3343811h.749939v-1.3343811M4.2979736,7.476593h-.749939v2.1810303h.749939v-2.1810303" fill="#fff"/>
        <path d="M2.6634827,9.6576233h-.2311096v.75h.2311096v-.75M6.5927277,9.6576233h-3.179245v.75h3.179245v-.75M11.220932,9.6576233h-3.8782654v.75h3.8782654v-.75M16.1936188,9.6576233h-4.2227478v.75h4.2227478v-.75" fill="#999"/>
        <path d="M6.5927277,12.5752258h-3.179245v.75h3.179245v-.75M11.220932,12.5752258h-3.8782654v.75h3.8782654v-.75M16.1936188,12.5752258h-4.2227478v.75h4.2227478v-.75" fill="#fff"/>
        <path d="M2.6634827,11.7420044h-.2311096v.75h.2311096v-.75M6.5927277,11.7420044h-3.179245v.75h3.179245v-.75M11.220932,11.7420044h-3.8782654v.75h3.8782654v-.75M16.1936188,11.7420044h-4.2227478v.75h4.2227478v-.75" fill="#999"/>
        <polyline points="11.970871 7.476593 11.220932 7.476593 11.220932 7.7489624 11.220932 9.6576233 11.220932 10.4076233 11.220932 11.7420044 11.220932 12.4920044 11.220932 12.5752258 11.220932 13.3252258 11.220932 14.9832764 11.970871 14.9832764 11.970871 13.3252258 11.970871 12.5752258 11.970871 12.4920044 11.970871 11.7420044 11.970871 10.4076233 11.970871 9.6576233 11.970871 7.7489624 11.970871 7.476593" fill="#999"/>
        <polyline points="7.3426666 7.476593 6.5927277 7.476593 6.5927277 7.7489624 6.5927277 9.6576233 6.5927277 10.4076233 6.5927277 11.7420044 6.5927277 12.4920044 6.5927277 12.5752258 6.5927277 13.3252258 6.5927277 14.9832764 7.3426666 14.9832764 7.3426666 13.3252258 7.3426666 12.5752258 7.3426666 12.4920044 7.3426666 11.7420044 7.3426666 10.4076233 7.3426666 9.6576233 7.3426666 7.7489624 7.3426666 7.476593" fill="#999"/>
        <polyline points="3.4134827 7.476593 2.6634827 7.476593 2.6634827 9.6576233 2.6634827 10.4076233 2.6634827 11.7420044 2.6634827 12.4920044 2.6634827 14.9832764 3.4134827 14.9832764 3.4134827 13.3252258 3.4134827 12.5752258 3.4134827 12.4920044 3.4134827 11.7420044 3.4134827 10.4076233 3.4134827 9.6576233 3.4134827 7.7489624 3.4134827 7.476593" fill="#fff"/>
      </g>
    </g>
    <polyline points="16.1947937 3.7244263 2.432373 3.7244263 16.1936188 3.7244263 16.1936188 4.3609009 16.1936188 4.4441223 16.1936188 5.1941223 16.1936188 6.1644287 16.1936188 6.9144287 16.1936188 6.9989624 16.1936188 7.476593 16.1947937 7.476593 16.1947937 3.7244263"/>
    <path d="M2.6634827,6.9144287h-.2311096v.5621643h.2311096v-.5621643M3.5480347,6.9144287h-.134552v.0845337h.134552v-.0845337M6.5927277,6.9144287h-2.294754v.0845337h2.294754v-.0845337M7.9635925,6.9144287h-.6209259v.0845337h.6209259v-.0845337M11.220932,6.9144287h-2.5073395v.0845337h2.5073395v-.0845337M12.1055756,6.9144287h-.1347046v.0845337h.1347046v-.0845337M16.1936188,6.9144287h-3.3380432v.0845337h3.3380432v-.0845337M3.5480347,5.1941223h-.134552v.9703064h.134552v-.9703064M6.5927277,5.1941223h-2.294754v.9703064h2.294754v-.9703064M7.9635925,5.1941223h-.6209259v.9703064h.6209259v-.9703064M11.220932,5.1941223h-2.5073395v.9703064h2.5073395v-.9703064M12.1055756,5.1941223h-.1347046v.9703064h.1347046v-.9703064M16.1936188,5.1941223h-3.3380432v.9703064h3.3380432v-.9703064M2.6634827,4.3609009h-.2311096v1.8035278h.2311096v-1.8035278M6.5927277,4.3609009h-3.179245v.0832214h3.179245v-.0832214M11.220932,4.3609009h-3.8782654v.0832214h3.8782654v-.0832214M16.1936188,4.3609009h-4.2227478v.0832214h4.2227478v-.0832214" fill="#b7b7b7"/>
    <path d="M3.5480347,6.9989624h-.134552v.4776306h.134552v-.4776306M6.5927277,6.9989624h-2.294754v.4776306h2.294754v-.4776306M7.9635925,6.9989624h-.6209259v.4776306h.6209259v-.4776306M11.220932,6.9989624h-2.5073395v.4776306h2.5073395v-.4776306M12.1055756,6.9989624h-.1347046v.4776306h.1347046v-.4776306M16.1936188,6.9989624h-3.3380432v.4776306h3.3380432v-.4776306" fill="#ccc"/>
    <path d="M12.8555756,6.9144287h-.75v.5621643h.75v-.5621643M12.8555756,5.1941223h-.75v.9703064h.75v-.9703064" fill="#ccc"/>
    <path d="M8.7135925,6.9144287h-.75v.5621643h.75v-.5621643M8.7135925,5.1941223h-.75v.9703064h.75v-.9703064" fill="#ccc"/>
    <path d="M4.2979736,6.9144287h-.749939v.5621643h.749939v-.5621643M4.2979736,5.1941223h-.749939v.9703064h.749939v-.9703064" fill="#ccc"/>
    <path d="M6.5927277,4.4441223h-3.179245v.75h3.179245v-.75M11.220932,4.4441223h-3.8782654v.75h3.8782654v-.75M16.1936188,4.4441223h-4.2227478v.75h4.2227478v-.75" fill="#ccc"/>
    <path d="M2.6634827,6.1644287h-.2311096v.75h.2311096v-.75M6.5927277,6.1644287h-3.179245v.75h3.179245v-.75M11.220932,6.1644287h-3.8782654v.75h3.8782654v-.75M16.1936188,6.1644287h-4.2227478v.75h4.2227478v-.75" fill="#7a7a7a"/>
    <polyline points="11.970871 4.3609009 11.220932 4.3609009 11.220932 4.4441223 11.220932 5.1941223 11.220932 6.1644287 11.220932 6.9144287 11.220932 6.9989624 11.220932 7.476593 11.970871 7.476593 11.970871 6.9989624 11.970871 6.9144287 11.970871 6.1644287 11.970871 5.1941223 11.970871 4.4441223 11.970871 4.3609009" fill="#7a7a7a"/>
    <polyline points="7.3426666 4.3609009 6.5927277 4.3609009 6.5927277 4.4441223 6.5927277 5.1941223 6.5927277 6.1644287 6.5927277 6.9144287 6.5927277 6.9989624 6.5927277 7.476593 7.3426666 7.476593 7.3426666 6.9989624 7.3426666 6.9144287 7.3426666 6.1644287 7.3426666 5.1941223 7.3426666 4.4441223 7.3426666 4.3609009" fill="#7a7a7a"/>
    <polyline points="3.4134827 4.3609009 2.6634827 4.3609009 2.6634827 6.1644287 2.6634827 6.9144287 2.6634827 7.476593 3.4134827 7.476593 3.4134827 6.9989624 3.4134827 6.9144287 3.4134827 6.1644287 3.4134827 5.1941223 3.4134827 4.4441223 3.4134827 4.3609009" fill="#ccc"/>
    <polyline points="16.1936188 3.7244263 2.432373 3.7244263 2.432373 4.3609009 2.6634827 4.3609009 3.4134827 4.3609009 6.5927277 4.3609009 7.3426666 4.3609009 11.220932 4.3609009 11.970871 4.3609009 16.1936188 4.3609009 16.1936188 3.7244263" fill="#ccc"/>
    <rect x="6.185791" y="3.7243958" width="6.2557068" height="11.2601929" fill="#fff" opacity=".4"/>
  </g>
  <g>
    <rect x="11.1903947" y="3.7244" width="1.2511" height="1.2511" fill="#c42e00"/>
    <rect x="11.1903947" y="6.2266" width="1.2511" height="1.2512" fill="#c42e00"/>
    <rect x="11.1903947" y="8.7289" width="1.2511" height="1.2511" fill="#c42e00"/>
    <rect x="11.1903947" y="11.2312" width="1.2511" height="1.2511" fill="#c42e00"/>
    <rect x="11.1903947" y="13.7335" width="1.2511" height="1.2511" fill="#c42e00"/>
    <rect x="8.6880947" y="13.7335" width="1.2511" height="1.2511" fill="#c42e00"/>
    <rect x="6.1857948" y="8.7289" width="1.2511" height="1.2511" fill="#c42e00"/>
    <rect x="6.1857948" y="11.2312" width="1.2511" height="1.2511" fill="#c42e00"/>
    <rect x="6.1857948" y="13.7335" width="1.2511" height="1.2511" fill="#c42e00"/>
    <rect x="6.1857948" y="6.2266" width="1.2511" height="1.2512" fill="#c42e00"/>
    <rect x="6.1857948" y="3.7244" width="1.2511" height="1.2511" fill="#c42e00"/>
    <rect x="8.6880947" y="3.7244" width="1.2511" height="1.2511" fill="#c42e00"/>
  </g>
</svg>