<?xml version='1.0' encoding='UTF-8'?>
<svg xmlns="http://www.w3.org/2000/svg" xmlns:xlink="http://www.w3.org/1999/xlink" id="Set_5" data-name="Set 5" width="20" height="20" viewBox="0 0 20 20">
  <defs>
    <mask id="mask" x=".3694646" y="4.9936" width="19.9624336" height="14.7616586" maskUnits="userSpaceOnUse">
      <rect x="2.25789" y="4.9936" width="14.74541" height="11.0623" fill="#fff"/>
    </mask>
    <linearGradient id="linear-gradient" x1="10.5663911" y1="7.0934933" x2="7.8011213" y2="17.2328287" gradientUnits="userSpaceOnUse">
      <stop offset="0" stop-color="#f3d9b2"/>
      <stop offset="1" stop-color="#6b3200"/>
    </linearGradient>
    <linearGradient id="linear-gradient-2" x1="12.8886356" y1="6.245839" x2="14.1700317" y2="11.166004" gradientUnits="userSpaceOnUse">
      <stop offset="0" stop-color="#c1a35f"/>
      <stop offset="1" stop-color="#6b3200"/>
    </linearGradient>
    <linearGradient id="linear-gradient-3" x1="-13.0063114" y1="10.0020194" x2="-9.8154686" y2="22.2538697" gradientTransform="translate(18.9183) skewX(7.716581)" gradientUnits="userSpaceOnUse">
      <stop offset="0" stop-color="#fff"/>
      <stop offset="1" stop-color="#a9c3dc"/>
    </linearGradient>
    <radialGradient id="radial-gradient" cx="14.6476217" cy="7.2463783" fx="14.6476217" fy="7.2463783" r="12.4566079" gradientTransform="translate(-.9546 .113) scale(1.04 1.0203)" gradientUnits="userSpaceOnUse">
      <stop offset=".134831" stop-color="#e2be89"/>
      <stop offset=".882022" stop-color="#6b3200"/>
    </radialGradient>
    <linearGradient id="linear-gradient-4" x1="2.4982922" y1="16.8937415" x2="7.0423008" y2="13.0808656" gradientUnits="userSpaceOnUse">
      <stop offset="0" stop-color="#d68112"/>
      <stop offset=".117981" stop-color="#ebb310"/>
      <stop offset=".516861" stop-color="#fff"/>
      <stop offset=".882019" stop-color="#ebb310"/>
      <stop offset="1" stop-color="#c96b0a"/>
    </linearGradient>
    <linearGradient id="linear-gradient-5" x1="1.0001401" y1="15.0020527" x2="8.5073414" y2="15.0020527" gradientUnits="userSpaceOnUse">
      <stop offset="0" stop-color="#2b76b4"/>
      <stop offset=".117981" stop-color="#b2d6e8"/>
      <stop offset=".516861" stop-color="#fff"/>
      <stop offset=".882019" stop-color="#b2d6e8"/>
      <stop offset="1" stop-color="#2b76b4"/>
    </linearGradient>
    <mask id="mask-1" x="1.4607743" y="11.6970626" width="6.5864129" height="6.60879" maskUnits="userSpaceOnUse">
      <path d="M4.71061,11.8516c1.79612-.0305,3.28973,1.3856,3.33552,3.167.04529,1.7839-1.37024,3.2549-3.16562,3.2866-1.79613.0355-3.29097-1.3817-3.33801-3.1633-.04467-1.7826,1.37086-3.2536,3.16811-3.2903Z" fill="#fff"/>
    </mask>
    <radialGradient id="New_Gradient_292" data-name="New Gradient 292" cx="16.2238316" cy="8.9041722" fx="16.2238316" fy="8.9041722" r="6.3399707" gradientTransform="translate(-6.3321 9.7054) scale(.8033)" gradientUnits="userSpaceOnUse">
      <stop offset="0" stop-color="#e5e5e5"/>
      <stop offset=".280899" stop-color="#e5e5e5"/>
      <stop offset="1" stop-color="#999"/>
    </radialGradient>
    <radialGradient id="New_Gradient_293" data-name="New Gradient 293" cx="-177.7092281" cy="142.1579889" fx="-177.7092281" fy="142.1579889" r="7.5294132" gradientTransform="translate(109.4183 -44.2329) rotate(12.3499559) scale(.6115516 .5721741) skewX(12.9869962)" gradientUnits="userSpaceOnUse">
      <stop offset="0" stop-color="#fff"/>
      <stop offset=".48877" stop-color="#f2f2f2"/>
      <stop offset="1" stop-color="#ccc"/>
    </radialGradient>
    <linearGradient id="linear-gradient-6" x1="2.5576614" y1="12.8052121" x2="7.9320314" y2="18.1795821" gradientUnits="userSpaceOnUse"><stop offset="0" stop-color="#2b76b4"/><stop offset=".117981" stop-color="#b2d6e8"/><stop offset=".516861" stop-color="#fff"/><stop offset=".882019" stop-color="#b2d6e8"/><stop offset="1" stop-color="#2b76b4"/></linearGradient>
  </defs>
  <g>
    <rect x="2.25789" y="4.9936" width="14.74541" height="11.0623" fill="none" stroke="#000" stroke-linecap="round" stroke-linejoin="round" stroke-width="2"/>
    <g mask="url(#mask)">
      <g>
        <rect x="2.25789" y="4.9936" width="14.74541" height="11.0623" fill="url(#linear-gradient)"/>
        <g>
          <path d="M15.3007,8.5393c0,.9824-.8125,1.7801-1.815,1.7801-1.0019,0-1.8144-.7977-1.8144-1.7801,0-.981.8125-1.7802,1.8144-1.7802,1.0025,0,1.815.7992,1.815,1.7802Z" fill="#c40000" stroke="#6b3200" stroke-width=".75"/>
          <path d="M15.3007,8.5393c0,.9824-.8125,1.7801-1.815,1.7801-1.0019,0-1.8144-.7977-1.8144-1.7801,0-.981.8125-1.7802,1.8144-1.7802,1.0025,0,1.815.7992,1.815,1.7802Z" fill="url(#linear-gradient-2)"/>
        </g>
        <g>
          <path d="M4.78268,13.2006c.95248-.0087,1.41302-.672,1.86081-1.0398.49306-.4057,1.68365-.4851,1.95001-.9505,1.5377,1.3512,3.9496,1.5076,5.0828,2.9273.7801.2383.8229-.4557,1.3178-.4875.4617-.0317.8741.3935,1.3378.6684.4893.2896,1.0714.4679,1.5388.9945.65.7306.8346,1.9537,1.0587,2.6171-1.2682-.0244-2.2059.848-3.8554.8247-.7428-.011-1.7477-.2797-2.6256-.3322-.7851-.0478-1.473.1466-2.3074.1515-.80646-.1038-1.65372-.2041-2.54565-.3044-1.45094-.1612-3.00385-.2687-4.67524-.3164-.70201-.1745-.74417-.0977-1.32382-.3604.35795-1.1045-.873666-5.0277,1.658-4.5451" fill="url(#linear-gradient-3)" stroke="#6f4b0a" stroke-width="2"/>
          <path d="M4.78268,13.2006c.95248-.0087,1.41302-.672,1.86081-1.0398.49306-.4057,1.68365-.4851,1.95001-.9505,1.5377,1.3512,3.9496,1.5076,5.0828,2.9273.7801.2383.8229-.4557,1.3178-.4875.4617-.0317.8741.3935,1.3378.6684.4893.2896,1.0714.4679,1.5388.9945.65.7306.8346,1.9537,1.0587,2.6171-1.2682-.0244-2.2059.848-3.8554.8247-.7428-.011-1.7477-.2797-2.6256-.3322-.7851-.0478-1.473.1466-2.3074.1515-.80646-.1038-1.65372-.2041-2.54565-.3044-1.45094-.1612-3.00385-.2687-4.67524-.3164-.70201-.1745-.74417-.0977-1.32382-.3604.35795-1.1045-.873666-5.0277,1.658-4.5451" fill="url(#radial-gradient)"/>
        </g>
      </g>
    </g>
  </g>
  <g>
    <path d="M4.61164,11.2493h0c-1.01892.0196-1.95977.4411-2.64276,1.1852-.64759.7061-.9909,1.6237-.96763,2.589.05743,2.0954,1.80463,3.7705,3.89565,3.7313,1.01968-.0194,1.9574-.4422,2.64227-1.1875.64871-.705.99089-1.625.967-2.5878-.05618-2.0979-1.80276-3.7692-3.89453-3.7302ZM2.19558,15.0309c0-.6282.23396-1.2267.66461-1.6959.48568-.5291,1.14916-.8261,1.87244-.8407,1.41003-.0256,2.54255,1.0337,2.57746,2.412.01764.6536-.2182,1.2791-.6641,1.7642-.48382.5279-1.14729.826-1.87183.8381-1.40877.0269-2.54079-1.0336-2.57795-2.4106-.00063-.0232-.00063-.0476-.00063-.0671Z" fill="url(#linear-gradient-4)" fill-rule="evenodd" stroke="#000" stroke-miterlimit="3.8637" stroke-width="2"/>
    <path d="M4.61164,11.2493h0c-1.01892.0196-1.95977.4411-2.64276,1.1852-.64759.7061-.9909,1.6237-.96763,2.589.05743,2.0954,1.80463,3.7705,3.89565,3.7313,1.01968-.0194,1.9574-.4422,2.64227-1.1875.64871-.705.99089-1.625.967-2.5878-.05618-2.0979-1.80276-3.7692-3.89453-3.7302ZM2.19558,15.0309c0-.6282.23396-1.2267.66461-1.6959.48568-.5291,1.14916-.8261,1.87244-.8407,1.41003-.0256,2.54255,1.0337,2.57746,2.412.01764.6536-.2182,1.2791-.6641,1.7642-.48382.5279-1.14729.826-1.87183.8381-1.40877.0269-2.54079-1.0336-2.57795-2.4106-.00063-.0232-.00063-.0476-.00063-.0671Z" fill="url(#linear-gradient-5)" fill-rule="evenodd"/>
    <g mask="url(#mask-1)">
      <g>
        <path d="M4.71061,11.8516c1.79612-.0305,3.28973,1.3856,3.33552,3.167.04529,1.7839-1.37024,3.2549-3.16562,3.2866-1.79613.0355-3.29097-1.3817-3.33801-3.1633-.04467-1.7826,1.37086-3.2536,3.16811-3.2903Z" fill="url(#New_Gradient_292)"/>
        <path d="M4.47052,11.6977c1.70504-.0342,3.12546,1.3122,3.16875,3.0056.04403,1.6936-1.30369,3.0911-3.0086,3.123-1.70693.033-3.12359-1.3134-3.16888-3.0044-.04329-1.6958,1.30256-3.0936,3.00873-3.1242Z" fill="url(#New_Gradient_293)"/>
      </g>
    </g>
    <path d="M4.61903,11.7393c1.80701-.0342,3.36905,1.4172,3.41735,3.2549.04641,1.7814-1.366,3.2378-3.14924,3.2719-1.80888.0319-3.3648-1.4221-3.41433-3.2549-.04643-1.7837,1.3636-3.2402,3.14622-3.2719ZM4.72287,12.0057c-1.69954.0317-3.03988,1.4319-2.99709,3.1057.04392,1.6201,1.38062,2.9202,3.0569,2.8872,1.70266-.0318,3.04237-1.4319,2.99834-3.1046-.04279-1.6226-1.38125-2.9202-3.05815-2.8883Z" fill="url(#linear-gradient-6)" fill-rule="evenodd"/>
    <g>
      <polygon points="5.89581 13.3154 6.0791 13.3093 6.06258 12.6287 5.90006 12.6312 5.67223 12.7888 5.75593 12.9073 5.88417 12.8107 5.89581 13.3154" fill="#b2b2b2" fill-rule="evenodd"/>
      <path d="M6.57016,14.0998l.49609-.0111-.00426-.1294-.27124.0061.04891-.0416c.06418-.0586.20406-.1955.20031-.3273-.00301-.1357-.11486-.198-.26875-.198-.04091.0036-.10447.0097-.20217.0464l.00975.1405c.04391-.0257.12212-.0464.18079-.0476.05442-.0025.09771.0219.09834.0806.00188.0916-.15326.2273-.29139.3495l.00362.1319Z" fill="#b2b2b2" fill-rule="evenodd"/>
      <path d="M6.93062,14.784c.03979-.0159.09659-.0292.15952-.0292.0543,0,.11786.0109.11974.0768,0,.055-.0672.077-.11061.077-.02565.0037-.04642.0037-.07882.0025l.00313.1185c.0219-.0012.04642-.0025.07569-.0036.04517-.0012.1265.006.12824.0756.00188.0709-.08182.0893-.13675.0893-.06481.0012-.12648-.0036-.17115-.0282l-.00488.1442c.05143.0135.12524.0183.20168.0171.13438-.0024.29928-.0488.2944-.2162-.00364-.0843-.05744-.1356-.14051-.1503l-.00125-.0037c.07707-.0219.12411-.0745.12223-.1515-.00362-.149-.14537-.1845-.27374-.1808-.07632.0012-.13737.011-.20031.0318l.01339.1307Z" fill="#b2b2b2" fill-rule="evenodd"/>
      <path d="M6.85617,16.5189l.16978-.0048-.00362-.1295.09896-.0025-.00375-.1247-.09896.0049-.01089-.43-.20168.0024-.26512.4156.00363.1453.30728-.0086.00437.1319ZM6.85981,16.2648l-.18943.0013.17967-.2884h.00175l.00801.2871Z" fill="#b2b2b2" fill-rule="evenodd"/>
      <path d="M5.78646,17.0614c.04879-.0134.09897-.0207.14838-.0207.07332,0,.15276.0232.15702.0966.00187.0867-.06956.1111-.13737.1124-.05744,0-.11549-.0098-.16741-.0343l-.00062.149c.0568.0098.11723.0196.18629.0196.15214-.0037.2994-.0647.29452-.2566-.00376-.1503-.12711-.2101-.26762-.2052-.01226,0-.02927.0013-.05554.0049l-.00314-.1149.29327-.0049-.00488-.1234-.44841.011.00551.3665Z" fill="#b2b2b2" fill-rule="evenodd"/>
      <path d="M5.00262,17.1006c-.05192-.0196-.10872-.0294-.18016-.0281-.22671.0036-.29939.1808-.29139.3897.00301.171.0757.3189.27187.3153.15201,0,.25411-.1076.25161-.2322-.00301-.1247-.08371-.2163-.21257-.2126-.06906.0012-.1161.0269-.14726.0708h-.00125c-.00113-.1185.03241-.199.15589-.2003.06894-.0036.11723.0122.14651.0305l.00675-.1331ZM4.70635,17.5599c-.00187-.0524.0269-.1001.08621-.1013.06469,0,.09159.0489.09221.1038.00062.0513-.02815.1002-.08683.1002-.05918,0-.09096-.0501-.09159-.1027Z" fill="#b2b2b2" fill-rule="evenodd"/>
      <polygon points="3.43996 17.4378 3.63914 17.4353 3.8706 16.894 3.8676 16.7474 3.37152 16.756 3.37515 16.8843 3.68193 16.8807 3.43996 17.4378" fill="#b2b2b2" fill-rule="evenodd"/>
      <path d="M2.47721,16.0546c.00113.0672.05617.1236.12086.1419v.0024-.0012c-.07382.0231-.13312.0708-.13062.1697.003.1393.124.1931.27.1895.14538-.0013.26999-.0623.26511-.2089-.0025-.1002-.06718-.1442-.14175-.1638l-.00062-.0012c.0593-.0257.11185-.0746.10997-.1576-.00488-.121-.10572-.1759-.24072-.1748-.13562.0025-.25711.0574-.25223.204ZM2.82603,16.3443c.00238.0562-.03979.0892-.09233.0892-.04817.0024-.08859-.033-.08908-.0832-.00125-.0513.03165-.0806.07631-.1.04704.0096.10323.0328.1051.094ZM2.64337,16.0546c-.00251-.0487.0329-.0805.07819-.0854.03841,0,.0812.0219.08244.0733.00188.0465-.02627.0683-.07456.0978-.04391-.0196-.08482-.0368-.08607-.0857Z" fill="#b2b2b2" fill-rule="evenodd"/>
      <path d="M2.14967,15.4157c.05254.022.10697.0293.17715.0281.22858-.0037.2994-.1784.29452-.3862-.00613-.171-.07569-.3225-.2725-.32-.15263.0024-.25535.11-.25285.2359.00488.1245.08608.2138.21132.21.07031-.0011.1161-.0244.14788-.0684l.00238-.0012c.00187.1185-.03416.1967-.15514.2003-.06844,0-.11723-.0121-.14476-.0328l-.008.1343ZM2.44418,14.9575c.00251.0537-.02627.1014-.0867.1026-.06231.0013-.08808-.0489-.09046-.1063,0-.0501.02928-.0965.08433-.0965.05981,0,.0922.0477.09283.1002Z" fill="#b2b2b2" fill-rule="evenodd"/>
      <g>
        <polygon points="2.35498 14.3489 2.54064 14.3442 2.52238 13.6623 2.36111 13.6672 2.13015 13.8224 2.2151 13.9434 2.34271 13.848 2.35498 14.3489" fill="#b2b2b2" fill-rule="evenodd"/>
        <path d="M2.90298,14.3515c.22657-.0049.26085-.182.25722-.3592-.00613-.1748-.04892-.3519-.27612-.3482-.22733.0049-.26211.182-.2566.3592.0055.1759.04766.3505.2755.3482ZM2.89934,14.2282c-.08257.0011-.09295-.1223-.09595-.231-.00188-.1064.00249-.2274.0837-.2298.08307-.0012.09345.1185.09708.2273.0025.1099-.00237.2335-.08483.2335Z" fill="#b2b2b2" fill-rule="evenodd"/>
      </g>
      <g>
        <polygon points="3.20475 13.3544 3.39042 13.3544 3.37152 12.674 3.209 12.6751 2.97929 12.8278 3.06487 12.9514 3.19311 12.8573 3.20475 13.3544" fill="#b2b2b2" fill-rule="evenodd"/>
        <polygon points="3.67942 13.3472 3.86334 13.3434 3.84433 12.6617 3.68368 12.6666 3.4546 12.8193 3.53893 12.9415 3.66716 12.8487 3.67942 13.3472" fill="#b2b2b2" fill-rule="evenodd"/>
      </g>
      <g>
        <polygon points="4.44737 12.9255 4.62753 12.9219 4.6129 12.2414 4.45162 12.2438 4.22192 12.399 4.30862 12.52 4.43386 12.4259 4.44737 12.9255" fill="#b2b2b2" fill-rule="evenodd"/>
        <path d="M4.70273,12.9195l.49657-.0073-.00362-.1308-.27125.0074.04955-.0427c.06406-.0575.20342-.1957.19967-.3275-.00362-.1369-.11485-.1967-.26874-.193-.04029,0-.10697.0048-.20344.0415l.01039.1418c.04153-.0245.12098-.049.18079-.0502.05505-.0013.09784.0233.10021.0843.00188.0929-.15701.2261-.29326.347l.00313.1295Z" fill="#b2b2b2" fill-rule="evenodd"/>
      </g>
    </g>
    <g>
      <path d="M4.52494,15.3388c.00914.3664.62307.3444.61331-.0551-.00425-.1991-.18692-1.9671-.18692-1.9671l-.267-.0061-.15939,2.0283Z" fill="#b2b2b2" fill-rule="evenodd"/>
      <path d="M4.57811,15.0455c-.27988.0635-.18266.672.12575.5987.15464-.033,1.92924-.4154,1.92924-.4154l-.00788-.2297-2.04711.0464Z" fill="#b2b2b2" fill-rule="evenodd"/>
      <path d="M4.38569,15.2091c.00851.3642.62181.3435.61205-.0536-.00488-.2005-.18691-1.9672-.18691-1.9672l-.26512-.0062-.16002,2.027Z" fill="#a70000" fill-rule="evenodd"/>
      <path d="M4.55847,14.8733c-.281.0646-.18266.6694.12586.5998.15277-.0342,1.92988-.4191,1.92988-.4191l-.00676-.226-2.04898.0453Z" fill="red" fill-rule="evenodd"/>
    </g>
  </g>
</svg>