<?xml version='1.0' encoding='UTF-8'?>
<svg xmlns="http://www.w3.org/2000/svg" xmlns:xlink="http://www.w3.org/1999/xlink" id="Set_1" data-name="Set 1" width="20" height="20" viewBox="0 0 20 20">
  <defs>
    <mask id="mask" x=".0544" y="2.79316" width="10.8673" height="12.71344" maskUnits="userSpaceOnUse">
      <path d="M7.3485,14.506l-6.2935.0006-.0006-10.71281,8.8673-.00063-.0049,8.33574c0,1.1315-1.3739,2.3771-2.5683,2.3771Z" fill="#fff" fill-rule="evenodd" stroke="#fff" stroke-linecap="round" stroke-linejoin="round" stroke-width="2"/>
    </mask>
    <linearGradient id="New_Gradient_27" data-name="New Gradient 27" x1="2.5259528" y1="3.0760657" x2="8.4339739" y2="15.1893039" gradientUnits="userSpaceOnUse">
      <stop offset="0" stop-color="#e5e5e5"/>
      <stop offset="1" stop-color="#fff"/>
    </linearGradient>
    <radialGradient id="New_Gradient_28" data-name="New Gradient 28" cx="-30.8846117" cy="19.8588098" fx="-30.8846117" fy="19.8588098" r="2.8456938" gradientTransform="translate(39.5929 -7.6322045) scale(1.0573 .9767)" gradientUnits="userSpaceOnUse">
      <stop offset="0" stop-color="#fff"/>
      <stop offset="1" stop-color="#ccc"/>
    </radialGradient>
    <mask id="mask-1" x="1.0544" y="3.79316" width="8.8807" height="10.75314" maskUnits="userSpaceOnUse">
      <path d="M7.3485,14.506l-6.2935.0006-.0006-10.71281,8.8673-.00063-.0049,8.33574c0,1.1315-1.3739,2.3771-2.5683,2.3771Z" fill="#fff" fill-rule="evenodd"/>
    </mask>
    <linearGradient id="New_Gradient_25" data-name="New Gradient 25" x1="2.5259528" y1="3.0760657" x2="8.4339739" y2="15.1893039" gradientUnits="userSpaceOnUse">
      <stop offset="0" stop-color="#e5e5e5"/>
      <stop offset=".286514" stop-color="#f2f2f2"/>
      <stop offset=".646072" stop-color="#fff"/>
      <stop offset="1" stop-color="#fff"/>
    </linearGradient>
    <radialGradient id="New_Gradient_26" data-name="New Gradient 26" cx="-30.8846117" cy="19.8588098" fx="-30.8846117" fy="19.8588098" r="2.8456938" gradientTransform="translate(39.5929 -7.6322045) scale(1.0573 .9767)" gradientUnits="userSpaceOnUse">
      <stop offset="0" stop-color="#e5e5e5"/>
      <stop offset=".331467" stop-color="#e5e5e5"/>
      <stop offset="1" stop-color="#999"/>
    </radialGradient>
    <radialGradient id="radial-gradient" cx="29.1396309" cy="208.7111339" fx="29.1396309" fy="208.7111339" r="4.2370702" gradientTransform="translate(-168.9217 -124.4123) rotate(-45) scale(1.0755094)" gradientUnits="userSpaceOnUse">
      <stop offset="0" stop-color="#ffe900"/>
      <stop offset="1" stop-color="#c40000"/>
    </radialGradient>
    <radialGradient id="radial-gradient-2" cx="10.7557" cy="15.5583" fx="10.7557" fy="15.5583" r="2.81353" gradientTransform="matrix(1,0,0,1,0,0)" gradientUnits="userSpaceOnUse"><stop offset="0" stop-color="#ffe900"/><stop offset="1" stop-color="#c40000"/></radialGradient>
    <radialGradient id="radial-gradient-3" cx="29.1478353" cy="208.7088292" fx="29.1478353" fy="208.7088292" r="4.2509954" gradientTransform="translate(-168.9217 -124.4123) rotate(-45) scale(1.0755094)" gradientUnits="userSpaceOnUse"><stop offset="0" stop-color="#ffe900"/><stop offset="1" stop-color="#c40000"/></radialGradient>
    <linearGradient id="linear-gradient" x1="17.7839286" y1="216.724373" x2="25.1740348" y2="219.4019468" gradientTransform="translate(-160.1952 -129.6867) rotate(-45)" gradientUnits="userSpaceOnUse">
      <stop offset="0" stop-color="#fff"/>
      <stop offset="1" stop-color="#999"/>
    </linearGradient>
    <radialGradient id="radial-gradient-4" cx="15.2013" cy="11.1152" fx="15.2013" fy="11.1152" r="2.8139" gradientTransform="matrix(1,0,0,1,0,0)" gradientUnits="userSpaceOnUse"><stop offset="0" stop-color="#ffe900"/><stop offset="1" stop-color="#c40000"/></radialGradient>
    <linearGradient id="linear-gradient-2" x1="23.4405083" y1="217.740149" x2="26.7584102" y2="219.5596439" gradientTransform="translate(-160.1952 -129.6867) rotate(-45)" gradientUnits="userSpaceOnUse"><stop offset="0" stop-color="#fff"/><stop offset="1" stop-color="#999"/></linearGradient>
  </defs>
  <g>
    <g>
      <g mask="url(#mask)">
        <g>
          <path d="M7.3485,14.506l-6.2935.0006-.0006-10.71281,8.8673-.00063-.0049,8.33574c0,1.1315-1.3739,2.3771-2.5683,2.3771Z" fill="url(#New_Gradient_27)" fill-rule="evenodd"/>
          <path d="M6.9386,14.5463s1.4698-.0537,1.4698-1.5602c1.5133,0,1.5267-1.2194,1.5267-1.2194l-.0011,2.7796h-2.9954Z" fill="url(#New_Gradient_28)" fill-rule="evenodd"/>
          <path d="M7.3485,14.506l-6.2935.0006-.0006-10.71281,8.8673-.00063-.0049,8.33574c0,1.1315-1.3739,2.3771-2.5683,2.3771Z" fill="none" fill-rule="evenodd" stroke="#000" stroke-linecap="round" stroke-linejoin="round" stroke-width="2"/>
        </g>
      </g>
      <g mask="url(#mask-1)">
        <g>
          <path d="M7.3485,14.506l-6.2935.0006-.0006-10.71281,8.8673-.00063-.0049,8.33574c0,1.1315-1.3739,2.3771-2.5683,2.3771Z" fill="url(#New_Gradient_25)" fill-rule="evenodd"/>
          <path d="M6.9386,14.5463s1.0221-.3811,1.0221-1.8878c1.5138,0,1.9744-.8918,1.9744-.8918l-.0011,2.7796h-2.9954Z" fill="url(#New_Gradient_26)" fill-rule="evenodd"/>
        </g>
      </g>
    </g>
    <line x1="2.4626" y1="7.11655" x2="4.3856" y2="7.11655" fill="none" stroke="#999" stroke-linecap="round" stroke-miterlimit="3.8637" stroke-width=".7125"/>
    <line x1="6.9019" y1="5.63683" x2="8.8244" y2="5.63683" fill="none" stroke="#999" stroke-linecap="round" stroke-miterlimit="3.8637" stroke-width=".7125"/>
    <line x1="5.4937" y1="7.11655" x2="8.8244" y2="7.11655" fill="none" stroke="#999" stroke-linecap="round" stroke-miterlimit="3.8637" stroke-width=".7125"/>
    <line x1="2.3807" y1="11.5572" x2="7.1598" y2="11.5572" fill="none" stroke="#999" stroke-linecap="round" stroke-miterlimit="3.8637" stroke-width=".7125"/>
    <line x1="2.4626" y1="8.59739" x2="4.0154" y2="8.59739" fill="none" stroke="#999" stroke-linecap="round" stroke-miterlimit="3.8637" stroke-width=".7125"/>
    <line x1="4.9288" y1="8.59739" x2="6.4817" y2="8.59739" fill="none" stroke="#999" stroke-linecap="round" stroke-miterlimit="3.8637" stroke-width=".7125"/>
    <line x1="7.0981" y1="8.59739" x2="8.8244" y2="8.59739" fill="none" stroke="#999" stroke-linecap="round" stroke-miterlimit="3.8637" stroke-width=".7125"/>
    <line x1="2.4626" y1="5.63683" x2="5.4937" y2="5.63683" fill="none" stroke="#999" stroke-linecap="round" stroke-miterlimit="3.8637" stroke-width=".7125"/>
    <line x1="2.4626" y1="10.0776" x2="5.0015" y2="10.0776" fill="none" stroke="#999" stroke-linecap="round" stroke-miterlimit="3.8637" stroke-width=".7125"/>
    <line x1="5.7107" y1="10.0776" x2="8.9479" y2="10.0776" fill="none" stroke="#999" stroke-linecap="round" stroke-miterlimit="3.8637" stroke-width=".7125"/>
  </g>
  <g>
    <g>
      <g>
        <path d="M14.1357,15.5157c-.3715-1.2125-1.6549-1.8949-2.8682-1.5234-1.2121.3702-1.8957,1.6536-1.5243,2.8663.3702,1.2126,1.6544,1.8956,2.8664,1.5241,1.214-.3696,1.8957-1.6542,1.5261-2.867ZM12.3292,17.4641c-.7043.2155-1.4515-.181-1.6665-.8859-.2163-.7056.1801-1.4509.8858-1.6673.705-.2155,1.452.1816,1.6666.8854.2168.7068-.1809,1.4514-.8859,1.6678Z"/>
        <path d="M14.1357,15.5157c-.3715-1.2125-1.6549-1.8949-2.8682-1.5234-1.2121.3702-1.8957,1.6536-1.5243,2.8663.3702,1.2126,1.6544,1.8956,2.8664,1.5241,1.214-.3696,1.8957-1.6542,1.5261-2.867ZM12.3292,17.4641c-.7043.2155-1.4515-.181-1.6665-.8859-.2163-.7056.1801-1.4509.8858-1.6673.705-.2155,1.452.1816,1.6666.8854.2168.7068-.1809,1.4514-.8859,1.6678Z" fill="none" stroke="#000" stroke-width="2"/>
      </g>
      <g>
        <path d="M17.0942,9.56012c-1.2053-.3916-2.5015.26813-2.8932,1.47598-.3928,1.2058.2694,2.4997,1.4741,2.8926,1.2059.3929,2.5017-.2676,2.8933-1.4747.3922-1.206-.2682-2.501-1.4742-2.89388ZM17.6552,12.157c-.2293.7013-.9812,1.0844-1.6836.8572-.7008-.2279-1.0833-.9812-.856-1.6819.2272-.7025.981-1.0849,1.6818-.8578.7014.2292,1.0849.9812.8578,1.6825Z"/>
        <path d="M17.0942,9.56012c-1.2053-.3916-2.5015.26813-2.8932,1.47598-.3928,1.2058.2694,2.4997,1.4741,2.8926,1.2059.3929,2.5017-.2676,2.8933-1.4747.3922-1.206-.2682-2.501-1.4742-2.89388ZM17.6552,12.157c-.2293.7013-.9812,1.0844-1.6836.8572-.7008-.2279-1.0833-.9812-.856-1.6819.2272-.7025.981-1.0849,1.6818-.8578.7014.2292,1.0849.9812.8578,1.6825Z" fill="none" stroke="#000" stroke-width="2"/>
      </g>
    </g>
    <path d="M12.2553,7.11343c-.4447-1.45632-1.1717-4.07233-3.7619-4.20482.7703,2.54994,1.5487,5.09737,2.3325,7.64369-2.5506-.83452-5.1024-1.6629-7.6573-2.48526.0882,2.59146,2.6898,3.36666,4.1378,3.83716.8204.2656,2.003.6719,3.1626.5998-.0122.267.0184.5389.1015.8083.1503.4918.4459.9017.8252,1.1985l1.5102-.4605c-.6231-.2384-1.1393-.7185-1.3983-1.3636.3353-.2547.5913-.5382.7868-.8381.2096-.1638.4099-.3599.5981-.5969.6402.2701,1.1106.7955,1.3379,1.4216l.4868-1.5005c-.2888-.3854-.6921-.6879-1.1845-.8466-.2406-.0782-.4851-.1136-.7263-.1155.0714-1.13438-.303-2.28842-.5511-3.09727Z" stroke="#000" stroke-width="2"/>
    <g>
      <path d="M11.7232,10.4582c-.3756.5871-.504,1.3213-.2871,2.0299.2266.7453.785,1.3001,1.4698,1.5622l-1.5102.4605c-.3793-.2968-.6749-.7067-.8252-1.1985-.3403-1.1136.1655-2.286,1.1527-2.8541Z" fill="url(#radial-gradient)"/>
      <path d="M14.1357,15.5157c-.3715-1.2125-1.6549-1.8949-2.8682-1.5234-1.2121.3702-1.8957,1.6536-1.5243,2.8663.3702,1.2126,1.6544,1.8956,2.8664,1.5241,1.214-.3696,1.8957-1.6542,1.5261-2.867ZM12.3292,17.4641c-.7043.2155-1.4515-.181-1.6665-.8859-.2163-.7056.1801-1.4509.8858-1.6673.705-.2155,1.452.1816,1.6666.8854.2168.7068-.1809,1.4514-.8859,1.6678Z" fill="url(#radial-gradient-2)"/>
      <g>
        <path d="M10.6602,11.4283c.5933-.366,1.33-.4807,2.0343-.2517.7417.2407,1.2866.8082,1.5359,1.4967l.4868-1.5005c-.2888-.3854-.6921-.6879-1.1845-.8466-1.1058-.35919-2.2872.1259-2.8725,1.1021Z" fill="url(#radial-gradient-3)"/>
        <path d="M3.1686,8.06704c.0882,2.59146,2.6898,3.36666,4.1378,3.83716,1.4466.4698,4.0087,1.374,5.6007-.6721-3.2426-1.0666-6.4884-2.121-9.7385-3.16506Z" fill="url(#linear-gradient)"/>
        <path d="M17.0942,9.56012c-1.2053-.3916-2.5015.26813-2.8932,1.47598-.3928,1.2058.2694,2.4997,1.4741,2.8926,1.2059.3929,2.5017-.2676,2.8933-1.4747.3922-1.206-.2682-2.501-1.4742-2.89388ZM17.6552,12.157c-.2293.7013-.9812,1.0844-1.6836.8572-.7008-.2279-1.0833-.9812-.856-1.6819.2272-.7025.981-1.0849,1.6818-.8578.7014.2292,1.0849.9812.8578,1.6825Z" fill="url(#radial-gradient-4)"/>
      </g>
      <path d="M8.4934,2.90861c2.5902.13249,3.3172,2.7485,3.7619,4.20482.4453,1.45456,1.3061,4.03137-.7679,5.58917-1.0086-3.2622-2.0062-6.52566-2.994-9.79399Z" fill="url(#linear-gradient-2)"/>
    </g>
  </g>
</svg>