<?xml version="1.0" encoding="UTF-8"?>
<svg id="Icons_-_24x24" data-name="Icons - 24x24" xmlns="http://www.w3.org/2000/svg" width="20" height="20" xmlns:xlink="http://www.w3.org/1999/xlink" viewBox="0 0 20 20">
  <defs>
    <mask id="mask" x="2.2563" y="2" width="15.2691" height="16.9434" maskUnits="userSpaceOnUse">
      <path d="M12.6758,17.9429l-9.4175.0005-.002-14.9434,13.2691.001-.0059,11.6162c0,1.584-2.0556,3.3257-3.8437,3.3257Z" fill="#fff" fill-rule="evenodd" stroke="#fff" stroke-linecap="round" stroke-linejoin="round" stroke-width="2"/>
    </mask>
    <linearGradient id="New_Gradient_399" data-name="New Gradient 399" x1="5.6726143" y1="1.8214848" x2="14.0663345" y2="19.0311617" gradientUnits="userSpaceOnUse">
      <stop offset="0" stop-color="#e5e5e5"/>
      <stop offset="1" stop-color="#fff"/>
    </linearGradient>
    <radialGradient id="New_Gradient_400" data-name="New Gradient 400" cx="-42.7998604" cy="12.0635605" fx="-42.7998604" fy="12.0635605" r="5.23784" gradientTransform="translate(48.8447 5.1524) scale(.8594 .7426)" gradientUnits="userSpaceOnUse">
      <stop offset="0" stop-color="#fff"/>
      <stop offset="1" stop-color="#ccc"/>
    </radialGradient>
    <mask id="mask-1" x="3.2563" y="3" width="13.2901" height="15" maskUnits="userSpaceOnUse">
      <path d="M12.6758,17.9429l-9.4175.0005-.002-14.9434,13.2691.001-.0059,11.6162c0,1.584-2.0556,3.3257-3.8437,3.3257Z" fill="#fff" fill-rule="evenodd"/>
    </mask>
    <linearGradient id="New_Gradient_401" data-name="New Gradient 401" x1="5.6726143" y1="1.8214848" x2="14.0663345" y2="19.0311617" gradientUnits="userSpaceOnUse">
      <stop offset="0" stop-color="#e5e5e5"/>
      <stop offset=".286514" stop-color="#f2f2f2"/>
      <stop offset=".646072" stop-color="#fff"/>
      <stop offset="1" stop-color="#fff"/>
    </linearGradient>
    <radialGradient id="New_Gradient_402" data-name="New Gradient 402" cx="-42.7998604" cy="12.0635605" fx="-42.7998604" fy="12.0635605" r="5.23784" gradientTransform="translate(48.8447 5.1524) scale(.8594 .7426)" gradientUnits="userSpaceOnUse">
      <stop offset="0" stop-color="#e5e5e5"/>
      <stop offset=".331467" stop-color="#e5e5e5"/>
      <stop offset="1" stop-color="#999"/>
    </radialGradient>
  </defs>
  <g>
    <g mask="url(#mask)">
      <g>
        <path d="M12.6758,17.9429l-9.4175.0005-.002-14.9434,13.2691.001-.0059,11.6162c0,1.584-2.0556,3.3257-3.8437,3.3257Z" fill="url(#New_Gradient_399)" fill-rule="evenodd"/>
        <path d="M12.0625,17.999s2.1997-.0722,2.2002-2.1806c2.2646,0,2.2837-1.7076,2.2837-1.7076l-.001,3.8892-4.4829-.001Z" fill="url(#New_Gradient_400)" fill-rule="evenodd"/>
        <path d="M12.6758,17.9429l-9.4175.0005-.002-14.9434,13.2691.001-.0059,11.6162c0,1.584-2.0556,3.3257-3.8437,3.3257Z" fill="none" fill-rule="evenodd" stroke="#000" stroke-linecap="round" stroke-linejoin="round" stroke-width="2"/>
      </g>
    </g>
    <g mask="url(#mask-1)">
      <g>
        <path d="M12.6758,17.9429l-9.4175.0005-.002-14.9434,13.2691.001-.0059,11.6162c0,1.584-2.0556,3.3257-3.8437,3.3257Z" fill="url(#New_Gradient_401)" fill-rule="evenodd"/>
        <path d="M12.0625,17.999s1.5293-.5302,1.5298-2.6396c2.2646-.002,2.9541-1.2486,2.9541-1.2486l-.001,3.8892-4.4829-.001Z" fill="url(#New_Gradient_402)" fill-rule="evenodd"/>
      </g>
    </g>
  </g>
  <g>
    <g>
      <line x1="10.7817" y1="10.5273" x2="16.5244" y2="10.5283" fill="none" stroke="#000" stroke-linecap="round" stroke-linejoin="round" stroke-width="5"/>
      <line x1="13.6528" y1="7.6108" x2="13.6528" y2="13.4443" fill="none" stroke="#000" stroke-linecap="round" stroke-linejoin="round" stroke-width="5"/>
    </g>
    <g>
      <line x1="10.7817" y1="10.5273" x2="16.5244" y2="10.5283" fill="none" stroke="#23a11f" stroke-linecap="round" stroke-linejoin="round" stroke-width="4"/>
      <line x1="13.6528" y1="7.6108" x2="13.6528" y2="13.4443" fill="none" stroke="#23a11f" stroke-linecap="round" stroke-linejoin="round" stroke-width="4"/>
    </g>
    <g>
      <line x1="10.4829" y1="10.1904" x2="16.2251" y2="10.1904" fill="none" stroke="#a8efb1" stroke-linecap="round" stroke-linejoin="round" stroke-width="2"/>
      <line x1="13.3535" y1="7.6113" x2="13.3535" y2="13.4443" fill="none" stroke="#a8efb1" stroke-linecap="round" stroke-linejoin="round" stroke-width="2"/>
    </g>
  </g>
</svg>