<?xml version="1.0" encoding="UTF-8"?>
<svg id="Icons_-_24x24" data-name="Icons - 24x24" xmlns="http://www.w3.org/2000/svg" width="20" height="20" xmlns:xlink="http://www.w3.org/1999/xlink" viewBox="0 0 20 20">
  <defs>
    <linearGradient id="New_Gradient_51" data-name="New Gradient 51" x1="5.6561311" y1="-2.7175305" x2="12.3221437" y2="24.0183858" gradientUnits="userSpaceOnUse">
      <stop offset="0" stop-color="#666"/>
      <stop offset=".876404" stop-color="#d9d9d9"/>
      <stop offset="1" stop-color="#b2b2b2"/>
    </linearGradient>
    <linearGradient id="linear-gradient" x1="-11.3001693" y1="-95.4067983" x2=".0911162" y2="-104.9652218" gradientTransform="translate(14.4246 108.3451) rotate(13.2092189) scale(1.0586085 .9446279) skewX(11.82935)" gradientUnits="userSpaceOnUse">
      <stop offset="0" stop-color="#6b3200"/>
      <stop offset=".0731411" stop-color="#844400"/>
      <stop offset=".1947417" stop-color="#a75e00"/>
      <stop offset=".3091029" stop-color="#c17100"/>
      <stop offset=".4122566" stop-color="#d07d00"/>
      <stop offset=".494385" stop-color="#d68100"/>
      <stop offset=".6225836" stop-color="#d17d00"/>
      <stop offset=".7553839" stop-color="#c57400"/>
      <stop offset=".889808" stop-color="#b06500"/>
      <stop offset="1" stop-color="#9a5500"/>
    </linearGradient>
    <linearGradient id="linear-gradient-2" x1="-10.3229359" y1="-106.1262653" x2=".5716919" y2="-92.6725204" gradientTransform="translate(14.4246 108.3451) rotate(13.2092189) scale(1.0586085 .9446279) skewX(11.82935)" gradientUnits="userSpaceOnUse">
      <stop offset="0" stop-color="#6b3200"/>
      <stop offset=".0901757" stop-color="#783a00"/>
      <stop offset=".414098" stop-color="#a35400"/>
      <stop offset=".6664352" stop-color="#be6400"/>
      <stop offset=".814607" stop-color="#c96b00"/>
      <stop offset=".853932" stop-color="#c4680a"/>
    </linearGradient>
    <linearGradient id="New_Gradient_48" data-name="New Gradient 48" x1="-7.5034138" y1="-109.4554438" x2="-5.8806062" y2="-102.9467182" gradientTransform="translate(14.4246 108.3451) rotate(13.2092189) scale(1.0586085 .9446279) skewX(11.82935)" gradientUnits="userSpaceOnUse">
      <stop offset="0" stop-color="#666"/>
      <stop offset=".876404" stop-color="#d9d9d9"/>
      <stop offset="1" stop-color="#b2b2b2"/>
    </linearGradient>
    <linearGradient id="New_Gradient_47" data-name="New Gradient 47" x1="-941.1140463" y1="123.2977375" x2="-939.4912386" y2="129.8064634" gradientTransform="translate(-958.5545 108.3451) rotate(166.7907811) scale(1.0586085 -.9446279) skewX(11.82935)" gradientUnits="userSpaceOnUse">
      <stop offset="0" stop-color="#666"/>
      <stop offset=".876404" stop-color="#d9d9d9"/>
      <stop offset="1" stop-color="#b2b2b2"/>
    </linearGradient>
    <linearGradient id="linear-gradient-3" x1="-8.7424548" y1="-106.4332118" x2="-3.9701449" y2="-104.696233" gradientTransform="translate(14.4246 108.3451) rotate(13.2092189) scale(1.0586085 .9446279) skewX(11.82935)" gradientUnits="userSpaceOnUse">
      <stop offset="0" stop-color="#fff"/>
      <stop offset=".1293922" stop-color="#fbfbfb"/>
      <stop offset=".2464236" stop-color="#f0f0f0"/>
      <stop offset=".3583322" stop-color="#dedede"/>
      <stop offset=".438202" stop-color="#ccc"/>
      <stop offset="1" stop-color="gray"/>
    </linearGradient>
    <linearGradient id="linear-gradient-4" x1="-942.3129975" y1="126.3195195" x2="-937.5612214" y2="128.0490246" gradientTransform="translate(-958.4207 108.3451) rotate(166.7907811) scale(1.0586085 -.9446279) skewX(11.82935)" gradientUnits="userSpaceOnUse">
      <stop offset="0" stop-color="#4c4c4c"/>
      <stop offset=".640449" stop-color="gray"/>
      <stop offset="1" stop-color="#ccc"/>
    </linearGradient>
    <linearGradient id="New_Gradient_46" data-name="New Gradient 46" x1="-6.1215342" y1="-108.6884687" x2="-6.6972372" y2="-105.4234949" gradientTransform="translate(14.4246 108.3451) rotate(13.2092189) scale(1.0586085 .9446279) skewX(11.82935)" gradientUnits="userSpaceOnUse">
      <stop offset="0" stop-color="#e5e5e5"/>
      <stop offset="1" stop-color="#b2b2b2"/>
    </linearGradient>
    <mask id="mask" x="6.167" y="5.4287" width="12.814395" height="13.5283" maskUnits="userSpaceOnUse">
      <path d="M14.7616951,17.9541l-7.5936951.0029-.001-11.5283h10.814395l-.0039,8.8545c0,1.2725-1.7197,2.6709-3.2157999,2.6709Z" fill="#fff" fill-rule="evenodd" stroke="#fff" stroke-linecap="round" stroke-linejoin="round" stroke-width="2"/>
    </mask>
    <linearGradient id="New_Gradient_399" data-name="New Gradient 399" x1="9.2643982" y1="5.4057306" x2="15.8222684" y2="18.8513571" gradientUnits="userSpaceOnUse">
      <stop offset="0" stop-color="#e5e5e5"/>
      <stop offset="1" stop-color="#fff"/>
    </linearGradient>
    <radialGradient id="New_Gradient_400" data-name="New Gradient 400" cx="-13.1422125" cy="13.1855745" fx="-13.1422125" fy="13.1855745" r="4.3573521" gradientTransform="translate(25.6065 5.4247) scale(.8642 .7168)" gradientUnits="userSpaceOnUse">
      <stop offset="0" stop-color="#fff"/>
      <stop offset="1" stop-color="#ccc"/>
    </radialGradient>
    <mask id="mask-1" x="7.167" y="6.4287" width="10.833" height="11.5713" maskUnits="userSpaceOnUse">
      <path d="M14.7616951,17.9541l-7.5936951.0029-.001-11.5283h10.814395l-.0039,8.8545c0,1.2725-1.7197,2.6709-3.2157999,2.6709Z" fill="#fff" fill-rule="evenodd"/>
    </mask>
    <linearGradient id="New_Gradient_401" data-name="New Gradient 401" x1="9.2643982" y1="5.4057306" x2="15.8222684" y2="18.8513571" gradientUnits="userSpaceOnUse">
      <stop offset="0" stop-color="#e5e5e5"/>
      <stop offset=".286514" stop-color="#f2f2f2"/>
      <stop offset=".646072" stop-color="#fff"/>
      <stop offset="1" stop-color="#fff"/>
    </linearGradient>
    <radialGradient id="New_Gradient_402" data-name="New Gradient 402" cx="-13.1422125" cy="13.1855745" fx="-13.1422125" fy="13.1855745" r="4.3573521" gradientTransform="translate(25.6065 5.4247) scale(.8642 .7168)" gradientUnits="userSpaceOnUse">
      <stop offset="0" stop-color="#e5e5e5"/>
      <stop offset=".331467" stop-color="#e5e5e5"/>
      <stop offset="1" stop-color="#999"/>
    </radialGradient>
  </defs>
  <g>
    <path d="M14.5487951,4.0796l.001-.0381s-.5684-.7642-.9785-.7637l-2.2792951.0074c-.4365048-.2803-.5811048-.6182-.7402048-.9253-.2627-.5005-.4395-1.4024-1.4112-1.3599-.0185.0015-.0332.0073-.0508.0083-.0175-.001-.0322-.0068-.0507-.0083-.9717-.0425-1.1485.8594-1.4112,1.3599-.1621.313-.3076.6557-.7617.9399l-3.1249999.0088c-.4091954.0019-.7411954.3081-.7401954.6811l-.001,11.6031c0,.374.5253954.8989.5253954.8989h.0078c.1367.1377.3281.228.5469.2271l9.8300998-.0303c.4101-.0005.7412-.3052.7412-.6802V4.4033c0-.1201-.042-.2265-.1026-.3237ZM9.0897952,1.6118c.3975.001.7178.291.7198.648-.002.3564-.3213.6474-.7198.6479-.3974-.0005-.7167952-.2915-.7197-.6479.002-.357.3223-.647.7197-.648Z" fill="url(#New_Gradient_51)" fill-rule="evenodd" stroke="#000" stroke-miterlimit="3.8637" stroke-width="2"/>
    <path d="M3.7411954,3.3086l9.8300998-.0308c.4101-.0005.9785.7637.9785.7637l-.2373,11.5176c0,.374-.3311.6797-.7412.6802l-10.0458997.2524s-.5253954-.5249-.5253954-.8989l.001-11.6031c-.001-.373.331-.6792.7401954-.6811Z" fill="url(#linear-gradient)" fill-rule="evenodd"/>
    <path d="M4.8358953,4.7441l9.1269998-.0263c.3809-.0025.6885.2783.6885.6245v10.7163c0,.3481-.3076.6318-.6885.6333l-9.1269998.0269c-.3808.0009-.6894-.2793-.6894-.6275V5.3755c0-.3482.3086-.6294.6894-.6314Z" fill="url(#linear-gradient-2)" fill-rule="evenodd"/>
  </g>
  <path d="M12.8104951,4.4082c-.6953-.2349-.581-.5728-.8222-.9253h-2.1415999l.0029.0464c-.0371-.0098-.1113-.0308-.1523-.0464h-1.7325c-.1884.2495.044.4697-.1669.6284-.1651.1099-.3663.211-.6211.2969-1.0313.3496-1.6123.3574-1.793.9341l4.6102999-.0264,4.6083999.0264c-.1796-.5767-.7597-.5845-1.792-.9341Z" fill="#333"/>
  <path d="M12.8104951,4.4082c-.6953-.2349-.581-.5728-.8222-.9253h-2.1415999l.0029.0464c-.0371-.0098-.1113-.0308-.1523-.0464h-1.7325c-.1884.2495.044.4697-.1669.6284-.1651.1099-.3663.211-.6211.2969-1.0313.3496-1.6123.3574-1.793.9341l4.6102999-.0264,4.6083999.0264c-.1796-.5767-.7597-.5845-1.792-.9341Z" fill="#333"/>
  <g>
    <path d="M8.1991952,2.8608c.002.4195.3701.7603.8291.7613.458.0019.8272-.336.8281-.7549,0-.4185-.3701-.7598-.8281-.7612-.458-.0025-.8271.3349-.8291.7548ZM4.4140953,5.4014c.1787-.5762-.127-.5835,1.1435-.9336,1.3106-.3604,1.5215-.9595,1.791-1.4859.3008-.5854.5039-1.6416,1.6202-1.5908,1.2226.0552,1.6201,1.2139,1.4511,1.6543-.247.6377.5518,1.2705.5518,1.2705.8916.5415-.1309,1.0493-.1309,1.0493l-6.4266998.0362Z" fill="url(#New_Gradient_48)" fill-rule="evenodd"/>
    <path d="M9.0282952,2.106c-.458.0014-.8291.3427-.8291.7612,0,.4189.3711.7568.8291.7549.459-.001.8262-.3418.8281-.7613-.0019-.4199-.3701-.7573-.8281-.7548ZM7.2030953,5.3652s-1.0117-.5078-.1190953-1.0493c0,0,.7977953-.6328.5526953-1.2705-.1709-.4404.2276-1.5991,1.4512-1.6543,1.1152-.0508,1.3184,1.0054,1.6201048,1.5908.2685952.5264.4794952,1.1255,1.7890951,1.4859,1.2724.3501.955.3574,1.1338.9336l-6.4277998-.0362Z" fill="url(#New_Gradient_47)" fill-rule="evenodd"/>
    <path d="M5.4052953,5.0718s.4033-.2027,1.0615-.3413c.6582047-.1392.7744-.7993.9453-1.189.1699047-.3882.4961-.9556.4961-.9556,0,0-.0908.7647.4326,1.0899.6153.3843,1.3867.2178,1.6485-.1953,0,0-.0137.4321.4755.9697.2881.3188-.1669.5444-.1669.5444l-4.8925999.0772Z" fill="url(#linear-gradient-3)" fill-rule="evenodd"/>
    <path d="M12.7362951,5.0718s-.4042951-.2027-1.0615-.3413c-.6592-.1392-.7412-.7993-.9131-1.189-.1699-.3882-.4951-.9556-.4951-.9556,0,0,.0898.7647-.4335952,1.0899-.6142048.3843-1.3857048.2178-1.6484048-.1953,0,0,.0146.4321-.4745952.9697-.2901047.3188.1337953.5444.1337953.5444l4.8924999.0772Z" fill="url(#linear-gradient-4)" fill-rule="evenodd"/>
    <path d="M6.165,4.2598s.0458953-.0176.1220953-.0616c.5234-.3056.9082-.8574,1.1397-1.4213.5273-1.295,1.041-1.566,1.8828-1.3711.1924048.0454.2422.3286.0498.2837-.6758-.1563-1.1367.0087-1.6543,1.2778-.2285.5581-.3565,1.3364-.8526,1.5703-.1211.0596-.8369-.2192-.6874953-.2778Z" fill="url(#New_Gradient_46)"/>
    <path d="M9.6366952,2.2041s.4199.3154.3516.7734c-.0732952.4981-.4561.8877-1.2158.7476" fill="none" stroke="#f2f2f2" stroke-linecap="round" stroke-miterlimit="3.8637" stroke-width=".5272"/>
    <line x1="4.3661953" y1="5.4453" x2="13.4813951" y2="5.3896" fill="none" stroke="gray" stroke-linecap="round" stroke-miterlimit="3.8637" stroke-width=".5272"/>
  </g>
  <g>
    <g>
      <g mask="url(#mask)">
        <g>
          <path d="M14.7616951,17.9541l-7.5936951.0029-.001-11.5283h10.814395l-.0039,8.8545c0,1.2725-1.7197,2.6709-3.2157999,2.6709Z" fill="url(#New_Gradient_399)" fill-rule="evenodd"/>
          <path d="M14.249,18s1.840795-.0591,1.840795-1.7524c1.8936,0,1.910205-1.3706,1.910205-1.3706l-.001,3.123h-3.75Z" fill="url(#New_Gradient_400)" fill-rule="evenodd"/>
          <path d="M14.7616951,17.9541l-7.5936951.0029-.001-11.5283h10.814395l-.0039,8.8545c0,1.2725-1.7197,2.6709-3.2157999,2.6709Z" fill="none" fill-rule="evenodd" stroke="#000" stroke-linecap="round" stroke-linejoin="round" stroke-width="2"/>
        </g>
      </g>
      <g mask="url(#mask-1)">
        <g>
          <path d="M14.7616951,17.9541l-7.5936951.0029-.001-11.5283h10.814395l-.0039,8.8545c0,1.2725-1.7197,2.6709-3.2157999,2.6709Z" fill="url(#New_Gradient_401)" fill-rule="evenodd"/>
          <path d="M14.249,18s1.2792951-.4268,1.2792951-2.1206c1.8936,0,2.4717049-1.0024,2.4717049-1.0024l-.001,3.123h-3.75Z" fill="url(#New_Gradient_402)" fill-rule="evenodd"/>
        </g>
      </g>
    </g>
    <line x1="8.6454952" y1="10.1631" x2="11.0526952" y2="10.1631" fill="none" stroke="#999" stroke-linecap="round" stroke-miterlimit="3.8637" stroke-width=".7125"/>
    <line x1="14.2040951" y1="8.499" x2="16.609395" y2="8.499" fill="none" stroke="#999" stroke-linecap="round" stroke-miterlimit="3.8637" stroke-width=".7125"/>
    <line x1="12.4413951" y1="10.1631" x2="16.609395" y2="10.1631" fill="none" stroke="#999" stroke-linecap="round" stroke-miterlimit="3.8637" stroke-width=".7125"/>
    <line x1="8.543" y1="15.1528" x2="14.5272951" y2="15.1528" fill="none" stroke="#999" stroke-linecap="round" stroke-miterlimit="3.8637" stroke-width=".7125"/>
    <line x1="8.6454952" y1="11.8262" x2="10.5907952" y2="11.8262" fill="none" stroke="#999" stroke-linecap="round" stroke-miterlimit="3.8637" stroke-width=".7125"/>
    <line x1="11.7333952" y1="11.8262" x2="13.6776951" y2="11.8262" fill="none" stroke="#999" stroke-linecap="round" stroke-miterlimit="3.8637" stroke-width=".7125"/>
    <line x1="14.4491951" y1="11.8262" x2="16.609395" y2="11.8262" fill="none" stroke="#999" stroke-linecap="round" stroke-miterlimit="3.8637" stroke-width=".7125"/>
    <line x1="8.6454952" y1="8.499" x2="12.4413951" y2="8.499" fill="none" stroke="#999" stroke-linecap="round" stroke-miterlimit="3.8637" stroke-width=".7125"/>
    <line x1="8.6454952" y1="13.4897" x2="11.8241952" y2="13.4897" fill="none" stroke="#999" stroke-linecap="round" stroke-miterlimit="3.8637" stroke-width=".7125"/>
    <line x1="12.7118951" y1="13.4897" x2="16.763695" y2="13.4897" fill="none" stroke="#999" stroke-linecap="round" stroke-miterlimit="3.8637" stroke-width=".7125"/>
  </g>
</svg>