<?xml version="1.0" encoding="UTF-8"?>
<svg id="Set_3" data-name="Set 3" xmlns="http://www.w3.org/2000/svg" width="20" height="20" viewBox="0 0 20 20">
  <line x1="12.551" y1="14.2576" x2="5.5915938" y2="14.2576" fill="none" stroke="#000" stroke-linecap="round" stroke-miterlimit="3.8637" stroke-width=".7125"/>
  <polyline points="12.584 15.0787 12.584 16.1392 14.98 14.2576 12.584 12.3736 12.584 13.4609"/>
  <path d="M5.9740938,9.2629l-.4766,1.4441h-.6122l1.5591-4.5891h.7148l1.5651,4.5891h-.6329l-.4911-1.4441h-1.6262ZM7.478,8.8009l-.4558062-1.3219c-.0951-.2981-.1636-.5718-.2308-.8358h-.0207c-.0612.264-.1356938.55-.2236.8309l-.4496,1.3268h1.3805062Z"/>
  <path d="M11.2265937,10.3576l2.5462999-3.7216v-.022h-2.3288936v-.4961h3.0985936v.3617l-2.5315936,3.7093v.0196h2.5656936v.496h-3.3500999v-.3469Z"/>
</svg>