<?xml version='1.0' encoding='UTF-8'?>
<svg xmlns="http://www.w3.org/2000/svg" xmlns:xlink="http://www.w3.org/1999/xlink" id="Set_3" data-name="Set 3" width="20" height="20" viewBox="0 0 20 20">
  <defs>
    <mask id="mask" x=".5447964" y="7.0115" width="10.3216998" height="11.0389" maskUnits="userSpaceOnUse">
      <path d="M6.6445963,17.0455l-5.0997999.0049v-9.0364l8.3216998-.0025-.0038,6.3608c0,1.2754-1.7215,2.6732-3.2180999,2.6732Z" fill="#fff" fill-rule="evenodd" stroke="#fff" stroke-linecap="round" stroke-linejoin="round" stroke-width="2"/>
    </mask>
    <linearGradient id="New_Gradient_197" data-name="New Gradient 197" x1="3.1263563" y1="7.2426217" x2="8.1198558" y2="17.480813" gradientUnits="userSpaceOnUse">
      <stop offset="0" stop-color="#e5e5e5"/>
      <stop offset="1" stop-color="#fff"/>
    </linearGradient>
    <radialGradient id="New_Gradient_198" data-name="New Gradient 198" cx="-26.6171089" cy="71.301558" fx="-26.6171089" fy="71.301558" r="3.6334367" gradientTransform="translate(33.736 -47.3693) scale(1.0371 .8602)" gradientUnits="userSpaceOnUse">
      <stop offset="0" stop-color="#fff"/>
      <stop offset="1" stop-color="#ccc"/>
    </radialGradient>
    <mask id="mask-1" x="1.5447964" y="8.0115" width="8.3399998" height="9.0804" maskUnits="userSpaceOnUse">
      <path d="M6.6445963,17.0455l-5.0997999.0049v-9.0364l8.3216998-.0025-.0038,6.3608c0,1.2754-1.7215,2.6732-3.2180999,2.6732Z" fill="#fff" fill-rule="evenodd"/>
    </mask>
    <linearGradient id="New_Gradient_195" data-name="New Gradient 195" x1="3.1263563" y1="7.2426217" x2="8.1198558" y2="17.480813" gradientUnits="userSpaceOnUse">
      <stop offset="0" stop-color="#e5e5e5"/>
      <stop offset=".286514" stop-color="#f2f2f2"/>
      <stop offset=".646072" stop-color="#fff"/>
      <stop offset="1" stop-color="#fff"/>
    </linearGradient>
    <radialGradient id="New_Gradient_196" data-name="New Gradient 196" cx="-26.6171089" cy="71.301558" fx="-26.6171089" fy="71.301558" r="3.6334367" gradientTransform="translate(33.736 -47.3693) scale(1.0371 .8602)" gradientUnits="userSpaceOnUse">
      <stop offset="0" stop-color="#e5e5e5"/>
      <stop offset=".331467" stop-color="#e5e5e5"/>
      <stop offset="1" stop-color="#999"/>
    </radialGradient>
    <linearGradient id="New_Gradient_208" data-name="New Gradient 208" x1="1.2850964" y1="10.7789" x2="13.365" y2="10.7789" gradientUnits="userSpaceOnUse">
      <stop offset="0" stop-color="#999"/>
      <stop offset=".20224" stop-color="#f2f2f2"/>
      <stop offset=".516861" stop-color="#b2b2b2"/>
      <stop offset=".769669" stop-color="#b2b2b2"/>
      <stop offset="1" stop-color="#737373"/>
    </linearGradient>
    <linearGradient id="New_Gradient_207" data-name="New Gradient 207" x1="14.8122577" y1="11.4919509" x2="10.7889971" y2="15.5152116" gradientUnits="userSpaceOnUse">
      <stop offset="0" stop-color="#4c4c4c"/>
      <stop offset=".623596" stop-color="#d9d9d9"/>
      <stop offset="1" stop-color="#4c4c4c"/>
    </linearGradient>
    <linearGradient id="New_Gradient_206" data-name="New Gradient 206" x1="17.6193642" y1="12.7635769" x2="12.0598132" y2="18.3231278" gradientUnits="userSpaceOnUse">
      <stop offset="0" stop-color="#a70000"/>
      <stop offset=".662918" stop-color="#df4e15"/>
      <stop offset="1" stop-color="#740000"/>
    </linearGradient>
    <linearGradient id="New_Gradient_205" data-name="New Gradient 205" x1="15.6808353" y1="15.952232" x2="16.9437693" y2="17.973349" gradientUnits="userSpaceOnUse">
      <stop offset="0" stop-color="#df4e15"/>
      <stop offset="1" stop-color="#c42e00"/>
    </linearGradient>
    <linearGradient id="New_Gradient_204" data-name="New Gradient 204" x1="15.6808353" y1="15.952232" x2="16.9437693" y2="17.973349" gradientUnits="userSpaceOnUse">
      <stop offset="0" stop-color="#df4e15"/>
      <stop offset="1" stop-color="#c42e00"/>
    </linearGradient>
    <mask id="mask-2" x="1.1274964" y="1.2451" width="12.2375036" height="13.1833" maskUnits="userSpaceOnUse">
      <path d="M7.327,1.5824c3.3341962,0,6.038,2.4045,6.038,5.3686,0,2.9666-2.7038038,5.371-6.038,5.371-3.3368036,0-6.0408036-2.4044-6.0408036-5.371C1.2861964,3.9869,3.9901964,1.5824,7.327,1.5824Z" fill="#fff"/>
    </mask>
    <linearGradient id="New_Gradient_201" data-name="New Gradient 201" x1="1.2861964" y1="6.9522" x2="13.365" y2="6.9522" gradientUnits="userSpaceOnUse">
      <stop offset="0" stop-color="#999"/>
      <stop offset=".219101" stop-color="#b2b2b2"/>
      <stop offset=".466293" stop-color="#b2b2b2"/>
      <stop offset=".769669" stop-color="#f2f2f2"/>
      <stop offset="1" stop-color="#737373"/>
    </linearGradient>
    <mask id="mask-3" x="1.4125964" y="2.6384" width="11.8250997" height="11.79" maskUnits="userSpaceOnUse">
      <path d="M7.327,3.1169c2.9994962,0,5.4321961,2.1651,5.4321961,4.8335s-2.4326999,4.8311-5.4321961,4.8311c-3.0032036,0-5.4359036-2.1627-5.4359036-4.8311S4.3237964,3.1169,7.327,3.1169Z" fill="#fff" stroke="#fff" stroke-miterlimit="3.8637" stroke-width=".957"/>
    </mask>
    <linearGradient id="New_Gradient_202" data-name="New Gradient 202" x1="1.8910964" y1="7.9492" x2="12.7591961" y2="7.9492" gradientUnits="userSpaceOnUse">
      <stop offset="0" stop-color="#5587c0"/>
      <stop offset=".20787" stop-color="#97bae0"/>
      <stop offset=".865173" stop-color="#b3e0ff"/>
      <stop offset="1" stop-color="#5587c0"/>
    </linearGradient>
    <radialGradient id="New_Gradient_203" data-name="New Gradient 203" cx="28.1281726" cy="11.328491" fx="28.1281726" fy="11.328491" r="9.7634997" gradientTransform="translate(-20.9756221 -9.1169) scale(.8903 1.2253)" gradientUnits="userSpaceOnUse">
      <stop offset="0" stop-color="#78dcff"/>
      <stop offset="1" stop-color="#b7e9ff"/>
    </radialGradient>
    <linearGradient id="linear-gradient" x1="3.0790826" y1="2.64079" x2="11.2292529" y2="10.7909603" gradientUnits="userSpaceOnUse">
      <stop offset="0" stop-color="gray"/>
      <stop offset=".187809" stop-color="#82868b"/>
      <stop offset=".5233754" stop-color="#8a99aa"/>
      <stop offset=".9651405" stop-color="#95b7db"/>
      <stop offset="1" stop-color="#97bae0"/>
    </linearGradient>
    <linearGradient id="New_Gradient_199" data-name="New Gradient 199" x1="3.2507654" y1="2.8767973" x2="11.4002676" y2="11.0262996" gradientUnits="userSpaceOnUse">
      <stop offset="0" stop-color="gray"/>
      <stop offset="1" stop-color="#fff"/>
    </linearGradient>
    <mask id="mask-4" x="1.8910964" y="4.2113099" width="10.8680997" height="10.2170901" maskUnits="userSpaceOnUse">
      <path d="M5.5356963,4.2411c1.0227-.1712,1.9195.4128,1.9988999,1.3072.0807.8943-.6855,1.7619-1.7104,1.9354-1.0227.171-1.9183-.413-1.9990999-1.3074-.0780964-.8968.6856-1.7618,1.7106-1.9352Z" fill="#fff"/>
    </mask>
    <mask id="mask-5" x="-.7064035" y="1.878" width="13.4289997" height="16.1724" maskUnits="userSpaceOnUse">
      <path d="M7.1534963,1.878C3.978,1.878,1.5856964,4.1554,1.5856964,6.7164c0,2.5609,2.3923036,4.8384,5.5677999,4.8384,3.1766999,0,5.5690999-2.2775,5.5690999-4.8384,0-2.561-2.3923999-4.8384-5.5690999-4.8384Z" fill="#fff"/>
    </mask>
    <mask id="mask-6" x="-.7064035" y="7.0115" width="10.3217998" height="11.0389" maskUnits="userSpaceOnUse">
      <path d="M5.3934963,17.0455l-5.0998999.0049v-9.0364l8.3217998-.0025-.0038,6.3608c0,1.2754-1.7215,2.6732-3.2180999,2.6732Z" fill="#fff" fill-rule="evenodd" stroke="#fff" stroke-linecap="round" stroke-linejoin="round" stroke-width="2"/>
    </mask>
    <linearGradient id="New_Gradient_197-2" data-name="New Gradient 197" x1="1.8751967" y1="7.242602" x2="6.8687168" y2="17.4808355" gradientUnits="userSpaceOnUse"><stop offset="0" stop-color="#e5e5e5"/><stop offset="1" stop-color="#fff"/></linearGradient>
    <radialGradient id="New_Gradient_198-2" data-name="New Gradient 198" cx="-27.8234535" cy="71.3014178" fx="-27.8234535" fy="71.3014178" r="3.6334367" gradientTransform="translate(33.736 -47.3693) scale(1.0371 .8602)" gradientUnits="userSpaceOnUse"><stop offset="0" stop-color="#fff"/><stop offset="1" stop-color="#ccc"/></radialGradient>
    <mask id="mask-7" x=".2935965" y="8.0115" width="8.3400998" height="9.0804" maskUnits="userSpaceOnUse">
      <path d="M5.3934963,17.0455l-5.0998999.0049v-9.0364l8.3217998-.0025-.0038,6.3608c0,1.2754-1.7215,2.6732-3.2180999,2.6732Z" fill="#fff" fill-rule="evenodd"/>
    </mask>
    <linearGradient id="New_Gradient_195-2" data-name="New Gradient 195" x1="1.8751967" y1="7.242602" x2="6.8687168" y2="17.4808355" gradientUnits="userSpaceOnUse"><stop offset="0" stop-color="#e5e5e5"/><stop offset=".286514" stop-color="#f2f2f2"/><stop offset=".646072" stop-color="#fff"/><stop offset="1" stop-color="#fff"/></linearGradient>
    <radialGradient id="New_Gradient_196-2" data-name="New Gradient 196" cx="-27.8234535" cy="71.3014178" fx="-27.8234535" fy="71.3014178" r="3.6334367" gradientTransform="translate(33.736 -47.3693) scale(1.0371 .8602)" gradientUnits="userSpaceOnUse"><stop offset="0" stop-color="#e5e5e5"/><stop offset=".331467" stop-color="#e5e5e5"/><stop offset="1" stop-color="#999"/></radialGradient>
  </defs>
  <g>
    <g>
      <g mask="url(#mask)">
        <g>
          <path d="M6.6445963,17.0455l-5.0997999.0049v-9.0364l8.3216998-.0025-.0038,6.3608c0,1.2754-1.7215,2.6732-3.2180999,2.6732Z" fill="url(#New_Gradient_197)" fill-rule="evenodd"/>
          <path d="M6.1313963,17.0919s1.8425-.0585,1.8425-1.7545c1.8937,0,1.9109-1.3708,1.9109-1.3708v3.1253h-3.7533999Z" fill="url(#New_Gradient_198)" fill-rule="evenodd"/>
          <path d="M6.6445963,17.0455l-5.0997999.0049v-9.0364l8.3216998-.0025-.0038,6.3608c0,1.2754-1.7215,2.6732-3.2180999,2.6732Z" fill="none" fill-rule="evenodd" stroke="#000" stroke-linecap="round" stroke-linejoin="round" stroke-width="2"/>
        </g>
      </g>
      <g mask="url(#mask-1)">
        <g>
          <path d="M6.6445963,17.0455l-5.0997999.0049v-9.0364l8.3216998-.0025-.0038,6.3608c0,1.2754-1.7215,2.6732-3.2180999,2.6732Z" fill="url(#New_Gradient_195)" fill-rule="evenodd"/>
          <path d="M6.1313963,17.0919s1.2804-.4276,1.2804-2.1234c1.8951,0,2.4729999-1.0019,2.4729999-1.0019v3.1253h-3.7533999Z" fill="url(#New_Gradient_196)" fill-rule="evenodd"/>
        </g>
      </g>
    </g>
    <line x1="3.0243964" y1="11.7502" x2="4.5992963" y2="11.7502" fill="none" stroke="#999" stroke-linecap="round" stroke-miterlimit="3.8637" stroke-width=".7125"/>
    <line x1="6.085" y1="10.0861" x2="8.4930962" y2="10.0861" fill="none" stroke="#999" stroke-linecap="round" stroke-miterlimit="3.8637" stroke-width=".7125"/>
    <line x1="5.1563963" y1="11.7502" x2="8.4930962" y2="11.7502" fill="none" stroke="#999" stroke-linecap="round" stroke-miterlimit="3.8637" stroke-width=".7125"/>
    <line x1="3.0243964" y1="13.4144" x2="4.1374964" y2="13.4144" fill="none" stroke="#999" stroke-linecap="round" stroke-miterlimit="3.8637" stroke-width=".7125"/>
    <line x1="5.281" y1="13.4144" x2="5.5596963" y2="13.4144" fill="none" stroke="#999" stroke-linecap="round" stroke-miterlimit="3.8637" stroke-width=".7125"/>
    <line x1="6.3317963" y1="13.4144" x2="8.4930962" y2="13.4144" fill="none" stroke="#999" stroke-linecap="round" stroke-miterlimit="3.8637" stroke-width=".7125"/>
    <line x1="3.0243964" y1="10.0861" x2="5.1563963" y2="10.0861" fill="none" stroke="#999" stroke-linecap="round" stroke-miterlimit="3.8637" stroke-width=".7125"/>
    <line x1="3.0243964" y1="15.0809" x2="5.3713963" y2="15.0809" fill="none" stroke="#999" stroke-linecap="round" stroke-miterlimit="3.8637" stroke-width=".7125"/>
  </g>
  <g>
    <path d="M17.680596,15.7846c-.7503-.7502-1.5567-1.5565-2.6757999-2.6758-.4692-.4692-1.0141-.5815-1.5187-.4789l-1.2158-1.2169c.6879-.8724,1.0947038-1.9304,1.0947038-3.0764v-.4864h-.0903039c.055-.2908.0903039-.5913.0903039-.8992,0-.4765-.0781039-.936-.2089039-1.3782-.1844-.6549-.4959-1.261-.9102-1.7888-1.0848962-1.5492-2.9957999-2.5389-5.0923999-2.5389C3.9254964,1.2451,1.1274964,3.5812,1.1274964,6.7164c0,.43.0574.8454.1587,1.2438v.3764c0,2.9664,2.7039999,5.371,6.0408036,5.371,1.2021962,0,2.3213962-.3153,3.2621962-.8578l.0013.0025,1.3353,1.3343c-.1027.5058.0098,1.0531.4801,1.5223,1.1193,1.1192,1.9269,1.9255,2.6771039,2.6734,1.0970961,1.0995,3.694096-1.5029,2.597596-2.5977Z" stroke="#000" stroke-linecap="round" stroke-linejoin="round" stroke-width="2"/>
    <g>
      <path d="M1.2850964,7.8502c.0011.1589.0011.3104.0011.4864,0,2.9664,2.7039999,5.371,6.0408036,5.371,3.3341962,0,6.038-2.4046,6.038-5.371v-.4864H1.2850964Z" fill="url(#New_Gradient_208)" fill-rule="evenodd"/>
      <path d="M12.1505962,11.2933l2.4595999,2.4607c1.5724,1.5738.0147,3.1327-1.5603,1.5591l-2.4582999-2.4608c-1.041-1.0385.5181-2.5976,1.559-1.559Z" fill="url(#New_Gradient_207)"/>
      <g>
        <path d="M15.0047961,13.1088c1.1191,1.1193,1.9255,1.9256,2.6757999,2.6758,1.0965,1.0948-1.5005,3.6972-2.597596,2.5977-.7502039-.7479-1.5578039-1.5542-2.6771039-2.6734-1.6383-1.6397.9591039-4.2397,2.5988999-2.6001Z" fill="url(#New_Gradient_206)"/>
        <path d="M12.5806961,13.6196c.9469.9482,1.8327,1.8351,2.4973999,2.4999" fill="none" stroke="#ff7845" stroke-linecap="round" stroke-miterlimit="3.8637" stroke-width="1.4356"/>
        <path d="M16.666396,15.5427c.892-.1123,1.4124.4081,1.148604,1.1461-.266404.7405-1.082604,1.5541-1.8218039,1.818-.7391.264-1.2584-.2541-1.1473-1.1485.1125-.8894.9274-1.7057,1.8205-1.8156Z" fill="url(#New_Gradient_205)" stroke="#a70000" stroke-miterlimit="3.8637" stroke-width=".4785"/>
        <path d="M16.666396,15.5427c.892-.1123,1.4124.4081,1.148604,1.1461-.266404.7405-1.082604,1.5541-1.8218039,1.818-.7391.264-1.2584-.2541-1.1473-1.1485.1125-.8894.9274-1.7057,1.8205-1.8156Z" fill="url(#New_Gradient_204)"/>
      </g>
      <g mask="url(#mask-2)">
        <g>
          <path d="M7.327,1.5824c3.3341962,0,6.038,2.4045,6.038,5.3686,0,2.9666-2.7038038,5.371-6.038,5.371-3.3368036,0-6.0408036-2.4044-6.0408036-5.371C1.2861964,3.9869,3.9901964,1.5824,7.327,1.5824Z" fill="url(#New_Gradient_201)"/>
          <g mask="url(#mask-3)">
            <g>
              <path d="M7.327,3.1169c2.9994962,0,5.4321961,2.1651,5.4321961,4.8335s-2.4326999,4.8311-5.4321961,4.8311c-3.0032036,0-5.4359036-2.1627-5.4359036-4.8311S4.3237964,3.1169,7.327,3.1169Z" fill="url(#New_Gradient_202)"/>
              <path d="M7.327,4.7639c2.9994962,0,5.4321961,2.1626,5.4321961,4.8335,0,2.666-2.4326999,4.831-5.4321961,4.831-3.0032036,0-5.4359036-2.165-5.4359036-4.831,0-2.6709,2.4326999-4.8335,5.4359036-4.8335Z" fill="url(#New_Gradient_203)"/>
              <path d="M7.327,3.1169c2.9994962,0,5.4321961,2.1651,5.4321961,4.8335s-2.4326999,4.8311-5.4321961,4.8311c-3.0032036,0-5.4359036-2.1627-5.4359036-4.8311S4.3237964,3.1169,7.327,3.1169Z" fill="none" stroke="#69c" stroke-miterlimit="3.8637" stroke-width=".957"/>
            </g>
          </g>
          <path d="M7.1534963,1.2451c3.2279999,0,6.0283998,2.3361,6.0283998,5.4713,0,3.1327-2.8003999,5.4712-6.0283998,5.4712S1.1274964,9.8491,1.1274964,6.7164C1.1274964,3.5812,3.9254964,1.2451,7.1534963,1.2451ZM7.1534963,1.878C3.978,1.878,1.5856964,4.1554,1.5856964,6.7164c0,2.5609,2.3923036,4.8384,5.5677999,4.8384,3.1766999,0,5.5690999-2.2775,5.5690999-4.8384,0-2.561-2.3923999-4.8384-5.5690999-4.8384Z" fill="url(#linear-gradient)"/>
        </g>
      </g>
      <path d="M7.327,1.4822c3.2266962,0,6.026,2.3361,6.026,5.4688,0,3.1328-2.7993038,5.4712-6.026,5.4712-3.2293036,0-6.0297036-2.3384-6.0297036-5.4712C1.2972964,3.8183,4.0976964,1.4822,7.327,1.4822ZM7.327,2.1126c-3.1768036,0-5.5691036,2.2775-5.5691036,4.8384,0,2.5633,2.3922999,4.8407,5.5691036,4.8407,3.1741962,0,5.5664961-2.2774,5.5664961-4.8407,0-2.5609-2.3922999-4.8384-5.5664961-4.8384Z" fill="url(#New_Gradient_199)"/>
      <g mask="url(#mask-4)">
        <g>
          <path d="M5.5356963,4.2411c1.0227-.1712,1.9195.4128,1.9988999,1.3072.0807.8943-.6855,1.7619-1.7104,1.9354-1.0227.171-1.9183-.413-1.9990999-1.3074-.0780964-.8968.6856-1.7618,1.7106-1.9352Z" fill="#b3e0ff"/>
          <path d="M7.327,4.7639c2.9994962,0,5.4321961,2.1626,5.4321961,4.8335,0,2.666-2.4326999,4.831-5.4321961,4.831-3.0032036,0-5.4359036-2.165-5.4359036-4.831,0-2.6709,2.4326999-4.8335,5.4359036-4.8335Z" fill="#fff"/>
        </g>
      </g>
    </g>
  </g>
  <g mask="url(#mask-5)">
    <g opacity=".25">
      <g>
        <g>
          <g mask="url(#mask-6)">
            <g>
              <path d="M5.3934963,17.0455l-5.0998999.0049v-9.0364l8.3217998-.0025-.0038,6.3608c0,1.2754-1.7215,2.6732-3.2180999,2.6732Z" fill="url(#New_Gradient_197-2)" fill-rule="evenodd"/>
              <path d="M4.8802963,17.0919s1.8425-.0585,1.8425-1.7545c1.8937,0,1.9109-1.3708,1.9109-1.3708v3.1253h-3.7533999Z" fill="url(#New_Gradient_198-2)" fill-rule="evenodd"/>
              <path d="M5.3934963,17.0455l-5.0998999.0049v-9.0364l8.3217998-.0025-.0038,6.3608c0,1.2754-1.7215,2.6732-3.2180999,2.6732Z" fill="none" fill-rule="evenodd" stroke="#000" stroke-linecap="round" stroke-linejoin="round" stroke-width="2"/>
            </g>
          </g>
          <g mask="url(#mask-7)">
            <g>
              <path d="M5.3934963,17.0455l-5.0998999.0049v-9.0364l8.3217998-.0025-.0038,6.3608c0,1.2754-1.7215,2.6732-3.2180999,2.6732Z" fill="url(#New_Gradient_195-2)" fill-rule="evenodd"/>
              <path d="M4.8802963,17.0919s1.2803-.4276,1.2803-2.1234c1.8952,0,2.4730999-1.0019,2.4730999-1.0019v3.1253h-3.7533999Z" fill="url(#New_Gradient_196-2)" fill-rule="evenodd"/>
            </g>
          </g>
        </g>
        <line x1="1.7731964" y1="11.7502" x2="3.3480964" y2="11.7502" fill="none" stroke="#999" stroke-linecap="round" stroke-miterlimit="3.8637" stroke-width=".7125"/>
        <line x1="4.8337963" y1="10.0861" x2="7.242" y2="10.0861" fill="none" stroke="#999" stroke-linecap="round" stroke-miterlimit="3.8637" stroke-width=".7125"/>
        <line x1="3.9052964" y1="11.7502" x2="7.242" y2="11.7502" fill="none" stroke="#999" stroke-linecap="round" stroke-miterlimit="3.8637" stroke-width=".7125"/>
        <line x1="1.7731964" y1="13.4144" x2="2.8862964" y2="13.4144" fill="none" stroke="#999" stroke-linecap="round" stroke-miterlimit="3.8637" stroke-width=".7125"/>
        <line x1="4.0298964" y1="13.4144" x2="4.3084964" y2="13.4144" fill="none" stroke="#999" stroke-linecap="round" stroke-miterlimit="3.8637" stroke-width=".7125"/>
        <line x1="5.0806963" y1="13.4144" x2="7.242" y2="13.4144" fill="none" stroke="#999" stroke-linecap="round" stroke-miterlimit="3.8637" stroke-width=".7125"/>
        <line x1="1.7731964" y1="10.0861" x2="3.9052964" y2="10.0861" fill="none" stroke="#999" stroke-linecap="round" stroke-miterlimit="3.8637" stroke-width=".7125"/>
        <line x1="1.7731964" y1="15.0809" x2="4.1202964" y2="15.0809" fill="none" stroke="#999" stroke-linecap="round" stroke-miterlimit="3.8637" stroke-width=".7125"/>
      </g>
    </g>
  </g>
</svg>