<?xml version="1.0" encoding="UTF-8"?>
<svg id="Icons_-_24x24" data-name="Icons - 24x24" xmlns="http://www.w3.org/2000/svg" width="20" height="20" xmlns:xlink="http://www.w3.org/1999/xlink" viewBox="0 0 20 20">
  <defs>
    <mask id="mask" x="4.1064945" y="3.2553185" width="12.5761516" height="13.4377717" maskUnits="userSpaceOnUse">
      <path d="M13.3710926,3.2939c-.0303-.0498-.083-.0512-.1172-.0053l-5.4481999,9.0376c-.0284.0503-.0772.0527-.1094.0063l-2.3388999-3.0952c-.0342-.0459-.0801-.04-.1015.0132l-1.1407,2.8769c-.0214.0538-.0019.1255.043.1617l3.8261999,3.5444c.041.0391.1035.0342.1396073-.0117l7.6855925-8.8404c.0429-.0385.0517-.1079.0215-.1562l-2.4599999-3.5313Z" fill="#fff"/>
    </mask>
    <linearGradient id="linear-gradient" x1="10.0069947" y1="9.8254855" x2="10.8443888" y2="18.1994163" gradientUnits="userSpaceOnUse">
      <stop offset="0" stop-color="#c9ffc9"/>
      <stop offset=".80899" stop-color="#00cd00"/>
      <stop offset="1" stop-color="#00cd00"/>
    </linearGradient>
    <linearGradient id="linear-gradient-2" x1="6.8926113" y1="15.0312581" x2="15.476864" y2="3.3581575" gradientUnits="userSpaceOnUse">
      <stop offset="0" stop-color="#c9ffc9"/>
      <stop offset=".55618" stop-color="#00cd00"/>
      <stop offset="1" stop-color="#23a11f"/>
    </linearGradient>
  </defs>
  <path d="M13.3710926,3.2939c-.0303-.0498-.083-.0512-.1172-.0053l-5.4481999,9.0376c-.0284.0503-.0772.0527-.1094.0063l-2.3388999-3.0952c-.0342-.0459-.0801-.04-.1015.0132l-1.1407,2.8769c-.0214.0538-.0019.1255.043.1617l3.8261999,3.5444c.041.0391.1035.0342.1396073-.0117l7.6855925-8.8404c.0429-.0385.0517-.1079.0215-.1562l-2.4599999-3.5313Z" fill="none" stroke="#000" stroke-width="2"/>
  <g mask="url(#mask)">
    <g>
      <path d="M13.3710926,3.2939c-.0303-.0498-.083-.0512-.1172-.0053l-5.4481999,9.0376c-.0284.0503-.0772.0527-.1094.0063l-2.3388999-3.0952c-.0342-.0459-.0801-.04-.1015.0132l-1.1407,2.8769c-.0214.0538-.0019.1255.043.1617l3.8261999,3.5444c.041.0391.1035.0342.1396073-.0117l7.6855925-8.8404c.0429-.0385.0517-.1079.0215-.1562l-2.4599999-3.5313Z" fill="url(#linear-gradient)"/>
      <path d="M14.2050926,4.127c-.0313-.0489-.083-.0508-.1172-.0049l-5.4482999,9.0376c-.0283.0493-.0771.0527-.1103.0058l-2.3378999-3.0952c-.0351-.0449-.0801-.04-.1025.0132l-1.1397,2.8769c-.0224.0533-.0029.126.042.1617l3.8251999,3.5444c.043.0391.1055.0347.1406073-.0107l7.6855925-8.8418c.0439-.0376.0527-.1079.0215-.1558l-2.4589999-3.5312Z" fill="url(#linear-gradient-2)"/>
    </g>
  </g>
</svg>