<?xml version="1.0" encoding="UTF-8"?>
<svg id="Set_5" data-name="Set 5" xmlns="http://www.w3.org/2000/svg" width="20" height="20" xmlns:xlink="http://www.w3.org/1999/xlink" viewBox="0 0 20 20">
  <defs>
    <mask id="mask" x="-4.1933255" y="2.6245" width="21.7056225" height="18.1566234" maskUnits="userSpaceOnUse">
      <rect x="2.415" y="2.6245" width="14.807797" height="14.8048" fill="#fff"/>
    </mask>
  </defs>
  <rect x="2.415" y="2.6245" width="14.807797" height="14.8048" fill="none" stroke="#000" stroke-linecap="round" stroke-linejoin="round" stroke-width="2"/>
  <g mask="url(#mask)">
    <g>
      <rect x="2.415" y="2.6245" width="14.807797" height="14.8048" fill="#65d081"/>
      <g>
        <path d="M12.8065972,3.7389C3.0515974,3.3736-4.5255,6.9619-4.1821,17.0614c1.7137.5659,3.4578.8932,5.1296974,1.5211,1.5224026.572,2.2915999,1.4883,3.8694999,1.9465,4.7533999,1.3819,11.8343997-3.2304,12.6951997-6.2142-2.0427999-1.46-.2199-.7319-.8546-3.0044-2.4514999,3.2403-1.3709-4.5732-1.6531-4.517-1.8345971.3653,1.6269-2.7832-.9818-3.966" fill="#9a5500"/>
        <path d="M11.4443972,5.1061c-7.8461998-.2941-13.9401972,2.5922-13.6638972,10.7148,1.378.455,2.7808975.7177,4.1258974,1.2234,1.2242.4599,1.8431,1.1975,3.1118999,1.5652,3.8231999,1.1119,8.4617998-2.5979,9.1541998-4.9977-1.6427-1.1745-1.1093-.8996-1.6201-2.7266-1.422,1.8792-.303-3.1327-.1786-3.1575-.9707.193,2.1467999-2.4041.0484-3.3552" fill="#bc8600"/>
        <path d="M10.0822972,6.4732C4.1446974,6.2505-.4662,8.4346-.2569,14.5804c1.0423975.3442,2.1039974.5421,3.1219974.9257.9261.3478,1.3947.9066,2.3543999,1.184,2.8929999.8418,5.0891999-1.9655,5.6131999-3.7812-1.2426-.8891-1.9987999-1.0675-2.3855999-2.4489-.3924.5181.7649027-1.6922,1.296-1.7981-.1069.0208,2.6665999-2.0249,1.0786-2.7442" fill="#ddb800"/>
        <path d="M8.7200973,7.8404c-4.0288999-.1515-7.1566998,1.3306-7.0142998,5.4994.7067.2334,1.4271.3667,2.1180999.6281.6279.2357.9462.6157,1.5968.8027,1.9628.5718,1.7166-1.333,2.0721999-2.5647-.8425-.6036-2.8882999-1.2352-3.1510999-2.1711.6372026-.843,1.8328-.2517,2.7705999-.4386.7568-.1515,3.1863999-1.6458,2.1086999-2.1334" fill="#ffe900"/>
      </g>
    </g>
  </g>
  <g>
    <polyline points="8.1391973 9.0378 8.8050973 9.7036 6.1177973 10.0287 6.4402973 7.337 7.1226973 8.02"/>
    <line x1="9.8185972" y1="6.3255" x2="7.1661973" y2="8.9791" fill="none" stroke="#000" stroke-linecap="round" stroke-miterlimit="3.8637" stroke-width=".7125"/>
  </g>
</svg>