<?xml version="1.0" encoding="UTF-8"?>
<svg id="Set_4" data-name="Set 4" xmlns="http://www.w3.org/2000/svg" width="20" height="20" xmlns:xlink="http://www.w3.org/1999/xlink" viewBox="0 0 20 20">
  <defs>
    <mask id="mask" x="2.7753923" y="3.9368" width="13.1782997" height="13.3103" maskUnits="userSpaceOnUse">
      <path d="M11.6254921,16.2435l-7.8487998.0036-.0013-11.3091,11.1782997-.0012-.0049,8.6871c0,1.2487-1.7765,2.6196-3.3232999,2.6196Z" fill="#fff" fill-rule="evenodd" stroke="#fff" stroke-linecap="round" stroke-linejoin="round" stroke-width="2"/>
    </mask>
    <linearGradient id="New_Gradient_133" data-name="New Gradient 133" x1="6.0633178" y1="3.8221042" x2="12.5937168" y2="17.2114065" gradientUnits="userSpaceOnUse">
      <stop offset="0" stop-color="#e5e5e5"/>
      <stop offset="1" stop-color="#fff"/>
    </linearGradient>
    <radialGradient id="New_Gradient_134" data-name="New Gradient 134" cx="-28.3170304" cy="79.9629112" fx="-28.3170304" fy="79.9629112" r="3.6345618" gradientTransform="translate(41.4199 -54.1937) scale(1.0709 .8431)" gradientUnits="userSpaceOnUse">
      <stop offset="0" stop-color="#fff"/>
      <stop offset="1" stop-color="#ccc"/>
    </radialGradient>
    <mask id="mask-1" x="3.7753923" y="4.9368" width="11.1978997" height="11.3519" maskUnits="userSpaceOnUse">
      <path d="M11.6254921,16.2435l-7.8487998.0036-.0013-11.3091,11.1782997-.0012-.0049,8.6871c0,1.2487-1.7765,2.6196-3.3232999,2.6196Z" fill="#fff" fill-rule="evenodd"/>
    </mask>
    <linearGradient id="New_Gradient_131" data-name="New Gradient 131" x1="6.0633178" y1="3.8221042" x2="12.5937168" y2="17.2114065" gradientUnits="userSpaceOnUse">
      <stop offset="0" stop-color="#e5e5e5"/>
      <stop offset=".286514" stop-color="#f2f2f2"/>
      <stop offset=".646072" stop-color="#fff"/>
      <stop offset="1" stop-color="#fff"/>
    </linearGradient>
    <radialGradient id="New_Gradient_132" data-name="New Gradient 132" cx="-28.3170304" cy="79.9629112" fx="-28.3170304" fy="79.9629112" r="3.6345618" gradientTransform="translate(41.4199 -54.1937) scale(1.0709 .8431)" gradientUnits="userSpaceOnUse">
      <stop offset="0" stop-color="#e5e5e5"/>
      <stop offset=".331467" stop-color="#e5e5e5"/>
      <stop offset="1" stop-color="#999"/>
    </radialGradient>
    <linearGradient id="New_Gradient_Swatch_18" data-name="New Gradient Swatch 18" x1="8.7786922" y1="7.44155" x2="16.285392" y2="7.44155" gradientUnits="userSpaceOnUse">
      <stop offset="0" stop-color="#b0caff"/>
      <stop offset=".1381484" stop-color="#97b5f2"/>
      <stop offset=".4019205" stop-color="#6f93dd"/>
      <stop offset=".64258" stop-color="#527ace"/>
      <stop offset=".8499057" stop-color="#406bc5"/>
      <stop offset="1" stop-color="#3a66c2"/>
    </linearGradient>
    <mask id="mask-2" x="7.9441922" y="2.8536" width="9.1758078" height="9.1782" maskUnits="userSpaceOnUse">
      <path d="M14.5051921,3.6881h-5.1460999c-.1992,0-.3935.0501-.5804.1393v2.363h4.6843999c.1454.3861.3189079.204.3189079,1.2499,0,1.0471-.1735079.8675-.3189079,1.2536h-4.6843999v2.3617c.1869.0893.3812.1394.5804.1394h5.1460999c1.4431,0,1.7802-.7576,1.7802-3.7547,0-2.9959-.3371-3.7522-1.7802-3.7522Z" fill="#fff"/>
    </mask>
    <radialGradient id="radial-gradient" cx="10.7273137" cy="4.0273345" fx="10.7273137" fy="4.0273345" r="9.9670787" gradientTransform="translate(-.3631 .0919)" gradientUnits="userSpaceOnUse">
      <stop offset="0" stop-color="#c40000"/>
      <stop offset="1" stop-color="#740000"/>
    </radialGradient>
    <radialGradient id="radial-gradient-2" cx="16.1297286" cy="11.9331826" fx="16.1297286" fy="11.9331826" r="15.6711795" gradientTransform="translate(-.3631 .0919)" gradientUnits="userSpaceOnUse">
      <stop offset="0" stop-color="#c40000"/>
      <stop offset="1" stop-color="#740000"/>
    </radialGradient>
    <linearGradient id="linear-gradient" x1="7.9441922" y1="7.3731" x2="10.4451922" y2="7.3731" gradientUnits="userSpaceOnUse">
      <stop offset="0" stop-color="#fff"/>
      <stop offset=".184472" stop-color="#fcfcfc"/>
      <stop offset=".3174053" stop-color="#f2f2f2"/>
      <stop offset=".4342052" stop-color="#e2e2e2"/>
      <stop offset=".5417015" stop-color="#ccc"/>
      <stop offset=".6428948" stop-color="#afafaf"/>
      <stop offset=".7393118" stop-color="#8c8c8c"/>
      <stop offset=".8320115" stop-color="#626262"/>
      <stop offset=".9193608" stop-color="#323232"/>
      <stop offset="1" stop-color="#000"/>
    </linearGradient>
  </defs>
  <g>
    <g>
      <g mask="url(#mask)">
        <g>
          <path d="M11.6254921,16.2435l-7.8487998.0036-.0013-11.3091,11.1782997-.0012-.0049,8.6871c0,1.2487-1.7765,2.6196-3.3232999,2.6196Z" fill="url(#New_Gradient_133)" fill-rule="evenodd"/>
          <path d="M11.0951921,16.2887s1.9035-.0574,1.9035-1.7203c1.9562,0,1.9746-1.3429,1.9746-1.3429l-.001292,3.0632h-3.8768079Z" fill="url(#New_Gradient_134)" fill-rule="evenodd"/>
          <path d="M11.6254921,16.2435l-7.8487998.0036-.0013-11.3091,11.1782997-.0012-.0049,8.6871c0,1.2487-1.7765,2.6196-3.3232999,2.6196Z" fill="none" fill-rule="evenodd" stroke="#000" stroke-linecap="round" stroke-linejoin="round" stroke-width="2"/>
        </g>
      </g>
      <g mask="url(#mask-1)">
        <g>
          <path d="M11.6254921,16.2435l-7.8487998.0036-.0013-11.3091,11.1782997-.0012-.0049,8.6871c0,1.2487-1.7765,2.6196-3.3232999,2.6196Z" fill="url(#New_Gradient_131)" fill-rule="evenodd"/>
          <path d="M11.0951921,16.2887s1.3232-.418,1.3232-2.0808c1.9573,0,2.5548999-.9824,2.5548999-.9824l-.001292,3.0632h-3.8768079Z" fill="url(#New_Gradient_132)" fill-rule="evenodd"/>
        </g>
      </g>
    </g>
    <line x1="5.6520923" y1="4.844" x2="5.6520923" y2="16.1041" fill="none" opacity=".75" stroke="#d68100" stroke-miterlimit="3.8637"/>
    <line x1="13.1587921" y1="4.9393" x2="13.1587921" y2="16.384" fill="none" opacity=".75" stroke="#d68100" stroke-miterlimit="3.8637"/>
    <line x1="3.7753923" y1="14.2458" x2="14.972" y2="14.2458" fill="none" opacity=".75" stroke="#d68100" stroke-miterlimit="3.8637"/>
    <line x1="3.7753923" y1="6.8159" x2="14.972" y2="6.8159" fill="none" opacity=".75" stroke="#d68100" stroke-miterlimit="3.8637"/>
  </g>
  <g>
    <path d="M14.5051921,3.6881h-5.1460999c-.1992,0-.3935.0501-.5804.1393v2.363h4.6843999c.1454.3861.3189079.204.3189079,1.2499,0,1.0471-.1735079.8675-.3189079,1.2536h-4.6843999v2.3617c.1869.0893.3812.1394.5804.1394h5.1460999c1.4431,0,1.7802-.7576,1.7802-3.7547,0-2.9959-.3371-3.7522-1.7802-3.7522Z" fill="url(#New_Gradient_Swatch_18)" stroke="#000" stroke-linecap="round" stroke-linejoin="round" stroke-width="2"/>
    <g mask="url(#mask-2)">
      <g>
        <path d="M14.5051921,3.6881h-5.1460999c-.1992,0-.3935.0501-.5804.1393v2.363h4.6843999c.1454.3861.3189079.204.3189079,1.2499,0,1.0471-.1735079.8675-.3189079,1.2536h-4.6843999v2.3617c.1869.0893.3812.1394.5804.1394h5.1460999c1.4431,0,1.7802-.7576,1.7802-3.7547,0-2.9959-.3371-3.7522-1.7802-3.7522Z" fill="url(#radial-gradient)"/>
        <path d="M14.5051921,4.5239h-5.1460999c-.1992,0,.441.0513.254.1392v2.363h4.6843999c.1454.3849.3202-.6317.3202.4142,0,1.0471-.1748,1.7021-.3202,2.0881h-4.6843999v2.3642c.187.0879-.4532.1392-.254.1392h5.1460999c1.4431,0,2.6148079-1.5944,2.6148079-4.5915,0-2.9959-1.171708-2.9164-2.6148079-2.9164Z" fill="url(#radial-gradient-2)"/>
        <rect x="7.9441922" y="2.8536" width="2.5009999" height="9.039" fill="url(#linear-gradient)"/>
      </g>
    </g>
  </g>
</svg>