<?xml version='1.0' encoding='UTF-8'?>
<svg xmlns="http://www.w3.org/2000/svg" xmlns:xlink="http://www.w3.org/1999/xlink" id="Set_2" data-name="Set 2" width="20" height="20" viewBox="0 0 20 20">
  <defs>
    <linearGradient id="linear-gradient" x1="6.1618807" y1="12.9707511" x2="13.7354442" y2="6.6157767" gradientUnits="userSpaceOnUse">
      <stop offset="0" stop-color="#d68112"/>
      <stop offset=".117981" stop-color="#ebb310"/>
      <stop offset=".516861" stop-color="#fff"/>
      <stop offset=".882019" stop-color="#ebb310"/>
      <stop offset="1" stop-color="#c96b0a"/>
    </linearGradient>
    <linearGradient id="linear-gradient-2" x1="3.6647153" y1="9.8169016" x2="16.1773826" y2="9.8169016" gradientUnits="userSpaceOnUse">
      <stop offset="0" stop-color="#2b76b4"/>
      <stop offset=".117981" stop-color="#b2d6e8"/>
      <stop offset=".516861" stop-color="#fff"/>
      <stop offset=".882019" stop-color="#b2d6e8"/>
      <stop offset="1" stop-color="#2b76b4"/>
    </linearGradient>
    <mask id="mask" x="4.4322505" y="4.3092351" width="10.9777221" height="11.0154894" maskUnits="userSpaceOnUse">
      <path d="M9.8501952,4.5693c2.9922999-.0538,5.4834999,2.3079,5.5579999,5.2738.0758049,2.9739-2.2822999,5.4242-5.2769999,5.4806-2.9920999.0574-5.4845999-2.3044-5.5628999-5.2747-.0758-2.9689,2.2859999-5.4216,5.2818999-5.4797Z" fill="#fff"/>
    </mask>
    <radialGradient id="New_Gradient_94" data-name="New Gradient 94" cx="13.4858267" cy="12.6033497" fx="13.4858267" fy="12.6033497" r="8.490483" gradientTransform="translate(-.3191 .315)" gradientUnits="userSpaceOnUse">
      <stop offset="0" stop-color="#e5e5e5"/>
      <stop offset=".280899" stop-color="#e5e5e5"/>
      <stop offset="1" stop-color="#999"/>
    </radialGradient>
    <radialGradient id="New_Gradient_103" data-name="New Gradient 103" cx="-111.9723985" cy="18.3808094" fx="-111.9723985" fy="18.3808094" r="10.0835513" gradientTransform="translate(93.9819 16.6834786) rotate(12.3491977) scale(.7612127 .7119338) skewX(12.9844293)" gradientUnits="userSpaceOnUse">
      <stop offset="0" stop-color="#fff"/>
      <stop offset=".48877" stop-color="#f2f2f2"/>
      <stop offset="1" stop-color="#ccc"/>
    </radialGradient>
    <linearGradient id="linear-gradient-3" x1="6.2608543" y1="6.1566984" x2="15.2172491" y2="15.1130932" gradientUnits="userSpaceOnUse"><stop offset="0" stop-color="#2b76b4"/><stop offset=".117981" stop-color="#b2d6e8"/><stop offset=".516861" stop-color="#fff"/><stop offset=".882019" stop-color="#b2d6e8"/><stop offset="1" stop-color="#2b76b4"/></linearGradient>
  </defs>
  <path d="M9.684,3.5625h0c-1.6995047.0329-3.2646047.7349-4.4058047,1.9781-1.0788,1.1747-1.6507,2.7057-1.6116,4.3123.0965,3.4944,3.0068999,6.2833,6.4915998,6.2184,1.7006-.0341,3.2644999-.7355,4.4056999-1.9793,1.0813-1.1742,1.6507-2.7069,1.6116-4.3123-.0929-3.4938-3.0043999-6.282-6.491495-6.2172ZM5.657,9.864c0-1.0447.3908953-2.0441,1.1080953-2.8261.8088-.8797,1.9146-1.3752,3.1205999-1.3977,2.3506999-.0446,4.2383999,1.7215,4.2970999,4.0185.0305,1.0868-.3642,2.1314-1.107,2.9384-.8076.8785-1.9121,1.3758-3.1193999,1.396-2.3506999.0457-4.2370999-1.7197-4.2968999-4.0179-.0024953-.0379-.0024953-.0752-.0024953-.1112Z" fill="url(#linear-gradient)" fill-rule="evenodd" stroke="#000" stroke-miterlimit="3.8637" stroke-width="2"/>
  <path d="M9.684,3.5625h0c-1.6995047.0329-3.2646047.7349-4.4058047,1.9781-1.0788,1.1747-1.6507,2.7057-1.6116,4.3123.0965,3.4944,3.0068999,6.2833,6.4915998,6.2184,1.7006-.0341,3.2644999-.7355,4.4056999-1.9793,1.0813-1.1742,1.6507-2.7069,1.6116-4.3123-.0929-3.4938-3.0043999-6.282-6.491495-6.2172ZM5.657,9.864c0-1.0447.3908953-2.0441,1.1080953-2.8261.8088-.8797,1.9146-1.3752,3.1205999-1.3977,2.3506999-.0446,4.2383999,1.7215,4.2970999,4.0185.0305,1.0868-.3642,2.1314-1.107,2.9384-.8076.8785-1.9121,1.3758-3.1193999,1.396-2.3506999.0457-4.2370999-1.7197-4.2968999-4.0179-.0024953-.0379-.0024953-.0752-.0024953-.1112Z" fill="url(#linear-gradient-2)" fill-rule="evenodd"/>
  <g mask="url(#mask)">
    <g>
      <path d="M9.8501952,4.5693c2.9922999-.0538,5.4834999,2.3079,5.5579999,5.2738.0758049,2.9739-2.2822999,5.4242-5.2769999,5.4806-2.9920999.0574-5.4845999-2.3044-5.5628999-5.2747-.0758-2.9689,2.2859999-5.4216,5.2818999-5.4797Z" fill="url(#New_Gradient_94)"/>
      <path d="M9.4481952,4.3102c2.8430999-.0543,5.2109999,2.1901,5.2829999,5.0089.0734,2.8235-2.1722999,5.1529-5.0154999,5.2061-2.8442999.0519-5.2072999-2.1908-5.2816952-5.01-.0734047-2.8225,2.1722953-5.1531,5.0141952-5.205Z" fill="url(#New_Gradient_103)"/>
    </g>
  </g>
  <path d="M9.6961952,4.3793c3.0129999-.0568,5.6141999,2.3642,5.6948999,5.4223.0769049,2.9721-2.2737999,5.3979-5.2476999,5.4536-3.0140999.0555-5.6092999-2.3654-5.6911999-5.4242-.0769-2.9696,2.2725999-5.3967,5.2439999-5.4517ZM9.8696952,4.8246c-2.8332999.0537-5.0679999,2.3856-4.9959999,5.1725.0733047,2.7039,2.3019999,4.8659,5.0961999,4.8121,2.8358999-.0513,5.0705999-2.3849,4.9971999-5.1737-.0720951-2.7021-2.3017999-4.8634-5.0973999-4.8109Z" fill="url(#linear-gradient-3)" fill-rule="evenodd"/>
  <g>
    <polygon points="11.8258952 7.008 12.1312951 7 12.1031951 5.8644 11.8318952 5.8675 11.4518952 6.1284 11.5924952 6.3274 11.8051952 6.1686 11.8258952 7.008" fill="#b2b2b2" fill-rule="evenodd"/>
    <path d="M12.9486951,8.3123l.8283049-.0158-.0073049-.2158-.4521.0105.0819-.0709c.1052-.0953.3398-.3238.3324-.545-.0048951-.2249-.1918-.3287-.4484-.3262-.0672.003-.1723.0134-.3372.0745l.0183.2351c.0709-.0426.2017-.0799.2993-.083.0916-.0011.1637.0398.165.1387.0025.1527-.2566.3781-.4864.5815l.0062.2164Z" fill="#b2b2b2" fill-rule="evenodd"/>
    <path d="M13.5510951,9.4546c.0646-.0274.16-.0469.2639049-.0469.0903951-.0012.1978951.0152.1990951.1257,0,.0918-.1099.1271-.1833.1284-.0415.0036-.0769.0036-.1307.0024l.0049049.1991c.0353951-.0036.0781951-.0055.1270951-.0067.0733-.0012.2089049.0104.2138.1259.0024.1191-.1381.1491-.2297.1502-.1076.0006-.2101-.0073-.2835-.0482l-.0085.2407c.0844.0251.2077.0336.3359.0306.2249049-.0031.4986-.082.4913-.3629-.0062-.1412-.0978-.2266-.2347-.2512l-.0012-.0043c.1271-.0372.2065049-.1245.2028-.2534-.0072951-.2486-.2442951-.3073-.4557-.3024-.1282.0013-.2297.0196-.3335.0538l.022.2192Z" fill="#b2b2b2" fill-rule="evenodd"/>
    <path d="M13.4275951,12.3448l.281-.0074-.0048-.2168.1637-.0029-.0049-.2035-.1649.0036-.0184-.7154-.3371.0049-.4423.6879.0073.2432.5119-.0117.0085.2181ZM13.4313951,11.9214l-.3141.0049.2982-.4856h.0036l.0123.4807Z" fill="#b2b2b2" fill-rule="evenodd"/>
    <path d="M11.6426952,13.2465c.0817-.0207.1649-.0305.2466-.0324.1223-.0006.2566.0355.2628.1619.0036.1454-.1162.1839-.2285.1869-.0977.0013-.1943-.0152-.2797-.0562l-.0012.2463c.0964.0182.1953048.0348.3102.0341.253-.0079.4997-.1087.4912-.4264-.0060951-.2517-.2113-.35-.4448-.3426-.0219.0005-.0512951.0012-.0928.0084l-.0061-.1917.4876048-.0079-.0062049-.2053-.7489.0153.0098.6096Z" fill="#b2b2b2" fill-rule="evenodd"/>
    <path d="M10.3352952,13.3156c-.0868-.033-.1821-.0495-.2981-.047-.3813.0061-.4998.2987-.4864.6463.0049.2846.1247.5344.4521.5303.2542-.0037.4228-.1809.4204-.3917-.0062-.2052-.1418-.3573-.3544-.353-.1148.0036-.1943.0445-.2456.1215l-.0012-.0012c-.0025-.1998.0525-.3348.2578-.3372.1149-.0025.1967.0231.2444.0556l.011-.2236ZM9.8415952,14.0797c-.0023-.0898.0464048-.1684.1443-.1709.1087,0,.1515.0824.1526.1752.0012.0881-.0464.1657-.1429.1657-.0989.0023-.1515-.0794-.154-.17Z" fill="#b2b2b2" fill-rule="evenodd"/>
    <polygon points="7.7314953 13.8769 8.0614952 13.8708 8.4475952 12.9716 8.4426952 12.726 7.6166953 12.7407 7.6228953 12.9552 8.1347952 12.9466 7.7314953 13.8769" fill="#b2b2b2" fill-rule="evenodd"/>
    <path d="M6.1260953,11.5696c.0025.1143.0954.2065.2028.2376v.0049-.0018c-.1234.0367-.2236.1179-.2187.2828.0049.2329.2077.3202.451.3165.2418047-.0043.4495-.1057.4409-.347-.0036-.1723-.1112-.2419-.2345-.2774l-.0013-.0005c.1003-.041.1858-.1248.182-.2652-.0072-.1997-.1746-.2877-.4007-.2847-.2261.0043-.4289.0934-.4215.3348ZM6.7088953,12.056c.0036.0922-.0672.1471-.1527.1483-.0807.0025-.1503-.0561-.1514-.1363-.0013-.0891.0549-.1362.1282047-.1728.0794953.0207.1722953.0587.1758953.1608ZM6.4034953,11.5696c-.0037-.0795.0562-.1363.1307-.1411.0647-.0006.1345.0379.1368047.121.0024953.077-.0427047.1166-.1234047.1668-.0721-.0343-.1428-.0649-.1441-.1467Z" fill="#b2b2b2" fill-rule="evenodd"/>
    <path d="M5.58,10.5078c.0866953.0324.1795953.047.2968953.0453.3799-.0049.4984-.2956.4899-.644-.0086-.2839-.1257953-.5364-.4532-.5315-.2541.0038-.4264.1821-.4215.3917.0049047.2059.1416.3561.3517.353.1174-.003.1931-.0426.2457-.1191l.0048-.0018c.0025.201-.0574.3336-.259.3391-.1148.0024-.1942-.0238-.2432-.0569l-.0120953.2242ZM6.0711953,9.7442c.0024.0868-.0428.1687-.1441953.1692-.1039047.0031-.1467047-.0824-.1516047-.1753,0-.0855.049-.1636.1431-.1642.0977,0,.1502.0792.1527.1703Z" fill="#b2b2b2" fill-rule="evenodd"/>
    <g>
      <polygon points="5.9220953 8.7289 6.2311953 8.7222 6.2017953 7.5865 5.933 7.5938 5.5494953 7.8498 5.69 8.0532 5.9024953 7.8962 5.9220953 8.7289" fill="#b2b2b2" fill-rule="evenodd"/>
      <path d="M6.836,8.7313c.3786953-.0066.4373953-.303.43-.5955-.011-.2939-.083-.5859-.4605047-.5798-.3789.0062-.4374.3011-.4289.5967.0098.2934.0819.5847.4594047.5786ZM6.8311953,8.5255c-.137.0036-.1553-.1973-.1613-.3794-.0025-.1783.0036-.3811.1405-.3836.1379-.0024.1551.1972.1612.3782.0037.1813-.0048.3829-.1404.3848Z" fill="#b2b2b2" fill-rule="evenodd"/>
    </g>
    <g>
      <polygon points="7.3418953 7.074 7.6484953 7.0722 7.6166953 5.9358 7.3466953 5.9408 6.9642953 6.1961 7.1084953 6.3995 7.3197953 6.2419 7.3418953 7.074" fill="#b2b2b2" fill-rule="evenodd"/>
      <polygon points="8.1310952 7.0605 8.4352952 7.055 8.4060952 5.9194 8.1371952 5.9249 7.7547953 6.1809 7.8963953 6.3837 8.1090952 6.2291 8.1310952 7.0605" fill="#b2b2b2" fill-rule="evenodd"/>
    </g>
    <g>
      <polygon points="9.4103952 6.3585 9.7108952 6.3525 9.6864952 5.2168 9.4177952 5.2205 9.0327952 5.4795 9.1781952 5.6823 9.3882952 5.5253 9.4103952 6.3585" fill="#b2b2b2" fill-rule="evenodd"/>
      <path d="M9.8367952,6.3487l.8272048-.0139-.0074048-.2163-.4509.0116.0807-.0721c.1074-.0959.3409-.3225.3348-.5449-.0049-.228-.1918-.3299-.4485-.3238-.0671,0-.1771.0104-.3383.0709l.0169.237c.071-.0428.2018-.0813.2995-.0843.0915-.0019.1649.039.1686.1405.0037.1546-.2613952.3757-.4888.5791l.0062.2162Z" fill="#b2b2b2" fill-rule="evenodd"/>
    </g>
  </g>
  <g>
    <path d="M9.5410952,10.3783c.0146.6097,1.0373.5719,1.0189048-.0892-.0073048-.3341-.3103048-3.2793-.3103048-3.2793l-.4435-.0092-.2651,3.3777Z" fill="#b2b2b2" fill-rule="evenodd"/>
    <path d="M9.6290952,9.8897c-.4692.1057-.3044,1.1179.2089048,1.0006.2565952-.0568,3.2157951-.6977,3.2157951-.6977l-.0134-.3812-3.4112999.0783Z" fill="#b2b2b2" fill-rule="evenodd"/>
    <path d="M9.3064952,10.1621c.0158.6103,1.0373.5724,1.0202-.0892-.0073-.3342-.3103-3.2793-.3103-3.2793l-.4423-.0074-.2676,3.3759Z" fill="#a70000" fill-rule="evenodd"/>
    <path d="M9.596,9.6012c-.4692048.107-.3054048,1.1174.2101952,1.0019.253-.0574,3.2170999-.6976,3.2170999-.6976l-.0122951-.3776-3.415.0733Z" fill="red" fill-rule="evenodd"/>
  </g>
</svg>