<?xml version="1.0" encoding="UTF-8"?>
<svg id="Set_1" data-name="Set 1" xmlns="http://www.w3.org/2000/svg" width="20" height="20" viewBox="0 0 20 20">
  <g>
    <path d="M5.9921,17.8195l-.3506,1.2927h-1.1803l1.5382-5.0362h1.487l1.57,5.0362h-1.2255l-.3884-1.2927h-1.4504ZM7.2702,16.968l-.3141-1.0685c-.0818-.2987-.171-.68-.2468-.9714h-.0219c-.0674.2988-.1491.6801-.2237.9714l-.3067,1.0685h1.1132Z"/>
    <path d="M9.7284,14.151c.2981-.0598.8968-.1123,1.4723-.1123.6941,0,1.1204.0672,1.4869.284.3506.1869.5975.5304.5975.994,0,.4404-.2615.8515-.8222,1.0685v.0147c.5753.1496,1.0017.59,1.0017,1.2407,0,.463-.21.8216-.5241,1.0684-.3653.2915-.9786.4557-1.9793.4557-.5608,0-.9787-.0378-1.2328-.075v-4.9387ZM10.8561,16.0712h.3739c.6048,0,.9188-.2469.9188-.6201,0-.3812-.2908-.5827-.8063-.5827-.2543,0-.396.0145-.4864.0371v1.1657ZM10.8561,18.3052c.1124.0226.2468.0226.4411.0226.5155,0,.9714-.2015.9714-.7324,0-.5083-.4559-.7099-1.024-.7099h-.3885v1.4197Z"/>
    <path d="M17.9317,18.9778c-.2016.0972-.6793.2169-1.2842.2169-1.741,0-2.6378-1.0911-2.6378-2.5334,0-1.7186,1.2255-2.6673,2.7491-2.6673.59,0,1.0384.1198,1.24.2242l-.2383.8969c-.2248-.0971-.5461-.187-.9566-.187-.8968,0-1.5993.5455-1.5993,1.6733,0,1.0093.5974,1.644,1.6066,1.644.3506,0,.7245-.0672.9567-.1644l.1638.8968Z"/>
  </g>
  <path d="M10.9734,4.95147l-.3506,1.29267h-1.1803l1.5383-5.03631h1.487l1.57,5.03631h-1.2255l-.3886-1.29267h-1.4503ZM12.2514,4.09982l-.314-1.06847c-.0819-.29864-.1711-.67986-.2467-.97125h-.0221c-.0672.29864-.1489.67986-.2236.97125l-.3066,1.06847h1.113Z"/>
  <line x1="11.8066" y1="7.69257" x2="11.8066" y2="11.4374" fill="none" stroke="#297bea" stroke-width="1.3434"/>
  <line x1="14.4873" y1="7.80555" x2="15.7685" y2="11.3243" fill="none" stroke="#297bea" stroke-width="1.3434"/>
  <line x1="9.1267" y1="7.80555" x2="7.8455" y2="11.3243" fill="none" stroke="#297bea" stroke-width="1.3434"/>
</svg>