<?xml version="1.0" encoding="UTF-8"?>
<svg id="Set_2" data-name="Set 2" xmlns="http://www.w3.org/2000/svg" width="20" height="20" viewBox="0 0 20 20">
  <g>
    <g opacity=".3">
      <path d="M17.464194,8.2186c0,.0477-.0331.0898-.1004.1277-.0671.0378-.1453.0568-.2345.0568-.0354,0-.0855-.0067-.1477-.0215-.0624-.0145-.0979-.0311-.1064-.05-.1259-.5198-.4227-1.0941-.8931-1.7233-.4693-.6287-.9103-.9433-1.3232-.9433h-.2004c-.2053,0-.3532.0459-.4434941.1356-.088.0898-.1333059.2297-.1333059.4197v6.7469c0,.3799.0844.6597.2541.84.1687.1801.5133.2992,1.0314.3554.0267,0,.0512.0404.0744.1204.022.08.0318.1436.0318.1913,0,.0562-.0098.1221-.0318.1972-.0232.0758-.0477.1137-.0744.1137-.4289,0-.87-.0152-1.3221-.0446-.4534-.0299-.8809-.0446-1.2866-.0446-.4142,0-.8442.0147-1.2938.0446-.4472.0294-.8896.0446-1.3281.0446-.027,0-.0513-.0379-.0734-.1137-.022-.0751-.033-.141-.033-.1972,0-.0477.011-.1088.033-.1839.0221-.0752.0464-.1179.0734-.1278.5278-.0666.8723-.1843,1.0385-.3554.1636-.1712.2467-.451.2467-.84v-6.7469c0-.2083-.0403-.3537-.1207942-.4344-.0795058-.0805-.2323058-.1209-.4559058-.1209h-.1063c-.3664,0-.8186.2915-1.3549.8723-.5364.5822-.9164,1.1798-1.14,1.7943-.0084.0293-.0415.0476-.0988942.0568-.0599058.0098-.1064058.0147-.1418058.0147-.0806,0-.1587-.019-.2346-.0568-.0755943-.0379-.1135-.08-.1135-.1277.0879057-.4723.1807-1.0502.2809057-1.7351.1025942-.6853.1735942-1.2541.2174942-1.7074.314.0562.804.102,1.4687.1399.6646.0367,1.7117.0557,3.1399999.0557,1.2218059,0,2.2383999-.019,3.0520999-.0557.8125-.0379,1.3488-.0837,1.6103-.1399.0245.4533.0587.9916.101406,1.6153.041594.6231.086894,1.2329.138194,1.8272Z"/>
    </g>
    <path d="M12.4595941,8.2186c0,.0477-.033.0898-.1002.1277-.0673.0378-.1453941.0568-.2347.0568-.0353,0-.0854-.0067-.1476941-.0215-.0623059-.0145-.0978059-.0311-.1064059-.05-.1258-.5198-.4227-1.0941-.8931-1.7233-.4692-.6287-.9102-.9433-1.3232-.9433h-.2002942c-.2053058,0-.3533058.0459-.4436058.1356-.0879.0898-.1332.2297-.1332.4197v6.7469c0,.3799.0843.6597.2541.84.1687058.1801.5132.2992,1.0313.3554.0268,0,.0513.0404.0745.1204.022.08.0317.1436.0317.1913,0,.0562-.0097.1221-.0317.1972-.0232.0758-.0477.1137-.0745.1137-.4289,0-.8699-.0152-1.3221-.0446-.4532-.0299-.8809-.0446-1.2864942-.0446-.4143057,0-.8442057.0147-1.2939057.0446-.4470943.0294-.8894.0446-1.3280943.0446-.0269057,0-.0513057-.0379-.0733057-.1137-.022-.0751-.0331-.141-.0331-.1972,0-.0477.0111-.1088.0331-.1839.022-.0752.0464-.1179.0733057-.1278.5277943-.0666.8723943-.1843,1.0385943-.3554.1636-.1712.2467-.451.2467-.84v-6.7469c0-.2083-.0402943-.3537-.1209-.4344-.0793943-.0805-.2321-.1209-.4557-.1209h-.1064c-.3664,0-.8186.2915-1.355.8723-.5364.5822-.9162943,1.1798-1.1399,1.7943-.0085.0293-.0415.0476-.0989.0568-.0598.0098-.1064.0147-.1418.0147-.0806,0-.1588-.019-.2346-.0568-.0757-.0379-.1136-.08-.1136-.1277.0879-.4723.1808-1.0502.281-1.7351.1026-.6853.1735056-1.2541.2175056-1.7074.314.0562.8038943.102,1.4686943.1399.6645.0367,1.7117.0557,3.1399999.0557,1.2218,0,2.2383057-.019,3.0520999-.0557.8125-.0379,1.3488-.0837,1.6103-.1399.0244.4533.0586.9916.1014,1.6153.0416.6231.0868,1.2329.1381,1.8272Z"/>
  </g>
  <g>
    <line x1="4.045" y1="17.0383" x2="17.332094" y2="17.0383" fill="none" stroke="#000" stroke-linecap="round" stroke-miterlimit="3.8637" stroke-width=".7125"/>
    <polyline points="14.8628941 17.4896 14.8628941 18.5502 17.258694 16.6687 14.8628941 14.7852 14.8628941 15.8732"/>
    <polyline points="4.8464943 17.4896 4.8464943 18.5502 2.4504944 16.6687 4.8464943 14.7852 4.8464943 15.8732"/>
  </g>
</svg>