<?xml version="1.0" encoding="UTF-8"?>
<svg id="Set_4" data-name="Set 4" xmlns="http://www.w3.org/2000/svg" width="20" height="20" xmlns:xlink="http://www.w3.org/1999/xlink" viewBox="0 0 20 20">
  <defs>
    <radialGradient id="radial-gradient" cx="16.0728478" cy="8.7390322" fx="16.0728478" fy="8.7390322" r="11.2793016" gradientTransform="translate(-4.4084 1.8261) scale(1.0588 1.0468)" gradientUnits="userSpaceOnUse">
      <stop offset=".5" stop-color="#fff"/>
      <stop offset=".5120147" stop-color="#f4f4f4"/>
      <stop offset=".5921692" stop-color="#b4b4b4"/>
      <stop offset=".6712713" stop-color="#7d7d7d"/>
      <stop offset=".7473915" stop-color="#505050"/>
      <stop offset=".81997" stop-color="#2d2d2d"/>
      <stop offset=".8880428" stop-color="#141414"/>
      <stop offset=".9499014" stop-color="#050505"/>
      <stop offset="1" stop-color="#000"/>
    </radialGradient>
  </defs>
  <g>
    <rect x="2.3051" y="2.4551" width="14.9959" height="15.0136" fill="#fff"/>
    <g>
      <g>
        <path d="M6.1385,7.1322l-.3664.7624h-.4692l1.196-2.4229h.5475l1.2016,2.4229h-.4857l-.3757-.7624h-1.2481ZM7.2925,6.8878l-.35-.6975c-.0721-.1576-.1246-.302-.1772-.4412h-.0153c-.0476.1392-.1051.2907-.1728.4374l-.3446.7013h1.0599Z"/>
        <path d="M8.766,5.5476c.1973-.0319.5155-.0551.829-.0551.4552,0,.7478.0551.9616.176.1821.0953.2982.2383.2982.43,0,.2371-.231.4399-.5963.5315v.0098c.3342.055.7257.2456.7257.6048,0,.2077-.1196.3666-.303.4851-.2406.1551-.6378.226-1.2108.226-.314,0-.5535-.0146-.7044-.0294v-2.3787ZM9.2193,6.5384h.413c.4747,0,.757-.1748.757-.408,0-.2798-.3086-.396-.768-.396-.209,0-.3287.0123-.402.0209v.7831ZM9.2193,7.6967c.0941.0109.2193.0147.3812.0147.4699,0,.9035-.1174.9035-.4717,0-.3274-.4129-.4666-.909-.4666h-.3757v.9236Z"/>
        <path d="M14.0504,7.858c-.1637.0586-.5022.116-.9305.116-.9915,0-1.7331-.4313-1.7331-1.2304,0-.7622.7465-1.2719,1.8376-1.2719.4332,0,.716.0648.8364.1087l-.1155.2543c-.1667-.0562-.4124-.1003-.7056-.1003-.8242,0-1.3732.3641-1.3732.9994,0,.5976.4965.9738,1.3481.9738.2811,0,.564-.0402.746-.1l.0898.2504Z"/>
      </g>
      <rect x="4.7896" y="11.2131" width="3.7534" height="1.2511"/>
    </g>
  </g>
  <g>
    <rect x="4.7896" y="2.4551" width="1.2512" height="1.2512" fill="#999"/>
    <rect x="7.2919" y="2.4551" width="1.2511" height="1.2512" fill="#999"/>
    <rect x="9.7942" y="2.4551" width="1.2511" height="1.2512" fill="#999"/>
    <rect x="12.2965" y="2.4551" width="1.2511" height="1.2512" fill="#999"/>
    <rect x="14.7987" y="2.4551" width="1.2512" height="1.2512" fill="#999"/>
    <rect x="16.0499" y="3.7063" width="1.2511" height="1.2511" fill="#999"/>
    <rect x="8.543" y="16.2176" width="1.2512" height="1.2511" fill="#999"/>
    <rect x="11.0453" y="16.2176" width="1.2512" height="1.2511" fill="#999"/>
    <rect x="13.5476" y="16.2176" width="1.2511" height="1.2511" fill="#999"/>
    <rect x="16.0499" y="6.2085" width="1.2511" height="1.2512" fill="#999"/>
    <rect x="16.0499" y="8.7108" width="1.2511" height="1.2511" fill="#999"/>
    <rect x="16.0499" y="11.2131" width="1.2511" height="1.2511" fill="#999"/>
    <rect x="16.0499" y="13.7154" width="1.2511" height="1.2511" fill="#999"/>
    <rect x="6.0408" y="16.2176" width="1.2511" height="1.2511" fill="#999"/>
    <rect x="3.5385" y="16.2176" width="1.2511" height="1.2511" fill="#999"/>
    <rect x="11.0453" y="16.2176" width="1.2512" height="1.2511" fill="#999"/>
    <rect x="13.5476" y="16.2176" width="1.2511" height="1.2511" fill="#999"/>
    <rect x="16.0499" y="16.2176" width="1.2511" height="1.2511" fill="#999"/>
    <rect x="8.543" y="16.2176" width="1.2512" height="1.2511" fill="#999"/>
    <rect x="6.0408" y="16.2176" width="1.2511" height="1.2511" fill="#999"/>
    <rect x="2.2874" y="7.4597" width="1.2511" height="1.2511" fill="#999"/>
    <rect x="2.2874" y="9.9619" width="1.2511" height="1.2512" fill="#999"/>
    <rect x="2.2874" y="12.4642" width="1.2511" height="1.2512" fill="#999"/>
    <rect x="2.2874" y="14.9665" width="1.2511" height="1.2511" fill="#999"/>
    <rect x="2.2874" y="4.9574" width="1.2511" height="1.2511" fill="#999"/>
    <rect x="2.2874" y="2.4551" width="1.2511" height="1.2512" fill="#999"/>
  </g>
  <g>
    <path d="M11.0631,17.7913c0-.5095.4673-.9249,1.0422-.9249h4.1548c.573,0,1.0402.4154,1.0402.9249h0c0,.5094-.4672.926-1.0402.926h-4.1548c-.5749,0-1.0422-.4166-1.0422-.926h0Z" fill="#032c87"/>
    <path d="M16.9876,13.1692c-.1717,0-.3115.2749-.3115.6145v.3092c0,.171-.1389.3091-.3128.3091-.1717,0-.3109-.1381-.3109-.3091v-.9237c0-.3397-.1407-.6146-.3117-.6146s-.3122.2749-.3122.6146v.3079c0,.1698-.1386.3066-.3109.3066-.1722,0-.3128-.1368-.3128-.3066v-.3079c0-.3397-.1404-.6146-.311-.6146-.171,0-.3128.2749-.3128.6146v.3079c0,.1698-.1398.3066-.3115.3066-.171,0-.3109-.1368-.3109-.3066v-2.8981c0-.3397-.2804-.6171-.6232-.6171-.3433,0-.6225.2774-.6225.6171v4.4643c0,.2262-.0916.4375-.237.5915-.5535-.6268-.5809-1.6446-1.3135-2.4058-.2492-.2577-.8467-.2823-.9439-.0536-.0958.2271.1247.6194.2554.8771.5303,1.0362.132,1.7961,1.1565,3.0375.0245.028.8681.1698,1.4466.1698h.6788c.0446,0,.0843-.0061.1282-.0085.024.0011.0489.0085.0746.0085h1.8699c.6872,0,1.8718-.3934,1.8718-1.625h0v-1.8511c0-.3396-.141-.6145-.3127-.6145Z" stroke="#000" stroke-linejoin="round" stroke-width="2"/>
    <path d="M16.9876,13.2731c-.1717,0-.3115.287-.3115.6365v.3177c0,.1747-.1389.3151-.3128.3151-.1717,0-.3109-.1404-.3109,0v-.9504c0-.6683-.1407-.9506-.3117-.9506s-.3122.2823-.3122.6317v.6365c0,.1747-.1386.3177-.3109.3177-.1722,0-.3128-.143-.3128-.3177v-.6365c0-.3494-.1404-.6317-.311-.6317-.171,0-.3128.2823-.3128.6317v.6365c0,.1747-.1398.3177-.3115.3177-.171,0-.3109-.143-.3109-.3177v-3.3124c0-.3481-.2804-.6353-.6232-.6353-.3433,0-.6225.2872-.6225.6353v4.605c0,.2371-.1674.0783-.3121.2408-.5541-.6463-.5058-1.3244-1.2384-2.104-.2492-.2664-.8467-.2908-.9439-.0562-.0958.2333.1247.6379.2554.903.5303,1.0629.132,1.8461,1.1565,3.1241.0245.0268.8681.1722,1.4466.1722h.6788c.0446,0,.0843-.0048.1282-.0085.024.0025.0489.0085.0746.0085h1.8699c.6872,0,1.8718-.4019,1.8718-1.6701h0v-1.9024c0-.3495-.141-.6365-.3127-.6365Z" fill="url(#radial-gradient)"/>
  </g>
</svg>