<?xml version="1.0" encoding="UTF-8"?>
<svg id="Set_4" data-name="Set 4" xmlns="http://www.w3.org/2000/svg" width="20" height="20" viewBox="0 0 20 20">
  <rect x="4.75339" y="4.903" width="1.25114" height="1.2511" fill="#fff"/>
  <rect x="4.75339" y="8.6564" width="1.25114" height="1.2511" fill="#fff"/>
  <rect x="4.75339" y="12.4098" width="1.25114" height="1.2511" fill="#fff"/>
  <rect x="4.75339" y="16.1632" width="1.25114" height="1.2512" fill="#fff"/>
  <rect x="8.5068" y="4.903" width="1.25113" height="1.2511" fill="#fff"/>
  <rect x="8.5068" y="8.6564" width="1.25113" height="1.2511" fill="#fff"/>
  <rect x="8.5068" y="12.4098" width="1.25113" height="1.2511" fill="#fff"/>
  <rect x="8.5068" y="16.1632" width="1.25113" height="1.2512" fill="#fff"/>
  <rect x="12.2602" y="4.903" width="1.2511" height="1.2511" fill="#fff"/>
  <rect x="12.2602" y="8.6564" width="1.2511" height="1.2511" fill="#fff"/>
  <rect x="12.2602" y="12.4098" width="1.2511" height="1.2511" fill="#fff"/>
  <rect x="12.2602" y="16.1632" width="1.2511" height="1.2512" fill="#fff"/>
  <rect x="16.0136" y="4.903" width="1.2511" height="1.2511" fill="#fff"/>
  <rect x="16.0136" y="8.6564" width="1.2511" height="1.2511" fill="#fff"/>
  <rect x="16.0136" y="12.4098" width="1.2511" height="1.2511" fill="#fff"/>
  <rect x="16.0136" y="16.1632" width="1.2511" height="1.2512" fill="#fff"/>
  <g>
    <rect x="3.50227" y="3.6518" width="1.25112" height="1.2512"/>
    <rect x="3.50227" y="7.4052" width="1.25112" height="1.2512"/>
    <rect x="3.50227" y="11.1587" width="1.25112" height="1.2511"/>
    <rect x="3.50227" y="14.9121" width="1.25112" height="1.2511"/>
    <rect x="7.25566" y="3.6518" width="1.25114" height="1.2512"/>
    <rect x="7.25566" y="7.4052" width="1.25114" height="1.2512"/>
    <rect x="7.25566" y="11.1587" width="1.25114" height="1.2511"/>
    <rect x="7.25566" y="14.9121" width="1.25114" height="1.2511"/>
    <rect x="11.0091" y="3.6518" width="1.2511" height="1.2512"/>
    <rect x="11.0091" y="7.4052" width="1.2511" height="1.2512"/>
    <rect x="11.0091" y="11.1587" width="1.2511" height="1.2511"/>
    <rect x="11.0091" y="14.9121" width="1.2511" height="1.2511"/>
    <rect x="14.7624" y="3.6518" width="1.2512" height="1.2512"/>
    <rect x="14.7624" y="7.4052" width="1.2512" height="1.2512"/>
    <rect x="14.7624" y="11.1587" width="1.2512" height="1.2511"/>
    <rect x="14.7624" y="14.9121" width="1.2512" height="1.2511"/>
  </g>
</svg>