<?xml version='1.0' encoding='UTF-8'?>
<svg xmlns="http://www.w3.org/2000/svg" xmlns:xlink="http://www.w3.org/1999/xlink" id="Set_2" data-name="Set 2" width="20" height="20" viewBox="0 0 20 20">
  <defs>
    <linearGradient id="linear-gradient" x1="262.2839592" y1="-101.3053547" x2="265.5599267" y2="-101.3053547" gradientTransform="translate(-52.1688339 -162.6252872) rotate(90.02406) scale(.6515471) skewX(.078627)" gradientUnits="userSpaceOnUse">
      <stop offset="0" stop-color="#ffdea0"/>
      <stop offset=".1547921" stop-color="#f0cf91"/>
      <stop offset=".4521036" stop-color="#c9aa6d"/>
      <stop offset=".8582073" stop-color="#8a6e32"/>
      <stop offset="1" stop-color="#73581c"/>
    </linearGradient>
    <radialGradient id="radial-gradient" cx="509.6101264" cy="-119.1948399" fx="509.6101264" fy="-119.1948399" r="17.1756574" gradientTransform="translate(-218.3018 -32.7004) rotate(28.0647822) scale(.4374353 .624906) skewX(.1037942)" gradientUnits="userSpaceOnUse">
      <stop offset="0" stop-color="#ffdea0"/>
      <stop offset=".0080435" stop-color="#fedc9e"/>
      <stop offset=".3050006" stop-color="#edb55a"/>
      <stop offset=".5538701" stop-color="#e09929"/>
      <stop offset=".7422677" stop-color="#d8870b"/>
      <stop offset=".848315" stop-color="#d68100"/>
    </radialGradient>
    <mask id="mask" x="9.6776962" y="11.9573" width="3.1094999" height="3.2268" maskUnits="userSpaceOnUse">
      <polygon points="12.7871961 12.6477 12.3583962 13.0985 12.1394962 12.3024 11.3581962 12.5652 11.3581962 12.5652 11.4932962 11.9573 11.0644962 12.4081 10.748 14.9215 12.6521961 13.2554 12.7871961 12.6477" fill="#fff"/>
    </mask>
    <radialGradient id="radial-gradient-2" cx="11.4653892" cy="12.4567677" fx="11.4653892" fy="12.4567677" r="2.3096797" gradientUnits="userSpaceOnUse">
      <stop offset="0" stop-color="#ffdea0"/>
      <stop offset=".1216866" stop-color="#f0d091"/>
      <stop offset=".354407" stop-color="#cbad6a"/>
      <stop offset=".41573" stop-color="#c1a35f"/>
    </radialGradient>
    <radialGradient id="radial-gradient-3" cx="-1153.5235642" cy="-166.4023232" fx="-1153.5235642" fy="-166.4023232" r="5.7294671" gradientTransform="translate(-410.1056 -128.1202) rotate(-151.9283976) scale(.3810235 -.4373765) skewX(-.088324)" gradientUnits="userSpaceOnUse">
      <stop offset="0" stop-color="#999"/>
      <stop offset=".0504786" stop-color="#898989"/>
      <stop offset=".2007028" stop-color="#5f5f5f"/>
      <stop offset=".3543074" stop-color="#3d3d3d"/>
      <stop offset=".5095904" stop-color="#222"/>
      <stop offset=".6672868" stop-color="#0f0f0f"/>
      <stop offset=".8287757" stop-color="#030303"/>
      <stop offset="1" stop-color="#000"/>
    </radialGradient>
    <radialGradient id="radial-gradient-4" cx="74.5074804" cy="-166.4522275" fx="74.5074804" fy="-166.4522275" r="5.7284792" gradientTransform="translate(-90.7889 42.2079) rotate(28.066432) scale(1.0019235 .4373765) skewX(.0313319)" gradientUnits="userSpaceOnUse"><stop offset="0" stop-color="#999"/><stop offset=".0504786" stop-color="#898989"/><stop offset=".2007028" stop-color="#5f5f5f"/><stop offset=".3543074" stop-color="#3d3d3d"/><stop offset=".5095904" stop-color="#222"/><stop offset=".6672868" stop-color="#0f0f0f"/><stop offset=".8287757" stop-color="#030303"/><stop offset="1" stop-color="#000"/></radialGradient>
    <linearGradient id="White_Black" data-name="White, Black" x1="263.542886" y1="-107.6316475" x2="265.8450005" y2="-104.408666" gradientTransform="translate(-168.8358 -13.434023) rotate(28.0714524) scale(.6515471) skewX(.078627)" gradientUnits="userSpaceOnUse">
      <stop offset="0" stop-color="#fff"/>
      <stop offset="1" stop-color="#000"/>
    </linearGradient>
    <linearGradient id="linear-gradient-2" x1="229.0911792" y1="-107.5423565" x2="231.8545884" y2="-107.5423565" gradientTransform="translate(-158.394 -8.7024188) rotate(28.0637696) scale(.6959235 .6515237) skewX(.0664206)" gradientUnits="userSpaceOnUse">
      <stop offset="0" stop-color="#ccc"/>
      <stop offset=".0646036" stop-color="#cacaca"/>
      <stop offset=".0891761" stop-color="#c3c3c3"/>
      <stop offset=".1069277" stop-color="#b7b7b7"/>
      <stop offset=".1212965" stop-color="#a6a6a6"/>
      <stop offset=".129213" stop-color="#999"/>
      <stop offset=".1363661" stop-color="#a2a2a2"/>
      <stop offset=".153957" stop-color="#b5b5b5"/>
      <stop offset=".1748508" stop-color="#c2c2c2"/>
      <stop offset=".2020002" stop-color="#c9c9c9"/>
      <stop offset=".258427" stop-color="#ccc"/>
      <stop offset=".3265975" stop-color="#cacaca"/>
      <stop offset=".3539575" stop-color="#c2c2c2"/>
      <stop offset=".3739927" stop-color="#b6b6b6"/>
      <stop offset=".3903486" stop-color="#a5a5a5"/>
      <stop offset=".398876" stop-color="#999"/>
      <stop offset=".4052794" stop-color="#9f9f9f"/>
      <stop offset=".4282017" stop-color="#b3b3b3"/>
      <stop offset=".4546022" stop-color="#c1c1c1"/>
      <stop offset=".4872499" stop-color="#c9c9c9"/>
      <stop offset=".544944" stop-color="#ccc"/>
      <stop offset=".592446" stop-color="#c9c9c9"/>
      <stop offset=".6267399" stop-color="#bfbfbf"/>
      <stop offset=".6567881" stop-color="#b0b0b0"/>
      <stop offset=".6843986" stop-color="#999"/>
      <stop offset=".685393" stop-color="#999"/>
      <stop offset=".7146848" stop-color="#adadad"/>
      <stop offset=".7510613" stop-color="#bebebe"/>
      <stop offset=".7902871" stop-color="#c8c8c8"/>
      <stop offset=".837079" stop-color="#ccc"/>
      <stop offset=".8808857" stop-color="#c7c7c7"/>
      <stop offset=".9290745" stop-color="#bababa"/>
      <stop offset=".9791801" stop-color="#a4a4a4"/>
      <stop offset="1" stop-color="#999"/>
    </linearGradient>
    <linearGradient id="White_Black-2" data-name="White, Black" x1="263.5429482" y1="-109.4931041" x2="265.8451465" y2="-106.2700053" gradientTransform="translate(-168.8358 -13.434023) rotate(28.0714524) scale(.6515471) skewX(.078627)" gradientUnits="userSpaceOnUse"><stop offset="0" stop-color="#fff"/><stop offset="1" stop-color="#000"/></linearGradient>
    <radialGradient id="radial-gradient-5" cx="263.2598442" cy="-110.8085641" fx="263.2598442" fy="-110.8085641" r="3.6770633" gradientTransform="translate(-168.8358 -13.434023) rotate(28.0714524) scale(.6515471) skewX(.078627)" gradientUnits="userSpaceOnUse">
      <stop offset="0" stop-color="#ff7845"/>
      <stop offset=".0609421" stop-color="#f87241"/>
      <stop offset=".1468911" stop-color="#e66238"/>
      <stop offset=".2476895" stop-color="#c74829"/>
      <stop offset=".3588101" stop-color="#9e2414"/>
      <stop offset=".455056" stop-color="#740000"/>
    </radialGradient>
  </defs>
  <g>
    <path d="M16.629796,5.7963l.1869-.3524c.1625-.0813.3066-.2011.4191-.3556.0464-.0647.0636-.1467.045204-.2235-.014604-.0594-.046404-.1113-.091604-.1498.0177-.0555.03-.113.036604-.1709l.059796-.1119c.2335-.4387.0673-.9842-.3719-1.2181-.4386-.234-.983-.0678-1.2164.3714l-.0599.1124c-.0439.0367-.0842.0794-.1208.1258-.0563-.017-.118-.0145-.1747961.0067-.074.0282-.132.088-.16.1631-.066.1791-.0831039.366-.0611039.5462l-.187.3525c-.053-.0135-.1087-.0104-.1613.0092-.0733.0286-.1319.0873-.16.1625-.077.2132-.0893.4362-.0445.6464l-3.5475999,6.6746.044.0232-.3164962,2.5134,1.9041961-1.6661.0409-.1826,3.4626999-6.5153c.1991-.0806.3776-.2149.5106-.3983.0464-.0642.063604-.1466.0452-.2242-.0128-.0538-.042-.1014-.0818-.1387Z" stroke="#000" stroke-linecap="round" stroke-linejoin="round" stroke-width="2"/>
    <rect x="9.6131849" y="8.244822" width="8.2977224" height="1.7995059" transform="translate(-.7795185 16.9905972) rotate(-61.9526076)" fill="url(#linear-gradient)"/>
    <polygon points="12.3136962 13.0753 11.3142962 12.5419 15.2094961 5.2142 16.2095961 5.7475 12.3136962 13.0753" fill="url(#radial-gradient)"/>
    <g mask="url(#mask)">
      <g>
        <polygon points="12.7871961 12.6477 12.3583962 13.0985 12.1394962 12.3024 11.3581962 12.5652 11.3581962 12.5652 11.4932962 11.9573 11.0644962 12.4081 10.748 14.9215 12.6521961 13.2554 12.7871961 12.6477" fill="url(#radial-gradient-2)"/>
        <polygon points="10.6721962 14.8383 10.451 14.4156 10.8823962 13.6032 11.3882962 14.5683 11.1193962 15.0753 10.6721962 14.8383" fill="url(#radial-gradient-3)"/>
        <polygon points="10.8530962 14.9338 11.8915962 15.1841 12.3240962 14.3716 9.9476962 13.7998 9.6776962 14.3075 10.8530962 14.9338" fill="url(#radial-gradient-4)"/>
      </g>
    </g>
    <path d="M16.711596,5.935c-.0177-.077-.0683-.1436-.138596-.1813l-1.5725039-.8377c-.0702-.0379-.1534-.0428-.2279-.0146-.0733.0286-.1319.0873-.16.1625-.2009.5487.036,1.1687.5509,1.443.5157.2748,1.162.1258,1.5029-.3477.0464-.0642.063604-.1466.0452-.2242Z" fill="url(#White_Black)"/>
    <path d="M16.706696,3.6038c-.4685-.2498-1.0373-.0966-1.27.3421l-.5181.9738c-.2327.4386-.0421.9964.4259,1.2468.4685039.2492,1.0373.0966,1.2706-.3426l.5181-.9732c.2334-.4387.042-.997-.4265-1.2469Z" fill="url(#linear-gradient-2)"/>
    <path d="M17.281,4.8648c-.018204-.0789-.069-.1443-.138604-.1815l-1.5713-.8381c-.0708-.0385-.1539-.0428-.2290961-.0148-.074.0282-.132.088-.16.1631-.2011039.5474.0352961,1.1681.551,1.443.5148961.275,1.160796.1245,1.502796-.3482.0464-.0647.0636-.1467.045204-.2235Z" fill="url(#White_Black-2)"/>
    <path d="M16.913896,3.2141c-.4386-.234-.983-.0678-1.2164.3714l-.1551.2919c-.2333961.4387-.0672.9843.372,1.2176.4386039.234.983.0679,1.2163-.3708l.1551-.292c.2335-.4387.0673-.9842-.3719-1.2181Z" fill="url(#radial-gradient-5)"/>
    <path d="M14.5050961,8.4825c-.0875.1661-.2969.2278-.4642.1381h0c-.1687-.0899-.234-.2982-.1455-.4638l.5858-1.1039c.0886-.1662.2963-.2277.4655-.1379h0c.1693039.0903.234.2981.1455.4642l-.5871,1.1033Z"/>
    <path d="M14.5050961,7.8264l.185.0983-.0164.0318c-.0391.0721-.077.135-.1149.1863-.0347961.0477-.0734.0886-.1154.1235-.0959.0793-.1753961.1013-.239.0672-.0628-.0337-.0903-.1106-.083-.2322.0074-.1216.0489-.2505.121-.3867.0745-.14.16-.2468.2566039-.3207.0970961-.074.1783961-.0928.2436961-.0587.0348.0189.0587.0519.0727.099.0135.0464.0147.1112.0055.1961l-.1008.0739c.0196-.1247.0031-.2016-.0494-.2298-.0483-.025-.1064-.0109-.1753.0416-.0685.052-.1308.1296-.1858.2334-.0562.1069-.0861.2041-.0868.2927-.0012.0818.0183.1331.0568.1545.0337.0171.0764039.0086.1277-.0244.0526-.033.0978-.0837.1356-.1479l-.1111-.0593.0733-.1386Z" fill="#fff"/>
  </g>
  <path d="M11.1358962,14.7485c-1.5242.2749-2.7874999,1.743-4.6208962,1.146-2.1759036-.7092-1.0355037-2.8803-.1765037-4.2078,1.5291-2.3624.1827-7.7732-3.4045999-7.5038" fill="none" opacity=".6" stroke="#000"/>
</svg>