<?xml version='1.0' encoding='UTF-8'?>
<svg xmlns="http://www.w3.org/2000/svg" xmlns:xlink="http://www.w3.org/1999/xlink" id="Icons_-_24x24" data-name="Icons - 24x24" width="20" height="20" viewBox="0 0 20 20">
  <defs>
    <mask id="mask" x="-.2695071" y="1.8037" width="12.1576376" height="14.5625" maskUnits="userSpaceOnUse">
      <path d="M9.0858927,13.938l-5.7254999,1.4282L.7304929,4.8154l8.0673998-2.0117,2.0409999,8.2105c.2783,1.1147-.666,2.6528-1.753,2.9238Z" fill="#fff" fill-rule="evenodd" stroke="#fff" stroke-linecap="round" stroke-linejoin="round" stroke-width="2"/>
    </mask>
    <linearGradient id="New_Gradient_41" data-name="New Gradient 41" x1="3.369071" y1="3.5284795" x2="8.9499632" y2="14.9710041" gradientUnits="userSpaceOnUse">
      <stop offset="0" stop-color="#e5e5e5"/>
      <stop offset="1" stop-color="#fff"/>
    </linearGradient>
    <radialGradient id="New_Gradient_42" data-name="New Gradient 42" cx="159.5856107" cy="194.0636505" fx="159.5856107" fy="194.0636505" r="4.7060275" gradientTransform="translate(-112.9497 -78.3975) rotate(-14.006111) scale(.5995239)" gradientUnits="userSpaceOnUse">
      <stop offset="0" stop-color="#fff"/>
      <stop offset="1" stop-color="#ccc"/>
    </radialGradient>
    <mask id="mask-1" x=".7304929" y="2.8037" width="10.7176997" height="12.5625" maskUnits="userSpaceOnUse">
      <path d="M9.0858927,13.938l-5.7254999,1.4282L.7304929,4.8154l8.0673998-2.0117,2.0409999,8.2105c.2783,1.1147-.666,2.6528-1.753,2.9238Z" fill="#fff" fill-rule="evenodd"/>
    </mask>
    <linearGradient id="New_Gradient_39" data-name="New Gradient 39" x1="3.369071" y1="3.5284795" x2="8.9499632" y2="14.9710041" gradientUnits="userSpaceOnUse">
      <stop offset="0" stop-color="#e5e5e5"/>
      <stop offset=".286514" stop-color="#f2f2f2"/>
      <stop offset=".646072" stop-color="#fff"/>
      <stop offset="1" stop-color="#fff"/>
    </linearGradient>
    <radialGradient id="New_Gradient_40" data-name="New Gradient 40" cx="159.5856107" cy="194.0636505" fx="159.5856107" fy="194.0636505" r="4.7060275" gradientTransform="translate(-112.9497 -78.3975) rotate(-14.006111) scale(.5995239)" gradientUnits="userSpaceOnUse">
      <stop offset="0" stop-color="#e5e5e5"/>
      <stop offset=".331467" stop-color="#e5e5e5"/>
      <stop offset="1" stop-color="#999"/>
    </radialGradient>
    <mask id="mask-2" x="3.0585928" y="1.8833" width="11.1268998" height="13.936" maskUnits="userSpaceOnUse">
      <path d="M10.5360927,14.8193h-6.4774998V2.8833h9.1268998l-.0058,9.2861c0,1.2622-1.4141,2.6499-2.6435999,2.6499Z" fill="#fff" fill-rule="evenodd" stroke="#fff" stroke-linecap="round" stroke-linejoin="round" stroke-width="2"/>
    </mask>
    <linearGradient id="New_Gradient_41-2" data-name="New Gradient 41" x1="5.3936638" y1="2.2321424" x2="11.8500915" y2="15.4697809" gradientUnits="userSpaceOnUse"><stop offset="0" stop-color="#e5e5e5"/><stop offset="1" stop-color="#fff"/></linearGradient>
    <radialGradient id="New_Gradient_42-2" data-name="New Gradient 42" cx="153.251888" cy="35.0791455" fx="153.251888" fy="35.0791455" r="4.703794" gradientTransform="translate(-90.7552 -11.3057) scale(.6582)" gradientUnits="userSpaceOnUse"><stop offset="0" stop-color="#fff"/><stop offset="1" stop-color="#ccc"/></radialGradient>
    <mask id="mask-3" x="4.0585928" y="2.8833" width="9.1395998" height="11.981" maskUnits="userSpaceOnUse">
      <path d="M10.5360927,14.8193h-6.4774998V2.8833h9.1268998l-.0058,9.2861c0,1.2622-1.4141,2.6499-2.6435999,2.6499Z" fill="#fff" fill-rule="evenodd"/>
    </mask>
    <linearGradient id="New_Gradient_39-2" data-name="New Gradient 39" x1="5.3936638" y1="2.2321424" x2="11.8500915" y2="15.4697809" gradientUnits="userSpaceOnUse"><stop offset="0" stop-color="#e5e5e5"/><stop offset=".286514" stop-color="#f2f2f2"/><stop offset=".646072" stop-color="#fff"/><stop offset="1" stop-color="#fff"/></linearGradient>
    <radialGradient id="New_Gradient_40-2" data-name="New Gradient 40" cx="153.251888" cy="35.0791455" fx="153.251888" fy="35.0791455" r="4.703794" gradientTransform="translate(-90.7552 -11.3057) scale(.6582)" gradientUnits="userSpaceOnUse"><stop offset="0" stop-color="#e5e5e5"/><stop offset=".331467" stop-color="#e5e5e5"/><stop offset="1" stop-color="#999"/></radialGradient>
    <mask id="mask-4" x="3.5497928" y=".6665" width="16.7860996" height="18.6188207" maskUnits="userSpaceOnUse">
      <path d="M12.4628926,18.2188l-7.9130998-1.9722L8.1854927,1.6665l11.1503997,2.7783-2.8358924,11.3428c-.3848075,1.5415-2.5342074,2.8062-4.0371074,2.4312Z" fill="#fff" fill-rule="evenodd" stroke="#fff" stroke-linecap="round" stroke-linejoin="round" stroke-width="2"/>
    </mask>
    <linearGradient id="New_Gradient_41-3" data-name="New Gradient 41" x1="7.801144" y1="1.8539594" x2="15.9587899" y2="18.5796121" gradientUnits="userSpaceOnUse"><stop offset="0" stop-color="#e5e5e5"/><stop offset="1" stop-color="#fff"/></linearGradient>
    <radialGradient id="New_Gradient_42-3" data-name="New Gradient 42" cx="45.7652052" cy="-94.653485" fx="45.7652052" fy="-94.653485" r="4.7044284" gradientTransform="translate(-42.8956 81.2975) rotate(13.9892838) scale(.8285747) skewX(-.0134198)" gradientUnits="userSpaceOnUse"><stop offset="0" stop-color="#fff"/><stop offset="1" stop-color="#ccc"/></radialGradient>
    <mask id="mask-5" x="4.5497928" y="1.6665" width="14.7860996" height="17.417" maskUnits="userSpaceOnUse">
      <path d="M12.4628926,18.2188l-7.9130998-1.9722L8.1854927,1.6665l11.1503997,2.7783-2.8358924,11.3428c-.3848075,1.5415-2.5342074,2.8062-4.0371074,2.4312Z" fill="#fff" fill-rule="evenodd"/>
    </mask>
    <linearGradient id="New_Gradient_39-3" data-name="New Gradient 39" x1="7.801144" y1="1.8539594" x2="15.9587899" y2="18.5796121" gradientUnits="userSpaceOnUse"><stop offset="0" stop-color="#e5e5e5"/><stop offset=".286514" stop-color="#f2f2f2"/><stop offset=".646072" stop-color="#fff"/><stop offset="1" stop-color="#fff"/></linearGradient>
    <radialGradient id="New_Gradient_40-3" data-name="New Gradient 40" cx="45.7652052" cy="-94.653485" fx="45.7652052" fy="-94.653485" r="4.7044284" gradientTransform="translate(-42.8956 81.2975) rotate(13.9892838) scale(.8285747) skewX(-.0134198)" gradientUnits="userSpaceOnUse"><stop offset="0" stop-color="#e5e5e5"/><stop offset=".331467" stop-color="#e5e5e5"/><stop offset="1" stop-color="#999"/></radialGradient>
  </defs>
  <g>
    <g>
      <g mask="url(#mask)">
        <g>
          <path d="M9.0858927,13.938l-5.7254999,1.4282L.7304929,4.8154l8.0673998-2.0117,2.0409999,8.2105c.2783,1.1147-.666,2.6528-1.753,2.9238Z" fill="url(#New_Gradient_41)" fill-rule="evenodd"/>
          <path d="M8.7226927,14.0708s1.3242-.3857.955-1.8696c1.377-.3443,1.0889-1.5479,1.0889-1.5479l.6816,2.7368-2.7254999.6807Z" fill="url(#New_Gradient_42)" fill-rule="evenodd"/>
          <path d="M9.0858927,13.938l-5.7254999,1.4282L.7304929,4.8154l8.0673998-2.0117,2.0409999,8.2105c.2783,1.1147-.666,2.6528-1.753,2.9238Z" fill="none" fill-rule="evenodd" stroke="#000" stroke-linecap="round" stroke-linejoin="round" stroke-width="2"/>
        </g>
      </g>
      <g mask="url(#mask-1)">
        <g>
          <path d="M9.0858927,13.938l-5.7254999,1.4282L.7304929,4.8154l8.0673998-2.0117,2.0409999,8.2105c.2783,1.1147-.666,2.6528-1.753,2.9238Z" fill="url(#New_Gradient_39)" fill-rule="evenodd"/>
          <path d="M8.7226927,14.0708s1.3242-.3857.955-1.8696c1.377-.3443,1.0889-1.5479,1.0889-1.5479l.6816,2.7368-2.7254999.6807Z" fill="url(#New_Gradient_40)" fill-rule="evenodd"/>
        </g>
      </g>
    </g>
    <g>
      <path d="M3.5312928,11.8516c2.0438999-.5113,4.0877999-1.0205,6.1347072-1.5308" fill="none" stroke="#b3b3b3" stroke-linecap="round" stroke-linejoin="round" stroke-width="1.0502"/>
      <path d="M2.2157929,6.5757c2.0439999-.5098,4.0888999-1.0181,6.1347998-1.5283" fill="none" stroke="#b3b3b3" stroke-linecap="round" stroke-linejoin="round" stroke-width="1.0502"/>
      <path d="M2.7421929,8.6855c2.0438999-.5092,4.0888999-1.0185,6.1338071-1.5283" fill="none" stroke="#b3b3b3" stroke-linecap="round" stroke-linejoin="round" stroke-width="1.0502"/>
      <path d="M2.4784929,7.6309c2.0448999-.5103,4.0898999-1.0186,6.1357998-1.5288" fill="none" stroke="#b3b3b3" stroke-linecap="round" stroke-linejoin="round" stroke-width="1.0502"/>
      <path d="M3.2675928,10.7959c2.0438999-.5103,4.0897999-1.019,6.1346998-1.5293" fill="none" stroke="#b3b3b3" stroke-linecap="round" stroke-linejoin="round" stroke-width="1.0502"/>
      <path d="M3.0058929,9.7402c2.0438999-.5092,4.0878999-1.0185,6.1336998-1.5283" fill="none" stroke="#b3b3b3" stroke-linecap="round" stroke-linejoin="round" stroke-width="1.0502"/>
    </g>
  </g>
  <g>
    <g>
      <g mask="url(#mask-2)">
        <g>
          <path d="M10.5360927,14.8193h-6.4774998V2.8833h9.1268998l-.0058,9.2861c0,1.2622-1.4141,2.6499-2.6435999,2.6499Z" fill="url(#New_Gradient_41-2)" fill-rule="evenodd"/>
          <path d="M10.1151927,14.8643s1.5118073-.0596,1.5118073-1.7393c1.5584926,0,1.5711926-1.3574,1.5711926-1.3574l-.0009,3.0967h-3.0820999Z" fill="url(#New_Gradient_42-2)" fill-rule="evenodd"/>
          <path d="M10.5360927,14.8193h-6.4774998V2.8833h9.1268998l-.0058,9.2861c0,1.2622-1.4141,2.6499-2.6435999,2.6499Z" fill="none" fill-rule="evenodd" stroke="#000" stroke-linecap="round" stroke-linejoin="round" stroke-width="2"/>
        </g>
      </g>
      <g mask="url(#mask-3)">
        <g>
          <path d="M10.5360927,14.8193h-6.4774998V2.8833h9.1268998l-.0058,9.2861c0,1.2622-1.4141,2.6499-2.6435999,2.6499Z" fill="url(#New_Gradient_39-2)" fill-rule="evenodd"/>
          <path d="M10.1151927,14.8643s1.5118073-.0596,1.5118073-1.7393c1.5584926,0,1.5711926-1.3574,1.5711926-1.3574l-.0009,3.0967h-3.0820999Z" fill="url(#New_Gradient_40-2)" fill-rule="evenodd"/>
        </g>
      </g>
    </g>
    <g>
      <path d="M5.1737928,11.1196c2.3124999,0,4.6249999.001,6.9394998.001" fill="none" stroke="#b3b3b3" stroke-linecap="round" stroke-linejoin="round" stroke-width="1.0502"/>
      <path d="M5.1737928,5.1528c2.3124999,0,4.6249999.002,6.9394998.002" fill="none" stroke="#b3b3b3" stroke-linecap="round" stroke-linejoin="round" stroke-width="1.0502"/>
      <path d="M5.1737928,7.54c2.3124999,0,4.6249999.0005,6.9394998.0005" fill="none" stroke="#b3b3b3" stroke-linecap="round" stroke-linejoin="round" stroke-width="1.0502"/>
      <path d="M5.1737928,6.3467c2.3124999,0,4.6249999.001,6.9394998.001" fill="none" stroke="#b3b3b3" stroke-linecap="round" stroke-linejoin="round" stroke-width="1.0502"/>
      <path d="M5.1737928,9.9268c2.3124999,0,4.6249999.0009,6.9394998.0009" fill="none" stroke="#b3b3b3" stroke-linecap="round" stroke-linejoin="round" stroke-width="1.0502"/>
      <path d="M5.1737928,8.7339c2.3124999-.001,4.6249999.0005,6.9394998.0005" fill="none" stroke="#b3b3b3" stroke-linecap="round" stroke-linejoin="round" stroke-width="1.0502"/>
    </g>
  </g>
  <g>
    <g>
      <g mask="url(#mask-4)">
        <g>
          <path d="M12.4628926,18.2188l-7.9130998-1.9722L8.1854927,1.6665l11.1503997,2.7783-2.8358924,11.3428c-.3848075,1.5415-2.5342074,2.8062-4.0371074,2.4312Z" fill="url(#New_Gradient_41-3)" fill-rule="evenodd"/>
          <path d="M11.9345926,18.1445s1.8662.3897,2.3778999-1.6616c1.9033.4741,2.3319999-1.1816,2.3319999-1.1816l-.9424,3.7822-3.7674999-.939Z" fill="url(#New_Gradient_42-3)" fill-rule="evenodd"/>
          <path d="M12.4628926,18.2188l-7.9130998-1.9722L8.1854927,1.6665l11.1503997,2.7783-2.8358924,11.3428c-.3848075,1.5415-2.5342074,2.8062-4.0371074,2.4312Z" fill="none" fill-rule="evenodd" stroke="#000" stroke-linecap="round" stroke-linejoin="round" stroke-width="2"/>
        </g>
      </g>
      <g mask="url(#mask-5)">
        <g>
          <path d="M12.4628926,18.2188l-7.9130998-1.9722L8.1854927,1.6665l11.1503997,2.7783-2.8358924,11.3428c-.3848075,1.5415-2.5342074,2.8062-4.0371074,2.4312Z" fill="url(#New_Gradient_39-3)" fill-rule="evenodd"/>
          <path d="M11.9345926,18.1445s1.8662.3897,2.3778999-1.6616c1.9033.4741,2.3319999-1.1816,2.3319999-1.1816l-.9424,3.7822-3.7674999-.939Z" fill="url(#New_Gradient_40-3)" fill-rule="evenodd"/>
        </g>
      </g>
    </g>
    <g>
      <path d="M7.0390927,12.0679c2.8260999.7041,5.6503999,1.4087,8.4774998,2.1142" fill="none" stroke="#b3b3b3" stroke-linecap="round" stroke-linejoin="round" stroke-width="1.0502"/>
      <path d="M8.8563927,4.7793c2.8251999.7041,5.6513999,1.4087,8.4786073,2.1143" fill="none" stroke="#b3b3b3" stroke-linecap="round" stroke-linejoin="round" stroke-width="1.0502"/>
      <path d="M8.1298927,7.6943c2.8251999.7032,5.6503999,1.4097,8.4774998,2.1143" fill="none" stroke="#b3b3b3" stroke-linecap="round" stroke-linejoin="round" stroke-width="1.0502"/>
      <path d="M8.4940927,6.2368c2.8251999.7041,5.6494999,1.4087,8.4765998,2.1143" fill="none" stroke="#b3b3b3" stroke-linecap="round" stroke-linejoin="round" stroke-width="1.0502"/>
      <path d="M7.4032927,10.6094c2.8251999.7041,5.6513999,1.4106,8.4775998,2.1142" fill="none" stroke="#b3b3b3" stroke-linecap="round" stroke-linejoin="round" stroke-width="1.0502"/>
      <path d="M7.7655927,9.1514c2.8261999.7046,5.6514073,1.4101,8.4784998,2.1157" fill="none" stroke="#b3b3b3" stroke-linecap="round" stroke-linejoin="round" stroke-width="1.0502"/>
    </g>
  </g>
</svg>