<?xml version="1.0" encoding="UTF-8"?>
<svg id="Set_3" data-name="Set 3" xmlns="http://www.w3.org/2000/svg" width="20" height="20" viewBox="0 0 20 20">
  <path d="M9.6763,2.9949c0,.1749-.0648.3262-.193.4582-.1271.132-.2835.1943-.4675.1943-.1422,0-.3183-.0721-.5277-.2199-.2127-.1479-.3928-.2249-.5394-.2249-.2755,0-.5034.0612-.6776.1821-.1765.1234-.3256.3214-.4458.6036-.1211.2811-.2817.87-.4772,1.7717-.0666.3151-.1204.5571-.1577.7281h1.3911c.0452,0,.0757.0123.0904.0379.0135.0232.022.0757.022.1613,0,.0831-.022.1576-.0672.2297-.0433.0709-.088.1075-.1332.1075l-1.4209-.0183-1.0386,4.3203c-.1802.7538-.4215,1.4124-.7246,1.9731-.3047.5584-.6535.9959-1.05,1.316-.3977.3141-.7771.4753-1.1424.4753-.2963,0-.5512-.0746-.7618-.2212-.2126-.1527-.319-.3262-.319-.5229,0-.3604.1815-.5424.5413-.5424.1502,0,.3323.0977.5474.2858.2126.1882.3952.2872.5467.2872.2627,0,.4685-.1027.6135-.3068.1441-.2077.2875-.6487.4294-1.3293l1.1949-5.5874v-.0439c0-.0696-.0415-.1038-.1259-.1038h-1.0092c-.0769,0-.1148-.0563-.1148-.1674,0-.0684.0464-.1186.1393-.1492.8669-.1025,1.3091-.2307,1.3257-.392.13-.6342.3885-1.2708.7758-1.9085.3873-.6403.8241-1.1376,1.3153-1.4906.4887-.3556.9884-.534,1.4991-.534.6402,0,.9616.2102.9616.6304Z"/>
  <path d="M12.1034,5.1246c0,.0465-.0159.0793-.0464.0977-.8174.5767-1.4528,1.3098-1.9109,2.2078-.4557.8931-.6855,1.8316-.6855,2.8163,0,.4961.0672.9359.1998,1.3219.1326.3801.3421.7417.6262,1.079l.014.0378c0,.0415-.0219.0843-.0617.1284-.0404.0403-.08.0622-.1166.0622-.0342,0-.1529-.0953-.3563-.2871-.2045-.1918-.3854-.4033-.5435-.6304-.4234-.611-.6354-1.2634-.6354-1.9672,0-1.2132.4661-2.3459,1.402-3.4064.2181-.2516.4581-.4875.7178-.7086.2609-.2211.5327-.4252.8173-.6121.2848-.1858.4442-.2762.4777-.2762.0674,0,.1015.0464.1015.1369Z"/>
  <path d="M14.7987,7.8847c0,.1527-.0336.2785-.102.3751-.0696.0977-.1619.1429-.2786.1429-.124,0-.2168-.0953-.278-.2871-.0451-.1295-.0922-.1956-.1471-.1956-.1106,0-.4454.3983-1.0068,1.184-.0678.0928-.1148.16-.1381.1967l.1252.6488c.1228.6953.2963,1.0398.5205,1.0398.1057,0,.1816-.055.231-.1748.0513-.1172.0751-.3556.0751-.7245,0-.0379.0232-.0636.0696-.0636.0697,0,.1131.0295.1332.0844.0208.0538.0367.1124.0482.1686.011.061.0165.1197.0165.1795,0,.3336-.075.6061-.2266.8126-.1491.204-.336.3079-.5577.3079-.2437,0-.4423-.1137-.5957-.3385-.1521-.2272-.295-.6292-.4264-1.212-.2706.4338-.5479.804-.8345,1.1033-.2865.2982-.5138.4472-.6823.4472-.118,0-.2206-.0513-.3085-.1552-.0893-.1013-.1338-.2285-.1338-.3714,0-.1527.0361-.2811.1111-.3898.074-.1002.1668-.1539.2799-.1539.1239,0,.2126.0794.2681.2321.0453.1076.0996.1601.1656.1601.1436,0,.4947-.407,1.0489-1.2267l-.1381-.6891c-.0598-.314-.1349-.5608-.2296-.7478-.0928-.187-.1925-.2822-.3007-.2822-.1104,0-.1905.0586-.2382.1809-.0507.1197-.0751.3591-.0751.7196,0,.0439-.0245.0635-.0758.0635-.1276,0-.1912-.1454-.1912-.4314,0-.3298.0764-.5998.2272-.8063.1515-.2102.3428-.3128.5724-.3128.5389,0,.8816.5218,1.0301,1.5665.4031-.5902.7245-.9996.9579-1.2268.2351-.2285.4361-.3397.6072-.3397.1455,0,.2614.0464.3489.1418.0854.0953.1282.2187.1282.3739Z"/>
  <path d="M17.0634,8.6214c0,1.2096-.4699,2.3471-1.407,3.4112-.2193.2505-.4569.4863-.7165.7112-.2584.2223-.5315.4251-.815.6072-.2847.1845-.446.2737-.4832.2737-.063,0-.0941-.0464-.0941-.1369,0-.0402.0153-.0733.0451-.094.8157-.5719,1.454-1.3098,1.911-2.2078.4575-.8945.6854-1.8388.6854-2.8212,0-.4961-.0672-.9396-.1997-1.3196-.1339-.3812-.3452-.7452-.6304-1.0837l-.0099-.0379c0-.0391.0203-.0793.0629-.121.0409-.0451.0794-.0659.1149-.0659.033,0,.1521.0965.3568.2848.2053.1917.3843.403.5432.6304.4257.6156.6365,1.267.6365,1.9695Z"/>
</svg>