<?xml version="1.0" encoding="UTF-8"?>
<svg id="Set_2" data-name="Set 2" xmlns="http://www.w3.org/2000/svg" width="20" height="20" xmlns:xlink="http://www.w3.org/1999/xlink" viewBox="0 0 20 20">
  <defs>
    <linearGradient id="New_Gradient_Swatch_34" data-name="New Gradient Swatch 34" x1="-113.5416063" y1="198.2825529" x2="-119.3462941" y2="192.4778651" gradientTransform="translate(19.5241 -216.6499) rotate(-28.0027189)" gradientUnits="userSpaceOnUse">
      <stop offset="0" stop-color="#f3403f"/>
      <stop offset=".3789338" stop-color="#d02a27"/>
      <stop offset=".7765172" stop-color="#b11713"/>
      <stop offset="1" stop-color="#a6100c"/>
    </linearGradient>
    <mask id="mask" x="3.3574923" y="3.144" width="10.2131997" height="14.5664" maskUnits="userSpaceOnUse">
      <path d="M3.3574923,4.7055c1.256,5.3252-.0634923,8.1312,3.5187999,11.4422.5523.5089.8919.7295,1.6421,1.0923-.1343-.9591.0611-1.5376.4326078-2.6055,1.3415922-.0849,2.0573921-.1551,3.4894921-.3305-.5364921-.3739-.815-.5786-1.3159-1.0275-3.2622999-2.9189-2.2761999-4.8421-4.9067999-10.1325-.7882.6145-1.3941.8834-2.8602999,1.5615Z" fill="#fff"/>
    </mask>
    <linearGradient id="New_Gradient_Swatch_33" data-name="New Gradient Swatch 33" x1="7.3644667" y1="10.1918186" x2="12.7722974" y2="10.4623516" gradientUnits="userSpaceOnUse">
      <stop offset="0" stop-color="#f3403f"/>
      <stop offset=".3789338" stop-color="#d02a27"/>
      <stop offset=".7765172" stop-color="#b11713"/>
      <stop offset="1" stop-color="#a6100c"/>
    </linearGradient>
    <linearGradient id="New_Gradient_Swatch_32" data-name="New Gradient Swatch 32" x1="7.148647" y1="10.4442432" x2=".8321931" y2="3.2254315" gradientUnits="userSpaceOnUse">
      <stop offset="0" stop-color="#f3403f"/>
      <stop offset=".3789338" stop-color="#d02a27"/>
      <stop offset=".7765172" stop-color="#b11713"/>
      <stop offset="1" stop-color="#a6100c"/>
    </linearGradient>
    <linearGradient id="linear-gradient" x1="11.6470318" y1="3.1451032" x2="15.8914646" y2="8.8043466" gradientUnits="userSpaceOnUse">
      <stop offset="0" stop-color="#c9ffc9"/>
      <stop offset=".55618" stop-color="#00cd00"/>
      <stop offset="1" stop-color="#23a11f"/>
    </linearGradient>
  </defs>
  <g>
    <path d="M3.3574923,4.7055c1.256,5.3252-.0634923,8.1312,3.5187999,11.4422.5523.5089.8919.7295,1.6421,1.0923-.1343-.9591.0611-1.5376.4326078-2.6055,1.3415922-.0849,2.0573921-.1551,3.4894921-.3305-.5364921-.3739-.815-.5786-1.3159-1.0275-3.2622999-2.9189-2.2761999-4.8421-4.9067999-10.1325-.7882.6145-1.3941.8834-2.8602999,1.5615Z" fill="url(#New_Gradient_Swatch_34)" stroke="#000" stroke-linecap="round" stroke-linejoin="round" stroke-width="2"/>
    <g mask="url(#mask)">
      <g>
        <path d="M3.3574923,4.7055c1.256,5.3252-.0634923,8.1312,3.5187999,11.4422.5523.5089.8919.7295,1.6421,1.0923-.1343-.9591.0611-1.5376.4326078-2.6055,1.3415922-.0849,2.0573921-.1551,3.4894921-.3305-.5364921-.3739-.815-.5786-1.3159-1.0275-3.2622999-2.9189-2.2761999-4.8421-4.9067999-10.1325-.7882.6145-1.3941.8834-2.8602999,1.5615Z" fill="url(#New_Gradient_Swatch_33)"/>
        <path d="M3.8950923,5.8931c1.4564,5.1561.1649077,7.9423,3.9683999,10.882.5865078.4515.9457.6408,1.7351.9353-.1687-.8974.0158-1.4595.3689-2.4937,1.388-.1577,2.1259999-.2639,3.6031999-.5168-.567-.3177-.8626921-.4936-1.3966-.8901-3.4638999-2.5737-2.4900921-4.4657-5.3636999-9.5418-.7968.6245-1.4173922.9098-2.9152999,1.6251Z" fill="url(#New_Gradient_Swatch_32)"/>
      </g>
    </g>
  </g>
  <g>
    <polygon points="10.7604921 5.6463 13.2626921 5.6463 13.2626921 3.144 15.034292 3.144 15.034292 5.6463 17.536592 5.6463 17.536592 7.3146 15.034292 7.3146 15.034292 9.8169 13.2626921 9.8169 13.2626921 7.3146 10.7604921 7.3146 10.7604921 5.6463" fill="#fff" stroke="#191919" stroke-linecap="round" stroke-linejoin="round" stroke-width="2"/>
    <polygon points="10.7604921 5.6463 13.2626921 5.6463 13.2626921 3.144 15.034292 3.144 15.034292 5.6463 17.536592 5.6463 17.536592 7.3146 15.034292 7.3146 15.034292 9.8169 13.2626921 9.8169 13.2626921 7.3146 10.7604921 7.3146 10.7604921 5.6463" fill="url(#linear-gradient)"/>
  </g>
</svg>