<?xml version='1.0' encoding='UTF-8'?>
<svg xmlns="http://www.w3.org/2000/svg" xmlns:xlink="http://www.w3.org/1999/xlink" id="Layer_1" data-name="Layer 1" width="48" height="48" viewBox="0 0 48 48">
  <defs>
    <mask id="mask" x="5.7460938" y="12.2656155" width="25.3769062" height="19.7343845" maskUnits="userSpaceOnUse">
      <polygon points="15.0795936 31.274415 29.1742932 27.584 29.1742932 16.5166153 7.1376938 12.2656155 7.1376938 23.333 15.0795936 31.274415" fill="#fff" fill-rule="evenodd"/>
    </mask>
    <mask id="mask-1" x="5.7460938" y="13.29" width="10.6034997" height="18.71" maskUnits="userSpaceOnUse">
      <rect x="5.7460938" y="14.2793154" width="9.3602998" height="17.7206846" fill="#fff"/>
    </mask>
    <linearGradient id="New_Gradient_392" data-name="New Gradient 392" x1="15.8616871" y1="31.5095066" x2="4.9908002" y2="14.7698088" gradientUnits="userSpaceOnUse">
      <stop offset="0" stop-color="#c1a35f"/>
      <stop offset="1" stop-color="#a78631"/>
    </linearGradient>
    <linearGradient id="New_Gradient_393" data-name="New Gradient 393" x1="11.1852968" y1="13.29" x2="11.1852968" y2="23.1753152" gradientUnits="userSpaceOnUse">
      <stop offset="0" stop-color="#6f4b0a"/>
      <stop offset="1" stop-color="#a78631"/>
    </linearGradient>
    <linearGradient id="New_Gradient_394" data-name="New Gradient 394" x1="21.9419208" y1="14.5516334" x2="23.492082" y2="23.3430348" gradientUnits="userSpaceOnUse">
      <stop offset="0" stop-color="#6f4b0a"/>
      <stop offset="1" stop-color="#967631"/>
    </linearGradient>
    <mask id="mask-2" x="7.1376938" y="4.3623157" width="24.9701994" height="17.5741996" maskUnits="userSpaceOnUse">
      <polygon points="15.0795936 20.209 29.1742932 16.5166153 21.3036934 8.646 7.1376938 12.2656155 15.0795936 20.209" fill="#fff" fill-rule="evenodd"/>
    </mask>
    <linearGradient id="New_Gradient_395" data-name="New Gradient 395" x1="16.2837462" y1="8.2672705" x2="20.0485178" y2="20.5812836" gradientUnits="userSpaceOnUse">
      <stop offset="0" stop-color="#6f4b0a"/>
      <stop offset="1" stop-color="#523800"/>
    </linearGradient>
    <linearGradient id="New_Gradient_396" data-name="New Gradient 396" x1="26.6874933" y1="4.3623157" x2="26.6874933" y2="21.9365152" gradientUnits="userSpaceOnUse">
      <stop offset="0" stop-color="#a78631"/>
      <stop offset=".696625" stop-color="#6f4b0a"/>
      <stop offset="1" stop-color="#6f4b0a"/>
    </linearGradient>
    <mask id="mask-3" x="7.1376938" y="-.812" width="23.6229994" height="25.676579" maskUnits="userSpaceOnUse">
      <polygon points="15.0795936 20.209 29.1742932 16.5166153 30.7606932 -.812 7.1981938 -.3041842 7.1376938 12.2656155 15.0795936 20.209" fill="#fff" fill-rule="evenodd"/>
    </mask>
    <mask id="mask-4" x="9.3617937" y="6.1548156" width="11.9013997" height="14.9491844" maskUnits="userSpaceOnUse">
      <path d="M17.3900935,20.104h-7.0282998V7.1558156l9.9013997-.001-.0049,10.0746997c0,1.3701-1.5342,2.8744847-2.8681999,2.8744847Z" fill="#fff" fill-rule="evenodd" stroke="#fff" stroke-linecap="round" stroke-linejoin="round" stroke-width="2"/>
    </mask>
    <linearGradient id="New_Gradient_399" data-name="New Gradient 399" x1="11.8104911" y1="6.4492387" x2="18.814832" y2="20.8102658" gradientUnits="userSpaceOnUse">
      <stop offset="0" stop-color="#e5e5e5"/>
      <stop offset="1" stop-color="#fff"/>
    </linearGradient>
    <radialGradient id="New_Gradient_400" data-name="New Gradient 400" cx="34.256696" cy="-50.5033761" fx="34.256696" fy="-50.5033761" r="5.6313192" gradientTransform="translate(-3.4976 46.9172) scale(.5964)" gradientUnits="userSpaceOnUse">
      <stop offset="0" stop-color="#fff"/>
      <stop offset="1" stop-color="#ccc"/>
    </radialGradient>
    <mask id="mask-5" x="10.3617937" y="7.1548156" width="9.9159997" height="12.9970997" maskUnits="userSpaceOnUse">
      <path d="M17.3900935,20.104h-7.0282998V7.1558156l9.9013997-.001-.0049,10.0746997c0,1.3701-1.5342,2.8744847-2.8681999,2.8744847Z" fill="#fff" fill-rule="evenodd"/>
    </mask>
    <linearGradient id="New_Gradient_401" data-name="New Gradient 401" x1="11.8104911" y1="6.4492387" x2="18.814832" y2="20.8102658" gradientUnits="userSpaceOnUse">
      <stop offset="0" stop-color="#e5e5e5"/>
      <stop offset=".286514" stop-color="#f2f2f2"/>
      <stop offset=".646072" stop-color="#fff"/>
      <stop offset="1" stop-color="#fff"/>
    </linearGradient>
    <radialGradient id="New_Gradient_402" data-name="New Gradient 402" cx="34.256696" cy="-50.5033761" fx="34.256696" fy="-50.5033761" r="5.6313192" gradientTransform="translate(-3.4976 46.9172) scale(.5964)" gradientUnits="userSpaceOnUse">
      <stop offset="0" stop-color="#e5e5e5"/>
      <stop offset=".331467" stop-color="#e5e5e5"/>
      <stop offset="1" stop-color="#999"/>
    </radialGradient>
    <mask id="mask-6" x="9.897" y="4.835" width="18.0380933" height="20.029579" maskUnits="userSpaceOnUse">
      <path d="M19.48,23.793l-8.583-2.1406848,3.9442936-15.8173152,12.0937997,3.0141155-3.0766999,12.3061997c-.4146,1.6718-2.7475999,3.0424999-4.3783933,2.6376848Z" fill="#fff" fill-rule="evenodd" stroke="#fff" stroke-linecap="round" stroke-linejoin="round" stroke-width="2"/>
    </mask>
    <linearGradient id="New_Gradient_399-2" data-name="New Gradient 399" x1="14.4231619" y1="6.0389365" x2="23.2728327" y2="24.1834506" gradientUnits="userSpaceOnUse"><stop offset="0" stop-color="#e5e5e5"/><stop offset="1" stop-color="#fff"/></linearGradient>
    <radialGradient id="New_Gradient_400-2" data-name="New Gradient 400" cx="-3.1546161" cy="-25.0960659" fx="-3.1546161" fy="-25.0960659" r="5.6321868" gradientTransform="translate(17.6714 38.4640808) rotate(13.98997) scale(.7507693)" gradientUnits="userSpaceOnUse"><stop offset="0" stop-color="#fff"/><stop offset="1" stop-color="#ccc"/></radialGradient>
    <mask id="mask-7" x="10.897" y="5.835" width="16.0380933" height="18.8955151" maskUnits="userSpaceOnUse">
      <path d="M19.48,23.793l-8.583-2.1406848,3.9442936-15.8173152,12.0937997,3.0141155-3.0766999,12.3061997c-.4146,1.6718-2.7475999,3.0424999-4.3783933,2.6376848Z" fill="#fff" fill-rule="evenodd"/>
    </mask>
    <linearGradient id="linear-gradient" x1="16.8785984" y1="23.1291746" x2="20.9323148" y2="7.3262217" gradientUnits="userSpaceOnUse">
      <stop offset="0" stop-color="#919191"/>
      <stop offset=".646072" stop-color="#fff"/>
      <stop offset="1" stop-color="#fff"/>
    </linearGradient>
    <radialGradient id="New_Gradient_402-2" data-name="New Gradient 402" cx="-3.1546161" cy="-25.0960659" fx="-3.1546161" fy="-25.0960659" r="5.6321868" gradientTransform="translate(17.6714 38.4640808) rotate(13.98997) scale(.7507693)" gradientUnits="userSpaceOnUse"><stop offset="0" stop-color="#e5e5e5"/><stop offset=".331467" stop-color="#e5e5e5"/><stop offset="1" stop-color="#999"/></radialGradient>
    <linearGradient id="New_Gradient_519" data-name="New Gradient 519" x1="21.9330414" y1="42.7039876" x2="41.9813149" y2="25.8814887" gradientUnits="userSpaceOnUse">
      <stop offset="0" stop-color="#b2b2b2"/>
      <stop offset=".168533" stop-color="#e5e5e5"/>
      <stop offset=".230331" stop-color="#fff"/>
      <stop offset=".280899" stop-color="#e5e5e5"/>
      <stop offset="1" stop-color="#ccc"/>
    </linearGradient>
    <linearGradient id="linear-gradient-2" x1="22.9223034" y1="40.3846961" x2="38.0928694" y2="25.2141301" gradientUnits="userSpaceOnUse">
      <stop offset="0" stop-color="#b2b2b2"/>
      <stop offset=".168533" stop-color="#e5e5e5"/>
      <stop offset=".230331" stop-color="#fff"/>
      <stop offset=".280899" stop-color="#e5e5e5"/>
      <stop offset=".5" stop-color="#c2c2c2"/>
    </linearGradient>
    <linearGradient id="New_Gradient_518" data-name="New Gradient 518" x1="29.8302474" y1="32.076664" x2="43.1507353" y2="45.3971519" gradientUnits="userSpaceOnUse">
      <stop offset="0" stop-color="#ccc"/>
      <stop offset="1" stop-color="#fff"/>
    </linearGradient>
    <linearGradient id="New_Gradient_517" data-name="New Gradient 517" x1="39.7919727" y1="46.0810405" x2="33.2022275" y2="31.2802305" gradientUnits="userSpaceOnUse">
      <stop offset="0" stop-color="#b2b2b2"/>
      <stop offset=".5" stop-color="#e5e5e5"/>
      <stop offset="1" stop-color="#fff"/>
    </linearGradient>
    <linearGradient id="New_Gradient_516" data-name="New Gradient 516" x1="41.8600487" y1="37.898711" x2="42.5153438" y2="39.6991193" gradientUnits="userSpaceOnUse">
      <stop offset="0" stop-color="#0f6124"/>
      <stop offset="1" stop-color="#219630"/>
    </linearGradient>
    <linearGradient id="New_Gradient_515" data-name="New Gradient 515" x1="19.2961" y1="41.6512081" x2="27.6906265" y2="33.2566817" gradientUnits="userSpaceOnUse">
      <stop offset="0" stop-color="#e5e5e5"/>
      <stop offset="1" stop-color="#ccc"/>
    </linearGradient>
    <linearGradient id="New_Gradient_510" data-name="New Gradient 510" x1="33.6878247" y1="33.9210867" x2="42.021433" y2="25.5874784" gradientUnits="userSpaceOnUse">
      <stop offset="0" stop-color="#d9d9d9"/>
      <stop offset="1" stop-color="#f2f2f2"/>
    </linearGradient>
    <radialGradient id="New_Gradient_200" data-name="New Gradient 200" cx="62.5275166" cy=".0453737" fx="62.5275166" fy=".0453737" r="15.5193213" gradientTransform="translate(-46.3153 15.4131) scale(1.1072)" gradientUnits="userSpaceOnUse">
      <stop offset="0" stop-color="#328e36"/>
      <stop offset="1" stop-color="#00cd00"/>
    </radialGradient>
    <mask id="mask-8" x="22.7108934" y="16.2112384" width="16.2891066" height="15.7887616" maskUnits="userSpaceOnUse">
      <path d="M32.1347931,31.956515l-6.8671998-8.7377998h3.9677999c0-1.6933.0341-4.0584999-2.4140999-4.4745999-2.0761999-.3515-3.1972933.4161-3.1972933.4161,1.0351933-1.3311,2.9843933-3.2436999,6.6806932-2.9106999,5.1229999.4609,4.8153999,6.7382998,4.8231999,6.9691998h3.872107l-6.8652069,8.7377998Z" fill="#fff"/>
    </mask>
    <radialGradient id="New_Gradient_200-2" data-name="New Gradient 200" cx="23.624" cy="16.2112384" fx="23.624" fy="16.2112384" r="15.726688" gradientTransform="matrix(1,0,0,1,0,0)" gradientUnits="userSpaceOnUse"><stop offset="0" stop-color="#328e36"/><stop offset="1" stop-color="#00cd00"/></radialGradient>
    <radialGradient id="radial-gradient" cx="67.459337" cy="3.3552067" fx="67.459337" fy="3.3552067" r="12.9234097" gradientTransform="translate(-46.3153 15.4131) scale(1.1072)" gradientUnits="userSpaceOnUse">
      <stop offset="0" stop-color="#c9ffc9"/>
      <stop offset=".80899" stop-color="#00cd00"/>
      <stop offset="1" stop-color="#00cd00"/>
    </radialGradient>
  </defs>
  <g>
    <g>
      <polygon points="21.3036934 8.646 25.771 4.1865157 33.6171931 12.0928155 29.1742932 16.5166153 34 16.5527153 29.1742932 17.8677153 29.1742932 27.584 15.0795936 31.274415 7.1376938 23.333 7.1376938 16.9912153 2.417 12.27 7.1376938 12.2656155 5.5404938 6.4014156 19.3886934 2.9546157 21.3036934 8.646" fill="#a78631" stroke="#000" stroke-linecap="round" stroke-linejoin="round" stroke-width="2"/>
      <g mask="url(#mask)">
        <g>
          <polygon points="15.0795936 31.274415 29.1742932 27.584 29.1742932 16.5166153 7.1376938 12.2656155 7.1376938 23.333 15.0795936 31.274415" fill="#a78631" fill-rule="evenodd"/>
          <g mask="url(#mask-1)">
            <g>
              <rect x="5.7460938" y="14.2793154" width="9.3602998" height="17.7206846" fill="url(#New_Gradient_392)"/>
              <polygon points="6.021 17.7324153 11.4657936 23.1753152 16.3495935 19.9482153 9.5536937 13.29 6.021 17.7324153" fill="url(#New_Gradient_393)" fill-rule="evenodd"/>
            </g>
          </g>
          <polygon points="14.4408936 19.6943153 18.4267935 22.5181152 31.123 18.937 29.2011932 15.353 14.4408936 19.6943153" fill="url(#New_Gradient_394)" fill-rule="evenodd"/>
        </g>
      </g>
      <g mask="url(#mask-2)">
        <g>
          <polygon points="15.0795936 20.209 29.1742932 16.5166153 21.3036934 8.646 7.1376938 12.2656155 15.0795936 20.209" fill="url(#New_Gradient_395)" fill-rule="evenodd"/>
          <rect x="21.2670934" y="4.3623157" width="10.8407997" height="17.5741996" fill="url(#New_Gradient_396)"/>
        </g>
      </g>
      <polygon points="5.5404938 6.4014156 7.1376938 12.2656155 21.3036934 8.646 19.3886934 2.9546157 5.5404938 6.4014156" fill="#c1a35f" fill-rule="evenodd"/>
      <polygon points="21.3036934 8.646 29.1742932 16.5166153 33.6171931 12.0928155 25.771 4.1865157 21.3036934 8.646" fill="#ffdea0" fill-rule="evenodd"/>
      <line x1="15.1063936" y1="30.723615" x2="15.1063936" y2="20.5869152" fill="none" stroke="#6f4b0a" stroke-linecap="round" stroke-miterlimit="3.8637"/>
      <line x1="7.374" y1="12.2324155" x2="21.0502934" y2="8.667" fill="none" stroke="#a78631" stroke-linecap="round" stroke-miterlimit="3.8637"/>
      <line x1="21.4984934" y1="8.9668155" x2="28.7611932" y2="16.2788154" fill="none" stroke="#c1a35f" stroke-linecap="round" stroke-miterlimit="3.8637"/>
      <polyline points="7.3236938 17.6543153 10.1415937 20.4722152 14.8827936 20.4722152" fill="none" stroke="#6f4b0a" stroke-linecap="round" stroke-miterlimit="3.8637" stroke-width=".75"/>
      <polygon points="15.1063936 20.2354153 20.4735934 20.2354153 34 16.5527153 29.1884932 16.5527153 15.1063936 20.2354153" fill="#c1a35f" fill-rule="evenodd"/>
      <polygon points="7.1376938 12.2656155 15.0795936 20.209 10.3817937 20.2354153 2.417 12.27 7.1376938 12.2656155" fill="#a78631" fill-rule="evenodd"/>
      <polyline points="7.187 11.9331155 5.7304938 6.4414156 19.3266934 3.1113157" fill="none" stroke="#ffdea0" stroke-linecap="round" stroke-miterlimit="3.8637" stroke-width=".5"/>
      <line x1="14.8451936" y1="30.721715" x2="14.8451936" y2="20.8975152" fill="none" stroke="#ffdea0" stroke-linecap="round" stroke-miterlimit="3.8637" stroke-width=".5"/>
      <line x1="2.7553939" y1="12.4414154" x2="10.4657937" y2="19.9985153" fill="none" stroke="#ffdea0" stroke-linecap="round" stroke-miterlimit="3.8637" stroke-width=".5"/>
      <polyline points="15.604 20.3027153 20.084 20.3027153 32.9335931 16.7202153" fill="none" stroke="#ffdea0" stroke-linecap="round" stroke-miterlimit="3.8637" stroke-width=".5"/>
      <g mask="url(#mask-3)">
        <g>
          <g>
            <g>
              <g mask="url(#mask-4)">
                <g>
                  <path d="M17.3900935,20.104h-7.0282998V7.1558156l9.9013997-.001-.0049,10.0746997c0,1.3701-1.5342,2.8744847-2.8681999,2.8744847Z" fill="url(#New_Gradient_399)" fill-rule="evenodd"/>
                  <path d="M16.9330935,20.1519153s1.6406-.0635,1.6406-1.8848c1.6895,0,1.7041-1.4741153,1.7041-1.4741153v3.3589153h-3.3446999Z" fill="url(#New_Gradient_400)" fill-rule="evenodd"/>
                  <path d="M17.3900935,20.104h-7.0282998V7.1558156l9.9013997-.001-.0049,10.0746997c0,1.3701-1.5342,2.8744847-2.8681999,2.8744847Z" fill="none" fill-rule="evenodd" stroke="#000" stroke-linecap="round" stroke-linejoin="round" stroke-width="2"/>
                </g>
              </g>
              <g mask="url(#mask-5)">
                <g>
                  <path d="M17.3900935,20.104h-7.0282998V7.1558156l9.9013997-.001-.0049,10.0746997c0,1.3701-1.5342,2.8744847-2.8681999,2.8744847Z" fill="url(#New_Gradient_401)" fill-rule="evenodd"/>
                  <path d="M16.9330935,20.1519153s1.6406-.0635,1.6406-1.8848c1.6895,0,1.7041-1.4741153,1.7041-1.4741153v3.3589153h-3.3446999Z" fill="url(#New_Gradient_402)" fill-rule="evenodd"/>
                </g>
              </g>
            </g>
            <g>
              <path d="M11.5727936,16.0913154c2.5077999-.0005,5.0179999,0,7.5292998.0005" fill="none" stroke="#b3b3b3" stroke-linecap="round" stroke-linejoin="round" stroke-width="1.0502"/>
              <path d="M11.5727936,9.6172155c2.5077999,0,5.0179999.0019,7.5292998.0019" fill="none" stroke="#b3b3b3" stroke-linecap="round" stroke-linejoin="round" stroke-width="1.0502"/>
              <path d="M11.5727936,12.2065155c2.5077999,0,5.0179999.0014845,7.5292998.0014845" fill="none" stroke="#b3b3b3" stroke-linecap="round" stroke-linejoin="round" stroke-width="1.0502"/>
              <path d="M11.5727936,10.9126155c2.5077999-.0005,5.0179999,0,7.5292998,0" fill="none" stroke="#b3b3b3" stroke-linecap="round" stroke-linejoin="round" stroke-width="1.0502"/>
              <path d="M11.5727936,14.7959154h7.5292998" fill="none" stroke="#b3b3b3" stroke-linecap="round" stroke-linejoin="round" stroke-width="1.0502"/>
              <path d="M11.5727936,13.5015154c2.5077999,0,5.0179999.0004846,7.5292998.0004846" fill="none" stroke="#b3b3b3" stroke-linecap="round" stroke-linejoin="round" stroke-width="1.0502"/>
            </g>
          </g>
          <g>
            <g>
              <g mask="url(#mask-6)">
                <g>
                  <path d="M19.48,23.793l-8.583-2.1406848,3.9442936-15.8173152,12.0937997,3.0141155-3.0766999,12.3061997c-.4146,1.6718-2.7475999,3.0424999-4.3783933,2.6376848Z" fill="url(#New_Gradient_399-2)" fill-rule="evenodd"/>
                  <path d="M18.9081935,23.7109152s2.0243999.4239,2.5795999-1.8017c2.0639999.5146,2.5287999-1.2822152,2.5287999-1.2822152l-1.0225,4.1035151-4.0858999-1.0196Z" fill="url(#New_Gradient_400-2)" fill-rule="evenodd"/>
                  <path d="M19.48,23.793l-8.583-2.1406848,3.9442936-15.8173152,12.0937997,3.0141155-3.0766999,12.3061997c-.4146,1.6718-2.7475999,3.0424999-4.3783933,2.6376848Z" fill="none" fill-rule="evenodd" stroke="#000" stroke-linecap="round" stroke-linejoin="round" stroke-width="2"/>
                </g>
              </g>
              <g mask="url(#mask-7)">
                <g>
                  <path d="M19.48,23.793l-8.583-2.1406848,3.9442936-15.8173152,12.0937997,3.0141155-3.0766999,12.3061997c-.4146,1.6718-2.7475999,3.0424999-4.3783933,2.6376848Z" fill="url(#linear-gradient)" fill-rule="evenodd"/>
                  <path d="M18.9081935,23.7109152s2.0243999.4239,2.5795999-1.8017c2.0639999.5146,2.5287999-1.2822152,2.5287999-1.2822152l-1.0225,4.1035151-4.0858999-1.0196Z" fill="url(#New_Gradient_402-2)" fill-rule="evenodd"/>
                </g>
              </g>
            </g>
            <g>
              <path d="M13.5961936,17.1182153c3.0658999.7636,6.1318064,1.5297,9.1976998,2.2938999" fill="none" stroke="#b3b3b3" stroke-linecap="round" stroke-linejoin="round" stroke-width="1.0502"/>
              <path d="M15.5673935,9.2114155c3.0648999.7637,6.1307998,1.5298,9.1986998,2.2934999" fill="none" stroke="#b3b3b3" stroke-linecap="round" stroke-linejoin="round" stroke-width="1.0502"/>
              <path d="M14.7797936,12.375c3.0663999.7627154,6.1283998,1.5288154,9.1982064,2.2925154" fill="none" stroke="#b3b3b3" stroke-linecap="round" stroke-linejoin="round" stroke-width="1.0502"/>
              <path d="M15.1737936,10.792c3.0658999.7646155,6.1298998,1.5293155,9.1977998,2.2944154" fill="none" stroke="#b3b3b3" stroke-linecap="round" stroke-linejoin="round" stroke-width="1.0502"/>
              <path d="M13.9906936,15.5376154c3.0649999.7632,6.1298998,1.5288,9.1973064,2.2929999" fill="none" stroke="#b3b3b3" stroke-linecap="round" stroke-linejoin="round" stroke-width="1.0502"/>
              <path d="M14.3852936,13.9551154c3.0658999.7641,6.1302998,1.5298,9.1971998,2.2943999" fill="none" stroke="#b3b3b3" stroke-linecap="round" stroke-linejoin="round" stroke-width="1.0502"/>
            </g>
          </g>
        </g>
      </g>
    </g>
    <line x1="15.0795936" y1="20.209" x2="29.1742932" y2="16.5166153" fill="#7e5b39" stroke="#7e5b39" stroke-linecap="round" stroke-miterlimit="3.8637" stroke-width=".5"/>
    <line x1="15.0795936" y1="20.209" x2="7.1376938" y2="12.2656155" fill="none" stroke="#7e5b39" stroke-linecap="round" stroke-miterlimit="3.8637" stroke-width=".5"/>
  </g>
  <g>
    <path d="M28.1894932,43.7495147l-9.0488998-8.9301998c-.0918-.1054-.1405935-.2441-.1405935-.4131v-4.9740999c0-.4326.3485934-.870115.7831934-.9775l15.3456996-3.8007999c.2637-.0654.496107.0054.6367.167l9.027407,8.9047998c.1053928.1333.1532928.2681.1532928.4277v4.9750999c0,.4307-.3506.8692-.7832.9765852l-15.3456996,3.8003147c-.2578.0649-.4873-.0015-.6279-.1558Z" fill="url(#New_Gradient_519)" stroke="#000" stroke-miterlimit="3.8637" stroke-width="1.8248"/>
    <path d="M28.1894932,43.7495147l-9.0488998-8.9301998c-.0918-.1054-.1405935-.2441-.1405935-.4131v-4.9740999c0-.4326.3485934-.870115.7831934-.9775l15.3456996-3.8007999c.2637-.0654.496107.0054.6367.167l9.0527998,8.9345998-16.6288996,9.9940997Z" fill="url(#linear-gradient-2)" fill-rule="evenodd"/>
    <path d="M28.8173932,37.3667148l15.3456996-3.7997999c.4326-.1079149.7832.1538.7832.5864v4.9750999c0,.4307-.3506.8692-.7832.9765852l-15.3456996,3.8003147c-.4336.1089-.7842-.1543147-.7842-.586v-4.9735999c0-.4321.3506-.8691.7842-.979Z" fill="url(#New_Gradient_518)" fill-rule="evenodd"/>
    <path d="M43.7177928,33.3535149c.748-.2021,1.2285.1729,1.2285.961v4.7245999c0,.5644-.4307,1.08-.9541,1.2118852l-14.6972996,3.749c-.3974.0986146-1.2275.1045146-1.2275-.8593853v-4.8270999c0-.564.4306068-1.0801.9541-1.2119l14.6962996-3.7480999ZM28.7714932,43.3457147c.042.002.1221,0,.25-.0322l14.6981996-3.7489999c.2969-.0748.5332-.3902.5332-.6475148v-4.7250851c0-.1104,0-.1553-.0127-.1909149-.0468-.0024851-.1259.0058149-.2461.0371149l-14.6991996,3.7509999c-.2988.0747-.5332.3896-.5332.6464v4.8271999l.0098.083Z" fill="url(#New_Gradient_517)"/>
    <path d="M41.5390929,38.3267148l1.2978-.3013c.8301071-.1934148.8301071,1.0532,0,1.2455852l-1.2978.3013148c-.8310929.1933-.8310929-1.0537,0-1.2456Z" fill="url(#New_Gradient_516)"/>
    <line x1="41.4892929" y1="38.854" x2="42.7362929" y2="38.561" fill="none" stroke="#7cc771" stroke-linecap="round" stroke-miterlimit="3.8637" stroke-width="1.1405"/>
    <path d="M19.5995934,34.5083149l7.7880998,7.4477998-.04-2.4687999c-1.3448.6386852-7.7480998-6.5360998-7.7480998-6.5360998v1.5571Z" fill="url(#New_Gradient_515)" fill-rule="evenodd"/>
    <path d="M35.265593,25.3428151l7.8339998,7.4989998-8.0175928,2.1757999c8.4374928-5.2470999-1.622-9.2011998-1.622-9.2011998l1.805593-.4736Z" fill="url(#New_Gradient_510)" fill-rule="evenodd"/>
  </g>
  <g>
    <path d="M32.1347931,31.956515l-6.8671998-8.7377998h3.9677999c0-1.6933.0341-4.0584999-2.4140999-4.4745999-2.0761999-.3515-3.1972933.4161-3.1972933.4161,1.0351933-1.3311,2.9843933-3.2436999,6.6806932-2.9106999,5.1229999.4609,4.8153999,6.7382998,4.8231999,6.9691998h3.872107l-6.8652069,8.7377998Z" fill="url(#New_Gradient_200)" stroke="#000" stroke-linecap="round" stroke-linejoin="round" stroke-width="2"/>
    <g mask="url(#mask-8)">
      <g>
        <path d="M32.1347931,31.956515l-6.8671998-8.7377998h3.9677999c0-1.6933.0341-4.0584999-2.4140999-4.4745999-2.0761999-.3515-3.1972933.4161-3.1972933.4161,1.0351933-1.3311,2.9843933-3.2436999,6.6806932-2.9106999,5.1229999.4609,4.8153999,6.7382998,4.8231999,6.9691998h3.872107l-6.8652069,8.7377998Z" fill="url(#New_Gradient_200-2)"/>
        <path d="M22.7108934,20.1943153s3.6093999-5.0145999,8.5087998-2.9286999c3.7529999,1.5972,3.0781999,6.6884998,3.0781999,6.6884998h3.2772999l-6.3554998,8.0458848-8.5087998-11.8056847Z" fill="url(#radial-gradient)"/>
      </g>
    </g>
  </g>
</svg>