<?xml version='1.0' encoding='UTF-8'?>
<svg xmlns="http://www.w3.org/2000/svg" xmlns:xlink="http://www.w3.org/1999/xlink" id="Layer_1" data-name="Layer 1" width="48" height="48" viewBox="0 0 48 48">
  <defs>
    <linearGradient id="New_Gradient_182" data-name="New Gradient 182" x1="17.635924" y1="5.3461243" x2="17.635924" y2="28.3702832" gradientTransform="translate(1.9950822 1.3175833) scale(.9174)" gradientUnits="userSpaceOnUse">
      <stop offset="0" stop-color="#ccc"/>
      <stop offset="1" stop-color="#fff"/>
    </linearGradient>
    <mask id="mask" x="7.4182217" y="6.0188366" width="21.5114569" height="22.0885785" maskUnits="userSpaceOnUse">
      <path d="M13.972679,16.8994153c-.0323,1.8169,1.612321,3.1440999,3.4911999,2.6435847,1.9999999-.5346847,3.4531211-2.4277847,3.4941211-4.3842846.0302789-1.8101-1.6142211-3.1435999-3.4941211-2.6400999-1.9999999.5376-3.4560999,2.4266999-3.4911999,4.3807999ZM26.8476787,21.0449152s-5.0527999.6323-5.7822999.0820848c-.5918.5087152-1.2431.9462152-1.9345,1.2861152-.003,1.042,0,1.562-.003,2.5980999-.541.2315-1.665,2.3281999-1.665,2.3281999l-1.667-1.4986v-2.5946999c-.6924.0024-.4814.6914-1.0752.4834-.7285.9141-.3555,2.0673999-1.0859,2.9799999-.9141-.4136-3.4570999-2.4032999-4.1083999-3.1791999.7412-.9322,1.248-1.4766,1.9775-2.3906999-.3594-.5048-1.9336.4633848-1.9336.4633848h0c-.0449-.2538848-1.625-1.5218847-1.625-1.5218847-.0908-.6016-.1514-1.0064-.1514-1.669,0-.5796.0528-1.165.1495-1.7422,1.0507-.2627,1.7255-.375,2.7596999-.6318.1543-.6665.3887-1.3154.6992-1.9395.0352-.0683-.122-.0923-.122-.0923l-1.7549-1.5737c.6523-1.1001,1.5928-2.0043999,2.5116999-2.8803999.7266.5517845,1.0928.8277,1.8233,1.3837845.5937-.5087845,1.2421-.9457845,1.9355-1.2894845,0-1.0425155.001-1.5576.001-2.5971999.5429-.2319,1.0957-.4219,1.666-.5644.5684-.1397,1.123-.2286,1.665-.2652l1.6035,1.4902844s-.9941,1.1254155-.7011,1.1709155c.3593.0542.7051.1380845,1.0342.2573.7314-.9214,1.0937-1.3736,1.8271-2.2895999.915.4151,3.3144999,2.5131999,3.9560999,3.2758999-.7295.9146-2.7412999,1.4336-2.7412999,1.4336l.1133,1.1084c1.0362-.2563,2.5839999-.6436,2.5839999-.6436,0,0,1.6045.9234,1.6045,1.4970845,0,0-1.5059,1.2871154-1.6045,1.8574154-1.0322.2554-1.5488.3887-2.5839999.6445846-.1679.7368153-.4375,1.4624153-.7959,2.145.7285.5532153,1.8272212,1.3804153,1.8272212,1.3804153l1.5966787,1.4975Z" fill="#fff"/>
    </mask>
    <linearGradient id="linear-gradient" x1="16.6899494" y1="16.2086912" x2="12.9900704" y2="14.8673007" gradientUnits="userSpaceOnUse">
      <stop offset="0" stop-color="#b0b0b0"/>
      <stop offset=".2299108" stop-color="#b3b3b3"/>
      <stop offset=".4528815" stop-color="#bfbfbf"/>
      <stop offset=".6731111" stop-color="#d3d3d3"/>
      <stop offset=".8903092" stop-color="#eee"/>
      <stop offset="1" stop-color="#fff"/>
    </linearGradient>
    <radialGradient id="radial-gradient" cx="2.2236765" cy="192.0486602" fx="2.2236765" fy="192.0486602" r="3.1195424" gradientTransform="translate(13.0866 -155.2508108) rotate(-.7665879) scale(.994089 .9410144) skewX(-.7314274)" gradientUnits="userSpaceOnUse">
      <stop offset="0" stop-color="#999"/>
      <stop offset=".1611587" stop-color="#787878"/>
      <stop offset=".344564" stop-color="#5a5a5a"/>
      <stop offset=".5248598" stop-color="#444"/>
      <stop offset=".6988677" stop-color="#373737"/>
      <stop offset=".85955" stop-color="#333"/>
    </radialGradient>
    <radialGradient id="radial-gradient-2" cx="-36.1259286" cy="183.6268468" fx="-36.1259286" fy="183.6268468" r="5.718638" gradientTransform="translate(48.5365 -164.5621) rotate(-.7611116) scale(1.0689943 1.0121107) skewX(-.7206155)" gradientUnits="userSpaceOnUse">
      <stop offset=".005618" stop-color="#e6e6e6"/>
      <stop offset=".1767612" stop-color="#e1e1e1"/>
      <stop offset=".3536605" stop-color="#d5d5d5"/>
      <stop offset=".5331686" stop-color="silver"/>
      <stop offset=".7145471" stop-color="#a3a3a3"/>
      <stop offset=".8956025" stop-color="#7e7e7e"/>
      <stop offset="1" stop-color="#666"/>
    </radialGradient>
    <radialGradient id="radial-gradient-3" cx="-34.6268294" cy="171.075684" fx="-34.6268294" fy="171.075684" r="4.142533" gradientTransform="translate(48.5365 -164.5621) rotate(-.7611116) scale(1.0689943 1.0121107) skewX(-.7206155)" gradientUnits="userSpaceOnUse"><stop offset=".005618" stop-color="#e6e6e6"/><stop offset=".1767612" stop-color="#e1e1e1"/><stop offset=".3536605" stop-color="#d5d5d5"/><stop offset=".5331686" stop-color="silver"/><stop offset=".7145471" stop-color="#a3a3a3"/><stop offset=".8956025" stop-color="#7e7e7e"/><stop offset="1" stop-color="#666"/></radialGradient>
    <radialGradient id="radial-gradient-4" cx="-28.1520959" cy="167.415907" fx="-28.1520959" fy="167.415907" r="2.9500451" gradientTransform="translate(47.3324 -160.8981) rotate(-.7682568) scale(1.0515945 .9955092) skewX(-.7327355)" gradientUnits="userSpaceOnUse">
      <stop offset="0" stop-color="#e6e6e6"/>
      <stop offset="1" stop-color="#666"/>
    </radialGradient>
    <radialGradient id="radial-gradient-5" cx="-33.9549536" cy="175.6084156" fx="-33.9549536" fy="175.6084156" r="2.689102" gradientTransform="translate(47.3324 -160.8981) rotate(-.7682568) scale(1.0515945 .9955092) skewX(-.7327355)" gradientUnits="userSpaceOnUse">
      <stop offset="0" stop-color="#ccc"/>
      <stop offset="1" stop-color="#595959"/>
    </radialGradient>
    <radialGradient id="radial-gradient-6" cx="-35.2065821" cy="183.2120186" fx="-35.2065821" fy="183.2120186" r="3.2720298" gradientTransform="translate(48.5365 -164.5621) rotate(-.7611116) scale(1.0689943 1.0121107) skewX(-.7206155)" gradientUnits="userSpaceOnUse">
      <stop offset=".05618" stop-color="#333"/>
      <stop offset=".0916583" stop-color="#383838"/>
      <stop offset=".3724498" stop-color="#626262"/>
      <stop offset=".6271812" stop-color="gray"/>
      <stop offset=".8448738" stop-color="#929292"/>
      <stop offset="1" stop-color="#999"/>
    </radialGradient>
    <radialGradient id="radial-gradient-7" cx="-24.3729785" cy="170.1165009" fx="-24.3729785" fy="170.1165009" r="4.0880764" gradientTransform="translate(47.3324 -160.8981) rotate(-.7682568) scale(1.0515945 .9955092) skewX(-.7327355)" gradientUnits="userSpaceOnUse">
      <stop offset="0" stop-color="#e6e6e6"/>
      <stop offset=".1949535" stop-color="#bfbfbf"/>
      <stop offset=".4722457" stop-color="#8f8f8f"/>
      <stop offset=".6839972" stop-color="#717171"/>
      <stop offset=".803371" stop-color="#666"/>
    </radialGradient>
    <radialGradient id="radial-gradient-8" cx=".7997756" cy="176.3856778" fx=".7997756" fy="176.3856778" r="2.9846432" gradientTransform="translate(13.0866 -155.2508108) rotate(-.7665879) scale(.994089 .9410144) skewX(-.7314274)" gradientUnits="userSpaceOnUse">
      <stop offset="0" stop-color="#ccc"/>
      <stop offset="1" stop-color="#999"/>
    </radialGradient>
    <radialGradient id="radial-gradient-9" cx="-2.3771841" cy="181.324565" fx="-2.3771841" fy="181.324565" r="2.4722457" gradientTransform="translate(13.0866 -155.2508108) rotate(-.7665879) scale(.994089 .9410144) skewX(-.7314274)" gradientUnits="userSpaceOnUse">
      <stop offset="0" stop-color="#b0b0b0"/>
      <stop offset=".3271716" stop-color="#858585"/>
      <stop offset=".898876" stop-color="#333"/>
    </radialGradient>
    <linearGradient id="linear-gradient-2" x1="-14.5338044" y1="36.1906009" x2="-21.1308504" y2="34.8399127" gradientTransform="translate(29.5466 -19.7387) rotate(-.8384405) scale(1.0934171 1.0290898) skewX(-.7891203)" gradientUnits="userSpaceOnUse">
      <stop offset="0" stop-color="#666"/>
      <stop offset=".1243792" stop-color="#787878"/>
      <stop offset=".3746937" stop-color="#a7a7a7"/>
      <stop offset=".696629" stop-color="#ededed"/>
    </linearGradient>
    <radialGradient id="radial-gradient-10" cx="-24.8500824" cy="176.0040355" fx="-24.8500824" fy="176.0040355" r="6.9220307" gradientTransform="translate(47.3324 -160.8981) rotate(-.7682568) scale(1.0515945 .9955092) skewX(-.7327355)" gradientUnits="userSpaceOnUse">
      <stop offset="0" stop-color="#b0b0b0"/>
      <stop offset=".325836" stop-color="#b0b0b0"/>
      <stop offset=".853928" stop-color="#7b7b7b"/>
      <stop offset="1" stop-color="#606060"/>
    </radialGradient>
    <radialGradient id="radial-gradient-11" cx="25.2511038" cy="29.7856189" fx="25.2511038" fy="29.7856189" r="23.1372684" gradientTransform="translate(4.2402 2.725) scale(.7333)" gradientUnits="userSpaceOnUse">
      <stop offset=".297753" stop-color="#f2f2f2"/>
      <stop offset=".4221096" stop-color="#ededed"/>
      <stop offset=".5558546" stop-color="#e0e0e0"/>
      <stop offset=".6939879" stop-color="#cbcbcb"/>
      <stop offset=".8351285" stop-color="#adadad"/>
      <stop offset=".9773448" stop-color="#868686"/>
      <stop offset="1" stop-color="gray"/>
    </radialGradient>
    <linearGradient id="New_Gradient_182-2" data-name="New Gradient 182" x1="16.8589714" y1="174.3914809" x2="16.8589714" y2="199.1418615" gradientTransform="translate(8.381 -183.2001) rotate(-14.0000947) scale(1.191699 1.1219525) skewX(-13.2102833)" gradientUnits="userSpaceOnUse"><stop offset="0" stop-color="#ccc"/><stop offset="1" stop-color="#fff"/></linearGradient>
    <mask id="mask-1" x="13.2069452" y="13.1943024" width="29.1993332" height="30.1255123" maskUnits="userSpaceOnUse">
      <path d="M22.1444788,28.0332151c-.0429,2.4784999,2.2001999,4.2885999,4.7617999,3.6059999,2.7284999-.729,4.7088999-3.3110999,4.7655999-5.9789998.041-2.4687999-2.2011999-4.2875999-4.7655999-3.6015999-2.7275999.7339-4.7128999,3.3100999-4.7617999,5.9745998ZM39.7040784,33.689s-6.8905998.8618149-7.8856998.1108149c-.8077.6943-1.6953786,1.2905-2.6376999,1.7539-.0049,1.4214,0,2.1308999-.0049,3.5439999-.7373.3159-2.2694999,3.1747999-2.2694999,3.1747999l-2.2744999-2.0435147v-3.5390852c-.9443.003-.6552.9434-1.4657788.6587-.9931212,1.2471-.4844212,2.8198999-1.4805212,4.0644999-1.246-.5645-4.7157999-3.2777999-5.6034788-4.3363999,1.011779-1.271,1.7021789-2.0131999,2.6972789-3.2597999-.4902-.689-2.6376999.6313-2.6376999.6313h0c-.0605-.3461-2.2167999-2.0755999-2.2167999-2.0755999-.123-.8208-.2051-1.3731-.206-2.2758999,0-.7905.072221-1.5894.2041-2.3764999,1.4326-.3579,2.3534999-.5112151,3.7645999-.8618.209-.9087.5293-1.7935.9521-2.6449999.0479-.0928-.166-.1255-.166-.1255l-2.3924999-2.1469999c.8886-1.5005,2.170921-2.7333999,3.4247999-3.9276999.9912.7529,1.4902,1.1284,2.4862999,1.8872.8096-.6939,1.6943-1.29,2.6395999-1.7588v-3.5424999c.7412212-.3159,1.4961-.5742,2.2734999-.769.7744-.1909,1.5312-.3115,2.2704999-.3614l2.1874999,2.0322846s-1.3565,1.5351153-.957,1.5971153c.4902.0738.9619.188,1.4101.3511.9971-1.2568,1.4912-1.8735,2.4921999-3.1224999,1.248.5659,4.5204999,3.4281999,5.3954999,4.4676999-.9950784,1.2475847-3.7382999,1.9551-3.7382999,1.9551l.1543,1.5117c1.4121-.3496,3.5234999-.8774,3.5234999-.8774,0,0,2.1884216,1.2593,2.1884216,2.0424999,0,0-2.0537216,1.7553-2.1884216,2.5326848-1.4073.3481151-2.1113999.5303151-3.5234999.8789151-.2295,1.0049-.5967,1.9940849-1.0849,2.9252999.9921.7549,2.4911999,1.8833,2.4911999,1.8833l2.1776999,2.042485Z" fill="#fff"/>
    </mask>
    <linearGradient id="linear-gradient-3" x1="25.8512933" y1="27.0919791" x2="20.8053443" y2="25.2625711" gradientUnits="userSpaceOnUse"><stop offset="0" stop-color="#b0b0b0"/><stop offset=".2299108" stop-color="#b3b3b3"/><stop offset=".4528815" stop-color="#bfbfbf"/><stop offset=".6731111" stop-color="#d3d3d3"/><stop offset=".8903092" stop-color="#eee"/><stop offset="1" stop-color="#fff"/></linearGradient>
    <radialGradient id="radial-gradient-12" cx="8.1989408" cy="198.4406336" fx="8.1989408" fy="198.4406336" r="3.1197241" gradientTransform="translate(12.8114 -214.8464) rotate(-.7607993) scale(1.3556195 1.2833869) skewX(-.7202653)" gradientUnits="userSpaceOnUse"><stop offset="0" stop-color="#999"/><stop offset=".1611587" stop-color="#787878"/><stop offset=".344564" stop-color="#5a5a5a"/><stop offset=".5248598" stop-color="#444"/><stop offset=".6988677" stop-color="#373737"/><stop offset=".85955" stop-color="#333"/></radialGradient>
    <radialGradient id="radial-gradient-13" cx="-30.1105089" cy="189.276597" fx="-30.1105089" fy="189.276597" r="5.7182808" gradientTransform="translate(60.5126 -227.133) rotate(-.754624) scale(1.4578264 1.3803803) skewX(-.7145393)" gradientUnits="userSpaceOnUse"><stop offset=".005618" stop-color="#e6e6e6"/><stop offset=".1767612" stop-color="#e1e1e1"/><stop offset=".3536605" stop-color="#d5d5d5"/><stop offset=".5331686" stop-color="silver"/><stop offset=".7145471" stop-color="#a3a3a3"/><stop offset=".8956025" stop-color="#7e7e7e"/><stop offset="1" stop-color="#666"/></radialGradient>
    <radialGradient id="radial-gradient-14" cx="-28.6113303" cy="176.7255937" fx="-28.6113303" fy="176.7255937" r="4.1424172" gradientTransform="translate(60.5126 -227.133) rotate(-.754624) scale(1.4578264 1.3803803) skewX(-.7145393)" gradientUnits="userSpaceOnUse"><stop offset=".005618" stop-color="#e6e6e6"/><stop offset=".1767612" stop-color="#e1e1e1"/><stop offset=".3536605" stop-color="#d5d5d5"/><stop offset=".5331686" stop-color="silver"/><stop offset=".7145471" stop-color="#a3a3a3"/><stop offset=".8956025" stop-color="#7e7e7e"/><stop offset="1" stop-color="#666"/></radialGradient>
    <radialGradient id="radial-gradient-15" cx="-22.420383" cy="173.7301273" fx="-22.420383" fy="173.7301273" r="2.950048" gradientTransform="translate(59.415 -222.9075) rotate(-.7630995) scale(1.4341272 1.3576782) skewX(-.7264203)" gradientUnits="userSpaceOnUse"><stop offset="0" stop-color="#e6e6e6"/><stop offset="1" stop-color="#666"/></radialGradient>
    <radialGradient id="radial-gradient-16" cx="-28.2228629" cy="181.9234243" fx="-28.2228629" fy="181.9234243" r="2.6891803" gradientTransform="translate(59.415 -222.9075) rotate(-.7630995) scale(1.4341272 1.3576782) skewX(-.7264203)" gradientUnits="userSpaceOnUse"><stop offset="0" stop-color="#ccc"/><stop offset="1" stop-color="#595959"/></radialGradient>
    <radialGradient id="radial-gradient-17" cx="-29.1907994" cy="188.8620403" fx="-29.1907994" fy="188.8620403" r="3.2718433" gradientTransform="translate(60.5126 -227.133) rotate(-.754624) scale(1.4578264 1.3803803) skewX(-.7145393)" gradientUnits="userSpaceOnUse"><stop offset=".05618" stop-color="#333"/><stop offset=".0916583" stop-color="#383838"/><stop offset=".3724498" stop-color="#626262"/><stop offset=".6271812" stop-color="gray"/><stop offset=".8448738" stop-color="#929292"/><stop offset="1" stop-color="#999"/></radialGradient>
    <radialGradient id="radial-gradient-18" cx="-18.6409168" cy="176.4306541" fx="-18.6409168" fy="176.4306541" r="4.0878941" gradientTransform="translate(59.415 -222.9075) rotate(-.7630995) scale(1.4341272 1.3576782) skewX(-.7264203)" gradientUnits="userSpaceOnUse"><stop offset="0" stop-color="#e6e6e6"/><stop offset=".1949535" stop-color="#bfbfbf"/><stop offset=".4722457" stop-color="#8f8f8f"/><stop offset=".6839972" stop-color="#717171"/><stop offset=".803371" stop-color="#666"/></radialGradient>
    <radialGradient id="radial-gradient-19" cx="6.7765423" cy="182.7773074" fx="6.7765423" fy="182.7773074" r="2.9844194" gradientTransform="translate(12.8114 -214.8464) rotate(-.7607993) scale(1.3556195 1.2833869) skewX(-.7202653)" gradientUnits="userSpaceOnUse"><stop offset="0" stop-color="#ccc"/><stop offset="1" stop-color="#999"/></radialGradient>
    <radialGradient id="radial-gradient-20" cx="3.598935" cy="187.7165266" fx="3.598935" fy="187.7165266" r="2.4726889" gradientTransform="translate(12.8114 -214.8464) rotate(-.7607993) scale(1.3556195 1.2833869) skewX(-.7202653)" gradientUnits="userSpaceOnUse"><stop offset="0" stop-color="#b0b0b0"/><stop offset=".3271716" stop-color="#858585"/><stop offset=".898876" stop-color="#333"/></radialGradient>
    <linearGradient id="linear-gradient-4" x1="-6.721236" y1="47.5537141" x2="-14.9754597" y2="45.8637331" gradientTransform="translate(29.7247 -24.2861) rotate(-.8365157) scale(1.191827 1.1217804) skewX(-.787358)" gradientUnits="userSpaceOnUse"><stop offset="0" stop-color="#666"/><stop offset=".1243792" stop-color="#787878"/><stop offset=".3746937" stop-color="#a7a7a7"/><stop offset=".696629" stop-color="#ededed"/></linearGradient>
    <radialGradient id="radial-gradient-21" cx="-19.1180946" cy="182.3185963" fx="-19.1180946" fy="182.3185963" r="6.9222802" gradientTransform="translate(59.415 -222.9075) rotate(-.7630995) scale(1.4341272 1.3576782) skewX(-.7264203)" gradientUnits="userSpaceOnUse"><stop offset="0" stop-color="#b0b0b0"/><stop offset=".325836" stop-color="#b0b0b0"/><stop offset=".853928" stop-color="#7b7b7b"/><stop offset="1" stop-color="#606060"/></radialGradient>
    <radialGradient id="radial-gradient-22" cx="25.6143607" cy="82.0591105" fx="25.6143607" fy="82.0591105" r="20.5899587" gradientTransform="translate(5.342 -53.7228) scale(1.1237)" gradientUnits="userSpaceOnUse"><stop offset=".297753" stop-color="#f2f2f2"/><stop offset=".4221096" stop-color="#ededed"/><stop offset=".5558546" stop-color="#e0e0e0"/><stop offset=".6939879" stop-color="#cbcbcb"/><stop offset=".8351285" stop-color="#adadad"/><stop offset=".9773448" stop-color="#868686"/><stop offset="1" stop-color="gray"/></radialGradient>
  </defs>
  <g opacity=".75">
    <path d="M28.4081787,16.8726153c.0938213-.5679.1465-1.1407.1465-1.7139,0-.5713-.0526787-1.1206-.1465-1.6387154,0-.5736846-1.6045-1.4970845-1.6045-1.4970845,0,0-.8779.2203-1.749.438-.0126788-.0141-.0215-.0293-.0313-.0449154.7325-.9183845,1.0948-1.3768845,1.8243-2.2914845-.1006-.1182-.2403-.2676-.4102-.4341-.0488-.0527-.1024787-.1035-.1553-.1523-.9668-.9444-2.6571787-2.3559999-3.3905999-2.6894999-.7334.916-1.0957,1.3682-1.8271,2.2895999-.1074789-.041-.2217-.0703-.3331-.1011v-1.3271155l-1.6035-1.4902844c-.542.0366-1.0966.1255-1.665.2652-.5703.1425-1.1231.3325-1.666.5644,0,1.0396-.001,1.5546844-.001,2.5971999-.6934.3437-1.3418.7807-1.9355,1.2894845-.7305-.5560845-1.0967-.832-1.8233-1.3837845-.9189.876-1.8594,1.7803-2.5116999,2.8803999l1.7549,1.5737c.041.0333.0771.0611.122.0923h0c-.3105.6241-.5449,1.273-.6992,1.9395-1.0342.2568-1.709.3691-2.7596999.6318-.0967.5772-.1495,1.1626-.1495,1.7422,0,.6626.0606,1.0674.1514,1.669,0,0,1.5801,1.268,1.625,1.5218847.7276-.1835848,1.334-.3627848,1.8945-.5067848.0127.0146.0254.0259.0391.0434-.7295.9141-1.2363,1.4585-1.9775,2.3906999.3154.3745,1.1816209.9453,1.9443,1.5976.5576.6099,1.2158,1.1035,1.96,1.4760849.0771.0396151.1455.0791151.2041.1055151.7304-.9126,1.0996-1.3745151,1.8281-2.2909999.1084.0394849.2236.0712.333.102v1.3203l1.6006,1.439v.0596c.0215211.0024.04-.0035.0605211-.0093l.0058789.0093s.0019-.0079.0019-.0103c.5186-.0381151,1.0528-.123,1.5997-.2598.5693-.1416,1.1259-.331,1.6669-.5634v-2.5966999c.6924-.3408,1.3438-.7779,1.9327-1.2876.7343.5493,1.0957.8276,1.8291,1.3808.916-.872,1.7129-1.8769,2.3544999-2.9574999l-1.5966787-1.4975s-.0508213-.0328-.127-.0962c.3075787-.6211.5507787-1.271.7011787-1.9322153,1.0322-.2562847,1.5469-.3876847,2.5829999-.6463847ZM15.573179,18.3965153c.0391-1.9546,1.4883-3.8471999,3.4921999-4.3847999.6006211-.1601,1.1748-.1284,1.6778.0386.1435.3384.2177.7124.2148211,1.1084-.041,1.9565-1.4941211,3.8495999-3.4941211,4.3842846-.5987.1601153-1.1758.1328153-1.6826-.0370847-.1368-.336-.2139-.7105-.2081-1.1094Z" fill="url(#New_Gradient_182)" fill-rule="evenodd" stroke="#000" stroke-linecap="round" stroke-linejoin="round" stroke-width="2"/>
    <g mask="url(#mask)">
      <g>
        <path d="M13.972679,16.8994153c-.0323,1.8169,1.612321,3.1440999,3.4911999,2.6435847,1.9999999-.5346847,3.4531211-2.4277847,3.4941211-4.3842846.0302789-1.8101-1.6142211-3.1435999-3.4941211-2.6400999-1.9999999.5376-3.4560999,2.4266999-3.4911999,4.3807999ZM26.8476787,21.0449152s-5.0527999.6323-5.7822999.0820848c-.5918.5087152-1.2431.9462152-1.9345,1.2861152-.003,1.042,0,1.562-.003,2.5980999-.541.2315-1.665,2.3281999-1.665,2.3281999l-1.667-1.4986v-2.5946999c-.6924.0024-.4814.6914-1.0752.4834-.7285.9141-.3555,2.0673999-1.0859,2.9799999-.9141-.4136-3.4570999-2.4032999-4.1083999-3.1791999.7412-.9322,1.248-1.4766,1.9775-2.3906999-.3594-.5048-1.9336.4633848-1.9336.4633848h0c-.0449-.2538848-1.625-1.5218847-1.625-1.5218847-.0908-.6016-.1514-1.0064-.1514-1.669,0-.5796.0528-1.165.1495-1.7422,1.0507-.2627,1.7255-.375,2.7596999-.6318.1543-.6665.3887-1.3154.6992-1.9395.0352-.0683-.122-.0923-.122-.0923l-1.7549-1.5737c.6523-1.1001,1.5928-2.0043999,2.5116999-2.8803999.7266.5517845,1.0928.8277,1.8233,1.3837845.5937-.5087845,1.2421-.9457845,1.9355-1.2894845,0-1.0425155.001-1.5576.001-2.5971999.5429-.2319,1.0957-.4219,1.666-.5644.5684-.1397,1.123-.2286,1.665-.2652l1.6035,1.4902844s-.9941,1.1254155-.7011,1.1709155c.3593.0542.7051.1380845,1.0342.2573.7314-.9214,1.0937-1.3736,1.8271-2.2895999.915.4151,3.3144999,2.5131999,3.9560999,3.2758999-.7295.9146-2.7412999,1.4336-2.7412999,1.4336l.1133,1.1084c1.0362-.2563,2.5839999-.6436,2.5839999-.6436,0,0,1.6045.9234,1.6045,1.4970845,0,0-1.5059,1.2871154-1.6045,1.8574154-1.0322.2554-1.5488.3887-2.5839999.6445846-.1679.7368153-.4375,1.4624153-.7959,2.145.7285.5532153,1.8272212,1.3804153,1.8272212,1.3804153l1.5966787,1.4975Z" fill="url(#linear-gradient)"/>
        <polygon points="15.274379 28.1074151 18.3427789 28.0635151 18.3437789 23.6611152 15.275379 23.7012152 15.274379 28.1074151" fill="url(#radial-gradient)" fill-rule="evenodd"/>
        <path d="M7.9433792,16.6699153c.6982.3789,1.6269,1.5205,1.6269,1.5205v3.4125847s-1.1112791-.3050848-1.707-1.4452847c-.5947-1.1382-.6182-3.8657153.0801-3.4877999Z" fill="url(#radial-gradient-2)" fill-rule="evenodd"/>
        <polygon points="9.5253791 12.4326154 12.0370791 9.5522155 13.636679 11.0498155 11.2802791 14.0063154 9.5253791 12.4326154" fill="url(#radial-gradient-3)" fill-rule="evenodd"/>
        <path d="M15.796879,7.0483156c.2402-1.1557,2.955121-1.185,3.3319999-.8291.3779.3482,1.6055,1.4887844,1.6055,1.4887844l-3.3378999.8335155-1.5996-1.4932Z" fill="url(#radial-gradient-4)" fill-rule="evenodd"/>
        <path d="M10.7030791,16.0381154c.2237.1811,1.1035.8823,1.6299209,1.3721.5282791.4921.7724791-2.0195999.7724791-2.0195999l-1.8252-1.1709s-.8037,1.6416-.5772,1.8184Z" fill="url(#radial-gradient-5)" fill-rule="evenodd"/>
        <path d="M13.1063791,22.6328152l-1.6025-1.4932s-1.7607,2.1894999-1.9775,2.3906999c-.2139.207,1.3916209,1.8515,1.7539,1.3965.3633-.4566,1.8261-2.2939999,1.8261-2.2939999Z" fill="url(#radial-gradient-6)" fill-rule="evenodd"/>
        <polygon points="21.0653789 9.1372155 22.666 10.6333155 24.4950788 8.3389156 22.8925788 6.8472156 21.0653789 9.1372155" fill="url(#radial-gradient-7)" fill-rule="evenodd"/>
        <polygon points="25.6181787 14.4141154 28.8075787 13.6162154 26.8300787 11.7725155 24.6278788 12.2568155 25.6181787 14.4141154" fill="#666"/>
        <path d="M15.796879,9.646c.4658.4365155,1.6015,1.4951155,1.6015,1.4951155l-1.9345,1.2891-1.6035-1.4947s1.4697-1.7265155,1.9365-1.2895155Z" fill="url(#radial-gradient-8)" fill-rule="evenodd"/>
        <path d="M10.7030791,16.0381154c.7539209.7095,1.5967,1.4971,1.5967,1.4971l.8057-2.1445999-1.8252-1.3843-.5772,2.0317999" fill="url(#radial-gradient-9)" fill-rule="evenodd"/>
        <path d="M7.9433792,16.6699153c.7314.6856,1.6269,1.5205,1.6269,1.5205l2.7294999-.6552-1.5967-1.4971s-3.4930791-.0527-2.7596999.6318Z" fill="url(#linear-gradient-2)"/>
        <path d="M15.573179,18.3965153c-.033179,1.813,1.6094,3.1454847,3.4931999,2.6386999,1.9989999-.5332152,3.4511999-2.4252999,3.4901999-4.3813999.0352-1.812-1.6113-3.1449999-3.4911999-2.6420999-2.0038999.5376-3.4530999,2.4301999-3.4921999,4.3847999ZM24.4931788,24.0024152c-.7334-.5532-1.0948-.8315-1.8291-1.3808-.5889.5097-1.2403.9468-1.9327,1.2876v2.5966999c-.541.2324-1.0976.4218-1.6669.5634-.5694.1421-1.126.2315-1.668.2701v-2.5966999c-.6904.001-1.3418-.1089-1.9336-.3242-.7285.9164849-1.0977,1.3784-1.8281,2.2909999-.9141-.4136-1.7129-1.0186-2.3544999-1.7827.7295-.9165,1.0957209-1.3741,1.8261-2.2939999-.3583791-.5044-.6308-1.0898152-.8056-1.7402-1.0283.2553-1.6797.4463-2.7304999.7103848-.0967-.5282848-.1504-1.0873848-.1504-1.6678847,0-.5845.0537-1.1646.1504-1.7447,1.0508-.2607,1.7022-.3984153,2.7294999-.6552.1738-.7393.4482209-1.4624.8066-2.1445999-.7293791-.5547-1.0996-.832-1.8261-1.3843.6416-1.08,1.4404-2.0833999,2.3563999-2.9564999.7285.5523,1.0967.8296,1.8262,1.3814.5918-.5108,1.2432-.9478,1.9346-1.2891,0-1.0405,0-1.5571155-.002-2.5995999.543-.2315155,1.0977-.4175155,1.668-.5615155.5713-.1415844,1.125-.2294844,1.6679-.271v2.6001155c.6905-.0025,1.3428.1088,1.9327.3247.7353-.9156,1.0966-1.3765,1.8271-2.2944999.917.4165,1.7149,1.0215,2.3564999,1.7842-.7295.9146-1.0918,1.3731-1.8243,2.2914845.3584.5049154.6319,1.0943154.7989,1.7476154,1.0351-.2583,1.5507213-.3858,2.5858999-.6436154.0938213.5181154.1465,1.0674154.1465,1.6387154,0,.5732-.0526787,1.146-.1465,1.7139-1.0361.2587-1.5508.3901-2.5829999.6463847-.168.7354153-.4414,1.459-.7998,2.1426153.7295.5532,1.0937.8286,1.8223,1.3833-.6416,1.0806-1.4385,2.0854999-2.3544999,2.9574999Z" fill="none" stroke="#4d4d4d" stroke-width=".75"/>
        <path d="M14.767579,17.4272153c.001-2.6317999,1.8379-4.7933999,4.1024999-4.8226999,2.2607999-.0313,4.1025999,2.0751999,4.1034999,4.7128999-.0009,2.6332999-1.8418,4.7963999-4.1044999,4.8231999-2.2635999.0327-4.1004999-2.0780999-4.1014999-4.7133999Z" fill="url(#radial-gradient-10)" fill-rule="evenodd"/>
        <path d="M13.972679,16.8994153c-.0323,1.8169,1.612321,3.1440999,3.4911999,2.6435847,1.9999999-.5346847,3.4531211-2.4277847,3.4941211-4.3842846.0302789-1.8101-1.6142211-3.1435999-3.4941211-2.6400999-1.9999999.5376-3.4560999,2.4266999-3.4911999,4.3807999ZM26.8476787,21.0449152s-5.0527999.6323-5.7822999.0820848c-.5918.5087152-1.2431.9462152-1.9345,1.2861152-.003,1.042,0,1.562-.003,2.5980999-.541.2315-1.665,2.3281999-1.665,2.3281999l-1.667-1.4986v-2.5946999c-.6924.0024-.4814.6914-1.0752.4834-.7285.9141-.3555,2.0673999-1.0859,2.9799999-.9141-.4136-3.4570999-2.4032999-4.1083999-3.1791999.7412-.9322,1.248-1.4766,1.9775-2.3906999-.3594-.5048-1.9336.4633848-1.9336.4633848h0c-.0449-.2538848-1.625-1.5218847-1.625-1.5218847-.0908-.6016-.1514-1.0064-.1514-1.669,0-.5796.0528-1.165.1495-1.7422,1.0507-.2627,1.7255-.375,2.7596999-.6318.1543-.6665.3887-1.3154.6992-1.9395.0352-.0683-.122-.0923-.122-.0923l-1.7549-1.5737c.6523-1.1001,1.5928-2.0043999,2.5116999-2.8803999.7266.5517845,1.0928.8277,1.8233,1.3837845.5937-.5087845,1.2421-.9457845,1.9355-1.2894845,0-1.0425155.001-1.5576.001-2.5971999.5429-.2319,1.0957-.4219,1.666-.5644.5684-.1397,1.123-.2286,1.665-.2652l1.6035,1.4902844s-.9941,1.1254155-.7011,1.1709155c.3593.0542.7051.1380845,1.0342.2573.7314-.9214,1.0937-1.3736,1.8271-2.2895999.915.4151,3.3144999,2.5131999,3.9560999,3.2758999-.7295.9146-2.7412999,1.4336-2.7412999,1.4336l.1133,1.1084c1.0362-.2563,2.5839999-.6436,2.5839999-.6436,0,0,1.6045.9234,1.6045,1.4970845,0,0-1.5059,1.2871154-1.6045,1.8574154-1.0322.2554-1.5488.3887-2.5839999.6445846-.1679.7368153-.4375,1.4624153-.7959,2.145.7285.5532153,1.8272212,1.3804153,1.8272212,1.3804153l1.5966787,1.4975Z" fill="none"/>
      </g>
    </g>
    <path d="M15.573179,18.3965153c-.033179,1.813,1.6094,3.1454847,3.4931999,2.6386999,1.9989999-.5332152,3.4511999-2.4252999,3.4901999-4.3813999.0352-1.812-1.6113-3.1449999-3.4911999-2.6420999-2.0038999.5376-3.4530999,2.4301999-3.4921999,4.3847999ZM24.4931788,24.0024152c-.7334-.5532-1.0948-.8315-1.8291-1.3808-.5889.5097-1.2403.9468-1.9327,1.2876v2.5966999c-.541.2324-1.0976.4218-1.6669.5634-.5694.1421-1.126.2315-1.668.2701v-2.5966999c-.6904.001-1.3418-.1089-1.9336-.3242-.7285.9164849-1.0977,1.3784-1.8281,2.2909999-.9141-.4136-1.7129-1.0186-2.3544999-1.7827.7295-.9165,1.0957209-1.3741,1.8261-2.2939999-.3583791-.5044-.6308-1.0898152-.8056-1.7402-1.0283.2553-1.6797.4463-2.7304999.7103848-.0967-.5282848-.1504-1.0873848-.1504-1.6678847,0-.5845.0537-1.1646.1504-1.7447,1.0508-.2607,1.7022-.3984153,2.7294999-.6552.1738-.7393.4482209-1.4624.8066-2.1445999-.7293791-.5547-1.0996-.832-1.8261-1.3843.6416-1.08,1.4404-2.0833999,2.3563999-2.9564999.7285.5523,1.0967.8296,1.8262,1.3814.5918-.5108,1.2432-.9478,1.9346-1.2891,0-1.0405,0-1.5571155-.002-2.5995999.543-.2315155,1.0977-.4175155,1.668-.5615155.5713-.1415844,1.125-.2294844,1.6679-.271v2.6001155c.6905-.0025,1.3428.1088,1.9327.3247.7353-.9156,1.0966-1.3765,1.8271-2.2944999.917.4165,1.7149,1.0215,2.3564999,1.7842-.7295.9146-1.0918,1.3731-1.8243,2.2914845.3584.5049154.6319,1.0943154.7989,1.7476154,1.0351-.2583,1.5507213-.3858,2.5858999-.6436154.0938213.5181154.1465,1.0674154.1465,1.6387154,0,.5732-.0526787,1.146-.1465,1.7139-1.0361.2587-1.5508.3901-2.5829999.6463847-.168.7354153-.4414,1.459-.7998,2.1426153.7295.5532,1.0937.8286,1.8223,1.3833-.6416,1.0806-1.4385,2.0854999-2.3544999,2.9574999Z" fill="url(#radial-gradient-11)"/>
  </g>
  <g>
    <path d="M41.832,27.9985151c.128-.7744.1992783-1.5561.1992783-2.3378999,0-.7788-.0712783-1.5278-.1992783-2.2342999,0-.7832-2.1884216-2.0424999-2.1884216-2.0424999,0,0-1.1963.3008-2.3857999.5976-.0166-.0195-.0283-.04-.041-.062.998-1.2524152,1.4922216-1.8774152,2.4872999-3.1249999-.1377-.1611-.3280784-.3647-.5596-.5918-.0674-.0717-.1396-.1416153-.2119-.208-1.3193-1.2876153-3.6239999-3.2128999-4.6239999-3.6678999-1.001,1.249-1.4951,1.8657-2.4921999,3.1224999-.1455-.0556-.3018-.0957-.4531-.1382153v-1.81l-2.1874999-2.0322846c-.7393.0499-1.4961.1705-2.2704999.3614-.7774.1948-1.5322787.4531-2.2734999.769v3.5424999c-.9453.4688-1.83,1.0649-2.6395999,1.7588-.9961-.7588-1.4951-1.1343-2.4862999-1.8872-1.2538789,1.1943-2.5361999,2.4271999-3.4247999,3.9276999l2.3924999,2.1469999c.0567.0454.1055.083.166.1255h0c-.4228.8515-.7431,1.7363-.9521,2.6449999-1.4111.3505849-2.3319999.5039-3.7645999.8618-.131879.7871-.2041,1.586-.2041,2.3764999.0009.9028.083,1.4551.206,2.2758999,0,0,2.1562999,1.7295,2.2167999,2.0755999.9922-.2504,1.8193-.4946,2.5839999-.6909.0176.02.0342.0352.0537.0596-.9951,1.2466-1.6855,1.9887999-2.6972789,3.2597999.429679.5112,1.6113789,1.2895,2.6513789,2.1791999.7607.8315,1.6592,1.5053,2.6737999,2.0130852.1045.0542147.1983.1084147.2783.1441147.9961-1.2446,1.4991-1.8745,2.4931999-3.1244999.1475.0542.3047.0976.4531.1391v1.8012852l2.1835999,1.9624147v.0811c.0293.0029.0537-.0039.083-.0127l.0079.0127s.0029-.0108.0029-.0137c.707-.0523,1.4346-.168,2.1805999-.3545.7764-.1929,1.5352213-.4512,2.2734999-.7681v-3.5414999c.9443-.4648,1.832-1.0605,2.6347214-1.7558,1.002.749,1.4960785,1.1284,2.4951785,1.8833,1.25-1.1895,2.3358999-2.5595999,3.2108999-4.0332148l-2.1776999-2.042485s-.0693784-.0449-.1729-.1314c.419-.847115.751-1.7339.9551-2.6351999,1.4082-.3496,2.1102999-.5283,3.5234216-.8814ZM24.3280788,30.075215c.0537-2.6654999,2.0302999-5.2460999,4.7626999-5.9794998.8184-.2183,1.6016-.1753,2.2880999.0527.1953.4615.2969.9712.293,1.5118-.0567,2.6678999-2.0370999,5.2499999-4.7655999,5.9789998-.8155.2187-1.6026.1811-2.2939999-.0503-.1875-.4585-.291-.9688-.2842-1.5137Z" fill="url(#New_Gradient_182-2)" fill-rule="evenodd" stroke="#000" stroke-linecap="round" stroke-linejoin="round" stroke-width="2"/>
    <g mask="url(#mask-1)">
      <g>
        <path d="M22.1444788,28.0332151c-.0429,2.4784999,2.2001999,4.2885999,4.7617999,3.6059999,2.7284999-.729,4.7088999-3.3110999,4.7655999-5.9789998.041-2.4687999-2.2011999-4.2875999-4.7655999-3.6015999-2.7275999.7339-4.7128999,3.3100999-4.7617999,5.9745998ZM39.7040784,33.689s-6.8905998.8618149-7.8856998.1108149c-.8077.6943-1.6953786,1.2905-2.6376999,1.7539-.0049,1.4214,0,2.1308999-.0049,3.5439999-.7373.3159-2.2694999,3.1747999-2.2694999,3.1747999l-2.2744999-2.0435147v-3.5390852c-.9443.003-.6552.9434-1.4657788.6587-.9931212,1.2471-.4844212,2.8198999-1.4805212,4.0644999-1.246-.5645-4.7157999-3.2777999-5.6034788-4.3363999,1.011779-1.271,1.7021789-2.0131999,2.6972789-3.2597999-.4902-.689-2.6376999.6313-2.6376999.6313h0c-.0605-.3461-2.2167999-2.0755999-2.2167999-2.0755999-.123-.8208-.2051-1.3731-.206-2.2758999,0-.7905.072221-1.5894.2041-2.3764999,1.4326-.3579,2.3534999-.5112151,3.7645999-.8618.209-.9087.5293-1.7935.9521-2.6449999.0479-.0928-.166-.1255-.166-.1255l-2.3924999-2.1469999c.8886-1.5005,2.170921-2.7333999,3.4247999-3.9276999.9912.7529,1.4902,1.1284,2.4862999,1.8872.8096-.6939,1.6943-1.29,2.6395999-1.7588v-3.5424999c.7412212-.3159,1.4961-.5742,2.2734999-.769.7744-.1909,1.5312-.3115,2.2704999-.3614l2.1874999,2.0322846s-1.3565,1.5351153-.957,1.5971153c.4902.0738.9619.188,1.4101.3511.9971-1.2568,1.4912-1.8735,2.4921999-3.1224999,1.248.5659,4.5204999,3.4281999,5.3954999,4.4676999-.9950784,1.2475847-3.7382999,1.9551-3.7382999,1.9551l.1543,1.5117c1.4121-.3496,3.5234999-.8774,3.5234999-.8774,0,0,2.1884216,1.2593,2.1884216,2.0424999,0,0-2.0537216,1.7553-2.1884216,2.5326848-1.4073.3481151-2.1113999.5303151-3.5234999.8789151-.2295,1.0049-.5967,1.9940849-1.0849,2.9252999.9921.7549,2.4911999,1.8833,2.4911999,1.8833l2.1776999,2.042485Z" fill="url(#linear-gradient-3)"/>
        <polygon points="23.9208788 43.3198147 28.1054787 43.2607147 28.1063787 37.2559148 23.9218788 37.3105148 23.9208788 43.3198147" fill="url(#radial-gradient-12)" fill-rule="evenodd"/>
        <path d="M13.922879,27.7202151c.952121.5171,2.2186999,2.0736999,2.2186999,2.0736999v4.6542999s-1.514579-.416-2.3270999-1.9716c-.8116-1.5518-.8438-5.2719999.1084-4.7563999Z" fill="url(#radial-gradient-13)" fill-rule="evenodd"/>
        <polygon points="16.081079 21.9409152 19.5058789 18.0132153 21.6864788 20.0557153 18.4735789 24.0879152 16.081079 21.9409152" fill="url(#radial-gradient-14)" fill-rule="evenodd"/>
        <path d="M24.6327788,14.5981154c.3272212-1.5766,4.0302999-1.6157,4.5448999-1.1303.5147.4746,2.1884999,2.0306999,2.1884999,2.0306999l-4.5516999,1.1363-2.1816999-2.0366999Z" fill="url(#radial-gradient-15)" fill-rule="evenodd"/>
        <path d="M17.6864789,26.8589151c.3047.2470849,1.5049,1.2030849,2.2226999,1.8710849.7207.671415,1.0547-2.7543849,1.0547-2.7543849l-2.4902999-1.5967s-1.0965789,2.2382999-.7871,2.4799999Z" fill="url(#radial-gradient-16)" fill-rule="evenodd"/>
        <path d="M20.9647789,35.853l-2.1854999-2.0360851s-2.4013999,2.9852999-2.6972789,3.2597999c-.292.2822,1.8984789,2.5253999,2.3915789,1.9047.4961-.622,2.4911999-3.1284148,2.4911999-3.1284148Z" fill="url(#radial-gradient-17)" fill-rule="evenodd"/>
        <polygon points="31.8183786 17.4478153 34.001 19.4883153 36.4950785 16.3589154 34.3104785 14.3242154 31.8183786 17.4478153" fill="url(#radial-gradient-18)" fill-rule="evenodd"/>
        <polygon points="38.0263784 24.6455151 42.376 23.5571152 39.6796784 21.042 36.6767785 21.7026152 38.0263784 24.6455151" fill="#666"/>
        <path d="M24.6327788,18.1411153c.6348.5952,2.1835999,2.0395999,2.1835999,2.0395999l-2.6376999,1.7578-2.1864999-2.0385999s2.0048999-2.3549999,2.6405999-1.7588Z" fill="url(#radial-gradient-19)" fill-rule="evenodd"/>
        <path d="M17.6864789,26.8589151c1.0283.9673,2.1777999,2.0414999,2.1777999,2.0414999l1.0996-2.9247999-2.4902999-1.8877-.7871,2.7709999" fill="url(#radial-gradient-20)" fill-rule="evenodd"/>
        <path d="M13.922879,27.7202151c.998.9351,2.2186999,2.0736999,2.2186999,2.0736999l3.7226999-.8935-2.1767999-2.0419999s-4.7645999-.0723-3.7645999.8618Z" fill="url(#linear-gradient-4)"/>
        <path d="M24.3280788,30.075215c-.0459,2.4730999,2.1952999,4.2909999,4.7636999,3.5995999,2.7274999-.7275,4.7069999-3.3075999,4.7606999-5.9755998.0469-2.4712151-2.1981999-4.2889999-4.7616999-3.6034999-2.7323999.7334-4.7089999,3.3139999-4.7626999,5.9794998ZM36.4931785,37.7222148c-.9991-.7549-1.4931785-1.1343-2.4951785-1.8833-.8027215.6953-1.6904214,1.291-2.6347214,1.7558v3.5414999c-.7382786.3169-1.4971.5752-2.2734999.7681-.7753.1938-1.5361.3164-2.2743999.3682v-3.5410999c-.9423787.001-1.83-.1494148-2.6366999-.4428-.9941,1.25-1.4971,1.8799-2.4931999,3.1244999-1.246-.5645-2.3368999-1.3897-3.2118999-2.4316999.9961-1.25,1.4952-1.8735,2.4911999-3.1284148-.4902-.688-.8613-1.4862851-1.0996-2.3734851-1.4023.3486-2.2899999.6089-3.7235999.9687-.1318-.7202149-.2041-1.4824-.2041-2.2748999,0-.797315.0723-1.588315.2041-2.3793999,1.4336-.3554,2.3212999-.542915,3.7226999-.8935.2373-1.0078.6103-1.9945999,1.1005-2.9247999-.996-.7569-1.5-1.1343-2.4911999-1.8877.875-1.4732,1.9649-2.8417999,3.2128999-4.0321999.9951.7534,1.4961,1.1318,2.4911999,1.8838.8077-.6963,1.6953212-1.2925152,2.6376999-1.7579,0-1.4189,0-2.1239999-.0019-3.5453999.7392-.3159,1.4961-.5688,2.2743999-.7651.7783-.1934,1.5342-.313,2.2753999-.3701154v3.5464153c.9404-.0035,1.8301.1484,2.6347214.4428,1.003-1.2485,1.4960785-1.8769,2.4921785-3.1288999,1.251.5679,2.3388999,1.3936,3.2138999,2.4330999-.9950784,1.2475847-1.4893,1.8725847-2.4872999,3.1249999.4873.689.8613,1.4927,1.0889,2.3842999,1.4111-.3525,2.1141999-.5264,3.5263216-.8774.128.7065.1992783,1.4555.1992783,2.2342999,0,.7818-.0712783,1.5635-.1992783,2.3378999-1.4131216.3531-2.1152216.5318-3.5234216.8814-.2285,1.0034-.6015784,1.9901999-1.0898,2.9218999.996.7548,1.4921,1.1303,2.4852999,1.887185-.875,1.4736149-1.9609,2.8437148-3.2108999,4.0332148Z" fill="none" stroke="#4d4d4d" stroke-width=".75"/>
        <path d="M23.2294788,28.753915c.001-3.5897999,2.5067999-6.5380998,5.5946999-6.5775998,3.0839999-.042,5.5946999,2.8304999,5.5966999,6.4281998-.001,3.5912999-2.5116999,6.5409998-5.5966999,6.5775998-3.0887999.0445-5.5936999-2.8343999-5.5946999-6.4281998Z" fill="url(#radial-gradient-21)" fill-rule="evenodd"/>
        <path d="M22.1444788,28.0332151c-.0429,2.4784999,2.2001999,4.2885999,4.7617999,3.6059999,2.7284999-.729,4.7088999-3.3110999,4.7655999-5.9789998.041-2.4687999-2.2011999-4.2875999-4.7655999-3.6015999-2.7275999.7339-4.7128999,3.3100999-4.7617999,5.9745998ZM39.7040784,33.689s-6.8905998.8618149-7.8856998.1108149c-.8077.6943-1.6953786,1.2905-2.6376999,1.7539-.0049,1.4214,0,2.1308999-.0049,3.5439999-.7373.3159-2.2694999,3.1747999-2.2694999,3.1747999l-2.2744999-2.0435147v-3.5390852c-.9443.003-.6552.9434-1.4657788.6587-.9931212,1.2471-.4844212,2.8198999-1.4805212,4.0644999-1.246-.5645-4.7157999-3.2777999-5.6034788-4.3363999,1.011779-1.271,1.7021789-2.0131999,2.6972789-3.2597999-.4902-.689-2.6376999.6313-2.6376999.6313h0c-.0605-.3461-2.2167999-2.0755999-2.2167999-2.0755999-.123-.8208-.2051-1.3731-.206-2.2758999,0-.7905.072221-1.5894.2041-2.3764999,1.4326-.3579,2.3534999-.5112151,3.7645999-.8618.209-.9087.5293-1.7935.9521-2.6449999.0479-.0928-.166-.1255-.166-.1255l-2.3924999-2.1469999c.8886-1.5005,2.170921-2.7333999,3.4247999-3.9276999.9912.7529,1.4902,1.1284,2.4862999,1.8872.8096-.6939,1.6943-1.29,2.6395999-1.7588v-3.5424999c.7412212-.3159,1.4961-.5742,2.2734999-.769.7744-.1909,1.5312-.3115,2.2704999-.3614l2.1874999,2.0322846s-1.3565,1.5351153-.957,1.5971153c.4902.0738.9619.188,1.4101.3511.9971-1.2568,1.4912-1.8735,2.4921999-3.1224999,1.248.5659,4.5204999,3.4281999,5.3954999,4.4676999-.9950784,1.2475847-3.7382999,1.9551-3.7382999,1.9551l.1543,1.5117c1.4121-.3496,3.5234999-.8774,3.5234999-.8774,0,0,2.1884216,1.2593,2.1884216,2.0424999,0,0-2.0537216,1.7553-2.1884216,2.5326848-1.4073.3481151-2.1113999.5303151-3.5234999.8789151-.2295,1.0049-.5967,1.9940849-1.0849,2.9252999.9921.7549,2.4911999,1.8833,2.4911999,1.8833l2.1776999,2.042485Z" fill="none"/>
      </g>
    </g>
    <path d="M24.3280788,30.075215c-.0459,2.4730999,2.1952999,4.2909999,4.7636999,3.5995999,2.7274999-.7275,4.7069999-3.3075999,4.7606999-5.9755998.0469-2.4712151-2.1981999-4.2889999-4.7616999-3.6034999-2.7323999.7334-4.7089999,3.3139999-4.7626999,5.9794998ZM36.4931785,37.7222148c-.9991-.7549-1.4931785-1.1343-2.4951785-1.8833-.8027215.6953-1.6904214,1.291-2.6347214,1.7558v3.5414999c-.7382786.3169-1.4971.5752-2.2734999.7681-.7753.1938-1.5361.3164-2.2743999.3682v-3.5410999c-.9423787.001-1.83-.1494148-2.6366999-.4428-.9941,1.25-1.4971,1.8799-2.4931999,3.1244999-1.246-.5645-2.3368999-1.3897-3.2118999-2.4316999.9961-1.25,1.4952-1.8735,2.4911999-3.1284148-.4902-.688-.8613-1.4862851-1.0996-2.3734851-1.4023.3486-2.2899999.6089-3.7235999.9687-.1318-.7202149-.2041-1.4824-.2041-2.2748999,0-.797315.0723-1.588315.2041-2.3793999,1.4336-.3554,2.3212999-.542915,3.7226999-.8935.2373-1.0078.6103-1.9945999,1.1005-2.9247999-.996-.7569-1.5-1.1343-2.4911999-1.8877.875-1.4732,1.9649-2.8417999,3.2128999-4.0321999.9951.7534,1.4961,1.1318,2.4911999,1.8838.8077-.6963,1.6953212-1.2925152,2.6376999-1.7579,0-1.4189,0-2.1239999-.0019-3.5453999.7392-.3159,1.4961-.5688,2.2743999-.7651.7783-.1934,1.5342-.313,2.2753999-.3701154v3.5464153c.9404-.0035,1.8301.1484,2.6347214.4428,1.003-1.2485,1.4960785-1.8769,2.4921785-3.1288999,1.251.5679,2.3388999,1.3936,3.2138999,2.4330999-.9950784,1.2475847-1.4893,1.8725847-2.4872999,3.1249999.4873.689.8613,1.4927,1.0889,2.3842999,1.4111-.3525,2.1141999-.5264,3.5263216-.8774.128.7065.1992783,1.4555.1992783,2.2342999,0,.7818-.0712783,1.5635-.1992783,2.3378999-1.4131216.3531-2.1152216.5318-3.5234216.8814-.2285,1.0034-.6015784,1.9901999-1.0898,2.9218999.996.7548,1.4921,1.1303,2.4852999,1.887185-.875,1.4736149-1.9609,2.8437148-3.2108999,4.0332148Z" fill="url(#radial-gradient-22)"/>
  </g>
</svg>