<?xml version="1.0" encoding="UTF-8"?>
<svg id="Layer_1" data-name="Layer 1" xmlns="http://www.w3.org/2000/svg" width="48" height="48" xmlns:xlink="http://www.w3.org/1999/xlink" viewBox="0 0 48 48">
  <defs>
    <linearGradient id="New_Gradient_379" data-name="New Gradient 379" x1="28.0914525" y1="40.0160732" x2="20.5092466" y2="11.7188955" gradientUnits="userSpaceOnUse">
      <stop offset="0" stop-color="#b2b2b2"/>
      <stop offset="1" stop-color="#fff"/>
    </linearGradient>
    <mask id="mask" x="8.7821898" y="21.3907399" width="39.659124" height="24.2181345" maskUnits="userSpaceOnUse">
      <path d="M12.9311875,34.9805161s1.4174,3.1966999,5.1205999,4.8607999c0,0,7.7289998,1.4619,17.9530995-2.6483999,8.1522998-3.2782999,6.5321998-8.9750998,6.5321998-8.9750998,0,0-1.9004-5.8095999-8.3671998-6.6825998-5.6801999-.7671-10.3197997,1.6635-14.1625996,3.9159999-2.8802874,1.6894-6.2269998,4.8002999-6.8422874,6.3534998-.3764124.9492-.2338125,3.1757999-.2338125,3.1757999Z" fill="#fff" fill-rule="evenodd"/>
    </mask>
    <linearGradient id="New_Gradient_369" data-name="New Gradient 369" x1="30.385624" y1="41.4945777" x2="24.6910443" y2="20.242117" gradientUnits="userSpaceOnUse">
      <stop offset="0" stop-color="#d9d9d9"/>
      <stop offset=".79776" stop-color="#fff"/>
      <stop offset="1" stop-color="#fff"/>
    </linearGradient>
    <linearGradient id="linear-gradient" x1="23.5759512" y1="18.9462151" x2="37.3365769" y2="48.4559721" gradientUnits="userSpaceOnUse">
      <stop offset="0" stop-color="#a4b6d9"/>
      <stop offset="1" stop-color="#343a75"/>
    </linearGradient>
    <linearGradient id="New_Gradient_368" data-name="New Gradient 368" x1="20.8081002" y1="26.5252731" x2="23.8213907" y2="37.7710263" gradientUnits="userSpaceOnUse">
      <stop offset="0" stop-color="#ccc"/>
      <stop offset="1" stop-color="#999"/>
    </linearGradient>
    <mask id="mask-1" x="16.6373368" y="27.5967438" width="6.8216632" height="5.1631234" maskUnits="userSpaceOnUse">
      <path d="M18.2631874,31.9863162l3.5619999-2.0184999s.7256-.7451-.04-1.4532c-.7631873-.7089-1.4795-.9594-2.9941873-.2236163-1.4897126.7241162-2.0708125,2.0659162-1.8628126,2.7569162.2832.9497,1.335.9384,1.335.9384Z" fill="#fff" fill-rule="evenodd" stroke="#fff" stroke-miterlimit="3.8637" stroke-width=".5"/>
    </mask>
    <radialGradient id="New_Gradient_367" data-name="New Gradient 367" cx="18.0751417" cy="27.6381091" fx="18.0751417" fy="27.6381091" r="4.5688661" gradientUnits="userSpaceOnUse">
      <stop offset="0" stop-color="#a4aad9"/>
      <stop offset="1" stop-color="#8187ba"/>
    </radialGradient>
    <radialGradient id="New_Gradient_366" data-name="New Gradient 366" cx="27.2935602" cy="23.1802205" fx="27.2935602" fy="23.1802205" r="11.9061228" gradientTransform="translate(4.7661969 .6725971) scale(.9857)" gradientUnits="userSpaceOnUse">
      <stop offset="0" stop-color="#fff"/>
      <stop offset=".280899" stop-color="#fff"/>
      <stop offset=".60112" stop-color="#e5e5e5"/>
      <stop offset="1" stop-color="#ccc"/>
    </radialGradient>
    <linearGradient id="New_Gradient_365" data-name="New Gradient 365" x1="25.8567461" y1="36.7885317" x2="21.4561137" y2="29.4646494" gradientUnits="userSpaceOnUse">
      <stop offset="0" stop-color="#ccc"/>
      <stop offset="1" stop-color="#f2f2f2"/>
    </linearGradient>
  </defs>
  <path d="M12.9311875,34.9805161s-.1426-2.2265999.2338125-3.1757999c.6152875-1.5532,3.962-4.6640999,6.8422874-6.3534998,3.8427999-2.2524999,8.4823998-4.6830999,14.1625996-3.9159999,6.4667998.873,8.3671998,6.6825998,8.3671998,6.6825998,0,0,1.6201,5.6967999-6.5321998,8.9750998-10.2240997,4.1102999-17.9530995,2.6483999-17.9530995,2.6483999-1.7115-.769-2.9330999-1.8652-3.7548999-2.821316-.1323.007316-.3023.011216-.4981.008316-2.6317875-.0527-4.7469999-1.4404-5.2328999-4.278316-1.7548877-10.2426836,13.7299997-12.6415835,13.4389997-17.9008834-.1108873-1.9979999-1.5694-3.6429999-4.1816999-3.9169999-.8759-.0918-.7358-1.4048.1368126-1.3125,3.1805873.334,5.2093873,2.4379999,5.3612873,5.1562999.3647127,6.5702998-15.0702873,8.3275998-13.4555997,17.7518996.3321,1.9361,1.7705,3.0121838,3.4633999,3.1767999-.2725-.4414-.3979-.7241-.3979-.7241Z" fill="url(#New_Gradient_379)" stroke="#000" stroke-linecap="round" stroke-linejoin="round" stroke-width="2"/>
  <g mask="url(#mask)">
    <g>
      <path d="M12.9311875,34.9805161s1.4174,3.1966999,5.1205999,4.8607999c0,0,7.7289998,1.4619,17.9530995-2.6483999,8.1522998-3.2782999,6.5321998-8.9750998,6.5321998-8.9750998,0,0-1.9004-5.8095999-8.3671998-6.6825998-5.6801999-.7671-10.3197997,1.6635-14.1625996,3.9159999-2.8802874,1.6894-6.2269998,4.8002999-6.8422874,6.3534998-.3764124.9492-.2338125,3.1757999-.2338125,3.1757999Z" fill="url(#New_Gradient_369)" fill-rule="evenodd"/>
      <path d="M12.8651875,31.1206162s-.1855,1.0107.4991,1.9633838c.685.9531161,4.0062999,4.449716,5.6478999,5.002916,1.6406.5542,13.8090997-.9946,21.0229995-5.4750999,7.2138131-4.4813999,7.8446998-8.8886998,7.8446998-8.8886998l-3.3534999,17.1718836-28.0639993,4.105-6.9779998-8.9301839,3.3807999-4.9491999Z" fill="url(#linear-gradient)" fill-rule="evenodd" stroke="#666" stroke-miterlimit="3.8637" stroke-width="1.1343"/>
      <path d="M24.8275872,26.2202163s-1.0888-2.1762999-5.1239999-2.5873999l-7.4686998,5.5175999s.7622.2645838,1.2231124.8657c-.0342125,1.9356,1.6674875,2.8832999,1.9535875,3.1567999,0,0,.1187-.9776.478-1.4258.3575-.4492.5528-.3726.5528-.3726,0,0-.5562-.7568.0654-1.2656.7691-.6279162,2.5483999-1.7852,3.8485999-2.3861999,0,0,.605-.0347163,1.1758.5297l3.2953999-2.0321999Z" fill="none" fill-rule="evenodd" stroke="#ccc" stroke-linecap="round" stroke-linejoin="round" stroke-width=".5671"/>
    </g>
  </g>
  <path d="M22.8812873,29.2358162c.3335.5054.2984,1.0796-.3222,1.4073-.7984.4214-2.8539999,1.7236-3.4716999,2.1366999-.8115.5434-1.4185.1548-1.7808-.166-.4311.0654-.6533,1.3149-.6795874,1.6196.4115874.4243,2.0243874,2.0277999,3.1288874,2.2987999,1.2905.3174,6.2254998-.3125,8.7733998-1.2383.4941-.1796.6372-2.8685999-.8511-5.2606999-.4424-.7119-1.2539-1.915-1.9979999-2.4520999-.4561.2465-1.7666.9633-2.7988999,1.6547ZM17.2470874,35.7261161c-.2270874-.1958-1.3047-1.0894-1.2900874-1.3882,0,0,.0126875-.2295.0527875-.52.0898-.6201.6001-2.1049999,1.4878-1.8379161.4848.145.5781.6836162,1.2231.2514162.6289-.4194162,2.7187999-1.7431,3.5303126-2.1717999.623-.3282-.5987127-.7691-.0391127-1.1626162.6519-.4614837,3.2528999-2.1464837,3.6142999-1.9970837,0,0,.0727.0308.2114.1255.8354128.5854,1.6997,1.8525,2.2001999,2.6596999,1.3481,2.1654999,1.8535,5.7420999.5166,6.2289998-2.5907999.9414-7.6747998,1.6215-9.1552998,1.2588-.7783-.191-1.6797-.8672-2.3519999-1.4468Z" fill="url(#New_Gradient_368)"/>
  <g mask="url(#mask-1)">
    <g>
      <path d="M18.2631874,31.9863162l3.5619999-2.0184999s.7256-.7451-.04-1.4532c-.7631873-.7089-1.4795-.9594-2.9941873-.2236163-1.4897126.7241162-2.0708125,2.0659162-1.8628126,2.7569162.2832.9497,1.335.9384,1.335.9384Z" fill="url(#New_Gradient_367)" fill-rule="evenodd"/>
      <path d="M19.4057874,29.3257162c-1.7764,1.0902838-2.2719999,2.8680999-1.2486,3.3895999.7891.4029,5.3018126-2.0594999,5.3018126-2.0594999,0,0-1.4365127-2.8456999-4.0532126-1.3301Z" fill="#555b91" fill-rule="evenodd"/>
      <path d="M18.2631874,31.9863162l3.5619999-2.0184999s.7256-.7451-.04-1.4532c-.7631873-.7089-1.4795-.9594-2.9941873-.2236163-1.4897126.7241162-2.0708125,2.0659162-1.8628126,2.7569162.2832.9497,1.335.9384,1.335.9384Z" fill="none" fill-rule="evenodd" stroke="#555b91" stroke-miterlimit="3.8637" stroke-width=".5"/>
    </g>
  </g>
  <path d="M15.0976875,37.412116s.9101-.4302.6464-1.4585" fill="none" stroke="#666" stroke-linecap="round" stroke-miterlimit="3.8637" stroke-width="1.1343"/>
  <path d="M14.6288875,36.991716s-.3267.0474-.8301.0366c-2.6317875-.0527-4.7469999-1.4404-5.2328999-4.278316-1.7548877-10.2426836,13.7299997-12.6415835,13.4389997-17.9008834-.1108873-1.9979999-1.5694-3.6429999-4.1816999-3.9169999-.8759-.0918-.7358-1.4048.1368126-1.3125,3.1805873.334,5.2093873,2.4379999,5.3612873,5.1562999.3647127,6.5702998-15.0702873,8.3275998-13.4555997,17.7518996.4038,2.3520999,2.4384999,3.4350999,4.5849999,3.1572999.8725-.1187,1.0508,1.1884.1782,1.3066Z" fill="#ccc"/>
  <path d="M31.0414871,35.2144161c4.0980999-1.0289,10.7553997-4.6962999,10.9408997-5.3500999,0,0,.2305-.4961-.2109-1.792-.3037-.8941-2.4657999-4.6288999-6.5907998-5.7613163,0,0-.625.0826164-.1739.398,1.908213,1.332,4.4130999,3.4048163,3.7079999,6.1704162-.6396,2.5209999-6.8539998,5.4423999-7.5917869,5.7699999-.7382129.3262-.0815129.565-.0815129.565Z" fill="url(#New_Gradient_366)" fill-rule="evenodd"/>
  <path d="M20.3778874,35.8804161c3.3149999.0717,6.8754998-.6577,7.3531126-.9898.476-.3315.5052872-.8994.5052872-.8994,0,0-.2309-2.4135999-1.5107-4.2123999,0,0-.6045-.1421-.4219.2831838.1812.4253162.3242,2.4756162-.2216872,3.2568161-.937,1.3355-5.6782126,2.0541839-5.6782126,2.0541839,0,0-.6284.3746161-.0259.5074161Z" fill="url(#New_Gradient_365)" fill-rule="evenodd"/>
</svg>