<?xml version="1.0" encoding="UTF-8"?>
<svg xmlns="http://www.w3.org/2000/svg" width="48" height="48" xmlns:xlink="http://www.w3.org/1999/xlink" viewBox="0 0 48 48">
  <defs>
    <radialGradient id="New_Gradient_355" data-name="New Gradient 355" cx="28.0989462" cy="11.6320092" fx="28.0989462" fy="11.6320092" r="15.1782592" gradientTransform="translate(2.7367873 -1.3298116) scale(.9408)" gradientUnits="userSpaceOnUse">
      <stop offset="0" stop-color="#ffe900"/>
      <stop offset=".623596" stop-color="#d68100"/>
      <stop offset="1" stop-color="#9a5500"/>
    </radialGradient>
    <mask id="mask" x="13.7431803" y="28.5916186" width="23.3808817" height="15.8985882" maskUnits="userSpaceOnUse">
      <path d="M24.42478,30.7236186c5.8935999,0,10.6747997,2.9667999,10.6747997,6.6269998,0,3.6581999-4.7811999,6.6249998-10.6747997,6.6249998-5.8983999,0-10.6815997-2.9667999-10.6815997-6.6249998,0-3.6601999,4.7831999-6.6264998,10.6815997-6.6269998Z" fill="#fff"/>
    </mask>
    <radialGradient id="New_Gradient_353" data-name="New Gradient 353" cx="15.8809558" cy="31.2285198" fx="15.8809558" fy="31.2285198" r="19.2195662" gradientUnits="userSpaceOnUse">
      <stop offset="0" stop-color="#ffe900"/>
      <stop offset=".533707" stop-color="#d68100"/>
      <stop offset=".915726" stop-color="#9a5500"/>
      <stop offset="1" stop-color="#9a5500"/>
    </radialGradient>
    <radialGradient id="New_Gradient_354" data-name="New Gradient 354" cx="24.2978675" cy="48.4160178" fx="24.2978675" fy="48.4160178" r="14.4240284" gradientTransform="translate(2.7367873 -1.3298116) scale(.9408)" gradientUnits="userSpaceOnUse">
      <stop offset="0" stop-color="#ecd600"/>
      <stop offset=".146072" stop-color="#ecb300"/>
      <stop offset="1" stop-color="#9a5500"/>
    </radialGradient>
    <mask id="mask-1" x="15.8205801" y="28.5916186" width="18.0394996" height="12.4695998" maskUnits="userSpaceOnUse">
      <path d="M24.46388,30.7061186c3.8524999,0,6.9774998,1.8774,6.9774998,4.1913999,0,2.3177999-3.1249999,4.1937999-6.9774998,4.1937999-3.8544999,0-6.9775998-1.8755-6.9775998-4.1928999,0-2.3148999,3.1230999-4.1922999,6.9775998-4.1922999Z" fill="#fff"/>
    </mask>
    <linearGradient id="New_Gradient_352" data-name="New Gradient 352" x1="16.5447065" y1="35.047395" x2="33.7090972" y2="43.7930889" gradientTransform="translate(-.0522 .0479)" gradientUnits="userSpaceOnUse">
      <stop offset="0" stop-color="#ecb300"/>
      <stop offset=".213486" stop-color="#d68100"/>
      <stop offset="1" stop-color="#6b3200"/>
    </linearGradient>
    <mask id="mask-2" x="20.0985801" y="7.0859192" width="19.7909995" height="29.6699993" maskUnits="userSpaceOnUse">
      <path d="M20.0985801,36.0244185c1.4678.4751,3.0341999.7315,4.6601999.7315,8.3563998,0,15.1307996-6.7753998,15.1307996-15.1313996,0-6.8969998-4.5897999-12.7142997-10.8924997-14.5385996l-.6709,2.1635999c5.3838201,1.5404808,9.3008201,6.4975998,9.3008201,12.3749997,0,7.1049998-5.7618202,12.8671997-12.86822,12.8671997-1.2647,0-2.4862999-.1846-3.6435999-.5259l-1.0166,2.0585999Z" fill="#fff" fill-rule="evenodd"/>
    </mask>
    <linearGradient id="New_Gradient_349" data-name="New Gradient 349" x1="29.9940798" y1="7.0859192" x2="29.9940798" y2="36.7559185" gradientUnits="userSpaceOnUse">
      <stop offset="0" stop-color="#ecb300"/>
      <stop offset=".5" stop-color="#d68100"/>
      <stop offset=".853928" stop-color="#9a5500"/>
      <stop offset="1" stop-color="#6b3200"/>
    </linearGradient>
    <linearGradient id="New_Gradient_351" data-name="New Gradient 351" x1="34.3675797" y1="7.1035192" x2="34.3675797" y2="18.5996189" gradientTransform="translate(-.0522 .0479)" gradientUnits="userSpaceOnUse">
      <stop offset="0" stop-color="#ffe900"/>
      <stop offset="1" stop-color="#d68100"/>
    </linearGradient>
    <linearGradient id="New_Gradient_350" data-name="New Gradient 350" x1="35.8198354" y1="12.0703191" x2="35.8198354" y2="30.7983186" gradientTransform="translate(-.0522 .0479)" gradientUnits="userSpaceOnUse">
      <stop offset="0" stop-color="#d68100"/>
      <stop offset="1" stop-color="#fff95e"/>
    </linearGradient>
    <linearGradient id="New_Gradient_348" data-name="New Gradient 348" x1="20.6713714" y1="37.338073" x2="21.8419937" y2="31.3157436" gradientTransform="translate(-.0522 .0479)" gradientUnits="userSpaceOnUse">
      <stop offset="0" stop-color="#9a5500"/>
      <stop offset=".432587" stop-color="#6b3200"/>
      <stop offset="1" stop-color="#6b3200"/>
    </linearGradient>
    <linearGradient id="New_Gradient_347" data-name="New Gradient 347" x1="15.8372999" y1="40.8894129" x2="17.48507" y2="33.137264" gradientTransform="translate(-.0522 .0479)" gradientUnits="userSpaceOnUse">
      <stop offset="0" stop-color="#ffffb3"/>
      <stop offset="1" stop-color="#ffe900"/>
    </linearGradient>
    <mask id="mask-3" x="9.8876803" y="9.2241191" width="27.6168493" height="31.5521635" maskUnits="userSpaceOnUse">
      <path d="M9.8876803,22.6782188c0-7.4302188,6.0233998-13.4540997,13.4540997-13.4540997,7.4286998-.0005,13.4520997,6.0238808,13.4520997,13.4540997,0,7.4281998-6.0233998,13.4501997-13.4520997,13.4501997-7.4306998.001-13.4540997-6.0214998-13.4540997-13.4501997Z" fill="#fff" fill-rule="evenodd"/>
    </mask>
    <radialGradient id="radial-gradient" cx="18.4922829" cy="16.9752478" fx="18.4922829" fy="16.9752478" r="19.1536986" gradientUnits="userSpaceOnUse">
      <stop offset="0" stop-color="#dfeaeb"/>
      <stop offset=".303371" stop-color="#b7e9ff"/>
      <stop offset=".52809" stop-color="#3c97f6"/>
      <stop offset=".825843" stop-color="#032c87"/>
      <stop offset="1" stop-color="#0342d3"/>
    </radialGradient>
    <mask id="mask-4" x="21.6847825" y="19.4624392" width="15.8197472" height="17.2070947" maskUnits="userSpaceOnUse">
      <path d="M35.8017797,21.4526189c0,7.8041998-4.7226999,13.2773811-12.4658997,13.8188997-.8222.0591-.9394-.6519-.1328-.8423,6.5849998-1.5566,11.04692-8.8534998,11.7724997-13.0522185.0742-.9697811.8262-.7480811.8262.0756189Z" fill="#fff"/>
    </mask>
    <linearGradient id="linear-gradient" x1="22.1679658" y1="12.1041374" x2="20.6526391" y2="41.0182935" gradientTransform="translate(-.0522 .0479)" gradientUnits="userSpaceOnUse">
      <stop offset="0" stop-color="#65bd7b"/>
      <stop offset=".0074065" stop-color="#60bb74"/>
      <stop offset=".0565792" stop-color="#45af4f"/>
      <stop offset=".1023037" stop-color="#32a734"/>
      <stop offset=".1428936" stop-color="#27a224"/>
      <stop offset=".174157" stop-color="#23a11f"/>
      <stop offset=".2984012" stop-color="#1c871d"/>
      <stop offset=".4981417" stop-color="#14651b"/>
      <stop offset=".6872815" stop-color="#0e4c19"/>
      <stop offset=".8596362" stop-color="#0b3d18"/>
      <stop offset="1" stop-color="#0a3818"/>
    </linearGradient>
    <mask id="mask-5" x="11.6595455" y="12.4234683" width="25.8449842" height="27.8573655" maskUnits="userSpaceOnUse">
      <path d="M12.4911803,13.6509191c.0811.2124-.2637.352-.0311803.3862.5165803.0713.8124803-.3149,1.3290803-.2422.1757.0239.2568.0606.4257.0982-.0449.3462.0723.5756.0225.9198809-.0722802.52-.499.695819-.5742,1.215319-.042.3223.1308.521.084.8428-.0186.147-.1055.2222-.1494.3555l.0615-.4434c-.0996-.0151-.1397-.0713-.2403-.085-.5048-.0717-.3974.6846-.6582,1.113781-.5039.811-.9306,1.2539189-1.0615,2.1914189-.1933,1.3799.3936,2.1928999.1992,3.5712999-.0693.5205.2129.811.5313,1.2319.0762.0118.1514.0098.2051-.0205-.0909-1.1572-.2803-1.7617-.2442-2.9012999.293.3935.1319.7739.3301,1.2031.4111.8500812.6807,1.3290812.9424,2.2440812.0937.3291188-.1094.6265187.0752.916.3916.6075187.5781,1.0874187,1.2012,1.4776187.3466.2129.7285198.0019,1.0156.292.4355.4531.5117,1.0766,1.1435,1.1679.3184198.0444813.5166-.1279.8369-.0839.3838.0546.1446.5971.292.9487.1377.3056814.5274.1982.8008.4121.3301.2603.377.7075.8018.7665814.2402.0332186.3359199-.2558814.5801-.2191814.3955.0541814.2666.6147.2119,1.0101814-.1084.7627186-1.0293.8609186-1.1338,1.6236186-.0205.1376.1191.208.1025.3413-.0224.1958-.2812.2373-.3135.4345-.0771.5435.3448.791.6338,1.2437.2549199.4043.2227.8008.5977,1.0928.5215.4120815,1.3945.4594,1.3008,1.1137-.1543,1.0948-1.1358,1.2993-1.7237,2.2460999.1045.0655.1631199.1236.2832.1406,1.3194.1856,1.9629199-.7299,3.2275999-1.1552.86032-.2818,1.4482-.1616,2.2460999-.5913.4218-.2144.4687-.6382.8799-.8799.8496-.5093,1.4707-.6382,2.1493999-1.3594.4336-.4556.3652-.9658.6709201-1.5142.4335798-.7812.9618798-1.0478,1.3182798-1.8784-.1045-.0634-.1542798-.1699186-.289-.1914l-.9112-.1269c-.5683-.0801-.9882-.5782-.9072-1.1446186-.6278799-.101-.9873-.1273814-1.6162-.2157814-.8018-.1123-.9688-.9902186-1.7686-1.1025-.3486-.0484-.5009.3315-.8457.2817-.4589-.062-.6757-.2949-1.1328-.3594186-.2832-.0394814-.4189.2193186-.5439.4771186l-.2041.021c-.0518-.1826-.002-.3257.02442-.523.01068-.0742-.11522-.082-.13092-.1445-.5742.1563-.7666.7979-1.3564.7143814-.1494-.0200814-.2012-.1791814-.3526-.2001814-.2685-.0371-.4199.1425-.6923.104-.5059-.0723-.9971-.4297-.9239-.9351.0254-.185.2315-.2319.2569-.4155.0664-.457-.2969-.7471-.7177801-.9575l-.3096199.0561-.4423801-.0625c.0117801-.0849-.0332199-.1426-.0205199-.2275.044-.3198187.4756-.3364.5196-.6577.042-.2818.0019199-.4639.1045-.7378l-.8145-.1162c-.3467.2148-.5137.6342-.9355.5742-.7393-.104-1.1875-.8467-1.083-1.5855.122-.8774.5742-1.854,1.4502-1.7329.2919.0415.4228.209.7158.2515.2138.0293.2793-.2632.4873-.2324188.5537.0776188,1.2119.333,1.1347.8881188-.0712.5054.2911.858.75,1.085.043-.1182.0655-.1919.0948-.312l-.1289-1.6021188c.4365199-.7572812,1.5-.6454812,1.6201-1.4950812l.0791-.5688c.0928-.6514.8301-.9527,1.4804-.8589-.0419-.2446-.1962-.3804-.165-.627.0391-.2714.3438-.3037.6094-.3671-.0078.1093-.002.1878811.0058.3012.5899-.104,1.2354-.2026,1.3155-.7949.0136-.0723-.1123-.0796-.1309-.145-.1914.0498-.3281.1045-.5371.0757-.2812-.0396-.1865-.4424-.123-.7232-.1739-.0234-.2764-.0259189-.4522-.0107.1309-.1978.3106-.2334.5449-.2774l.2793.1391811c.15922-.063.2686-.1234811.4307-.1908811.0527.2338811-.0156.5532.22852.5874l1.0761799.1504c.0762-.2657-.294-.3179189-.4815-.5205-.164-.1719.0342-.4229-.1132-.6202-.2569-.3374-.627-.2749-.9883-.4897-.6133-.375-.6074-1.2046-1.32618-1.3047-.13572-.019-.18652.1738-.32622.1548-.4775-.0674-.55078-.6314-1.0273-.6973-.1514-.0219-.2451.0288-.3877.0464.0166.2529.20122.3794.1631.626-.0606.4194-.6582.3984-.7178.8174-.0352.2602.0938.4028.1064.668881-.3867-.016081-.2734-.554681-.5341-.829581-.4522-.4663-1.4659-.333-1.3701-.9853.1259-.9248,1.6962-.6294,1.8242-1.5537.0107-.0738-.0723-.1118-.0752-.1739.1191-.0214.1875-.0752.3115-.0566.3926.0537.5811.3203.7617.6714-.2353.0664-.3828.0474-.623.114681.5097.310119,1,.239819,1.3584.719319l.4892-.2344c-.1035-.1782-.1894-.2891-.3467-.4258.1045-.0224.1954-.0356.3018-.0063-.24018-.4356-.6914-.438-1.1016-.7222-.415-.2827-.6103-.5874-1.1181-.6587l.0361-.2339191c.041-.3094809.2461-.4198809.4434199-.6556809-.128-.0664-.2051199-.1294-.3584199-.1504-.3155-.0469191-.7237-.0254-.7695801.2949-.0293199.1958.1630801.2607.2431801.4351-.1387.1064-.2421801.1820809-.3447.3046.1103.1016.2197.2198.1943.3814-.0146.1084-.1289.1182-.2226.168-.1934-.3423-.4258-.5635-.3681801-.9576-.1768199.0132-.4053199.0191-.4307199.191-.0302.2104.1348.3071.2344.4858-.1728.0762-.2852.1611-.4834.1328l-.4316-.062c.0507-.1157.1718-.1489191.1914-.2852l.0683-.5058c-.2861-.0132-.4355-.0884-.7216-.127-.2325-.0351-.5186.0386-.5547.2735-.0342.2612.2177.3452.3759199.5571-.122.0444-.1875199.1372-.3203199.1167-.2558-.0357-.1679-.4116-.3701-.5669-.2734-.2139-.5459-.0625-.8975-.0747.0206-.3252-.0507-.7124-.371-.7559-.8975-.1274-1.417.252-2.2734999.5845-.6338.2505-1.1865.1737809-1.6914.6177ZM18.5185801,18.7222189c.4462-.1651.7207-.4009,1.2002-.335.3095.043.2802199.4297.5205.6143.3271.2592.6552.2304.9287199.5341-.2207199.2178-.3643199.3731-.667.4576.0380801-.2715-.0996199-.5655-.3701199-.604-.4434-.0625-.2325.7714-.6368.9657811-.0654-.3486811-.1200801-.5702811-.0712-.9164811.0244-.1856.163-.2774.3066-.3838-.1533-.0957189-.2334-.2344-.4199-.2593-.2451-.0351-.5459-.0644189-.791-.0732ZM21.82708,19.8521189l.2833.1411c-.417.457-.8965.6533-1.5147.5677811l-.2715-.0394811c.3867-.4971.8555-.6201,1.5029-.6694ZM22.29,28.0024187c-.13672-.0205-.02832-.2182-.041-.3452.13188-.0195.21-.0468.34668-.0512187.0049-.1132813.0049-.1884813-.0059-.3027813.0879.0122.1329-.0332187.2168-.0215.5088.0718.7373.3052,1.23642.4252813-.39752.5747187-1.07422.3911187-1.753.2954187ZM19.8563801,26.7046187c-.2558-.0493-.4658-.1538-.5302-.4155.331-.0528.5107-.0777.8486-.0308.4512199.0649.6924.2378,1.0908.4565.3028.1665.7735.2095.7266.5533-.0283.2104-.28418.2378-.4961.209l-.4297-.0611187c.0537-.1078813.1143-.1864813.1885-.2743813-.3672-.3301-.6113-.5649-1.1074-.6348-.083-.0107-.211.1836-.2911.1978ZM22.80658,13.2397191c.4678.3296.7159.7046,1.2969.7212.0606.3619.374.4449.6162.7032.4366.4775.6905.9023,1.3291.9921.1123.0162.1787-.010219.293-.0083-.1699-.415-.5732-.5971-.5097799-1.0395.043-.2725.3036799-.3599.3398799-.6318.0683-.4571-.6162-.4248-1.0137-.646-.5615-.3047-.8486-.6719-1.4883-.7627-.581-.0801-1.1601-.0117-1.4316.5029.1562.0605.3945.1563.5683.1689Z" fill="#fff" fill-rule="evenodd"/>
    </mask>
    <radialGradient id="radial-gradient-2" cx="15.9261708" cy="15.6883516" fx="15.9261708" fy="15.6883516" r="24.5952133" gradientUnits="userSpaceOnUse">
      <stop offset="0" stop-color="#d3edd5"/>
      <stop offset=".0881577" stop-color="#ceebd0"/>
      <stop offset=".1888042" stop-color="#c1e5c2"/>
      <stop offset=".2955934" stop-color="#aadbab"/>
      <stop offset=".4067144" stop-color="#8bce8b"/>
      <stop offset=".5211732" stop-color="#64bd62"/>
      <stop offset=".6367876" stop-color="#34a830"/>
      <stop offset=".674157" stop-color="#23a11f"/>
      <stop offset=".6869737" stop-color="#209b1c"/>
      <stop offset=".7628023" stop-color="#128010"/>
      <stop offset=".8398735" stop-color="#086d07"/>
      <stop offset=".9182832" stop-color="#016101"/>
      <stop offset="1" stop-color="#005e00"/>
    </radialGradient>
    <mask id="mask-6" x="21.6847825" y="19.4624392" width="15.8197472" height="17.2070947" maskUnits="userSpaceOnUse">
      <path d="M35.8017797,21.4526189c0,7.8041998-4.7226999,13.2773811-12.4658997,13.8188997-.8222.0591-.9394-.6519-.1328-.8423,6.5849998-1.5566,11.04692-8.8534998,11.7724997-13.0522185.0742-.9697811.8262-.7480811.8262.0756189Z" fill="#fff"/>
    </mask>
    <radialGradient id="radial-gradient-3" cx="24.5997938" cy="6.6568349" fx="24.5997938" fy="6.6568349" r="5.7963754" gradientTransform="translate(.3588946 -.233105) scale(.9748)" gradientUnits="userSpaceOnUse">
      <stop offset="0" stop-color="#fff"/>
      <stop offset=".601124" stop-color="#e19a00"/>
      <stop offset="1" stop-color="#995510"/>
    </radialGradient>
  </defs>
  <g isolation="isolate">
    <g id="Layer_1" data-name="Layer 1">
      <g>
        <path d="M33.5507798,33.9243185c3.8319999-2.7450999,6.3387998-7.2255998,6.3387998-12.2997997,0-1.3032-.163-2.5648999-.4715796-3.7699999-.3555204-2.1996999-2.0635203-8.3881998-10.1739201-10.7030997l-.0019.0165808c-.084-.0248808-.1621-.0566808-.2441799-.0820808.0937799-.4843-.2001201-.9648-.6835201-1.0859192-.5-.1254807-1.0059.1772192-1.129.6797192l-.6796,2.7128999c-.0186.0732-.0068799.146-.0068799.2192-1.01462-.2451-2.06742-.3877-3.15722-.3877-7.4306998,0-13.4540997,6.0238808-13.4540997,13.4540997,0,4.5297812,2.2460999,8.5282998,5.6806999,10.9662997-1.1513802,1.0576-1.8252,2.3334814-1.8252,3.7060999,0,.3418.0576.6753.1367,1.0023815.2988,1.9009184,2.1346999,3.5664183,4.8143999,4.5806183,1.6573.6562,3.6191999,1.042,5.7304999,1.042.1709,0,.3389-.0122.5078-.0166183,5.1591999-.0717817,8.8124998-2.3461816,9.8261998-4.8993816.1553-.1387.2978-.5293.3213-.9864.0117-.2529.0176-.4892184.0195-.7192184v-.0072815c.0049-.9287185-.1377-1.7017185-.831-2.5644999-.2022-.2988-.4522-.5825-.7178-.8579ZM33.5683798,12.2363191v.0059c-.0673798-.0645-.1368-.127-.2051-.1895.0664.0616.1377202.1192.2051.1836ZM32.9687798,11.707c-.1241-.1048809-.2569-.2020809-.3857798-.3016809.1288798.0996.2616798.1968.3857798.3016809ZM32.1698798,11.0967191c-.1367-.0962-.2763-.1865-.416-.2779.1397.0914.2793.1817.416.2779ZM31.3192798,10.5479191c-.1425-.0865-.2929-.1666-.4404-.2481.1475.0815.2979.1616.4404.2481ZM30.4286798,10.0664191c-.1523-.0762-.3135-.146-.4696798-.2163.1561798.0703.3173798.1401.4696798.2163ZM29.498,9.6558192c-.166-.065-.3281201-.1226-.498-.1807.1698799.0581.332.1157.498.1807ZM28.3173799,9.8433192l.1377-.5489c.082.0249.166.0552.25.0811l-.2450799.8457c1.9725798.6763,3.7342798,1.8076,5.163,3.2645999l.0214797.5494c-1.4482-1.7266-3.3280999-3.0732999-5.4647999-3.8994999.0586-.0888.1133201-.1826.1377-.2924Z" fill-rule="evenodd" stroke="#000" stroke-miterlimit="3.8637" stroke-width="2"/>
        <path d="M28.46,10.2212191c5.2098797,1.7876,8.9540797,6.7318998,8.9540797,12.5468997,0,.5903-.0380797,1.1723-.1153,1.7436.2139-.9287188.3282203-1.8945.3282203-2.8871999,0-5.7382999-3.7315203-10.5980997-8.917-12.2577997l-.25.8545Z" fill="url(#New_Gradient_355)" stroke="#000" stroke-miterlimit="3.8637" stroke-width="2"/>
        <g mask="url(#mask)">
          <g>
            <path d="M24.42478,30.7236186c5.8935999,0,10.6747997,2.9667999,10.6747997,6.6269998,0,3.6581999-4.7811999,6.6249998-10.6747997,6.6249998-5.8983999,0-10.6815997-2.9667999-10.6815997-6.6249998,0-3.6601999,4.7831999-6.6264998,10.6815997-6.6269998Z" fill="url(#New_Gradient_353)"/>
            <path d="M14.0683802,40.207s5.8661999,2.9121183,12.3602997,1.2671184c8.9150998-2.2548999,8.0624998-7.5453998,5.0703201-10.8212997-.2588202-.5649,12.9140795,10.7089997-.1924202,13.2328997-13.1044997,2.5253999-17.2381996-3.6787183-17.2381996-3.6787183Z" fill="url(#New_Gradient_354)" fill-rule="evenodd"/>
            <g mask="url(#mask-1)">
              <g>
                <path d="M17.4862802,34.8984185c0-2.3148999,3.1230999-4.1922999,6.9775998-4.1922999,3.8524999,0,6.9774998,1.8774,6.9774998,4.1913999,0,2.3177999-3.1249999,4.1937999-6.9774998,4.1937999-3.8544999,0-6.9775998-1.8755-6.9775998-4.1928999Z" fill="#6b3200" fill-rule="evenodd"/>
                <path d="M17.8622801,34.8267185c0-2.3163999,3.1249999-4.1933999,6.9784998-4.1933999s6.9775998,1.877,6.9775998,4.1933999c0,2.3138999-3.1240999,4.1927999-6.9775998,4.1927999s-6.9784998-1.8789-6.9784998-4.1927999Z" fill="none" fill-rule="evenodd" stroke="#6b3200" stroke-miterlimit="3.8637" stroke-width="4.0834"/>
                <path d="M17.8056801,34.8369185c0-2.3129999,3.1239999-4.1913999,6.9784998-4.1913999,3.8524999,0,6.9745998,1.8784,6.9745998,4.1913999,0,2.3173999-3.1220999,4.1938999-6.9745998,4.1928999-3.8544999,0-6.9784998-1.8755-6.9784998-4.1928999Z" fill="none" fill-rule="evenodd" stroke="#6b3200" stroke-miterlimit="3.8637" stroke-width="3.447"/>
                <path d="M17.6991802,34.8579185c0-2.3159185,3.1230999-4.1937999,6.9755998-4.1937999,3.8544999,0,6.9784998,1.8778814,6.9784998,4.1927999,0,2.3168999-3.1239999,4.1948999-6.9784998,4.1948999-3.8524999,0-6.9755998-1.8775-6.9755998-4.1938999Z" fill="none" fill-rule="evenodd" stroke="#7b3e00" stroke-miterlimit="3.8637" stroke-width="2.298"/>
                <path d="M17.5917802,34.8794185c0-2.3174185,3.1249999-4.1942999,6.9784998-4.1942999,3.8534999.0008814,6.9784998,1.8768814,6.9784998,4.1942999,0,2.3148999-3.1249999,4.1928999-6.9784998,4.1928999s-6.9784998-1.8775-6.9784998-4.1928999Z" fill="none" fill-rule="evenodd" stroke="#8a4900" stroke-miterlimit="3.8637" stroke-width="1.149"/>
                <path d="M17.4862802,34.8984185c0-2.3148999,3.1230999-4.1922999,6.9775998-4.1922999,3.8524999,0,6.9774998,1.8774,6.9774998,4.1913999,0,2.3177999-3.1249999,4.1937999-6.9774998,4.1937999-3.8544999,0-6.9775998-1.8755-6.9775998-4.1928999Z" fill="none" fill-rule="evenodd" stroke="#9a5500" stroke-miterlimit="3.8637"/>
              </g>
            </g>
          </g>
        </g>
        <path d="M21.75488,36.1436185s6.1317998,1.8042,12.0673997-2.6523999c6.4315998-4.8280999,6.2684998-11.6810997,5.2967999-15.5570996" fill="none" stroke="#9a5500" stroke-linecap="round" stroke-miterlimit="3.8637" stroke-width=".5357"/>
        <path d="M14.6454802,37.7993184c-.0019,2.5395999,4.5331999,4.9467999,9.7626998,4.9467999,5.5214999-.0005,9.8095998-2.7563999,9.8095998-4.7484999,0-.5425.8701-.5396184.8144,0-.3174,3.0326999-4.4608999,6.0648998-10.6239997,5.9691998-5.9257999-.0908183-10.57518-2.8554999-10.57518-6.1679998,0-.5405.8124802-.5405.8124802.0005Z" fill="url(#New_Gradient_352)"/>
        <g mask="url(#mask-2)">
          <g>
            <path d="M20.0985801,36.0244185c1.4678.4751,3.0341999.7315,4.6601999.7315,8.3563998,0,15.1307996-6.7753998,15.1307996-15.1313996,0-6.8969998-4.5897999-12.7142997-10.8924997-14.5385996l-.6709,2.1635999c5.3838201,1.5404808,9.3008201,6.4975998,9.3008201,12.3749997,0,7.1049998-5.7618202,12.8671997-12.86822,12.8671997-1.2647,0-2.4862999-.1846-3.6435999-.5259l-1.0166,2.0585999Z" fill="url(#New_Gradient_349)" fill-rule="evenodd"/>
            <path d="M29.1190799,7.6694192s7.9296998,1.9985808,10.3925997,10.9780997c0,0-.3281-8.6577998-10.2675997-11.4960997l-.125.518Z" fill="url(#New_Gradient_351)" fill-rule="evenodd"/>
            <path d="M33.5634798,12.1182191c3.6786999,3.0423999,7.3641998,11.1083997.7754,18.7279995l-.7754-18.7279995Z" fill="url(#New_Gradient_350)" fill-rule="evenodd"/>
          </g>
        </g>
        <path d="M21.1728801,31.4629186c.3115-.3115,1.5488.0806,1.6191199.4643-.06642.2413-1.6006199,5.5693999-1.6006199,5.5693999-.3691.2943815-1.5195.0176-1.6152-.4644.0595-.2153,1.5967-5.5692999,1.5967-5.5692999Z" fill="url(#New_Gradient_348)" fill-rule="evenodd"/>
        <path d="M16.9228802,41.0894184c-2.4355999-1.2984184-2.8134999-3.1498999-2.3789999-4.9457999.0596-1.3511,1.669-2.5576999,2.6631198-3.1489999.6982801-.4165,1.1044801.0547.4062802.4771-2.6444999,1.6094-.9434,4.7411999.4433,6.1928998.5791.6043816-.415,1.8051-1.1337,1.4248Z" fill="url(#New_Gradient_347)"/>
        <path d="M33.3808798,34.3745185s1.039.8086.9629,3.1786999c-.0733,2.3725999.6816,1.6226.7363.52.0752-1.5498.0752-2.5887999-1.4766-3.9969999l-.2226.2983Z" fill="#6b3200" fill-rule="evenodd"/>
        <g mask="url(#mask-3)">
          <g>
            <path d="M9.8876803,22.6782188c0-7.4302188,6.0233998-13.4540997,13.4540997-13.4540997,7.4286998-.0005,13.4520997,6.0238808,13.4520997,13.4540997,0,7.4281998-6.0233998,13.4501997-13.4520997,13.4501997-7.4306998.001-13.4540997-6.0214998-13.4540997-13.4501997Z" fill="url(#radial-gradient)" fill-rule="evenodd"/>
            <g mask="url(#mask-4)">
              <g>
                <path d="M35.8017797,21.4526189c0,7.8041998-4.7226999,13.2773811-12.4658997,13.8188997-.8222.0591-.9394-.6519-.1328-.8423,6.5849998-1.5566,11.04692-8.8534998,11.7724997-13.0522185.0742-.9697811.8262-.7480811.8262.0756189Z" fill="#3c97f6"/>
                <path d="M36.1698797,21.5117189c0,7.8046998-4.7235999,13.2802811-12.4686997,13.8197997-.8213.0581-.9414-.6528-.1358-.8408,6.5878998-1.5586,11.0478997-8.8539998,11.7773997-13.0531997.0713-.9697.8271-.751.8271.0742Z" fill="none" stroke="#2b76b4" stroke-miterlimit="3.8637" stroke-width="2.6693"/>
                <path d="M35.9853797,21.4814189c0,7.8066998-4.7246999,13.2778997-12.4658997,13.8198997-.8232.0581-.9414-.6519-.1386-.8413185,6.5917998-1.5566814,11.0497997-8.8525812,11.7772997-13.0517811.0762-.9717.8272-.751.8272.0732Z" fill="none" stroke="#1459a5" stroke-miterlimit="3.8637" stroke-width="1.3347"/>
                <path d="M35.8017797,21.4526189c0,7.8041998-4.7226999,13.2773811-12.4658997,13.8188997-.8222.0591-.9394-.6519-.1328-.8423,6.5849998-1.5566,11.04692-8.8534998,11.7724997-13.0522185.0742-.9697811.8262-.7480811.8262.0756189Z" fill="none" stroke="#1d3f99" stroke-miterlimit="3.8637"/>
              </g>
            </g>
            <path d="M18.4970801,13.3706191l.1093.1089c.2012.1846.4375.541.0254.6968l-.1093.0659c-.5644801.3091-.7373-.1597-.9024-.5474-.2402-.1894-1.0654.2344-1.0273-.375.0068-.0835.0068-.3305-.0713-.3979-.9834-.1392-1.709.4995-2.6269999.7119-.3271.0771-.6836.1177-.9668.311-.0175.1094-.0732.2061-.1386.2969-.3926-.0562-.3389-.1802-.1866-.3999.5235197.0723.5381-.4058191,1.7832-.1377.4385.0933.295,1.4375.1338,1.7373-.4189.7959-.4609.398-.3427,1.2983.038.281281-.0137.4468-.1465.6861-.1436.4184-.585.3701-.6602.055181l-.0478.188919c-.0352.1377-.086.3067-.1807.4546-.9482,1.523-1.2715,1.7901-.9141,3.7416999.1153.6524.1944,1.2285.1016,1.8936-.0380803.2798.084.4751.2412.6865l.2236.2978-.1972-.1211188c-.1094.0157188-.1924.4107188-.1992.3257188-.087-1.1714-.2803-1.7841-.2422-2.9379999.0176-.6294.7578-.4609.8652.5635.0176.1724.0283.3477.1025197.5069.3642803.7583.7314802,1.4824.962,2.2972999.0565802.2022-.0225198.7368.0292802.8257.3378.5205.5488,1.0317,1.0976,1.3735.252.1519.6807-.063,1.0791198.3438.4101802.4209.5360802,1.2095,1.2441802,1.0347,1.3857-.3409.9033.6416,1.1015,1.0961.3916.2397814.5762.0313.9658.5737814.083.1162186.2188.3886186.3702.4096186.2255-.1054.2461-.2666186.5839-.2207.5655.0782.5938.6416.5401,1.0645l-.0479.3237c-.123.8858-1.0067801,1.0391-1.124,1.5791.209.3653.0742199.6026-.2227.8506-.0283.3271815.4151.7183.5831.9893.1865.2856.2783.8125.5263,1.0058.5244.4146,1.5615199.4776,1.4268,1.4258-.1494,1.0625-.8887,1.3467-1.501,2.0229999,1.0137199.0258,1.9092-.8404,2.8534999-1.1558.7266-.2393,1.5098-.2026,2.1952999-.5684.293-.1499.4473-.6264.8643-.874.8486201-.5083,2.0663999-.8315185,2.3798999-1.8891.0908-.294.167-.587.3183-.8614185.3272-.584.8565-1.0087815,1.1768-1.5878814-.8389-.1172-1.8828-.1948-2.0107999-1.3042-1.1385799-.164-1.5995799.003-2.4051999-.8173-.1113799-.1158-.5127-.5411-.7442-.4444-.1709.1016-.1113.0606-.2461.147-.6308.3765-1.0839-.1514-1.6767-.2349-.3096.2295-.0518.4341-.669.501-.3466.0376-.4072-.3818-.3838-.6235l.0196-.1241c-.0488-.0517186-.084-.1088-.1006-.1743.1357.0805814.2773.1602.416.2412-.5781.1602-1.0693,1.2343814-1.8418.544-.2363-.0264-.3817801.1279-.6953.083-.8467-.1187-1.6846-1.0186186-.9854-1.708.0733-.2422-.0556-.3926187-.4052-.5791l-.1983.0371-.1084.0023813-.4443-.0638813-.2822-.378c-.0635-.2988.0449-.5214.2763199-.7089.125-.0918.0693801-.0489.1777801-.1265.0566-.168.0644-.2925.0732199-.3989l-.3232199-.1094-.085.0805813c-.2822.2734187-.5254.538-.9775.4746187-2.4531999-.3443-1.2812802-4.9156187.9189-3.8222999.0821.042.1406.0698.2051.083.6455-.6118,2.0751999.1733,1.9561,1.044-.0235.1611.0263.3149.1582.4541-.1015801-1.252-.4004-1.5997.7441-2.2070999l.2607-.1323188c.5938-.3070812.502-.4638812.5938-1.0990811.0976-.7202.7226-1.0747,1.3369-1.148-.1406-.5156.1611-.8217.6318-.9389189l.2002-.0478811c.2032-.0469.3604.0508.4053.229.2412-.0532.5244-.123.625-.3061189-.0381-.0468811-.0635-.1000811-.0781-.1547811.13572.0825.2695.1636.4033.2451-.5469.1356811-1.2158.1996811-1.13958-.6528-.68272.0454-.46782-.7251.24508-.899l.1826-.0361c.11332-.021.2617.0547.3516.0985811.6123-.2782811.7011-.1952811.7851.4454189l.1065.0145811c-.0782-.1762811-.0235-.3222811-.0401-.5004811-.1152-.1523-.6709-.2637-.8799-.3891-.4746-.293-.8008-1.1446-1.1191-1.2417-.332.2895-.7422.082-1.0117-.1939-.1367-.1553-.08208-.0942-.209-.2334-.2002-.209-.2637-.1191-.5117-.0889l.291-.3486c.0205.392081.4873.773-.2217,1.2549l-.1338.0849-.1055.0665c-.1298.087781-.1181.1396-.0712.2959l.04682.1694c.20018.8193-.707.7646-.9306199.040481-.1846-.596681-.2979-.501381-.9023801-.716781-1.1572199-.4145-.7754199-1.456.0995801-1.8379.2705-.1206.9043-.2754,1.0078-.5615-.331-.5859.9659-1.0835,1.6407.2583.0517.0977.0547.1968.0195.2778.06842.0279.1367.0567.2002.0933-.0176-.064-.0107-.1265.0127-.1831l-.2764-.1177c-.4668-.2075-.8769-.7402-1.3379-.8052-.4746-.0664-.2421801-.8169-.0731801-1.052219-.0625199,0-.1172199.0054191-.1631199.0181191.1934.227.2871199.5053.0762.6616l-.086.0692809c.3575.668-.5507,1.083519-.7793.682619-.2226-.4043-.4794-.6567-.4052-1.1684l.3506.3804c.3867.5639-.295.8696-.7471.8081-.3682-.0528-1.0733-.1275-.586-.6871l.0674-.0727.0205199-.1441c-.1523199-.0322-.3916199-.1079-.5429199-.0732ZM12.2821803,13.876l.086-.3383809c.5791-.5142,1.1533-.4268,1.7939-.6777.7715-.3023,2.8515999-1.3599191,3.0829999.123l.1367-.0156c.1885-.0112.4219.0083.6426.1841.1465.1118.2178.2773.2666199.4492.0331801-.0171.0683801-.0332.1005801-.0464l-.1465.5127c-.2558-.3398-.7236-.6445-.2870801-1.1274.4032801-.4541.9901801-.1353,1.4745801-.1114.5078.0274.3262.9561.0674199,1.2212-.0439199.0454-.5488199-.458-.2998199-.4238.5303.0747.3603.1157.7363-.0493l-.1582.4717c-.1972-.3438-.5967-.9117.1172-1.126.0596-.0176.124-.0288.1953-.0352l.1524-.0141c.456-.0303.2832.4311.4111.6811.0723.1416.1738.2792809.2686.4452809l-.336-.1005809c-.2588-.2578-.374-.3379-.0448801-.6435-.543-.7564.5780801-1.313,1.50288-.8189191.541.2857191-.16788.6817191-.2558.9346191.455.1699.749.5757,1.1894.7739.31452.1441,1.292.6309.961,1.084481.2793.491219-.7618.98-1.02348.638719-.251-.3418-.88772-.4082-1.2617199-.6353-.4492-.2759-.0938-.5781.2178-.6377-.0352-.0244-.0694-.0444-.1055-.06-.2432,1.062-1.9979999.9184-1.792,1.5366.1914199.1855.8672.2148,1.2647.6289.1748.1807.2285.4131.2998.6426.0263.081.0097.0825.0127.0849-.2579-.1259-.2696.6377-.3692.2315l-.0371-.1421c-.1279-.4277-.041-.7803.334-1.0332l.1367-.0884.1045-.0654c.2139-.1426-.05568-.4239-.0703-.662119-.0322-.564.9912-.457081,1.3662-.065481.1563.169.0732.0791.2119.2329.042.041581.0899.084.1406.1109.668-.5772,1.2686.522,1.587.957.0781.1104.1582.1958.2636.2608.5762.3388,1.2862.188881,1.1934,1.1865.2744.2363.6846.313.54.8208-.1386.48-1.7383.2983-1.9004-.3403-.1718.0717-.333-.0118-.4863-.086-.1055.023-.1748.044-.2139.1078811l-.3046-.5165811c.5898-.0405.87012-.0278.7548.6289l-.0166.1128c.1514-.0244.2285-.0493.3213-.0727l.4063.2455811c-.05368-.0297811-.0664-.0888811-.086-.1396811.6719.3896811-.1396,1.2216811-.9062,1.398-.2266.0516811-.6231.1928-.793-.0415l.083.2041c.4502,1.1469-1.2646.1635-1.4092,1.1953-.1191.8486-.11228,1.1694-.9511,1.602l-.252.1289c-.1787.0948-.3594.2051-.4844.3706l.1163,1.4912812-.0088.1045188c-.334,1.3696-1.6192-.0621-1.5-.8985188.0478-.3285812-.5762-.4667812-.794-.5018812-.5332.5088-.791.0395-1.2607-.0274-1.0215-.1421-1.6612,2.4609999-.2705,2.6562812.2646.0405187.5595-.6240813.9336-.5712813,1.1894.165,1.0869-.0357187,1.0283199.8364-.0293199.3838-.0069199.6216-.3281199.8745-.1114.0811-.0625.0453813-.1114.0811.961-.1709,1.8653.9658,1.1221,1.7026-.0547.376.5.6318.8311.5191.3281-.1094186.581-.1246.8525.1147.2725.042.8232-.5772,1.2217-.687l.41312.2427c-.05182-.0308186-.06942-.0894-.08212-.1402.0782.0469.1387.1016.1768.1699.5762-.3891,1.4014.3526,1.6699.2413.1758-.1065.1006-.0606.2412-.1504,1.07722-.6407,1.5449.8695814,2.3154999.978.6328.0889.9912.1167,1.624.2178.5312.0849-.0108,1.0171.9004,1.1421.2597.0366.9502.0263,1.2431.29l.086.0771s.1865.2857.1298.4161c-.3193.749-.9501,1.2158-1.3349,1.9082-.3018.5449-.2188,1.0512-.7139,1.58-.7099.7559-1.3847.9141-2.2245999,1.419-.332.1948-.3965.6342816-.8955.8882-.7646.4096-1.5059.3525-2.2929999.6128-1.166.3901-2.5301999,1.769-3.7938999.9819-.5859-.3667.7178-1.3677.9766-1.6011,1.4091-1.2734.1435-1.2007-.585-1.7812-.4668-.3628-.4082-.7574-.6719-1.1739-.3514801-.5507-1.1738-1.2641-.4101-1.8989-.4815-.8843.9824-1.3432,1.0683-1.9741l.0479-.3091c.0107-.0908.0175-.1787.0146-.2583186-.9531.6758186-1.2021-.5936814-1.6445-.7377814-.334-.105-.6182-.1152186-.7803-.4863-.0996-.2246-.0781-.4648-.0898-.7036l-.0762-.043c-1.0243801.1353-1.1533.1641-1.8135-.876-.4277-.6748-.6172-.2006-1.1845-.5493187-.6827-.4242813-.8946-.9428813-1.3067-1.5790813-.2764-.435-.0303-.7158-.1123-1.0058-.1143-.399-.2529-.772-.4219-1.1514.0528.477.1153.958-.5371.8657-.0332-.0049-.2002-.102-.2178-.1294188l-.2275-.2992812c-.623-.834-.2705-1.1411-.3496-2.0517999-.127-1.4853-.6279-2.4862999.2109-3.9623999.1846197-.3339.4219-.6484.6758-1.0586.2725-.4477.2354-1.6792,1.2315-1.185.416.0586.2568.5893.2207.8203l-.6446-.1504c.0118-.0517.0352197-.0957.0577-.1391.2763-.5064-.3848-.75.3378-1.7554.3477197-.4805.2188-.5571.1934-1.0767l-.1309-.0234c-.2617-.0396-2.5028999.8613-1.5957-.4097l.0381.0224809ZM20.2470801,19.9082189l-.0283.0815-.0401.1802c-.1699.6372-.8154.9282-.915.3828-.0996-.5434-.2491-1.146.249-1.5424l.1113199-.0865.0214801.5498c-.0771-.0512-.1514-.1157-.2226-.1782-.1075-.081-.6875-.0981-.8213-.1035-.4405-.0171-.5157-.4981-.1025801-.647.6044801-.2187,1.4863801-.7685,1.9023801.0869.1621.3271811.1894.3057.5429.4463.2578.1045.919.4668.5577199.8272l-.1612199.1606c-.1904.1817-.3935.3164-.6543.3853-.5117.1425-.3633-.4131-.4394-.543ZM20.7265801,19.7109189c-.2159-.0874-.4121-.1635-.5967-.3105-.2558801-.1968-.2754-.4629-.3574-.5459-.3741-.0513-.711.1973-1.044.3184l-.1006-.649c.3721199.0152.9034.0064,1.209.2495.2051199.1729.5498.4121.1895.6861l-.0967.0717c-.2725.2807811.2558.7935-.4696801.649.0360801-.0435.0575801-.126.0712801-.1812189l.0429-.1635811c.0801-.3618.2598199-.7036.7022-.6401.4746199.0654.7129.5459.6533.981l-.4209-.3682c.0908-.0244.1562199-.0566.2178-.0972ZM22.35448,19.8311189c.668.3295-.4981,1.3671-1.7051,1.1962-.2793-.038-.832-.1308-.4902-.5722.4697-.6114,1.0586-.749,1.7422-.7989.1328-.0097.3808.1387.4531.1749ZM22.06148,20.4282189l-.2011-.0986c-.5616.0503-.8907.1675-1.1739.5317l-.2177-.5346c.6357.0908,1.0195.0947,1.4931-.4224l.0996.5239ZM22.35838,27.5396187l.3779-.4292c.4668-.1172,1.01472.2958,1.4825.4091.6318.1538.0673,1.0161-.8321,1.0562-.3525.0161-.6992-.0576-1.0449-.107-.2793-.0375-.38478-.2211-.3555-.5014l.0235-.1275c.1543-.144.2656-.2373.3486-.3002ZM23.36428,27.9087187c-.11228-.0527187-.2178-.0947187-.337-.1245-.0214.1484-.1699.2846-.31828.2915-.12312.0034-.19532.0317-.31062.0469l.2842-.3497c.0049.0914-.01458.1822-.0312.272-.1485-.018-.23438-.0908-.2178-.2373.3086.044.624.1148.9307.1011ZM20.3085801,26.9932187c-.1494.1307813-.2315.165-.293.1753l-.124.0004c-.9492-.1806-1.3525-1.3544.4248-1.1035.502.0703.7803.2569,1.209.4927.376.21.9814.2715.8955.8945-.0957.6631-.877.4908-1.3008.4312-.2588-.0381-.3720801-.2481-.2568-.4795l.043-.0772c-.1836-.1533-.3575-.2788-.5977-.3339ZM19.8827801,26.4785187c.3418-.3169.7988-.1211,1.1475.1054813.1972.1255187.6582.4468187.6484.7041187-.0019.1767-.1406.2641-.2178.4131l-.25-.4795.2481199.0342c-.4287199-.1661-.7686199-.4639187-1.2354199-.5284-.2812-.0429-.4209-.0229-.7451.0288l.2676-.4091c.0127.0497813.0371.0942.1367.1313ZM22.99508,13.0654191l.1026.0391c.3418.2392.6591.647,1.11032.6601.27928.0093.27928.3262.44728.4673.13572.1162.2832.211.4062.3452.2842.3082.7198.9346,1.1963.8848.0557-.0068.1152201-.0146.1924-.0127l-.3174.461c-.2041-.4937-.8506-.8077-.4237799-1.5123.0243799-.038.0487799-.0712.0722799-.1054.0742-.0908.0488-.0581.1123-.1372.04-.0606.0459-.0738.0498-.0874-.043-.043-.71-.2315-.8477-.3062-.6709-.3672-1.2451-.9853-2.1005999-.6963ZM23.32028,14.127919c-.1738-.125-.3369-.2812-.543-.4306-1.9306-.3267.1368-2.1205999,1.9454-.9737.2128.1382.4199.3023.69232.4502.4501799.2476,1.2978799.211,1.1884799.9864-.0234.151781-.0928.2861-.1836.4052-.0801.099581-.042.0503-.1113.1367-.1357.2164.3564201.7564.4385.9546.1826.4512-.3604.508281-.6455.467281-.7598-.106381-1.0694-.591781-1.5303-1.098081-.2119-.229-.4629-.3086-.6221-.6197-.2529-.0468-.4531-.1528-.6289-.2783Z" fill="url(#linear-gradient)"/>
            <g mask="url(#mask-5)">
              <g>
                <path d="M12.4911803,13.6509191c.0811.2124-.2637.352-.0311803.3862.5165803.0713.8124803-.3149,1.3290803-.2422.1757.0239.2568.0606.4257.0982-.0449.3462.0723.5756.0225.9198809-.0722802.52-.499.695819-.5742,1.215319-.042.3223.1308.521.084.8428-.0186.147-.1055.2222-.1494.3555l.0615-.4434c-.0996-.0151-.1397-.0713-.2403-.085-.5048-.0717-.3974.6846-.6582,1.113781-.5039.811-.9306,1.2539189-1.0615,2.1914189-.1933,1.3799.3936,2.1928999.1992,3.5712999-.0693.5205.2129.811.5313,1.2319.0762.0118.1514.0098.2051-.0205-.0909-1.1572-.2803-1.7617-.2442-2.9012999.293.3935.1319.7739.3301,1.2031.4111.8500812.6807,1.3290812.9424,2.2440812.0937.3291188-.1094.6265187.0752.916.3916.6075187.5781,1.0874187,1.2012,1.4776187.3466.2129.7285198.0019,1.0156.292.4355.4531.5117,1.0766,1.1435,1.1679.3184198.0444813.5166-.1279.8369-.0839.3838.0546.1446.5971.292.9487.1377.3056814.5274.1982.8008.4121.3301.2603.377.7075.8018.7665814.2402.0332186.3359199-.2558814.5801-.2191814.3955.0541814.2666.6147.2119,1.0101814-.1084.7627186-1.0293.8609186-1.1338,1.6236186-.0205.1376.1191.208.1025.3413-.0224.1958-.2812.2373-.3135.4345-.0771.5435.3448.791.6338,1.2437.2549199.4043.2227.8008.5977,1.0928.5215.4120815,1.3945.4594,1.3008,1.1137-.1543,1.0948-1.1358,1.2993-1.7237,2.2460999.1045.0655.1631199.1236.2832.1406,1.3194.1856,1.9629199-.7299,3.2275999-1.1552.86032-.2818,1.4482-.1616,2.2460999-.5913.4218-.2144.4687-.6382.8799-.8799.8496-.5093,1.4707-.6382,2.1493999-1.3594.4336-.4556.3652-.9658.6709201-1.5142.4335798-.7812.9618798-1.0478,1.3182798-1.8784-.1045-.0634-.1542798-.1699186-.289-.1914l-.9112-.1269c-.5683-.0801-.9882-.5782-.9072-1.1446186-.6278799-.101-.9873-.1273814-1.6162-.2157814-.8018-.1123-.9688-.9902186-1.7686-1.1025-.3486-.0484-.5009.3315-.8457.2817-.4589-.062-.6757-.2949-1.1328-.3594186-.2832-.0394814-.4189.2193186-.5439.4771186l-.2041.021c-.0518-.1826-.002-.3257.02442-.523.01068-.0742-.11522-.082-.13092-.1445-.5742.1563-.7666.7979-1.3564.7143814-.1494-.0200814-.2012-.1791814-.3526-.2001814-.2685-.0371-.4199.1425-.6923.104-.5059-.0723-.9971-.4297-.9239-.9351.0254-.185.2315-.2319.2569-.4155.0664-.457-.2969-.7471-.7177801-.9575l-.3096199.0561-.4423801-.0625c.0117801-.0849-.0332199-.1426-.0205199-.2275.044-.3198187.4756-.3364.5196-.6577.042-.2818.0019199-.4639.1045-.7378l-.8145-.1162c-.3467.2148-.5137.6342-.9355.5742-.7393-.104-1.1875-.8467-1.083-1.5855.122-.8774.5742-1.854,1.4502-1.7329.2919.0415.4228.209.7158.2515.2138.0293.2793-.2632.4873-.2324188.5537.0776188,1.2119.333,1.1347.8881188-.0712.5054.2911.858.75,1.085.043-.1182.0655-.1919.0948-.312l-.1289-1.6021188c.4365199-.7572812,1.5-.6454812,1.6201-1.4950812l.0791-.5688c.0928-.6514.8301-.9527,1.4804-.8589-.0419-.2446-.1962-.3804-.165-.627.0391-.2714.3438-.3037.6094-.3671-.0078.1093-.002.1878811.0058.3012.5899-.104,1.2354-.2026,1.3155-.7949.0136-.0723-.1123-.0796-.1309-.145-.1914.0498-.3281.1045-.5371.0757-.2812-.0396-.1865-.4424-.123-.7232-.1739-.0234-.2764-.0259189-.4522-.0107.1309-.1978.3106-.2334.5449-.2774l.2793.1391811c.15922-.063.2686-.1234811.4307-.1908811.0527.2338811-.0156.5532.22852.5874l1.0761799.1504c.0762-.2657-.294-.3179189-.4815-.5205-.164-.1719.0342-.4229-.1132-.6202-.2569-.3374-.627-.2749-.9883-.4897-.6133-.375-.6074-1.2046-1.32618-1.3047-.13572-.019-.18652.1738-.32622.1548-.4775-.0674-.55078-.6314-1.0273-.6973-.1514-.0219-.2451.0288-.3877.0464.0166.2529.20122.3794.1631.626-.0606.4194-.6582.3984-.7178.8174-.0352.2602.0938.4028.1064.668881-.3867-.016081-.2734-.554681-.5341-.829581-.4522-.4663-1.4659-.333-1.3701-.9853.1259-.9248,1.6962-.6294,1.8242-1.5537.0107-.0738-.0723-.1118-.0752-.1739.1191-.0214.1875-.0752.3115-.0566.3926.0537.5811.3203.7617.6714-.2353.0664-.3828.0474-.623.114681.5097.310119,1,.239819,1.3584.719319l.4892-.2344c-.1035-.1782-.1894-.2891-.3467-.4258.1045-.0224.1954-.0356.3018-.0063-.24018-.4356-.6914-.438-1.1016-.7222-.415-.2827-.6103-.5874-1.1181-.6587l.0361-.2339191c.041-.3094809.2461-.4198809.4434199-.6556809-.128-.0664-.2051199-.1294-.3584199-.1504-.3155-.0469191-.7237-.0254-.7695801.2949-.0293199.1958.1630801.2607.2431801.4351-.1387.1064-.2421801.1820809-.3447.3046.1103.1016.2197.2198.1943.3814-.0146.1084-.1289.1182-.2226.168-.1934-.3423-.4258-.5635-.3681801-.9576-.1768199.0132-.4053199.0191-.4307199.191-.0302.2104.1348.3071.2344.4858-.1728.0762-.2852.1611-.4834.1328l-.4316-.062c.0507-.1157.1718-.1489191.1914-.2852l.0683-.5058c-.2861-.0132-.4355-.0884-.7216-.127-.2325-.0351-.5186.0386-.5547.2735-.0342.2612.2177.3452.3759199.5571-.122.0444-.1875199.1372-.3203199.1167-.2558-.0357-.1679-.4116-.3701-.5669-.2734-.2139-.5459-.0625-.8975-.0747.0206-.3252-.0507-.7124-.371-.7559-.8975-.1274-1.417.252-2.2734999.5845-.6338.2505-1.1865.1737809-1.6914.6177ZM18.5185801,18.7222189c.4462-.1651.7207-.4009,1.2002-.335.3095.043.2802199.4297.5205.6143.3271.2592.6552.2304.9287199.5341-.2207199.2178-.3643199.3731-.667.4576.0380801-.2715-.0996199-.5655-.3701199-.604-.4434-.0625-.2325.7714-.6368.9657811-.0654-.3486811-.1200801-.5702811-.0712-.9164811.0244-.1856.163-.2774.3066-.3838-.1533-.0957189-.2334-.2344-.4199-.2593-.2451-.0351-.5459-.0644189-.791-.0732ZM21.82708,19.8521189l.2833.1411c-.417.457-.8965.6533-1.5147.5677811l-.2715-.0394811c.3867-.4971.8555-.6201,1.5029-.6694ZM22.29,28.0024187c-.13672-.0205-.02832-.2182-.041-.3452.13188-.0195.21-.0468.34668-.0512187.0049-.1132813.0049-.1884813-.0059-.3027813.0879.0122.1329-.0332187.2168-.0215.5088.0718.7373.3052,1.23642.4252813-.39752.5747187-1.07422.3911187-1.753.2954187ZM19.8563801,26.7046187c-.2558-.0493-.4658-.1538-.5302-.4155.331-.0528.5107-.0777.8486-.0308.4512199.0649.6924.2378,1.0908.4565.3028.1665.7735.2095.7266.5533-.0283.2104-.28418.2378-.4961.209l-.4297-.0611187c.0537-.1078813.1143-.1864813.1885-.2743813-.3672-.3301-.6113-.5649-1.1074-.6348-.083-.0107-.211.1836-.2911.1978ZM22.80658,13.2397191c.4678.3296.7159.7046,1.2969.7212.0606.3619.374.4449.6162.7032.4366.4775.6905.9023,1.3291.9921.1123.0162.1787-.010219.293-.0083-.1699-.415-.5732-.5971-.5097799-1.0395.043-.2725.3036799-.3599.3398799-.6318.0683-.4571-.6162-.4248-1.0137-.646-.5615-.3047-.8486-.6719-1.4883-.7627-.581-.0801-1.1601-.0117-1.4316.5029.1562.0605.3945.1563.5683.1689Z" fill="url(#radial-gradient-2)" fill-rule="evenodd"/>
                <g mask="url(#mask-6)">
                  <g mix-blend-mode="screen" opacity=".3">
                    <path d="M35.8017797,21.4526189c0,7.8041998-4.7226999,13.2773811-12.4658997,13.8188997-.8222.0591-.9394-.6519-.1328-.8423,6.5849998-1.5566,11.04692-8.8534998,11.7724997-13.0522185.0742-.9697811.8262-.7480811.8262.0756189Z" fill="#c9ffc9"/>
                    <path d="M36.1698797,21.5117189c0,7.8046998-4.7235999,13.2802811-12.4686997,13.8197997-.8213.0581-.9414-.6528-.1358-.8408,6.5878998-1.5586,11.0478997-8.8539998,11.7773997-13.0531997.0713-.9697.8271-.751.8271.0742Z" fill="none" stroke="#a7dbaa" stroke-miterlimit="3.8637" stroke-width="2.6693"/>
                    <path d="M35.9853797,21.4814189c0,7.8066998-4.7246999,13.2778997-12.4658997,13.8198997-.8232.0581-.9414-.6519-.1386-.8413185,6.5917998-1.5566814,11.0497997-8.8525812,11.7772997-13.0517811.0762-.9717.8272-.751.8272.0732Z" fill="none" stroke="#85cd92" stroke-miterlimit="3.8637" stroke-width="1.3347"/>
                    <path d="M35.8017797,21.4526189c0,7.8041998-4.7226999,13.2773811-12.4658997,13.8188997-.8222.0591-.9394-.6519-.1328-.8423,6.5849998-1.5566,11.04692-8.8534998,11.7724997-13.0522185.0742-.9697811.8262-.7480811.8262.0756189Z" fill="none" stroke="#65bd7b" stroke-miterlimit="3.8637"/>
                  </g>
                </g>
                <path d="M12.4911803,13.6509191c.0811.2124-.2637.352-.0311803.3862.5165803.0713.8124803-.3149,1.3290803-.2422.1757.0239.2568.0606.4257.0982-.0449.3462.0723.5756.0225.9198809-.0722802.52-.499.695819-.5742,1.215319-.042.3223.1308.521.084.8428-.0186.147-.1055.2222-.1494.3555l.0615-.4434c-.0996-.0151-.1397-.0713-.2403-.085-.5048-.0717-.3974.6846-.6582,1.113781-.5039.811-.9306,1.2539189-1.0615,2.1914189-.1933,1.3799.3936,2.1928999.1992,3.5712999-.0693.5205.2129.811.5313,1.2319.0762.0118.1514.0098.2051-.0205-.0909-1.1572-.2803-1.7617-.2442-2.9012999.293.3935.1319.7739.3301,1.2031.4111.8500812.6807,1.3290812.9424,2.2440812.0937.3291188-.1094.6265187.0752.916.3916.6075187.5781,1.0874187,1.2012,1.4776187.3466.2129.7285198.0019,1.0156.292.4355.4531.5117,1.0766,1.1435,1.1679.3184198.0444813.5166-.1279.8369-.0839.3838.0546.1446.5971.292.9487.1377.3056814.5274.1982.8008.4121.3301.2603.377.7075.8018.7665814.2402.0332186.3359199-.2558814.5801-.2191814.3955.0541814.2666.6147.2119,1.0101814-.1084.7627186-1.0293.8609186-1.1338,1.6236186-.0205.1376.1191.208.1025.3413-.0224.1958-.2812.2373-.3135.4345-.0771.5435.3448.791.6338,1.2437.2549199.4043.2227.8008.5977,1.0928.5215.4120815,1.3945.4594,1.3008,1.1137-.1543,1.0948-1.1358,1.2993-1.7237,2.2460999.1045.0655.1631199.1236.2832.1406,1.3194.1856,1.9629199-.7299,3.2275999-1.1552.86032-.2818,1.4482-.1616,2.2460999-.5913.4218-.2144.4687-.6382.8799-.8799.8496-.5093,1.4707-.6382,2.1493999-1.3594.4336-.4556.3652-.9658.6709201-1.5142.4335798-.7812.9618798-1.0478,1.3182798-1.8784-.1045-.0634-.1542798-.1699186-.289-.1914l-.9112-.1269c-.5683-.0801-.9882-.5782-.9072-1.1446186-.6278799-.101-.9873-.1273814-1.6162-.2157814-.8018-.1123-.9688-.9902186-1.7686-1.1025-.3486-.0484-.5009.3315-.8457.2817-.4589-.062-.6757-.2949-1.1328-.3594186-.2832-.0394814-.4189.2193186-.5439.4771186l-.2041.021c-.0518-.1826-.002-.3257.02442-.523.01068-.0742-.11522-.082-.13092-.1445-.5742.1563-.7666.7979-1.3564.7143814-.1494-.0200814-.2012-.1791814-.3526-.2001814-.2685-.0371-.4199.1425-.6923.104-.5059-.0723-.9971-.4297-.9239-.9351.0254-.185.2315-.2319.2569-.4155.0664-.457-.2969-.7471-.7177801-.9575l-.3096199.0561-.4423801-.0625c.0117801-.0849-.0332199-.1426-.0205199-.2275.044-.3198187.4756-.3364.5196-.6577.042-.2818.0019199-.4639.1045-.7378l-.8145-.1162c-.3467.2148-.5137.6342-.9355.5742-.7393-.104-1.1875-.8467-1.083-1.5855.122-.8774.5742-1.854,1.4502-1.7329.2919.0415.4228.209.7158.2515.2138.0293.2793-.2632.4873-.2324188.5537.0776188,1.2119.333,1.1347.8881188-.0712.5054.2911.858.75,1.085.043-.1182.0655-.1919.0948-.312l-.1289-1.6021188c.4365199-.7572812,1.5-.6454812,1.6201-1.4950812l.0791-.5688c.0928-.6514.8301-.9527,1.4804-.8589-.0419-.2446-.1962-.3804-.165-.627.0391-.2714.3438-.3037.6094-.3671-.0078.1093-.002.1878811.0058.3012.5899-.104,1.2354-.2026,1.3155-.7949.0136-.0723-.1123-.0796-.1309-.145-.1914.0498-.3281.1045-.5371.0757-.2812-.0396-.1865-.4424-.123-.7232-.1739-.0234-.2764-.0259189-.4522-.0107.1309-.1978.3106-.2334.5449-.2774l.2793.1391811c.15922-.063.2686-.1234811.4307-.1908811.0527.2338811-.0156.5532.22852.5874l1.0761799.1504c.0762-.2657-.294-.3179189-.4815-.5205-.164-.1719.0342-.4229-.1132-.6202-.2569-.3374-.627-.2749-.9883-.4897-.6133-.375-.6074-1.2046-1.32618-1.3047-.13572-.019-.18652.1738-.32622.1548-.4775-.0674-.55078-.6314-1.0273-.6973-.1514-.0219-.2451.0288-.3877.0464.0166.2529.20122.3794.1631.626-.0606.4194-.6582.3984-.7178.8174-.0352.2602.0938.4028.1064.668881-.3867-.016081-.2734-.554681-.5341-.829581-.4522-.4663-1.4659-.333-1.3701-.9853.1259-.9248,1.6962-.6294,1.8242-1.5537.0107-.0738-.0723-.1118-.0752-.1739.1191-.0214.1875-.0752.3115-.0566.3926.0537.5811.3203.7617.6714-.2353.0664-.3828.0474-.623.114681.5097.310119,1,.239819,1.3584.719319l.4892-.2344c-.1035-.1782-.1894-.2891-.3467-.4258.1045-.0224.1954-.0356.3018-.0063-.24018-.4356-.6914-.438-1.1016-.7222-.415-.2827-.6103-.5874-1.1181-.6587l.0361-.2339191c.041-.3094809.2461-.4198809.4434199-.6556809-.128-.0664-.2051199-.1294-.3584199-.1504-.3155-.0469191-.7237-.0254-.7695801.2949-.0293199.1958.1630801.2607.2431801.4351-.1387.1064-.2421801.1820809-.3447.3046.1103.1016.2197.2198.1943.3814-.0146.1084-.1289.1182-.2226.168-.1934-.3423-.4258-.5635-.3681801-.9576-.1768199.0132-.4053199.0191-.4307199.191-.0302.2104.1348.3071.2344.4858-.1728.0762-.2852.1611-.4834.1328l-.4316-.062c.0507-.1157.1718-.1489191.1914-.2852l.0683-.5058c-.2861-.0132-.4355-.0884-.7216-.127-.2325-.0351-.5186.0386-.5547.2735-.0342.2612.2177.3452.3759199.5571-.122.0444-.1875199.1372-.3203199.1167-.2558-.0357-.1679-.4116-.3701-.5669-.2734-.2139-.5459-.0625-.8975-.0747.0206-.3252-.0507-.7124-.371-.7559-.8975-.1274-1.417.252-2.2734999.5845-.6338.2505-1.1865.1737809-1.6914.6177ZM18.5185801,18.7222189c.4462-.1651.7207-.4009,1.2002-.335.3095.043.2802199.4297.5205.6143.3271.2592.6552.2304.9287199.5341-.2207199.2178-.3643199.3731-.667.4576.0380801-.2715-.0996199-.5655-.3701199-.604-.4434-.0625-.2325.7714-.6368.9657811-.0654-.3486811-.1200801-.5702811-.0712-.9164811.0244-.1856.163-.2774.3066-.3838-.1533-.0957189-.2334-.2344-.4199-.2593-.2451-.0351-.5459-.0644189-.791-.0732ZM21.82708,19.8521189l.2833.1411c-.417.457-.8965.6533-1.5147.5677811l-.2715-.0394811c.3867-.4971.8555-.6201,1.5029-.6694ZM22.29,28.0024187c-.13672-.0205-.02832-.2182-.041-.3452.13188-.0195.21-.0468.34668-.0512187.0049-.1132813.0049-.1884813-.0059-.3027813.0879.0122.1329-.0332187.2168-.0215.5088.0718.7373.3052,1.23642.4252813-.39752.5747187-1.07422.3911187-1.753.2954187ZM19.8563801,26.7046187c-.2558-.0493-.4658-.1538-.5302-.4155.331-.0528.5107-.0777.8486-.0308.4512199.0649.6924.2378,1.0908.4565.3028.1665.7735.2095.7266.5533-.0283.2104-.28418.2378-.4961.209l-.4297-.0611187c.0537-.1078813.1143-.1864813.1885-.2743813-.3672-.3301-.6113-.5649-1.1074-.6348-.083-.0107-.211.1836-.2911.1978ZM22.80658,13.2397191c.4678.3296.7159.7046,1.2969.7212.0606.3619.374.4449.6162.7032.4366.4775.6905.9023,1.3291.9921.1123.0162.1787-.010219.293-.0083-.1699-.415-.5732-.5971-.5097799-1.0395.043-.2725.3036799-.3599.3398799-.6318.0683-.4571-.6162-.4248-1.0137-.646-.5615-.3047-.8486-.6719-1.4883-.7627-.581-.0801-1.1601-.0117-1.4316.5029.1562.0605.3945.1563.5683.1689Z" fill="none" fill-rule="evenodd"/>
              </g>
            </g>
          </g>
        </g>
        <path d="M28.3173799,9.8433192c-.126.5-.6299.8036808-1.1299.6786808h0c-.5-.125-.8027-.6303808-.6816-1.1293808l.6796-2.7128999c.1231-.5025.629-.8052,1.129-.6797192h0c.5009.125.8066.6299192.6806,1.1294192l-.6777,2.7138999Z" fill="url(#radial-gradient-3)" fill-rule="evenodd"/>
      </g>
    </g>
  </g>
</svg>