<?xml version='1.0' encoding='UTF-8'?>
<svg xmlns="http://www.w3.org/2000/svg" xmlns:xlink="http://www.w3.org/1999/xlink" id="Layer_1" data-name="Layer 1" width="48" height="48" viewBox="0 0 48 48">
  <defs>
    <radialGradient id="radial-gradient" cx="15.2160155" cy="26.0096349" fx="15.2160155" fy="26.0096349" r="7.8342278" gradientTransform="translate(10.4670828 8.4564824) scale(.9128)" gradientUnits="userSpaceOnUse">
      <stop offset=".005618" stop-color="#a70000"/>
      <stop offset=".35955" stop-color="#f5b472"/>
      <stop offset=".730337" stop-color="#ffffb3"/>
      <stop offset="1" stop-color="#fff95e"/>
    </radialGradient>
    <radialGradient id="radial-gradient-2" cx="15.8522054" cy="8.4823658" fx="15.8522054" fy="8.4823658" r="15.0689375" gradientTransform="translate(10.4670828 8.4564824) scale(.9128)" gradientUnits="userSpaceOnUse"><stop offset=".005618" stop-color="#a70000"/><stop offset=".35955" stop-color="#f5b472"/><stop offset=".730337" stop-color="#ffffb3"/><stop offset="1" stop-color="#fff95e"/></radialGradient>
    <mask id="mask" x="12.4883" y="9.1880527" width="21.5117" height="31.8167265" maskUnits="userSpaceOnUse">
      <path d="M33.9844,17.0083165c-.002-.0488-.0064-.0977-.0098-.1475-.0098-.1347-.02-.2666-.0351-.396-.0054-.0488166-.0108-.0966-.0176-.1445-.0176-.1343166-.0376-.2651-.0606-.394-.0063-.0347-.0127-.0699-.019-.105-.0313-.1597-.0659-.3154-.1065-.4678-.0004-.0005166-.0004-.0014-.0004-.0029,0-.084-.0113-.1651-.0171-.2471-.0059-.0825166-.0059-.1675166-.0162-.2475166-.0117-.0820834-.0322-.1606834-.0483-.2402834-.0161-.0781-.0268-.1587166-.0474-.2344-.0185-.0698-.0459-.1367-.0688-.205-.0273-.0826-.0503-.167-.0825-.2486-.0127-.0302-.0283-.059-.0415-.0883-.8042-1.8711-2.9566-3.1699999-4.4732-3.8920999-1.8965-.9043167-4.2788-1.001-7.146-.2891-2.1821.542-4.0224,1.4867833-5.519,2.8153999-2.3623,2.0995999-3.6338,4.9741999-3.7871,8.6244998l2.2153,2.2143999c2.2207-.5513,3.3311-.8271,5.5527-1.3774,0-1.0498.3042-2.1376999.9136-3.2626999.6099-1.1245,1.6436-1.8697,3.1026-2.2314999.1665-.041.3256-.0747.4804-.1025.085-.0156.167-.0264166.2481-.0376.0595-.0083.1196-.0176.1772-.0244.1055-.0108.2075-.0191.3067-.0235.0234-.0009166.0459-.0019166.0693-.0029166.1128-.0033834.2227-.0033834.3271.0029166.0245.1255.0435.2549.0567.3872.0015.0093.0029.0196.0039.0298.0127.1358.021.2759.021.4195,0,.8388-.2656,1.6738-.7559,2.4950999-.2793.4673-.6421.9424-1.0947,1.4018-.5518.5766836-.8281.8648-1.3794,1.4414-1.3608,1.418-2.2041,2.5825999-2.5312,3.4916999-.3272.9097-.5288,2.4628999-.6045,4.6518999l1.7485,1.749c-1.5103.7216838-2.6357,2.3144999-2.6357,3.8871999,0,.0606.0039.124.0127.1884839.0019.021.0073.043.0107.0649161.0073.044.0146.0874.0254.1319.0063.0263.0141.0527.0215.0801.0117.041.0239.0839.0381.1259.0087.0283.02.0567.0307.085.0152.0425.0308.0859.0498.1279.0127.029284.0254.0581.0386.0879.0195.043.0415.0869.063.131384.0146.029316.0288.058116.0454.087416.0234.0468.0498.0927.0776.1391.0161.0274.0313.0552.0474.082484.0317.052316.0654.104516.1001.156816.0142.0219.0278.0444.0425.0664.1015.151784.2143.3037.3359.4546.0127.0166.0274.033184.0405.0503.0474.0586.0967.1167.147.1748.0205.0239.042.0468.0625.0708.0449.0512.0903.102.1372.152284.0244.025416.0484.050816.0728.077216.0459.047784.0923.0952.1396.143.0259.0259.0523.051784.0781.0782.0474.0459.0953.0918.1436.1381.0273.024484.0542.0508.082.0757.0494.0464.1011.0923.1514.1367.0273.0235.0532.0464.0801.0694.0547.0483.1123.0952.1689.1426.023.018.0459.0376.0679.0566.0737.0596.1479.1177.2231.1743.0069.0039.0122.0093.0186.0137l.0005.000484c.1377.245116.313.457516.5215.634716.0019.002.0039.003.0049.0044.2065.1743.4423.3145.7041.4131.0107.0049.0214.0069.0322.0117.1142.0410841.2324.0747.355.1006.0219.0049.0439.0108.0669.0147.1337.0259.27.0429.4126.0487841.0166.0015159.0341-.001.0502,0,.1231.0039159.2496-.001.3785-.0116841.0385-.0034.0761-.0073159.1147-.0112.147-.0181159.2964-.042.4487-.0806,1.8926-.4693,3.4278-2.3388999,3.4278-4.1762999,0-.115216-.0064-.228-.0181-.3374-.0024-.0244-.0083-.0474-.0117-.0713-.0108-.0844-.023-.1684-.041-.248-.0049-.0205161-.0122-.0391-.0166-.0586-.0205-.0825-.0425-.1646-.0703-.2432-.0035-.0127161-.0103-.0239-.0142-.0356-.0317-.084-.0649-.1656-.104-.2442-.0034-.0063-.0059-.0117-.0103-.018-.0415-.0826-.0878-.1636-.1377-.2398-.0009-.001-.0024-.0019-.0024-.0034-.1621-.2436-.3652-.4512-.6011-.6177161h-.0005c-.0004,0-.0009-.0008839-.0009-.0008839-.2334-.2798-.4956-.5562-.7774-.8179-.0019-.002-.0034-.0025-.0049-.0049-.1875-.1738-.3823-.3408-.5825-.499-.0034-.0025-.0058-.0044-.0093-.0069-.0932-.0737-.1875-.144-.2827-.2129-.0102-.0078-.02-.0156-.0302-.0224-.1968-.1416-.397-.2735-.5967-.3921161-.0152-.0092838-.0313-.0175838-.0459-.0263838-.083-.0483-.1651-.0942-.2476-.1377-.021-.0107-.0415-.0219162-.062-.0322-.1079-.0552-.2158-.1074-.3223-.1538.9903-.2466,1.877-.4663,3.169-.7881.0127-1.0303.0947-1.8086.2471-2.3344999.2392-.83.7246-1.625,1.4565-2.3866999.5381-.5571.8062-.8345,1.3437-1.393,1.3638-1.418,2.2808-2.5406163,2.7632-3.3383999.8062-1.3325,1.2305-2.8324999,1.2305-4.4887999,0-.1909-.0059-.3765-.0156-.5581Z" fill="#fff"/>
    </mask>
  </defs>
  <path d="M26.752,34.603c-1.2491-1.5013839-3.3472-2.8861838-4.6148-2.5721838-1.8926.4697-3.4272,2.3402999-3.4272,4.1766999,0,1.0313,1.1816,2.5297999,2.5527,3.5639999.5522.9814,1.7261,1.4643,3.0898,1.125,1.8926-.4693,3.4278-2.3388999,3.4278-4.1762999,0-.929216-.3936-1.6714-1.0283-2.117216Z" fill="#ecb300" stroke="#000" stroke-miterlimit="3.8637" stroke-width="2"/>
  <path d="M18.71,36.2075161c0,1.8364,3.7495,5.1596999,5.6425,4.6889999,1.8926-.4693,3.4278-2.3388999,3.4278-4.1762999,0-1.8364-3.7495-5.159216-5.6431-4.6893999-1.8926.4697-3.4272,2.3402999-3.4272,4.1766999Z" fill="url(#radial-gradient)"/>
  <path d="M33.7354,15.3506166c-.0005-2.6982999-2.8995-4.4994999-4.795-5.4032999-1.8965-.9043167-4.2788-1.001-7.146-.2891-2.1821.542-4.0224,1.4867833-5.519,2.8153999-2.3623,2.0995999-3.6338,4.9741999-3.7871,8.6244998l2.2153,2.2143999c2.2207-.5513,3.3311-.8271,5.5527-1.3774,0-1.0498.3042-2.1376999.9136-3.2626999.6099-1.1245,1.6436-1.8697,3.1026-2.2314999.6181-.1538,1.1508-.2129166,1.6088-.188.0518.2652.0816.5425.0816.8365,0,.8388-.2656,1.6738-.7559,2.4950999-.2793.4673-.6421.9424-1.0947,1.4018-.5518.5766836-.8281.8648-1.3794,1.4414-1.3608,1.418-2.2041,2.5825999-2.5312,3.4916999-.3272.9097-.5288,2.4628999-.6045,4.6518999l2.2153,2.2152999c2.0586-.5112,3.0884-.7671,5.1465-1.2788.0127-1.0303.0947-1.8086.2471-2.3344999.2392-.83.7246-1.625,1.4565-2.3866999.5381-.5571.8062-.8345,1.3437-1.393,1.3638-1.418,2.2808-2.5406163,2.7632-3.3383999.8062-1.3325,1.2305-2.8324999,1.2305-4.4887999,0-.8218-.0889-1.5596-.2646-2.2157999Z" fill="#ecb300" stroke="#000" stroke-miterlimit="3.8637" stroke-width="2"/>
  <path d="M16.2754,12.4736167c1.4966-1.3286167,3.3369-2.2733999,5.519-2.8153999,2.8672-.7119,5.2495-.6152167,7.146.2891,1.8955.9038,4.795,2.7049999,4.795,5.4037999,0,1.6567-2.3755,3.1561999-3.1807,4.4886999-.4824.7989-1.3999,1.9209-2.7637,3.3383999-.5371.5586-.8056.8364-1.3437,1.3936-.732.7601836-1.2168,1.5566-1.4571,2.3871836-.1513.5249163-3.1777,5.8276161-3.1777,5.8276161l-2.2153-2.2152999c.0757-2.1889999.2773-3.7421999.6045-4.6518999.3271-.9091,1.1704-2.0736999,2.5312-3.4916999.5513-.5766.8276-.8647164,1.3794-1.4414.4526-.4594.8154-.9345,1.0947-1.4018.4903-.8213.7559-1.6563.7559-2.4950999,0-.9664165-.2808-1.7769-.8408-2.4335999-.5596-.6543-1.5816-.7989-3.064-.4302-1.4595.3613-2.4936,1.1069-3.1035,2.2323834-.6094,1.1245165-4.251,6.8545164-4.251,6.8545164l-2.2153-2.2143999c.1533-3.6502999,1.4248-6.5248998,3.7871-8.6244998Z" fill="url(#radial-gradient-2)"/>
  <g mask="url(#mask)">
    <g>
      <g>
        <path d="M20.5703,38.068416c0,1.8374,1.5352,2.9442999,3.4277,2.474584,1.8931-.470184,3.4283-2.339884,3.4283-4.1762839,0-1.8374-1.5352-2.9447999-3.4273-2.4750999-1.893.4702-3.4287,2.3393839-3.4287,4.1767999Z" fill="#ffffb3"/>
        <path d="M18.1372,14.335c1.4956-1.3286834,3.3364-2.274,5.5186-2.8154833,2.8667-.7124,5.249-.6152,7.1464.2891,1.8946.9033,2.8433,2.7050999,2.8433,5.4042999,0,1.6562-.4243,3.1552999-1.2305,4.4882999-.4819.7977836-1.3999,1.9204-2.7622,3.3387836-.5376.5572163-.8071.8355163-1.3442,1.3931163-.7324.7607-1.2173,1.5566-1.4565,2.3861999-.1524.5259-.2349,1.3036838-.2466,2.3349999-2.0591.5112-3.0884.7666-5.147,1.2783.0747-2.1898999.2769-3.7416999.604-4.6522999.3271-.9102,1.1704-2.0733163,2.5313-3.4916999.5507-.5767.8286-.8648,1.3793-1.4419.4537-.459.8155-.9336,1.0953-1.4014.4892-.8203164.7553-1.6562.7553-2.4950999,0-.9663-.2812-1.7773-.8403-2.4335999-.5596-.6548-1.5815-.7983-3.0649-.4302-1.4585.3618-2.4932,1.107-3.1026,2.2319999-.6094,1.1259-.914,2.2127999-.914,3.2621999-2.2217.5517-3.3316.8266-5.5528,1.3779.1529-3.6498999,1.4248-6.5248998,3.7881-8.6235164Z" fill="#ffffb3"/>
      </g>
      <g>
        <path d="M20.9248,38.422416c0,1.8369,1.5347,2.9447999,3.4277,2.4740999,1.8926-.4693,3.4278-2.3388999,3.4278-4.1762999,0-1.8364-1.5347-2.9437999-3.4278-2.4740999-1.8921.4697-3.4277,2.3392999-3.4277,4.1762999Z" fill="#ff7845"/>
        <path d="M18.4907,14.689c1.4961-1.3285834,3.3369-2.2734833,5.5191-2.816,2.8672-.7118833,5.249-.6151833,7.1455.2896167,1.8955.9033,2.8447,2.7045999,2.8447,5.4037999,0,1.6563-.4243,3.1562999-1.2305,4.4887999-.4824.7977836-1.3994,1.9204-2.7632,3.3383999-.5375.5585-.8056.8359-1.3437,1.393-.7319.7617-1.2173,1.5567-1.4565,2.3866999-.1524.5259-.2344,1.3042-.2471,2.3344999-2.0581.5117-3.0879.7676-5.1465,1.2788.0757-2.1893999.2769-3.7416999.604-4.6517999.3272-.9102,1.1704-2.0742999,2.5313-3.4921999.5517-.5767.8281-.8648,1.3793-1.4414.4532-.459.816-.9336,1.0948-1.4009.4907-.8218.7553-1.6567.7553-2.4960999,0-.9663-.2802-1.7764-.8403-2.4330999-.5586-.6543-1.5806-.7983-3.0644-.4302-1.459.3618-2.4927,1.107-3.1026,2.2314999-.6094,1.125-.9136,2.2128999-.9136,3.2626999-2.2216.5503-3.332.8261-5.5527,1.3774.1528-3.6498999,1.4243-6.5243998,3.7871-8.6235164Z" fill="#ff7845"/>
      </g>
    </g>
  </g>
</svg>