<?xml version="1.0" encoding="UTF-8"?>
<svg id="Layer_1" data-name="Layer 1" xmlns="http://www.w3.org/2000/svg" width="48" height="48" xmlns:xlink="http://www.w3.org/1999/xlink" viewBox="0 0 48 48">
  <defs>
    <linearGradient id="New_Gradient_252" data-name="New Gradient 252" x1="16.3460685" y1="16.3086772" x2="32.1238123" y2="30.0240607" gradientUnits="userSpaceOnUse">
      <stop offset="0" stop-color="#e5e5e5"/>
      <stop offset="1" stop-color="#fff"/>
    </linearGradient>
    <mask id="mask" x="4.2911061" y="23.6909331" width="24.682451" height="20.8748219" maskUnits="userSpaceOnUse">
      <path d="M15.678196,25.8325175c6.0800998.3599,10.8446997,4.2040999,10.6401997,8.5883998-.2032,4.3847999-5.2988999,7.6483998-11.3803957,7.2885998-6.0801039-.3579-10.8442037-4.2035999-10.6406037-8.5878998.206-4.3852999,5.2997999-7.6479998,11.3807997-7.2890998Z" fill="#fff" fill-rule="evenodd"/>
    </mask>
    <linearGradient id="linear-gradient" x1="5.2520566" y1="38.7204882" x2="25.5515209" y2="28.7301971" gradientUnits="userSpaceOnUse">
      <stop offset="0" stop-color="#2c6eb2"/>
      <stop offset=".213483" stop-color="#fff"/>
    </linearGradient>
    <linearGradient id="linear-gradient-2" x1="3.3407934" y1="43.7830808" x2="27.9934225" y2="33.3694533" gradientUnits="userSpaceOnUse">
      <stop offset="0" stop-color="#fff"/>
      <stop offset=".0659937" stop-color="#d7d9e1"/>
      <stop offset=".1372393" stop-color="#b5b8c7"/>
      <stop offset=".2162204" stop-color="#989bb1"/>
      <stop offset=".3033519" stop-color="#80849f"/>
      <stop offset=".4021126" stop-color="#6e7291"/>
      <stop offset=".5192141" stop-color="#616687"/>
      <stop offset=".672578" stop-color="#5a5f81"/>
      <stop offset="1" stop-color="#585d80"/>
    </linearGradient>
    <mask id="mask-1" x="4.2911061" y="23.1360651" width="24.7097542" height="18.5942175" maskUnits="userSpaceOnUse">
      <path d="M15.678196,25.0625176c6.0800998.3184,10.8446997,3.7348999,10.6401997,7.6308998-.2032,3.8944999-5.2988999,6.7943998-11.3803957,6.4745826-6.0801039-.3178828-10.8442037-3.7348827-10.6406037-7.6303826.206-3.8954999,5.2997999-6.7948998,11.3807997-6.4750998Z" fill="#fff" fill-rule="evenodd"/>
    </mask>
    <linearGradient id="linear-gradient-3" x1="-.1289529" y1="42.0950438" x2="20.923645" y2="28.4853042" gradientUnits="userSpaceOnUse">
      <stop offset="0" stop-color="#fff"/>
      <stop offset=".193443" stop-color="#c3dffc"/>
      <stop offset=".5249655" stop-color="#62abf7"/>
      <stop offset=".674157" stop-color="#3c97f6"/>
    </linearGradient>
    <linearGradient id="linear-gradient-4" x1="6.0415817" y1="41.9819613" x2="24.3217118" y2="34.0109899" gradientUnits="userSpaceOnUse">
      <stop offset="0" stop-color="#fff"/>
      <stop offset=".5218671" stop-color="#a7abcf"/>
      <stop offset=".780899" stop-color="#8187ba"/>
    </linearGradient>
    <mask id="mask-2" x="17.1171959" y="7.126" width="19.9228041" height="9.6025178" maskUnits="userSpaceOnUse">
      <polygon points="23.6347958 16.7285178 36.5844954 13.4937178 30.7465956 7.654318 17.7577959 10.8613179 23.6347958 16.7285178" fill="#fff" fill-rule="evenodd"/>
    </mask>
  </defs>
  <line x1="10.1181961" y1="19.9805177" x2="16.7025959" y2="18.3022177" fill="none" stroke="#999" stroke-linecap="round" stroke-miterlimit="3.8637" stroke-width=".7125"/>
  <g>
    <polygon points="21.9696958 34 43 28.8252175 26.541 12.3682179 5.4408962 17.4863177 21.9696958 34" fill="url(#New_Gradient_252)" fill-rule="evenodd" stroke="#000" stroke-linecap="round" stroke-linejoin="round" stroke-width="2"/>
    <polygon points="21.9696958 34 43 28.8252175 26.541 12.3682179 5.4408962 17.4863177 21.9696958 34" fill="url(#New_Gradient_252)" fill-rule="evenodd"/>
    <line x1="12.1840961" y1="20.4038177" x2="20.3910958" y2="18.3525177" fill="none" stroke="#999" stroke-linecap="round" stroke-miterlimit="3.8637" stroke-width=".7125"/>
    <line x1="14.652296" y1="22.8716176" x2="28.1635957" y2="19.4741177" fill="none" stroke="#999" stroke-linecap="round" stroke-miterlimit="3.8637" stroke-width=".7125"/>
    <line x1="15.988796" y1="24.2075176" x2="29.7045956" y2="20.7603177" fill="none" stroke="#999" stroke-linecap="round" stroke-miterlimit="3.8637" stroke-width=".7125"/>
    <line x1="17.3241959" y1="25.5425175" x2="28.6981956" y2="22.6543176" fill="none" stroke="#999" stroke-linecap="round" stroke-miterlimit="3.8637" stroke-width=".7125"/>
    <line x1="20.019" y1="28.2358175" x2="27.0648957" y2="26.4966175" fill="none" stroke="#999" stroke-linecap="round" stroke-miterlimit="3.8637" stroke-width=".7125"/>
    <g>
      <path d="M22.3954958,29.3862174c.0396.0904.0733.1519.1055042.2412-.0274042-.1294174-.0777042-.2797-.2124042-.2797-.2945,0-.3115.4082-.3115.7055,0,.4116.2553.8197826.6704.8197826.4965042,0,.8657-.3016826.9946-.7987826-.0225.0567-.0679.085-.0679.1455v.2061h.1284c.1416,0,.2637-.1109.2637-.2505v-.2798c-.0107.0503-.0347.0854826-.0347.1353,0,.1108.1343.1518.2456.1518.1905,0,.2686-.1518.3589-.333.0728.0742.1226.1362.2227.1362.146,0,.206-.0957.313-.2016.04.021.0576.0669.1069.0669.1611,0,.2109-.1626.3555-.2237.0796.2627.2021.3692.2915.6421" fill="none" stroke="#0342d3" stroke-linecap="round" stroke-linejoin="round" stroke-width=".3545"/>
      <path d="M25.9848957,28.5156175c.0161043.3462.0927.5425.1289.8877" fill="none" stroke="#0342d3" stroke-linecap="round" stroke-linejoin="round" stroke-width=".3545"/>
      <path d="M25.9613957,28.6719175l-.062.1513c.2583-.1464.3804-.2695.6607-.3691.0058.0332.0429043.0508.0429043.0898,0,.2295-.1103043.3414-.1323043.5704.3022-.168.48-.2622.8252-.3374.0283.0629.0679.1084.0679.1800825,0,.128-.0445.1958175-.0894.3135174l.0679-.0225174" fill="none" stroke="#0342d3" stroke-linecap="round" stroke-linejoin="round" stroke-width=".3545"/>
      <path d="M27.6376957,28.4268175l-.0381.0839c.2124043-.0566.2842-.1962.4839-.2568v.523c.1475043-.2662.2246-.418.4424-.6358.1343.1343.0386.3428.1782.481.2866-.3814.4253-.6367.7783-.9502.1792.2412.0562.6928.3574.6928.2447,0,.3067-.2441.4473-.4462-.041.0722-.0742.1181-.1128.2021l.0899.0205c.184-.1045.2807-.2119.4707-.314v.1368c.0327.0039.0551044.0215.0937.0215.2183,0,.3247-.129.4859-.2681.0175044.0771.0122.1786825.0903.1786825.3911,0,.5806-.2240825.915-.4247825" fill="none" stroke="#0342d3" stroke-linecap="round" stroke-linejoin="round" stroke-width=".3545"/>
    </g>
  </g>
  <g>
    <path d="M26.3183957,32.6934174c.2045-3.8959999-4.5600999-7.3124998-10.6401997-7.6308998-6.0809998-.3198-11.1747997,2.5795999-11.3807997,6.4750998-.0181.3398.0048.6748.0595,1.0043826-.0278.1914174-.0498.3838174-.0595.5796174-.2036,4.3842999,4.5604999,8.2299998,10.6406037,8.5878998,6.0814958.3598,11.1771957-2.9037999,11.3803957-7.2885998.019-.3984-.0053957-.7915-.0663957-1.1782.0321957-.1807173.0570957-.3643.0663957-.5493Z" fill="#2c6eb2" fill-rule="evenodd" stroke="#000" stroke-width="2"/>
    <g mask="url(#mask)">
      <g>
        <path d="M15.678196,25.8325175c6.0800998.3599,10.8446997,4.2040999,10.6401997,8.5883998-.2032,4.3847999-5.2988999,7.6483998-11.3803957,7.2885998-6.0801039-.3579-10.8442037-4.2035999-10.6406037-8.5878998.206-4.3852999,5.2997999-7.6479998,11.3807997-7.2890998Z" fill="url(#linear-gradient)" fill-rule="evenodd"/>
        <polygon points="7.8495962 33.7354173 7.8720962 40.3394172 21.4550958 44.2744171 28.5067956 33.5952173 7.8495962 33.7354173" fill="url(#linear-gradient-2)" fill-rule="evenodd" stroke="#585d80" stroke-width=".5"/>
        <polygon points="15.114696 33.5952173 17.2440959 24.0625176 27.9130957 29.6016174 15.114696 33.5952173" fill="#ff7845" fill-rule="evenodd" stroke="#000" stroke-width=".5"/>
      </g>
    </g>
    <g mask="url(#mask-1)">
      <g>
        <path d="M15.678196,25.0625176c6.0800998.3184,10.8446997,3.7348999,10.6401997,7.6308998-.2032,3.8944999-5.2988999,6.7943998-11.3803957,6.4745826-6.0801039-.3178828-10.8442037-3.7348827-10.6406037-7.6303826.206-3.8954999,5.2997999-6.7948998,11.3807997-6.4750998Z" fill="url(#linear-gradient-3)" fill-rule="evenodd"/>
        <polygon points="15.114696 31.8403174 6.9271962 37.71 21.4550958 41.4463171 28.5067956 31.9585174 15.114696 31.8403174" fill="url(#linear-gradient-4)" fill-rule="evenodd" stroke="#8187ba" stroke-width=".5"/>
        <polygon points="15.114696 31.9585174 28.1513957 33.0239174 25.7841957 27.6304175 15.114696 31.9585174" fill="#65d081" fill-rule="evenodd" stroke="#4b995f" stroke-width=".5"/>
        <polygon points="15.114696 31.9585174 17.2440959 23.4893176 27.9130957 28.4106175 15.114696 31.9585174" fill="#ff7845" fill-rule="evenodd" stroke="#cc6037" stroke-width=".5"/>
      </g>
    </g>
  </g>
  <g>
    <path d="M12,9.042518c-.0063039-.0654-.0054039-.1294.002-.1939.062-.4931.452096-.8823,1.120596-1.0488L30.0727956,3.6162181c.2524-.0625,1.0595.1621,1.246.3482l10.6406997,10.6395819c.4565047.4585178.5976.9556178.4585047,1.3721178.0091953.7827-.021,1.5381-1.0723047,1.8008l-16.8978996,4.2230823c-.2544.0635176-1.0621-.1596824-1.251-.3466824l-10.8456997-10.8485997c-.3653-.4551-.3589-1.1802-.3510961-1.7622Z" fill="#b2b2b2" stroke="#000" stroke-miterlimit="3.8637" stroke-width="2"/>
    <g>
      <path d="M41.3456953,17.7769177l-16.8978996,4.2230823c-.2544.0635176-1.0621-.1596824-1.251-.3466824l-10.8456997-10.8485997c-.4126-.5151-.3490961-1.3784-.3490961-1.9848999l18.0707956-4.2391999c.2524-.0625,1.0595.1621,1.246.3471l11.0947997,10.7050997c0,.8936.1372,1.8443-1.0679,2.1440999Z" fill="#b2b2b2"/>
      <path d="M41.3456953,16.8135178l-16.8978996,4.2211999c-.2544.0649-1.0621-.1592-1.251-.3448l-10.6879997-10.6791997c-.8799-.8808-.5952-1.9111.6138-2.2108999L30.0727956,3.6162181c.2524-.0625,1.0595.1621,1.246.3482l10.6406997,10.6395819c.8774.8779178.5913,1.9067178-.6138,2.2095178Z" fill="#e5e5e5"/>
      <g mask="url(#mask-2)">
        <g>
          <polygon points="23.6347958 16.7285178 36.5844954 13.4937178 30.7465956 7.654318 17.7577959 10.8613179 23.6347958 16.7285178" fill="#3c97f6" fill-rule="evenodd"/>
          <polygon points="17.6605959 11.4116179 30.71 8.212918 36.9110954 14.3823178 37.04 13.2329179 30.9970956 7.126 17.1171959 10.6099179 17.6605959 11.4116179" fill="#032c87" fill-rule="evenodd"/>
        </g>
      </g>
      <path d="M16.7694959,8.650418c.4673,0,.8438.2788.8438.624,0,.3462-.3765.625-.8438.625-.4643,0-.8432-.2788-.8432-.625,0-.3452.3789-.624.8432-.624Z" fill="#999"/>
      <path d="M28.8437956,5.630418c.4648,0,.8413.2793.8413.624s-.3765.624-.8413.624c-.4677956,0-.8482-.2793-.8482-.624s.3804043-.624.8482-.624Z" fill="#999"/>
      <path d="M25.7470957,17.6284177c.4668,0,.8457.2798.8457.6235823,0,.3457177-.3789.6245177-.8457.6245177-.4663,0-.8428-.2788-.8428-.6245177,0-.3437823.3765-.6235823.8428-.6235823Z" fill="#999"/>
      <polyline points="19.5800959 11.6035179 30.5175956 8.947318 34.707 13.1055179" fill="none" stroke="#78dcff" stroke-linecap="round" stroke-linejoin="round" stroke-width=".5229"/>
    </g>
  </g>
  <path d="M38.395,14.9834178c.4648954,0,.8417954.2793.8417954.6255,0,.3442-.3769.6255-.8417954.6255-.4687046,0-.8467046-.2813-.8467046-.6255,0-.3462.378-.6255.8467046-.6255Z" fill="#999"/>
</svg>