<?xml version='1.0' encoding='UTF-8'?>
<svg xmlns="http://www.w3.org/2000/svg" xmlns:xlink="http://www.w3.org/1999/xlink" id="Layer_1" data-name="Layer 1" width="48" height="48" viewBox="0 0 48 48">
  <defs>
    <radialGradient id="radial-gradient" cx="-158.5139714" cy="-53.677584" fx="-158.5139714" fy="-53.677584" r="50.3737903" gradientTransform="translate(104.4619 44.5259) rotate(.7874235) scale(.603957 .7557691) skewX(-.6748893)" gradientUnits="userSpaceOnUse">
      <stop offset="0" stop-color="#fff"/>
      <stop offset=".505618" stop-color="#e5f2ff"/>
      <stop offset=".5429599" stop-color="#d8e8f9"/>
      <stop offset=".611775" stop-color="#b6cfea"/>
      <stop offset=".7036898" stop-color="#80a7d2"/>
      <stop offset=".769663" stop-color="#5587c0"/>
    </radialGradient>
    <radialGradient id="radial-gradient-2" cx="-151.0698057" cy="-2.8365739" fx="-151.0698057" fy="-2.8365739" r="40.8348199" gradientTransform="translate(103.4689 19.1816) rotate(4.9775635) scale(.6027732 .7572342) skewX(-3.2594379)" gradientUnits="userSpaceOnUse">
      <stop offset=".55618" stop-color="#fff"/>
      <stop offset=".6126591" stop-color="#f9fbfd"/>
      <stop offset=".6825068" stop-color="#eaf0f7"/>
      <stop offset=".7594197" stop-color="#d1deee"/>
      <stop offset=".8414115" stop-color="#aec5e1"/>
      <stop offset=".9264778" stop-color="#81a6d0"/>
      <stop offset="1" stop-color="#5587c0"/>
    </radialGradient>
    <radialGradient id="radial-gradient-3" cx="-83.225863" cy="-102.7869379" fx="-83.225863" fy="-102.7869379" r="34.729259" gradientTransform="translate(73.8438 85.5047) scale(.5856)" gradientUnits="userSpaceOnUse">
      <stop offset="0" stop-color="#fffcea"/>
      <stop offset="1" stop-color="#ffcd00"/>
    </radialGradient>
    <radialGradient id="radial-gradient-4" cx="-78.4424713" cy="-98.5431032" fx="-78.4424713" fy="-98.5431032" r="28.6695793" gradientTransform="translate(73.8438 85.5047) scale(.5856)" gradientUnits="userSpaceOnUse">
      <stop offset=".123595" stop-color="#fffcea"/>
      <stop offset=".1861429" stop-color="#fff5ca"/>
      <stop offset=".3037391" stop-color="#ffeb95"/>
      <stop offset=".4229561" stop-color="#ffe167"/>
      <stop offset=".5412962" stop-color="#ffda42"/>
      <stop offset=".6586727" stop-color="#ffd425"/>
      <stop offset=".7748421" stop-color="#ffd010"/>
      <stop offset=".8892901" stop-color="#ffcd04"/>
      <stop offset="1" stop-color="#ffcd00"/>
    </radialGradient>
    <radialGradient id="radial-gradient-5" cx="-33.9853614" cy="-61.5374676" fx="-33.9853614" fy="-61.5374676" r="8.805209" gradientTransform="translate(50.7944 67.1314) scale(.721 .654)" gradientUnits="userSpaceOnUse">
      <stop offset="0" stop-color="#b0d9ff"/>
      <stop offset=".0788591" stop-color="#819fbb"/>
      <stop offset=".1556139" stop-color="#5a6f82"/>
      <stop offset=".2290064" stop-color="#394753"/>
      <stop offset=".2984663" stop-color="#20282f"/>
      <stop offset=".3630294" stop-color="#0e1215"/>
      <stop offset=".420852" stop-color="#030405"/>
      <stop offset=".466292" stop-color="#000"/>
      <stop offset=".483146" stop-color="#fffcea"/>
    </radialGradient>
    <radialGradient id="radial-gradient-6" cx="-25.891435" cy="-62.4294296" fx="-25.891435" fy="-62.4294296" r="8.507617" gradientTransform="translate(50.7944 67.1314) scale(.721 .654)" gradientUnits="userSpaceOnUse"><stop offset="0" stop-color="#b0d9ff"/><stop offset=".0788591" stop-color="#819fbb"/><stop offset=".1556139" stop-color="#5a6f82"/><stop offset=".2290064" stop-color="#394753"/><stop offset=".2984663" stop-color="#20282f"/><stop offset=".3630294" stop-color="#0e1215"/><stop offset=".420852" stop-color="#030405"/><stop offset=".466292" stop-color="#000"/><stop offset=".483146" stop-color="#fffcea"/></radialGradient>
    <mask id="mask" x="23.5286573" y="31.5421012" width="15.2026788" height="11.7572865" maskUnits="userSpaceOnUse">
      <path d="M23.813,33.5659173c.2749,3.8197999,3.8525,6.5805998,7.5137,6.0380827,3.6372-.5380828,6.7587-3.7035827,7.1015-7.4867826-2.4927,2.0614999-11.563,3.3246999-14.6152,1.4487Z" fill="#fff" stroke="#fff" stroke-width=".5"/>
    </mask>
    <radialGradient id="radial-gradient-7" cx="27.9593322" cy="33.5738031" fx="27.9593322" fy="33.5738031" r="17.5871773" gradientUnits="userSpaceOnUse">
      <stop offset="0" stop-color="#000"/>
      <stop offset=".1569959" stop-color="#2b2300"/>
      <stop offset=".5765765" stop-color="#9c7d00"/>
      <stop offset=".8660878" stop-color="#e3b600"/>
      <stop offset="1" stop-color="#ffcd00"/>
    </radialGradient>
    <radialGradient id="radial-gradient-8" cx="-261.3688877" cy="-47.9994391" fx="-261.3688877" fy="-47.9994391" r="16.4281082" gradientTransform="translate(127.2493 67.6009) scale(.3841 .6425)" gradientUnits="userSpaceOnUse">
      <stop offset=".08427" stop-color="#ff7845"/>
      <stop offset=".1859106" stop-color="#f76d3e"/>
      <stop offset=".3623806" stop-color="#e2512e"/>
      <stop offset=".5910174" stop-color="#c02314"/>
      <stop offset=".747191" stop-color="#a70000"/>
    </radialGradient>
    <radialGradient id="radial-gradient-9" cx="-19.4946956" cy="-5.6778281" fx="-19.4946956" fy="-5.6778281" r="19.5656125" gradientTransform="translate(40.6433825 29.7985) scale(.9157)" gradientUnits="userSpaceOnUse">
      <stop offset="0" stop-color="#fffcea"/>
      <stop offset=".1597296" stop-color="#fffbe6"/>
      <stop offset=".2939619" stop-color="#fff9dc"/>
      <stop offset=".4190482" stop-color="#fff5ca"/>
      <stop offset=".5385906" stop-color="#fff0b2"/>
      <stop offset=".6541587" stop-color="#ffea92"/>
      <stop offset=".7667303" stop-color="#ffe26b"/>
      <stop offset=".876914" stop-color="#ffd93d"/>
      <stop offset=".9826115" stop-color="#ffce09"/>
      <stop offset="1" stop-color="#ffcd00"/>
    </radialGradient>
  </defs>
  <g>
    <path d="M25.6387,7.059618c-6.8423-.8199-22.0845.8247-18.211,10.900382.771,2.0068177,3.6099,9.7832175,7.7408,10.6396175-1.5474-1.165-2.4639-4.0829999-2.2652-5.2914999,2.7422.606,12.002.1138,15.1148-2.8246999,3.0844-2.9105999,6.0537-12.6278997-2.3794-13.4237997" fill="#ccc" stroke="#000" stroke-linecap="round" stroke-linejoin="round" stroke-width="1.8735"/>
    <path d="M25.6387,7.059618c-6.8423-.8199-22.0845.8247-18.211,10.900382.771,2.0068177,3.6099,9.7832175,7.7408,10.6396175-1.5474-1.165-2.4639-4.0829999-2.2652-5.2914999,2.7422.606,12.002.1138,15.1148-2.8246999,3.0844-2.9105999,6.0537-12.6278997-2.3794-13.4237997" fill="url(#radial-gradient)"/>
    <path d="M11.9883,23.3711176c.0332-.3457.0713-.6895.1113-1.0322-1.2954-1.4605-2.6411-3.0214999-3.1235-4.9775999-.7749-3.1547999.958-6.4789998,3.7846-7.0184998,4.6866-.8897,16.4668-3.2875999,17.7247,3.8451821.1577-2.5434821-1.3731-5.055182-3.9981-5.540082-4.5566-.8437-9.2554-.4667-13.8262.441-3.6655.724082-5.8994,4.7264999-4.8506,8.4769998.4903,1.7559,1.4239,3.1772999,2.8414,4.2817999-.0455,1.4638.6181,2.6288999,1.4663,3.7987999.0332-.7686-.0103-1.5274-.1299-2.2753999" fill="url(#radial-gradient-2)"/>
    <path d="M20.4932,19.6729177c-.2325,1.8339-2.6963,2.0477999-2.6509.2978.0483-1.8301,2.8945-2.2133999,2.6509-.2978M18.6382,17.2334178c-1.1123-1.3149-1.8985-3.0609999-2.2105-4.8207999-.1435-.8101-.2212-1.8901.5938-2.6444999.6689-.6182,1.9082-.8326,2.7153-.5913,2.1734.6503.8736,3.9994999.5142,5.3358999-.1797.6685-.3994,1.3271-.5801,1.9809999-.1108.4047-.5303,1.415-1.0327.7397" fill="#2d4866"/>
  </g>
  <g>
    <g>
      <path d="M40,31.1064174c0,5.8906999-4.7754,10.6660997-10.6675,10.6660997-5.8911,0-10.6665-4.7753999-10.6665-10.6660997,0-5.8900999,4.7754-10.6659997,10.6665-10.6659997,5.8921,0,10.6675,4.7758999,10.6675,10.6659997Z" fill="url(#radial-gradient-3)" stroke="#000" stroke-width="2"/>
      <path d="M40,31.1064174c0,5.8906999-4.7754,10.6660997-10.6675,10.6660997-5.8911,0-10.6665-4.7753999-10.6665-10.6660997,0-5.8900999,4.7754-10.6659997,10.6665-10.6659997,5.8921,0,10.6675,4.7758999,10.6675,10.6659997Z" fill="url(#radial-gradient-4)"/>
      <g>
        <g>
          <path d="M25.9497,28.7266175c0,1.8789,1.0171,3.4022999,2.272,3.4022999s2.272-1.5234,2.272-3.4022999-1.0171-3.4023999-2.272-3.4023999-2.272,1.5235-2.272,3.4023999Z" fill="url(#radial-gradient-5)"/>
          <path d="M25.9497,28.7266175c0,1.8789,1.0171,3.4022999,2.272,3.4022999s2.272-1.5234,2.272-3.4022999-1.0171-3.4023999-2.272-3.4023999-2.272,1.5235-2.272,3.4023999Z" fill="none" stroke="#000" stroke-width=".5"/>
        </g>
        <g>
          <path d="M31.7866,28.0508175c0,1.7846,1.0137,3.2313999,2.2642,3.2313999s2.2641-1.4468,2.2641-3.2313999c0-1.7847-1.0136-3.2314999-2.2641-3.2314999s-2.2642,1.4468-2.2642,3.2314999Z" fill="url(#radial-gradient-6)"/>
          <path d="M31.7866,28.0508175c0,1.7846,1.0137,3.2313999,2.2642,3.2313999s2.2641-1.4468,2.2641-3.2313999c0-1.7847-1.0136-3.2314999-2.2641-3.2314999s-2.2642,1.4468-2.2642,3.2314999Z" fill="none" stroke="#000" stroke-width=".5"/>
        </g>
      </g>
      <g mask="url(#mask)">
        <g>
          <path d="M23.813,33.5659173c.2749,3.8197999,3.8525,6.5805998,7.5137,6.0380827,3.6372-.5380828,6.7587-3.7035827,7.1015-7.4867826-2.4927,2.0614999-11.563,3.3246999-14.6152,1.4487Z" fill="url(#radial-gradient-7)"/>
          <path d="M34.1675,37.7134172c.0615,2.7279999-2.6333,4.9447999-4.2486,5.2865828-1.5737.334-4.5058-1.0282829-4.4126-4.02.0508-1.603,2.0879-1.8598827,4.3589-2.0478827,2.272-.1865,4.2725-.4868,4.3023.7813Z" fill="url(#radial-gradient-8)" stroke="#a70000" stroke-width=".5"/>
          <path d="M23.813,33.5659173c.2749,3.8197999,3.8525,6.5805998,7.5137,6.0380827,3.6372-.5380828,6.7587-3.7035827,7.1015-7.4867826-2.4927,2.0614999-11.563,3.3246999-14.6152,1.4487Z" fill="none" stroke="#7b3e00" stroke-width=".5"/>
        </g>
      </g>
    </g>
    <path d="M38.1865,27.5718175c-.3716-1.0777-.9219-2.0673999-1.6196-2.9355999-1.7744-1.9214-4.3066-3.1307999-7.1221-3.1307999-5.3564,0-9.7124,4.3578999-9.7124,9.7137998,0,3.0497826,1.416,5.7690999,3.6231,7.5497826.8027.5616172,1.6938,1.0064172,2.6494,1.3072172-2.4614-1.3037-4.2578-3.6987999-4.7349-6.5400998-.2095-.7378-.3291-1.5136-.3291-2.3168999,0-4.6898999,3.815-8.5043998,8.5039-8.5043998.8042,0,1.5801.1197,2.3179.3287,2.7598.4643,5.0977,2.1737999,6.4238,4.5282999Z" fill="url(#radial-gradient-9)"/>
  </g>
</svg>