<?xml version='1.0' encoding='UTF-8'?>
<svg xmlns="http://www.w3.org/2000/svg" xmlns:xlink="http://www.w3.org/1999/xlink" id="Layer_1" data-name="Layer 1" width="48" height="48" viewBox="0 0 48 48">
  <defs>
    <linearGradient id="New_Gradient_208" data-name="New Gradient 208" x1="13.9600368" y1="17.329545" x2="33.9850521" y2="34.7370253" gradientUnits="userSpaceOnUse">
      <stop offset="0" stop-color="#5387ba"/>
      <stop offset="1" stop-color="#96bad6"/>
    </linearGradient>
    <mask id="mask" x="6.3515962" y="17.863819" width="38.545899" height="24.0297994" maskUnits="userSpaceOnUse">
      <polygon points="23.1542958 39.0557184 43.4882953 34.0234185 43.459 33.123 28.0844957 17.863819 7.7182962 22.8535188 7.7504962 23.7686188 23.1542958 39.0557184" fill="#fff" fill-rule="evenodd"/>
    </mask>
    <linearGradient id="New_Gradient_208-2" data-name="New Gradient 208" x1="17.7868191" y1="21.6510137" x2="33.4332627" y2="35.2522596" gradientUnits="userSpaceOnUse"><stop offset="0" stop-color="#5387ba"/><stop offset="1" stop-color="#96bad6"/></linearGradient>
    <linearGradient id="New_Gradient_209" data-name="New Gradient 209" x1="13.8863127" y1="24.5765342" x2="37.3637792" y2="39.8229792" gradientUnits="userSpaceOnUse">
      <stop offset="0" stop-color="#b4daea"/>
      <stop offset=".51123" stop-color="#b4daea"/>
      <stop offset=".646072" stop-color="#5387ba"/>
      <stop offset="1" stop-color="#16336e"/>
    </linearGradient>
    <linearGradient id="New_Gradient_210" data-name="New Gradient 210" x1="25.3307957" y1="18.7036189" x2="25.3307957" y2="37.6152185" gradientUnits="userSpaceOnUse">
      <stop offset="0" stop-color="#b2b2b2"/>
      <stop offset="1" stop-color="#f2f2f2"/>
    </linearGradient>
    <mask id="mask-1" x="6.3515962" y="13" width="38.545899" height="24.0293185" maskUnits="userSpaceOnUse">
      <polygon points="23.1542958 34.1914185 43.4882953 29.1592187 43.459 28.2583187 28.0844957 13 7.7182962 17.9883189 7.7504962 18.9028189 23.1542958 34.1914185" fill="#fff" fill-rule="evenodd"/>
    </mask>
    <linearGradient id="New_Gradient_211" data-name="New Gradient 211" x1="17.7863527" y1="16.7865488" x2="33.4330953" y2="30.3880547" gradientUnits="userSpaceOnUse">
      <stop offset="0" stop-color="#6498c1"/>
      <stop offset="1" stop-color="#b4daea"/>
    </linearGradient>
    <linearGradient id="New_Gradient_209-2" data-name="New Gradient 209" x1="13.8862555" y1="19.7119972" x2="37.3638509" y2="34.9585259" gradientUnits="userSpaceOnUse"><stop offset="0" stop-color="#b4daea"/><stop offset=".51123" stop-color="#b4daea"/><stop offset=".646072" stop-color="#5387ba"/><stop offset="1" stop-color="#16336e"/></linearGradient>
    <linearGradient id="New_Gradient_212" data-name="New Gradient 212" x1="4.1256098" y1="18.4307574" x2="11.0301978" y2="23.0879609" gradientUnits="userSpaceOnUse">
      <stop offset="0" stop-color="#fff"/>
      <stop offset="1" stop-color="gray"/>
    </linearGradient>
    <linearGradient id="New_Gradient_213" data-name="New Gradient 213" x1="7.5008427" y1="17.1436509" x2="9.4895206" y2="22.324334" gradientUnits="userSpaceOnUse">
      <stop offset="0" stop-color="#000"/>
      <stop offset="1" stop-color="gray"/>
    </linearGradient>
    <linearGradient id="New_Gradient_214" data-name="New Gradient 214" x1="7.6157279" y1="25.0842317" x2="7.4493992" y2="24.363783" gradientUnits="userSpaceOnUse">
      <stop offset="0" stop-color="#fff"/>
      <stop offset="1" stop-color="gray"/>
    </linearGradient>
    <linearGradient id="New_Gradient_215" data-name="New Gradient 215" x1="8.4281623" y1="26.315942" x2="7.5631415" y2="24.8763057" gradientUnits="userSpaceOnUse">
      <stop offset="0" stop-color="#000"/>
      <stop offset="1" stop-color="gray"/>
    </linearGradient>
    <linearGradient id="New_Gradient_212-2" data-name="New Gradient 212" x1="6.5506981" y1="20.8376828" x2="13.4546449" y2="25.4944537" gradientUnits="userSpaceOnUse"><stop offset="0" stop-color="#fff"/><stop offset="1" stop-color="gray"/></linearGradient>
    <linearGradient id="New_Gradient_213-2" data-name="New Gradient 213" x1="9.926343" y1="19.5508445" x2="11.9149608" y2="24.7313709" gradientUnits="userSpaceOnUse"><stop offset="0" stop-color="#000"/><stop offset="1" stop-color="gray"/></linearGradient>
    <linearGradient id="New_Gradient_214-2" data-name="New Gradient 214" x1="10.0406485" y1="27.4906662" x2="9.8742991" y2="26.7701277" gradientUnits="userSpaceOnUse"><stop offset="0" stop-color="#fff"/><stop offset="1" stop-color="gray"/></linearGradient>
    <linearGradient id="New_Gradient_215-2" data-name="New Gradient 215" x1="10.8532256" y1="28.7225088" x2="9.9890397" y2="27.284262" gradientUnits="userSpaceOnUse"><stop offset="0" stop-color="#000"/><stop offset="1" stop-color="gray"/></linearGradient>
    <linearGradient id="New_Gradient_212-3" data-name="New Gradient 212" x1="8.9759208" y1="23.2439038" x2="15.8795799" y2="27.9004806" gradientUnits="userSpaceOnUse"><stop offset="0" stop-color="#fff"/><stop offset="1" stop-color="gray"/></linearGradient>
    <linearGradient id="New_Gradient_213-3" data-name="New Gradient 213" x1="12.3513049" y1="21.9570586" x2="14.3398316" y2="27.1373478" gradientUnits="userSpaceOnUse"><stop offset="0" stop-color="#000"/><stop offset="1" stop-color="gray"/></linearGradient>
    <linearGradient id="New_Gradient_214-3" data-name="New Gradient 214" x1="12.4661144" y1="29.8978722" x2="12.2997503" y2="29.1772701" gradientUnits="userSpaceOnUse"><stop offset="0" stop-color="#fff"/><stop offset="1" stop-color="gray"/></linearGradient>
    <linearGradient id="New_Gradient_215-3" data-name="New Gradient 215" x1="13.2787294" y1="31.1297544" x2="12.4135434" y2="29.6898432" gradientUnits="userSpaceOnUse"><stop offset="0" stop-color="#000"/><stop offset="1" stop-color="gray"/></linearGradient>
    <linearGradient id="New_Gradient_212-4" data-name="New Gradient 212" x1="11.4010322" y1="25.6510741" x2="18.3049287" y2="30.3078112" gradientUnits="userSpaceOnUse"><stop offset="0" stop-color="#fff"/><stop offset="1" stop-color="gray"/></linearGradient>
    <linearGradient id="New_Gradient_213-4" data-name="New Gradient 213" x1="14.7766828" y1="24.3638921" x2="16.764959" y2="29.5435285" gradientUnits="userSpaceOnUse"><stop offset="0" stop-color="#000"/><stop offset="1" stop-color="gray"/></linearGradient>
    <linearGradient id="New_Gradient_214-4" data-name="New Gradient 214" x1="14.8913172" y1="32.3038353" x2="14.7249241" y2="31.5831079" gradientUnits="userSpaceOnUse"><stop offset="0" stop-color="#fff"/><stop offset="1" stop-color="gray"/></linearGradient>
    <linearGradient id="New_Gradient_215-4" data-name="New Gradient 215" x1="15.7038238" y1="33.5362169" x2="14.8387799" y2="32.0965422" gradientUnits="userSpaceOnUse"><stop offset="0" stop-color="#000"/><stop offset="1" stop-color="gray"/></linearGradient>
    <linearGradient id="New_Gradient_212-5" data-name="New Gradient 212" x1="13.8268635" y1="28.057881" x2="20.7296194" y2="32.7138486" gradientUnits="userSpaceOnUse"><stop offset="0" stop-color="#fff"/><stop offset="1" stop-color="gray"/></linearGradient>
    <linearGradient id="New_Gradient_213-5" data-name="New Gradient 213" x1="17.2025551" y1="26.7725785" x2="19.1899071" y2="31.9498073" gradientUnits="userSpaceOnUse"><stop offset="0" stop-color="#000"/><stop offset="1" stop-color="gray"/></linearGradient>
    <linearGradient id="New_Gradient_214-5" data-name="New Gradient 214" x1="17.3166479" y1="34.711636" x2="17.1502327" y2="33.9908127" gradientUnits="userSpaceOnUse"><stop offset="0" stop-color="#fff"/><stop offset="1" stop-color="gray"/></linearGradient>
    <linearGradient id="New_Gradient_215-5" data-name="New Gradient 215" x1="18.129795" y1="35.9436748" x2="17.2643347" y2="34.503307" gradientUnits="userSpaceOnUse"><stop offset="0" stop-color="#000"/><stop offset="1" stop-color="gray"/></linearGradient>
    <linearGradient id="New_Gradient_212-6" data-name="New Gradient 212" x1="16.251031" y1="30.4644587" x2="23.1562217" y2="35.1220687" gradientUnits="userSpaceOnUse"><stop offset="0" stop-color="#fff"/><stop offset="1" stop-color="gray"/></linearGradient>
    <linearGradient id="New_Gradient_213-6" data-name="New Gradient 213" x1="19.6270632" y1="29.1777987" x2="21.6152677" y2="34.3572486" gradientUnits="userSpaceOnUse"><stop offset="0" stop-color="#000"/><stop offset="1" stop-color="gray"/></linearGradient>
    <linearGradient id="New_Gradient_214-6" data-name="New Gradient 214" x1="19.7416848" y1="37.118322" x2="19.5752861" y2="36.3975704" gradientUnits="userSpaceOnUse"><stop offset="0" stop-color="#fff"/><stop offset="1" stop-color="gray"/></linearGradient>
    <linearGradient id="New_Gradient_215-6" data-name="New Gradient 215" x1="20.5545944" y1="38.3499633" x2="19.6893" y2="36.9098717" gradientUnits="userSpaceOnUse"><stop offset="0" stop-color="#000"/><stop offset="1" stop-color="gray"/></linearGradient>
    <linearGradient id="New_Gradient_216" data-name="New Gradient 216" x1="22.3938936" y1="15.4862236" x2="24.8750728" y2="22.6920911" gradientUnits="userSpaceOnUse">
      <stop offset="0" stop-color="#ccc"/>
      <stop offset="1" stop-color="#f2f2f2"/>
    </linearGradient>
  </defs>
  <path d="M21.8456958,37.7554184c-2.3915999,1.0551-4.4140999-.0616-4.9618999-2.0810999-1.1947959-.2646-2.0888999-1.1665-2.4257959-2.4071999-1.195304-.2642-2.087904-1.1655-2.4258039-2.4066999-1.1933-.2652-2.0883999-1.1661-2.4247999-2.4062999-1.1943-.2651187-2.0878999-1.167-2.4247999-2.4071999-1.5342-.3399187-2.5721999-1.7281-2.5721999-3.5414999,0-3.5991999,3.7157999-6.1786998,6.2596998-5.2875999l17.2143996-4.217819,15.3745043,15.2583187.0292953.9009-1.3189.3266c-.1483953.4078-.3032.982-.3032,1.6123,0,.1714.0088047.3277.0278047.4703l1.565,1.5545814.0292953.9004185-20.3339995,5.0322999-1.3086-1.3003ZM8.4882961,24.501c-.0117.0918188-.0191.1841188-.0225.2802188.0816-.0151.1641-.0351.2451-.0585l-.2226-.2217188ZM7.0507962,24.522c.0845-1.1205812.5268-2.1298812,1.1699-2.9472811v-2.2035999l-.2353-.2344c-1.065.7022-1.9473,1.9482811-1.9473,3.3686999,0,.9545812.4175,1.6499,1.0127,2.0165812ZM10.9130961,26.9072187c-.0108.0917813-.0186.1851-.0215.2803.0815-.0156.1631-.0352.2451-.0591l-.2236-.2212ZM9.4760961,26.9277187c.0312-.417.1123-.8188.2348-1.2011-.3462.1503812-.6836.2573-1.0107.3222.1802.3833.4517.6811813.7759.8789ZM13.338396,29.3145187c-.0117.0917-.0186.184-.022.2797.0815-.0156.1631-.0351.2451-.059l-.2231-.2207ZM11.9008961,29.3354187c.0312-.4179.1118-.8198.2348-1.2021-.3452.1509-.6826.2563-1.0096961.3223.1796961.3828.4515961.6806.7748961.8798ZM18.167,34.4077185c.0814959-.0156.1630959-.0351.2455959-.0591l-.2235959-.2207c-.0118041.0918-.0191041.1856-.022.2798ZM15.976096,33.269c.1802.3829186.4511.6812185.7754.8794185.0317-.4179.1123-.8193.2348-1.2021-.3457.1509-.6831.2583-1.0102.3226814ZM15.763196,31.7207186c-.011196.0918-.0191.1846-.0215.2798.0815-.0147.1641-.0337.2451-.0581l-.2236-.2217ZM14.325696,31.7422186c.0317-.4185.1128-.8198.236304-1.2022186-.346704.1504186-.684604.2579186-1.011204.3223186.1797.3838.4521.6816.7749.8799ZM19.4208959,35.3491185c-.3491.1538-.6904.2617-1.0186.3267.4468.9521,1.4561,1.3711,2.4355999,1.0796l-1.417-1.4063Z" fill="url(#New_Gradient_208)" stroke="#000" stroke-linecap="round" stroke-linejoin="round" stroke-width="2"/>
  <g mask="url(#mask)">
    <g>
      <polygon points="23.1542958 39.0557184 43.4882953 34.0234185 43.459 33.123 28.0844957 17.863819 7.7182962 22.8535188 7.7504962 23.7686188 23.1542958 39.0557184" fill="url(#New_Gradient_208-2)" fill-rule="evenodd"/>
      <polygon points="7.5741962 22.7559188 23.2401958 38.3022184 44.6107952 32.8662186 44.8974952 36.0181185 22.5927958 41.8936183 6.3515962 25.48 6.4237962 22.4702188 7.5741962 22.7559188" fill="url(#New_Gradient_209)" fill-rule="evenodd"/>
    </g>
  </g>
  <path d="M42.4408953,28.8735187s-.5747,1.0108-.5747,2.2245999c0,1.2124.5029,1.6538814.5029,1.6538814l-19.2010953,4.8632185-14.9473038-14.8309996v-4.0805999l34.2201991,10.1698997Z" fill="url(#New_Gradient_210)" fill-rule="evenodd"/>
  <g mask="url(#mask-1)">
    <g>
      <polygon points="23.1542958 34.1914185 43.4882953 29.1592187 43.459 28.2583187 28.0844957 13 7.7182962 17.9883189 7.7504962 18.9028189 23.1542958 34.1914185" fill="url(#New_Gradient_211)" fill-rule="evenodd"/>
      <polygon points="7.5741962 17.8911189 23.2401958 33.438 44.6107952 28.0015187 44.8974952 31.1538186 22.5927958 37.0293185 6.3515962 20.6152189 6.4237962 17.605519 7.5741962 17.8911189" fill="url(#New_Gradient_209-2)" fill-rule="evenodd"/>
    </g>
  </g>
  <g>
    <path d="M11.5883961,18.084c.6806039,0,1.2334.3774189,1.2334.8423189,0,.4663-.552796.8436811-1.2334.8436811-.6817-.0004811-1.2339-.3773811-1.2339-.8441811,0-.4644.5522-.8418189,1.2339-.8418189Z" fill="#5387ba" stroke="#16336e" stroke-miterlimit="3.8637" stroke-width=".5"/>
    <g>
      <path d="M9.7265961,25.7192188c-2.8124999,1.2442-5.1161999-.5112188-5.1161999-3.2137999,0-4.5995999,6.0682998-7.5322998,8.0038998-3.6908999.0459.3104811-.3912.7626-1.3414.5361-1.249-2.0932999-5.2347999.1352-5.2347999,3.1547999,0,1.7295,1.3711,2.6107999,2.6810999,2.2147999l1.0074.999Z" fill="gray"/>
      <path d="M5.2645962,24.4087188c-.0239-.0327188-.7597-1.0659-.3945-3.0961999.376-2.0878999,2.9179999-4.3417999,5.1239999-4.1181999.2564.0259.2173.409681-.04.3824-1.9687-.199719-4.3559999,1.8779-4.7020961,3.8021999-.1343038.7460811-.1705038,2.1029999.3275962,2.8046999.1518.2075-.1631.4336-.315.2251Z" fill="url(#New_Gradient_212)"/>
      <path d="M11.3710961,19.0435189s-.0186-.0391-.063-.1001c-.3564-.4869-1.0225-.6495-1.5972-.6495-1.3486,0-3.0912999,1.17-3.7259999,3.1914999-.0772.2445811-.4478.1284-.3702-.1167.6773038-2.1538999,2.5507999-3.4594999,4.0961999-3.4594999.6714,0,1.7085.2739,2.0146999.9765.1064039.2344-.2481.3926-.3545.1578Z" fill="url(#New_Gradient_213)"/>
      <path d="M6.5927962,24.3364188s.039.0469.1152038.1138c.5190962.4473,1.2250962.5557,1.8940961.4219.2543-.0513.331.3266.0781.3778812-.7779.1543188-1.856-.0097812-2.3871961-.6703812-.1641038-.1983.1371962-.4414.2997962-.2432Z" fill="url(#New_Gradient_214)"/>
      <path d="M6.8651962,25.3911188s.0371.0238812.1094.0557c.6445.2724,1.5464038.1313,2.1742999-.0498188.2471039-.0717812.356.2978188.1079.3701188-.6211.1792-1.9803999.3926-2.6131999-.0601188-.2124-.146.0087-.4613812.2216-.3158812Z" fill="url(#New_Gradient_215)"/>
    </g>
  </g>
  <g>
    <path d="M14.013696,20.4902189c.6811,0,1.2334.378,1.2334.8423,0,.4668-.5523.8443-1.2334.8443-.6822,0-1.2344-.3775-1.2344-.8443,0-.4643.5522-.8423,1.2344-.8423Z" fill="#5387ba" stroke="#16336e" stroke-miterlimit="3.8637" stroke-width=".5"/>
    <g>
      <path d="M12.1518961,28.126c-2.8115999,1.2431187-5.1166999-.5116813-5.1166999-3.2133812,0-4.5996188,6.0692998-7.5331998,8.0043998-3.6903999.045404.309-.3907.7617-1.3418.5356-1.2486-2.0931999-5.2348999.1348-5.2348999,3.1547999,0,1.7285,1.3711039,2.6098999,2.6821039,2.2133812l1.0068961,1Z" fill="gray"/>
      <path d="M7.6898962,26.8159187c-.0234-.0337-.7607-1.0669187-.3945-3.0971999.3755-2.0873999,2.9179999-4.3412999,5.1226038-4.1175999.258296.0258811.218696.4096-.039104.3818-1.9687-.1982-4.3554999,1.8779-4.7020999,3.8031999-.1337962.7461-.17,2.1030999.3286,2.8036999.1513.2076-.1641.4331-.3155.2261Z" fill="url(#New_Gradient_212-2)"/>
      <path d="M13.796896,21.4502189s-.0196-.0391-.064-.1006c-.355896-.4863-1.022-.6484-1.5967-.6484-1.3486,0-3.0907999,1.1684-3.7259999,3.1903999-.0767.2451-.4478.1293812-.3706-.1162.6767-2.1537999,2.5516999-3.4594999,4.0965999-3.4594999.6714,0,1.709.2739,2.0151999.9770811.1059.2343189-.2486.3916189-.3545.1572189Z" fill="url(#New_Gradient_213-2)"/>
      <path d="M9.019,26.7432187s.0380961.0464.1137961.1132c.52.4478,1.2266.5562,1.895.4229.2539-.0513187.3306.3262.0777.3769-.7764.1557813-1.855-.0087-2.3881999-.6689-.1626-.1992.1382-.4429.3017039-.2441Z" fill="url(#New_Gradient_214-2)"/>
      <path d="M9.29,27.7983187s.0366961.024.1103961.0552c.6435.2724813,1.5464.1309,2.1732999-.0498.2481-.0723.356.2979.1079.3706-.6211.1786813-1.9808999.3916-2.6131999-.061-.212-.145.0087-.4614.2216039-.315Z" fill="url(#New_Gradient_215-2)"/>
    </g>
  </g>
  <g>
    <path d="M16.439,22.8975188c.6805959,0,1.2338959.3774,1.2338959.8422,0,.4659-.5533.8442812-1.2338959.8442812-.681704,0-1.233904-.3783812-1.233904-.8442812,0-.4648.5522-.8422,1.233904-.8422Z" fill="#5387ba" stroke="#16336e" stroke-miterlimit="3.8637" stroke-width=".5"/>
    <g>
      <path d="M14.577596,30.5322186c-2.8129999,1.2447-5.1166999-.5107-5.1166999-3.2128999,0-4.6000999,6.0688998-7.5326998,8.0029998-3.6908999.0468.3095812-.3897.7617-1.3398959.5352-1.25-2.0922999-5.2358039.1357-5.2358039,3.1556999,0,1.729,1.3706,2.6103999,2.6820999,2.2148999l1.0073.998Z" fill="gray"/>
      <path d="M10.1156961,29.2217187c-.0244-.0327187-.7596961-1.0655-.3945-3.0961999.3755-2.0883999,2.9169999-4.3417999,5.1225999-4.1176999.2573.0264.2177.4091812-.0381.3823-1.9703-.1992-4.3564999,1.8775-4.702696,3.8027999-.1347039.7460813-.1714039,2.1029999.3266961,2.8036999.1518.208-.1626.4331-.314.2251Z" fill="url(#New_Gradient_212-3)"/>
      <path d="M16.222696,23.8574188s-.0201-.0405-.0635-.1011c-.357-.4858-1.023-.6484-1.5967-.6484-1.3501,0-3.0917999,1.1694-3.7270999,3.1899999-.0771.2456-.4482.1293-.3696-.1153.6768-2.1542999,2.5502999-3.4603999,4.0966999-3.4603999.6699,0,1.708.2739,2.0136999.9775.1059.2339-.2471.3916-.3535.1577Z" fill="url(#New_Gradient_213-3)"/>
      <path d="M11.4437961,29.1504187s.0386.0464.1153.1123c.519.4482,1.2246.5571,1.894.4228.253904-.0507.3301.3267.0777.378-.7769.1548-1.856-.0093-2.3871999-.6695186-.1645961-.1986813.1372-.4422813.3002-.2435813Z" fill="url(#New_Gradient_214-3)"/>
      <path d="M11.7162961,30.2051186s.0361.0234.1089.0552c.644.2719,1.5454.1313,2.1742999-.0499.2476-.0712.355504.2984.1084.3702-.6216.1797-1.9813999.393-2.6141999-.0601-.212-.146.0097-.4619.2226-.3154Z" fill="url(#New_Gradient_215-3)"/>
    </g>
  </g>
  <g>
    <path d="M18.8642959,25.3037188c.6806,0,1.2334.3784,1.2334.8422812,0,.4668187-.5528.8442187-1.2334.8442187-.6831,0-1.2334-.3774-1.2334-.8442187,0-.4638812.5503-.8422812,1.2334-.8422812Z" fill="#5387ba" stroke="#16336e" stroke-miterlimit="3.8637" stroke-width=".5"/>
    <g>
      <path d="M17.0028959,32.939c-2.8124999,1.2441185-5.1166999-.5107814-5.1166999-3.2133813,0-4.5986187,6.0678998-7.5317998,8.0033998-3.6908999.0464041.31-.3901.7632-1.3408.5356-1.2485-2.0917999-5.2342999.1353-5.2342999,3.1552999,0,1.729,1.3696,2.6102999,2.6805999,2.2147999l1.0078.9985814Z" fill="gray"/>
      <path d="M12.540496,31.6294186c-.0244-.0327-.7602-1.0669-.394496-3.0971999.375496-2.0873999,2.918-4.3407999,5.123-4.1172187.2573959.0249188.2182959.4092188-.039.3824188-1.969304-.1997-4.355504,1.8764-4.702204,3.8016999-.1342.7456-.1704,2.1029999.327204,2.8041999.151796.208-.163104.4336-.314504.2261Z" fill="url(#New_Gradient_212-4)"/>
      <path d="M18.647,26.2637187s-.0196041-.0391-.0635041-.1006c-.356-.4863-1.021-.6489-1.5962-.6489-1.3491,0-3.0912959,1.1713-3.7265999,3.1908999-.0771.2451-.447696.1288813-.3706-.1162.6773-2.1533999,2.5517999-3.4599999,4.0971999-3.4599999.6704,0,1.7085.2744,2.0147041.978.1058959.2339-.2486041.3916-.355.1568Z" fill="url(#New_Gradient_213-4)"/>
      <path d="M13.868696,31.5566186s.0395.0473814.1147.1133c.5195.4483,1.2261.5567,1.895.4224.2544-.0513186.3301.3262.0767.3779-.7764.1547814-1.855-.0088-2.3866999-.6704-.1636-.1982.1377-.4419.3003-.2432Z" fill="url(#New_Gradient_214-4)"/>
      <path d="M14.141096,32.6118186s.0361.0235.1094.0551814c.643504.272,1.5459.1304186,2.1732999-.0497814.2481-.0723.357.2983.1094.3701-.6216.1786814-1.9813999.3926-2.6142999-.0601-.211896-.146.0098-.4609.2222-.3154Z" fill="url(#New_Gradient_215-4)"/>
    </g>
  </g>
  <g>
    <path d="M21.2895958,27.7109187c.6806,0,1.2333.3775,1.2333.8418,0,.4668-.5527.8448-1.2333.8448-.6822,0-1.2344-.378-1.2344-.8448,0-.4643.5522-.8418,1.2344-.8418Z" fill="#5387ba" stroke="#16336e" stroke-miterlimit="3.8637" stroke-width=".5"/>
    <g>
      <path d="M19.4276959,35.3457185c-2.8124999,1.2441-5.1166959-.5112-5.1166959-3.2128999,0-4.5995999,6.0688958-7.5326998,8.0043958-3.6908999.0454.3096-.3906.7627-1.3413.5352-1.249-2.0922999-5.2357999.1357-5.2357999,3.1556999,0,1.729,1.3721,2.6098999,2.6825999,2.2143999l1.0068.9985Z" fill="gray"/>
      <path d="M14.965796,34.0356185c-.0234-.0327-.7602-1.0664-.3945-3.0966185.3755-2.0878813,2.9183999-4.3412813,5.1239999-4.1166813.2573.0249.2173.4082-.04.3818-1.9692959-.1987-4.3559999,1.8774-4.7021999,3.8026999-.1347.7456-.1704,2.1030999.3277,2.8036999.1508.2076-.1636.4327-.315.2251Z" fill="url(#New_Gradient_212-5)"/>
      <path d="M21.0727958,28.6699187s-.0196-.0386-.0635-.0991c-.356-.4868187-1.0215-.6494-1.5972-.6494-1.3480959,0-3.0917999,1.1704-3.7265999,3.1903999-.0771.2451-.4472.1294-.3701-.1157.6773-2.1547999,2.5517999-3.4589999,4.0966999-3.4589999.6709041,0,1.709.273,2.0150999.9766.1055.2334-.248.3911-.3544.1562Z" fill="url(#New_Gradient_213-5)"/>
      <path d="M16.293896,33.9639185s.039104.0464.1148.1128c.5195.4487,1.2256.5566,1.895.4222815.2539-.0507815.3306.3272185.0772.3784185-.7764.1543-1.856-.0097-2.3871999-.6699-.1641-.1987.1376-.4419.3002-.2436Z" fill="url(#New_Gradient_214-5)"/>
      <path d="M16.5663959,35.0181185s.0366041.0238815.1094.0561c.6445.2715,1.5459.1309,2.1732999-.0508.2486-.0713.3574.2984.1094.3715815-.6221.1782185-1.9818999.3911185-2.6137999-.0604815-.2119-.146.0088-.4624.2217-.3164Z" fill="url(#New_Gradient_215-5)"/>
    </g>
  </g>
  <g>
    <path d="M23.7143958,30.1172186c.6811,0,1.2348.3779,1.2348.8417814,0,.4668186-.5537.8447186-1.2348.8447186-.6817,0-1.2333958-.3779-1.2333958-.8447186,0-.4638814.5516958-.8417814,1.2333958-.8417814Z" fill="#5387ba" stroke="#16336e" stroke-miterlimit="3.8637" stroke-width=".5"/>
    <g>
      <path d="M21.8524958,37.7529184c-2.8119999,1.2442-5.1161999-.5117-5.1161999-3.2137999,0-4.5995999,6.0683998-7.5322998,8.0038998-3.6904999.0459.3096-.3911.7627-1.3408.5357-1.249-2.0917999-5.2357999.1352-5.2357999,3.1547999,0,1.7295,1.3711,2.6107999,2.6820999,2.2142999l1.0068.9995Z" fill="gray"/>
      <path d="M17.3905959,36.4429185c-.0229-.0332-.7597-1.0664-.394-3.0971999.3755-2.0878999,2.9179999-4.3417999,5.1229999-4.1171999.2574042.0259.2173.4092-.0395.3819-1.9683-.1988-4.3559999,1.8774-4.7011999,3.8026999-.1348.7456-.1718959,2.1029999.3267,2.8041999.1528.207-.1631.4331-.315.2256Z" fill="url(#New_Gradient_212-6)"/>
      <path d="M23.4975958,31.0776186s-.0195958-.0405-.0635-.1001c-.356-.4878-1.0215-.6494-1.5967-.6494-1.3491,0-3.0917999,1.1708814-3.7260999,3.1899999-.0781.2456-.4477.1294-.3706-.1158.6768-2.1533186,2.5513041-3.4593999,4.0966999-3.4593999.6704,0,1.7095.2734,2.0146999.978.1059042.2329-.2486.3910814-.3545.1567Z" fill="url(#New_Gradient_213-6)"/>
      <path d="M18.7201959,36.3701185s.0381.0468815.1133.1128c.5205041.4487,1.227.5570815,1.8955041.4233.2538958-.0517.3295958.3262.0766958.378-.7759.1543-1.855-.0098-2.3871999-.6704-.1631-.1978185.1377-.4419.3017-.2437Z" fill="url(#New_Gradient_214-6)"/>
      <path d="M18.9921959,37.4253185s.0351.0239.1094.0546815c.6435.2729184,1.5449.1313185,2.1722999-.0492815.249-.0718.357.2982815.1099.3706-.6221.1786816-1.9814999.3921-2.6137958-.0606-.2124041-.1455.0092959-.4619.2221959-.3154Z" fill="url(#New_Gradient_215-6)"/>
    </g>
  </g>
  <polygon points="30.2045956 19.8374189 26.4306957 16.024419 17.064 18.3398189 20.9076958 22.1533188 30.2045956 19.8374189" fill="url(#New_Gradient_216)" fill-rule="evenodd" stroke="#5387ba" stroke-linecap="round" stroke-linejoin="round"/>
</svg>