<?xml version="1.0" encoding="UTF-8"?>
<svg id="Layer_1" data-name="Layer 1" xmlns="http://www.w3.org/2000/svg" width="48" height="48" xmlns:xlink="http://www.w3.org/1999/xlink" viewBox="0 0 48 48">
  <defs>
    <linearGradient id="New_Gradient_80" data-name="New Gradient 80" x1="32.9267713" y1="60.4307412" x2="17.8177301" y2="-5.013706" gradientUnits="userSpaceOnUse">
      <stop offset="0" stop-color="#ffff87"/>
      <stop offset="1" stop-color="#ffad00"/>
    </linearGradient>
    <mask id="mask" x="14.7652924" y="13.4111558" width="21.0705885" height="29.5888442" maskUnits="userSpaceOnUse">
      <path d="M21.876,20.1118189c.957-.5537,1.2616812-1.8271.6747812-2.8431999-.5899-1.0152-1.8399-1.3897-2.7997812-.836-.958.5523-1.2598187,1.8252-.6729187,2.8417999.5869187,1.0152,1.8389187,1.3902,2.7979187.8374ZM28.124,26.9668187l7.7118809,13.3578997-.2382,1.0092816-1.0069.5801183-2.6229999-.7871183.200219-.8457816-.581119-1.0117-.7646-.228.3515-1.4902-.5293-.9195-1.8252-.5468185.2002-.8544815-.5194811-.9019-1.2471189-.3735-.5605-.9693.2217-.9419-.9239-.2768-1.5263-2.6415999-1.043.6196s-.3994.125-.6592-.3237c-.5508-.9527.874-1.3291.3545-2.2275999,0,0-.8017-.6142-1.2539-.3544-.4502.2597-3.8407999.5355813-6.0399998-3.2709999-2.6943999-4.6635999.3418-7.6318998,2.6620999-8.9716998,2.3231999-1.3408,6.4794998-2.4941999,9.1591998,2.1478999,2.1991999,3.8071999.2636,6.6044998-.1855811,6.8647998-.4521189.2578-.3223189,1.2641-.3223189,1.2641.5206.9004,1.5342-.184,2.0839999.7661.2617.4507-.1679.8018-.1679.8018l-.9277811.5254Z" fill="#fff" fill-rule="evenodd"/>
    </mask>
    <linearGradient id="linear-gradient" x1="24.0509863" y1="30.5980406" x2="41.2094142" y2="14.4680637" gradientUnits="userSpaceOnUse">
      <stop offset="0" stop-color="#f2f2f2"/>
      <stop offset=".3596726" stop-color="#9d9d9d"/>
      <stop offset="1" stop-color="#000"/>
    </linearGradient>
    <linearGradient id="linear-gradient-2" x1="104.0967599" y1="241.6447887" x2="107.1427695" y2="245.4524516" gradientTransform="translate(-194.9977 -131.428) rotate(-30.0007278)" gradientUnits="userSpaceOnUse">
      <stop offset=".005618" stop-color="#fff"/>
      <stop offset="1" stop-color="#ccc"/>
    </linearGradient>
    <linearGradient id="New_Gradient_79" data-name="New Gradient 79" x1="113.0014772" y1="234.4617011" x2="118.820694" y2="246.3197634" gradientTransform="translate(-194.9977 -131.428) rotate(-30.0007278)" gradientUnits="userSpaceOnUse">
      <stop offset="0" stop-color="#fff"/>
      <stop offset=".112366" stop-color="#fff"/>
      <stop offset="1" stop-color="#ccc"/>
    </linearGradient>
    <linearGradient id="New_Gradient_78" data-name="New Gradient 78" x1="107.4959017" y1="239.5366356" x2="114.3517136" y2="239.4276792" gradientTransform="translate(-194.9977 -131.428) rotate(-30.0007278)" gradientUnits="userSpaceOnUse">
      <stop offset="0" stop-color="#d9d9d9"/>
      <stop offset=".814606" stop-color="#fff"/>
      <stop offset="1" stop-color="#fff"/>
    </linearGradient>
    <mask id="mask-1" x="16.9245441" y="10.7083297" width="25.8192866" height="26.0548888" maskUnits="userSpaceOnUse">
      <path d="M23.9784812,17.532219c.7832-.7817.7451-2.0902999-.083-2.9188999-.832-.8301-2.1386999-.8672-2.9218999-.085-.7812.783681-.7431,2.0903999.083,2.9198999.8311.8287,2.1396999.8667,2.9218999.084ZM31.789081,22.5376188l10.9061997,10.9057997.0283,1.0361-.8203.8213-2.7352808-.0796-.0264192-.8696-.8262-.8262-.7949-.0249-.0459-1.5283-.75-.7505-1.9062-.0557186-.0253809-.8793814-.737319-.7348-1.2998-.0381-.794-.7925-.0283-.9663-.9609-.0274-2.1572999-2.1566999-.8496.8657s-.3535.2261-.7217-.1406c-.7763-.7783.503-1.5107-.2334-2.2431999,0,0-.9365-.3847188-1.3036811-.0171-.3662188.3672-3.5732187,1.5113-6.6806187-1.5966188-3.8056999-3.8080811-1.6446-7.462881.2509-9.3564809,1.8975-1.894,5.6122999-4.0848999,9.4003998-.2964,3.1113999,3.1088809,1.9668,6.3119998,1.5967,6.6806998-.3652.3671811.018619,1.3047.018619,1.3047.734281.7339,1.434481-.5757,2.210881.2002.3682.3696.044.8188.044.8188l-.7588.7471Z" fill="#fff" fill-rule="evenodd"/>
    </mask>
    <linearGradient id="New_Gradient_77" data-name="New Gradient 77" x1="35.1575194" y1="49.1748575" x2="24.2383981" y2="1.878947" gradientUnits="userSpaceOnUse">
      <stop offset="0" stop-color="#ffff87"/>
      <stop offset="1" stop-color="#ffad00"/>
    </linearGradient>
    <linearGradient id="linear-gradient-3" x1="105.2872395" y1="342.4239714" x2="123.2120192" y2="397.590771" gradientTransform="translate(-306.505 -152.0187) rotate(-45)" gradientUnits="userSpaceOnUse">
      <stop offset="0" stop-color="#ffffb3"/>
      <stop offset=".44382" stop-color="#fcd72f"/>
      <stop offset="1" stop-color="#ffcd00"/>
    </linearGradient>
    <linearGradient id="New_Gradient_76" data-name="New Gradient 76" x1="114.4840031" y1="344.2199119" x2="121.6031175" y2="366.1302931" gradientTransform="translate(-306.505 -152.0187) rotate(-45)" gradientUnits="userSpaceOnUse">
      <stop offset="0" stop-color="#ffffb3"/>
      <stop offset=".404495" stop-color="#ffffb3"/>
      <stop offset=".938202" stop-color="#ffcd00"/>
      <stop offset="1" stop-color="#ffcd00"/>
    </linearGradient>
    <linearGradient id="New_Gradient_75" data-name="New Gradient 75" x1="113.0397853" y1="349.9048565" x2="114.3676781" y2="355.2307436" gradientTransform="translate(-306.505 -152.0187) rotate(-45)" gradientUnits="userSpaceOnUse">
      <stop offset="0" stop-color="#ffcd00"/>
      <stop offset=".578659" stop-color="#ffffb3"/>
      <stop offset="1" stop-color="#ffffb3"/>
    </linearGradient>
    <mask id="mask-2" x="4.418" y="7.126" width="20.2196812" height="20.5473187" maskUnits="userSpaceOnUse">
      <path d="M23.5126812,14.159719v-7.033719H7.0683816v4.393h-2.6503816v13.0328188h5.2997816v3.1214999h8.0966998v-1.0044c-.6026-.499-1.1934-1.1669187-1.7159-2.0731999-.5234-.9067188-.8261-1.7466-.9638-2.5253999-.5909-1.7007-.3946-3.1343188.1845-4.3080999h-1.5712814v-2.177219h6.7558813c-.0254.134219-.042.274419-.042.417,0,1.153819.9365,2.0878189,2.0888999,2.0878189,1.1523,0,2.0868999-.934,2.0868999-2.0878189,0-.803281-.46-1.492181-1.125-1.842281Z" fill="#fff"/>
    </mask>
    <mask id="mask-3" x="6.8725519" y="7.8750541" width="16.2253243" height="16.267633" maskUnits="userSpaceOnUse">
      <path d="M16.0116814,24.1221188c-.0332.082-2.3241999-.0982-2.9032999-.2408-4.2997999-1.0605-7.0546998-5.4095999-6.0165998-9.7723998,1.0371-4.3642999,5.4999999-7.0346998,9.7743998-6.0180998,4.2733999,1.0176,7.0458998,5.3959999,6.0165998,9.7738998-.0713.2999-.1025.4605-.1465.504-.1875.1752-2.0526999-.1348-2.1571999-.5269-.0342-.1172.0859187-.2393.1455-.4893.5654187-2.3719999-1.0107-5.5555999-4.5419999-6.395519-3.5302999-.8417809-6.3680998,1.2925191-6.9325814,3.665119-.5664184,2.3690999,1.0106816,5.5546999,4.542,6.3939998.4735815.1148.9550814.1728811,1.1337814.1773l1.0859,2.9286999Z" fill="#fff"/>
    </mask>
    <radialGradient id="New_Gradient_72" data-name="New Gradient 72" cx="20.8247082" cy="21.9498102" fx="20.8247082" fy="21.9498102" r="15.696441" gradientUnits="userSpaceOnUse">
      <stop offset="0" stop-color="#333"/>
      <stop offset="1" stop-color="#999"/>
    </radialGradient>
    <linearGradient id="New_Gradient_74" data-name="New Gradient 74" x1="7.2104696" y1="-145.6572348" x2="14.1533149" y2="-142.2709828" gradientTransform="translate(-22.8526 130.9278927) rotate(13.3828989) scale(.8018749)" gradientUnits="userSpaceOnUse">
      <stop offset="0" stop-color="gray"/>
      <stop offset="1" stop-color="#e5e5e5"/>
    </linearGradient>
    <linearGradient id="New_Gradient_73" data-name="New Gradient 73" x1="18.1307798" y1="-154.1205478" x2="20.1315398" y2="-152.1197879" gradientTransform="translate(-22.8526 130.9278927) rotate(13.3828989) scale(.8018749)" gradientUnits="userSpaceOnUse">
      <stop offset="0" stop-color="#737373"/>
      <stop offset="1" stop-color="#d9d9d9"/>
    </linearGradient>
    <linearGradient id="New_Gradient_71" data-name="New Gradient 71" x1="4.6935311" y1="-159.8164605" x2="17.3016799" y2="-144.790654" gradientTransform="translate(-22.8526 130.9278927) rotate(13.3828989) scale(.8018749)" gradientUnits="userSpaceOnUse">
      <stop offset="0" stop-color="#fff"/>
      <stop offset=".146072" stop-color="#fff"/>
      <stop offset="1" stop-color="#737373"/>
    </linearGradient>
  </defs>
  <path d="M42.6952807,33.4434186l-10.2509997-10.2529997.3789-.3735s.174819-1.2891-.1923-1.6563c-.0264-.0634-.0655-.1269-.127-.1889-.7393-.7383-1.4092.4072-2.1054999-.1128.0137-.1421.058619-.2715.1514-.3652.2617-.2623.909219-1.9537189.1523-4.0249999-.1904-1.1074-.743081-2.4007999-2.0243999-3.6825999-2.5672999-2.5663999-5.0965999-2.3866999-7.0546811-1.417-1.1044187-1.5932-2.7646187-2.8036999-4.7568186-3.2782999-4.2743999-1.0166-8.7372998,1.6538-9.7743998,6.0180998-1.0381,4.3627999,1.7168,8.7118998,6.0165998,9.7723998.4951.1221,2.2274999.2696,2.7499999.2613.0771.1489.1514.2988.2402.4531,2.1982999,3.8065999,5.5868999,3.5316999,6.0351998,3.2704999.2773-.1582187.6875.0097813.9619.1646-.2206812.3823-.6035.726-.4043,1.2391813-.0243812.2964187.0566188.6773186.3447,1.1787186.2618.4497.6592.3228.6592.3228l1.0459-.6201,1.5244,2.6449999.4776.2749.2236.9404.5596.9712,1.249.3726.0439.7294815.2715,1.0283185,1.8272189.5459.165.2832-.260719,1.0991.2744,1.0259.7627.229.2187.374-.1103.4565816.2744,1.0263183,2.6249999.7866,1.0019-.5795.2393-1.0088-.2725-1.0269-7.1962998-12.4657997.6846-.3892s.1895-.1596.2363-.3989l1.6866,1.6851.7148-.0347.2754,1.0259.793.7944,1.301719.0371.4814809.4833814.0049.104.0224.001.253,1.0273186,1.9062191.0536814.5.4986186.0204809.7539.2754,1.0288.7949.0215.5733.5757.0039192.0947.0946808.0019.1787,1.0248815,2.7392999.0791185.8193193-.8212-.3047193-2.0624999ZM17.7616814,15.057619c-1.7158,1.1973-3.4462999,3.2358999-2.8612999,6.1337998-.2002-.0083-.6523814-.0644189-1.1083814-.1753-3.5313184-.8393-5.1084184-4.0248999-4.542-6.3939998.5644816-2.3725999,3.4022815-4.5068999,6.9325814-3.665119,1.418.336,2.5146999,1.0542191,3.2900999,1.9419191-.0645.0615-.1329.1230809-.1954.1836-.5322.5322-1.081,1.2036-1.5156,1.9751Z" fill="url(#New_Gradient_80)" fill-rule="evenodd" stroke="#000" stroke-miterlimit="3.8637" stroke-width="2"/>
  <path d="M42.6952807,33.4434186l-10.2509997-10.2529997.3789-.3735s.174819-1.2891-.1923-1.6563c-.0264-.0634-.0655-.1269-.127-.1889-.7393-.7383-1.4092.4072-2.1054999-.1128.0137-.1421.058619-.2715.1514-.3652.2617-.2623.909219-1.9537189.1523-4.0249999-.1904-1.1074-.743081-2.4007999-2.0243999-3.6825999-2.5672999-2.5663999-5.0965999-2.3866999-7.0546811-1.417-1.1044187-1.5932-2.7646187-2.8036999-4.7568186-3.2782999-4.2743999-1.0166-8.7372998,1.6538-9.7743998,6.0180998-1.0381,4.3627999,1.7168,8.7118998,6.0165998,9.7723998.4951.1221,2.2274999.2696,2.7499999.2613.0771.1489.1514.2988.2402.4531,2.1982999,3.8065999,5.5868999,3.5316999,6.0351998,3.2704999.2773-.1582187.6875.0097813.9619.1646-.2206812.3823-.6035.726-.4043,1.2391813-.0243812.2964187.0566188.6773186.3447,1.1787186.2618.4497.6592.3228.6592.3228l1.0459-.6201,1.5244,2.6449999.4776.2749.2236.9404.5596.9712,1.249.3726.0439.7294815.2715,1.0283185,1.8272189.5459.165.2832-.260719,1.0991.2744,1.0259.7627.229.2187.374-.1103.4565816.2744,1.0263183,2.6249999.7866,1.0019-.5795.2393-1.0088-.2725-1.0269-7.1962998-12.4657997.6846-.3892s.1895-.1596.2363-.3989l1.6866,1.6851.7148-.0347.2754,1.0259.793.7944,1.301719.0371.4814809.4833814.0049.104.0224.001.253,1.0273186,1.9062191.0536814.5.4986186.0204809.7539.2754,1.0288.7949.0215.5733.5757.0039192.0947.0946808.0019.1787,1.0248815,2.7392999.0791185.8193193-.8212-.3047193-2.0624999ZM17.7616814,15.057619c-1.7158,1.1973-3.4462999,3.2358999-2.8612999,6.1337998-.2002-.0083-.6523814-.0644189-1.1083814-.1753-3.5313184-.8393-5.1084184-4.0248999-4.542-6.3939998.5644816-2.3725999,3.4022815-4.5068999,6.9325814-3.665119,1.418.336,2.5146999,1.0542191,3.2900999,1.9419191-.0645.0615-.1329.1230809-.1954.1836-.5322.5322-1.081,1.2036-1.5156,1.9751Z" fill-rule="evenodd"/>
  <path d="M35.8358809,40.3247184l-7.1962998-12.4657997.6846-.3892s.4317-.351.1699-.8017187c-.0986-.1723813-.2138-.2763813-.3378-.3393813.1074-.1382.2363-.3906187.0634-.689-.457-.7944-1.2441-.1728-1.791-.4687.041-.2227.1279-.4346.3037-.5352.3946189-.2275,1.9258-2.4042999.8203-5.5008999-.1396-.7373-.417-1.5357-.9091-2.3901999-2.6796999-4.6420999-6.8359998-3.4886999-9.1591998-2.1478999-2.0566999,1.1889-4.6738999,3.6674999-3.3495999,7.4735998.1377.7788.4404,1.6186812.9638,2.5253999,2.1982999,3.8065999,5.5868999,3.5316999,6.0351998,3.2704999.2773-.1582187.6875.0097813.9619.1646-.2206812.3823-.6035.726-.4043,1.2391813-.0243812.2964187.0566188.6773186.3447,1.1787186.2618.4497.6592.3228.6592.3228l1.0459-.6201,1.5244,2.6449999.4776.2749.2236.9404.5596.9712,1.249.3726.0439.7294815.2715,1.0283185,1.8272189.5459.165.2832-.260719,1.0991.2744,1.0259.7627.229.2187.374-.1103.4565816.2744,1.0263183,2.6249999.7866,1.0019-.5795.2393-1.0088-.2725-1.0269ZM21.876,20.1118189c-.959.5528-2.211.1778-2.7979187-.8374-.0078-.0112-.0107-.0234189-.0176-.0332-.0136-.7217.3262-1.4121.9629-1.7817.961-.5537,2.2128999-.1797,2.7997999.8359.0059.0112.0098188.0225.0186.0337.0137.7217-.3262,1.4121-.9657812,1.7827Z" fill="gray" fill-rule="evenodd"/>
  <g>
    <g mask="url(#mask)">
      <g>
        <path d="M21.876,20.1118189c.957-.5537,1.2616812-1.8271.6747812-2.8431999-.5899-1.0152-1.8399-1.3897-2.7997812-.836-.958.5523-1.2598187,1.8252-.6729187,2.8417999.5869187,1.0152,1.8389187,1.3902,2.7979187.8374ZM28.124,26.9668187l7.7118809,13.3578997-.2382,1.0092816-1.0069.5801183-2.6229999-.7871183.200219-.8457816-.581119-1.0117-.7646-.228.3515-1.4902-.5293-.9195-1.8252-.5468185.2002-.8544815-.5194811-.9019-1.2471189-.3735-.5605-.9693.2217-.9419-.9239-.2768-1.5263-2.6415999-1.043.6196s-.3994.125-.6592-.3237c-.5508-.9527.874-1.3291.3545-2.2275999,0,0-.8017-.6142-1.2539-.3544-.4502.2597-3.8407999.5355813-6.0399998-3.2709999-2.6943999-4.6635999.3418-7.6318998,2.6620999-8.9716998,2.3231999-1.3408,6.4794998-2.4941999,9.1591998,2.1478999,2.1991999,3.8071999.2636,6.6044998-.1855811,6.8647998-.4521189.2578-.3223189,1.2641-.3223189,1.2641.5206.9004,1.5342-.184,2.0839999.7661.2617.4507-.1679.8018-.1679.8018l-.9277811.5254Z" fill="url(#linear-gradient)" fill-rule="evenodd"/>
        <path d="M25.3827812,23.8198188l10.0829997,17.4638996c.2549.4452816-.7129,1.0034-.9697.5591l-9.6356998-16.6918996c-.2559-.4444.2626188-1.7749188.5224-1.3311Z" fill="#666"/>
        <line x1="25.2753812" y1="23.9355188" x2="35.3573809" y2="41.3994184" fill="none" stroke="#fff" stroke-linecap="round" stroke-miterlimit="3.8637" stroke-width=".4623"/>
        <path d="M17.5438814,15.841819s-3.5936999,3.1132999-1.2353,7.1952998c2.7841999,4.8217999,6.7011998,2.6659999,6.8378998,2.9008812.1367.2368187,9.8515188,17.062,9.8515188,17.062l1.081081-.625-11.8436997-20.5160812s-3.1445999,1.4062-5.0468999-1.8897c-1.2227-2.1156999.3554-4.1273999.3554-4.1273999Z" fill="url(#linear-gradient-2)" fill-rule="evenodd"/>
        <path d="M21.876,20.1118189c.957-.5537,1.2616812-1.8271.6747812-2.8431999-.5899-1.0152-1.8399-1.3897-2.7997812-.836-.958.5523-1.2598187,1.8252-.6729187,2.8417999.5869187,1.0152,1.8389187,1.3902,2.7979187.8374ZM28.124,26.9668187l7.7118809,13.3578997-.2382,1.0092816-1.0069.5801183-2.6229999-.7871183.200219-.8457816-.581119-1.0117-.7646-.228.3515-1.4902-.5293-.9195-1.8252-.5468185.2002-.8544815-.5194811-.9019-1.2471189-.3735-.5605-.9693.2217-.9419-.9239-.2768-1.5263-2.6415999-1.043.6196s-.3994.125-.6592-.3237c-.5508-.9527.874-1.3291.3545-2.2275999,0,0-.8017-.6142-1.2539-.3544-.4502.2597-3.8407999.5355813-6.0399998-3.2709999-2.6943999-4.6635999.3418-7.6318998,2.6620999-8.9716998,2.3231999-1.3408,6.4794998-2.4941999,9.1591998,2.1478999,2.1991999,3.8071999.2636,6.6044998-.1855811,6.8647998-.4521189.2578-.3223189,1.2641-.3223189,1.2641.5206.9004,1.5342-.184,2.0839999.7661.2617.4507-.1679.8018-.1679.8018l-.9277811.5254Z" fill="none" fill-rule="evenodd"/>
      </g>
    </g>
    <path d="M19.0351813,14.587419s.3554-.1943.9355-.394c3.7343999-1.293,6.1864998.4702,7.4647998,2.681581,2.1015999,3.6401189-.0703,6.231-.1757,6.353-.4649.5313188-1.2383.1826188-.7754-.3485812l.0498-.0669c1.3359-1.8164.6728189-4.1005999-.0664-5.3788999-1.0811-1.874-3.1532999-3.5678999-6.3896998-2.4491999-.4267.1499-.6894.2895-.6894.2895-.6533.357-1.0049-.3296-.3535-.6865Z" fill="url(#New_Gradient_79)"/>
    <path d="M23.1864812,17.9092189s.0371.0791.0723.2109c.3506,1.2548811-.5674,2.0683999-1.2334,2.4530999-.6338.3672-2.1454999.8282-3.0058999-.3486-.3193-.4575-.7646-.083-.4463.374,0,0,.1006.1485.2959.3418,1.2217,1.1992,2.6240999.9097,3.5761999.3589.8555-.4927,2.1493999-1.9243189,1.2783-3.6133189-.2509-.497481-.7861-.276781-.5371.2232189Z" fill="url(#New_Gradient_78)"/>
  </g>
  <path d="M42.6952807,33.4434186l-10.2509997-10.2529997.3789-.3735s.174819-1.2891-.1923-1.6563c-.0264-.0634-.0655-.1269-.127-.1889-.7393-.7383-1.4092.4072-2.1054999-.1128.0137-.1421.058619-.2715.1514-.3652.2617-.2623.909219-1.9537189.1523-4.0249999-.1904-1.1074-.743081-2.4007999-2.0243999-3.6825999-3.7880999-3.7884999-7.5028998-1.5976-9.4003998.2964-1.4531,1.4546-3.0555999,3.9443999-2.0057999,6.7431998.1846,1.1606.7812,2.3910999,2.0331999,3.6400999,3.1054999,3.1078999,6.3104998,1.9639,6.6776998,1.5961812.2832-.2846812.9063-.1195812,1.1739-.0307812-.0879.2617812-.1992811.5235-.1622.7911-.1503.3413-.163.811.5254,1.5.3682.3681.7207.1416.7207.1416l.8496-.8672,2.1572999,2.1591999.7148-.0347.2754,1.0259.793.7944,1.301719.0371.4814809.4833814h0l.0049.104.0224.001.253,1.0273186,1.9062191.0536814.5.4986186.0204809.7539.2754,1.0288.7949.0215.5733.5757.0039192.0947.0946808.0019h0l.1787,1.0248815,2.7392999.0791185.8193193-.8212-.3047193-2.0624999ZM21.0565813,17.448219c-.1513-.1533-.2665813-.325219-.3662-.5048-.0009-.5088.1817-1.0098.5606187-1.3887.7811813-.7818,2.0887812-.7442,2.9188812.0859.1514.1519.2715.3228.3682.502.0019188.5102-.1817,1.0132-.5596,1.3896-.7822.7827-2.0907999.7447-2.9218999-.084Z" fill="#d68100" fill-rule="evenodd" stroke="#000" stroke-miterlimit="3.8637"/>
  <path d="M42.6952807,33.4434186l-10.2509997-10.2529997.3789-.3735s.174819-1.2891-.1923-1.6563c-.0264-.0634-.0655-.1269-.127-.1889-.7393-.7383-1.4092.4072-2.1054999-.1128.0137-.1421.058619-.2715.1514-.3652.2617-.2623.909219-1.9537189.1523-4.0249999-.1904-1.1074-.743081-2.4007999-2.0243999-3.6825999-3.7880999-3.7884999-7.5028998-1.5976-9.4003998.2964-1.4531,1.4546-3.0555999,3.9443999-2.0057999,6.7431998.1846,1.1606.7812,2.3910999,2.0331999,3.6400999,3.1054999,3.1078999,6.3104998,1.9639,6.6776998,1.5961812.2832-.2846812.9063-.1195812,1.1739-.0307812-.0879.2617812-.1992811.5235-.1622.7911-.1503.3413-.163.811.5254,1.5.3682.3681.7207.1416.7207.1416l.8496-.8672,2.1572999,2.1591999.7148-.0347.2754,1.0259.793.7944,1.301719.0371.4814809.4833814h0l.0049.104.0224.001.253,1.0273186,1.9062191.0536814.5.4986186.0204809.7539.2754,1.0288.7949.0215.5733.5757.0039192.0947.0946808.0019h0l.1787,1.0248815,2.7392999.0791185.8193193-.8212-.3047193-2.0624999ZM21.0565813,17.448219c-.1513-.1533-.2665813-.325219-.3662-.5048-.0009-.5088.1817-1.0098.5606187-1.3887.7811813-.7818,2.0887812-.7442,2.9188812.0859.1514.1519.2715.3228.3682.502.0019188.5102-.1817,1.0132-.5596,1.3896-.7822.7827-2.0907999.7447-2.9218999-.084Z" fill="#d68100" fill-rule="evenodd"/>
  <g>
    <g mask="url(#mask-1)">
      <g>
        <path d="M23.9784812,17.532219c.7832-.7817.7451-2.0902999-.083-2.9188999-.832-.8301-2.1386999-.8672-2.9218999-.085-.7812.783681-.7431,2.0903999.083,2.9198999.8311.8287,2.1396999.8667,2.9218999.084ZM31.789081,22.5376188l10.9061997,10.9057997.0283,1.0361-.8203.8213-2.7352808-.0796-.0264192-.8696-.8262-.8262-.7949-.0249-.0459-1.5283-.75-.7505-1.9062-.0557186-.0253809-.8793814-.737319-.7348-1.2998-.0381-.794-.7925-.0283-.9663-.9609-.0274-2.1572999-2.1566999-.8496.8657s-.3535.2261-.7217-.1406c-.7763-.7783.503-1.5107-.2334-2.2431999,0,0-.9365-.3847188-1.3036811-.0171-.3662188.3672-3.5732187,1.5113-6.6806187-1.5966188-3.8056999-3.8080811-1.6446-7.462881.2509-9.3564809,1.8975-1.894,5.6122999-4.0848999,9.4003998-.2964,3.1113999,3.1088809,1.9668,6.3119998,1.5967,6.6806998-.3652.3671811.018619,1.3047.018619,1.3047.734281.7339,1.434481-.5757,2.210881.2002.3682.3696.044.8188.044.8188l-.7588.7471Z" fill="url(#New_Gradient_77)" fill-rule="evenodd"/>
        <path d="M28.3261811,20.207l14.2588189,14.2598185c.3641807.3623-.4258193,1.1528-.7891192.791l-13.6288808-13.6293997c-.3604189-.3628-.2031189-1.7837.1591811-1.4214189Z" fill="#d68100" fill-rule="evenodd"/>
        <line x1="28.2528811" y1="20.3457189" x2="42.5126807" y2="34.606" fill="none" stroke="#fff" stroke-linecap="round" stroke-miterlimit="3.8637" stroke-width=".4623"/>
        <path d="M18.6913813,14.528319s-2.6649999,3.9369999.669,7.2709998c3.9393999,3.9374999,7.1639998.8394,7.3563998,1.0332.1904.1914,13.9286996,13.9306996,13.9286996,13.9306996l.8848-.8862185-16.7499996-16.75s-2.6738999,2.1723189-5.3652812-.5190811c-1.7275186-1.727-.7236187-4.0795999-.7236187-4.0795999Z" fill="url(#linear-gradient-3)"/>
        <path d="M23.9784812,17.532219c.7832-.7817.7451-2.0902999-.083-2.9188999-.832-.8301-2.1386999-.8672-2.9218999-.085-.7812.783681-.7431,2.0903999.083,2.9198999.8311.8287,2.1396999.8667,2.9218999.084ZM31.789081,22.5376188l10.9061997,10.9057997.0283,1.0361-.8203.8213-2.7352808-.0796-.0264192-.8696-.8262-.8262-.7949-.0249-.0459-1.5283-.75-.7505-1.9062-.0557186-.0253809-.8793814-.737319-.7348-1.2998-.0381-.794-.7925-.0283-.9663-.9609-.0274-2.1572999-2.1566999-.8496.8657s-.3535.2261-.7217-.1406c-.7763-.7783.503-1.5107-.2334-2.2431999,0,0-.9365-.3847188-1.3036811-.0171-.3662188.3672-3.5732187,1.5113-6.6806187-1.5966188-3.8056999-3.8080811-1.6446-7.462881.2509-9.3564809,1.8975-1.894,5.6122999-4.0848999,9.4003998-.2964,3.1113999,3.1088809,1.9668,6.3119998,1.5967,6.6806998-.3652.3671811.018619,1.3047.018619,1.3047.734281.7339,1.434481-.5757,2.210881.2002.3682.3696.044.8188.044.8188l-.7588.7471Z" fill="none" fill-rule="evenodd"/>
      </g>
    </g>
    <path d="M19.8095813,12.9321191s.2881-.2798.7959-.6235c3.2772999-2.2143999,6.1035187-1.1475,7.9081998.6597,2.9706999,2.9711999,1.5439,6.0350998,1.4726,6.1800998-.3086.6348-1.1494.4991-.8418-.1333l.0352-.0805c.8174-2.0991999-.4121-4.1318999-1.457-5.1772999-1.5303-1.5317-3.9687999-2.6293999-6.8046811-.7109-.375.2544-.5928187.4565-.5928187.4565-.54.5132-1.0566-.0586-.5156-.5708Z" fill="url(#New_Gradient_76)"/>
    <path d="M24.6776812,15.066419s.0547.0669.126.1851c.6582,1.1206-.0166,2.145481-.5615,2.6879999-.5176.5204811-1.8535,1.3569-2.9921812.4414-.4258187-.3599189-.7588187.1167-.334.477,0,0,.1347813.1162.377.2534,1.4872812.8428,2.7645812.1992,3.541-.5796.6991812-.6967189,1.5800811-2.4159999.3026812-3.8202999-.3701-.4165-.8281-.0625-.459.355Z" fill="url(#New_Gradient_75)"/>
  </g>
  <g mask="url(#mask-2)">
    <g>
      <g mask="url(#mask-3)">
        <g>
          <path d="M16.0116814,24.1221188c-.0332.082-2.3241999-.0982-2.9032999-.2408-4.2997999-1.0605-7.0546998-5.4095999-6.0165998-9.7723998,1.0371-4.3642999,5.4999999-7.0346998,9.7743998-6.0180998,4.2733999,1.0176,7.0458998,5.3959999,6.0165998,9.7738998-.0713.2999-.1025.4605-.1465.504-.1875.1752-2.0526999-.1348-2.1571999-.5269-.0342-.1172.0859187-.2393.1455-.4893.5654187-2.3719999-1.0107-5.5555999-4.5419999-6.395519-3.5302999-.8417809-6.3680998,1.2925191-6.9325814,3.665119-.5664184,2.3690999,1.0106816,5.5546999,4.542,6.3939998.4735815.1148.9550814.1728811,1.1337814.1773l1.0859,2.9286999Z" fill="url(#New_Gradient_72)"/>
          <path d="M9.6933816,18.7432189s.0634.145.2187.3681c1.2432,1.7871,3.6864999,2.4389999,5.5185999,2.6000999.4091.0365811.2881.8433-.1231.8072-1.6885-.148-5.2518999-1.0904-6.1757998-3.3237999-.1836-.4458189.376-.8994.5616-.4516Z" fill="url(#New_Gradient_74)"/>
          <path d="M20.0390813,11.7632191s.1816.1733.4287.4912c1.1845,1.5278,1.8799,3.7362999.959,6.1322998-.1934.5064-.7481.2285-.5547-.2778.8388-2.1889999-.0039-4.4794999-1.2470813-5.6737999-.3154187-.3008.1015813-.9722.4140813-.6719Z" fill="url(#New_Gradient_73)"/>
        </g>
      </g>
      <path d="M7.8173816,18.853s-.0977-.2225811-.2119-.6073811c-.584-1.9818999-.4873-4.3432999.7129-6.2538998,2.7294999-4.3495999,8.7528998-4.7191999,12.4901997-1.1841.3086.294-.0977.9722-.4092.6768-3.4325999-3.2529999-9.0634998-3.0614999-11.6044997.9492-1.0878816,1.7217-1.165,4.2558999-.4208816,5.9559998.1943816.4415-.3623184.9053-.5566184.4633811Z" fill="url(#New_Gradient_71)"/>
    </g>
  </g>
</svg>