<?xml version='1.0' encoding='UTF-8'?>
<svg xmlns="http://www.w3.org/2000/svg" xmlns:xlink="http://www.w3.org/1999/xlink" id="Layer_1" data-name="Layer 1" width="96" height="96" viewBox="0 0 96 96">
  <defs>
    <linearGradient id="New_Gradient_343" data-name="New Gradient 343" x1="27.3120032" y1="32.5979156" x2="65.4823595" y2="74.9903909" gradientUnits="userSpaceOnUse">
      <stop offset="0" stop-color="#b2b2b2"/>
      <stop offset="1" stop-color="#f2f2f2"/>
    </linearGradient>
    <linearGradient id="New_Gradient_343-2" data-name="New Gradient 343" x1="30.7663458" y1="38.5144042" x2="65.8145293" y2="77.4393555" gradientUnits="userSpaceOnUse"><stop offset="0" stop-color="#b2b2b2"/><stop offset="1" stop-color="#f2f2f2"/></linearGradient>
    <linearGradient id="New_Gradient_344" data-name="New Gradient 344" x1="27.6806945" y1="53.71265" x2="68.9042934" y2="53.71265" gradientUnits="userSpaceOnUse">
      <stop offset="0" stop-color="#999"/>
      <stop offset=".20224" stop-color="#f2f2f2"/>
      <stop offset=".516861" stop-color="#b2b2b2"/>
      <stop offset=".769669" stop-color="#b2b2b2"/>
      <stop offset="1" stop-color="#737373"/>
    </linearGradient>
    <linearGradient id="New_Gradient_345" data-name="New Gradient 345" x1="36.2250329" y1="26.7932901" x2="60.3578734" y2="50.9261307" gradientUnits="userSpaceOnUse">
      <stop offset="0" stop-color="#ccc"/>
      <stop offset="1" stop-color="#fff"/>
    </linearGradient>
  </defs>
  <path d="M27.6806945,42.7417v-3.8809c0-6.9306,9.2284998-12.5493,20.6097995-12.5493,11.3847997,0,20.6137995,5.6187,20.6137995,12.5493v3.8809c7.2133998,3.6182,11.8060997,9.104,11.8060997,15.2354,0,10.9003-14.5135996,19.7368-32.4198992,19.7368-17.9076995,0-32.4198992-8.8365-32.4198992-19.7378,0-6.1304,4.6005999-11.6162,11.8100997-15.2344Z" fill="url(#New_Gradient_343)" stroke="#000" stroke-linecap="round" stroke-linejoin="round" stroke-width="4"/>
  <path d="M48.2904939,38.2393c17.9081995,0,32.4198992,8.8383,32.4198992,19.7378,0,10.9003-14.5135996,19.7368-32.4198992,19.7368-17.9076995,0-32.4198992-8.8365-32.4198992-19.7378,0-10.8985,14.5121996-19.7368,32.4198992-19.7368Z" fill="url(#New_Gradient_343-2)"/>
  <g>
    <line x1="19.4906947" y1="56.9199" x2="76.6317932" y2="56.9185" fill="none" stroke="#333" stroke-linecap="round" stroke-miterlimit="3.8637" stroke-width="1.5"/>
    <line x1="22.0912946" y1="64.416" x2="73.2841933" y2="49.499" fill="none" stroke="#333" stroke-linecap="round" stroke-miterlimit="3.8637" stroke-width="1.5"/>
    <line x1="29.8705944" y1="70.8325" x2="62.5395936" y2="45.4814" fill="none" stroke="#333" stroke-linecap="round" stroke-miterlimit="3.8637" stroke-width="1.5"/>
    <line x1="22.5775946" y1="49.6025" x2="74.2372933" y2="64.4702" fill="none" stroke="#333" stroke-linecap="round" stroke-miterlimit="3.8637" stroke-width="1.5"/>
    <line x1="65.8891935" y1="70.7275" x2="33.2162943" y2="45.3804" fill="none" stroke="#333" stroke-linecap="round" stroke-miterlimit="3.8637" stroke-width="1.5"/>
  </g>
  <path d="M48.2904939,43.5234c11.3827997,0,20.6117995,5.6172,20.6117995,12.5469,0,6.9268-9.2289998,12.5493-20.6117995,12.5493-11.3822997,0-20.6097995-5.6225-20.6097995-12.5493,0-6.9297,9.2274998-12.5469,20.6097995-12.5469Z" fill="none" stroke="#666" stroke-miterlimit="3.8637" stroke-width="4"/>
  <path d="M27.6806945,56.0181v-17.1573h41.223599s-.002,10.2295-.002,17.1573c0,6.9316-9.2289998,12.5464-20.6117995,12.5464-11.3822997,0-20.6097995-5.6148-20.6097995-12.5464Z" fill="url(#New_Gradient_344)" fill-rule="evenodd"/>
  <path d="M48.2904939,26.3115c11.3847997,0,20.6117995,5.6187,20.6117995,12.5493,0,6.9283-9.2289998,12.5455-20.6117995,12.5455-11.3822997,0-20.6097995-5.6172-20.6097995-12.5455,0-6.9306,9.2284998-12.5493,20.6097995-12.5493Z" fill="url(#New_Gradient_345)"/>
  <path d="M48.2904939,26.562c11.1586997,0,20.2060995,5.5044,20.2060995,12.2988,0,6.792-9.0473998,12.2955-20.2060995,12.2955-11.1542997,0-20.1981995-5.5035-20.1981995-12.2955,0-6.7944,9.0458998-12.2988,20.1981995-12.2988Z" fill="none" stroke="#ccc" stroke-miterlimit="3.8637" stroke-width=".7351"/>
  <polygon points="37.4711942 45.959 37.6352942 40.3647 46.231394 43.5381 37.4711942 45.959" fill="#328e36" fill-rule="evenodd" stroke="#328e36" stroke-linecap="round" stroke-linejoin="round" stroke-width="1.2149"/>
</svg>