<?xml version='1.0' encoding='UTF-8'?>
<svg xmlns="http://www.w3.org/2000/svg" xmlns:xlink="http://www.w3.org/1999/xlink" id="Layer_1" data-name="Layer 1" width="96" height="96" viewBox="0 0 96 96">
  <defs>
    <linearGradient id="New_Gradient_182" data-name="New Gradient 182" x1="65.003453" y1="25.0475572" x2="65.003453" y2="70.9600248" gradientTransform="translate(-24.4369178 -10.6232167) scale(.9174)" gradientUnits="userSpaceOnUse">
      <stop offset="0" stop-color="#ccc"/>
      <stop offset="1" stop-color="#fff"/>
    </linearGradient>
    <mask id="mask" x="13.7484283" y="11.945564" width="42.6519717" height="44.046636" maskUnits="userSpaceOnUse">
      <path d="M26.8184,33.6426c-.0645,3.623,3.2158,6.2695,6.9619,5.2715,3.9873-1.0664,6.8867-4.8409,6.9677-8.7427.0596-3.6094-3.2187-6.2686-6.9677-5.2647-3.9883,1.0723-6.8916,4.8389-6.9619,8.7359ZM52.4932,41.9092s-10.0762,1.2607-11.5313.1636c-1.1797,1.0146-2.4785,1.8872-3.8574,2.5649-.0059,2.0776,0,3.1143-.0059,5.1807-1.0781.4614-3.3213,4.6425-3.3213,4.6425l-3.3232-2.9878v-5.1743c-1.3809.0044-.96,1.3789-2.1445.9634-1.4522,1.8228-.708,4.1231-2.1651,5.9424-1.8222-.8242-6.8945-4.7925-8.1924-6.3394,1.4776-1.8589,2.4893-2.9448,3.9434-4.7675-.7168-1.0069-3.8555.9243-3.8555.9243h0c-.0908-.5064-3.2412-3.0347-3.2412-3.0347-.1806-1.1997-.3008-2.0068-.3008-3.3286,0-1.1553.1045-2.3228.2969-3.4736,2.0967-.524,3.4414-.7481,5.503-1.2603.3085-1.3291.7763-2.6226,1.3955-3.8672.0693-.1362-.2432-.1841-.2432-.1841l-3.501-3.1386c1.3008-2.1934,3.1768-3.9966,5.0098-5.7432,1.4482,1.1001,2.1787,1.6504,3.6348,2.7593,1.1845-1.0147,2.4775-1.8863,3.8603-2.5713,0-2.0791.002-3.1065.002-5.1787,1.083-.4634,2.1845-.8418,3.3212-1.126,1.1348-.2783,2.2403-.4561,3.3213-.5288l3.1973,2.9717s-1.9824,2.2446-1.3975,2.3349c.7159.1079,1.4053.2749,2.0616.5127,1.458-1.8369,2.1816-2.7387,3.6425-4.5654,1.8262.8276,6.6104,5.0117,7.8907,6.5327-1.4561,1.8237-5.4668,2.8589-5.4668,2.8589l.2256,2.2095c2.0673-.5108,5.1533-1.2827,5.1533-1.2827,0,0,3.1992,1.8408,3.1992,2.9853,0,0-3.0029,2.5669-3.1992,3.7036-2.0596.5098-3.0889.7749-5.1533,1.2852-.334,1.4697-.8721,2.9165-1.587,4.2778,1.4532,1.103,3.6436,2.7525,3.6436,2.7525l3.1846,2.9863Z" fill="#fff"/>
    </mask>
    <linearGradient id="linear-gradient" x1="32.2369985" y1="32.2652119" x2="24.8588522" y2="29.5902662" gradientUnits="userSpaceOnUse">
      <stop offset="0" stop-color="#b0b0b0"/>
      <stop offset=".2299108" stop-color="#b3b3b3"/>
      <stop offset=".4528815" stop-color="#bfbfbf"/>
      <stop offset=".6731111" stop-color="#d3d3d3"/>
      <stop offset=".8903092" stop-color="#eee"/>
      <stop offset="1" stop-color="#fff"/>
    </linearGradient>
    <radialGradient id="radial-gradient" cx="18.4022248" cy="232.6421856" fx="18.4022248" fy="232.6421856" r="6.220278" gradientTransform="translate(11.1522 -167.9884108) rotate(-.7665879) scale(.994089 .9410144) skewX(-.7314274)" gradientUnits="userSpaceOnUse">
      <stop offset="0" stop-color="#999"/>
      <stop offset=".1611587" stop-color="#787878"/>
      <stop offset=".344564" stop-color="#5a5a5a"/>
      <stop offset=".5248598" stop-color="#444"/>
      <stop offset=".6988677" stop-color="#373737"/>
      <stop offset=".85955" stop-color="#333"/>
    </radialGradient>
    <radialGradient id="radial-gradient-2" cx="-48.5023066" cy="207.5787977" fx="-48.5023066" fy="207.5787977" r="11.4037844" gradientTransform="translate(70.5845 -167.3493) rotate(-.7611116) scale(1.0689943 1.0121107) skewX(-.7206155)" gradientUnits="userSpaceOnUse">
      <stop offset=".005618" stop-color="#e6e6e6"/>
      <stop offset=".1767612" stop-color="#e1e1e1"/>
      <stop offset=".3536605" stop-color="#d5d5d5"/>
      <stop offset=".5331686" stop-color="silver"/>
      <stop offset=".7145471" stop-color="#a3a3a3"/>
      <stop offset=".8956025" stop-color="#7e7e7e"/>
      <stop offset="1" stop-color="#666"/>
    </radialGradient>
    <radialGradient id="radial-gradient-3" cx="-45.5137701" cy="182.5507072" fx="-45.5137701" fy="182.5507072" r="8.2606552" gradientTransform="translate(70.5845 -167.3493) rotate(-.7611116) scale(1.0689943 1.0121107) skewX(-.7206155)" gradientUnits="userSpaceOnUse"><stop offset=".005618" stop-color="#e6e6e6"/><stop offset=".1767612" stop-color="#e1e1e1"/><stop offset=".3536605" stop-color="#d5d5d5"/><stop offset=".5331686" stop-color="silver"/><stop offset=".7145471" stop-color="#a3a3a3"/><stop offset=".8956025" stop-color="#7e7e7e"/><stop offset="1" stop-color="#666"/></radialGradient>
    <radialGradient id="radial-gradient-4" cx="-28.0564475" cy="178.6975739" fx="-28.0564475" fy="178.6975739" r="5.8829688" gradientTransform="translate(63.798 -166.0437) rotate(-.7682568) scale(1.0515945 .9955092) skewX(-.7327355)" gradientUnits="userSpaceOnUse">
      <stop offset="0" stop-color="#e6e6e6"/>
      <stop offset="1" stop-color="#666"/>
    </radialGradient>
    <radialGradient id="radial-gradient-5" cx="-39.628571" cy="195.0341263" fx="-39.628571" fy="195.0341263" r="5.3624779" gradientTransform="translate(63.798 -166.0437) rotate(-.7682568) scale(1.0515945 .9955092) skewX(-.7327355)" gradientUnits="userSpaceOnUse">
      <stop offset="0" stop-color="#ccc"/>
      <stop offset="1" stop-color="#595959"/>
    </radialGradient>
    <radialGradient id="radial-gradient-6" cx="-46.669117" cy="206.7513641" fx="-46.669117" fy="206.7513641" r="6.5253249" gradientTransform="translate(70.5845 -167.3493) rotate(-.7611116) scale(1.0689943 1.0121107) skewX(-.7206155)" gradientUnits="userSpaceOnUse">
      <stop offset=".05618" stop-color="#333"/>
      <stop offset=".0916583" stop-color="#383838"/>
      <stop offset=".3724498" stop-color="#626262"/>
      <stop offset=".6271812" stop-color="gray"/>
      <stop offset=".8448738" stop-color="#929292"/>
      <stop offset="1" stop-color="#999"/>
    </radialGradient>
    <radialGradient id="radial-gradient-7" cx="-20.5207627" cy="184.0825459" fx="-20.5207627" fy="184.0825459" r="8.1526042" gradientTransform="translate(63.798 -166.0437) rotate(-.7682568) scale(1.0515945 .9955092) skewX(-.7327355)" gradientUnits="userSpaceOnUse">
      <stop offset="0" stop-color="#e6e6e6"/>
      <stop offset=".1949535" stop-color="#bfbfbf"/>
      <stop offset=".4722457" stop-color="#8f8f8f"/>
      <stop offset=".6839972" stop-color="#717171"/>
      <stop offset=".803371" stop-color="#666"/>
    </radialGradient>
    <radialGradient id="radial-gradient-8" cx="15.5622122" cy="201.4085289" fx="15.5622122" fy="201.4085289" r="5.9520402" gradientTransform="translate(11.1522 -167.9884108) rotate(-.7665879) scale(.994089 .9410144) skewX(-.7314274)" gradientUnits="userSpaceOnUse">
      <stop offset="0" stop-color="#ccc"/>
      <stop offset="1" stop-color="#999"/>
    </radialGradient>
    <radialGradient id="radial-gradient-9" cx="9.2271091" cy="211.2572924" fx="9.2271091" fy="211.2572924" r="4.9300153" gradientTransform="translate(11.1522 -167.9884108) rotate(-.7665879) scale(.994089 .9410144) skewX(-.7314274)" gradientUnits="userSpaceOnUse">
      <stop offset="0" stop-color="#b0b0b0"/>
      <stop offset=".3271716" stop-color="#858585"/>
      <stop offset=".898876" stop-color="#333"/>
    </radialGradient>
    <linearGradient id="linear-gradient-2" x1="-30.3797004" y1="53.9145178" x2="-43.5351564" y2="51.2210518" gradientTransform="translate(59.4026 -20.6539) rotate(-.8384405) scale(1.0934171 1.0290898) skewX(-.7891203)" gradientUnits="userSpaceOnUse">
      <stop offset="0" stop-color="#666"/>
      <stop offset=".1243792" stop-color="#787878"/>
      <stop offset=".3746937" stop-color="#a7a7a7"/>
      <stop offset=".696629" stop-color="#ededed"/>
    </linearGradient>
    <radialGradient id="radial-gradient-10" cx="-21.4726433" cy="195.8232264" fx="-21.4726433" fy="195.8232264" r="13.8033127" gradientTransform="translate(63.798 -166.0437) rotate(-.7682568) scale(1.0515945 .9955092) skewX(-.7327355)" gradientUnits="userSpaceOnUse">
      <stop offset="0" stop-color="#b0b0b0"/>
      <stop offset=".325836" stop-color="#b0b0b0"/>
      <stop offset=".853928" stop-color="#7b7b7b"/>
      <stop offset="1" stop-color="#606060"/>
    </radialGradient>
    <radialGradient id="radial-gradient-11" cx="171.060877" cy="115.4122747" fx="171.060877" fy="115.4122747" r="46.137626" gradientTransform="translate(-81.1038 -35.6942) scale(.7333)" gradientUnits="userSpaceOnUse">
      <stop offset=".297753" stop-color="#f2f2f2"/>
      <stop offset=".4221096" stop-color="#ededed"/>
      <stop offset=".5558546" stop-color="#e0e0e0"/>
      <stop offset=".6939879" stop-color="#cbcbcb"/>
      <stop offset=".8351285" stop-color="#adadad"/>
      <stop offset=".9773448" stop-color="#868686"/>
      <stop offset="1" stop-color="gray"/>
    </radialGradient>
    <linearGradient id="New_Gradient_182-2" data-name="New Gradient 182" x1="-3.3347747" y1="241.310327" x2="-3.3347747" y2="290.6659104" gradientTransform="translate(58.397 -252.9489) rotate(-14.0000947) scale(1.191699 1.1219525) skewX(-13.2102833)" gradientUnits="userSpaceOnUse"><stop offset="0" stop-color="#ccc"/><stop offset="1" stop-color="#fff"/></linearGradient>
    <mask id="mask-1" x="25.2914988" y="26.2541726" width="58.1655012" height="60.0739274" maskUnits="userSpaceOnUse">
      <path d="M43.1133,55.8442c-.085,4.9424,4.3887,8.5523,9.4961,7.191,5.4414-1.4532,9.3896-6.6026,9.5039-11.9224.081-4.9233-4.3897-8.5498-9.5039-7.1826-5.4385,1.4638-9.3975,6.6011-9.4961,11.914ZM78.1299,67.123s-13.7412,1.7188-15.7246.2208c-1.6114,1.3847-3.3809,2.5732-5.2608,3.4975-.0088,2.8345,0,4.2495-.0088,7.0669-1.4716.6304-4.5263,6.3311-4.5263,6.3311l-4.5352-4.0752v-7.0572c-1.8838.0059-1.3076,1.8819-2.9238,1.314-1.9805,2.4868-.9649,5.6226-2.9522,8.1045-2.4843-1.1255-9.4033-6.5361-11.1738-8.647,2.0176-2.5346,3.3955-4.0141,5.3789-6.5005-.9775-1.3735-5.2597,1.2588-5.2597,1.2588h0c-.1211-.6904-4.4209-4.1387-4.4209-4.1387-.2452-1.6372-.4092-2.7377-.4102-4.5385,0-1.5767.1436-3.1695.4072-4.7388,2.8555-.7139,4.6924-1.0195,7.5059-1.7187.417-1.8121,1.0557-3.5767,1.8994-5.2745.0957-.185-.3311-.25-.3311-.25l-4.7714-4.2817c1.7724-2.9917,4.33-5.4507,6.8291-7.832,1.9765,1.5009,2.9726,2.25,4.958,3.7632,1.6152-1.3838,3.3799-2.5723,5.2646-3.5074v-7.0644c1.4776-.6294,2.9834-1.145,4.5322-1.5332,1.545-.3804,3.0547-.6211,4.5293-.7202l4.3614,4.0522s-2.7051,3.061-1.9082,3.1851c.9775.1464,1.9179.3745,2.8125.7002,1.9873-2.5069,2.9736-3.7364,4.9687-6.2271,2.4883,1.1284,9.0147,6.8359,10.7598,8.9092-1.9844,2.4883-7.4551,3.8989-7.4551,3.8989l.3076,3.0142c2.8164-.6968,7.0264-1.7495,7.0264-1.7495,0,0,4.3642,2.5112,4.3642,4.0727,0,0-4.0947,3.501-4.3642,5.0503-2.8057.6943-4.21,1.0581-7.0264,1.7529-.457,2.0044-1.1894,3.9771-2.164,5.833,1.9795,1.5059,4.9687,3.7559,4.9687,3.7559l4.3428,4.0732Z" fill="#fff"/>
    </mask>
    <linearGradient id="linear-gradient-3" x1="50.5061497" y1="53.9678117" x2="40.4440425" y2="50.3197965" gradientUnits="userSpaceOnUse"><stop offset="0" stop-color="#b0b0b0"/><stop offset=".2299108" stop-color="#b3b3b3"/><stop offset=".4528815" stop-color="#bfbfbf"/><stop offset=".6731111" stop-color="#d3d3d3"/><stop offset=".8903092" stop-color="#eee"/><stop offset="1" stop-color="#fff"/></linearGradient>
    <radialGradient id="radial-gradient-12" cx="-58.9507579" cy="200.8882627" fx="-58.9507579" fy="200.8882627" r="6.2216255" gradientTransform="translate(126.5714 -179.7824) rotate(-.7607993) scale(1.3556195 1.2833869) skewX(-.7202653)" gradientUnits="userSpaceOnUse"><stop offset="0" stop-color="#999"/><stop offset=".1611587" stop-color="#787878"/><stop offset=".344564" stop-color="#5a5a5a"/><stop offset=".5248598" stop-color="#444"/><stop offset=".6988677" stop-color="#373737"/><stop offset=".85955" stop-color="#333"/></radialGradient>
    <radialGradient id="radial-gradient-13" cx="-119.9684003" cy="177.7638985" fx="-119.9684003" fy="177.7638985" r="11.4029527" gradientTransform="translate(206.9766 -178.485) rotate(-.754624) scale(1.4578264 1.3803803) skewX(-.7145393)" gradientUnits="userSpaceOnUse"><stop offset=".005618" stop-color="#e6e6e6"/><stop offset=".1767612" stop-color="#e1e1e1"/><stop offset=".3536605" stop-color="#d5d5d5"/><stop offset=".5331686" stop-color="silver"/><stop offset=".7145471" stop-color="#a3a3a3"/><stop offset=".8956025" stop-color="#7e7e7e"/><stop offset="1" stop-color="#666"/></radialGradient>
    <radialGradient id="radial-gradient-14" cx="-116.9792276" cy="152.7360293" fx="-116.9792276" fy="152.7360293" r="8.2604801" gradientTransform="translate(206.9766 -178.485) rotate(-.754624) scale(1.4578264 1.3803803) skewX(-.7145393)" gradientUnits="userSpaceOnUse"><stop offset=".005618" stop-color="#e6e6e6"/><stop offset=".1767612" stop-color="#e1e1e1"/><stop offset=".3536605" stop-color="#d5d5d5"/><stop offset=".5331686" stop-color="silver"/><stop offset=".7145471" stop-color="#a3a3a3"/><stop offset=".8956025" stop-color="#7e7e7e"/><stop offset="1" stop-color="#666"/></radialGradient>
    <radialGradient id="radial-gradient-15" cx="-101.1001713" cy="148.956072" fx="-101.1001713" fy="148.956072" r="5.8827834" gradientTransform="translate(198.2806 -177.4963) rotate(-.7630995) scale(1.4341272 1.3576782) skewX(-.7264203)" gradientUnits="userSpaceOnUse"><stop offset="0" stop-color="#e6e6e6"/><stop offset="1" stop-color="#666"/></radialGradient>
    <radialGradient id="radial-gradient-16" cx="-112.6704415" cy="165.294488" fx="-112.6704415" fy="165.294488" r="5.3625568" gradientTransform="translate(198.2806 -177.4963) rotate(-.7630995) scale(1.4341272 1.3576782) skewX(-.7264203)" gradientUnits="userSpaceOnUse"><stop offset="0" stop-color="#ccc"/><stop offset="1" stop-color="#595959"/></radialGradient>
    <radialGradient id="radial-gradient-17" cx="-118.1347972" cy="176.9373096" fx="-118.1347972" fy="176.9373096" r="6.5244738" gradientTransform="translate(206.9766 -178.485) rotate(-.754624) scale(1.4578264 1.3803803) skewX(-.7145393)" gradientUnits="userSpaceOnUse"><stop offset=".05618" stop-color="#333"/><stop offset=".0916583" stop-color="#383838"/><stop offset=".3724498" stop-color="#626262"/><stop offset=".6271812" stop-color="gray"/><stop offset=".8448738" stop-color="#929292"/><stop offset="1" stop-color="#999"/></radialGradient>
    <radialGradient id="radial-gradient-18" cx="-93.5628809" cy="154.3410645" fx="-93.5628809" fy="154.3410645" r="8.1514803" gradientTransform="translate(198.2806 -177.4963) rotate(-.7630995) scale(1.4341272 1.3576782) skewX(-.7264203)" gradientUnits="userSpaceOnUse"><stop offset="0" stop-color="#e6e6e6"/><stop offset=".1949535" stop-color="#bfbfbf"/><stop offset=".4722457" stop-color="#8f8f8f"/><stop offset=".6839972" stop-color="#717171"/><stop offset=".803371" stop-color="#666"/></radialGradient>
    <radialGradient id="radial-gradient-19" cx="-61.7869273" cy="169.6537943" fx="-61.7869273" fy="169.6537943" r="5.9513665" gradientTransform="translate(126.5714 -179.7824) rotate(-.7607993) scale(1.3556195 1.2833869) skewX(-.7202653)" gradientUnits="userSpaceOnUse"><stop offset="0" stop-color="#ccc"/><stop offset="1" stop-color="#999"/></radialGradient>
    <radialGradient id="radial-gradient-20" cx="-68.1226594" cy="179.5032667" fx="-68.1226594" fy="179.5032667" r="4.9307067" gradientTransform="translate(126.5714 -179.7824) rotate(-.7607993) scale(1.3556195 1.2833869) skewX(-.7202653)" gradientUnits="userSpaceOnUse"><stop offset="0" stop-color="#b0b0b0"/><stop offset=".3271716" stop-color="#858585"/><stop offset=".898876" stop-color="#333"/></radialGradient>
    <linearGradient id="linear-gradient-4" x1="-40.9588372" y1="62.146413" x2="-57.4189442" y2="58.7763483" gradientTransform="translate(91.0687 -12.3005) rotate(-.8365157) scale(1.191827 1.1217804) skewX(-.787358)" gradientUnits="userSpaceOnUse"><stop offset="0" stop-color="#666"/><stop offset=".1243792" stop-color="#787878"/><stop offset=".3746937" stop-color="#a7a7a7"/><stop offset=".696629" stop-color="#ededed"/></linearGradient>
    <radialGradient id="radial-gradient-21" cx="-94.5151018" cy="166.0826124" fx="-94.5151018" fy="166.0826124" r="13.8038292" gradientTransform="translate(198.2806 -177.4963) rotate(-.7630995) scale(1.4341272 1.3576782) skewX(-.7264203)" gradientUnits="userSpaceOnUse"><stop offset="0" stop-color="#b0b0b0"/><stop offset=".325836" stop-color="#b0b0b0"/><stop offset=".853928" stop-color="#7b7b7b"/><stop offset="1" stop-color="#606060"/></radialGradient>
    <radialGradient id="radial-gradient-22" cx="19.6470948" cy="100.2052314" fx="19.6470948" fy="100.2052314" r="41.0581828" gradientTransform="translate(44.926 -35.91) scale(1.1237)" gradientUnits="userSpaceOnUse"><stop offset=".297753" stop-color="#f2f2f2"/><stop offset=".4221096" stop-color="#ededed"/><stop offset=".5558546" stop-color="#e0e0e0"/><stop offset=".6939879" stop-color="#cbcbcb"/><stop offset=".8351285" stop-color="#adadad"/><stop offset=".9773448" stop-color="#868686"/><stop offset="1" stop-color="gray"/></radialGradient>
  </defs>
  <g opacity=".75">
    <path d="M55.6045,33.5889c.1865-1.1324.292-2.2744.292-3.4175,0-1.1392-.1055-2.2349-.292-3.2676,0-1.1445-3.1992-2.9853-3.1992-2.9853,0,0-1.752.4394-3.4883.8735-.0254-.0288-.042-.0591-.0615-.0899,1.4599-1.832,2.1816-2.7456,3.6377-4.5693-.2012-.2358-.4795-.5342-.8194-.8652-.0967-.1055-.2041-.2071-.3086-.3042-1.9287-1.8828-5.2988-4.6983-6.7627-5.3633-1.4609,1.8267-2.1845,2.7285-3.6425,4.5654-.2129-.0815-.4414-.1401-.6641-.2016v-2.646l-3.1973-2.9717c-1.081.0727-2.1865.2505-3.3213.5288-1.1367.2842-2.2382.6626-3.3212,1.126,0,2.0722-.002,3.0996-.002,5.1787-1.3828.685-2.6758,1.5566-3.8603,2.5713-1.4561-1.1089-2.1866-1.6592-3.6348-2.7593-1.833,1.7466-3.709,3.5498-5.0098,5.7432l3.501,3.1386c.0811.0664.1523.1216.2432.1841h0c-.6192,1.2446-1.087,2.5381-1.3955,3.8672-2.0616.5122-3.4063.7363-5.503,1.2603-.1924,1.1508-.2969,2.3183-.2969,3.4736,0,1.3218.1202,2.1289.3008,3.3286,0,0,3.1504,2.5283,3.2412,3.0347,1.4502-.3662,2.6592-.7232,3.7774-1.0108.0254.0298.0508.0518.0781.0865-1.4541,1.8227-2.4658,2.9086-3.9434,4.7675.629.7466,2.3565,1.8853,3.878,3.1861,1.1113,1.2163,2.4248,2.2007,3.9072,2.9433.1543.0791.291.1577.4072.21,1.4571-1.8193,2.1934-2.7407,3.6455-4.5684.2168.0796.4454.1421.6641.2036v2.6333l3.1914,2.8692v.1186c.043.0049.0801-.0063.1221-.018l.0097.018s.004-.0156.004-.02c1.0351-.0762,2.1005-.2456,3.1904-.518,1.1357-.2828,2.2451-.6607,3.3242-1.1241v-5.1777c1.3809-.6797,2.6797-1.5518,3.8535-2.5679,1.4649,1.0957,2.1856,1.6504,3.6475,2.7534,1.8271-1.7392,3.416-3.7426,4.6963-5.8974l-3.1846-2.9863s-.1006-.0655-.2529-.1915c.6132-1.2387,1.0976-2.5351,1.3974-3.8535,2.0596-.5107,3.085-.7729,5.1514-1.289ZM30.0107,36.6279c.0772-3.8974,2.9678-7.6714,6.9629-8.7436,1.1973-.3198,2.3428-.2564,3.3457.0766.2862.6753.4356,1.4204.4287,2.2105-.081,3.9018-2.9804,7.6763-6.9677,8.7427-1.1934.3193-2.3448.2651-3.3565-.0743-.2724-.6694-.4248-1.4165-.4131-2.2119Z" fill="url(#New_Gradient_182)" fill-rule="evenodd" stroke="#000" stroke-linecap="round" stroke-linejoin="round" stroke-width="4"/>
    <g mask="url(#mask)">
      <g>
        <path d="M26.8184,33.6426c-.0645,3.623,3.2158,6.2695,6.9619,5.2715,3.9873-1.0664,6.8867-4.8409,6.9677-8.7427.0596-3.6094-3.2187-6.2686-6.9677-5.2647-3.9883,1.0723-6.8916,4.8389-6.9619,8.7359ZM52.4932,41.9092s-10.0762,1.2607-11.5313.1636c-1.1797,1.0146-2.4785,1.8872-3.8574,2.5649-.0059,2.0776,0,3.1143-.0059,5.1807-1.0781.4614-3.3213,4.6425-3.3213,4.6425l-3.3232-2.9878v-5.1743c-1.3809.0044-.96,1.3789-2.1445.9634-1.4522,1.8228-.708,4.1231-2.1651,5.9424-1.8222-.8242-6.8945-4.7925-8.1924-6.3394,1.4776-1.8589,2.4893-2.9448,3.9434-4.7675-.7168-1.0069-3.8555.9243-3.8555.9243h0c-.0908-.5064-3.2412-3.0347-3.2412-3.0347-.1806-1.1997-.3008-2.0068-.3008-3.3286,0-1.1553.1045-2.3228.2969-3.4736,2.0967-.524,3.4414-.7481,5.503-1.2603.3085-1.3291.7763-2.6226,1.3955-3.8672.0693-.1362-.2432-.1841-.2432-.1841l-3.501-3.1386c1.3008-2.1934,3.1768-3.9966,5.0098-5.7432,1.4482,1.1001,2.1787,1.6504,3.6348,2.7593,1.1845-1.0147,2.4775-1.8863,3.8603-2.5713,0-2.0791.002-3.1065.002-5.1787,1.083-.4634,2.1845-.8418,3.3212-1.126,1.1348-.2783,2.2403-.4561,3.3213-.5288l3.1973,2.9717s-1.9824,2.2446-1.3975,2.3349c.7159.1079,1.4053.2749,2.0616.5127,1.458-1.8369,2.1816-2.7387,3.6425-4.5654,1.8262.8276,6.6104,5.0117,7.8907,6.5327-1.4561,1.8237-5.4668,2.8589-5.4668,2.8589l.2256,2.2095c2.0673-.5108,5.1533-1.2827,5.1533-1.2827,0,0,3.1992,1.8408,3.1992,2.9853,0,0-3.0029,2.5669-3.1992,3.7036-2.0596.5098-3.0889.7749-5.1533,1.2852-.334,1.4697-.8721,2.9165-1.587,4.2778,1.4532,1.103,3.6436,2.7525,3.6436,2.7525l3.1846,2.9863Z" fill="url(#linear-gradient)"/>
        <polygon points="29.4141 55.9922 35.5332 55.9053 35.5342 47.126 29.415 47.2061 29.4141 55.9922" fill="url(#radial-gradient)" fill-rule="evenodd"/>
        <path d="M14.7949,33.1851c1.3926.7558,3.2451,3.0317,3.2451,3.0317v6.8052s-2.2168-.6084-3.4043-2.8819c-1.1855-2.2695-1.2324-7.7089.1592-6.955Z" fill="url(#radial-gradient-2)" fill-rule="evenodd"/>
        <polygon points="17.9492 24.7349 22.959 18.9917 26.1484 21.9775 21.4502 27.8735 17.9492 24.7349" fill="url(#radial-gradient-3)" fill-rule="evenodd"/>
        <path d="M30.4561,13.999c.4785-2.3052,5.8925-2.3633,6.6445-1.6543.7539.6944,3.2021,2.9693,3.2021,2.9693l-6.6572,1.6621-3.1894-2.9771Z" fill="url(#radial-gradient-4)" fill-rule="evenodd"/>
        <path d="M20.2979,31.9248c.4472.3613,2.2011,1.7598,3.25,2.7363,1.0546.9815,1.541-4.0273,1.541-4.0273l-3.6387-2.335s-1.6035,3.2735-1.1523,3.626Z" fill="url(#radial-gradient-5)" fill-rule="evenodd"/>
        <path d="M25.0918,45.0762l-3.1963-2.9785s-3.5107,4.3662-3.9434,4.7675c-.4267.4126,2.7745,3.6924,3.4981,2.7852.7236-.9107,3.6416-4.5742,3.6416-4.5742Z" fill="url(#radial-gradient-6)" fill-rule="evenodd"/>
        <polygon points="40.9619 18.1636 44.1533 21.147 47.8018 16.5723 44.6055 13.5972 40.9619 18.1636" fill="url(#radial-gradient-7)" fill-rule="evenodd"/>
        <polygon points="50.041 28.6865 56.4004 27.0957 52.458 23.4185 48.0664 24.3848 50.041 28.6865" fill="#666"/>
        <path d="M30.4561,19.1782c.9287.8706,3.1933,2.9815,3.1933,2.9815l-3.8574,2.5708-3.1982-2.981s2.9316-3.4424,3.8623-2.5713Z" fill="url(#radial-gradient-8)" fill-rule="evenodd"/>
        <path d="M20.2979,31.9248c1.5039,1.4146,3.1845,2.9854,3.1845,2.9854l1.6065-4.2764-3.6387-2.7603-1.1523,4.0513" fill="url(#radial-gradient-9)" fill-rule="evenodd"/>
        <path d="M14.7949,33.1851c1.458,1.3667,3.2451,3.0317,3.2451,3.0317l5.4424-1.3066-3.1845-2.9854s-6.9649-.105-5.503,1.2603Z" fill="url(#linear-gradient-2)"/>
        <path d="M30.0107,36.6279c-.0673,3.6158,3.209,6.272,6.9659,5.2617,3.9853-1.0629,6.8808-4.8364,6.9599-8.7368.0694-3.6137-3.2138-6.2715-6.9629-5.2685-3.9951,1.0722-6.8857,4.8462-6.9629,8.7436ZM47.7969,47.8066c-1.4619-1.103-2.1826-1.6577-3.6475-2.7534-1.1738,1.0161-2.4726,1.8882-3.8535,2.5679v5.1777c-1.0791.4634-2.1885.8413-3.3242,1.1241-1.1348.2827-2.2461.4609-3.3262.538v-5.1782c-1.3769.002-2.6748-.2168-3.8555-.6465-1.4521,1.8277-2.1884,2.7491-3.6455,4.5684-1.8222-.8242-3.415-2.0308-4.6943-3.5542,1.4531-1.8281,2.1846-2.7407,3.6416-4.5742-.7158-1.0064-1.2588-2.1743-1.6074-3.4707-2.0498.5092-3.3496.8896-5.4444,1.4165-.1943-1.0532-.2998-2.168-.2998-3.3262,0-1.165.1055-2.3218.2998-3.479,2.0948-.5195,3.3946-.7944,5.4424-1.3066.3467-1.4737.8936-2.9161,1.6094-4.2764-1.4561-1.1065-2.1934-1.6592-3.6416-2.7603,1.2793-2.1538,2.8721-4.1547,4.6982-5.896,1.4532,1.1016,2.1866,1.6548,3.6416,2.7549,1.1807-1.0185,2.4786-1.8901,3.8575-2.5708,0-2.0747,0-3.105-.0039-5.1836,1.082-.4614,2.1894-.833,3.3261-1.1196,1.1397-.2822,2.2442-.458,3.3262-.5405v5.1845c1.377-.0044,2.6777.2178,3.8535.648,1.4678-1.8262,2.1875-2.7451,3.6445-4.5757,1.8291.8306,3.419,2.0371,4.6993,3.5581-1.4561,1.8237-2.1778,2.7373-3.6377,4.5693.7138,1.0069,1.2597,2.1822,1.5927,3.4849,2.0645-.5151,3.0918-.769,5.1563-1.2832.1865,1.0327.292,2.1284.292,3.2676,0,1.1431-.1055,2.2851-.292,3.4175-2.0664.5161-3.0918.7783-5.1514,1.289-.334,1.4668-.8799,2.9097-1.5937,4.273,1.4541,1.103,2.1806,1.6518,3.6338,2.7583-1.2803,2.1548-2.8692,4.1582-4.6963,5.8974Z" fill="none" stroke="#4d4d4d" stroke-width=".75"/>
        <path d="M28.4033,34.6953c.002-5.2485,3.6651-9.5586,8.1817-9.6172,4.5078-.0625,8.1806,4.1382,8.1816,9.3975-.001,5.2519-3.6719,9.5649-8.1846,9.6186-4.5136.0655-8.1767-4.144-8.1787-9.3989Z" fill="url(#radial-gradient-10)" fill-rule="evenodd"/>
        <path d="M26.8184,33.6426c-.0645,3.623,3.2158,6.2695,6.9619,5.2715,3.9873-1.0664,6.8867-4.8409,6.9677-8.7427.0596-3.6094-3.2187-6.2686-6.9677-5.2647-3.9883,1.0723-6.8916,4.8389-6.9619,8.7359ZM52.4932,41.9092s-10.0762,1.2607-11.5313.1636c-1.1797,1.0146-2.4785,1.8872-3.8574,2.5649-.0059,2.0776,0,3.1143-.0059,5.1807-1.0781.4614-3.3213,4.6425-3.3213,4.6425l-3.3232-2.9878v-5.1743c-1.3809.0044-.96,1.3789-2.1445.9634-1.4522,1.8228-.708,4.1231-2.1651,5.9424-1.8222-.8242-6.8945-4.7925-8.1924-6.3394,1.4776-1.8589,2.4893-2.9448,3.9434-4.7675-.7168-1.0069-3.8555.9243-3.8555.9243h0c-.0908-.5064-3.2412-3.0347-3.2412-3.0347-.1806-1.1997-.3008-2.0068-.3008-3.3286,0-1.1553.1045-2.3228.2969-3.4736,2.0967-.524,3.4414-.7481,5.503-1.2603.3085-1.3291.7763-2.6226,1.3955-3.8672.0693-.1362-.2432-.1841-.2432-.1841l-3.501-3.1386c1.3008-2.1934,3.1768-3.9966,5.0098-5.7432,1.4482,1.1001,2.1787,1.6504,3.6348,2.7593,1.1845-1.0147,2.4775-1.8863,3.8603-2.5713,0-2.0791.002-3.1065.002-5.1787,1.083-.4634,2.1845-.8418,3.3212-1.126,1.1348-.2783,2.2403-.4561,3.3213-.5288l3.1973,2.9717s-1.9824,2.2446-1.3975,2.3349c.7159.1079,1.4053.2749,2.0616.5127,1.458-1.8369,2.1816-2.7387,3.6425-4.5654,1.8262.8276,6.6104,5.0117,7.8907,6.5327-1.4561,1.8237-5.4668,2.8589-5.4668,2.8589l.2256,2.2095c2.0673-.5108,5.1533-1.2827,5.1533-1.2827,0,0,3.1992,1.8408,3.1992,2.9853,0,0-3.0029,2.5669-3.1992,3.7036-2.0596.5098-3.0889.7749-5.1533,1.2852-.334,1.4697-.8721,2.9165-1.587,4.2778,1.4532,1.103,3.6436,2.7525,3.6436,2.7525l3.1846,2.9863Z" fill="none"/>
      </g>
    </g>
    <path d="M30.0107,36.6279c-.0673,3.6158,3.209,6.272,6.9659,5.2617,3.9853-1.0629,6.8808-4.8364,6.9599-8.7368.0694-3.6137-3.2138-6.2715-6.9629-5.2685-3.9951,1.0722-6.8857,4.8462-6.9629,8.7436ZM47.7969,47.8066c-1.4619-1.103-2.1826-1.6577-3.6475-2.7534-1.1738,1.0161-2.4726,1.8882-3.8535,2.5679v5.1777c-1.0791.4634-2.1885.8413-3.3242,1.1241-1.1348.2827-2.2461.4609-3.3262.538v-5.1782c-1.3769.002-2.6748-.2168-3.8555-.6465-1.4521,1.8277-2.1884,2.7491-3.6455,4.5684-1.8222-.8242-3.415-2.0308-4.6943-3.5542,1.4531-1.8281,2.1846-2.7407,3.6416-4.5742-.7158-1.0064-1.2588-2.1743-1.6074-3.4707-2.0498.5092-3.3496.8896-5.4444,1.4165-.1943-1.0532-.2998-2.168-.2998-3.3262,0-1.165.1055-2.3218.2998-3.479,2.0948-.5195,3.3946-.7944,5.4424-1.3066.3467-1.4737.8936-2.9161,1.6094-4.2764-1.4561-1.1065-2.1934-1.6592-3.6416-2.7603,1.2793-2.1538,2.8721-4.1547,4.6982-5.896,1.4532,1.1016,2.1866,1.6548,3.6416,2.7549,1.1807-1.0185,2.4786-1.8901,3.8575-2.5708,0-2.0747,0-3.105-.0039-5.1836,1.082-.4614,2.1894-.833,3.3261-1.1196,1.1397-.2822,2.2442-.458,3.3262-.5405v5.1845c1.377-.0044,2.6777.2178,3.8535.648,1.4678-1.8262,2.1875-2.7451,3.6445-4.5757,1.8291.8306,3.419,2.0371,4.6993,3.5581-1.4561,1.8237-2.1778,2.7373-3.6377,4.5693.7138,1.0069,1.2597,2.1822,1.5927,3.4849,2.0645-.5151,3.0918-.769,5.1563-1.2832.1865,1.0327.292,2.1284.292,3.2676,0,1.1431-.1055,2.2851-.292,3.4175-2.0664.5161-3.0918.7783-5.1514,1.289-.334,1.4668-.8799,2.9097-1.5937,4.273,1.4541,1.103,2.1806,1.6518,3.6338,2.7583-1.2803,2.1548-2.8692,4.1582-4.6963,5.8974Z" fill="url(#radial-gradient-11)"/>
  </g>
  <g>
    <path d="M82.373,55.7754c.2549-1.5444.3965-3.103.3965-4.6621,0-1.5528-.1416-3.0469-.3965-4.4556,0-1.5615-4.3642-4.0727-4.3642-4.0727,0,0-2.3848.6001-4.7568,1.1914-.0332-.0386-.0567-.0791-.0811-.1231,1.9893-2.498,2.9746-3.7436,4.959-6.2319-.2754-.3213-.6553-.7271-1.1162-1.1797-.1338-.1436-.2774-.2832-.4219-.4155-2.6318-2.5674-7.2266-6.4068-9.2217-7.314-1.9951,2.4907-2.9814,3.7202-4.9687,6.2271-.291-.1114-.6026-.1914-.9043-.2759v-3.6094l-4.3614-4.0522c-1.4746.0991-2.9843.3398-4.5293.7202-1.5488.3882-3.0546.9038-4.5322,1.5332v7.0644c-1.8847.9351-3.6494,2.1236-5.2646,3.5074-1.9854-1.5132-2.9815-2.2623-4.958-3.7632-2.4991,2.3813-5.0567,4.8403-6.8291,7.832l4.7714,4.2817c.1124.0904.211.1651.3311.25h0c-.8437,1.6978-1.4824,3.4624-1.8994,5.2745-2.8135.6992-4.6504,1.0048-7.5059,1.7187-.2636,1.5693-.4072,3.1621-.4072,4.7388.001,1.8008.165,2.9013.4102,4.5385,0,0,4.2998,3.4483,4.4209,4.1387,1.9794-.499,3.6289-.9858,5.1533-1.3774.0342.04.0683.0698.1064.1186-1.9834,2.4864-3.3613,3.9659-5.3789,6.5005.8565,1.0191,3.2129,2.5713,5.2871,4.3457,1.5176,1.6577,3.3086,3.002,5.3321,4.0142.2089.1084.3964.2163.5546.2871,1.9873-2.4819,2.9893-3.7378,4.9727-6.23.293.1079.6074.1943.9033.2769v3.5918l4.3545,3.9135v.1617c.0576.0058.1074-.0079.1651-.0254l.0156.0254s.0049-.0215.0049-.0274c1.4111-.104,2.8613-.3349,4.3496-.7065,1.5478-.3848,3.0615-.8999,4.5332-1.5318v-7.0625c1.8828-.9267,3.6543-2.1147,5.2549-3.5014,1.997,1.4941,2.9824,2.2505,4.9746,3.7558,2.4931-2.3716,4.6582-5.1045,6.4033-8.0425l-4.3428-4.0732s-.1387-.0898-.3447-.2622c.8349-1.689,1.498-3.4575,1.9053-5.2549,2.8066-.6968,4.207-1.0532,7.0253-1.7573ZM47.4678,59.9165c.1074-5.3154,4.0488-10.4614,9.498-11.9238,1.6319-.4351,3.1944-.3491,4.5635.1054.3887.92.5908,1.9366.584,3.0147-.1143,5.3198-4.0625,10.4692-9.5039,11.9224-1.626.4365-3.1963.3608-4.5742-.1001-.375-.9146-.5801-1.9322-.5674-3.0186Z" fill="url(#New_Gradient_182-2)" fill-rule="evenodd" stroke="#000" stroke-linecap="round" stroke-linejoin="round" stroke-width="4"/>
    <g mask="url(#mask-1)">
      <g>
        <path d="M43.1133,55.8442c-.085,4.9424,4.3887,8.5523,9.4961,7.191,5.4414-1.4532,9.3896-6.6026,9.5039-11.9224.081-4.9233-4.3897-8.5498-9.5039-7.1826-5.4385,1.4638-9.3975,6.6011-9.4961,11.914ZM78.1299,67.123s-13.7412,1.7188-15.7246.2208c-1.6114,1.3847-3.3809,2.5732-5.2608,3.4975-.0088,2.8345,0,4.2495-.0088,7.0669-1.4716.6304-4.5263,6.3311-4.5263,6.3311l-4.5352-4.0752v-7.0572c-1.8838.0059-1.3076,1.8819-2.9238,1.314-1.9805,2.4868-.9649,5.6226-2.9522,8.1045-2.4843-1.1255-9.4033-6.5361-11.1738-8.647,2.0176-2.5346,3.3955-4.0141,5.3789-6.5005-.9775-1.3735-5.2597,1.2588-5.2597,1.2588h0c-.1211-.6904-4.4209-4.1387-4.4209-4.1387-.2452-1.6372-.4092-2.7377-.4102-4.5385,0-1.5767.1436-3.1695.4072-4.7388,2.8555-.7139,4.6924-1.0195,7.5059-1.7187.417-1.8121,1.0557-3.5767,1.8994-5.2745.0957-.185-.3311-.25-.3311-.25l-4.7714-4.2817c1.7724-2.9917,4.33-5.4507,6.8291-7.832,1.9765,1.5009,2.9726,2.25,4.958,3.7632,1.6152-1.3838,3.3799-2.5723,5.2646-3.5074v-7.0644c1.4776-.6294,2.9834-1.145,4.5322-1.5332,1.545-.3804,3.0547-.6211,4.5293-.7202l4.3614,4.0522s-2.7051,3.061-1.9082,3.1851c.9775.1464,1.9179.3745,2.8125.7002,1.9873-2.5069,2.9736-3.7364,4.9687-6.2271,2.4883,1.1284,9.0147,6.8359,10.7598,8.9092-1.9844,2.4883-7.4551,3.8989-7.4551,3.8989l.3076,3.0142c2.8164-.6968,7.0264-1.7495,7.0264-1.7495,0,0,4.3642,2.5112,4.3642,4.0727,0,0-4.0947,3.501-4.3642,5.0503-2.8057.6943-4.21,1.0581-7.0264,1.7529-.457,2.0044-1.1894,3.9771-2.164,5.833,1.9795,1.5059,4.9687,3.7559,4.9687,3.7559l4.3428,4.0732Z" fill="url(#linear-gradient-3)"/>
        <polygon points="46.6553 86.3281 55.001 86.21 55.0029 74.2354 46.6582 74.3447 46.6553 86.3281" fill="url(#radial-gradient-12)" fill-rule="evenodd"/>
        <path d="M26.7197,55.2207c1.8985,1.0313,4.4239,4.1348,4.4239,4.1348v9.2812s-3.0206-.8291-4.6416-3.9321c-1.6172-3.0938-1.6817-10.5122.2177-9.4839Z" fill="url(#radial-gradient-13)" fill-rule="evenodd"/>
        <polygon points="31.0225 43.6958 37.8516 35.8638 42.2002 39.9365 35.7939 47.9775 31.0225 43.6958" fill="url(#radial-gradient-14)" fill-rule="evenodd"/>
        <path d="M48.0752,29.0532c.6533-3.1435,8.0371-3.2217,9.0644-2.2534,1.0254.9463,4.3633,4.0493,4.3633,4.0493l-9.0771,2.2656-4.3506-4.0615Z" fill="url(#radial-gradient-15)" fill-rule="evenodd"/>
        <path d="M34.2246,53.5029c.6074.4922,3.001,2.399,4.4317,3.7315,1.4384,1.3384,2.1035-5.4927,2.1035-5.4927l-4.9659-3.1841s-2.1865,4.4629-1.5693,4.9453Z" fill="url(#radial-gradient-16)" fill-rule="evenodd"/>
        <path d="M40.7607,71.438l-4.3574-4.0601s-4.7881,5.9532-5.3789,6.5005c-.582.5625,3.7852,5.0362,4.7695,3.7984.9883-1.2408,4.9668-6.2388,4.9668-6.2388Z" fill="url(#radial-gradient-17)" fill-rule="evenodd"/>
        <polygon points="62.4053 34.7358 66.7568 38.8052 71.7305 32.5645 67.374 28.5068 62.4053 34.7358" fill="url(#radial-gradient-18)" fill-rule="evenodd"/>
        <polygon points="74.7842 49.0889 83.457 46.9189 78.0811 41.9033 72.0938 43.2212 74.7842 49.0889" fill="#666"/>
        <path d="M48.0752,36.1187c1.2656,1.1865,4.3545,4.0673,4.3545,4.0673l-5.2588,3.5054-4.3613-4.0654s3.998-4.6963,5.2656-3.5073Z" fill="url(#radial-gradient-19)" fill-rule="evenodd"/>
        <path d="M34.2246,53.5029c2.0498,1.9287,4.3428,4.0713,4.3428,4.0713l2.1924-5.8325-4.9659-3.7642-1.5693,5.5254" fill="url(#radial-gradient-20)" fill-rule="evenodd"/>
        <path d="M26.7197,55.2207c1.9903,1.8643,4.4239,4.1348,4.4239,4.1348l7.4238-1.7813-4.3418-4.0722s-9.501-.1441-7.5059,1.7187Z" fill="url(#linear-gradient-4)"/>
        <path d="M47.4678,59.9165c-.0918,4.9316,4.3779,8.5571,9.5,7.1782,5.4385-1.4507,9.3857-6.5962,9.4931-11.916.0948-4.9277-4.3828-8.5532-9.4951-7.186-5.4492,1.4624-9.3906,6.6084-9.498,11.9238ZM71.7266,75.1655c-1.9922-1.5053-2.9776-2.2617-4.9746-3.7558-1.6006,1.3867-3.3721,2.5747-5.2549,3.5014v7.0625c-1.4717.6319-2.9854,1.147-4.5332,1.5318-1.5459.3862-3.0625.6303-4.5352.7339v-7.0611c-1.8799.002-3.6494-.2983-5.2578-.8828-1.9834,2.4922-2.9854,3.7481-4.9727,6.23-2.4843-1.1255-4.6601-2.7705-6.4043-4.8486,1.9854-2.4932,2.9815-3.7364,4.9668-6.2388-.9765-1.3716-1.7168-2.9639-2.1914-4.7329-2.7968.6948-4.5673,1.2143-7.4257,1.9316-.2637-1.4355-.4073-2.956-.4073-4.5366,0-1.5894.1436-3.1675.4073-4.7446,2.8584-.7085,4.6289-1.0826,7.4238-1.7813.4726-2.0102,1.2168-3.9775,2.1933-5.8325-1.9853-1.5093-2.9902-2.2622-4.9668-3.7642,1.7442-2.9375,3.918-5.667,6.4063-8.041,1.9853,1.5025,2.9844,2.2569,4.9678,3.7569,1.6113-1.3887,3.3808-2.5772,5.2607-3.5054,0-2.8296,0-4.2359-.0039-7.0698,1.4736-.6304,2.9824-1.1343,4.5352-1.5264,1.5517-.3857,3.0586-.624,4.5371-.7378v7.0718c1.875-.0069,3.6504.2959,5.2549.8833,1.999-2.4898,2.9824-3.7432,4.9697-6.2393,2.4941,1.1323,4.6631,2.7783,6.4082,4.8516-1.9844,2.4883-2.9697,3.7339-4.959,6.2319.9697,1.3736,1.7168,2.9761,2.1699,4.7544,2.8135-.7036,4.2168-1.0498,7.0322-1.75.2549,1.4087.3965,2.9028.3965,4.4556,0,1.5591-.1416,3.1177-.3965,4.6621-2.8183.7041-4.2187,1.0605-7.0253,1.7573-.4561,2.001-1.2002,3.9693-2.1748,5.8267,1.9873,1.5053,2.9765,2.2544,4.957,3.7636-1.7451,2.938-3.9102,5.6709-6.4033,8.0425Z" fill="none" stroke="#4d4d4d" stroke-width=".75"/>
        <path d="M45.2773,57.2822c.002-7.1592,4.9991-13.0381,11.1573-13.1167,6.1484-.084,11.1552,5.6441,11.1592,12.8184-.001,7.1616-5.0079,13.0434-11.1592,13.1167-6.1592.0884-11.1553-5.6524-11.1573-12.8184Z" fill="url(#radial-gradient-21)" fill-rule="evenodd"/>
        <path d="M43.1133,55.8442c-.085,4.9424,4.3887,8.5523,9.4961,7.191,5.4414-1.4532,9.3896-6.6026,9.5039-11.9224.081-4.9233-4.3897-8.5498-9.5039-7.1826-5.4385,1.4638-9.3975,6.6011-9.4961,11.914ZM78.1299,67.123s-13.7412,1.7188-15.7246.2208c-1.6114,1.3847-3.3809,2.5732-5.2608,3.4975-.0088,2.8345,0,4.2495-.0088,7.0669-1.4716.6304-4.5263,6.3311-4.5263,6.3311l-4.5352-4.0752v-7.0572c-1.8838.0059-1.3076,1.8819-2.9238,1.314-1.9805,2.4868-.9649,5.6226-2.9522,8.1045-2.4843-1.1255-9.4033-6.5361-11.1738-8.647,2.0176-2.5346,3.3955-4.0141,5.3789-6.5005-.9775-1.3735-5.2597,1.2588-5.2597,1.2588h0c-.1211-.6904-4.4209-4.1387-4.4209-4.1387-.2452-1.6372-.4092-2.7377-.4102-4.5385,0-1.5767.1436-3.1695.4072-4.7388,2.8555-.7139,4.6924-1.0195,7.5059-1.7187.417-1.8121,1.0557-3.5767,1.8994-5.2745.0957-.185-.3311-.25-.3311-.25l-4.7714-4.2817c1.7724-2.9917,4.33-5.4507,6.8291-7.832,1.9765,1.5009,2.9726,2.25,4.958,3.7632,1.6152-1.3838,3.3799-2.5723,5.2646-3.5074v-7.0644c1.4776-.6294,2.9834-1.145,4.5322-1.5332,1.545-.3804,3.0547-.6211,4.5293-.7202l4.3614,4.0522s-2.7051,3.061-1.9082,3.1851c.9775.1464,1.9179.3745,2.8125.7002,1.9873-2.5069,2.9736-3.7364,4.9687-6.2271,2.4883,1.1284,9.0147,6.8359,10.7598,8.9092-1.9844,2.4883-7.4551,3.8989-7.4551,3.8989l.3076,3.0142c2.8164-.6968,7.0264-1.7495,7.0264-1.7495,0,0,4.3642,2.5112,4.3642,4.0727,0,0-4.0947,3.501-4.3642,5.0503-2.8057.6943-4.21,1.0581-7.0264,1.7529-.457,2.0044-1.1894,3.9771-2.164,5.833,1.9795,1.5059,4.9687,3.7559,4.9687,3.7559l4.3428,4.0732Z" fill="none"/>
      </g>
    </g>
    <path d="M47.4678,59.9165c-.0918,4.9316,4.3779,8.5571,9.5,7.1782,5.4385-1.4507,9.3857-6.5962,9.4931-11.916.0948-4.9277-4.3828-8.5532-9.4951-7.186-5.4492,1.4624-9.3906,6.6084-9.498,11.9238ZM71.7266,75.1655c-1.9922-1.5053-2.9776-2.2617-4.9746-3.7558-1.6006,1.3867-3.3721,2.5747-5.2549,3.5014v7.0625c-1.4717.6319-2.9854,1.147-4.5332,1.5318-1.5459.3862-3.0625.6303-4.5352.7339v-7.0611c-1.8799.002-3.6494-.2983-5.2578-.8828-1.9834,2.4922-2.9854,3.7481-4.9727,6.23-2.4843-1.1255-4.6601-2.7705-6.4043-4.8486,1.9854-2.4932,2.9815-3.7364,4.9668-6.2388-.9765-1.3716-1.7168-2.9639-2.1914-4.7329-2.7968.6948-4.5673,1.2143-7.4257,1.9316-.2637-1.4355-.4073-2.956-.4073-4.5366,0-1.5894.1436-3.1675.4073-4.7446,2.8584-.7085,4.6289-1.0826,7.4238-1.7813.4726-2.0102,1.2168-3.9775,2.1933-5.8325-1.9853-1.5093-2.9902-2.2622-4.9668-3.7642,1.7442-2.9375,3.918-5.667,6.4063-8.041,1.9853,1.5025,2.9844,2.2569,4.9678,3.7569,1.6113-1.3887,3.3808-2.5772,5.2607-3.5054,0-2.8296,0-4.2359-.0039-7.0698,1.4736-.6304,2.9824-1.1343,4.5352-1.5264,1.5517-.3857,3.0586-.624,4.5371-.7378v7.0718c1.875-.0069,3.6504.2959,5.2549.8833,1.999-2.4898,2.9824-3.7432,4.9697-6.2393,2.4941,1.1323,4.6631,2.7783,6.4082,4.8516-1.9844,2.4883-2.9697,3.7339-4.959,6.2319.9697,1.3736,1.7168,2.9761,2.1699,4.7544,2.8135-.7036,4.2168-1.0498,7.0322-1.75.2549,1.4087.3965,2.9028.3965,4.4556,0,1.5591-.1416,3.1177-.3965,4.6621-2.8183.7041-4.2187,1.0605-7.0253,1.7573-.4561,2.001-1.2002,3.9693-2.1748,5.8267,1.9873,1.5053,2.9765,2.2544,4.957,3.7636-1.7451,2.938-3.9102,5.6709-6.4033,8.0425Z" fill="url(#radial-gradient-22)"/>
  </g>
</svg>