<?xml version='1.0' encoding='UTF-8'?>
<svg xmlns="http://www.w3.org/2000/svg" xmlns:xlink="http://www.w3.org/1999/xlink" id="Layer_1" data-name="Layer 1" width="96" height="96" viewBox="0 0 96 96">
  <defs>
    <radialGradient id="New_Gradient_505" data-name="New Gradient 505" cx="9.9102775" cy="32.8668578" fx="9.9102775" fy="32.8668578" r="47.4791551" gradientTransform="translate(19.77319 -.0228097) scale(.9507)" gradientUnits="userSpaceOnUse">
      <stop offset="0" stop-color="#fff"/>
      <stop offset=".331467" stop-color="#b7e9ff"/>
      <stop offset=".561798" stop-color="#3c97f6"/>
      <stop offset=".865173" stop-color="#032c87"/>
      <stop offset="1" stop-color="#0342d3"/>
    </radialGradient>
    <mask id="mask" x="10.7103876" y="14.75" width="59.8203985" height="70.1479227" maskUnits="userSpaceOnUse">
      <path d="M10.7103876,44.6587c0-16.52,13.3896997-29.9087,29.9082992-29.9087,16.5204996,0,29.9120992,13.3887,29.9120992,29.9087,0,16.519-13.3915997,29.9087-29.9120992,29.9087-16.5185996,0-29.9082992-13.3897-29.9082992-29.9087Z" fill="#fff" fill-rule="evenodd"/>
    </mask>
    <radialGradient id="radial-gradient" cx="29.840951" cy="31.9833929" fx="29.840951" fy="31.9833929" r="42.5847641" gradientUnits="userSpaceOnUse">
      <stop offset="0" stop-color="#ddeff4"/>
      <stop offset=".331467" stop-color="#b7e9ff"/>
      <stop offset=".561798" stop-color="#3c97f6"/>
      <stop offset=".865173" stop-color="#032c87"/>
      <stop offset="1" stop-color="#0342d3"/>
    </radialGradient>
    <mask id="mask-1" x="38.6185537" y="39.1893423" width="31.8121324" height="34.9039177" maskUnits="userSpaceOnUse">
      <path d="M68.3310861,41.9365c0,17.3521-10.5004997,29.523-27.7148993,30.7246-1.833.1285-2.0912999-1.4492-.3041868-1.8715,14.6454865-3.4605,24.5634862-19.6841,26.1806862-29.0186.1645-2.1577,1.8384-1.6689,1.8384.1655Z" fill="#fff"/>
    </mask>
    <linearGradient id="linear-gradient" x1="37.9006865" y1="21.2597105" x2="34.5317635" y2="85.5425903" gradientUnits="userSpaceOnUse">
      <stop offset="0" stop-color="#65d081"/>
      <stop offset=".0213457" stop-color="#5cca74"/>
      <stop offset=".0945717" stop-color="#43b84f"/>
      <stop offset=".1626704" stop-color="#31ab34"/>
      <stop offset=".2231214" stop-color="#26a324"/>
      <stop offset=".269663" stop-color="#23a11f"/>
      <stop offset="1" stop-color="#005e00"/>
    </linearGradient>
    <mask id="mask-2" x="14.649271" y="21.8606847" width="55.7814151" height="61.9379688" maskUnits="userSpaceOnUse">
      <path d="M16.498,24.5903c.1845875.4746-.5834125.7827-.0649125.8565,1.1509125.164,1.8027-.6968,2.9564999-.5342.3833.0537.5665.1348.9473.2168-.1084.7681.1553,1.2817.044,2.0478-.1587,1.1509-1.1104,1.5494-1.2696,2.6998-.1035.7128.2808,1.1582.1826,1.8715-.0458874.3282-.2397.4981-.3358874.7906l.1381874-.9859c-.2183-.0327-.3125-.1557-.5303-.186-1.125-.1592-.8852,1.5234-1.4692,2.4751-1.1186874,1.8017-2.0673999,2.7861-2.3583999,4.8691-.4331,3.0718.8779,4.877.4472,7.9463-.1621,1.1504.4742,1.7988,1.1807,2.7383.1631.0229.332.0181.4526-.0493-.1977-2.5713-.624-3.918-.5449-6.4492.6602.8759.2891125,1.7172.7427,2.6753.9053,1.8891,1.5117,2.9516,2.0946999,4.9902.2012.7285-.2539,1.3911.1592,2.0351.8716,1.3545,1.2817,2.4175,2.6689999,3.2832.7729.4732,1.6206.004,2.2572999.6543.9761,1.003,1.144,2.3936,2.5428999,2.5933.7144.0982,1.1568-.2861,1.8707-.186.85.1216.3149,1.3296.6547,2.1059.2945.6856,1.1665.4453,1.7705.9195.7305.5781.8423,1.5722,1.774,1.7036.5488.0771.7509-.565,1.2993-.4907.8774.1245.5893,1.3691.4663,2.249-.241187,1.6972-2.2812999,1.9155-2.5209999,3.6123-.0425.3042.2705.4599.2305.7602-.0611.4375-.6348.5244-.6944.9659-.1709,1.206.7578,1.7553,1.3965,2.7656.5747.893.5083,1.7793,1.3389,2.4272,1.1548.916,3.1000999,1.0225,2.8939999,2.4737-.3408,2.4409-2.5297999,2.8877-3.8324999,4.9965.2329.1441.3521.274.6279.313,2.9311999.4107,4.3657999-1.6235,7.1816998-2.5698,1.9038-.6269,3.2094999-.3584,4.9912132-1.312.936-.4834,1.0380867-1.418,1.9535867-1.9619,1.895-1.1289,3.2764133-1.4112,4.7851999-3.0171.9516-1.0117.8056-2.1484,1.4785-3.3667.9731-1.7383,2.1454999-2.3291,2.9374999-4.1743-.2305-.1455-.3399-.3819-.6407-.4243l-2.0272999-.2857c-1.2627-.1763-2.1942999-1.2881-2.0194999-2.5469-1.3936-.226-2.1977999-.2837-3.5932865-.479-1.7803133-.25-2.1509133-2.2026-3.9326133-2.455-.769-.1075-1.1108.7382-1.8809.6328-1.0127-.1446-1.4994868-.6582-2.5111999-.8042-.6309-.086-.9365.4858-1.2139,1.0625l-.4536.0478c-.1103-.4062-.0083-.7285.0518-1.1675.0254131-.1635-.2525-.1753-.2905-.3188-1.2779.3516-1.7022,1.7739-3.0185999,1.5898-.3281-.0473-.4448-.4018-.7769-.4463-.6025-.0839-.9345.313-1.5405.2305-1.1245-.1577-2.2128999-.9546-2.0551999-2.0796.0557-.4111.5186-.5132.5762-.9238.1421-1.0147-.6600871-1.6592-1.6010871-2.127l-.6894129.1285-.9849-.1387c.0274-.1919-.0693-.3164-.042-.5103.1016-.7109,1.0547-.7461,1.1543129-1.458.0888871-.6308.0058871-1.0337.2323871-1.6445l-1.8095-.2549c-.7691.4785-1.1465,1.4028-2.0824999,1.2725-1.6412-.2305-2.6401999-1.8804-2.4086999-3.5249.2734-1.9458,1.2788-4.1265,3.2250999-3.8526.6562128.0923.9384.4668,1.5966.562.4668.065.6138-.5864,1.0801-.52,1.2354.1748,2.6933999.7417,2.5190999,1.9751-.1573,1.1245.6528,1.9087,1.6743,2.4156.0893-.2666.1426-.4288.2075-.6968l-.2817-3.5635c.9638-1.6816,3.3304999-1.4326,3.5975999-3.3242l.1778-1.2603c.206-1.4531,1.8364-2.1186,3.2889999-1.9145-.0908-.544-.4399-.8433-.3633-1.3931.0826-.6006.7642131-.6758,1.3448-.8179-.0069.252-.0044.4209.0156.6758,1.3223-.2344,2.7489999-.4536,2.9315999-1.771.0254-.1626-.2529-.1743-.29-.3198-.4326.1084-.7315.2334-1.1977867.1675-.6279132-.0879-.4194132-.9815-.2734132-1.603-.3857-.0552-.6108-.0591-1.0068-.0308.2866-.4351.6904-.5176,1.2046-.6109l.6274.3101c.3564-.144.5981-.2803.9551-.4243.1201133.521-.0318,1.2241.5171133,1.3022l2.3827867.3345c.1679-.5908-.6543-.7065-1.0664-1.1558-.3658-.3867.0757-.9404-.2543867-1.3774-.564-.75-1.3926133-.6162-2.1949132-1.0918-1.3642-.8345-1.3559-2.6782-2.9461999-2.9004-.3028-.0439-.419.3872-.7212.3452-1.0689-.1499-1.229-1.4038-2.2953999-1.5527-.3291-.0479-.542.0635-.855.104.0342.562.4409.8442.3647131,1.3906-.1308131.9317-1.464813.8863-1.596713,1.8169-.0825.5762.2085.896.2378,1.4868-.8598-.0351-.6098-1.2295-1.1948-1.8457-1-1.0322-3.2504999-.7358-3.0487999-2.187.29-2.0586,3.7753999-1.3994,4.0653999-3.4551.0244-.1645-.1601-.247-.1675-.3872.2574-.0478.414613-.1655.688-.1254.8755.1235,1.2964.7119,1.6909,1.4946-.5258.1499-.854.1025-1.3784.2524,1.1328.6919,2.2153999.5362,3.0191131,1.5991l1.0785868-.519c-.2245868-.396-.4131-.6465-.7642-.9458.232-.0503.4321-.0791.6763-.0171-.5352-.9697-1.541-.9717-2.4579999-1.604-.918-.6323-1.353-1.3071-2.4765999-1.4668l.0723-.521c.0957-.6841.5503-.9277.9863-1.4541-.2851-.1518-.4643-.2866-.792-.3345-.7124-.1001-1.6133-.0595-1.7119.6529-.0615.4394.3648.584.534213.9702-.313513.2363-.531813.4004-.764713.6748.2456.2305.4878.4863.4395.8447-.0347.2476-.29.2652-.5025.3775-.4238-.7588-.9404-1.2505-.8178-2.1275-.395.0298-.9009.0401-.9512.4243-.0702871.4649.291.6846.5181,1.0796-.3902.1695-.6382.3579-1.0762.2954l-.959-.1342c.1172-.2623.3819-.3374.4224-.6382l.1611-1.1245c-.6406-.0342-.9814-.1944-1.6108-.2818-.52-.0747-1.1607.0874-1.2328871.6099-.0801129.5742.4794871.7671.832,1.2344-.2637129.1025-.4058129.3046-.7051129.2622-.5786-.0791-.3778871-.9165-.8315-1.2622-.6006-.4742-1.2105-.1421-1.9892999-.1675.0459128-.7207-.1098-1.5801-.8247-1.6802-1.9989999-.2827-3.1547999.5635-5.0482999,1.3013-1.419.5556-2.6513999.3843-3.7700874,1.3725ZM29.8935871,35.8638c1.0019-.3604,1.6098-.8897,2.6791999-.7417.6831.0976.6186.9536,1.1503,1.3657.7251.5762,1.4624.5122,2.0703999,1.1846-.4932.4907-.8199.8364-1.4893,1.0195.0869-.6016-.2129-1.2578-.8174-1.3457-.987787-.1362-.5176,1.7197-1.4204,2.1499-.1406-.7744-.2656-1.2666-.1601-2.0352.0581-.4106.3686-.6201.6777129-.854-.3301129-.2148-.5103129-.5185-.9219129-.5771-.5488-.0772-1.2104-.1421-1.7685-.166ZM37.2577869,38.3813l.6235.3106c-.9232869,1.0156-1.9906999,1.4526-3.3636999,1.2622l-.600587-.085c.853487-1.1118,1.899387-1.3823,3.3407869-1.4878ZM38.2851869,56.498c-.3003-.0415-.0674-.4848-.0865-.768.2852-.0445.461-.1026.7715-.1133.0078131-.2515.0039-.4214-.0161-.6733.1904.0263.2876-.0723.481-.0445,1.1235.1582,1.6362.6768,2.7474999.9449-.8804,1.2749-2.3866999.8662-3.8973999.6542ZM32.877887,53.6138c-.5713-.1079-1.042-.3399-1.1845-.9214.7465-.1177,1.145-.1748,1.8857-.0718,1.0127.145,1.5444.5264,2.4267999,1.0142.6743.372,1.7236.4658,1.6176,1.2329-.0683.4663-.6352.5273-1.1006.4604l-.9584-.1347c.1191-.2349.2539-.4112.4223-.6109-.8193-.7314-1.361787-1.2534-2.4594999-1.4082-.192287-.0273-.4741.4082-.6494.4395ZM39.4350869,23.6782c1.04.7339,1.5976,1.5645,2.8763999,1.605.1392.8037.8418.9839,1.3765132,1.5625.9657867,1.0601,1.5326867,2.0044,2.9594867,2.2056.2465133.0351.394-.0288.6435133-.0205-.3721133-.92-1.2661133-1.3247-1.126-2.3116.084-.6035.67-.7993.7543867-1.4047.1441-1.0137-1.3759-.9463-2.2577999-1.4332-1.2475-.6796-1.8872-1.4965-3.3114999-1.6962-1.2880868-.1812-2.5697999-.0264-3.1791999,1.1206.3467.1298.875.3457,1.2642.3725Z" fill="#fff" fill-rule="evenodd"/>
    </mask>
    <radialGradient id="radial-gradient-2" cx="24.1357701" cy="29.1198147" fx="24.1357701" fy="29.1198147" r="54.6850652" gradientUnits="userSpaceOnUse">
      <stop offset="0" stop-color="#d3f7d8"/>
      <stop offset=".064792" stop-color="#cef4d3"/>
      <stop offset=".1387641" stop-color="#c1eec5"/>
      <stop offset=".2172534" stop-color="#abe3ae"/>
      <stop offset=".2988892" stop-color="#8dd48e"/>
      <stop offset=".3829857" stop-color="#65c165"/>
      <stop offset=".4679193" stop-color="#36aa33"/>
      <stop offset=".5" stop-color="#23a11f"/>
      <stop offset=".519667" stop-color="#209b1c"/>
      <stop offset=".6360246" stop-color="#128010"/>
      <stop offset=".7542889" stop-color="#086d07"/>
      <stop offset=".8746071" stop-color="#016101"/>
      <stop offset="1" stop-color="#005e00"/>
    </radialGradient>
    <mask id="mask-3" x="38.6185537" y="39.1893423" width="31.8121324" height="34.9039177" maskUnits="userSpaceOnUse">
      <path d="M68.3310861,41.9365c0,17.3521-10.5004997,29.523-27.7148993,30.7246-1.833.1285-2.0912999-1.4492-.3041868-1.8715,14.6454865-3.4605,24.5634862-19.6841,26.1806862-29.0186.1645-2.1577,1.8384-1.6689,1.8384.1655Z" fill="#fff"/>
    </mask>
    <mask id="mask-4" x="30.942387" y="38.6841" width="34.9610378" height="42.289" maskUnits="userSpaceOnUse">
      <path d="M58.4120864,74.6201l-17.4520864,4.353-8.017613-32.1562,24.5902994-6.1328,6.2201998,25.0244c.8496,3.3994-2.0277999,8.0859-5.3407999,8.9116Z" fill="#fff" fill-rule="evenodd" stroke="#fff" stroke-linecap="round" stroke-linejoin="round" stroke-width="4"/>
    </mask>
    <linearGradient id="New_Gradient_399" data-name="New Gradient 399" x1="40.9865442" y1="42.8935024" x2="57.9965974" y2="77.7692797" gradientUnits="userSpaceOnUse">
      <stop offset="0" stop-color="#e5e5e5"/>
      <stop offset="1" stop-color="#fff"/>
    </linearGradient>
    <radialGradient id="New_Gradient_400" data-name="New Gradient 400" cx="-188.0408208" cy="-139.8103828" fx="-188.0408208" fy="-139.8103828" r="14.7563343" gradientTransform="translate(181.2091 119.1906) rotate(-14.0076171) scale(.5825221)" gradientUnits="userSpaceOnUse">
      <stop offset="0" stop-color="#fff"/>
      <stop offset="1" stop-color="#ccc"/>
    </radialGradient>
    <mask id="mask-5" x="32.942387" y="40.6841" width="32.6718992" height="38.289" maskUnits="userSpaceOnUse">
      <path d="M58.4120864,74.6201l-17.4520864,4.353-8.017613-32.1562,24.5902994-6.1328,6.2201998,25.0244c.8496,3.3994-2.0277999,8.0859-5.3407999,8.9116Z" fill="#fff" fill-rule="evenodd"/>
    </mask>
    <linearGradient id="New_Gradient_401" data-name="New Gradient 401" x1="40.9865442" y1="42.8935024" x2="57.9965974" y2="77.7692797" gradientUnits="userSpaceOnUse">
      <stop offset="0" stop-color="#e5e5e5"/>
      <stop offset=".286514" stop-color="#f2f2f2"/>
      <stop offset=".646072" stop-color="#fff"/>
      <stop offset="1" stop-color="#fff"/>
    </linearGradient>
    <radialGradient id="New_Gradient_402" data-name="New Gradient 402" cx="-188.0408208" cy="-139.8103828" fx="-188.0408208" fy="-139.8103828" r="14.7563343" gradientTransform="translate(181.2091 119.1906) rotate(-14.0076171) scale(.5825221)" gradientUnits="userSpaceOnUse">
      <stop offset="0" stop-color="#e5e5e5"/>
      <stop offset=".331467" stop-color="#e5e5e5"/>
      <stop offset="1" stop-color="#999"/>
    </radialGradient>
    <mask id="mask-6" x="39.8808868" y="36.6753" width="38.5887991" height="45.7266" maskUnits="userSpaceOnUse">
      <path d="M66.4306862,80.4009l-24.5497994.001.0004-41.7227,34.5883991-.0039-.0239,32.4663c.0039,4.4102-5.3563999,9.2593-10.0150997,9.2593Z" fill="#fff" fill-rule="evenodd" stroke="#fff" stroke-linecap="round" stroke-linejoin="round" stroke-width="4"/>
    </mask>
    <linearGradient id="New_Gradient_399-2" data-name="New Gradient 399" x1="47.6331955" y1="35.8738067" x2="70.6522122" y2="83.0697851" gradientUnits="userSpaceOnUse"><stop offset="0" stop-color="#e5e5e5"/><stop offset="1" stop-color="#fff"/></linearGradient>
    <radialGradient id="New_Gradient_400-2" data-name="New Gradient 400" cx="-129.1722186" cy="31.3890819" fx="-129.1722186" fy="31.3890819" r="14.7577088" gradientTransform="translate(167.523 46.7002) scale(.795 .7334)" gradientUnits="userSpaceOnUse"><stop offset="0" stop-color="#fff"/><stop offset="1" stop-color="#ccc"/></radialGradient>
    <mask id="mask-7" x="41.8808868" y="38.6753" width="34.6356991" height="41.8804" maskUnits="userSpaceOnUse">
      <path d="M66.4306862,80.4009l-24.5497994.001.0004-41.7227,34.5883991-.0039-.0239,32.4663c.0039,4.4102-5.3563999,9.2593-10.0150997,9.2593Z" fill="#fff" fill-rule="evenodd"/>
    </mask>
    <linearGradient id="New_Gradient_401-2" data-name="New Gradient 401" x1="47.6331955" y1="35.8738067" x2="70.6522122" y2="83.0697851" gradientUnits="userSpaceOnUse"><stop offset="0" stop-color="#e5e5e5"/><stop offset=".286514" stop-color="#f2f2f2"/><stop offset=".646072" stop-color="#fff"/><stop offset="1" stop-color="#fff"/></linearGradient>
    <radialGradient id="New_Gradient_402-2" data-name="New Gradient 402" cx="-129.1722186" cy="31.3890819" fx="-129.1722186" fy="31.3890819" r="14.7577088" gradientTransform="translate(167.523 46.7002) scale(.795 .7334)" gradientUnits="userSpaceOnUse"><stop offset="0" stop-color="#e5e5e5"/><stop offset=".331467" stop-color="#e5e5e5"/><stop offset="1" stop-color="#999"/></radialGradient>
  </defs>
  <g>
    <path d="M10.7103876,44.6587c0-16.52,13.3896997-29.9087,29.9082992-29.9087,16.5204996,0,29.9120992,13.3887,29.9120992,29.9087,0,16.519-13.3915997,29.9087-29.9120992,29.9087-16.5185996,0-29.9082992-13.3897-29.9082992-29.9087Z" fill="url(#New_Gradient_505)" fill-rule="evenodd" stroke="#000" stroke-miterlimit="3.8637" stroke-width="4"/>
    <g mask="url(#mask)">
      <g>
        <path d="M10.7103876,44.6587c0-16.52,13.3896997-29.9087,29.9082992-29.9087,16.5204996,0,29.9120992,13.3887,29.9120992,29.9087,0,16.519-13.3915997,29.9087-29.9120992,29.9087-16.5185996,0-29.9082992-13.3897-29.9082992-29.9087Z" fill="url(#radial-gradient)" fill-rule="evenodd"/>
        <g mask="url(#mask-1)">
          <g>
            <path d="M68.3310861,41.9365c0,17.3521-10.5004997,29.523-27.7148993,30.7246-1.833.1285-2.0912999-1.4492-.3041868-1.8715,14.6454865-3.4605,24.5634862-19.6841,26.1806862-29.0186.1645-2.1577,1.8384-1.6689,1.8384.1655Z" fill="#3c97f6"/>
            <path d="M69.1400861,42.0708c0,17.3511-10.4994997,29.523-27.7137993,30.7246-1.8321.127-2.0903999-1.4487-.3042-1.8716,14.6479132-3.4604,24.5614994-19.6845,26.1776993-29.0195.1694-2.1582,1.8403-1.6689,1.8403.1665Z" fill="none" stroke="#297bea" stroke-miterlimit="3.8637" stroke-width="2.5812"/>
            <path d="M68.7333861,42.0044c0,17.3525-10.4999997,29.5225-27.7133861,30.7236-1.8305131.128-2.0898131-1.4492-.3037132-1.8711,14.6479996-3.4614,24.5639994-19.684,26.1787132-29.02.1694862-2.1567,1.8383861-1.6689,1.8383861.1675Z" fill="none" stroke="#165edf" stroke-miterlimit="3.8637" stroke-width="1.2906"/>
            <path d="M68.3310861,41.9365c0,17.3521-10.5004997,29.523-27.7148993,30.7246-1.833.1285-2.0912999-1.4492-.3041868-1.8715,14.6454865-3.4605,24.5634862-19.6841,26.1806862-29.0186.1645-2.1577,1.8384-1.6689,1.8384.1655Z" fill="none" stroke="#0342d3" stroke-miterlimit="3.8637"/>
          </g>
        </g>
        <path d="M29.8510871,23.9707l.248.2417c.4458.4097.9585,1.1992.0542,1.5483l-.2495.1441c-1.251.689-1.6352-.354-1.9974999-1.2163-.5362-.4239-2.3715999.5205-2.2856999-.8345.0088-.1841.0142-.7295-.1548-.8862-2.1923999-.3086-3.8065999,1.1142-5.8446999,1.5884-.7285.1669-1.5156.2548-2.1522999.6884-.0401.2461-.1651.4605-.3072.6602-.8652-.1201-.7549-.4024-.4067-.8862,1.1567.1616,1.1894-.9039,3.9541125-.3125.9784873.2109.6542873,3.1997.3036873,3.8662-.9306873,1.7685-1.0342.8847-.7671,2.8877.0835.6225-.0268.9897-.3247,1.5263-.3188.9302-1.3027.8213-1.4697.1177l-.1021.4229c-.0815.3076-.1972.6777-.3984,1.0092-2.1127999,3.3892-2.8246874,3.9829-2.0409999,8.3208.2627,1.4488.4375,2.7285.2285,4.208-.0874.6241.187,1.0591.5351,1.5313l.5039.6558-.4501-.2642c-.2398.0303-.4146.9106-.4288.7192-.2016-2.6015-.6284-3.9643-.5502875-6.5283.0424875-1.4033,1.6904874-1.022,1.9306874,1.2515.0401.3823.0586.7739.2246,1.1269.8111,1.688,1.6226,3.2964,2.1387126,5.1084.1244874.4458-.0532126,1.6426.0683874,1.8384.7509,1.1553,1.2172,2.2876,2.4369999,3.0493.5581.3418,1.5107-.1382,2.3988999.7666.9106.9346,1.1948,2.6861,2.7699999,2.2993,3.0829999-.7587,2.0048999,1.4268,2.4457999,2.4366.8735.5327,1.2783.0708,2.1483999,1.2729.1885129.2622.4839.8643.8199.9121.5029-.2329.5581-.5932,1.2993-.4897,1.2627.1762,1.322313,1.4282,1.2026,2.3711l-.102.7129c-.2779,1.9721-2.2465999,2.3129-2.5053999,3.5136.4702.814.1665,1.3418-.4897,1.8887-.0684.7334.9174,1.6021,1.2973,2.2046.4072.6328.6128,1.8052,1.1699,2.2393,1.1617.9189,3.4663999,1.0561,3.1684999,3.1616-.3301,2.3633-1.9804999,2.9961-3.3378869,4.4961,2.252.0625,4.249-1.8604,6.3476868-2.5669,1.6113132-.5283,3.3597999-.4502,4.8807999-1.2603.6465133-.3359.9898-1.393,1.9204-1.9453,1.8882-1.1294,4.6011133-1.8472,5.2953999-4.1963.1954-.6557.3667135-1.3105.6973-1.9116.7285-1.3018,1.9028-2.249,2.6215999-3.5327-1.8628-.2627-4.1918999-.438-4.4682999-2.9004-2.5306999-.3657-3.5609999.0039-5.3461999-1.8247-.2485-.2534-1.1464-1.2017-1.6606-.9898-.3809.2295-.2427.1416-.543.3335-1.3979.833-2.4169999-.3393-3.7294999-.5219-.6904.5068-.1113.9663-1.4824,1.1123-.7808.0796-.9131-.8477-.8555-1.3868l.0362-.2758c-.1055-.1138-.1841-.2417-.2178-.3882.3081.1787.6123.3608.917.539-1.2793.3516-2.3671999,2.7432-4.0966999,1.2037-.522-.0562-.8452.2871-1.54.1909-1.8775-.2666-3.7402999-2.2671-2.1850999-3.8023.1597129-.5366-.126-.8696-.9067-1.2851l-.438.0801-.2398.0058-.9853-.1411-.6338-.8359c-.1421-.669.0957-1.1626.6201-1.5762.2759-.2051.1514-.1133.3897-.2876.1259-.374.1489-.6455.164-.8848l-.7074871-.2397-.1968128.1763c-.6323.6123-1.1709,1.1967-2.1781872,1.0556-5.4507127-.7661-2.8476127-10.9287,2.0448872-8.4975.1841128.0922.3106.1528.4546.1879,1.4292-1.3627,4.6176999.3804,4.3471999,2.3174-.0518.3584.0644.6963.3555,1.0088-.221187-2.7837-.8936-3.5581,1.653813-4.9048l.574187-.2944c1.3227-.6821,1.123-1.0317,1.3227-2.4453.2232-1.6026,1.6089-2.3906,2.9741999-2.5542-.3145-1.1431.3588-1.8262,1.4091-2.0855l.4424-.1049c.4512-.108.8111.1103.8975.5092.5356-.1225,1.1684-.2778,1.397-.684-.0835-.1006-.1475-.2168-.1788-.3404.2999.1821.5967132.3633.8985.5435-1.2241.3008-2.7055999.4448-2.5356999-1.4507-1.5107.103-1.0385-1.6118.544-1.9971l.4087-.083c.2436-.0469.5781.1236.7798.2232,1.3657-.6236,1.5571-.4356,1.7475.9873l.2378.0337c-.1733-.3941-.0478-.7178-.084-1.1119-.2578-.3413-1.4951-.5879-1.9653-.8667-1.0605-.6484-1.7744-2.5459-2.4862999-2.7641-.7408.6474-1.6529.185-2.2455999-.4302-.3096-.3433-.1856-.2075-.4698-.5176-.4443-.4643-.5868869-.2627-1.1411-.1928l.6485-.7798c.0537131.8706,1.0893,1.7168-.4878,2.7876l-.3042.1914-.2359.1489c-.2851.1919-.2543869.3057-.1552.6523l.1084.3809c.4467,1.8179-1.5708,1.7012-2.0693999.0923-.4131-1.3262-.658187-1.1167-2.0116999-1.5986-2.564487-.9165-1.7183-3.2349.2192-4.084.6084-.2696,2.0170999-.6123,2.2451999-1.2447-.7417-1.3061,2.1517999-2.4126,3.6517999.5708.1079.2178.1162.4366.0425.6216.1479.0586.2978131.1231.4468131.2012-.0391131-.1387-.0303131-.2764.0282869-.3984l-.6152-.2652c-1.0352-.4658-1.9512-1.646-2.9726999-1.7886-1.0576-.1479-.5396-1.8222-.1655-2.3442-.1397,0-.2652.0117-.3575.0371.4185.5073.6294,1.127.163613,1.4785l-.199713.1514c.8003,1.4814-1.2212,2.4067-1.7192,1.5142-.5005-.8921-1.0698-1.4566-.912087-2.5938l.789487.8433c.853513,1.2549-.6616,1.936-1.6636,1.7944-.8193-.1138-2.3880999-.2783-1.3085-1.5229l.1596129-.1661.0375871-.3144c-.3364-.0742-.8667-.2476-1.2065-.1631ZM16.0438875,25.0903l.1807-.7524c1.2925-1.1441,2.5649999-.9483,3.9921999-1.5064,1.7104-.6699,6.3324998-3.0219,6.8510998.2764l.3042-.0327c.4228-.0273.9297.0132,1.4287.4067.3315.2481.4834.6158.5976.9981.0689-.0391.1402-.0752.2212-.104l-.3265871,1.1372c-.5689129-.7539-1.6055128-1.4248-.6446128-2.5015.9082-1.0107,2.2026999-.3066,3.2846999-.248,1.124.0595.7271,2.1225.1572,2.7153-.104.0996-1.2299-1.0244-.6742871-.9473,1.1767871.167.7978871.2583,1.633287-.104l-.3472,1.0454c-.4335-.7651-1.3286-2.0253.2627-2.5019.1294-.0415.2784-.0654.430213-.0835l.336-.0259c1.012687-.0727.636187.959.915,1.5142.165.3149.397887.622.604.9922l-.751-.2242c-.574213-.5737-.833513-.7514-.102-1.4321-1.203613-1.6846,1.286587-2.9194,3.3495869-1.8223,1.1987.6363-.3897,1.5157-.5737,2.0801,1.0146.376,1.663,1.2808,2.6415999,1.7207.705.3169,2.8783999,1.4019,2.1419999,2.4097.6211,1.0928-1.6962,2.1772-2.2684868,1.4209-.5718131-.7607-1.9815131-.9082-2.8091131-1.4121-1.0048869-.6113-.2168-1.2861.4761131-1.419-.0733131-.0551-.1499131-.0981-.23-.1342-.544413,2.3603-4.445813,2.0444-3.992213,3.415.4268.4146,1.929213.481,2.8173999,1.3984.3843.4034.5059.919.6641,1.4331.0566.1768.02.1802.0278.1846-.5723-.2803-.5938,1.416-.8145.5181l-.0918-.3184c-.2783-.9482-.0839-1.7344.7447-2.2988l.3037-.1919.2358131-.1465c.4672869-.3179-.1264131-.9419-.1567131-1.4751-.0728-1.2519,2.1997131-1.0185,3.0458999-.1435.3408131.3798.1567.1757.4638131.518.0898869.0938.1933868.1885.313.2476,1.4853868-1.2842,2.8110868,1.1606,3.5204868,2.126.1802.2446.3623.4375.5992.5786,1.271.7583,2.8623133.4228,2.6503999,2.6401.6113.5274,1.5141.6968,1.1943,1.8223-.3003,1.0698-3.8622999.666-4.2187999-.7569-.3877.1622-.7435868-.0249-1.0825-.1923-.2383.0576-.3862.1035-.4775.2436l-.6724-1.1465c1.2979-.0932,1.9307-.0634,1.6773,1.3955l-.0414868.25c.3392868-.0551.5096868-.1088.7152867-.1606l.8989.5439c-.1141867-.0654-.1528-.1977-.1806-.31,1.4873.8652-.3184,2.7182-2.0288999,3.1098-.5004.1163-1.3823.4317-1.7563-.0937l.1909.456c.9971,2.5494-2.8168999.3633-3.1405999,2.6578-.2646869,1.8857-.2461,2.5986-2.1093999,3.5605l-.563.2871c-.3994.21-.8027.4536-1.0766.8262l.2632,3.311-.022.2354c-.7422,3.0439-3.5986999-.1402-3.337887-1.9961.102-.7359-1.2881129-1.042-1.7681129-1.1196-1.1845,1.1337-1.7578.0869-2.7977999-.0591-2.2758999-.3208-3.6962999,5.4717-.6055,5.9077.5918.082,1.2495-1.3911,2.0824999-1.2749,2.6391999.3725,2.4169999-.0796,2.2787999,1.8574-.0625.8574-.0175,1.3858-.7324,1.9483-.2441.1796-.1382.1005-.2441.1796,2.1346999-.3838,4.1406129,2.1475,2.4891999,3.7837-.1157.8389,1.1182,1.4029,1.8565,1.1553.7265-.2441,1.291-.2744,1.8877.2564.6137.0917,1.8437-1.2867,2.7172999-1.5274l.9184.5381c-.1147-.0674-.1509-.1958-.1802-.3115.1724.1015.3081.228.3936.3745,1.2832-.8633,3.1117999.7881,3.7123999.5395.3896-.2363.2261-.1313.541-.332,2.3881999-1.4263,3.4384999,1.9351,5.1430999,2.1748,1.4052.1968,2.2113999.2559,3.6127999.4795,1.184.1929-.021,2.2622,2.0013999,2.5444.5723.0816,2.1098999.0562,2.7626999.6407l.1939.1772s.414.6323.29.9209c-.7129,1.6685-2.1107999,2.7036-2.9686999,4.2417-.6694865,1.2158-.4829,2.3433-1.5864865,3.5186-1.5805134,1.6782-3.0825134,2.0312-4.9477134,3.1469-.7372866.4405-.8867,1.4102-1.9872866,1.981-1.7022133.9067-3.3496132.7817-5.104,1.3584-2.5972131.8711-5.628413,3.9341-8.434113,2.1816-1.3032-.811,1.5967-3.0361,2.1713999-3.5552,3.1312999-2.83.3291-2.6704-1.3008-3.9628-1.040487-.8106-.9072-1.6846-1.5034-2.6084-.7735-1.2251-2.6000871-2.8106-.9014-4.2207-1.0708-1.9707,2.1845999-2.9913,2.3788999-4.3897l.1016-.6929c.0244-.1958.0454-.394.0361-.5717-2.1215999,1.5048-2.6737999-1.3174-3.6581999-1.6353-.7407-.2383-1.3823-.2622-1.7363-1.0825-.2217-.5029-.1753-1.0327-.1983-1.5645l-.1718-.0986c-2.2797999.3027-2.5595999.3633-4.0283999-1.9463-.9526-1.4946-1.3691-.4482-2.6351999-1.2192-1.5103-.9434-1.9921999-2.0991-2.9032999-3.5137-.6162-.9663-.0694-1.5889-.25-2.2334-.2525-.8882-.5611-1.7241-.937-2.5645.1167,1.0601.2607,2.1329-1.1957874,1.9273-.0767125-.0088-.4439125-.2266-.4898125-.2871l-.5073-.666c-1.3784-1.8545-.5938-2.5367-.7686-4.5606-.2817-3.3052-1.3921-5.5278.4649-8.8115.4184-.7393.936-1.4414,1.5063-2.3501.6045125-.9956.521-3.7373,2.7315125-2.6367.9257874.1299.5682874,1.3071.4940874,1.8247l-1.4419-.3359c.0391-.1119.085-.2134.1333-.3106.6177-1.1265-.8481-1.667.7588-3.9028.7661-1.0679.48-1.2354.4263-2.3916l-.2862-.0542c-.583-.0806-5.5707999,1.9165-3.5502999-.9092l.0918.0483ZM33.731,38.502l-.046413.1821-.0977.4013c-.376,1.4126-1.8052,2.065-2.0292999.8506-.2245871-1.2085-.5498-2.5468.5508-3.4301l.2495-.189.042,1.2183c-.1748-.1148-.3335-.2549-.4936-.3926-.232-.1841-1.5215-.2197-1.8212871-.2324-.9786129-.0391-1.1465129-1.106-.2261129-1.4405,1.3452-.4843,3.2997999-1.7055,4.2289999.1968.3574.7236.4199.6773,1.2085.9902.5732.23,2.0419999,1.0362,1.2397,1.8433l-.3584.355c-.4282.4038-.8794.6972-1.456.8574-1.1465.3179-.812-.9165-.990687-1.2104ZM34.809587,38.063c-.48-.1958-.9131-.3604-1.3282-.688-.5673-.4399-.6132-1.0273-.7949-1.2134-.8281-.1162-1.5776.4361-2.3226999.7056l-.2202-1.44c.8266.0328,2.0067999.0108,2.6914129.5567.450187.3808,1.222587.9121.417,1.519l-.214913.1617c-.6006.6264.5674,1.7646-1.0464,1.4423.083-.0996.1309-.2817.1626-.4043l.0874-.3618c.1914-.8066.5757-1.5644,1.5703129-1.4238,1.056187.1499,1.585,1.2134,1.448787,2.1841l-.9361-.8198c.2017-.0547.3511-.1265.4859-.2183ZM38.4311869,38.3315c1.4809.7354-1.1065,3.0376-3.7978999,2.6592-.6138-.0859-1.8442-.29-1.0864-1.2734,1.0469-1.3594,2.3573999-1.6626,3.8739999-1.773.2983-.0214.8481131.3052,1.0103.3872ZM37.7728869,39.6616l-.4458-.2207c-1.2407.1104-1.975.3696-2.6053999,1.1836l-.4834-1.189c1.4072.1988,2.2704999.2081,3.3148999-.9384l.2197,1.1645ZM38.4413869,55.4678l.8345-.9571c1.042-.2563,2.2538999.6626,3.3011999.9151,1.4048.3384.1465,2.2583-1.8549,2.3471-.7803.0362-1.5523-.1284-2.3207999-.2348-.6221-.0874-.8579-.4912-.7832-1.1162l.0473-.2842c.3433-.3179.5879-.5288.7759-.6699ZM40.6767868,56.2896c-.2587868-.1153-.4859-.2115-.753-.2779-.0512.3321-.3716.6362-.706.6504-.2764.0108-.4346.0684-.688.1055l.6294-.7759c.0107.2041-.0318.4028-.0674.6025-.3262-.0459-.52-.2006-.4819-.5278.6772.0967,1.3779.2559,2.0668999.2232ZM33.882787,54.2573c-.3379.2881-.5137.3662-.6504.3902l-.275387-.0005c-2.1191129-.4014-3.0097129-3.0113.940887-2.4556,1.122113.1567,1.7344.5713,2.6865999,1.0962.8364.4663,2.1879999.6006,1.9906999,1.9883-.2056,1.4741-1.9434,1.0903-2.8954999.9575-.5718-.0801-.8193-.5503-.562-1.0664l.091313-.1699c-.409213-.3443-.794913-.6206-1.326213-.7398ZM32.932587,53.1099c.7603-.7022,1.771-.2681,2.5478999.2324.4414.2842,1.4658.998,1.4541,1.5683-.0069.3951-.3242.5884-.4864.917l-.5625-1.0659.5489.0777c-.9502-.3667-1.7027-1.0328-2.7416999-1.1783-.629887-.0869-.9405-.0473-1.6641.0684l.604-.9107c.0274.1089.082.2076.2998.2911ZM39.8534869,23.2881l.2266.0869c.7593.5352,1.4673,1.438,2.4725999,1.4717.6231.018.6197.7226.9932,1.0386.3057.2543.6304.4663.9023.7626.6319.689,1.6026,2.0811,2.6591999,1.9688.1309-.0161.2608-.0288.4243-.0244l-.7085,1.022c-.4491867-1.0982-1.8851867-1.7945-.934-3.3663.0478133-.0776.102-.1567.1616-.2304.1645-.2022.1025-.1265.2471-.3023.0913-.1367.0991133-.165.1059-.1992-.0907867-.0928-1.5752-.5112-1.8784-.6811-1.4976-.8125-2.7650999-2.1895-4.6718999-1.5469ZM40.5707868,25.6484c-.3853-.2754-.7485-.6201-1.2012-.9575-4.2914999-.7231.3091-4.7104,4.3222999-2.1601.48.3046.9385.6733,1.5449,1.0014.9922133.5498,2.8793999.4698,2.6372133,2.1909-.0488133.3355-.1982133.6368-.4038133.9019-.1826.2227-.0923.1123-.2466.3022-.3022.482.7964133,1.6836.9737,2.126.4067133,1.0015-.8037,1.128-1.4356,1.0362-1.6972-.2359-2.3788999-1.3155-3.4056867-2.4371-.4683132-.5092-1.0372132-.6914-1.3785132-1.3789-.5624868-.1049-1.0092-.3427-1.4067-.625Z" fill="url(#linear-gradient)"/>
        <g mask="url(#mask-2)">
          <g>
            <path d="M16.498,24.5903c.1845875.4746-.5834125.7827-.0649125.8565,1.1509125.164,1.8027-.6968,2.9564999-.5342.3833.0537.5665.1348.9473.2168-.1084.7681.1553,1.2817.044,2.0478-.1587,1.1509-1.1104,1.5494-1.2696,2.6998-.1035.7128.2808,1.1582.1826,1.8715-.0458874.3282-.2397.4981-.3358874.7906l.1381874-.9859c-.2183-.0327-.3125-.1557-.5303-.186-1.125-.1592-.8852,1.5234-1.4692,2.4751-1.1186874,1.8017-2.0673999,2.7861-2.3583999,4.8691-.4331,3.0718.8779,4.877.4472,7.9463-.1621,1.1504.4742,1.7988,1.1807,2.7383.1631.0229.332.0181.4526-.0493-.1977-2.5713-.624-3.918-.5449-6.4492.6602.8759.2891125,1.7172.7427,2.6753.9053,1.8891,1.5117,2.9516,2.0946999,4.9902.2012.7285-.2539,1.3911.1592,2.0351.8716,1.3545,1.2817,2.4175,2.6689999,3.2832.7729.4732,1.6206.004,2.2572999.6543.9761,1.003,1.144,2.3936,2.5428999,2.5933.7144.0982,1.1568-.2861,1.8707-.186.85.1216.3149,1.3296.6547,2.1059.2945.6856,1.1665.4453,1.7705.9195.7305.5781.8423,1.5722,1.774,1.7036.5488.0771.7509-.565,1.2993-.4907.8774.1245.5893,1.3691.4663,2.249-.241187,1.6972-2.2812999,1.9155-2.5209999,3.6123-.0425.3042.2705.4599.2305.7602-.0611.4375-.6348.5244-.6944.9659-.1709,1.206.7578,1.7553,1.3965,2.7656.5747.893.5083,1.7793,1.3389,2.4272,1.1548.916,3.1000999,1.0225,2.8939999,2.4737-.3408,2.4409-2.5297999,2.8877-3.8324999,4.9965.2329.1441.3521.274.6279.313,2.9311999.4107,4.3657999-1.6235,7.1816998-2.5698,1.9038-.6269,3.2094999-.3584,4.9912132-1.312.936-.4834,1.0380867-1.418,1.9535867-1.9619,1.895-1.1289,3.2764133-1.4112,4.7851999-3.0171.9516-1.0117.8056-2.1484,1.4785-3.3667.9731-1.7383,2.1454999-2.3291,2.9374999-4.1743-.2305-.1455-.3399-.3819-.6407-.4243l-2.0272999-.2857c-1.2627-.1763-2.1942999-1.2881-2.0194999-2.5469-1.3936-.226-2.1977999-.2837-3.5932865-.479-1.7803133-.25-2.1509133-2.2026-3.9326133-2.455-.769-.1075-1.1108.7382-1.8809.6328-1.0127-.1446-1.4994868-.6582-2.5111999-.8042-.6309-.086-.9365.4858-1.2139,1.0625l-.4536.0478c-.1103-.4062-.0083-.7285.0518-1.1675.0254131-.1635-.2525-.1753-.2905-.3188-1.2779.3516-1.7022,1.7739-3.0185999,1.5898-.3281-.0473-.4448-.4018-.7769-.4463-.6025-.0839-.9345.313-1.5405.2305-1.1245-.1577-2.2128999-.9546-2.0551999-2.0796.0557-.4111.5186-.5132.5762-.9238.1421-1.0147-.6600871-1.6592-1.6010871-2.127l-.6894129.1285-.9849-.1387c.0274-.1919-.0693-.3164-.042-.5103.1016-.7109,1.0547-.7461,1.1543129-1.458.0888871-.6308.0058871-1.0337.2323871-1.6445l-1.8095-.2549c-.7691.4785-1.1465,1.4028-2.0824999,1.2725-1.6412-.2305-2.6401999-1.8804-2.4086999-3.5249.2734-1.9458,1.2788-4.1265,3.2250999-3.8526.6562128.0923.9384.4668,1.5966.562.4668.065.6138-.5864,1.0801-.52,1.2354.1748,2.6933999.7417,2.5190999,1.9751-.1573,1.1245.6528,1.9087,1.6743,2.4156.0893-.2666.1426-.4288.2075-.6968l-.2817-3.5635c.9638-1.6816,3.3304999-1.4326,3.5975999-3.3242l.1778-1.2603c.206-1.4531,1.8364-2.1186,3.2889999-1.9145-.0908-.544-.4399-.8433-.3633-1.3931.0826-.6006.7642131-.6758,1.3448-.8179-.0069.252-.0044.4209.0156.6758,1.3223-.2344,2.7489999-.4536,2.9315999-1.771.0254-.1626-.2529-.1743-.29-.3198-.4326.1084-.7315.2334-1.1977867.1675-.6279132-.0879-.4194132-.9815-.2734132-1.603-.3857-.0552-.6108-.0591-1.0068-.0308.2866-.4351.6904-.5176,1.2046-.6109l.6274.3101c.3564-.144.5981-.2803.9551-.4243.1201133.521-.0318,1.2241.5171133,1.3022l2.3827867.3345c.1679-.5908-.6543-.7065-1.0664-1.1558-.3658-.3867.0757-.9404-.2543867-1.3774-.564-.75-1.3926133-.6162-2.1949132-1.0918-1.3642-.8345-1.3559-2.6782-2.9461999-2.9004-.3028-.0439-.419.3872-.7212.3452-1.0689-.1499-1.229-1.4038-2.2953999-1.5527-.3291-.0479-.542.0635-.855.104.0342.562.4409.8442.3647131,1.3906-.1308131.9317-1.464813.8863-1.596713,1.8169-.0825.5762.2085.896.2378,1.4868-.8598-.0351-.6098-1.2295-1.1948-1.8457-1-1.0322-3.2504999-.7358-3.0487999-2.187.29-2.0586,3.7753999-1.3994,4.0653999-3.4551.0244-.1645-.1601-.247-.1675-.3872.2574-.0478.414613-.1655.688-.1254.8755.1235,1.2964.7119,1.6909,1.4946-.5258.1499-.854.1025-1.3784.2524,1.1328.6919,2.2153999.5362,3.0191131,1.5991l1.0785868-.519c-.2245868-.396-.4131-.6465-.7642-.9458.232-.0503.4321-.0791.6763-.0171-.5352-.9697-1.541-.9717-2.4579999-1.604-.918-.6323-1.353-1.3071-2.4765999-1.4668l.0723-.521c.0957-.6841.5503-.9277.9863-1.4541-.2851-.1518-.4643-.2866-.792-.3345-.7124-.1001-1.6133-.0595-1.7119.6529-.0615.4394.3648.584.534213.9702-.313513.2363-.531813.4004-.764713.6748.2456.2305.4878.4863.4395.8447-.0347.2476-.29.2652-.5025.3775-.4238-.7588-.9404-1.2505-.8178-2.1275-.395.0298-.9009.0401-.9512.4243-.0702871.4649.291.6846.5181,1.0796-.3902.1695-.6382.3579-1.0762.2954l-.959-.1342c.1172-.2623.3819-.3374.4224-.6382l.1611-1.1245c-.6406-.0342-.9814-.1944-1.6108-.2818-.52-.0747-1.1607.0874-1.2328871.6099-.0801129.5742.4794871.7671.832,1.2344-.2637129.1025-.4058129.3046-.7051129.2622-.5786-.0791-.3778871-.9165-.8315-1.2622-.6006-.4742-1.2105-.1421-1.9892999-.1675.0459128-.7207-.1098-1.5801-.8247-1.6802-1.9989999-.2827-3.1547999.5635-5.0482999,1.3013-1.419.5556-2.6513999.3843-3.7700874,1.3725ZM29.8935871,35.8638c1.0019-.3604,1.6098-.8897,2.6791999-.7417.6831.0976.6186.9536,1.1503,1.3657.7251.5762,1.4624.5122,2.0703999,1.1846-.4932.4907-.8199.8364-1.4893,1.0195.0869-.6016-.2129-1.2578-.8174-1.3457-.987787-.1362-.5176,1.7197-1.4204,2.1499-.1406-.7744-.2656-1.2666-.1601-2.0352.0581-.4106.3686-.6201.6777129-.854-.3301129-.2148-.5103129-.5185-.9219129-.5771-.5488-.0772-1.2104-.1421-1.7685-.166ZM37.2577869,38.3813l.6235.3106c-.9232869,1.0156-1.9906999,1.4526-3.3636999,1.2622l-.600587-.085c.853487-1.1118,1.899387-1.3823,3.3407869-1.4878ZM38.2851869,56.498c-.3003-.0415-.0674-.4848-.0865-.768.2852-.0445.461-.1026.7715-.1133.0078131-.2515.0039-.4214-.0161-.6733.1904.0263.2876-.0723.481-.0445,1.1235.1582,1.6362.6768,2.7474999.9449-.8804,1.2749-2.3866999.8662-3.8973999.6542ZM32.877887,53.6138c-.5713-.1079-1.042-.3399-1.1845-.9214.7465-.1177,1.145-.1748,1.8857-.0718,1.0127.145,1.5444.5264,2.4267999,1.0142.6743.372,1.7236.4658,1.6176,1.2329-.0683.4663-.6352.5273-1.1006.4604l-.9584-.1347c.1191-.2349.2539-.4112.4223-.6109-.8193-.7314-1.361787-1.2534-2.4594999-1.4082-.192287-.0273-.4741.4082-.6494.4395ZM39.4350869,23.6782c1.04.7339,1.5976,1.5645,2.8763999,1.605.1392.8037.8418.9839,1.3765132,1.5625.9657867,1.0601,1.5326867,2.0044,2.9594867,2.2056.2465133.0351.394-.0288.6435133-.0205-.3721133-.92-1.2661133-1.3247-1.126-2.3116.084-.6035.67-.7993.7543867-1.4047.1441-1.0137-1.3759-.9463-2.2577999-1.4332-1.2475-.6796-1.8872-1.4965-3.3114999-1.6962-1.2880868-.1812-2.5697999-.0264-3.1791999,1.1206.3467.1298.875.3457,1.2642.3725Z" fill="url(#radial-gradient-2)" fill-rule="evenodd"/>
            <g mask="url(#mask-3)">
              <g>
                <path d="M68.3310861,41.9365c0,17.3521-10.5004997,29.523-27.7148993,30.7246-1.833.1285-2.0912999-1.4492-.3041868-1.8715,14.6454865-3.4605,24.5634862-19.6841,26.1806862-29.0186.1645-2.1577,1.8384-1.6689,1.8384.1655Z" fill="#c9ffc9"/>
                <path d="M69.1400861,42.0708c0,17.3511-10.4994997,29.523-27.7137993,30.7246-1.8321.127-2.0903999-1.4487-.3042-1.8716,14.6479132-3.4604,24.5614994-19.6845,26.1776993-29.0195.1694-2.1582,1.8403-1.6689,1.8403.1665Z" fill="none" stroke="#a8efb1" stroke-miterlimit="3.8637" stroke-width="2.5812"/>
                <path d="M68.7333861,42.0044c0,17.3525-10.4999997,29.5225-27.7133861,30.7236-1.8305131.128-2.0898131-1.4492-.3037132-1.8711,14.6479996-3.4614,24.5639994-19.684,26.1787132-29.02.1694862-2.1567,1.8383861-1.6689,1.8383861.1675Z" fill="none" stroke="#86e099" stroke-miterlimit="3.8637" stroke-width="1.2906"/>
                <path d="M68.3310861,41.9365c0,17.3521-10.5004997,29.523-27.7148993,30.7246-1.833.1285-2.0912999-1.4492-.3041868-1.8715,14.6454865-3.4605,24.5634862-19.6841,26.1806862-29.0186.1645-2.1577,1.8384-1.6689,1.8384.1655Z" fill="none" stroke="#65d081" stroke-miterlimit="3.8637"/>
              </g>
            </g>
            <path d="M16.498,24.5903c.1845875.4746-.5834125.7827-.0649125.8565,1.1509125.164,1.8027-.6968,2.9564999-.5342.3833.0537.5665.1348.9473.2168-.1084.7681.1553,1.2817.044,2.0478-.1587,1.1509-1.1104,1.5494-1.2696,2.6998-.1035.7128.2808,1.1582.1826,1.8715-.0458874.3282-.2397.4981-.3358874.7906l.1381874-.9859c-.2183-.0327-.3125-.1557-.5303-.186-1.125-.1592-.8852,1.5234-1.4692,2.4751-1.1186874,1.8017-2.0673999,2.7861-2.3583999,4.8691-.4331,3.0718.8779,4.877.4472,7.9463-.1621,1.1504.4742,1.7988,1.1807,2.7383.1631.0229.332.0181.4526-.0493-.1977-2.5713-.624-3.918-.5449-6.4492.6602.8759.2891125,1.7172.7427,2.6753.9053,1.8891,1.5117,2.9516,2.0946999,4.9902.2012.7285-.2539,1.3911.1592,2.0351.8716,1.3545,1.2817,2.4175,2.6689999,3.2832.7729.4732,1.6206.004,2.2572999.6543.9761,1.003,1.144,2.3936,2.5428999,2.5933.7144.0982,1.1568-.2861,1.8707-.186.85.1216.3149,1.3296.6547,2.1059.2945.6856,1.1665.4453,1.7705.9195.7305.5781.8423,1.5722,1.774,1.7036.5488.0771.7509-.565,1.2993-.4907.8774.1245.5893,1.3691.4663,2.249-.241187,1.6972-2.2812999,1.9155-2.5209999,3.6123-.0425.3042.2705.4599.2305.7602-.0611.4375-.6348.5244-.6944.9659-.1709,1.206.7578,1.7553,1.3965,2.7656.5747.893.5083,1.7793,1.3389,2.4272,1.1548.916,3.1000999,1.0225,2.8939999,2.4737-.3408,2.4409-2.5297999,2.8877-3.8324999,4.9965.2329.1441.3521.274.6279.313,2.9311999.4107,4.3657999-1.6235,7.1816998-2.5698,1.9038-.6269,3.2094999-.3584,4.9912132-1.312.936-.4834,1.0380867-1.418,1.9535867-1.9619,1.895-1.1289,3.2764133-1.4112,4.7851999-3.0171.9516-1.0117.8056-2.1484,1.4785-3.3667.9731-1.7383,2.1454999-2.3291,2.9374999-4.1743-.2305-.1455-.3399-.3819-.6407-.4243l-2.0272999-.2857c-1.2627-.1763-2.1942999-1.2881-2.0194999-2.5469-1.3936-.226-2.1977999-.2837-3.5932865-.479-1.7803133-.25-2.1509133-2.2026-3.9326133-2.455-.769-.1075-1.1108.7382-1.8809.6328-1.0127-.1446-1.4994868-.6582-2.5111999-.8042-.6309-.086-.9365.4858-1.2139,1.0625l-.4536.0478c-.1103-.4062-.0083-.7285.0518-1.1675.0254131-.1635-.2525-.1753-.2905-.3188-1.2779.3516-1.7022,1.7739-3.0185999,1.5898-.3281-.0473-.4448-.4018-.7769-.4463-.6025-.0839-.9345.313-1.5405.2305-1.1245-.1577-2.2128999-.9546-2.0551999-2.0796.0557-.4111.5186-.5132.5762-.9238.1421-1.0147-.6600871-1.6592-1.6010871-2.127l-.6894129.1285-.9849-.1387c.0274-.1919-.0693-.3164-.042-.5103.1016-.7109,1.0547-.7461,1.1543129-1.458.0888871-.6308.0058871-1.0337.2323871-1.6445l-1.8095-.2549c-.7691.4785-1.1465,1.4028-2.0824999,1.2725-1.6412-.2305-2.6401999-1.8804-2.4086999-3.5249.2734-1.9458,1.2788-4.1265,3.2250999-3.8526.6562128.0923.9384.4668,1.5966.562.4668.065.6138-.5864,1.0801-.52,1.2354.1748,2.6933999.7417,2.5190999,1.9751-.1573,1.1245.6528,1.9087,1.6743,2.4156.0893-.2666.1426-.4288.2075-.6968l-.2817-3.5635c.9638-1.6816,3.3304999-1.4326,3.5975999-3.3242l.1778-1.2603c.206-1.4531,1.8364-2.1186,3.2889999-1.9145-.0908-.544-.4399-.8433-.3633-1.3931.0826-.6006.7642131-.6758,1.3448-.8179-.0069.252-.0044.4209.0156.6758,1.3223-.2344,2.7489999-.4536,2.9315999-1.771.0254-.1626-.2529-.1743-.29-.3198-.4326.1084-.7315.2334-1.1977867.1675-.6279132-.0879-.4194132-.9815-.2734132-1.603-.3857-.0552-.6108-.0591-1.0068-.0308.2866-.4351.6904-.5176,1.2046-.6109l.6274.3101c.3564-.144.5981-.2803.9551-.4243.1201133.521-.0318,1.2241.5171133,1.3022l2.3827867.3345c.1679-.5908-.6543-.7065-1.0664-1.1558-.3658-.3867.0757-.9404-.2543867-1.3774-.564-.75-1.3926133-.6162-2.1949132-1.0918-1.3642-.8345-1.3559-2.6782-2.9461999-2.9004-.3028-.0439-.419.3872-.7212.3452-1.0689-.1499-1.229-1.4038-2.2953999-1.5527-.3291-.0479-.542.0635-.855.104.0342.562.4409.8442.3647131,1.3906-.1308131.9317-1.464813.8863-1.596713,1.8169-.0825.5762.2085.896.2378,1.4868-.8598-.0351-.6098-1.2295-1.1948-1.8457-1-1.0322-3.2504999-.7358-3.0487999-2.187.29-2.0586,3.7753999-1.3994,4.0653999-3.4551.0244-.1645-.1601-.247-.1675-.3872.2574-.0478.414613-.1655.688-.1254.8755.1235,1.2964.7119,1.6909,1.4946-.5258.1499-.854.1025-1.3784.2524,1.1328.6919,2.2153999.5362,3.0191131,1.5991l1.0785868-.519c-.2245868-.396-.4131-.6465-.7642-.9458.232-.0503.4321-.0791.6763-.0171-.5352-.9697-1.541-.9717-2.4579999-1.604-.918-.6323-1.353-1.3071-2.4765999-1.4668l.0723-.521c.0957-.6841.5503-.9277.9863-1.4541-.2851-.1518-.4643-.2866-.792-.3345-.7124-.1001-1.6133-.0595-1.7119.6529-.0615.4394.3648.584.534213.9702-.313513.2363-.531813.4004-.764713.6748.2456.2305.4878.4863.4395.8447-.0347.2476-.29.2652-.5025.3775-.4238-.7588-.9404-1.2505-.8178-2.1275-.395.0298-.9009.0401-.9512.4243-.0702871.4649.291.6846.5181,1.0796-.3902.1695-.6382.3579-1.0762.2954l-.959-.1342c.1172-.2623.3819-.3374.4224-.6382l.1611-1.1245c-.6406-.0342-.9814-.1944-1.6108-.2818-.52-.0747-1.1607.0874-1.2328871.6099-.0801129.5742.4794871.7671.832,1.2344-.2637129.1025-.4058129.3046-.7051129.2622-.5786-.0791-.3778871-.9165-.8315-1.2622-.6006-.4742-1.2105-.1421-1.9892999-.1675.0459128-.7207-.1098-1.5801-.8247-1.6802-1.9989999-.2827-3.1547999.5635-5.0482999,1.3013-1.419.5556-2.6513999.3843-3.7700874,1.3725ZM29.8935871,35.8638c1.0019-.3604,1.6098-.8897,2.6791999-.7417.6831.0976.6186.9536,1.1503,1.3657.7251.5762,1.4624.5122,2.0703999,1.1846-.4932.4907-.8199.8364-1.4893,1.0195.0869-.6016-.2129-1.2578-.8174-1.3457-.987787-.1362-.5176,1.7197-1.4204,2.1499-.1406-.7744-.2656-1.2666-.1601-2.0352.0581-.4106.3686-.6201.6777129-.854-.3301129-.2148-.5103129-.5185-.9219129-.5771-.5488-.0772-1.2104-.1421-1.7685-.166ZM37.2577869,38.3813l.6235.3106c-.9232869,1.0156-1.9906999,1.4526-3.3636999,1.2622l-.600587-.085c.853487-1.1118,1.899387-1.3823,3.3407869-1.4878ZM38.2851869,56.498c-.3003-.0415-.0674-.4848-.0865-.768.2852-.0445.461-.1026.7715-.1133.0078131-.2515.0039-.4214-.0161-.6733.1904.0263.2876-.0723.481-.0445,1.1235.1582,1.6362.6768,2.7474999.9449-.8804,1.2749-2.3866999.8662-3.8973999.6542ZM32.877887,53.6138c-.5713-.1079-1.042-.3399-1.1845-.9214.7465-.1177,1.145-.1748,1.8857-.0718,1.0127.145,1.5444.5264,2.4267999,1.0142.6743.372,1.7236.4658,1.6176,1.2329-.0683.4663-.6352.5273-1.1006.4604l-.9584-.1347c.1191-.2349.2539-.4112.4223-.6109-.8193-.7314-1.361787-1.2534-2.4594999-1.4082-.192287-.0273-.4741.4082-.6494.4395ZM39.4350869,23.6782c1.04.7339,1.5976,1.5645,2.8763999,1.605.1392.8037.8418.9839,1.3765132,1.5625.9657867,1.0601,1.5326867,2.0044,2.9594867,2.2056.2465133.0351.394-.0288.6435133-.0205-.3721133-.92-1.2661133-1.3247-1.126-2.3116.084-.6035.67-.7993.7543867-1.4047.1441-1.0137-1.3759-.9463-2.2577999-1.4332-1.2475-.6796-1.8872-1.4965-3.3114999-1.6962-1.2880868-.1812-2.5697999-.0264-3.1791999,1.1206.3467.1298.875.3457,1.2642.3725Z" fill="none" fill-rule="evenodd"/>
          </g>
        </g>
      </g>
    </g>
  </g>
  <g>
    <g>
      <g mask="url(#mask-4)">
        <g>
          <path d="M58.4120864,74.6201l-17.4520864,4.353-8.017613-32.1562,24.5902994-6.1328,6.2201998,25.0244c.8496,3.3994-2.0277999,8.0859-5.3407999,8.9116Z" fill="url(#New_Gradient_399)" fill-rule="evenodd"/>
          <path d="M57.3080864,75.0229s4.0346999-1.1723,2.9052999-5.6962c4.2006999-1.0464,3.3202999-4.7149,3.3202999-4.7149l2.0805999,8.3413-8.3061998,2.0698Z" fill="url(#New_Gradient_400)" fill-rule="evenodd"/>
          <path d="M58.4120864,74.6201l-17.4520864,4.353-8.017613-32.1562,24.5902994-6.1328,6.2201998,25.0244c.8496,3.3994-2.0277999,8.0859-5.3407999,8.9116Z" fill="none" fill-rule="evenodd" stroke="#000" stroke-linecap="round" stroke-linejoin="round" stroke-width="4"/>
        </g>
      </g>
      <g mask="url(#mask-5)">
        <g>
          <path d="M58.4120864,74.6201l-17.4520864,4.353-8.017613-32.1562,24.5902994-6.1328,6.2201998,25.0244c.8496,3.3994-2.0277999,8.0859-5.3407999,8.9116Z" fill="url(#New_Gradient_401)" fill-rule="evenodd"/>
          <path d="M57.3080864,75.0229s4.0346999-1.1723,2.9052999-5.6962c4.2006999-1.0464,3.3202999-4.7149,3.3202999-4.7149l2.0805999,8.3413-8.3061998,2.0698Z" fill="url(#New_Gradient_402)" fill-rule="evenodd"/>
        </g>
      </g>
    </g>
    <g>
      <path d="M41.4804868,68.2598c6.2308998-1.5557,12.4623997-3.1079,18.6976995-4.6621" fill="none" stroke="#b3b3b3" stroke-linecap="round" stroke-linejoin="round" stroke-width="1.0502"/>
      <path d="M37.4716869,52.1821c6.2318998-1.5556,12.4628997-3.105,18.6981995-4.6587" fill="none" stroke="#b3b3b3" stroke-linecap="round" stroke-linejoin="round" stroke-width="1.0502"/>
      <path d="M39.0746869,58.6128c6.2323998-1.5542,12.4628997-3.104,18.6981995-4.6582" fill="none" stroke="#b3b3b3" stroke-linecap="round" stroke-linejoin="round" stroke-width="1.0502"/>
      <path d="M38.2733869,55.3989c6.2309998-1.5556,12.4623997-3.1064,18.6972995-4.6616" fill="none" stroke="#b3b3b3" stroke-linecap="round" stroke-linejoin="round" stroke-width="1.0502"/>
      <path d="M40.6781868,65.0439c6.2314998-1.5527,12.4613997-3.1074,18.6978132-4.6621" fill="none" stroke="#b3b3b3" stroke-linecap="round" stroke-linejoin="round" stroke-width="1.0502"/>
      <path d="M39.8764869,61.8281c6.2318998-1.5556,12.4613997-3.1064,18.6966995-4.6621" fill="none" stroke="#b3b3b3" stroke-linecap="round" stroke-linejoin="round" stroke-width="1.0502"/>
    </g>
  </g>
  <g>
    <g>
      <g mask="url(#mask-6)">
        <g>
          <path d="M66.4306862,80.4009l-24.5497994.001.0004-41.7227,34.5883991-.0039-.0239,32.4663c.0039,4.4102-5.3563999,9.2593-10.0150997,9.2593Z" fill="url(#New_Gradient_399-2)" fill-rule="evenodd"/>
          <path d="M64.8310862,80.5542s5.7342999-.2012,5.7342999-6.0723c5.9062999.001,5.9511998-4.7495,5.9511998-4.7495v10.8233l-11.6854997-.0015Z" fill="url(#New_Gradient_400-2)" fill-rule="evenodd"/>
          <path d="M66.4306862,80.4009l-24.5497994.001.0004-41.7227,34.5883991-.0039-.0239,32.4663c.0039,4.4102-5.3563999,9.2593-10.0150997,9.2593Z" fill="none" fill-rule="evenodd" stroke="#000" stroke-linecap="round" stroke-linejoin="round" stroke-width="4"/>
        </g>
      </g>
      <g mask="url(#mask-7)">
        <g>
          <path d="M66.4306862,80.4009l-24.5497994.001.0004-41.7227,34.5883991-.0039-.0239,32.4663c.0039,4.4102-5.3563999,9.2593-10.0150997,9.2593Z" fill="url(#New_Gradient_401-2)" fill-rule="evenodd"/>
          <path d="M64.8310862,80.5542s5.7342999-.2012,5.7342999-6.0723c5.9062999.001,5.9511998-4.7495,5.9511998-4.7495v10.8233l-11.6854997-.0015Z" fill="url(#New_Gradient_402-2)" fill-rule="evenodd"/>
        </g>
      </g>
    </g>
    <g>
      <path d="M46.1073867,67.4712c8.7641998-.002,17.5326996.0024,26.3017993.0005" fill="none" stroke="#b3b3b3" stroke-linecap="round" stroke-linejoin="round" stroke-width="1.0502"/>
      <path d="M46.1063867,63.3013c8.7636998-.0025,17.5297996,0,26.3027993-.0015" fill="none" stroke="#b3b3b3" stroke-linecap="round" stroke-linejoin="round" stroke-width="1.0502"/>
      <path d="M46.1063867,59.127c8.7636998.0004,17.5336996.0039,26.3012993.0043" fill="none" stroke="#b3b3b3" stroke-linecap="round" stroke-linejoin="round" stroke-width="1.0502"/>
    </g>
  </g>
  <g>
    <path d="M46.9086914,44.7216797h1.1850586v4.1987305h.0263672c.1982422-.3554688.4824219-.6386719.8525391-.8500977.3613281-.2333984.7666016-.3496094,1.2163086-.3496094.2333984,0,.4824219.0385742.7470703.1157227.2509766.0908203.4931641.2387695.7270508.4428711.237793.2045898.4316406.4975586.581543.8793945.1542969.3818359.2314453.8657227.2314453,1.4516602v4.0214844h-1.1845703v-3.8876953c0-.578125-.1083984-1.0541992-.324707-1.4277344-.2338867-.3828125-.6308594-.5786133-1.1914062-.5878906-.3798828.0092773-.7109375.1298828-.9931641.3623047-.2783203.2324219-.4814453.5214844-.609375.8676758-.0620117.159668-.0883789.3554688-.0791016.5874023v4.0859375h-1.1850586v-9.9101562Z"/>
    <path d="M56.0336914,46.2553711v1.6220703h1.7080078v.9262695h-1.7080078v3.6625977c-.0229492.8666992.2753906,1.3051758.894043,1.3139648.3046875,0,.5341797-.0273438.6884766-.0820312l.0532227.921875c-.2329102.0986328-.5820312.1547852-1.0473633.168457-.5581055-.0136719-.9858398-.1865234-1.284668-.5185547-.3164062-.3823242-.4702148-.9736328-.4609375-1.7744141v-3.6918945h-1.0166016v-.9262695h1.0166016v-1.2407227l1.1572266-.3813477Z"/>
    <path d="M59.09375,49.7001953c0-.6845703-.019043-1.2924805-.0566406-1.8227539h1.0712891l.0541992,1.0849609h.0405273c.1855469-.3349609.449707-.6264648.793457-.8754883.3432617-.2348633.7885742-.3574219,1.3354492-.3662109.4609375.0087891.8544922.1347656,1.1796875.3779297.3212891.2387695.5561523.5605469.7050781.965332h.0273438c.2216797-.3789062.4770508-.6699219.7661133-.8730469.2036133-.1567383.4204102-.2753906.6508789-.355957.2304688-.0761719.5039062-.1142578.8203125-.1142578.2397461,0,.4838867.0385742.7324219.1157227.262207.0908203.5039062.2431641.7255859.456543.2304688.2226562.4155273.5205078.5556641.8930664.1401367.390625.2104492.8793945.2104492,1.465332v3.9804688h-1.1586914v-3.8330078c0-1.3710938-.4951172-2.0654297-1.4858398-2.0839844-.3549805.0092773-.6611328.1162109-.9189453.3212891-.253418.2143555-.4423828.4760742-.5668945.7856445-.0644531.1821289-.0966797.387207-.0966797.6152344v4.1948242h-1.1572266v-4.0585938c0-.5600586-.1176758-1.0131836-.3525391-1.359375-.2353516-.3232422-.5947266-.4897461-1.078125-.4990234-.3779297.0092773-.7026367.1347656-.9746094.3759766-.2763672.2504883-.465332.5351562-.5664062.8540039-.0649414.1870117-.097168.387207-.097168.6010742v4.0859375h-1.1586914v-4.9316406Z"/>
    <path d="M70.8662109,44.7216797h1.1850586v9.9101562h-1.1850586v-9.9101562Z"/>
  </g>
</svg>