<?xml version='1.0' encoding='UTF-8'?>
<svg xmlns="http://www.w3.org/2000/svg" xmlns:xlink="http://www.w3.org/1999/xlink" id="Layer_9" data-name="Layer 9" width="96" height="96" viewBox="0 0 96 96">
  <defs>
    <linearGradient id="New_Gradient_463" data-name="New Gradient 463" x1="46.9756" y1="15.9526" x2="46.9756" y2="52.1924" gradientUnits="userSpaceOnUse">
      <stop offset="0" stop-color="#333"/>
      <stop offset="1" stop-color="#4c4c4c"/>
    </linearGradient>
    <linearGradient id="New_Gradient_371" data-name="New Gradient 371" x1="15.8076" y1="62.8065137" x2="69.819548" y2="62.8065137" gradientUnits="userSpaceOnUse">
      <stop offset="0" stop-color="#999"/>
      <stop offset=".20224" stop-color="#f2f2f2"/>
      <stop offset=".516861" stop-color="#b2b2b2"/>
      <stop offset=".769669" stop-color="#b2b2b2"/>
      <stop offset="1" stop-color="#737373"/>
    </linearGradient>
    <linearGradient id="New_Gradient_371-2" data-name="New Gradient 371" x1="15.6523" y1="59.536646" x2="55.3984" y2="59.536646" gradientUnits="userSpaceOnUse"><stop offset="0" stop-color="#999"/><stop offset=".20224" stop-color="#f2f2f2"/><stop offset=".516861" stop-color="#b2b2b2"/><stop offset=".769669" stop-color="#b2b2b2"/><stop offset="1" stop-color="#737373"/></linearGradient>
    <mask id="mask" x="15.2871" y="36.042" width="40.1113" height="31.4014" maskUnits="userSpaceOnUse">
      <path d="M35.6035,36.8467c10.9346-.0005,19.7949,5.7246,19.7949,12.7881,0,7.063-8.8603,12.7885-19.7949,12.7885-10.9355,0-19.7959-5.7255-19.7959-12.7885,0-7.0635,8.8604-12.7881,19.7959-12.7881Z" fill="#fff"/>
    </mask>
    <linearGradient id="New_Gradient_372" data-name="New Gradient 372" x1="15.8076" y1="49.635" x2="55.3984" y2="49.635" gradientUnits="userSpaceOnUse">
      <stop offset="0" stop-color="#999"/>
      <stop offset=".219101" stop-color="#b2b2b2"/>
      <stop offset=".466293" stop-color="#b2b2b2"/>
      <stop offset=".769669" stop-color="#f2f2f2"/>
      <stop offset="1" stop-color="#737373"/>
    </linearGradient>
    <mask id="mask-1" x="17.3125" y="40.0244" width="36.584" height="27.419" maskUnits="userSpaceOnUse">
      <path d="M35.6035,40.5029c9.8379,0,17.8145,5.1519,17.8145,11.5103,0,6.3559-7.9766,11.5088-17.8145,11.5088-9.8389,0-17.8125-5.1514-17.8125-11.5088,0-6.3584,7.9736-11.5103,17.8125-11.5103Z" fill="#fff" stroke="#fff" stroke-miterlimit="3.8637" stroke-width=".957"/>
    </mask>
    <linearGradient id="New_Gradient_373" data-name="New Gradient 373" x1="17.791" y1="52.01245" x2="53.418" y2="52.01245" gradientUnits="userSpaceOnUse">
      <stop offset="0" stop-color="#5587c0"/>
      <stop offset=".20787" stop-color="#97bae0"/>
      <stop offset=".865173" stop-color="#b3e0ff"/>
      <stop offset="1" stop-color="#5587c0"/>
    </linearGradient>
    <radialGradient id="New_Gradient_374" data-name="New Gradient 374" cx="164.0767083" cy="75.5823908" fx="164.0767083" fy="75.5823908" r="32.5504346" gradientTransform="translate(-118.709225 -21.7405249) scale(.8754)" gradientUnits="userSpaceOnUse">
      <stop offset="0" stop-color="#78dcff"/>
      <stop offset="1" stop-color="#b7e9ff"/>
    </radialGradient>
    <linearGradient id="linear-gradient" x1="23.1914206" y1="37.2231967" x2="46.8928292" y2="60.9246053" gradientUnits="userSpaceOnUse">
      <stop offset="0" stop-color="gray"/>
      <stop offset=".187809" stop-color="#82868b"/>
      <stop offset=".5233754" stop-color="#8a99aa"/>
      <stop offset=".9651405" stop-color="#95b7db"/>
      <stop offset="1" stop-color="#97bae0"/>
    </linearGradient>
    <linearGradient id="New_Gradient_375" data-name="New Gradient 375" x1="23.7524083" y1="37.78486" x2="47.4541389" y2="61.4865906" gradientUnits="userSpaceOnUse">
      <stop offset="0" stop-color="gray"/>
      <stop offset="1" stop-color="#fff"/>
    </linearGradient>
    <mask id="mask-2" x="17.791" y="43.106428" width="35.627" height="24.336972" maskUnits="userSpaceOnUse">
      <path d="M29.7383,43.1797c3.3574-.416,6.2871.9819,6.5478,3.1138.2637,2.1298-2.2451,4.1953-5.6006,4.6064-3.3564.4102-6.2929-.9829-6.5517-3.1138-.2617-2.1333,2.2451-4.1977,5.6045-4.6064Z" fill="#fff"/>
    </mask>
    <linearGradient id="New_Gradient_376" data-name="New Gradient 376" x1="56.9236105" y1="62.6949958" x2="43.7479957" y2="75.8706105" gradientUnits="userSpaceOnUse">
      <stop offset="0" stop-color="#4c4c4c"/>
      <stop offset=".623596" stop-color="#d9d9d9"/>
      <stop offset="1" stop-color="#4c4c4c"/>
    </linearGradient>
    <mask id="mask-3" x="47.8653591" y="66.8127977" width="22.1238909" height="22.0997523" maskUnits="userSpaceOnUse">
      <path d="M58.252,68.6855l9.6953,9.6939c5.6767,5.6777-2.8369,14.1919-8.5157,8.5142l-9.6943-9.6919c-5.6768-5.6797,2.8398-14.1939,8.5147-8.5162Z" fill="#fff"/>
    </mask>
    <linearGradient id="New_Gradient_377" data-name="New Gradient 377" x1="67.9484129" y1="68.6840246" x2="49.7349229" y2="86.8975146" gradientUnits="userSpaceOnUse">
      <stop offset="0" stop-color="#a70000"/>
      <stop offset=".662918" stop-color="#df4e15"/>
      <stop offset="1" stop-color="#740000"/>
    </linearGradient>
    <linearGradient id="New_Gradient_146" data-name="New Gradient 146" x1="60.6301755" y1="77.6563034" x2="66.9492019" y2="87.7688596" gradientUnits="userSpaceOnUse">
      <stop offset="0" stop-color="#df4e15"/>
      <stop offset="1" stop-color="#c42e00"/>
    </linearGradient>
    <linearGradient id="New_Gradient_378" data-name="New Gradient 378" x1="60.6301755" y1="77.6563034" x2="66.9492019" y2="87.7688596" gradientUnits="userSpaceOnUse">
      <stop offset="0" stop-color="#df4e15"/>
      <stop offset="1" stop-color="#c42e00"/>
    </linearGradient>
    <mask id="mask-4" x="6.9238" y="14.6958" width="76.7793" height="48.0571" maskUnits="userSpaceOnUse">
      <path d="M19.8047,57.3179c3.6142,3.0957,9.3359,5.1054,15.7988,5.1054,6.4678,0,12.1885-2.0112,15.8008-5.1084,1.2803-1.5878,2.0137-3.3881,2.0137-5.3017,0-6.3584-7.9766-11.5103-17.8145-11.5103-9.8389,0-17.8125,5.1519-17.8125,11.5103,0,1.9155.7334,3.7163,2.0137,5.3047Z" fill="#fff"/>
    </mask>
    <linearGradient id="New_Gradient_86" data-name="New Gradient 86" x1="46.9756" y1="15.9526" x2="46.9756" y2="52.1924" gradientUnits="userSpaceOnUse">
      <stop offset="0" stop-color="#333"/>
      <stop offset="1" stop-color="#4c4c4c"/>
    </linearGradient>
  </defs>
  <g>
    <polygon points="69.1611 32.4067 72.0391 31.6377 74.4795 34.0791 74.4795 37.7212 77.3496 36.9551 79.791 39.396 79.791 44.4541 78.5449 43.2041 78.5449 46.625 79.6182 45.3091 82.7031 47.8755 78.459 49.5889 77.3086 48.4404 42.5049 57.2046 38.5293 53.2285 38.5293 60.4678 33.1348 61.7529 29.6982 58.2915 34.3203 57.146 34.3203 49.022 33.084 47.7861 33.084 55.0229 27.6973 56.312 24.252 52.8506 28.8809 51.7021 28.8809 43.582 27.6377 42.3433 27.6377 49.5811 22.2539 50.8677 18.8115 47.4082 23.4316 46.2612 23.4316 38.1377 22.1953 36.9014 22.1953 44.1387 16.8105 45.4243 13.3652 41.9634 17.9932 40.8218 17.9932 32.6948 16.7549 31.4565 16.7549 38.6958 11.3682 39.9814 7.9238 36.522 12.5498 35.374 12.5498 26.478 15.4063 25.8213 15.4063 25.0952 51.3721 15.9526 52.1641 16.7446 56.0898 15.6958 58.5322 18.1377 58.5322 21.7764 61.4082 21.0107 63.8477 23.4526 63.8477 27.0918 66.7246 26.3242 69.1611 28.7651 69.1611 32.4067" fill="#ecb300" stroke="#000" stroke-linecap="round" stroke-linejoin="round" stroke-width="4"/>
    <polygon points="77.1768 48.3076 78.459 49.5889 82.7031 47.8755 79.6182 45.3091 77.1768 48.3076" fill="#ecb300" fill-rule="evenodd"/>
    <polygon points="15.4063 30.1079 42.5049 57.2046 78.5449 48.1299 78.5449 43.1221 15.4063 25.0952 15.4063 30.1079" fill="#666" fill-rule="evenodd"/>
    <polygon points="15.4063 25.0952 42.5049 52.1924 78.5449 43.1221 51.3721 15.9526 15.4063 25.0952" fill="url(#New_Gradient_463)" fill-rule="evenodd"/>
    <polyline points="16.1123 25.6357 42.5889 51.9399 77.4316 43.251" fill="none" stroke="#999" stroke-linecap="round" stroke-miterlimit="3.8637" stroke-width=".75"/>
    <g>
      <polygon points="23.4346 28.1245 16.7549 29.7666 16.7549 38.6958 11.3682 39.9814 7.9238 36.522 12.5498 35.374 12.5498 26.478 20.0967 24.7363 23.4346 28.1245" fill="#ecb300"/>
      <polyline points="9.292 37.0381 11.3965 39.1357 15.9375 37.9365 15.9375 29.0234 21.7627 27.6104" fill="none" stroke="#c96b00" stroke-linecap="round" stroke-miterlimit="3.8637"/>
    </g>
    <g>
      <polygon points="28.8809 33.5688 22.1953 35.2114 22.1953 44.1406 16.8105 45.4243 13.3652 41.9634 17.9932 40.8218 17.9932 31.9229 25.5342 30.1792 28.8809 33.5688" fill="#ecb300"/>
      <polyline points="14.7383 42.4775 16.8389 44.5786 21.3789 43.3794 21.3789 34.4658 27.21 33.0547" fill="none" stroke="#c96b00" stroke-linecap="round" stroke-miterlimit="3.8637"/>
    </g>
    <g>
      <polygon points="34.3203 39.0117 27.6436 40.6563 27.6436 49.5811 22.2568 50.8677 18.8115 47.4082 23.4346 46.2612 23.4346 37.3647 30.9756 35.6221 34.3203 39.0117" fill="#ecb300"/>
      <polyline points="20.1777 47.9199 22.2773 50.0249 26.8242 48.8184 26.8242 39.9058 32.6523 38.4976" fill="none" stroke="#c96b00" stroke-linecap="round" stroke-miterlimit="3.8637"/>
    </g>
    <g>
      <polygon points="39.7627 44.4541 33.084 46.0981 33.084 55.0229 27.6973 56.312 24.252 52.8506 28.8809 51.7021 28.8809 42.8052 36.4248 41.0649 39.7627 44.4541" fill="#ecb300"/>
      <polyline points="25.625 53.3638 27.7246 55.4673 32.2656 54.2627 32.2656 45.3525 38.0977 43.9385" fill="none" stroke="#c96b00" stroke-linecap="round" stroke-miterlimit="3.8637"/>
    </g>
    <g>
      <polygon points="45.2129 49.895 38.5293 51.5381 38.5293 60.4678 33.1348 61.7529 29.6982 58.2915 34.3203 57.146 34.3203 48.252 41.8672 46.5088 45.2129 49.895" fill="#ecb300"/>
      <polyline points="31.0586 58.8076 33.167 60.9102 37.7129 59.708 37.7129 50.7939 43.5381 49.3789" fill="none" stroke="#c96b00" stroke-linecap="round" stroke-miterlimit="3.8637"/>
    </g>
    <g>
      <polygon points="27.8047 26.5093 45.126 43.8276 66.1357 38.5361 48.7832 21.1753 27.8047 26.5093" fill="#999" fill-rule="evenodd"/>
      <polyline points="27.7979 27.2822 45.041 44.5225 65.9746 39.2764" fill="none" stroke="#191919" stroke-linecap="round" stroke-miterlimit="3.8637"/>
    </g>
    <g>
      <polygon points="47.9072 17.8774 56.0898 15.6958 58.5322 18.1377 58.5322 23.1934 55.2754 19.9365 51.0332 20.9644 47.9072 17.8774" fill="#ecb300" fill-rule="evenodd"/>
      <polyline points="51.4219 20.0684 57.8916 18.522 57.8916 21.7817" fill="none" stroke="#c96b00" stroke-linecap="round" stroke-linejoin="round"/>
    </g>
    <g>
      <polygon points="53.2188 23.1934 61.4082 21.0107 63.8477 23.4526 63.8477 28.5103 60.5898 25.2485 56.3506 26.2793 53.2188 23.1934" fill="#ecb300" fill-rule="evenodd"/>
      <polyline points="56.7402 25.3774 63.207 23.8398 63.207 27.0977" fill="none" stroke="#c96b00" stroke-linecap="round" stroke-linejoin="round"/>
    </g>
    <g>
      <polygon points="58.5322 28.5103 66.7246 26.3242 69.1611 28.7651 69.1611 33.8208 65.9043 30.5649 61.6621 31.5918 58.5322 28.5103" fill="#ecb300" fill-rule="evenodd"/>
      <polyline points="62.0508 30.6934 68.5205 29.1528 68.5205 32.4102" fill="none" stroke="#c96b00" stroke-linecap="round" stroke-linejoin="round"/>
    </g>
    <g>
      <polygon points="63.8477 33.8208 72.0391 31.6377 74.4795 34.0791 74.4795 39.1357 71.2178 35.8799 66.9785 36.9072 63.8477 33.8208" fill="#ecb300" fill-rule="evenodd"/>
      <polyline points="67.3633 36.0098 73.835 34.4658 73.835 37.7271" fill="none" stroke="#c96b00" stroke-linecap="round" stroke-linejoin="round"/>
    </g>
    <polygon points="69.1611 39.1357 77.3496 36.9551 79.791 39.396 79.791 44.4541 76.5283 41.1924 72.291 42.2227 69.1611 39.1357" fill="#ecb300" fill-rule="evenodd"/>
    <polyline points="72.6816 41.3208 79.1494 39.7817 79.1494 48.9507 82.0625 48.1777" fill="none" stroke="#c96b00" stroke-linecap="round" stroke-linejoin="round"/>
  </g>
  <g>
    <path d="M50.918,64.7544l2.1474,2.147c1.6944-.3052,3.5567.1543,5.1866,1.7841l9.6953,9.6939c5.6767,5.6777-2.8369,14.1919-8.5157,8.5142l-9.6943-9.6919c-1.6299-1.6329-2.0898-3.4952-1.7822-5.19l-3.8194-3.8198c-2.583.8022-5.4785,1.2466-8.5322,1.2466-10.9355,0-19.7959-5.7251-19.7959-12.7901,0-5.1181.0039-6.8476.0039-6.8476l-.0039-.166c0-7.0635,8.8604-12.7881,19.7959-12.7881,10.9346-.0005,19.7949,5.7246,19.7949,12.7881v7.0136c0,3.0791-1.6816,5.9004-4.4804,8.106Z" fill="url(#New_Gradient_371)" stroke="#000" stroke-miterlimit="3.8637" stroke-width="4"/>
    <path d="M15.8076,56.6484c0-5.1181-.1553-6.8476-.1553-6.8476l39.7461-.166s0-.0469,0,7.0136c0,7.065-8.8603,12.7901-19.7949,12.7901-10.9355,0-19.7959-5.7251-19.7959-12.7901Z" fill="url(#New_Gradient_371-2)" fill-rule="evenodd"/>
    <g mask="url(#mask)">
      <g>
        <path d="M35.6035,36.8467c10.9346-.0005,19.7949,5.7246,19.7949,12.7881,0,7.063-8.8603,12.7885-19.7949,12.7885-10.9355,0-19.7959-5.7255-19.7959-12.7885,0-7.0635,8.8604-12.7881,19.7959-12.7881Z" fill="url(#New_Gradient_372)"/>
        <g mask="url(#mask-1)">
          <g>
            <path d="M35.6035,40.5029c9.8379,0,17.8145,5.1519,17.8145,11.5103,0,6.3559-7.9766,11.5088-17.8145,11.5088-9.8389,0-17.8125-5.1514-17.8125-11.5088,0-6.3584,7.9736-11.5103,17.8125-11.5103Z" fill="url(#New_Gradient_373)"/>
            <path d="M35.6035,44.4243c9.8379,0,17.8145,5.1519,17.8145,11.5073,0,6.3575-7.9766,11.5118-17.8145,11.5118-9.8389,0-17.8125-5.1543-17.8125-11.5098,0-6.3574,7.9736-11.5093,17.8125-11.5093Z" fill="url(#New_Gradient_374)"/>
            <path d="M35.6035,40.5029c9.8379,0,17.8145,5.1519,17.8145,11.5103,0,6.3559-7.9766,11.5088-17.8145,11.5088-9.8389,0-17.8125-5.1514-17.8125-11.5088,0-6.3584,7.9736-11.5103,17.8125-11.5103Z" fill="none" stroke="#69c" stroke-miterlimit="3.8637" stroke-width=".957"/>
          </g>
        </g>
        <path d="M35.042,36.042c10.5801,0,19.7549,5.5693,19.7549,13.0327,0,7.4619-9.1748,13.0278-19.7549,13.0278-10.5791,0-19.7549-5.5659-19.7549-13.0258,0-7.4654,9.1758-13.0347,19.7549-13.0347ZM35.042,37.5488c-10.4102,0-18.25,5.4248-18.25,11.5279,0,6.0962,7.8398,11.52,18.25,11.52,10.4072,0,18.251-5.4248,18.251-11.522,0-6.1011-7.8438-11.5259-18.251-11.5259Z" fill="url(#linear-gradient)"/>
      </g>
    </g>
    <path d="M35.6035,36.606c10.5811,0,19.7539,5.5669,19.7539,13.0288,0,7.4638-9.1728,13.0322-19.7539,13.0322-10.5801,0-19.7549-5.5684-19.7549-13.0322,0-7.4619,9.1748-13.0288,19.7549-13.0288ZM35.6035,38.1108c-10.4082,0-18.248,5.4253-18.248,11.524,0,6.0986,7.8398,11.5254,18.248,11.5254,10.4063,0,18.2529-5.4268,18.2529-11.5254,0-6.0987-7.8466-11.524-18.2529-11.524Z" fill="url(#New_Gradient_375)"/>
    <g mask="url(#mask-2)">
      <g>
        <path d="M29.7383,43.1797c3.3574-.416,6.2871.9819,6.5478,3.1138.2637,2.1298-2.2451,4.1953-5.6006,4.6064-3.3564.4102-6.2929-.9829-6.5517-3.1138-.2617-2.1333,2.2451-4.1977,5.6045-4.6064Z" fill="#b3e0ff"/>
        <path d="M35.6035,44.4243c9.8379,0,17.8145,5.1519,17.8145,11.5073,0,6.3575-7.9766,11.5118-17.8145,11.5118-9.8389,0-17.8125-5.1543-17.8125-11.5098,0-6.3574,7.9736-11.5093,17.8125-11.5093Z" fill="#fff"/>
      </g>
    </g>
    <path d="M48.8594,62.6968l8.0635,8.0639c3.4062,3.4078-1.7041,8.5162-5.1094,5.1094l-8.0645-8.0659c-3.4072-3.4058,1.7002-8.5132,5.1104-5.1074Z" fill="url(#New_Gradient_376)"/>
    <g mask="url(#mask-3)">
      <g>
        <path d="M58.252,68.6855l9.6953,9.6939c5.6767,5.6777-2.8369,14.1919-8.5157,8.5142l-9.6943-9.6919c-5.6768-5.6797,2.8398-14.1939,8.5147-8.5162Z" fill="url(#New_Gradient_377)"/>
        <path d="M63.791,76.75c3.292,0,5.959,2.6709,5.959,5.9614,0,3.2949-2.667,5.9619-5.959,5.9619s-5.9629-2.667-5.9629-5.9619c0-3.2905,2.6709-5.9614,5.9629-5.9614Z" fill="url(#New_Gradient_146)" stroke="#a70000" stroke-miterlimit="3.8637" stroke-width=".4785"/>
        <path d="M63.791,76.75c3.292,0,5.959,2.6709,5.959,5.9614,0,3.2949-2.667,5.9619-5.959,5.9619s-5.9629-2.667-5.9629-5.9619c0-3.2905,2.6709-5.9614,5.9629-5.9614Z" fill="url(#New_Gradient_378)"/>
        <line x1="50.2451" y1="70.3027" x2="58.0273" y2="78.0825" fill="none" stroke="#ff7845" stroke-linecap="round" stroke-miterlimit="3.8637" stroke-width="1.4356"/>
      </g>
    </g>
  </g>
  <g mask="url(#mask-4)">
    <g opacity=".2">
      <g>
        <polygon points="69.1611 32.4067 72.0391 31.6377 74.4795 34.0791 74.4795 37.7212 77.3496 36.9551 79.791 39.396 79.791 44.4541 78.5449 43.2041 78.5449 46.625 79.6182 45.3091 82.7031 47.8755 78.459 49.5889 77.3086 48.4404 42.5049 57.2046 38.5293 53.2285 38.5293 60.4678 33.1348 61.7529 29.6982 58.2915 34.3203 57.146 34.3203 49.022 33.084 47.7861 33.084 55.0229 27.6973 56.312 24.252 52.8506 28.8809 51.7021 28.8809 43.582 27.6377 42.3433 27.6377 49.5811 22.2539 50.8677 18.8115 47.4082 23.4316 46.2612 23.4316 38.1377 22.1953 36.9014 22.1953 44.1387 16.8105 45.4243 13.3652 41.9634 17.9932 40.8218 17.9932 32.6948 16.7549 31.4565 16.7549 38.6958 11.3682 39.9814 7.9238 36.522 12.5498 35.374 12.5498 26.478 15.4063 25.8213 15.4063 25.0952 51.3721 15.9526 52.1641 16.7446 56.0898 15.6958 58.5322 18.1377 58.5322 21.7764 61.4082 21.0107 63.8477 23.4526 63.8477 27.0918 66.7246 26.3242 69.1611 28.7651 69.1611 32.4067" fill="#ecb300" stroke="#000" stroke-linecap="round" stroke-linejoin="round" stroke-width="2"/>
        <polygon points="77.1768 48.3076 78.459 49.5889 82.7031 47.8755 79.6182 45.3091 77.1768 48.3076" fill="#ecb300" fill-rule="evenodd"/>
        <polygon points="15.4063 30.1079 42.5049 57.2046 78.5449 48.1299 78.5449 43.1221 15.4063 25.0952 15.4063 30.1079" fill="#666" fill-rule="evenodd"/>
        <polygon points="15.4063 25.0952 42.5049 52.1924 78.5449 43.1221 51.3721 15.9526 15.4063 25.0952" fill="url(#New_Gradient_86)" fill-rule="evenodd"/>
        <polyline points="16.1123 25.6357 42.5889 51.9399 77.4316 43.251" fill="none" stroke="#999" stroke-linecap="round" stroke-miterlimit="3.8637" stroke-width=".75"/>
        <g>
          <polygon points="23.4346 28.1245 16.7549 29.7666 16.7549 38.6958 11.3682 39.9814 7.9238 36.522 12.5498 35.374 12.5498 26.478 20.0967 24.7363 23.4346 28.1245" fill="#ecb300"/>
          <polyline points="9.292 37.0381 11.3965 39.1357 15.9375 37.9365 15.9375 29.0234 21.7627 27.6104" fill="none" stroke="#c96b00" stroke-linecap="round" stroke-miterlimit="3.8637"/>
        </g>
        <g>
          <polygon points="28.8809 33.5688 22.1953 35.2114 22.1953 44.1406 16.8105 45.4243 13.3652 41.9634 17.9932 40.8218 17.9932 31.9229 25.5342 30.1792 28.8809 33.5688" fill="#ecb300"/>
          <polyline points="14.7383 42.4775 16.8389 44.5786 21.3789 43.3794 21.3789 34.4658 27.21 33.0547" fill="none" stroke="#c96b00" stroke-linecap="round" stroke-miterlimit="3.8637"/>
        </g>
        <g>
          <polygon points="34.3203 39.0117 27.6436 40.6563 27.6436 49.5811 22.2568 50.8677 18.8115 47.4082 23.4346 46.2612 23.4346 37.3647 30.9756 35.6221 34.3203 39.0117" fill="#ecb300"/>
          <polyline points="20.1777 47.9199 22.2773 50.0249 26.8242 48.8184 26.8242 39.9058 32.6523 38.4976" fill="none" stroke="#c96b00" stroke-linecap="round" stroke-miterlimit="3.8637"/>
        </g>
        <g>
          <polygon points="39.7627 44.4541 33.084 46.0981 33.084 55.0229 27.6973 56.312 24.252 52.8506 28.8809 51.7021 28.8809 42.8052 36.4248 41.0649 39.7627 44.4541" fill="#ecb300"/>
          <polyline points="25.625 53.3638 27.7246 55.4673 32.2656 54.2627 32.2656 45.3525 38.0977 43.9385" fill="none" stroke="#c96b00" stroke-linecap="round" stroke-miterlimit="3.8637"/>
        </g>
        <g>
          <polygon points="45.2129 49.895 38.5293 51.5381 38.5293 60.4678 33.1348 61.7529 29.6982 58.2915 34.3203 57.146 34.3203 48.252 41.8672 46.5088 45.2129 49.895" fill="#ecb300"/>
          <polyline points="31.0586 58.8076 33.167 60.9102 37.7129 59.708 37.7129 50.7939 43.5381 49.3789" fill="none" stroke="#c96b00" stroke-linecap="round" stroke-miterlimit="3.8637"/>
        </g>
        <g>
          <polygon points="27.8047 26.5093 45.126 43.8276 66.1357 38.5361 48.7832 21.1753 27.8047 26.5093" fill="#999" fill-rule="evenodd"/>
          <polyline points="27.7979 27.2822 45.041 44.5225 65.9746 39.2764" fill="none" stroke="#191919" stroke-linecap="round" stroke-miterlimit="3.8637"/>
        </g>
        <g>
          <polygon points="47.9072 17.8774 56.0898 15.6958 58.5322 18.1377 58.5322 23.1934 55.2754 19.9365 51.0332 20.9644 47.9072 17.8774" fill="#ecb300" fill-rule="evenodd"/>
          <polyline points="51.4219 20.0684 57.8916 18.522 57.8916 21.7817" fill="none" stroke="#c96b00" stroke-linecap="round" stroke-linejoin="round"/>
        </g>
        <g>
          <polygon points="53.2188 23.1934 61.4082 21.0107 63.8477 23.4526 63.8477 28.5103 60.5898 25.2485 56.3506 26.2793 53.2188 23.1934" fill="#ecb300" fill-rule="evenodd"/>
          <polyline points="56.7402 25.3774 63.207 23.8398 63.207 27.0977" fill="none" stroke="#c96b00" stroke-linecap="round" stroke-linejoin="round"/>
        </g>
        <g>
          <polygon points="58.5322 28.5103 66.7246 26.3242 69.1611 28.7651 69.1611 33.8208 65.9043 30.5649 61.6621 31.5918 58.5322 28.5103" fill="#ecb300" fill-rule="evenodd"/>
          <polyline points="62.0508 30.6934 68.5205 29.1528 68.5205 32.4102" fill="none" stroke="#c96b00" stroke-linecap="round" stroke-linejoin="round"/>
        </g>
        <g>
          <polygon points="63.8477 33.8208 72.0391 31.6377 74.4795 34.0791 74.4795 39.1357 71.2178 35.8799 66.9785 36.9072 63.8477 33.8208" fill="#ecb300" fill-rule="evenodd"/>
          <polyline points="67.3633 36.0098 73.835 34.4658 73.835 37.7271" fill="none" stroke="#c96b00" stroke-linecap="round" stroke-linejoin="round"/>
        </g>
        <polygon points="69.1611 39.1357 77.3496 36.9551 79.791 39.396 79.791 44.4541 76.5283 41.1924 72.291 42.2227 69.1611 39.1357" fill="#ecb300" fill-rule="evenodd"/>
        <polyline points="72.6816 41.3208 79.1494 39.7817 79.1494 48.9507 82.0625 48.1777" fill="none" stroke="#c96b00" stroke-linecap="round" stroke-linejoin="round"/>
      </g>
    </g>
  </g>
</svg>