<?xml version="1.0" encoding="UTF-8"?>
<svg xmlns="http://www.w3.org/2000/svg" width="96" height="96" xmlns:xlink="http://www.w3.org/1999/xlink" viewBox="0 0 96 96">
  <defs>
    <radialGradient id="New_Gradient_355" data-name="New Gradient 355" cx="73.6988411" cy="22.6315721" fx="73.6988411" fy="22.6315721" r="30.2675681" gradientTransform="translate(-13.3656127 -1.3298116) scale(.9408)" gradientUnits="userSpaceOnUse">
      <stop offset="0" stop-color="#ffe900"/>
      <stop offset=".623596" stop-color="#d68100"/>
      <stop offset="1" stop-color="#9a5500"/>
    </radialGradient>
    <mask id="mask" x="25.2041" y="59.8353" width="46.6242371" height="29.6741926" maskUnits="userSpaceOnUse">
      <path d="M46.5049,62.0571c11.751,0,21.2861,5.9165,21.2861,13.2154,0,7.2944-9.5351,13.2109-21.2861,13.2109-11.7627,0-21.3008-5.9165-21.3008-13.2109,0-7.2989,9.5381-13.2139,21.3008-13.2154Z" fill="#fff"/>
    </mask>
    <radialGradient id="New_Gradient_353" data-name="New Gradient 353" cx="29.4670487" cy="63.063942" fx="29.4670487" fy="63.063942" r="38.3260178" gradientUnits="userSpaceOnUse">
      <stop offset="0" stop-color="#ffe900"/>
      <stop offset=".533707" stop-color="#d68100"/>
      <stop offset=".915726" stop-color="#9a5500"/>
      <stop offset="1" stop-color="#9a5500"/>
    </radialGradient>
    <radialGradient id="New_Gradient_354" data-name="New Gradient 354" cx="66.119878" cy="95.9826143" fx="66.119878" fy="95.9826143" r="28.7638317" gradientTransform="translate(-13.3656127 -1.3298116) scale(.9408)" gradientUnits="userSpaceOnUse">
      <stop offset="0" stop-color="#ecd600"/>
      <stop offset=".146072" stop-color="#ecb300"/>
      <stop offset="1" stop-color="#9a5500"/>
    </radialGradient>
    <mask id="mask-1" x="31.3763" y="59.8353" width="31.9134" height="20.807" maskUnits="userSpaceOnUse">
      <path d="M46.582,62.0225c7.6826,0,13.9141,3.7436,13.9141,8.3584,0,4.622-6.2315,8.3623-13.9141,8.3623-7.6855,0-13.914-3.7398-13.914-8.3604,0-4.6167,6.2285-8.3603,13.914-8.3603Z" fill="#fff"/>
    </mask>
    <linearGradient id="New_Gradient_352" data-name="New Gradient 352" x1="30.7383039" y1="70.7271563" x2="64.9661148" y2="88.167097" gradientTransform="translate(-.0522 .0479)" gradientUnits="userSpaceOnUse">
      <stop offset="0" stop-color="#ecb300"/>
      <stop offset=".213486" stop-color="#d68100"/>
      <stop offset="1" stop-color="#6b3200"/>
    </linearGradient>
    <mask id="mask-2" x="37.877" y="14.9214" width="39.4668" height="59.165" maskUnits="userSpaceOnUse">
      <path d="M37.877,72.6279c2.9277.9468,6.0507,1.4585,9.2929,1.4585,16.6641,0,30.1739-13.5107,30.1739-30.1733,0-13.7539-9.1534-25.354-21.7217-28.9917l-1.3379,4.3144c10.7353,3.0718,18.5469,12.9566,18.5469,24.6773,0,14.168-11.4903,25.6587-25.6612,25.6587-2.5215,0-4.958-.3682-7.2646-1.0493l-2.0283,4.1054Z" fill="#fff" fill-rule="evenodd"/>
    </mask>
    <linearGradient id="New_Gradient_349" data-name="New Gradient 349" x1="57.6104" y1="14.9214" x2="57.6104" y2="74.0864" gradientUnits="userSpaceOnUse">
      <stop offset="0" stop-color="#ecb300"/>
      <stop offset=".5" stop-color="#d68100"/>
      <stop offset=".853928" stop-color="#9a5500"/>
      <stop offset="1" stop-color="#6b3200"/>
    </linearGradient>
    <linearGradient id="New_Gradient_351" data-name="New Gradient 351" x1="66.27925" y1="15.0039" x2="66.27925" y2="37.9287" gradientTransform="translate(-.0522 .0479)" gradientUnits="userSpaceOnUse">
      <stop offset="0" stop-color="#ffe900"/>
      <stop offset="1" stop-color="#d68100"/>
    </linearGradient>
    <linearGradient id="New_Gradient_350" data-name="New Gradient 350" x1="69.1752634" y1="24.9082" x2="69.1752634" y2="62.2543" gradientTransform="translate(-.0522 .0479)" gradientUnits="userSpaceOnUse">
      <stop offset="0" stop-color="#d68100"/>
      <stop offset="1" stop-color="#fff95e"/>
    </linearGradient>
    <linearGradient id="New_Gradient_348" data-name="New Gradient 348" x1="38.9676177" y1="75.2949564" x2="41.301988" y2="63.285662" gradientTransform="translate(-.0522 .0479)" gradientUnits="userSpaceOnUse">
      <stop offset="0" stop-color="#9a5500"/>
      <stop offset=".432587" stop-color="#6b3200"/>
      <stop offset="1" stop-color="#6b3200"/>
    </linearGradient>
    <linearGradient id="New_Gradient_347" data-name="New Gradient 347" x1="29.328092" y1="82.3768631" x2="32.6138667" y2="66.9185082" gradientTransform="translate(-.0522 .0479)" gradientUnits="userSpaceOnUse">
      <stop offset="0" stop-color="#ffffb3"/>
      <stop offset="1" stop-color="#ffe900"/>
    </linearGradient>
    <mask id="mask-3" x="17.5156" y="19.1854999" width="53.74385" height="62.9182544" maskUnits="userSpaceOnUse">
      <path d="M17.5156,46.0142c0-14.8164,12.0108-26.8287,26.8291-26.8287,14.8145-.0014,26.8252,12.0123,26.8252,26.8287,0,14.8125-12.0107,26.8212-26.8252,26.8212-14.8183.002-26.8291-12.0078-26.8291-26.8212Z" fill="#fff" fill-rule="evenodd"/>
    </mask>
    <radialGradient id="radial-gradient" cx="34.6742451" cy="34.6420362" fx="34.6742451" fy="34.6420362" r="38.1946241" gradientUnits="userSpaceOnUse">
      <stop offset="0" stop-color="#dfeaeb"/>
      <stop offset=".303371" stop-color="#b7e9ff"/>
      <stop offset=".52809" stop-color="#3c97f6"/>
      <stop offset=".825843" stop-color="#032c87"/>
      <stop offset="1" stop-color="#0342d3"/>
    </radialGradient>
    <mask id="mask-4" x="42.3670231" y="40.9283282" width="28.8924269" height="31.6595594" maskUnits="userSpaceOnUse">
      <path d="M69.1914,43.5698c0,15.563-9.418,26.4766-24.8584,27.5567-1.6387.1181-1.873-1.2998-.2646-1.6797,13.1308-3.104,22.0293-17.6548,23.4755-26.0274.1475-1.934,1.6475-1.4922,1.6475.1504Z" fill="#fff"/>
    </mask>
    <linearGradient id="linear-gradient" x1="41.9520781" y1="24.9758871" x2="38.9303452" y2="82.6339868" gradientTransform="translate(-.0522 .0479)" gradientUnits="userSpaceOnUse">
      <stop offset="0" stop-color="#65bd7b"/>
      <stop offset=".0074065" stop-color="#60bb74"/>
      <stop offset=".0565792" stop-color="#45af4f"/>
      <stop offset=".1023037" stop-color="#32a734"/>
      <stop offset=".1428936" stop-color="#27a224"/>
      <stop offset=".174157" stop-color="#23a11f"/>
      <stop offset=".2984012" stop-color="#1c871d"/>
      <stop offset=".4981417" stop-color="#14651b"/>
      <stop offset=".6872815" stop-color="#0e4c19"/>
      <stop offset=".8596362" stop-color="#0b3d18"/>
      <stop offset="1" stop-color="#0a3818"/>
    </linearGradient>
    <mask id="mask-5" x="21.0488059" y="25.5647412" width="50.2106441" height="55.5505529" maskUnits="userSpaceOnUse">
      <path d="M22.707,28.0122c.1621.4238-.5254.7022-.0615.7705,1.0293.1421,1.6201-.6284,2.6494-.4829.3516.0479.5127.1206.8487.1958-.0889.6904.1445,1.1475.0449,1.834-.1436,1.0376-.9942,1.3882-1.1446,2.4233-.0839.6436.2618,1.0396.168,1.6807-.0371.2935-.2099.4434-.2978.7095l.122-.8843c-.1982-.0303-.2783-.1421-.4785-.1694-1.0068-.1431-.792,1.3647-1.3125,2.2207-1.0049,1.6171-1.8564,2.5009-2.1172,4.3701-.3857,2.7514.7852,4.3725.3975,7.1216-.1387,1.038.4248,1.6171,1.0596,2.457.1523.0225.3007.0185.4082-.0415-.1807-2.3076-.5586-3.5127-.4864-5.7852.584.7847.2627,1.543.6582,2.399.8204,1.6953,1.3575,2.6499,1.8789,4.4746.1875.6562-.2177,1.25.1504,1.8271.7813,1.2114,1.1524,2.1685,2.3946,2.9463.6914.4248,1.4531.0039,2.0254.5825.8681.9033,1.0205,2.147,2.2802,2.3291.6358.0884,1.0313-.2553,1.669-.1679.7656.1088.2881,1.1909.583,1.8916.2734.6098,1.0517.396,1.5967.8222.6582.5186.7519,1.4107,1.5986,1.5288.4795.0659.6709-.5102,1.1562-.437.7891.1079.5323,1.2256.4229,2.0142-.2158,1.5205-2.0527,1.7163-2.2607,3.2373-.0401.2754.2373.4155.2041.6806-.044.3912-.5606.4737-.6241.8672-.1552,1.083.6875,1.5772,1.2637,2.4795.5088.8067.4443,1.5972,1.1924,2.1792,1.0381.8223,2.7793.9165,2.5937,2.2212-.3086,2.1831-2.2656,2.5908-3.4375,4.4785.208.1309.3243.2461.5645.2803,2.6309.3701,3.9141-1.4551,6.4355-2.3032,1.7159-.562,2.8887-.3223,4.4786-1.1792.8427-.4277.9355-1.2725,1.7558-1.7544,1.6934-1.0161,2.9326-1.273,4.2861-2.7109.8643-.9087.7286-1.9258,1.337-3.0196.8652-1.5576,1.9179-2.0893,2.6298-3.7461-.2089-.1264-.3085-.3384-.5771-.3808l-1.8164-.2534c-1.1328-.1602-1.9707-1.1529-1.8096-2.2828-1.2519-.2011-1.9687-.2544-3.2217-.4301-1.5996-.2242-1.9326-1.9742-3.5283-2.1983-.6943-.0972-.998.6607-1.6855.5611-.916-.1231-1.3477-.5879-2.2598-.7164-.5644-.0786-.835.4375-1.085.9517l-.4062.042c-.1035-.3643-.0039-.6499.0488-1.0435.0215-.1479-.2295-.163-.2607-.288-1.1445.3115-1.5283,1.5913-2.7051,1.4243-.2988-.0401-.4014-.357-.7031-.399-.5362-.0737-.8369.2847-1.3809.2071-1.0088-.1441-1.9883-.8565-1.8418-1.8638.0498-.3696.461-.4634.5127-.8291.1319-.9111-.5928-1.4897-1.4316-1.9097l-.6172.1123-.8828-.1245c.0234-.1699-.0664-.2842-.041-.4541.0879-.6377.9482-.6704,1.0361-1.311.084-.562.0039-.9258.208-1.4717l-1.624-.2314c-.6914.4287-1.0244,1.2646-1.8653,1.145-1.4736-.2075-2.3681-1.6885-2.1591-3.1616.2422-1.75,1.1455-3.6973,2.8916-3.4556.583.0825.8427.4165,1.4277.5015.4258.0586.5566-.5249.9717-.4634,1.1045.1543,2.417.664,2.2627,1.771-.1416,1.0078.5801,1.7109,1.4951,2.1631.0859-.2349.1299-.3824.1894-.6221l-.2568-3.1943c.8701-1.5103,2.9902-1.2876,3.2305-2.9815l.1572-1.1343c.1856-1.2988,1.6553-1.8994,2.9522-1.7129-.084-.4877-.3916-.7583-.3291-1.25.0781-.541.6855-.6059,1.2148-.7324-.0147.2183-.0029.3755.0117.6006,1.1758-.207,2.4639-.4043,2.624-1.5849.0274-.1441-.2246-.1587-.2607-.2891-.3828.0991-.6553.2085-1.0723.1509-.5605-.0786-.3711-.8824-.2441-1.4424-.3477-.0464-.5518-.0513-.9014-.021.2608-.3941.6182-.4658,1.086-.5532l.5566.2773c.3174-.1255.5361-.2461.8594-.3804.1045.4663-.0313,1.1031.456,1.1709l2.1455.3003c.1514-.5298-.5869-.6342-.9599-1.0381-.3281-.3427.0674-.8432-.2266-1.2368-.5117-.6723-1.25-.5483-1.9707-.9765-1.2236-.7471-1.2119-2.4019-2.6445-2.6016-.2696-.0381-.3721.3467-.6494.3086-.9532-.1343-1.0996-1.2588-2.0489-1.3906-.3027-.043-.4892.0576-.7734.0932.0332.5044.4014.7564.3252,1.2481-.1211.8359-1.3125.7944-1.4316,1.6299-.0694.5185.1875.8037.2119,1.3339-.7705-.0322-.545-1.1059-1.0655-1.6542-.9004-.9302-2.9218-.6641-2.7324-1.9649.252-1.8447,3.3838-1.2549,3.6377-3.0981.0225-.1475-.1435-.2237-.1494-.3472.2373-.0425.374-.1499.6211-.1128.7832.1069,1.1592.6387,1.5195,1.3389-.4697.1323-.7636.0942-1.2431.2285,1.0166.6181,1.9951.478,2.7089,1.4346l.9766-.4673c-.207-.3555-.3779-.5762-.6924-.8492.209-.0449.3906-.0708.6035-.0126-.4804-.8687-1.3798-.8736-2.1972-1.4405-.8282-.563-1.2168-1.1709-2.2305-1.313l.0732-.4663c.0811-.6176.4893-.8379.8829-1.3081-.2549-.1323-.4092-.2578-.7139-.2998-.6289-.0932-1.4434-.0508-1.5352.5879-.0576.3906.3262.52.4854.8682-.2774.2119-.4834.3628-.6875.6069.2197.2031.4375.4385.3867.7612-.0293.2159-.2568.2349-.4434.3345-.3857-.6821-.8486-1.124-.7343-1.9092-.3526.0264-.8086.0381-.8584.3804-.0606.4199.2685.6128.4668.9687-.3448.1524-.5684.3218-.9649.2647l-.8603-.123c.1025-.231.3437-.2974.3828-.5694l.1357-1.0083c-.5703-.0264-.8681-.1763-1.4394-.2529-.4639-.0703-1.0332.0766-1.1055.5449-.0684.5215.4336.6885.749,1.1113-.2431.0884-.373.2735-.6377.2329-.5107-.0717-.3349-.8208-.7382-1.1308-.545-.4263-1.0889-.1245-1.7901-.1494.041-.6485-.1006-1.4204-.7402-1.5069-1.7891-.2544-2.8252.5025-4.5332,1.1661-1.2647.499-2.3662.3461-3.3731,1.2309ZM34.7266,38.125c.8896-.3286,1.4375-.7988,2.3935-.668.6172.086.5596.8575,1.0371,1.2251.6524.5171,1.3076.4595,1.8526,1.0655-.4405.434-.7266.7441-1.3291.9126.0752-.542-.1993-1.128-.7393-1.2046-.8838-.1245-.4639,1.5385-1.2695,1.9253-.1309-.6949-.2393-1.1368-.1426-1.8272.0498-.3701.3262-.5527.6123-.7656-.3057-.1904-.4658-.4673-.8379-.5166-.4883-.0703-1.0879-.1284-1.5771-.1465ZM41.3232,40.3784l.5664.2818c-.832.9106-1.788,1.3027-3.0205,1.1323l-.5429-.0796c.7724-.9907,1.707-1.2363,2.997-1.3345ZM42.2471,56.6313c-.2725-.041-.0567-.4355-.0811-.6884.2617-.0391.418-.0933.6904-.1026.0108-.2256.0108-.3755-.0117-.6035.1758.0244.2657-.0659.4336-.043,1.0137.1436,1.4697.6084,2.4649.8482-.793,1.146-2.1426.7803-3.4961.5893ZM37.3936,54.043c-.5088-.0982-.9288-.3067-1.0567-.8286.6602-.1045,1.0195-.1543,1.6924-.0616.8994.1299,1.3809.4742,2.1758.9107.6025.332,1.542.4175,1.4482,1.1035-.0566.4189-.5664.4741-.9902.4165l-.8565-.1221c.1075-.2143.2286-.3716.376-.5468-.7324-.6583-1.2178-1.1265-2.208-1.2657-.165-.0219-.4209.3657-.581.3941ZM43.2783,27.1924c.9326.6577,1.4268,1.4057,2.586,1.4385.1201.7216.7451.8872,1.2285,1.4023.8701.9522,1.3769,1.7988,2.6504,1.9785.2236.0322.3554-.021.5839-.0171-.3398-.8271-1.1435-1.1909-1.0166-2.0727.085-.543.6055-.7173.6768-1.2598.1367-.9116-1.2285-.8476-2.0205-1.2881-1.1201-.6079-1.6924-1.3403-2.9678-1.521-1.1592-.1596-2.3125-.0234-2.8554,1.003.3125.1201.7871.3115,1.1347.3364Z" fill="#fff" fill-rule="evenodd"/>
    </mask>
    <radialGradient id="radial-gradient-2" cx="29.5570648" cy="32.075266" fx="29.5570648" fy="32.075266" r="49.0457127" gradientUnits="userSpaceOnUse">
      <stop offset="0" stop-color="#d3edd5"/>
      <stop offset=".0881577" stop-color="#ceebd0"/>
      <stop offset=".1888042" stop-color="#c1e5c2"/>
      <stop offset=".2955934" stop-color="#aadbab"/>
      <stop offset=".4067144" stop-color="#8bce8b"/>
      <stop offset=".5211732" stop-color="#64bd62"/>
      <stop offset=".6367876" stop-color="#34a830"/>
      <stop offset=".674157" stop-color="#23a11f"/>
      <stop offset=".6869737" stop-color="#209b1c"/>
      <stop offset=".7628023" stop-color="#128010"/>
      <stop offset=".8398735" stop-color="#086d07"/>
      <stop offset=".9182832" stop-color="#016101"/>
      <stop offset="1" stop-color="#005e00"/>
    </radialGradient>
    <mask id="mask-6" x="42.3670231" y="40.9283282" width="28.8924269" height="31.6595594" maskUnits="userSpaceOnUse">
      <path d="M69.1914,43.5698c0,15.563-9.418,26.4766-24.8584,27.5567-1.6387.1181-1.873-1.2998-.2646-1.6797,13.1308-3.104,22.0293-17.6548,23.4755-26.0274.1475-1.934,1.6475-1.4922,1.6475.1504Z" fill="#fff"/>
    </mask>
    <radialGradient id="radial-gradient-3" cx="54.1935339" cy="13.8487289" fx="54.1935339" fy="13.8487289" r="11.5586144" gradientTransform="translate(-6.4955054 -.233105) scale(.9748)" gradientUnits="userSpaceOnUse">
      <stop offset="0" stop-color="#fff"/>
      <stop offset=".601124" stop-color="#e19a00"/>
      <stop offset="1" stop-color="#995510"/>
    </radialGradient>
  </defs>
  <g isolation="isolate">
    <g id="Layer_1" data-name="Layer 1">
      <g>
        <path d="M64.7021,68.4399c7.6407-5.4741,12.6417-14.4086,12.6417-24.5268,0-2.5986-.3262-5.1152-.9405-7.5186-.709-4.3862-4.1152-16.7265-20.289-21.3427l-.0039.0332c-.168-.0494-.3233-.1133-.4874-.1636.1875-.9658-.3984-1.9243-1.3623-2.1651-.997-.2504-2.0058.3531-2.2519,1.355l-1.3545,5.4102c-.0381.146-.0147.2905-.0147.4365-2.0224-.4883-4.122-.7725-6.2949-.7725-14.8183,0-26.8291,12.0123-26.8291,26.8287,0,9.0327,4.4785,17.0063,11.3282,21.8676-2.2959,2.1089-3.6397,4.6538-3.6397,7.3907,0,.6811.1152,1.3466.2715,1.999.5967,3.7905,4.2578,7.1118,9.6015,9.1343,3.3047,1.3086,7.2168,2.0776,11.4278,2.0776.3398,0,.6758-.0244,1.0127-.0332,10.2881-.1431,17.5722-4.6787,19.5937-9.7695.3096-.2764.5948-1.0562.6407-1.9673.0234-.5039.0351-.9756.039-1.4341v-.0147c.0098-1.852-.2744-3.393-1.6572-5.1137-.4033-.5962-.9004-1.1616-1.4317-1.711ZM64.7373,25.1919v.0112c-.1348-.1284-.2725-.2529-.4082-.3769.1318.122.2734.2368.4082.3657ZM63.542,24.1362c-.2481-.2094-.5127-.4028-.7695-.602.2568.1992.5214.3926.7695.602ZM61.9492,22.9194c-.2724-.1919-.5517-.372-.8291-.5542.2774.1822.5567.3623.8291.5542ZM60.2529,21.8247c-.2851-.1719-.5849-.332-.8779-.4941.293.1621.5928.3222.8779.4941ZM58.4766,20.8647c-.3047-.1518-.625-.291-.9366-.4316.3116.1406.6319.2798.9366.4316ZM56.6211,20.0459c-.3311-.1294-.6553-.2441-.9932-.3604.3379.1163.6621.231.9932.3604ZM54.2656,20.4199l.2754-1.0942c.1641.0498.3311.1098.499.1611l-.4902,1.6865c3.9346,1.3487,7.4473,3.605,10.2969,6.5103l.0429,1.0952c-2.8886-3.4429-6.6357-6.1289-10.8974-7.7759.1162-.1767.2256-.3642.2734-.583Z" fill-rule="evenodd" stroke="#000" stroke-miterlimit="3.8637" stroke-width="4"/>
        <path d="M54.5498,21.1733c10.3897,3.565,17.8565,13.4244,17.8565,25.0201,0,1.1767-.0762,2.3374-.2295,3.477.4257-1.852.6543-3.7778.6543-5.7573,0-11.4429-7.4415-21.1338-17.7813-24.4434l-.5,1.7036Z" fill="url(#New_Gradient_355)" stroke="#000" stroke-miterlimit="3.8637" stroke-width="2"/>
        <g mask="url(#mask)">
          <g>
            <path d="M46.5049,62.0571c11.751,0,21.2861,5.9165,21.2861,13.2154,0,7.2944-9.5351,13.2109-21.2861,13.2109-11.7627,0-21.3008-5.9165-21.3008-13.2109,0-7.2989,9.5381-13.2139,21.3008-13.2154Z" fill="url(#New_Gradient_353)"/>
            <path d="M25.8516,80.9683s11.6982,5.8071,24.6484,2.5268c17.7773-4.4966,16.0781-15.0459,10.1113-21.5786-.5156-1.1265,25.752,21.3545-.3838,26.3877-26.1318,5.0356-34.3759-7.3359-34.3759-7.3359Z" fill="url(#New_Gradient_354)" fill-rule="evenodd"/>
            <g mask="url(#mask-1)">
              <g>
                <path d="M32.668,70.3828c0-4.6167,6.2285-8.3603,13.914-8.3603,7.6826,0,13.9141,3.7436,13.9141,8.3584,0,4.622-6.2315,8.3623-13.9141,8.3623-7.6855,0-13.914-3.7398-13.914-8.3604Z" fill="#6b3200" fill-rule="evenodd"/>
                <path d="M33.418,70.2393c0-4.6192,6.2314-8.3623,13.916-8.3623,7.6836,0,13.914,3.7431,13.914,8.3623,0,4.6142-6.2304,8.3613-13.914,8.3613-7.6846,0-13.916-3.7471-13.916-8.3613Z" fill="none" fill-rule="evenodd" stroke="#6b3200" stroke-miterlimit="3.8637" stroke-width="4.0834"/>
                <path d="M33.3047,70.2603c0-4.6124,6.2295-8.3584,13.916-8.3584,7.6816,0,13.9082,3.746,13.9082,8.3584,0,4.6206-6.2266,8.3627-13.9082,8.3608-7.6865,0-13.916-3.7402-13.916-8.3608Z" fill="none" fill-rule="evenodd" stroke="#6b3200" stroke-miterlimit="3.8637" stroke-width="3.447"/>
                <path d="M33.0918,70.3022c0-4.6186,6.2295-8.3637,13.9102-8.3637,7.6875,0,13.9169,3.7451,13.9169,8.3618,0,4.6201-6.2294,8.3643-13.9169,8.3643-7.6807,0-13.9102-3.7437-13.9102-8.3624Z" fill="none" fill-rule="evenodd" stroke="#7b3e00" stroke-miterlimit="3.8637" stroke-width="2.298"/>
                <path d="M32.8789,70.3447c0-4.6216,6.2315-8.3642,13.915-8.3642,7.6846.0019,13.917,3.7426,13.917,8.3642,0,4.6162-6.2324,8.3609-13.917,8.3609-7.6835,0-13.915-3.7442-13.915-8.3609Z" fill="none" fill-rule="evenodd" stroke="#8a4900" stroke-miterlimit="3.8637" stroke-width="1.149"/>
                <path d="M32.668,70.3828c0-4.6167,6.2285-8.3603,13.914-8.3603,7.6826,0,13.9141,3.7436,13.9141,8.3584,0,4.622-6.2315,8.3623-13.9141,8.3623-7.6855,0-13.914-3.7398-13.914-8.3604Z" fill="none" fill-rule="evenodd" stroke="#9a5500" stroke-miterlimit="3.8637"/>
              </g>
            </g>
          </g>
        </g>
        <path d="M41.1797,72.8657s12.2285,3.5977,24.0635-5.289c12.8261-9.628,12.5009-23.294,10.5634-31.023" fill="none" stroke="#9a5500" stroke-linecap="round" stroke-miterlimit="3.8637" stroke-width=".5357"/>
        <path d="M27.0029,76.1675c-.0039,5.0639,9.0401,9.8642,19.4688,9.8642,11.0097-.0009,19.5605-5.4965,19.5605-9.4692,0-1.0815,1.7354-1.0757,1.6241,0-.6329,6.0479-8.8946,12.0947-21.1846,11.9033-11.8164-.1806-21.0889-5.6938-21.0889-12.2998,0-1.0776,1.6201-1.0776,1.6201.0015Z" fill="url(#New_Gradient_352)"/>
        <g mask="url(#mask-2)">
          <g>
            <path d="M37.877,72.6279c2.9277.9468,6.0507,1.4585,9.2929,1.4585,16.6641,0,30.1739-13.5107,30.1739-30.1733,0-13.7539-9.1534-25.354-21.7217-28.9917l-1.3379,4.3144c10.7353,3.0718,18.5469,12.9566,18.5469,24.6773,0,14.168-11.4903,25.6587-25.6612,25.6587-2.5215,0-4.958-.3682-7.2646-1.0493l-2.0283,4.1054Z" fill="url(#New_Gradient_349)" fill-rule="evenodd"/>
            <path d="M55.8652,16.0845s15.8125,3.9858,20.7237,21.8921c0,0-.6534-17.2647-20.4746-22.9248l-.2491,1.0327Z" fill="url(#New_Gradient_351)" fill-rule="evenodd"/>
            <path d="M64.7275,24.9561c7.336,6.0673,14.6856,22.1513,1.5469,37.3461l-1.5469-37.3461Z" fill="url(#New_Gradient_350)" fill-rule="evenodd"/>
          </g>
        </g>
        <path d="M40.0186,63.5317c.623-.6211,3.0898.1602,3.2294.9258-.1318.481-3.1914,11.106-3.1914,11.106-.7353.5874-3.0293.0351-3.2207-.9263.1182-.4287,3.1827-11.1055,3.1827-11.1055Z" fill="url(#New_Gradient_348)" fill-rule="evenodd"/>
        <path d="M31.5449,82.728c-4.8574-2.5888-5.6103-6.2817-4.7441-9.8623.1191-2.6948,3.3281-5.1006,5.3096-6.2793,1.3925-.8305,2.2041.1089.8115.9512-5.2744,3.209-1.8809,9.4541.8838,12.3491,1.1543,1.2056-.8282,3.6001-2.2608,2.8413Z" fill="url(#New_Gradient_347)"/>
        <path d="M64.3633,69.3379s2.0722,1.6128,1.9199,6.3389c-.1455,4.7309,1.3604,3.2353,1.4688,1.0366.1503-3.0908.1503-5.1621-2.9444-7.9707l-.4443.5952Z" fill="#6b3200" fill-rule="evenodd"/>
        <g mask="url(#mask-3)">
          <g>
            <path d="M17.5156,46.0142c0-14.8164,12.0108-26.8287,26.8291-26.8287,14.8145-.0014,26.8252,12.0123,26.8252,26.8287,0,14.8125-12.0107,26.8212-26.8252,26.8212-14.8183.002-26.8291-12.0078-26.8291-26.8212Z" fill="url(#radial-gradient)" fill-rule="evenodd"/>
            <g mask="url(#mask-4)">
              <g>
                <path d="M69.1914,43.5698c0,15.563-9.418,26.4766-24.8584,27.5567-1.6387.1181-1.873-1.2998-.2646-1.6797,13.1308-3.104,22.0293-17.6548,23.4755-26.0274.1475-1.934,1.6475-1.4922,1.6475.1504Z" fill="#3c97f6"/>
                <path d="M69.9248,43.688c0,15.5635-9.418,26.4824-24.8633,27.5586-1.6377.1152-1.8779-1.3023-.2715-1.6768,13.1377-3.1084,22.0303-17.6562,23.4864-26.0298.1425-1.9336,1.6484-1.4975,1.6484.148Z" fill="none" stroke="#2b76b4" stroke-miterlimit="3.8637" stroke-width="2.6693"/>
                <path d="M69.5566,43.6274c0,15.5674-9.4209,26.4776-24.8574,27.5581-1.6416.1163-1.8769-1.2993-.2763-1.6772,13.1445-3.104,22.0332-17.6528,23.4853-26.0269.1514-1.9375,1.6484-1.497,1.6484.146Z" fill="none" stroke="#1459a5" stroke-miterlimit="3.8637" stroke-width="1.3347"/>
                <path d="M69.1914,43.5698c0,15.563-9.418,26.4766-24.8584,27.5567-1.6387.1181-1.873-1.2998-.2646-1.6797,13.1308-3.104,22.0293-17.6548,23.4755-26.0274.1475-1.934,1.6475-1.4922,1.6475.1504Z" fill="none" stroke="#1d3f99" stroke-miterlimit="3.8637"/>
              </g>
            </g>
            <path d="M34.6836,27.4536l.2187.2168c.4014.3682.8721,1.0796.0498,1.3901l-.2177.1309c-1.126.6167-1.4707-.3184-1.7998-1.0913-.4795-.3779-2.1241.4678-2.0489-.748.0147-.1661.0147-.6587-.1406-.793-1.9609-.2778-3.4092.9961-5.2392,1.4194-.6524.1538-1.3633.2344-1.9278.6201-.0351.2183-.1455.4107-.2763.5923-.7832-.1123-.6758-.3598-.3721-.7978,1.0439.144,1.0723-.8091,3.5547-.2744.875.186.5888,2.8667.2676,3.4648-.836,1.5869-.92.793-.6836,2.5884.0752.561-.0264.8911-.292,1.3681-.2862.8345-1.166.7383-1.3164.1099l-.0948.377c-.0713.2749-.1718.6113-.3613.9067-1.8906,3.0366-2.5351,3.5693-1.8223,7.4609.2295,1.3008.3877,2.4502.2032,3.7759-.0762.5581.167.9478.4804,1.3696l.4453.5933-.3925-.2407c-.2188.0307-.3838.8183-.3975.6489-.1738-2.3354-.5586-3.5576-.4834-5.8589.0361-1.2549,1.5117-.9189,1.7256,1.124.0352.3438.0566.6929.2041,1.0108.7275,1.5122,1.46,2.956,1.9189,4.5815.1133.4029-.0459,1.4693.0577,1.646.6748,1.0381,1.0957,2.0576,2.1894,2.7388.5029.3037,1.3565-.1255,2.1524.686.8173.8389,1.0683,2.4116,2.4804,2.063,2.7627-.6797,1.8018,1.2793,2.1973,2.1856.7803.4785,1.1484.0625,1.9258,1.1445.165.2319.4355.7749.7373.8169.4502-.2105.4912-.5313,1.164-.4404,1.128.1557,1.1846,1.2797,1.0772,2.123l-.0947.6455c-.2461,1.7666-2.0079,2.0718-2.2422,3.1494.4179.7281.1494,1.2012-.4434,1.6953-.0566.6524.8272,1.4327,1.1621,1.9732.3721.5698.5557,1.6201,1.0498,2.0054,1.0459.8271,3.1133.9521,2.8448,2.8432-.2969,2.1187-1.7706,2.6856-2.9932,4.0337,2.0215.0518,3.8086-1.6753,5.6904-2.3037,1.4492-.4775,3.0117-.4043,4.378-1.1338.5839-.2988.8916-1.249,1.7236-1.7432,1.6924-1.0131,4.1201-1.6582,4.7461-3.7675.1806-.5855.333-1.1695.6338-1.7173.6523-1.1646,1.708-2.0112,2.3476-3.166-1.6728-.2339-3.7558-.3892-4.0097-2.6011-2.2715-.3272-3.1895.0063-4.7969-1.6299-.2217-.2305-1.0215-1.0786-1.4844-.8857-.3408.2026-.2217.1206-.4893.2929-1.2597.7505-2.1621-.3022-3.3447-.4682-.6172.4575-.1035.8657-1.333.9985-.6924.0757-.8125-.7607-.7656-1.2432l.0381-.2475c-.0967-.1026-.166-.2168-.2002-.3477.2705.1612.5537.3199.8301.4815-1.1543.3188-2.1329,2.4614-3.6729,1.0844-.4717-.0522-.7607.2549-1.3877.1661-1.6865-.2373-3.3584-2.0313-1.9648-3.4058.1474-.4834-.1094-.7837-.8067-1.1558l-.3955.0743-.2158.0053-.8867-.1279-.5625-.7539c-.127-.5952.0888-1.0396.5508-1.4136.25-.1831.1386-.0971.3545-.2519.1123-.3355.1279-.5835.1455-.7959l-.6446-.2178-.1689.1606c-.5635.5454-1.0479,1.0733-1.9492.9468-4.8916-.6865-2.5547-9.8022,1.833-7.6225.1631.0835.2793.1391.4082.1655,1.2871-1.2202,4.1377.3457,3.9013,2.0815-.0478.3218.0518.628.3155.9058-.2032-2.4966-.7989-3.1895,1.4824-4.4009l.5205-.2637c1.1846-.6123,1.001-.9257,1.1846-2.1923.1943-1.4356,1.4404-2.1431,2.665-2.2891-.2803-1.0283.3223-1.6387,1.2608-1.8721l.3994-.0952c.4043-.0937.7177.1011.8076.4566.4814-.1065,1.0459-.2461,1.2461-.6109-.0762-.0933-.127-.1997-.1563-.3081.2715.1641.5371.3262.8047.4883-1.0898.2705-2.4248.3984-2.2724-1.3018-1.3614.0908-.9327-1.4458.4882-1.792l.3643-.0722c.2266-.042.5225.1089.7021.1963,1.2207-.5547,1.3975-.3897,1.5655.8881l.2119.0289c-.1553-.3511-.0469-.6426-.0801-.9976-.2285-.3037-1.3369-.5259-1.7549-.7759-.9463-.5845-1.5957-2.2827-2.2304-2.4765-.6622.5776-1.4805.1635-2.0176-.3863-.2725-.31-.1641-.188-.417-.4658-.3994-.4165-.5264-.2373-1.0205-.1768l.5801-.6958c.041.7823.9707,1.542-.4424,2.503l-.2656.1694-.211.1323c-.2598.1748-.2363.2784-.1426.5904l.0938.3379c.3994,1.6333-1.4092,1.5249-1.8565.0805-.3671-1.1904-.5927-1.0005-1.7978-1.4292-2.3086-.8266-1.5469-2.9038.1973-3.6655.54-.2402,1.8037-.5488,2.0097-1.1196-.6601-1.168,1.9268-2.1602,3.2725.5151.1035.1948.1084.3926.0381.5542.1377.0557.2734.1128.3994.186-.0352-.1274-.0215-.2519.0263-.3652l-.5517-.2349c-.9317-.4135-1.749-1.476-2.668-1.6049-.9463-.1333-.4844-1.6299-.1455-2.0987-.125,0-.2353.0103-.3252.0362.3848.4526.5713,1.0078.1504,1.3188l-.1699.1382c.7129,1.3325-1.0996,2.1606-1.5547,1.3618-.4443-.8061-.957-1.3101-.8086-2.3306l.6992.7588c.7715,1.1245-.5879,1.7344-1.4892,1.6118-.7344-.1054-2.1407-.2544-1.168-1.3701l.1338-.1455.041-.2871c-.3037-.064-.7803-.2153-1.083-.146ZM22.29,28.4619l.1719-.6753c1.1553-1.0254,2.2998-.8511,3.5772-1.3515,1.538-.6026,5.6865-2.7115,6.1474.2456l.2725-.0313c.376-.0224.8428.0166,1.2832.3667.29.2236.4336.5537.5303.896.0664-.0342.1377-.0659.2002-.0923l-.2911,1.0225c-.5107-.6777-1.4433-1.2857-.5732-2.2485.8037-.9053,1.9756-.2701,2.9404-.2222,1.0127.0552.6514,1.9067.1348,2.435-.0869.0913-1.0947-.9126-.5986-.8447,1.0586.1489.7197.2305,1.4687-.0981l-.3144.9404c-.3946-.6855-1.1905-1.8184.2334-2.2451.1191-.0357.247-.0576.3886-.0703l.3037-.0279c.9092-.061.5655.8594.8204,1.3575.1445.2822.3476.5576.5361.8881l-.6709-.2002c-.5156-.5141-.7451-.6738-.0889-1.2832-1.082-1.5083,1.1524-2.6186,2.9971-1.6328,1.0791.5694-.3359,1.3589-.5108,1.8633.9073.3389,1.4942,1.1485,2.3721,1.543.627.2876,2.5762,1.2583,1.916,2.1631.5567.979-1.5195,1.9541-2.041,1.2729-.5-.6811-1.7695-.8135-2.5156-1.2666-.8965-.5503-.1875-1.1528.4346-1.271-.0703-.0493-.1387-.0888-.211-.1201-.4843,2.1177-3.9834,1.8315-3.5732,3.064.3828.3701,1.7285.4282,2.5224,1.2544.3487.3603.4551.8237.5977,1.2812.0527.1616.0195.1651.0244.1694-.5127-.2509-.5371,1.272-.7353.462l-.0733-.2837c-.2558-.8531-.083-1.5557.6651-2.0601l.2724-.1767.208-.1304c.4268-.2842-.1103-.8447-.1396-1.3203-.0645-1.1245,1.9765-.9112,2.7246-.1304.3115.3374.1465.1577.4228.4644.084.083.1788.1674.2803.2211,1.332-1.1503,2.5293,1.0411,3.1651,1.9082.1543.2198.3144.3912.5253.5201,1.1485.6757,2.5645.3769,2.3799,2.3662.5459.4712,1.3653.6245,1.0772,1.6367-.2783.957-3.4678.5947-3.7901-.6782-.3427.1426-.664-.024-.9707-.1719-.209.0459-.3486.0879-.4257.2158l-.6075-1.0303c1.1758-.0815,1.7354-.0556,1.5049,1.2535l-.0322.2251c.3008-.0484.4551-.0982.6396-.1451l.8096.4898c-.1055-.0596-.1318-.1768-.1699-.2783,1.3389.7768-.2793,2.436-1.8076,2.7876-.4522.1035-1.2422.3842-1.5811-.0826l.1651.4068c.8974,2.2871-2.5215.3262-2.8096,2.3833-.2373,1.6924-.2246,2.3325-1.8975,3.1948l-.5029.2568c-.3565.1895-.7168.4097-.9649.7398l.2315,2.9736-.0166.208c-.667,2.7315-3.2295-.1235-2.9922-1.7915.0957-.6552-1.1494-.9311-1.583-1.0014-1.0635,1.0146-1.5781.0796-2.5147-.0542-2.0371-.2837-3.3115,4.9077-.538,5.2968.5263.0811,1.1162-1.2446,1.8613-1.1391,2.3721.3291,2.166-.0713,2.0498,1.6675-.0576.7656-.0127,1.2402-.6533,1.7441-.2227.1621-.125.0908-.2227.1621,1.916-.3413,3.7197,1.9253,2.2373,3.3955-.1094.749.9961,1.2593,1.6572,1.0347.6543-.2183,1.1592-.2481,1.7002.2285.543.084,1.6426-1.1509,2.4366-1.3696l.8232.4834c-.1035-.0611-.1387-.1783-.1631-.2788.1553.0927.2764.2021.3526.3383,1.1484-.7758,2.7939.7032,3.3291.481.3515-.2124.2011-.1206.4814-.2993,2.1484-1.2779,3.0811,1.7334,4.6172,1.9497,1.2617.1777,1.9766.2334,3.2383.4341,1.0595.1699-.0215,2.0288,1.7959,2.2773.5176.0737,1.8945.0532,2.4785.5786l.1719.1538s.372.5699.2588.8301c-.6368,1.4932-1.8956,2.4243-2.6622,3.8052-.6015,1.0864-.4355,2.0962-1.4238,3.1504-1.416,1.5078-2.7607,1.8227-4.4355,2.8296-.6621.3882-.791,1.2646-1.7862,1.771-1.5244.8173-3.0029.7036-4.5722,1.2221-2.3252.7784-5.0459,3.5279-7.5655,1.9585-1.1689-.7319,1.4317-2.7275,1.9473-3.1928,2.8106-2.5396.2871-2.3941-1.167-3.5523-.9297-.7236-.8135-1.5102-1.3389-2.3408-.7021-1.0982-2.3408-2.521-.8183-3.7861-.9609-1.7632,1.959-2.6792,2.1308-3.9371l.0948-.6167c.0224-.1806.0351-.3559.0302-.5146-1.9013,1.3472-2.3974-1.1841-3.2802-1.4712-.666-.2095-1.2324-.23-1.5547-.9697-.1992-.4483-.1563-.9268-.1797-1.4033l-.1523-.0855c-2.043.2695-2.2998.3272-3.6163-1.7471-.8535-1.3452-1.2304-.3999-2.3623-1.0952-1.3613-.8462-1.7841-1.8803-2.6054-3.1489-.5518-.8677-.0606-1.4272-.2237-2.0054-.2285-.7959-.5048-1.54-.8408-2.2964.1045.9517.2285,1.9107-1.0722,1.7266-.0665-.0098-.3995-.2041-.4336-.2583l-.4541-.5967c-1.2422-1.6631-.5401-2.2759-.6973-4.0913-.2529-2.9619-1.252-4.9585.4209-7.9018.3682-.6661.8408-1.293,1.3476-2.1109.544-.893.4688-3.3481,2.4551-2.3633.8301.1172.5117,1.1748.4405,1.6363l-1.2852-.3003c.0234-.103.0703-.1909.1152-.2774.5508-1.0102-.7675-1.4956.6729-3.5005.6943-.958.4365-1.1108.3867-2.1469l-.2607-.0469c-.5225-.0786-4.9922,1.7178-3.1836-.8169l.0761.0454ZM38.1729,40.4902l-.0557.1626-.0801.3594c-.3389,1.2705-1.626,1.8511-1.8252.7632-.1992-1.0835-.4961-2.2852.4971-3.0757l.2226-.1724.042,1.0962c-.1533-.102-.3017-.2304-.4443-.3554-.2139-.1612-1.3701-.1953-1.6377-.2061-.877-.0342-1.0283-.9932-.2041-1.2905,1.2051-.4361,2.9648-1.5318,3.7939.1733.3233.6529.377.6099,1.0821.8902.5146.2085,1.832.9311,1.1113,1.6494l-.3203.3203c-.3799.3623-.7852.6313-1.3047.7681-1.0205.2846-.7246-.8233-.8769-1.0826ZM39.1299,40.0967c-.4317-.1743-.8213-.3262-1.1895-.6192-.5107-.3921-.5488-.9228-.7129-1.0883-.747-.1021-1.4189.3935-2.083.6347l-.2002-1.2934c.7422.0298,1.8008.0122,2.4121.497.4082.3443,1.0957.8218.377,1.3682l-.1924.1426c-.5439.56.5088,1.5825-.9365,1.2944.0713-.0864.1152-.251.1406-.3608l.0869-.3262c.1592-.7222.5176-1.4038,1.4004-1.2769.9453.1304,1.4209,1.0889,1.3018,1.9561l-.8379-.7344c.1807-.0483.3105-.1128.4336-.1938ZM42.376,40.3364c1.332.6577-.9932,2.7266-3.3994,2.3853-.5586-.0757-1.6602-.2608-.9786-1.1406.9366-1.2193,2.1114-1.4937,3.4737-1.5933.2656-.0195.7597.2764.9043.3486ZM41.791,41.5273l-.4004-.1967c-1.1201.1001-1.7763.334-2.3408,1.0605l-.4355-1.0664c1.2685.1816,2.0332.1895,2.9795-.8423l.1972,1.0449ZM42.3838,55.708l.7529-.8555c.9317-.2338,2.0235.5894,2.9561.8155,1.2607.3071.1357,2.0263-1.6592,2.1064-.7022.0322-1.3936-.1152-2.083-.2134-.5567-.0747-.7676-.4409-.709-.9995l.0459-.2544c.3086-.2876.5313-.4736.6963-.5991ZM44.3887,56.4443c-.2237-.1049-.4336-.1889-.6719-.2485-.042.2959-.3379.5679-.6338.5815-.2451.0069-.3887.063-.6191.0933l.5664-.6968c.0097.1817-.0293.3628-.0625.542-.2959-.0361-.4678-.1811-.4336-.4736.6142.0879,1.2441.2295,1.8545.2021ZM38.2969,54.6187c-.2989.2607-.4629.3286-.585.3491l-.2471.0014c-1.8935-.3603-2.6972-2.7011.8477-2.2006,1.001.1401,1.5547.5122,2.4102.9824.749.4184,1.957.5415,1.7851,1.7842-.1894,1.3217-1.749.9785-2.5937.8593-.5157-.0761-.7412-.4946-.5118-.9565l.085-.1533c-.3652-.3057-.7129-.5562-1.1904-.666ZM37.4463,53.5923c.6826-.6319,1.5937-.2417,2.2881.2104.3945.25,1.3135.8907,1.2929,1.4043-.0019.3521-.2802.5264-.4335.8233l-.4991-.9566.4951.0689c-.8554-.3316-1.5322-.9253-2.4638-1.0537-.5606-.086-.8379-.0459-1.4854.0576l.5332-.8159c.0264.0996.0752.188.2725.2617ZM43.6533,26.8452l.2041.0781c.6826.4766,1.3155,1.2896,2.2149,1.3164.5566.0181.5566.6504.8916.9312.2705.2319.5654.4204.8105.6885.5664.6142,1.4356,1.8642,2.3848,1.7646.1113-.0136.2295-.0298.3838-.0259l-.6328.92c-.4073-.9844-1.6963-1.6109-.8448-3.0157.0489-.0761.0967-.142.1446-.2104.1474-.1812.0966-.1157.2236-.2734.0801-.1207.0908-.1475.0986-.1744-.0859-.0859-1.415-.4619-1.6904-.6103-1.3369-.7324-2.4824-1.9649-4.1885-1.3887ZM44.3018,28.9639c-.3467-.2495-.6729-.5611-1.0821-.8589-3.8506-.6514.2715-4.2285,3.878-1.9414.4248.2754.8369.6025,1.3808.8979.8985.4937,2.5889.4204,2.3701,1.9668-.0459.3028-.1845.5703-.3652.8081-.1602.1988-.084.1001-.2227.2725-.2705.4311.711,1.5083.875,1.9033.3633.8999-.7197,1.0142-1.288.9321-1.5147-.2124-2.1319-1.1801-3.0508-2.1904-.4229-.4565-.9239-.6147-1.2412-1.2349-.5039-.0937-.9034-.3046-1.2539-.5551Z" fill="url(#linear-gradient)"/>
            <g mask="url(#mask-5)">
              <g>
                <path d="M22.707,28.0122c.1621.4238-.5254.7022-.0615.7705,1.0293.1421,1.6201-.6284,2.6494-.4829.3516.0479.5127.1206.8487.1958-.0889.6904.1445,1.1475.0449,1.834-.1436,1.0376-.9942,1.3882-1.1446,2.4233-.0839.6436.2618,1.0396.168,1.6807-.0371.2935-.2099.4434-.2978.7095l.122-.8843c-.1982-.0303-.2783-.1421-.4785-.1694-1.0068-.1431-.792,1.3647-1.3125,2.2207-1.0049,1.6171-1.8564,2.5009-2.1172,4.3701-.3857,2.7514.7852,4.3725.3975,7.1216-.1387,1.038.4248,1.6171,1.0596,2.457.1523.0225.3007.0185.4082-.0415-.1807-2.3076-.5586-3.5127-.4864-5.7852.584.7847.2627,1.543.6582,2.399.8204,1.6953,1.3575,2.6499,1.8789,4.4746.1875.6562-.2177,1.25.1504,1.8271.7813,1.2114,1.1524,2.1685,2.3946,2.9463.6914.4248,1.4531.0039,2.0254.5825.8681.9033,1.0205,2.147,2.2802,2.3291.6358.0884,1.0313-.2553,1.669-.1679.7656.1088.2881,1.1909.583,1.8916.2734.6098,1.0517.396,1.5967.8222.6582.5186.7519,1.4107,1.5986,1.5288.4795.0659.6709-.5102,1.1562-.437.7891.1079.5323,1.2256.4229,2.0142-.2158,1.5205-2.0527,1.7163-2.2607,3.2373-.0401.2754.2373.4155.2041.6806-.044.3912-.5606.4737-.6241.8672-.1552,1.083.6875,1.5772,1.2637,2.4795.5088.8067.4443,1.5972,1.1924,2.1792,1.0381.8223,2.7793.9165,2.5937,2.2212-.3086,2.1831-2.2656,2.5908-3.4375,4.4785.208.1309.3243.2461.5645.2803,2.6309.3701,3.9141-1.4551,6.4355-2.3032,1.7159-.562,2.8887-.3223,4.4786-1.1792.8427-.4277.9355-1.2725,1.7558-1.7544,1.6934-1.0161,2.9326-1.273,4.2861-2.7109.8643-.9087.7286-1.9258,1.337-3.0196.8652-1.5576,1.9179-2.0893,2.6298-3.7461-.2089-.1264-.3085-.3384-.5771-.3808l-1.8164-.2534c-1.1328-.1602-1.9707-1.1529-1.8096-2.2828-1.2519-.2011-1.9687-.2544-3.2217-.4301-1.5996-.2242-1.9326-1.9742-3.5283-2.1983-.6943-.0972-.998.6607-1.6855.5611-.916-.1231-1.3477-.5879-2.2598-.7164-.5644-.0786-.835.4375-1.085.9517l-.4062.042c-.1035-.3643-.0039-.6499.0488-1.0435.0215-.1479-.2295-.163-.2607-.288-1.1445.3115-1.5283,1.5913-2.7051,1.4243-.2988-.0401-.4014-.357-.7031-.399-.5362-.0737-.8369.2847-1.3809.2071-1.0088-.1441-1.9883-.8565-1.8418-1.8638.0498-.3696.461-.4634.5127-.8291.1319-.9111-.5928-1.4897-1.4316-1.9097l-.6172.1123-.8828-.1245c.0234-.1699-.0664-.2842-.041-.4541.0879-.6377.9482-.6704,1.0361-1.311.084-.562.0039-.9258.208-1.4717l-1.624-.2314c-.6914.4287-1.0244,1.2646-1.8653,1.145-1.4736-.2075-2.3681-1.6885-2.1591-3.1616.2422-1.75,1.1455-3.6973,2.8916-3.4556.583.0825.8427.4165,1.4277.5015.4258.0586.5566-.5249.9717-.4634,1.1045.1543,2.417.664,2.2627,1.771-.1416,1.0078.5801,1.7109,1.4951,2.1631.0859-.2349.1299-.3824.1894-.6221l-.2568-3.1943c.8701-1.5103,2.9902-1.2876,3.2305-2.9815l.1572-1.1343c.1856-1.2988,1.6553-1.8994,2.9522-1.7129-.084-.4877-.3916-.7583-.3291-1.25.0781-.541.6855-.6059,1.2148-.7324-.0147.2183-.0029.3755.0117.6006,1.1758-.207,2.4639-.4043,2.624-1.5849.0274-.1441-.2246-.1587-.2607-.2891-.3828.0991-.6553.2085-1.0723.1509-.5605-.0786-.3711-.8824-.2441-1.4424-.3477-.0464-.5518-.0513-.9014-.021.2608-.3941.6182-.4658,1.086-.5532l.5566.2773c.3174-.1255.5361-.2461.8594-.3804.1045.4663-.0313,1.1031.456,1.1709l2.1455.3003c.1514-.5298-.5869-.6342-.9599-1.0381-.3281-.3427.0674-.8432-.2266-1.2368-.5117-.6723-1.25-.5483-1.9707-.9765-1.2236-.7471-1.2119-2.4019-2.6445-2.6016-.2696-.0381-.3721.3467-.6494.3086-.9532-.1343-1.0996-1.2588-2.0489-1.3906-.3027-.043-.4892.0576-.7734.0932.0332.5044.4014.7564.3252,1.2481-.1211.8359-1.3125.7944-1.4316,1.6299-.0694.5185.1875.8037.2119,1.3339-.7705-.0322-.545-1.1059-1.0655-1.6542-.9004-.9302-2.9218-.6641-2.7324-1.9649.252-1.8447,3.3838-1.2549,3.6377-3.0981.0225-.1475-.1435-.2237-.1494-.3472.2373-.0425.374-.1499.6211-.1128.7832.1069,1.1592.6387,1.5195,1.3389-.4697.1323-.7636.0942-1.2431.2285,1.0166.6181,1.9951.478,2.7089,1.4346l.9766-.4673c-.207-.3555-.3779-.5762-.6924-.8492.209-.0449.3906-.0708.6035-.0126-.4804-.8687-1.3798-.8736-2.1972-1.4405-.8282-.563-1.2168-1.1709-2.2305-1.313l.0732-.4663c.0811-.6176.4893-.8379.8829-1.3081-.2549-.1323-.4092-.2578-.7139-.2998-.6289-.0932-1.4434-.0508-1.5352.5879-.0576.3906.3262.52.4854.8682-.2774.2119-.4834.3628-.6875.6069.2197.2031.4375.4385.3867.7612-.0293.2159-.2568.2349-.4434.3345-.3857-.6821-.8486-1.124-.7343-1.9092-.3526.0264-.8086.0381-.8584.3804-.0606.4199.2685.6128.4668.9687-.3448.1524-.5684.3218-.9649.2647l-.8603-.123c.1025-.231.3437-.2974.3828-.5694l.1357-1.0083c-.5703-.0264-.8681-.1763-1.4394-.2529-.4639-.0703-1.0332.0766-1.1055.5449-.0684.5215.4336.6885.749,1.1113-.2431.0884-.373.2735-.6377.2329-.5107-.0717-.3349-.8208-.7382-1.1308-.545-.4263-1.0889-.1245-1.7901-.1494.041-.6485-.1006-1.4204-.7402-1.5069-1.7891-.2544-2.8252.5025-4.5332,1.1661-1.2647.499-2.3662.3461-3.3731,1.2309ZM34.7266,38.125c.8896-.3286,1.4375-.7988,2.3935-.668.6172.086.5596.8575,1.0371,1.2251.6524.5171,1.3076.4595,1.8526,1.0655-.4405.434-.7266.7441-1.3291.9126.0752-.542-.1993-1.128-.7393-1.2046-.8838-.1245-.4639,1.5385-1.2695,1.9253-.1309-.6949-.2393-1.1368-.1426-1.8272.0498-.3701.3262-.5527.6123-.7656-.3057-.1904-.4658-.4673-.8379-.5166-.4883-.0703-1.0879-.1284-1.5771-.1465ZM41.3232,40.3784l.5664.2818c-.832.9106-1.788,1.3027-3.0205,1.1323l-.5429-.0796c.7724-.9907,1.707-1.2363,2.997-1.3345ZM42.2471,56.6313c-.2725-.041-.0567-.4355-.0811-.6884.2617-.0391.418-.0933.6904-.1026.0108-.2256.0108-.3755-.0117-.6035.1758.0244.2657-.0659.4336-.043,1.0137.1436,1.4697.6084,2.4649.8482-.793,1.146-2.1426.7803-3.4961.5893ZM37.3936,54.043c-.5088-.0982-.9288-.3067-1.0567-.8286.6602-.1045,1.0195-.1543,1.6924-.0616.8994.1299,1.3809.4742,2.1758.9107.6025.332,1.542.4175,1.4482,1.1035-.0566.4189-.5664.4741-.9902.4165l-.8565-.1221c.1075-.2143.2286-.3716.376-.5468-.7324-.6583-1.2178-1.1265-2.208-1.2657-.165-.0219-.4209.3657-.581.3941ZM43.2783,27.1924c.9326.6577,1.4268,1.4057,2.586,1.4385.1201.7216.7451.8872,1.2285,1.4023.8701.9522,1.3769,1.7988,2.6504,1.9785.2236.0322.3554-.021.5839-.0171-.3398-.8271-1.1435-1.1909-1.0166-2.0727.085-.543.6055-.7173.6768-1.2598.1367-.9116-1.2285-.8476-2.0205-1.2881-1.1201-.6079-1.6924-1.3403-2.9678-1.521-1.1592-.1596-2.3125-.0234-2.8554,1.003.3125.1201.7871.3115,1.1347.3364Z" fill="url(#radial-gradient-2)" fill-rule="evenodd"/>
                <g mask="url(#mask-6)">
                  <g mix-blend-mode="screen" opacity=".3">
                    <path d="M69.1914,43.5698c0,15.563-9.418,26.4766-24.8584,27.5567-1.6387.1181-1.873-1.2998-.2646-1.6797,13.1308-3.104,22.0293-17.6548,23.4755-26.0274.1475-1.934,1.6475-1.4922,1.6475.1504Z" fill="#c9ffc9"/>
                    <path d="M69.9248,43.688c0,15.5635-9.418,26.4824-24.8633,27.5586-1.6377.1152-1.8779-1.3023-.2715-1.6768,13.1377-3.1084,22.0303-17.6562,23.4864-26.0298.1425-1.9336,1.6484-1.4975,1.6484.148Z" fill="none" stroke="#a7dbaa" stroke-miterlimit="3.8637" stroke-width="2.6693"/>
                    <path d="M69.5566,43.6274c0,15.5674-9.4209,26.4776-24.8574,27.5581-1.6416.1163-1.8769-1.2993-.2763-1.6772,13.1445-3.104,22.0332-17.6528,23.4853-26.0269.1514-1.9375,1.6484-1.497,1.6484.146Z" fill="none" stroke="#85cd92" stroke-miterlimit="3.8637" stroke-width="1.3347"/>
                    <path d="M69.1914,43.5698c0,15.563-9.418,26.4766-24.8584,27.5567-1.6387.1181-1.873-1.2998-.2646-1.6797,13.1308-3.104,22.0293-17.6548,23.4755-26.0274.1475-1.934,1.6475-1.4922,1.6475.1504Z" fill="none" stroke="#65bd7b" stroke-miterlimit="3.8637"/>
                  </g>
                </g>
                <path d="M22.707,28.0122c.1621.4238-.5254.7022-.0615.7705,1.0293.1421,1.6201-.6284,2.6494-.4829.3516.0479.5127.1206.8487.1958-.0889.6904.1445,1.1475.0449,1.834-.1436,1.0376-.9942,1.3882-1.1446,2.4233-.0839.6436.2618,1.0396.168,1.6807-.0371.2935-.2099.4434-.2978.7095l.122-.8843c-.1982-.0303-.2783-.1421-.4785-.1694-1.0068-.1431-.792,1.3647-1.3125,2.2207-1.0049,1.6171-1.8564,2.5009-2.1172,4.3701-.3857,2.7514.7852,4.3725.3975,7.1216-.1387,1.038.4248,1.6171,1.0596,2.457.1523.0225.3007.0185.4082-.0415-.1807-2.3076-.5586-3.5127-.4864-5.7852.584.7847.2627,1.543.6582,2.399.8204,1.6953,1.3575,2.6499,1.8789,4.4746.1875.6562-.2177,1.25.1504,1.8271.7813,1.2114,1.1524,2.1685,2.3946,2.9463.6914.4248,1.4531.0039,2.0254.5825.8681.9033,1.0205,2.147,2.2802,2.3291.6358.0884,1.0313-.2553,1.669-.1679.7656.1088.2881,1.1909.583,1.8916.2734.6098,1.0517.396,1.5967.8222.6582.5186.7519,1.4107,1.5986,1.5288.4795.0659.6709-.5102,1.1562-.437.7891.1079.5323,1.2256.4229,2.0142-.2158,1.5205-2.0527,1.7163-2.2607,3.2373-.0401.2754.2373.4155.2041.6806-.044.3912-.5606.4737-.6241.8672-.1552,1.083.6875,1.5772,1.2637,2.4795.5088.8067.4443,1.5972,1.1924,2.1792,1.0381.8223,2.7793.9165,2.5937,2.2212-.3086,2.1831-2.2656,2.5908-3.4375,4.4785.208.1309.3243.2461.5645.2803,2.6309.3701,3.9141-1.4551,6.4355-2.3032,1.7159-.562,2.8887-.3223,4.4786-1.1792.8427-.4277.9355-1.2725,1.7558-1.7544,1.6934-1.0161,2.9326-1.273,4.2861-2.7109.8643-.9087.7286-1.9258,1.337-3.0196.8652-1.5576,1.9179-2.0893,2.6298-3.7461-.2089-.1264-.3085-.3384-.5771-.3808l-1.8164-.2534c-1.1328-.1602-1.9707-1.1529-1.8096-2.2828-1.2519-.2011-1.9687-.2544-3.2217-.4301-1.5996-.2242-1.9326-1.9742-3.5283-2.1983-.6943-.0972-.998.6607-1.6855.5611-.916-.1231-1.3477-.5879-2.2598-.7164-.5644-.0786-.835.4375-1.085.9517l-.4062.042c-.1035-.3643-.0039-.6499.0488-1.0435.0215-.1479-.2295-.163-.2607-.288-1.1445.3115-1.5283,1.5913-2.7051,1.4243-.2988-.0401-.4014-.357-.7031-.399-.5362-.0737-.8369.2847-1.3809.2071-1.0088-.1441-1.9883-.8565-1.8418-1.8638.0498-.3696.461-.4634.5127-.8291.1319-.9111-.5928-1.4897-1.4316-1.9097l-.6172.1123-.8828-.1245c.0234-.1699-.0664-.2842-.041-.4541.0879-.6377.9482-.6704,1.0361-1.311.084-.562.0039-.9258.208-1.4717l-1.624-.2314c-.6914.4287-1.0244,1.2646-1.8653,1.145-1.4736-.2075-2.3681-1.6885-2.1591-3.1616.2422-1.75,1.1455-3.6973,2.8916-3.4556.583.0825.8427.4165,1.4277.5015.4258.0586.5566-.5249.9717-.4634,1.1045.1543,2.417.664,2.2627,1.771-.1416,1.0078.5801,1.7109,1.4951,2.1631.0859-.2349.1299-.3824.1894-.6221l-.2568-3.1943c.8701-1.5103,2.9902-1.2876,3.2305-2.9815l.1572-1.1343c.1856-1.2988,1.6553-1.8994,2.9522-1.7129-.084-.4877-.3916-.7583-.3291-1.25.0781-.541.6855-.6059,1.2148-.7324-.0147.2183-.0029.3755.0117.6006,1.1758-.207,2.4639-.4043,2.624-1.5849.0274-.1441-.2246-.1587-.2607-.2891-.3828.0991-.6553.2085-1.0723.1509-.5605-.0786-.3711-.8824-.2441-1.4424-.3477-.0464-.5518-.0513-.9014-.021.2608-.3941.6182-.4658,1.086-.5532l.5566.2773c.3174-.1255.5361-.2461.8594-.3804.1045.4663-.0313,1.1031.456,1.1709l2.1455.3003c.1514-.5298-.5869-.6342-.9599-1.0381-.3281-.3427.0674-.8432-.2266-1.2368-.5117-.6723-1.25-.5483-1.9707-.9765-1.2236-.7471-1.2119-2.4019-2.6445-2.6016-.2696-.0381-.3721.3467-.6494.3086-.9532-.1343-1.0996-1.2588-2.0489-1.3906-.3027-.043-.4892.0576-.7734.0932.0332.5044.4014.7564.3252,1.2481-.1211.8359-1.3125.7944-1.4316,1.6299-.0694.5185.1875.8037.2119,1.3339-.7705-.0322-.545-1.1059-1.0655-1.6542-.9004-.9302-2.9218-.6641-2.7324-1.9649.252-1.8447,3.3838-1.2549,3.6377-3.0981.0225-.1475-.1435-.2237-.1494-.3472.2373-.0425.374-.1499.6211-.1128.7832.1069,1.1592.6387,1.5195,1.3389-.4697.1323-.7636.0942-1.2431.2285,1.0166.6181,1.9951.478,2.7089,1.4346l.9766-.4673c-.207-.3555-.3779-.5762-.6924-.8492.209-.0449.3906-.0708.6035-.0126-.4804-.8687-1.3798-.8736-2.1972-1.4405-.8282-.563-1.2168-1.1709-2.2305-1.313l.0732-.4663c.0811-.6176.4893-.8379.8829-1.3081-.2549-.1323-.4092-.2578-.7139-.2998-.6289-.0932-1.4434-.0508-1.5352.5879-.0576.3906.3262.52.4854.8682-.2774.2119-.4834.3628-.6875.6069.2197.2031.4375.4385.3867.7612-.0293.2159-.2568.2349-.4434.3345-.3857-.6821-.8486-1.124-.7343-1.9092-.3526.0264-.8086.0381-.8584.3804-.0606.4199.2685.6128.4668.9687-.3448.1524-.5684.3218-.9649.2647l-.8603-.123c.1025-.231.3437-.2974.3828-.5694l.1357-1.0083c-.5703-.0264-.8681-.1763-1.4394-.2529-.4639-.0703-1.0332.0766-1.1055.5449-.0684.5215.4336.6885.749,1.1113-.2431.0884-.373.2735-.6377.2329-.5107-.0717-.3349-.8208-.7382-1.1308-.545-.4263-1.0889-.1245-1.7901-.1494.041-.6485-.1006-1.4204-.7402-1.5069-1.7891-.2544-2.8252.5025-4.5332,1.1661-1.2647.499-2.3662.3461-3.3731,1.2309ZM34.7266,38.125c.8896-.3286,1.4375-.7988,2.3935-.668.6172.086.5596.8575,1.0371,1.2251.6524.5171,1.3076.4595,1.8526,1.0655-.4405.434-.7266.7441-1.3291.9126.0752-.542-.1993-1.128-.7393-1.2046-.8838-.1245-.4639,1.5385-1.2695,1.9253-.1309-.6949-.2393-1.1368-.1426-1.8272.0498-.3701.3262-.5527.6123-.7656-.3057-.1904-.4658-.4673-.8379-.5166-.4883-.0703-1.0879-.1284-1.5771-.1465ZM41.3232,40.3784l.5664.2818c-.832.9106-1.788,1.3027-3.0205,1.1323l-.5429-.0796c.7724-.9907,1.707-1.2363,2.997-1.3345ZM42.2471,56.6313c-.2725-.041-.0567-.4355-.0811-.6884.2617-.0391.418-.0933.6904-.1026.0108-.2256.0108-.3755-.0117-.6035.1758.0244.2657-.0659.4336-.043,1.0137.1436,1.4697.6084,2.4649.8482-.793,1.146-2.1426.7803-3.4961.5893ZM37.3936,54.043c-.5088-.0982-.9288-.3067-1.0567-.8286.6602-.1045,1.0195-.1543,1.6924-.0616.8994.1299,1.3809.4742,2.1758.9107.6025.332,1.542.4175,1.4482,1.1035-.0566.4189-.5664.4741-.9902.4165l-.8565-.1221c.1075-.2143.2286-.3716.376-.5468-.7324-.6583-1.2178-1.1265-2.208-1.2657-.165-.0219-.4209.3657-.581.3941ZM43.2783,27.1924c.9326.6577,1.4268,1.4057,2.586,1.4385.1201.7216.7451.8872,1.2285,1.4023.8701.9522,1.3769,1.7988,2.6504,1.9785.2236.0322.3554-.021.5839-.0171-.3398-.8271-1.1435-1.1909-1.0166-2.0727.085-.543.6055-.7173.6768-1.2598.1367-.9116-1.2285-.8476-2.0205-1.2881-1.1201-.6079-1.6924-1.3403-2.9678-1.521-1.1592-.1596-2.3125-.0234-2.8554,1.003.3125.1201.7871.3115,1.1347.3364Z" fill="none" fill-rule="evenodd"/>
              </g>
            </g>
          </g>
        </g>
        <path d="M54.2656,20.4199c-.25.9971-1.2549,1.6026-2.2529,1.353h0c-.9971-.2495-1.6006-1.2568-1.3584-2.2514l1.3545-5.4102c.2461-1.0019,1.2549-1.6054,2.2519-1.355h0c.9981.2486,1.6084,1.2554,1.3575,2.2515l-1.3526,5.4121Z" fill="url(#radial-gradient-3)" fill-rule="evenodd"/>
      </g>
    </g>
  </g>
</svg>