<?xml version='1.0' encoding='UTF-8'?>
<svg xmlns="http://www.w3.org/2000/svg" xmlns:xlink="http://www.w3.org/1999/xlink" id="Layer_1" data-name="Layer 1" width="96" height="96" viewBox="0 0 96 96">
  <defs>
    <linearGradient id="New_Gradient_301" data-name="New Gradient 301" x1="18.1644189" y1="59.8479929" x2="61.7240345" y2="23.2971355" gradientUnits="userSpaceOnUse">
      <stop offset="0" stop-color="#d9d9d9"/>
      <stop offset=".455063" stop-color="#fff"/>
      <stop offset="1" stop-color="#d9d9d9"/>
    </linearGradient>
    <linearGradient id="New_Gradient_301-2" data-name="New Gradient 301" x1="17.5175834" y1="58.0652365" x2="58.3715162" y2="23.7847166" gradientUnits="userSpaceOnUse"><stop offset="0" stop-color="#d9d9d9"/><stop offset=".455063" stop-color="#fff"/><stop offset="1" stop-color="#d9d9d9"/></linearGradient>
    <linearGradient id="New_Gradient_300" data-name="New Gradient 300" x1="14.1053443" y1="20.4049502" x2="66.5561266" y2="65.9997196" gradientUnits="userSpaceOnUse">
      <stop offset="0" stop-color="#e5e5e5"/>
      <stop offset="1" stop-color="#f2f2f2"/>
    </linearGradient>
    <mask id="mask" x="19.2948777" y="24.9976" width="42.5883989" height="43.7397" maskUnits="userSpaceOnUse">
      <polygon points="37.5458772 39.3003 37.5458772 33.4849 59.9081767 27.877 59.9081767 51.1069 37.5458772 56.7212 37.5458772 62.5381 20.7680776 66.7471 20.7680776 43.5083 37.5458772 39.3003" fill="#fff" fill-rule="evenodd" stroke="#fff" stroke-miterlimit="3.8637" stroke-width=".9779"/>
    </mask>
    <linearGradient id="New_Gradient_299" data-name="New Gradient 299" x1="20.2228159" y1="13.6261276" x2="58.9555461" y2="71.0497615" gradientUnits="userSpaceOnUse">
      <stop offset="0" stop-color="#b2b2b2"/>
      <stop offset="1" stop-color="#e5e5e5"/>
    </linearGradient>
    <linearGradient id="New_Gradient_298" data-name="New Gradient 298" x1="45.3052643" y1="76.3472819" x2="77.7475925" y2="49.1249363" gradientUnits="userSpaceOnUse">
      <stop offset="0" stop-color="gray"/>
      <stop offset=".117981" stop-color="#b2b2b2"/>
      <stop offset=".516861" stop-color="#fff"/>
      <stop offset=".882019" stop-color="#b2b2b2"/>
      <stop offset="1" stop-color="gray"/>
    </linearGradient>
    <linearGradient id="New_Gradient_298-2" data-name="New Gradient 298" x1="45.7070681" y1="72.2963635" x2="73.8152958" y2="48.71076" gradientUnits="userSpaceOnUse"><stop offset="0" stop-color="gray"/><stop offset=".117981" stop-color="#b2b2b2"/><stop offset=".516861" stop-color="#fff"/><stop offset=".882019" stop-color="#b2b2b2"/><stop offset="1" stop-color="gray"/></linearGradient>
    <mask id="mask-1" x="43.7660771" y="44.7140845" width="39.426799" height="40.7161713" maskUnits="userSpaceOnUse">
      <path d="M63.6986766,45.8774c10.7670997-2.5908,19.4941995,4.0342,19.4941995,14.7998,0,10.7662-8.7270998,21.5948-19.4941995,24.1905-10.7670997,2.5942-19.4935995-4.0303-19.4935995-14.7954,0-10.7671,8.7264998-21.6006,19.4935995-24.1949Z" fill="#fff"/>
    </mask>
    <radialGradient id="New_Gradient_292" data-name="New Gradient 292" cx="75.1224017" cy="76.4607443" fx="75.1224017" fy="76.4607443" r="31.1403742" gradientUnits="userSpaceOnUse">
      <stop offset="0" stop-color="#e5e5e5"/>
      <stop offset=".280899" stop-color="#e5e5e5"/>
      <stop offset="1" stop-color="#999"/>
    </radialGradient>
    <radialGradient id="New_Gradient_293" data-name="New Gradient 293" cx="53.3354408" cy="75.1246818" fx="53.3354408" fy="75.1246818" r="27.6651941" gradientTransform="translate(15.7336933 -1.0487063) scale(.9688)" gradientUnits="userSpaceOnUse">
      <stop offset="0" stop-color="#fff"/>
      <stop offset=".48877" stop-color="#f2f2f2"/>
      <stop offset="1" stop-color="#ccc"/>
    </radialGradient>
    <linearGradient id="New_Gradient_285" data-name="New Gradient 285" x1="79.3028057" y1="80.9753016" x2="48.0979432" y2="49.7704392" gradientUnits="userSpaceOnUse">
      <stop offset="0" stop-color="#fff"/>
      <stop offset="1" stop-color="#737373"/>
    </linearGradient>
  </defs>
  <g>
    <path d="M17.085,24.4541l41.8954767-10.5117c.7314-.1841,2.8231999,1.4624,3.3426999,2.0849.2979.2217.4844.5948.4844,1.0601v40.8809c0,.8906-.6821,1.7846-1.5224,1.9985l-41.8925989,10.5146c-.5918.1451-1.0977-.081-1.354-.5356-.5567-.5879-2.4755777-1.8511-2.4755777-2.6152V26.4531c0-.8921.6801778-1.7876,1.522-1.999Z" fill="url(#New_Gradient_301)" stroke="#000" stroke-miterlimit="3.8637" stroke-width="4"/>
    <path d="M17.085,24.4541l41.8954767-10.5117c.8354-.2134,3.4575233,2.2256,3.4575233,2.2256l-1.9395234,39.083c0,.8926-.6826,1.789-1.518,2l-40.788099,12.8486s-2.6293777-1.875-2.6293777-2.769V26.4531c0-.8921.6801778-1.7876,1.522-1.999Z" fill="url(#New_Gradient_301-2)" fill-rule="evenodd"/>
    <path d="M17.8622777,27.8037c0-.562.4561-1.1328,1.0181-1.2734l42.9012989-10.7652c.5625-.1416,1.0166.1993,1.0166.7603v42.0771c0,.5606-.4541,1.1304-1.0166,1.272l-42.9012989,10.7642c-.562.1421-1.0181-.1968-1.0181-.7627V27.8037Z" fill="url(#New_Gradient_300)"/>
    <polygon points="20.0092777 29.3643 60.4374766 19.2207 60.4374766 24.8823 20.0092777 35.0308 20.0092777 29.3643" fill="#3c97f6"/>
    <g mask="url(#mask)">
      <g>
        <polygon points="37.5458772 39.3003 37.5458772 33.4849 59.9081767 27.877 59.9081767 51.1069 37.5458772 56.7212 37.5458772 62.5381 20.7680776 66.7471 20.7680776 43.5083 37.5458772 39.3003" fill="#fff" fill-rule="evenodd"/>
        <polygon points="19.2948777 40.1851 26.2587775 41.4126 26.2587775 68.7373 19.2948777 67.5088 19.2948777 40.1851" fill="#b7e9ff"/>
        <polygon points="54.3876768 24.9976 61.8832766 26.3198 61.8832766 56.834 54.3876768 55.5122 54.3876768 24.9976" fill="#b7e9ff"/>
        <polygon points="37.5458772 39.3003 37.5458772 33.4849 59.9081767 27.877 59.9081767 51.1069 37.5458772 56.7212 37.5458772 62.5381 20.7680776 66.7471 20.7680776 43.5083 37.5458772 39.3003" fill="none" fill-rule="evenodd" stroke="#b2b2b2" stroke-miterlimit="3.8637" stroke-width=".9779"/>
      </g>
    </g>
    <line x1="31.9516774" y1="40.4419" x2="31.9516774" y2="64.1689" fill="none" stroke="#b2b2b2" stroke-miterlimit="3.8637" stroke-width=".9779"/>
    <line x1="37.5458772" y1="33.144" x2="37.5458772" y2="62.6509" fill="none" stroke="#b2b2b2" stroke-miterlimit="3.8637" stroke-width=".9779"/>
    <line x1="43.1356771" y1="32.083" x2="43.1356771" y2="55.3169" fill="none" stroke="#b2b2b2" stroke-miterlimit="3.8637" stroke-width=".9779"/>
    <line x1="48.7235769" y1="30.6821" x2="48.7235769" y2="53.6104" fill="none" stroke="#b2b2b2" stroke-miterlimit="3.8637" stroke-width=".9779"/>
    <line x1="54.3183768" y1="28.8213" x2="54.3183768" y2="52.3198" fill="none" stroke="#b2b2b2" stroke-miterlimit="3.8637" stroke-width=".9779"/>
    <line x1="26.3583775" y1="42.0742" x2="26.3583775" y2="65.3462" fill="none" stroke="#b2b2b2" stroke-miterlimit="3.8637" stroke-width=".9779"/>
    <line x1="20.6591777" y1="43.5352" x2="59.9081767" y2="33.6807" fill="none" stroke="#b2b2b2" stroke-miterlimit="3.8637" stroke-width=".9779"/>
    <line x1="20.8778776" y1="49.291" x2="60.0185767" y2="39.4688" fill="none" stroke="#b2b2b2" stroke-miterlimit="3.8637" stroke-width=".9779"/>
    <line x1="20.8778776" y1="55.0991" x2="59.6942767" y2="45.3584" fill="none" stroke="#b2b2b2" stroke-miterlimit="3.8637" stroke-width=".9779"/>
    <line x1="20.9833776" y1="60.8848" x2="60.0185767" y2="51.0864" fill="none" stroke="#b2b2b2" stroke-miterlimit="3.8637" stroke-width=".9779"/>
    <path d="M17.5131777,68.7881V29.1836c0-1.479.249-2.5327,1.8906-3.0024,1.3833-.396,41.7450989-10.6119,41.7450989-10.6119.6221234-.1606,1.021.8448.4004,1.0039,0,0-40.3392766,10.212-41.7221989,10.6075-1.125.3183-1.2988.8945-1.2988,2.1816v39.603c0,.6807-1.0151.5-1.0151-.1772Z" fill="url(#New_Gradient_299)"/>
  </g>
  <g>
    <path d="M80.9086761,51.9648l.4683239.7872c-.1504239-.2647-.3057239-.5264-.4683239-.7872ZM48.053677,80.8232l-2.8842999-2.3037c-3.7435999-2.8071-5.9632998-7.3252-5.9632998-13.0097,0-11.3062,9.1683998-22.6807,20.4676995-25.4019,7.7270998-1.8608,14.3872233.7871,17.9360995,6.272l3.2987999,5.5849c.1626.2608.3179.5225.4683239.7872,1.269,2.3222,1.9852761,5.0869,1.9852761,8.1992,0,10.7734-8.6801998,21.4995-19.3734995,24.0752-6.4335998,1.5512-12.2607766-.2027-15.9350996-4.2032Z" fill="url(#New_Gradient_298)" stroke="#000" stroke-miterlimit="3.8637" stroke-width="4"/>
    <path d="M81.377,52.752l-1.2325239,2.8891c0,11.3076-9.1644761,22.6792-20.4706995,25.4019-5.6161999,1.3554-9.7142998,1.3066-9.7142998,1.3066l-4.7900999-3.8301c-3.7435999-2.8071-5.9632998-7.3252-5.9632998-13.0097,0-11.3062,9.1683998-22.6807,20.4676995-25.4019,7.7270998-1.8608,14.3872233.7871,17.9360995,6.272l3.7671238,6.3721Z" fill="url(#New_Gradient_298-2)" fill-rule="evenodd"/>
    <g mask="url(#mask-1)">
      <g>
        <path d="M63.6986766,45.8774c10.7670997-2.5908,19.4941995,4.0342,19.4941995,14.7998,0,10.7662-8.7270998,21.5948-19.4941995,24.1905-10.7670997,2.5942-19.4935995-4.0303-19.4935995-14.7954,0-10.7671,8.7264998-21.6006,19.4935995-24.1949Z" fill="url(#New_Gradient_292)"/>
        <path d="M62.2841766,45.2495c10.2299997-2.4673,18.5219995,3.8272,18.5219995,14.0557,0,10.2265-8.2919998,20.519-18.5219995,22.9829-10.2275997,2.4614-18.5180995-3.8335-18.5180995-14.0557,0-10.2339,8.2904998-20.521,18.5180995-22.9829Z" fill="url(#New_Gradient_293)"/>
      </g>
    </g>
    <g>
      <polygon points="69.8886764 52.2031 70.9828764 51.9404 70.9828764 47.8213 70.0175764 48.0566 68.6210764 49.3018 69.1068764 49.9268 69.8886764 49.1831 69.8886764 52.2031" fill="#737373" fill-rule="evenodd"/>
      <path d="M73.7953763,56.0747l2.9833999-.7163v-.7773l-1.6313.392.2983-.3222c.3892237-.4321,1.2495-1.4507,1.2495-2.2539,0-.8203-.6562-1.0518-1.5791-.8277-.2391763.0577-.6299.1822-1.2226.5362l.0439.8423c.2539-.2046.7275237-.4541,1.0806-.5411.3296-.0796.5849237.0142.5849237.377,0,.5581-.9668237,1.583-1.8076237,2.5093v.7817Z" fill="#737373" fill-rule="evenodd"/>
      <path d="M75.8563763,59.7715c.2344-.1651.584-.3106.9522-.3945.3271-.0826.709-.0982.709.2963,0,.3379-.419.5572-.6743.6197-.1524.0361-.2828.0747-.4707.1001v.7324c.1264238-.0381.2802-.0801.4589-.1235.2593-.0621.75-.1348.75.2924,0,.4219-.5048.647-.8324762.7237-.3916238.0976-.7563237.1421-1.019.0517l-.0557237.8809c.2959.0342.7427237-.0381,1.2066-.1465.8007-.1958,1.7963-.7036,1.7963-1.7168,0-.5103-.3211762-.7583-.8188-.7378v-.0142c.4551-.2343.7549-.6113.7549-1.0844,0-.8989-.8482-.9229-1.6148-.7344-.4564762.1079-.8232.2554-1.2006.4585l.0585.7964Z" fill="#737373" fill-rule="evenodd"/>
      <path d="M75.1234763,70.3926l1.0284-.2471v-.7817l.5815-.1421v-.7442l-.5815.1412v-2.5904l-1.2138762.2945-1.6548237,2.8569v.873l1.8403-.4414v.7813ZM75.1942763,68.8486l-1.1294.2705,1.1167-2.0087.0127-.002v1.7402Z" fill="#737373" fill-rule="evenodd"/>
      <path d="M68.6332764,75.1104c.2959-.148.5981-.2437.898-.3179.4365-.1021.9169-.0767.9169.3833,0,.5288-.4306.7651-.8344.8608-.3472.0825-.689.0962-1.0025.02l-.0185.8931c.3364,0,.6982236-.0205,1.1064-.1201.917-.2168,1.8106-.7964,1.8106-1.9458,0-.9087-.7393-1.0928-1.5762-.8941-.0723.0157-.1719.0518-.3242.1026v-.686l1.7412-.4209v-.7417l-2.6855764.6455-.0317236,2.2212Z" fill="#737373" fill-rule="evenodd"/>
      <path d="M63.9325766,76.4033c-.3154-.0464-.6504-.0303-1.0683.0674-1.3642766.3301-1.8212766,1.4829-1.8212766,2.7495,0,1.0303.414,1.853,1.581,1.5728.9120766-.2222,1.5502766-1.0083,1.5502766-1.7666,0-.7383-.4775-1.1846-1.2348-1.003-.4131.1006-.6958.3106-.8892.6329l-.0156.0058c.0068-.729.2319-1.2666.9653234-1.4419.4003766-.0986.6903766-.0664.8656766.0088l.0669-.8257ZM62.0844766,79.583c0-.3208.1782-.6509.5376-.7392.3799234-.0899.5219234.1884.5219234.5283,0,.3164-.1796234.6308-.5219234.7119-.3555.0869-.5376-.167-.5376-.501Z" fill="#737373" fill-rule="evenodd"/>
      <polygon points="54.52 80.5234 55.7020768 80.2393 57.1771767 76.6606 57.1771767 75.7686 54.2118768 76.479 54.2118768 77.2573 56.0531768 76.8159 54.52 80.5234" fill="#737373" fill-rule="evenodd"/>
      <path d="M48.9613769,73.4023c0,.4053.3223.67.71.7071v.0107-.0039c-.4458.2344-.8173769.6084-.8173769,1.209,0,.8442.7191769,1.0034,1.6044769.7871.8638-.2056,1.6186-.7334,1.6186-1.6177,0-.6211-.3857-.7827-.8339-.8188v-.0103c.3613-.2192.6811-.5986.6811-1.1045,0-.728-.602-.915-1.4199-.7182-.812.1958-1.543.6831-1.543,1.5595ZM51.0145769,74.708c0,.334-.2543.5928-.5644.666-.293.0708-.5347-.0903-.5347-.3843,0-.3217.2124-.5415.4771-.7294.2807.0156.622.081.622.4477ZM49.9535769,73.1675c0-.2822.2183-.5357.4819-.5977.2413-.0591.4971.021.4971.3155,0,.2763-.1767.4682-.4687.7021-.2544-.0503-.5103-.106-.5103-.4199Z" fill="#737373" fill-rule="evenodd"/>
      <path d="M47.095677,69.9653c.3145.0469.6514.0288,1.069323-.0693,1.3627769-.3301,1.8193769-1.4829,1.8193769-2.7432,0-1.0332-.4073-1.8545-1.5821-1.5757-.9096.2208-1.547277,1.0049-1.547277,1.7691,0,.7363.481377,1.1797,1.233877.9976.414-.0982.6967-.3086.892123-.6329l.0121769-.0019c-.0078.7261-.2305,1.2641-.9629,1.4424-.4014.0962-.69.062-.8662-.0103l-.0684.8242ZM48.9452769,66.7891c0,.3149-.1758.6494-.5381.7353-.3808.0903-.5219-.186-.5219-.5278,0-.3179.1792-.6289.5219-.7119.3555-.086.5381.1655.5381.5044Z" fill="#737373" fill-rule="evenodd"/>
      <g>
        <polygon points="48.5092769 63.1987 49.6068769 62.9351 49.6068769 58.8198 48.6395769 59.0488 47.241177 60.2969 47.731377 60.9238 48.5092769 60.1777 48.5092769 63.1987" fill="#737373" fill-rule="evenodd"/>
        <path d="M51.7826769,62.4858c1.3638-.332,1.5972-1.4506,1.5972-2.519,0-1.0679-.2334-2.0713-1.5972-1.7461-1.3623.332-1.5952,1.4487-1.5952,2.5171,0,1.0669.2329,2.0723,1.5952,1.748ZM51.7826769,61.7397c-.4951.1197-.5371-.6005-.5371-1.2587,0-.6539.042-1.3965.5371-1.5157.4966-.1191.5381.604.5381,1.2554,0,.6582-.0415,1.3999-.5381,1.519Z" fill="#737373" fill-rule="evenodd"/>
      </g>
      <g>
        <polygon points="53.7543768 56.0415 54.8520768 55.7788 54.8520768 51.6611 53.8837768 51.8916 52.4862768 53.1416 52.9735768 53.7656 53.7543768 53.0215 53.7543768 56.0415" fill="#737373" fill-rule="evenodd"/>
        <polygon points="56.5946767 55.3584 57.6933767 55.0942 57.6933767 50.9746 56.7265767 51.209 55.3261768 52.4565 55.8168768 53.0781 56.5946767 52.3369 56.5946767 55.3584" fill="#737373" fill-rule="evenodd"/>
      </g>
      <g>
        <polygon points="61.2587766 51.7769 62.354 51.5103 62.354 47.3945 61.3891766 47.625 59.9882767 48.8735 60.481 49.4961 61.2587766 48.7544 61.2587766 51.7769" fill="#737373" fill-rule="evenodd"/>
        <path d="M62.7914766,51.4048l2.9785234-.7183v-.7783l-1.6269234.3955.2924-.3252c.3916-.4326,1.2579-1.4477,1.2579-2.248,0-.8213-.6582-1.0528-1.5772-.8311-.2456.0596-.6357.1782-1.2246.5371l.041.8452c.2539-.2119.7256-.4604,1.084-.5439.3247-.0776.582.0117.582.3779,0,.5552-.9697,1.5791-1.8071,2.5044v.7847Z" fill="#737373" fill-rule="evenodd"/>
      </g>
    </g>
    <path d="M63.4101766,45.7183c10.8398234-2.6079,19.9520995,4.1479,19.9520995,15.2329,0,10.7734-8.6801998,21.4995-19.3734995,24.0752-10.8354997,2.6084-19.9496995-4.1451-19.9496995-15.229,0-10.7784,8.6805998-21.5015,19.3710995-24.0791ZM63.9887766,47.2085c-10.1938997,2.4556-18.4452995,12.7432-18.4452995,22.852,0,9.8023,7.8177998,15.899,17.8666995,13.4761,10.1961997-2.4551,18.4491995-12.7436,18.4491995-22.8496,0-9.8047-7.8163761-15.9009-17.8705995-13.4785Z" fill="url(#New_Gradient_285)"/>
    <path d="M62.7245766,67.4561c0,2.2021,3.6786999,1.249,3.6786999-1.1524,0-1.2021-.8008-11.7012-.8008-11.7012l-1.6064.3174-1.2715,12.5362Z" fill="#b2b2b2" fill-rule="evenodd"/>
    <path d="M63.0966766,65.5918c-1.7002.7607-1.2036,4.3188.6523234,3.4873.9257765-.4145,11.6283763-5.1143,11.6283763-5.1143l-.0097-1.3764-12.2709997,3.0034Z" fill="#b2b2b2" fill-rule="evenodd"/>
    <path d="M61.9062766,66.855c0,2.2046,3.6777234,1.2485,3.6777234-1.1509,0-1.2021-.8067235-11.7041-.8067235-11.7041l-1.5986.3208-1.2724,12.5342Z" fill="#a70000" fill-rule="evenodd"/>
    <path d="M63.002,64.5732c-1.6954234.7627-1.1968234,4.3199.6561766,3.4922.9248234-.4194,11.6259997-5.1167,11.6259997-5.1167l-.0059-1.3774-12.2762763,3.0019Z" fill="red" fill-rule="evenodd"/>
  </g>
</svg>