<?xml version="1.0" encoding="UTF-8"?>
<svg id="Layer_1" data-name="Layer 1" xmlns="http://www.w3.org/2000/svg" width="96" height="96" xmlns:xlink="http://www.w3.org/1999/xlink" viewBox="0 0 96 96">
  <defs>
    <radialGradient id="radial-gradient" cx="31.1369878" cy="-56.075293" fx="31.1369878" fy="-56.075293" r="53.2941339" gradientTransform="translate(30.4896 112.3608) rotate(-13.9987235)" gradientUnits="userSpaceOnUse">
      <stop offset=".191011" stop-color="gray"/>
      <stop offset=".2044765" stop-color="gray"/>
      <stop offset=".707865" stop-color="gray"/>
    </radialGradient>
    <radialGradient id="radial-gradient-2" cx="23.3853736" cy="-60.5650558" fx="23.3853736" fy="-60.5650558" r="50.2836194" gradientTransform="translate(30.4896 112.3608) rotate(-13.9987235)" gradientUnits="userSpaceOnUse">
      <stop offset=".44382" stop-color="#f9e917"/>
      <stop offset=".4866018" stop-color="#f8e616"/>
      <stop offset=".5107358" stop-color="#f5de16"/>
      <stop offset=".5302345" stop-color="#f0d015"/>
      <stop offset=".5471417" stop-color="#eabd15"/>
      <stop offset=".561798" stop-color="#e2a514"/>
      <stop offset=".702247" stop-color="#f9e917"/>
      <stop offset=".842697" stop-color="#e2a514"/>
      <stop offset=".938202" stop-color="#f9e917"/>
      <stop offset="1" stop-color="#d68112"/>
    </radialGradient>
    <radialGradient id="radial-gradient-3" cx="31.3844597" cy="-56.2088267" fx="31.3844597" fy="-56.2088267" r="49.12123" gradientTransform="translate(30.4896 112.3608) rotate(-13.9987235)" gradientUnits="userSpaceOnUse">
      <stop offset=".191011" stop-color="gray"/>
      <stop offset=".2277988" stop-color="#9f9f9f"/>
      <stop offset=".2768374" stop-color="#c1c1c1"/>
      <stop offset=".3268178" stop-color="#dcdcdc"/>
      <stop offset=".3774113" stop-color="#efefef"/>
      <stop offset=".4290096" stop-color="#fbfbfb"/>
      <stop offset=".483146" stop-color="#fff"/>
      <stop offset=".5369519" stop-color="#fcfcfc"/>
      <stop offset=".5758184" stop-color="#f2f2f2"/>
      <stop offset=".6099931" stop-color="#e2e2e2"/>
      <stop offset=".6414513" stop-color="#ccc"/>
      <stop offset=".6710511" stop-color="#afafaf"/>
      <stop offset=".6988858" stop-color="#8c8c8c"/>
      <stop offset=".707865" stop-color="gray"/>
    </radialGradient>
    <mask id="mask" x="6.2030305" y="14.9962778" width="80.9056785" height="74.531268" maskUnits="userSpaceOnUse">
      <path d="M76.2196956,42.8794c3.5087999,15.7231-6.0092998,30.0898-22.0214994,34.46-14.7171962,4.017-32.3817992-5.5176-35.6395991-20.1436-3.5048999-15.7314,6.0058998-30.0918,22.0234029-34.4585,14.7172962-4.0137,32.3754957,5.5181,35.6376956,20.1421ZM43.8651965,35.9121c-8.2362998,2.0449-13.3387997,10.0303-11.3929997,17.8286,1.9458032,7.8018,10.2010997,12.4673,18.4408995,10.4214,8.2304998-2.0439,13.3383997-10.0273,11.3930997-17.8281-1.9454-7.8013-10.2065997-12.4668-18.4409995-10.4219Z" fill="#fff"/>
    </mask>
    <radialGradient id="radial-gradient-4" cx="47.3010009" cy="50.2138958" fx="47.3010009" fy="50.2138958" r="49.048772" gradientUnits="userSpaceOnUse">
      <stop offset=".224719" stop-color="gray"/>
      <stop offset=".2642511" stop-color="#9c9c9c"/>
      <stop offset=".332586" stop-color="#c6c6c6"/>
      <stop offset=".3942686" stop-color="#e5e5e5"/>
      <stop offset=".4465473" stop-color="#f8f8f8"/>
      <stop offset=".483146" stop-color="#fff"/>
      <stop offset=".5207264" stop-color="#fafafa"/>
      <stop offset=".5611494" stop-color="#ededed"/>
      <stop offset=".6029126" stop-color="#d8d8d8"/>
      <stop offset=".645574" stop-color="#bababa"/>
      <stop offset=".6885269" stop-color="#939393"/>
      <stop offset=".707865" stop-color="gray"/>
    </radialGradient>
    <radialGradient id="radial-gradient-5" cx="88.9392189" cy="171.5988432" fx="88.9392189" fy="171.5988432" r="30.7279316" gradientTransform="translate(-94.7579 -116.4733066) rotate(-.7910365) scale(1.0865035 .9694337) skewX(11.8280662)" gradientUnits="userSpaceOnUse">
      <stop offset=".325843" stop-color="#740000"/>
      <stop offset=".623595" stop-color="#df4e15"/>
      <stop offset=".6767685" stop-color="#da4a14"/>
      <stop offset=".7394779" stop-color="#cb3f11"/>
      <stop offset=".8070087" stop-color="#b42e0c"/>
      <stop offset=".8774485" stop-color="#931606"/>
      <stop offset=".932584" stop-color="#740000"/>
    </radialGradient>
  </defs>
  <path d="M76.9350956,49.687c.0288-2.2217-.2017-4.501-.7154-6.8076-.6968-3.1235-2.0560999-6.0137-3.8983999-8.5903-.4566-4.5806-1.0308-9.1504-4.0605999-13.3013-4.7215999-6.4629-13.8075997-2.917-21.6336959.853-2.0411036.0723-4.0674035.3589-6.045.8965-3.6299034.9912-6.9189033,2.4971-9.8076032,4.4146-7.6347998.2812-17.6610996-.5791-20.7972995,4.5698-3.2998999,5.4101,3.1879027,13.1421,7.8773998,19.8769.0522,1.8355.2803,3.708.7041,5.5972.7432,3.3325,2.2392999,6.395,4.2684999,9.0967.5298,6.0224,1.3472,12.7886,6.8017998,15.4697,5.3495999,2.6245,11.7089997-.5088,17.2665996-3.5078,2.4638999.0254,4.9179999-.2666,7.3026998-.915,3.2158999-.878,6.1645998-2.1641,8.8046998-3.7798,8.5219998-.272,18.8032995.185,21.6445995-5.3521,2.7445999-5.3584-3.6503999-12.5215-7.7123998-18.5205ZM63.637196,21.0239c2.7572999,1.3413,4.1015999,4.8907,4.8886999,8.9868-4.2206999-3.8715-9.6674998-6.5791-15.3920996-7.665,4.0057999-1.6753,7.8314998-2.6216,10.5033997-1.3218ZM50.9130963,64.1621c-8.2397998,2.0459-16.4950963-2.6196-18.4408995-10.4214-1.9458-7.7983,3.1566999-15.7837,11.3929997-17.8286,8.2343998-2.0449,16.4955996,2.6206,18.4409995,10.4219,1.9453,7.8008-3.1625999,15.7842-11.3930997,17.8281ZM13.5307972,33.5151c1.7505-2.8774,7.6337998-3.2461,13.3539997-3.3066-4.7255999,4.3818-7.8173998,10.0942-8.7480998,16.438-3.4672999-5.0078-6.4408998-10.1109-4.6058999-13.1314ZM31.1898968,79.0986c-2.3876999-1.1743-3.5101999-4.5542-4.1400999-8.3364,3.8534999,3.2847,8.6098998,5.6431,13.6205997,6.7637-3.6430999,1.6484-7.1952998,2.6933-9.4804998,1.5727ZM81.0067955,66.5688c-1.5781,3.0757-7.5917955,3.7398-13.8558996,3.9698,4.8646999-4.2207,8.1439998-9.793,9.3124998-16.0283,3.1512999,4.3862,6.0858998,9.0429,4.5433999,12.0585Z" fill="url(#radial-gradient)" stroke="#000" stroke-miterlimit="3.8637" stroke-width="4"/>
  <path d="M63.637196,21.0239c6.8070998,3.3145,5.030804,20.124,7.3534998,25.333,2.3183999,5.2085,12.6435997,15.0869,10.0160997,20.2119-2.9813999,5.8106-21.8075994,3.0171-28.2230993,4.9322-4.4262999,1.3188-16.3495996,10.1748-21.5937995,7.5976-5.4320999-2.6689-4.3221999-16.7705-5.7396999-21.0346-1.9984999-6.0205-15.3524996-18.9073-11.9193997-24.5489,2.9618999-4.8593,17.7059996-2.5605,23.5575994-3.7202,5.8807999-1.1636,19.8358995-12.0386,26.5487993-8.771M35.5785967,26.6836c-7.4213998,1.4687-21.7382995-1.3027-25.6014994,5.0381-4.4921999,7.3774,9.1903998,19.0591,11.7186997,26.6655,2.0155999,6.0728-.2676,19.3452,7.9330998,23.375,8.1234998,3.9898,18.5941995-5.3227,25.0214994-7.2378,8.1058998-2.4228,26.0912993,1.2969,29.9970992-6.3169,3.3827999-6.5986-7.1015998-15.9297-10.0107997-22.4673-3.5507999-7.9677-.7729-17.0737-6.3759998-24.7524-7.3778998-10.106-25.4515994,4.2646-32.6820992,5.6958" fill="url(#radial-gradient-2)"/>
  <path d="M76.2196956,42.8794c3.5087999,15.7231-6.0092998,30.0898-22.0214994,34.46-14.7171962,4.017-32.3817992-5.5176-35.6395991-20.1436-3.5048999-15.7314,6.0058998-30.0918,22.0234029-34.4585,14.7172962-4.0137,32.3754957,5.5181,35.6376956,20.1421ZM43.8651965,35.9121c-8.2362998,2.0449-13.3387997,10.0303-11.3929997,17.8286,1.9458032,7.8018,10.2010997,12.4673,18.4408995,10.4214,8.2304998-2.0439,13.3383997-10.0273,11.3930997-17.8281-1.9454-7.8013-10.2065997-12.4668-18.4409995-10.4219Z" fill="url(#radial-gradient-3)" stroke="#000" stroke-miterlimit="3.8637" stroke-width="4"/>
  <g mask="url(#mask)">
    <g>
      <path d="M76.2196956,42.8794c3.5087999,15.7231-6.0092998,30.0898-22.0214994,34.46-14.7171962,4.017-32.3817992-5.5176-35.6395991-20.1436-3.5048999-15.7314,6.0058998-30.0918,22.0234029-34.4585,14.7172962-4.0137,32.3754957,5.5181,35.6376956,20.1421ZM43.8651965,35.9121c-8.2362998,2.0449-13.3387997,10.0303-11.3929997,17.8286,1.9458032,7.8018,10.2010997,12.4673,18.4408995,10.4214,8.2304998-2.0439,13.3383997-10.0273,11.3930997-17.8281-1.9454-7.8013-10.2065997-12.4668-18.4409995-10.4219Z" fill="url(#radial-gradient-4)"/>
      <path d="M79.8148956,34.5034c-10.2254997.7998-17.5765996,5.6343-31.4911992,5.8262-1.6806-4.8535-2.2635999-16.1973,1.479-22.9053-3.2245999-.6216-6.5052998-.9682-9.7977998-.9243-3.0527999.0425-5.9320999.4121-8.6440998,1.0254-1.27,10.4819-.9296,20.9995,7.1620998,31.8027-8.4540998,6.2705-19.6815995,3.8887-30.5301992-.4638.1557,1.3027.3867,2.6152.7202,3.9536,1.2183,4.8857,3.4852999,9.5244,6.5458998,13.7407,11.6766997,1.479,22.8056994.6792,31.4393992-5.8335,4.4824999,9.7856,1.752,18.0239-2.9564999,25.355,4.5834999,1.2954,9.3305998,2.0088,14.0961996,1.9433,1.8218-.0239,3.5663999-.1928,5.2724999-.4277,1.791-11.8301,2.5228999-23.6704-6.609396-35.8706,10.4637959,2.6895,25.4672955.7461,28.7723954-.9116l-5.4584999-16.3101Z" fill="url(#radial-gradient-5)" stroke="#740000" stroke-miterlimit="3.8637" stroke-width="3"/>
      <path d="M76.2196956,42.8794c3.5087999,15.7231-6.0092998,30.0898-22.0214994,34.46-14.7171962,4.017-32.3817992-5.5176-35.6395991-20.1436-3.5048999-15.7314,6.0058998-30.0918,22.0234029-34.4585,14.7172962-4.0137,32.3754957,5.5181,35.6376956,20.1421ZM43.8651965,35.9121c-8.2362998,2.0449-13.3387997,10.0303-11.3929997,17.8286,1.9458032,7.8018,10.2010997,12.4673,18.4408995,10.4214,8.2304998-2.0439,13.3383997-10.0273,11.3930997-17.8281-1.9454-7.8013-10.2065997-12.4668-18.4409995-10.4219Z" fill="none"/>
    </g>
  </g>
</svg>