<?xml version="1.0" encoding="UTF-8"?>
<svg id="Set_2" data-name="Set 2" xmlns="http://www.w3.org/2000/svg" width="16" height="16" viewBox="0 0 16 16">
  <path d="M4.3007812,8.7407227l-.8271484,1.7036133h-.6728516l2.6904297-5.390625h.7597656l.7216797,5.390625h-.6611328l-.2080078-1.7036133h-1.8027344ZM6.0576172,8.2182617l-.2070312-1.5629883c-.0283203-.3154297-.0576172-.6459961-.0869141-.9926758h-.0234375c-.1328125.3256836-.2753906.6538086-.4267578.9848633l-.7705078,1.5708008h1.5146484Z"/>
  <path d="M7.7822266,10.4443359l.4960938-2.7421875c.0830078-.4321289.1435547-.8085938.1816406-1.1289062h.5791016l-.0986328.7548828h.015625c.3603516-.5629883.8251953-.847168,1.3925781-.8525391.1181641,0,.234375.0170898.3476562.0507812.1083984.0366211.2060547.0952148.2939453.1762695.09375.078125.1689453.1879883.2265625.3286133.0507812.1386719.0761719.3120117.0761719.5205078-.0058594.1958008-.0283203.4033203-.0683594.6225586l-.4189453,2.2700195h-.6347656l.4130859-2.2490234c.0253906-.1567383.0400391-.3227539.0449219-.4980469,0-.1992188-.0410156-.3598633-.125-.4829102-.0878906-.1230469-.2431641-.1870117-.4658203-.1923828-.2373047,0-.484375.1337891-.7421875.4003906-.2548828.2670898-.4335938.6450195-.5371094,1.1342773l-.3408203,1.8876953h-.6357422Z"/>
</svg>