<?xml version='1.0' encoding='UTF-8'?>
<svg xmlns="http://www.w3.org/2000/svg" xmlns:xlink="http://www.w3.org/1999/xlink" id="Icons_-_16x16" data-name="Icons - 16x16" width="16" height="16" viewBox="0 0 16 16">
  <defs>
    <mask id="mask" x="3.0722938" y="1.0894" width="12.6151997" height="14.6811" maskUnits="userSpaceOnUse">
      <path d="M11.6073936,14.77l-7.5331998.0005-.0019-12.6811,10.6151997.0009-.0039,9.8667c0,1.3399-1.6445,2.813-3.0761999,2.813Z" fill="#fff" fill-rule="evenodd" stroke="#fff" stroke-linecap="round" stroke-linejoin="round" stroke-width="2"/>
    </mask>
    <linearGradient id="New_Gradient_66" data-name="New Gradient 66" x1="5.8623155" y1="1.2163481" x2="12.876348" y2="15.5972459" gradientUnits="userSpaceOnUse">
      <stop offset="0" stop-color="#e5e5e5"/>
      <stop offset="1" stop-color="#fff"/>
    </linearGradient>
    <radialGradient id="New_Gradient_67" data-name="New Gradient 67" cx="-23.5510582" cy="32.3757684" fx="-23.5510582" fy="32.3757684" r="3.4921006" gradientTransform="translate(35.4054 -18.9724114) scale(1.0313 .9421)" gradientUnits="userSpaceOnUse">
      <stop offset="0" stop-color="#fff"/>
      <stop offset="1" stop-color="#ccc"/>
    </radialGradient>
    <mask id="mask-1" x="4.0722938" y="2.0894" width="10.6327997" height="12.7285" maskUnits="userSpaceOnUse">
      <path d="M11.6073936,14.77l-7.5331998.0005-.0019-12.6811,10.6151997.0009-.0039,9.8667c0,1.3399-1.6445,2.813-3.0761999,2.813Z" fill="#fff" fill-rule="evenodd"/>
    </mask>
    <linearGradient id="New_Gradient_64" data-name="New Gradient 64" x1="5.8623155" y1="1.2163481" x2="12.876348" y2="15.5972459" gradientUnits="userSpaceOnUse">
      <stop offset="0" stop-color="#e5e5e5"/>
      <stop offset=".286514" stop-color="#f2f2f2"/>
      <stop offset=".646072" stop-color="#fff"/>
      <stop offset="1" stop-color="#fff"/>
    </linearGradient>
    <radialGradient id="New_Gradient_65" data-name="New Gradient 65" cx="-23.5510582" cy="32.3757684" fx="-23.5510582" fy="32.3757684" r="3.4921006" gradientTransform="translate(35.4054 -18.9724114) scale(1.0313 .9421)" gradientUnits="userSpaceOnUse">
      <stop offset="0" stop-color="#e5e5e5"/>
      <stop offset=".331467" stop-color="#e5e5e5"/>
      <stop offset="1" stop-color="#999"/>
    </radialGradient>
    <linearGradient id="linear-gradient" x1="5.5462845" y1="2.5603234" x2="8.9121105" y2="15.4840552" gradientUnits="userSpaceOnUse">
      <stop offset="0" stop-color="#fff"/>
      <stop offset="1" stop-color="#a9c3dc"/>
    </linearGradient>
    <mask id="mask-2" x=".2757366" y="5" width="14.1201129" height="10.2448912" maskUnits="userSpaceOnUse">
      <rect x="2.1630939" y="5" width="9.6327998" height="7.1689" fill="#fff"/>
    </mask>
    <linearGradient id="linear-gradient-2" x1="7.5872384" y1="6.3560501" x2="5.791358" y2="12.9409536" gradientUnits="userSpaceOnUse">
      <stop offset="0" stop-color="#b7e9ff"/>
      <stop offset="1" stop-color="#555b91"/>
    </linearGradient>
    <linearGradient id="linear-gradient-3" x1="8.9869155" y1="5.8509064" x2="9.846548" y2="9.1516294" gradientUnits="userSpaceOnUse">
      <stop offset="0" stop-color="#ffe900"/>
      <stop offset="1" stop-color="#c40000"/>
    </linearGradient>
    <linearGradient id="linear-gradient-4" x1="12.2907273" y1="8.3775546" x2="14.4248247" y2="16.571829" gradientTransform="translate(-8.1817) skewX(7.716581)" gradientUnits="userSpaceOnUse"><stop offset="0" stop-color="#fff"/><stop offset="1" stop-color="#a9c3dc"/></linearGradient>
    <radialGradient id="radial-gradient" cx="9.91455" cy="8.7992757" fx="9.91455" fy="8.7992757" r="8.5938187" gradientTransform="translate(0 -2.034)" gradientUnits="userSpaceOnUse">
      <stop offset=".134831" stop-color="#86e099"/>
      <stop offset=".882022" stop-color="#005e00"/>
    </radialGradient>
  </defs>
  <g>
    <g>
      <g mask="url(#mask)">
        <g>
          <path d="M11.6073936,14.77l-7.5331998.0005-.0019-12.6811,10.6151997.0009-.0039,9.8667c0,1.3399-1.6445,2.813-3.0761999,2.813Z" fill="url(#New_Gradient_66)" fill-rule="evenodd"/>
          <path d="M11.1171937,14.8174s1.7598063-.0615,1.7598063-1.8447c1.8124936.0004,1.8280936-1.4439,1.8280936-1.4439l-.002,3.2891-3.5858999-.0005Z" fill="url(#New_Gradient_67)" fill-rule="evenodd"/>
          <path d="M11.6073936,14.77l-7.5331998.0005-.0019-12.6811,10.6151997.0009-.0039,9.8667c0,1.3399-1.6445,2.813-3.0761999,2.813Z" fill="none" fill-rule="evenodd" stroke="#000" stroke-linecap="round" stroke-linejoin="round" stroke-width="2"/>
        </g>
      </g>
      <g mask="url(#mask-1)">
        <g>
          <path d="M11.6073936,14.77l-7.5331998.0005-.0019-12.6811,10.6151997.0009-.0039,9.8667c0,1.3399-1.6445,2.813-3.0761999,2.813Z" fill="url(#New_Gradient_64)" fill-rule="evenodd"/>
          <path d="M11.1171937,14.8174s1.2236-.4487,1.2246-2.2329c1.8105-.0005,2.3632999-1.0557,2.3632999-1.0557l-.002,3.2891-3.5858999-.0005Z" fill="url(#New_Gradient_65)" fill-rule="evenodd"/>
        </g>
      </g>
    </g>
    <g>
      <line x1="5.4716938" y1="6.6421" x2="7.8554937" y2="6.6421" fill="none" stroke="#999" stroke-linecap="round" stroke-miterlimit="3.8637" stroke-width=".7125"/>
      <line x1="10.9745937" y1="4.6421" x2="13.3593936" y2="4.6421" fill="none" stroke="#999" stroke-linecap="round" stroke-miterlimit="3.8637" stroke-width=".7125"/>
      <line x1="9.2313937" y1="6.6421" x2="13.3593936" y2="6.6421" fill="none" stroke="#999" stroke-linecap="round" stroke-miterlimit="3.8637" stroke-width=".7125"/>
      <line x1="5.3710938" y1="12.6421" x2="11.2948937" y2="12.6421" fill="none" stroke="#999" stroke-linecap="round" stroke-miterlimit="3.8637" stroke-width=".7125"/>
      <line x1="5.4716938" y1="8.6421" x2="7.3964938" y2="8.6421" fill="none" stroke="#999" stroke-linecap="round" stroke-miterlimit="3.8637" stroke-width=".7125"/>
      <line x1="8.5292937" y1="8.6421" x2="10.4540937" y2="8.6421" fill="none" stroke="#999" stroke-linecap="round" stroke-miterlimit="3.8637" stroke-width=".7125"/>
      <line x1="11.2187937" y1="8.6421" x2="13.3593936" y2="8.6421" fill="none" stroke="#999" stroke-linecap="round" stroke-miterlimit="3.8637" stroke-width=".7125"/>
      <line x1="5.4716938" y1="4.6421" x2="9.2313937" y2="4.6421" fill="none" stroke="#999" stroke-linecap="round" stroke-miterlimit="3.8637" stroke-width=".7125"/>
      <line x1="5.4716938" y1="10.6421" x2="8.6190937" y2="10.6421" fill="none" stroke="#999" stroke-linecap="round" stroke-miterlimit="3.8637" stroke-width=".7125"/>
      <line x1="9.498" y1="10.6421" x2="13.5116936" y2="10.6421" fill="none" stroke="#999" stroke-linecap="round" stroke-miterlimit="3.8637" stroke-width=".7125"/>
    </g>
  </g>
  <g>
    <rect x="2.2987939" y="5" width="9.6327998" height="7.1689" fill="url(#linear-gradient)" stroke="#333" stroke-width="2"/>
    <g mask="url(#mask-2)">
      <g>
        <rect x="2.1630939" y="5" width="9.6327998" height="7.1689" fill="url(#linear-gradient-2)"/>
        <g>
          <path d="M10.5917937,7.3896c0,.6602-.5391,1.1949-1.2041,1.1949s-1.2041-.5347-1.2041-1.1949c0-.6591.5391-1.1953,1.2041-1.1953s1.2041.5362,1.2041,1.1953Z" fill="#c40000" stroke="#740000" stroke-width=".75"/>
          <path d="M10.5917937,7.3896c0,.6602-.5391,1.1949-1.2041,1.1949s-1.2041-.5347-1.2041-1.1949c0-.6591.5391-1.1953,1.2041-1.1953s1.2041.5362,1.2041,1.1953Z" fill="url(#linear-gradient-3)"/>
        </g>
        <g>
          <path d="M3.6142938,10.5166c.6308-.0049.9365-.4492,1.2343-.6963.3272-.2724,1.1162-.3271,1.294-.6377,1.0205.9068,2.6200999,1.0108,3.3710999,1.9634.5176.1606.5468-.3062.875-.3281.3047-.02.5791.2646.8867.4497.3252.1938.7109.3144,1.0215.6679.4316.4908.5547,1.3101.7031064,1.7564-.8428064-.0171-1.4629064.5679-2.5586063.5527-.4922-.0068-1.1592-.1875-1.7422-.2221-.5195-.0323-.9765.0976-1.5293.1015-.5361-.0703-1.0976-.1372-1.6894-.206-.9629-.1075-1.9931999-.1792-3.1015999-.2115-.4668-.1176-.4941-.0664-.8788939-.2421.2382939-.7408-.5801061-3.3721,1.0995939-3.0489" fill="url(#linear-gradient-4)" stroke="#333" stroke-width="2"/>
          <path d="M3.6142938,10.5166c.6308-.0049.9365-.4492,1.2343-.6963.3272-.2724,1.1162-.3271,1.294-.6377,1.0205.9068,2.6200999,1.0108,3.3710999,1.9634.5176.1606.5468-.3062.875-.3281.3047-.02.5791.2646.8867.4497.3252.1938.7109.3144,1.0215.6679.4316.4908.5547,1.3101.7031064,1.7564-.8428064-.0171-1.4629064.5679-2.5586063.5527-.4922-.0068-1.1592-.1875-1.7422-.2221-.5195-.0323-.9765.0976-1.5293.1015-.5361-.0703-1.0976-.1372-1.6894-.206-.9629-.1075-1.9931999-.1792-3.1015999-.2115-.4668-.1176-.4941-.0664-.8788939-.2421.2382939-.7408-.5801061-3.3721,1.0995939-3.0489" fill="url(#radial-gradient)"/>
        </g>
      </g>
    </g>
  </g>
</svg>