<?xml version='1.0' encoding='UTF-8'?>
<svg xmlns="http://www.w3.org/2000/svg" xmlns:xlink="http://www.w3.org/1999/xlink" id="Icons_-_16x16" data-name="Icons - 16x16" width="16" height="16" viewBox="0 0 16 16">
  <defs>
    <linearGradient id="New_Gradient_139" data-name="New Gradient 139" x1="1.862043" y1="8.4504396" x2="15.0602075" y2="8.4504396" gradientUnits="userSpaceOnUse">
      <stop offset="0" stop-color="#b2b2b2"/>
      <stop offset=".449432" stop-color="#b2b2b2"/>
      <stop offset=".696625" stop-color="#e5e5e5"/>
      <stop offset="1" stop-color="#e5e5e5"/>
    </linearGradient>
    <linearGradient id="linear-gradient" x1="2.8143188" y1="2.8111188" x2="14.1001434" y2="14.0969434" gradientUnits="userSpaceOnUse">
      <stop offset="0" stop-color="#87ba87"/>
      <stop offset="0" stop-color="#89b689"/>
      <stop offset="0" stop-color="#92a592"/>
      <stop offset="0" stop-color="#979c97"/>
      <stop offset="0" stop-color="#999"/>
      <stop offset=".1664031" stop-color="#9c9c9c"/>
      <stop offset=".3145137" stop-color="#a7a7a7"/>
      <stop offset=".404494" stop-color="#b2b2b2"/>
      <stop offset=".606741" stop-color="#e5e5e5"/>
      <stop offset="1" stop-color="#e5e5e5"/>
    </linearGradient>
    <linearGradient id="linear-gradient-2" x1="5.7234999" y1="5.8037992" x2="11.5713648" y2="11.651664" gradientUnits="userSpaceOnUse">
      <stop offset="0" stop-color="#666"/>
      <stop offset=".0178513" stop-color="#6d6d6d"/>
      <stop offset=".1144914" stop-color="#949494"/>
      <stop offset=".2183295" stop-color="#b5b5b5"/>
      <stop offset=".3291794" stop-color="#d0d0d0"/>
      <stop offset=".4496279" stop-color="#e5e5e5"/>
      <stop offset=".5844797" stop-color="#f3f3f3"/>
      <stop offset=".745304" stop-color="#fcfcfc"/>
      <stop offset="1" stop-color="#fff"/>
    </linearGradient>
    <mask id="mask" x="1.7126026" y="1.70955" width="13.3438184" height="13.3442006" maskUnits="userSpaceOnUse">
      <path d="M14.3574,5.9336c-.6264.626-1.5112.831-2.3091.6191l-5.4921,5.4932c.2124.7969.0053,1.6826-.6192,2.3086-.5952.5957-1.4292.8105-2.1958.6455l1.3291-1.3291-.3838-1.4297-1.4277-.3818-1.3403,1.3388c-.1768-.7744.0366-1.6201.6391-2.2226.6016-.6016,1.4419-.8164,2.2129-.6426l5.5664-5.5644c-.1738-.7725.0415-1.6133.6411-2.2149.5967-.5947,1.4292-.8105,2.1958-.6445l-1.3286,1.3291.3828,1.4277,1.4292.3838,1.3389-1.3398c.1772.7754-.0361,1.6201-.6387,2.2236Z" fill="#fff"/>
    </mask>
    <linearGradient id="linear-gradient-3" x1="11.929608" y1="2.506308" x2="15.4398369" y2="6.0165369" gradientUnits="userSpaceOnUse">
      <stop offset="0" stop-color="#b2b2b2"/>
      <stop offset=".35955" stop-color="#b2b2b2"/>
      <stop offset=".55618" stop-color="#e5e5e5"/>
      <stop offset="1" stop-color="#e5e5e5"/>
    </linearGradient>
    <linearGradient id="linear-gradient-4" x1="2.5321004" y1="11.9391004" x2="6.0414945" y2="15.4484945" gradientUnits="userSpaceOnUse"><stop offset="0" stop-color="#b2b2b2"/><stop offset=".35955" stop-color="#b2b2b2"/><stop offset=".55618" stop-color="#e5e5e5"/><stop offset="1" stop-color="#e5e5e5"/></linearGradient>
    <linearGradient id="linear-gradient-5" x1="5.357215" y1="5.364815" x2="8.9539271" y2="8.9615271" gradientUnits="userSpaceOnUse"><stop offset="0" stop-color="#b2b2b2"/><stop offset=".35955" stop-color="#b2b2b2"/><stop offset=".55618" stop-color="#e5e5e5"/><stop offset="1" stop-color="#e5e5e5"/></linearGradient>
    <linearGradient id="New_Gradient_138" data-name="New Gradient 138" x1="5.4414236" y1="5.5400238" x2="11.2909904" y2="11.3895906" gradientUnits="userSpaceOnUse">
      <stop offset="0" stop-color="#666"/>
      <stop offset="1" stop-color="#fff"/>
    </linearGradient>
  </defs>
  <path d="M14.3604,5.9297c-.6246.626-1.5108.831-2.3082.6182l-5.4926,5.4941c.2124.7969.0063,1.6816-.6192,2.3076-.5966.5967-1.4292.8115-2.1953.6465l1.3281-1.3291-.3823-1.4297-1.4297-.3828-1.3388,1.3398c-.1773-.7744.0361-1.6211.6391-2.2246.6006-.5996,1.4414-.8134,2.2129-.6406l5.5659-5.5664c-.1733-.7705.0406-1.6113.6411-2.2119.5962-.5967,1.4297-.8115,2.1958-.6455l-1.3276,1.3281.3818,1.4287,1.4292.3838,1.3394-1.3398c.1768.7744-.0356,1.6201-.6396,2.2236Z" fill="url(#New_Gradient_139)" stroke="#000" stroke-linecap="round" stroke-linejoin="round" stroke-width="2"/>
  <path d="M14.3574,5.9336c-.6264.626-1.5112.831-2.3091.6191l-5.4921,5.4932c.2124.7969.0053,1.6826-.6192,2.3086-.5952.5957-1.4292.8105-2.1958.6455l1.3291-1.3291-.3838-1.4297-1.4277-.3818-1.3403,1.3388c-.1768-.7744.0366-1.6201.6391-2.2226.6016-.6016,1.4419-.8164,2.2129-.6426l5.5664-5.5644c-.1738-.7725.0415-1.6133.6411-2.2149.5967-.5947,1.4292-.8105,2.1958-.6445l-1.3286,1.3291.3828,1.4277,1.4292.3838,1.3389-1.3398c.1772.7754-.0361,1.6201-.6387,2.2236Z" fill="url(#linear-gradient)"/>
  <path d="M11.5684,5.8057h0c.2368.2363.2368.6201,0,.8574l-4.9844,4.9863c-.2383.2363-.6211.2363-.8579,0h0c-.2373-.2373-.2373-.6201,0-.8574l4.9853-4.9863c.2368-.2373.6206-.2373.857,0Z" fill="url(#linear-gradient-2)" fill-rule="evenodd"/>
  <g mask="url(#mask)">
    <g>
      <g>
        <path d="M14.8506,3.5645l-1.3389,1.3398-1.1997-.3213.061.2295,1.4292.3828,1.1084-1.1084c-.0009-.1748-.021-.3496-.06-.5224Z" fill="url(#linear-gradient-3)"/>
        <path d="M4.6035,12.3262l.3203,1.1992-1.3286,1.3291c.1753.0381.3526.0547.5293.0527l1.0903-1.0908-.3828-1.4297-.2285-.0605Z" fill="url(#linear-gradient-4)"/>
        <path d="M12.79,2.001l.2383-.2373c-.7666-.166-1.6001.0498-2.1953.6455-.6006.6015-.8154,1.4414-.6426,2.2129l-5.5644,5.5654c-.773-.1729-1.6133.041-2.2134.6416-.6035.6035-.8169,1.4492-.6397,2.2236l.232-.2314c-.002-.6152.229-1.2315.6992-1.7012.6001-.5996,1.4404-.8144,2.2129-.6426l5.5649-5.5634c-.1733-.7725.0406-1.6133.6416-2.2139.4605-.4609,1.063-.6934,1.6665-.6992Z" fill="url(#linear-gradient-5)"/>
      </g>
      <path d="M11.2881,5.5439h0c.2373.2364.2373.6202,0,.8575l-4.9859,4.9843c-.2368.2383-.6206.2383-.8579,0h0c-.2363-.2353-.2363-.6191,0-.8554l4.9864-4.9883c.2368-.2354.6206-.2354.8574.0019Z" fill="url(#New_Gradient_138)" fill-rule="evenodd"/>
    </g>
  </g>
</svg>