<?xml version="1.0" encoding="UTF-8"?>
<svg id="Set_3" data-name="Set 3" xmlns="http://www.w3.org/2000/svg" width="16" height="16" viewBox="0 0 16 16">
  <line x1="10.0585949" y1="11.5059" x2="4.496095" y2="11.5059" fill="none" stroke="#000" stroke-linecap="round" stroke-miterlimit="3.8637" stroke-width=".7125"/>
  <polyline points="10.085 12.1621 10.085 13.0098 12 11.5059 10.085 10 10.085 10.8691"/>
  <path d="M4.801795,7.5137l-.3809,1.1543h-.4893l1.2461-3.668h.571305l1.251,3.668h-.505905l-.3925-1.1543h-1.2998ZM6.003895,7.1445l-.3643-1.0566c-.0761-.2383-.1308-.457-.1845-.668h-.0166c-.0489.211-.1084.4395-.1787.6641l-.3594,1.0605h1.1035Z"/>
  <path d="M9,8.3887l2.0351949-2.9746v-.0176h-1.8614v-.3965h2.4765999v.2891l-2.0233949,2.9648v.0156h2.0506949v.3965h-2.6776949v-.2773Z"/>
</svg>