<?xml version="1.0" encoding="UTF-8"?>
<svg id="Set_3" data-name="Set 3" xmlns="http://www.w3.org/2000/svg" width="16" height="16" viewBox="0 0 16 16">
  <path d="M7.9058,2.5039c0,.1397-.0518.2607-.1543.3662-.1016.1055-.2266.1553-.3736.1553-.1137,0-.2544-.0576-.4218-.1758-.17-.1182-.314-.1797-.4312-.1797-.2202,0-.4023.0489-.5415.1455-.1411.0987-.2603.2569-.3564.4825-.0967.2246-.2251.6953-.3814,1.416-.0532.2519-.0962.4453-.126.582h1.1118c.0362,0,.0606.0098.0723.0303.0108.0185.0176.0605.0176.1289,0,.0664-.0176.126-.0537.1836-.0347.0566-.0703.0859-.1065.0859l-1.1357-.0146-.8301,3.4531c-.144.6025-.3369,1.1289-.5791,1.5771-.2436.4463-.5224.7959-.8393,1.0518-.3179.251-.6211.3799-.9131.3799-.2368,0-.4405-.0596-.6089-.1768-.1699-.1221-.2549-.2607-.2549-.418,0-.288.145-.4335.4326-.4335.1201,0,.2656.0781.4375.2285.1699.1504.3159.2295.437.2295.21,0,.3745-.0821.4903-.2452.1152-.166.2299-.5185.3432-1.0625l.9551-4.4658v-.0351c0-.0557-.0332-.083-.1006-.083h-.8066c-.0615,0-.0918-.045-.0918-.1338,0-.0547.0371-.0948.1113-.1192.6929-.082,1.0464-.1845,1.0596-.3134.104-.5069.3105-1.0157.6201-1.5254.3096-.5118.6587-.9092,1.0513-1.1914.3906-.2842.79-.4268,1.1982-.4268.5117,0,.7686.168.7686.5039Z"/>
  <path d="M9.8457,4.2061c0,.0371-.0127.0634-.0371.0781-.6533.4609-1.1611,1.0469-1.5273,1.7646-.3643.7139-.5479,1.4639-.5479,2.251,0,.3965.0537.7481.1597,1.0566.1059.3038.2734.5928.5005.8624l.0112.0302c0,.0332-.0176.0674-.0493.1026-.0323.0322-.064.0498-.0933.0498-.0273,0-.1221-.0762-.2847-.2295-.1635-.1533-.3081-.3223-.4345-.5039-.3384-.4883-.5078-1.0098-.5078-1.5723,0-.9697.3725-1.875,1.1206-2.7227.1743-.2011.3662-.3896.5737-.5664.2085-.1767.4258-.3398.6533-.4892.2276-.1485.355-.2207.3818-.2207.0538,0,.0811.0371.0811.1094Z"/>
  <path d="M12,6.4121c0,.1221-.0269.2227-.0815.2998-.0557.0781-.1294.1143-.2227.1143-.0991,0-.1733-.0762-.2222-.2295-.0361-.1035-.0737-.1563-.1176-.1563-.0884,0-.356.3184-.8047.9463-.0542.0742-.0918.1279-.1104.1572l.1001.5186c.0982.5557.2368.8311.416.8311.0845,0,.1451-.044.1846-.1397.041-.0937.0601-.2842.0601-.5791,0-.0303.0185-.0508.0556-.0508.0557,0,.0904.0235.1065.0674.0166.043.0293.0899.0385.1348.0088.0488.0132.0957.0132.1435,0,.2666-.06.4844-.1811.6494-.1192.1631-.2686.2461-.4458.2461-.1948,0-.3535-.0908-.4761-.2705-.1216-.1816-.2358-.5029-.3408-.9687-.2163.3467-.438.6426-.667.8818-.229.2383-.4107.3574-.5454.3574-.0943,0-.1763-.041-.2466-.124-.0713-.081-.1069-.1826-.1069-.2969,0-.122.0288-.2246.0888-.3115.0591-.0801.1333-.123.2237-.123.0991,0,.1699.0634.2143.1855.0362.086.0796.1279.1323.1279.1148,0,.3955-.3252.8384-.9804l-.1103-.5508c-.0479-.251-.1079-.4482-.1836-.5977-.0742-.1494-.1538-.2255-.2403-.2255-.0883,0-.1523.0468-.1904.1445-.0405.0957-.06.2871-.06.5752,0,.0351-.0196.0508-.0606.0508-.102,0-.1528-.1163-.1528-.3448,0-.2636.061-.4795.1816-.6445.1211-.168.2739-.25.4575-.25.4307,0,.7046.417.8233,1.252.3222-.4717.5791-.7989.7656-.9805.188-.1826.3486-.2715.4854-.2715.1162,0,.2089.0371.2788.1133.0683.0762.1025.1748.1025.2988Z"/>
  <path d="M13.8101,7.001c0,.9668-.3755,1.876-1.1246,2.7265-.1752.2002-.3652.3887-.5727.5684-.2065.1777-.4248.3398-.6514.4854-.2275.1474-.3564.2187-.3862.2187-.0503,0-.0752-.0371-.0752-.1094,0-.0322.0122-.0586.0361-.0752.6519-.457,1.1621-1.0468,1.5274-1.7646.3657-.7149.5478-1.4697.5478-2.2549,0-.3965-.0537-.751-.1596-1.0547-.107-.3047-.2759-.5957-.5039-.8662l-.0079-.0303c0-.0312.0162-.0634.0503-.0967.0327-.0361.0635-.0527.0918-.0527.0264,0,.1216.0772.2852.2276.1641.1533.3071.3222.4341.5039.3403.4921.5088,1.0127.5088,1.5742Z"/>
</svg>