<?xml version="1.0" encoding="UTF-8"?>
<svg id="Set_2" data-name="Set 2" xmlns="http://www.w3.org/2000/svg" width="16" height="16" xmlns:xlink="http://www.w3.org/1999/xlink" viewBox="0 0 16 16">
  <defs>
    <mask id="mask" x="3.3681946" y="1" width="12.6151997" height="14.6812" maskUnits="userSpaceOnUse">
      <path d="M11.9032944,14.6807l-7.5331998.0005-.0019-12.6812,10.6151997.001-.0049,9.8667c0,1.3398-1.6444944,2.813-3.0751999,2.813Z" fill="#fff" fill-rule="evenodd" stroke="#fff" stroke-linecap="round" stroke-linejoin="round" stroke-width="2"/>
    </mask>
    <linearGradient id="New_Gradient_35" data-name="New Gradient 35" x1="6.1581769" y1="1.1269673" x2="13.1721182" y2="15.5076781" gradientUnits="userSpaceOnUse">
      <stop offset="0" stop-color="#e5e5e5"/>
      <stop offset="1" stop-color="#fff"/>
    </linearGradient>
    <radialGradient id="New_Gradient_36" data-name="New Gradient 36" cx="-22.2929366" cy="33.2643152" fx="-22.2929366" fy="33.2643152" r="3.4915652" gradientTransform="translate(34.4038 -19.8988114) scale(1.0313 .9421)" gradientUnits="userSpaceOnUse">
      <stop offset="0" stop-color="#fff"/>
      <stop offset="1" stop-color="#ccc"/>
    </radialGradient>
    <mask id="mask-1" x="4.3681946" y="2" width="10.6318054" height="12.7285" maskUnits="userSpaceOnUse">
      <path d="M11.9032944,14.6807l-7.5331998.0005-.0019-12.6812,10.6151997.001-.0049,9.8667c0,1.3398-1.6444944,2.813-3.0751999,2.813Z" fill="#fff" fill-rule="evenodd"/>
    </mask>
    <linearGradient id="New_Gradient_33" data-name="New Gradient 33" x1="6.1581769" y1="1.1269673" x2="13.1721182" y2="15.5076781" gradientUnits="userSpaceOnUse">
      <stop offset="0" stop-color="#e5e5e5"/>
      <stop offset=".286514" stop-color="#f2f2f2"/>
      <stop offset=".646072" stop-color="#fff"/>
      <stop offset="1" stop-color="#fff"/>
    </linearGradient>
    <radialGradient id="New_Gradient_34" data-name="New Gradient 34" cx="-22.2929366" cy="33.2643152" fx="-22.2929366" fy="33.2643152" r="3.4915652" gradientTransform="translate(34.4038 -19.8988114) scale(1.0313 .9421)" gradientUnits="userSpaceOnUse">
      <stop offset="0" stop-color="#e5e5e5"/>
      <stop offset=".331467" stop-color="#e5e5e5"/>
      <stop offset="1" stop-color="#999"/>
    </radialGradient>
    <mask id="mask-2" x="1.8173947" y="4.5083" width="8.4237998" height="8" maskUnits="userSpaceOnUse">
      <path d="M9.666,8.2778v-1.7695h-1.7646055c.0136055.0391.0254.189.0312.2803-.0078-.1553-.043-.3018-.1055-.4312.4112-.1758.6875-.4887.6875-.8491,0-.5522-.6435-1-1.4394-1-.7939,0-1.4385.4478-1.4385,1,0,.3604.2764.6733.6875.8491-.0615.1294-.0976.2759-.1054.4312.0068-.0913.0175-.2412.0322054-.2803h-2.3408054v2.0444c-.1045-.0102-.2129-.0171-.3251946-.0171-.0537053,0-.1055053.0044-.1582053.0069-.168-.2417-.4151-.398-.6934-.398-.5059,0-.916.502-.916,1.1216,0,.6192.4101,1.1211.916,1.1211.3652,0,.6797-.2651.8252-.645.0088,0,.0166.001.0264053.001.1122947,0,.2206946-.0069.3251946-.0171v2.1157h1.1572c-.0342-.0781-.0586-.1582-.0586-.2427,0-.5019.6445-.9092,1.4394-.9092.794,0,1.4385.4073,1.4385.9092,0,.0845-.0234.1646-.0586.2427h1.8379055v-1.1641c-.5283055-.0615-.9424055-.5717-.9424055-1.1997,0-.6279.4141-1.1382.9424055-1.2002Z" fill="#fff"/>
    </mask>
    <linearGradient id="linear-gradient" x1="2.8500291" y1="4.8258674" x2="10.0723087" y2="13.080112" gradientUnits="userSpaceOnUse">
      <stop offset=".134831" stop-color="#ffffb3"/>
      <stop offset="1" stop-color="#d68100"/>
    </linearGradient>
    <linearGradient id="linear-gradient-2" x1="7.7212442" y1="10.357341" x2="4.0104868" y2="6.2343762" gradientUnits="userSpaceOnUse">
      <stop offset=".134831" stop-color="#ffffb3"/>
      <stop offset="1" stop-color="#d68100"/>
    </linearGradient>
  </defs>
  <g>
    <g>
      <g mask="url(#mask)">
        <g>
          <path d="M11.9032944,14.6807l-7.5331998.0005-.0019-12.6812,10.6151997.001-.0049,9.8667c0,1.3398-1.6444944,2.813-3.0751999,2.813Z" fill="url(#New_Gradient_35)" fill-rule="evenodd"/>
          <path d="M11.4130945,14.728s1.7598-.0615,1.7598-1.8447c1.8125.0005,1.8271056-1.4438,1.8271056-1.4438l-.001,3.289-3.5859055-.0005Z" fill="url(#New_Gradient_36)" fill-rule="evenodd"/>
          <path d="M11.9032944,14.6807l-7.5331998.0005-.0019-12.6812,10.6151997.001-.0049,9.8667c0,1.3398-1.6444944,2.813-3.0751999,2.813Z" fill="none" fill-rule="evenodd" stroke="#000" stroke-linecap="round" stroke-linejoin="round" stroke-width="2"/>
        </g>
      </g>
      <g mask="url(#mask-1)">
        <g>
          <path d="M11.9032944,14.6807l-7.5331998.0005-.0019-12.6812,10.6151997.001-.0049,9.8667c0,1.3398-1.6444944,2.813-3.0751999,2.813Z" fill="url(#New_Gradient_33)" fill-rule="evenodd"/>
          <path d="M11.4130945,14.728s1.2236-.4487,1.2236-2.2329c1.8115-.0005,2.3633056-1.0556,2.3633056-1.0556l-.001,3.289-3.5859055-.0005Z" fill="url(#New_Gradient_34)" fill-rule="evenodd"/>
        </g>
      </g>
    </g>
    <g>
      <line x1="5.7665946" y1="6.5527" x2="8.1513945" y2="6.5527" fill="none" stroke="#999" stroke-linecap="round" stroke-miterlimit="3.8637" stroke-width=".7125"/>
      <line x1="11.2704945" y1="4.5527" x2="13.6552944" y2="4.5527" fill="none" stroke="#999" stroke-linecap="round" stroke-miterlimit="3.8637" stroke-width=".7125"/>
      <line x1="9.5272945" y1="6.5527" x2="13.6552944" y2="6.5527" fill="none" stroke="#999" stroke-linecap="round" stroke-miterlimit="3.8637" stroke-width=".7125"/>
      <line x1="5.667" y1="12.5527" x2="11.5907945" y2="12.5527" fill="none" stroke="#999" stroke-linecap="round" stroke-miterlimit="3.8637" stroke-width=".7125"/>
      <line x1="5.7665946" y1="8.5527" x2="7.6923946" y2="8.5527" fill="none" stroke="#999" stroke-linecap="round" stroke-miterlimit="3.8637" stroke-width=".7125"/>
      <line x1="8.8251945" y1="8.5527" x2="10.75" y2="8.5527" fill="none" stroke="#999" stroke-linecap="round" stroke-miterlimit="3.8637" stroke-width=".7125"/>
      <line x1="11.5145945" y1="8.5527" x2="13.6552944" y2="8.5527" fill="none" stroke="#999" stroke-linecap="round" stroke-miterlimit="3.8637" stroke-width=".7125"/>
      <line x1="5.7665946" y1="4.5527" x2="9.5272945" y2="4.5527" fill="none" stroke="#999" stroke-linecap="round" stroke-miterlimit="3.8637" stroke-width=".7125"/>
      <line x1="5.7665946" y1="10.5527" x2="8.915" y2="10.5527" fill="none" stroke="#999" stroke-linecap="round" stroke-miterlimit="3.8637" stroke-width=".7125"/>
      <line x1="9.7938945" y1="10.5527" x2="13.8075944" y2="10.5527" fill="none" stroke="#999" stroke-linecap="round" stroke-miterlimit="3.8637" stroke-width=".7125"/>
    </g>
  </g>
  <g>
    <path d="M9.666,8.2778v-1.7695h-1.7646055c.0136055.0391.0254.189.0312.2803-.0078-.1553-.043-.3018-.1055-.4312.4112-.1758.6875-.4887.6875-.8491,0-.5522-.6435-1-1.4394-1-.7939,0-1.4385.4478-1.4385,1,0,.3604.2764.6733.6875.8491-.0615.1294-.0976.2759-.1054.4312.0068-.0913.0175-.2412.0322054-.2803h-2.3408054v2.0444c-.1045-.0102-.2129-.0171-.3251946-.0171-.0537053,0-.1055053.0044-.1582053.0069-.168-.2417-.4151-.398-.6934-.398-.5059,0-.916.502-.916,1.1216,0,.6192.4101,1.1211.916,1.1211.3652,0,.6797-.2651.8252-.645.0088,0,.0166.001.0264053.001.1122947,0,.2206946-.0069.3251946-.0171v2.1157h1.1572c-.0342-.0781-.0586-.1582-.0586-.2427,0-.5019.6445-.9092,1.4394-.9092.794,0,1.4385.4073,1.4385.9092,0,.0845-.0234.1646-.0586.2427h1.8379055v-1.1641c-.5283055-.0615-.9424055-.5717-.9424055-1.1997,0-.6279.4141-1.1382.9424055-1.2002Z" fill="#d68100" stroke="#000" stroke-linecap="round" stroke-linejoin="round" stroke-width="2"/>
    <g mask="url(#mask-2)">
      <g>
        <path d="M9.666,8.2778v-1.7695h-1.7646055c.0136055.0391.0254.189.0312.2803-.0078-.1553-.043-.3018-.1055-.4312.4112-.1758.6875-.4887.6875-.8491,0-.5522-.6435-1-1.4394-1-.7939,0-1.4385.4478-1.4385,1,0,.3604.2764.6733.6875.8491-.0615.1294-.0976.2759-.1054.4312.0068-.0913.0175-.2412.0322054-.2803h-2.3408054v2.0444c-.1045-.0102-.2129-.0171-.3251946-.0171-.0537053,0-.1055053.0044-.1582053.0069-.168-.2417-.4151-.398-.6934-.398-.5059,0-.916.502-.916,1.1216,0,.6192.4101,1.1211.916,1.1211.3652,0,.6797-.2651.8252-.645.0088,0,.0166.001.0264053.001.1122947,0,.2206946-.0069.3251946-.0171v2.1157h1.1572c-.0342-.0781-.0586-.1582-.0586-.2427,0-.5019.6445-.9092,1.4394-.9092.794,0,1.4385.4073,1.4385.9092,0,.0845-.0234.1646-.0586.2427h1.8379055v-1.1641c-.5283055-.0615-.9424055-.5717-.9424055-1.1997,0-.6279.4141-1.1382.9424055-1.2002Z" fill="url(#linear-gradient)"/>
        <path d="M10.2411945,8.9443v-1.7695h-1.7646c.0146.0391.0263.1895.0322.2803-.0077945-.1553-.044-.3018-.1065-.4307.4112-.1758.6885-.4892.6885-.8496,0-.5522-.6445-1-1.4394-1-.795,0-1.4395.4478-1.4395,1,0,.3604.2774.6738.6885.8496-.0615.1289-.0986.2754-.1065.4307.0069-.0908.0176-.2412.0323-.2803h-2.3407999v2.0449c-.1045-.0107-.2129-.0176-.3252-.0176-.0538,0-.1045.0044-.1573.0069-.1678946-.2412-.416-.3975-.6943-.3975-.5049,0-.915.502-.915,1.1211,0,.6192.4101,1.1211.915,1.1211.3662,0,.6797-.2646.8252-.6445.0098,0,.0176.001.0264.001.1123,0,.2207-.0069.3252-.0176v2.1157h1.1582c-.0352-.0776-.0585946-.1577-.0585946-.2427,0-.5019.6444946-.9092,1.4383946-.9092.794,0,1.4385.4073,1.4385.9092,0,.085-.0234.1651-.0586.2427h1.8379v-1.1641c-.5273-.0615-.9414-.5717-.9414-1.1997,0-.6279.4141-1.1382.9414-1.2002Z" fill="url(#linear-gradient-2)"/>
      </g>
    </g>
  </g>
</svg>