<?xml version="1.0" encoding="UTF-8"?>
<svg id="Icons_-_16x16" data-name="Icons - 16x16" xmlns="http://www.w3.org/2000/svg" width="16" height="16" xmlns:xlink="http://www.w3.org/1999/xlink" viewBox="0 0 16 16">
  <defs>
    <linearGradient id="New_Gradient_63" data-name="New Gradient 63" x1="-.1023811" y1="-9.4110702" x2="12.6575439" y2="-20.1179187" gradientTransform="translate(1.955 20.737) rotate(13.2092189) scale(1.0586085 .9446279) skewX(11.82935)" gradientUnits="userSpaceOnUse">
      <stop offset="0" stop-color="#ccc"/>
      <stop offset=".415726" stop-color="#f2f2f2"/>
      <stop offset=".48877" stop-color="#fff"/>
      <stop offset=".578659" stop-color="#e5e5e5"/>
      <stop offset="1" stop-color="#d9d9d9"/>
    </linearGradient>
    <linearGradient id="New_Gradient_62" data-name="New Gradient 62" x1=".288703" y1="-11.8027136" x2="9.2579598" y2="-20.7719704" gradientTransform="translate(1.955 20.737) rotate(13.2092189) scale(1.0586085 .9446279) skewX(11.82935)" gradientUnits="userSpaceOnUse">
      <stop offset="0" stop-color="#999"/>
      <stop offset=".415726" stop-color="#f2f2f2"/>
      <stop offset=".48877" stop-color="#fff"/>
      <stop offset=".578659" stop-color="#e5e5e5"/>
      <stop offset="1" stop-color="#d9d9d9"/>
    </linearGradient>
    <mask id="mask" x="4.8227995" y="3.0907704" width="9.0376005" height="11.7627457" maskUnits="userSpaceOnUse">
      <path d="M6.1226,3.5068l6.8061-.0488c.5151-.0029.9317.3867.9317.8711v9.5928c0,.4853-.417.8808-.9317.8838l-6.8061.0478c-.5147.0029-.9327-.3877-.9322-.8721l-.0005-9.5937c.0005-.4824.418-.8779.9327-.8809Z" fill="#fff" fill-rule="evenodd"/>
    </mask>
    <linearGradient id="New_Gradient_60" data-name="New Gradient 60" x1="9.0863545" y1="2.8769805" x2="9.964617" y2="15.43672" gradientUnits="userSpaceOnUse">
      <stop offset="0" stop-color="#d9d9d9"/>
      <stop offset="1" stop-color="#ccc"/>
    </linearGradient>
    <linearGradient id="New_Gradient_61" data-name="New Gradient 61" x1="2.1903916" y1="-19.9759576" x2="11.6205625" y2="-8.3306664" gradientTransform="translate(1.955 20.737) rotate(13.2092189) scale(1.0586085 .9446279) skewX(11.82935)" gradientUnits="userSpaceOnUse">
      <stop offset="0" stop-color="#ccc"/>
      <stop offset="1" stop-color="#fff"/>
    </linearGradient>
    <mask id="mask-1" x="5.0462999" y="6.5116978" width="7.5641001" height="7.2237027" maskUnits="userSpaceOnUse">
      <path d="M6.0933,10.7305c0-1.6621,1.4311-3.0108,3.1967-3.0127,1.7657-.002,3.1944,1.3418,3.1949,3.0039,0,1.6621-1.4292,3.0107-3.1949,3.0137-1.7656.0009-3.1967-1.3438-3.1967-3.0049Z" fill="#fff" fill-rule="evenodd"/>
    </mask>
    <radialGradient id="New_Gradient_59" data-name="New Gradient 59" cx="30.6376012" cy="1.8016839" fx="30.6376012" fy="1.8016839" r="6.6375506" gradientTransform="translate(-17.1935 4.8802) rotate(13.2071526) scale(.9537257 .8509804) skewX(11.8267101)" gradientUnits="userSpaceOnUse">
      <stop offset="0" stop-color="#f2f2f2"/>
      <stop offset=".415726" stop-color="#ccc"/>
      <stop offset="1" stop-color="gray"/>
    </radialGradient>
    <mask id="mask-2" x="7.1948" y="3.459896" width="3.9005" height="3.713008" maskUnits="userSpaceOnUse">
      <path d="M7.8086,5.6689c0-.83.7158-1.5048,1.5986-1.5058.8838-.002,1.5987.6709,1.5987,1.5029,0,.8311-.7149,1.5059-1.5987,1.5069-.8828.0009-1.5986-.6709-1.5986-1.504Z" fill="#fff" fill-rule="evenodd"/>
    </mask>
    <mask id="mask-3" x="7.1948" y="3.459896" width="3.9005" height="3.713008" maskUnits="userSpaceOnUse">
      <path d="M7.5464,5.3184c0-.8311.7173-1.5059,1.5996-1.5069.8828-.0019,1.5977.6709,1.5977,1.503,0,.831-.7149,1.5058-1.5977,1.5068-.8828.0019-1.5996-.6719-1.5996-1.5029Z" fill="#fff" fill-rule="evenodd" stroke="#fff" stroke-miterlimit="3.8637" stroke-width=".7032"/>
    </mask>
    <radialGradient id="New_Gradient_53" data-name="New Gradient 53" cx="10.6602505" cy="6.9585513" fx="10.6602505" fy="6.9585513" r="3.3939275" gradientUnits="userSpaceOnUse">
      <stop offset="0" stop-color="#f2f2f2"/>
      <stop offset=".443817" stop-color="#ccc"/>
      <stop offset="1" stop-color="gray"/>
    </radialGradient>
    <radialGradient id="New_Gradient_58" data-name="New Gradient 58" cx="27.6591302" cy="-7.2500164" fx="27.6591302" fy="-7.2500164" r="1.2590045" gradientTransform="translate(-17.1935 4.8802) rotate(13.2071526) scale(.9537257 .8509804) skewX(11.8267101)" gradientUnits="userSpaceOnUse">
      <stop offset="0" stop-color="#f2f2f2"/>
      <stop offset="1" stop-color="#999"/>
    </radialGradient>
    <radialGradient id="New_Gradient_52" data-name="New Gradient 52" cx="26.9472793" cy="-1.9741549" fx="26.9472793" fy="-1.9741549" r="2.2255905" gradientTransform="translate(-17.1935 4.8802) rotate(13.2071526) scale(.9537257 .8509804) skewX(11.8267101)" gradientUnits="userSpaceOnUse">
      <stop offset="0" stop-color="#f2f2f2"/>
      <stop offset="1" stop-color="#999"/>
    </radialGradient>
    <mask id="mask-4" x="5.5767" y="3.9297" width=".9936" height="1.0137" maskUnits="userSpaceOnUse">
      <path d="M6.1719,4.1904c.2202,0,.3984.168.3984.375,0,.208-.1782.377-.3984.378-.2217,0-.4004-.169-.4004-.376,0-.208.1787-.377.4004-.377Z" fill="#fff"/>
    </mask>
    <mask id="mask-5" x="5.5767" y="12.8174" width=".9936" height="1.0146" maskUnits="userSpaceOnUse">
      <path d="M6.1719,13.0781c.2202,0,.3984.168.3984.376s-.1782.377-.3984.3779c-.2212,0-.4004-.1689-.4004-.3759,0-.2081.1787-.377.4004-.378Z" fill="#fff"/>
    </mask>
    <mask id="mask-6" x="11.8267" y="3.8427956" width=".994601" height="1.012708" maskUnits="userSpaceOnUse">
      <path d="M12.4199,4.1035c.2217,0,.4019.168.4014.375,0,.209-.1797.377-.4014.377-.2207.0009-.3989-.167-.3989-.376,0-.207.1782-.376.3989-.376Z" fill="#fff"/>
    </mask>
    <mask id="mask-7" x="11.8594" y="12.6835956" width=".9927" height="1.0137044" maskUnits="userSpaceOnUse">
      <path d="M12.4531,12.9443c.2207,0,.399.168.399.375,0,.208-.1783.376-.399.378-.2207,0-.3999-.168-.3999-.377,0-.208.1792-.376.3999-.376Z" fill="#fff"/>
    </mask>
    <linearGradient id="New_Gradient_50" data-name="New Gradient 50" x1="2.713619" y1="-19.9136779" x2="11.9766168" y2="-7.6212645" gradientTransform="translate(1.955 20.737) rotate(13.2092189) scale(1.0586085 .9446279) skewX(11.82935)" gradientUnits="userSpaceOnUse">
      <stop offset="0" stop-color="#fff"/>
      <stop offset="1" stop-color="#e5e5e5"/>
    </linearGradient>
    <linearGradient id="New_Gradient_49" data-name="New Gradient 49" x1="5.0299538" y1="-21.3067858" x2="8.4450501" y2="-7.6095826" gradientTransform="translate(1.955 20.737) rotate(13.2092189) scale(1.0586085 .9446279) skewX(11.82935)" gradientUnits="userSpaceOnUse">
      <stop offset="0" stop-color="#b2b2b2"/>
      <stop offset="1" stop-color="gray"/>
    </linearGradient>
    <linearGradient id="New_Gradient_44" data-name="New Gradient 44" x1=".0048803" y1="-8.4530276" x2="4.0742076" y2="-11.8675987" gradientTransform="translate(1.955 20.737) rotate(13.2092189) scale(1.0586085 .9446279) skewX(11.82935)" gradientUnits="userSpaceOnUse">
      <stop offset="0" stop-color="#ccc"/>
      <stop offset="1" stop-color="#b2b2b2"/>
    </linearGradient>
    <linearGradient id="New_Gradient_43" data-name="New Gradient 43" x1="7.167743" y1="-19.8415482" x2="10.7521524" y2="-22.8492248" gradientTransform="translate(1.955 20.737) rotate(13.2092189) scale(1.0586085 .9446279) skewX(11.82935)" gradientUnits="userSpaceOnUse">
      <stop offset="0" stop-color="#d9d9d9"/>
      <stop offset="1" stop-color="#fff"/>
    </linearGradient>
  </defs>
  <path d="M5.3643,14.4922l-2.1919-2.4609c-.1084-.1426-.1719-.3174-.1724-.5079l.0005-9.5927c0-.4844.416-.8799.9302-.8838l6.8081-.0469c.3115-.002.5717.1328.7549.3604l2.1757,2.4384c.1197.1475.191.3321.191.5303v9.5928c0,.4853-.417.8808-.9317.8838l-6.8061.0478c-.3135.001-.5894-.1406-.7583-.3613Z" fill="url(#New_Gradient_63)" stroke="#000" stroke-miterlimit="3.8637" stroke-width="2"/>
  <path d="M5.3643,14.4922l-2.1919-2.4609c-.1084-.1426-.1719-.3174-.1724-.5079l.0005-9.5927c0-.4844.416-.8799.9302-.8838l6.8081-.0469c.3115-.002.5717.1328.7549.3604l2.1918,2.4599L5.3643,14.4922Z" fill="url(#New_Gradient_62)" fill-rule="evenodd"/>
  <g mask="url(#mask)">
    <g>
      <path d="M6.1226,3.5068l6.8061-.0488c.5151-.0029.9317.3867.9317.8711v9.5928c0,.4853-.417.8808-.9317.8838l-6.8061.0478c-.5147.0029-.9327-.3877-.9322-.8721l-.0005-9.5937c.0005-.4824.418-.8779.9327-.8809Z" fill="url(#New_Gradient_60)" fill-rule="evenodd"/>
      <path d="M5.7358,3.1367l6.6719-.0459c.5034-.0039.9126.378.9126.8526v9.4033c0,.4746-.4092.8613-.9126.8662l-6.6719.0449c-.5039.0039-.9135-.3789-.913-.8535V4.0029c0-.4746.4091-.8623.913-.8662Z" fill="url(#New_Gradient_61)" fill-rule="evenodd"/>
    </g>
  </g>
  <g mask="url(#mask-1)">
    <g>
      <path d="M6.0933,10.7305c0-1.6621,1.4311-3.0108,3.1967-3.0127,1.7657-.002,3.1944,1.3418,3.1949,3.0039,0,1.6621-1.4292,3.0107-3.1949,3.0137-1.7656.0009-3.1967-1.3438-3.1967-3.0049Z" fill="#ccc" fill-rule="evenodd"/>
      <path d="M5.6323,10.1104c0-1.6612,1.4317-3.0108,3.1968-3.0127,1.7647-.002,3.1953,1.3437,3.1953,3.0048,0,1.6612-1.4306,3.0108-3.1953,3.0127-1.7651.003-3.1973-1.3437-3.1968-3.0048Z" fill="url(#New_Gradient_59)" fill-rule="evenodd" stroke="#4c4c4c" stroke-miterlimit="3.8637" stroke-width="1.172"/>
    </g>
  </g>
  <g mask="url(#mask-2)">
    <g>
      <path d="M7.8086,5.6689c0-.83.7158-1.5048,1.5986-1.5058.8838-.002,1.5987.6709,1.5987,1.5029,0,.8311-.7149,1.5059-1.5987,1.5069-.8828.0009-1.5986-.6709-1.5986-1.504Z" fill="#b2b2b2" fill-rule="evenodd"/>
      <g mask="url(#mask-3)">
        <g>
          <path d="M7.5464,5.3184c0-.8311.7173-1.5059,1.5996-1.5069.8828-.0019,1.5977.6709,1.5977,1.503,0,.831-.7149,1.5058-1.5977,1.5068-.8828.0019-1.5996-.6719-1.5996-1.5029Z" fill="url(#New_Gradient_53)" fill-rule="evenodd"/>
          <path d="M8.8418,4.3076c.3965-.001.7178.3008.7178.6768,0,.373-.3213.6767-.7183.6767-.3989,0-.7197-.3017-.7197-.6757,0-.3731.3213-.6778.7202-.6778Z" fill="url(#New_Gradient_58)" stroke="#737373" stroke-miterlimit="3.8637" stroke-width=".3161"/>
          <path d="M7.5464,5.3184c0-.8311.7173-1.5059,1.5996-1.5069.8828-.0019,1.5977.6709,1.5977,1.503,0,.831-.7149,1.5058-1.5977,1.5068-.8828.0019-1.5996-.6719-1.5996-1.5029Z" fill="none" fill-rule="evenodd" stroke="#4c4c4c" stroke-miterlimit="3.8637" stroke-width=".7032"/>
        </g>
      </g>
    </g>
  </g>
  <path d="M8.3911,8.29c.7622-.0009,1.3794.5801,1.3794,1.2979s-.6177,1.2998-1.3794,1.3008c-.7627.0009-1.3804-.5791-1.3804-1.2969,0-.7188.6177-1.3018,1.3804-1.3018Z" fill="url(#New_Gradient_52)" stroke="#737373" stroke-miterlimit="3.8637" stroke-width=".4215"/>
  <g mask="url(#mask-4)">
    <g>
      <path d="M6.1719,4.1904c.2202,0,.3984.168.3984.375,0,.208-.1782.377-.3984.378-.2217,0-.4004-.169-.4004-.376,0-.208.1787-.377.4004-.377Z" fill="gray"/>
      <path d="M5.9756,3.9297c.2217,0,.4009.167.4009.375s-.1792.376-.4004.3769c-.2198.001-.3994-.1689-.3994-.3759,0-.208.1796-.376.3989-.376Z" fill="#4c4c4c"/>
    </g>
  </g>
  <g mask="url(#mask-5)">
    <g>
      <path d="M6.1719,13.0781c.2202,0,.3984.168.3984.376s-.1782.377-.3984.3779c-.2212,0-.4004-.1689-.4004-.3759,0-.2081.1787-.377.4004-.378Z" fill="gray"/>
      <path d="M5.9761,12.8174c.2212,0,.4004.1689.3999.3769,0,.208-.1787.376-.3999.376-.2198,0-.3994-.168-.3994-.376,0-.207.1796-.3759.3994-.3769Z" fill="#4c4c4c"/>
    </g>
  </g>
  <g mask="url(#mask-6)">
    <g>
      <path d="M12.4199,4.1035c.2217,0,.4019.168.4014.375,0,.209-.1797.377-.4014.377-.2207.0009-.3989-.167-.3989-.376,0-.207.1782-.376.3989-.376Z" fill="gray"/>
      <path d="M12.2266,3.8428c.2207-.001.3989.1679.3989.375,0,.208-.1782.3769-.3989.3779-.2207,0-.3999-.168-.3999-.375,0-.209.1792-.3769.3999-.3779Z" fill="#4c4c4c"/>
    </g>
  </g>
  <g mask="url(#mask-7)">
    <g>
      <path d="M12.4531,12.9443c.2207,0,.399.168.399.375,0,.208-.1783.376-.399.378-.2207,0-.3999-.168-.3999-.377,0-.208.1792-.376.3999-.376Z" fill="gray"/>
      <path d="M12.2593,12.6836c.2202-.001.3994.168.3994.376s-.1792.3759-.3994.3769c-.2212-.001-.3999-.1689-.3999-.3769.0005-.2071.1787-.376.3999-.376Z" fill="#4c4c4c"/>
    </g>
  </g>
  <path d="M12.793,3.3975c.5927-.0039,1.1518.4814,1.1518,1.0966v9.4024c0,.5459-.4565.9678-1.0151.9717l-6.6719.0459c-.5918.0048-1.1523-.4815-1.1523-1.0967V4.415c0-.5459.456-.9677,1.0161-.9716l6.6714-.0459ZM12.9297,3.748l-6.6724.045c-.4482.0029-.8091.3564-.8091.7597v9.4034c0,.332.2569.6113.6734.6084l6.6714-.0459c.4487-.004.8095-.3555.8091-.7598l.0004-9.4014c-.0004-.3349-.2558-.6133-.6728-.6094Z" fill="url(#New_Gradient_50)"/>
  <path d="M4.8364,13.4063V4.3955c-.0005-.7285.5132-1.2002,1.0694-1.2392.52-.0372,6.9052-.0108,6.9052-.0108.1426.001.2329.2393.0889.2383,0,0-6.3721-.0264-6.8901.0098-.481.0341-.941.4531-.941,1.0947v9.0117c0,.1455-.2324.0527-.2324-.0937Z" fill="url(#New_Gradient_49)"/>
  <polygon points="3.2695 9.3311 4.8452 11.1104 4.8486 13.4102 3.2725 11.7764 3.2695 9.3311" fill="url(#New_Gradient_44)"/>
  <polygon points="10.958 1.2578 12.707 3.123 11.3477 3.1064 9.6665 1.2656 10.958 1.2578" fill="url(#New_Gradient_43)"/>
</svg>