<?xml version="1.0" encoding="UTF-8"?>
<svg id="Icons_-_16x16" data-name="Icons - 16x16" xmlns="http://www.w3.org/2000/svg" width="16" height="16" xmlns:xlink="http://www.w3.org/1999/xlink" viewBox="0 0 16 16">
  <defs>
    <mask id="mask" x="2.1718955" y="1" width="12.6151997" height="14.6807" maskUnits="userSpaceOnUse">
      <path d="M10.708,14.6802l-7.5342045.0005-.0019-12.6807,10.6151997.0005-.0039,9.8667c0,1.3398-1.6445,2.813-3.0751952,2.813Z" fill="#fff" fill-rule="evenodd" stroke="#fff" stroke-linecap="round" stroke-linejoin="round" stroke-width="2"/>
    </mask>
    <linearGradient id="New_Gradient_66" data-name="New Gradient 66" x1="4.9620747" y1="1.1268712" x2="11.9760107" y2="15.5075711" gradientUnits="userSpaceOnUse">
      <stop offset="0" stop-color="#e5e5e5"/>
      <stop offset="1" stop-color="#fff"/>
    </linearGradient>
    <radialGradient id="New_Gradient_67" data-name="New Gradient 67" cx="-22.4817267" cy="30.3137792" fx="-22.4817267" fy="30.3137792" r="3.4923137" gradientTransform="translate(33.4022 -17.1196114) scale(1.0313 .9421)" gradientUnits="userSpaceOnUse">
      <stop offset="0" stop-color="#fff"/>
      <stop offset="1" stop-color="#ccc"/>
    </radialGradient>
    <mask id="mask-1" x="3.1718955" y="2" width="10.6327997" height="12.7285" maskUnits="userSpaceOnUse">
      <path d="M10.708,14.6802l-7.5342045.0005-.0019-12.6807,10.6151997.0005-.0039,9.8667c0,1.3398-1.6445,2.813-3.0751952,2.813Z" fill="#fff" fill-rule="evenodd"/>
    </mask>
    <linearGradient id="New_Gradient_64" data-name="New Gradient 64" x1="4.9620747" y1="1.1268712" x2="11.9760107" y2="15.5075711" gradientUnits="userSpaceOnUse">
      <stop offset="0" stop-color="#e5e5e5"/>
      <stop offset=".286514" stop-color="#f2f2f2"/>
      <stop offset=".646072" stop-color="#fff"/>
      <stop offset="1" stop-color="#fff"/>
    </linearGradient>
    <radialGradient id="New_Gradient_65" data-name="New Gradient 65" cx="-22.4817267" cy="30.3137792" fx="-22.4817267" fy="30.3137792" r="3.4923137" gradientTransform="translate(33.4022 -17.1196114) scale(1.0313 .9421)" gradientUnits="userSpaceOnUse">
      <stop offset="0" stop-color="#e5e5e5"/>
      <stop offset=".331467" stop-color="#e5e5e5"/>
      <stop offset="1" stop-color="#999"/>
    </radialGradient>
    <mask id="mask-2" x="7.477581" y="2.3576689" width="8.9524577" height="11.7746749" maskUnits="userSpaceOnUse">
      <path d="M8.4423953,12.8413l-.125-.0845s.6152-1.7998,3.2626999-5.726c2.3739999-3.5176,2.9286999-3.6451,3.1425999-3.5005.2138.144.3037.707-2.0693999,4.2246-2.6483999,3.9258-4.0868999,5.1704-4.0868999,5.1704l-.124-.084Z" fill="#fff" fill-rule="evenodd"/>
    </mask>
    <linearGradient id="New_Gradient_404" data-name="New Gradient 404" x1="7.2511026" y1="5.2643855" x2="15.9311026" y2="11.1191194" gradientUnits="userSpaceOnUse">
      <stop offset="0" stop-color="#b2b2b2"/>
      <stop offset="1" stop-color="#fff"/>
    </linearGradient>
    <linearGradient id="New_Gradient_405" data-name="New Gradient 405" x1="11.4979365" y1="6.9304486" x2="12.7422668" y2="7.76976" gradientTransform="translate(11.4372003 -6.8081098) rotate(56.0042742)" gradientUnits="userSpaceOnUse">
      <stop offset="0" stop-color="gray"/>
      <stop offset=".10112" stop-color="gray"/>
      <stop offset=".258423" stop-color="#d9d9d9"/>
      <stop offset=".943817" stop-color="#737373"/>
      <stop offset="1" stop-color="#737373"/>
    </linearGradient>
    <linearGradient id="New_Gradient_406" data-name="New Gradient 406" x1="13.7317841" y1="4.0339671" x2="14.6589474" y2="4.6593465" gradientTransform="translate(9.8794846 -9.8581223) rotate(56.0739348)" gradientUnits="userSpaceOnUse">
      <stop offset="0" stop-color="gray"/>
      <stop offset=".168533" stop-color="gray"/>
      <stop offset=".286514" stop-color="#d9d9d9"/>
      <stop offset=".70224" stop-color="#737373"/>
      <stop offset="1" stop-color="#737373"/>
    </linearGradient>
    <linearGradient id="New_Gradient_102" data-name="New Gradient 102" x1="2.0673955" y1="4.64235" x2="6.7753954" y2="4.64235" gradientUnits="userSpaceOnUse">
      <stop offset="0" stop-color="#999"/>
      <stop offset=".20224" stop-color="#f2f2f2"/>
      <stop offset=".516861" stop-color="#b2b2b2"/>
      <stop offset=".769669" stop-color="#b2b2b2"/>
      <stop offset="1" stop-color="#737373"/>
    </linearGradient>
    <linearGradient id="New_Gradient_101" data-name="New Gradient 101" x1="7.3378931" y1="4.919871" x2="5.7697167" y2="6.4880474" gradientUnits="userSpaceOnUse">
      <stop offset="0" stop-color="#4c4c4c"/>
      <stop offset=".623596" stop-color="#d9d9d9"/>
      <stop offset="1" stop-color="#4c4c4c"/>
    </linearGradient>
    <linearGradient id="New_Gradient_100" data-name="New Gradient 100" x1="8.4331624" y1="5.4145333" x2="6.2647296" y2="7.5829661" gradientUnits="userSpaceOnUse">
      <stop offset="0" stop-color="#a70000"/>
      <stop offset=".662918" stop-color="#df4e15"/>
      <stop offset="1" stop-color="#740000"/>
    </linearGradient>
    <linearGradient id="New_Gradient_99" data-name="New Gradient 99" x1="7.6764387" y1="6.6574809" x2="8.168735" y2="7.4453197" gradientUnits="userSpaceOnUse">
      <stop offset="0" stop-color="#df4e15"/>
      <stop offset="1" stop-color="#c42e00"/>
    </linearGradient>
    <linearGradient id="New_Gradient_98" data-name="New Gradient 98" x1="7.6764387" y1="6.6574809" x2="8.168735" y2="7.4453197" gradientUnits="userSpaceOnUse">
      <stop offset="0" stop-color="#df4e15"/>
      <stop offset="1" stop-color="#c42e00"/>
    </linearGradient>
    <mask id="mask-3" x="1.8241955" y=".9258" width="5.1913999" height="5.1382" maskUnits="userSpaceOnUse">
      <path d="M4.4218954,1.0571c1.2978,0,2.3534999.9366,2.3534999,2.0933,0,1.1562-1.0557,2.0933-2.3534999,2.0933-1.3008,0-2.3544999-.9371-2.3544999-2.0933,0-1.1567,1.0537-2.0933,2.3544999-2.0933Z" fill="#fff"/>
    </mask>
    <linearGradient id="New_Gradient_95" data-name="New Gradient 95" x1="2.0673955" y1="3.1504" x2="6.7753954" y2="3.1504" gradientUnits="userSpaceOnUse">
      <stop offset="0" stop-color="#999"/>
      <stop offset=".219101" stop-color="#b2b2b2"/>
      <stop offset=".466293" stop-color="#b2b2b2"/>
      <stop offset=".769669" stop-color="#f2f2f2"/>
      <stop offset="1" stop-color="#737373"/>
    </linearGradient>
    <mask id="mask-4" x="1.8241955" y="1.1763" width="5.1913999" height="4.8877" maskUnits="userSpaceOnUse">
      <path d="M4.4218954,1.6548c1.167,0,2.1151999.8442,2.1151999,1.8838,0,1.0405-.9482,1.8838-2.1151999,1.8838-1.1708954,0-2.1191999-.8433-2.1191999-1.8838,0-1.0396.9483045-1.8838,2.1191999-1.8838Z" fill="#fff" stroke="#fff" stroke-miterlimit="3.8637" stroke-width=".957"/>
    </mask>
    <linearGradient id="New_Gradient_96" data-name="New Gradient 96" x1="2.3026955" y1="3.5386" x2="6.5370954" y2="3.5386" gradientUnits="userSpaceOnUse">
      <stop offset="0" stop-color="#5587c0"/>
      <stop offset=".20787" stop-color="#97bae0"/>
      <stop offset=".865173" stop-color="#b3e0ff"/>
      <stop offset="1" stop-color="#5587c0"/>
    </linearGradient>
    <radialGradient id="New_Gradient_97" data-name="New Gradient 97" cx="35.4775294" cy="29.9093283" fx="35.4775294" fy="29.9093283" r="3.8044848" gradientTransform="translate(-28.4352221 -34.3505) scale(.8903 1.2253)" gradientUnits="userSpaceOnUse">
      <stop offset="0" stop-color="#78dcff"/>
      <stop offset="1" stop-color="#b7e9ff"/>
    </radialGradient>
    <linearGradient id="linear-gradient" x1="2.7653252" y1="1.4696218" x2="5.9418604" y2="4.6461569" gradientUnits="userSpaceOnUse">
      <stop offset="0" stop-color="gray"/>
      <stop offset=".187809" stop-color="#82868b"/>
      <stop offset=".5233754" stop-color="#8a99aa"/>
      <stop offset=".9651405" stop-color="#95b7db"/>
      <stop offset="1" stop-color="#97bae0"/>
    </linearGradient>
    <linearGradient id="New_Gradient_89" data-name="New Gradient 89" x1="2.8315412" y1="1.5620615" x2="6.0086395" y2="4.7391598" gradientUnits="userSpaceOnUse">
      <stop offset="0" stop-color="gray"/>
      <stop offset="1" stop-color="#fff"/>
    </linearGradient>
    <mask id="mask-5" x="2.3026955" y="2.0818053" width="4.2343999" height="3.9821947" maskUnits="userSpaceOnUse">
      <path d="M3.7216955,2.0933c.3984-.0664.75.1616.7793045.5102.0311954.3491-.2666046.687-.6651045.7544-.3994.0664-.748-.1611-.7802-.5107-.0303-.3487.2675-.6861.666-.7539Z" fill="#fff"/>
    </mask>
  </defs>
  <g>
    <g>
      <g mask="url(#mask)">
        <g>
          <path d="M10.708,14.6802l-7.5342045.0005-.0019-12.6807,10.6151997.0005-.0039,9.8667c0,1.3398-1.6445,2.813-3.0751952,2.813Z" fill="url(#New_Gradient_66)" fill-rule="evenodd"/>
          <path d="M10.2167953,14.7275s1.7598-.0615,1.7607-1.8447c1.8116.0005,1.8272-1.4438,1.8272-1.4438l-.001,3.2895-3.5868999-.001Z" fill="url(#New_Gradient_67)" fill-rule="evenodd"/>
          <path d="M10.708,14.6802l-7.5342045.0005-.0019-12.6807,10.6151997.0005-.0039,9.8667c0,1.3398-1.6445,2.813-3.0751952,2.813Z" fill="none" fill-rule="evenodd" stroke="#000" stroke-linecap="round" stroke-linejoin="round" stroke-width="2"/>
        </g>
      </g>
      <g mask="url(#mask-1)">
        <g>
          <path d="M10.708,14.6802l-7.5342045.0005-.0019-12.6807,10.6151997.0005-.0039,9.8667c0,1.3398-1.6445,2.813-3.0751952,2.813Z" fill="url(#New_Gradient_64)" fill-rule="evenodd"/>
          <path d="M10.2167953,14.7275s1.2236-.4487,1.2246-2.2329c1.8115-.0005,2.3632999-1.0556,2.3632999-1.0556l-.001,3.2895-3.5868999-.001Z" fill="url(#New_Gradient_65)" fill-rule="evenodd"/>
        </g>
      </g>
    </g>
    <g>
      <line x1="4.5712954" y1="6.5527" x2="6.9550954" y2="6.5527" fill="none" stroke="#999" stroke-linecap="round" stroke-miterlimit="3.8637" stroke-width=".7125"/>
      <line x1="10.0751953" y1="4.5527" x2="12.459" y2="4.5527" fill="none" stroke="#999" stroke-linecap="round" stroke-miterlimit="3.8637" stroke-width=".7125"/>
      <line x1="8.3310953" y1="6.5527" x2="12.459" y2="6.5527" fill="none" stroke="#999" stroke-linecap="round" stroke-miterlimit="3.8637" stroke-width=".7125"/>
      <line x1="4.4706954" y1="12.5527" x2="10.3944953" y2="12.5527" fill="none" stroke="#999" stroke-linecap="round" stroke-miterlimit="3.8637" stroke-width=".7125"/>
      <line x1="4.5712954" y1="8.5527" x2="6.4960954" y2="8.5527" fill="none" stroke="#999" stroke-linecap="round" stroke-miterlimit="3.8637" stroke-width=".7125"/>
      <line x1="7.6288954" y1="8.5527" x2="9.5536953" y2="8.5527" fill="none" stroke="#999" stroke-linecap="round" stroke-miterlimit="3.8637" stroke-width=".7125"/>
      <line x1="10.3183953" y1="8.5527" x2="12.459" y2="8.5527" fill="none" stroke="#999" stroke-linecap="round" stroke-miterlimit="3.8637" stroke-width=".7125"/>
      <line x1="4.5712954" y1="4.5527" x2="8.3310953" y2="4.5527" fill="none" stroke="#999" stroke-linecap="round" stroke-miterlimit="3.8637" stroke-width=".7125"/>
      <line x1="4.5712954" y1="10.5527" x2="7.7196954" y2="10.5527" fill="none" stroke="#999" stroke-linecap="round" stroke-miterlimit="3.8637" stroke-width=".7125"/>
      <line x1="8.5985953" y1="10.5527" x2="12.6112952" y2="10.5527" fill="none" stroke="#999" stroke-linecap="round" stroke-miterlimit="3.8637" stroke-width=".7125"/>
    </g>
  </g>
  <g>
    <path d="M8.5556953,12.918l-.1016.1518c-.1035.1519-.3310953-.0019-.2285-.1538l.1035-.1514c-.0117-.0078.6035-1.8076,3.2509999-5.7338.9053-1.3409,1.5449047-2.189,2.0039047-2.7173-.3965048-.1592-1.4141048,1.459-1.4141048,1.459,0,0-.0127.1728-.1698952.4062-.1582047.2349-.3584047.0698-.3584047.0698,0,0,.8906-1.2426,1.3242-1.8862.5108-.7554.9287-.542,1.0215-.4805.4434-.4277.6309-.4223.7354-.3515.2138.144.3037.707-2.0693999,4.2246-2.6483999,3.9258-4.0868999,5.1704-4.0868999,5.1704l-.0107-.0073Z" fill="#f2f2f2" stroke="#000" stroke-linecap="round" stroke-linejoin="round" stroke-width="2"/>
    <g>
      <g>
        <path d="M14.0067952,3.895s-.4629-.3896-1.041.4673c-.4336.6436-1.3242,1.8862-1.3242,1.8862,0,0,.2002.1651.3584047-.0698.1571952-.2334.1698952-.4062.1698952-.4062,0,0,1.0674-1.6963,1.4414-1.4444.2901.1953.3955-.4331.3955-.4331Z" fill="#f2f2f2" fill-rule="evenodd"/>
        <path d="M8.8280953,12.5151l-.374.5547c-.1035.1519-.3310953-.0019-.2285-.1538l.375-.5542c.1015-.1518.3291.0015.2275.1533Z" fill="#999"/>
        <g mask="url(#mask-2)">
          <g>
            <path d="M8.4423953,12.8413l-.125-.0845s.6152-1.7998,3.2626999-5.726c2.3739999-3.5176,2.9286999-3.6451,3.1425999-3.5005.2138.144.3037.707-2.0693999,4.2246-2.6483999,3.9258-4.0868999,5.1704-4.0868999,5.1704l-.124-.084Z" fill="url(#New_Gradient_404)" fill-rule="evenodd"/>
            <path d="M8.5741953,13.1089s1.7344-1.8584,4.1064999-5.375c2.6346999-3.9053,2.2264999-4.3067,2.2264999-4.3067" fill="none" stroke="#b2b2b2" stroke-miterlimit="3.8637" stroke-width="3"/>
            <rect x="11.6677973" y="6.466595" width=".9046459" height="1.7670101" transform="translate(-.750431 13.2889715) rotate(-56.0042742)" fill="url(#New_Gradient_405)" stroke="#666" stroke-miterlimit="3.8637"/>
            <rect x="13.9057811" y="3.5719964" width=".5795307" height="1.5496073" transform="translate(2.6658964 13.6996273) rotate(-56.0739348)" fill="url(#New_Gradient_406)" stroke="#666" stroke-miterlimit="3.8637"/>
          </g>
        </g>
      </g>
      <path d="M8.5487953,12.54s.7442047-1.6235,2.8407999-4.8344l.2413.1626-3.0820999,4.6718Z" fill="#fff" fill-rule="evenodd"/>
      <path d="M12.3915952,6.7197l1.4102-2.0068-.1836-.1245s-.7569.9131-1.4678,1.9682l.2412.1631Z" fill="#fff" fill-rule="evenodd"/>
    </g>
  </g>
  <g>
    <path d="M8.457,6.5928c-.2929047-.2925-.6064046-.6065-1.0449046-1.0425-.1807-.1826-.3945-.228-.5918-.1875l-.4726-.4741c.2675-.3394.4277-.752.4277-1.1983v-.1894h-.0371c.0215-.1148.0371-.232.0371-.3506,0-.187-.0322-.3657-.082-.5371-.0723-.2564-.1933954-.4922-.3565-.6978-.4218954-.6035-1.167-.9897-1.9823999-.9897-1.2588,0-2.3505999.9106-2.3505999,2.1323,0,.169.0234.3306.0635.4849v.1474c0,1.1558,1.0537,2.0933,2.3544999,2.0933.4697,0,.9033-.125,1.2715-.3335v.0005l.5205.519c-.0401.1968.0049.4107.1855.5933.4375.4365.752.75,1.0449,1.0425.4258.4282,1.4385-.586,1.0127046-1.0127Z" stroke="#000" stroke-linecap="round" stroke-linejoin="round" stroke-width="2"/>
    <g>
      <path d="M2.0673955,3.501v.1894c0,1.1558,1.0537,2.0933,2.3544999,2.0933,1.2978,0,2.3534999-.9375,2.3534999-2.0933v-.1894H2.0673955Z" fill="url(#New_Gradient_102)" fill-rule="evenodd"/>
      <path d="M6.3007954,4.8428l.957.958c.6143.6138.0068,1.2212-.6084.6069l-.956-.957c-.4053-.4058.2031-1.0132.6074-.6079Z" fill="url(#New_Gradient_101)"/>
      <g>
        <path d="M7.4120954,5.5503c.4385.436.752.75,1.0449046,1.0425.4257953.4267-.5869046,1.4409-1.0127046,1.0127-.2929-.2925-.6074-.606-1.0449-1.0425-.6377-.6387.376-1.6509,1.0127-1.0127Z" fill="url(#New_Gradient_100)"/>
        <path d="M6.4687954,5.7495c.3691.3696.7138.7129.9736.9741" fill="none" stroke="#ff7845" stroke-linecap="round" stroke-miterlimit="3.8637" stroke-width="1.4356"/>
        <path d="M8.0604954,6.4971c.3477-.042.5508.1601.4473.4472-.1055.2896-.4209.6055-.7099.7095-.2881.1025-.4893-.1001-.4473-.4482.0439-.3467.3633-.6651.7099-.7085Z" fill="url(#New_Gradient_99)" stroke="#a70000" stroke-miterlimit="3.8637" stroke-width=".4785"/>
        <path d="M8.0604954,6.4971c.3477-.042.5508.1601.4473.4472-.1055.2896-.4209.6055-.7099.7095-.2881.1025-.4893-.1001-.4473-.4482.0439-.3467.3633-.6651.7099-.7085Z" fill="url(#New_Gradient_98)"/>
      </g>
      <g mask="url(#mask-3)">
        <g>
          <path d="M4.4218954,1.0571c1.2978,0,2.3534999.9366,2.3534999,2.0933,0,1.1562-1.0557,2.0933-2.3534999,2.0933-1.3008,0-2.3544999-.9371-2.3544999-2.0933,0-1.1567,1.0537-2.0933,2.3544999-2.0933Z" fill="url(#New_Gradient_95)"/>
          <g mask="url(#mask-4)">
            <g>
              <path d="M4.4218954,1.6548c1.167,0,2.1151999.8442,2.1151999,1.8838,0,1.0405-.9482,1.8838-2.1151999,1.8838-1.1708954,0-2.1191999-.8433-2.1191999-1.8838,0-1.0396.9483045-1.8838,2.1191999-1.8838Z" fill="url(#New_Gradient_96)"/>
              <path d="M4.4218954,2.2974c1.167,0,2.1151999.8427,2.1151999,1.8828,0,1.04-.9482,1.8838-2.1151999,1.8838-1.1708954,0-2.1191999-.8438-2.1191999-1.8838,0-1.0401.9483045-1.8828,2.1191999-1.8828Z" fill="url(#New_Gradient_97)"/>
              <path d="M4.4218954,1.6548c1.167,0,2.1151999.8442,2.1151999,1.8838,0,1.0405-.9482,1.8838-2.1151999,1.8838-1.1708954,0-2.1191999-.8433-2.1191999-1.8838,0-1.0396.9483045-1.8838,2.1191999-1.8838Z" fill="none" stroke="#69c" stroke-miterlimit="3.8637" stroke-width=".957"/>
            </g>
          </g>
          <path d="M4.3544954.9258c1.2568,0,2.3485999.9106,2.3485999,2.1323,0,1.2212-1.0918,2.1318-2.3485999,2.1318-1.2588,0-2.3505999-.9106-2.3505999-2.1318,0-1.2217,1.0918-2.1323,2.3505999-2.1323ZM4.3544954,1.1724c-1.2393,0-2.1698999.8877-2.1698999,1.8857,0,.9976.9306,1.8867,2.1698999,1.8867,1.2363,0,2.1679999-.8891,2.1679999-1.8867,0-.998-.9317-1.8857-2.1679999-1.8857Z" fill="url(#linear-gradient)"/>
        </g>
      </g>
      <path d="M4.4218954,1.0181c1.2568,0,2.3475999.9111,2.3475999,2.1323,0,1.2217-1.0908,2.1328-2.3475999,2.1328-1.2608,0-2.3515999-.9111-2.3515999-2.1328,0-1.2212,1.0908-2.1323,2.3515999-2.1323ZM4.4218954,1.2646c-1.2383,0-2.1708954.8877-2.1708954,1.8858,0,.9975.9325955,1.8862,2.1708954,1.8862,1.2363,0,2.1669999-.8887,2.1669999-1.8862,0-.9981-.9307-1.8858-2.1669999-1.8858Z" fill="url(#New_Gradient_89)"/>
      <g mask="url(#mask-5)">
        <g>
          <path d="M3.7216955,2.0933c.3984-.0664.75.1616.7793045.5102.0311954.3491-.2666046.687-.6651045.7544-.3994.0664-.748-.1611-.7802-.5107-.0303-.3487.2675-.6861.666-.7539Z" fill="#b3e0ff"/>
          <path d="M4.4218954,2.2974c1.167,0,2.1151999.8427,2.1151999,1.8828,0,1.04-.9482,1.8838-2.1151999,1.8838-1.1708954,0-2.1191999-.8438-2.1191999-1.8838,0-1.0401.9483045-1.8828,2.1191999-1.8828Z" fill="#fff"/>
        </g>
      </g>
    </g>
  </g>
</svg>