<?xml version='1.0' encoding='UTF-8'?>
<svg xmlns="http://www.w3.org/2000/svg" xmlns:xlink="http://www.w3.org/1999/xlink" id="Set_5" data-name="Set 5" width="16" height="16" viewBox="0 0 16 16">
  <defs>
    <mask id="mask" x=".2497903" y="4" width="16.483551" height="11.9993656" maskUnits="userSpaceOnUse">
      <rect x="2.0054" y="4" width="11.7856" height="8.8418" fill="#fff"/>
    </mask>
    <linearGradient id="linear-gradient" x1="8.6461565" y1="5.6783892" x2="6.4359511" y2="13.7824862" gradientUnits="userSpaceOnUse">
      <stop offset="0" stop-color="#f3d9b2"/>
      <stop offset="1" stop-color="#6b3200"/>
    </linearGradient>
    <linearGradient id="linear-gradient-2" x1="10.5022894" y1="5.0008487" x2="11.5264918" y2="8.9334693" gradientUnits="userSpaceOnUse">
      <stop offset="0" stop-color="#c1a35f"/>
      <stop offset="1" stop-color="#6b3200"/>
    </linearGradient>
    <linearGradient id="linear-gradient-3" x1="-10.7414487" y1="8.003045" x2="-8.1910705" y2="17.7957092" gradientTransform="translate(15.6663) skewX(7.716581)" gradientUnits="userSpaceOnUse">
      <stop offset="0" stop-color="#fff"/>
      <stop offset="1" stop-color="#a9c3dc"/>
    </linearGradient>
    <radialGradient id="radial-gradient" cx="10.8540113" cy="6.2556065" fx="10.8540113" fy="6.2556065" r="9.9563608" gradientTransform="translate(.3254 -.3742) scale(1.04 1.0203)" gradientUnits="userSpaceOnUse">
      <stop offset=".134831" stop-color="#e2be89"/>
      <stop offset=".882022" stop-color="#6b3200"/>
    </radialGradient>
    <linearGradient id="linear-gradient-4" x1="2.1975421" y1="13.5114442" x2="5.8294545" y2="10.4639078" gradientUnits="userSpaceOnUse">
      <stop offset="0" stop-color="#d68112"/>
      <stop offset=".117981" stop-color="#ebb310"/>
      <stop offset=".516861" stop-color="#fff"/>
      <stop offset=".882019" stop-color="#ebb310"/>
      <stop offset="1" stop-color="#c96b0a"/>
    </linearGradient>
    <linearGradient id="linear-gradient-5" x1="1.0001128" y1="11.9995011" x2="7.0004368" y2="11.9995011" gradientUnits="userSpaceOnUse">
      <stop offset="0" stop-color="#2b76b4"/>
      <stop offset=".117981" stop-color="#b2d6e8"/>
      <stop offset=".516861" stop-color="#fff"/>
      <stop offset=".882019" stop-color="#b2d6e8"/>
      <stop offset="1" stop-color="#2b76b4"/>
    </linearGradient>
    <mask id="mask-1" x="1.3682882" y="9.3578918" width="5.2643568" height="5.2822307" maskUnits="userSpaceOnUse">
      <path d="M3.9658,9.4814c1.4356-.0244,2.6294,1.1075,2.666,2.5313.0362,1.4258-1.0952,2.6016-2.5302,2.6269-1.4356.0284-2.6304-1.1044-2.668-2.5283-.0357-1.4248,1.0957-2.6006,2.5322-2.6299Z" fill="#fff"/>
    </mask>
    <radialGradient id="New_Gradient_292" data-name="New Gradient 292" cx="22.6350959" cy="-1.1540861" fx="22.6350959" fy="-1.1540861" r="5.0673853" gradientTransform="translate(-12.6265 14.4142) scale(.8033)" gradientUnits="userSpaceOnUse">
      <stop offset="0" stop-color="#e5e5e5"/>
      <stop offset=".280899" stop-color="#e5e5e5"/>
      <stop offset="1" stop-color="#999"/>
    </radialGradient>
    <radialGradient id="New_Gradient_293" data-name="New Gradient 293" cx="-156.1376177" cy="107.9949271" fx="-156.1376177" fy="107.9949271" r="6.018048" gradientTransform="translate(96.1655 -30.1857) rotate(12.3499559) scale(.6115516 .5721741) skewX(12.9869962)" gradientUnits="userSpaceOnUse">
      <stop offset="0" stop-color="#fff"/>
      <stop offset=".48877" stop-color="#f2f2f2"/>
      <stop offset="1" stop-color="#ccc"/>
    </radialGradient>
    <linearGradient id="linear-gradient-6" x1="2.2450015" y1="10.243595" x2="6.5406033" y2="14.5391968" gradientUnits="userSpaceOnUse"><stop offset="0" stop-color="#2b76b4"/><stop offset=".117981" stop-color="#b2d6e8"/><stop offset=".516861" stop-color="#fff"/><stop offset=".882019" stop-color="#b2d6e8"/><stop offset="1" stop-color="#2b76b4"/></linearGradient>
  </defs>
  <g>
    <rect x="2.0054" y="4" width="11.7856" height="8.8418" fill="none" stroke="#000" stroke-linecap="round" stroke-linejoin="round" stroke-width="2"/>
    <g mask="url(#mask)">
      <g>
        <rect x="2.0054" y="4" width="11.7856" height="8.8418" fill="url(#linear-gradient)"/>
        <g>
          <path d="M12.4302,6.834c0,.7851-.6494,1.4228-1.4507,1.4228-.8008,0-1.4502-.6377-1.4502-1.4228,0-.7842.6494-1.4229,1.4502-1.4229.8013,0,1.4507.6387,1.4507,1.4229Z" fill="#c40000" stroke="#6b3200" stroke-width=".75"/>
          <path d="M12.4302,6.834c0,.7851-.6494,1.4228-1.4507,1.4228-.8008,0-1.4502-.6377-1.4502-1.4228,0-.7842.6494-1.4229,1.4502-1.4229.8013,0,1.4507.6387,1.4507,1.4229Z" fill="url(#linear-gradient-2)"/>
        </g>
        <g>
          <path d="M4.0234,10.5596c.7613-.0069,1.1294-.5371,1.4873-.8311.3941-.3242,1.3457-.3877,1.5586-.7597,1.229,1.08,3.1568,1.205,4.0625,2.3398.6236.1904.6578-.3643,1.0533-.3897.3691-.0253.6987.3145,1.0693.5342.3911.2315.8564.374,1.23.7949.5195.584.667,1.5616.8462,2.0918-1.0137-.0195-1.7632.6778-3.0816.6592-.5937-.0088-1.3969-.2236-2.0986-.2656-.6275-.0381-1.1773.1172-1.8442.1211-.6446-.083-1.3218-.1631-2.0347-.2432-1.1597-.1289-2.4009-.2148-3.7368-.2529-.5611-.1396-.5948-.0781-1.0581-.2881.2861-.8828-.6983-4.0185,1.3252-3.6328" fill="url(#linear-gradient-3)" stroke="#6f4b0a" stroke-width="2"/>
          <path d="M4.0234,10.5596c.7613-.0069,1.1294-.5371,1.4873-.8311.3941-.3242,1.3457-.3877,1.5586-.7597,1.229,1.08,3.1568,1.205,4.0625,2.3398.6236.1904.6578-.3643,1.0533-.3897.3691-.0253.6987.3145,1.0693.5342.3911.2315.8564.374,1.23.7949.5195.584.667,1.5616.8462,2.0918-1.0137-.0195-1.7632.6778-3.0816.6592-.5937-.0088-1.3969-.2236-2.0986-.2656-.6275-.0381-1.1773.1172-1.8442.1211-.6446-.083-1.3218-.1631-2.0347-.2432-1.1597-.1289-2.4009-.2148-3.7368-.2529-.5611-.1396-.5948-.0781-1.0581-.2881.2861-.8828-.6983-4.0185,1.3252-3.6328" fill="url(#radial-gradient)"/>
        </g>
      </g>
    </g>
  </g>
  <g>
    <path d="M3.8867,9h0c-.8144.0156-1.5664.3525-2.1123.9473-.5176.5644-.792,1.2978-.7734,2.0693.0459,1.6748,1.4424,3.0137,3.1137,2.9824.815-.0156,1.5645-.3535,2.1119-.9492.5185-.5635.792-1.2988.7729-2.0684-.0449-1.6767-1.4409-3.0126-3.1128-2.9814ZM1.9556,12.0225c0-.502.187-.9805.5312-1.3555.3882-.4229.9185-.6602,1.4966-.6719,1.127-.0205,2.0322.8262,2.0601,1.9278.0141.5224-.1744,1.0224-.5308,1.4101-.3867.4219-.917.6602-1.4961.6699-1.126.0215-2.0308-.8261-2.0605-1.9267-.0005-.0186-.0005-.0381-.0005-.0537Z" fill="url(#linear-gradient-4)" fill-rule="evenodd" stroke="#000" stroke-miterlimit="3.8637" stroke-width="2"/>
    <path d="M3.8867,9h0c-.8144.0156-1.5664.3525-2.1123.9473-.5176.5644-.792,1.2978-.7734,2.0693.0459,1.6748,1.4424,3.0137,3.1137,2.9824.815-.0156,1.5645-.3535,2.1119-.9492.5185-.5635.792-1.2988.7729-2.0684-.0449-1.6767-1.4409-3.0126-3.1128-2.9814ZM1.9556,12.0225c0-.502.187-.9805.5312-1.3555.3882-.4229.9185-.6602,1.4966-.6719,1.127-.0205,2.0322.8262,2.0601,1.9278.0141.5224-.1744,1.0224-.5308,1.4101-.3867.4219-.917.6602-1.4961.6699-1.126.0215-2.0308-.8261-2.0605-1.9267-.0005-.0186-.0005-.0381-.0005-.0537Z" fill="url(#linear-gradient-5)" fill-rule="evenodd"/>
    <g mask="url(#mask-1)">
      <g>
        <path d="M3.9658,9.4814c1.4356-.0244,2.6294,1.1075,2.666,2.5313.0362,1.4258-1.0952,2.6016-2.5302,2.6269-1.4356.0284-2.6304-1.1044-2.668-2.5283-.0357-1.4248,1.0957-2.6006,2.5322-2.6299Z" fill="url(#New_Gradient_292)"/>
        <path d="M3.7739,9.3584c1.3628-.0273,2.4981,1.0488,2.5327,2.4023.0352,1.3536-1.042,2.4707-2.4047,2.4961-1.3643.0264-2.4966-1.0498-2.5328-2.4013-.0346-1.3555,1.0411-2.4727,2.4048-2.4971Z" fill="url(#New_Gradient_293)"/>
      </g>
    </g>
    <path d="M3.8926,9.3916c1.4443-.0273,2.6928,1.1328,2.7314,2.6016.0371,1.4238-1.0918,2.5879-2.5171,2.6152-1.4458.0254-2.6894-1.1367-2.729-2.6016-.0371-1.4257,1.0899-2.5898,2.5147-2.6152ZM3.9756,9.6045c-1.3584.0254-2.4297,1.1445-2.3955,2.4824.0351,1.2949,1.1035,2.334,2.4433,2.3076,1.3609-.0254,2.4317-1.1445,2.3965-2.4814-.0342-1.2969-1.104-2.334-2.4443-2.3086Z" fill="url(#linear-gradient-6)" fill-rule="evenodd"/>
    <g>
      <polygon points="4.9131 10.6514 5.0596 10.6465 5.0464 10.1025 4.9165 10.1045 4.7344 10.2305 4.8013 10.3252 4.9038 10.248 4.9131 10.6514" fill="#b2b2b2" fill-rule="evenodd"/>
      <path d="M5.4521,11.2783l.3965-.0088-.0034-.1035-.2168.0049.0391-.0332c.0513-.0469.1631-.1563.1601-.2617-.0024-.1084-.0918-.1582-.2148-.1582-.0327.0029-.0835.0078-.1616.0371l.0078.1123c.0351-.0205.0976-.0371.1445-.0381.0435-.002.0781.0176.0786.0645.0015.0732-.1225.1816-.2329.2793l.0029.1054Z" fill="#b2b2b2" fill-rule="evenodd"/>
      <path d="M5.7402,11.8252c.0318-.0127.0772-.0234.1275-.0234.0434,0,.0942.0087.0957.0615,0,.0439-.0537.0615-.0884.0615-.0205.0029-.0371.0029-.063.002l.0025.0947c.0175-.001.0371-.002.0605-.0029.0361-.001.1011.0048.1025.0605.0015.0566-.0654.0713-.1093.0713-.0518.001-.1011-.0029-.1368-.0225l-.0039.1153c.0411.0107.1001.0146.1612.0136.1074-.0019.2392-.039.2353-.1728-.0029-.0674-.0459-.1084-.1123-.1201l-.001-.003c.0616-.0175.0992-.0595.0977-.1211-.0029-.1191-.1162-.1474-.2188-.1445-.061.001-.1098.0088-.1601.0254l.0107.1045Z" fill="#b2b2b2" fill-rule="evenodd"/>
      <path d="M5.6807,13.2119l.1357-.0039-.0029-.1035.0791-.002-.003-.0996-.0791.0039-.0087-.3437-.1612.0019-.2119.3321.0029.1162.2456-.0069.0035.1055ZM5.6836,13.0088l-.1514.001.1436-.2305h.0014l.0064.2295Z" fill="#b2b2b2" fill-rule="evenodd"/>
      <path d="M4.8257,13.6455c.039-.0107.0791-.0166.1186-.0166.0586,0,.1221.0186.1255.0772.0015.0693-.0556.0888-.1098.0898-.0459,0-.0923-.0078-.1338-.0273l-.0005.1191c.0454.0078.0937.0156.1489.0156.1216-.0029.2393-.0517.2354-.2051-.003-.1201-.1016-.1679-.2139-.164-.0098,0-.0234.001-.0444.0039l-.0025-.0918.2344-.0039-.0039-.0986-.3584.0087.0044.293Z" fill="#b2b2b2" fill-rule="evenodd"/>
      <path d="M4.1992,13.6768c-.0415-.0157-.0869-.0235-.144-.0225-.1812.0029-.2393.1445-.2329.3115.0024.1367.0605.2549.2173.252.1215,0,.2031-.086.2011-.1856-.0024-.0996-.0669-.1728-.1699-.1699-.0552.001-.0928.0215-.1177.0566h-.001c-.0009-.0947.0259-.1591.1246-.1601.0551-.0029.0937.0098.1171.0244l.0054-.1064ZM3.9624,14.0439c-.0015-.0419.0215-.08.0689-.081.0517,0,.0732.0391.0737.083.0005.041-.0225.0801-.0694.0801-.0473,0-.0727-.0401-.0732-.0821Z" fill="#b2b2b2" fill-rule="evenodd"/>
      <polygon points="2.9502 13.9463 3.1094 13.9443 3.2944 13.5117 3.292 13.3945 2.8955 13.4014 2.8984 13.5039 3.1436 13.501 2.9502 13.9463" fill="#b2b2b2" fill-rule="evenodd"/>
      <path d="M2.1807,12.8408c.0009.0537.0449.0987.0966.1133v.002-.001c-.059.0185-.1064.0566-.1044.1357.0024.1113.0991.1543.2158.1514.1162-.001.2158-.0498.2119-.167-.002-.0801-.0537-.1152-.1133-.1309l-.0005-.0009c.0474-.0205.0894-.0596.0879-.126-.0039-.0967-.0845-.1406-.1924-.1397-.1084.002-.2055.0459-.2016.1631ZM2.4595,13.0723c.0019.0449-.0318.0713-.0738.0713-.0385.0019-.0708-.0264-.0712-.0665-.001-.041.0253-.0644.061-.08.0376.0078.0825.0263.084.0752ZM2.3135,12.8408c-.002-.039.0263-.0644.0625-.0683.0307,0,.0649.0175.0659.0586.0015.0371-.021.0546-.0596.0781-.0351-.0156-.0678-.0293-.0688-.0684Z" fill="#b2b2b2" fill-rule="evenodd"/>
      <path d="M1.9189,12.3301c.042.0176.0855.0234.1416.0224.1827-.0029.2393-.1425.2354-.3086-.0049-.1367-.0605-.2578-.2178-.2558-.122.0019-.2041.0879-.2021.1885.0039.0996.0688.1709.1689.1679.0562-.0009.0928-.0195.1182-.0547l.0019-.0009c.0015.0947-.0273.1572-.124.1601-.0547,0-.0937-.0097-.1157-.0263l-.0064.1074ZM2.1543,11.9639c.002.0429-.021.081-.0693.082-.0498.001-.0704-.0391-.0723-.085,0-.04.0234-.0771.0674-.0771.0478,0,.0737.0381.0742.0801Z" fill="#b2b2b2" fill-rule="evenodd"/>
      <g>
        <polygon points="2.083 11.4775 2.2314 11.4736 2.2168 10.9287 2.0879 10.9326 1.9033 11.0566 1.9712 11.1533 2.0732 11.0771 2.083 11.4775" fill="#b2b2b2" fill-rule="evenodd"/>
        <path d="M2.521,11.4795c.1811-.0039.2085-.1455.2056-.2871-.0049-.1397-.0391-.2813-.2207-.2783-.1817.0039-.2095.1455-.2051.2871.0044.1406.0381.2802.2202.2783ZM2.5181,11.3809c-.066.0009-.0743-.0977-.0767-.1846-.0015-.085.002-.1817.0669-.1836.0664-.001.0747.0947.0776.1816.002.0879-.0019.1866-.0678.1866Z" fill="#b2b2b2" fill-rule="evenodd"/>
      </g>
      <g>
        <polygon points="2.7622 10.6826 2.9106 10.6826 2.8955 10.1387 2.7656 10.1396 2.582 10.2617 2.6504 10.3604 2.7529 10.2852 2.7622 10.6826" fill="#b2b2b2" fill-rule="evenodd"/>
        <polygon points="3.1416 10.6768 3.2886 10.6738 3.2734 10.1289 3.145 10.1328 2.9619 10.2549 3.0293 10.3525 3.1318 10.2783 3.1416 10.6768" fill="#b2b2b2" fill-rule="evenodd"/>
      </g>
      <g>
        <polygon points="3.7554 10.3398 3.8994 10.3369 3.8877 9.793 3.7588 9.7949 3.5752 9.9189 3.6445 10.0156 3.7446 9.9404 3.7554 10.3398" fill="#b2b2b2" fill-rule="evenodd"/>
        <path d="M3.9595,10.335l.3969-.0059-.0029-.1045-.2168.0059.0396-.0342c.0512-.0459.1626-.1563.1596-.2617-.0029-.1094-.0918-.1573-.2148-.1543-.0322,0-.0855.0039-.1626.0332l.0083.1133c.0332-.0196.0967-.0391.1445-.0401.044-.001.0782.0186.0801.0674.0015.0742-.1255.1807-.2344.2773l.0025.1036Z" fill="#b2b2b2" fill-rule="evenodd"/>
      </g>
    </g>
    <g>
      <path d="M3.8174,12.2686c.0073.2929.498.2753.4902-.044-.0034-.1592-.1494-1.5723-.1494-1.5723l-.2134-.0048-.1274,1.6211Z" fill="#b2b2b2" fill-rule="evenodd"/>
      <path d="M3.8599,12.0342c-.2237.0508-.146.5371.1005.4785.1236-.0264,1.542-.332,1.542-.332l-.0063-.1836-1.6362.0371Z" fill="#b2b2b2" fill-rule="evenodd"/>
      <path d="M3.7061,12.165c.0068.2911.497.2745.4892-.0429-.0039-.1602-.1494-1.5723-.1494-1.5723l-.2119-.0049-.1279,1.6201Z" fill="#a70000" fill-rule="evenodd"/>
      <path d="M3.8442,11.8965c-.2246.0517-.146.5351.1006.4795.1221-.0274,1.5425-.335,1.5425-.335l-.0054-.1806-1.6377.0361Z" fill="red" fill-rule="evenodd"/>
    </g>
  </g>
</svg>