<?xml version="1.0" encoding="UTF-8"?>
<svg id="Set_1" data-name="Set 1" xmlns="http://www.w3.org/2000/svg" width="16" height="16" viewBox="0 0 16 16">
  <g>
    <path d="M4.9756,14.4687l-.2803,1.0333h-.9433l1.2294-4.0254h1.1885l1.2549,4.0254h-.9795l-.3105-1.0333h-1.1592ZM5.9971,13.7881l-.251-.854c-.0654-.2388-.1367-.5435-.1973-.7764h-.0175c-.0538.2388-.1192.5435-.1788.7764l-.2451.854h.8897Z"/>
    <path d="M7.9619,11.5366c.2383-.0478.7168-.0898,1.1768-.0898.5547,0,.8955.0537,1.1884.227.2803.1494.4776.4239.4776.7945,0,.352-.209.6806-.6572.854v.0117c.4599.1196.8007.4717.8007.9917,0,.3701-.1679.6567-.4189.854-.292.2329-.7822.3642-1.582.3642-.4483,0-.7823-.0302-.9854-.06v-3.9473ZM8.8633,13.0713h.2988c.4834,0,.7344-.1973.7344-.4956,0-.3047-.2324-.4658-.6445-.4658-.2032,0-.3165.0117-.3887.0297v.9317ZM8.8633,14.8569c.0898.0181.1972.0181.3525.0181.4121,0,.7764-.1611.7764-.5854,0-.4063-.3643-.5674-.8184-.5674h-.3105v1.1347Z"/>
    <path d="M14.5186,15.3945c-.1612.0777-.543.1734-1.0264.1734-1.3916,0-2.1084-.8721-2.1084-2.0249,0-1.3736.9795-2.1319,2.1973-2.1319.4716,0,.83.0957.9912.1792l-.1905.7168c-.1797-.0776-.4365-.1494-.7646-.1494-.7168,0-1.2783.436-1.2783,1.3374,0,.8067.4775,1.314,1.2841,1.314.2803,0,.5791-.0537.7647-.1314l.1309.7168Z"/>
  </g>
  <path d="M8.957,4.1836l-.2802,1.0332h-.9434l1.2295-4.0254h1.1885l1.2549,4.0254h-.9795l-.3106-1.0332h-1.1592ZM9.9785,3.5029l-.251-.854c-.0654-.2387-.1367-.5434-.1972-.7763h-.0176c-.0537.2387-.1191.5434-.1787.7763l-.2451.854h.8896Z"/>
  <line x1="9.623" y1="6.3745" x2="9.623" y2="9.3677" fill="none" stroke="#297bea" stroke-width="1.3434"/>
  <line x1="11.7656" y1="6.4648" x2="12.7896" y2="9.2773" fill="none" stroke="#297bea" stroke-width="1.3434"/>
  <line x1="7.481" y1="6.4648" x2="6.457" y2="9.2773" fill="none" stroke="#297bea" stroke-width="1.3434"/>
</svg>