<?xml version="1.0" encoding="UTF-8"?>
<svg id="Icons_-_16x16" data-name="Icons - 16x16" xmlns="http://www.w3.org/2000/svg" width="16" height="16" xmlns:xlink="http://www.w3.org/1999/xlink" viewBox="0 0 16 16">
  <defs>
    <mask id="mask" x="4.6074454" y="3.773575" width="9.1852482" height="9.18495" maskUnits="userSpaceOnUse">
      <path d="M10.8964937,4.1665s-.002.0015-.002.0024l-1.9979999,1.9976-1.9999999-1.9995h0v-.0005c-.5234938-.5239-1.3721-.5239-1.8964938,0-.5234062.5234-.5234062,1.3721,0,1.8965l2,2.0005-1.999,1.9995c-.5244062.5234-.5244062,1.3721,0,1.896.5233938.5239,1.372.5239,1.8954938,0,0,0,.001-.0015.0019-.0025l1.9980999-1.997,1.9999999,1.999h0v.0005c.5234.5239,1.3721.5239,1.8945063,0,.5243936-.5239.5243936-1.3726,0-1.8955h0l-1.998-2,1.999-2.0005c.5243936-.5244.5243936-1.3731,0-1.8965-.5225064-.5239-1.3721064-.5239-1.8955063,0Z" fill="#fff"/>
    </mask>
    <linearGradient id="linear-gradient" x1="5.797204" y1=".3643748" x2="10.9493956" y2="13.1617461" gradientUnits="userSpaceOnUse">
      <stop offset=".005618" stop-color="#f8cccc"/>
      <stop offset="1" stop-color="#cb1009"/>
    </linearGradient>
    <linearGradient id="linear-gradient-2" x1="7.7955796" y1="5.1019122" x2="11.9060475" y2="13.6848107" gradientUnits="userSpaceOnUse">
      <stop offset="0" stop-color="#f3403f"/>
      <stop offset=".3789338" stop-color="#d02a27"/>
      <stop offset=".7765172" stop-color="#b11713"/>
      <stop offset="1" stop-color="#a6100c"/>
    </linearGradient>
  </defs>
  <path d="M10.8964937,4.1665s-.002.0015-.002.0024l-1.9979999,1.9976-1.9999999-1.9995h0v-.0005c-.5234938-.5239-1.3721-.5239-1.8964938,0-.5234062.5234-.5234062,1.3721,0,1.8965l2,2.0005-1.999,1.9995c-.5244062.5234-.5244062,1.3721,0,1.896.5233938.5239,1.372.5239,1.8954938,0,0,0,.001-.0015.0019-.0025l1.9980999-1.997,1.9999999,1.999h0v.0005c.5234.5239,1.3721.5239,1.8945063,0,.5243936-.5239.5243936-1.3726,0-1.8955h0l-1.998-2,1.999-2.0005c.5243936-.5244.5243936-1.3731,0-1.8965-.5225064-.5239-1.3721064-.5239-1.8955063,0Z" stroke="#000" stroke-linecap="round" stroke-linejoin="round" stroke-width="2"/>
  <g mask="url(#mask)">
    <g>
      <path d="M10.8964937,4.1665s-.002.0015-.002.0024l-1.9979999,1.9976-1.9999999-1.9995h0v-.0005c-.5234938-.5239-1.3721-.5239-1.8964938,0-.5234062.5234-.5234062,1.3721,0,1.8965l2,2.0005-1.999,1.9995c-.5244062.5234-.5244062,1.3721,0,1.896.5233938.5239,1.372.5239,1.8954938,0,0,0,.001-.0015.0019-.0025l1.9980999-1.997,1.9999999,1.999h0v.0005c.5234.5239,1.3721.5239,1.8945063,0,.5243936-.5239.5243936-1.3726,0-1.8955h0l-1.998-2,1.999-2.0005c.5243936-.5244.5243936-1.3731,0-1.8965-.5225064-.5239-1.3721064-.5239-1.8955063,0Z" fill="url(#linear-gradient)"/>
      <path d="M11.5038936,4.7734s-.0018936.001-.0018936.0025l-1.9981063,1.9975-1.9999999-2h0c-.5234-.5244-1.373-.5244-1.8965,0-.5233938.5235-.5233938,1.3721,0,1.8965l1.9999999,1.9995-1.9989999,2c-.5233938.523-.5233938,1.3726,0,1.8965.5225.5235,1.3721.5235,1.8955,0,.001-.001.002-.0014.002-.0029l1.9979999-1.9971,1.9999999,1.9995h0v.0005c.5234.5235,1.3711064.5235,1.8945,0,.5245-.5239.5245-1.3735,0-1.8965h0l-1.9989999-2,1.9999999-1.9995c.5244-.5244.5244-1.373,0-1.8965-.5233936-.5244-1.3721-.5244-1.8955,0Z" fill="url(#linear-gradient-2)"/>
    </g>
  </g>
</svg>