<?xml version='1.0' encoding='UTF-8'?>
<svg xmlns="http://www.w3.org/2000/svg" xmlns:xlink="http://www.w3.org/1999/xlink" id="Set_4" data-name="Set 4" width="16" height="16" viewBox="0 0 16 16">
  <defs>
    <radialGradient id="radial-gradient" cx="20.0864544" cy="2.0115727" fx="20.0864544" fy="2.0115727" r="8.7454015" gradientTransform="translate(-8.8514 3.1321) rotate(-10.136758)" gradientUnits="userSpaceOnUse">
      <stop offset=".129213" stop-color="#00073d"/>
      <stop offset="1" stop-color="#a4aad9"/>
    </radialGradient>
    <radialGradient id="radial-gradient-2" cx="5.2002796" cy="101.2575554" fx="5.2002796" fy="101.2575554" r="7.0810673" gradientTransform="translate(31.2699 102.3596) rotate(169.863242)" gradientUnits="userSpaceOnUse">
      <stop offset=".129213" stop-color="#00073d"/>
      <stop offset="1" stop-color="#a4aad9"/>
    </radialGradient>
    <linearGradient id="White_Black" data-name="White, Black" x1="13.1510902" y1="7.2233958" x2="15.4258301" y2="9.4981356" gradientTransform="translate(-8.8514 3.1321) rotate(-10.136758)" gradientUnits="userSpaceOnUse">
      <stop offset="0" stop-color="#fff"/>
      <stop offset="1" stop-color="#000"/>
    </linearGradient>
    <linearGradient id="linear-gradient" x1="15.7317787" y1="-3.5908849" x2="18.3299058" y2="-2.7820713" gradientTransform="translate(-4.1611101 11.5066) rotate(-10.1364809) scale(.8187801)" gradientUnits="userSpaceOnUse">
      <stop offset=".129213" stop-color="#fff"/>
      <stop offset="1" stop-color="#a4aad9"/>
    </linearGradient>
    <linearGradient id="White_Black-2" data-name="White, Black" x1="10.7748141" y1="7.2580477" x2="13.7218356" y2="9.7139015" gradientTransform="translate(-8.8514 3.1321) rotate(-10.136758)" gradientUnits="userSpaceOnUse"><stop offset="0" stop-color="#fff"/><stop offset="1" stop-color="#000"/></linearGradient>
    <linearGradient id="White_Black-3" data-name="White, Black" x1="70.4493994" y1="36.3791897" x2="72.3826882" y2="37.9902654" gradientTransform="translate(-63.988 9.8281) rotate(-52.236922) scale(.5837709 1.4563642) skewX(.3319969)" gradientUnits="userSpaceOnUse"><stop offset="0" stop-color="#fff"/><stop offset="1" stop-color="#000"/></linearGradient>
    <linearGradient id="White_Black-4" data-name="White, Black" x1="12.5091642" y1="9.3323928" x2="11.7496724" y2="8.9156799" gradientTransform="translate(-8.8514 3.1321) rotate(-10.136758)" gradientUnits="userSpaceOnUse"><stop offset="0" stop-color="#fff"/><stop offset="1" stop-color="#000"/></linearGradient>
    <radialGradient id="radial-gradient-3" cx="23.5450406" cy="1.3295751" fx="23.5450406" fy="1.3295751" r="3.1452269" gradientTransform="translate(-5.1576 5.8393) rotate(-10.1356425) scale(.8813545 .9356105)" gradientUnits="userSpaceOnUse"><stop offset=".129213" stop-color="#00073d"/><stop offset="1" stop-color="#a4aad9"/></radialGradient>
    <radialGradient id="radial-gradient-4" cx="21.8806583" cy="2.1077047" fx="21.8806583" fy="2.1077047" r="3.7979608" gradientTransform="translate(-8.8514 3.1321) rotate(-10.136758)" gradientUnits="userSpaceOnUse"><stop offset=".129213" stop-color="#00073d"/><stop offset="1" stop-color="#a4aad9"/></radialGradient>
    <linearGradient id="linear-gradient-2" x1="3.8606171" y1="12.1662127" x2="4.8406306" y2="12.4712972" gradientUnits="userSpaceOnUse">
      <stop offset=".129213" stop-color="#fff"/>
      <stop offset="1" stop-color="#a4aad9"/>
    </linearGradient>
    <linearGradient id="linear-gradient-3" x1="3.8606171" y1="12.1662127" x2="4.8406306" y2="12.4712972" gradientTransform="matrix(1,0,0,1,0,0)" gradientUnits="userSpaceOnUse"><stop offset=".129213" stop-color="#fff"/><stop offset="1" stop-color="#a4aad9"/></linearGradient>
  </defs>
  <g>
    <path d="M14.6884964,4.6045c.0283-.1963-.0811-.3731-.2608-.418.0176.0362.0371.0684.0528.1026v.0029c-.0391-.0586-.0869-.0938-.1454964-.1201.0331964-.002.0633964.0078.0926964.0146-.5526964-1.0801-2.1669999-1.5332-3.1776964-1.9814-.2715035-.1201-.8945035-.459-1.1641035-.1719-.2518965.2676.0713.7793.462,1.2217-1.0478965,2.5449-2.8447999,2.168-4.9697999,3.664.0078.0049.0147.0088.0215.0137-.0068-.0049-.0137-.0078-.0215-.0127-.3496.7178-.5254,1.1026-.7832,1.8399-.0801.0068-.1474.0332-.1875.083-.0058.0078-.0058.0156-.0097.0215-.2149.1933-.3623.33-.5411.5136v.0088c-.0117.0098-.0273.0196-.0361.0303-.1434967.1865.083.5996.5068.9268.4248.3271.8848.4423,1.0274.2587.2051-.2168.3457-.3564.5224-.5185v-.002c.0264-.0127.0479034-.0312.0674-.0527.0508-.0674.0528-.1631.0157-.2744.0263.0166.0449.0303.0732.0469,1.0176034-.3389,1.5615-.4864,2.6649999-.7696,1.8575-2.6718,3.7509999-1.831,5.8281999-4.3877-.0118-.0136-.0274-.0263-.0381-.04ZM14.6483964,4.5596c-.0195-.0235-.0429-.045-.0605-.0674-.0068-.0127-.0117-.0244-.0186-.0381-.0254-.0557-.0468-.0957-.0692964-.1318l.1483964.2373Z" fill="url(#radial-gradient)" stroke="#000" stroke-linecap="round" stroke-linejoin="round" stroke-width="2"/>
    <g>
      <path d="M10.9081965,2.1572c.7051.2744,2.7636999,1.1582,3.8183999,2.4873-2.0771999,2.5567-3.9706999,1.7159-5.8281999,4.3877-1.1367-.4941-1.9930999-1.2676-3.3202999-2.1133,2.3906999-1.6835,4.3691999-.9863,5.3300999-4.7617Z" fill="url(#radial-gradient-2)"/>
      <path d="M4.7587966,8.8623c.5898.377.8848.5625,1.4746.9395,1.0176034-.3389,1.5615-.4864,2.6649999-.7696-1.3261-.8467-1.9920999-1.2676-3.3202999-2.1123-.3662.752-.54,1.1348-.8193,1.9424Z" fill="url(#White_Black)"/>
      <path d="M7.3485966,6.623c.4825.3077.9756.6358,1.46.9424.833-.2773,1.8965-1.3291,2.4628999-1.584-.7979-.2441-1.8574-.5761-1.8574-.5761-.4502.2842-1.837.5556-2.0654999,1.2177Z" fill="url(#linear-gradient)" opacity=".5"/>
      <path d="M5.6347966,9.1016c-.4239-.3262-.8837966-.4414-1.0274-.2588-.0058.0078-.0058.0156-.0097.0215-.2149.1933-.3623.33-.5411.5136l.0547.3047c.5215.333.8614.5488,1.4434.9199.2051-.2168.3457-.3564.5224-.5185v-.002c.0264-.0127.0479034-.0312.0674-.0527.1426-.1865-.0849-.6006-.5097-.9277Z" fill="url(#White_Black-2)"/>
      <path d="M5.0458966,9.6748c.4248.3272.6523.7412.5088.9277-.1426.1836-.6026.0684-1.0274-.2587-.4238-.3272-.6502967-.7403-.5068-.9268.1426-.1836.6016-.0693,1.0254.2578Z" fill="url(#White_Black-3)"/>
      <path d="M4.96,9.7881c.2811966.2168.4325966.4922.3368966.6152-.0948.1221-.4004.0459-.6817-.1709-.2793-.2178-.4316-.4931-.3379-.6152.0957033-.1221.4004-.0459.6827033.1709Z" fill="url(#White_Black-4)"/>
      <path d="M11.4188965,3.1934c.1846.3681.8389.4443,1.1534.6591.042.0254.0781.0616.1142.0918.1319.1153.0996.2471.1836.3516.0908.1133.3145.124.4287.2187.1065.0909.1153.1563.2481.2188.0664.0303.166.0811.2344.1045.2949.1035.4062.0303.6367036-.0859.2264964-.1114.2635964-.0538.1512964-.2979-.1181-.2588-.1806-.291-.4599-.3506-.2696-.0566-.376-.1142-.5742-.248-.0606-.042-.1407-.0635-.1983-.1153-.0448964-.0381-.0488-.1259-.0898-.1611-.1787-.1523-.3819-.2314-.5908-.2559-.2217-.0293-.7051.0743-.8145-.1796-.1865.0107-.3027.121-.4619.1972" fill="url(#radial-gradient-3)"/>
      <path d="M14.6884964,4.625c.0469-.2422-.1153-.4756-.3701-.4561-.2783964.0215-.4278.2725-.628.4288-.2793.2177-.5673964.1992-.9003964.1132-.5127035-.1328-1.0029035-.3779-1.4306035-.6894-.3086-.2236-1.7276-1.5049-1.2735-1.9883.2696-.2871.8926.0518,1.1641035.1719,1.043.4619,2.7313964.9267,3.2304964,2.084" fill="url(#radial-gradient-4)"/>
    </g>
  </g>
  <g>
    <path d="M4.7372966,10.6191c-.5127.6329-1.5674,1.792-1.3838,2.7647.0547.2812.4531.6103.7158.665.544.1133.835-.1865.9678-.7138-.8887-.5996-.2187-1.6582-.2998-2.5254" fill="url(#linear-gradient-2)" stroke="#000" stroke-miterlimit="3.8637" stroke-width="2"/>
    <path d="M4.7372966,10.6191c-.5127.6329-1.5674,1.792-1.3838,2.7647.0547.2812.4531.6103.7158.665.544.1133.835-.1865.9678-.7138-.8887-.5996-.2187-1.6582-.2998-2.5254" fill="url(#linear-gradient-3)"/>
  </g>
</svg>