<?xml version="1.0" encoding="UTF-8"?>
<svg id="Set_1" data-name="Set 1" xmlns="http://www.w3.org/2000/svg" width="16" height="16" viewBox="0 0 16 16">
  <g>
    <line x1="6.583" y1="3.5249" x2="12.5087936" y2="3.5249" fill="none" stroke="#000" stroke-linecap="round" stroke-miterlimit="3.8637" stroke-width=".7125"/>
    <line x1="6.583" y1="7.5" x2="12.5087936" y2="7.5" fill="none" stroke="#000" stroke-linecap="round" stroke-miterlimit="3.8637" stroke-width=".7125"/>
    <line x1="6.583" y1="11.5" x2="11.1825937" y2="11.5" fill="none" stroke="#000" stroke-linecap="round" stroke-miterlimit="3.8637" stroke-width=".7125"/>
  </g>
  <g>
    <line x1="6.583" y1="3.73" x2="12.5087936" y2="3.73" fill="none" stroke="#999" stroke-linecap="round" stroke-miterlimit="3.8637" stroke-width=".7125"/>
    <line x1="6.583" y1="8.0229" x2="12.5087936" y2="8.0229" fill="none" stroke="#999" stroke-linecap="round" stroke-miterlimit="3.8637" stroke-width=".7125"/>
    <line x1="6.583" y1="4.0479" x2="12.5087936" y2="4.0479" fill="none" stroke="#999" stroke-linecap="round" stroke-miterlimit="3.8637" stroke-width=".7125"/>
    <line x1="6.583" y1="12.3408" x2="11.1825937" y2="12.3408" fill="none" stroke="#999" stroke-linecap="round" stroke-miterlimit="3.8637" stroke-width=".7125"/>
  </g>
  <path d="M4.5966938,4.0127c0,.5454-.4424.9873-.9883.9873s-.9883-.4419-.9883-.9873c0-.5459.4424-.9878.9883-.9878s.9883.4419.9883.9878Z" fill="#3f3f3f"/>
  <path d="M4.5966938,8.0127c0,.5454-.4424.9873-.9883.9873s-.9883-.4419-.9883-.9873c0-.5459.4424-.9878.9883-.9878s.9883.4419.9883.9878Z" fill="#3f3f3f"/>
  <path d="M4.5966938,12.0127c0,.5454-.4424.9873-.9883.9873s-.9883-.4419-.9883-.9873c0-.5459.4424-.9878.9883-.9878s.9883.4419.9883.9878Z" fill="#3f3f3f"/>
</svg>