<?xml version="1.0" encoding="UTF-8"?>
<svg id="Layer_1" data-name="Layer 1" xmlns="http://www.w3.org/2000/svg" width="16" height="16" xmlns:xlink="http://www.w3.org/1999/xlink" viewBox="0 0 16 16">
  <defs>
    <mask id="mask" x="1.6255" y="1.0059" width="13.3745" height="13.913" maskUnits="userSpaceOnUse">
      <path d="M7.2641974,8.2451c0-.5898.478-1.1885,1.0673-1.3379.5909-.1489,1.0689.2085,1.0689.7984,0,.5903-.478,1.1884-1.0689,1.3374-.5893.1489-1.0673-.2085-1.0673-.7979ZM2.2295,9.5156c0-3.3696,2.7318974-6.792,6.1019974-7.6426,3.3710999-.851,6.1030998,1.1919,6.1030998,4.5621,0,3.3701-2.7319999,6.7924-6.1030998,7.642-3.3700999.8506-6.1019974-1.1914-6.1019974-4.5615Z" fill="#fff" fill-rule="evenodd"/>
    </mask>
    <mask id="mask-1" x="1.6255" y="1.0059" width="13.3745" height="13.913" maskUnits="userSpaceOnUse">
      <path d="M8.3314974,2.1792c3.2026999-.8086,5.7973999,1.1318,5.7973999,4.334,0,3.2012-2.5946999,6.4531-5.7973999,7.2602-3.2015999.8077-5.7962974-1.1328-5.7962974-4.3339,0-3.2022,2.5946974-6.4517,5.7962974-7.2603Z" fill="#fff"/>
    </mask>
    <linearGradient id="New_Gradient_112" data-name="New Gradient 112" x1="3.3430908" y1="3.936022" x2="13.3213338" y2="12.0162439" gradientUnits="userSpaceOnUse">
      <stop offset="0" stop-color="#fff"/>
      <stop offset="1" stop-color="#ccc"/>
    </linearGradient>
  </defs>
  <path d="M7.2641974,8.2451c0-.5898.478-1.1885,1.0673-1.3379.5909-.1489,1.0689.2085,1.0689.7984,0,.5903-.478,1.1884-1.0689,1.3374-.5893.1489-1.0673-.2085-1.0673-.7979ZM2.2295,9.5156c0-3.3696,2.7318974-6.792,6.1019974-7.6426,3.3710999-.851,6.1030998,1.1919,6.1030998,4.5621,0,3.3701-2.7319999,6.7924-6.1030998,7.642-3.3700999.8506-6.1019974-1.1914-6.1019974-4.5615Z" fill="#b2b2b2" fill-rule="evenodd" stroke="#000" stroke-miterlimit="3.8637" stroke-width="1.5"/>
  <g mask="url(#mask)">
    <g>
      <path d="M7.2641974,8.2451c0-.5898.478-1.1885,1.0673-1.3379.5909-.1489,1.0689.2085,1.0689.7984,0,.5903-.478,1.1884-1.0689,1.3374-.5893.1489-1.0673-.2085-1.0673-.7979ZM2.2295,9.5156c0-3.3696,2.7318974-6.792,6.1019974-7.6426,3.3710999-.851,6.1030998,1.1919,6.1030998,4.5621,0,3.3701-2.7319999,6.7924-6.1030998,7.642-3.3700999.8506-6.1019974-1.1914-6.1019974-4.5615Z" fill="#b2b2b2" fill-rule="evenodd"/>
      <g mask="url(#mask-1)">
        <g>
          <path d="M8.3314974,2.1792c3.2026999-.8086,5.7973999,1.1318,5.7973999,4.334,0,3.2012-2.5946999,6.4531-5.7973999,7.2602-3.2015999.8077-5.7962974-1.1328-5.7962974-4.3339,0-3.2022,2.5946974-6.4517,5.7962974-7.2603Z" fill="url(#New_Gradient_112)"/>
          <g>
            <polygon points="8.3026974 7.9761 11.5971973 1.0059 12.7826973 1.6348 8.3026974 7.9761" fill="#b2d6e8" fill-rule="evenodd"/>
            <polygon points="13.8593972 2.5674 8.3026974 7.9761 12.7826973 1.6348 13.8593972 2.5674" fill="#f6f8b2" fill-rule="evenodd"/>
            <polygon points="8.3026974 7.9761 14.5058972 3.6973 13.8593972 2.5674 8.3026974 7.9761" fill="#c8e9c2" fill-rule="evenodd"/>
            <polygon points="8.3026974 7.9761 14.936 5.0322 14.5058972 3.6973 8.3026974 7.9761" fill="#e5c9b0" fill-rule="evenodd"/>
            <polygon points="8.3026974 7.9761 15 6.5015 14.936 5.0322 8.3026974 7.9761" fill="#fff" fill-rule="evenodd"/>
          </g>
          <g>
            <polygon points="8.3227974 7.9497 5.0287974 14.9189 3.8438 14.292 8.3227974 7.9497" fill="#b2d6e8" fill-rule="evenodd"/>
            <polygon points="2.7661 13.3579 8.3227974 7.9497 3.8438 14.292 2.7661 13.3579" fill="#f6f8b2" fill-rule="evenodd"/>
            <polygon points="8.3227974 7.9497 2.1196 12.2285 2.7661 13.3579 8.3227974 7.9497" fill="#c8e9c2" fill-rule="evenodd"/>
            <polygon points="8.3227974 7.9497 1.6904 10.8945 2.1196 12.2285 8.3227974 7.9497" fill="#e5c9b0" fill-rule="evenodd"/>
            <polygon points="8.3227974 7.9497 1.6255 9.4243 1.6904 10.8945 8.3227974 7.9497" fill="#fff" fill-rule="evenodd"/>
          </g>
        </g>
      </g>
      <path d="M8.3314974,5.8408c1.1797-.2983,2.1362999.417,2.1362999,1.5962,0,1.1797-.9566,2.3775-2.1362999,2.6748-1.1787.2979-2.1351999-.417-2.1351999-1.5972,0-1.1782.9565-2.3769,2.1351999-2.6738Z" fill="#999" stroke="#666" stroke-miterlimit="3.8637" stroke-width="1.05"/>
      <path d="M7.2641974,8.2451c0-.5898.478-1.1885,1.0673-1.3379.5909-.1489,1.0689.2085,1.0689.7984,0,.5903-.478,1.1884-1.0689,1.3374-.5893.1489-1.0673-.2085-1.0673-.7979ZM2.2295,9.5156c0-3.3696,2.7318974-6.792,6.1019974-7.6426,3.3710999-.851,6.1030998,1.1919,6.1030998,4.5621,0,3.3701-2.7319999,6.7924-6.1030998,7.642-3.3700999.8506-6.1019974-1.1914-6.1019974-4.5615Z" fill="none" fill-rule="evenodd"/>
    </g>
  </g>
</svg>