<?xml version="1.0" encoding="UTF-8"?>
<svg id="Layer_3" data-name="Layer 3" xmlns="http://www.w3.org/2000/svg" width="16" height="16" xmlns:xlink="http://www.w3.org/1999/xlink" viewBox="0 0 16 16">
  <defs>
    <mask id="mask" x="1.8179" y=".9907" width="13.1479" height="14.5305007" maskUnits="userSpaceOnUse">
      <path d="M8.7842,14.4712l-5.9663-1.4878L5.5591,1.9907l8.4067,2.0947-2.1387,8.5528c-.289,1.1621-1.9101,2.1152-3.0429,1.833Z" fill="#fff" fill-rule="evenodd" stroke="#fff" stroke-linecap="round" stroke-linejoin="round" stroke-width="2"/>
    </mask>
    <linearGradient id="New_Gradient_93" data-name="New Gradient 93" x1="5.2692295" y1="2.1320793" x2="11.4199616" y2="14.7429489" gradientUnits="userSpaceOnUse">
      <stop offset="0" stop-color="#e5e5e5"/>
      <stop offset="1" stop-color="#fff"/>
    </linearGradient>
    <radialGradient id="New_Gradient_94" data-name="New Gradient 94" cx="-21.2245799" cy="-15.6614541" fx="-21.2245799" fy="-15.6614541" r="4.4326502" gradientTransform="translate(20.2393 25.0422) rotate(13.9901369) scale(.6630684) skewX(-.0167694)" gradientUnits="userSpaceOnUse">
      <stop offset="0" stop-color="#fff"/>
      <stop offset="1" stop-color="#ccc"/>
    </radialGradient>
    <mask id="mask-1" x="2.8179" y="1.9907" width="11.1479" height="13.1323" maskUnits="userSpaceOnUse">
      <path d="M8.7842,14.4712l-5.9663-1.4878L5.5591,1.9907l8.4067,2.0947-2.1387,8.5528c-.289,1.1621-1.9101,2.1152-3.0429,1.833Z" fill="#fff" fill-rule="evenodd"/>
    </mask>
    <linearGradient id="New_Gradient_70" data-name="New Gradient 70" x1="5.2692295" y1="2.1320793" x2="11.4199616" y2="14.7429489" gradientUnits="userSpaceOnUse">
      <stop offset="0" stop-color="#e5e5e5"/>
      <stop offset=".286514" stop-color="#f2f2f2"/>
      <stop offset=".646072" stop-color="#fff"/>
      <stop offset="1" stop-color="#fff"/>
    </linearGradient>
    <radialGradient id="New_Gradient_81" data-name="New Gradient 81" cx="-21.2245799" cy="-15.6614541" fx="-21.2245799" fy="-15.6614541" r="4.4326502" gradientTransform="translate(20.2393 25.0422) rotate(13.9901369) scale(.6630684) skewX(-.0167694)" gradientUnits="userSpaceOnUse">
      <stop offset="0" stop-color="#e5e5e5"/>
      <stop offset=".331467" stop-color="#e5e5e5"/>
      <stop offset="1" stop-color="#999"/>
    </radialGradient>
    <radialGradient id="radial-gradient" cx="-44.088851" cy="-5.2305195" fx="-44.088851" fy="-5.2305195" r="7.1620053" gradientTransform="translate(41.1754 10.8633) scale(.6669)" gradientUnits="userSpaceOnUse">
      <stop offset=".230337" stop-color="#f2b712"/>
      <stop offset=".44382" stop-color="#ffcd00"/>
      <stop offset=".5335957" stop-color="#fcc900"/>
      <stop offset=".6088672" stop-color="#f3bf02"/>
      <stop offset=".678882" stop-color="#e3ad06"/>
      <stop offset=".7453308" stop-color="#ce950c"/>
      <stop offset=".775281" stop-color="#c3880f"/>
    </radialGradient>
    <radialGradient id="radial-gradient-2" cx="31.9240551" cy="-20.4552338" fx="31.9240551" fy="-20.4552338" r="1.8685221" gradientTransform="translate(10.1575 45.4648) rotate(-59.0014181) scale(.9875405)" gradientUnits="userSpaceOnUse">
      <stop offset=".191011" stop-color="#ecd600"/>
      <stop offset=".612359" stop-color="#fff"/>
      <stop offset=".6721602" stop-color="#fefefb"/>
      <stop offset=".7223228" stop-color="#fdfaf1"/>
      <stop offset=".7690372" stop-color="#fcf5df"/>
      <stop offset=".8136331" stop-color="#faeec7"/>
      <stop offset=".8567796" stop-color="#f8e4a7"/>
      <stop offset=".8987707" stop-color="#f5d980"/>
      <stop offset=".9398968" stop-color="#f2cb52"/>
      <stop offset=".9792847" stop-color="#eebc1e"/>
      <stop offset="1" stop-color="#ecb300"/>
    </radialGradient>
    <radialGradient id="radial-gradient-3" cx="29.8849723" cy="-18.3165364" fx="29.8849723" fy="-18.3165364" r="3.6955085" gradientTransform="translate(10.1575 45.4648) rotate(-59.0014181) scale(.9875405)" gradientUnits="userSpaceOnUse">
      <stop offset=".191011" stop-color="#ecd600"/>
      <stop offset=".612359" stop-color="#fff"/>
      <stop offset=".6721602" stop-color="#fefefb"/>
      <stop offset=".7223228" stop-color="#fdfaf1"/>
      <stop offset=".7690372" stop-color="#fcf5df"/>
      <stop offset=".8136331" stop-color="#faeec7"/>
      <stop offset=".8567796" stop-color="#f8e4a7"/>
      <stop offset=".8987707" stop-color="#f5d980"/>
      <stop offset=".9398968" stop-color="#f2cb52"/>
      <stop offset=".9792847" stop-color="#eebc1e"/>
      <stop offset="1" stop-color="#ecb300"/>
    </radialGradient>
    <radialGradient id="radial-gradient-4" cx="41.4712946" cy="-20.3788406" fx="41.4712946" fy="-20.3788406" r=".6719608" gradientTransform="translate(8.9403 60.4692) rotate(-63.2107239) scale(1.0627665 1.0867819) skewX(-4.3025757)" gradientUnits="userSpaceOnUse">
      <stop offset=".691011" stop-color="#999"/>
      <stop offset=".9178119" stop-color="#bdbdbd"/>
      <stop offset="1" stop-color="#ccc"/>
    </radialGradient>
    <radialGradient id="radial-gradient-5" cx="41.301465" cy="-20.4203429" fx="41.301465" fy="-20.4203429" r=".4585187" gradientTransform="translate(8.9403 60.4692) rotate(-63.2107239) scale(1.0627665 1.0867819) skewX(-4.3025757)" gradientUnits="userSpaceOnUse">
      <stop offset=".106741" stop-color="#999"/>
      <stop offset=".7624016" stop-color="#bdbdbd"/>
      <stop offset="1" stop-color="#ccc"/>
    </radialGradient>
    <radialGradient id="radial-gradient-6" cx="62.4713654" cy="-17.8876897" fx="62.4713654" fy="-17.8876897" r=".6993911" gradientTransform="translate(-4.251 90.5199) rotate(-63.2127138) scale(1.2452309 1.2734565) skewX(-4.3101307)" gradientUnits="userSpaceOnUse">
      <stop offset=".691011" stop-color="#328e36"/>
      <stop offset=".8494552" stop-color="#4aae5a"/>
      <stop offset="1" stop-color="#65d081"/>
    </radialGradient>
    <radialGradient id="radial-gradient-7" cx="62.38426" cy="-17.9113822" fx="62.38426" fy="-17.9113822" r=".5236842" gradientTransform="translate(-4.251 90.5199) rotate(-63.2127138) scale(1.2452309 1.2734565) skewX(-4.3101307)" gradientUnits="userSpaceOnUse">
      <stop offset=".106741" stop-color="#328e36"/>
      <stop offset=".5647888" stop-color="#4aae5a"/>
      <stop offset="1" stop-color="#65d081"/>
    </radialGradient>
    <radialGradient id="radial-gradient-8" cx="162.6524863" cy="-125.0726605" fx="162.6524863" fy="-125.0726605" r=".6583999" gradientTransform="translate(251.0268 126.7898) rotate(-116.8016817) scale(1.2452769 1.2735114) skewX(-4.3080439)" gradientUnits="userSpaceOnUse">
      <stop offset=".691011" stop-color="#0342d3"/>
      <stop offset=".8141137" stop-color="#274fe3"/>
      <stop offset="1" stop-color="#66f"/>
    </radialGradient>
    <radialGradient id="radial-gradient-9" cx="162.5657501" cy="-125.1072685" fx="162.5657501" fy="-125.1072685" r=".5060564" gradientTransform="translate(251.0268 126.7898) rotate(-116.8016817) scale(1.2452769 1.2735114) skewX(-4.3080439)" gradientUnits="userSpaceOnUse">
      <stop offset=".106741" stop-color="#0342d3"/>
      <stop offset=".4626197" stop-color="#274fe3"/>
      <stop offset="1" stop-color="#66f"/>
    </radialGradient>
    <radialGradient id="radial-gradient-10" cx="155.8919606" cy="-105.7753978" fx="155.8919606" fy="-105.7753978" r=".6821229" gradientTransform="translate(232.7018 158.7094) rotate(-115.5320254) scale(1.3593478 1.2647758) skewX(-7.3462706)" gradientUnits="userSpaceOnUse">
      <stop offset=".691011" stop-color="#a70000"/>
      <stop offset=".7940595" stop-color="#c12415"/>
      <stop offset="1" stop-color="#ff7845"/>
    </radialGradient>
    <radialGradient id="radial-gradient-11" cx="155.8673335" cy="-105.8278562" fx="155.8673335" fy="-105.8278562" r=".5540619" gradientTransform="translate(232.7018 158.7094) rotate(-115.5320254) scale(1.3593478 1.2647758) skewX(-7.3462706)" gradientUnits="userSpaceOnUse">
      <stop offset=".106741" stop-color="#a70000"/>
      <stop offset=".4046447" stop-color="#c12415"/>
      <stop offset="1" stop-color="#ff7845"/>
    </radialGradient>
    <linearGradient id="linear-gradient" x1="-41.8795237" y1="-1074.1222977" x2="-40.2623048" y2="-1074.1222977" gradientTransform="translate(-245.9673 -91.1237) rotate(121.8921289) scale(1.0510642 .2521924) skewX(.2143572)" gradientUnits="userSpaceOnUse">
      <stop offset="0" stop-color="#6b3200"/>
      <stop offset=".2885023" stop-color="#6d3400"/>
      <stop offset=".4963073" stop-color="#773d03"/>
      <stop offset=".6782187" stop-color="#864b08"/>
      <stop offset=".825843" stop-color="#9a5d0e"/>
      <stop offset="1" stop-color="#ecb300"/>
    </linearGradient>
    <linearGradient id="linear-gradient-2" x1="-126.2717422" y1="215.4478369" x2="-127.4342093" y2="214.9691746" gradientTransform="translate(-223.2841 -47.3472) rotate(121.8873475) scale(.9415981 -1.0620095) skewX(13.0553336)" gradientUnits="userSpaceOnUse">
      <stop offset="0" stop-color="#6b3200"/>
      <stop offset=".2685086" stop-color="#6e3501"/>
      <stop offset=".5357231" stop-color="#7a4006"/>
      <stop offset=".758427" stop-color="#8b4f0d"/>
      <stop offset="1" stop-color="#ecb300"/>
    </linearGradient>
    <radialGradient id="radial-gradient-12" cx="-293.0362618" cy="616.0064424" fx="-293.0362618" fy="616.0064424" r="4.0030063" gradientTransform="translate(-132.9339 -9.2449) rotate(121.879281) scale(.1878321 -.2118799) skewX(-.9699485)" gradientUnits="userSpaceOnUse">
      <stop offset="0" stop-color="#fff"/>
      <stop offset="1" stop-color="#000"/>
    </radialGradient>
    <linearGradient id="linear-gradient-3" x1="31.5461417" y1="10.5266183" x2="31.8005092" y2="10.5266183" gradientTransform="translate(44.7432 -16.1063) rotate(156.9809917) scale(1.5249216 -1.0341785) skewX(-13.39759)" gradientUnits="userSpaceOnUse">
      <stop offset="0" stop-color="#fff"/>
      <stop offset="1" stop-color="#000"/>
    </linearGradient>
    <linearGradient id="linear-gradient-4" x1="-658.7785407" y1="679.9666635" x2="-655.0402402" y2="679.9666635" gradientTransform="translate(-251.7827 -1.1358) rotate(121.8919456) scale(.1873868 -.3294263) skewX(-1.5633347)" gradientUnits="userSpaceOnUse">
      <stop offset="0" stop-color="#b0b0b0"/>
      <stop offset="1" stop-color="#4a4a4a"/>
    </linearGradient>
    <linearGradient id="linear-gradient-5" x1="-195.8693157" y1="211.18099" x2="-194.4267438" y2="211.568009" gradientTransform="translate(-231.8361 -33.6286) rotate(121.8873475) scale(.9415981 -1.062003) skewX(25.6955006)" gradientUnits="userSpaceOnUse">
      <stop offset="0" stop-color="#fff"/>
      <stop offset=".2307365" stop-color="#fcfcfc"/>
      <stop offset=".3300776" stop-color="#f5f5f5"/>
      <stop offset=".4041854" stop-color="#e9e9e9"/>
      <stop offset=".4657753" stop-color="#d7d7d7"/>
      <stop offset=".5196246" stop-color="silver"/>
      <stop offset=".5680193" stop-color="#a3a3a3"/>
      <stop offset=".6123554" stop-color="#818181"/>
      <stop offset=".6535775" stop-color="#5a5a5a"/>
      <stop offset=".6907176" stop-color="#2e2e2e"/>
      <stop offset=".724719" stop-color="#000"/>
    </linearGradient>
    <mask id="mask-2" x="8.0929934" y="10.661605" width="2.8481479" height="2.3664063" maskUnits="userSpaceOnUse">
      <path d="M9.9609,10.7139c-.0879-.0137-.226.2221-.3086.2397-.0888.0186-.1909.0029-.2587.0518-.0708.0522-.0621.1645-.0904.2412-.042.1133-.435-.1001-.4731-.0039-.0371.0937.5141.2436.4736.354-.0415.1118-.3926.1079-.4341.2192-.041.1118.1509.0386.1104.1519-.0405.1079.0727.1635.0322.2719-.0381.1036-.3159-.0336-.354.0699-.0312.0825.1885.2163.2202.2881.0298.0688.0293.1513.104.1953.0557.0332.1104.207.1856.2187.1313.0215.1338-.0068.2651.0142.125.0195.1338-.103.2588-.0835.0879.0146.1484-.0982.2319-.1172.0889-.0205.2549.1362.3228.0854.0722-.0527-.0547-.2656-.0259-.3432.0415-.1133.0732-.0977.1147-.2114.0401-.1104.0494-.1055.0899-.2149.0415-.1128.1113-.0781.1528-.1909.0406-.1123.2295-.0195.2705-.1318.0401-.1084-.2685-.2603-.229-.3692.0381-.1035.0264-.1094.0645-.2129.0307-.082.2856-.1401.2544-.2124-.0303-.0688-.1577-.1601-.232-.2036-.0561-.0332-.1543-.0552-.2299-.0669-.1314-.021-.1197-.0522-.25-.0854-.1245-.0318-.1416.0664-.2657.0459Z" fill="#fff"/>
    </mask>
    <linearGradient id="linear-gradient-6" x1="-41.8795237" y1="-1074.1222977" x2="-40.2623048" y2="-1074.1222977" gradientTransform="translate(-245.9673 -91.1237) rotate(121.8921289) scale(1.0510642 .2521924) skewX(.2143572)" gradientUnits="userSpaceOnUse">
      <stop offset="0" stop-color="#a70000"/>
      <stop offset=".2134181" stop-color="#a90301"/>
      <stop offset=".3923643" stop-color="#b10d07"/>
      <stop offset=".5589223" stop-color="#bd1f11"/>
      <stop offset=".7179175" stop-color="#cf371f"/>
      <stop offset=".8700949" stop-color="#e65631"/>
      <stop offset="1" stop-color="#ff7845"/>
    </linearGradient>
    <linearGradient id="linear-gradient-7" x1="-86.7736925" y1="215.0247583" x2="-87.1261914" y2="214.6869472" gradientTransform="translate(-229.7757 -36.3895) rotate(121.8873475) scale(.9415981 -1.0620482) skewX(-1.0051953)" gradientUnits="userSpaceOnUse">
      <stop offset="0" stop-color="#a70000"/>
      <stop offset=".2134181" stop-color="#a90301"/>
      <stop offset=".3923643" stop-color="#b10d07"/>
      <stop offset=".5589223" stop-color="#bd1f11"/>
      <stop offset=".7179175" stop-color="#cf371f"/>
      <stop offset=".8700949" stop-color="#e65631"/>
      <stop offset="1" stop-color="#ff7845"/>
    </linearGradient>
  </defs>
  <g>
    <g mask="url(#mask)">
      <g>
        <path d="M8.7842,14.4712l-5.9663-1.4878L5.5591,1.9907l8.4067,2.0947-2.1387,8.5528c-.289,1.1621-1.9101,2.1152-3.0429,1.833Z" fill="url(#New_Gradient_93)" fill-rule="evenodd"/>
        <path d="M8.3857,14.415s1.4068.294,1.7925-1.2529c1.4356.3579,1.7593-.8911,1.7593-.8911l-.7119,2.852-2.8399-.708Z" fill="url(#New_Gradient_94)" fill-rule="evenodd"/>
        <path d="M8.7842,14.4712l-5.9663-1.4878L5.5591,1.9907l8.4067,2.0947-2.1387,8.5528c-.289,1.1621-1.9101,2.1152-3.0429,1.833Z" fill="none" fill-rule="evenodd" stroke="#000" stroke-linecap="round" stroke-linejoin="round" stroke-width="2"/>
      </g>
    </g>
    <g mask="url(#mask-1)">
      <g>
        <path d="M8.7842,14.4712l-5.9663-1.4878L5.5591,1.9907l8.4067,2.0947-2.1387,8.5528c-.289,1.1621-1.9101,2.1152-3.0429,1.833Z" fill="url(#New_Gradient_70)" fill-rule="evenodd"/>
        <path d="M8.3857,14.415s1.4068.294,1.7925-1.2529c1.4356.3579,1.7593-.8911,1.7593-.8911l-.7119,2.852-2.8399-.708Z" fill="url(#New_Gradient_81)" fill-rule="evenodd"/>
      </g>
    </g>
  </g>
  <g>
    <path d="M4.6943,9.833c2.1309.5308,4.2608,1.0625,6.3926,1.5942" fill="none" stroke="#ccc" stroke-linecap="round" stroke-linejoin="round" stroke-width="1.0502"/>
    <path d="M6.0649,4.3374c2.1304.5308,4.2608,1.0625,6.3921,1.5942" fill="none" stroke="#ccc" stroke-linecap="round" stroke-linejoin="round" stroke-width="1.0502"/>
    <path d="M5.5166,6.5356c2.1309.5303,4.2607,1.063,6.3921,1.5938" fill="none" stroke="#ccc" stroke-linecap="round" stroke-linejoin="round" stroke-width="1.0502"/>
    <path d="M5.791,5.4365c2.1299.5308,4.2603,1.0625,6.3916,1.5943" fill="none" stroke="#ccc" stroke-linecap="round" stroke-linejoin="round" stroke-width="1.0502"/>
    <path d="M4.9683,8.7334c2.1308.5308,4.2607,1.063,6.3925,1.5942" fill="none" stroke="#ccc" stroke-linecap="round" stroke-linejoin="round" stroke-width="1.0502"/>
    <path d="M5.2427,7.6343c2.1303.5312,4.2607,1.063,6.3916,1.5947" fill="none" stroke="#ccc" stroke-linecap="round" stroke-linejoin="round" stroke-width="1.0502"/>
  </g>
  <g>
    <g>
      <path d="M11.7744,6.4111c-.9946.2452-1.5674.8872-2.5786,1.126-.9199.2168-.0381-.7222-.8252-.6445-1.2847.1758-1.98,1.2329-2.0229,1.9375-.0352.5757.5073,1.1567,1.4336,1.4155,1.8129.5054,4.4331.353,5.9086-.856.6499-.5336.7872-1.3515.3672-2.0507-.3276-.5474-1.2685-1.1792-2.2827-.9278ZM8.7773,7.9756c.481.0288.8433.2231.8081.4316-.0356.209-.455.3535-.9355.3242-.48-.0288-.8398-.2211-.8047-.4301.0347-.2085.4522-.355.9321-.3257Z" fill="none" stroke="#000" stroke-width="2"/>
      <path d="M11.7744,6.4111c-.9946.2452-1.5674.8872-2.5786,1.126-.9199.2168-.0381-.7222-.8252-.6445-1.2847.1758-1.98,1.2329-2.0229,1.9375-.0352.5757.5073,1.1567,1.4336,1.4155,1.8129.5054,4.4331.353,5.9086-.856.6499-.5336.7872-1.3515.3672-2.0507-.3276-.5474-1.2685-1.1792-2.2827-.9278ZM8.7773,7.9756c.481.0288.8433.2231.8081.4316-.0356.209-.455.3535-.9355.3242-.48-.0288-.8398-.2211-.8047-.4301.0347-.2085.4522-.355.9321-.3257Z" fill="url(#radial-gradient)"/>
      <path d="M9.7627,8.2334c.0352-.209-.3272-.4028-.8081-.4326-.4585-.0279-.8579.1045-.9248.2973.1733-.0908.4482-.1406.7475-.1225.481.0288.8433.2231.8081.4316-.0019.0098-.0048.0186-.0087.0283.1049-.0542.1733-.124.186-.2021Z" fill="url(#radial-gradient-2)"/>
      <path d="M7.96,10.0718c-.9244-.2544-1.4703-.8399-1.4351-1.4155.021-.3516.2051-.7906.5425-1.1651-.4492.4058-.6948.9312-.7197,1.3389-.0352.5757.5073,1.1567,1.4336,1.4155,1.8129.5054,4.4335.353,5.9086-.856.0567-.0473.1084-.103.1582-.1557-1.6035,1.1675-4.0542,1.3442-5.8881.8379Z" fill="url(#radial-gradient-3)"/>
      <g>
        <path d="M9.7915,9.2046c.4854-.0137.8701.1919.8579.459-.0127.2666-.4189.4936-.9048.5073-.4863.0137-.8686-.1899-.8554-.457.0127-.2666.416-.4947.9023-.5093Z" fill="url(#radial-gradient-4)" stroke="#999" stroke-width=".5"/>
        <path d="M10.2256,9.8574c-.5068.0147-.8687-.2353-.7593-.5024-.5176.0786-.5127.436-.1894.6089.5258.2812,1.3212-.1167.9487-.1065" fill="url(#radial-gradient-5)"/>
      </g>
      <g>
        <path d="M11.1699,8.708c.499-.0732.6162.1782,1.0352.5386.4189.3618-.3936.6357-1.0362.5942-.642-.042-.8676-.2886-1.0312-.5371s.5327-.5224,1.0322-.5957Z" fill="url(#radial-gradient-6)" stroke="#23a11f" stroke-width=".5"/>
        <path d="M11.9321,9.4897c-.6425-.0058-1.5371-.2709-1.2754-.5742-.5688.1299-.3325.4439.0933.6455.6929.3286,1.6548-.0669,1.1821-.0713" fill="url(#radial-gradient-7)"/>
      </g>
      <g>
        <path d="M11.5161,7.061c.3296-.3291.8765-.3403,1.3701-.1176.4932.2221.6446.4921.211.7036-.4336.2114-1.169.3535-1.5576.249-.3882-.104-.3541-.5054-.0235-.835Z" fill="url(#radial-gradient-8)" stroke="#0342d3" stroke-width=".5"/>
        <path d="M12.9043,7.29c-.4097.252-1.1543.3379-1.4307.0904-.2783.3716.211.5044.8008.4096.9605-.1538.9317-.6855.6299-.5" fill="url(#radial-gradient-9)"/>
      </g>
      <g>
        <path d="M11.7056,8.0933c.4609-.2002,1.0234-.1641,1.6176-.1368.5948.0274.4595.4859.0821.7906-.378.3051-1.3477.5132-1.6231.1386-.2754-.375-.5381-.5918-.0766-.7924Z" fill="url(#radial-gradient-10)" stroke="red" stroke-width=".5"/>
        <path d="M13.3096,8.2544c-.4942.3296-1.1348.2383-1.5865.0356-.2778.2256.1392.7261.7959.648,1.0674-.1265,1.1534-.9248.7906-.6836" fill="url(#radial-gradient-11)"/>
      </g>
    </g>
    <g>
      <path d="M7.5264,11.4551c-.0479-.0181-.1001-.043-.1577-.0777-1.7427-1.0214-3.2852-1.8286-4.8003-3.2578.0029.001.0048.0015.0078.0025-.0025-.002-.0039-.0034-.0059-.0059,1.9849.6738,3.4087,1.6372,5.1392,2.7139.0512.0322.0962.0654.1352.0996.1143.0386.229.1059.3199.166.0776.0508.1562.1182.2119.1939.0952-.0381.1748-.0372.3213.0224.2368.0962.6972-.105.9384-.1284.479-.0464.3428.6963.2881.939-.0561-.3277-.3843-.0503-.4868.0459-.2393.2246-.3999.3867-.7686.2978-.3461-.0835-.6337-.4707-.6181-.7095-.1358-.0307-.2744-.1108-.3701-.1928-.0606-.0367-.1119-.0723-.1543-.1089Z" fill="none" stroke="#000" stroke-linecap="round" stroke-linejoin="round" stroke-width="2"/>
      <path d="M8.2271,11.3667c-.2837.2905-.1084.9673.4418,1.0996.3687.0889.5293-.0732.7686-.2978.1025-.0962.4307-.3736.4868-.0459.0547-.2427.1909-.9854-.2881-.939-.2412.0234-.7016.2246-.9384.1284-.2134-.0869-.2867-.0498-.4707.0547" fill="url(#linear-gradient)"/>
      <path d="M8.394,11.46c-.1538.1298.1436.416.5718.4399.2871.0161.377-.0571.5142-.1602.0586-.0439.2524-.1728.3506-.0444-.0025-.1001-.0313-.4057-.376-.3623-.1738.022-.3662.2608-.5708.2275-.1841-.0302-.3745-.1508-.4898-.1005" fill="url(#linear-gradient-2)"/>
      <path d="M7.6807,11.564c-.315-.188-.3794-.377-.2354-.5567.1821-.227.5108-.0478.7193.0884.1967.1289.3974.3623.2324.5674-.1734.2158-.5279.063-.7163-.0991" fill="url(#radial-gradient-12)"/>
      <path d="M8.1968,11.7202c.3603-.3076-.5454-.54-.4448-.7529-.0801.1704,1.0571.2295.4448.7529" fill="url(#linear-gradient-3)"/>
      <path d="M7.9634,11.3857c-.0991.1172-.27.1827-.5947-.0083-1.7427-1.0214-3.2852-1.8286-4.8003-3.2578.0029.001.0048.0015.0078.0025-.0025-.002-.0039-.0034-.0059-.0059,1.9849.6738,3.4087,1.6372,5.1392,2.7139.2773.1733.3764.3852.2539.5556" fill="none" stroke="#4d4d4d" stroke-miterlimit="3.8637" stroke-width=".5"/>
      <path d="M7.9634,11.3857c-.0991.1172-.27.1827-.5947-.0083-1.7427-1.0214-3.2852-1.8286-4.8003-3.2578.0029.001.0048.0015.0078.0025-.0025-.002-.0039-.0034-.0059-.0059,1.9849.6738,3.4087,1.6372,5.1392,2.7139.2773.1733.3764.3852.2539.5556" fill="url(#linear-gradient-4)"/>
      <path d="M3.0835,8.3867c.8311.6821,1.477,1.1113,2.3833,1.6558.3789.228.7593.4487,1.1357.6684l.6524.3809c.2739.1606.4756.1714.5991.0303.0098-.0122.0151-.0259.0215-.0386.0581.0771.0962.1768.0259.2739-.104.1182-.274.107-.5191-.0371l-.6557-.3833c-.376-.2187-.7549-.439-1.1333-.666-1.0454-.6289-1.8257-1.1548-2.7598-1.9805.0815.0303.165.062.25.0962Z" fill="url(#linear-gradient-5)"/>
      <g mask="url(#mask-2)">
        <g>
          <path d="M8.2271,11.3667c-.2837.2905-.1084.9673.4418,1.0996.3687.0889.5293-.0732.7686-.2978.1025-.0962.4307-.3736.4868-.0459.0547-.2427.1909-.9854-.2881-.939-.2412.0234-.7016.2246-.9384.1284-.2134-.0869-.2867-.0498-.4707.0547" fill="url(#linear-gradient-6)"/>
          <path d="M8.394,11.46c-.1538.1298.1436.416.5718.4399.2871.0161.377-.0571.5142-.1602.0586-.0439.2524-.1728.3506-.0444-.0025-.1001-.0313-.4057-.376-.3623-.1738.022-.3662.2608-.5708.2275-.1841-.0302-.3745-.1508-.4898-.1005" fill="url(#linear-gradient-7)"/>
        </g>
      </g>
    </g>
  </g>
</svg>