<?xml version='1.0' encoding='UTF-8'?>
<svg xmlns="http://www.w3.org/2000/svg" xmlns:xlink="http://www.w3.org/1999/xlink" width="16" height="16" viewBox="0 0 16 16">
  <defs>
    <mask id="mask" x="1.8027" y="1.001" width="13.1485" height="14.5304286" maskUnits="userSpaceOnUse">
      <path d="M8.7695,14.4814l-5.9668-1.4873L5.5439,2.001l8.4073,2.0947-2.1392,8.5527c-.2891,1.1621-1.9101,2.1153-3.0425,1.833Z" fill="#fff" fill-rule="evenodd" stroke="#fff" stroke-linecap="round" stroke-linejoin="round" stroke-width="2"/>
    </mask>
    <linearGradient id="New_Gradient_399" data-name="New Gradient 399" x1="5.2541931" y1="2.1422995" x2="11.4049298" y2="14.7531786" gradientUnits="userSpaceOnUse">
      <stop offset="0" stop-color="#e5e5e5"/>
      <stop offset="1" stop-color="#fff"/>
    </linearGradient>
    <radialGradient id="New_Gradient_400" data-name="New Gradient 400" cx="-31.8004908" cy="16.6841929" fx="-31.8004908" fy="16.6841929" r="4.432301" gradientTransform="translate(32.2201 5.9366) rotate(13.9901369) scale(.6630684) skewX(-.0167694)" gradientUnits="userSpaceOnUse">
      <stop offset="0" stop-color="#fff"/>
      <stop offset="1" stop-color="#ccc"/>
    </radialGradient>
    <mask id="mask-1" x="2.8027" y="2.001" width="11.1485" height="13.1318" maskUnits="userSpaceOnUse">
      <path d="M8.7695,14.4814l-5.9668-1.4873L5.5439,2.001l8.4073,2.0947-2.1392,8.5527c-.2891,1.1621-1.9101,2.1153-3.0425,1.833Z" fill="#fff" fill-rule="evenodd"/>
    </mask>
    <linearGradient id="New_Gradient_401" data-name="New Gradient 401" x1="5.2541931" y1="2.1422995" x2="11.4049298" y2="14.7531786" gradientUnits="userSpaceOnUse">
      <stop offset="0" stop-color="#e5e5e5"/>
      <stop offset=".286514" stop-color="#f2f2f2"/>
      <stop offset=".646072" stop-color="#fff"/>
      <stop offset="1" stop-color="#fff"/>
    </linearGradient>
    <radialGradient id="New_Gradient_402" data-name="New Gradient 402" cx="-31.8004908" cy="16.6841929" fx="-31.8004908" fy="16.6841929" r="4.432301" gradientTransform="translate(32.2201 5.9366) rotate(13.9901369) scale(.6630684) skewX(-.0167694)" gradientUnits="userSpaceOnUse">
      <stop offset="0" stop-color="#e5e5e5"/>
      <stop offset=".331467" stop-color="#e5e5e5"/>
      <stop offset="1" stop-color="#999"/>
    </radialGradient>
    <radialGradient id="radial-gradient" cx="-12.1282131" cy="-88.8250909" fx="-12.1282131" fy="-88.8250909" r="9.1035364" gradientTransform="translate(17.7162 95.7787959)" gradientUnits="userSpaceOnUse">
      <stop offset="0" stop-color="#fff"/>
      <stop offset=".0148633" stop-color="#f1f7fe"/>
      <stop offset=".0801777" stop-color="#badafb"/>
      <stop offset=".1438424" stop-color="#8dc2f9"/>
      <stop offset=".2044479" stop-color="#69aff8"/>
      <stop offset=".2612008" stop-color="#50a2f6"/>
      <stop offset=".312615" stop-color="#4199f6"/>
      <stop offset=".353932" stop-color="#3c97f6"/>
      <stop offset=".5755021" stop-color="#3b94f1"/>
      <stop offset=".8388609" stop-color="#3a8de2"/>
      <stop offset="1" stop-color="#3a88d6"/>
    </radialGradient>
    <radialGradient id="radial-gradient-2" cx="-73.4834643" cy="15.9186625" fx="-73.4834643" fy="15.9186625" r="16.4966926" gradientTransform="translate(57.1642 .2041) scale(.6669)" gradientUnits="userSpaceOnUse"><stop offset="0" stop-color="#fff"/><stop offset=".0148633" stop-color="#f1f7fe"/><stop offset=".0801777" stop-color="#badafb"/><stop offset=".1438424" stop-color="#8dc2f9"/><stop offset=".2044479" stop-color="#69aff8"/><stop offset=".2612008" stop-color="#50a2f6"/><stop offset=".312615" stop-color="#4199f6"/><stop offset=".353932" stop-color="#3c97f6"/><stop offset=".5755021" stop-color="#3b94f1"/><stop offset=".8388609" stop-color="#3a8de2"/><stop offset="1" stop-color="#3a88d6"/></radialGradient>
  </defs>
  <g id="Layer_4" data-name="Layer 4">
    <g>
      <g mask="url(#mask)">
        <g>
          <path d="M8.7695,14.4814l-5.9668-1.4873L5.5439,2.001l8.4073,2.0947-2.1392,8.5527c-.2891,1.1621-1.9101,2.1153-3.0425,1.833Z" fill="url(#New_Gradient_399)" fill-rule="evenodd"/>
          <path d="M8.3706,14.4248s1.4067.294,1.7925-1.2529c1.4355.3584,1.7593-.8906,1.7593-.8906l-.7115,2.8515-2.8403-.708Z" fill="url(#New_Gradient_400)" fill-rule="evenodd"/>
          <path d="M8.7695,14.4814l-5.9668-1.4873L5.5439,2.001l8.4073,2.0947-2.1392,8.5527c-.2891,1.1621-1.9101,2.1153-3.0425,1.833Z" fill="none" fill-rule="evenodd" stroke="#000" stroke-linecap="round" stroke-linejoin="round" stroke-width="2"/>
        </g>
      </g>
      <g mask="url(#mask-1)">
        <g>
          <path d="M8.7695,14.4814l-5.9668-1.4873L5.5439,2.001l8.4073,2.0947-2.1392,8.5527c-.2891,1.1621-1.9101,2.1153-3.0425,1.833Z" fill="url(#New_Gradient_401)" fill-rule="evenodd"/>
          <path d="M8.3706,14.4248s1.4067.294,1.7925-1.2529c1.4355.3584,1.7593-.8906,1.7593-.8906l-.7115,2.8515-2.8403-.708Z" fill="url(#New_Gradient_402)" fill-rule="evenodd"/>
        </g>
      </g>
    </g>
  </g>
  <g id="Layer_5" data-name="Layer 5">
    <g>
      <path d="M4.6797,9.8428c2.1304.5312,4.2607,1.0635,6.3921,1.5947" fill="none" stroke="#ccc" stroke-linecap="round" stroke-linejoin="round" stroke-width="1.0502"/>
      <path d="M6.0498,4.3477c2.1304.5302,4.2607,1.0625,6.3921,1.5947" fill="none" stroke="#ccc" stroke-linecap="round" stroke-linejoin="round" stroke-width="1.0502"/>
      <path d="M5.5015,6.5459c2.1308.5303,4.2612,1.0625,6.3921,1.5937" fill="none" stroke="#ccc" stroke-linecap="round" stroke-linejoin="round" stroke-width="1.0502"/>
      <path d="M5.7759,5.4463c2.1304.5312,4.2602,1.0625,6.3921,1.5947" fill="none" stroke="#ccc" stroke-linecap="round" stroke-linejoin="round" stroke-width="1.0502"/>
      <path d="M4.9531,8.7432c2.1309.5312,4.2608,1.0634,6.3931,1.5947" fill="none" stroke="#ccc" stroke-linecap="round" stroke-linejoin="round" stroke-width="1.0502"/>
      <path d="M5.2275,7.6445c2.1304.5313,4.2608,1.0625,6.3921,1.5938" fill="none" stroke="#ccc" stroke-linecap="round" stroke-linejoin="round" stroke-width="1.0502"/>
    </g>
  </g>
  <g id="Layer_1" data-name="Layer 1">
    <g>
      <path d="M8.895,3.668c-.2886-.0733-.5854.0937-.8828.2119-.3765.1514-.5908.0273-.9224-.0361l.0367-.1172c.0737-.2325-.2383-.2754-.3111-.042l-1.1465,3.6308c-.3012-.3623-.873-.4629-1.3759-.2949-.4219.1406-.8409.5654-.6787,1.0225.2402.6748,2.0556.9355,2.2085-.2207.0131-.0205.0249-.041.0327-.0664l.6679-2.1172c.1441.5556.7574.0586,1.1001-.21.378-.2969.8496-.6982,1.2671-.5488.0469.0166.2442.1689.3057.1025.0845-.0888.0552-.3388.0527-.4287-.0107-.2998-.0547-.8096-.354-.8857" fill="#d68100" fill-rule="evenodd" stroke="#000" stroke-width="1.5"/>
      <path d="M8.895,3.668c-.2886-.0733-.5854.0937-.8828.2119-.3765.1514-.5908.0273-.9224-.0361l.0367-.1172c.0737-.2325-.2383-.2754-.3111-.042l-1.1465,3.6308c-.3012-.3623-.873-.4629-1.3759-.2949-.4219.1406-.8409.5654-.6787,1.0225.2402.6748,2.0556.9355,2.2085-.2207.0131-.0205.0249-.041.0327-.0664l.6679-2.1172c.1441.5556.7574.0586,1.1001-.21.378-.2969.8496-.6982,1.2671-.5488.0469.0166.2442.1689.3057.1025.0845-.0888.0552-.3388.0527-.4287-.0107-.2998-.0547-.8096-.354-.8857" fill="url(#radial-gradient)" fill-rule="evenodd"/>
    </g>
  </g>
  <g id="Layer_3" data-name="Layer 3">
    <g>
      <path d="M12.5493,7.0068c.0327-.1045-.0215-.1943-.1133-.1972-.0371-.0244-.0991-.043-.1933-.0567l-1.3736-.1894-.2895-.0401-1.3731-.1884c-.0957-.0137-.164-.0118-.2133.0009-.085-.0254-.1934.045-.2261.1504l-1.125,3.5655c-.3027-.3663-.8867-.4629-1.3906-.2764-.3877.1435-.7632.5322-.6363.957.1353.4561.6548.627,1.0952.6035.3887-.0195,1.0113-.25,1.0826-.788.0136-.0186.0239-.0411.0317-.0645l.7437-2.3574c.021.0039.0444.0078.0693.0117l1.3726.1885.29.04,1.3726.1885c.0239.0039.0459.0058.0659.0078l-.6197,1.9658c-.3027-.3652-.8867-.4609-1.3911-.2754-.3872.1436-.7627.5332-.6357.958.1343.4551.6548.625,1.0952.6036.3892-.0196,1.0107-.252,1.0815-.7881.0142-.0196.0245-.041.0328-.0645l1.2475-3.9551M11.8857,7.8828l-1.3725-.1894-.291-.0391-1.3716-.1895c-.0264-.0029-.0488-.0058-.0713-.0068l.146-.4619c.02.0039.0435.0078.0688.0117l1.3731.1885.29.04,1.3726.1895c.0234.0019.0454.0049.0659.0058l-.146.462c-.0195-.004-.0405-.0079-.064-.0108" fill="#d68100" fill-rule="evenodd" stroke="#000" stroke-width="1.5"/>
      <path d="M12.5493,7.0068c.0327-.1045-.0215-.1943-.1133-.1972-.0371-.0244-.0991-.043-.1933-.0567l-1.3736-.1894-.2895-.0401-1.3731-.1884c-.0957-.0137-.164-.0118-.2133.0009-.085-.0254-.1934.045-.2261.1504l-1.125,3.5655c-.3027-.3663-.8867-.4629-1.3906-.2764-.3877.1435-.7632.5322-.6363.957.1353.4561.6548.627,1.0952.6035.3887-.0195,1.0113-.25,1.0826-.788.0136-.0186.0239-.0411.0317-.0645l.7437-2.3574c.021.0039.0444.0078.0693.0117l1.3726.1885.29.04,1.3726.1885c.0239.0039.0459.0058.0659.0078l-.6197,1.9658c-.3027-.3652-.8867-.4609-1.3911-.2754-.3872.1436-.7627.5332-.6357.958.1343.4551.6548.625,1.0952.6036.3892-.0196,1.0107-.252,1.0815-.7881.0142-.0196.0245-.041.0328-.0645l1.2475-3.9551M11.8857,7.8828l-1.3725-.1894-.291-.0391-1.3716-.1895c-.0264-.0029-.0488-.0058-.0713-.0068l.146-.4619c.02.0039.0435.0078.0688.0117l1.3731.1885.29.04,1.3726.1895c.0234.0019.0454.0049.0659.0058l-.146.462c-.0195-.004-.0405-.0079-.064-.0108" fill="url(#radial-gradient-2)" fill-rule="evenodd"/>
    </g>
  </g>
</svg>