<?xml version='1.0' encoding='UTF-8'?>
<svg xmlns="http://www.w3.org/2000/svg" xmlns:xlink="http://www.w3.org/1999/xlink" id="Layer_1" data-name="Layer 1" width="16" height="16" viewBox="0 0 16 16">
  <defs>
    <mask id="mask" x="3.1635" y="6.1671" width="10.1905" height="7.9241" maskUnits="userSpaceOnUse">
      <polygon points="6.9118 13.8 12.5714 12.3179 12.5714 7.8738 3.7228 6.1671 3.7228 10.6108 6.9118 13.8" fill="#fff" fill-rule="evenodd"/>
    </mask>
    <mask id="mask-1" x="3.1635" y="6.5784" width="4.2584" height="7.5128" maskUnits="userSpaceOnUse">
      <rect x="3.1635" y="6.9754" width="3.7583" height="7.1158" fill="#fff"/>
    </mask>
    <linearGradient id="New_Gradient_392" data-name="New Gradient 392" x1="7.2252171" y1="13.8941586" x2="2.8600829" y2="7.1724414" gradientUnits="userSpaceOnUse">
      <stop offset="0" stop-color="#c1a35f"/>
      <stop offset="1" stop-color="#a78631"/>
    </linearGradient>
    <linearGradient id="New_Gradient_393" data-name="New Gradient 393" x1="5.3479" y1="6.5784" x2="5.3479" y2="10.5479" gradientUnits="userSpaceOnUse">
      <stop offset="0" stop-color="#6f4b0a"/>
      <stop offset="1" stop-color="#a78631"/>
    </linearGradient>
    <linearGradient id="New_Gradient_394" data-name="New Gradient 394" x1="9.6670322" y1="7.0847257" x2="10.2895115" y2="10.6149814" gradientUnits="userSpaceOnUse">
      <stop offset="0" stop-color="#6f4b0a"/>
      <stop offset="1" stop-color="#967631"/>
    </linearGradient>
    <mask id="mask-2" x="3.7228" y="2.9931" width="10.027" height="7.0572" maskUnits="userSpaceOnUse">
      <polygon points="6.9118 9.3565 12.5714 7.8738 9.4106 4.7137 3.7228 6.1671 6.9118 9.3565" fill="#fff" fill-rule="evenodd"/>
    </mask>
    <linearGradient id="New_Gradient_395" data-name="New Gradient 395" x1="7.3953586" y1="4.5616146" x2="8.906983" y2="9.5059154" gradientUnits="userSpaceOnUse">
      <stop offset="0" stop-color="#6f4b0a"/>
      <stop offset="1" stop-color="#523800"/>
    </linearGradient>
    <linearGradient id="New_Gradient_396" data-name="New Gradient 396" x1="11.57305" y1="2.9931" x2="11.57305" y2="10.0503" gradientUnits="userSpaceOnUse">
      <stop offset="0" stop-color="#a78631"/>
      <stop offset=".696625" stop-color="#6f4b0a"/>
      <stop offset="1" stop-color="#6f4b0a"/>
    </linearGradient>
    <mask id="mask-3" x="3.7228" y=".9156" width="9.4858" height="10.9090536" maskUnits="userSpaceOnUse">
      <polygon points="6.9118 9.3565 12.5714 7.8738 13.2086 .9156 3.7465 1.1193 3.7228 6.1671 6.9118 9.3565" fill="#fff" fill-rule="evenodd"/>
    </mask>
    <mask id="mask-4" x="4.0171" y="3.1146" width="5.9763" height="7.1999" maskUnits="userSpaceOnUse">
      <path d="M7.8391,9.3145h-2.822v-5.1999h3.9763l-.0029,4.0458c.0002.5498-.6155,1.1541-1.1514,1.1541Z" fill="#fff" fill-rule="evenodd" stroke="#fff" stroke-linecap="round" stroke-linejoin="round" stroke-width="2"/>
    </mask>
    <linearGradient id="New_Gradient_399" data-name="New Gradient 399" x1="5.5987944" y1="3.8308887" x2="8.4115821" y2="9.597958" gradientUnits="userSpaceOnUse">
      <stop offset="0" stop-color="#e5e5e5"/>
      <stop offset="1" stop-color="#fff"/>
    </linearGradient>
    <radialGradient id="New_Gradient_400" data-name="New Gradient 400" cx="41.436552" cy="45.1274365" fx="41.436552" fy="45.1274365" r="2.495553" gradientTransform="translate(-14.745 -16.4067) scale(.5406)" gradientUnits="userSpaceOnUse">
      <stop offset="0" stop-color="#fff"/>
      <stop offset="1" stop-color="#ccc"/>
    </radialGradient>
    <mask id="mask-5" x="5.0171" y="4.1146" width="3.982" height="5.2195" maskUnits="userSpaceOnUse">
      <path d="M7.8391,9.3145h-2.822v-5.1999h3.9763l-.0029,4.0458c.0002.5498-.6155,1.1541-1.1514,1.1541Z" fill="#fff" fill-rule="evenodd"/>
    </mask>
    <linearGradient id="New_Gradient_401" data-name="New Gradient 401" x1="5.5987944" y1="3.8308887" x2="8.4115821" y2="9.597958" gradientUnits="userSpaceOnUse">
      <stop offset="0" stop-color="#e5e5e5"/>
      <stop offset=".286514" stop-color="#f2f2f2"/>
      <stop offset=".646072" stop-color="#fff"/>
      <stop offset="1" stop-color="#fff"/>
    </linearGradient>
    <radialGradient id="New_Gradient_402" data-name="New Gradient 402" cx="41.436552" cy="45.1274365" fx="41.436552" fy="45.1274365" r="2.495553" gradientTransform="translate(-14.745 -16.4067) scale(.5406)" gradientUnits="userSpaceOnUse">
      <stop offset="0" stop-color="#e5e5e5"/>
      <stop offset=".331467" stop-color="#e5e5e5"/>
      <stop offset="1" stop-color="#999"/>
    </radialGradient>
    <mask id="mask-6" x="4.2315" y="2.5848" width="8.441" height="9.2398536" maskUnits="userSpaceOnUse">
      <path d="M8.6789,10.7959l-3.4474-.8598,1.584-6.3513,4.857,1.2104-1.2356,4.9415c-.1667.6713-1.1035,1.2218-1.758,1.0592Z" fill="#fff" fill-rule="evenodd" stroke="#fff" stroke-linecap="round" stroke-linejoin="round" stroke-width="2"/>
    </mask>
    <linearGradient id="New_Gradient_399-2" data-name="New Gradient 399" x1="6.6478398" y1="3.6665734" x2="10.2015469" y2="10.9527526" gradientUnits="userSpaceOnUse"><stop offset="0" stop-color="#e5e5e5"/><stop offset="1" stop-color="#fff"/></linearGradient>
    <radialGradient id="New_Gradient_400-2" data-name="New Gradient 400" cx="11.2743175" cy="-9.3755538" fx="11.2743175" fy="-9.3755538" r="2.4950698" gradientTransform="translate(-.1293 13.4527) rotate(13.9872396) scale(.6805795)" gradientUnits="userSpaceOnUse"><stop offset="0" stop-color="#fff"/><stop offset="1" stop-color="#ccc"/></radialGradient>
    <mask id="mask-7" x="5.2315" y="3.5848" width="6.441" height="7.5876" maskUnits="userSpaceOnUse">
      <path d="M8.6789,10.7959l-3.4474-.8598,1.584-6.3513,4.857,1.2104-1.2356,4.9415c-.1667.6713-1.1035,1.2218-1.758,1.0592Z" fill="#fff" fill-rule="evenodd"/>
    </mask>
    <linearGradient id="linear-gradient" x1="7.6338797" y1="10.5292531" x2="9.2616512" y2="4.1835709" gradientUnits="userSpaceOnUse">
      <stop offset="0" stop-color="#919191"/>
      <stop offset=".646072" stop-color="#fff"/>
      <stop offset="1" stop-color="#fff"/>
    </linearGradient>
    <radialGradient id="New_Gradient_402-2" data-name="New Gradient 402" cx="11.2743175" cy="-9.3755538" fx="11.2743175" fy="-9.3755538" r="2.4950698" gradientTransform="translate(-.1293 13.4527) rotate(13.9872396) scale(.6805795)" gradientUnits="userSpaceOnUse"><stop offset="0" stop-color="#e5e5e5"/><stop offset=".331467" stop-color="#e5e5e5"/><stop offset="1" stop-color="#999"/></radialGradient>
  </defs>
  <g>
    <polygon points="9.4106 4.7137 11.2049 2.9227 14.3558 6.0974 12.5714 7.8738 14.5093 7.8883 12.5714 8.4165 12.5714 12.3179 6.9118 13.8 3.7228 10.6108 3.7228 8.0646 1.8266 6.1687 3.7228 6.1671 3.0808 3.8121 8.6419 2.4281 9.4106 4.7137" fill="#a78631" stroke="#000" stroke-linecap="round" stroke-linejoin="round" stroke-width="2"/>
    <g mask="url(#mask)">
      <g>
        <polygon points="6.9118 13.8 12.5714 12.3179 12.5714 7.8738 3.7228 6.1671 3.7228 10.6108 6.9118 13.8" fill="#a78631" fill-rule="evenodd"/>
        <g mask="url(#mask-1)">
          <g>
            <rect x="3.1635" y="6.9754" width="3.7583" height="7.1158" fill="url(#New_Gradient_392)"/>
            <polygon points="3.2739 8.3623 5.46 10.5479 7.4219 9.2518 4.6923 6.5784 3.2739 8.3623" fill="url(#New_Gradient_393)" fill-rule="evenodd"/>
          </g>
        </g>
        <polygon points="6.6547 9.1499 8.2551 10.2838 13.354 8.8456 12.5816 7.4066 6.6547 9.1499" fill="url(#New_Gradient_394)" fill-rule="evenodd"/>
      </g>
    </g>
    <g mask="url(#mask-2)">
      <g>
        <polygon points="6.9118 9.3565 12.5714 7.8738 9.4106 4.7137 3.7228 6.1671 6.9118 9.3565" fill="url(#New_Gradient_395)" fill-rule="evenodd"/>
        <rect x="9.3963" y="2.9931" width="4.3535" height="7.0572" fill="url(#New_Gradient_396)"/>
      </g>
    </g>
    <polygon points="3.0808 3.8121 3.7228 6.1671 9.4106 4.7137 8.6419 2.4281 3.0808 3.8121" fill="#c1a35f" fill-rule="evenodd"/>
    <polygon points="9.4106 4.7137 12.5714 7.8738 14.3558 6.0974 11.2049 2.9227 9.4106 4.7137" fill="#ffdea0" fill-rule="evenodd"/>
    <line x1="6.9218" y1="13.5788" x2="6.9218" y2="9.5082" fill="none" stroke="#6f4b0a" stroke-linecap="round" stroke-miterlimit="3.8637"/>
    <line x1="3.8171" y1="6.1535" x2="9.3093" y2="4.7216" fill="none" stroke="#a78631" stroke-linecap="round" stroke-miterlimit="3.8637"/>
    <line x1="9.4894" y1="4.8422" x2="12.4052" y2="7.7784" fill="none" stroke="#c1a35f" stroke-linecap="round" stroke-miterlimit="3.8637"/>
    <polyline points="3.7971 8.3309 4.9281 9.4624 6.8323 9.4624" fill="none" stroke="#6f4b0a" stroke-linecap="round" stroke-miterlimit="3.8637" stroke-width=".75"/>
    <polygon points="6.9218 9.3672 9.0779 9.3672 14.5093 7.8883 12.5771 7.8883 6.9218 9.3672" fill="#c1a35f" fill-rule="evenodd"/>
    <polygon points="3.7228 6.1671 6.9118 9.3565 5.025 9.3672 1.8266 6.1687 3.7228 6.1671" fill="#a78631" fill-rule="evenodd"/>
    <polyline points="3.7419 6.0336 3.1569 3.8282 8.6164 2.491" fill="none" stroke="#ffdea0" stroke-linecap="round" stroke-miterlimit="3.8637" stroke-width=".5"/>
    <line x1="6.8171" y1="13.5781" x2="6.8171" y2="9.6332" fill="none" stroke="#ffdea0" stroke-linecap="round" stroke-miterlimit="3.8637" stroke-width=".5"/>
    <line x1="1.9624" y1="6.2378" x2="5.0582" y2="9.2723" fill="none" stroke="#ffdea0" stroke-linecap="round" stroke-miterlimit="3.8637" stroke-width=".5"/>
    <polyline points="7.1221 9.3945 8.9217 9.3945 14.0814 7.9558" fill="none" stroke="#ffdea0" stroke-linecap="round" stroke-miterlimit="3.8637" stroke-width=".5"/>
    <g mask="url(#mask-3)">
      <g>
        <g>
          <g>
            <g mask="url(#mask-4)">
              <g>
                <path d="M7.8391,9.3145h-2.822v-5.1999h3.9763l-.0029,4.0458c.0002.5498-.6155,1.1541-1.1514,1.1541Z" fill="url(#New_Gradient_399)" fill-rule="evenodd"/>
                <path d="M7.6556,9.3341s.6588-.0257.6588-.7572c.679,0,.6847-.5921.6847-.5921v1.3493h-1.3435Z" fill="url(#New_Gradient_400)" fill-rule="evenodd"/>
                <path d="M7.8391,9.3145h-2.822v-5.1999h3.9763l-.0029,4.0458c.0002.5498-.6155,1.1541-1.1514,1.1541Z" fill="none" fill-rule="evenodd" stroke="#000" stroke-linecap="round" stroke-linejoin="round" stroke-width="2"/>
              </g>
            </g>
            <g mask="url(#mask-5)">
              <g>
                <path d="M7.8391,9.3145h-2.822v-5.1999h3.9763l-.0029,4.0458c.0002.5498-.6155,1.1541-1.1514,1.1541Z" fill="url(#New_Gradient_401)" fill-rule="evenodd"/>
                <path d="M7.6556,9.3341s.6588-.0257.6588-.7572c.679,0,.6847-.5921.6847-.5921v1.3493h-1.3435Z" fill="url(#New_Gradient_402)" fill-rule="evenodd"/>
              </g>
            </g>
          </g>
          <g>
            <path d="M5.5029,7.703c1.0076,0,2.0153,0,3.0234.0005" fill="none" stroke="#b3b3b3" stroke-linecap="round" stroke-linejoin="round" stroke-width="1.0502"/>
            <path d="M5.5029,5.1034c1.0076,0,2.0153.0009,3.0234.0009" fill="none" stroke="#b3b3b3" stroke-linecap="round" stroke-linejoin="round" stroke-width="1.0502"/>
            <path d="M5.5029,6.1433c1.0076,0,2.0153.0004,3.0234.0004" fill="none" stroke="#b3b3b3" stroke-linecap="round" stroke-linejoin="round" stroke-width="1.0502"/>
            <path d="M5.5029,5.6236c1.0076-.0001,2.0153,0,3.0234,0" fill="none" stroke="#b3b3b3" stroke-linecap="round" stroke-linejoin="round" stroke-width="1.0502"/>
            <path d="M5.5029,7.1832h3.0234" fill="none" stroke="#b3b3b3" stroke-linecap="round" stroke-linejoin="round" stroke-width="1.0502"/>
            <path d="M5.5029,6.6631h3.0234" fill="none" stroke="#b3b3b3" stroke-linecap="round" stroke-linejoin="round" stroke-width="1.0502"/>
          </g>
        </g>
        <g>
          <g>
            <g mask="url(#mask-6)">
              <g>
                <path d="M8.6789,10.7959l-3.4474-.8598,1.584-6.3513,4.857,1.2104-1.2356,4.9415c-.1667.6713-1.1035,1.2218-1.758,1.0592Z" fill="url(#New_Gradient_399-2)" fill-rule="evenodd"/>
                <path d="M8.4489,10.763s.8127.1699,1.0355-.7236c.8294.2067,1.0158-.515,1.0158-.515l-.4105,1.648-1.6408-.4094Z" fill="url(#New_Gradient_400-2)" fill-rule="evenodd"/>
                <path d="M8.6789,10.7959l-3.4474-.8598,1.584-6.3513,4.857,1.2104-1.2356,4.9415c-.1667.6713-1.1035,1.2218-1.758,1.0592Z" fill="none" fill-rule="evenodd" stroke="#000" stroke-linecap="round" stroke-linejoin="round" stroke-width="2"/>
              </g>
            </g>
            <g mask="url(#mask-7)">
              <g>
                <path d="M8.6789,10.7959l-3.4474-.8598,1.584-6.3513,4.857,1.2104-1.2356,4.9415c-.1667.6713-1.1035,1.2218-1.758,1.0592Z" fill="url(#linear-gradient)" fill-rule="evenodd"/>
                <path d="M8.4489,10.763s.8127.1699,1.0355-.7236c.8294.2067,1.0158-.515,1.0158-.515l-.4105,1.648-1.6408-.4094Z" fill="url(#New_Gradient_402-2)" fill-rule="evenodd"/>
              </g>
            </g>
          </g>
          <g>
            <path d="M6.3157,8.1154c1.2311.3066,2.462.6146,3.6935.9214" fill="none" stroke="#b3b3b3" stroke-linecap="round" stroke-linejoin="round" stroke-width="1.0502"/>
            <path d="M7.1076,4.9408c1.2309.3066,2.4616.6138,3.6936.9206" fill="none" stroke="#b3b3b3" stroke-linecap="round" stroke-linejoin="round" stroke-width="1.0502"/>
            <path d="M6.791,6.2107c1.2311.3064,2.4613.6141,3.6933.9207" fill="none" stroke="#b3b3b3" stroke-linecap="round" stroke-linejoin="round" stroke-width="1.0502"/>
            <path d="M6.9493,5.5755c1.2309.3066,2.4615.6137,3.6934.9211" fill="none" stroke="#b3b3b3" stroke-linecap="round" stroke-linejoin="round" stroke-width="1.0502"/>
            <path d="M6.4744,7.4809c1.2309.3061,2.4613.6138,3.6934.9207" fill="none" stroke="#b3b3b3" stroke-linecap="round" stroke-linejoin="round" stroke-width="1.0502"/>
            <path d="M6.6327,6.8455c1.2309.3068,2.4616.6141,3.6931.9213" fill="none" stroke="#b3b3b3" stroke-linecap="round" stroke-linejoin="round" stroke-width="1.0502"/>
          </g>
        </g>
      </g>
    </g>
  </g>
  <line x1="6.9118" y1="9.3565" x2="3.7228" y2="6.1671" fill="none" stroke="#7e5b39" stroke-linecap="round" stroke-miterlimit="3.8637" stroke-width=".5"/>
</svg>