<?xml version="1.0" encoding="UTF-8"?>
<svg id="Layer_1" data-name="Layer 1" xmlns="http://www.w3.org/2000/svg" width="16" height="16" xmlns:xlink="http://www.w3.org/1999/xlink" viewBox="0 0 16 16">
  <defs>
    <linearGradient id="linear-gradient" x1="7.5314541" y1="4.5148286" x2="11.9163055" y2="18.2943951" gradientUnits="userSpaceOnUse">
      <stop offset="0" stop-color="#a70000"/>
      <stop offset=".544944" stop-color="#ff8b8b"/>
      <stop offset=".6149436" stop-color="#ff9090"/>
      <stop offset=".7081626" stop-color="#ffa1a1"/>
      <stop offset=".8144835" stop-color="#ffbdbd"/>
      <stop offset=".9296755" stop-color="#ffe3e3"/>
      <stop offset="1" stop-color="#fff"/>
    </linearGradient>
  </defs>
  <path d="M12.610296,3.61347c-.628296-.63328-1.556-.94084-2.4649999-.87729-.8632.06135-1.6836.47484-2.1748999,1.15133-.0633.08418-.1193962.17303-.1706.26408-.389-.70314-1.1213-1.19861-1.9442-1.36177-.9092-.18075-1.8951.0311-2.6095962.59231-.46.36205-.7711037.85611-.8878037,1.40882-.1136.5384-.0627,1.12959.1676,1.63632.3026.77825.8358,1.44347,1.3769,2.08553.6468.76563,1.2952,1.5346,1.9475,2.2928.6423.743,1.3075,1.4671,1.9309,2.2234.0011-.0012.0022-.0036.0044-.0072.0017.0036.0044.006.0066.0072.0011-.0031.0049038-.0072.0077-.0091.0022038.0019.005.006.0072038.0091.0010962-.0012.0042962-.0036.0064962-.0072.0028.0036.0028.006.0045038.0072.4225962-.5145.8763961-1.0108,1.3154961-1.5137.6537-.753,1.2897-1.52077,1.9423-2.2762.746-.86935,1.584-1.74692,1.9977999-2.81183.410404-.91526.2668-2.07652-.4633-2.8138" stroke="#000" stroke-width="1.9257"/>
  <path d="M12.610296,3.61347c-.628296-.63328-1.556-.94084-2.4649999-.87729-.8632.06135-1.6836.47484-2.1748999,1.15133-.0633.08418-.1193962.17303-.1706.26408-.389-.70314-1.1213-1.19861-1.9442-1.36177-.9092-.18075-1.8951.0311-2.6095962.59231-.46.36205-.7711037.85611-.8878037,1.40882-.1136.5384-.0627,1.12959.1676,1.63632.3026.77825.8358,1.44347,1.3769,2.08553.6468.76563,1.2952,1.5346,1.9475,2.2928.6423.743,1.3075,1.4671,1.9309,2.2234.0011-.0012.0022-.0036.0044-.0072.0017.0036.0044.006.0066.0072.0011-.0031.0049038-.0072.0077-.0091.0022038.0019.005.006.0072038.0091.0010962-.0012.0042962-.0036.0064962-.0072.0028.0036.0028.006.0045038.0072.4225962-.5145.8763961-1.0108,1.3154961-1.5137.6537-.753,1.2897-1.52077,1.9423-2.2762.746-.86935,1.584-1.74692,1.9977999-2.81183.410404-.91526.2668-2.07652-.4633-2.8138" fill="url(#linear-gradient)"/>
  <path d="M3.9755963,8.07706c-.3705963-.43355-.7155963-.86766-.9845963-1.33591-.0008037-.00552-.0028037-.00823-.0033037-.01155-.2275-.48995-.2768-1.06519-.1692-1.58708.1122-.5362.4124-1.01623.8553-1.36836.6902037-.54556,1.6504-.75351,2.5309999-.58297.0897.0182.1815.04045.2682038.06603.2631962.15049.4981962.34391.682.56894-.1238038-.04209-.2545038-.07871-.384-.10237-.8834038-.17218-1.8394038.03414-2.5291037.58296-.4458963.35298-.7461.83109-.857,1.36758-.1088963.52211-.0572,1.09516.1687,1.58679.1114037.28689.2575.55705.422.81594ZM10.3626961,3.12629c-.8363.06214-1.6292.46684-2.1039999,1.12463-.0391.05031-.0738.10231-.1029.15651.1992038.18215.3687.39422.5024.63136.0517-.08856.1039-.17663.165-.25911.4782-.657,1.2688039-1.05972,2.1089999-1.12024.4396-.03465.8825.02395,1.2941.16509-.0462961-.05477-.0958-.10734-.142-.15793-.159-.15928-.3461-.29686-.5452961-.41101-.3763039-.1128-.7785039-.159-1.1763039-.1293Z" fill="#d17a7a"/>
</svg>