<?xml version="1.0" encoding="UTF-8"?>
<svg id="Layer_1" data-name="Layer 1" xmlns="http://www.w3.org/2000/svg" width="16" height="16" xmlns:xlink="http://www.w3.org/1999/xlink" viewBox="0 0 16 16">
  <defs>
    <linearGradient id="New_Gradient_1" data-name="New Gradient 1" x1="-62.358127" y1="-980.04477" x2="-51.3240047" y2="-980.04477" gradientTransform="translate(744.2625 250.115) rotate(94.3536493) scale(1.0143269 -.7675146) skewX(7.3263493)" gradientUnits="userSpaceOnUse">
      <stop offset="0" stop-color="#ccc"/>
      <stop offset=".337082" stop-color="#999"/>
      <stop offset=".629211" stop-color="#b2b2b2"/>
      <stop offset="1" stop-color="#d9d9d9"/>
    </linearGradient>
    <linearGradient id="linear-gradient" x1="-62.358127" y1="-980.04477" x2="-51.3240047" y2="-980.04477" gradientTransform="translate(744.2625 250.115) rotate(94.3536493) scale(1.0143269 -.7675146) skewX(7.3263493)" gradientUnits="userSpaceOnUse">
      <stop offset="0" stop-color="#ccc"/>
      <stop offset=".337082" stop-color="#999"/>
      <stop offset=".629211" stop-color="#b2b2b2"/>
      <stop offset="1" stop-color="#d9d9d9"/>
    </linearGradient>
    <radialGradient id="radial-gradient" cx="4.7987502" cy="-7.0575345" fx="4.7987502" fy="-7.0575345" r="10.4139072" gradientTransform="translate(.9834837 13.0248834) scale(.9204)" gradientUnits="userSpaceOnUse">
      <stop offset=".140449" stop-color="#ffe900"/>
      <stop offset=".1588104" stop-color="#ffe204"/>
      <stop offset=".2913167" stop-color="#ffb420"/>
      <stop offset=".4092463" stop-color="#ff9334"/>
      <stop offset=".5071755" stop-color="#ff7f40"/>
      <stop offset=".573034" stop-color="#ff7845"/>
    </radialGradient>
  </defs>
  <path d="M4.3466,8.7247c.1255-.292.2571-.5684.3851-.8605l-.0041.0589.8283.1996c-.1216.2731-.2428.5321-.3606.8067l-.8487-.2047ZM5.0797,7.0005c.075-.2102.1481-.4424.2194-.6972l.0579-.213.8472.2047-.0578.2143c-.0696.2539-.1441.4848-.2198.6958l-.8469-.2046ZM5.5794,5.1374c.0809-.3978.1428-.7671.1897-1.1056l.8471.2056c-.0471.3366-.1078.7087-.1888,1.1037l-.848-.2037ZM10.1348,12.0489c.0708-.3201.1481-.6016.2304-.86l.8467.206c-.0817.2571-.1584.5395-.2288.8605l-.8483-.2065ZM10.7129,10.2663c.1253-.2925.255-.5684.3849-.8591l-.0048.0584.8288.2001c-.1233.2718-.244.5321-.3615.8034l-.8474-.2028ZM11.4451,8.5421c.0745-.2106.1483-.4415.2193-.6949l.0578-.2143.8473.2037-.0579.2148c-.0699.2539-.144.4866-.2189.6968l-.8476-.2061ZM11.9445,6.6786c.0819-.3965.1421-.7671.189-1.1047l.8492.2046c-.0475.339-.1089.7092-.1896,1.1056l-.8486-.2055ZM3.7698,10.5069c.0702-.3192.1472-.6012.2286-.8578l.8479.2042c-.0814.2567-.1583.539-.2279.8605l-.8486-.2069ZM12.2715,3.3925c.0053.1417.0138.5464-.0301,1.1411l.8474.206c.0428-.5965.0361-.998.0299-1.1415l.3868.0938s.0986,1.8659-.617,4.4492c-.6303,2.2802-1.514,2.5943-1.8187,6.2589l-.3955-.0952c.0317-.3666.0703-.7005.1122-1.004l-.847-.2042c-.0434.3035-.0809.6361-.1126,1.0026l-.2962-.0717-1.7936-.4333-3.428-.832c.0317-.3651.0692-.6981.1122-1.0026l-.8469-.2065c-.0435.305-.0816.6375-.1136,1.0036l-.3941-.0952c.3058-3.6646,1.1895-3.9796,1.8191-6.2571.7161-2.5856.6013-4.4556.6013-4.4556l.4197.1003c.0053.1439.0129.5459-.0306,1.1442l.8481.2051c.0428-.5974.0343-.9989.0297-1.1419l3.4028.8228,1.8107.4396.304.0736Z" fill="url(#New_Gradient_1)" fill-rule="evenodd" stroke="#000" stroke-linecap="round" stroke-linejoin="round" stroke-width="1.75"/>
  <path d="M4.3466,8.7247c.1255-.292.2571-.5684.3851-.8605l-.0041.0589.8283.1996c-.1216.2731-.2428.5321-.3606.8067l-.8487-.2047ZM5.0797,7.0005c.075-.2102.1481-.4424.2194-.6972l.0579-.213.8472.2047-.0578.2143c-.0696.2539-.1441.4848-.2198.6958l-.8469-.2046ZM5.5794,5.1374c.0809-.3978.1428-.7671.1897-1.1056l.8471.2056c-.0471.3366-.1078.7087-.1888,1.1037l-.848-.2037ZM10.1348,12.0489c.0708-.3201.1481-.6016.2304-.86l.8467.206c-.0817.2571-.1584.5395-.2288.8605l-.8483-.2065ZM10.7129,10.2663c.1253-.2925.255-.5684.3849-.8591l-.0048.0584.8288.2001c-.1233.2718-.244.5321-.3615.8034l-.8474-.2028ZM11.4451,8.5421c.0745-.2106.1483-.4415.2193-.6949l.0578-.2143.8473.2037-.0579.2148c-.0699.2539-.144.4866-.2189.6968l-.8476-.2061ZM11.9445,6.6786c.0819-.3965.1421-.7671.189-1.1047l.8492.2046c-.0475.339-.1089.7092-.1896,1.1056l-.8486-.2055ZM3.7698,10.5069c.0702-.3192.1472-.6012.2286-.8578l.8479.2042c-.0814.2567-.1583.539-.2279.8605l-.8486-.2069ZM12.2715,3.3925c.0053.1417.0138.5464-.0301,1.1411l.8474.206c.0428-.5965.0361-.998.0299-1.1415l.3868.0938s.0986,1.8659-.617,4.4492c-.6303,2.2802-1.514,2.5943-1.8187,6.2589l-.3955-.0952c.0317-.3666.0703-.7005.1122-1.004l-.847-.2042c-.0434.3035-.0809.6361-.1126,1.0026l-.2962-.0717-1.7936-.4333-3.428-.832c.0317-.3651.0692-.6981.1122-1.0026l-.8469-.2065c-.0435.305-.0816.6375-.1136,1.0036l-.3941-.0952c.3058-3.6646,1.1895-3.9796,1.8191-6.2571.7161-2.5856.6013-4.4556.6013-4.4556l.4197.1003c.0053.1439.0129.5459-.0306,1.1442l.8481.2051c.0428-.5974.0343-.9989.0297-1.1419l3.4028.8228,1.8107.4396.304.0736Z" fill="url(#linear-gradient)" fill-rule="evenodd"/>
  <path d="M6.7979,5.4602c.4082-1.9789.3268-3.3154.3268-3.3154l4.8065,1.1658s.0812,1.3356-.3259,3.3142l-4.8074-1.1646ZM4.99,10.8251c.4047-1.8746,1.0449-2.4591,1.5324-4.2238.0251-.092.0488-.1798.0725-.2677l4.8069,1.1645c-.0223.0883-.0462.1766-.0715.2681-.4854,1.7555-1.1114,2.3649-1.5133,4.2298l-4.827-1.1709ZM4.7044,12.8588c.0324-.4019.0734-.7648.1198-1.0932l4.8281,1.1709c-.0476.3335-.0887.7079-.1239,1.119l-4.824-1.1967Z" fill="url(#radial-gradient)" fill-rule="evenodd" stroke="#d68100" stroke-width=".5"/>
</svg>