<?xml version='1.0' encoding='UTF-8'?>
<svg xmlns="http://www.w3.org/2000/svg" xmlns:xlink="http://www.w3.org/1999/xlink" id="Layer_1" data-name="Layer 1" width="36" height="36" viewBox="0 0 36 36">
  <defs>
    <linearGradient id="New_Gradient_161" data-name="New Gradient 161" x1="6.4547655" y1="21.6221045" x2="23.1121968" y2="7.6448601" gradientUnits="userSpaceOnUse">
      <stop offset="0" stop-color="#ccc"/>
      <stop offset=".415726" stop-color="#f2f2f2"/>
      <stop offset=".48877" stop-color="#fff"/>
      <stop offset=".578659" stop-color="#e5e5e5"/>
      <stop offset="1" stop-color="#d9d9d9"/>
    </linearGradient>
    <linearGradient id="New_Gradient_157" data-name="New Gradient 157" x1="7.0398481" y1="18.4470898" x2="18.620861" y2="6.866077" gradientUnits="userSpaceOnUse">
      <stop offset="0" stop-color="#999"/>
      <stop offset=".415726" stop-color="#f2f2f2"/>
      <stop offset=".48877" stop-color="#fff"/>
      <stop offset=".578659" stop-color="#e5e5e5"/>
      <stop offset="1" stop-color="#d9d9d9"/>
    </linearGradient>
    <mask id="mask" x="11.0912906" y="7.7963449" width="11.3861997" height="17.7891336" maskUnits="userSpaceOnUse">
      <path d="M12.7284906,10.3633l8.5751998-2.2007c.6475-.166,1.1738.2241,1.1738.8721v12.8374c0,.6479-.5263,1.3076-1.1738,1.4741l-8.5751998,2.2007c-.6484.167-1.1743-.2237-1.1743-.8721v-12.8369c0-.648.5259-1.3076,1.1743-1.4746Z" fill="#fff" fill-rule="evenodd"/>
    </mask>
    <linearGradient id="New_Gradient_155" data-name="New Gradient 155" x1="16.3886253" y1="7.8851949" x2="17.643188" y2="25.8262783" gradientUnits="userSpaceOnUse">
      <stop offset="0" stop-color="#d9d9d9"/>
      <stop offset="1" stop-color="#ccc"/>
    </linearGradient>
    <linearGradient id="New_Gradient_156" data-name="New Gradient 156" x1="10.3218348" y1="8.7928909" x2="22.5660119" y2="23.9131904" gradientUnits="userSpaceOnUse">
      <stop offset="0" stop-color="#ccc"/>
      <stop offset="1" stop-color="#fff"/>
    </linearGradient>
    <mask id="mask-1" x="11.5257906" y="13.6086297" width="9.2242998" height="9.573152" maskUnits="userSpaceOnUse">
      <path d="M12.6933906,20.0396c0-2.2237,1.8022-4.4781,4.0253999-5.0357,2.2245999-.5576,4.0262999.793,4.0262999,3.0176,0,2.2222-1.8017,4.4775-4.0262999,5.0347-2.2231999.5576-4.0253999-.794-4.0253999-3.0166Z" fill="#fff" fill-rule="evenodd"/>
    </mask>
    <radialGradient id="New_Gradient_154" data-name="New Gradient 154" cx="54.749624" cy="8.3728586" fx="54.749624" fy="8.3728586" r="9.9981712" gradientTransform="translate(-23.3201 15.1302) scale(.7765)" gradientUnits="userSpaceOnUse">
      <stop offset="0" stop-color="#f2f2f2"/>
      <stop offset=".415726" stop-color="#ccc"/>
      <stop offset="1" stop-color="gray"/>
    </radialGradient>
    <mask id="mask-2" x="14.1712905" y="9.4079033" width="4.7320999" height="4.8931823" maskUnits="userSpaceOnUse">
      <path d="M14.853,12.7285c0-1.1123.9018905-2.2397,2.0136905-2.519,1.1128-.2783,2.0145999.3969,2.0145999,1.5102,0,1.1118-.9018,2.2393-2.0145999,2.5186-1.1118.2788-2.0136905-.397-2.0136905-1.5098Z" fill="#fff" fill-rule="evenodd"/>
    </mask>
    <mask id="mask-3" x="14.1712905" y="9.4079033" width="4.7320999" height="4.8566136" maskUnits="userSpaceOnUse">
      <path d="M14.5228905,12.3408c0-1.1123.9014-2.2397,2.0141999-2.5185s2.0146999.3969,2.0146999,1.5083c0,1.1132-.9019,2.2412-2.0146999,2.5195-1.1128.2788-2.0141999-.3965-2.0141999-1.5093Z" fill="#fff" fill-rule="evenodd" stroke="#fff" stroke-miterlimit="3.8637" stroke-width=".7032"/>
    </mask>
    <radialGradient id="New_Gradient_152" data-name="New Gradient 152" cx="18.4466361" cy="14.1023125" fx="18.4466361" fy="14.1023125" r="4.577244" gradientUnits="userSpaceOnUse">
      <stop offset="0" stop-color="#f2f2f2"/>
      <stop offset=".443817" stop-color="#ccc"/>
      <stop offset="1" stop-color="gray"/>
    </radialGradient>
    <radialGradient id="New_Gradient_153" data-name="New Gradient 153" cx="50.2620934" cy="-5.2618352" fx="50.2620934" fy="-5.2618352" r="1.8974706" gradientTransform="translate(-23.3201 15.1302) scale(.7765)" gradientUnits="userSpaceOnUse">
      <stop offset="0" stop-color="#f2f2f2"/>
      <stop offset="1" stop-color="#999"/>
    </radialGradient>
    <radialGradient id="New_Gradient_151" data-name="New Gradient 151" cx="49.1892273" cy="2.6852365" fx="49.1892273" fy="2.6852365" r="3.3530563" gradientTransform="translate(-23.3201 15.1302) scale(.7765)" gradientUnits="userSpaceOnUse">
      <stop offset="0" stop-color="#f2f2f2"/>
      <stop offset="1" stop-color="#999"/>
    </radialGradient>
    <mask id="mask-4" x="12.042" y="10.9600276" width="1.2514906" height="1.326076" maskUnits="userSpaceOnUse">
      <path d="M12.79,11.2637c.2783906-.0699.5034906.0996.5034906.3774s-.2251.5601-.5034906.6294c-.2783094.0693-.5029094-.0986-.5029094-.3774,0-.2779.2246-.5596.5029094-.6294Z" fill="#fff"/>
    </mask>
    <mask id="mask-5" x="12.042" y="22.8542287" width="1.2514906" height="1.326679" maskUnits="userSpaceOnUse">
      <path d="M12.79,23.1582c.2783906-.0698.5034906.0996.5034906.3774,0,.2779-.2251.5586-.5034906.6294-.2783094.0704-.5029094-.0996-.5029094-.3769,0-.2788.2246-.5601.5029094-.6299Z" fill="#fff"/>
    </mask>
    <mask id="mask-6" x="19.915" y="8.8812289" width="1.252" height="1.3260442" maskUnits="userSpaceOnUse">
      <path d="M20.6640904,9.1851c.2778-.0699.5029096.0996.5029096.3779,0,.2768-.2251096.5596-.5029096.6284-.2784.0703-.503-.0996-.503-.3774,0-.2774.2246-.5591.503-.6289Z" fill="#fff"/>
    </mask>
    <mask id="mask-7" x="19.9564904" y="20.7010321" width="1.2515096" height="1.3262437" maskUnits="userSpaceOnUse">
      <path d="M20.7050904,21.0044c.2783-.0693.5029096.1001.5029096.3774,0,.2784-.2246096.5601-.5029096.6299-.2779.0694-.5034-.0996-.5034-.3779,0-.2778.2255-.5601.5034-.6294Z" fill="#fff"/>
    </mask>
    <linearGradient id="New_Gradient_150" data-name="New Gradient 150" x1="11.0015803" y1="8.8741994" x2="23.0287355" y2="24.8347735" gradientUnits="userSpaceOnUse">
      <stop offset="0" stop-color="#fff"/>
      <stop offset="1" stop-color="#e5e5e5"/>
    </linearGradient>
    <linearGradient id="New_Gradient_149" data-name="New Gradient 149" x1="14.0093541" y1="7.0655076" x2="18.4433979" y2="24.8494862" gradientUnits="userSpaceOnUse">
      <stop offset="0" stop-color="#b2b2b2"/>
      <stop offset="1" stop-color="gray"/>
    </linearGradient>
    <linearGradient id="New_Gradient_148" data-name="New Gradient 148" x1="6.5262998" y1="22.9243699" x2="12.0410686" y2="18.2969294" gradientUnits="userSpaceOnUse">
      <stop offset="0" stop-color="#ccc"/>
      <stop offset="1" stop-color="#b2b2b2"/>
    </linearGradient>
    <linearGradient id="New_Gradient_147" data-name="New Gradient 147" x1="15.8137272" y1="8.1474409" x2="20.7208558" y2="4.029871" gradientUnits="userSpaceOnUse">
      <stop offset="0" stop-color="#d9d9d9"/>
      <stop offset="1" stop-color="#fff"/>
    </linearGradient>
    <radialGradient id="radial-gradient" cx="7.1540646" cy="-6.998865" fx="7.1540646" fy="-6.998865" r="12.9732947" gradientTransform="translate(12.7938 21.9056) scale(1.4871)" gradientUnits="userSpaceOnUse">
      <stop offset="0" stop-color="#fff"/>
      <stop offset=".0148633" stop-color="#f1f7fe"/>
      <stop offset=".0801777" stop-color="#badafb"/>
      <stop offset=".1438424" stop-color="#8dc2f9"/>
      <stop offset=".2044479" stop-color="#69aff8"/>
      <stop offset=".2612008" stop-color="#50a2f6"/>
      <stop offset=".312615" stop-color="#4199f6"/>
      <stop offset=".353932" stop-color="#3c97f6"/>
      <stop offset=".5755021" stop-color="#3b94f1"/>
      <stop offset=".8388609" stop-color="#3a8de2"/>
      <stop offset="1" stop-color="#3a88d6"/>
    </radialGradient>
    <radialGradient id="radial-gradient-2" cx="1.6334491" cy="6.7494675" fx="1.6334491" fy="6.7494675" r="13.5080005" gradientTransform="translate(17.7142 15.7982) scale(2.0327)" gradientUnits="userSpaceOnUse"><stop offset="0" stop-color="#fff"/><stop offset=".0148633" stop-color="#f1f7fe"/><stop offset=".0801777" stop-color="#badafb"/><stop offset=".1438424" stop-color="#8dc2f9"/><stop offset=".2044479" stop-color="#69aff8"/><stop offset=".2612008" stop-color="#50a2f6"/><stop offset=".312615" stop-color="#4199f6"/><stop offset=".353932" stop-color="#3c97f6"/><stop offset=".5755021" stop-color="#3b94f1"/><stop offset=".8388609" stop-color="#3a8de2"/><stop offset="1" stop-color="#3a88d6"/></radialGradient>
  </defs>
  <g>
    <path d="M11.7733906,25.3027l-4.4520999-4.4565c-.1372-.1567-.2168-.3716-.2168-.625V7.3838c0-.648.5249-1.3086,1.1728-1.4751l8.5761998-2.2007c.3926-.1006.7202,0,.9512.2451l4.4325999,4.4326c.1504.1582.2402.3814.2402.649v12.8374c0,.6479-.5263,1.3076-1.1738,1.4741l-8.5751998,2.2007c-.3934906.1015-.7422-.0034-.9551-.2442Z" fill="url(#New_Gradient_161)" stroke="#000" stroke-miterlimit="3.8637" stroke-width="2"/>
    <path d="M11.7733906,25.3027l-4.4520999-4.4565c-.1372-.1567-.2168-.3716-.2168-.625V7.3838c0-.648.5249-1.3086,1.1728-1.4751l8.5761998-2.2007c.3926-.1006.7202,0,.9512.2451l4.4520999,4.4561-10.4833997,16.8935Z" fill="url(#New_Gradient_157)" fill-rule="evenodd"/>
    <g mask="url(#mask)">
      <g>
        <path d="M12.7284906,10.3633l8.5751998-2.2007c.6475-.166,1.1738.2241,1.1738.8721v12.8374c0,.6479-.5263,1.3076-1.1738,1.4741l-8.5751998,2.2007c-.6484.167-1.1743-.2237-1.1743-.8721v-12.8369c0-.648.5259-1.3076,1.1743-1.4746Z" fill="url(#New_Gradient_155)" fill-rule="evenodd"/>
        <path d="M12.2411906,9.9912l8.4062998-2.1572c.6338-.1631,1.1489.2187,1.1489.854v12.5825c0,.6348-.5151,1.2817-1.1489,1.4448l-8.4062998,2.1568c-.6348.1635-1.1499-.2193-1.1499-.854v-12.5826c0-.6347.5151-1.2822,1.1499-1.4443Z" fill="url(#New_Gradient_156)" fill-rule="evenodd"/>
      </g>
    </g>
    <g mask="url(#mask-1)">
      <g>
        <path d="M12.6933906,20.0396c0-2.2237,1.8022-4.4781,4.0253999-5.0357,2.2245999-.5576,4.0262999.793,4.0262999,3.0176,0,2.2222-1.8017,4.4775-4.0262999,5.0347-2.2231999.5576-4.0253999-.794-4.0253999-3.0166Z" fill="#ccc" fill-rule="evenodd"/>
        <path d="M12.1117906,19.355c0-2.2232,1.8028-4.4771,4.0263999-5.0347,2.2230999-.5576,4.0258999.7925,4.0258999,3.0166,0,2.2236-1.8028,4.4785-4.0258999,5.0352-2.2231905.5576-4.0263999-.793-4.0263999-3.0171Z" fill="url(#New_Gradient_154)" fill-rule="evenodd" stroke="#4c4c4c" stroke-miterlimit="3.8637" stroke-width="1.172"/>
      </g>
    </g>
    <g mask="url(#mask-2)">
      <g>
        <path d="M14.853,12.7285c0-1.1123.9018905-2.2397,2.0136905-2.519,1.1128-.2783,2.0145999.3969,2.0145999,1.5102,0,1.1118-.9018,2.2393-2.0145999,2.5186-1.1118.2788-2.0136905-.397-2.0136905-1.5098Z" fill="#b2b2b2" fill-rule="evenodd"/>
        <g mask="url(#mask-3)">
          <g>
            <path d="M14.5228905,12.3408c0-1.1123.9014-2.2397,2.0141999-2.5185s2.0146999.3969,2.0146999,1.5083c0,1.1132-.9019,2.2412-2.0146999,2.5195-1.1128.2788-2.0141999-.3965-2.0141999-1.5093Z" fill="url(#New_Gradient_152)" fill-rule="evenodd"/>
            <path d="M16.1532905,10.5815c.5-.1245.9058.1792.9058.6788,0,.5014-.4058,1.0083-.9058,1.1342-.501.125-.9067-.1792-.9067-.6797,0-.5.4057-1.0078.9067-1.1333Z" fill="url(#New_Gradient_153)" stroke="#737373" stroke-miterlimit="3.8637" stroke-width=".3161"/>
            <path d="M14.5228905,12.3408c0-1.1123.9014-2.2397,2.0141999-2.5185s2.0146999.3969,2.0146999,1.5083c0,1.1132-.9019,2.2412-2.0146999,2.5195-1.1128.2788-2.0141999-.3965-2.0141999-1.5093Z" fill="none" fill-rule="evenodd" stroke="#4c4c4c" stroke-miterlimit="3.8637" stroke-width=".7032"/>
          </g>
        </g>
      </g>
    </g>
    <path d="M15.5858905,16.0527c.96-.2407,1.7383.3428,1.7383,1.3037,0,.96-.7783,1.9332-1.7383,2.1739-.9608905.2412-1.7392-.3428-1.7392-1.3028,0-.9609.7783094-1.9345,1.7392-2.1748Z" fill="url(#New_Gradient_151)" stroke="#737373" stroke-miterlimit="3.8637" stroke-width=".4215"/>
    <g mask="url(#mask-4)">
      <g>
        <path d="M12.79,11.2637c.2783906-.0699.5034906.0996.5034906.3774s-.2251.5601-.5034906.6294c-.2783094.0693-.5029094-.0986-.5029094-.3774,0-.2779.2246-.5596.5029094-.6294Z" fill="gray"/>
        <path d="M12.5443906,10.9756c.2788-.0693.5039.0991.5039.3779,0,.2778-.2251.5596-.5039.6289-.2778.0694-.5023906-.0986-.5023906-.3774,0-.2779.2245906-.5591.5023906-.6294Z" fill="#4c4c4c"/>
      </g>
    </g>
    <g mask="url(#mask-5)">
      <g>
        <path d="M12.79,23.1582c.2783906-.0698.5034906.0996.5034906.3774,0,.2779-.2251.5586-.5034906.6294-.2783094.0704-.5029094-.0996-.5029094-.3769,0-.2788.2246-.5601.5029094-.6299Z" fill="gray"/>
        <path d="M12.5443906,22.8701c.2788-.0703.5039.0996.5039.3779,0,.2769-.2251.5586-.5039.6285-.2778.0698-.5023906-.0987-.5023906-.3765,0-.2783.2245906-.5601.5023906-.6299Z" fill="#4c4c4c"/>
      </g>
    </g>
    <g mask="url(#mask-6)">
      <g>
        <path d="M20.6640904,9.1851c.2778-.0699.5029096.0996.5029096.3779,0,.2768-.2251096.5596-.5029096.6284-.2784.0703-.503-.0996-.503-.3774,0-.2774.2246-.5591.503-.6289Z" fill="gray"/>
        <path d="M20.4188904,8.897c.2779-.0699.5035.0991.5035.3774,0,.2778-.2256.5601-.5035.6294-.2783.0698-.5038904-.0991-.5038904-.3774,0-.2779.2255904-.5601.5038904-.6294Z" fill="#4c4c4c"/>
      </g>
    </g>
    <g mask="url(#mask-7)">
      <g>
        <path d="M20.7050904,21.0044c.2783-.0693.5029096.1001.5029096.3774,0,.2784-.2246096.5601-.5029096.6299-.2779.0694-.5034-.0996-.5034-.3779,0-.2778.2255-.5601.5034-.6294Z" fill="gray"/>
        <path d="M20.46,20.7168c.2772904-.0698.5033904.0986.5033904.3774,0,.2784-.2261.5596-.5033904.6289-.2784096.0694-.5035096-.0991-.5035096-.3764,0-.2783.2251-.5606.5035096-.6299Z" fill="#4c4c4c"/>
      </g>
    </g>
    <path d="M21.1327904,8.1226c.7451-.191,1.4502096.2817,1.4502096,1.1054v12.5816c0,.7314-.5737097,1.4399-1.2793096,1.6206l-8.4042998,2.1567c-.7461.1924-1.4516-.2817-1.4516-1.1055v-12.582c0-.7305.5747-1.438,1.2797-1.6201l8.4052998-2.1567ZM21.3036904,8.5483l-8.4042998,2.1573c-.5653906.145-1.0205.7309-1.0205,1.2695v12.5825c0,.4458.3237.7383.8486.6026l8.4052998-2.1553c.565-.146,1.02-.7315,1.02-1.2705v-12.5821c0-.4472-.3237-.7382-.8491-.604Z" fill="url(#New_Gradient_150)"/>
    <path d="M11.1083906,24.0156v-12.0576c0-.9756.647-1.7676,1.3467-1.9951.6543-.2114,8.6996998-2.1821,8.6996998-2.1821.1802096-.0445.2934.2456.1142096.2905,0,0-8.0297094,1.9658-8.6821094,2.1777-.6058906.1953-1.1855.9024-1.1855,1.7608v12.0571c0,.1958-.293.1445-.293-.0513Z" fill="url(#New_Gradient_149)"/>
    <polygon points="7.4428907 17.2036 11.1200906 20.9404 11.124 24.0181 7.4467907 20.4731 7.4428907 17.2036" fill="url(#New_Gradient_148)"/>
    <polygon points="17.1303905 3.9834 21.0253904 7.7822 19.3114904 8.1865 15.5028905 4.4004 17.1303905 3.9834" fill="url(#New_Gradient_147)"/>
  </g>
  <g>
    <path d="M8.0258907,20.5527c0-2.2607.8471093-4.5122,2.2089999-6.3125-2.1186999,1.8311-3.4936999,4.2686-3.4936999,6.6328,0,2.3633,1.3755,4.1158,3.4936999,4.8907-1.3618906-1.1211-2.2089999-2.9512-2.2089999-5.211Z" fill="#555b91" fill-rule="evenodd" opacity=".6"/>
    <path d="M25.4667903,10.9727c1.3613,1.1206,2.2089999,2.9502,2.2089999,5.2099,0,2.2603-.8477,4.5127-2.2089999,6.3125,2.1182097-1.8301,3.4940999-4.2685,3.4940999-6.6318,0-2.3643-1.3758902-4.1162-3.4940999-4.8906Z" fill="#555b91" fill-rule="evenodd" opacity=".6"/>
    <path d="M5.2841908,21.0884c0-2.2598.8476-4.5127,2.2089999-6.312-2.1186999,1.8305-3.4931907,4.269-3.4931907,6.6328,0,2.3633,1.3744908,4.1157,3.4931907,4.8906-1.3614-1.1216-2.2089999-2.9512-2.2089999-5.2114Z" fill="#555b91" fill-rule="evenodd" opacity=".6"/>
    <path d="M22.7255903,11.5088c1.3613,1.1206,2.2098999,2.9502,2.2098999,5.21,0,2.2602-.8486,4.5122-2.2098999,6.312,2.1171999-1.8301,3.4921999-4.2681,3.4921999-6.6324,0-2.3632-1.375-4.1157-3.4921999-4.8896Z" fill="#555b91" fill-rule="evenodd" opacity=".6"/>
  </g>
  <g>
    <path d="M30.3202901,2.8936c-.6172-.1563-1.2519.2011-1.8867.4545-.8037.3218-1.2627.0582-1.9707-.0781l.0791098-.251c.1561902-.4951-.5107098-.5864-.667-.0903l-2.4492097,7.7598c-.6445-.7754-1.8657-.9898-2.9403999-.6299-.9013904.3003-1.7963904,1.207-1.4498,2.1831.5137,1.4438,4.3920999,1.9995,4.7192999-.4707.0283-.0425.0527-.0884.0693-.1392l1.4287-4.5283c.3067,1.1895,1.6172.1279,2.3505999-.4482.8067-.6338,1.8164-1.4917,2.7089999-1.1719.0996.0361.5215099.3608.6523.2187.1797-.1899.1172099-.7226.1133-.916-.0234-.6401-.1190901-1.7295-.7578-1.8925" fill="#d68100" fill-rule="evenodd" stroke="#000" stroke-width="1.5"/>
    <path d="M30.3202901,2.8936c-.6172-.1563-1.2519.2011-1.8867.4545-.8037.3218-1.2627.0582-1.9707-.0781l.0791098-.251c.1561902-.4951-.5107098-.5864-.667-.0903l-2.4492097,7.7598c-.6445-.7754-1.8657-.9898-2.9403999-.6299-.9013904.3003-1.7963904,1.207-1.4498,2.1831.5137,1.4438,4.3920999,1.9995,4.7192999-.4707.0283-.0425.0527-.0884.0693-.1392l1.4287-4.5283c.3067,1.1895,1.6172.1279,2.3505999-.4482.8067-.6338,1.8164-1.4917,2.7089999-1.1719.0996.0361.5215099.3608.6523.2187.1797-.1899.1172099-.7226.1133-.916-.0234-.6401-.1190901-1.7295-.7578-1.8925" fill="url(#radial-gradient)" fill-rule="evenodd"/>
  </g>
  <g>
    <path d="M31.9940901,20.0015c.0821-.2598-.0527-.4869-.2832-.4927-.0918-.062-.2461-.1074-.4824-.1421l-3.4276999-.4692-.7227-.1016-3.4266999-.4692c-.2383-.0342-.4102-.0293-.5332.0014-.211-.0635-.4815.1123-.5635.377l-2.8070999,8.8945c-.7569-.9116-2.2128999-1.1514-3.4711999-.6865-.9668.3555-1.9043,1.3281-1.5879,2.3882.3369,1.1362,1.6343,1.563,2.7333999,1.5053.9697-.0473,2.5228999-.6259,2.7015999-1.9663.0342-.0473.0591-.1001.0796-.1596l1.8555-5.8858c.0537.0117.1103.0215.1728.0293l3.4257999.4707.7237.0996,3.4256999.4707c.0606.0088.1153.0147.1641.0186l-1.5469,4.9082c-.7557902-.9121-2.2118999-1.1524-3.4706999-.6875-.9658.3569-1.9043,1.3291-1.5869,2.3906.3359,1.1338,1.6328097,1.5606,2.7323999,1.5049.9727-.0488,2.5224999-.6284,2.7001999-1.9668.0352098-.0488.0606-.1025.0821-.1611l3.1131999-9.8706M30.3378901,22.188l-3.4257999-.4712-.7256-.0996-3.4237999-.4702c-.0664-.0083-.1231-.0152-.1776903-.0181l.3651903-1.1538c.0508097.0098.1074.021.1719.0298l3.4266999.4692.7227.1001,3.4276999.4717c.0567.0078.1113.0137.1641.0176l-.3652901,1.1509c-.0488099-.0108-.1015099-.0191-.1601099-.0264" fill="#d68100" fill-rule="evenodd" stroke="#000" stroke-width="1.5"/>
    <path d="M31.9940901,20.0015c.0821-.2598-.0527-.4869-.2832-.4927-.0918-.062-.2461-.1074-.4824-.1421l-3.4276999-.4692-.7227-.1016-3.4266999-.4692c-.2383-.0342-.4102-.0293-.5332.0014-.211-.0635-.4815.1123-.5635.377l-2.8070999,8.8945c-.7569-.9116-2.2128999-1.1514-3.4711999-.6865-.9668.3555-1.9043,1.3281-1.5879,2.3882.3369,1.1362,1.6343,1.563,2.7333999,1.5053.9697-.0473,2.5228999-.6259,2.7015999-1.9663.0342-.0473.0591-.1001.0796-.1596l1.8555-5.8858c.0537.0117.1103.0215.1728.0293l3.4257999.4707.7237.0996,3.4256999.4707c.0606.0088.1153.0147.1641.0186l-1.5469,4.9082c-.7557902-.9121-2.2118999-1.1524-3.4706999-.6875-.9658.3569-1.9043,1.3291-1.5869,2.3906.3359,1.1338,1.6328097,1.5606,2.7323999,1.5049.9727-.0488,2.5224999-.6284,2.7001999-1.9668.0352098-.0488.0606-.1025.0821-.1611l3.1131999-9.8706M30.3378901,22.188l-3.4257999-.4712-.7256-.0996-3.4237999-.4702c-.0664-.0083-.1231-.0152-.1776903-.0181l.3651903-1.1538c.0508097.0098.1074.021.1719.0298l3.4266999.4692.7227.1001,3.4276999.4717c.0567.0078.1113.0137.1641.0176l-.3652901,1.1509c-.0488099-.0108-.1015099-.0191-.1601099-.0264" fill="url(#radial-gradient-2)" fill-rule="evenodd"/>
  </g>
</svg>