<?xml version="1.0" encoding="UTF-8"?>
<svg id="Layer_1" data-name="Layer 1" xmlns="http://www.w3.org/2000/svg" width="36" height="36" xmlns:xlink="http://www.w3.org/1999/xlink" viewBox="0 0 36 36">
  <defs>
    <linearGradient id="New_Gradient_379" data-name="New Gradient 379" x1="19.6442942" y1="27.7972594" x2="13.9576378" y2="6.5743689" gradientUnits="userSpaceOnUse">
      <stop offset="0" stop-color="#b2b2b2"/>
      <stop offset="1" stop-color="#fff"/>
    </linearGradient>
    <mask id="mask" x="4.986808" y="13.8281782" width="30.0609217" height="18.3158961" maskUnits="userSpaceOnUse">
      <path d="M8.2738907,24.0205s1.0635,2.3975,3.8407999,3.6455c0,0,5.7963999,1.0967,13.4653997-1.9863,6.1151998-2.4585,4.8983999-6.7315,4.8983999-6.7315,0,0-1.4238-4.3569-6.2753998-5.0117-4.2601999-.5752-7.7396998,1.2476-10.6219997,2.937-2.1601999,1.2671-4.6704999,3.6001-5.1313999,4.7652-.2826907.7119-.1758,2.3818-.1758,2.3818Z" fill="#fff" fill-rule="evenodd"/>
    </mask>
    <linearGradient id="New_Gradient_369" data-name="New Gradient 369" x1="21.3648742" y1="28.906161" x2="17.0939159" y2="12.9667275" gradientUnits="userSpaceOnUse">
      <stop offset="0" stop-color="#d9d9d9"/>
      <stop offset=".79776" stop-color="#fff"/>
      <stop offset="1" stop-color="#fff"/>
    </linearGradient>
    <linearGradient id="linear-gradient" x1="16.2578671" y1="11.9945148" x2="26.5785077" y2="34.1271999" gradientUnits="userSpaceOnUse">
      <stop offset="0" stop-color="#a4b6d9"/>
      <stop offset="1" stop-color="#343a75"/>
    </linearGradient>
    <linearGradient id="New_Gradient_368" data-name="New Gradient 368" x1="14.1817677" y1="17.6790461" x2="16.4417479" y2="26.1134074" gradientUnits="userSpaceOnUse">
      <stop offset="0" stop-color="#ccc"/>
      <stop offset="1" stop-color="#999"/>
    </linearGradient>
    <mask id="mask-1" x="10.9912684" y="18.4203005" width="5.1786221" height="3.9349131" maskUnits="userSpaceOnUse">
      <path d="M12.2728906,21.7749l2.6718999-1.5142s.544-.5586-.0302-1.0898c-.5723-.5313-1.1094-.7192-2.2456999-.1675-1.1171.543-1.5532,1.5493-1.3968906,2.0679.2123906.7119,1.0008906.7036,1.0008906.7036Z" fill="#fff" fill-rule="evenodd" stroke="#fff" stroke-miterlimit="3.8637" stroke-width=".5"/>
    </mask>
    <radialGradient id="New_Gradient_367" data-name="New Gradient 367" cx="12.1321196" cy="18.5138285" fx="12.1321196" fy="18.5138285" r="3.4265981" gradientUnits="userSpaceOnUse">
      <stop offset="0" stop-color="#a4aad9"/>
      <stop offset="1" stop-color="#8187ba"/>
    </radialGradient>
    <radialGradient id="New_Gradient_366" data-name="New Gradient 366" cx="17.9324061" cy="16.0123001" fx="17.9324061" fy="16.0123001" r="8.9295952" gradientTransform="translate(4.6517969 -.3570029) scale(.9857)" gradientUnits="userSpaceOnUse">
      <stop offset="0" stop-color="#fff"/>
      <stop offset=".280899" stop-color="#fff"/>
      <stop offset=".60112" stop-color="#e5e5e5"/>
      <stop offset="1" stop-color="#ccc"/>
    </radialGradient>
    <linearGradient id="New_Gradient_365" data-name="New Gradient 365" x1="17.968187" y1="25.3766263" x2="14.6675698" y2="19.8834768" gradientUnits="userSpaceOnUse">
      <stop offset="0" stop-color="#ccc"/>
      <stop offset="1" stop-color="#f2f2f2"/>
    </linearGradient>
  </defs>
  <path d="M8.2738907,24.0205s-.1068907-1.6699.1758-2.3818c.4609-1.1651,2.9711999-3.4981,5.1313999-4.7652,2.8822999-1.6894,6.3617998-3.5122,10.6219997-2.937,4.8515999.6548,6.2753998,5.0117,6.2753998,5.0117,0,0,1.2168,4.273-4.8983999,6.7315-7.6689998,3.083-13.4653997,1.9863-13.4653997,1.9863-1.2836-.5766-2.2000999-1.3989-2.8163999-2.1157-.0991.0054-.2265.0083-.3735.0063-1.9741-.04-3.5600999-1.0805-3.9247907-3.2089-1.3159092-7.6822,10.2973905-9.4815,10.0795905-13.4258-.0835-1.4986-1.1773-2.7324-3.1366999-2.9375-.6568-.0689-.5518-1.0537.1025-.9844,2.3857999.2505,3.9071999,1.8281,4.0214999,3.8672.2734,4.9277-11.3026997,6.2456-10.0917997,13.314.249,1.4516,1.3276,2.2592,2.5976999,2.3823-.2046-.3311-.2989-.543-.2989-.543Z" fill="url(#New_Gradient_379)" stroke="#000" stroke-linecap="round" stroke-linejoin="round" stroke-width="2"/>
  <g mask="url(#mask)">
    <g>
      <path d="M8.2738907,24.0205s1.0635,2.3975,3.8407999,3.6455c0,0,5.7963999,1.0967,13.4653997-1.9863,6.1151998-2.4585,4.8983999-6.7315,4.8983999-6.7315,0,0-1.4238-4.3569-6.2753998-5.0117-4.2601999-.5752-7.7396998,1.2476-10.6219997,2.937-2.1601999,1.2671-4.6704999,3.6001-5.1313999,4.7652-.2826907.7119-.1758,2.3818-.1758,2.3818Z" fill="url(#New_Gradient_369)" fill-rule="evenodd"/>
      <path d="M8.2245907,21.1255s-.1392.7583.3745,1.4726c.5137.7149,3.0043999,3.3374,4.2359093,3.7525,1.2303906.4155,10.3563903-.7461,15.7684902-4.1065,5.4101999-3.3613,5.8827999-6.6665,5.8827999-6.6665l-2.5155999,12.8789-21.0482995,3.0787-5.2333906-6.6978,2.5355907-3.7119Z" fill="url(#linear-gradient)" fill-rule="evenodd" stroke="#666" stroke-miterlimit="3.8637" stroke-width="1.1343"/>
      <path d="M17.1962905,17.4502s-.8164-1.6318-3.8427999-1.9404l-5.6014906,4.1381s.5716907.1988.9173907.6495c-.0258,1.4516,1.2505,2.1626,1.4649,2.3676,0,0,.0888-.7334.3584-1.0693.2685-.3369.415-.2798.415-.2798,0,0-.4175-.5674.0488-.9492.5767-.4707,1.9112-1.3389,2.8867999-1.7896,0,0,.4536-.0258.8818.3975l2.4711999-1.5244Z" fill="none" fill-rule="evenodd" stroke="#ccc" stroke-linecap="round" stroke-linejoin="round" stroke-width=".5671"/>
    </g>
  </g>
  <path d="M15.7367905,19.7119c.25.3789.2236.8096-.2417,1.0557-.5990905.3159-2.1405999,1.2925-2.6039999,1.6025-.6084.4072-1.0635.1162-1.3354-.1245-.3233.0488-.4898.9858-.5098,1.2144.3086.3183,1.5181094,1.521,2.3466999,1.7246.9678.2378,4.6694094-.2344,6.5800998-.9287.3706-.1348.478-2.1519-.6382-3.9458-.3321-.5337-.9404904-1.4361-1.4986-1.8394-.3422.1851-1.3252.7227-2.0990999,1.2412ZM11.5111906,24.5796c-.1704-.147-.9785-.8169-.9677-1.041,0,0,.0097-.1724.0395094-.3902.0673906-.4648.4501906-1.5786,1.1156906-1.3784.3638.1089.4336.5127.9175.189.4717-.315,2.0390999-1.3076,2.6479999-1.6289.4668095-.2461-.4493-.5772-.0293-.8721.4887-.3462,2.4393999-1.6099,2.7103999-1.498,0,0,.0547095.0234.1587095.0942.6264904.439,1.2743904,1.3892,1.6498904,1.9946,1.0112,1.6241,1.3901096,4.3067.3877,4.6719-1.9434.7061-5.7562999,1.2163-6.8666998.9443-.5835-.1435-1.2598-.6504-1.7637-1.0854Z" fill="url(#New_Gradient_368)"/>
  <g mask="url(#mask-1)">
    <g>
      <path d="M12.2728906,21.7749l2.6718999-1.5142s.544-.5586-.0302-1.0898c-.5723-.5313-1.1094-.7192-2.2456999-.1675-1.1171.543-1.5532,1.5493-1.3968906,2.0679.2123906.7119,1.0008906.7036,1.0008906.7036Z" fill="url(#New_Gradient_367)" fill-rule="evenodd"/>
      <path d="M13.1298906,19.7793c-1.332.8179-1.7036,2.1514-.9361,2.5425.5918.3022,3.9760999-1.5449,3.9760999-1.5449,0,0-1.0776-2.1343-3.0399999-.9976Z" fill="#555b91" fill-rule="evenodd"/>
      <path d="M12.2728906,21.7749l2.6718999-1.5142s.544-.5586-.0302-1.0898c-.5723-.5313-1.1094-.7192-2.2456999-.1675-1.1171.543-1.5532,1.5493-1.3968906,2.0679.2123906.7119,1.0008906.7036,1.0008906.7036Z" fill="none" fill-rule="evenodd" stroke="#555b91" stroke-miterlimit="3.8637" stroke-width=".5"/>
    </g>
  </g>
  <path d="M9.8988907,25.8442s.6826-.3227.4849-1.0937" fill="none" stroke="#666" stroke-linecap="round" stroke-miterlimit="3.8637" stroke-width="1.1343"/>
  <path d="M9.5473907,25.5288s-.2452.0357-.6226.0278c-1.9741-.04-3.5600999-1.0805-3.9247907-3.2089-1.3159092-7.6822,10.2973905-9.4815,10.0795905-13.4258-.0835-1.4986-1.1773-2.7324-3.1366999-2.9375-.6568-.0689-.5518-1.0537.1025-.9844,2.3857999.2505,3.9071999,1.8281,4.0214999,3.8672.2734,4.9277-11.3026997,6.2456-10.0917997,13.314.3027,1.7641,1.8286,2.5761,3.4384999,2.3676.6543-.0888.7881.8916.1338.98Z" fill="#ccc"/>
  <path d="M21.8568904,24.1958c3.0727999-.7715,8.0668998-3.522,8.2055998-4.0122,0,0,.1738-.3721-.1582-1.3442-.2266-.6705-1.8477-3.4717-4.9433999-4.3208,0,0-.4687.0615-.1308.2983,1.4336.999,3.3104999,2.5537,2.7831999,4.6279-.4805,1.8906-5.1425999,4.0816-5.6947999,4.3277-.5547.2441-.0616.4233-.0616.4233Z" fill="url(#New_Gradient_366)" fill-rule="evenodd"/>
  <path d="M13.8588906,24.6953c2.4862999.0537,5.1566999-.4932,5.5151094-.7422.357-.2485.3788904-.6748.3788904-.6748,0,0-.1733-1.81-1.1333-3.1592,0,0-.4531-.1064-.3164.2124.1363.3189.2432,1.857-.166,2.4429-.7026,1.0015-4.2587999,1.5405-4.2587999,1.5405,0,0-.4712.2808-.0195.3804Z" fill="url(#New_Gradient_365)" fill-rule="evenodd"/>
</svg>