<?xml version='1.0' encoding='UTF-8'?>
<svg xmlns="http://www.w3.org/2000/svg" xmlns:xlink="http://www.w3.org/1999/xlink" id="Layer_1" data-name="Layer 1" width="36" height="36" viewBox="0 0 36 36">
  <defs>
    <mask id="mask" x="4.963775" y="6" width="26.9434169" height="22.8142257" maskUnits="userSpaceOnUse">
      <path d="M6.1044926,17.9883l2.0175999-5.627s-.0533-.4038.8813-.4941c.8745-.082,3.0014999-.6162,5.8736075-1.2222,2.8338923-.5971,4.6844922-1.2295,5.604-1.2832.9193922-.0547,1.3143922.6099,1.3143922.6099,0,0,1.2256078,1.2314,2.9086999,2.8613,2.4115999,2.3355,3.7763999,2.8711,3.9955999,3.8208.1514.6519,1.8018,6.6939,1.8018,6.6939,0,0,.2163.6328-.4864.8877-3.1488999.7768-13.5716997,3.3759-14.1229996,3.5078-.6489.1572-1.19.1157-1.9634-.7779-.4609-.5327-5.8261999-5.602-7.6049998-7.7353-.6518-.669-.2192-1.2417-.2192-1.2417Z" fill="#fff" fill-rule="evenodd" stroke="#fff" stroke-miterlimit="3.8637" stroke-width="2"/>
    </mask>
    <linearGradient id="New_Gradient_336" data-name="New Gradient 336" x1="14.8522645" y1="9.5070851" x2="20.4871447" y2="27.9379479" gradientUnits="userSpaceOnUse">
      <stop offset="0" stop-color="#e5e5e5"/>
      <stop offset="1" stop-color="#b2b2b2"/>
    </linearGradient>
    <linearGradient id="New_Gradient_340" data-name="New Gradient 340" x1="22.9191576" y1="14.9448745" x2="23.4073526" y2="28.9249501" gradientUnits="userSpaceOnUse">
      <stop offset="0" stop-color="#ccc"/>
      <stop offset="1" stop-color="#999"/>
    </linearGradient>
    <linearGradient id="New_Gradient_339" data-name="New Gradient 339" x1="16.8644397" y1="5.8795398" x2="18.6083138" y2="20.082255" gradientUnits="userSpaceOnUse">
      <stop offset="0" stop-color="#b2b2b2"/>
      <stop offset="1" stop-color="#fff"/>
    </linearGradient>
    <mask id="mask-1" x="5.963775" y="6" width="25.9434169" height="22.6797" maskUnits="userSpaceOnUse">
      <path d="M6.1044926,17.9883l2.0175999-5.627s-.0533-.4038.8813-.4941c.8745-.082,2.9369999-.5342,5.8736075-1.2222,2.8202923-.6606,4.6844922-1.2295,5.604-1.2832.9193922-.0547,1.3143922.6099,1.3143922.6099,0,0,.8535,1.6025,3.5483999,4.437,2.6112999,2.7485,2.9492079,1.0537,3.3558999,2.2451.2178.6333,1.8018,6.6939,1.8018,6.6939,0,0,.2163.6328-.4864.8877-3.1488999.7768-13.5716997,3.3759-14.1229996,3.5078-.6489.1572-1.19.1157-1.9634-.7779-.4609-.5327-5.8261999-5.602-7.6049998-7.7353-.6518-.669-.2192-1.2417-.2192-1.2417Z" fill="#fff" fill-rule="evenodd"/>
    </mask>
    <linearGradient id="New_Gradient_336-2" data-name="New Gradient 336" x1="14.8468534" y1="9.4917799" x2="20.4817336" y2="27.9226426" gradientUnits="userSpaceOnUse"><stop offset="0" stop-color="#e5e5e5"/><stop offset="1" stop-color="#b2b2b2"/></linearGradient>
    <linearGradient id="New_Gradient_338" data-name="New Gradient 338" x1="22.9191576" y1="14.9448745" x2="23.4073526" y2="28.9249501" gradientUnits="userSpaceOnUse">
      <stop offset="0" stop-color="#ccc"/>
      <stop offset="1" stop-color="gray"/>
    </linearGradient>
    <linearGradient id="New_Gradient_337" data-name="New Gradient 337" x1="16.8644397" y1="5.8795398" x2="18.6083138" y2="20.082255" gradientUnits="userSpaceOnUse">
      <stop offset="0" stop-color="#b2b2b2"/>
      <stop offset=".859558" stop-color="#fff"/>
      <stop offset="1" stop-color="#fff"/>
    </linearGradient>
    <linearGradient id="New_Gradient_325" data-name="New Gradient 325" x1="18.634729" y1="9.1378025" x2="18.3693186" y2="16.7381625" gradientUnits="userSpaceOnUse">
      <stop offset="0" stop-color="#e5e5e5"/>
      <stop offset=".741577" stop-color="#fff"/>
      <stop offset="1" stop-color="#fff"/>
    </linearGradient>
    <linearGradient id="New_Gradient_324" data-name="New Gradient 324" x1="10.6270969" y1="19.9612316" x2="6.7162154" y2="14.1631115" gradientUnits="userSpaceOnUse">
      <stop offset="0" stop-color="#d9d9d9"/>
      <stop offset=".146072" stop-color="#d9d9d9"/>
      <stop offset=".528091" stop-color="#e5e5e5"/>
      <stop offset="1" stop-color="#fff"/>
    </linearGradient>
    <linearGradient id="New_Gradient_323" data-name="New Gradient 323" x1="12.7644977" y1="22.4468713" x2="15.7080299" y2="22.085451" gradientUnits="userSpaceOnUse">
      <stop offset="0" stop-color="#ccc"/>
      <stop offset=".561798" stop-color="#ccc"/>
      <stop offset="1" stop-color="#e5e5e5"/>
    </linearGradient>
    <linearGradient id="New_Gradient_322" data-name="New Gradient 322" x1="15.9637565" y1="23.4247424" x2="29.8998164" y2="20.967439" gradientUnits="userSpaceOnUse">
      <stop offset="0" stop-color="#999"/>
      <stop offset=".5" stop-color="#999"/>
      <stop offset=".870789" stop-color="#b2b2b2"/>
      <stop offset="1" stop-color="#d9d9d9"/>
    </linearGradient>
  </defs>
  <g mask="url(#mask)">
    <g>
      <path d="M6.1044926,17.9883l2.0175999-5.627s-.0533-.4038.8813-.4941c.8745-.082,3.0014999-.6162,5.8736075-1.2222,2.8338923-.5971,4.6844922-1.2295,5.604-1.2832.9193922-.0547,1.3143922.6099,1.3143922.6099,0,0,1.2256078,1.2314,2.9086999,2.8613,2.4115999,2.3355,3.7763999,2.8711,3.9955999,3.8208.1514.6519,1.8018,6.6939,1.8018,6.6939,0,0,.2163.6328-.4864.8877-3.1488999.7768-13.5716997,3.3759-14.1229996,3.5078-.6489.1572-1.19.1157-1.9634-.7779-.4609-.5327-5.8261999-5.602-7.6049998-7.7353-.6518-.669-.2192-1.2417-.2192-1.2417Z" fill="url(#New_Gradient_336)" fill-rule="evenodd"/>
      <polygon points="16 18.9902 14.7562924 28.6797 31.9071919 24.8398 29.024892 15.1802 16 18.9902" fill="url(#New_Gradient_340)" fill-rule="evenodd"/>
      <path d="M7.0116925,8.9023s-.541.4624.0537,1.1617c.5435.6396,8.0160998,8.9272,8.4482998,9.435.4336.5088.936.5435,1.4223077.4126.4868923-.1299,10.672392-2.6611,11.223192-2.813,1.0815-.2954.1079-1.8354.1079-1.8354l-8.3935998-9.2632-12.8617997,2.9023Z" fill="url(#New_Gradient_339)" fill-rule="evenodd"/>
      <path d="M6.1044926,17.9883l2.0175999-5.627s-.0533-.4038.8813-.4941c.8745-.082,3.0014999-.6162,5.8736075-1.2222,2.8338923-.5971,4.6844922-1.2295,5.604-1.2832.9193922-.0547,1.3143922.6099,1.3143922.6099,0,0,1.2256078,1.2314,2.9086999,2.8613,2.4115999,2.3355,3.7763999,2.8711,3.9955999,3.8208.1514.6519,1.8018,6.6939,1.8018,6.6939,0,0,.2163.6328-.4864.8877-3.1488999.7768-13.5716997,3.3759-14.1229996,3.5078-.6489.1572-1.19.1157-1.9634-.7779-.4609-.5327-5.8261999-5.602-7.6049998-7.7353-.6518-.669-.2192-1.2417-.2192-1.2417Z" fill="none" fill-rule="evenodd" stroke="#000" stroke-miterlimit="3.8637" stroke-width="2"/>
    </g>
  </g>
  <g mask="url(#mask-1)">
    <g>
      <path d="M6.1044926,17.9883l2.0175999-5.627s-.0533-.4038.8813-.4941c.8745-.082,2.9369999-.5342,5.8736075-1.2222,2.8202923-.6606,4.6844922-1.2295,5.604-1.2832.9193922-.0547,1.3143922.6099,1.3143922.6099,0,0,.8535,1.6025,3.5483999,4.437,2.6112999,2.7485,2.9492079,1.0537,3.3558999,2.2451.2178.6333,1.8018,6.6939,1.8018,6.6939,0,0,.2163.6328-.4864.8877-3.1488999.7768-13.5716997,3.3759-14.1229996,3.5078-.6489.1572-1.19.1157-1.9634-.7779-.4609-.5327-5.8261999-5.602-7.6049998-7.7353-.6518-.669-.2192-1.2417-.2192-1.2417Z" fill="url(#New_Gradient_336-2)" fill-rule="evenodd"/>
      <polygon points="16 18.9902 14.7562924 28.6797 31.9071919 24.8398 29.024892 15.1802 16 18.9902" fill="url(#New_Gradient_338)" fill-rule="evenodd"/>
      <path d="M7.0116925,8.9023s-.541.4624.0537,1.1617c.5435.6396,8.0160998,8.9272,8.4482998,9.435.4336.5088.936.5435,1.4223077.4126.4868923-.1299,10.672392-2.6611,11.223192-2.813,1.0815-.2954.1079-1.8354.1079-1.8354l-8.3935998-9.2632-12.8617997,2.9023Z" fill="url(#New_Gradient_337)" fill-rule="evenodd"/>
    </g>
  </g>
  <line x1="16.0541923" y1="19.9189" x2="14.9188923" y2="27.3013" fill="none" stroke="gray" stroke-linecap="round" stroke-linejoin="round" stroke-width="1.5"/>
  <path d="M8.7743925,11.9517s3.0156075-.6241,5.8716075-1.2662c2.8812923-.6474,4.8036922-1.1909,5.2523922-1.2744,1.8164-.3359,1.4751.1455,3.0781999,1.6026,1.7363,1.5781,2.2728999,2.5278,5.3749999,4.9443.4809.3745-.602592.8731-1.0259.4341,0,0-1.4849-1.5103-3.3622999-3.1655-1.3452-1.1866-1.5243921-1.5811-2.7919999-2.9585-.2437-.2647-.8765-.1924-1.1231-.147-.4497.083-2.3041999.6074-5.1419999,1.2451-2.8847999.647-5.9785998,1.332-5.9785998,1.332-.5351.0674-.688-.6796-.1533-.7465Z" fill="url(#New_Gradient_325)"/>
  <path d="M8.7968925,12.2764s5.5624999,5.3676,6.1014998,5.9487c.4375.4707.669.5708,1.208.4585.7032-.1465,10.2040997-1.4717,9.0468998-4.3809.3838-.1025,3.1923999,1.2178,3.4355999,2.0113.0796.2607.3935.749-.1514.8383,0,0-10.7016997,2.8594-11.4047997,3.0059-.8666923.1797-1.4243-.0757-2.0697999-.769-.5415-.5835-6.6757998-6.5577-6.6757998-6.5577-.395-.4643.1148-1.0195.5098-.5551Z" fill="#fff"/>
  <path d="M12.5810924,12.6865l.8847-.2109c.6079-.1211.8716.0596,1.0205.3017.149.2413.1455.4859-.4355.649l-.8862.2109-.5835-.9507ZM14.1503924,13.8208c.2236076-.0381.4292-.1025.6709.0005.2715.1113.4258.3613.6377076.6265.1390923.1767.3256923.3603.4867923.5317l.5737-.1367c-.3174-.2559-.561-.5718-.8076-.8633-.2705-.3306-.4546-.5098-.9765-.4878l-.0053924-.0083c.3988923-.1924.5023923-.5439.2753923-.9131-.3736-.6064-1.1431-.6079-1.7915-.4541l-1.3833.3306,1.8842,3.0649.5367-.1279-.8521-1.3838.751-.1792Z" fill="#666" fill-rule="evenodd"/>
  <path d="M12.3607924,16.8647l-4.2777924-4.2465s-1.9707074,5.5913-2.083,5.7597c-.1128074.1685.1122926.5567.1122926.5567l1.6226,1.8852s-.814-1.5757.1972-2.9682c1.291-1.7798,4.4286999-.9869,4.4286999-.9869Z" fill="url(#New_Gradient_324)" fill-rule="evenodd"/>
  <path d="M14.4081924,27.3755l1.1694-7.4463s-.1865-.1484-.4515923-.4194c-.4912076-.501-2.2139076-2.2115-2.2139076-2.2115,0,0,1.6851,2.919,1.3838,5.5899-.2466,2.1855-1.147,3.3066-1.147,3.3066l1.2593,1.1807Z" fill="url(#New_Gradient_323)" fill-rule="evenodd"/>
  <line x1="14.4843924" y1="27.125" x2="15.4638923" y2="20.0962" fill="none" stroke="#b2b2b2" stroke-linecap="round" stroke-miterlimit="3.8637" stroke-width=".75"/>
  <path d="M15.5775923,27.8076c.3785-.084,14.3168996-3.5351,14.3168996-3.5351,0,0,.7168-.251.603508-.7613-.113208-.5092-1.706508-6.6631-1.706508-6.6631,0,0-.1504.2754-.5654.3907,0,0,.6792,2.5805.226,4.6963-.452092,2.1167-5.7196999,3.581-6.5501998,3.8125-.8296.229-6.3242998,1.6455-6.3242998,1.6455,0,0-.3393.3554,0,.4145Z" fill="url(#New_Gradient_322)" fill-rule="evenodd"/>
  <path d="M16.2558923,20.3208s.1601077.0195.5376-.0273c.3764-.0459,11.6966997-3.0835,11.6966997-3.0835" fill="none" stroke="#999" stroke-linecap="round" stroke-miterlimit="3.8637" stroke-width=".5"/>
</svg>