<?xml version='1.0' encoding='UTF-8'?>
<svg xmlns="http://www.w3.org/2000/svg" xmlns:xlink="http://www.w3.org/1999/xlink" id="Layer_1" data-name="Layer 1" width="36" height="36" viewBox="0 0 36 36">
  <defs>
    <linearGradient id="New_Gradient_137" data-name="New Gradient 137" x1="9.2053889" y1="16.9229043" x2="26.9106663" y2="16.9229043" gradientUnits="userSpaceOnUse">
      <stop offset="0" stop-color="#ecb300"/>
      <stop offset=".168533" stop-color="#ffe900"/>
      <stop offset=".280899" stop-color="#ffffb3"/>
      <stop offset=".387634" stop-color="#ffe900"/>
      <stop offset="1" stop-color="#d68100"/>
    </linearGradient>
    <linearGradient id="New_Gradient_137-2" data-name="New Gradient 137" x1="9.2230941" y1="22.3386409" x2="26.9283716" y2="22.3386409" gradientUnits="userSpaceOnUse"><stop offset="0" stop-color="#ecb300"/><stop offset=".168533" stop-color="#ffe900"/><stop offset=".280899" stop-color="#ffffb3"/><stop offset=".387634" stop-color="#ffe900"/><stop offset="1" stop-color="#d68100"/></linearGradient>
    <radialGradient id="New_Gradient_136" data-name="New Gradient 136" cx="105.03355" cy="46.6421617" fx="105.03355" fy="46.6421617" r="7.554262" gradientTransform="translate(-134.5643 -55.5087) scale(1.4344)" gradientUnits="userSpaceOnUse">
      <stop offset="0" stop-color="#fff"/>
      <stop offset="1" stop-color="#fff95e"/>
    </radialGradient>
    <linearGradient id="New_Gradient_135" data-name="New Gradient 135" x1="10.4193842" y1="22.5985596" x2="15.0581165" y2="25.2767329" gradientUnits="userSpaceOnUse">
      <stop offset="0" stop-color="#ecd600"/>
      <stop offset=".314606" stop-color="#ffffb3"/>
      <stop offset="1" stop-color="#fff"/>
    </linearGradient>
    <radialGradient id="New_Gradient_134" data-name="New Gradient 134" cx="107.7825255" cy="53.3319208" fx="107.7825255" fy="53.3319208" r="4.8955334" gradientTransform="translate(-134.5643 -55.5087) scale(1.4344)" gradientUnits="userSpaceOnUse">
      <stop offset="0" stop-color="#ecb300"/>
      <stop offset=".325836" stop-color="#ecb300"/>
      <stop offset=".853928" stop-color="#c96b00"/>
      <stop offset="1" stop-color="#9a5500"/>
    </radialGradient>
    <linearGradient id="New_Gradient_133" data-name="New Gradient 133" x1="22.057124" y1="19.5130739" x2="21.4455203" y2="26.5037356" gradientUnits="userSpaceOnUse">
      <stop offset="0" stop-color="#ecb300"/>
      <stop offset=".561798" stop-color="#fff95e"/>
      <stop offset="1" stop-color="#ecd600"/>
    </linearGradient>
    <mask id="mask" x="18.2981155" y="19.1689" width="5.1793812" height="7.2598" maskUnits="userSpaceOnUse">
      <path d="M21.2880967,23.3022l.0068,1.8072c.0034,1.0527-1.6548,1.31-1.6587.2578l-.0058-1.6875c-.7227-.0928-1.2543968-.5625-1.3247-1.2681-.0996-1.0122.7939-2.1269,1.9896999-2.4927,1.1987-.3652,2.2489999.1578,2.3456999,1.1695.0801.8208-.4922,1.7124-1.353,2.2138Z" fill="#fff"/>
    </mask>
    <linearGradient id="New_Gradient_132" data-name="New Gradient 132" x1="19.1450912" y1="21.6020019" x2="24.1207335" y2="24.1372182" gradientUnits="userSpaceOnUse">
      <stop offset="0" stop-color="#000"/>
      <stop offset=".241577" stop-color="#000"/>
      <stop offset="1" stop-color="#9a5500"/>
    </linearGradient>
    <linearGradient id="New_Gradient_131" data-name="New Gradient 131" x1="12.1269939" y1="5.186317" x2="23.2519045" y2="17.5417819" gradientUnits="userSpaceOnUse">
      <stop offset="0" stop-color="gray"/>
      <stop offset="1" stop-color="#4c4c4c"/>
    </linearGradient>
    <linearGradient id="New_Gradient_130" data-name="New Gradient 130" x1="24.0989291" y1="12.9277857" x2="10.8871025" y2="9.1393554" gradientUnits="userSpaceOnUse">
      <stop offset="0" stop-color="#666"/>
      <stop offset=".219101" stop-color="#737373"/>
      <stop offset="1" stop-color="#fff"/>
    </linearGradient>
    <linearGradient id="New_Gradient_129" data-name="New Gradient 129" x1="20.7087653" y1="8.0817303" x2="22.1142901" y2="14.6942047" gradientUnits="userSpaceOnUse">
      <stop offset="0" stop-color="#666"/>
      <stop offset=".51123" stop-color="#e5e5e5"/>
      <stop offset=".79776" stop-color="#fff"/>
      <stop offset="1" stop-color="gray"/>
    </linearGradient>
    <linearGradient id="New_Gradient_128" data-name="New Gradient 128" x1="18.4380425" y1="10.6728102" x2="15.2405191" y2="12.829567" gradientUnits="userSpaceOnUse">
      <stop offset="0" stop-color="#666"/>
      <stop offset=".657303" stop-color="#191919"/>
      <stop offset="1" stop-color="#191919"/>
    </linearGradient>
    <linearGradient id="New_Gradient_127" data-name="New Gradient 127" x1="23.1326087" y1="5.2070868" x2="23.1326087" y2="14.7177159" gradientUnits="userSpaceOnUse">
      <stop offset="0" stop-color="#737373"/>
      <stop offset=".629211" stop-color="#191919"/>
      <stop offset="1" stop-color="#191919"/>
    </linearGradient>
    <linearGradient id="New_Gradient_126" data-name="New Gradient 126" x1="15.8144723" y1="4.9977077" x2="15.8144723" y2="17.2421466" gradientUnits="userSpaceOnUse">
      <stop offset="0" stop-color="#999"/>
      <stop offset=".303375" stop-color="#b2b2b2"/>
      <stop offset="1" stop-color="#b2b2b2"/>
    </linearGradient>
  </defs>
  <path d="M15.8920969,12.1714c1.4346-.418,2.8891999-.8189,3.6444999-1,.2207-.0542.5718-.1333,1.002-.2007-.003-1.0264-.0098-1.8857-.0098-1.8857-.0517-.3374-.1537968-.6128-.4736-.7193-1.3101-.4297-3.4135999.9947-3.8149999,2.4258-.1255.4468-.2778.9126-.3481,1.3799ZM9.277297,16.3691c-.3276-1.2963.8912-2.1582,2.2211999-2.7475l-.0053-1.0386c-.0244-3.5991,2.2948999-6.7798,5.6659999-8.1416,4.0106999-1.6216,7.5702998.4365,7.7318998,4.4844v2.6094c.4199034.248.8062.5752,1.1333,1.0029.711.936.978,1.6846.8853,2.3091v9.706c.0249.1763.0249.3438,0,.5039-.1446.9732-1.1729,1.6407-2.7519999,2.2325-2.8534999,1.0722-4.4413999,1.5058-7.1210998,2.2563-2.6239999.7378-5.1317999.7085-7.2167998-1.9312-.5561-.7202-.6865-1.3344-.5425-1.8598v-9.3858Z" fill="url(#New_Gradient_137)" stroke="#000" stroke-miterlimit="3.8637" stroke-width="1.9973"/>
  <path d="M9.819797,27.6147c-.5561-.7202-.6865-1.3344-.5425-1.8598v-9.7027l17.6323996-1.3349v9.8359c.0249.1763.0249.3438,0,.5039-.1446.9732-1.1729,1.6407-2.7519999,2.2325-2.8534999,1.0722-4.4413999,1.5058-7.1210998,2.2563-2.6239999.7378-5.1317999.7085-7.2167998-1.9312Z" fill="url(#New_Gradient_137-2)"/>
  <path d="M9.819797,17.4067c2.0849999,2.6382,4.5927999,2.67,7.2167998,1.9336,2.6796999-.7544,4.2675999-1.187,7.1210998-2.2578,2.5893999-.9717,3.6933999-2.147,1.8667-4.5444-1.8271-2.3975-5.4828999-1.6094-6.4877998-1.3667-1.2788.3061-4.5653999,1.2427-6.3597998,1.8296-1.9454.6347-5.3300999,1.854-3.3569999,4.4057Z" fill="url(#New_Gradient_136)" fill-rule="evenodd"/>
  <path d="M14.6288969,20.0933v9.1792c0,.5752-.9038.4707-.9038-.1065,0,0-.5723-7.0664-3.1190969-10.6435,1.258297,1.5136,4.0228969,1.5708,4.0228969,1.5708Z" fill="url(#New_Gradient_135)"/>
  <path d="M10.644,17.2085c-.740703-.8062-.376903-1.356-.376903-1.356,0,0,.1528-.9101,3.4359999-1.9995,3.3169031-1.0991,6.7533998-1.9277,8.5732998-2.4726" fill="none" stroke="#ecd600" stroke-linecap="round" stroke-miterlimit="3.8637" stroke-width=".6589"/>
  <line x1="9.565897" y1="18.1079" x2="9.565897" y2="26.3833" fill="none" stroke="#fff95e" stroke-linecap="round" stroke-linejoin="round" stroke-width=".6589"/>
  <path d="M9.540497,17.0298s1.4517,2.5122,4.5102999,2.7407c2.5228999.1851,9.3422998-2.3428,10.4745997-2.8257,1.1309-.4834,2.1254999-1.1513,2.1254999-1.1513" fill="none" stroke="#d68100" stroke-linecap="round" stroke-linejoin="round" stroke-width=".4942"/>
  <path d="M26.2465966,16.3447s.0439,1.6616.0439,4.3433c0,2.6826-.1338,4.437-.2236,4.5972-.0888966.1616-.5947,1.1167-6.0341998,2.7343,0,0,3.7856999-2.1587,4.2943999-5.0078.6626-3.707-2.4559999-4.7114-2.4559999-4.7114,0,0,1.647-.6148,2.4511999-.9243.8515-.3281,1.9243-1.0313,1.9243-1.0313Z" fill="url(#New_Gradient_134)" fill-rule="evenodd"/>
  <path d="M10.141097,27.0088s.0733.1123.2163.2856c2.2128999,2.7066,4.4794999,2.1353,7.1069998,1.4986,1.4697-.3565,8.2918998-2.313,8.5136032-3.604.209-1.2251.1332966-8.6895.1332966-8.6895.4488-.1592.7505-.5513.7505-.5513,0,0,.0269,2.0957.0269,4.0567,0,1.9482-.0264,4.6684-.1382,5.3276-.2466,1.44-4.3686999,2.5757-5.6806999,3.0152-1.9828999.6611-5.4589999,1.9238-7.6468998,1.5395-1.417-.249-2.9853999-1.3848-3.7822999-2.6162-.226-.3457.2759-.606.5005-.2622Z" fill="#ecb300"/>
  <path d="M21.8617967,19.4243s.085.02.2129.0791c.6782.3057,1.084.9082,1.084,1.6533,0,1.2412-.834,2.021-1.4204,2.3829v2.1015c0,.5933-.7534.875-1.2627.937-.3291.0401-.375-.4306-.0474-.4721,0,0,.0567-.0054.1392-.0254.2099-.0454.6728-.1748.6728-.4234v-2.3764c.8252-.4561,1.4204-1.1314,1.4204-2.106,0-.5791-.3681-1.1299-.9492-1.2935-.3173967-.0859-.166-.5419.1504-.457Z" fill="url(#New_Gradient_133)"/>
  <g mask="url(#mask)">
    <g>
      <path d="M21.2880967,23.3022l.0068,1.8072c.0034,1.0527-1.6548,1.31-1.6587.2578l-.0058-1.6875c-.7227-.0928-1.2543968-.5625-1.3247-1.2681-.0996-1.0122.7939-2.1269,1.9896999-2.4927,1.1987-.3652,2.2489999.1578,2.3456999,1.1695.0801.8208-.4922,1.7124-1.353,2.2138Z"/>
      <path d="M19.9208968,19.8354s1.3252-.2456,1.3252.6734c0,.918-.6620967,1.7021-1.3843,2.0771v3.5616l1.4448.2812,2.1708999-4.3389-.9033-2.9209-2.6532999.6665Z" fill="url(#New_Gradient_132)" fill-rule="evenodd"/>
    </g>
  </g>
  <path d="M13.604,15.3965c1.4384969,0,2.605.6645,2.605,1.4829,0,.8188-1.1665031,1.4824-2.605,1.4824-1.439403,0-2.605-.6636-2.605-1.4824,0-.8184,1.165597-1.4829,2.605-1.4829Z" fill="#9a5500"/>
  <path d="M22.7416967,12.8872c1.439,0,2.6049999.6626,2.6049999,1.4829,0,.8174-1.166,1.4805-2.6049999,1.4805s-2.6054999-.6631-2.6054999-1.4805c0-.8203,1.1665-1.4829,2.6054999-1.4829Z" fill="#9a5500"/>
  <path d="M11.493197,16.7656c.0302-.707,0-4.1826,0-4.1826-.0244-3.5991,2.2948999-6.7798,5.6659999-8.1416,4.0106999-1.6216,7.5702998.4365,7.7318998,4.4844l.001,5.3515c-.8276,1.3516-3.6840966,1.5352-4.3632999,0,.0303-.7685,0-5.1923,0-5.1923-.0517-.3374-.1537968-.6128-.4736-.7193-1.3101-.4297-3.4135999.9947-3.8149999,2.4258-.1631.5757-.3696,1.1836-.3841969,1.7847v4.1894c-.6426031,1.4136-3.871103,1.5371-4.362803,0Z" fill="url(#New_Gradient_131)"/>
  <path d="M11.901897,16.4863v-3.2773c0-7.562,7.7308998-10.94,11.1034997-7.6113.542.539.1689.9448-.3843.4165-2.3730967-2.2544-9.2763998-.4996-9.2763998,7.4682v3.2769c0,.7651-1.4428.4907-1.4428-.273Z" fill="url(#New_Gradient_130)"/>
  <path d="M20.793,13.9092v-5.2583c0-.6138,1.1498967-1.5708,1.1498967,0v4.916c.1201033.5557.5923.5986.5923.9409,0,.7651-1.7421967.168-1.7421967-.5986Z" fill="url(#New_Gradient_129)"/>
  <path d="M13.7626969,16.9604c0-.457.5078-.5073.5078-2.3027,0-.459-.0004969-1.8779-.0004969-1.8779,0-3.6485,3.2416968-6.252,5.7626968-5.6553.5581.1309.5059.6475-.0516968.5147-1.6143032-.3848-4.7232031,1.6015-4.7232031,4.853v3.9678c0,.5722-1.4951,1.0766-1.4951.5004Z" fill="url(#New_Gradient_128)"/>
  <path d="M22.9188967,14.4209v-5.7241c0-.9614-.1708967-2.2129-.8558967-2.6392-.481-.3135.1386967-1.0903.6205967-.7778,0,0,.1133.0718.2832.2212.8999.7895,1.4092033,1.9433,1.4092033,3.1518v5.4283c0,.5737-1.4571033.915-1.4571033.3398Z" fill="url(#New_Gradient_127)"/>
  <path d="M12.661097,17.0469v-3.7222c0-3.2158,1.5386-7.1396,6.0356998-8.3184.2793-.0732.3867.3433.1089.4166-4.3154999,1.1123-5.4174999,5.5459-5.4174999,7.8623v3.7177c0,.2896-.7271.3306-.7271.044Z" fill="url(#New_Gradient_126)"/>
</svg>