/* XPM */
static char * close_active_xpm[] = {
"18 16 29 1",
" 	c None",
".	c #B48B62",
"+	c #FFFAF5",
"@	c #FFEBD4",
"#	c #FFEBD5",
"$	c #FFECD6",
"%	c #FFECD7",
"&	c #FFECD8",
"*	c #FFEDD8",
"=	c #FFEDD9",
"-	c #FFEEDB",
";	c #FFEEDC",
">	c #FFEFDC",
",	c #FFEFDE",
"'	c #DDC7B1",
")	c #FFF0DF",
"!	c #A37747",
"~	c #A37748",
"{	c #A37848",
"]	c #FFF0E1",
"^	c #FFF1E1",
"/	c #FFF2E4",
"(	c #A37849",
"_	c #A37849",
":	c #FFF2E5",
"<	c #FFF3E5",
"[	c #FFF3E6",
"}	c #FFF3E7",
"|	c #FFF4E8",
"  ..............  ",
" .++++++++++++++. ",
".+@@#$%&*==-;>,,'.",
".+@#$%&*==-;>,,)'.",
".+#$%&!==-~>,,))'.",
".+$%&!~~-~{{,))]'.",
".+%&*=~~~{{,))]^'.",
".+&*==-~{{,))]^^'.",
".+==-;{{{{{]^^//'.",
".+=-;{{{){(_^//:'.",
".+-;>,{))]_^//:<'.",
".+;>,,))]^^//:<['.",
".+>,,))]^^//:<[}'.",
".+,,))]^^//:<[}|'.",
" .''''''''''''''. ",
"  ..............  "};
