/* XPM */
static char * close_pressed_xpm[] = {
"18 16 8 1",
" 	c None",
".	c #B48B62",
"+	c #E6D1BB",
"@	c #A37747",
"#	c #A37748",
"$	c #A37848",
"%	c #A37849",
"&	c #A37849",
"  ..............  ",
" .++++++++++++++. ",
".++++++++++++++++.",
".++++++++++++++++.",
".+++++@+++#++++++.",
".++++@##+#$$+++++.",
".+++++###$$++++++.",
".++++++#$$+++++++.",
".+++++$$$$$++++++.",
".++++$$$+$%&+++++.",
".+++++$+++&++++++.",
".++++++++++++++++.",
".++++++++++++++++.",
".++++++++++++++++.",
" .++++++++++++++. ",
"  ..............  "};
