/* XPM */
static char * hide_inactive_xpm[] = {
"18 16 9 1",
" 	c None",
".	c #B9AEA7",
"+	c #E7E2DE",
"@	c #E6E1DD",
"#	c #E5E0DC",
"$	c #E4DEDA",
"%	c #A4988F",
"&	c #E2DCD8",
"*	c #E0DAD5",
"  ..............  ",
" .++++++++++++++. ",
".@@@@@@@@@@@@@@@@.",
".@@@@@@@@@@@@@@@@.",
".################.",
".################.",
".################.",
".$$$$$$$$$$$$$$$$.",
".$$$$%%%%%%%$$$$$.",
".$$$$%%%%%%%$$$$$.",
".&&&&%%%%%%%&&&&&.",
".&&&&&&&&&&&&&&&&.",
".&&&&&&&&&&&&&&&&.",
".****************.",
" .**************. ",
"  ..............  "};
