/* XPM */
static char * maximize_toggled_pressed_xpm[] = {
"18 16 14 1",
" 	c None",
".	c #B48B62",
"+	c #E6D1BB",
"@	c #BE9A72",
"#	c #BE9A73",
"$	c #BE9B74",
"%	c #BE9B74",
"&	c #BE9B75",
"*	c #A37747",
"=	c #A37748",
"-	c #A37848",
";	c #BE9C76",
">	c #A37849",
",	c #A37849",
"  ..............  ",
" .++++++++++++++. ",
".++++++++++++++++.",
".++++++@##$%%++++.",
".+++++++++++&++++.",
".++++*====-+&++++.",
".++++====--+&++++.",
".++++===---+&++++.",
".++++=++++-+;++++.",
".++++-++++>++++++.",
".++++---->,++++++.",
".++++++++++++++++.",
".++++++++++++++++.",
".++++++++++++++++.",
" .++++++++++++++. ",
"  ..............  "};
