/* XPM */
static char * title_2_active_xpm[] = {
"4 22 9 1",
" 	c None",
".	c #000000",
"+	c #DDBD9C",
"@	c #864600",
"#	c #E4C5A5",
"$	c #EBCDAE",
"%	c #F2D5B7",
"&	c #F9DDC0",
"*	c #C08546",
"....",
"+++@",
"+++@",
"+++@",
"+++@",
"+++@",
"+++@",
"+++@",
"+++@",
"+++@",
"+++@",
"+++@",
"+++@",
"+++@",
"+++@",
"+++@",
"+++@",
"###@",
"$$$@",
"%%%@",
"&&&@",
"***@"};
