/* XPM */
static char * menu_inactive_xpm[] = {
"18 16 9 1",
" 	c None",
".	c #AFAFAF",
"+	c #E2E2E2",
"@	c #E1E1E1",
"#	c #E0E0E0",
"$	c #AAAAAA",
"%	c #DEDEDE",
"&	c #DCDCDC",
"*	c #DBDBDB",
"  ..............  ",
" .++++++++++++++. ",
".@@@@@@@@@@@@@@@@.",
".@@@@@@@@@@@@@@@@.",
".################.",
".####$#####$#####.",
".###$$$###$$$####.",
".%%%%$$$%$$$%%%%%.",
".%%%%%$$$$$%%%%%%.",
".%%%%%%$$$%%%%%%%.",
".&&&&&&&$&&&&&&&&.",
".&&&&&&&&&&&&&&&&.",
".&&&&&&&&&&&&&&&&.",
".****************.",
" .**************. ",
"  ..............  "};
