/* XPM */
static char * title_5_active_xpm[] = {
"2 22 8 1",
" 	c None",
".	c #000000",
"+	c #ADADAD",
"@	c #B4B4B4",
"#	c #BBBBBB",
"$	c #C2C2C2",
"%	c #C9C9C9",
"&	c #646464",
"..",
"++",
"++",
"++",
"++",
"++",
"++",
"++",
"++",
"++",
"++",
"++",
"++",
"++",
"++",
"++",
"++",
"@@",
"##",
"$$",
"%%",
"&&"};
