/* XPM */
static char * top_right_active_xpm[] = {
"10 22 13 1",
" 	c None",
".	c #000000",
"+	c #ADADAD",
"@	c #989898",
"#	c #313131",
"$	c #8A8A8A",
"%	c #343434",
"&	c #969696",
"*	c #B4B4B4",
"=	c #BBBBBB",
"-	c #C2C2C2",
";	c #C9C9C9",
">	c #646464",
".....     ",
"++++@#.   ",
"++++++$.  ",
"+++++++$. ",
"++++++++% ",
"++++++++&.",
"+++++++++.",
"+++++++++.",
"+++++++++.",
"+++++++++.",
"+++++++++.",
"+++++++++.",
"+++++++++.",
"+++++++++.",
"+++++++++.",
"+++++++++.",
"+++++++++.",
"*********.",
"=========.",
"---------.",
";;;;;;;;;.",
">>>>>>>>>."};
