<?xml version='1.0' encoding='UTF-8'?>
<svg xmlns="http://www.w3.org/2000/svg" xmlns:xlink="http://www.w3.org/1999/xlink" id="Layer_1" data-name="Layer 1" width="24" height="24" viewBox="0 0 24 24">
  <defs>
    <linearGradient id="New_Gradient_386" data-name="New Gradient 386" x1="10.5455439" y1="10.2742337" x2="19.0647215" y2="18.7934113" gradientUnits="userSpaceOnUse">
      <stop offset="0" stop-color="#d9d9d9"/>
      <stop offset="1" stop-color="#fff"/>
    </linearGradient>
    <mask id="mask" x="11.2743888" y="5.4688" width="9.0917998" height="16.5522" maskUnits="userSpaceOnUse">
      <path d="M11.6005888,7.0059v9.5815l5.0507999,5.0898s.6172.212,1.832-.1152c1.2139-.3276,1.3682-.8296,1.3682-.8296v-9.6587l-4.8974999-4.9106-3.3534999.8428Z" fill="#fff" fill-rule="evenodd"/>
    </mask>
    <linearGradient id="New_Gradient_386-2" data-name="New Gradient 386" x1="12.3266615" y1="10.4440728" x2="19.2354731" y2="17.3528844" gradientUnits="userSpaceOnUse"><stop offset="0" stop-color="#d9d9d9"/><stop offset="1" stop-color="#fff"/></linearGradient>
    <mask id="mask-1" x="16.6688887" y="10.7549" width="3.6972999" height="11.2661" maskUnits="userSpaceOnUse">
      <rect x="16.6688887" y="10.7549" width="3.6972999" height="11.2661" fill="#fff"/>
    </mask>
    <linearGradient id="New_Gradient_388" data-name="New Gradient 388" x1="16.6688887" y1="16.38795" x2="20.3661886" y2="16.38795" gradientUnits="userSpaceOnUse">
      <stop offset="0" stop-color="#d9d9d9"/>
      <stop offset=".196625" stop-color="#fff"/>
      <stop offset="1" stop-color="#999"/>
    </linearGradient>
    <linearGradient id="New_Gradient_387" data-name="New Gradient 387" x1="12.3607885" y1="12.1321422" x2="18.8996803" y2="5.5932504" gradientUnits="userSpaceOnUse">
      <stop offset="0" stop-color="#f2f2f2"/>
      <stop offset="1" stop-color="#e5e5e5"/>
    </linearGradient>
    <linearGradient id="New_Gradient_385" data-name="New Gradient 385" x1="18.0287848" y1="12.1902983" x2="19.3189754" y2="13.6232001" gradientUnits="userSpaceOnUse">
      <stop offset="0" stop-color="#666"/>
      <stop offset="1" stop-color="#b2b2b2"/>
    </linearGradient>
    <mask id="mask-2" x="17.8073886" y="12.22776" width="1.6676085" height="1.0850073" maskUnits="userSpaceOnUse">
      <path d="M18.1640886,12.6582c.5214-.0278.8877-.2573.8877-.2573.4628-.1113.4628.5825,0,.6933,0,0-.3584.1905-.8877.2134-.4756.021-.4756-.6245,0-.6494Z" fill="#fff"/>
    </mask>
    <linearGradient id="New_Gradient_383" data-name="New Gradient 383" x1="18.8149003" y1="13.4111225" x2="18.403335" y2="12.2803562" gradientUnits="userSpaceOnUse">
      <stop offset="0" stop-color="#328e36"/>
      <stop offset="1" stop-color="#005e00"/>
    </linearGradient>
    <radialGradient id="New_Gradient_384" data-name="New Gradient 384" cx="-23.2832879" cy="41.1180304" fx="-23.2832879" fy="41.1180304" r="1.5365071" gradientTransform="translate(37.5721 -21.5902) scale(.8321)" gradientUnits="userSpaceOnUse">
      <stop offset="0" stop-color="#00cd00"/>
      <stop offset="1" stop-color="#328e36"/>
    </radialGradient>
    <linearGradient id="New_Gradient_385-2" data-name="New Gradient 385" x1="18.0291122" y1="13.3385108" x2="19.3187031" y2="14.7707466" gradientUnits="userSpaceOnUse"><stop offset="0" stop-color="#666"/><stop offset="1" stop-color="#b2b2b2"/></linearGradient>
    <mask id="mask-3" x="17.8073886" y="13.3750862" width="1.6676085" height="1.0861066" maskUnits="userSpaceOnUse">
      <path d="M18.1640886,13.8062c.5214-.0284.8877-.2569.8877-.2569.4628-.1108.4628.5816,0,.6939,0,0-.3584.1904-.8877.2133-.4756.0201-.4756-.6254,0-.6503Z" fill="#fff"/>
    </mask>
    <linearGradient id="New_Gradient_383-2" data-name="New Gradient 383" x1="18.8153492" y1="14.5606651" x2="18.4031054" y2="13.4280347" gradientUnits="userSpaceOnUse"><stop offset="0" stop-color="#328e36"/><stop offset="1" stop-color="#005e00"/></linearGradient>
    <radialGradient id="New_Gradient_384-2" data-name="New Gradient 384" cy="42.4973452" fy="42.4973452" r="1.536858" cx="-23.2832879" fx="-23.2832879" gradientTransform="translate(37.5721 -21.5902) scale(.8321)" gradientUnits="userSpaceOnUse"><stop offset="0" stop-color="#00cd00"/><stop offset="1" stop-color="#328e36"/></radialGradient>
    <linearGradient id="New_Gradient_385-3" data-name="New Gradient 385" x1="18.0285347" y1="14.4860514" x2="19.31898" y2="15.9192361" gradientUnits="userSpaceOnUse"><stop offset="0" stop-color="#666"/><stop offset="1" stop-color="#b2b2b2"/></linearGradient>
    <mask id="mask-4" x="17.8073886" y="14.524116" width="1.6676085" height="1.0849482" maskUnits="userSpaceOnUse">
      <path d="M18.1640886,14.9541c.5214-.0278.8877-.2568.8877-.2568.4628-.1119.4628.582,0,.6928,0,0-.3584.1905-.8877.2144-.4756.0195-.4756-.6255,0-.6504Z" fill="#fff"/>
    </mask>
    <linearGradient id="New_Gradient_383-3" data-name="New Gradient 383" x1="18.8150437" y1="15.7074611" x2="18.4033582" y2="14.5763644" gradientUnits="userSpaceOnUse"><stop offset="0" stop-color="#328e36"/><stop offset="1" stop-color="#005e00"/></linearGradient>
    <radialGradient id="New_Gradient_384-3" data-name="New Gradient 384" cy="43.8777161" fy="43.8777161" r="1.5364883" cx="-23.2832879" fx="-23.2832879" gradientTransform="translate(37.5721 -21.5902) scale(.8321)" gradientUnits="userSpaceOnUse"><stop offset="0" stop-color="#00cd00"/><stop offset="1" stop-color="#328e36"/></radialGradient>
    <linearGradient id="New_Gradient_385-4" data-name="New Gradient 385" x1="18.0284183" y1="15.6337225" x2="19.3191189" y2="17.0671908" gradientUnits="userSpaceOnUse"><stop offset="0" stop-color="#666"/><stop offset="1" stop-color="#b2b2b2"/></linearGradient>
    <mask id="mask-5" x="17.8073886" y="15.6723271" width="1.6676085" height="1.0843784" maskUnits="userSpaceOnUse">
      <path d="M18.1640886,16.1025c.5214-.0273.8877-.2573.8877-.2573.4628-.1108.4628.5825,0,.6934,0,0-.3584.1899-.8877.2134-.4756.0205-.4756-.6255,0-.6495Z" fill="#fff"/>
    </mask>
    <linearGradient id="New_Gradient_383-4" data-name="New Gradient 383" x1="18.8149667" y1="16.8555186" x2="18.4033729" y2="15.7246739" gradientUnits="userSpaceOnUse"><stop offset="0" stop-color="#328e36"/><stop offset="1" stop-color="#005e00"/></linearGradient>
    <radialGradient id="New_Gradient_384-4" data-name="New Gradient 384" cy="45.2573616" fy="45.2573616" r="1.5363065" cx="-23.2832879" fx="-23.2832879" gradientTransform="translate(37.5721 -21.5902) scale(.8321)" gradientUnits="userSpaceOnUse"><stop offset="0" stop-color="#00cd00"/><stop offset="1" stop-color="#328e36"/></radialGradient>
    <radialGradient id="New_Gradient_382" data-name="New Gradient 382" cx="-29.7503357" cy="46.6913051" fx="-29.7503357" fy="46.6913051" r="4.4810558" gradientTransform="translate(37.5721 -21.5902) scale(.8321)" gradientUnits="userSpaceOnUse">
      <stop offset="0" stop-color="#b2b2b2"/>
      <stop offset="1" stop-color="#4c4c4c"/>
    </radialGradient>
    <mask id="mask-6" x="4.171889" y="11.8188" width="9.2997998" height="8.2261" maskUnits="userSpaceOnUse">
      <polygon points="9.501 11.8188 13.4716887 15.8296 8.502 19.7539 6.1151889 17.3647 5.665 17.4263 4.517589 16.2754 4.517589 13.188 9.501 11.8188" fill="#fff"/>
    </mask>
    <linearGradient id="New_Gradient_381" data-name="New Gradient 381" x1="5.4564998" y1="18.0469391" x2="11.2557531" y2="12.2476857" gradientUnits="userSpaceOnUse">
      <stop offset="0" stop-color="#b2b2b2"/>
      <stop offset=".320221" stop-color="#f2f2f2"/>
      <stop offset="1" stop-color="#e5e5e5"/>
    </linearGradient>
    <mask id="mask-7" x="8.502" y="15.8267" width="4.9823887" height="4.0532" maskUnits="userSpaceOnUse">
      <polygon points="8.502 17.1719 13.4843887 15.8267 13.4843887 18.4209 8.502 19.7666 8.502 17.1719" fill="#fff" fill-rule="evenodd"/>
    </mask>
    <linearGradient id="New_Gradient_380" data-name="New Gradient 380" x1="12.0245231" y1="15.5437602" x2="8.0508987" y2="13.9383117" gradientUnits="userSpaceOnUse">
      <stop offset="0" stop-color="#999"/>
      <stop offset=".966293" stop-color="#d9d9d9"/>
      <stop offset="1" stop-color="#e5e5e5"/>
    </linearGradient>
    <mask id="mask-8" x="7.4325889" y="12.0161" width="4.8036999" height="4.961" maskUnits="userSpaceOnUse">
      <polygon points="9.7382888 16.793 9.2040889 16.2593 8.8007889 14.8916 7.6708889 13.0352 7.6708889 12.5762 9.5165888 12.1201 11.5194888 14.3862 12.2362888 15.3687 9.7382888 16.793" fill="#fff" fill-rule="evenodd"/>
    </mask>
    <mask id="mask-9" x="9.4071888" y="15.3545" width="3.2558999" height="2.936" maskUnits="userSpaceOnUse">
      <polygon points="12.6630888 15.7896 12.6630888 17.1724 10.1776888 17.8389 9.7333888 17.4048 9.7333888 16.0244 12.2226888 15.3545 12.6630888 15.7896" fill="#fff"/>
    </mask>
  </defs>
  <g>
    <path d="M11.6005888,7.0059l3.3534999-.8428,4.8974999,4.9106v9.6587s-.1543.502-1.3682.8296c-1.2148.3272-1.832.1152-1.832.1152l-.7373-.7421c-3.4745999.4731-6.8076998-2.1519-3.8622999-3.8936l-.4512-.4541V7.0059Z" fill="url(#New_Gradient_386)" stroke="#000" stroke-linecap="round" stroke-linejoin="round" stroke-width="2"/>
    <g mask="url(#mask)">
      <g>
        <path d="M11.6005888,7.0059v9.5815l5.0507999,5.0898s.6172.212,1.832-.1152c1.2139-.3276,1.3682-.8296,1.3682-.8296v-9.6587l-4.8974999-4.9106-3.3534999.8428Z" fill="url(#New_Gradient_386-2)" fill-rule="evenodd"/>
        <g mask="url(#mask-1)">
          <g>
            <rect x="16.6688887" y="10.7549" width="3.6972999" height="11.2661" fill="url(#New_Gradient_388)"/>
            <line x1="19.5331886" y1="11.0811" x2="19.5331886" y2="21.3721" fill="none" stroke="#d9d9d9" stroke-linecap="round" stroke-miterlimit="3.8637" stroke-width=".5"/>
          </g>
        </g>
        <path d="M19.8476886,10.5205l-4.8935999-5.0517-3.6796999,1.2119,5.3769999,5.3774s.6172.2109,1.832-.1162c1.2139-.3286,1.3682-.8296,1.3682-.8296l-.0039-.5918Z" fill="url(#New_Gradient_387)" fill-rule="evenodd"/>
      </g>
    </g>
    <g>
      <path d="M18.1083886,12.6577c.627-.0332,1.0674-.3086,1.0674-.3086.5537-.1328.5537.6988,0,.8321,0,0-.4307.2285-1.0674.2563-.5693.0249-.5693-.7505,0-.7798Z" fill="url(#New_Gradient_385)"/>
      <g mask="url(#mask-2)">
        <g>
          <path d="M18.1640886,12.6582c.5214-.0278.8877-.2573.8877-.2573.4628-.1113.4628.5825,0,.6933,0,0-.3584.1905-.8877.2134-.4756.021-.4756-.6245,0-.6494Z" fill="url(#New_Gradient_383)"/>
          <path d="M18.0868886,12.6445s.3555-.0752.5674.128c.209.2041.1357114.4482.1016.5214-.0342.0713.5351114-.0615.6728-.3642.1826-.4077-.2119-.8018-.5371-.6792-.3262.1225-.8047.394-.8047.394Z" fill="url(#New_Gradient_384)" fill-rule="evenodd"/>
        </g>
      </g>
      <path d="M18.1337886,12.9092s.4531-.0274.8398-.1973" fill="none" stroke="#7cc771" stroke-linecap="round" stroke-miterlimit="3.8637" stroke-width=".75"/>
    </g>
    <g>
      <path d="M18.1083886,13.8062c.627-.0337,1.0674-.3086,1.0674-.3086.5537-.1333.5537.6987,0,.8305,0,0-.4307.23-1.0674.2564-.5693.0254-.5693-.7491,0-.7783Z" fill="url(#New_Gradient_385-2)"/>
      <g mask="url(#mask-3)">
        <g>
          <path d="M18.1640886,13.8062c.5214-.0284.8877-.2569.8877-.2569.4628-.1108.4628.5816,0,.6939,0,0-.3584.1904-.8877.2133-.4756.0201-.4756-.6254,0-.6503Z" fill="url(#New_Gradient_383-2)"/>
          <path d="M18.0868886,13.793s.3555-.0757.5674.1279c.209.2036.1357114.4482.1016.521-.0342.0723.5351114-.0606.6728-.3652.1826-.4068-.2119-.8008-.5371-.6792-.3262.1225-.8047.3955-.8047.3955Z" fill="url(#New_Gradient_384-2)" fill-rule="evenodd"/>
        </g>
      </g>
      <path d="M18.1337886,14.0571s.4531-.0268.8398-.1967" fill="none" stroke="#7cc771" stroke-linecap="round" stroke-miterlimit="3.8637" stroke-width=".75"/>
    </g>
    <g>
      <path d="M18.1083886,14.9531c.627-.0327,1.0674-.3076,1.0674-.3076.5537-.1323.5537.6983,0,.8316,0,0-.4307.2285-1.0674.2563-.5693.0239-.5693-.75,0-.7803Z" fill="url(#New_Gradient_385-3)"/>
      <g mask="url(#mask-4)">
        <g>
          <path d="M18.1640886,14.9541c.5214-.0278.8877-.2568.8877-.2568.4628-.1119.4628.582,0,.6928,0,0-.3584.1905-.8877.2144-.4756.0195-.4756-.6255,0-.6504Z" fill="url(#New_Gradient_383-3)"/>
          <path d="M18.0868886,14.9404s.3555-.0742.5674.1284c.209.2037.1357114.4483.1016.521-.0342.0723.5351114-.061.6728-.3647.1826-.4077-.2119-.8008-.5371-.6782-.3262.122-.8047.3935-.8047.3935Z" fill="url(#New_Gradient_384-3)" fill-rule="evenodd"/>
        </g>
      </g>
      <path d="M18.1337886,15.2046s.4531-.0259.8398-.1968" fill="none" stroke="#7cc771" stroke-linecap="round" stroke-miterlimit="3.8637" stroke-width=".75"/>
    </g>
    <g>
      <path d="M18.1083886,16.1016c.627-.0328,1.0674-.3086,1.0674-.3086.5537-.1333.5537.6992,0,.8325,0,0-.4307.2285-1.0674.2563-.5693.024-.5693-.7505,0-.7802Z" fill="url(#New_Gradient_385-4)"/>
      <g mask="url(#mask-5)">
        <g>
          <path d="M18.1640886,16.1025c.5214-.0273.8877-.2573.8877-.2573.4628-.1108.4628.5825,0,.6934,0,0-.3584.1899-.8877.2134-.4756.0205-.4756-.6255,0-.6495Z" fill="url(#New_Gradient_383-4)"/>
          <path d="M18.0868886,16.0884s.3555-.0752.5674.1284c.209.2041.1357114.4482.1016.521-.0342.0713.5351114-.061.6728-.3643.1826-.4077-.2119-.8003-.5371-.6787-.3262.1216-.8047.3936-.8047.3936Z" fill="url(#New_Gradient_384-4)" fill-rule="evenodd"/>
        </g>
      </g>
      <path d="M18.1337886,16.353s.4531-.0278.8398-.1967" fill="none" stroke="#7cc771" stroke-linecap="round" stroke-miterlimit="3.8637" stroke-width=".75"/>
    </g>
    <path d="M12.1835888,17.0186s.8994112-.6768,2.2216999.581c1.2422,1.1787,1.6015,2.1875,1.7597113,3.3364" fill="none" stroke="#ccc" stroke-linecap="round" stroke-miterlimit="3.8637" stroke-width="1.25"/>
    <path d="M15.9120887,20.9551c.0313-.1587-.0752-1.6846-1.6035-3.211-1.3994-1.4008-2.2509999-.707-2.2509999-.707-2.9559999,1.7412.3789,4.3716,3.8544999,3.918Z" fill="url(#New_Gradient_382)" fill-rule="evenodd"/>
    <path d="M12.9413888,9.6436l2.1874999,2.1831c.2295.227.2295.5693,0,.3413l-2.1874999-2.1822c-.2275-.227-.2275-.5703,0-.3422Z" fill="#b2b2b2"/>
    <path d="M12.9413888,10.4136l2.1874999,2.1821c.2295.2275.2295.5693,0,.3423l-2.1874999-2.1826c-.2275-.2276-.2275-.5699,0-.3418Z" fill="#b2b2b2"/>
    <path d="M12.9413888,11.1826l2.1874999,2.1826c.2295.2276.2295.5699,0,.3428l-2.1874999-2.1831c-.2275-.2285-.2275-.5703,0-.3423Z" fill="#b2b2b2"/>
    <path d="M12.9413888,11.9526l2.1874999,2.1817c.2295.2275.2295.5703,0,.3428l-2.1874999-2.1827c-.2275-.2275-.2275-.5693,0-.3418Z" fill="#b2b2b2"/>
    <path d="M11.7050888,7.0874l4.9716999,4.9707s1.0429.1904,1.9394-.1016c.8984-.2915,1.167-.7959,1.167-.7959" fill="none" stroke="#fff" stroke-linecap="round" stroke-miterlimit="3.8637" stroke-width=".5"/>
    <line x1="16.6425887" y1="12.1255" x2="16.6425887" y2="21.5728" fill="none" stroke="#fff" stroke-linecap="round" stroke-miterlimit="3.8637" stroke-width=".5"/>
  </g>
  <path d="M3.625,11.9087c-1.333-2.2857-.036111-5.251,3.8847889-5.0527,2.6444999.1323,2.8602999-3.1236.5332111-3.2637l.082-1.3662c4.1151888.2461,3.7616888,6.2202-.6865111,5.9961-2.4364889-.1221-3.5458999,1.5522-2.6933999,3.0014l2.1611999-.581c.3486-.0928.5312.3012.3769.5278l.4971-.1348c.374-.1015.5586.3575.3388.5728l.503-.1367c.3252-.0884.5088.2461.4072.4765l.4717111-.1294,3.9706887,4.0108.0127,2.5913-4.9823887,1.3457-2.3868111-2.4019-.4501889.0616-1.147411-1.1509v-.3745c-.1797.0122-.3692-.1016-.3692-.3418v-.2617c-.1416-.0308-.2617-.1416-.2617-.333v-.2364c-.1406-.0307-.261689-.1426-.261689-.3344v-2.4849Z" fill="#ccc" stroke="#000" stroke-linecap="round" stroke-linejoin="round" stroke-width="2"/>
  <path d="M6.0175889,13.9072c-4.3124999-1.7988-3.8124999-7.3188,1.4922-7.0512,2.6444999.1323,2.8602999-3.1236.5332111-3.2637l.082-1.3662c4.1151888.2461,3.7616888,6.2202-.6865111,5.9961-3.3427999-.1685-4.1864889,3.0478-.8964889,4.4223l-.5244111,1.2627Z" fill="#ccc"/>
  <path d="M8.5067889,2.7334s.1485.0234.3555.1035c1.2412.4712,1.6074,1.586,1.249,2.8819-.0605.2202-.3906.1289-.3291-.0909.3086-1.1201-.0263-1.8872-1.1035-2.2954-.1728-.0654-.292-.0859-.292-.0859-.2226-.0381-.1025-.5513.1201-.5132Z" fill="#f2f2f2"/>
  <path d="M4.929689,8.4395c1.8818-1.4297,3.030311-.1241,4.6210999-1.4307.9726-.7984,1.0322112-1.5025.8877-2.5488-.0313-.2261.3066-.2735.3388-.0474.0557112.3965.127.749.086,1.1567-.1475,1.46-1.4404,2.4053-2.8222888,2.4742-1.1465111.0571-1.8496111-.1324-2.904311.6679-.1806.1392-.388689-.1338-.207-.2719Z" fill="#999"/>
  <path d="M3.737289,11.9546c-.6855-.9751-.6992-2.5801.0332-3.5767.894511-1.2153,2.6103999-1.4062,4.0058999-1.4043h.1045c.3535-.0058.2607.3374.0068.3428h-.1113c-1.2793-.0019-2.8163889.2158-3.6347999,1.3276-.6445.8755-.5283,2.1133.068411,2.9683.130789.187-.339911.5298-.472711.3423Z" fill="#f2f2f2"/>
  <path d="M3.625,14.3936v-2.6065c0-.1216.136689-.2988.252889-.3301l3.0283999-.8144c.4414-.1177.6181.5434.1787111.6616l-2.775411.7461v2.3433c0,.4565-.684589.4565-.684589,0Z" fill="#999"/>
  <polyline points="3.931589 14.5205 3.931589 12.0439 7.1972889 11.1396" fill="none" stroke="#4c4c4c" stroke-linecap="round" stroke-linejoin="round"/>
  <path d="M3.886689,14.9644v-2.6075c0-.1201.1367-.2978.2529-.33l3.6406999-.9913c.4404-.1196.6201.5411.1806.6602l-3.3895999.9229v2.3457c0,.4555-.6846.4555-.6846,0Z" fill="#999"/>
  <polyline points="4.213889 15.1821 4.208 12.6162 8.1620889 11.5977" fill="none" stroke="#4c4c4c" stroke-linecap="round" stroke-linejoin="round"/>
  <path d="M4.148389,15.5591v-2.6065c0-.1201.1358-.2983.252-.33l4.2216999-1.1509c.4424-.1201.6201.54.1797.6606l-3.9706999,1.0816v2.3452c0,.4565-.6827.4565-.6827,0Z" fill="#999"/>
  <g mask="url(#mask-6)">
    <g>
      <polygon points="9.501 11.8188 13.4716887 15.8296 8.502 19.7539 6.1151889 17.3647 5.665 17.4263 4.517589 16.2754 4.517589 13.188 9.501 11.8188" fill="url(#New_Gradient_381)"/>
      <polygon points="4.282189 12.9067 8.7187889 17.3438 8.7187889 20.0449 4.171889 16.5181 4.282189 12.9067" fill="#e5e5e5" fill-rule="evenodd"/>
    </g>
  </g>
  <g mask="url(#mask-7)">
    <g>
      <polygon points="8.502 17.1719 13.4843887 15.8267 13.4843887 18.4209 8.502 19.7666 8.502 17.1719" fill="#b2b2b2" fill-rule="evenodd"/>
      <polygon points="9.5907888 17.9595 9.5907888 19.8799 9.0780889 19.8799 9.0780889 18.0889 9.5907888 17.9595" fill="#666"/>
      <polygon points="10.4267888 17.7388 10.4267888 19.6592 9.9130888 19.6592 9.9130888 17.8682 10.4267888 17.7388" fill="#666"/>
      <polygon points="11.2616888 17.5186 11.2616888 19.4385 10.749 19.4385 10.749 17.6475 11.2616888 17.5186" fill="#666"/>
      <polygon points="12.0985888 17.2979 12.0985888 19.2178 11.5858888 19.2178 11.5858888 17.4268 12.0985888 17.2979" fill="#666"/>
      <polygon points="12.9335888 17.0771 12.9335888 18.9976 12.4198888 18.9976 12.4198888 17.2065 12.9335888 17.0771" fill="#666"/>
    </g>
  </g>
  <polyline points="4.671889 13.3252 8.499 17.1611 8.4794889 19.4937" fill="none" stroke="#fff" stroke-linecap="round" stroke-miterlimit="3.8637" stroke-width=".75"/>
  <polygon points="9.3056889 16.9546 8.2665889 15.8164 7.3993889 13.6245 8.1815889 13.3901 9.707 12.0981 11.7128888 14.2168 12.4540888 15.2544 12.8495888 15.7183 12.8495888 16.0288 10.8856888 16.5908 9.3056889 16.9546" fill="url(#New_Gradient_380)" fill-rule="evenodd"/>
  <g mask="url(#mask-8)">
    <g>
      <polygon points="9.7382888 16.793 9.2040889 16.2593 8.8007889 14.8916 7.6708889 13.0352 7.6708889 12.5762 9.5165888 12.1201 11.5194888 14.3862 12.2362888 15.3687 9.7382888 16.793" fill="#d9d9d9" fill-rule="evenodd"/>
      <polygon points="9.1874889 14.9282 11.7421888 14.2388 9.4071888 12.0161 7.5058889 12.5762 9.1874889 14.9282" fill="#fff" fill-rule="evenodd"/>
      <polygon points="7.5976889 12.5029 9.4257888 14.873 9.7567888 16.0117 9.7743888 16.9771 8.9853889 16.3516 7.4325889 13.2007 7.5976889 12.5029" fill="#e5e5e5" fill-rule="evenodd"/>
    </g>
  </g>
  <g mask="url(#mask-9)">
    <g>
      <polygon points="12.6630888 15.7896 12.6630888 17.1724 10.1776888 17.8389 9.7333888 17.4048 9.7333888 16.0244 12.2226888 15.3545 12.6630888 15.7896" fill="#ccc"/>
      <polygon points="9.6103888 15.8462 10.4081888 16.646 10.4081888 18.2905 9.4071888 17.2891 9.6103888 15.8462" fill="#e5e5e5" fill-rule="evenodd"/>
    </g>
  </g>
  <polygon points="10.1708888 16.4619 12.6630888 15.7896 12.6630888 17.1724 10.1708888 17.8452 10.1708888 16.4619" fill="#999" fill-rule="evenodd"/>
  <polyline points="7.7108889 12.8008 7.7108889 13.207 8.8026889 14.9858 9.1952889 16.3252 9.6503888 16.8218" fill="none" stroke="#999" stroke-linecap="round" stroke-linejoin="round" stroke-width=".75"/>
  <polyline points="4.471689 15.9619 4.438489 13.0923 9.0077889 11.8887" fill="none" stroke="#4c4c4c" stroke-linecap="round" stroke-linejoin="round" stroke-width=".5"/>
</svg>