<?xml version='1.0' encoding='UTF-8'?>
<svg xmlns="http://www.w3.org/2000/svg" xmlns:xlink="http://www.w3.org/1999/xlink" id="Layer_7" data-name="Layer 7" width="24" height="24" viewBox="0 0 24 24">
  <defs>
    <mask id="mask" x="12.7563666" y="8.6963" width="10.2448025" height="8.3199535" maskUnits="userSpaceOnUse">
      <path d="M13.8037,12.7197l.6773-1.8877s-.0181-.1357.2959-.1665c.2924-.0278,1.0068-.2075,1.9702-.4106.9516-.2002,1.5737-.4126,1.8808-.4312.3091-.0171.4419.2051.4419.2051,0,0,.4107.4136.9756.9605.8101.7836,1.2666.9633,1.3408,1.2822.0503.2192.6045,2.2466.6045,2.2466,0,0,.0723.2119-.1631.2973-1.0571.2608-4.5537,1.1333-4.7397,1.1773-.2168.0522-.3989.0386-.6592-.2613-.1533-.1792-1.9546-1.8798-2.5513-2.5952-.2192-.2246-.0737-.4165-.0737-.4165Z" fill="#fff" fill-rule="evenodd" stroke="#fff" stroke-miterlimit="3.8637" stroke-width="2"/>
    </mask>
    <linearGradient id="New_Gradient_275" data-name="New Gradient 275" x1="16.7393726" y1="4.1033109" x2="18.6300424" y2="10.287413" gradientTransform="translate(0 5.7705)" gradientUnits="userSpaceOnUse">
      <stop offset="0" stop-color="#e5e5e5"/>
      <stop offset="1" stop-color="#b2b2b2"/>
    </linearGradient>
    <linearGradient id="New_Gradient_279" data-name="New Gradient 279" x1="19.4465019" y1="5.9274644" x2="19.6102975" y2="10.6179581" gradientTransform="translate(0 5.7705)" gradientUnits="userSpaceOnUse">
      <stop offset="0" stop-color="#ccc"/>
      <stop offset="1" stop-color="#999"/>
    </linearGradient>
    <linearGradient id="New_Gradient_278" data-name="New Gradient 278" x1="17.4145398" y1="2.8853639" x2="17.9997841" y2="7.6517965" gradientTransform="translate(0 5.7705)" gradientUnits="userSpaceOnUse">
      <stop offset="0" stop-color="#b2b2b2"/>
      <stop offset="1" stop-color="#fff"/>
    </linearGradient>
    <mask id="mask-1" x="13.7563666" y="8.6963" width="8.7065334" height="7.6099" maskUnits="userSpaceOnUse">
      <path d="M13.8037,12.7197l.6773-1.8877s-.0181-.1357.2959-.1665c.2924-.0278.9853-.1797,1.9702-.4106.9477-.2212,1.5737-.4126,1.8808-.4312.3091-.0171.4419.2051.4419.2051,0,0,.2857.5386,1.19,1.4888.8759.9228.9907.354,1.1264.7539.0728.2124.6045,2.2466.6045,2.2466,0,0,.0723.2119-.1631.2973-1.0571.2608-4.5537,1.1333-4.7397,1.1773-.2168.0522-.3989.0386-.6592-.2613-.1533-.1792-1.9546-1.8798-2.5513-2.5952-.2192-.2246-.0737-.4165-.0737-.4165Z" fill="#fff" fill-rule="evenodd"/>
    </mask>
    <linearGradient id="New_Gradient_275-2" data-name="New Gradient 275" x1="16.7375631" y1="4.0981737" x2="18.6282328" y2="10.2822758" gradientTransform="translate(0 5.7705)" gradientUnits="userSpaceOnUse"><stop offset="0" stop-color="#e5e5e5"/><stop offset="1" stop-color="#b2b2b2"/></linearGradient>
    <linearGradient id="New_Gradient_277" data-name="New Gradient 277" x1="19.4465019" y1="5.9274644" x2="19.6102975" y2="10.6179581" gradientTransform="translate(0 5.7705)" gradientUnits="userSpaceOnUse">
      <stop offset="0" stop-color="#ccc"/>
      <stop offset="1" stop-color="gray"/>
    </linearGradient>
    <linearGradient id="New_Gradient_276" data-name="New Gradient 276" x1="17.4145398" y1="2.8853639" x2="17.9997841" y2="7.6517965" gradientTransform="translate(0 5.7705)" gradientUnits="userSpaceOnUse">
      <stop offset="0" stop-color="#b2b2b2"/>
      <stop offset=".859558" stop-color="#fff"/>
      <stop offset="1" stop-color="#fff"/>
    </linearGradient>
    <linearGradient id="New_Gradient_274" data-name="New Gradient 274" x1="18.0083025" y1="3.978973" x2="17.9192491" y2="6.5291276" gradientTransform="translate(0 5.7705)" gradientUnits="userSpaceOnUse">
      <stop offset="0" stop-color="#e5e5e5"/>
      <stop offset=".741577" stop-color="#fff"/>
      <stop offset="1" stop-color="#fff"/>
    </linearGradient>
    <linearGradient id="New_Gradient_270" data-name="New Gradient 270" x1="15.3214366" y1="7.6109619" x2="14.0089314" y2="5.665093" gradientTransform="translate(0 5.7705)" gradientUnits="userSpaceOnUse">
      <stop offset="0" stop-color="#d9d9d9"/>
      <stop offset=".146072" stop-color="#d9d9d9"/>
      <stop offset=".528091" stop-color="#e5e5e5"/>
      <stop offset="1" stop-color="#fff"/>
    </linearGradient>
    <linearGradient id="New_Gradient_269" data-name="New Gradient 269" x1="16.0384848" y1="8.4448302" x2="17.0256894" y2="8.3236167" gradientTransform="translate(0 5.7705)" gradientUnits="userSpaceOnUse">
      <stop offset="0" stop-color="#ccc"/>
      <stop offset=".561798" stop-color="#ccc"/>
      <stop offset="1" stop-color="#e5e5e5"/>
    </linearGradient>
    <linearGradient id="New_Gradient_268" data-name="New Gradient 268" x1="17.1119874" y1="8.773126" x2="21.7889213" y2="7.9484563" gradientTransform="translate(0 5.7705)" gradientUnits="userSpaceOnUse">
      <stop offset="0" stop-color="#999"/>
      <stop offset=".5" stop-color="#999"/>
      <stop offset=".870789" stop-color="#b2b2b2"/>
      <stop offset="1" stop-color="#d9d9d9"/>
    </linearGradient>
    <mask id="mask-2" x="6.925045" y="10.1504" width="10.2445972" height="8.3200103" maskUnits="userSpaceOnUse">
      <path d="M7.9727,14.1733l.6767-1.8877s-.0176-.1357.2954-.166c.2935-.0278,1.0069-.2075,1.9712-.4106.9512-.2007,1.5718-.4131,1.8804-.4302.3096-.0185.4414.2041.4414.2041,0,0,.4111.4141.9756.96.8095.7846,1.2676.9634,1.3418,1.2827.0503.2187.604,2.2456.604,2.2456,0,0,.0722.2124-.1631.2983-1.0571.2608-4.5547,1.1328-4.7398,1.1773-.2172.0522-.3984.039-.6577-.2617-.1552-.1778-1.9555-1.8799-2.5537-2.5948-.2178-.2246-.0722-.417-.0722-.417Z" fill="#fff" fill-rule="evenodd" stroke="#fff" stroke-miterlimit="3.8637" stroke-width="2"/>
    </mask>
    <linearGradient id="New_Gradient_238" data-name="New Gradient 238" x1="10.9079738" y1="5.5570843" x2="12.7987296" y2="11.7414678" gradientTransform="translate(0 5.7705)" gradientUnits="userSpaceOnUse">
      <stop offset="0" stop-color="#e5e5e5"/>
      <stop offset="1" stop-color="#b2b2b2"/>
    </linearGradient>
    <linearGradient id="New_Gradient_250" data-name="New Gradient 250" x1="13.6147086" y1="7.3815572" x2="13.7785043" y2="12.0720509" gradientTransform="translate(0 5.7705)" gradientUnits="userSpaceOnUse">
      <stop offset="0" stop-color="#ccc"/>
      <stop offset="1" stop-color="#999"/>
    </linearGradient>
    <linearGradient id="New_Gradient_249" data-name="New Gradient 249" x1="11.583034" y1="4.3394372" x2="12.1681576" y2="9.1048868" gradientTransform="translate(0 5.7705)" gradientUnits="userSpaceOnUse">
      <stop offset="0" stop-color="#b2b2b2"/>
      <stop offset="1" stop-color="#fff"/>
    </linearGradient>
    <mask id="mask-3" x="7.925045" y="10.1504" width="8.706255" height="7.6099" maskUnits="userSpaceOnUse">
      <path d="M7.9727,14.1733l.6767-1.8877s-.0176-.1357.2954-.166c.2935-.0278.9864-.1792,1.9712-.4106.9463-.2217,1.5718-.4131,1.8804-.4302.3096-.0185.4414.2041.4414.2041,0,0,.2866.5381,1.1909,1.4893.8755.9218.9893.3535,1.1265.7534.0727.2124.604,2.2456.604,2.2456,0,0,.0722.2124-.1631.2983-1.0571.2608-4.5547,1.1328-4.7398,1.1773-.2172.0522-.3984.039-.6577-.2617-.1552-.1778-1.9555-1.8799-2.5537-2.5948-.2178-.2246-.0722-.417-.0722-.417Z" fill="#fff" fill-rule="evenodd"/>
    </mask>
    <linearGradient id="New_Gradient_238-2" data-name="New Gradient 238" x1="10.9061559" y1="5.5519494" x2="12.7969117" y2="11.7363329" gradientTransform="translate(0 5.7705)" gradientUnits="userSpaceOnUse"><stop offset="0" stop-color="#e5e5e5"/><stop offset="1" stop-color="#b2b2b2"/></linearGradient>
    <linearGradient id="New_Gradient_241" data-name="New Gradient 241" x1="13.6147086" y1="7.3815572" x2="13.7785043" y2="12.0720509" gradientTransform="translate(0 5.7705)" gradientUnits="userSpaceOnUse">
      <stop offset="0" stop-color="#ccc"/>
      <stop offset="1" stop-color="gray"/>
    </linearGradient>
    <linearGradient id="New_Gradient_240" data-name="New Gradient 240" x1="11.583034" y1="4.3394372" x2="12.1681576" y2="9.1048868" gradientTransform="translate(0 5.7705)" gradientUnits="userSpaceOnUse">
      <stop offset="0" stop-color="#b2b2b2"/>
      <stop offset=".859558" stop-color="#fff"/>
      <stop offset="1" stop-color="#fff"/>
    </linearGradient>
    <linearGradient id="New_Gradient_229" data-name="New Gradient 229" x1="12.1769536" y1="5.4326705" x2="12.0879023" y2="7.9827657" gradientTransform="translate(0 5.7705)" gradientUnits="userSpaceOnUse">
      <stop offset="0" stop-color="#e5e5e5"/>
      <stop offset=".741577" stop-color="#fff"/>
      <stop offset="1" stop-color="#fff"/>
    </linearGradient>
    <linearGradient id="New_Gradient_228" data-name="New Gradient 228" x1="9.4902627" y1="9.0652489" x2="8.1772666" y2="7.1186521" gradientTransform="translate(0 5.7705)" gradientUnits="userSpaceOnUse">
      <stop offset="0" stop-color="#d9d9d9"/>
      <stop offset=".146072" stop-color="#d9d9d9"/>
      <stop offset=".528091" stop-color="#e5e5e5"/>
      <stop offset="1" stop-color="#fff"/>
    </linearGradient>
    <linearGradient id="New_Gradient_225" data-name="New Gradient 225" x1="10.2068119" y1="9.8982207" x2="11.1945688" y2="9.7769395" gradientTransform="translate(0 5.7705)" gradientUnits="userSpaceOnUse">
      <stop offset="0" stop-color="#ccc"/>
      <stop offset=".561798" stop-color="#ccc"/>
      <stop offset="1" stop-color="#e5e5e5"/>
    </linearGradient>
    <linearGradient id="New_Gradient_224" data-name="New Gradient 224" x1="11.2804917" y1="10.2268046" x2="15.9574172" y2="9.4021364" gradientTransform="translate(0 5.7705)" gradientUnits="userSpaceOnUse">
      <stop offset="0" stop-color="#999"/>
      <stop offset=".5" stop-color="#999"/>
      <stop offset=".870789" stop-color="#b2b2b2"/>
      <stop offset="1" stop-color="#d9d9d9"/>
    </linearGradient>
    <mask id="mask-4" x="1.0002638" y="11.6274" width="10.2447833" height="8.3207761" maskUnits="userSpaceOnUse">
      <path d="M2.0479,15.6514l.6762-1.8892s-.018-.1352.2959-.166c.2935-.0278,1.0073-.207,1.9712-.4102.9507-.2002,1.5723-.4131,1.8809-.4306.3086-.0176.4414.2055.4414.2055,0,0,.4106.4131.9761.959.8085.7847,1.2666.9634,1.3403,1.2827.0503.2188.605,2.2461.605,2.2461,0,0,.0713.2124-.1641.2974-1.0562.2612-4.5542,1.1333-4.7388,1.1782-.2177.0528-.3984.0391-.6587-.2622-.1547-.1792-1.956-1.8794-2.5522-2.5952-.2192-.2241-.0732-.4155-.0732-.4155Z" fill="#fff" fill-rule="evenodd" stroke="#fff" stroke-miterlimit="3.8637" stroke-width="2"/>
    </mask>
    <linearGradient id="New_Gradient_238-3" data-name="New Gradient 238" x1="4.9829621" y1="7.0338246" x2="6.8736514" y2="13.2179907" gradientTransform="translate(0 5.7705)" gradientUnits="userSpaceOnUse"><stop offset="0" stop-color="#e5e5e5"/><stop offset="1" stop-color="#b2b2b2"/></linearGradient>
    <linearGradient id="New_Gradient_250-2" data-name="New Gradient 250" x1="7.6898999" y1="8.8585575" x2="7.8536955" y2="13.5490512" gradientTransform="translate(0 5.7705)" gradientUnits="userSpaceOnUse"><stop offset="0" stop-color="#ccc"/><stop offset="1" stop-color="#999"/></linearGradient>
    <linearGradient id="New_Gradient_249-2" data-name="New Gradient 249" x1="5.6582921" y1="5.8164153" x2="6.2434682" y2="10.5822921" gradientTransform="translate(0 5.7705)" gradientUnits="userSpaceOnUse"><stop offset="0" stop-color="#b2b2b2"/><stop offset="1" stop-color="#fff"/></linearGradient>
    <mask id="mask-5" x="2.0002638" y="11.6274" width="8.7062362" height="7.6099" maskUnits="userSpaceOnUse">
      <path d="M2.0479,15.6514l.6762-1.8892s-.018-.1352.2959-.166c.2935-.0278.9849-.1787,1.9712-.4102.9468-.2216,1.5723-.4131,1.8809-.4306.3086-.0176.4414.2055.4414.2055,0,0,.2851.5376,1.1904,1.4883.876.9224.9888.353,1.126.7534.0722.2124.605,2.2461.605,2.2461,0,0,.0713.2124-.1641.2974-1.0562.2612-4.5542,1.1333-4.7388,1.1782-.2177.0528-.3984.0391-.6587-.2622-.1547-.1792-1.956-1.8794-2.5522-2.5952-.2192-.2241-.0732-.4155-.0732-.4155Z" fill="#fff" fill-rule="evenodd"/>
    </mask>
    <linearGradient id="New_Gradient_238-4" data-name="New Gradient 238" x1="4.981102" y1="7.0287028" x2="6.8717914" y2="13.2128689" gradientTransform="translate(0 5.7705)" gradientUnits="userSpaceOnUse"><stop offset="0" stop-color="#e5e5e5"/><stop offset="1" stop-color="#b2b2b2"/></linearGradient>
    <linearGradient id="New_Gradient_241-2" data-name="New Gradient 241" x1="7.6898999" y1="8.8585575" x2="7.8536955" y2="13.5490512" gradientTransform="translate(0 5.7705)" gradientUnits="userSpaceOnUse"><stop offset="0" stop-color="#ccc"/><stop offset="1" stop-color="gray"/></linearGradient>
    <linearGradient id="New_Gradient_240-2" data-name="New Gradient 240" x1="5.6582921" y1="5.8164153" x2="6.2434682" y2="10.5822921" gradientTransform="translate(0 5.7705)" gradientUnits="userSpaceOnUse"><stop offset="0" stop-color="#b2b2b2"/><stop offset=".859558" stop-color="#fff"/><stop offset="1" stop-color="#fff"/></linearGradient>
    <linearGradient id="New_Gradient_229-2" data-name="New Gradient 229" x1="6.2522817" y1="6.9097519" x2="6.1632104" y2="9.4604197" gradientTransform="translate(0 5.7705)" gradientUnits="userSpaceOnUse"><stop offset="0" stop-color="#e5e5e5"/><stop offset=".741577" stop-color="#fff"/><stop offset="1" stop-color="#fff"/></linearGradient>
    <linearGradient id="New_Gradient_228-2" data-name="New Gradient 228" x1="3.5652092" y1="10.5425437" x2="2.2521275" y2="8.59582" gradientTransform="translate(0 5.7705)" gradientUnits="userSpaceOnUse"><stop offset="0" stop-color="#d9d9d9"/><stop offset=".146072" stop-color="#d9d9d9"/><stop offset=".528091" stop-color="#e5e5e5"/><stop offset="1" stop-color="#fff"/></linearGradient>
    <linearGradient id="New_Gradient_225-2" data-name="New Gradient 225" x1="4.2825684" y1="11.3762691" x2="5.2703818" y2="11.2549808" gradientTransform="translate(0 5.7705)" gradientUnits="userSpaceOnUse"><stop offset="0" stop-color="#ccc"/><stop offset=".561798" stop-color="#ccc"/><stop offset="1" stop-color="#e5e5e5"/></linearGradient>
    <linearGradient id="New_Gradient_224-2" data-name="New Gradient 224" x1="5.3560449" y1="11.7047923" x2="10.0323353" y2="10.8802361" gradientTransform="translate(0 5.7705)" gradientUnits="userSpaceOnUse"><stop offset="0" stop-color="#999"/><stop offset=".5" stop-color="#999"/><stop offset=".870789" stop-color="#b2b2b2"/><stop offset="1" stop-color="#d9d9d9"/></linearGradient>
    <mask id="mask-6" x="12.0287736" y="12.9116" width="10.2445467" height="8.3204354" maskUnits="userSpaceOnUse">
      <path d="M13.0762,16.9351l.6762-1.8892s-.0175-.1353.2955-.1655c.2939-.0279,1.0068-.2071,1.9716-.4097.9507-.2012,1.5718-.4136,1.8804-.4311.3086-.0186.4409.2055.4409.2055,0,0,.4116.4126.9761.959.8086.7842,1.2676.9634,1.3418,1.2827.0498.2188.6045,2.2461.6045,2.2461,0,0,.0713.2129-.1646.2979-1.0566.2607-4.5542,1.1328-4.7382,1.1777-.2183.0522-.3995.0386-.6587-.2622-.1558-.1782-1.9556-1.8794-2.5523-2.5952-.2187-.2237-.0732-.416-.0732-.416Z" fill="#fff" fill-rule="evenodd" stroke="#fff" stroke-miterlimit="3.8637" stroke-width="2"/>
    </mask>
    <linearGradient id="New_Gradient_206" data-name="New Gradient 206" x1="16.0114755" y1="8.3176636" x2="17.9023519" y2="14.5024416" gradientTransform="translate(0 5.7705)" gradientUnits="userSpaceOnUse">
      <stop offset="0" stop-color="#e5e5e5"/>
      <stop offset="1" stop-color="#b2b2b2"/>
    </linearGradient>
    <linearGradient id="New_Gradient_223" data-name="New Gradient 223" x1="18.7179803" y1="10.1421953" x2="18.8818329" y2="14.8343208" gradientTransform="translate(0 5.7705)" gradientUnits="userSpaceOnUse">
      <stop offset="0" stop-color="#ccc"/>
      <stop offset="1" stop-color="#999"/>
    </linearGradient>
    <linearGradient id="New_Gradient_221" data-name="New Gradient 221" x1="16.686217" y1="7.1006747" x2="17.2713457" y2="11.8661655" gradientTransform="translate(0 5.7705)" gradientUnits="userSpaceOnUse">
      <stop offset="0" stop-color="#b2b2b2"/>
      <stop offset="1" stop-color="#fff"/>
    </linearGradient>
    <mask id="mask-7" x="13.0287736" y="12.9116" width="8.7056264" height="7.6109" maskUnits="userSpaceOnUse">
      <path d="M13.0762,16.9351l.6762-1.8892s-.0175-.1353.2955-.1655c.2939-.0279.9858-.1787,1.9716-.4097.9458-.2222,1.5718-.4136,1.8804-.4311.3086-.0186.4409.2055.4409.2055,0,0,.2862.5366,1.1914,1.4883.8755.9224.9883.353,1.1265.7534.0723.2124.6045,2.2461.6045,2.2461,0,0,.0713.2129-.1646.2979-1.0566.2607-4.5542,1.1328-4.7382,1.1777-.2183.0522-.3995.0386-.6587-.2622-.1558-.1782-1.9556-1.8794-2.5523-2.5952-.2187-.2237-.0732-.416-.0732-.416Z" fill="#fff" fill-rule="evenodd"/>
    </mask>
    <linearGradient id="New_Gradient_206-2" data-name="New Gradient 206" x1="16.0096387" y1="8.3125341" x2="17.9005151" y2="14.4973121" gradientTransform="translate(0 5.7705)" gradientUnits="userSpaceOnUse"><stop offset="0" stop-color="#e5e5e5"/><stop offset="1" stop-color="#b2b2b2"/></linearGradient>
    <linearGradient id="New_Gradient_220" data-name="New Gradient 220" x1="18.7179803" y1="10.1421953" x2="18.8818329" y2="14.8343208" gradientTransform="translate(0 5.7705)" gradientUnits="userSpaceOnUse">
      <stop offset="0" stop-color="#ccc"/>
      <stop offset="1" stop-color="gray"/>
    </linearGradient>
    <linearGradient id="New_Gradient_219" data-name="New Gradient 219" x1="16.686217" y1="7.1006747" x2="17.2713457" y2="11.8661655" gradientTransform="translate(0 5.7705)" gradientUnits="userSpaceOnUse">
      <stop offset="0" stop-color="#b2b2b2"/>
      <stop offset=".859558" stop-color="#fff"/>
      <stop offset="1" stop-color="#fff"/>
    </linearGradient>
    <linearGradient id="New_Gradient_205" data-name="New Gradient 205" x1="17.2802684" y1="8.1941566" x2="17.19122" y2="10.7441694" gradientTransform="translate(0 5.7705)" gradientUnits="userSpaceOnUse">
      <stop offset="0" stop-color="#e5e5e5"/>
      <stop offset=".741577" stop-color="#fff"/>
      <stop offset="1" stop-color="#fff"/>
    </linearGradient>
    <linearGradient id="New_Gradient_204" data-name="New Gradient 204" x1="14.5928417" y1="11.8261247" x2="13.2802075" y2="9.8800645" gradientTransform="translate(0 5.7705)" gradientUnits="userSpaceOnUse">
      <stop offset="0" stop-color="#d9d9d9"/>
      <stop offset=".146072" stop-color="#d9d9d9"/>
      <stop offset=".528091" stop-color="#e5e5e5"/>
      <stop offset="1" stop-color="#fff"/>
    </linearGradient>
    <linearGradient id="New_Gradient_203" data-name="New Gradient 203" x1="15.3105001" y1="12.6601476" x2="16.2986929" y2="12.5388128" gradientTransform="translate(0 5.7705)" gradientUnits="userSpaceOnUse">
      <stop offset="0" stop-color="#ccc"/>
      <stop offset=".561798" stop-color="#ccc"/>
      <stop offset="1" stop-color="#e5e5e5"/>
    </linearGradient>
    <linearGradient id="New_Gradient_202" data-name="New Gradient 202" x1="16.3843119" y1="12.9889569" x2="21.0606079" y2="12.1643998" gradientTransform="translate(0 5.7705)" gradientUnits="userSpaceOnUse">
      <stop offset="0" stop-color="#999"/>
      <stop offset=".5" stop-color="#999"/>
      <stop offset=".870789" stop-color="#b2b2b2"/>
      <stop offset="1" stop-color="#d9d9d9"/>
    </linearGradient>
    <mask id="mask-8" x="6.1032762" y="14.3892" width="10.2449042" height="8.3201152" maskUnits="userSpaceOnUse">
      <path d="M7.1504,18.4116l.6767-1.8882s-.018-.1352.2964-.166c.293-.0268,1.0074-.207,1.9698-.4096.9531-.2007,1.5732-.4122,1.8823-.4307.3081-.0176.4404.2051.4404.2051,0,0,.4111.4126.9761.9599.8096.7832,1.2666.9634,1.3413,1.2813.0498.2192.6045,2.247.6045,2.247,0,0,.0718.2125-.1641.2974-1.0556.2608-4.5537,1.1328-4.7383,1.1777-.2182.0528-.3994.0386-.6586-.2612-.1553-.1787-1.9566-1.8794-2.5528-2.5957-.2187-.2251-.0737-.417-.0737-.417Z" fill="#fff" fill-rule="evenodd" stroke="#fff" stroke-miterlimit="3.8637" stroke-width="2"/>
    </mask>
    <linearGradient id="New_Gradient_206-3" data-name="New Gradient 206" x1="10.0863011" y1="9.7949912" x2="11.9771155" y2="15.9795663" gradientTransform="translate(0 5.7705)" gradientUnits="userSpaceOnUse"><stop offset="0" stop-color="#e5e5e5"/><stop offset="1" stop-color="#b2b2b2"/></linearGradient>
    <linearGradient id="New_Gradient_223-2" data-name="New Gradient 223" x1="12.7926658" y1="11.6192826" x2="12.9565328" y2="16.3118194" gradientTransform="translate(0 5.7705)" gradientUnits="userSpaceOnUse"><stop offset="0" stop-color="#ccc"/><stop offset="1" stop-color="#999"/></linearGradient>
    <linearGradient id="New_Gradient_221-2" data-name="New Gradient 221" x1="10.7617057" y1="8.5781555" x2="11.3469139" y2="13.3442933" gradientTransform="translate(0 5.7705)" gradientUnits="userSpaceOnUse"><stop offset="0" stop-color="#b2b2b2"/><stop offset="1" stop-color="#fff"/></linearGradient>
    <mask id="mask-9" x="7.1032762" y="14.3892" width="8.7063238" height="7.6108" maskUnits="userSpaceOnUse">
      <path d="M7.1504,18.4116l.6767-1.8882s-.018-.1352.2964-.166c.293-.0268.9849-.1792,1.9698-.4096.9482-.2222,1.5732-.4122,1.8823-.4307.3081-.0176.4404.2051.4404.2051,0,0,.2871.5371,1.1909,1.4887.876.9229.9903.3531,1.1265.7525.0732.2129.6045,2.247.6045,2.247,0,0,.0718.2125-.1641.2974-1.0556.2608-4.5537,1.1328-4.7383,1.1777-.2182.0528-.3994.0386-.6586-.2612-.1553-.1787-1.9566-1.8794-2.5528-2.5957-.2187-.2251-.0737-.417-.0737-.417Z" fill="#fff" fill-rule="evenodd"/>
    </mask>
    <linearGradient id="New_Gradient_206-4" data-name="New Gradient 206" x1="10.0845339" y1="9.7898406" x2="11.9753482" y2="15.9744158" gradientTransform="translate(0 5.7705)" gradientUnits="userSpaceOnUse"><stop offset="0" stop-color="#e5e5e5"/><stop offset="1" stop-color="#b2b2b2"/></linearGradient>
    <linearGradient id="New_Gradient_220-2" data-name="New Gradient 220" x1="12.7926658" y1="11.6192826" x2="12.9565328" y2="16.3118194" gradientTransform="translate(0 5.7705)" gradientUnits="userSpaceOnUse"><stop offset="0" stop-color="#ccc"/><stop offset="1" stop-color="gray"/></linearGradient>
    <linearGradient id="New_Gradient_219-2" data-name="New Gradient 219" x1="10.7617057" y1="8.5781555" x2="11.3469139" y2="13.3442933" gradientTransform="translate(0 5.7705)" gradientUnits="userSpaceOnUse"><stop offset="0" stop-color="#b2b2b2"/><stop offset=".859558" stop-color="#fff"/><stop offset="1" stop-color="#fff"/></linearGradient>
    <linearGradient id="New_Gradient_205-2" data-name="New Gradient 205" x1="11.3555978" y1="9.6715454" x2="11.266546" y2="12.2216556" gradientTransform="translate(0 5.7705)" gradientUnits="userSpaceOnUse"><stop offset="0" stop-color="#e5e5e5"/><stop offset=".741577" stop-color="#fff"/><stop offset="1" stop-color="#fff"/></linearGradient>
    <linearGradient id="New_Gradient_204-2" data-name="New Gradient 204" x1="8.6680623" y1="13.3036965" x2="7.3555045" y2="11.3577496" gradientTransform="translate(0 5.7705)" gradientUnits="userSpaceOnUse"><stop offset="0" stop-color="#d9d9d9"/><stop offset=".146072" stop-color="#d9d9d9"/><stop offset=".528091" stop-color="#e5e5e5"/><stop offset="1" stop-color="#fff"/></linearGradient>
    <linearGradient id="New_Gradient_203-2" data-name="New Gradient 203" x1="9.3861337" y1="14.1377058" x2="10.3729701" y2="14.0165375" gradientTransform="translate(0 5.7705)" gradientUnits="userSpaceOnUse"><stop offset="0" stop-color="#ccc"/><stop offset=".561798" stop-color="#ccc"/><stop offset="1" stop-color="#e5e5e5"/></linearGradient>
    <linearGradient id="New_Gradient_202-2" data-name="New Gradient 202" x1="10.4587729" y1="14.4660491" x2="15.135467" y2="13.6414217" gradientTransform="translate(0 5.7705)" gradientUnits="userSpaceOnUse"><stop offset="0" stop-color="#999"/><stop offset=".5" stop-color="#999"/><stop offset=".870789" stop-color="#b2b2b2"/><stop offset="1" stop-color="#d9d9d9"/></linearGradient>
    <mask id="mask-10" x="5.373" y="1.623" width="7.9375" height="7.3389" maskUnits="userSpaceOnUse">
      <polygon points="10.6689 7.9619 7.5 5.5 8.8896 5.1533 8.3867 3.1387 10.4541 2.623 10.9551 4.6387 12.3105 4.3008 10.6689 7.9619" fill="#fff" stroke="#fff" stroke-linecap="round" stroke-linejoin="round" stroke-width="2"/>
    </mask>
    <radialGradient id="New_Gradient_181" data-name="New Gradient 181" cx="7.1709618" cy="2.2770393" fx="7.1709618" fy="2.2770393" r="5.8916056" gradientUnits="userSpaceOnUse">
      <stop offset="0" stop-color="#328e36"/>
      <stop offset="1" stop-color="#00cd00"/>
    </radialGradient>
    <radialGradient id="New_Gradient_194" data-name="New Gradient 194" cx="-73.1846838" cy="-23.2986281" fx="-73.1846838" fy="-23.2986281" r="6.3581371" gradientTransform="translate(83.8291 8.4305) rotate(-14.0008848) scale(.9432212)" gradientUnits="userSpaceOnUse">
      <stop offset="0" stop-color="#fff"/>
      <stop offset="1" stop-color="#00cd00"/>
    </radialGradient>
    <mask id="mask-11" x="5.373" y="2.2407" width="6.9375" height="5.8159" maskUnits="userSpaceOnUse">
      <polygon points="10.6689 7.9619 7.5 5.5 8.8896 5.1533 8.3867 3.1387 10.4541 2.623 10.9551 4.6387 12.3105 4.3008 10.6689 7.9619" fill="#fff"/>
    </mask>
    <radialGradient id="New_Gradient_181-2" data-name="New Gradient 181" cx="7.5" cy="2.623" fx="7.5" fy="2.623" r="5.2162344" gradientUnits="userSpaceOnUse"><stop offset="0" stop-color="#328e36"/><stop offset="1" stop-color="#00cd00"/></radialGradient>
  </defs>
  <g>
    <g>
      <g mask="url(#mask)">
        <g>
          <path d="M13.8037,12.7197l.6773-1.8877s-.0181-.1357.2959-.1665c.2924-.0278,1.0068-.2075,1.9702-.4106.9516-.2002,1.5737-.4126,1.8808-.4312.3091-.0171.4419.2051.4419.2051,0,0,.4107.4136.9756.9605.8101.7836,1.2666.9633,1.3408,1.2822.0503.2192.6045,2.2466.6045,2.2466,0,0,.0723.2119-.1631.2973-1.0571.2608-4.5537,1.1333-4.7397,1.1773-.2168.0522-.3989.0386-.6592-.2613-.1533-.1792-1.9546-1.8798-2.5513-2.5952-.2192-.2246-.0737-.4165-.0737-.4165Z" fill="url(#New_Gradient_275)" fill-rule="evenodd"/>
          <polygon points="17.125 13.0557 16.707 16.3062 22.4629 15.019 21.4956 11.7769 17.125 13.0557" fill="url(#New_Gradient_279)" fill-rule="evenodd"/>
          <path d="M14.1079,9.6699s-.1811.1558.0186.3902c.1826.2143,2.6894,2.9956,2.8339,3.1665.1465.1704.3155.1821.4781.1386.1631-.0439,3.5815-.893,3.7661-.9448.3628-.0986.0366-.6157.0366-.6157l-2.8169-3.1084-4.3164.9736Z" fill="url(#New_Gradient_278)" fill-rule="evenodd"/>
          <path d="M13.8037,12.7197l.6773-1.8877s-.0181-.1357.2959-.1665c.2924-.0278,1.0068-.2075,1.9702-.4106.9516-.2002,1.5737-.4126,1.8808-.4312.3091-.0171.4419.2051.4419.2051,0,0,.4107.4136.9756.9605.8101.7836,1.2666.9633,1.3408,1.2822.0503.2192.6045,2.2466.6045,2.2466,0,0,.0723.2119-.1631.2973-1.0571.2608-4.5537,1.1333-4.7397,1.1773-.2168.0522-.3989.0386-.6592-.2613-.1533-.1792-1.9546-1.8798-2.5513-2.5952-.2192-.2246-.0737-.4165-.0737-.4165Z" fill="none" fill-rule="evenodd" stroke="#000" stroke-miterlimit="3.8637" stroke-width="2"/>
        </g>
      </g>
      <g mask="url(#mask-1)">
        <g>
          <path d="M13.8037,12.7197l.6773-1.8877s-.0181-.1357.2959-.1665c.2924-.0278.9853-.1797,1.9702-.4106.9477-.2212,1.5737-.4126,1.8808-.4312.3091-.0171.4419.2051.4419.2051,0,0,.2857.5386,1.19,1.4888.8759.9228.9907.354,1.1264.7539.0728.2124.6045,2.2466.6045,2.2466,0,0,.0723.2119-.1631.2973-1.0571.2608-4.5537,1.1333-4.7397,1.1773-.2168.0522-.3989.0386-.6592-.2613-.1533-.1792-1.9546-1.8798-2.5513-2.5952-.2192-.2246-.0737-.4165-.0737-.4165Z" fill="url(#New_Gradient_275-2)" fill-rule="evenodd"/>
          <polygon points="17.125 13.0557 16.707 16.3062 22.4629 15.019 21.4956 11.7769 17.125 13.0557" fill="url(#New_Gradient_277)" fill-rule="evenodd"/>
          <path d="M14.1079,9.6699s-.1811.1558.0186.3902c.1826.2143,2.6894,2.9956,2.8339,3.1665.1465.1704.3155.1821.4781.1386.1631-.0439,3.5815-.893,3.7661-.9448.3628-.0986.0366-.6157.0366-.6157l-2.8169-3.1084-4.3164.9736Z" fill="url(#New_Gradient_276)" fill-rule="evenodd"/>
        </g>
      </g>
      <line x1="17.1426" y1="13.3677" x2="16.7612" y2="15.8447" fill="none" stroke="gray" stroke-linecap="round" stroke-linejoin="round" stroke-width="1.5"/>
      <path d="M14.6997,10.6934s1.0112-.21,1.9712-.4253c.9663-.2173,1.6113-.3994,1.7627-.4268.6084-.1128.4941.0483,1.0327.5376.582.5298.7627.8477,1.8023,1.6587.1616.1265-.2012.293-.3433.146,0,0-.499-.5068-1.1289-1.063-.4517-.3979-.5112-.5293-.9365-.9927-.0816-.0893-.295-.0639-.3765-.0483-.1509.0268-.7739.2036-1.7256.4175-.9682.2173-2.0058.4467-2.0058.4467-.1802.023-.232-.2285-.0523-.2504Z" fill="url(#New_Gradient_274)"/>
      <path d="M14.707,10.8032s1.8667,1.8003,2.0479,1.9961c.1479.1568.2246.1914.4057.1533.2349-.0493,3.4239-.4936,3.0357-1.4697.1279-.0342,1.0703.4082,1.1523.6743.0269.0874.1328.2515-.0507.2813,0,0-3.5904.959-3.8272,1.0097-.2905.0591-.4775-.0263-.6943-.2592-.1822-.1953-2.2403-2.1997-2.2403-2.1997-.1323-.1563.0386-.3423.1709-.1861Z" fill="#fff"/>
      <path d="M15.9033,12.3418l-1.4355-1.4248s-.6621,1.8765-.6997,1.9336c-.0371.0557.0376.186.0376.186l.5454.6328s-.273-.5283.0664-.9961c.4331-.5971,1.4858-.3315,1.4858-.3315Z" fill="url(#New_Gradient_270)" fill-rule="evenodd"/>
      <path d="M16.5903,15.8691l.3916-2.4985s-.062-.0493-.1508-.1406c-.1641-.169-.7437-.7422-.7437-.7422,0,0,.5664.98.4653,1.8765-.0825.7324-.3852,1.1088-.3852,1.1088l.4228.396Z" fill="url(#New_Gradient_269)" fill-rule="evenodd"/>
      <line x1="16.6157" y1="15.7856" x2="16.9448" y2="13.4268" fill="none" stroke="#b2b2b2" stroke-linecap="round" stroke-miterlimit="3.8637" stroke-width=".75"/>
      <path d="M16.9819,16.0142c.1285-.0288,4.8052-1.1871,4.8052-1.1871,0,0,.2407-.0825.2026-.2543-.038-.1709-.5727-2.2359-.5727-2.2359,0,0-.0498.0923-.1899.1304,0,0,.2285.8672.0756,1.5762-.1523.7109-1.9194,1.2016-2.1977,1.2793-.2783.0776-2.1231.5527-2.1231.5527,0,0-.1128.1191,0,.1387Z" fill="url(#New_Gradient_268)" fill-rule="evenodd"/>
      <path d="M17.2104,13.5024s.0542.0059.1797-.0092c.1265-.0152,3.9258-1.0352,3.9258-1.0352" fill="none" stroke="#999" stroke-linecap="round" stroke-miterlimit="3.8637" stroke-width=".5"/>
    </g>
    <g>
      <g mask="url(#mask-2)">
        <g>
          <path d="M7.9727,14.1733l.6767-1.8877s-.0176-.1357.2954-.166c.2935-.0278,1.0069-.2075,1.9712-.4106.9512-.2007,1.5718-.4131,1.8804-.4302.3096-.0185.4414.2041.4414.2041,0,0,.4111.4141.9756.96.8095.7846,1.2676.9634,1.3418,1.2827.0503.2187.604,2.2456.604,2.2456,0,0,.0722.2124-.1631.2983-1.0571.2608-4.5547,1.1328-4.7398,1.1773-.2172.0522-.3984.039-.6577-.2617-.1552-.1778-1.9555-1.8799-2.5537-2.5948-.2178-.2246-.0722-.417-.0722-.417Z" fill="url(#New_Gradient_238)" fill-rule="evenodd"/>
          <polygon points="11.2925 14.5098 10.875 17.7603 16.6313 16.4727 15.6636 13.231 11.2925 14.5098" fill="url(#New_Gradient_250)" fill-rule="evenodd"/>
          <path d="M8.2773,11.124s-.1821.1558.0176.3902c.1826.2143,2.69,2.9956,2.8345,3.166.1455.1704.3144.1816.4766.1382.1645-.0435,3.5815-.8926,3.7675-.9434.3619-.0996.0362-.6162.0362-.6162l-2.8174-3.1084-4.315.9736Z" fill="url(#New_Gradient_249)" fill-rule="evenodd"/>
          <path d="M7.9727,14.1733l.6767-1.8877s-.0176-.1357.2954-.166c.2935-.0278,1.0069-.2075,1.9712-.4106.9512-.2007,1.5718-.4131,1.8804-.4302.3096-.0185.4414.2041.4414.2041,0,0,.4111.4141.9756.96.8095.7846,1.2676.9634,1.3418,1.2827.0503.2187.604,2.2456.604,2.2456,0,0,.0722.2124-.1631.2983-1.0571.2608-4.5547,1.1328-4.7398,1.1773-.2172.0522-.3984.039-.6577-.2617-.1552-.1778-1.9555-1.8799-2.5537-2.5948-.2178-.2246-.0722-.417-.0722-.417Z" fill="none" fill-rule="evenodd" stroke="#000" stroke-miterlimit="3.8637" stroke-width="2"/>
        </g>
      </g>
      <g mask="url(#mask-3)">
        <g>
          <path d="M7.9727,14.1733l.6767-1.8877s-.0176-.1357.2954-.166c.2935-.0278.9864-.1792,1.9712-.4106.9463-.2217,1.5718-.4131,1.8804-.4302.3096-.0185.4414.2041.4414.2041,0,0,.2866.5381,1.1909,1.4893.8755.9218.9893.3535,1.1265.7534.0727.2124.604,2.2456.604,2.2456,0,0,.0722.2124-.1631.2983-1.0571.2608-4.5547,1.1328-4.7398,1.1773-.2172.0522-.3984.039-.6577-.2617-.1552-.1778-1.9555-1.8799-2.5537-2.5948-.2178-.2246-.0722-.417-.0722-.417Z" fill="url(#New_Gradient_238-2)" fill-rule="evenodd"/>
          <polygon points="11.2925 14.5098 10.875 17.7603 16.6313 16.4727 15.6636 13.231 11.2925 14.5098" fill="url(#New_Gradient_241)" fill-rule="evenodd"/>
          <path d="M8.2773,11.124s-.1821.1558.0176.3902c.1826.2143,2.69,2.9956,2.8345,3.166.1455.1704.3144.1816.4766.1382.1645-.0435,3.5815-.8926,3.7675-.9434.3619-.0996.0362-.6162.0362-.6162l-2.8174-3.1084-4.315.9736Z" fill="url(#New_Gradient_240)" fill-rule="evenodd"/>
        </g>
      </g>
      <line x1="11.311" y1="14.8213" x2="10.9302" y2="17.2988" fill="none" stroke="gray" stroke-linecap="round" stroke-linejoin="round" stroke-width="1.5"/>
      <path d="M8.8682,12.147s1.0117-.2085,1.9697-.4248c.9668-.2173,1.6128-.399,1.7632-.4273.6093-.1128.4956.0489,1.0327.5381.5835.5288.7637.8477,1.8037,1.6592.1616.1255-.2012.2925-.3447.1445,0,0-.4976-.5058-1.128-1.061-.4506-.398-.5112-.5303-.9365-.9927-.082-.0893-.2944-.0654-.3774-.0493-.1504.0268-.7725.2031-1.7246.418-.9693.2168-2.0069.4458-2.0069.4458-.1792.0229-.2309-.2281-.0512-.2505Z" fill="url(#New_Gradient_229)"/>
      <path d="M8.8755,12.2568s1.8667,1.8003,2.0478,1.9966c.1475.1563.2246.1909.4043.1533.2369-.0493,3.4253-.4941,3.0367-1.4707.1289-.0337,1.0712.4092,1.1528.6748.0268.0874.1333.252-.0513.2813,0,0-3.5903.9595-3.8262,1.0098-.2919.059-.4775-.0264-.6948-.2588-.1816-.1958-2.2407-2.2002-2.2407-2.2002-.1318-.1553.0391-.3413.1714-.1861Z" fill="#fff"/>
      <path d="M10.0718,13.7954l-1.4351-1.4253s-.6621,1.8779-.7002,1.9341c-.0376.0562.0381.187.0381.187l.5454.6323s-.2734-.5283.065-.9961c.4345-.5976,1.4868-.332,1.4868-.332Z" fill="url(#New_Gradient_228)" fill-rule="evenodd"/>
      <path d="M10.7583,17.3223l.3926-2.4976s-.062-.0498-.1514-.1406c-.1645-.168-.7436-.7427-.7436-.7427,0,0,.5669.9795.4648,1.8765-.083.7329-.3848,1.1093-.3848,1.1093l.4224.3951Z" fill="url(#New_Gradient_225)" fill-rule="evenodd"/>
      <line x1="10.7842" y1="17.2388" x2="11.1128" y2="14.8804" fill="none" stroke="#b2b2b2" stroke-linecap="round" stroke-miterlimit="3.8637" stroke-width=".75"/>
      <path d="M11.1509,17.4683c.1269-.0279,4.8052-1.1856,4.8052-1.1856,0,0,.2397-.0849.2021-.2563-.0381-.1704-.5723-2.2364-.5723-2.2364,0,0-.0507.0933-.1899.1309,0,0,.228.8667.0757,1.5767-.1524.7104-1.9195,1.2016-2.1992,1.2797-.2774.0767-2.1216.5518-2.1216.5518,0,0-.1138.1196,0,.1392Z" fill="url(#New_Gradient_224)" fill-rule="evenodd"/>
      <path d="M11.3789,14.9556s.0537.0063.1812-.0093c.1264-.0151,3.9243-1.0347,3.9243-1.0347" fill="none" stroke="#999" stroke-linecap="round" stroke-miterlimit="3.8637" stroke-width=".5"/>
    </g>
    <g>
      <g mask="url(#mask-4)">
        <g>
          <path d="M2.0479,15.6514l.6762-1.8892s-.018-.1352.2959-.166c.2935-.0278,1.0073-.207,1.9712-.4102.9507-.2002,1.5723-.4131,1.8809-.4306.3086-.0176.4414.2055.4414.2055,0,0,.4106.4131.9761.959.8085.7847,1.2666.9634,1.3403,1.2827.0503.2188.605,2.2461.605,2.2461,0,0,.0713.2124-.1641.2974-1.0562.2612-4.5542,1.1333-4.7388,1.1782-.2177.0528-.3984.0391-.6587-.2622-.1547-.1792-1.956-1.8794-2.5522-2.5952-.2192-.2241-.0732-.4155-.0732-.4155Z" fill="url(#New_Gradient_238-3)" fill-rule="evenodd"/>
          <polygon points="5.3687 15.9863 4.9502 19.2373 10.7065 17.9502 9.7388 14.708 5.3687 15.9863" fill="url(#New_Gradient_250-2)" fill-rule="evenodd"/>
          <path d="M2.3521,12.6016s-.1817.1547.0175.3901c.1831.2144,2.6895,2.9946,2.8345,3.1655.146.1704.3145.1826.478.1382.1636-.0434,3.5816-.8921,3.7657-.9433.3637-.0997.0376-.6163.0376-.6163l-2.8179-3.1084-4.3154.9742Z" fill="url(#New_Gradient_249-2)" fill-rule="evenodd"/>
          <path d="M2.0479,15.6514l.6762-1.8892s-.018-.1352.2959-.166c.2935-.0278,1.0073-.207,1.9712-.4102.9507-.2002,1.5723-.4131,1.8809-.4306.3086-.0176.4414.2055.4414.2055,0,0,.4106.4131.9761.959.8085.7847,1.2666.9634,1.3403,1.2827.0503.2188.605,2.2461.605,2.2461,0,0,.0713.2124-.1641.2974-1.0562.2612-4.5542,1.1333-4.7388,1.1782-.2177.0528-.3984.0391-.6587-.2622-.1547-.1792-1.956-1.8794-2.5522-2.5952-.2192-.2241-.0732-.4155-.0732-.4155Z" fill="none" fill-rule="evenodd" stroke="#000" stroke-miterlimit="3.8637" stroke-width="2"/>
        </g>
      </g>
      <g mask="url(#mask-5)">
        <g>
          <path d="M2.0479,15.6514l.6762-1.8892s-.018-.1352.2959-.166c.2935-.0278.9849-.1787,1.9712-.4102.9468-.2216,1.5723-.4131,1.8809-.4306.3086-.0176.4414.2055.4414.2055,0,0,.2851.5376,1.1904,1.4883.876.9224.9888.353,1.126.7534.0722.2124.605,2.2461.605,2.2461,0,0,.0713.2124-.1641.2974-1.0562.2612-4.5542,1.1333-4.7388,1.1782-.2177.0528-.3984.0391-.6587-.2622-.1547-.1792-1.956-1.8794-2.5522-2.5952-.2192-.2241-.0732-.4155-.0732-.4155Z" fill="url(#New_Gradient_238-4)" fill-rule="evenodd"/>
          <polygon points="5.3687 15.9863 4.9502 19.2373 10.7065 17.9502 9.7388 14.708 5.3687 15.9863" fill="url(#New_Gradient_241-2)" fill-rule="evenodd"/>
          <path d="M2.3521,12.6016s-.1817.1547.0175.3901c.1831.2144,2.6895,2.9946,2.8345,3.1655.146.1704.3145.1826.478.1382.1636-.0434,3.5816-.8921,3.7657-.9433.3637-.0997.0376-.6163.0376-.6163l-2.8179-3.1084-4.3154.9742Z" fill="url(#New_Gradient_240-2)" fill-rule="evenodd"/>
        </g>
      </g>
      <line x1="5.3857" y1="16.2983" x2="5.0049" y2="18.7759" fill="none" stroke="gray" stroke-linecap="round" stroke-linejoin="round" stroke-width="1.5"/>
      <path d="M2.9438,13.624s1.0118-.2094,1.9703-.4248c.9663-.2168,1.6108-.3989,1.7627-.4272.6088-.1128.4941.0488,1.0327.5381.583.5293.7627.8476,1.8037,1.6596.1616.125-.2027.292-.3443.1455,0,0-.498-.5068-1.1293-1.0625-.4512-.3984-.5103-.5307-.9356-.9926-.0825-.0889-.2949-.065-.3784-.0494-.1504.0269-.7715.2037-1.7241.418-.9683.2163-2.0078.4463-2.0078.4463-.1788.0225-.23-.228-.0499-.251Z" fill="url(#New_Gradient_229-2)"/>
      <path d="M2.9512,13.7339s1.8662,1.8008,2.0473,1.9966c.147.1577.2246.1909.4053.1533.2363-.0493,3.4243-.4937,3.0357-1.4702.1293-.0337,1.0717.4082,1.1538.6743.0254.0874.1313.2519-.0513.2817,0,0-3.5918.959-3.8276,1.0093-.2911.0601-.4781-.0264-.6944-.2583-.1811-.1963-2.2402-2.2007-2.2402-2.2007-.1328-.1557.0381-.3423.1714-.186Z" fill="#fff"/>
      <path d="M4.1465,15.2729l-1.4356-1.4252s-.6611,1.8774-.6982,1.934c-.0386.0567.0371.1866.0371.1866l.5454.6323s-.2739-.5288.0659-.9961c.4331-.5967,1.4854-.3316,1.4854-.3316Z" fill="url(#New_Gradient_228-2)" fill-rule="evenodd"/>
      <path d="M4.834,18.8003l.3926-2.4985s-.0625-.0498-.1524-.1407c-.165-.1684-.7417-.7417-.7417-.7417,0,0,.5645.979.4639,1.8755-.0825.7329-.3848,1.1099-.3848,1.1099l.4224.3955Z" fill="url(#New_Gradient_225-2)" fill-rule="evenodd"/>
      <line x1="4.8594" y1="18.7158" x2="5.1885" y2="16.3574" fill="none" stroke="#b2b2b2" stroke-linecap="round" stroke-miterlimit="3.8637" stroke-width=".75"/>
      <path d="M5.2266,18.9458c.1269-.0283,4.8037-1.1865,4.8037-1.1865,0,0,.2407-.084.2026-.2559-.0376-.1714-.5723-2.2348-.5723-2.2348,0,0-.0507.0918-.1904.1308,0,0,.2285.8657.0767,1.5752-.1524.7109-1.9199,1.2017-2.1983,1.2798-.2783.0771-2.122.5518-2.122.5518,0,0-.1143.1196,0,.1396Z" fill="url(#New_Gradient_224-2)" fill-rule="evenodd"/>
      <path d="M5.4546,16.4326s.0527.0073.1802-.0088c.1259-.0151,3.9253-1.0346,3.9253-1.0346" fill="none" stroke="#999" stroke-linecap="round" stroke-miterlimit="3.8637" stroke-width=".5"/>
    </g>
    <g>
      <g mask="url(#mask-6)">
        <g>
          <path d="M13.0762,16.9351l.6762-1.8892s-.0175-.1353.2955-.1655c.2939-.0279,1.0068-.2071,1.9716-.4097.9507-.2012,1.5718-.4136,1.8804-.4311.3086-.0186.4409.2055.4409.2055,0,0,.4116.4126.9761.959.8086.7842,1.2676.9634,1.3418,1.2827.0498.2188.6045,2.2461.6045,2.2461,0,0,.0713.2129-.1646.2979-1.0566.2607-4.5542,1.1328-4.7382,1.1777-.2183.0522-.3995.0386-.6587-.2622-.1558-.1782-1.9556-1.8794-2.5523-2.5952-.2187-.2237-.0732-.416-.0732-.416Z" fill="url(#New_Gradient_206)" fill-rule="evenodd"/>
          <polygon points="16.396 17.2705 15.9785 20.5225 21.7344 19.2334 20.7666 15.9917 16.396 17.2705" fill="url(#New_Gradient_223)" fill-rule="evenodd"/>
          <path d="M13.3799,13.8857s-.1817.1548.018.3897c.1827.2148,2.6895,2.9951,2.8345,3.166.1455.1704.3145.1826.4766.1377.165-.043,3.5815-.8921,3.7676-.9429.3632-.0996.0356-.6162.0356-.6162l-2.8164-3.1084-4.3159.9741Z" fill="url(#New_Gradient_221)" fill-rule="evenodd"/>
          <path d="M13.0762,16.9351l.6762-1.8892s-.0175-.1353.2955-.1655c.2939-.0279,1.0068-.2071,1.9716-.4097.9507-.2012,1.5718-.4136,1.8804-.4311.3086-.0186.4409.2055.4409.2055,0,0,.4116.4126.9761.959.8086.7842,1.2676.9634,1.3418,1.2827.0498.2188.6045,2.2461.6045,2.2461,0,0,.0713.2129-.1646.2979-1.0566.2607-4.5542,1.1328-4.7382,1.1777-.2183.0522-.3995.0386-.6587-.2622-.1558-.1782-1.9556-1.8794-2.5523-2.5952-.2187-.2237-.0732-.416-.0732-.416Z" fill="none" fill-rule="evenodd" stroke="#000" stroke-miterlimit="3.8637" stroke-width="2"/>
        </g>
      </g>
      <g mask="url(#mask-7)">
        <g>
          <path d="M13.0762,16.9351l.6762-1.8892s-.0175-.1353.2955-.1655c.2939-.0279.9858-.1787,1.9716-.4097.9458-.2222,1.5718-.4136,1.8804-.4311.3086-.0186.4409.2055.4409.2055,0,0,.2862.5366,1.1914,1.4883.8755.9224.9883.353,1.1265.7534.0723.2124.6045,2.2461.6045,2.2461,0,0,.0713.2129-.1646.2979-1.0566.2607-4.5542,1.1328-4.7382,1.1777-.2183.0522-.3995.0386-.6587-.2622-.1558-.1782-1.9556-1.8794-2.5523-2.5952-.2187-.2237-.0732-.416-.0732-.416Z" fill="url(#New_Gradient_206-2)" fill-rule="evenodd"/>
          <polygon points="16.396 17.2705 15.9785 20.5225 21.7344 19.2334 20.7666 15.9917 16.396 17.2705" fill="url(#New_Gradient_220)" fill-rule="evenodd"/>
          <path d="M13.3799,13.8857s-.1817.1548.018.3897c.1827.2148,2.6895,2.9951,2.8345,3.166.1455.1704.3145.1826.4766.1377.165-.043,3.5815-.8921,3.7676-.9429.3632-.0996.0356-.6162.0356-.6162l-2.8164-3.1084-4.3159.9741Z" fill="url(#New_Gradient_219)" fill-rule="evenodd"/>
        </g>
      </g>
      <line x1="16.4146" y1="17.582" x2="16.0337" y2="20.0596" fill="none" stroke="gray" stroke-linecap="round" stroke-linejoin="round" stroke-width="1.5"/>
      <path d="M13.9717,14.9077s1.0117-.208,1.9692-.4243c.9683-.2168,1.6128-.3989,1.7627-.4268.6104-.1132.4961.0484,1.0337.5376.583.5293.7632.8477,1.8042,1.6597.1611.125-.2021.292-.3452.1445,0,0-.4981-.5053-1.1284-1.0615-.4512-.3984-.5113-.5307-.9361-.9927-.0825-.0888-.2944-.0649-.3779-.0493-.1504.0279-.7729.2036-1.7241.418-.9697.2163-2.0078.4458-2.0078.4458-.1787.0234-.231-.2275-.0503-.251Z" fill="url(#New_Gradient_205)"/>
      <path d="M13.98,15.0181s1.8657,1.8007,2.0469,1.9965c.1469.1578.2241.1905.4047.1529.2364-.0488,3.4239-.4932,3.0357-1.4697.1299-.0342,1.0713.4082,1.1543.6748.0259.0878.1313.2514-.0523.2812,0,0-3.5908.96-3.8266,1.0093-.2915.0605-.4776-.0259-.6948-.2583-.1807-.1968-2.2403-2.2007-2.2403-2.2007-.1323-.1562.0381-.3423.1724-.186Z" fill="#fff"/>
      <path d="M15.1743,16.5576l-1.435-1.4258s-.6612,1.8775-.6988,1.9336c-.039.0562.0376.1866.0376.1866l.544.6328s-.272-.5293.0669-.9961c.4336-.5967,1.4853-.3311,1.4853-.3311Z" fill="url(#New_Gradient_204)" fill-rule="evenodd"/>
      <path d="M15.8618,20.0845l.3931-2.4991s-.0635-.0493-.1528-.1406c-.1646-.1675-.7427-.7417-.7427-.7417,0,0,.5659.9795.4648,1.876-.0835.7329-.3847,1.1094-.3847,1.1094l.4223.396Z" fill="url(#New_Gradient_203)" fill-rule="evenodd"/>
      <line x1="15.8872" y1="20" x2="16.2153" y2="17.6416" fill="none" stroke="#b2b2b2" stroke-linecap="round" stroke-miterlimit="3.8637" stroke-width=".75"/>
      <path d="M16.2549,20.23c.1269-.0283,4.8042-1.1865,4.8042-1.1865,0,0,.2397-.084.2021-.2559-.0381-.1714-.5722-2.2349-.5722-2.2349,0,0-.0513.0918-.1905.1309,0,0,.2286.8652.0762,1.5752-.1518.7109-1.9199,1.2016-2.1992,1.2798-.2774.0771-2.1206.5517-2.1206.5517,0,0-.1143.1201,0,.1397Z" fill="url(#New_Gradient_202)" fill-rule="evenodd"/>
      <path d="M16.4819,17.7168s.0537.0073.1812-.0093c.1265-.0146,3.9248-1.0342,3.9248-1.0342" fill="none" stroke="#999" stroke-linecap="round" stroke-miterlimit="3.8637" stroke-width=".5"/>
    </g>
    <g>
      <g mask="url(#mask-8)">
        <g>
          <path d="M7.1504,18.4116l.6767-1.8882s-.018-.1352.2964-.166c.293-.0268,1.0074-.207,1.9698-.4096.9531-.2007,1.5732-.4122,1.8823-.4307.3081-.0176.4404.2051.4404.2051,0,0,.4111.4126.9761.9599.8096.7832,1.2666.9634,1.3413,1.2813.0498.2192.6045,2.247.6045,2.247,0,0,.0718.2125-.1641.2974-1.0556.2608-4.5537,1.1328-4.7383,1.1777-.2182.0528-.3994.0386-.6586-.2612-.1553-.1787-1.9566-1.8794-2.5528-2.5957-.2187-.2251-.0737-.417-.0737-.417Z" fill="url(#New_Gradient_206-3)" fill-rule="evenodd"/>
          <polygon points="10.4712 18.7476 10.0527 22 15.8096 20.7109 14.8413 17.4688 10.4712 18.7476" fill="url(#New_Gradient_223-2)" fill-rule="evenodd"/>
          <path d="M7.4556,15.3633s-.1817.1548.0185.3896c.1817.2144,2.6885,2.9947,2.833,3.1656.1465.1709.315.1831.4781.1391.1635-.0449,3.5815-.8935,3.7661-.9443.3623-.0996.0376-.6162.0376-.6162l-2.8184-3.1079-4.3149.9741Z" fill="url(#New_Gradient_221-2)" fill-rule="evenodd"/>
          <path d="M7.1504,18.4116l.6767-1.8882s-.018-.1352.2964-.166c.293-.0268,1.0074-.207,1.9698-.4096.9531-.2007,1.5732-.4122,1.8823-.4307.3081-.0176.4404.2051.4404.2051,0,0,.4111.4126.9761.9599.8096.7832,1.2666.9634,1.3413,1.2813.0498.2192.6045,2.247.6045,2.247,0,0,.0718.2125-.1641.2974-1.0556.2608-4.5537,1.1328-4.7383,1.1777-.2182.0528-.3994.0386-.6586-.2612-.1553-.1787-1.9566-1.8794-2.5528-2.5957-.2187-.2251-.0737-.417-.0737-.417Z" fill="none" fill-rule="evenodd" stroke="#000" stroke-miterlimit="3.8637" stroke-width="2"/>
        </g>
      </g>
      <g mask="url(#mask-9)">
        <g>
          <path d="M7.1504,18.4116l.6767-1.8882s-.018-.1352.2964-.166c.293-.0268.9849-.1792,1.9698-.4096.9482-.2222,1.5732-.4122,1.8823-.4307.3081-.0176.4404.2051.4404.2051,0,0,.2871.5371,1.1909,1.4887.876.9229.9903.3531,1.1265.7525.0732.2129.6045,2.247.6045,2.247,0,0,.0718.2125-.1641.2974-1.0556.2608-4.5537,1.1328-4.7383,1.1777-.2182.0528-.3994.0386-.6586-.2612-.1553-.1787-1.9566-1.8794-2.5528-2.5957-.2187-.2251-.0737-.417-.0737-.417Z" fill="url(#New_Gradient_206-4)" fill-rule="evenodd"/>
          <polygon points="10.4712 18.7476 10.0527 22 15.8096 20.7109 14.8413 17.4688 10.4712 18.7476" fill="url(#New_Gradient_220-2)" fill-rule="evenodd"/>
          <path d="M7.4556,15.3633s-.1817.1548.0185.3896c.1817.2144,2.6885,2.9947,2.833,3.1656.1465.1709.315.1831.4781.1391.1635-.0449,3.5815-.8935,3.7661-.9443.3623-.0996.0376-.6162.0376-.6162l-2.8184-3.1079-4.3149.9741Z" fill="url(#New_Gradient_219-2)" fill-rule="evenodd"/>
        </g>
      </g>
      <line x1="10.4888" y1="19.0596" x2="10.1084" y2="21.5366" fill="none" stroke="gray" stroke-linecap="round" stroke-linejoin="round" stroke-width="1.5"/>
      <path d="M8.0469,16.3862s1.0112-.2094,1.9702-.4248c.9668-.2168,1.6113-.3999,1.7627-.4272.6089-.1138.4946.0488,1.0327.5366.5825.5298.7632.8491,1.8042,1.6602.1611.125-.2031.2919-.3452.1455,0,0-.4981-.5069-1.1284-1.0625-.4512-.3975-.5108-.5303-.9361-.9927-.0825-.0889-.2949-.0645-.3779-.0488-.1504.0278-.7715.2026-1.7256.417-.9668.2172-2.0054.4467-2.0054.4467-.1801.0235-.2309-.2275-.0512-.25Z" fill="url(#New_Gradient_205-2)"/>
      <path d="M8.0542,16.4951s1.8667,1.8013,2.0469,1.9961c.1474.1577.2251.1914.4057.1533.2364-.0488,3.4244-.4931,3.0362-1.4692.1284-.0347,1.0717.4077,1.1528.6743.0264.0884.1323.2515-.0508.2813,0,0-3.5903.9604-3.8271,1.0092-.2915.0611-.4785-.0249-.6953-.2578-.1802-.1958-2.2398-2.2002-2.2398-2.2002-.1328-.1567.0391-.3432.1714-.187Z" fill="#fff"/>
      <path d="M9.2495,18.0342l-1.4355-1.4243s-.6617,1.8759-.6983,1.9326c-.0381.0561.0366.1865.0366.1865l.5459.6328s-.2734-.5288.066-.9961c.4331-.5971,1.4853-.3315,1.4853-.3315Z" fill="url(#New_Gradient_204-2)" fill-rule="evenodd"/>
      <path d="M9.9375,21.5615l.3916-2.4985s-.062-.0503-.1514-.1397c-.1645-.1689-.7426-.7421-.7426-.7421,0,0,.5649.9785.4643,1.8745-.082.7334-.3843,1.1098-.3843,1.1098l.4224.396Z" fill="url(#New_Gradient_203-2)" fill-rule="evenodd"/>
      <line x1="9.9619" y1="21.4775" x2="10.2915" y2="19.1187" fill="none" stroke="#b2b2b2" stroke-linecap="round" stroke-miterlimit="3.8637" stroke-width=".75"/>
      <path d="M10.3291,21.707c.127-.0283,4.8047-1.1865,4.8047-1.1865,0,0,.2417-.084.2021-.2563-.038-.17-.5717-2.2344-.5717-2.2344,0,0-.0503.0918-.1905.1308,0,0,.2285.8653.0757,1.5752-.1518.711-1.9184,1.2012-2.1977,1.2793-.2774.0772-2.1226.5523-2.1226.5523,0,0-.1138.1201,0,.1396Z" fill="url(#New_Gradient_202-2)" fill-rule="evenodd"/>
      <path d="M10.5581,19.1943s.0527.0074.1797-.0083c.1265-.0161,3.9248-1.0356,3.9248-1.0356" fill="none" stroke="#999" stroke-linecap="round" stroke-miterlimit="3.8637" stroke-width=".5"/>
    </g>
    <path d="M17.9355,11.6553c-.061.0429-.1997.1176-.4106.1738l-.0269.1074c.1333-.0205.2896.0049.3487.0894.0888.125-.0469.2168-.2432.2656-.0796.0205-.187.0293-.2602.0195l-.0142-.1035c.0684.0059.1426,0,.209-.0166.0806-.0195.1382-.0542.1011-.1055-.043-.0561-.1607-.0551-.334-.0214l.0337-.1973c-.4444.0708-.8594-.0664-1.0616-.3545-.2255-.3218-.0366-.645.5103-.7822.1797-.0449.3638-.0571.4668-.0498l.0322.1616c-.0903-.0054-.2221-.0029-.393.0395-.3829.0958-.4659.3272-.3135.545.1699.2422.5259.3291.8594.2461.1704-.043.2719-.1016.3403-.1436l.1557.1265Z" fill="#666"/>
    <path d="M11.2646,12.1572c.584-.1455,1.2525.0386,1.5103.4053.2612.3716.0112.7856-.5767.9321-.5922.146-1.267-.0351-1.5283-.4072-.2578-.3677-.001-.7812.5913-.9292l.0034-.001ZM11.3232,12.2466c-.4975.1235-.7011.4751-.4711.8032.2265.3228.7866.48,1.2866.3545.4936-.1177.6963-.4702.4658-.7988-.2261-.3228-.7876-.4829-1.2783-.3599l-.003.001ZM11.981,12.4736c-.0577-.0063-.2105-.0083-.378.0332-.3232.0801-.3921.2495-.2715.4234.1192.1694.3853.2617.7017.1831.1431-.0352.2583-.0923.3154-.145l.1001.0722c-.0879.0806-.2392.1382-.3808.1739-.4038.1001-.7588-.0142-.9116-.233-.1734-.2456.0307-.4799.3823-.5683.1811-.0449.3564-.0503.4233-.0361l.0191.0966Z" fill="#666"/>
    <path d="M5.4536,15.415l-.6855-.977c-.1719-.2456-.1748-.4077-.0796-.5337.0771-.106.2178-.1836.4262-.2358.334-.0835.7134-.0279.8804.2099.0508.0733.0567.1509.0435.1978-.1275.0796-.1792.164-.1275.2373.0523.0737.1538.1011.3096.144.1987.0523.4063.107.5151.2627.1436.2027.0049.4024-.3823.499-.1308.0323-.2764.0537-.3994.0464l-.0469-.1587c.1109.0054.2188-.0039.3238-.0302.2221-.0547.2817-.167.2128-.2657-.0639-.0908-.1723-.1357-.3442-.1762-.207-.0498-.3877-.0987-.4731-.2202-.0772-.1104-.0362-.2315.1235-.3433.0024-.0308-.0083-.063-.0347-.0996-.1045-.1499-.3144-.1992-.5268-.1465-.2681.0669-.3355.2207-.1201.5288l.6914.9849-.3062.0761Z" fill="#666"/>
    <path d="M17.3955,16.0107c.0635.0894.1333.1768.2007.2442l-.2754.0679-.1196-.1241-.0108.002c-.0327.1045-.1655.2251-.4057.2842-.3409.0849-.6201-.0205-.7261-.1724-.1768-.2529.0874-.481.7402-.6416l-.0151-.0205c-.0615-.0869-.2109-.2354-.5532-.1475-.1597.0401-.3042.1089-.3872.1885l-.1592-.1103c.1015-.0889.2812-.1758.4922-.229.519-.1299.7973.0576.9453.2675l.2739.3911ZM16.8979,15.8018c-.3374.0791-.6909.2099-.5488.4126.0884.1264.2598.1489.4141.1103.2217-.0542.3042-.1768.291-.2778-.0039-.0215-.0151-.0449-.0293-.0635l-.127-.1816ZM15.8779,14.854c.2075-.0518.4068.0029.4864.1182.0786.1123-.0103.2358-.208.2851-.2095.0528-.4175.0005-.4937-.1103-.0796-.1123-.0029-.2383.2119-.292l.0034-.001ZM15.9243,14.9395c-.1035.0263-.1308.0986-.0849.1635.0405.0586.1523.0996.2553.0733.1114-.0274.1431-.0996.0977-.1636-.0454-.0654-.1524-.1021-.2642-.0742l-.0039.001Z" fill="#666"/>
    <path d="M11.1841,16.9419c.1665.2383.4946.3081.8174.2275.2099-.0512.3178-.1137.4116-.1704l.1504.1197c-.1026.081-.3125.1621-.4966.2075-.292.0732-.5889.0581-.8413-.0801l-.0064.0019c-.0053.2022-.2197.3443-.4775.4087-.4458.1109-.9331-.0141-1.1655-.3442-.2393-.3418-.0332-.6416.4184-.7549.2857-.0708.5928-.0405.8096.0933l.0073-.0015c.0064-.2002.1787-.3398.4385-.4048.5439-.1352.896.1353,1.0264.3208.0263.0371.0478.0728.0537.0943l-1.146.2822ZM10.0942,16.7012c-.3637.0908-.3339.3501-.208.5283.1592.2275.4908.3506.7793.2788.2964-.0732.3809-.2852.2105-.5273-.1402-.1993-.4326-.3672-.7779-.2808l-.0039.001ZM11.9438,16.5923c-.0776-.1177-.2875-.2886-.6254-.2041-.3018.0752-.3086.2827-.2369.4199l.8623-.2158Z" fill="#666"/>
  </g>
  <g>
    <g mask="url(#mask-10)">
      <g>
        <polygon points="10.6689 7.9619 7.5 5.5 8.8896 5.1533 8.3867 3.1387 10.4541 2.623 10.9551 4.6387 12.3105 4.3008 10.6689 7.9619" fill="url(#New_Gradient_181)"/>
        <polygon points="5.373 3.8965 10.1133 2.2407 10.79 4.9541 11.8779 4.6826 10.3516 8.0566 5.373 3.8965" fill="url(#New_Gradient_194)" fill-rule="evenodd"/>
        <polygon points="10.6689 7.9619 7.5 5.5 8.8896 5.1533 8.3867 3.1387 10.4541 2.623 10.9551 4.6387 12.3105 4.3008 10.6689 7.9619" fill="none" stroke="#000" stroke-linecap="round" stroke-linejoin="round" stroke-width="2"/>
      </g>
    </g>
    <g mask="url(#mask-11)">
      <g>
        <polygon points="10.6689 7.9619 7.5 5.5 8.8896 5.1533 8.3867 3.1387 10.4541 2.623 10.9551 4.6387 12.3105 4.3008 10.6689 7.9619" fill="url(#New_Gradient_181-2)"/>
        <polygon points="5.373 3.8965 10.1133 2.2407 10.79 4.9541 11.8779 4.6826 10.3516 8.0566 5.373 3.8965" fill="url(#New_Gradient_194)" fill-rule="evenodd"/>
      </g>
    </g>
  </g>
</svg>