<?xml version="1.0" encoding="UTF-8"?>
<svg id="Layer_1" data-name="Layer 1" xmlns="http://www.w3.org/2000/svg" width="24" height="24" xmlns:xlink="http://www.w3.org/1999/xlink" viewBox="0 0 24 24">
  <defs>
    <linearGradient id="New_Gradient_252" data-name="New Gradient 252" x1="8.3213415" y1="8.6586023" x2="16.5981568" y2="15.8535281" gradientUnits="userSpaceOnUse">
      <stop offset="0" stop-color="#e5e5e5"/>
      <stop offset="1" stop-color="#fff"/>
    </linearGradient>
    <mask id="mask" x="1.9967246" y="12.3545142" width="13.1707325" height="11.2659148" maskUnits="userSpaceOnUse">
      <path d="M7.9702,13.6543c3.19.189,5.69,2.2061,5.582,4.5059-.1064,2.3002-2.7793,4.0122-5.9702,3.8232-3.1894-.1875-5.6884-2.2051-5.582-4.5054.1089-2.3003,2.7808-4.0117,5.9702-3.8237Z" fill="#fff" fill-rule="evenodd"/>
    </mask>
    <linearGradient id="linear-gradient" x1="2.5011077" y1="20.4155514" x2="13.1501153" y2="15.1746896" gradientUnits="userSpaceOnUse">
      <stop offset="0" stop-color="#2c6eb2"/>
      <stop offset=".213483" stop-color="#fff"/>
    </linearGradient>
    <linearGradient id="linear-gradient-2" x1="1.4982478" y1="23.0714774" x2="14.4312623" y2="17.6083848" gradientUnits="userSpaceOnUse">
      <stop offset="0" stop-color="#fff"/>
      <stop offset=".0659937" stop-color="#d7d9e1"/>
      <stop offset=".1372393" stop-color="#b5b8c7"/>
      <stop offset=".2162204" stop-color="#989bb1"/>
      <stop offset=".3033519" stop-color="#80849f"/>
      <stop offset=".4021126" stop-color="#6e7291"/>
      <stop offset=".5192141" stop-color="#616687"/>
      <stop offset=".672578" stop-color="#5a5f81"/>
      <stop offset="1" stop-color="#585d80"/>
    </linearGradient>
    <mask id="mask-1" x="1.9967246" y="12.0720482" width="13.1980225" height="10.0576236" maskUnits="userSpaceOnUse">
      <path d="M7.9702,13.2505c3.19.167,5.69,1.959,5.582,4.0034-.1064,2.043-2.7793,3.5645-5.9702,3.3965-3.1894-.167-5.6884-1.959-5.582-4.0034.1089-2.043,2.7808-3.5645,5.9702-3.3965Z" fill="#fff" fill-rule="evenodd"/>
    </mask>
    <linearGradient id="linear-gradient-3" x1="-.3218588" y1="22.1859775" x2="10.7225224" y2="15.0461863" gradientUnits="userSpaceOnUse">
      <stop offset="0" stop-color="#fff"/>
      <stop offset=".193443" stop-color="#c3dffc"/>
      <stop offset=".5249655" stop-color="#62abf7"/>
      <stop offset=".674157" stop-color="#3c97f6"/>
    </linearGradient>
    <linearGradient id="linear-gradient-4" x1="2.9159123" y1="22.1264479" x2="12.5051892" y2="17.9450853" gradientUnits="userSpaceOnUse">
      <stop offset="0" stop-color="#fff"/>
      <stop offset=".5218671" stop-color="#a7abcf"/>
      <stop offset=".780899" stop-color="#8187ba"/>
    </linearGradient>
    <mask id="mask-2" x="8.7256" y="3.8413" width="10.4516" height="5.0371" maskUnits="userSpaceOnUse">
      <polygon points="12.1445 8.8784 18.938 7.1821 15.8755 4.1182 9.0615 5.8008 12.1445 8.8784" fill="#fff" fill-rule="evenodd"/>
    </mask>
  </defs>
  <line x1="5.0537" y1="10.5845" x2="8.5083" y2="9.7046" fill="none" stroke="#999" stroke-linecap="round" stroke-miterlimit="3.8637" stroke-width=".7125"/>
  <g>
    <polygon points="11.271 17.939 22.3037 15.2246 13.6694 6.5913 2.6006 9.2764 11.271 17.939" fill="url(#New_Gradient_252)" fill-rule="evenodd" stroke="#000" stroke-linecap="round" stroke-linejoin="round" stroke-width="2"/>
    <polygon points="11.271 17.939 22.3037 15.2246 13.6694 6.5913 2.6006 9.2764 11.271 17.939" fill="url(#New_Gradient_252)" fill-rule="evenodd"/>
    <line x1="6.1372" y1="10.8071" x2="10.4429" y2="9.7305" fill="none" stroke="#999" stroke-linecap="round" stroke-miterlimit="3.8637" stroke-width=".7125"/>
    <line x1="7.4326" y1="12.1011" x2="14.5205" y2="10.3193" fill="none" stroke="#999" stroke-linecap="round" stroke-miterlimit="3.8637" stroke-width=".7125"/>
    <line x1="8.1333" y1="12.8018" x2="15.3291" y2="10.9937" fill="none" stroke="#999" stroke-linecap="round" stroke-miterlimit="3.8637" stroke-width=".7125"/>
    <line x1="8.834" y1="13.5024" x2="14.8008" y2="11.9873" fill="none" stroke="#999" stroke-linecap="round" stroke-miterlimit="3.8637" stroke-width=".7125"/>
    <line x1="10.248" y1="14.9155" x2="13.9438" y2="14.0024" fill="none" stroke="#999" stroke-linecap="round" stroke-miterlimit="3.8637" stroke-width=".7125"/>
    <g>
      <path d="M11.4946,15.519c.021.0474.0386.0796.0552.126-.0142-.0674-.0405-.1465-.1108-.1465-.1548,0-.1641.2144-.1641.3702,0,.2158.1343.4301.3521.4301.2607,0,.4541-.1582.5219-.4189-.0122.0298-.0361.0444-.0361.0762v.1079h.0679c.0737,0,.1381-.0581.1381-.1309v-.147c-.0063.0259-.0185.0445-.0185.0713,0,.0576.0708.0791.1294.0791.0991,0,.1401-.0791.188-.1748.0381.0391.0639.0718.1167.0718.0761,0,.1079-.0503.1645-.106.0205.0108.0298.0357.0557.0357.0845,0,.1108-.086.1865-.1182.0415.1382.106.1939.1533.3374" fill="none" stroke="#0342d3" stroke-linecap="round" stroke-linejoin="round" stroke-width=".3545"/>
      <path d="M13.3774,15.062c.0088.1817.0489.2852.0674.4658" fill="none" stroke="#0342d3" stroke-linecap="round" stroke-linejoin="round" stroke-width=".3545"/>
      <path d="M13.3647,15.144l-.0322.0796c.1358-.0771.1997-.1416.3472-.1938.0029.0176.0224.0268.0224.0473,0,.1202-.0585.1788-.0698.2989.1587-.0879.252-.1377.4331-.1768.0147.0332.0352.0567.0352.0943,0,.0673-.023.1025-.0464.1645l.0352-.0117" fill="none" stroke="#0342d3" stroke-linecap="round" stroke-linejoin="round" stroke-width=".3545"/>
      <path d="M14.2446,15.0156l-.02.044c.1118-.0298.1489-.1031.2539-.1348v.2744c.0772-.1396.1182-.2192.2319-.334.0704.0708.0206.1807.0938.253.1499-.2007.2227-.3345.4082-.4986.0942.1265.0298.3638.1875.3638.1279,0,.1606-.1284.2344-.2349-.0215.0381-.0386.0625-.0591.1065l.0469.0102c.0971-.0542.1474-.1103.247-.164v.0713c.0176.0024.0293.0112.0494.0112.1147,0,.1704-.0674.2548-.1406.0093.041.0064.0942.0474.0942.2051,0,.3047-.1177.4805-.2231" fill="none" stroke="#0342d3" stroke-linecap="round" stroke-linejoin="round" stroke-width=".3545"/>
    </g>
  </g>
  <g>
    <path d="M13.5522,17.2539c.108-2.0444-2.392-3.8364-5.582-4.0034-3.1894-.168-5.8613,1.3535-5.9702,3.3965-.0093.1787.0034.3545.0317.5273-.0146.1006-.0263.2012-.0317.3037-.1064,2.3003,2.3926,4.3179,5.582,4.5054,3.1909.189,5.8638-1.523,5.9702-3.8232.0103-.209-.0029-.4156-.0346-.6187.0171-.0942.0298-.1904.0346-.2876Z" fill="#2c6eb2" fill-rule="evenodd" stroke="#000" stroke-width="2"/>
    <g mask="url(#mask)">
      <g>
        <path d="M7.9702,13.6543c3.19.189,5.69,2.2061,5.582,4.5059-.1064,2.3002-2.7793,4.0122-5.9702,3.8232-3.1894-.1875-5.6884-2.2051-5.582-4.5054.1089-2.3003,2.7808-4.0117,5.9702-3.8237Z" fill="url(#linear-gradient)" fill-rule="evenodd"/>
        <polygon points="3.8638 17.8003 3.8755 21.2651 11.0015 23.3291 14.7007 17.7271 3.8638 17.8003" fill="url(#linear-gradient-2)" fill-rule="evenodd" stroke="#585d80" stroke-width=".5"/>
        <polygon points="7.6753 17.7271 8.792 12.7261 14.3892 15.6318 7.6753 17.7271" fill="#ff7845" fill-rule="evenodd" stroke="#000" stroke-width=".5"/>
      </g>
    </g>
    <g mask="url(#mask-1)">
      <g>
        <path d="M7.9702,13.2505c3.19.167,5.69,1.959,5.582,4.0034-.1064,2.043-2.7793,3.5645-5.9702,3.3965-3.1894-.167-5.6884-1.959-5.582-4.0034.1089-2.043,2.7808-3.5645,5.9702-3.3965Z" fill="url(#linear-gradient-3)" fill-rule="evenodd"/>
        <polygon points="7.6753 16.8062 3.3804 19.8853 11.0015 21.8457 14.7007 16.8687 7.6753 16.8062" fill="url(#linear-gradient-4)" fill-rule="evenodd" stroke="#8187ba" stroke-width=".5"/>
        <polygon points="7.6753 16.8687 14.5142 17.4268 13.2725 14.5981 7.6753 16.8687" fill="#65d081" fill-rule="evenodd" stroke="#4b995f" stroke-width=".5"/>
        <polygon points="7.6753 16.8687 8.792 12.4253 14.3892 15.0068 7.6753 16.8687" fill="#ff7845" fill-rule="evenodd" stroke="#cc6037" stroke-width=".5"/>
      </g>
    </g>
  </g>
  <g>
    <path d="M6.041,4.8467c-.0029-.0347-.0029-.0679.001-.1016.0327-.2588.2373-.4629.5884-.5503l8.8916-2.1948c.1323-.0327.5561.085.6533.1831l5.582,5.5806c.2398.2412.3135.5019.2407.7207.0054.4101-.0112.8061-.5625.9443l-8.8647,2.2153c-.1333.0332-.5566-.0839-.6558-.1816l-5.6894-5.6914c-.1914-.2388-.1885-.6187-.1846-.9243Z" fill="#b2b2b2" stroke="#000" stroke-miterlimit="3.8637" stroke-width="2"/>
    <g>
      <path d="M21.4355,9.4287l-8.8647,2.2153c-.1333.0332-.5566-.0839-.6558-.1816l-5.6894-5.6914c-.2168-.2705-.1836-.7231-.1836-1.041l9.48-2.2241c.1323-.0332.5561.0849.6533.1821l5.8208,5.6157c0,.4688.0718.9673-.5606,1.125Z" fill="#b2b2b2"/>
      <path d="M21.4355,8.9233l-8.8647,2.2144c-.1333.0342-.5566-.084-.6558-.1812l-5.6069-5.602c-.4614-.4619-.312-1.0024.3223-1.1597l8.8916-2.1948c.1323-.0327.5561.085.6533.1831l5.582,5.5806c.461.4614.3106,1.0009-.3218,1.1596Z" fill="#e5e5e5"/>
      <g mask="url(#mask-2)">
        <g>
          <polygon points="12.1445 8.8784 18.938 7.1821 15.8755 4.1182 9.0615 5.8008 12.1445 8.8784" fill="#3c97f6" fill-rule="evenodd"/>
          <polygon points="9.0103 6.0898 15.8564 4.4116 19.1094 7.6479 19.1772 7.0444 16.0068 3.8413 8.7256 5.6685 9.0103 6.0898" fill="#032c87" fill-rule="evenodd"/>
        </g>
      </g>
      <path d="M8.5435,4.6411c.2446,0,.4423.1465.4423.3272,0,.1816-.1977.3276-.4423.3276-.2442,0-.4429-.146-.4429-.3276,0-.1807.1987-.3272.4429-.3272Z" fill="#999"/>
      <path d="M14.8774,3.0566c.2437,0,.4414.147.4414.3272,0,.1811-.1977.3276-.4414.3276-.2456,0-.4448-.1465-.4448-.3276,0-.1802.1992-.3272.4448-.3272Z" fill="#999"/>
      <path d="M13.2529,9.3511c.2447,0,.4434.1465.4434.3266,0,.1817-.1987.3282-.4434.3282-.2446,0-.4424-.1465-.4424-.3282,0-.1801.1978-.3266.4424-.3266Z" fill="#999"/>
      <polyline points="10.0176 6.1899 15.7554 4.7969 17.9531 6.978" fill="none" stroke="#78dcff" stroke-linecap="round" stroke-linejoin="round" stroke-width=".5229"/>
    </g>
  </g>
  <path d="M19.8877,7.9634c.2436,0,.4414.1465.4414.3281,0,.1802-.1978.3281-.4414.3281-.2461,0-.4439-.1479-.4439-.3281,0-.1816.1978-.3281.4439-.3281Z" fill="#999"/>
</svg>