<?xml version='1.0' encoding='UTF-8'?>
<svg xmlns="http://www.w3.org/2000/svg" xmlns:xlink="http://www.w3.org/1999/xlink" id="Layer_1" data-name="Layer 1" width="24" height="24" viewBox="0 0 24 24">
  <defs>
    <mask id="mask" x="1.9746673" y="8.4609" width="23.5144456" height="13.5391" maskUnits="userSpaceOnUse">
      <polygon points="10.7188 20.959 20.8506 18.4326 20.8359 17.0713 13.1748 9.4102 3.0273 11.915 3.0439 13.2832 10.7188 20.959" fill="#fff" fill-rule="evenodd"/>
    </mask>
    <mask id="mask-1" x="2.3164" y="11.4331" width="9.0159107" height="10.5669" maskUnits="userSpaceOnUse">
      <rect x="2.3164" y="11.4331" width="8.4126" height="10.5669" fill="#fff"/>
    </mask>
    <mask id="mask-2" x="1.9746673" y="8.4609" width="19.5769781" height="11.4570715" maskUnits="userSpaceOnUse">
      <polygon points="10.7188 19.6152 20.8359 17.0713 13.3291 8.4609 3.0273 11.915 10.7188 19.6152" fill="#fff" fill-rule="evenodd"/>
    </mask>
    <linearGradient id="New_Gradient_6" data-name="New Gradient 6" x1="8.1756714" y1="10.6927924" x2="15.7669677" y2="17.2918057" gradientUnits="userSpaceOnUse">
      <stop offset="0" stop-color="#e5e5e5"/>
      <stop offset="1" stop-color="#fff"/>
    </linearGradient>
    <linearGradient id="New_Gradient_5" data-name="New Gradient 5" x1="11.53905" y1="8.4823992" x2="11.53905" y2="10.63975" gradientUnits="userSpaceOnUse">
      <stop offset="0" stop-color="#4c4c4c"/>
      <stop offset="1" stop-color="gray"/>
    </linearGradient>
    <linearGradient id="New_Gradient_5-2" data-name="New Gradient 5" x1="9.52345" y1="8.9839" x2="9.52345" y2="11.141375" gradientUnits="userSpaceOnUse"><stop offset="0" stop-color="#4c4c4c"/><stop offset="1" stop-color="gray"/></linearGradient>
    <linearGradient id="New_Gradient_5-3" data-name="New Gradient 5" x1="7.50785" y1="9.4854" x2="7.50785" y2="11.643025" gradientUnits="userSpaceOnUse"><stop offset="0" stop-color="#4c4c4c"/><stop offset="1" stop-color="gray"/></linearGradient>
    <linearGradient id="New_Gradient_5-4" data-name="New Gradient 5" x1="5.49215" y1="9.9873" x2="5.49215" y2="12.144275" gradientUnits="userSpaceOnUse"><stop offset="0" stop-color="#4c4c4c"/><stop offset="1" stop-color="gray"/></linearGradient>
    <linearGradient id="New_Gradient_4" data-name="New Gradient 4" x1="3.45705" y1="10.5137" x2="3.45705" y2="14.1245" gradientUnits="userSpaceOnUse">
      <stop offset="0" stop-color="#4c4c4c"/>
      <stop offset="1" stop-color="#737373"/>
    </linearGradient>
    <mask id="mask-3" x="2.4094492" y="2.1198089" width="20.1051508" height="13.9977195" maskUnits="userSpaceOnUse">
      <path d="M20.9429,12.9219l-8.6055,2.1904c-.1235.0303-.5132-.0771-.603-.1675L3.6641,6.874c-.3726-.372-.3819-1.417.2802-1.5805l8.6226-2.1685c.1226-.0303.5122.0781.6016.168l8.0551,8.0556c.3721.3721.378,1.4087-.2807,1.5733Z" fill="#fff" stroke="#fff" stroke-linecap="round" stroke-linejoin="round" stroke-width="2"/>
    </mask>
    <linearGradient id="New_Gradient_165" data-name="New Gradient 165" x1="16.2036415" y1="9.4406199" x2="17.5637739" y2="16.4378945" gradientUnits="userSpaceOnUse">
      <stop offset="0" stop-color="#b2b2b2"/>
      <stop offset="1" stop-color="#666"/>
    </linearGradient>
    <linearGradient id="New_Gradient_166" data-name="New Gradient 166" x1="12.0612704" y1="5.4554499" x2="3.2383216" y2="14.5918809" gradientUnits="userSpaceOnUse">
      <stop offset="0" stop-color="#ccc"/>
      <stop offset="1" stop-color="#999"/>
    </linearGradient>
    <mask id="mask-4" x="2.7651" y="3.1201522" width="21.523" height="13.4530478" maskUnits="userSpaceOnUse">
      <path d="M20.9429,12.9219l-8.6055,2.1904c-.1235.0303-.5132-.0771-.603-.168L3.6641,6.874c-.3726-.372-.3819-1.417.2802-1.5801l8.6226-2.1684c.1226-.0308.5122.0776.6016.1675l8.0551,8.0556c.3721.3721.378,1.4087-.2807,1.5733Z" fill="#fff"/>
    </mask>
    <linearGradient id="New_Gradient_165-2" data-name="New Gradient 165" x1="17.1517055" y1="9.7372555" x2="18.6898336" y2="17.6502385" gradientUnits="userSpaceOnUse"><stop offset="0" stop-color="#b2b2b2"/><stop offset="1" stop-color="#666"/></linearGradient>
    <linearGradient id="New_Gradient_166-2" data-name="New Gradient 166" x1="12.4659536" y1="5.233227" x2="2.4923983" y2="15.5611458" gradientUnits="userSpaceOnUse"><stop offset="0" stop-color="#ccc"/><stop offset="1" stop-color="#999"/></linearGradient>
    <mask id="mask-5" x="5.3135" y="3.9473" width="8.8227" height="3.9546" maskUnits="userSpaceOnUse">
      <polygon points="5.3135 5.6963 7.1006 7.4839 14.1362 5.6963 12.3867 3.9473 5.3135 5.6963" fill="#fff" fill-rule="evenodd"/>
    </mask>
    <mask id="mask-6" x="7.8711323" y="7.252" width="2.7802677" height="1.6834759" maskUnits="userSpaceOnUse">
      <path d="M10.4722,8.457l-1.6631.4151c-.0191.0049-.0801-.0117-.0943-.0264l-.7417-.7422c-.0581-.0576-.059-.2978.0445-.3232l1.665-.4112c.0195-.0048.0801.0118.0938.0264l.7397.7388c.0581.0581.0591.2973-.0439.3227Z" fill="#fff" stroke="#fff" stroke-width=".125"/>
    </mask>
    <linearGradient id="New_Gradient_167" data-name="New Gradient 167" x1="9.1324852" y1="7.1833372" x2="9.4537764" y2="8.6948933" gradientUnits="userSpaceOnUse">
      <stop offset="0" stop-color="#ccc"/>
      <stop offset="1" stop-color="#f2f2f2"/>
    </linearGradient>
    <mask id="mask-7" x="9.1827841" y="8.5635" width="2.7806159" height="1.683321" maskUnits="userSpaceOnUse">
      <path d="M11.7832,9.7686l-1.6621.415c-.0195.0044-.0806-.0122-.0947-.0264l-.7412-.7412c-.0586-.0581-.0596-.2988.0439-.3242l1.665-.4111c.0196-.0049.0801.0127.0943.0258l.7387.7398c.0586.0581.0596.2969-.0439.3223Z" fill="#fff" stroke="#fff" stroke-width=".125"/>
    </mask>
    <linearGradient id="New_Gradient_167-2" data-name="New Gradient 167" x1="10.4442205" y1="8.4947679" x2="10.7654933" y2="10.006238" gradientUnits="userSpaceOnUse"><stop offset="0" stop-color="#ccc"/><stop offset="1" stop-color="#f2f2f2"/></linearGradient>
    <mask id="mask-8" x="10.494493" y="9.875" width="2.780407" height="1.6834575" maskUnits="userSpaceOnUse">
      <path d="M13.0957,11.0811l-1.6631.414c-.0195.0049-.0801-.0122-.0942-.0259l-.7417-.7417c-.0581-.0581-.0596-.2988.0439-.3242l1.6651-.4111c.0195-.0049.08.0122.0937.0264l.7398.7392c.0581.0576.059.2969-.0435.3233Z" fill="#fff" stroke="#fff" stroke-width=".125"/>
    </mask>
    <linearGradient id="New_Gradient_167-3" data-name="New Gradient 167" x1="11.7558605" y1="9.8060006" x2="12.0771868" y2="11.3177217" gradientUnits="userSpaceOnUse"><stop offset="0" stop-color="#ccc"/><stop offset="1" stop-color="#f2f2f2"/></linearGradient>
    <mask id="mask-9" x="10.338024" y="6.627" width="2.780176" height="1.6834777" maskUnits="userSpaceOnUse">
      <path d="M12.9395,7.8325l-1.6631.4146c-.0196.0049-.0801-.0117-.0938-.0254l-.7422-.7422c-.0586-.0581-.0595-.2979.044-.3242l1.6655-.4112c.019-.0039.0796.0127.0942.0269l.7393.7388c.0581.0586.0586.2973-.0439.3227Z" fill="#fff" stroke="#fff" stroke-width=".125"/>
    </mask>
    <linearGradient id="New_Gradient_167-4" data-name="New Gradient 167" x1="11.5994188" y1="6.5582895" x2="11.9206441" y2="8.069536" gradientUnits="userSpaceOnUse"><stop offset="0" stop-color="#ccc"/><stop offset="1" stop-color="#f2f2f2"/></linearGradient>
    <mask id="mask-10" x="11.6501194" y="7.9385" width="2.7800806" height="1.6838217" maskUnits="userSpaceOnUse">
      <path d="M14.251,9.1445l-1.6631.4146c-.0195.0044-.0801-.0122-.0942-.0259l-.7417-.7422c-.0577-.0581-.0591-.2978.0439-.3232l1.666-.4116c.0186-.0044.0801.0122.0938.0258l.7392.7398c.0576.0581.0586.2969-.0439.3227Z" fill="#fff" stroke="#fff" stroke-width=".125"/>
    </mask>
    <linearGradient id="New_Gradient_167-5" data-name="New Gradient 167" x1="12.9111071" y1="7.8697495" x2="13.2323325" y2="9.380996" gradientUnits="userSpaceOnUse"><stop offset="0" stop-color="#ccc"/><stop offset="1" stop-color="#f2f2f2"/></linearGradient>
    <mask id="mask-11" x="12.9617523" y="9.2505" width="2.7804477" height="1.6836784" maskUnits="userSpaceOnUse">
      <path d="M15.5625,10.4561l-1.6626.415c-.019.0039-.0806-.0127-.0942-.0264l-.7417-.7422c-.0581-.0576-.0596-.2983.0434-.3242l1.666-.4106c.0186-.0049.0801.0122.0938.0259l.7392.7392c.0582.0586.0586.2979-.0439.3233Z" fill="#fff" stroke="#fff" stroke-width=".125"/>
    </mask>
    <linearGradient id="New_Gradient_167-6" data-name="New Gradient 167" x1="14.2229251" y1="9.181819" x2="14.5442645" y2="10.6936023" gradientUnits="userSpaceOnUse"><stop offset="0" stop-color="#ccc"/><stop offset="1" stop-color="#f2f2f2"/></linearGradient>
    <mask id="mask-12" x="12.8053734" y="6.0029" width="2.7805266" height="1.6833211" maskUnits="userSpaceOnUse">
      <path d="M15.4063,7.208l-1.6626.415c-.0191.0044-.0806-.0122-.0943-.0263l-.7417-.7412c-.0581-.0586-.06-.2989.044-.3247l1.6655-.4107c.019-.0049.0801.0117.0937.0254l.7393.7402c.0586.0577.0591.2969-.0439.3223Z" fill="#fff" stroke="#fff" stroke-width=".125"/>
    </mask>
    <linearGradient id="New_Gradient_167-7" data-name="New Gradient 167" x1="14.0668742" y1="5.934015" x2="14.3880553" y2="7.4450535" gradientUnits="userSpaceOnUse"><stop offset="0" stop-color="#ccc"/><stop offset="1" stop-color="#f2f2f2"/></linearGradient>
    <mask id="mask-13" x="14.1170734" y="7.3145" width="2.7808266" height="1.6834566" maskUnits="userSpaceOnUse">
      <path d="M16.7188,8.5195l-1.6641.4151c-.0186.0049-.0801-.0122-.0938-.0264l-.7417-.7412c-.0581-.0586-.0595-.2988.0445-.3242l1.665-.4112c.0195-.0048.0801.0122.0938.0264l.7397.7393c.0581.0576.0591.2968-.0434.3222Z" fill="#fff" stroke="#fff" stroke-width=".125"/>
    </mask>
    <linearGradient id="New_Gradient_167-8" data-name="New Gradient 167" x1="15.3786821" y1="7.2456023" x2="15.6999441" y2="8.7570209" gradientUnits="userSpaceOnUse"><stop offset="0" stop-color="#ccc"/><stop offset="1" stop-color="#f2f2f2"/></linearGradient>
    <mask id="mask-14" x="15.4288029" y="8.626" width="2.7801971" height="1.6834759" maskUnits="userSpaceOnUse">
      <path d="M18.0298,9.832l-1.6626.4141c-.0195.0049-.0801-.0117-.0943-.0264l-.7416-.7412c-.0586-.0586-.0596-.2988.0429-.3242l1.6665-.4111c.0191-.0049.0796.0127.0938.0263l.7387.7393c.0586.0581.0591.2974-.0434.3232Z" fill="#fff" stroke="#fff" stroke-width=".125"/>
    </mask>
    <linearGradient id="New_Gradient_167-9" data-name="New Gradient 167" x1="16.6900106" y1="8.5572363" x2="17.0112305" y2="10.0684571" gradientUnits="userSpaceOnUse"><stop offset="0" stop-color="#ccc"/><stop offset="1" stop-color="#f2f2f2"/></linearGradient>
    <mask id="mask-15" x="11.7749104" y="11.1553" width="2.7807896" height="1.683821" maskUnits="userSpaceOnUse">
      <path d="M14.376,12.3608l-1.6631.4151c-.0191.0044-.0801-.0122-.0938-.0264l-.7421-.7417c-.0582-.0586-.0591-.2988.0439-.3242l1.6655-.4111c.0196-.0044.0801.0122.0943.0263l.7392.7393c.0576.0581.0586.2973-.0439.3227Z" fill="#fff" stroke="#fff" stroke-width=".125"/>
    </mask>
    <linearGradient id="New_Gradient_167-10" data-name="New Gradient 167" x1="13.0364447" y1="11.0867114" x2="13.35767" y2="12.5979579" gradientUnits="userSpaceOnUse"><stop offset="0" stop-color="#ccc"/><stop offset="1" stop-color="#f2f2f2"/></linearGradient>
    <mask id="mask-16" x="14.2422323" y="10.5313" width="2.7802677" height="1.6834566" maskUnits="userSpaceOnUse">
      <path d="M16.8428,11.7363l-1.6626.4151c-.0191.0049-.0801-.0122-.0943-.0264l-.7417-.7417c-.0581-.0581-.059-.2983.0445-.3242l1.665-.4107c.0195-.0048.0801.0118.0938.0259l.7397.7393c.0581.0581.0586.2973-.0444.3227Z" fill="#fff" stroke="#fff" stroke-width=".125"/>
    </mask>
    <linearGradient id="New_Gradient_167-11" data-name="New Gradient 167" x1="15.5035597" y1="10.4625171" x2="15.8248325" y2="11.9739871" gradientUnits="userSpaceOnUse"><stop offset="0" stop-color="#ccc"/><stop offset="1" stop-color="#f2f2f2"/></linearGradient>
    <mask id="mask-17" x="16.709333" y="9.9063" width="2.779967" height="1.6835875" maskUnits="userSpaceOnUse">
      <path d="M19.3105,11.1123l-1.663.4141c-.0196.0053-.0801-.0118-.0938-.0259l-.7422-.7417c-.0581-.0586-.0595-.2984.044-.3237l1.6655-.4117c.019-.0044.0796.0127.0942.0264l.7388.7393c.0581.0576.0591.2968-.0435.3232Z" fill="#fff" stroke="#fff" stroke-width=".125"/>
    </mask>
    <linearGradient id="New_Gradient_167-12" data-name="New Gradient 167" x1="17.9702017" y1="9.8377738" x2="18.2914033" y2="11.3489085" gradientUnits="userSpaceOnUse"><stop offset="0" stop-color="#ccc"/><stop offset="1" stop-color="#f2f2f2"/></linearGradient>
  </defs>
  <g>
    <path d="M10.8101,9.9673l1.3388-.3037c-.1513-.3101-.4038-.4771-.6186-.4771-.2774,0-.6167.2779-.7202.7808ZM8.7949,10.4688l1.3369-.3072-.041-.0161.0039-.0527c-.1528-.2627-.3818-.4043-.5805-.4043-.2769,0-.6167.2773-.7193.7803ZM6.0967,11.1572l-.0371-.0088.0049-.0522c-.1539-.2637-.3829-.4048-.5806-.4048-.2778,0-.6177.2774-.7207.7808l1.3335-.315ZM6.7793,10.9707l1.334-.3115-.0381-.0122.0039-.0523c-.1523-.2636-.3818-.4048-.5801-.4048-.2773,0-.6167.2779-.7197.7808ZM4.2686,10.8135c.2412-.4795.664-.8262,1.2153-.8262.3149,0,.5893.1123.813.2998.2431-.4658.6611-.8017,1.2021-.8017.315,0,.5899.1132.8135.2998.2432-.4659.6611-.8018,1.2017-.8018.3159,0,.5903.1133.8139.3008.2432-.4663.6607-.8018,1.2022-.8018.6196-.001,1.083.4395,1.3071,1.0108l.3374-.083,7.6611,7.6611.0147,1.3613-10.1318,2.5264-7.5455-7.5459.5762.6211c-.0561.0517-.1348.0859-.2349.0888l-.0527.0015c-.8882,0-1.4619-.9038-1.4619-1.8061,0-.9004.5684-1.8047,1.457-1.8047.314,0,.5879.1133.8116.2998ZM4.0439,11.6504c-.1518-.2852-.3862-.4316-.5869-.4316-.332,0-.7519.3964-.7519,1.0996,0,.3725.1201.7168.2915.9043l.0469.0507-.0162-1.3584,1.0303-.2539-.0137-.0107Z" fill="#999" stroke="#000" stroke-linecap="round" stroke-linejoin="round" stroke-width="2"/>
    <g>
      <g mask="url(#mask)">
        <g>
          <polygon points="10.7188 20.959 20.8506 18.4326 20.8359 17.0713 13.1748 9.4102 3.0273 11.915 3.0439 13.2832 10.7188 20.959" fill="#999" fill-rule="evenodd"/>
          <line x1="10.5557" y1="20.0488" x2="25.4014" y2="16.3193" fill="none" stroke="#ccc" stroke-miterlimit="3.8637" stroke-width=".72"/>
          <line x1="10.5557" y1="20.5977" x2="25.4014" y2="16.8682" fill="none" stroke="#ccc" stroke-miterlimit="3.8637" stroke-width=".72"/>
          <g mask="url(#mask-1)">
            <g>
              <rect x="2.3164" y="11.4331" width="8.4126" height="10.5669" fill="#b2b2b2"/>
              <line x1="2.8506" y1="12.1416" x2="10.9893" y2="20.2803" fill="none" stroke="#fff" stroke-miterlimit="3.8637" stroke-width=".48"/>
              <line x1="2.7642" y1="12.6187" x2="11.1626" y2="21.0176" fill="none" stroke="#fff" stroke-miterlimit="3.8637" stroke-width=".48"/>
            </g>
          </g>
          <g mask="url(#mask-2)">
            <g>
              <polygon points="10.7188 19.6152 20.8359 17.0713 13.3291 8.4609 3.0273 11.915 10.7188 19.6152" fill="url(#New_Gradient_6)" fill-rule="evenodd"/>
              <line x1="2.0356" y1="13.7461" x2="15.9336" y2="10.2534" fill="none" stroke="#5abde0" stroke-miterlimit="3.8637" stroke-width=".5"/>
              <line x1="2.6533" y1="14.5596" x2="16.5508" y2="11.0664" fill="none" stroke="#5abde0" stroke-miterlimit="3.8637" stroke-width=".5"/>
              <line x1="3.271" y1="15.3726" x2="17.1685" y2="11.8789" fill="none" stroke="#5abde0" stroke-miterlimit="3.8637" stroke-width=".5"/>
              <line x1="3.8877" y1="16.1855" x2="17.7861" y2="12.6924" fill="none" stroke="#5abde0" stroke-miterlimit="3.8637" stroke-width=".5"/>
              <line x1="4.5059" y1="16.9985" x2="18.4033" y2="13.5049" fill="none" stroke="#5abde0" stroke-miterlimit="3.8637" stroke-width=".5"/>
              <line x1="5.1226" y1="17.8115" x2="19.0205" y2="14.3184" fill="none" stroke="#5abde0" stroke-miterlimit="3.8637" stroke-width=".5"/>
              <line x1="5.7402" y1="18.625" x2="19.6382" y2="15.1318" fill="none" stroke="#5abde0" stroke-miterlimit="3.8637" stroke-width=".5"/>
              <line x1="7.5918" y1="19.438" x2="21.4907" y2="15.9443" fill="none" stroke="#5abde0" stroke-miterlimit="3.8637" stroke-width=".5"/>
              <line x1="4.8018" y1="11.2031" x2="13.3394" y2="19.7412" fill="none" stroke="#ff6226" stroke-miterlimit="3.8637" stroke-width=".5"/>
            </g>
          </g>
        </g>
      </g>
      <path d="M4.5586,12.2095c.2685,0,.4853.1357.4853.3042,0,.1679-.2168.3037-.4853.3037-.2686,0-.4854-.1358-.4854-.3037,0-.1685.2168-.3042.4854-.3042Z" fill="#191919"/>
      <path d="M6.5903,11.6919c.2681,0,.4859.1362.4859.3032,0,.169-.2178.3047-.4859.3047-.268,0-.4848-.1357-.4848-.3047,0-.167.2168-.3032.4848-.3032Z" fill="#191919"/>
      <path d="M8.6162,11.1743c.2676,0,.4844.1362.4844.3037,0,.1685-.2168.3042-.4844.3042-.2685,0-.4858-.1357-.4858-.3042,0-.1675.2173-.3037.4858-.3037Z" fill="#191919"/>
      <path d="M10.6313,10.689c.2671,0,.4849.1362.4849.3037,0,.1679-.2178.3042-.4849.3042-.268,0-.4858-.1363-.4858-.3042,0-.1675.2178-.3037.4858-.3037Z" fill="#191919"/>
      <path d="M12.647,10.1777c.268,0,.4848.1368.4848.3047,0,.168-.2168.3037-.4848.3037-.2681,0-.4859-.1357-.4859-.3037,0-.1679.2178-.3047.4859-.3047Z" fill="#191919"/>
      <g>
        <path d="M10.0908,10.1455c.0567-.8516.5977-1.6631,1.4395-1.6631.8886-.001,1.457.9043,1.457,1.8047,0,.4702-.7051.4702-.7051,0,0-.7031-.4209-1.1006-.7519-1.1006-.2774,0-.6167.2779-.7202.7808l-.7193.1782Z" fill="url(#New_Gradient_5)"/>
        <path d="M12.3301,9.1841s-.1719-.5112-.8194-.5112c-.6464,0-1.1318.7543-1.1474,1.0937" fill="none" stroke="#d9d9d9" stroke-linecap="round" stroke-miterlimit="3.8637" stroke-width=".5"/>
      </g>
      <g>
        <path d="M8.0752,10.647c.0561-.8521.5981-1.6631,1.439-1.6631.8891,0,1.4575.9038,1.4575,1.8052,0,.4697-.7046.4697-.7046,0,0-.7041-.4209-1.1006-.7529-1.1006-.2769,0-.6167.2773-.7193.7803l-.7197.1782Z" fill="url(#New_Gradient_5-2)"/>
        <path d="M10.3145,9.6855s-.1719-.5112-.8184-.5112c-.6475,0-1.1328.7544-1.1484,1.0943" fill="none" stroke="#d9d9d9" stroke-linecap="round" stroke-miterlimit="3.8637" stroke-width=".5"/>
      </g>
      <g>
        <path d="M6.0596,11.1484c.0561-.8515.5976-1.663,1.4394-1.663.8887,0,1.4571.9042,1.4571,1.8046,0,.4707-.7051.4707-.7051,0,0-.7031-.4199-1.1001-.752-1.1001-.2773,0-.6167.2779-.7197.7808l-.7197.1777Z" fill="url(#New_Gradient_5-3)"/>
        <path d="M8.2979,10.1875s-.1709-.5117-.8179-.5117-1.1323.7544-1.1489,1.0937" fill="none" stroke="#d9d9d9" stroke-linecap="round" stroke-miterlimit="3.8637" stroke-width=".5"/>
      </g>
      <g>
        <path d="M4.0439,11.6504c.0567-.8525.5987-1.6631,1.44-1.6631.8882,0,1.4565.9033,1.4565,1.8047,0,.4697-.705.4697-.705,0,0-.7036-.4205-1.1006-.7515-1.1006-.2778,0-.6177.2774-.7207.7808l-.7193.1782Z" fill="url(#New_Gradient_5-4)"/>
        <path d="M6.2827,10.689s-.1714-.5113-.8188-.5113c-.6465,0-1.1319.7539-1.1475,1.0938" fill="none" stroke="#d9d9d9" stroke-linecap="round" stroke-miterlimit="3.8637" stroke-width=".5"/>
      </g>
      <g>
        <path d="M3.7495,14.0342c-.0561.0517-.1343.0859-.2349.0888l-.0527.0015c-.8882,0-1.4619-.9038-1.4619-1.8061,0-.9004.5693-1.8047,1.457-1.8047s1.4571.9043,1.4571,1.8047c0,.4712-.7051.4712-.7051,0,0-.7032-.4209-1.0996-.752-1.0996-.332,0-.7519.3964-.7519,1.0996,0,.3725.1191.7168.2915.9043l.7529.8115Z" fill="url(#New_Gradient_4)"/>
        <path d="M4.2676,11.2388s-.1719-.5113-.8189-.5113c-.6469,0-1.1323.7539-1.1484,1.0938" fill="none" stroke="#d9d9d9" stroke-linecap="round" stroke-miterlimit="3.8637" stroke-width=".5"/>
      </g>
    </g>
  </g>
  <g>
    <g>
      <g mask="url(#mask-3)">
        <g>
          <path d="M20.9429,12.9219l-8.6055,2.1904c-.1235.0303-.5132-.0771-.603-.1675L3.6641,6.874c-.3726-.372-.3819-1.417.2802-1.5805l8.6226-2.1685c.1226-.0303.5122.0781.6016.168l8.0551,8.0556c.3721.3721.378,1.4087-.2807,1.5733Z" fill="#d9d9d9"/>
          <polygon points="11.3833 12.9971 22.4141 10.374 22.5146 12.5933 11.3496 15.4854 11.3833 12.9971" fill="url(#New_Gradient_165)" fill-rule="evenodd"/>
          <path d="M3.75,4.9595l7.9297,7.9419c-.2344.8408,0,2.0517,0,2.0517L3.4805,7.2129l.2695-2.2534Z" fill="url(#New_Gradient_166)" fill-rule="evenodd"/>
          <path d="M20.9429,12.9219l-8.6055,2.1904c-.1235.0303-.5132-.0771-.603-.1675L3.6641,6.874c-.3726-.372-.3819-1.417.2802-1.5805l8.6226-2.1685c.1226-.0303.5122.0781.6016.168l8.0551,8.0556c.3721.3721.378,1.4087-.2807,1.5733Z" fill="none" stroke="#000" stroke-linecap="round" stroke-linejoin="round" stroke-width="2"/>
        </g>
      </g>
      <g>
        <g mask="url(#mask-4)">
          <g>
            <path d="M20.9429,12.9219l-8.6055,2.1904c-.1235.0303-.5132-.0771-.603-.168L3.6641,6.874c-.3726-.372-.3819-1.417.2802-1.5801l8.6226-2.1684c.1226-.0308.5122.0776.6016.1675l8.0551,8.0556c.3721.3721.378,1.4087-.2807,1.5733Z" fill="#d9d9d9"/>
            <polygon points="11.7017 13.7588 24.1743 10.793 24.2881 13.3027 11.6631 16.5732 11.7017 13.7588" fill="url(#New_Gradient_165-2)" fill-rule="evenodd"/>
            <path d="M3.0693,4.6709l8.9668,8.9814c-.2641.9498,0,2.3189,0,2.3189L2.7651,7.2188l.3042-2.5479Z" fill="url(#New_Gradient_166-2)" fill-rule="evenodd"/>
          </g>
        </g>
        <g mask="url(#mask-5)">
          <g>
            <polygon points="5.3135 5.6963 7.1006 7.4839 14.1362 5.6963 12.3867 3.9473 5.3135 5.6963" fill="#487653" fill-rule="evenodd"/>
            <polygon points="5.3135 6.1147 7.1006 7.9019 14.1362 6.1147 12.3867 4.3652 5.3135 6.1147" fill="#76b781" fill-rule="evenodd"/>
          </g>
        </g>
        <g>
          <g mask="url(#mask-6)">
            <g>
              <path d="M10.4722,8.457l-1.6631.4151c-.0191.0049-.0801-.0117-.0943-.0264l-.7417-.7422c-.0581-.0576-.059-.2978.0445-.3232l1.665-.4112c.0195-.0048.0801.0118.0938.0264l.7397.7388c.0581.0581.0591.2973-.0439.3227Z" fill="#666"/>
              <polygon points="7.9346 7.751 8.8403 8.626 10.6514 8.126 9.8086 7.252 7.9346 7.751" fill="url(#New_Gradient_167)" fill-rule="evenodd"/>
              <path d="M10.4722,8.457l-1.6631.4151c-.0191.0049-.0801-.0117-.0943-.0264l-.7417-.7422c-.0581-.0576-.059-.2978.0445-.3232l1.665-.4112c.0195-.0048.0801.0118.0938.0264l.7397.7388c.0581.0581.0591.2973-.0439.3227Z" fill="none" stroke="#666" stroke-width=".125"/>
            </g>
          </g>
          <g mask="url(#mask-7)">
            <g>
              <path d="M11.7832,9.7686l-1.6621.415c-.0195.0044-.0806-.0122-.0947-.0264l-.7412-.7412c-.0586-.0581-.0596-.2988.0439-.3242l1.665-.4111c.0196-.0049.0801.0127.0943.0258l.7387.7398c.0586.0581.0596.2969-.0439.3223Z" fill="#666"/>
              <polygon points="9.2461 9.0625 10.1523 9.9375 11.9634 9.4375 11.1201 8.5635 9.2461 9.0625" fill="url(#New_Gradient_167-2)" fill-rule="evenodd"/>
              <path d="M11.7832,9.7686l-1.6621.415c-.0195.0044-.0806-.0122-.0947-.0264l-.7412-.7412c-.0586-.0581-.0596-.2988.0439-.3242l1.665-.4111c.0196-.0049.0801.0127.0943.0258l.7387.7398c.0586.0581.0596.2969-.0439.3223Z" fill="none" stroke="#666" stroke-width=".125"/>
            </g>
          </g>
          <g mask="url(#mask-8)">
            <g>
              <path d="M13.0957,11.0811l-1.6631.414c-.0195.0049-.0801-.0122-.0942-.0259l-.7417-.7417c-.0581-.0581-.0596-.2988.0439-.3242l1.6651-.4111c.0195-.0049.08.0122.0937.0264l.7398.7392c.0581.0576.059.2969-.0435.3233Z" fill="#666"/>
              <polygon points="10.5581 10.3745 11.4639 11.249 13.2749 10.749 12.4316 9.875 10.5581 10.3745" fill="url(#New_Gradient_167-3)" fill-rule="evenodd"/>
              <path d="M13.0957,11.0811l-1.6631.414c-.0195.0049-.0801-.0122-.0942-.0259l-.7417-.7417c-.0581-.0581-.0596-.2988.0439-.3242l1.6651-.4111c.0195-.0049.08.0122.0937.0264l.7398.7392c.0581.0576.059.2969-.0435.3233Z" fill="none" stroke="#666" stroke-width=".125"/>
            </g>
          </g>
          <g mask="url(#mask-9)">
            <g>
              <path d="M12.9395,7.8325l-1.6631.4146c-.0196.0049-.0801-.0117-.0938-.0254l-.7422-.7422c-.0586-.0581-.0595-.2979.044-.3242l1.6655-.4112c.019-.0039.0796.0127.0942.0269l.7393.7388c.0581.0586.0586.2973-.0439.3227Z" fill="#666"/>
              <polygon points="10.4019 7.127 11.3076 8.001 13.1182 7.501 12.2754 6.627 10.4019 7.127" fill="url(#New_Gradient_167-4)" fill-rule="evenodd"/>
              <path d="M12.9395,7.8325l-1.6631.4146c-.0196.0049-.0801-.0117-.0938-.0254l-.7422-.7422c-.0586-.0581-.0595-.2979.044-.3242l1.6655-.4112c.019-.0039.0796.0127.0942.0269l.7393.7388c.0581.0586.0586.2973-.0439.3227Z" fill="none" stroke="#666" stroke-width=".125"/>
            </g>
          </g>
          <g mask="url(#mask-10)">
            <g>
              <path d="M14.251,9.1445l-1.6631.4146c-.0195.0044-.0801-.0122-.0942-.0259l-.7417-.7422c-.0577-.0581-.0591-.2978.0439-.3232l1.666-.4116c.0186-.0044.0801.0122.0938.0258l.7392.7398c.0576.0581.0586.2969-.0439.3227Z" fill="#666"/>
              <polygon points="11.7134 8.438 12.6191 9.3125 14.4302 8.8135 13.5869 7.9385 11.7134 8.438" fill="url(#New_Gradient_167-5)" fill-rule="evenodd"/>
              <path d="M14.251,9.1445l-1.6631.4146c-.0195.0044-.0801-.0122-.0942-.0259l-.7417-.7422c-.0577-.0581-.0591-.2978.0439-.3232l1.666-.4116c.0186-.0044.0801.0122.0938.0258l.7392.7398c.0576.0581.0586.2969-.0439.3227Z" fill="none" stroke="#666" stroke-width=".125"/>
            </g>
          </g>
          <g mask="url(#mask-11)">
            <g>
              <path d="M15.5625,10.4561l-1.6626.415c-.019.0039-.0806-.0127-.0942-.0264l-.7417-.7422c-.0581-.0576-.0596-.2983.0434-.3242l1.666-.4106c.0186-.0049.0801.0122.0938.0259l.7392.7392c.0582.0586.0586.2979-.0439.3233Z" fill="#666"/>
              <polygon points="13.0249 9.75 13.9312 10.625 15.7422 10.125 14.8994 9.2505 13.0249 9.75" fill="url(#New_Gradient_167-6)" fill-rule="evenodd"/>
              <path d="M15.5625,10.4561l-1.6626.415c-.019.0039-.0806-.0127-.0942-.0264l-.7417-.7422c-.0581-.0576-.0596-.2983.0434-.3242l1.666-.4106c.0186-.0049.0801.0122.0938.0259l.7392.7392c.0582.0586.0586.2979-.0439.3233Z" fill="none" stroke="#666" stroke-width=".125"/>
            </g>
          </g>
          <g mask="url(#mask-12)">
            <g>
              <path d="M15.4063,7.208l-1.6626.415c-.0191.0044-.0806-.0122-.0943-.0263l-.7417-.7412c-.0581-.0586-.06-.2989.044-.3247l1.6655-.4107c.019-.0049.0801.0117.0937.0254l.7393.7402c.0586.0577.0591.2969-.0439.3223Z" fill="#666"/>
              <polygon points="12.8691 6.5024 13.7744 7.3765 15.5859 6.877 14.7427 6.0029 12.8691 6.5024" fill="url(#New_Gradient_167-7)" fill-rule="evenodd"/>
              <path d="M15.4063,7.208l-1.6626.415c-.0191.0044-.0806-.0122-.0943-.0263l-.7417-.7412c-.0581-.0586-.06-.2989.044-.3247l1.6655-.4107c.019-.0049.0801.0117.0937.0254l.7393.7402c.0586.0577.0591.2969-.0439.3223Z" fill="none" stroke="#666" stroke-width=".125"/>
            </g>
          </g>
          <g mask="url(#mask-13)">
            <g>
              <path d="M16.7188,8.5195l-1.6641.4151c-.0186.0049-.0801-.0122-.0938-.0264l-.7417-.7412c-.0581-.0586-.0595-.2988.0445-.3242l1.665-.4112c.0195-.0048.0801.0122.0938.0264l.7397.7393c.0581.0576.0591.2968-.0434.3222Z" fill="#666"/>
              <polygon points="14.1807 7.8135 15.0859 8.6885 16.8979 8.189 16.0547 7.3145 14.1807 7.8135" fill="url(#New_Gradient_167-8)" fill-rule="evenodd"/>
              <path d="M16.7188,8.5195l-1.6641.4151c-.0186.0049-.0801-.0122-.0938-.0264l-.7417-.7412c-.0581-.0586-.0595-.2988.0445-.3242l1.665-.4112c.0195-.0048.0801.0122.0938.0264l.7397.7393c.0581.0576.0591.2968-.0434.3222Z" fill="none" stroke="#666" stroke-width=".125"/>
            </g>
          </g>
          <g mask="url(#mask-14)">
            <g>
              <path d="M18.0298,9.832l-1.6626.4141c-.0195.0049-.0801-.0117-.0943-.0264l-.7416-.7412c-.0586-.0586-.0596-.2988.0429-.3242l1.6665-.4111c.0191-.0049.0796.0127.0938.0263l.7387.7393c.0586.0581.0591.2974-.0434.3232Z" fill="#666"/>
              <polygon points="15.4922 9.1255 16.3979 10 18.209 9.5 17.3662 8.626 15.4922 9.1255" fill="url(#New_Gradient_167-9)" fill-rule="evenodd"/>
              <path d="M18.0298,9.832l-1.6626.4141c-.0195.0049-.0801-.0117-.0943-.0264l-.7416-.7412c-.0586-.0586-.0596-.2988.0429-.3242l1.6665-.4111c.0191-.0049.0796.0127.0938.0263l.7387.7393c.0586.0581.0591.2974-.0434.3232Z" fill="none" stroke="#666" stroke-width=".125"/>
            </g>
          </g>
          <g mask="url(#mask-15)">
            <g>
              <path d="M14.376,12.3608l-1.6631.4151c-.0191.0044-.0801-.0122-.0938-.0264l-.7421-.7417c-.0582-.0586-.0591-.2988.0439-.3242l1.6655-.4111c.0196-.0044.0801.0122.0943.0263l.7392.7393c.0576.0581.0586.2973-.0439.3227Z" fill="#666"/>
              <polygon points="11.8384 11.6548 12.7441 12.5293 14.5557 12.0298 13.7119 11.1553 11.8384 11.6548" fill="url(#New_Gradient_167-10)" fill-rule="evenodd"/>
              <path d="M14.376,12.3608l-1.6631.4151c-.0191.0044-.0801-.0122-.0938-.0264l-.7421-.7417c-.0582-.0586-.0591-.2988.0439-.3242l1.6655-.4111c.0196-.0044.0801.0122.0943.0263l.7392.7393c.0576.0581.0586.2973-.0439.3227Z" fill="none" stroke="#666" stroke-width=".125"/>
            </g>
          </g>
          <g mask="url(#mask-16)">
            <g>
              <path d="M16.8428,11.7363l-1.6626.4151c-.0191.0049-.0801-.0122-.0943-.0264l-.7417-.7417c-.0581-.0581-.059-.2983.0445-.3242l1.665-.4107c.0195-.0048.0801.0118.0938.0259l.7397.7393c.0581.0581.0586.2973-.0444.3227Z" fill="#666"/>
              <polygon points="14.3057 11.0303 15.2114 11.9053 17.0225 11.4053 16.1792 10.5313 14.3057 11.0303" fill="url(#New_Gradient_167-11)" fill-rule="evenodd"/>
              <path d="M16.8428,11.7363l-1.6626.4151c-.0191.0049-.0801-.0122-.0943-.0264l-.7417-.7417c-.0581-.0581-.059-.2983.0445-.3242l1.665-.4107c.0195-.0048.0801.0118.0938.0259l.7397.7393c.0581.0581.0586.2973-.0444.3227Z" fill="none" stroke="#666" stroke-width=".125"/>
            </g>
          </g>
          <g mask="url(#mask-17)">
            <g>
              <path d="M19.3105,11.1123l-1.663.4141c-.0196.0053-.0801-.0118-.0938-.0259l-.7422-.7417c-.0581-.0586-.0595-.2984.044-.3237l1.6655-.4117c.019-.0044.0796.0127.0942.0264l.7388.7393c.0581.0576.0591.2968-.0435.3232Z" fill="#666"/>
              <polygon points="16.7725 10.4063 17.6787 11.2803 19.4893 10.7813 18.6465 9.9063 16.7725 10.4063" fill="url(#New_Gradient_167-12)" fill-rule="evenodd"/>
              <path d="M19.3105,11.1123l-1.663.4141c-.0196.0053-.0801-.0118-.0938-.0259l-.7422-.7417c-.0581-.0586-.0595-.2984.044-.3237l1.6655-.4117c.019-.0044.0796.0127.0942.0264l.7388.7393c.0581.0576.0591.2968-.0435.3232Z" fill="none" stroke="#666" stroke-width=".125"/>
            </g>
          </g>
        </g>
      </g>
    </g>
    <polyline points="11.0884 8.7065 9.3291 9.0918 10.1523 9.9375" fill="none" stroke="#fff" stroke-linecap="square" stroke-linejoin="bevel" stroke-width=".5"/>
    <polyline points="12.3994 10.0186 10.6406 10.4033 11.4639 11.249" fill="none" stroke="#fff" stroke-linecap="square" stroke-linejoin="bevel" stroke-width=".5"/>
    <polyline points="13.6797 11.2988 11.9209 11.6836 12.7441 12.5293" fill="none" stroke="#fff" stroke-linecap="square" stroke-linejoin="bevel" stroke-width=".5"/>
    <polyline points="9.7744 7.3926 8.0151 7.7778 8.8389 8.624" fill="none" stroke="#fff" stroke-linecap="square" stroke-linejoin="bevel" stroke-width=".5"/>
    <polyline points="13.4619 8.0562 11.7026 8.4409 12.5254 9.2866" fill="none" stroke="#fff" stroke-linecap="square" stroke-linejoin="bevel" stroke-width=".5"/>
    <polyline points="14.7734 9.3672 13.0137 9.7529 13.8374 10.5981" fill="none" stroke="#fff" stroke-linecap="square" stroke-linejoin="bevel" stroke-width=".5"/>
    <polyline points="16.0537 10.6484 14.2939 11.0332 15.1177 11.8789" fill="none" stroke="#fff" stroke-linecap="square" stroke-linejoin="bevel" stroke-width=".5"/>
    <polyline points="12.1484 6.7422 10.3887 7.127 11.2119 7.9731" fill="none" stroke="#fff" stroke-linecap="square" stroke-linejoin="bevel" stroke-width=".5"/>
    <polyline points="15.9287 7.4316 14.1694 7.8164 14.9932 8.6621" fill="none" stroke="#fff" stroke-linecap="square" stroke-linejoin="bevel" stroke-width=".5"/>
    <polyline points="17.2407 8.7432 15.4814 9.1279 16.3042 9.9736" fill="none" stroke="#fff" stroke-linecap="square" stroke-linejoin="bevel" stroke-width=".5"/>
    <polyline points="18.521 10.0234 16.7617 10.4087 17.5845 11.2539" fill="none" stroke="#fff" stroke-linecap="square" stroke-linejoin="bevel" stroke-width=".5"/>
    <polyline points="14.6152 6.1182 12.856 6.5029 13.6787 7.3486" fill="none" stroke="#fff" stroke-linecap="square" stroke-linejoin="bevel" stroke-width=".5"/>
  </g>
</svg>