<?xml version='1.0' encoding='UTF-8'?>
<svg xmlns="http://www.w3.org/2000/svg" xmlns:xlink="http://www.w3.org/1999/xlink" id="Layer_1" data-name="Layer 1" width="24" height="24" viewBox="0 0 24 24">
  <defs>
    <linearGradient id="New_Gradient_188" data-name="New Gradient 188" x1="-133.2694322" y1="2.1808847" x2="-131.424166" y2=".3356185" gradientTransform="translate(104.4862 -75.9957) rotate(-42.0004154)" gradientUnits="userSpaceOnUse">
      <stop offset="0" stop-color="#e5e5e5"/>
      <stop offset="1" stop-color="#ccc"/>
    </linearGradient>
    <linearGradient id="New_Gradient_81" data-name="New Gradient 81" x1="-133.7276504" y1="-6.8772148" x2="-126.7494445" y2="5.2093924" gradientTransform="translate(104.4862 -75.9957) rotate(-42.0004154)" gradientUnits="userSpaceOnUse">
      <stop offset="0" stop-color="#e5e5e5"/>
      <stop offset=".758423" stop-color="#f2f2f2"/>
      <stop offset=".89888" stop-color="#fff"/>
      <stop offset="1" stop-color="#fff"/>
    </linearGradient>
    <linearGradient id="New_Gradient_183" data-name="New Gradient 183" x1="-132.6901933" y1="2.4119695" x2="-128.2885722" y2="-1.2814292" gradientTransform="translate(104.4862 -75.9957) rotate(-42.0004154)" gradientUnits="userSpaceOnUse">
      <stop offset="0" stop-color="#b2b2b2"/>
      <stop offset=".168533" stop-color="#e5e5e5"/>
      <stop offset=".230331" stop-color="#fff"/>
      <stop offset=".280899" stop-color="#e5e5e5"/>
      <stop offset="1" stop-color="#ccc"/>
    </linearGradient>
    <linearGradient id="New_Gradient_184" data-name="New Gradient 184" x1="-132.4721028" y1="1.9017812" x2="-129.140946" y2="-1.4293756" gradientTransform="translate(104.4862 -75.9957) rotate(-42.0004154)" gradientUnits="userSpaceOnUse">
      <stop offset="0" stop-color="#b2b2b2"/>
      <stop offset=".168533" stop-color="#e5e5e5"/>
      <stop offset=".230331" stop-color="#fff"/>
      <stop offset=".280899" stop-color="#e5e5e5"/>
      <stop offset="1" stop-color="#ccc"/>
    </linearGradient>
    <linearGradient id="New_Gradient_185" data-name="New Gradient 185" x1="-130.9555863" y1=".0769618" x2="-128.0299066" y2="3.0026416" gradientTransform="translate(104.4862 -75.9957) rotate(-42.0004154)" gradientUnits="userSpaceOnUse">
      <stop offset="0" stop-color="#ccc"/>
      <stop offset="1" stop-color="#fff"/>
    </linearGradient>
    <linearGradient id="New_Gradient_186" data-name="New Gradient 186" x1="-128.7920309" y1="3.0978927" x2="-130.1901368" y2="-.0423047" gradientTransform="translate(104.4862 -75.9957) rotate(-42.0004154)" gradientUnits="userSpaceOnUse">
      <stop offset="0" stop-color="#b2b2b2"/>
      <stop offset=".5" stop-color="#e5e5e5"/>
      <stop offset="1" stop-color="#fff"/>
    </linearGradient>
    <linearGradient id="New_Gradient_189" data-name="New Gradient 189" x1="-130.1084239" y1=".4826499" x2="-128.2789542" y2="-1.3468199" gradientTransform="translate(104.4862 -75.9957) rotate(-42.0004154)" gradientUnits="userSpaceOnUse">
      <stop offset="0" stop-color="#d9d9d9"/>
      <stop offset="1" stop-color="#f2f2f2"/>
    </linearGradient>
    <mask id="mask" x="2.2348951" y="6.6069" width="6.3324999" height="5.7364" maskUnits="userSpaceOnUse">
      <polygon points="7.567395 11.3433 4.365195 10.7876 5.227495 10.0107 4.101595 8.7617 5.383795 7.6069 6.508795 8.8574 7.349095 8.1006 7.567395 11.3433" fill="#fff" stroke="#fff" stroke-linecap="round" stroke-linejoin="round" stroke-width="2"/>
    </mask>
    <radialGradient id="New_Gradient_190" data-name="New Gradient 190" cx="3.8645343" cy="7.3647813" fx="3.8645343" fy="7.3647813" r="4.1782857" gradientUnits="userSpaceOnUse">
      <stop offset="0" stop-color="#328e36"/>
      <stop offset="1" stop-color="#00cd00"/>
    </radialGradient>
    <radialGradient id="New_Gradient_191" data-name="New Gradient 191" cx="-139.8238717" cy="7.1221397" fx="-139.8238717" fy="7.1221397" r="5.1505941" gradientTransform="translate(100.1149 -85.1908) rotate(-42.0003072) scale(.9431585)" gradientUnits="userSpaceOnUse">
      <stop offset="0" stop-color="#fff"/>
      <stop offset="1" stop-color="#00cd00"/>
    </radialGradient>
    <mask id="mask-1" x="2.2348951" y="7.4629" width="5.3324999" height="4.0688" maskUnits="userSpaceOnUse">
      <polygon points="7.567395 11.3433 4.365195 10.7876 5.227495 10.0107 4.101595 8.7617 5.383795 7.6069 6.508795 8.8574 7.349095 8.1006 7.567395 11.3433" fill="#fff"/>
    </mask>
    <radialGradient id="New_Gradient_190-2" data-name="New Gradient 190" cx="4.101595" cy="7.6069" fx="4.101595" fy="7.6069" r="3.6991373" gradientUnits="userSpaceOnUse"><stop offset="0" stop-color="#328e36"/><stop offset="1" stop-color="#00cd00"/></radialGradient>
    <linearGradient id="New_Gradient_187" data-name="New Gradient 187" x1="-128.5366979" y1="1.178062" x2="-128.2916714" y2="1.8512667" gradientTransform="translate(104.4862 -75.9957) rotate(-42.0004154)" gradientUnits="userSpaceOnUse">
      <stop offset="0" stop-color="#005e00"/>
      <stop offset="1" stop-color="#23a11f"/>
    </linearGradient>
    <linearGradient id="New_Gradient_188-2" data-name="New Gradient 188" x1="-82.8828672" y1="18.7632163" x2="-80.8364555" y2="16.7168046" gradientTransform="translate(74.9989 -39.5457) rotate(-28.0027189)" gradientUnits="userSpaceOnUse"><stop offset="0" stop-color="#e5e5e5"/><stop offset="1" stop-color="#ccc"/></linearGradient>
    <linearGradient id="New_Gradient_81-2" data-name="New Gradient 81" x1="-83.3937459" y1="8.7007583" x2="-75.6403135" y2="22.130097" gradientTransform="translate(74.9989 -39.5457) rotate(-28.0027189)" gradientUnits="userSpaceOnUse"><stop offset="0" stop-color="#e5e5e5"/><stop offset=".758423" stop-color="#f2f2f2"/><stop offset=".89888" stop-color="#fff"/><stop offset="1" stop-color="#fff"/></linearGradient>
    <linearGradient id="New_Gradient_183-2" data-name="New Gradient 183" x1="-82.2410998" y1="19.0218663" x2="-77.3508511" y2="14.9184604" gradientTransform="translate(74.9989 -39.5457) rotate(-28.0027189)" gradientUnits="userSpaceOnUse"><stop offset="0" stop-color="#b2b2b2"/><stop offset=".168533" stop-color="#e5e5e5"/><stop offset=".230331" stop-color="#fff"/><stop offset=".280899" stop-color="#e5e5e5"/><stop offset="1" stop-color="#ccc"/></linearGradient>
    <linearGradient id="New_Gradient_184-2" data-name="New Gradient 184" x1="-81.9988308" y1="18.4549257" x2="-78.2983739" y2="14.7544688" gradientTransform="translate(74.9989 -39.5457) rotate(-28.0027189)" gradientUnits="userSpaceOnUse"><stop offset="0" stop-color="#b2b2b2"/><stop offset=".168533" stop-color="#e5e5e5"/><stop offset=".230331" stop-color="#fff"/><stop offset=".280899" stop-color="#e5e5e5"/><stop offset="1" stop-color="#ccc"/></linearGradient>
    <linearGradient id="New_Gradient_185-2" data-name="New Gradient 185" x1="-80.3139594" y1="16.4280548" x2="-77.0635907" y2="19.6784234" gradientTransform="translate(74.9989 -39.5457) rotate(-28.0027189)" gradientUnits="userSpaceOnUse"><stop offset="0" stop-color="#ccc"/><stop offset="1" stop-color="#fff"/></linearGradient>
    <linearGradient id="New_Gradient_186-2" data-name="New Gradient 186" x1="-77.9107238" y1="19.7837148" x2="-79.4637288" y2="16.2956084" gradientTransform="translate(74.9989 -39.5457) rotate(-28.0027189)" gradientUnits="userSpaceOnUse"><stop offset="0" stop-color="#b2b2b2"/><stop offset=".5" stop-color="#e5e5e5"/><stop offset="1" stop-color="#fff"/></linearGradient>
    <linearGradient id="New_Gradient_189-2" data-name="New Gradient 189" x1="-79.3727929" y1="16.8785015" x2="-77.3400621" y2="14.8457707" gradientTransform="translate(74.9989 -39.5457) rotate(-28.0027189)" gradientUnits="userSpaceOnUse"><stop offset="0" stop-color="#d9d9d9"/><stop offset="1" stop-color="#f2f2f2"/></linearGradient>
    <mask id="mask-2" x="6.754895" y="6.7759" width="7.1454998" height="6.6147" maskUnits="userSpaceOnUse">
      <polygon points="12.2641948 12.3906 8.9608949 10.9307 10.0990949 10.3257 9.2206949 8.6758 10.9140949 7.7759 11.791 9.4268 12.9003948 8.8364 12.2641948 12.3906" fill="#fff" stroke="#fff" stroke-linecap="round" stroke-linejoin="round" stroke-width="2"/>
    </mask>
    <radialGradient id="New_Gradient_190-3" data-name="New Gradient 190" cx="8.6914331" cy="7.4768674" fx="8.6914331" fy="7.4768674" r="4.9738732" gradientUnits="userSpaceOnUse"><stop offset="0" stop-color="#328e36"/><stop offset="1" stop-color="#00cd00"/></radialGradient>
    <radialGradient id="New_Gradient_191-2" data-name="New Gradient 191" cx="-85.6035438" cy="23.500791" fx="-85.6035438" fy="23.500791" r="5.723031" gradientTransform="translate(72.9998 -48.9014) rotate(-27.9995916) scale(.9432008)" gradientUnits="userSpaceOnUse"><stop offset="0" stop-color="#fff"/><stop offset="1" stop-color="#00cd00"/></radialGradient>
    <mask id="mask-3" x="6.754895" y="7.5156" width="6.1454998" height="5.0274" maskUnits="userSpaceOnUse">
      <polygon points="12.2641948 12.3906 8.9608949 10.9307 10.0990949 10.3257 9.2206949 8.6758 10.9140949 7.7759 11.791 9.4268 12.9003948 8.8364 12.2641948 12.3906" fill="#fff"/>
    </mask>
    <radialGradient id="New_Gradient_190-4" data-name="New Gradient 190" cx="8.9608949" cy="7.7759" fx="8.9608949" fy="7.7759" r="4.4040987" gradientUnits="userSpaceOnUse"><stop offset="0" stop-color="#328e36"/><stop offset="1" stop-color="#00cd00"/></radialGradient>
    <radialGradient id="New_Gradient_191-3" data-name="New Gradient 191" cx="-85.6035438" cy="23.500791" fx="-85.6035438" fy="23.500791" r="5.723031" gradientTransform="translate(72.9998 -48.9014) rotate(-27.9995916) scale(.9432008)" gradientUnits="userSpaceOnUse"><stop offset="0" stop-color="#fff"/><stop offset="1" stop-color="#00cd00"/></radialGradient>
    <linearGradient id="New_Gradient_187-2" data-name="New Gradient 187" x1="-77.6262784" y1="17.6517502" x2="-77.3540416" y2="18.3997148" gradientTransform="translate(74.9989 -39.5457) rotate(-28.0027189)" gradientUnits="userSpaceOnUse"><stop offset="0" stop-color="#005e00"/><stop offset="1" stop-color="#23a11f"/></linearGradient>
    <linearGradient id="New_Gradient_188-3" data-name="New Gradient 188" x1="-33.0775875" y1="25.4596972" x2="-30.8008607" y2="23.1829704" gradientTransform="translate(39.3816 -14.7118) rotate(-13.9987235)" gradientUnits="userSpaceOnUse"><stop offset="0" stop-color="#e5e5e5"/><stop offset="1" stop-color="#ccc"/></linearGradient>
    <linearGradient id="New_Gradient_81-3" data-name="New Gradient 81" x1="-33.6437722" y1="14.2777603" x2="-25.0292811" y2="29.1984966" gradientTransform="translate(39.3816 -14.7118) rotate(-13.9987235)" gradientUnits="userSpaceOnUse"><stop offset="0" stop-color="#e5e5e5"/><stop offset=".758423" stop-color="#f2f2f2"/><stop offset=".89888" stop-color="#fff"/><stop offset="1" stop-color="#fff"/></linearGradient>
    <linearGradient id="New_Gradient_183-3" data-name="New Gradient 183" x1="-32.3630473" y1="25.7453557" x2="-26.9292483" y2="21.1858569" gradientTransform="translate(39.3816 -14.7118) rotate(-13.9987235)" gradientUnits="userSpaceOnUse"><stop offset="0" stop-color="#b2b2b2"/><stop offset=".168533" stop-color="#e5e5e5"/><stop offset=".230331" stop-color="#fff"/><stop offset=".280899" stop-color="#e5e5e5"/><stop offset="1" stop-color="#ccc"/></linearGradient>
    <linearGradient id="New_Gradient_184-3" data-name="New Gradient 184" x1="-32.0938444" y1="25.115504" x2="-27.9818381" y2="21.0034977" gradientTransform="translate(39.3816 -14.7118) rotate(-13.9987235)" gradientUnits="userSpaceOnUse"><stop offset="0" stop-color="#b2b2b2"/><stop offset=".168533" stop-color="#e5e5e5"/><stop offset=".230331" stop-color="#fff"/><stop offset=".280899" stop-color="#e5e5e5"/><stop offset="1" stop-color="#ccc"/></linearGradient>
    <linearGradient id="New_Gradient_185-3" data-name="New Gradient 185" x1="-30.2220199" y1="22.8630185" x2="-26.6102693" y2="26.4747692" gradientTransform="translate(39.3816 -14.7118) rotate(-13.9987235)" gradientUnits="userSpaceOnUse"><stop offset="0" stop-color="#ccc"/><stop offset="1" stop-color="#fff"/></linearGradient>
    <linearGradient id="New_Gradient_186-3" data-name="New Gradient 186" x1="-27.5512608" y1="26.591895" x2="-29.276915" y2="22.7160121" gradientTransform="translate(39.3816 -14.7118) rotate(-13.9987235)" gradientUnits="userSpaceOnUse"><stop offset="0" stop-color="#b2b2b2"/><stop offset=".5" stop-color="#e5e5e5"/><stop offset="1" stop-color="#fff"/></linearGradient>
    <linearGradient id="New_Gradient_189-3" data-name="New Gradient 189" x1="-29.1762656" y1="23.3633237" x2="-26.9178998" y2="21.1049579" gradientTransform="translate(39.3816 -14.7118) rotate(-13.9987235)" gradientUnits="userSpaceOnUse"><stop offset="0" stop-color="#d9d9d9"/><stop offset="1" stop-color="#f2f2f2"/></linearGradient>
    <mask id="mask-4" x="10.8642949" y="8.272" width="7.9364998" height="7.3384" maskUnits="userSpaceOnUse">
      <polygon points="16.1591947 14.6104 12.9901948 12.1484 14.3803948 11.8022 13.877 9.7871 15.9442947 9.272 16.4457947 11.2871 17.8007947 10.9492 16.1591947 14.6104" fill="#fff" stroke="#fff" stroke-linecap="round" stroke-linejoin="round" stroke-width="2"/>
    </mask>
    <radialGradient id="New_Gradient_190-5" data-name="New Gradient 190" cx="12.6611498" cy="8.9260717" fx="12.6611498" fy="8.9260717" r="5.891357" gradientUnits="userSpaceOnUse"><stop offset="0" stop-color="#328e36"/><stop offset="1" stop-color="#00cd00"/></radialGradient>
    <radialGradient id="New_Gradient_191-4" data-name="New Gradient 191" cx="-32.9516975" cy="30.7536301" fx="-32.9516975" fy="30.7536301" r="6.3583775" gradientTransform="translate(40.1635 -25.2079) rotate(-14.0008848) scale(.9432212)" gradientUnits="userSpaceOnUse"><stop offset="0" stop-color="#fff"/><stop offset="1" stop-color="#00cd00"/></radialGradient>
    <mask id="mask-5" x="10.8642949" y="8.8896" width="6.9364998" height="5.816" maskUnits="userSpaceOnUse">
      <polygon points="16.1591947 14.6104 12.9901948 12.1484 14.3803948 11.8022 13.877 9.7871 15.9442947 9.272 16.4457947 11.2871 17.8007947 10.9492 16.1591947 14.6104" fill="#fff"/>
    </mask>
    <radialGradient id="New_Gradient_190-6" data-name="New Gradient 190" cx="12.9901948" cy="9.272" fx="12.9901948" fy="9.272" r="5.2160134" gradientUnits="userSpaceOnUse"><stop offset="0" stop-color="#328e36"/><stop offset="1" stop-color="#00cd00"/></radialGradient>
    <radialGradient id="New_Gradient_191-5" data-name="New Gradient 191" cx="-32.9516975" cy="30.7536301" fx="-32.9516975" fy="30.7536301" r="6.3583775" gradientTransform="translate(40.1635 -25.2079) rotate(-14.0008848) scale(.9432212)" gradientUnits="userSpaceOnUse"><stop offset="0" stop-color="#fff"/><stop offset="1" stop-color="#00cd00"/></radialGradient>
    <linearGradient id="New_Gradient_187-3" data-name="New Gradient 187" x1="-27.2358112" y1="24.2227076" x2="-26.9334576" y2="25.0534174" gradientTransform="translate(39.3816 -14.7118) rotate(-13.9987235)" gradientUnits="userSpaceOnUse"><stop offset="0" stop-color="#005e00"/><stop offset="1" stop-color="#23a11f"/></linearGradient>
  </defs>
  <g opacity=".7">
    <g opacity=".7">
      <path d="M5.913095,13.584l2.3646999.0713-.3686-.3975c-.125.3018-2.2245999.0718-2.2245999.0718l.2285.2544Z" fill="url(#New_Gradient_188)" fill-rule="evenodd"/>
      <path d="M8.5434949,17.3477s-.8072-.0215-2.0209999-1.3702c-.2481-.2754-5.1191999-5.6855-5.1191999-5.6855L5.812495,3.6992l4.5556999,5.0596c1.2812,1.4228,2.0296999,1.6328,2.0296999,1.6328,0,0-.1538,1.6411-3.8543999,6.9561Z" fill="url(#New_Gradient_81)" fill-rule="evenodd" stroke="#000" stroke-linecap="round" stroke-linejoin="round"/>
      <path d="M8.6718949,13.8301l-2.7880999-.128c-.0303-.0039-.0591-.0195-.084-.0468l-.7305-.8115c-.0634-.0704-.070295-.1934-.0166-.2745l1.9468-2.8759c.0332-.0494.0816-.0713.1284-.066l2.7812999.128c.0371.0053.0639.021.0874.0464l.7309.812c.0635051.0708.0713.1928.0166.2739l-1.9462,2.875c-.0323.0483-.0796.0713-.126.0674Z" fill="url(#New_Gradient_183)" stroke="#000" stroke-miterlimit="3.8637" stroke-width="2"/>
      <path d="M8.6718949,13.8301l-2.7880999-.128c-.0303-.0039-.0591-.0195-.084-.0468l-.7305-.8115c-.0634-.0704-.070295-.1934-.0166-.2745l1.9468-2.8759c.0332-.0494.0816-.0713.1284-.066l2.7895999.1285-1.2456,4.0742Z" fill="url(#New_Gradient_184)" fill-rule="evenodd"/>
      <path d="M7.836895,12.6963l1.9463-2.8755c.0547-.0806.1504-.0894.2134-.019l.7309.812c.0635051.0708.0713.1928.0166.2739l-1.9462,2.875c-.0547.0815-.1504.0903-.2138949.0195l-.731-.8115c-.063405-.0703-.070805-.1934-.016105-.2744Z" fill="url(#New_Gradient_185)" fill-rule="evenodd"/>
      <path d="M9.6791949,9.8516c.0913-.1426.2256-.1514.3413-.0235l.6943.771c.0831.0923.0884.2388.0225.3384l-1.8477,2.7705c-.0498.0752-.1845.1973-.3261.04l-.7094949-.7876c-.083-.0922-.088405-.2387-.022505-.3374l1.8477-2.7714ZM8.708,13.6787c.0067949-.0058.02-.0185.0360949-.043l1.8482-2.771c.0366-.0556.0288-.1411-.0092949-.1835l-.6934051-.771c-.0165949-.0181-.0234-.0245-.0302-.0293-.0078.0068-.02.0195-.0352.0429l-1.8471,2.7705c-.0376.0562-.0293.1426.0083.1841l.7089.7876.0137051.0127Z" fill="url(#New_Gradient_186)"/>
      <path d="M7.123,9.7861l2.3798949.0738-.9887,1.5327c.6059-2.0967-1.6167-1.2637-1.6167-1.2637l.225505-.3428Z" fill="url(#New_Gradient_189)" fill-rule="evenodd"/>
      <g>
        <g mask="url(#mask)">
          <g>
            <polygon points="7.567395 11.3433 4.365195 10.7876 5.227495 10.0107 4.101595 8.7617 5.383795 7.6069 6.508795 8.8574 7.349095 8.1006 7.567395 11.3433" fill="url(#New_Gradient_190)"/>
            <polygon points="2.2348951 10.4492 4.995095 7.4629 6.510695 9.1465 7.185495 8.5381 7.377395 11.5317 2.2348951 10.4492" fill="url(#New_Gradient_191)" fill-rule="evenodd"/>
            <polygon points="7.567395 11.3433 4.365195 10.7876 5.227495 10.0107 4.101595 8.7617 5.383795 7.6069 6.508795 8.8574 7.349095 8.1006 7.567395 11.3433" fill="none" stroke="#000" stroke-linecap="round" stroke-linejoin="round" stroke-width="2"/>
          </g>
        </g>
        <g mask="url(#mask-1)">
          <g>
            <polygon points="7.567395 11.3433 4.365195 10.7876 5.227495 10.0107 4.101595 8.7617 5.383795 7.6069 6.508795 8.8574 7.349095 8.1006 7.567395 11.3433" fill="url(#New_Gradient_190-2)"/>
            <polygon points="2.2348951 10.4492 4.995095 7.4629 6.510695 9.1465 7.185495 8.5381 7.377395 11.5317 2.2348951 10.4492" fill="url(#New_Gradient_191)" fill-rule="evenodd"/>
          </g>
        </g>
      </g>
      <g>
        <path d="M9.7763949,11.083l.2861-.4077c.1816-.2612.4932.0854.311.3457l-.2851.4082c-.1812.2603-.4927-.0854-.312-.3462Z" fill="url(#New_Gradient_187)"/>
        <line x1="9.8954949" y1="11.2422" x2="10.168" y2="10.8496" fill="none" stroke="#7eff81" stroke-linecap="round" stroke-miterlimit="3.8637" stroke-width=".5263"/>
      </g>
    </g>
    <g>
      <path d="M9.8778949,14.3613l2.5302999.7129-.291-.5273c-.2158.291-2.4174999-.521-2.4174999-.521l.1782.3354Z" fill="url(#New_Gradient_188-2)" fill-rule="evenodd"/>
      <path d="M11.7020949,19.126s-.8642-.2398-1.811-2.02c-.1929-.3638-3.9906999-7.5054-3.9906999-7.5054l6.5253998-5.9234,3.5516999,6.6797c.9991,1.8789,1.7496,2.3062,1.7496,2.3062,0,0-.607,1.728-6.0249998,6.4629Z" fill="url(#New_Gradient_81-2)" fill-rule="evenodd" stroke="#000" stroke-linecap="round" stroke-linejoin="round"/>
      <path d="M12.7860948,15.3691l-2.9715999-.8881c-.0313-.0122-.0586-.0367-.0777-.0728l-.5697949-1.0723c-.0498051-.0918-.0239051-.2265.0565949-.2993l2.8710999-2.5771c.0489-.0445.1065-.0552.1563052-.0366l2.9637948.8852c.0391.0161.064.0396.0821.0737l.5693,1.0713c.0498053.0938.0254.2276-.0557.3008l-2.8709999,2.5762c-.0479.0429-.1041.0556-.1534.039Z" fill="url(#New_Gradient_183-2)" stroke="#000" stroke-miterlimit="3.8637" stroke-width="2"/>
      <path d="M12.7860948,15.3691l-2.9715999-.8881c-.0313-.0122-.0586-.0367-.0777-.0728l-.5697949-1.0723c-.0498051-.0918-.0239051-.2265.0565949-.2993l2.8710999-2.5771c.0489-.0445.1065-.0552.1563052-.0366l2.9725948.8886-2.4374999,4.0576Z" fill="url(#New_Gradient_184-2)" fill-rule="evenodd"/>
      <path d="M12.1903948,13.9219l2.8716052-2.5772c.0805948-.0722.1855948-.0556.2348948.0371l.5693,1.0713c.0498053.0938.0254.2276-.0557.3008l-2.8709999,2.5762c-.0811.0732-.1861.0566-.2359-.0362l-.5693-1.0717c-.0492948-.0933-.0244-.2271.0561-.3003Z" fill="url(#New_Gradient_185-2)" fill-rule="evenodd"/>
      <path d="M14.9413948,11.3506c.1367-.1289.2842-.103.374.0664l.541,1.0176c.065.122.0313.2812-.0668.3701l-2.7363999,2.4912c-.0737.0669-.2519.1631-.3628-.0449l-.5527-1.0401c-.0645-.1215-.0313-.2807.0674-.3701l2.7362999-2.4902ZM12.8656948,15.2148c.0093052-.0039.0259-.0136.0503052-.0361l2.7372948-2.4912c.0547052-.0498.0684-.1445.0396-.1992l-.541-1.0186c-.0132-.0234-.0181-.0332-.024-.0395-.0107.0053-.0268.0156-.0498.0371l-2.7362999,2.4907c-.0557.0498-.0693.145-.04.2002l.5527,1.04.0112.0166Z" fill="url(#New_Gradient_186-2)"/>
      <path d="M12.2030948,10.5928l2.5453999.7187-1.478,1.3867c1.2178-2.0966-1.4023-1.7968-1.4023-1.7968l.3349-.3086Z" fill="url(#New_Gradient_189-2)" fill-rule="evenodd"/>
      <g>
        <g mask="url(#mask-2)">
          <g>
            <polygon points="12.2641948 12.3906 8.9608949 10.9307 10.0990949 10.3257 9.2206949 8.6758 10.9140949 7.7759 11.791 9.4268 12.9003948 8.8364 12.2641948 12.3906" fill="url(#New_Gradient_190-3)"/>
            <polygon points="6.754895 9.9941 10.5331949 7.5156 11.7147949 9.7383 12.6063948 9.2642 12.0077948 12.543 6.754895 9.9941" fill="url(#New_Gradient_191-2)" fill-rule="evenodd"/>
            <polygon points="12.2641948 12.3906 8.9608949 10.9307 10.0990949 10.3257 9.2206949 8.6758 10.9140949 7.7759 11.791 9.4268 12.9003948 8.8364 12.2641948 12.3906" fill="none" stroke="#000" stroke-linecap="round" stroke-linejoin="round" stroke-width="2"/>
          </g>
        </g>
        <g mask="url(#mask-3)">
          <g>
            <polygon points="12.2641948 12.3906 8.9608949 10.9307 10.0990949 10.3257 9.2206949 8.6758 10.9140949 7.7759 11.791 9.4268 12.9003948 8.8364 12.2641948 12.3906" fill="url(#New_Gradient_190-4)"/>
            <polygon points="6.754895 9.9941 10.5331949 7.5156 11.7147949 9.7383 12.6063948 9.2642 12.0077948 12.543 6.754895 9.9941" fill="url(#New_Gradient_191-3)" fill-rule="evenodd"/>
          </g>
        </g>
      </g>
      <g>
        <path d="M14.7152948,12.7046l.4175-.3638c.2666-.2324.5093.2246.2432052.4571l-.418.3632c-.2656052.2315-.5078052-.2246-.2427052-.4565Z" fill="url(#New_Gradient_187-2)"/>
        <line x1="14.8002948" y1="12.9072" x2="15.2001948" y2="12.5576" fill="none" stroke="#7eff81" stroke-linecap="round" stroke-miterlimit="3.8637" stroke-width=".5263"/>
      </g>
    </g>
  </g>
  <g>
    <path d="M13.0570948,16.0938l2.5366999,1.4482-.1719-.6465c-.3115.2559-2.4667999-1.2114-2.4667999-1.2114l.102.4097Z" fill="url(#New_Gradient_188-3)" fill-rule="evenodd"/>
    <path d="M13.7426948,21.7207s-.8666948-.4907-1.4086948-2.665c-.1109052-.4434-2.2852051-9.1641-2.2852051-9.1641l8.6274998-4.6318,2.0337053,8.1562c.5716946,2.294,1.2655946,2.9566,1.2655946,2.9566,0,0-1.1182,1.6997-8.2328998,5.3481Z" fill="url(#New_Gradient_81-3)" fill-rule="evenodd" stroke="#000" stroke-linecap="round" stroke-linejoin="round"/>
    <path d="M15.9218947,17.9614l-2.9648947-1.7558c-.0312052-.022-.0537052-.0552-.0644052-.0996l-.3267-1.3081c-.0278-.1133.0357-.252.1416-.3086l3.7885999-2.0064c.0644-.0347.1299053-.0308.1782.0025l2.9574999,1.7509c.0371.0279.0581.0601.0684.1016l.3262,1.3086c.0283.1138-.0342.2519-.1407.3086l-3.7879999,2.0058c-.0635.0337-.128.0313-.1758.0005Z" fill="url(#New_Gradient_183-3)" stroke="#000" stroke-miterlimit="3.8637" stroke-width="2"/>
    <path d="M15.9218947,17.9614l-2.9648947-1.7558c-.0312052-.022-.0537052-.0552-.0644052-.0996l-.3267-1.3081c-.0278-.1133.0357-.252.1416-.3086l3.7885999-2.0064c.0644-.0347.1299053-.0308.1782.0025l2.9662999,1.7568-3.7186999,3.7192Z" fill="url(#New_Gradient_184-3)" fill-rule="evenodd"/>
    <path d="M15.6684948,16.2412l3.7879999-2.0058c.107-.0567.2154-.0108.2437.1025l.3262,1.3086c.0283.1138-.0342.2519-.1407.3086l-3.7879999,2.0058c-.1075.0572-.2164.0108-.2446947-.1025l-.3261052-1.3086c-.0284-.1133.0346-.2515.1416-.3086Z" fill="url(#New_Gradient_185-3)" fill-rule="evenodd"/>
    <path d="M19.3251947,14.2085c.1826-.1025.334-.0347.3857.1724l.3096,1.2426c.0371.1485-.042.312-.1714.3814l-3.6195999,1.9497c-.0986.0522-.3154.1079-.3789-.146l-.3164-1.2695c-.0371-.1485.0415-.3116.1714-.3809l3.6195999-1.9497ZM16.0487947,17.8169c.0108-.002.0323-.0083.064-.0249l3.6205999-1.9502c.0723-.0391.1133-.1377.0967-.2051l-.3100946-1.2427c-.0073053-.0293-.0102053-.0405-.0151053-.0493-.0127.002-.0332.0098-.0635.0264l-3.6190999,1.9497c-.0732947.0386-.1142947.1382-.0977.2051l.3164052,1.2695.0077947.0215Z" fill="url(#New_Gradient_186-3)"/>
    <path d="M16.5770947,12.6558l2.5507999,1.4589-1.9658,1.0977c1.876-1.9336-1.0298-2.314-1.0298-2.314l.4448-.2426Z" fill="url(#New_Gradient_189-3)" fill-rule="evenodd"/>
    <g>
      <g mask="url(#mask-4)">
        <g>
          <polygon points="16.1591947 14.6104 12.9901948 12.1484 14.3803948 11.8022 13.877 9.7871 15.9442947 9.272 16.4457947 11.2871 17.8007947 10.9492 16.1591947 14.6104" fill="url(#New_Gradient_190-5)"/>
          <polygon points="10.8642949 10.5454 15.604 8.8896 16.2802947 11.6025 17.3681947 11.3315 15.8427947 14.7056 10.8642949 10.5454" fill="url(#New_Gradient_191-4)" fill-rule="evenodd"/>
          <polygon points="16.1591947 14.6104 12.9901948 12.1484 14.3803948 11.8022 13.877 9.7871 15.9442947 9.272 16.4457947 11.2871 17.8007947 10.9492 16.1591947 14.6104" fill="none" stroke="#000" stroke-linecap="round" stroke-linejoin="round" stroke-width="2"/>
        </g>
      </g>
      <g mask="url(#mask-5)">
        <g>
          <polygon points="16.1591947 14.6104 12.9901948 12.1484 14.3803948 11.8022 13.877 9.7871 15.9442947 9.272 16.4457947 11.2871 17.8007947 10.9492 16.1591947 14.6104" fill="url(#New_Gradient_190-6)"/>
          <polygon points="10.8642949 10.5454 15.604 8.8896 16.2802947 11.6025 17.3681947 11.3315 15.8427947 14.7056 10.8642949 10.5454" fill="url(#New_Gradient_191-5)" fill-rule="evenodd"/>
        </g>
      </g>
    </g>
    <g>
      <path d="M18.7177947,15.6074l.5478-.2793c.3496-.1787.4883.3789.1387.5576l-.5474.2793c-.3486.1788-.4878-.3789-.1391-.5576Z" fill="url(#New_Gradient_187-3)"/>
      <line x1="18.7548947" y1="15.8491" x2="19.2792947" y2="15.5801" fill="none" stroke="#7eff81" stroke-linecap="round" stroke-miterlimit="3.8637" stroke-width=".5263"/>
    </g>
  </g>
</svg>