<?xml version="1.0" encoding="UTF-8"?>
<svg id="Layer_1" data-name="Layer 1" xmlns="http://www.w3.org/2000/svg" width="24" height="24" xmlns:xlink="http://www.w3.org/1999/xlink" viewBox="0 0 24 24">
  <defs>
    <linearGradient id="linear-gradient" x1="11.5285246" y1="6.6344424" x2="15.4678526" y2="8.0438945" gradientUnits="userSpaceOnUse">
      <stop offset="0" stop-color="#000"/>
      <stop offset=".0375685" stop-color="#070000"/>
      <stop offset=".507581" stop-color="#5c0705"/>
      <stop offset=".8391212" stop-color="#910b08"/>
      <stop offset="1" stop-color="#a60d0a"/>
    </linearGradient>
    <linearGradient id="linear-gradient-2" x1="8.8388874" y1="11.4178188" x2="9.718697" y2="7.8609162" gradientUnits="userSpaceOnUse">
      <stop offset=".219101" stop-color="#000"/>
      <stop offset=".808989" stop-color="#a60d0a"/>
      <stop offset=".8617727" stop-color="#a80e0b"/>
      <stop offset=".9000993" stop-color="#b2140e"/>
      <stop offset=".9338413" stop-color="#c21d13"/>
      <stop offset=".9649492" stop-color="#d82b1b"/>
      <stop offset=".9939845" stop-color="#f53c25"/>
      <stop offset="1" stop-color="#fc4128"/>
    </linearGradient>
    <mask id="mask" x="1.7496034" y="5.9120977" width="20.7702277" height="13.4191553" maskUnits="userSpaceOnUse">
      <path d="M19.0347,12.6191c-.1255.4214-.3047.9605-1.0987,1.3687-.1152.0601-.1611-.0381-.1059-.1294.2993-.5083.353-.6372.4409-.8389.1216-.2959.1851-.7143-.0566-1.5859-.4771-1.7207-1.4756-4.0171-2.1993-4.7632-.6992-.7192-1.9648-.9224-3.1113-.6284-.4214.1079-1.2461.5376-2.7754.1924-2.6479-.5972-3.04.729-3.1909,1.3071-.1528.5772-.5181,2.2188-.5181,2.2188-.1211.6689-.2807,1.8305,3.8306,2.6142,1.915.3648,2.0122.8594,2.0967,1.2158.1518.6387.396,1.003.6679,1.1846.275.1836,0,.3345-.3032.3662-.8149.084-3.8296-.7798-5.6118-1.7949-1.4595-.8916-1.4839-1.6929-1.1504-2.3745-2.2041-.2383-3.8574.206-4.1592,1.2505-.5131,1.7895,3.938,4.8481,9.0083,6.3838,5.3184,1.6108,10.7896.4868,11.397-2.8589.2769-1.5171-1.0024-2.6402-3.1606-3.128ZM10.8784,9.3442c-1.4673.1079-1.6206.2652-1.895.5586-.3872.4121-.897-.5366-.897-.5366-.3061-.0644-.6777-.5581-.4785-1.0195.1978-.4556.5625-.3184.6758-.1773.1396.1734.4365.4551.8223.4468.3837-.0122.8286-.0923,1.4482-.0923.6274,0,1.0498.2349,1.0742.4356.0215.1733-.0503.3349-.75.3847ZM12.4204,6.9199h-.0083c-.022,0-.0405-.0166-.0405-.0371,0-.0161.0097-.0298.0234-.0361.2837-.1499.708-.2696,1.1944-.3184.1464-.0151.288-.0224.4248-.0244.0249,0,.0488.001.0732.001.8145.019,1.4668.3418,1.4561.7222-.0103.3803-.6763.6752-1.4908.6567-.2641-.0059-.5117-.044-.7241-.106-.0264-.0063-.0449-.0278-.0449-.0527,0-.0269.0185-.0459.0449-.0527.5083-.1187.8506-.3106.8267-.4912-.0327-.2413-.6958-.3731-1.4844-.2935-.0855.0088-.1719.019-.2505.0322Z" fill="#fff"/>
    </mask>
    <clipPath id="clippath">
      <path d="M19.0347,12.6191c-.1255.4214-.3047.9605-1.0987,1.3687-.1152.0601-.1611-.0381-.1059-.1294.2993-.5083.353-.6372.4409-.8389.1216-.2959.1851-.7143-.0566-1.5859-.4771-1.7207-1.4756-4.0171-2.1993-4.7632-.6992-.7192-1.9648-.9224-3.1113-.6284-.4214.1079-1.2461.5376-2.7754.1924-2.6479-.5972-3.04.729-3.1909,1.3071-.1528.5772-.5181,2.2188-.5181,2.2188-.1211.6689-.2807,1.8305,3.8306,2.6142,1.915.3648,2.0122.8594,2.0967,1.2158.1518.6387.396,1.003.6679,1.1846.275.1836,0,.3345-.3032.3662-.8149.084-3.8296-.7798-5.6118-1.7949-1.4595-.8916-1.4839-1.6929-1.1504-2.3745-2.2041-.2383-3.8574.206-4.1592,1.2505-.5131,1.7895,3.938,4.8481,9.0083,6.3838,5.3184,1.6108,10.7896.4868,11.397-2.8589.2769-1.5171-1.0024-2.6402-3.1606-3.128ZM10.8784,9.3442c-1.4673.1079-1.6206.2652-1.895.5586-.3872.4121-.897-.5366-.897-.5366-.3061-.0644-.6777-.5581-.4785-1.0195.1978-.4556.5625-.3184.6758-.1773.1396.1734.4365.4551.8223.4468.3837-.0122.8286-.0923,1.4482-.0923.6274,0,1.0498.2349,1.0742.4356.0215.1733-.0503.3349-.75.3847ZM12.4204,6.9199h-.0083c-.022,0-.0405-.0166-.0405-.0371,0-.0161.0097-.0298.0234-.0361.2837-.1499.708-.2696,1.1944-.3184.1464-.0151.288-.0224.4248-.0244.0249,0,.0488.001.0732.001.8145.019,1.4668.3418,1.4561.7222-.0103.3803-.6763.6752-1.4908.6567-.2641-.0059-.5117-.044-.7241-.106-.0264-.0063-.0449-.0278-.0449-.0527,0-.0269.0185-.0459.0449-.0527.5083-.1187.8506-.3106.8267-.4912-.0327-.2413-.6958-.3731-1.4844-.2935-.0855.0088-.1719.019-.2505.0322Z" fill="#cb1009"/>
    </clipPath>
    <clipPath id="clippath-1">
      <path d="M19.0347,12.6191c-.1255.4214-.3047.9605-1.0987,1.3687-.1152.0601-.1611-.0381-.1059-.1294.2993-.5083.353-.6372.4409-.8389.1216-.2959.1851-.7143-.0566-1.5859-.4771-1.7207-1.4756-4.0171-2.1993-4.7632-.6992-.7192-1.9648-.9224-3.1113-.6284-.4214.1079-1.2461.5376-2.7754.1924-2.6479-.5972-3.04.729-3.1909,1.3071-.1528.5772-.5181,2.2188-.5181,2.2188-.1211.6689-.2807,1.8305,3.8306,2.6142,1.915.3648,2.0122.8594,2.0967,1.2158.1518.6387.396,1.003.6679,1.1846.275.1836,0,.3345-.3032.3662-.8149.084-3.8296-.7798-5.6118-1.7949-1.4595-.8916-1.4839-1.6929-1.1504-2.3745-2.2041-.2383-3.8574.206-4.1592,1.2505-.5131,1.7895,3.938,4.8481,9.0083,6.3838,5.3184,1.6108,10.7896.4868,11.397-2.8589.2769-1.5171-1.0024-2.6402-3.1606-3.128ZM10.8784,9.3442c-1.4673.1079-1.6206.2652-1.895.5586-.3872.4121-.897-.5366-.897-.5366-.3061-.0644-.6777-.5581-.4785-1.0195.1978-.4556.5625-.3184.6758-.1773.1396.1734.4365.4551.8223.4468.3837-.0122.8286-.0923,1.4482-.0923.6274,0,1.0498.2349,1.0742.4356.0215.1733-.0503.3349-.75.3847ZM12.4204,6.9199h-.0083c-.022,0-.0405-.0166-.0405-.0371,0-.0161.0097-.0298.0234-.0361.2837-.1499.708-.2696,1.1944-.3184.1464-.0151.288-.0224.4248-.0244.0249,0,.0488.001.0732.001.8145.019,1.4668.3418,1.4561.7222-.0103.3803-.6763.6752-1.4908.6567-.2641-.0059-.5117-.044-.7241-.106-.0264-.0063-.0449-.0278-.0449-.0527,0-.0269.0185-.0459.0449-.0527.5083-.1187.8506-.3106.8267-.4912-.0327-.2413-.6958-.3731-1.4844-.2935-.0855.0088-.1719.019-.2505.0322Z" clip-path="url(#clippath)" fill="none"/>
    </clipPath>
    <radialGradient id="radial-gradient" cx="-28.2505641" cy="-18.4655531" fx="-28.2505641" fy="-18.4655531" r="9.8891854" gradientTransform="translate(43.0259 35.6825) scale(1.1995)" gradientUnits="userSpaceOnUse">
      <stop offset=".168539" stop-color="#fc4128"/>
      <stop offset=".38764" stop-color="#f61f21"/>
      <stop offset=".5995848" stop-color="#ea1b1a"/>
      <stop offset=".9720023" stop-color="#cd100a"/>
      <stop offset="1" stop-color="#cb1009"/>
    </radialGradient>
    <radialGradient id="radial-gradient-2" cx="-12.5972741" cy="83.7257528" fx="-12.5972741" fy="83.7257528" r="2.453938" gradientTransform="translate(32.4507 -28.4793) scale(1.1995 .4518) skewX(-4.8272804)" gradientUnits="userSpaceOnUse">
      <stop offset="0" stop-color="#fb805f"/>
      <stop offset=".4132715" stop-color="#fa7e5d"/>
      <stop offset=".5759134" stop-color="#f77758"/>
      <stop offset=".694481" stop-color="#f16a4e"/>
      <stop offset=".7915514" stop-color="#ea5941"/>
      <stop offset=".8754609" stop-color="#e04330"/>
      <stop offset=".9490366" stop-color="#d5271b"/>
      <stop offset="1" stop-color="#cb1009"/>
    </radialGradient>
    <linearGradient id="linear-gradient-3" x1="5.939" y1="12.8677295" x2="15.4839" y2="12.8677295" gradientUnits="userSpaceOnUse">
      <stop offset="0" stop-color="#666"/>
      <stop offset=".786517" stop-color="#000"/>
    </linearGradient>
  </defs>
  <path d="M18.7891,14.3667c-.0899.3682-.2237.8433-1.0787,1.2295-.1235.0561-.1865-.0259-.1367-.1065.2744-.4511.3189-.5634.3921-.7412.1016-.2568.1206-.6167-.2671-1.3437-.7461-1.4082-2.1074-3.2085-2.9658-3.7427-.8135-.5039-2.1396-.541-3.2681-.2012-.4086.1226-1.1826.5274-2.6923.398-2.5176-.2134-2.7769.8037-2.8711,1.2466-.0962.4433-.3096,1.7031-.3096,1.7031-.0605.5137-.123,1.4053,3.8325,1.8105,1.9468.2002,2.0933.5962,2.2158.8819.2193.5156.5078.8061.8106.9482.3047.1416.0347.2764-.2769.3111-.8344.0942-3.9111-.5064-5.6855-1.2378-1.4087-.6255-1.4903-1.2369-1.2359-1.7691-1.9795-.062-3.3798.3521-3.5737,1.1362-.3359,1.3497,3.8159,3.5884,8.8677,4.7803,5.8813,1.3882,12.2275.3872,12.4697-2.6836.1084-1.3794-1.6221-2.3154-4.227-2.6196ZM9.77,12.1968c-1.4121.1831-1.5454.3149-1.7812.5591-.334.3432-.8892-.3531-.8892-.3531-.2905-.0293-.6738-.3784-.5234-.7426.1479-.3575.4961-.2808.6133-.1831.1445.122.4448.3178.8076.2817.3647-.0371.7842-.1309,1.3823-.1763.6123-.0473,1.0518.105,1.0928.2593.0361.1348-.0196.2661-.7022.355ZM11.0659,10.186c-.001.001-.0029.0015-.0073.0015-.0215.0024-.041-.0098-.043-.0259-.0019-.0122.0054-.0234.0196-.0298.269-.1425.6831-.2739,1.1689-.3554.146-.0269.2915-.044.4297-.0581.0249-.0039.0493-.0049.0757-.0059.8403-.063,1.5556.1353,1.5874.4404.0317.3062-.6372.5992-1.4824.6519-.2725.0166-.5279.0068-.751-.023-.0259-.0044-.0464-.019-.0493-.0385-.0025-.0196.0131-.0381.039-.0445.5054-.1362.8389-.3188.7949-.4604-.0581-.188-.7485-.231-1.5336-.0982-.0855.0142-.167.0288-.2486.0459Z" opacity=".44"/>
  <path d="M22.8091,15.2539c-.0762-1.4507-1.3062-2.3535-2.562-2.814-.3433-.1269-1.2149-.3813-1.2149-.3813,0,0-.4516-1.4702-.6113-1.9131-.312-.8769-.6606-1.7451-1.1074-2.561-.8863-1.6114-2.4072-2.4278-4.2549-1.9966-.9282.2187-1.6709.3975-2.6318.2397-.8643-.1396-1.7427-.2563-2.5982.065-.9106.3428-1.0288,1.0068-1.2534,1.7549-.0361.123-.5869,2.4633-.6216,2.8129-1.1074-.0893-2.5537-.082-3.5249.4942-1.249.7397-1.2392,2.0967-.4355,3.1714.8628,1.1548,2.164,2.0254,3.3921,2.7441,1.517.8911,3.1586,1.586,4.832,2.124,3.1802,1.021,7.2002,1.5425,10.2583-.1484,1.2827-.71,2.414-2.0483,2.3335-3.5918Z"/>
  <path d="M11.2456,7.4443c0-.5962,1.1397-1.08,2.5454-1.08,1.4068.0004,2.5459.4834,2.5459,1.08,0,.5953-1.1391,1.0796-2.5459,1.0796-1.4057,0-2.5454-.4843-2.5454-1.0796Z" fill="url(#linear-gradient)"/>
  <path d="M7.1021,8.9136c0,.8442,1.0537,1.5278,2.3554,1.5278,1.3008,0,2.357-.6836,2.357-1.5278,0-.8428-1.0562-1.5264-2.357-1.5264-1.3017,0-2.3554.6836-2.3554,1.5264Z" fill="url(#linear-gradient-2)"/>
  <g mask="url(#mask)">
    <g>
      <path d="M19.0347,12.6191c-.1255.4214-.3047.9605-1.0987,1.3687-.1152.0601-.1611-.0381-.1059-.1294.2993-.5083.353-.6372.4409-.8389.1216-.2959.1851-.7143-.0566-1.5859-.4771-1.7207-1.4756-4.0171-2.1993-4.7632-.6992-.7192-1.9648-.9224-3.1113-.6284-.4214.1079-1.2461.5376-2.7754.1924-2.6479-.5972-3.04.729-3.1909,1.3071-.1528.5772-.5181,2.2188-.5181,2.2188-.1211.6689-.2807,1.8305,3.8306,2.6142,1.915.3648,2.0122.8594,2.0967,1.2158.1518.6387.396,1.003.6679,1.1846.275.1836,0,.3345-.3032.3662-.8149.084-3.8296-.7798-5.6118-1.7949-1.4595-.8916-1.4839-1.6929-1.1504-2.3745-2.2041-.2383-3.8574.206-4.1592,1.2505-.5131,1.7895,3.938,4.8481,9.0083,6.3838,5.3184,1.6108,10.7896.4868,11.397-2.8589.2769-1.5171-1.0024-2.6402-3.1606-3.128ZM10.8784,9.3442c-1.4673.1079-1.6206.2652-1.895.5586-.3872.4121-.897-.5366-.897-.5366-.3061-.0644-.6777-.5581-.4785-1.0195.1978-.4556.5625-.3184.6758-.1773.1396.1734.4365.4551.8223.4468.3837-.0122.8286-.0923,1.4482-.0923.6274,0,1.0498.2349,1.0742.4356.0215.1733-.0503.3349-.75.3847ZM12.4204,6.9199h-.0083c-.022,0-.0405-.0166-.0405-.0371,0-.0161.0097-.0298.0234-.0361.2837-.1499.708-.2696,1.1944-.3184.1464-.0151.288-.0224.4248-.0244.0249,0,.0488.001.0732.001.8145.019,1.4668.3418,1.4561.7222-.0103.3803-.6763.6752-1.4908.6567-.2641-.0059-.5117-.044-.7241-.106-.0264-.0063-.0449-.0278-.0449-.0527,0-.0269.0185-.0459.0449-.0527.5083-.1187.8506-.3106.8267-.4912-.0327-.2413-.6958-.3731-1.4844-.2935-.0855.0088-.1719.019-.2505.0322Z" fill="#cb1009"/>
      <g clip-path="url(#clippath-1)">
        <g>
          <path d="M7.9893,8.1445c-.9629,3.7744-8.0743,3.7432-2.9195,6.9742,2.6138,1.6367,7.4702,3.9023,10.9053,3.622,4.8779-.3999,6.9189-4.0117,2.3682-5.3242-2.0523-.5947-1.8208-7.1245-3.4761-6.5923-.3975.1279-.5908.8989-1.9658,1.7124-1.375.8145-4.9121-.3921-4.9121-.3921Z" fill="url(#radial-gradient)"/>
          <path d="M11.6172,9.3179c-.0376.3022-.7129.583-1.6973.6308-1.2978.0596-2.5635-.2929-2.4072-.7876.1504-.4746,1.5078-.6938,2.6772-.5537.9024.1114,1.4654.4151,1.4273.7105Z" fill="url(#radial-gradient-2)"/>
          <path d="M18.2144,11.4336c-.4771-1.7207-1.4756-4.0171-2.1993-4.7632-.0547-.0561-.1191-.1045-.1801-.1533.6176.7642.7939,2.7329,1.1626,4.0561.2431.875.2485,2.1504.1254,2.4463-.0878.2017-.7651.3306-1.0649.8389-.0542.0913,1.0264.647,1.1401.5879.7955-.4077,1.045-1.4058,1.1719-1.8272.0283-.2714-.0049-.6401-.1557-1.1855Z" fill="#a60d0a"/>
        </g>
        <path d="M5.8354,13.0024c.5582.5586,4.2779,2.3789,7.0733,1.9864-.9077-.3047-3.1597-.8037-4.3672-1.4893-1.0513-.6421-1.355-1.2368-1.3208-1.7764-.4438-.2168-.7256-.4394-.9023-.6601-.3648-.6026-1.6905.7319-.483,1.9394Z" fill="#a60d0a"/>
        <path d="M19.0347,12.6191c-.002.0039-.0025.0088-.0044.0132.5019.1597-.1153-.4453-.3697.7798,1.8448,0,2.3931,1.7349,2.2842,2.335-.3882,2.1323-3.2729,3.3589-6.313,3.5551,3.8579.2344,7.397-1.0249,7.8565-3.5551.2763-1.5171-1.2954-2.6402-3.4536-3.128Z" fill="#a60d0a"/>
        <path d="M14.9717,7.2334c-1.1211-.8638-1.8789-.415-4.1065-.0928,2.3413-.104,4.4077.0366,4.1065.0928" fill="#980f08"/>
        <path d="M10.4937,12.4243c.6879.1392,1.7802.3555,3.0405.3555,2.376.0005,4.3403-.916,4.6919-1.8804.2475-.25.7607,1.4707.6377,2.0274-.4492,1.646-3.1328,2.0258-4.2998,2.1518-.5054.0542-1.8438.2534-3.565-.2788-1.0097-.3105.0513-1.3198.0513-2.1255"/>
        <path d="M7.6733,8.8179c.2544.7968.4029.6548.4327.6836" fill="none" stroke="#fc4128" stroke-linecap="round" stroke-linejoin="round" stroke-width=".375"/>
        <path d="M15.5864,7.1152c-.1025-.0092.0513-.1206-.3095-.0288-.3604.0923-1.8623.607-1.9932.6387.0059-.0005.064.2207.0439.2144.5577.1601,1.1617.2246,1.7305.0688.376-.103.9907-.4697.5283-.8931" fill="#fb805f"/>
        <path d="M6.8428,10.7627c0-4.2363,1.3818-4.5244,2.52-4.3892-1.3814.4663-2.2598,1.7715-2.52,4.3892Z" fill="#fb805f"/>
        <path d="M11.5854,9.0977s-1.5615.4077-1.9951.4077c-.4297,0-.792.5039-.792.5039" fill="none" stroke="#fc4128" stroke-linecap="round" stroke-linejoin="round" stroke-width=".5"/>
        <path d="M5.3516,15.8345c-4.2412-2.5098-3.6402-4.8828.4917-4.6729-2.8579,1.1543-3.3912,1.5855-.4917,4.6729" fill="#a60d0a"/>
        <path d="M17.6396,18.7329c5.9771-2.1592,3.8589-5.1304,1.9864-5.1304.6802.8194,2.3359,2.8213-1.9864,5.1304Z" fill="#fc4128"/>
      </g>
    </g>
  </g>
  <path d="M6.1924,10.7832c-.2432.1885-.252.7564-.2534.981,1.0669,2.4135,7.3144,3.6904,9.5449,3.0029-1.1226-.9522-1.4028-1.5991-1.4028-1.5991,0,0-6.6836-.5049-7.8887-2.3848Z" fill="url(#linear-gradient-3)"/>
</svg>