<?xml version='1.0' encoding='UTF-8'?>
<svg xmlns="http://www.w3.org/2000/svg" xmlns:xlink="http://www.w3.org/1999/xlink" width="24" height="24" viewBox="0 0 24 24">
  <defs>
    <radialGradient id="radial-gradient" cx="23.5979723" cy="63.134248" fx="23.5979723" fy="63.134248" r="9.0373136" gradientTransform="translate(-19.9104 -69.1803) scale(1.2259)" gradientUnits="userSpaceOnUse">
      <stop offset="0" stop-color="#fff"/>
      <stop offset=".207865" stop-color="#b7e9ff"/>
      <stop offset=".47191" stop-color="#3c97f6"/>
      <stop offset=".668539" stop-color="#032c87"/>
      <stop offset="1" stop-color="#0342d3"/>
    </radialGradient>
    <mask id="mask" x="4.4814" y="4.1787" width="15.67695" height="17.2187136" maskUnits="userSpaceOnUse">
      <path d="M4.4814,11.52c0-4.0547,3.2872-7.3413,7.3418-7.3413,4.0547,0,7.3409,3.2866,7.3409,7.3413,0,4.0552-3.2862,7.3413-7.3409,7.3413-4.0546,0-7.3418-3.2861-7.3418-7.3413Z" fill="#fff" fill-rule="evenodd"/>
    </mask>
    <radialGradient id="radial-gradient-2" cx="9.1769275" cy="8.4087571" fx="9.1769275" fy="8.4087571" r="10.4525127" gradientUnits="userSpaceOnUse">
      <stop offset="0" stop-color="#dfeaeb"/>
      <stop offset=".303371" stop-color="#b7e9ff"/>
      <stop offset=".52809" stop-color="#3c97f6"/>
      <stop offset=".825843" stop-color="#032c87"/>
      <stop offset="1" stop-color="#0342d3"/>
    </radialGradient>
    <mask id="mask-1" x="10.3136616" y="9.1594237" width="9.8446884" height="10.6033074" maskUnits="userSpaceOnUse">
      <path d="M18.625,10.8521c0,4.2592-2.5781,7.246-6.8037,7.541-.4487.0327-.5122-.3545-.0747-.459,3.5947-.8487,6.0298-4.832,6.4267-7.1231.0406-.5293.4517-.4091.4517.0411Z" fill="#fff"/>
    </mask>
    <linearGradient id="linear-gradient" x1="11.1545904" y1="5.7765033" x2="10.3276415" y2="21.5556288" gradientUnits="userSpaceOnUse">
      <stop offset="0" stop-color="#65bd7b"/>
      <stop offset=".0074065" stop-color="#60bb74"/>
      <stop offset=".0565792" stop-color="#45af4f"/>
      <stop offset=".1023037" stop-color="#32a734"/>
      <stop offset=".1428936" stop-color="#27a224"/>
      <stop offset=".174157" stop-color="#23a11f"/>
      <stop offset=".2984012" stop-color="#1c871d"/>
      <stop offset=".4981417" stop-color="#14651b"/>
      <stop offset=".6872815" stop-color="#0e4c19"/>
      <stop offset=".8596362" stop-color="#0b3d18"/>
      <stop offset="1" stop-color="#0a3818"/>
    </linearGradient>
    <mask id="mask-2" x="5.4472253" y="5.9242965" width="14.7111247" height="15.2027359" maskUnits="userSpaceOnUse">
      <path d="M5.9019,6.5938c.0454.1157-.1441.1928-.0171.2109.2837.0386.4433-.1704.7251-.1314.0957.0127.1406.0323.2329.0533-.0259.1889.0385.3139.0132.5019-.0411.2842-.2735.3804-.314.6631-.0244.1758.0713.2847.0459.4595-.0112.0805-.0591.1216-.0816.1943l.0333-.2412c-.0552-.0093-.0767-.0391-.1309-.0464-.2769-.039-.2173.3735-.3594.6079-.2739.4424-.5073.6831-.5805,1.1953-.1055.753.2158,1.1968.1103,1.9502-.0391.2823.1157.4414.2896.6714.041.0059.0825.0049.1123-.0117-.0494-.6309-.1529-.9614-.1343-1.5835.1611.2148.0718.4224.1816.6572.2227.4639.3711.7246.5137,1.2246.0518.1792-.0606.3418.0405.5.2139.3306.314.5928.6558.8062.1885.1162.397.0015.5527.1597.2393.247.2822.5883.625.6372.1743.0249.2832-.0699.4585-.0459.2095.0302.0776.3261.1607.518.0717.1665.2866.1094.4345.2251.1797.1426.2066.3853.4361.4175.1342.0191.1845-.1391.3178-.1201.2154.0303.1465.3359.1138.5518-.0566.4169-.5591.4702-.6172.8857-.0107.0757.0654.1138.0562.1865-.0142.1089-.1548.1294-.1709.2383-.042.2964.187.4307.3457.6782.1391.2207.122.4375.3271.5957.2837.2261.7593.2515.709.6094-.084.5972-.6186.7065-.9399,1.2251.0556.0361.0874.0674.1533.0762.7212.1006,1.0727-.398,1.7627-.6304.4692-.1543.789-.0884,1.2256-.3223.2299-.1186.2558-.3476.4799-.4809.4659-.2779.8028-.3477,1.1744-.7417.2348-.2486.1982-.5269.3642-.8262.2373-.4268.5259-.5718.7197-1.0239-.0576-.0362-.083-.0938-.1572-.105l-.498-.0698c-.3086-.0435-.5391-.3155-.4956-.625-.3409-.0557-.5381-.0689-.8819-.1167-.4375-.062-.5273-.541-.9648-.604-.189-.0254-.272.1816-.4619.1567-.2495-.0361-.3687-.1621-.6177-.1973-.1538-.021-.228.1182-.2974.2608l-.1103.0102c-.0274-.0991-.002-.1767.0117-.2861.0068-.0395-.062-.0434-.0703-.0781-.3135.0864-.418.4355-.7407.3906-.0811-.0112-.1099-.0986-.1914-.1103-.1465-.0196-.23.0786-.3785.0576-.2758-.0391-.5439-.2339-.5048-.5098.0151-.1016.1274-.1269.1411-.228.0376-.249-.1616-.4068-.3907-.522l-.1689.0313-.2441-.0347c.0073-.0469-.0162-.0772-.0103-.1245.0249-.1739.2603-.1831.2847-.3589.0219-.1533.0019-.2529.0566-.4024l-.4443-.0629c-.189.1181-.2808.3457-.5108.3125-.4038-.0562-.6499-.4615-.5918-.8653.0669-.478.314-1.0127.7915-.9458.1612.0239.231.1148.3921.1382.1148.0156.1504-.1431.2657-.1279.3022.0425.6601.1821.6191.4844-.0395.2768.1597.4697.4092.5932.0229-.0649.0361-.105.0527-.1704l-.0708-.8745c.2363-.4131.8189-.3516.8838-.8164l.0439-.3096c.0503-.3555.4517-.519.8067-.4692-.023-.1333-.1079-.208-.0894-.3418.0205-.1494.187-.1665.3311-.2012-.002.061-.0005.1016.0039.1655.3237-.0576.6748-.1123.7187-.435.0064-.0391-.062-.043-.0708-.0786-.1054.0273-.1787.0581-.2954.0415-.1528-.0205-.1025-.2412-.0669-.3946-.0947-.0131-.1489-.0141-.2456-.0058.0703-.1084.169-.1275.2954-.1514l.1548.0772c.0869-.0357.1455-.0684.2339-.1045.0298.1279-.0093.3003.1255.3203l.5879.0815c.0391-.1455-.1621-.1733-.2637-.2842-.0898-.0942.0196-.2294-.0615-.3383-.1392-.1831-.3438-.1504-.5396-.2676-.3349-.2051-.3325-.6572-.7241-.7124-.0737-.0098-.102.0957-.1767.0859-.2608-.0376-.3018-.3452-.5635-.3813-.0811-.0117-.1328.0156-.2085.0249.0073.1386.1079.208.0874.3427-.0317.2286-.3589.2168-.3906.4454-.0196.1421.0517.2207.0576.3662-.2109-.0098-.1489-.3028-.2915-.4536-.2471-.2544-.7998-.1817-.7495-.5381.0713-.5044.9277-.3433.9985-.8477.0049-.04-.0415-.0615-.0425-.0952.0655-.0117.1016-.0405.1695-.0303.2148.0293.3183.1734.415.3662-.1289.0362-.208.0254-.3384.0625.2793.17.5449.1309.7412.3921l.2652-.1269c-.0552-.0982-.1021-.1577-.187-.2334.0571-.0122.1049-.0191.164-.003-.1299-.2387-.3769-.2387-.6015-.3935-.2266-.1563-.3335-.3218-.6094-.3594l.0181-.1284c.0234-.1685.1357-.229.2431-.3574-.0703-.0366-.1133-.0713-.1953-.0825-.1728-.0249-.3965-.0137-.4199.1606-.0152.1069.0893.1436.1318.2383-.0766.0566-.1308.0991-.1885.1655.0621.0567.1206.1201.107.207-.0069.0606-.0698.0655-.1226.0928-.1035-.187-.2319-.3076-.2007-.5224-.0957.0078-.2207.0107-.2339.104-.0161.1137.0728.1679.1275.2656-.0952.041-.1558.0884-.2647.0723l-.2343-.0333c.0283-.0634.0922-.0815.1045-.1567l.0361-.2754c-.1558-.0078-.2368-.0483-.3926-.0698-.1284-.019-.2847.0215-.3027.1504-.0205.1416.1177.188.2046.3027-.066.0244-.1011.0752-.1734.0645-.1416-.0196-.0918-.2256-.2041-.3106-.1489-.1157-.2964-.0346-.4878-.0405.0103-.1763-.0288-.3882-.2031-.4121-.4917-.0693-.7739.1377-1.2388.3188-.3481.1368-.6508.0948-.9257.337ZM9.1904,9.3623c.2451-.0889.3941-.2192.6577-.1831.1665.0229.1504.2339.2823.335.1772.1416.3589.1264.5068.291-.1201.1206-.2007.2055-.3643.2505.0206-.148-.0527-.3086-.2021-.3306-.2417-.0327-.126.4219-.3467.5288-.0342-.1909-.0664-.312-.0405-.501.0142-.101.0903-.1513.1685-.209-.084-.0532-.127-.1284-.2295-.142-.1333-.0186-.2969-.0347-.4322-.0396ZM10.998,9.979l.1524.0767c-.2261.2485-.4883.3574-.8242.31l-.149-.0219c.2095-.271.4659-.3384.8208-.3648ZM11.2495,14.4263c-.0737-.0108-.0171-.1192-.021-.1885.0694-.0103.1138-.0254.1885-.0274.0015-.0629.001-.1049-.0034-.1655.0473.0064.0713-.0185.1181-.0117.2764.04.4019.166.6744.2319-.2149.313-.586.2139-.9566.1612ZM9.9224,13.7183c-.1402-.0269-.2554-.084-.2901-.2266.1817-.0288.2793-.043.4629-.0181.2456.0367.3779.1304.5947.2505.1661.0904.4234.1138.397.3013-.0151.1152-.1553.1294-.27.1147l-.2358-.0346c.0297-.0576.0625-.1006.1044-.1494-.2016-.1792-.3344-.3082-.6044-.3457-.0464-.0064-.1163.0996-.1587.1079ZM11.5317,6.3701c.2564.1797.3912.3838.7071.3926.0337.1987.205.2436.3364.3852.2378.2598.3779.4922.727.5406.0601.0093.0977-.0059.1582-.0039-.0917-.2266-.3129-.3262-.2763-.5689.0195-.1474.1636-.1958.1846-.3437.0361-.2491-.337-.232-.5528-.3521-.3066-.1665-.4648-.3667-.8135-.416-.3164-.0439-.6313-.0073-.7802.2739.0849.0323.2148.0855.3095.0923Z" fill="#fff" fill-rule="evenodd"/>
    </mask>
    <radialGradient id="radial-gradient-3" cx="7.7758757" cy="7.7060572" fx="7.7758757" fy="7.7060572" r="13.4227827" gradientUnits="userSpaceOnUse">
      <stop offset="0" stop-color="#d3edd5"/>
      <stop offset=".0881577" stop-color="#ceebd0"/>
      <stop offset=".1888042" stop-color="#c1e5c2"/>
      <stop offset=".2955934" stop-color="#aadbab"/>
      <stop offset=".4067144" stop-color="#8bce8b"/>
      <stop offset=".5211732" stop-color="#64bd62"/>
      <stop offset=".6367876" stop-color="#34a830"/>
      <stop offset=".674157" stop-color="#23a11f"/>
      <stop offset=".6869737" stop-color="#209b1c"/>
      <stop offset=".7628023" stop-color="#128010"/>
      <stop offset=".8398735" stop-color="#086d07"/>
      <stop offset=".9182832" stop-color="#016101"/>
      <stop offset="1" stop-color="#005e00"/>
    </radialGradient>
    <mask id="mask-3" x="10.3136616" y="9.1594237" width="9.8446884" height="10.6033074" maskUnits="userSpaceOnUse">
      <path d="M18.625,10.8521c0,4.2592-2.5781,7.246-6.8037,7.541-.4487.0327-.5122-.3545-.0747-.459,3.5947-.8487,6.0298-4.832,6.4267-7.1231.0406-.5293.4517-.4091.4517.0411Z" fill="#fff"/>
    </mask>
    <mask id="mask-4" x="-.0041894" y="4.5485696" width="22.3977894" height="11.6727764" maskUnits="userSpaceOnUse">
      <path d="M8.3906,8.6772c-1.2573.3589-2.6294.3873-3.9057.1089.2412-.7881.6137-1.5205,1.0888-2.1728h0c.605-.8145,1.3692-1.5098,2.2476-2.02-1.1719-.0772-2.3535-.0542-3.522.0669-.9775.102-1.9975.2539-2.9087.6455-.2964.1274-.6035.29-.8174.5385-.2187.2535-.268.626-.3403.9414-.1626.6978-.2588,1.4185-.2329,2.1368.0405,1.1069.4043,2.1801,1.1523,3.0112.711.79,1.6778,1.3027,2.6753,1.6401,2.1822.7393,4.5855.7764,6.8623.6382.8926-.0542,1.7813-.144,2.6675-.2646.5-.0679.9951-.1675,1.5025-.1739.9204-.0102,1.8554.1333,2.6743.5713.5532.2959,1.0044.7154,1.4609,1.1377.354.3286.7388.6616,1.2349.731.5332.0747.7832-.3911.9868-.8169.4033-.8457.6372-1.7818.8403-2.6939.1416-.6338.3365-1.3286.3365-1.9838-1.0308-2.6236-10.2398-1.5406-14.003-2.0416" fill="#fff" fill-rule="evenodd"/>
    </mask>
    <linearGradient id="New_Gradient_236" data-name="New Gradient 236" x1="449.3587428" y1="-85.4719548" x2="447.1718152" y2="-93.6336796" gradientTransform="translate(345.8032 -326.0359) rotate(121.5787649) scale(1.0449325 -1.1375865) skewX(2.1281317)" gradientUnits="userSpaceOnUse">
      <stop offset="0" stop-color="#d9d9d9"/>
      <stop offset=".79776" stop-color="#fff"/>
      <stop offset="1" stop-color="#fff"/>
    </linearGradient>
    <mask id="mask-5" x="8.8158899" y="11.77215" width="14.9539481" height="12.2106657" maskUnits="userSpaceOnUse">
      <path d="M20.0981,13.7134s.9185,1.1821.7413,2.625c0,0-1.0816,2.4248-4.6006,4.2173-2.6983,1.374-4.565-.1543-4.565-.1543,0,0-1.9526-1.7002-1.1728-3.6582.7187-1.8062,2.6079-2.5992,4.2949-3.2105,1.2798-.4624,3.2466-.7207,4-.5254.459.1192,1.3022.7061,1.3022.7061Z" fill="#fff" fill-rule="evenodd"/>
    </mask>
    <linearGradient id="New_Gradient_234" data-name="New Gradient 234" x1="16.8718053" y1="21.5712452" x2="14.4461927" y2="12.5187357" gradientUnits="userSpaceOnUse">
      <stop offset="0" stop-color="#d9d9d9"/>
      <stop offset=".79776" stop-color="#fff"/>
      <stop offset="1" stop-color="#fff"/>
    </linearGradient>
    <linearGradient id="New_Gradient_235" data-name="New Gradient 235" x1="447.1185409" y1="-92.9805045" x2="451.3355342" y2="-83.9371332" gradientTransform="translate(345.8032 -326.0359) rotate(121.5787649) scale(1.0449325 -1.1375865) skewX(2.1281317)" gradientUnits="userSpaceOnUse">
      <stop offset="0" stop-color="#a4aad9"/>
      <stop offset="1" stop-color="#555b91"/>
    </linearGradient>
    <linearGradient id="New_Gradient_233" data-name="New Gradient 233" x1="446.0826282" y1="-91.1669122" x2="447.2425319" y2="-86.8380925" gradientTransform="translate(345.8032 -326.0359) rotate(121.5787649) scale(1.0449325 -1.1375865) skewX(2.1281317)" gradientUnits="userSpaceOnUse">
      <stop offset="0" stop-color="#ccc"/>
      <stop offset="1" stop-color="#999"/>
    </linearGradient>
    <mask id="mask-6" x="15.3675136" y="13.4585997" width="2.7401521" height="2.3227003" maskUnits="userSpaceOnUse">
      <path d="M17.7793,14.584l-1.5308.5669s-.4423.0366-.5708-.3526c-.1308-.394-.0864-.6674.5201-.9433.601-.273,1.2607-.1216,1.4917.1074.3159.3115.0898.6216.0898.6216Z" fill="#fff" fill-rule="evenodd" stroke="#fff" stroke-miterlimit="3.8637" stroke-width=".5"/>
    </mask>
    <radialGradient id="New_Gradient_232" data-name="New Gradient 232" cx="16.12446" cy="13.6358616" fx="16.12446" fy="13.6358616" r="1.768234" gradientUnits="userSpaceOnUse">
      <stop offset="0" stop-color="#a4aad9"/>
      <stop offset="1" stop-color="#8187ba"/>
    </radialGradient>
    <radialGradient id="New_Gradient_231" data-name="New Gradient 231" cx="446.0366739" cy="-214.4001292" fx="446.0366739" fy="-214.4001292" r="3.9972329" gradientTransform="translate(351.0057 -181.1592) rotate(121.5720794) scale(.7947349 -.8652994) skewX(2.1360286)" gradientUnits="userSpaceOnUse">
      <stop offset="0" stop-color="#fff"/>
      <stop offset=".280899" stop-color="#fff"/>
      <stop offset=".60112" stop-color="#e5e5e5"/>
      <stop offset="1" stop-color="#ccc"/>
    </radialGradient>
    <linearGradient id="New_Gradient_230" data-name="New Gradient 230" x1="18.2820437" y1="16.8248543" x2="16.1687791" y2="17.1531305" gradientUnits="userSpaceOnUse">
      <stop offset="0" stop-color="#ccc"/>
      <stop offset="1" stop-color="#f2f2f2"/>
    </linearGradient>
    <mask id="mask-7" x="-.0041894" y="4.5485696" width="22.3977894" height="11.6727764" maskUnits="userSpaceOnUse">
      <path d="M8.3906,8.6772c-1.2573.3589-2.6294.3873-3.9057.1089.2412-.7881.6137-1.5205,1.0888-2.1728h0c.605-.8145,1.3692-1.5098,2.2476-2.02-1.1719-.0772-2.3535-.0542-3.522.0669-.9775.102-1.9975.2539-2.9087.6455-.2964.1274-.6035.29-.8174.5385-.2187.2535-.268.626-.3403.9414-.1626.6978-.2588,1.4185-.2329,2.1368.0405,1.1069.4043,2.1801,1.1523,3.0112.711.79,1.6778,1.3027,2.6753,1.6401,2.1822.7393,4.5855.7764,6.8623.6382.8926-.0542,1.7813-.144,2.6675-.2646.5-.0679.9951-.1675,1.5025-.1739.9204-.0102,1.8554.1333,2.6743.5713.5532.2959,1.0044.7154,1.4609,1.1377.354.3286.7388.6616,1.2349.731.5332.0747.7832-.3911.9868-.8169.4033-.8457.6372-1.7818.8403-2.6939.1416-.6338.3365-1.3286.3365-1.9838-1.0308-2.6236-10.2398-1.5406-14.003-2.0416" fill="#fff" fill-rule="evenodd"/>
    </mask>
    <radialGradient id="radial-gradient-4" cx="11.4077" cy="11.1064" fx="11.4077" fy="11.1064" r="7.7461" gradientUnits="userSpaceOnUse">
      <stop offset="0" stop-color="#fff"/>
      <stop offset=".713483" stop-color="#000"/>
    </radialGradient>
    <linearGradient id="New_Gradient_235-2" data-name="New Gradient 235" x1="19.9996305" y1="-48.2099008" x2="20.3906491" y2="-47.3713587" gradientTransform="translate(0 95.1264) scale(1 1.6883)" gradientUnits="userSpaceOnUse"><stop offset="0" stop-color="#a4aad9"/><stop offset="1" stop-color="#555b91"/></linearGradient>
    <radialGradient id="radial-gradient-5" cx="-62.4038212" cy="-13.4341383" fx="-62.4038212" fy="-13.4341383" r="12.3289556" gradientTransform="translate(55.924 23.6483) scale(.7844)" gradientUnits="userSpaceOnUse">
      <stop offset="0" stop-color="#fff"/>
      <stop offset=".0901359" stop-color="#eaeaea"/>
      <stop offset=".2018052" stop-color="#d9d9d9"/>
      <stop offset=".3223011" stop-color="#cfcfcf"/>
      <stop offset=".466292" stop-color="#ccc"/>
      <stop offset=".6120719" stop-color="#c7c7c7"/>
      <stop offset=".7662786" stop-color="#bbb"/>
      <stop offset=".9238884" stop-color="#a5a5a5"/>
      <stop offset="1" stop-color="#999"/>
    </radialGradient>
  </defs>
  <g isolation="isolate">
    <g id="Layer_1" data-name="Layer 1">
      <g>
        <path d="M4.4814,11.52c0-4.0547,3.2872-7.3413,7.3418-7.3413,4.0547,0,7.3409,3.2866,7.3409,7.3413,0,4.0552-3.2862,7.3413-7.3409,7.3413-4.0546,0-7.3418-3.2861-7.3418-7.3413Z" fill="url(#radial-gradient)" fill-rule="evenodd" stroke="#000" stroke-miterlimit="3.8637" stroke-width="2.0682"/>
        <g mask="url(#mask)">
          <g>
            <path d="M4.4814,11.52c0-4.0547,3.2872-7.3413,7.3418-7.3413,4.0547,0,7.3409,3.2866,7.3409,7.3413,0,4.0552-3.2862,7.3413-7.3409,7.3413-4.0546,0-7.3418-3.2861-7.3418-7.3413Z" fill="url(#radial-gradient-2)" fill-rule="evenodd"/>
            <g mask="url(#mask-1)">
              <g>
                <path d="M18.625,10.8521c0,4.2592-2.5781,7.246-6.8037,7.541-.4487.0327-.5122-.3545-.0747-.459,3.5947-.8487,6.0298-4.832,6.4267-7.1231.0406-.5293.4517-.4091.4517.0411Z" fill="#3c97f6"/>
                <path d="M18.8237,10.8848c0,4.2597-2.5776,7.2465-6.8042,7.5415-.4477.0312-.5122-.3565-.0737-.4585,3.5957-.8506,6.0288-4.833,6.4268-7.1245.039-.5293.4511-.4092.4511.0415Z" fill="none" stroke="#2b76b4" stroke-miterlimit="3.8637" stroke-width="2.6693"/>
                <path d="M18.7236,10.8682c0,4.2592-2.5776,7.2465-6.8047,7.541-.4477.0312-.5117-.3545-.0727-.4575,3.5957-.8506,6.0303-4.833,6.4253-7.1236.0425-.5302.4521-.4101.4521.0401Z" fill="none" stroke="#1459a5" stroke-miterlimit="3.8637" stroke-width="1.3347"/>
                <path d="M18.625,10.8521c0,4.2592-2.5781,7.246-6.8037,7.541-.4487.0327-.5122-.3545-.0747-.459,3.5947-.8487,6.0298-4.832,6.4267-7.1231.0406-.5293.4517-.4091.4517.0411Z" fill="none" stroke="#1d3f99" stroke-miterlimit="3.8637"/>
              </g>
            </g>
            <path d="M9.1802,6.4419l.0586.0596c.1103.101.2373.2939.0141.3803l-.0595.0352c-.3081.1694-.4029-.0874-.4917-.2983-.1314-.1045-.5821.1269-.5611-.2051.0025-.0449.0049-.1807-.0376-.2163-.539-.0772-.9355.2724-1.436.3881-.1773.0416-.3731.064-.5259.169-.0112.0605-.0425.1128-.0771.1626-.2129-.0303-.1846-.0986-.0996-.2178.2832.0391.2919-.2221.9707-.0757.2412.0508.1621.7842.0752.9478-.229.4336-.2535.2168-.1885.71.02.1518-.0069.2416-.0791.3725-.0786.229-.3194.2022-.3604.0308l-.0263.103c-.021.0762-.0479.1675-.0992.2485-.5175.8311-.6923.9766-.499,2.0415.063.356.1074.6709.0562,1.0337-.0225.1524.0454.2603.1308.375l.1236.1621-.1104-.0659c-.0596.0083-.1035.2241-.1059.1768-.0484-.6392-.1553-.9727-.1348-1.6026.0117-.3432.4136-.2514.4741.3072.0083.0937.0151.1894.0547.2768.2007.4141.4004.8091.5254,1.2539.0298.1099-.0122.4029.0166.4512.1846.2842.2993.562.5986.748.1367.0845.3711-.0332.5899.1885.2221.229.2929.6607.6777.565.7573-.1861.4946.3491.6016.5976.2129.1309.3134.0176.5268.3135.0464.064.1187.2119.2012.2231.1235-.0571.1367-.1445.3198-.1206.3086.0435.3242.3511.2949.5821l-.0258.1753c-.0669.4838-.5503.5673-.6148.8623.1152.1997.0405.3296-.1206.4638-.0156.1792.2261.3926.3193.5406.1006.1557.1504.4433.2862.5498.2861.226.852.2607.7793.7773-.0821.5786-.4868.7344-.8194,1.1025.5523.0162,1.0425-.4565,1.5576-.6293.397-.1314.8238-.1109,1.1973-.3096.1607-.0825.2442-.3438.4712-.4776.4639-.2783,1.1294-.4541,1.2998-1.0312.0488-.1597.0903-.3203.1724-.4692.1797-.3199.4677-.5513.644-.8667-.459-.0645-1.0298-.108-1.0986-.712-.6216-.0903-.8731.0015-1.3111-.4467-.061-.0635-.2822-.295-.4082-.2432-.0932.0552-.059.0342-.1333.0825-.3432.2041-.5937-.0845-.915-.1299-.1685.127-.0283.2373-.3657.2735-.1885.02-.2212-.2085-.2085-.3408l.0098-.0679c-.0269-.0269-.0445-.0586-.0538-.0943.0743.044.1499.0884.2251.1309-.3144.0879-.5825.6743-1.0058.2979-.1284-.0147-.2071.0688-.3784.0459-.461-.066-.918-.5562-.5367-.9327.0396-.1328-.0307-.2148-.2216-.3164l-.1084.0196-.0581.0019-.2417-.0342-.1563-.206c-.0347-.1641.0244-.2857.1519-.3877.0673-.0498.0376-.0269.0957-.0703.0317-.0908.0356-.1582.04-.2168l-.1733-.0581-.0479.0434c-.1548.149-.2876.2935-.5342.2578-1.3383-.1879-.6997-2.6826.5015-2.0854.0454.0234.0771.0381.1113.0469.3516-.335,1.1328.0937,1.0669.5678-.0122.0879.0161.1714.0879.2481-.0552-.6846-.2187-.8726.4053-1.2041l.1426-.0723c.3232-.1675.2744-.2534.3232-.6001.0547-.3926.3945-.5864.7305-.6274-.0781-.2798.0879-.4473.3462-.5117l.1079-.0254c.1103-.0264.1982.0268.2217.1245.1308-.0288.2866-.0684.3427-.167-.0224-.0249-.0371-.0537-.0439-.084.0732.0449.147.0884.2187.1328-.2983.0742-.6645.1094-.6215-.3559-.3707.0254-.2544-.3955.1337-.4898l.1001-.0205c.0616-.0102.1416.0303.1914.0542.335-.1523.3829-.1074.4302.2422l.0562.0088c-.042-.0967-.0113-.1763-.0205-.273-.063-.084-.3667-.144-.4815-.2129-.2602-.1596-.4355-.6254-.6098-.6767-.1827.1582-.4063.0439-.5523-.1074-.0747-.0835-.0459-.0503-.1152-.1265-.1079-.1138-.1431-.0654-.2793-.0479l.1587-.1914c.0127.2144.2676.4219-.1192.6856l-.0742.0469-.0586.0346c-.0688.0484-.0635.0772-.0376.1612l.0264.0932c.1079.4473-.3862.417-.5083.022-.1011-.3262-.1626-.2725-.4937-.3911-.6298-.2251-.4223-.7954.0542-1.0029.1485-.0655.4952-.1509.5508-.3052-.1816-.3203.5269-.5923.896.1396.0283.0537.0293.1079.0103.1529.0371.0146.0747.0293.1089.0493-.0098-.0342-.0069-.0679.0068-.0991l-.1499-.0625c-.2554-.1153-.4785-.4058-.7305-.4419-.2597-.0352-.1313-.4458-.0395-.5728-.0347,0-.0655.002-.0884.0078.1035.1255.1553.2779.0395.3638l-.0463.0366c.1943.3638-.3008.5913-.4244.3716-.1225-.2197-.2627-.3574-.2221-.6367l.1933.208c.21.3071-.1616.4746-.4087.4399-.2006-.0288-.5869-.0683-.3213-.374l.0386-.0405.0093-.0772c-.083-.0185-.2124-.06-.2949-.0405ZM5.7886,6.7173l.0459-.1841c.3164-.2822.6299-.2339.98-.3706.4209-.166,1.5546-.7427,1.6811.0679l.0752-.0083c.105-.0074.2295.0034.3506.1001.0815.06.1186.1499.145.2446.019-.0093.0371-.0181.0557-.0259l-.0801.2793c-.1397-.1846-.3941-.3496-.1577-.6138.2221-.2475.539-.0752.8071-.061.2749.0151.1768.5215.0371.6655-.0249.0259-.3017-.25-.165-.2304.2895.04.1968.0625.4013-.0259l-.0874.2549c-.1049-.1861-.3247-.4961.065-.6123.0332-.0108.0688-.0176.1059-.0205l.0835-.0074c.2481-.0161.1553.2349.2246.3706.0396.0787.0967.1538.1475.2456l-.1826-.0561c-.1416-.1397-.2051-.1841-.0259-.3511-.2969-.4136.3154-.7168.8208-.4472.2949.1567-.0933.3715-.1387.5092.2486.0943.4068.315.648.4243.1728.0777.7051.3433.5244.5904.1519.268-.415.5346-.5561.3486-.1402-.1865-.4874-.2222-.6905-.3457-.2466-.1514-.0522-.3159.1182-.3486-.0186-.0132-.0381-.024-.0567-.0337-.1333.5796-1.0918.5014-.9799.8398.1045.1011.4751.1167.6909.3428.0957.0991.1245.2251.164.3516.0142.0429.0049.0429.0059.0449-.1392-.0684-.146.3481-.2007.1279l-.0215-.0781c-.0678-.2329-.0205-.4258.1831-.565l.0747-.0478.0572-.0347c.1157-.0786-.0303-.2329-.0381-.3628-.0176-.3071.541-.2495.7461-.0346.0854.0927.04.0429.1167.1269.021.0235.0464.0464.0762.0606.3642-.3159.6904.2851.8647.5219.0425.0606.0879.107.145.1421.313.1856.7027.1035.6519.6485.1494.1284.372.1709.2929.4467-.0742.2623-.9482.1631-1.0351-.1855-.0962.0395-.1836-.0063-.2671-.0469-.0581.0137-.0942.0249-.1162.0591l-.167-.2822c.3213-.022.4751-.0142.4141.3452l-.0108.061c.083-.0136.124-.0283.1753-.0415l.2217.1348c-.0283-.0161-.0371-.0483-.0459-.0767.3657.2129-.0767.667-.4971.7637-.123.0283-.3388.1045-.4316-.0234l.0464.1123c.2451.6259-.6914.0888-.7705.6523-.0645.4624-.0606.6387-.5166.8735l-.1402.0708c-.0971.0513-.1943.1124-.2632.2032l.064.813-.0044.0571c-.1826.7471-.8838-.0337-.8193-.4907.0259-.1802-.3159-.2544-.4341-.2749-.291.2793-.4317.0224-.6865-.0137-.5591-.0781-.9063,1.3428-.148,1.4492.145.022.3052-.3408.5098-.312.647.0918.5932-.0195.56.4565-.0156.21-.0044.3389-.1796.4781-.0601.0439-.0337.0249-.0601.0439.5234-.0937,1.0171.5274.6118.9287-.0293.2056.2739.3462.4546.2832.1777-.06.3174-.0674.4639.064.1504.0225.4511-.3154.667-.376l.2255.1323c-.0283-.0161-.038-.0483-.0454-.0766.0435.0264.0762.0556.0977.0937.3144-.2124.7642.1924.9106.1304.0953-.0576.0552-.0322.1328-.081.587-.3501.8428.4746,1.2637.5336.3443.0489.541.0635.8848.1197.291.0454-.0039.5537.4936.622.1402.0201.5166.0147.6783.1582l.0468.042s.1021.1563.0694.2271c-.1739.4082-.5166.664-.7276,1.041-.1645.2983-.1196.5757-.3906.8633-.3872.4116-.7549.4985-1.2124.7744-.1821.106-.2178.3452-.4893.4849-.4179.2241-.8212.1923-1.2514.3325-.6367.2143-1.3819.9668-2.0708.5371-.3208-.2002.3911-.7456.5322-.8735.7691-.6949.0801-.6553-.3179-.9732-.2553-.1982-.2226-.4121-.3681-.6391-.1914-.3003-.6407-.69-.2227-1.0381-.2622-.4825.5357-.732.5835-1.0757l.0244-.169c.0054-.0498.0117-.0976.0088-.1411-.52.3697-.6553-.3242-.8984-.4013-.1812-.0591-.3379-.0645-.4253-.2666-.0537-.1226-.043-.254-.0479-.3833l-.0434-.0245c-.5576.0757-.6284.0899-.9883-.4775-.2339-.3677-.3359-.1099-.6465-.3003-.3716-.2305-.4888-.5146-.7129-.8613-.1509-.2378-.0171-.3906-.0615-.5484-.063-.2182-.1372-.4233-.23-.6289.0288.2598.0635.5225-.2944.4722-.0176-.002-.1094-.0557-.1187-.0698l-.1264-.1641c-.3379-.4546-.146-.6221-.1866-1.1191-.0703-.8111-.3442-1.3579.1133-2.1616.1021-.1817.2305-.3545.3697-.5782.1484-.2451.1284-.9175.6704-.6479.227.0327.1401.3218.122.4482l-.3535-.0815c.0073-.0293.02-.0528.0322-.0772.1519-.2754-.2089-.4087.1856-.958.189-.2617.1177-.3032.1045-.5869l-.0698-.0132c-.1436-.021-1.3663.4697-.8716-.2236l.021.0127ZM10.1338,10.0098l-.0132.0449-.0229.0976c-.0928.3472-.4449.5069-.5.209-.0542-.2973-.1343-.6255.1367-.8427l.061-.0464.0103.2998c-.043-.0279-.0816-.0635-.1221-.0977-.0581-.0439-.374-.0532-.4478-.0566-.2402-.0083-.2807-.272-.0537-.3531.3282-.1181.8096-.4189,1.0381.0479.0864.1782.1035.167.2959.2441.1402.0557.5005.2539.3027.4512l-.0869.0884c-.104.0986-.2153.1704-.3579.209-.2788.0781-.1997-.2251-.2402-.2954ZM10.396,9.9004c-.1177-.0469-.2246-.0874-.3257-.1694-.1391-.107-.1499-.2505-.1958-.2969-.2036-.0274-.3852.1074-.5688.1728l-.0542-.354c.2031.0088.4926.0039.6596.1372.1114.0948.2998.2242.1016.3736l-.0493.039c-.1494.1538.1367.4341-.2588.355.0205-.0249.0327-.0698.0395-.0996l.022-.0903c.0459-.1958.1416-.3824.3853-.3477.2597.0362.3886.2969.3554.5352l-.2285-.2002c.0488-.0142.085-.0318.1177-.0547ZM11.2852,9.9668c.3623.1807-.272.7471-.9322.6538-.1509-.022-.4516-.0718-.2666-.312.2574-.335.5786-.4102.9512-.4365.0737-.0059.2075.0752.2476.0947ZM11.125,10.2935l-.1104-.0528c-.3042.0254-.4863.0894-.6406.2886l-.1181-.2915c.3462.0488.5561.0513.8144-.2305l.0547.2862ZM11.2871,14.1738l.2056-.2348c.2544-.063.5542.1621.8091.2246.3457.083.0376.5542-.4541.5761-.1919.0079-.3814-.0317-.5689-.0585-.1533-.0206-.2109-.1207-.1938-.274l.0122-.0693c.084-.0781.144-.1294.1899-.1641ZM11.8369,14.3745c-.0625-.0278-.1201-.0517-.185-.0674-.0108.0816-.0914.1553-.1734.1582-.0674.0035-.1059.0181-.1689.0274l.1538-.1909c.0029.0493-.0073.0991-.0161.1484-.0806-.0112-.1285-.0493-.1187-.1309.1685.0249.3394.0635.5083.0552ZM10.1685,13.876c-.0821.0713-.1255.0893-.1597.0967h-.0674c-.52-.1001-.7393-.7398.2305-.604.2759.0395.4267.1406.6606.2695.2051.1142.5352.1479.4878.4878-.0503.3623-.477.268-.7095.2358-.1406-.0205-.2006-.1352-.1401-.2622l.0239-.042c-.1006-.0835-.1948-.1518-.3261-.1816ZM9.9346,13.5952c.188-.1733.437-.0664.6274.0562.1084.0693.3599.2446.3555.3852-.0029.0972-.0786.1436-.1201.2251l-.1363-.2612.1348.0185c-.2339-.0898-.4189-.2529-.6738-.288-.1543-.0235-.229-.0127-.4077.0156l.1484-.2232c.0054.0264.019.0508.0718.0718ZM11.6348,6.2749l.0551.021c.1871.1309.3609.3535.607.3604.1538.0048.1509.1782.2441.2548.0742.063.1548.1148.2227.1885.1543.1685.3916.5098.6523.4829.0308-.0039.0625-.0083.1035-.0073l-.1738.2529c-.1103-.2695-.4629-.4419-.23-.8271.0132-.0181.0254-.0381.0396-.0567.0405-.0498.0249-.0312.062-.0737.02-.0337.0244-.0415.0259-.0498-.022-.022-.3877-.1255-.4634-.1665-.3652-.1992-.6773-.5376-1.145-.3794ZM11.8115,6.854c-.0952-.0679-.1831-.1523-.2959-.2344-1.0537-.1792.0757-1.1567,1.0611-.5312.1171.0752.2299.165.3784.2466.2446.1347.707.1137.6489.5371-.0127.0825-.0508.1562-.0996.2207-.0449.0556-.023.0278-.061.0752-.0738.1176.1953.4135.2397.521.1001.2456-.1977.2778-.354.2553-.415-.0586-.583-.3232-.835-.5991-.1152-.1245-.2534-.1684-.3388-.3379-.1382-.0259-.2476-.0849-.3438-.1533Z" fill="url(#linear-gradient)"/>
            <g mask="url(#mask-2)">
              <g>
                <path d="M5.9019,6.5938c.0454.1157-.1441.1928-.0171.2109.2837.0386.4433-.1704.7251-.1314.0957.0127.1406.0323.2329.0533-.0259.1889.0385.3139.0132.5019-.0411.2842-.2735.3804-.314.6631-.0244.1758.0713.2847.0459.4595-.0112.0805-.0591.1216-.0816.1943l.0333-.2412c-.0552-.0093-.0767-.0391-.1309-.0464-.2769-.039-.2173.3735-.3594.6079-.2739.4424-.5073.6831-.5805,1.1953-.1055.753.2158,1.1968.1103,1.9502-.0391.2823.1157.4414.2896.6714.041.0059.0825.0049.1123-.0117-.0494-.6309-.1529-.9614-.1343-1.5835.1611.2148.0718.4224.1816.6572.2227.4639.3711.7246.5137,1.2246.0518.1792-.0606.3418.0405.5.2139.3306.314.5928.6558.8062.1885.1162.397.0015.5527.1597.2393.247.2822.5883.625.6372.1743.0249.2832-.0699.4585-.0459.2095.0302.0776.3261.1607.518.0717.1665.2866.1094.4345.2251.1797.1426.2066.3853.4361.4175.1342.0191.1845-.1391.3178-.1201.2154.0303.1465.3359.1138.5518-.0566.4169-.5591.4702-.6172.8857-.0107.0757.0654.1138.0562.1865-.0142.1089-.1548.1294-.1709.2383-.042.2964.187.4307.3457.6782.1391.2207.122.4375.3271.5957.2837.2261.7593.2515.709.6094-.084.5972-.6186.7065-.9399,1.2251.0556.0361.0874.0674.1533.0762.7212.1006,1.0727-.398,1.7627-.6304.4692-.1543.789-.0884,1.2256-.3223.2299-.1186.2558-.3476.4799-.4809.4659-.2779.8028-.3477,1.1744-.7417.2348-.2486.1982-.5269.3642-.8262.2373-.4268.5259-.5718.7197-1.0239-.0576-.0362-.083-.0938-.1572-.105l-.498-.0698c-.3086-.0435-.5391-.3155-.4956-.625-.3409-.0557-.5381-.0689-.8819-.1167-.4375-.062-.5273-.541-.9648-.604-.189-.0254-.272.1816-.4619.1567-.2495-.0361-.3687-.1621-.6177-.1973-.1538-.021-.228.1182-.2974.2608l-.1103.0102c-.0274-.0991-.002-.1767.0117-.2861.0068-.0395-.062-.0434-.0703-.0781-.3135.0864-.418.4355-.7407.3906-.0811-.0112-.1099-.0986-.1914-.1103-.1465-.0196-.23.0786-.3785.0576-.2758-.0391-.5439-.2339-.5048-.5098.0151-.1016.1274-.1269.1411-.228.0376-.249-.1616-.4068-.3907-.522l-.1689.0313-.2441-.0347c.0073-.0469-.0162-.0772-.0103-.1245.0249-.1739.2603-.1831.2847-.3589.0219-.1533.0019-.2529.0566-.4024l-.4443-.0629c-.189.1181-.2808.3457-.5108.3125-.4038-.0562-.6499-.4615-.5918-.8653.0669-.478.314-1.0127.7915-.9458.1612.0239.231.1148.3921.1382.1148.0156.1504-.1431.2657-.1279.3022.0425.6601.1821.6191.4844-.0395.2768.1597.4697.4092.5932.0229-.0649.0361-.105.0527-.1704l-.0708-.8745c.2363-.4131.8189-.3516.8838-.8164l.0439-.3096c.0503-.3555.4517-.519.8067-.4692-.023-.1333-.1079-.208-.0894-.3418.0205-.1494.187-.1665.3311-.2012-.002.061-.0005.1016.0039.1655.3237-.0576.6748-.1123.7187-.435.0064-.0391-.062-.043-.0708-.0786-.1054.0273-.1787.0581-.2954.0415-.1528-.0205-.1025-.2412-.0669-.3946-.0947-.0131-.1489-.0141-.2456-.0058.0703-.1084.169-.1275.2954-.1514l.1548.0772c.0869-.0357.1455-.0684.2339-.1045.0298.1279-.0093.3003.1255.3203l.5879.0815c.0391-.1455-.1621-.1733-.2637-.2842-.0898-.0942.0196-.2294-.0615-.3383-.1392-.1831-.3438-.1504-.5396-.2676-.3349-.2051-.3325-.6572-.7241-.7124-.0737-.0098-.102.0957-.1767.0859-.2608-.0376-.3018-.3452-.5635-.3813-.0811-.0117-.1328.0156-.2085.0249.0073.1386.1079.208.0874.3427-.0317.2286-.3589.2168-.3906.4454-.0196.1421.0517.2207.0576.3662-.2109-.0098-.1489-.3028-.2915-.4536-.2471-.2544-.7998-.1817-.7495-.5381.0713-.5044.9277-.3433.9985-.8477.0049-.04-.0415-.0615-.0425-.0952.0655-.0117.1016-.0405.1695-.0303.2148.0293.3183.1734.415.3662-.1289.0362-.208.0254-.3384.0625.2793.17.5449.1309.7412.3921l.2652-.1269c-.0552-.0982-.1021-.1577-.187-.2334.0571-.0122.1049-.0191.164-.003-.1299-.2387-.3769-.2387-.6015-.3935-.2266-.1563-.3335-.3218-.6094-.3594l.0181-.1284c.0234-.1685.1357-.229.2431-.3574-.0703-.0366-.1133-.0713-.1953-.0825-.1728-.0249-.3965-.0137-.4199.1606-.0152.1069.0893.1436.1318.2383-.0766.0566-.1308.0991-.1885.1655.0621.0567.1206.1201.107.207-.0069.0606-.0698.0655-.1226.0928-.1035-.187-.2319-.3076-.2007-.5224-.0957.0078-.2207.0107-.2339.104-.0161.1137.0728.1679.1275.2656-.0952.041-.1558.0884-.2647.0723l-.2343-.0333c.0283-.0634.0922-.0815.1045-.1567l.0361-.2754c-.1558-.0078-.2368-.0483-.3926-.0698-.1284-.019-.2847.0215-.3027.1504-.0205.1416.1177.188.2046.3027-.066.0244-.1011.0752-.1734.0645-.1416-.0196-.0918-.2256-.2041-.3106-.1489-.1157-.2964-.0346-.4878-.0405.0103-.1763-.0288-.3882-.2031-.4121-.4917-.0693-.7739.1377-1.2388.3188-.3481.1368-.6508.0948-.9257.337ZM9.1904,9.3623c.2451-.0889.3941-.2192.6577-.1831.1665.0229.1504.2339.2823.335.1772.1416.3589.1264.5068.291-.1201.1206-.2007.2055-.3643.2505.0206-.148-.0527-.3086-.2021-.3306-.2417-.0327-.126.4219-.3467.5288-.0342-.1909-.0664-.312-.0405-.501.0142-.101.0903-.1513.1685-.209-.084-.0532-.127-.1284-.2295-.142-.1333-.0186-.2969-.0347-.4322-.0396ZM10.998,9.979l.1524.0767c-.2261.2485-.4883.3574-.8242.31l-.149-.0219c.2095-.271.4659-.3384.8208-.3648ZM11.2495,14.4263c-.0737-.0108-.0171-.1192-.021-.1885.0694-.0103.1138-.0254.1885-.0274.0015-.0629.001-.1049-.0034-.1655.0473.0064.0713-.0185.1181-.0117.2764.04.4019.166.6744.2319-.2149.313-.586.2139-.9566.1612ZM9.9224,13.7183c-.1402-.0269-.2554-.084-.2901-.2266.1817-.0288.2793-.043.4629-.0181.2456.0367.3779.1304.5947.2505.1661.0904.4234.1138.397.3013-.0151.1152-.1553.1294-.27.1147l-.2358-.0346c.0297-.0576.0625-.1006.1044-.1494-.2016-.1792-.3344-.3082-.6044-.3457-.0464-.0064-.1163.0996-.1587.1079ZM11.5317,6.3701c.2564.1797.3912.3838.7071.3926.0337.1987.205.2436.3364.3852.2378.2598.3779.4922.727.5406.0601.0093.0977-.0059.1582-.0039-.0917-.2266-.3129-.3262-.2763-.5689.0195-.1474.1636-.1958.1846-.3437.0361-.2491-.337-.232-.5528-.3521-.3066-.1665-.4648-.3667-.8135-.416-.3164-.0439-.6313-.0073-.7802.2739.0849.0323.2148.0855.3095.0923Z" fill="url(#radial-gradient-3)" fill-rule="evenodd"/>
                <g mask="url(#mask-3)">
                  <g mix-blend-mode="screen" opacity=".3">
                    <path d="M18.625,10.8521c0,4.2592-2.5781,7.246-6.8037,7.541-.4487.0327-.5122-.3545-.0747-.459,3.5947-.8487,6.0298-4.832,6.4267-7.1231.0406-.5293.4517-.4091.4517.0411Z" fill="#c9ffc9"/>
                    <path d="M18.8237,10.8848c0,4.2597-2.5776,7.2465-6.8042,7.5415-.4477.0312-.5122-.3565-.0737-.4585,3.5957-.8506,6.0288-4.833,6.4268-7.1245.039-.5293.4511-.4092.4511.0415Z" fill="none" stroke="#a7dbaa" stroke-miterlimit="3.8637" stroke-width="2.6693"/>
                    <path d="M18.7236,10.8682c0,4.2592-2.5776,7.2465-6.8047,7.541-.4477.0312-.5117-.3545-.0727-.4575,3.5957-.8506,6.0303-4.833,6.4253-7.1236.0425-.5302.4521-.4101.4521.0401Z" fill="none" stroke="#85cd92" stroke-miterlimit="3.8637" stroke-width="1.3347"/>
                    <path d="M18.625,10.8521c0,4.2592-2.5781,7.246-6.8037,7.541-.4487.0327-.5122-.3545-.0747-.459,3.5947-.8487,6.0298-4.832,6.4267-7.1231.0406-.5293.4517-.4091.4517.0411Z" fill="none" stroke="#65bd7b" stroke-miterlimit="3.8637"/>
                  </g>
                </g>
                <path d="M5.9019,6.5938c.0454.1157-.1441.1928-.0171.2109.2837.0386.4433-.1704.7251-.1314.0957.0127.1406.0323.2329.0533-.0259.1889.0385.3139.0132.5019-.0411.2842-.2735.3804-.314.6631-.0244.1758.0713.2847.0459.4595-.0112.0805-.0591.1216-.0816.1943l.0333-.2412c-.0552-.0093-.0767-.0391-.1309-.0464-.2769-.039-.2173.3735-.3594.6079-.2739.4424-.5073.6831-.5805,1.1953-.1055.753.2158,1.1968.1103,1.9502-.0391.2823.1157.4414.2896.6714.041.0059.0825.0049.1123-.0117-.0494-.6309-.1529-.9614-.1343-1.5835.1611.2148.0718.4224.1816.6572.2227.4639.3711.7246.5137,1.2246.0518.1792-.0606.3418.0405.5.2139.3306.314.5928.6558.8062.1885.1162.397.0015.5527.1597.2393.247.2822.5883.625.6372.1743.0249.2832-.0699.4585-.0459.2095.0302.0776.3261.1607.518.0717.1665.2866.1094.4345.2251.1797.1426.2066.3853.4361.4175.1342.0191.1845-.1391.3178-.1201.2154.0303.1465.3359.1138.5518-.0566.4169-.5591.4702-.6172.8857-.0107.0757.0654.1138.0562.1865-.0142.1089-.1548.1294-.1709.2383-.042.2964.187.4307.3457.6782.1391.2207.122.4375.3271.5957.2837.2261.7593.2515.709.6094-.084.5972-.6186.7065-.9399,1.2251.0556.0361.0874.0674.1533.0762.7212.1006,1.0727-.398,1.7627-.6304.4692-.1543.789-.0884,1.2256-.3223.2299-.1186.2558-.3476.4799-.4809.4659-.2779.8028-.3477,1.1744-.7417.2348-.2486.1982-.5269.3642-.8262.2373-.4268.5259-.5718.7197-1.0239-.0576-.0362-.083-.0938-.1572-.105l-.498-.0698c-.3086-.0435-.5391-.3155-.4956-.625-.3409-.0557-.5381-.0689-.8819-.1167-.4375-.062-.5273-.541-.9648-.604-.189-.0254-.272.1816-.4619.1567-.2495-.0361-.3687-.1621-.6177-.1973-.1538-.021-.228.1182-.2974.2608l-.1103.0102c-.0274-.0991-.002-.1767.0117-.2861.0068-.0395-.062-.0434-.0703-.0781-.3135.0864-.418.4355-.7407.3906-.0811-.0112-.1099-.0986-.1914-.1103-.1465-.0196-.23.0786-.3785.0576-.2758-.0391-.5439-.2339-.5048-.5098.0151-.1016.1274-.1269.1411-.228.0376-.249-.1616-.4068-.3907-.522l-.1689.0313-.2441-.0347c.0073-.0469-.0162-.0772-.0103-.1245.0249-.1739.2603-.1831.2847-.3589.0219-.1533.0019-.2529.0566-.4024l-.4443-.0629c-.189.1181-.2808.3457-.5108.3125-.4038-.0562-.6499-.4615-.5918-.8653.0669-.478.314-1.0127.7915-.9458.1612.0239.231.1148.3921.1382.1148.0156.1504-.1431.2657-.1279.3022.0425.6601.1821.6191.4844-.0395.2768.1597.4697.4092.5932.0229-.0649.0361-.105.0527-.1704l-.0708-.8745c.2363-.4131.8189-.3516.8838-.8164l.0439-.3096c.0503-.3555.4517-.519.8067-.4692-.023-.1333-.1079-.208-.0894-.3418.0205-.1494.187-.1665.3311-.2012-.002.061-.0005.1016.0039.1655.3237-.0576.6748-.1123.7187-.435.0064-.0391-.062-.043-.0708-.0786-.1054.0273-.1787.0581-.2954.0415-.1528-.0205-.1025-.2412-.0669-.3946-.0947-.0131-.1489-.0141-.2456-.0058.0703-.1084.169-.1275.2954-.1514l.1548.0772c.0869-.0357.1455-.0684.2339-.1045.0298.1279-.0093.3003.1255.3203l.5879.0815c.0391-.1455-.1621-.1733-.2637-.2842-.0898-.0942.0196-.2294-.0615-.3383-.1392-.1831-.3438-.1504-.5396-.2676-.3349-.2051-.3325-.6572-.7241-.7124-.0737-.0098-.102.0957-.1767.0859-.2608-.0376-.3018-.3452-.5635-.3813-.0811-.0117-.1328.0156-.2085.0249.0073.1386.1079.208.0874.3427-.0317.2286-.3589.2168-.3906.4454-.0196.1421.0517.2207.0576.3662-.2109-.0098-.1489-.3028-.2915-.4536-.2471-.2544-.7998-.1817-.7495-.5381.0713-.5044.9277-.3433.9985-.8477.0049-.04-.0415-.0615-.0425-.0952.0655-.0117.1016-.0405.1695-.0303.2148.0293.3183.1734.415.3662-.1289.0362-.208.0254-.3384.0625.2793.17.5449.1309.7412.3921l.2652-.1269c-.0552-.0982-.1021-.1577-.187-.2334.0571-.0122.1049-.0191.164-.003-.1299-.2387-.3769-.2387-.6015-.3935-.2266-.1563-.3335-.3218-.6094-.3594l.0181-.1284c.0234-.1685.1357-.229.2431-.3574-.0703-.0366-.1133-.0713-.1953-.0825-.1728-.0249-.3965-.0137-.4199.1606-.0152.1069.0893.1436.1318.2383-.0766.0566-.1308.0991-.1885.1655.0621.0567.1206.1201.107.207-.0069.0606-.0698.0655-.1226.0928-.1035-.187-.2319-.3076-.2007-.5224-.0957.0078-.2207.0107-.2339.104-.0161.1137.0728.1679.1275.2656-.0952.041-.1558.0884-.2647.0723l-.2343-.0333c.0283-.0634.0922-.0815.1045-.1567l.0361-.2754c-.1558-.0078-.2368-.0483-.3926-.0698-.1284-.019-.2847.0215-.3027.1504-.0205.1416.1177.188.2046.3027-.066.0244-.1011.0752-.1734.0645-.1416-.0196-.0918-.2256-.2041-.3106-.1489-.1157-.2964-.0346-.4878-.0405.0103-.1763-.0288-.3882-.2031-.4121-.4917-.0693-.7739.1377-1.2388.3188-.3481.1368-.6508.0948-.9257.337ZM9.1904,9.3623c.2451-.0889.3941-.2192.6577-.1831.1665.0229.1504.2339.2823.335.1772.1416.3589.1264.5068.291-.1201.1206-.2007.2055-.3643.2505.0206-.148-.0527-.3086-.2021-.3306-.2417-.0327-.126.4219-.3467.5288-.0342-.1909-.0664-.312-.0405-.501.0142-.101.0903-.1513.1685-.209-.084-.0532-.127-.1284-.2295-.142-.1333-.0186-.2969-.0347-.4322-.0396ZM10.998,9.979l.1524.0767c-.2261.2485-.4883.3574-.8242.31l-.149-.0219c.2095-.271.4659-.3384.8208-.3648ZM11.2495,14.4263c-.0737-.0108-.0171-.1192-.021-.1885.0694-.0103.1138-.0254.1885-.0274.0015-.0629.001-.1049-.0034-.1655.0473.0064.0713-.0185.1181-.0117.2764.04.4019.166.6744.2319-.2149.313-.586.2139-.9566.1612ZM9.9224,13.7183c-.1402-.0269-.2554-.084-.2901-.2266.1817-.0288.2793-.043.4629-.0181.2456.0367.3779.1304.5947.2505.1661.0904.4234.1138.397.3013-.0151.1152-.1553.1294-.27.1147l-.2358-.0346c.0297-.0576.0625-.1006.1044-.1494-.2016-.1792-.3344-.3082-.6044-.3457-.0464-.0064-.1163.0996-.1587.1079ZM11.5317,6.3701c.2564.1797.3912.3838.7071.3926.0337.1987.205.2436.3364.3852.2378.2598.3779.4922.727.5406.0601.0093.0977-.0059.1582-.0039-.0917-.2266-.3129-.3262-.2763-.5689.0195-.1474.1636-.1958.1846-.3437.0361-.2491-.337-.232-.5528-.3521-.3066-.1665-.4648-.3667-.8135-.416-.3164-.0439-.6313-.0073-.7802.2739.0849.0323.2148.0855.3095.0923Z" fill="none" fill-rule="evenodd"/>
              </g>
            </g>
          </g>
        </g>
        <g mask="url(#mask-4)">
          <path d="M3.0059,7.7349c-.2413.497-.4761,1.5058.6455,2.6757,1.0776,1.1255,3.7182,2.024,5.5459,2.211,2.0459.2095,3.8418-.3403,5.5786-.8745.9829-.3023,1.999-.6128,3.0571-.7867,1.1631-.1914,2.0713.0967,2.4912.7891.4229.6958.2554,1.7031-.4389,2.6289-.1089.1426-.0782.3467.0659.4551.144.1094.3491.0801.456-.0649.8687-1.1597,1.0454-2.4151.4756-3.358-.5576-.9189-1.7373-1.3271-3.1548-1.0952-1.102.1822-2.1396.501-3.144.8091-1.7529.5371-3.4053,1.0449-5.3203.8482-1.7198-.1744-4.1978-1.0279-5.1421-2.0132-.6372-.666-.8203-1.3379-.5293-1.9414.3901-.8072,1.5342-1.3365,2.6611-1.2325.1797.0166.3384-.1152.3545-.2944.0171-.1797-.1142-.3379-.2944-.3545-1.4077-.1294-2.7979.5425-3.3076,1.5982Z" fill="#ccc" stroke="#000" stroke-width="2"/>
        </g>
        <path d="M20.561,14.9336s-.3618.1655-.7002-.1543" fill="none" stroke="#666" stroke-linecap="round" stroke-miterlimit="3.8637" stroke-width="1.1343"/>
        <g>
          <path d="M20.0981,13.7134s.9185,1.1821.7413,2.625c0,0-1.0816,2.4248-4.6006,4.2173-2.6983,1.374-4.565-.1543-4.565-.1543,0,0-1.9526-1.7002-1.1728-3.6582.7187-1.8062,2.6079-2.5992,4.2949-3.2105,1.2798-.4624,3.2466-.7207,4-.5254.459.1192,1.3022.7061,1.3022.7061Z" fill="url(#New_Gradient_236)" fill-rule="evenodd" stroke="#000" stroke-miterlimit="3.8637" stroke-width="2"/>
          <g mask="url(#mask-5)">
            <g>
              <path d="M20.0981,13.7134s.9185,1.1821.7413,2.625c0,0-1.0816,2.4248-4.6006,4.2173-2.6983,1.374-4.565-.1543-4.565-.1543,0,0-1.9526-1.7002-1.1728-3.6582.7187-1.8062,2.6079-2.5992,4.2949-3.2105,1.2798-.4624,3.2466-.7207,4-.5254.459.1192,1.3022.7061,1.3022.7061Z" fill="url(#New_Gradient_234)" fill-rule="evenodd"/>
              <path d="M18.5889,12.7461s.4433.1924.6709.6367c.2251.438.8549,2.2359.7138,2.8286-.1377.585-3.1655,3.5113-6.1855,4.4409-2.9556.9102-4.7637.1954-4.7637.1954l6.9829,2.4882,7.0781-6.29-1.7939-4.1118-2.7026-.188Z" fill="url(#New_Gradient_235)" fill-rule="evenodd" stroke="#666" stroke-miterlimit="3.8637" stroke-width="1.1343"/>
              <path d="M14.1514,15.1479s-.6739-.8349-.0459-2.1567l3.8261-.9355s-.0581.3037.0845.5986c.7818.4683.7891,1.2139.836,1.3662,0,0-.4107-.2007-.6651-.2012-.2539-.0005-.2656.0762-.2656.0762,0,0-.1821-.3506-.5166-.2871-.4146.0801-1.2495.335-1.7569.5796,0,0-.1362.1704-.0244.4726l-1.4721.4873Z" fill="none" fill-rule="evenodd" stroke="#ccc" stroke-linecap="round" stroke-linejoin="round" stroke-width=".5671"/>
            </g>
          </g>
          <path d="M14.5322,15.7104c.0684.336.3872.8379.5811,1.1216.6377.9366,1.6924,1.4776,1.8579,1.3843.8555-.4878,2.104-1.7119,2.2554-2.1465.1303-.3769-.1436-1.2148-.2212-1.4365-.1245-.064-.6612-.2959-.7774-.1831.0493.1826.0742.4512-.3081.5615-.291.0835-1.2251.376-1.5537.5093-.2534.102-.4868-.02-.6216-.2339-.4809.1382-1.0258.3491-1.2124.4233ZM19.5034,16.1714c-.1728.4971-1.4726,1.7441-2.3437,2.2373-.4444.2534-1.71-.6499-2.2935-1.4985-.2202-.3204-.5547-.8516-.6265-1.2251-.0107-.0616-.0092-.0889-.0092-.0889.0097-.1392,1.1997-.5005,1.5141-.5835.2691-.0698.1978.3872.4541.2822.335-.1347,1.2862-.4341,1.5816-.519.3051-.0874.1123-.2422.1577-.4204.083-.3277.7759-.1236,1.0371-.0025.1211.0576.2144.1079.2144.1079.1196.0664.2338.5923.2617.7037.0786.3291.1435.7431.0522,1.0068Z" fill="url(#New_Gradient_233)"/>
          <g mask="url(#mask-6)">
            <g>
              <path d="M17.7793,14.584l-1.5308.5669s-.4423.0366-.5708-.3526c-.1308-.394-.0864-.6674.5201-.9433.601-.273,1.2607-.1216,1.4917.1074.3159.3115.0898.6216.0898.6216Z" fill="url(#New_Gradient_232)" fill-rule="evenodd"/>
              <path d="M16.4868,14.2876c.8042-.2681,1.6123.0107,1.6021.4365-.0078.3262-1.8985,1.0572-1.8985,1.0572,0,0-.8427-1.0801.2964-1.4937Z" fill="#555b91" fill-rule="evenodd"/>
              <path d="M17.7793,14.584l-1.5308.5669s-.4423.0366-.5708-.3526c-.1308-.394-.0864-.6674.5201-.9433.601-.273,1.2607-.1216,1.4917.1074.3159.3115.0898.6216.0898.6216Z" fill="none" fill-rule="evenodd" stroke="#555b91" stroke-miterlimit="3.8637" stroke-width=".5"/>
            </g>
          </g>
          <path d="M16.4487,18.8672c-1.167.8569-3.7661,1.81-4.0473,1.7261,0,0-.2295-.042-.6514-.4165-.2905-.2608-1.3848-1.6099-1.1138-2.9781,0,0,.146-.1552.1924.0396.1958.8139.5737,1.9238,1.7754,2.3164,1.082.354,3.3506-.6592,3.6167-.7847.2661-.1264.228.0972.228.0972Z" fill="url(#New_Gradient_231)" fill-rule="evenodd"/>
          <path d="M18.8477,16.0972c-.6578.9458-1.6529,1.7597-1.8721,1.8174-.2207.0556-.4414-.0577-.4414-.0577,0,0-.8853-.5913-1.3369-1.3486,0,0,.0639-.2021.1943-.0547.1318.1465.9009.6436,1.3105.6655.6983.0367,1.9454-1.1289,1.9454-1.1289,0,0,.2758-.0952.2002.107Z" fill="url(#New_Gradient_230)" fill-rule="evenodd"/>
        </g>
        <g mask="url(#mask-7)">
          <g>
            <g mix-blend-mode="multiply" opacity=".5">
              <path d="M16.6733,11.5508c-1.0063.1504-1.9585.4663-2.8779.772-1.6059.5346-3.1221,1.038-4.8667.6997-1.4399-.2784-3.4429-1.2662-4.4184-2.3667-.0088.1494-.0225.2978-.0225.4497,0,.1709.0142.3388.0254.5068,1.1597,1.0542,2.9897,1.9072,4.3457,2.1699,1.8638.3618,3.5107-.186,5.1011-.7153.9028-.2998,1.8335-.6099,2.8017-.7554.9561-.1426,1.7007.1792,2.1157.8496.0821-.2807.1441-.5693.1919-.8628-.5708-.6191-1.4179-.894-2.396-.7475ZM6.583,6.4277c.0112-.1308-.0347-.2509-.1079-.3335-.188.2007-.3633.4117-.5278.6324.1025.0039.205.0097.3081.0283.1635.0307.3095-.1162.3276-.3272Z" fill="url(#radial-gradient-4)" fill-rule="evenodd"/>
            </g>
            <path d="M20.5835,14.5488c-.0884.3267-.3135.5606-.5.5616-.1782,0-.2974-.1968-.2734-.482.0258-.3281.2343-.6792.4765-.728.2608-.0552.396.2637.2969.6484Z" fill="url(#New_Gradient_235-2)" fill-rule="evenodd" stroke="#666" stroke-miterlimit="3.8637" stroke-width=".9588"/>
            <path d="M3.0059,7.7349c-.2413.497-.4761,1.5058.6455,2.6757,1.0776,1.1255,3.7182,2.024,5.5459,2.211,2.0459.2095,3.8418-.3403,5.5786-.8745.9829-.3023,1.999-.6128,3.0571-.7867,1.1631-.1914,2.0713.0967,2.4912.7891.4229.6958.2554,1.7031-.4389,2.6289-.1089.1426-.0782.3467.0659.4551.144.1094.3491.0801.456-.0649.8687-1.1597,1.0454-2.4151.4756-3.358-.5576-.9189-1.7373-1.3271-3.1548-1.0952-1.102.1822-2.1396.501-3.144.8091-1.7529.5371-3.4053,1.0449-5.3203.8482-1.7198-.1744-4.1978-1.0279-5.1421-2.0132-.6372-.666-.8203-1.3379-.5293-1.9414.3901-.8072,1.5342-1.3365,2.6611-1.2325.1797.0166.3384-.1152.3545-.2944.0171-.1797-.1142-.3379-.2944-.3545-1.4077-.1294-2.7979.5425-3.3076,1.5982Z" fill="url(#radial-gradient-5)" stroke="#999" stroke-miterlimit="3.8637" stroke-width=".5"/>
          </g>
        </g>
      </g>
    </g>
  </g>
</svg>