<?xml version="1.0" encoding="UTF-8"?>
<svg id="Layer_1" data-name="Layer 1" xmlns="http://www.w3.org/2000/svg" width="24" height="24" xmlns:xlink="http://www.w3.org/1999/xlink" viewBox="0 0 24 24">
  <defs>
    <linearGradient id="New_Gradient_379" data-name="New Gradient 379" x1="13.4836466" y1="19.9670418" x2="9.5007416" y2="5.1026378" gradientUnits="userSpaceOnUse">
      <stop offset="0" stop-color="#b2b2b2"/>
      <stop offset="1" stop-color="#fff"/>
    </linearGradient>
    <mask id="mask" x="3.006783" y="10.1834316" width="21.4316918" height="13.0104301" maskUnits="userSpaceOnUse">
      <path d="M5.5194938,17.3218s.7442,1.6797,2.6899999,2.5542c0,0,4.0595063.7671,9.4300998-1.3916,4.2812999-1.7222,3.4326999-4.7149,3.4326999-4.7149,0,0-1-3.0517-4.3969999-3.5102-2.9828999-.4029-5.4203999.874-7.4384998,2.0576-1.5137.8872-3.2719999,2.5215-3.5946999,3.3369-.1968.4985-.1226,1.668-.1226,1.668Z" fill="#fff" fill-rule="evenodd"/>
    </mask>
    <linearGradient id="New_Gradient_369" data-name="New Gradient 369" x1="14.688714" y1="20.743694" x2="11.6974063" y2="9.5799818" gradientUnits="userSpaceOnUse">
      <stop offset="0" stop-color="#d9d9d9"/>
      <stop offset=".79776" stop-color="#fff"/>
      <stop offset="1" stop-color="#fff"/>
    </linearGradient>
    <linearGradient id="linear-gradient" x1="11.1110473" y1="8.8998839" x2="18.3393151" y2="24.4009541" gradientUnits="userSpaceOnUse">
      <stop offset="0" stop-color="#a4b6d9"/>
      <stop offset="1" stop-color="#343a75"/>
    </linearGradient>
    <linearGradient id="New_Gradient_368" data-name="New Gradient 368" x1="9.6570212" y1="12.8806725" x2="11.2398667" y2="18.7879321" gradientUnits="userSpaceOnUse">
      <stop offset="0" stop-color="#ccc"/>
      <stop offset="1" stop-color="#999"/>
    </linearGradient>
    <mask id="mask-1" x="7.3473513" y="13.3245203" width="3.7019423" height="2.8303709" maskUnits="userSpaceOnUse">
      <path d="M8.3202937,15.749l1.8706-1.06s.3819-.3921-.0205-.7632c-.4013937-.3731-.7773-.5044-1.5732-.1177-.7823.3809-1.0874,1.0855-.9785,1.4482.1484.4986.7016.4927.7016.4927Z" fill="#fff" fill-rule="evenodd" stroke="#fff" stroke-miterlimit="3.8637" stroke-width=".5"/>
    </mask>
    <radialGradient id="New_Gradient_367" data-name="New Gradient 367" cx="8.2213421" cy="13.4649264" fx="8.2213421" fy="13.4649264" r="2.4000692" gradientUnits="userSpaceOnUse">
      <stop offset="0" stop-color="#a4aad9"/>
      <stop offset="1" stop-color="#8187ba"/>
    </radialGradient>
    <radialGradient id="New_Gradient_366" data-name="New Gradient 366" cx="11.7779779" cy="12.1339364" fx="11.7779779" fy="12.1339364" r="5.9533125" gradientTransform="translate(3.166 -1.2631) scale(1.0355)" gradientUnits="userSpaceOnUse">
      <stop offset="0" stop-color="#fff"/>
      <stop offset=".280899" stop-color="#fff"/>
      <stop offset=".60112" stop-color="#e5e5e5"/>
      <stop offset="1" stop-color="#ccc"/>
    </radialGradient>
    <linearGradient id="New_Gradient_365" data-name="New Gradient 365" x1="12.3090106" y1="18.271511" x2="9.9975503" y2="14.424595" gradientUnits="userSpaceOnUse">
      <stop offset="0" stop-color="#ccc"/>
      <stop offset="1" stop-color="#f2f2f2"/>
    </linearGradient>
  </defs>
  <path d="M5.5194938,17.3218s-.0742-1.1695.1226-1.668c.3227-.8154,2.0809999-2.4497,3.5946999-3.3369,2.0180999-1.1836,4.4555999-2.4605,7.4384998-2.0576,3.3969999.4585,4.3969999,3.5102,4.3969999,3.5102,0,0,.8486,2.9927-3.4326999,4.7149-5.3705935,2.1587-9.4300998,1.3916-9.4300998,1.3916-.8994-.4043-1.541-.981-1.9727-1.4824-.0693.0034-.1592.0053-.2612.0039-1.3833-.0274-2.4936999-.7564-2.7489999-2.2471-.9224-5.3799,7.2124061-6.6406,7.0594998-9.4028-.0586-1.0494-.8252-1.9141-2.1971999-2.0581-.4595-.0484-.3863-.7378.0722-.6895,1.6704.1753,2.7363999,1.2808,2.8159999,2.7085.1918,3.4512-7.9160937,4.3745-7.0678998,9.3247.1738062,1.0171.9302,1.5825,1.8193,1.6694-.1434938-.2314-.209-.3808-.209-.3808Z" fill="url(#New_Gradient_379)" stroke="#000" stroke-linecap="round" stroke-linejoin="round" stroke-width="2"/>
  <g mask="url(#mask)">
    <g>
      <path d="M5.5194938,17.3218s.7442,1.6797,2.6899999,2.5542c0,0,4.0595063.7671,9.4300998-1.3916,4.2812999-1.7222,3.4326999-4.7149,3.4326999-4.7149,0,0-1-3.0517-4.3969999-3.5102-2.9828999-.4029-5.4203999.874-7.4384998,2.0576-1.5137.8872-3.2719999,2.5215-3.5946999,3.3369-.1968.4985-.1226,1.668-.1226,1.668Z" fill="url(#New_Gradient_369)" fill-rule="evenodd"/>
      <path d="M5.4848938,15.2949s-.0977.5298.2622,1.0308c.3593.501,2.1044999,2.3374,2.9667999,2.6279.8618.291,7.2528998-.5229,11.0438997-2.876,3.7890999-2.3535,4.1192066-4.6694,4.1192066-4.6694l-1.7608066,9.021-14.7416996,2.1558-3.6654938-4.6905,1.7758938-2.5996Z" fill="url(#linear-gradient)" fill-rule="evenodd" stroke="#666" stroke-miterlimit="3.8637" stroke-width="1.1343"/>
      <path d="M11.7685936,12.7207s-.5723-1.1431-2.6918999-1.3594l-3.9233999,2.898s.4009.1391.6426.4546c-.0181,1.0171.876,1.5151,1.0269,1.6582,0,0,.062-.5132.2509-.7486.187-.2353.2901-.1948.2901-.1948,0,0-.2925-.3984.0346-.666.4038-.3291,1.3389-.9375,2.0214999-1.2529,0,0,.3174-.0191.6172.2773l1.7315-1.0664Z" fill="none" fill-rule="evenodd" stroke="#ccc" stroke-linecap="round" stroke-linejoin="round" stroke-width=".5671"/>
    </g>
  </g>
  <path d="M10.7460937,14.3052c.1748.2646.1567.5659-.1694.7383-.4195.2216-1.4991.9057-1.8238,1.1225-.4262.2857-.7446.0811-.935-.0874-.2266.0352-.3433.6909-.357.8511.2163.2226,1.063,1.0654,1.6426,1.2075.6787.1665,3.2705063-.1641,4.6093999-.6504.2593-.0947.335-1.5063-.4478-2.7637-.2314-.3735-.6582-1.0058-1.0493-1.2876-.2387.1294-.9267.5054-1.4697.8697ZM7.7865937,17.7139c-.1195937-.1031-.6855-.5723-.6782-.7295,0,0,.0063-.1211.0278-.273.0479-.3257.315-1.1054.7818062-.9653.2543937.0752.3036937.3594.6424937.1318.3306-.2197,1.4278-.915,1.8541-1.1406.3281-.1724-.3145-.4038-.0205937-.6108.3422937-.2422,1.709-1.1275,1.8984936-1.0489,0,0,.0381.0157.1108.0655.4395.3076.8936.9736,1.1568,1.3974.708,1.1372.9736,3.0161.271,3.272-1.3609.4946-4.0312999.8516-4.8085999.6606-.4097-.0991-.8829-.455-1.2359-.7592Z" fill="url(#New_Gradient_368)"/>
  <g mask="url(#mask-1)">
    <g>
      <path d="M8.3202937,15.749l1.8706-1.06s.3819-.3921-.0205-.7632c-.4013937-.3731-.7773-.5044-1.5732-.1177-.7823.3809-1.0874,1.0855-.9785,1.4482.1484.4986.7016.4927.7016.4927Z" fill="url(#New_Gradient_367)" fill-rule="evenodd"/>
      <path d="M8.9208937,14.3521c-.9336.5727-1.1943,1.5058-.6567,1.7792.4145.2125,2.7850999-1.0805,2.7850999-1.0805,0,0-.7544-1.4951-2.1283999-.6987Z" fill="#555b91" fill-rule="evenodd"/>
      <path d="M8.3202937,15.749l1.8706-1.06s.3819-.3921-.0205-.7632c-.4013937-.3731-.7773-.5044-1.5732-.1177-.7823.3809-1.0874,1.0855-.9785,1.4482.1484.4986.7016.4927.7016.4927Z" fill="none" fill-rule="evenodd" stroke="#555b91" stroke-miterlimit="3.8637" stroke-width=".5"/>
    </g>
  </g>
  <path d="M6.6576938,18.5991s.4776-.2251.3394-.7666" fill="none" stroke="#666" stroke-linecap="round" stroke-miterlimit="3.8637" stroke-width="1.1343"/>
  <path d="M6.4110938,18.3789s-.1714.0244-.4355.0186c-1.3833-.0274-2.4936999-.7564-2.7489999-2.2471-.9224-5.3799,7.2124061-6.6406,7.0594998-9.4028-.0586-1.0494-.8252-1.9141-2.1971999-2.0581-.4595-.0484-.3863-.7378.0722-.6895,1.6704.1753,2.7363999,1.2808,2.8159999,2.7085.1918,3.4512-7.9160937,4.3745-7.0678998,9.3247.2119,1.2363,1.2812,1.8042,2.4086999,1.6597.458-.063.5517.6235.0932.686Z" fill="#ccc"/>
  <path d="M15.0316936,17.4453c2.1537999-.5415,5.6518999-2.4682,5.7475999-2.811,0,0,.1221-.2603-.1112934-.9409-.1582066-.4698-1.295-2.4317-3.4619065-3.0264,0,0-.3277.043-.0909.209,1.002.6997,2.3183999,1.7886,1.9473,3.2412-.3359,1.3237-3.5990999,2.8594-3.9872999,3.0307-.3877.1714-.0435.2974-.0435.2974Z" fill="url(#New_Gradient_366)" fill-rule="evenodd"/>
  <path d="M9.4311937,17.7944c1.7417.0376,3.6112999-.3452,3.8618063-.5195.2504936-.1743.2660936-.4722.2660936-.4722,0,0-.1210936-1.268-.7935-2.2129,0,0-.3183-.0752-.2212.149.0938.2231.1704,1.2993-.1176,1.7104-.4917.7012-2.9824999,1.0786-2.9824999,1.0786,0,0-.3296.1973-.0131.2666Z" fill="url(#New_Gradient_365)" fill-rule="evenodd"/>
</svg>