<?xml version="1.0" encoding="UTF-8"?>
<svg id="Layer_7" data-name="Layer 7" xmlns="http://www.w3.org/2000/svg" width="24" height="24" xmlns:xlink="http://www.w3.org/1999/xlink" viewBox="0 0 24 24">
  <defs>
    <linearGradient id="New_Gradient_Swatch_8" data-name="New Gradient Swatch 8" x1="4" y1="12" x2="20" y2="12" gradientUnits="userSpaceOnUse">
      <stop offset="0" stop-color="#b0caff"/>
      <stop offset=".1381484" stop-color="#97b5f2"/>
      <stop offset=".4019205" stop-color="#6f93dd"/>
      <stop offset=".64258" stop-color="#527ace"/>
      <stop offset=".8499057" stop-color="#406bc5"/>
      <stop offset="1" stop-color="#3a66c2"/>
    </linearGradient>
    <radialGradient id="radial-gradient" cx="8.1248" cy="-.3744" fx="8.1248" fy="-.3744" r="23.2854997" gradientUnits="userSpaceOnUse">
      <stop offset="0" stop-color="#b0caff"/>
      <stop offset=".0650509" stop-color="#9cb8f2"/>
      <stop offset=".2011342" stop-color="#7999db"/>
      <stop offset=".3392313" stop-color="#5e81c9"/>
      <stop offset=".4783251" stop-color="#4a6fbc"/>
      <stop offset=".6190887" stop-color="#3e65b4"/>
      <stop offset=".764045" stop-color="#3b62b2"/>
    </radialGradient>
  </defs>
  <path d="M5.9048,4h12.1909092c1.0510067,0,1.9042908.8532841,1.9042908,1.9042908v12.1909092c0,1.0512877-.8535123,1.9048-1.9048,1.9048H5.9043096c-1.0510171,0-1.9043096-.8532925-1.9043096-1.9043096V5.9048c0-1.0512877.8535123-1.9048,1.9048-1.9048Z" fill="#69c" stroke="#000" stroke-width="2"/>
  <g>
    <path d="M5.9048,4h12.1909092c1.0510067,0,1.9042908.8532841,1.9042908,1.9042908v12.1909092c0,1.0512877-.8535123,1.9048-1.9048,1.9048H5.9043096c-1.0510171,0-1.9043096-.8532925-1.9043096-1.9043096V5.9048c0-1.0512877.8535123-1.9048,1.9048-1.9048Z" fill="url(#New_Gradient_Swatch_8)"/>
    <path d="M5.9048,4h12.1909092c1.0510067,0,1.9042908.8532841,1.9042908,1.9042908v12.1909092c0,1.0512877-.8535123,1.9048-1.9048,1.9048H5.9043096c-1.0510171,0-1.9043096-.8532925-1.9043096-1.9043096V5.9048c0-1.0512877.8535123-1.9048,1.9048-1.9048Z" fill="url(#radial-gradient)"/>
  </g>
  <g>
    <polygon points="17.2802905 14.9678 15.9667905 15.2949 14.3515905 11.9189 14.1962905 11.5938 13.8358906 11.5938 10.1151907 11.5938 10.1151907 10.8652 12.9003906 10.8652 12.9003906 9.7227 10.1151907 9.7227 10.1151907 6.5518 8.9726907 6.5518 8.9726907 10.2939 8.9726907 12.1655 8.9726907 12.7363 9.543 12.7363 13.4765906 12.7363 15.1366905 16.209 15.3388905 16.6299 15.791 16.5171 17.5565905 16.0767 17.2802905 14.9678" fill="#fff"/>
    <path d="M11.252,6.9331c0,.7329-.5948094,1.3267-1.3272093,1.3267-.7334,0-1.3271-.5938-1.3271-1.3267s.5937-1.3267,1.3271-1.3267c.7324,0,1.3272093.5938,1.3272093,1.3267Z" fill="#fff"/>
    <path d="M13.8964906,14.9404l-.1016-.0366c-.4404,1.2222-1.6074,2.0435-2.9032999,2.0435-1.7021,0-3.0878999-1.3853-3.0878999-3.0879,0-.668.2139-1.2949.5967-1.8155v-1.5712l-.0137-.0186c-1.081.7964-1.7265,2.0693-1.7265,3.4053,0,2.333,1.8984,4.2309,4.2313999,4.2309,1.4639,0,2.8046999-.7646,3.5692999-1.9702-.1757-.3691-.375-.7837-.5644-1.1797Z" fill="#fff"/>
  </g>
  <path d="M5.6952908,4.7241h12.6098997c.535468,0,.9702.434732.9702.9702v12.6109c0,.5357439-.4349561.9707-.9707.9707H5.6947908c-.535468,0-.9702-.434732-.9702-.9702V5.6948c0-.5357439.4349561-.9707.9707-.9707Z" fill="none" opacity=".25" stroke="#fff"/>
</svg>