<?xml version='1.0' encoding='UTF-8'?>
<svg xmlns="http://www.w3.org/2000/svg" xmlns:xlink="http://www.w3.org/1999/xlink" id="Layer_1" data-name="Layer 1" width="24" height="24" viewBox="0 0 24 24">
  <defs>
    <linearGradient id="New_Gradient_176" data-name="New Gradient 176" x1="17.3149788" y1="5.4381877" x2="5.7841836" y2="19.677534" gradientUnits="userSpaceOnUse">
      <stop offset="0" stop-color="#d9d9d9"/>
      <stop offset=".522476" stop-color="#f2f2f2"/>
      <stop offset="1" stop-color="#ccc"/>
    </linearGradient>
    <linearGradient id="New_Gradient_176-2" data-name="New Gradient 176" x1="11.8370276" y1="5.4720361" x2="4.6299135" y2="14.3720808" gradientUnits="userSpaceOnUse"><stop offset="0" stop-color="#d9d9d9"/><stop offset=".522476" stop-color="#f2f2f2"/><stop offset="1" stop-color="#ccc"/></linearGradient>
    <linearGradient id="New_Gradient_175" data-name="New Gradient 175" x1="20.8101286" y1="20.3869306" x2="3.3410478" y2="5.2012904" gradientUnits="userSpaceOnUse">
      <stop offset="0" stop-color="#e5e5e5"/>
      <stop offset="1" stop-color="#ccc"/>
    </linearGradient>
    <mask id="mask" x="5.792" y="4.9985" width="15.814391" height="17.5664" maskUnits="userSpaceOnUse">
      <polygon points="18.689491 6.1987 5.792 9.4155 5.792 19.2212 18.689491 16.0435 18.689491 6.1987" fill="#fff" fill-rule="evenodd"/>
    </mask>
    <linearGradient id="New_Gradient_192" data-name="New Gradient 192" x1="19.9373272" y1="16.9762349" x2="4.5455314" y2="8.4444231" gradientUnits="userSpaceOnUse">
      <stop offset="0" stop-color="#01326e"/>
      <stop offset="1" stop-color="#012859"/>
    </linearGradient>
    <radialGradient id="New_Gradient_193" data-name="New Gradient 193" cx="34.7052393" cy="-11.1539303" fx="34.7052393" fy="-11.1539303" r="14.579927" gradientTransform="translate(-19.1539 19.6672) scale(.8507)" gradientUnits="userSpaceOnUse">
      <stop offset="0" stop-color="#23468e"/>
      <stop offset="1" stop-color="#012859"/>
    </radialGradient>
    <radialGradient id="radial-gradient" cx="93.3522192" cy="30.7484737" fx="93.3522192" fy="30.7484737" r="2.362773" gradientTransform="translate(-66.8188 -6.0776) scale(.8563)" gradientUnits="userSpaceOnUse">
      <stop offset="0" stop-color="#ffe900"/>
      <stop offset=".589888" stop-color="#ffcd00"/>
      <stop offset=".6721381" stop-color="#fac500"/>
      <stop offset=".7966745" stop-color="#efb000"/>
      <stop offset=".947329" stop-color="#dd8e00"/>
      <stop offset="1" stop-color="#d68100"/>
    </radialGradient>
    <radialGradient id="radial-gradient-2" cx="-777.2487655" cy="30.7138678" fx="-777.2487655" fy="30.7138678" r="2.9241541" gradientTransform="translate(-647.1116 -6.0776) scale(-.8563 .8563)" gradientUnits="userSpaceOnUse"><stop offset="0" stop-color="#ffe900"/><stop offset=".589888" stop-color="#ffcd00"/><stop offset=".6721381" stop-color="#fac500"/><stop offset=".7966745" stop-color="#efb000"/><stop offset=".947329" stop-color="#dd8e00"/><stop offset="1" stop-color="#d68100"/></radialGradient>
    <radialGradient id="radial-gradient-3" cx="95.2279407" cy="20.6954562" fx="95.2279407" fy="20.6954562" r="8.6409603" gradientTransform="translate(-66.8188 -6.0776) scale(.8563)" gradientUnits="userSpaceOnUse">
      <stop offset="0" stop-color="#ccc"/>
      <stop offset=".0554436" stop-color="#a2a2a2"/>
      <stop offset=".1793984" stop-color="#3b3b3b"/>
      <stop offset=".247191" stop-color="#000"/>
      <stop offset="1" stop-color="#000"/>
    </radialGradient>
    <radialGradient id="radial-gradient-4" cx="99.1916481" cy="20.8901973" fx="99.1916481" fy="20.8901973" r="7.4741789" gradientTransform="translate(-66.8188 -6.0776) scale(.8563)" gradientUnits="userSpaceOnUse">
      <stop offset="0" stop-color="#ccc"/>
      <stop offset="1" stop-color="#000"/>
    </radialGradient>
    <radialGradient id="radial-gradient-5" cx="90.2974306" cy="25.0038623" fx="90.2974306" fy="25.0038623" r="4.7945939" gradientTransform="translate(-66.8188 -6.0776) scale(.8563)" gradientUnits="userSpaceOnUse"><stop offset="0" stop-color="#ccc"/><stop offset="1" stop-color="#000"/></radialGradient>
    <radialGradient id="radial-gradient-6" cx="96.5076003" cy="19.8242675" fx="96.5076003" fy="19.8242675" r="4.2188884" gradientTransform="translate(-66.8188 -6.0776) scale(.8563)" gradientUnits="userSpaceOnUse"><stop offset="0" stop-color="#ccc"/><stop offset=".0554436" stop-color="#a2a2a2"/><stop offset=".1793984" stop-color="#3b3b3b"/><stop offset=".247191" stop-color="#000"/><stop offset="1" stop-color="#000"/></radialGradient>
    <radialGradient id="radial-gradient-7" cx="96.6692743" cy="26.6672589" fx="96.6692743" fy="26.6672589" r="6.1284569" gradientTransform="translate(-66.8188 -6.0776) scale(.8563)" gradientUnits="userSpaceOnUse">
      <stop offset="0" stop-color="#fff"/>
      <stop offset=".3005241" stop-color="#fcfcfc"/>
      <stop offset=".4838126" stop-color="#f4f4f4"/>
      <stop offset=".6356382" stop-color="#e5e5e5"/>
      <stop offset=".7702902" stop-color="#d1d1d1"/>
      <stop offset=".8923941" stop-color="#b7b7b7"/>
      <stop offset="1" stop-color="#999"/>
    </radialGradient>
    <radialGradient id="radial-gradient-8" cx="93.3522192" cy="30.7484737" fx="93.3522192" fy="30.7484737" r="2.362773" gradientTransform="translate(-66.8188 -6.0776) scale(.8563)" gradientUnits="userSpaceOnUse">
      <stop offset="0" stop-color="#ffe900"/>
      <stop offset=".589888" stop-color="#ffcd00"/>
      <stop offset=".6721381" stop-color="#fac500"/>
      <stop offset=".7966745" stop-color="#efb000"/>
      <stop offset=".947329" stop-color="#dd8e00"/>
      <stop offset="1" stop-color="#d68100"/>
    </radialGradient>
    <radialGradient id="radial-gradient-9" cx="-777.2487655" cy="30.7138678" fx="-777.2487655" fy="30.7138678" r="2.9241541" gradientTransform="translate(-647.1116 -6.0776) scale(-.8563 .8563)" gradientUnits="userSpaceOnUse"><stop offset="0" stop-color="#ffe900"/><stop offset=".589888" stop-color="#ffcd00"/><stop offset=".6721381" stop-color="#fac500"/><stop offset=".7966745" stop-color="#efb000"/><stop offset=".947329" stop-color="#dd8e00"/><stop offset="1" stop-color="#d68100"/></radialGradient>
    <radialGradient id="radial-gradient-10" cx="98.0131041" cy="21.1920704" fx="98.0131041" fy="21.1920704" r=".5527055" gradientTransform="translate(-66.8188 -6.0776) scale(.8563)" gradientUnits="userSpaceOnUse">
      <stop offset="0" stop-color="#fff"/>
      <stop offset=".0597022" stop-color="#dcdcdc"/>
      <stop offset=".1584658" stop-color="#a9a9a9"/>
      <stop offset=".2618442" stop-color="#7b7b7b"/>
      <stop offset=".3678324" stop-color="#555"/>
      <stop offset=".4770854" stop-color="#363636"/>
      <stop offset=".5906921" stop-color="#1e1e1e"/>
      <stop offset=".7104593" stop-color="#0d0d0d"/>
      <stop offset=".8405047" stop-color="#030303"/>
      <stop offset="1" stop-color="#000"/>
    </radialGradient>
    <radialGradient id="radial-gradient-11" cx="96.5765027" fx="96.5765027" r=".5529685" cy="21.1920704" fy="21.1920704" gradientTransform="translate(-66.8188 -6.0776) scale(.8563)" gradientUnits="userSpaceOnUse"><stop offset="0" stop-color="#fff"/><stop offset=".0597022" stop-color="#dcdcdc"/><stop offset=".1584658" stop-color="#a9a9a9"/><stop offset=".2618442" stop-color="#7b7b7b"/><stop offset=".3678324" stop-color="#555"/><stop offset=".4770854" stop-color="#363636"/><stop offset=".5906921" stop-color="#1e1e1e"/><stop offset=".7104593" stop-color="#0d0d0d"/><stop offset=".8405047" stop-color="#030303"/><stop offset="1" stop-color="#000"/></radialGradient>
    <radialGradient id="radial-gradient-12" cx="130.8612882" cy="20.7041" fx="130.8612882" fy="20.7041" r="2.8028" gradientTransform="translate(-87.8755 -3.2966) scale(.7951)" gradientUnits="userSpaceOnUse"><stop offset="0" stop-color="#ffe900"/><stop offset=".589888" stop-color="#ffcd00"/><stop offset=".6721381" stop-color="#fac500"/><stop offset=".7966745" stop-color="#efb000"/><stop offset=".947329" stop-color="#dd8e00"/><stop offset="1" stop-color="#d68100"/></radialGradient>
    <radialGradient id="radial-gradient-13" cx="130.786124" cy="19.8416604" fx="130.786124" fy="19.8416604" r="2.906229" gradientTransform="translate(-87.8755 -1.3629) scale(.7951 .7171)" gradientUnits="userSpaceOnUse"><stop offset="0" stop-color="#ffe900"/><stop offset=".589888" stop-color="#ffcd00"/><stop offset=".6721381" stop-color="#fac500"/><stop offset=".7966745" stop-color="#efb000"/><stop offset=".947329" stop-color="#dd8e00"/><stop offset="1" stop-color="#d68100"/></radialGradient>
  </defs>
  <g>
    <path d="M4.1747914,21.4282s-1.1143-.6362-1.1143-2.2099v-10.8951s-.0429-1.0024.6934-1.2124c.7344-.2094,13.6933997-3.2963,14.3661996-3.477.8916-.2383,1.749.5019,1.749.5019l-.0898.0992.1533-.0381v13.3222l-15.7137996,3.8726-.044.0366Z" fill="url(#New_Gradient_176)" stroke="#000" stroke-linecap="round" stroke-linejoin="round" stroke-width="2"/>
    <path d="M4.1747914,21.4282s-1.1143-.6362-1.1143-2.2099v-10.8951s-.0429-1.0024.6934-1.2124c.7344-.2094,13.6933997-3.2963,14.3661996-3.477.8916-.2383,1.749.5019,1.749.5019L4.1747914,21.4282Z" fill="url(#New_Gradient_176-2)" fill-rule="evenodd"/>
    <polygon points="19.932591 4.1968 4.2187914 8.1157 4.2187914 21.3916 19.932591 17.519 19.932591 4.1968" fill="url(#New_Gradient_175)" fill-rule="evenodd"/>
    <g mask="url(#mask)">
      <g>
        <polygon points="18.689491 6.1987 5.792 9.4155 5.792 19.2212 18.689491 16.0435 18.689491 6.1987" fill="url(#New_Gradient_192)" fill-rule="evenodd"/>
        <path d="M17.832,5.708s-4.0879088,2.1714-6.3105088,7.0278c-2.2206999,4.8555-.6973,9.8291-.6973,9.8291l10.7821997-3.0537-.5742-14.5127-3.200191.7095Z" fill="url(#New_Gradient_193)" fill-rule="evenodd"/>
      </g>
    </g>
    <path d="M3.9257914,20.981v-12.8506c0-.0899.1181-.2491.1992086-.2696l15.261691-3.8667c.4072-.1045.6729.5533.2627.6568l-15.2264996,3.7309v12.8101c0,.4434-.4971.2329-.4971-.2109Z" fill="#fff"/>
    <polyline points="4.4228914 21.1919 4.4228914 8.3818 19.715791 4.522" fill="none" stroke="#b2b2b2" stroke-linecap="round" stroke-linejoin="round" stroke-width=".75"/>
    <polyline points="5.9032914 19.2856 18.736291 16.1401 18.736291 6.2705" fill="none" stroke="#fff" stroke-linecap="round" stroke-miterlimit="3.8637" stroke-width=".9039"/>
    <polyline points="5.7548914 19.0176 5.7548914 9.4468 18.488291 6.2217" fill="none" stroke="gray" stroke-linecap="round" stroke-linejoin="round" stroke-width=".8877"/>
    <g>
      <polygon points="7.5780913 10.27 9.9823913 11.2202 7.5780913 13.4043 7.1542913 12.8633 8.5614913 11.585 7.1542913 11.0293 7.5780913 10.27" fill="#fff"/>
      <polygon points="9.9325913 12.6689 12.4931912 12.0127 12.4931912 12.7891 9.9325913 13.4453 9.9325913 12.6689" fill="#fff"/>
    </g>
  </g>
  <g>
    <path d="M21.651391,17.0098c-1.6563-.4234-2.2499999-1.1499-3.2128999-2.4639-.042-.0571-.083-.1001-.124-.1372-.004-.0039-.0079-.0073-.0118-.0112-.0381-.0332-.0771-.0567-.1113-.0723-.001-.0005-.001-.001-.0019-.002.0253-.0312.0439-.0688.0664-.103.0439-.0644.0908-.1279.1279-.1982.0273-.0493.0459-.1035.0693-.1558.0313-.0698.0635-.1372.086-.2114.0244-.0684.0361-.1431.0507-.2158.0137-.0625.034209-.1231.0411-.1875.0185-.1407.0244-.2862.0175-.4346-.0205-.3511-.0332-.5264-.0546-.8779-.0782-1.229-.9385-2.1494-1.8917-2.1382-.1845.0024-.2753.0024-.4589,0-.9531911-.0093-1.8135.9121-1.8897,2.1406-.0224.3506-.0332.5259-.0517.877-.0079.1489-.001.2944.0166.436.0078.0557.0224.1084.0361.1626.0156.081.0293.1636.0557.2407.0214.0694.0527.1343.082.2007.0254.0552.0449.1123.0732.1645.0381.0709.084.1348.1289.1988.0215.0327.0411.0693.0635.1006,0,0,0,.0019-.001.0029-.0341.0161-.0742.0405-.1113.0737-.0049.0025-.0078.0059-.0117.0088-.04.0371-.082.0806-.1221.1382-.9648,1.314-1.5586,2.04-3.2147999,2.4639-.4473.1137-.7627.4428-.6006.8466.1611.4043.7021.8204,1.1211.7623.5107-.0718.9101-.2085,1.2597-.4029-.0625.1343-.124.2691-.1865.4043-.0849.1714-.1415912.3374-.1825912.4986-.6455088-.0313-1.21.2265-1.3545088.9306-.3389,1.6572,1.6953,2.8316,3.0712999,2.5508.415-.085.6885-.3096.8311-.5962.2314.04.4609.062.6826.062h1.0722c.1387,0,.2803089-.0127.4239-.0273.1465.2695.414.48.8144089.5615,1.376.2808,3.409191-.8936,3.072291-2.5508-.126-.6006-.5547-.8774-1.0801-.9267-.04-.1631-.0976-.3301-.1826-.5025-.0635-.1352-.124-.27-.1865-.4043.3515.1939.749.3306,1.2588.4019.4199.0586.9599-.357,1.123-.7613.1611091-.4038-.1533-.7329-.6025-.8466Z" stroke="#000" stroke-width="2"/>
    <g>
      <g>
        <path d="M11.3534912,20.0493c-.3389,1.6572,1.6953,2.8316,3.0712999,2.5508.7637-.1567,1.0557-.7773.9248-1.4004-.1182-.5508-.5918-1.2036-1.2539-1.6221-1.0049-.6367-2.4931999-.7382-2.7421999.4717Z" fill="url(#radial-gradient)" stroke="#000" stroke-width="1.5"/>
        <path d="M21.321291,20.0493c.3369,1.6572-1.696291,2.8316-3.072291,2.5508-.7656089-.1567-1.0576089-.7773-.9248089-1.4004.1182-.5508.5908089-1.2036,1.252-1.6221,1.005809-.6367,2.4950999-.7382,2.7450999.4717Z" fill="url(#radial-gradient-2)" stroke="#000" stroke-width="1.5"/>
      </g>
      <path d="M21.651391,17.0098c-1.6563-.4234-2.2499999-1.1499-3.2128999-2.4639-.086-.1182-.1709-.189-.249-.2212.3115089-.3984.4892-.9277.4589-1.5078-.0205-.3511-.0332-.5264-.0546-.8779-.0782-1.229-.9385-2.1494-1.8917-2.1382-.1845.0024-.2753.0024-.4589,0-.9531911-.0093-1.8135.9121-1.8897,2.1406-.0224.3506-.0332.5259-.0517.877-.0303.581.1464,1.1079.458,1.5063-.0791.0322-.1621.103-.2481.2212-.9648,1.314-1.5586,2.04-3.2147999,2.4639-.4473.1137-.7627.4428-.6006.8466.1611.4043.7021.8204,1.1211.7623,1.5459-.2173,2.1396088-.9766,3.0927999-2.4288.2509-.3823.3232-1.0625.2255-1.4975.3057.227.6739.3594,1.0733089.3603.2128911.0005.3182911.0005.5302911,0,.4013-.0009.7675-.1333,1.0742-.3593-.0996.435-.0274,1.1142.2256,1.4965.9511,1.4522,1.5449089,2.211,3.0917999,2.4278.4199.0586.9599-.357,1.123-.7613.1611091-.4038-.1533-.7329-.6025-.8466Z" fill="url(#radial-gradient-3)" stroke="#000" stroke-width=".5"/>
      <g>
        <path d="M22.2538909,17.8564c.1611091-.4038-.1533-.7329-.6025-.8466-1.6563-.4234-2.2499999-1.1499-3.2128999-2.4639-.2627-.3564-.5098-.3242-.6192.1089h0c-.1102911.4326-.04,1.1401.2198,1.5351.9511,1.4522,1.5449089,2.211,3.0917999,2.4278.4199.0586.9599-.357,1.123-.7613h0Z" fill="url(#radial-gradient-4)"/>
        <path d="M10.6962912,17.8564c.1611.4043.7021.8204,1.1211.7623,1.5459-.2173,2.1396088-.9766,3.0927999-2.4288.2597-.395.3291-1.1025.2177-1.5351h0c-.1074-.4331-.3564-.4653-.6162-.1089-.9648,1.314-1.5586,2.04-3.2147999,2.4639-.4473.1137-.7627.4428-.6006.8466h0Z" fill="url(#radial-gradient-5)"/>
      </g>
      <path d="M20.058591,18.6201c-.9668-2.0815-1.8604-4.125-2.6200999-6.2905-.3174-.0547-.6426-.0845-.9746-.0845-.3262-.0005-.6416.0269-.9512.0796-.7606911,2.167-1.6553,4.2129-2.6220999,6.2954-1.0449,2.103,1.2637,3.4439,3.0478999,3.4458h1.0722c1.7842-.0019,4.0908999-1.3428,3.0478999-3.4458Z"/>
      <path d="M18.648391,12.8169c.0664,1.228-.7998,2.2329-1.9091,2.2358-.212.0005-.3174.0005-.5302911,0-1.1065089-.0019-1.9746088-1.0068-1.9072088-2.2343.0185-.3511.0293-.5264.0517-.877.0762-1.2285.9365089-2.1499,1.8897-2.1406.1836.0024.2744.0024.4589,0,.9532-.0112,1.8135.9092,1.8917,2.1382.0214.3515.0341.5268.0546.8779Z" fill="url(#radial-gradient-6)"/>
      <g>
        <path d="M17.9374911,12.252c.0244.6499-.2656,1.1884-.6426,1.1958-.375.0058-.6816-.5176-.6836-1.1646-.0009-.6479.2842-1.1743.6387089-1.1846.3554911-.0112.666.4995.6874911,1.1534Z" fill="#fff" stroke="#000" stroke-width=".5"/>
        <path d="M16.5116911,12.2832c0,.6621-.3436911,1.1997-.7695,1.1934-.4258-.0074-.7559-.5586-.7315-1.2246.0225-.6666.3711-1.1895.7725-1.1792.4023.0122.7266.5483.7285,1.2104Z" fill="#fff" stroke="#000" stroke-width=".5"/>
      </g>
      <path d="M19.150391,18.6411c.5059,1.3809-.6729,2.8135-2.6669999,2.8101h0c-1.9950999-.0049-3.1913911-1.4136-2.6903911-2.7969.2567912-.708.3788912-1.0522.6102911-1.7271.4522-1.3188,1.3311-2.2128,2.0634999-2.2216h0c.7324-.0083,1.6055.893,2.0634999,2.2104.2314.6743.3593,1.0171.6201,1.7251Z" fill="url(#radial-gradient-7)"/>
      <g>
        <path d="M11.3534912,20.0493c-.3389,1.6572,1.6953,2.8316,3.0712999,2.5508.7637-.1567,1.0557-.7773.9248-1.4004-.1182-.5508-.5918-1.2036-1.2539-1.6221-1.0049-.6367-2.4931999-.7382-2.7421999.4717Z" fill="url(#radial-gradient-8)" stroke="#d68100" stroke-width=".375"/>
        <path d="M21.321291,20.0493c.3369,1.6572-1.696291,2.8316-3.072291,2.5508-.7656089-.1567-1.0576089-.7773-.9248089-1.4004.1182-.5508.5908089-1.2036,1.252-1.6221,1.005809-.6367,2.4950999-.7382,2.7450999.4717Z" fill="url(#radial-gradient-9)" stroke="#d68100" stroke-width=".375"/>
      </g>
      <g>
        <path d="M17.5614911,12.2378c0,.2715-.1533.4893-.3418.4893-.1894,0-.3436911-.2178-.3436911-.4888s.1542911-.4907.3436911-.4907c.1885,0,.3418.2197.3418.4902Z" fill="url(#radial-gradient-10)"/>
        <path d="M16.332,12.2383c0,.271-.1552089.4888-.3437089.4888-.1895,0-.3428-.2178-.3428-.4888s.1533-.4907.3428-.4907c.1885,0,.3437089.2197.3437089.4907Z" fill="url(#radial-gradient-11)"/>
      </g>
      <g>
        <path d="M17.8886911,12.9863c.3222.1392-.128,1.5171-1.4131,1.5171-1.2871,0-1.7383-1.3779-1.416-1.5166.3242-.1391.8242-.3896,1.416-.3896.5898,0,1.0889.2505,1.4131.3891Z" fill="url(#radial-gradient-12)"/>
        <path d="M17.8886911,12.9863c.3222.1392-.128,1.5171-1.4131,1.5171-1.2871,0-1.7383-1.3779-1.416-1.5166.3242-.1391.8242-.3896,1.416-.3896.5898,0,1.0889.2505,1.4131.3891Z" fill="#ffcd00"/>
        <path d="M17.8886911,12.9863c.3222.1392-.128,1.5171-1.4131,1.5171-1.2871,0-1.7383-1.3779-1.416-1.5166.3242-.1391.8242-.3896,1.416-.3896.5898,0,1.0889.2505,1.4131.3891Z" fill="none" stroke="#d68100" stroke-width=".375"/>
      </g>
      <path d="M18.0556911,12.9531c-.3614-.1279-.92-.3559-1.5801-.3559-.6631,0-1.2207.228-1.583.3559-.0791.0274-.1153.1133-.1104.2266.3067.48.9512.813,1.6983.813.7373,0,1.373-.3238,1.6836-.7945.0117-.122-.0235-.2168-.1084-.2451Z" fill="url(#radial-gradient-13)" stroke="#d68100" stroke-width=".375"/>
    </g>
  </g>
</svg>