<?xml version='1.0' encoding='UTF-8'?>
<svg xmlns="http://www.w3.org/2000/svg" xmlns:xlink="http://www.w3.org/1999/xlink" id="Set_4" data-name="Set 4" width="16" height="16" viewBox="0 0 16 16">
  <defs>
    <radialGradient id="radial-gradient" cx="12.4689408" cy="-100.4644438" fx="12.4689408" fy="-100.4644438" r="6.0688327" gradientTransform="translate(-18.6129 196.8193) scale(1.89)" gradientUnits="userSpaceOnUse">
      <stop offset="0" stop-color="#fff"/>
      <stop offset=".0148633" stop-color="#f1f7fe"/>
      <stop offset=".0801777" stop-color="#badafb"/>
      <stop offset=".1438424" stop-color="#8dc2f9"/>
      <stop offset=".2044479" stop-color="#69aff8"/>
      <stop offset=".2612008" stop-color="#50a2f6"/>
      <stop offset=".312615" stop-color="#4199f6"/>
      <stop offset=".353932" stop-color="#3c97f6"/>
      <stop offset=".5755021" stop-color="#3b94f1"/>
      <stop offset=".8388609" stop-color="#3a8de2"/>
      <stop offset="1" stop-color="#3a88d6"/>
    </radialGradient>
    <radialGradient id="radial-gradient-2" cx="-2.1686835" cy="12.8025782" fx="-2.1686835" fy="12.8025782" r="12.0306798" gradientTransform="translate(9.9272 -2.165) scale(1.1619)" gradientUnits="userSpaceOnUse"><stop offset="0" stop-color="#fff"/><stop offset=".0148633" stop-color="#f1f7fe"/><stop offset=".0801777" stop-color="#badafb"/><stop offset=".1438424" stop-color="#8dc2f9"/><stop offset=".2044479" stop-color="#69aff8"/><stop offset=".2612008" stop-color="#50a2f6"/><stop offset=".312615" stop-color="#4199f6"/><stop offset=".353932" stop-color="#3c97f6"/><stop offset=".5755021" stop-color="#3b94f1"/><stop offset=".8388609" stop-color="#3a8de2"/><stop offset="1" stop-color="#3a88d6"/></radialGradient>
  </defs>
  <g>
    <path d="M9.0093,1.8418c-.3662-.0938-.7437.1182-1.1211.2695-.4785.1914-.751.0342-1.1719-.0468l.0464-.1485c.0933-.2949-.3032-.3496-.3955-.0547l-1.4566,4.6143c-.3828-.461-1.1093-.5889-1.748-.375-.5361.1787-1.0684.7187-.8623,1.2998.3052.8564,2.6113,1.1875,2.8057-.2813.017-.0253.0312-.0517.0415-.083l.8491-2.6914c.1826.7071.9619.0752,1.3974-.2666.4805-.3769,1.0796-.8867,1.6104-.6972.0596.0214.3101.2148.3877.1298.1074-.1123.0703-.4306.0674-.5439-.0137-.3809-.0699-1.0293-.4502-1.125" fill="#d68100" fill-rule="evenodd" stroke="#000" stroke-width="1.5"/>
    <path d="M9.0093,1.8418c-.3662-.0938-.7437.1182-1.1211.2695-.4785.1914-.751.0342-1.1719-.0468l.0464-.1485c.0933-.2949-.3032-.3496-.3955-.0547l-1.4566,4.6143c-.3828-.461-1.1093-.5889-1.748-.375-.5361.1787-1.0684.7187-.8623,1.2998.3052.8564,2.6113,1.1875,2.8057-.2813.017-.0253.0312-.0517.0415-.083l.8491-2.6914c.1826.7071.9619.0752,1.3974-.2666.4805-.3769,1.0796-.8867,1.6104-.6972.0596.0214.3101.2148.3877.1298.1074-.1123.0703-.4306.0674-.5439-.0137-.3809-.0699-1.0293-.4502-1.125" fill="url(#radial-gradient)" fill-rule="evenodd"/>
  </g>
  <g>
    <path d="M12.9868,7.8643c.0415-.1329-.0273-.2471-.1435-.25-.0474-.0323-.126-.0547-.2461-.0723l-1.7451-.2402-.3677-.0508-1.7447-.2403c-.1215-.0166-.2084-.0146-.2714.002-.1079-.0332-.2456.0566-.2871.1904l-1.4288,4.5293c-.3852-.4648-1.1269-.5869-1.7675-.3506-.4922.1817-.9693.6768-.8086,1.2168.1723.5782.8325.795,1.3916.7657.4941-.0235,1.2851-.3174,1.3759-1,.0166-.0245.0303-.0528.0401-.0821l.9453-2.9961c.0264.0059.0557.0108.0879.0157l1.7436.2392.3687.0498,1.7441.2403c.0303.0048.0581.0078.0835.0097l-.7876,2.4981c-.3847-.4639-1.1264-.586-1.7675-.3496-.4917.1816-.9688.6767-.8077,1.2168.1709.5781.8321.7949,1.3916.7675.4952-.0254,1.2842-.3213,1.3746-1.0019.018-.0254.0307-.0528.0415-.0821l1.5849-5.0253M12.144,8.9775l-1.7441-.2402-.3696-.0508-1.7432-.2402c-.0332-.0039-.062-.0068-.0903-.0088l.1855-.5869c.0254.0049.0557.0098.0879.0146l1.7442.2403.3686.0498,1.7437.2412c.0297.0029.0581.0068.0839.0088l-.1855.5849c-.0249-.0048-.0513-.0097-.0811-.0127" fill="#d68100" fill-rule="evenodd" stroke="#000" stroke-width="1.5"/>
    <path d="M12.9868,7.8643c.0415-.1329-.0273-.2471-.1435-.25-.0474-.0323-.126-.0547-.2461-.0723l-1.7451-.2402-.3677-.0508-1.7447-.2403c-.1215-.0166-.2084-.0146-.2714.002-.1079-.0332-.2456.0566-.2871.1904l-1.4288,4.5293c-.3852-.4648-1.1269-.5869-1.7675-.3506-.4922.1817-.9693.6768-.8086,1.2168.1723.5782.8325.795,1.3916.7657.4941-.0235,1.2851-.3174,1.3759-1,.0166-.0245.0303-.0528.0401-.0821l.9453-2.9961c.0264.0059.0557.0108.0879.0157l1.7436.2392.3687.0498,1.7441.2403c.0303.0048.0581.0078.0835.0097l-.7876,2.4981c-.3847-.4639-1.1264-.586-1.7675-.3496-.4917.1816-.9688.6767-.8077,1.2168.1709.5781.8321.7949,1.3916.7675.4952-.0254,1.2842-.3213,1.3746-1.0019.018-.0254.0307-.0528.0415-.0821l1.5849-5.0253M12.144,8.9775l-1.7441-.2402-.3696-.0508-1.7432-.2402c-.0332-.0039-.062-.0068-.0903-.0088l.1855-.5869c.0254.0049.0557.0098.0879.0146l1.7442.2403.3686.0498,1.7437.2412c.0297.0029.0581.0068.0839.0088l-.1855.5849c-.0249-.0048-.0513-.0097-.0811-.0127" fill="url(#radial-gradient-2)" fill-rule="evenodd"/>
  </g>
</svg>