<?xml version='1.0' encoding='UTF-8'?>
<svg xmlns="http://www.w3.org/2000/svg" xmlns:xlink="http://www.w3.org/1999/xlink" id="Set_3" data-name="Set 3" width="16" height="16" viewBox="0 0 16 16">
  <defs>
    <linearGradient id="linear-gradient" x1="7.241394" y1="12.241394" x2="3.2118364" y2="8.2118364" gradientUnits="userSpaceOnUse">
      <stop offset="0" stop-color="#fff"/>
      <stop offset="1" stop-color="#d9d9d9"/>
    </linearGradient>
    <linearGradient id="New_Gradient_221" data-name="New Gradient 221" x1="1.127" y1="8.71095" x2="10.7812953" y2="8.71095" gradientUnits="userSpaceOnUse">
      <stop offset="0" stop-color="#999"/>
      <stop offset=".20224" stop-color="#f2f2f2"/>
      <stop offset=".516861" stop-color="#b2b2b2"/>
      <stop offset=".769669" stop-color="#b2b2b2"/>
      <stop offset="1" stop-color="#737373"/>
    </linearGradient>
    <linearGradient id="New_Gradient_220" data-name="New Gradient 220" x1="11.9379981" y1="9.2810097" x2="8.722355" y2="12.4966528" gradientUnits="userSpaceOnUse">
      <stop offset="0" stop-color="#4c4c4c"/>
      <stop offset=".623596" stop-color="#d9d9d9"/>
      <stop offset="1" stop-color="#4c4c4c"/>
    </linearGradient>
    <linearGradient id="New_Gradient_219" data-name="New Gradient 219" x1="14.1813551" y1="10.297659" x2="9.7388469" y2="14.7401672" gradientUnits="userSpaceOnUse">
      <stop offset="0" stop-color="#a70000"/>
      <stop offset=".662918" stop-color="#df4e15"/>
      <stop offset="1" stop-color="#740000"/>
    </linearGradient>
    <linearGradient id="New_Gradient_218" data-name="New Gradient 218" x1="12.6324511" y1="12.8459642" x2="13.6419134" y2="14.4614416" gradientUnits="userSpaceOnUse">
      <stop offset="0" stop-color="#df4e15"/>
      <stop offset="1" stop-color="#c42e00"/>
    </linearGradient>
    <linearGradient id="New_Gradient_217" data-name="New Gradient 217" x1="12.6324511" y1="12.8459642" x2="13.6419134" y2="14.4614416" gradientUnits="userSpaceOnUse">
      <stop offset="0" stop-color="#df4e15"/>
      <stop offset="1" stop-color="#c42e00"/>
    </linearGradient>
    <mask id="mask" x="1" y="1.0908" width="9.7812953" height="10.5371" maskUnits="userSpaceOnUse">
      <path d="M5.9550954,1.3604c2.6659999,0,4.8261999,1.9218,4.8261999,4.291,0,2.3711-2.1601999,4.2929-4.8261999,4.2929S1.127,8.0225,1.127,5.6514C1.127,3.2822,3.2890955,1.3604,5.9550954,1.3604Z" fill="#fff"/>
    </mask>
    <linearGradient id="New_Gradient_210" data-name="New Gradient 210" x1="1.127" y1="5.65235" x2="10.7812953" y2="5.65235" gradientUnits="userSpaceOnUse">
      <stop offset="0" stop-color="#999"/>
      <stop offset=".219101" stop-color="#b2b2b2"/>
      <stop offset=".466293" stop-color="#b2b2b2"/>
      <stop offset=".769669" stop-color="#f2f2f2"/>
      <stop offset="1" stop-color="#737373"/>
    </linearGradient>
    <mask id="mask-1" x="1.1327955" y="2.1084" width="9.6425998" height="9.5195" maskUnits="userSpaceOnUse">
      <path d="M5.9550954,2.5869c2.3983999,0,4.3417999,1.7305,4.3417999,3.8633s-1.9434,3.8613-4.3417999,3.8613c-2.4003999,0-4.3437999-1.7285-4.3437999-3.8613s1.9434-3.8633,4.3437999-3.8633Z" fill="#fff" stroke="#fff" stroke-miterlimit="3.8637" stroke-width=".957"/>
    </mask>
    <linearGradient id="New_Gradient_211" data-name="New Gradient 211" x1="1.6112955" y1="6.4492" x2="10.2968953" y2="6.4492" gradientUnits="userSpaceOnUse">
      <stop offset="0" stop-color="#5587c0"/>
      <stop offset=".20787" stop-color="#97bae0"/>
      <stop offset=".865173" stop-color="#b3e0ff"/>
      <stop offset="1" stop-color="#5587c0"/>
    </linearGradient>
    <radialGradient id="New_Gradient_216" data-name="New Gradient 216" cx="35.7018698" cy="10.6261324" fx="35.7018698" fy="10.6261324" r="7.80318" gradientTransform="translate(-28.4352221 -9.1169) scale(.8903 1.2253)" gradientUnits="userSpaceOnUse">
      <stop offset="0" stop-color="#78dcff"/>
      <stop offset="1" stop-color="#b7e9ff"/>
    </radialGradient>
    <linearGradient id="linear-gradient-2" x1="2.5598274" y1="2.2063469" x2="9.074085" y2="8.7206045" gradientUnits="userSpaceOnUse">
      <stop offset="0" stop-color="gray"/>
      <stop offset=".187809" stop-color="#82868b"/>
      <stop offset=".5233754" stop-color="#8a99aa"/>
      <stop offset=".9651405" stop-color="#95b7db"/>
      <stop offset="1" stop-color="#97bae0"/>
    </linearGradient>
    <linearGradient id="New_Gradient_209" data-name="New Gradient 209" x1="2.6978287" y1="2.3951105" x2="9.2112443" y2="8.9085261" gradientUnits="userSpaceOnUse">
      <stop offset="0" stop-color="gray"/>
      <stop offset="1" stop-color="#fff"/>
    </linearGradient>
    <mask id="mask-2" x="1.6112955" y="3.4616016" width="8.6855998" height="8.1662984" maskUnits="userSpaceOnUse">
      <path d="M4.5233954,3.4854c.8184-.1368,1.5352.33,1.5977,1.0449.0644.7148-.5469,1.4082-1.3672,1.5468-.8164.1368-1.5332-.33-1.5976-1.0449-.0625-.7168.5488-1.4082,1.3671-1.5468Z" fill="#fff"/>
    </mask>
    <mask id="mask-3" x=".416" y="1.5967" width="9.8515953" height="12.1601" maskUnits="userSpaceOnUse">
      <path d="M5.8163954,1.5967C3.2792955,1.5967,1.3671955,3.417,1.3671955,5.4639c0,2.0468,1.9121,3.8672,4.4491999,3.8672,2.5390999,0,4.4511999-1.8204,4.4511999-3.8672,0-2.0469-1.9121-3.8672-4.4511999-3.8672Z" fill="#fff"/>
    </mask>
    <linearGradient id="linear-gradient-3" x1="6.6574145" y1="11.9982644" x2="2.6278137" y2="7.9686637" gradientUnits="userSpaceOnUse"><stop offset="0" stop-color="#fff"/><stop offset="1" stop-color="#d9d9d9"/></linearGradient>
  </defs>
  <g>
    <rect x="2.333" y="7.334" width="5.333" height="5.332" fill="#9c9c9c" stroke="#858585" stroke-width="2"/>
    <rect x="2.333" y="7.334" width="5.333" height="5.332" fill="#fff"/>
    <rect x="3" y="8" width="4.666" height="4.666" fill="url(#linear-gradient)"/>
    <rect x="1" y="6" width="1.333" height="1.334"/>
    <rect x="7.666" y="6" width="1.334" height="1.334"/>
    <rect x="7.666" y="12.666" width="1.334" height="1.334"/>
    <rect x="1" y="12.666" width="1.333" height="1.334"/>
  </g>
  <g>
    <g>
      <path d="M14.2304952,12.7119c-.5996-.5996-1.2442-1.2441-2.1386999-2.1387-.375-.375-.8105-.4648-1.2129-.3828l-.9726-.9726c.5507047-.6973.875-1.543.875-2.459v-.3887h-.0722953c.0448953-.2324.0722953-.4726.0722953-.7187,0-.3809-.0625-.7481-.1661-1.1016-.1484-.5234-.3964-1.0078-.7285-1.4297-.8672-1.2383-2.3944999-2.0293-4.0702999-2.0293C3.2362955,1.0908,1,2.958,1,5.4639c0,.3437.0468955.6757.127.9941v.3008c0,2.3711,2.1620955,4.293,4.8280954,4.293.9609046,0,1.8554-.252,2.6073999-.6856l.002.002,1.0664,1.0664c-.0821.4043.0078.8418.3847,1.2168.8946.8945,1.5391,1.539,2.1386999,2.1367.877.8789,2.9530999-1.2012,2.0761999-2.0762Z" stroke="#000" stroke-linecap="round" stroke-linejoin="round" stroke-width="2"/>
      <g>
        <path d="M1.127,6.3701v.3887c0,2.3711,2.1620955,4.293,4.8280954,4.293s4.8261999-1.9219,4.8261999-4.293v-.3887H1.127Z" fill="url(#New_Gradient_221)" fill-rule="evenodd"/>
        <path d="M9.8104953,9.1221l1.9668,1.9668c1.2559,1.2578.0118,2.5039-1.248,1.2461l-1.9648-1.9668c-.8321-.8301.414-2.0762,1.246-1.2461Z" fill="url(#New_Gradient_220)"/>
        <g>
          <path d="M12.0917952,10.5732c.8945.8946,1.5391,1.5391,2.1386999,2.1387.8769.875-1.1992,2.9551-2.0761999,2.0762-.5996-.5977-1.2441-1.2422-2.1386999-2.1367-1.3105-1.3106.7657-3.3887,2.0761999-2.0782Z" fill="url(#New_Gradient_219)"/>
          <path d="M10.1542953,10.9814c.7578.7579,1.4648,1.4668,1.9960999,1.9981" fill="none" stroke="#ff7845" stroke-linecap="round" stroke-miterlimit="3.8637" stroke-width="1.4356"/>
          <path d="M13.4198952,12.5186c.7129-.0899,1.1289.3261.918.916-.2128952.5918-.8652,1.2422-1.4551,1.4531-.5917952.2109-1.0057952-.2031-.918-.918.0899-.7109.7422047-1.3633,1.4551-1.4511Z" fill="url(#New_Gradient_218)" stroke="#a70000" stroke-miterlimit="3.8637" stroke-width=".4785"/>
          <path d="M13.4198952,12.5186c.7129-.0899,1.1289.3261.918.916-.2128952.5918-.8652,1.2422-1.4551,1.4531-.5917952.2109-1.0057952-.2031-.918-.918.0899-.7109.7422047-1.3633,1.4551-1.4511Z" fill="url(#New_Gradient_217)"/>
        </g>
        <g mask="url(#mask)">
          <g>
            <path d="M5.9550954,1.3604c2.6659999,0,4.8261999,1.9218,4.8261999,4.291,0,2.3711-2.1601999,4.2929-4.8261999,4.2929S1.127,8.0225,1.127,5.6514C1.127,3.2822,3.2890955,1.3604,5.9550954,1.3604Z" fill="url(#New_Gradient_210)"/>
            <g mask="url(#mask-1)">
              <g>
                <path d="M5.9550954,2.5869c2.3983999,0,4.3417999,1.7305,4.3417999,3.8633s-1.9434,3.8613-4.3417999,3.8613c-2.4003999,0-4.3437999-1.7285-4.3437999-3.8613s1.9434-3.8633,4.3437999-3.8633Z" fill="url(#New_Gradient_211)"/>
                <path d="M5.9550954,3.9033c2.3983999,0,4.3417999,1.7285,4.3417999,3.8633,0,2.1309-1.9434,3.8613-4.3417999,3.8613-2.4003999,0-4.3437999-1.7304-4.3437999-3.8613,0-2.1348,1.9434-3.8633,4.3437999-3.8633Z" fill="url(#New_Gradient_216)"/>
                <path d="M5.9550954,2.5869c2.3983999,0,4.3417999,1.7305,4.3417999,3.8633s-1.9434,3.8613-4.3417999,3.8613c-2.4003999,0-4.3437999-1.7285-4.3437999-3.8613s1.9434-3.8633,4.3437999-3.8633Z" fill="none" stroke="#69c" stroke-miterlimit="3.8637" stroke-width=".957"/>
              </g>
            </g>
            <path d="M5.8163954,1.0908c2.5800999,0,4.8183999,1.8672,4.8183999,4.3731,0,2.5039-2.2382999,4.373-4.8183999,4.373S1,7.9678,1,5.4639C1,2.958,3.2362955,1.0908,5.8163954,1.0908ZM5.8163954,1.5967C3.2792955,1.5967,1.3671955,3.417,1.3671955,5.4639c0,2.0468,1.9121,3.8672,4.4491999,3.8672,2.5390999,0,4.4511999-1.8204,4.4511999-3.8672,0-2.0469-1.9121-3.8672-4.4511999-3.8672Z" fill="url(#linear-gradient-2)"/>
          </g>
        </g>
        <path d="M5.9550954,1.2803c2.5800999,0,4.8163999,1.8672,4.8163999,4.3711s-2.2362999,4.373-4.8163999,4.373c-2.5800954,0-4.8183999-1.8691-4.8183999-4.373S3.375,1.2803,5.9550954,1.2803ZM5.9550954,1.7842C3.416,1.7842,1.5038955,3.6045,1.5038955,5.6514c0,2.0488,1.9121045,3.8691,4.4511999,3.8691,2.5370999,0,4.4491999-1.8203,4.4491999-3.8691,0-2.0469-1.9121-3.8672-4.4491999-3.8672Z" fill="url(#New_Gradient_209)"/>
        <g mask="url(#mask-2)">
          <g>
            <path d="M4.5233954,3.4854c.8184-.1368,1.5352.33,1.5977,1.0449.0644.7148-.5469,1.4082-1.3672,1.5468-.8164.1368-1.5332-.33-1.5976-1.0449-.0625-.7168.5488-1.4082,1.3671-1.5468Z" fill="#b3e0ff"/>
            <path d="M5.9550954,3.9033c2.3983999,0,4.3417999,1.7285,4.3417999,3.8633,0,2.1309-1.9434,3.8613-4.3417999,3.8613-2.4003999,0-4.3437999-1.7304-4.3437999-3.8613,0-2.1348,1.9434-3.8633,4.3437999-3.8633Z" fill="#fff"/>
          </g>
        </g>
      </g>
    </g>
    <g mask="url(#mask-3)">
      <g opacity=".25">
        <g>
          <rect x="1.75" y="7.0908" width="5.332" height="5.3321" fill="#9c9c9c" stroke="#858585" stroke-width="2"/>
          <rect x="1.75" y="7.0908" width="5.332" height="5.3321" fill="#fff"/>
          <rect x="2.416" y="7.7568" width="4.666" height="4.6661" fill="url(#linear-gradient-3)"/>
          <rect x=".416" y="5.7568" width="1.334" height="1.334"/>
          <rect x="7.082" y="5.7568" width="1.334" height="1.334"/>
          <rect x="7.082" y="12.4229" width="1.334" height="1.3339"/>
          <rect x=".416" y="12.4229" width="1.334" height="1.3339"/>
        </g>
      </g>
    </g>
  </g>
</svg>