<?xml version='1.0' encoding='UTF-8'?>
<svg xmlns="http://www.w3.org/2000/svg" xmlns:xlink="http://www.w3.org/1999/xlink" id="Layer_6" data-name="Layer 6" width="16" height="16" viewBox="0 0 16 16">
  <defs>
    <mask id="mask" x="1" y="1.3306" width="12.5654" height="14.622" maskUnits="userSpaceOnUse">
      <path d="M9.501,14.9521l-7.4986.0005-.0024-12.622,10.5654.0009-.0049,9.8208c0,1.334-1.6367,2.7998-3.0595,2.7998Z" fill="#fff" fill-rule="evenodd" stroke="#fff" stroke-linecap="round" stroke-linejoin="round" stroke-width="2"/>
    </mask>
    <linearGradient id="New_Gradient_123" data-name="New Gradient 123" x1="3.7817516" y1="1.4615817" x2="10.7630464" y2="15.7753571" gradientUnits="userSpaceOnUse">
      <stop offset="0" stop-color="#e5e5e5"/>
      <stop offset="1" stop-color="#fff"/>
    </linearGradient>
    <radialGradient id="New_Gradient_10" data-name="New Gradient 10" cx="-19.7654417" cy="29.6357195" fx="-19.7654417" fy="29.6357195" r="3.4756869" gradientTransform="translate(29.3958 -16.1932114) scale(1.0313 .9421)" gradientUnits="userSpaceOnUse">
      <stop offset="0" stop-color="#fff"/>
      <stop offset="1" stop-color="#ccc"/>
    </radialGradient>
    <mask id="mask-1" x="2" y="2.3306" width="10.583" height="12.6694" maskUnits="userSpaceOnUse">
      <path d="M9.501,14.9521l-7.4986.0005-.0024-12.622,10.5654.0009-.0049,9.8208c0,1.334-1.6367,2.7998-3.0595,2.7998Z" fill="#fff" fill-rule="evenodd"/>
    </mask>
    <linearGradient id="New_Gradient_111" data-name="New Gradient 111" x1="3.7817516" y1="1.4615817" x2="10.7630464" y2="15.7753571" gradientUnits="userSpaceOnUse">
      <stop offset="0" stop-color="#e5e5e5"/>
      <stop offset=".286514" stop-color="#f2f2f2"/>
      <stop offset=".646072" stop-color="#fff"/>
      <stop offset="1" stop-color="#fff"/>
    </linearGradient>
    <radialGradient id="New_Gradient_121" data-name="New Gradient 121" cx="-19.7654417" cy="29.6357195" fx="-19.7654417" fy="29.6357195" r="3.4756869" gradientTransform="translate(29.3958 -16.1932114) scale(1.0313 .9421)" gradientUnits="userSpaceOnUse">
      <stop offset="0" stop-color="#e5e5e5"/>
      <stop offset=".331467" stop-color="#e5e5e5"/>
      <stop offset="1" stop-color="#999"/>
    </radialGradient>
    <linearGradient id="linear-gradient" x1="230.5196209" y1="-62.3413016" x2="233.6743884" y2="-62.3413016" gradientTransform="translate(-29.0001084 -144.268635) rotate(90.0415823) scale(.6515471) skewX(.078627)" gradientUnits="userSpaceOnUse">
      <stop offset="0" stop-color="#ffdea0"/>
      <stop offset=".1547921" stop-color="#f0cf91"/>
      <stop offset=".4521036" stop-color="#c9aa6d"/>
      <stop offset=".8582073" stop-color="#8a6e32"/>
      <stop offset="1" stop-color="#73581c"/>
    </linearGradient>
    <radialGradient id="radial-gradient" cx="432.9890551" cy="-78.7889515" fx="432.9890551" fy="-78.7889515" r="16.5297218" gradientTransform="translate(-179.1154 -41.4628) rotate(28.0647822) scale(.4374353 .624906) skewX(.1037942)" gradientUnits="userSpaceOnUse">
      <stop offset="0" stop-color="#ffdea0"/>
      <stop offset=".0080435" stop-color="#fedc9e"/>
      <stop offset=".3050006" stop-color="#edb55a"/>
      <stop offset=".5538701" stop-color="#e09929"/>
      <stop offset=".7422677" stop-color="#d8870b"/>
      <stop offset=".848315" stop-color="#d68100"/>
    </radialGradient>
    <mask id="mask-2" x="7.5767" y="9.5142" width="2.9917" height="3.1045" maskUnits="userSpaceOnUse">
      <polygon points="10.5684 10.1782 10.1567 10.6123 9.9463 9.8457 9.1943 10.0986 9.1943 10.0986 9.3228 9.5142 8.9111 9.9478 8.6064 12.3662 10.439 10.7632 10.5684 10.1782" fill="#fff"/>
    </mask>
    <radialGradient id="radial-gradient-2" cx="9.2966316" cy="9.994762" fx="9.2966316" fy="9.994762" r="2.2222521" gradientUnits="userSpaceOnUse">
      <stop offset="0" stop-color="#ffdea0"/>
      <stop offset=".1216866" stop-color="#f0d091"/>
      <stop offset=".354407" stop-color="#cbad6a"/>
      <stop offset=".41573" stop-color="#c1a35f"/>
    </radialGradient>
    <radialGradient id="radial-gradient-3" cx="-936.4378854" cy="-112.7571378" fx="-936.4378854" fy="-112.7571378" r="5.5157557" gradientTransform="translate(-328.2912 -112.4518) rotate(-151.9283976) scale(.3810235 -.4373765) skewX(-.088324)" gradientUnits="userSpaceOnUse">
      <stop offset="0" stop-color="#999"/>
      <stop offset=".0504786" stop-color="#898989"/>
      <stop offset=".2007028" stop-color="#5f5f5f"/>
      <stop offset=".3543074" stop-color="#3d3d3d"/>
      <stop offset=".5095904" stop-color="#222"/>
      <stop offset=".6672868" stop-color="#0f0f0f"/>
      <stop offset=".8287757" stop-color="#030303"/>
      <stop offset="1" stop-color="#000"/>
    </radialGradient>
    <radialGradient id="radial-gradient-4" cx="74.8792515" cy="-112.8183905" fx="74.8792515" fy="-112.8183905" r="5.5136026" gradientTransform="translate(-82.1925 18.8343) rotate(28.066432) scale(1.0019235 .4373765) skewX(.0313319)" gradientUnits="userSpaceOnUse"><stop offset="0" stop-color="#999"/><stop offset=".0504786" stop-color="#898989"/><stop offset=".2007028" stop-color="#5f5f5f"/><stop offset=".3543074" stop-color="#3d3d3d"/><stop offset=".5095904" stop-color="#222"/><stop offset=".6672868" stop-color="#0f0f0f"/><stop offset=".8287757" stop-color="#030303"/><stop offset="1" stop-color="#000"/></radialGradient>
    <linearGradient id="White_Black" data-name="White, Black" x1="231.7324628" y1="-68.4290409" x2="233.9472371" y2="-65.3283366" gradientTransform="translate(-140.8834 -28.432423) rotate(28.0714524) scale(.6515471) skewX(.078627)" gradientUnits="userSpaceOnUse">
      <stop offset="0" stop-color="#fff"/>
      <stop offset="1" stop-color="#000"/>
    </linearGradient>
    <linearGradient id="linear-gradient-2" x1="203.17962" y1="-68.3119698" x2="205.8398907" y2="-68.3119698" gradientTransform="translate(-132.7936 -24.9488188) rotate(28.0637696) scale(.6959235 .6515237) skewX(.0664206)" gradientUnits="userSpaceOnUse">
      <stop offset="0" stop-color="#ccc"/>
      <stop offset=".0646036" stop-color="#cacaca"/>
      <stop offset=".0891761" stop-color="#c3c3c3"/>
      <stop offset=".1069277" stop-color="#b7b7b7"/>
      <stop offset=".1212965" stop-color="#a6a6a6"/>
      <stop offset=".129213" stop-color="#999"/>
      <stop offset=".1363661" stop-color="#a2a2a2"/>
      <stop offset=".153957" stop-color="#b5b5b5"/>
      <stop offset=".1748508" stop-color="#c2c2c2"/>
      <stop offset=".2020002" stop-color="#c9c9c9"/>
      <stop offset=".258427" stop-color="#ccc"/>
      <stop offset=".3265975" stop-color="#cacaca"/>
      <stop offset=".3539575" stop-color="#c2c2c2"/>
      <stop offset=".3739927" stop-color="#b6b6b6"/>
      <stop offset=".3903486" stop-color="#a5a5a5"/>
      <stop offset=".398876" stop-color="#999"/>
      <stop offset=".4052794" stop-color="#9f9f9f"/>
      <stop offset=".4282017" stop-color="#b3b3b3"/>
      <stop offset=".4546022" stop-color="#c1c1c1"/>
      <stop offset=".4872499" stop-color="#c9c9c9"/>
      <stop offset=".544944" stop-color="#ccc"/>
      <stop offset=".592446" stop-color="#c9c9c9"/>
      <stop offset=".6267399" stop-color="#bfbfbf"/>
      <stop offset=".6567881" stop-color="#b0b0b0"/>
      <stop offset=".6843986" stop-color="#999"/>
      <stop offset=".685393" stop-color="#999"/>
      <stop offset=".7146848" stop-color="#adadad"/>
      <stop offset=".7510613" stop-color="#bebebe"/>
      <stop offset=".7902871" stop-color="#c8c8c8"/>
      <stop offset=".837079" stop-color="#ccc"/>
      <stop offset=".8808857" stop-color="#c7c7c7"/>
      <stop offset=".9290745" stop-color="#bababa"/>
      <stop offset=".9791801" stop-color="#a4a4a4"/>
      <stop offset="1" stop-color="#999"/>
    </linearGradient>
    <linearGradient id="White_Black-2" data-name="White, Black" x1="231.7320793" y1="-70.2213669" x2="233.947437" y2="-67.1198458" gradientTransform="translate(-140.8834 -28.432423) rotate(28.0714524) scale(.6515471) skewX(.078627)" gradientUnits="userSpaceOnUse"><stop offset="0" stop-color="#fff"/><stop offset="1" stop-color="#000"/></linearGradient>
    <radialGradient id="radial-gradient-5" cx="231.4591262" cy="-71.4865378" fx="231.4591262" fy="-71.4865378" r="3.5394107" gradientTransform="translate(-140.8834 -28.432423) rotate(28.0714524) scale(.6515471) skewX(.078627)" gradientUnits="userSpaceOnUse">
      <stop offset="0" stop-color="#ff7845"/>
      <stop offset=".0609421" stop-color="#f87241"/>
      <stop offset=".1468911" stop-color="#e66238"/>
      <stop offset=".2476895" stop-color="#c74829"/>
      <stop offset=".3588101" stop-color="#9e2414"/>
      <stop offset=".455056" stop-color="#740000"/>
    </radialGradient>
    <linearGradient id="linear-gradient-3" x1="4.6424617" y1="4.0008825" x2="7.7185563" y2="8.1023416" gradientUnits="userSpaceOnUse">
      <stop offset="0" stop-color="#c9ffc9"/>
      <stop offset=".55618" stop-color="#00cd00"/>
      <stop offset="1" stop-color="#23a11f"/>
    </linearGradient>
  </defs>
  <g>
    <g>
      <g mask="url(#mask)">
        <g>
          <path d="M9.501,14.9521l-7.4986.0005-.0024-12.622,10.5654.0009-.0049,9.8208c0,1.334-1.6367,2.7998-3.0595,2.7998Z" fill="url(#New_Gradient_123)" fill-rule="evenodd"/>
          <path d="M9.0117,14.999s1.752-.0615,1.7529-1.8354c1.8023,0,1.8184-1.437,1.8184-1.437l-.0015,3.2734-3.5698-.001Z" fill="url(#New_Gradient_10)" fill-rule="evenodd"/>
          <path d="M9.501,14.9521l-7.4986.0005-.0024-12.622,10.5654.0009-.0049,9.8208c0,1.334-1.6367,2.7998-3.0595,2.7998Z" fill="none" fill-rule="evenodd" stroke="#000" stroke-linecap="round" stroke-linejoin="round" stroke-width="2"/>
        </g>
      </g>
      <g mask="url(#mask-1)">
        <g>
          <path d="M9.501,14.9521l-7.4986.0005-.0024-12.622,10.5654.0009-.0049,9.8208c0,1.334-1.6367,2.7998-3.0595,2.7998Z" fill="url(#New_Gradient_111)" fill-rule="evenodd"/>
          <path d="M9.0117,14.999s1.2178-.4463,1.2188-2.2221c1.8022-.001,2.3525-1.0503,2.3525-1.0503l-.0015,3.2734-3.5698-.001Z" fill="url(#New_Gradient_121)" fill-rule="evenodd"/>
        </g>
      </g>
    </g>
    <g>
      <line x1="3.3926" y1="6.8618" x2="5.7656" y2="6.8618" fill="none" stroke="#999" stroke-linecap="round" stroke-miterlimit="3.8637" stroke-width=".7125"/>
      <line x1="8.8711" y1="4.8716" x2="11.2437" y2="4.8716" fill="none" stroke="#999" stroke-linecap="round" stroke-miterlimit="3.8637" stroke-width=".7125"/>
      <line x1="7.1348" y1="6.8618" x2="11.2437" y2="6.8618" fill="none" stroke="#999" stroke-linecap="round" stroke-miterlimit="3.8637" stroke-width=".7125"/>
      <line x1="3.293" y1="12.834" x2="9.1895" y2="12.834" fill="none" stroke="#999" stroke-linecap="round" stroke-miterlimit="3.8637" stroke-width=".7125"/>
      <line x1="3.3926" y1="8.8525" x2="5.3086" y2="8.8525" fill="none" stroke="#999" stroke-linecap="round" stroke-miterlimit="3.8637" stroke-width=".7125"/>
      <line x1="6.4355" y1="8.8525" x2="8.3521" y2="8.8525" fill="none" stroke="#999" stroke-linecap="round" stroke-miterlimit="3.8637" stroke-width=".7125"/>
      <line x1="9.1133" y1="8.8525" x2="11.2437" y2="8.8525" fill="none" stroke="#999" stroke-linecap="round" stroke-miterlimit="3.8637" stroke-width=".7125"/>
      <line x1="3.3926" y1="4.8716" x2="7.1348" y2="4.8716" fill="none" stroke="#999" stroke-linecap="round" stroke-miterlimit="3.8637" stroke-width=".7125"/>
      <line x1="3.3926" y1="10.8433" x2="6.5264" y2="10.8433" fill="none" stroke="#999" stroke-linecap="round" stroke-miterlimit="3.8637" stroke-width=".7125"/>
      <line x1="7.4009" y1="10.8433" x2="11.396" y2="10.8433" fill="none" stroke="#999" stroke-linecap="round" stroke-miterlimit="3.8637" stroke-width=".7125"/>
    </g>
  </g>
  <g>
    <path d="M14.2676,3.584l.1802-.3379c.1547-.0786.2944-.1948.4033-.3433.0434-.0625.06-.1411.042-.2153-.0127-.0571-.0435-.1064-.0879-.1436.0176-.0532.0298-.1088.0356-.164l.0581-.1084c.2237-.4229.0635-.9468-.3589-1.1719-.4213-.2256-.9453-.0644-1.1699.3574l-.0581.1084c-.042.0352-.0806.0762-.1167.1211-.0542-.0166-.1128-.0141-.167.0064-.0718.0273-.1279.0844-.1538.1557-.0635.1734-.0815.3526-.06.5264l-.1802.3398c-.0503-.0131-.105-.0102-.1543.0093-.0708.0269-.1275.084-.1538.1558-.0752.2051-.0865.4194-.043.6211l-3.4145,6.4248.0424.022-.3047,2.4184,1.8326-1.603.0395-.1758,3.3325-6.271c.1919-.0767.3633-.206.4912-.3828.0455-.0615.0611-.1406.043-.2158-.0122-.0513-.0405-.0972-.0776-.1338Z" stroke="#000" stroke-linecap="round" stroke-linejoin="round" stroke-width="2"/>
    <rect x="7.5142578" y="5.9407321" width="7.9856845" height="1.7325358" transform="translate(.0909903 13.7655227) rotate(-61.9701299)" fill="url(#linear-gradient)"/>
    <polygon points="10.1138 10.5894 9.1514 10.0762 12.9004 3.0244 13.8628 3.5376 10.1138 10.5894" fill="url(#radial-gradient)"/>
    <g mask="url(#mask-2)">
      <g>
        <polygon points="10.5684 10.1782 10.1567 10.6123 9.9463 9.8457 9.1943 10.0986 9.1943 10.0986 9.3228 9.5142 8.9111 9.9478 8.6064 12.3662 10.439 10.7632 10.5684 10.1782" fill="url(#radial-gradient-2)"/>
        <polygon points="8.5337 12.2856 8.3213 11.8794 8.7358 11.0972 9.2236 12.0264 8.9639 12.5142 8.5337 12.2856" fill="url(#radial-gradient-3)"/>
        <polygon points="8.707 12.3784 9.707 12.6187 10.123 11.8369 7.8354 11.2871 7.5767 11.7749 8.707 12.3784" fill="url(#radial-gradient-4)"/>
      </g>
    </g>
    <path d="M14.3452,3.7178c-.0171-.0742-.0659-.1377-.1338-.1743l-1.5122-.8062c-.0674-.0361-.1479-.0405-.2192-.0132-.0708.0269-.1275.084-.1538.1558-.1934.5278.0342,1.1245.5298,1.3887.4961.2646,1.1176.1206,1.4462-.335.0455-.0615.0611-.1406.043-.2158Z" fill="url(#White_Black)"/>
    <path d="M14.3408,1.4746c-.4512-.2407-.997-.0933-1.2226.3291l-.4981.9365c-.2241.4229-.04.96.4102,1.2007.4511.2412.998.0928,1.2226-.3296l.4986-.9365c.2236-.4228.0405-.96-.4107-1.2002Z" fill="url(#linear-gradient-2)"/>
    <path d="M14.8931,2.6875c-.0171-.0752-.066-.1387-.1328-.1743l-1.5127-.8062c-.0679-.0371-.148-.042-.2193-.0141-.0718.0273-.1279.0844-.1538.1557-.1938.5279.0337,1.125.5298,1.3897.4946.2637,1.1167.1201,1.4468-.3355.0434-.0625.06-.1411.042-.2153Z" fill="url(#White_Black-2)"/>
    <path d="M14.54,1.0996c-.4213-.2256-.9453-.0644-1.1699.3574l-.1504.2808c-.2236.4219-.0634.9477.3584,1.1719.4224.2256.9458.0659,1.1704-.3565l.1504-.2817c.2237-.4229.0635-.9468-.3589-1.1719Z" fill="url(#radial-gradient-5)"/>
    <path d="M12.2222,6.1699c-.084.1592-.2852.2193-.4473.1323h0c-.1616-.0859-.2246-.2856-.1396-.4458l.5644-1.0625c.085-.1591.2857-.2192.4473-.1323h0c.1626.0864.2256.2862.1401.4463l-.5649,1.062Z"/>
    <path d="M12.2222,5.5386l.1782.0947-.0166.0308c-.0371.0688-.0733.1289-.1099.1787-.0337.0459-.0708.0854-.1118.1186-.0913.0762-.168.0982-.2285.0645-.0615-.0313-.0874-.1055-.0811-.2232.0079-.1172.0464-.2407.1167-.3725.0713-.1343.1538-.2373.2466-.3081.0947-.0708.1724-.0899.2349-.0557.0332.0171.0571.0488.0708.0942.0117.0455.0132.108.0049.189l-.0967.0713c.0181-.1206.0019-.1943-.0488-.2207-.0455-.0244-.1011-.0117-.1685.04-.0649.0498-.125.1236-.1782.2237-.0542.103-.083.1972-.0845.2827,0,.0776.0191.1279.0562.147.0322.017.0727.0102.122-.022.0503-.0322.0943-.0811.1309-.1431l-.1074-.0571.0708-.1328Z" fill="#fff"/>
  </g>
  <g>
    <polygon points="4 5.8135 5.8135 5.8135 5.8135 4 7.0977 4 7.0977 5.8135 8.9106 5.8135 8.9106 7.0225 7.0977 7.0225 7.0977 8.8359 5.8135 8.8359 5.8135 7.0225 4 7.0225 4 5.8135" fill="#fff" stroke="#191919" stroke-linecap="round" stroke-linejoin="round" stroke-width="2"/>
    <polygon points="4 5.8135 5.8135 5.8135 5.8135 4 7.0977 4 7.0977 5.8135 8.9106 5.8135 8.9106 7.0225 7.0977 7.0225 7.0977 8.8359 5.8135 8.8359 5.8135 7.0225 4 7.0225 4 5.8135" fill="url(#linear-gradient-3)"/>
  </g>
</svg>