<?xml version="1.0" encoding="UTF-8"?>
<svg id="Set_3" data-name="Set 3" xmlns="http://www.w3.org/2000/svg" width="16" height="16" xmlns:xlink="http://www.w3.org/1999/xlink" viewBox="0 0 16 16">
  <defs>
    <linearGradient id="New_Gradient_170" data-name="New Gradient 170" x1="1.1265" y1="8.71095" x2="10.7813" y2="8.71095" gradientUnits="userSpaceOnUse">
      <stop offset="0" stop-color="#999"/>
      <stop offset=".20224" stop-color="#f2f2f2"/>
      <stop offset=".516861" stop-color="#b2b2b2"/>
      <stop offset=".769669" stop-color="#b2b2b2"/>
      <stop offset="1" stop-color="#737373"/>
    </linearGradient>
    <linearGradient id="New_Gradient_163" data-name="New Gradient 163" x1="11.9376394" y1="9.2814356" x2="8.7232856" y2="12.4957894" gradientUnits="userSpaceOnUse">
      <stop offset="0" stop-color="#4c4c4c"/>
      <stop offset=".623596" stop-color="#d9d9d9"/>
      <stop offset="1" stop-color="#4c4c4c"/>
    </linearGradient>
    <linearGradient id="New_Gradient_162" data-name="New Gradient 162" x1="14.1820476" y1="10.2971841" x2="9.7380656" y2="14.741166" gradientUnits="userSpaceOnUse">
      <stop offset="0" stop-color="#a70000"/>
      <stop offset=".662918" stop-color="#df4e15"/>
      <stop offset="1" stop-color="#740000"/>
    </linearGradient>
    <linearGradient id="New_Gradient_161" data-name="New Gradient 161" x1="12.6325509" y1="12.8459098" x2="13.6420682" y2="14.4614752" gradientUnits="userSpaceOnUse">
      <stop offset="0" stop-color="#df4e15"/>
      <stop offset="1" stop-color="#c42e00"/>
    </linearGradient>
    <linearGradient id="New_Gradient_157" data-name="New Gradient 157" x1="12.6325509" y1="12.8459098" x2="13.6420682" y2="14.4614752" gradientUnits="userSpaceOnUse">
      <stop offset="0" stop-color="#df4e15"/>
      <stop offset="1" stop-color="#c42e00"/>
    </linearGradient>
    <mask id="mask" x="1" y="1.0908" width="9.7813" height="10.5371" maskUnits="userSpaceOnUse">
      <path d="M5.9551,1.3604c2.6655,0,4.8262,1.9218,4.8262,4.291,0,2.3711-2.1607,4.2929-4.8262,4.2929-2.6665,0-4.8277-1.9218-4.8277-4.2929C1.1274,3.2822,3.2886,1.3604,5.9551,1.3604Z" fill="#fff"/>
    </mask>
    <linearGradient id="New_Gradient_154" data-name="New Gradient 154" x1="1.1274" y1="5.65235" x2="10.7813" y2="5.65235" gradientUnits="userSpaceOnUse">
      <stop offset="0" stop-color="#999"/>
      <stop offset=".219101" stop-color="#b2b2b2"/>
      <stop offset=".466293" stop-color="#b2b2b2"/>
      <stop offset=".769669" stop-color="#f2f2f2"/>
      <stop offset="1" stop-color="#737373"/>
    </linearGradient>
    <mask id="mask-1" x="1.1323" y="2.1084" width="9.6441" height="9.5195" maskUnits="userSpaceOnUse">
      <path d="M5.9551,2.5869c2.3979,0,4.3428,1.7305,4.3428,3.8633s-1.9449,3.8613-4.3428,3.8613c-2.4004,0-4.3443-1.7285-4.3443-3.8613s1.9439-3.8633,4.3443-3.8633Z" fill="#fff" stroke="#fff" stroke-miterlimit="3.8637" stroke-width=".957"/>
    </mask>
    <linearGradient id="New_Gradient_155" data-name="New Gradient 155" x1="1.6108" y1="6.4492" x2="10.2979" y2="6.4492" gradientUnits="userSpaceOnUse">
      <stop offset="0" stop-color="#5587c0"/>
      <stop offset=".20787" stop-color="#97bae0"/>
      <stop offset=".865173" stop-color="#b3e0ff"/>
      <stop offset="1" stop-color="#5587c0"/>
    </linearGradient>
    <radialGradient id="New_Gradient_156" data-name="New Gradient 156" cx="19.9298883" cy="10.6261324" fx="19.9298883" fy="10.6261324" r="7.8039955" gradientTransform="translate(-14.3936221 -9.1169) scale(.8903 1.2253)" gradientUnits="userSpaceOnUse">
      <stop offset="0" stop-color="#78dcff"/>
      <stop offset="1" stop-color="#b7e9ff"/>
    </radialGradient>
    <linearGradient id="linear-gradient" x1="2.5602705" y1="2.2063462" x2="9.0745295" y2="8.7206052" gradientUnits="userSpaceOnUse">
      <stop offset="0" stop-color="gray"/>
      <stop offset=".187809" stop-color="#82868b"/>
      <stop offset=".5233754" stop-color="#8a99aa"/>
      <stop offset=".9651405" stop-color="#95b7db"/>
      <stop offset="1" stop-color="#97bae0"/>
    </linearGradient>
    <linearGradient id="New_Gradient_153" data-name="New Gradient 153" x1="2.6974893" y1="2.3951102" x2="9.2109056" y2="8.9085265" gradientUnits="userSpaceOnUse">
      <stop offset="0" stop-color="gray"/>
      <stop offset="1" stop-color="#fff"/>
    </linearGradient>
    <mask id="mask-2" x="1.6108" y="3.4616016" width="8.6871" height="8.1662984" maskUnits="userSpaceOnUse">
      <path d="M4.5239,3.4854c.8174-.1368,1.5337.33,1.5977,1.0449.0639.7148-.5479,1.4082-1.3667,1.5468-.8179.1368-1.5332-.33-1.5977-1.0449-.063-.7168.5474-1.4082,1.3667-1.5468Z" fill="#fff"/>
    </mask>
  </defs>
  <g>
    <path d="M14.2305,12.7119c-.5987-.5996-1.2442-1.2441-2.1387-2.1387-.374-.375-.8105-.4648-1.2139-.3828l-.9707-.9726c.5493-.6973.8741-1.543.8741-2.459v-.3887h-.0723c.0439-.2324.0723-.4726.0723-.7187,0-.3809-.0616-.7481-.1666-1.1016-.1479-.5234-.3959-1.0078-.727-1.4297-.8682-1.2383-2.3945-2.0293-4.0703-2.0293C3.2373,1.0908,1,2.958,1,5.4639c0,.3437.0464.6757.127.9941,0,.0977.0004.1914.0004.3008,0,2.3711,2.1612,4.293,4.8277,4.293.9614,0,1.8559-.252,2.6084-.6856l.0005.002,1.0678,1.0664c-.083.4043.0078.8418.3828,1.2168.8951.8945,1.5411,1.539,2.1402,2.1367.8774.8789,2.9521-1.2012,2.0757-2.0762Z" stroke="#000" stroke-linecap="round" stroke-linejoin="round" stroke-width="2"/>
    <g>
      <path d="M1.1265,6.3701c.0005.127.0009.2481.0009.3887,0,2.3711,2.1612,4.293,4.8277,4.293,2.6655,0,4.8262-1.9219,4.8262-4.293v-.3887H1.1265Z" fill="url(#New_Gradient_170)" fill-rule="evenodd"/>
      <path d="M9.8105,9.1221l1.9668,1.9668c1.2559,1.2578.0108,2.5039-1.247,1.2461l-1.9658-1.9668c-.8316-.8301.4145-2.0762,1.246-1.2461Z" fill="url(#New_Gradient_163)"/>
      <g>
        <path d="M12.0918,10.5732c.8945.8946,1.54,1.5391,2.1387,2.1387.8764.875-1.1983,2.9551-2.0757,2.0762-.5991-.5977-1.2451-1.2422-2.1402-2.1367-1.3095-1.3106.7676-3.3887,2.0772-2.0782Z" fill="url(#New_Gradient_162)"/>
        <path d="M10.1543,10.9814c.7573.7579,1.4648,1.4668,1.9971,1.9981" fill="none" stroke="#ff7845" stroke-linecap="round" stroke-miterlimit="3.8637" stroke-width="1.4356"/>
        <path d="M13.4199,12.5186c.7139-.0899,1.1289.3261.918.916-.2119.5918-.8643,1.2422-1.4556,1.4531s-1.0058-.2031-.9165-.918c.0899-.7109.7407-1.3633,1.4541-1.4511Z" fill="url(#New_Gradient_161)" stroke="#a70000" stroke-miterlimit="3.8637" stroke-width=".4785"/>
        <path d="M13.4199,12.5186c.7139-.0899,1.1289.3261.918.916-.2119.5918-.8643,1.2422-1.4556,1.4531s-1.0058-.2031-.9165-.918c.0899-.7109.7407-1.3633,1.4541-1.4511Z" fill="url(#New_Gradient_157)"/>
      </g>
      <g mask="url(#mask)">
        <g>
          <path d="M5.9551,1.3604c2.6655,0,4.8262,1.9218,4.8262,4.291,0,2.3711-2.1607,4.2929-4.8262,4.2929-2.6665,0-4.8277-1.9218-4.8277-4.2929C1.1274,3.2822,3.2886,1.3604,5.9551,1.3604Z" fill="url(#New_Gradient_154)"/>
          <g mask="url(#mask-1)">
            <g>
              <path d="M5.9551,2.5869c2.3979,0,4.3428,1.7305,4.3428,3.8633s-1.9449,3.8613-4.3428,3.8613c-2.4004,0-4.3443-1.7285-4.3443-3.8613s1.9439-3.8633,4.3443-3.8633Z" fill="url(#New_Gradient_155)"/>
              <path d="M5.9551,3.9033c2.3979,0,4.3428,1.7285,4.3428,3.8633,0,2.1309-1.9449,3.8613-4.3428,3.8613-2.4004,0-4.3443-1.7304-4.3443-3.8613,0-2.1348,1.9439-3.8633,4.3443-3.8633Z" fill="url(#New_Gradient_156)"/>
              <path d="M5.9551,2.5869c2.3979,0,4.3428,1.7305,4.3428,3.8633s-1.9449,3.8613-4.3428,3.8613c-2.4004,0-4.3443-1.7285-4.3443-3.8613s1.9439-3.8633,4.3443-3.8633Z" fill="none" stroke="#69c" stroke-miterlimit="3.8637" stroke-width=".957"/>
            </g>
          </g>
          <path d="M5.8174,1.0908c2.5801,0,4.8174,1.8672,4.8174,4.3731,0,2.5039-2.2373,4.373-4.8174,4.373S1,7.9678,1,5.4639C1,2.958,3.2373,1.0908,5.8174,1.0908ZM5.8174,1.5967C3.2788,1.5967,1.3667,3.417,1.3667,5.4639c0,2.0468,1.9121,3.8672,4.4507,3.8672,2.5381,0,4.4502-1.8204,4.4502-3.8672,0-2.0469-1.9121-3.8672-4.4502-3.8672Z" fill="url(#linear-gradient)"/>
        </g>
      </g>
      <path d="M5.9551,1.2803c2.5791,0,4.8164,1.8672,4.8164,4.3711s-2.2373,4.373-4.8164,4.373c-2.5811,0-4.8184-1.8691-4.8184-4.373S3.374,1.2803,5.9551,1.2803ZM5.9551,1.7842C3.4165,1.7842,1.5049,3.6045,1.5049,5.6514c0,2.0488,1.9116,3.8691,4.4502,3.8691,2.5371,0,4.4497-1.8203,4.4497-3.8691,0-2.0469-1.9126-3.8672-4.4497-3.8672Z" fill="url(#New_Gradient_153)"/>
      <g mask="url(#mask-2)">
        <g>
          <path d="M4.5239,3.4854c.8174-.1368,1.5337.33,1.5977,1.0449.0639.7148-.5479,1.4082-1.3667,1.5468-.8179.1368-1.5332-.33-1.5977-1.0449-.063-.7168.5474-1.4082,1.3667-1.5468Z" fill="#b3e0ff"/>
          <path d="M5.9551,3.9033c2.3979,0,4.3428,1.7285,4.3428,3.8633,0,2.1309-1.9449,3.8613-4.3428,3.8613-2.4004,0-4.3443-1.7304-4.3443-3.8613,0-2.1348,1.9439-3.8633,4.3443-3.8633Z" fill="#fff"/>
        </g>
      </g>
    </g>
  </g>
  <g>
    <polygon points="5 4.9951 5.667 4.9951 5.667 4.4229 4.3335 4.4229 4.3335 5.7568 5 5.7568 5 4.9951" fill="#16336e"/>
    <polygon points="5 7.1846 5 6.4229 4.3335 6.4229 4.3335 7.7568 5.667 7.7568 5.667 7.1846 5 7.1846" fill="#16336e"/>
    <polygon points="7 7.1846 6.3335 7.1846 6.3335 7.7568 7.667 7.7568 7.667 6.4229 7 6.4229 7 7.1846" fill="#16336e"/>
    <polygon points="6.3335 4.4229 6.3335 4.9951 7 4.9951 7 5.7568 7.667 5.7568 7.667 4.4229 6.3335 4.4229" fill="#16336e"/>
  </g>
</svg>