<?xml version='1.0' encoding='UTF-8'?>
<svg xmlns="http://www.w3.org/2000/svg" xmlns:xlink="http://www.w3.org/1999/xlink" id="Set_5" data-name="Set 5" width="16" height="16" viewBox="0 0 16 16">
  <defs>
    <linearGradient id="linear-gradient" x1="12.9636851" y1="12.9846376" x2="3.2283634" y2="3.2493158" gradientUnits="userSpaceOnUse">
      <stop offset="0" stop-color="#fff"/>
      <stop offset="1" stop-color="#d9d9d9"/>
    </linearGradient>
    <linearGradient id="White_Black" data-name="White, Black" x1="11.8115249" y1="12.374" x2="4.824195" y2="12.374" gradientUnits="userSpaceOnUse">
      <stop offset="0" stop-color="#fff"/>
      <stop offset="1" stop-color="#000"/>
    </linearGradient>
    <linearGradient id="White_Black-2" data-name="White, Black" x1="3.7641451" y1="3.499" x2="3.7641451" y2="10.9999841" gradientUnits="userSpaceOnUse"><stop offset="0" stop-color="#fff"/><stop offset="1" stop-color="#000"/></linearGradient>
  </defs>
  <g>
    <g>
      <rect x="2" y="2" width="12" height="12" fill="#9c9c9c" stroke="#858585" stroke-linecap="round" stroke-linejoin="round" stroke-width="2"/>
      <rect x="2" y="2" width="12" height="12" fill="#fff"/>
      <rect x="2.7060951" y="2.748" width="11.2939049" height="11.252" fill="url(#linear-gradient)"/>
    </g>
    <g>
      <rect x="4.824195" y="3.499" width="7.7616998" height="7.8819" fill="gray"/>
      <rect x="5.583" y="4.334" width="7.0028948" height="7.0469" fill="#ababab"/>
    </g>
    <rect x="4.824195" y="11.999" width="7.7636998" height=".75" fill="url(#White_Black)"/>
    <rect x="3.4110951" y="3.499" width=".7061" height="8.251" fill="url(#White_Black-2)"/>
  </g>
  <g opacity=".25">
    <line x1="7.293895" y1="3.501" x2="7.293895" y2="11.3779" fill="none" stroke="#fff" stroke-miterlimit="1"/>
    <line x1="10.1200949" y1="3.501" x2="10.1200949" y2="11.3779" fill="none" stroke="#fff" stroke-miterlimit="1"/>
    <line x1="12.2401948" y1="6.1289" x2="4.830095" y2="6.1289" fill="none" stroke="#fff" stroke-miterlimit="1"/>
    <line x1="12.2401948" y1="9.1299" x2="4.830095" y2="9.1299" fill="none" stroke="#fff" stroke-miterlimit="1"/>
  </g>
  <path d="M4.969695,11.3818c.570305-.2724,3.1357999-1.5224,4.7363999-3.2861,1.8681-2.0654,2.5877999-4.3037,2.5877999-4.3037" fill="none" stroke="#000" stroke-miterlimit="1" stroke-width=".75"/>
</svg>