<?xml version='1.0' encoding='UTF-8'?>
<svg xmlns="http://www.w3.org/2000/svg" xmlns:xlink="http://www.w3.org/1999/xlink" id="Icons_-_16x16" data-name="Icons - 16x16" width="16" height="16" viewBox="0 0 16 16">
  <defs>
    <radialGradient id="New_Gradient_115" data-name="New Gradient 115" cx="9.9771072" cy="-14.0566328" fx="9.9771072" fy="-14.0566328" r="13.1257995" gradientTransform="translate(-5.2372027 17.5129) scale(.986 1.1036)" gradientUnits="userSpaceOnUse">
      <stop offset="0" stop-color="#b7e9ff"/>
      <stop offset=".69101" stop-color="#3c97f6"/>
      <stop offset="1" stop-color="#0342d3"/>
    </radialGradient>
    <mask id="mask" x="2.1821" y="8.6558" width="10.9175" height="4.8706" maskUnits="userSpaceOnUse">
      <polygon points="13.0996 11.7378 11.9307 13.0493 2.5972 13.1108 2.5435 9.9341 2.4204 9.2876 13.0996 11.7378" fill="#fff" fill-rule="evenodd"/>
    </mask>
    <linearGradient id="New_Gradient_114" data-name="New Gradient 114" x1="87.2162415" y1="-55.0507581" x2="92.9555697" y2="-60.7900863" gradientTransform="translate(-107.7816 39.0765958) rotate(12.1755879) scale(.9307361 .8723619) skewX(-18.2786539)" gradientUnits="userSpaceOnUse">
      <stop offset="0" stop-color="#999"/>
      <stop offset=".382019" stop-color="#999"/>
      <stop offset=".786514" stop-color="#666"/>
      <stop offset="1" stop-color="#666"/>
    </linearGradient>
    <mask id="mask-1" x="0" y="4.6338" width="14.3799" height="8.6294" maskUnits="userSpaceOnUse">
      <path d="M13.0762,5.7119l-3.2471.0347-7.54-.0347s-1.5332,2.1524-.8448,5.4815l.9078,1.2666h1.5458l.0074.0449,9.1059-.0449.9092-1.2666c.6885-3.3291-.8442-5.4815-.8442-5.4815Z" fill="#fff" fill-rule="evenodd"/>
    </mask>
    <radialGradient id="New_Gradient_110" data-name="New Gradient 110" cx="4.348724" cy="6.8864097" fx="4.348724" fy="6.8864097" r="9.2847561" gradientUnits="userSpaceOnUse">
      <stop offset="0" stop-color="#f2f2f2"/>
      <stop offset="1" stop-color="#b2b2b2"/>
    </radialGradient>
    <linearGradient id="New_Gradient_113" data-name="New Gradient 113" x1="68.7052859" y1="-99.2378584" x2="78.7291975" y2="-93.4505504" gradientTransform="translate(-107.2561 85.7964) rotate(14.8863413) scale(.9416027 1.0620235) skewX(-13.0522057)" gradientUnits="userSpaceOnUse">
      <stop offset="0" stop-color="#fff"/>
      <stop offset=".449432" stop-color="#fff"/>
      <stop offset="1" stop-color="#d9d9d9"/>
    </linearGradient>
    <linearGradient id="New_Gradient_111" data-name="New Gradient 111" x1="66.4170822" y1="-99.5293295" x2="80.6030937" y2="-95.7281992" gradientTransform="translate(-107.2561 85.7964) rotate(14.8863413) scale(.9416027 1.0620235) skewX(-13.0522057)" gradientUnits="userSpaceOnUse">
      <stop offset="0" stop-color="#fff"/>
      <stop offset="1" stop-color="#999"/>
    </linearGradient>
    <linearGradient id="New_Gradient_109" data-name="New Gradient 109" x1="-1.7465951" y1="-97.8300395" x2=".0362839" y2="-91.1762447" gradientTransform="translate(-14.9032 98.768) rotate(14.0007073) scale(1.0949273 1.0252468)" gradientUnits="userSpaceOnUse">
      <stop offset="0" stop-color="#fff"/>
      <stop offset=".662918" stop-color="#e5e5e5"/>
      <stop offset="1" stop-color="#737373"/>
    </linearGradient>
    <radialGradient id="New_Gradient_108" data-name="New Gradient 108" cx="55.513309" cy="-116.7516926" fx="55.513309" fy="-116.7516926" r=".9306432" gradientTransform="translate(-100.1635 122.5744) rotate(17.2944726) scale(.9183176 1.1844696) skewX(-7.4129264)" gradientUnits="userSpaceOnUse">
      <stop offset="0" stop-color="#23a11f"/>
      <stop offset="1" stop-color="#005e00"/>
    </radialGradient>
    <radialGradient id="New_Gradient_107" data-name="New Gradient 107" cx="56.8542444" cy="-117.0754454" fx="56.8542444" fy="-117.0754454" r=".9317203" gradientTransform="translate(-100.1635 122.5744) rotate(17.2944726) scale(.9183176 1.1844696) skewX(-7.4129264)" gradientUnits="userSpaceOnUse">
      <stop offset="0" stop-color="red"/>
      <stop offset="1" stop-color="#a70000"/>
    </radialGradient>
    <radialGradient id="New_Gradient_106" data-name="New Gradient 106" cx="72.9812329" cy="-82.7809223" fx="72.9812329" fy="-82.7809223" r="10.6832725" gradientTransform="translate(-100.1635 64.5815) rotate(13.8577477) scale(.9030858 .9541047) skewX(-15.167076)" gradientUnits="userSpaceOnUse">
      <stop offset="0" stop-color="#3c97f6"/>
      <stop offset=".235962" stop-color="#3c97f6"/>
      <stop offset="1" stop-color="#0342d3"/>
    </radialGradient>
    <linearGradient id="New_Gradient_105" data-name="New Gradient 105" x1="76.8530057" y1="-99.0339224" x2="78.1455703" y2="-101.3657707" gradientTransform="translate(-107.2561 85.7964) rotate(14.8863413) scale(.9416027 1.0620235) skewX(-13.0522057)" gradientUnits="userSpaceOnUse">
      <stop offset="0" stop-color="#3c97f6"/>
      <stop offset="1" stop-color="#0342d3"/>
    </linearGradient>
    <radialGradient id="New_Gradient_104" data-name="New Gradient 104" cx="75.2421516" cy="-85.8799347" fx="75.2421516" fy="-85.8799347" r="7.6047024" gradientTransform="translate(-100.1635 64.5815) rotate(13.8577477) scale(.9030858 .9541047) skewX(-15.167076)" gradientUnits="userSpaceOnUse">
      <stop offset="0" stop-color="#b7e9ff"/>
      <stop offset=".69101" stop-color="#3c97f6"/>
      <stop offset="1" stop-color="#0342d3"/>
    </radialGradient>
    <linearGradient id="New_Gradient_102" data-name="New Gradient 102" x1="5.4741" y1="9.7265695" x2="15.0117937" y2="9.7265695" gradientUnits="userSpaceOnUse">
      <stop offset="0" stop-color="#999"/>
      <stop offset=".20224" stop-color="#f2f2f2"/>
      <stop offset=".516861" stop-color="#b2b2b2"/>
      <stop offset=".769669" stop-color="#b2b2b2"/>
      <stop offset="1" stop-color="#737373"/>
    </linearGradient>
    <linearGradient id="New_Gradient_102-2" data-name="New Gradient 102" x1="5.4468" y1="9.1489493" x2="12.4653" y2="9.1489493" gradientUnits="userSpaceOnUse"><stop offset="0" stop-color="#999"/><stop offset=".20224" stop-color="#f2f2f2"/><stop offset=".516861" stop-color="#b2b2b2"/><stop offset=".769669" stop-color="#b2b2b2"/><stop offset="1" stop-color="#737373"/></linearGradient>
    <mask id="mask-2" x="5.3452" y="5" width="7.2485" height="5.5449" maskUnits="userSpaceOnUse">
      <path d="M8.9702,5.1426c1.9302,0,3.4951,1.0107,3.4951,2.2578s-1.5649,2.2583-3.4951,2.2583c-1.9311,0-3.4961-1.0112-3.4961-2.2583s1.565-2.2578,3.4961-2.2578Z" fill="#fff"/>
    </mask>
    <linearGradient id="New_Gradient_95" data-name="New Gradient 95" x1="5.4741" y1="7.40065" x2="12.4653" y2="7.40065" gradientUnits="userSpaceOnUse">
      <stop offset="0" stop-color="#999"/>
      <stop offset=".219101" stop-color="#b2b2b2"/>
      <stop offset=".466293" stop-color="#b2b2b2"/>
      <stop offset=".769669" stop-color="#f2f2f2"/>
      <stop offset="1" stop-color="#737373"/>
    </linearGradient>
    <mask id="mask-3" x="5.3452" y="5.3086" width="7.2485" height="5.2363" maskUnits="userSpaceOnUse">
      <path d="M8.9702,5.7871c1.7368,0,3.145.9107,3.145,2.0332,0,1.1226-1.4082,2.0322-3.145,2.0322-1.7383,0-3.1465-.9096-3.1465-2.0322,0-1.1225,1.4082-2.0332,3.1465-2.0332Z" fill="#fff" stroke="#fff" stroke-miterlimit="3.8637" stroke-width=".957"/>
    </mask>
    <linearGradient id="New_Gradient_96" data-name="New Gradient 96" x1="5.8237" y1="7.8198" x2="12.1152" y2="7.8198" gradientUnits="userSpaceOnUse">
      <stop offset="0" stop-color="#5587c0"/>
      <stop offset=".20787" stop-color="#97bae0"/>
      <stop offset=".865173" stop-color="#b3e0ff"/>
      <stop offset="1" stop-color="#5587c0"/>
    </linearGradient>
    <radialGradient id="New_Gradient_97" data-name="New Gradient 97" cx="20.1802543" cy="27.3558598" fx="20.1802543" fy="27.3558598" r="5.6519278" gradientTransform="translate(-10.8832221 -17.8749219) scale(.8903)" gradientUnits="userSpaceOnUse">
      <stop offset="0" stop-color="#78dcff"/>
      <stop offset="1" stop-color="#b7e9ff"/>
    </radialGradient>
    <linearGradient id="linear-gradient" x1="6.7775717" y1="5.2082943" x2="10.9631297" y2="9.3938523" gradientUnits="userSpaceOnUse">
      <stop offset="0" stop-color="gray"/>
      <stop offset=".187809" stop-color="#82868b"/>
      <stop offset=".5233754" stop-color="#8a99aa"/>
      <stop offset=".9651405" stop-color="#95b7db"/>
      <stop offset="1" stop-color="#97bae0"/>
    </linearGradient>
    <linearGradient id="New_Gradient_89" data-name="New Gradient 89" x1="6.8770273" y1="5.3076561" x2="11.0625151" y2="9.4931439" gradientUnits="userSpaceOnUse">
      <stop offset="0" stop-color="gray"/>
      <stop offset="1" stop-color="#fff"/>
    </linearGradient>
    <mask id="mask-4" x="5.8237" y="6.2475408" width="6.2915" height="4.2973592" maskUnits="userSpaceOnUse">
      <path d="M7.9336,6.2603c.5923-.0728,1.1108.1733,1.1572.5502.0464.376-.397.7403-.9897.8135-.5928.0718-1.1104-.1738-1.1573-.5503-.0459-.3764.397-.7407.9898-.8134Z" fill="#fff"/>
    </mask>
    <linearGradient id="New_Gradient_101" data-name="New Gradient 101" x1="12.7350066" y1="9.7061622" x2="10.4075621" y2="12.0336066" gradientUnits="userSpaceOnUse">
      <stop offset="0" stop-color="#4c4c4c"/>
      <stop offset=".623596" stop-color="#d9d9d9"/>
      <stop offset="1" stop-color="#4c4c4c"/>
    </linearGradient>
    <mask id="mask-5" x="10.8379" y="10.3325" width="4.40135" height="4.20115" maskUnits="userSpaceOnUse">
      <path d="M12.9688,10.7646l1.7124,1.712c1.0024,1.0019-.501,2.5058-1.504,1.5034l-1.7119-1.7114c-1.0019-1.003.501-2.5064,1.5035-1.504Z" fill="#fff"/>
    </mask>
    <linearGradient id="New_Gradient_100" data-name="New Gradient 100" x1="14.6812769" y1="10.7642793" x2="11.464779" y2="13.9807773" gradientUnits="userSpaceOnUse">
      <stop offset="0" stop-color="#a70000"/>
      <stop offset=".662918" stop-color="#df4e15"/>
      <stop offset="1" stop-color="#740000"/>
    </linearGradient>
    <linearGradient id="New_Gradient_99" data-name="New Gradient 99" x1="13.3889955" y1="12.3484241" x2="14.5050037" y2="14.1344106" gradientUnits="userSpaceOnUse">
      <stop offset="0" stop-color="#df4e15"/>
      <stop offset="1" stop-color="#c42e00"/>
    </linearGradient>
    <linearGradient id="New_Gradient_98" data-name="New Gradient 98" x1="13.3889955" y1="12.3484241" x2="14.5050037" y2="14.1344106" gradientUnits="userSpaceOnUse">
      <stop offset="0" stop-color="#df4e15"/>
      <stop offset="1" stop-color="#c42e00"/>
    </linearGradient>
  </defs>
  <g>
    <path d="M13.0762,5.7119l-1.2115.0132c-.0019-.002-.0063-.0054-.0063-.0054l-.478.0034c.0009.002.0009.0044.0019.0074l-.5854.0049.1748-3.7354-6.4614.001-.2354,3.7197-.3711-.0019-.001-.0049-.1889.0044-1.4248-.0064s-1.5332,2.1524-.8448,5.4815l.9078,1.2666h.2338l.0113.6508,9.3335-.0615.5229-.5869.5576-.0024.9092-1.2666c.6885-3.3291-.8442-5.4815-.8442-5.4815Z" fill="url(#New_Gradient_115)" stroke="#000" stroke-miterlimit="3.8637" stroke-width="2"/>
    <g>
      <g>
        <g mask="url(#mask)">
          <g>
            <polygon points="13.0996 11.7378 11.9307 13.0493 2.5972 13.1108 2.5435 9.9341 2.4204 9.2876 13.0996 11.7378" fill="gray" fill-rule="evenodd"/>
            <polygon points="2.3169 13.5264 3.3818 11.8208 2.3247 8.6558 2.1821 9.8462 2.3169 13.5264" fill="url(#New_Gradient_114)" fill-rule="evenodd"/>
          </g>
        </g>
        <g mask="url(#mask-1)">
          <g>
            <path d="M13.0762,5.7119l-3.2471.0347-7.54-.0347s-1.5332,2.1524-.8448,5.4815l.9078,1.2666h1.5458l.0074.0449,9.1059-.0449.9092-1.2666c.6885-3.3291-.8442-5.4815-.8442-5.4815Z" fill="url(#New_Gradient_110)" fill-rule="evenodd"/>
            <path d="M1.0923,5.439s1.3096,2.2256,1.6655,5.8784l-1.0893,1.9458-.5821-4.8511.0059-2.9731Z" fill="#e5e5e5" fill-rule="evenodd"/>
            <polygon points="1.2866 13.0327 2.5898 10.7061 14.3799 10.7729 13.2725 12.9272 1.2866 13.0327" fill="#b2b2b2" fill-rule="evenodd"/>
            <polygon points="11.9482 4.6338 11.6284 7.7373 4.4492 7.9893 3.5503 5.4258 11.9482 4.6338" fill="#4c4c4c" fill-rule="evenodd"/>
            <path d="M1.4453,5.8486s.0913.5147.0425,1.3999c-.0518.9165-.2564,1.9698-.8882,3.5845l13.3267.0674c.2192.0019.1362.2915-.0821.2905l-13.5659-.0698c-.0595-.0005-.104-.0615-.0845-.1118.7632-1.8604,1.1519-3.7144.9346-5.0366-.0195-.1167.2969-.2408.3169-.1241Z" fill="url(#New_Gradient_113)"/>
            <path d="M1.2793,5.7344c-.2715.4995-.1631,1.6689.0996,2.7944.3262,1.3901.749,1.5176,1.2124,1.5859l10.458-.0102c.9385-.2793.3594-2.8872.44-2.8042.8149,1.8872.7275,3.7285.5478,3.7519l-12.7661.0015s.0723-.9267-.2773-2.6435c-.3467-1.7002-.9937-2.669-.9937-2.669l1.2793-.0068Z" fill="url(#New_Gradient_111)"/>
            <line x1="2.3809" y1="11.0815" x2="1.7275" y2="12.249" fill="none" stroke="#fff" stroke-linecap="round" stroke-miterlimit="3.8637" stroke-width=".75"/>
          </g>
        </g>
        <polygon points="10.7051 7.6738 4.4492 7.9893 4.2476 6.1636 4.5103 2.001 10.9717 2 10.7051 7.6738" fill="url(#New_Gradient_109)" fill-rule="evenodd"/>
        <g>
          <path d="M2.7075,10.0068c.1045-.248.4068-.3872.6738-.309.2652.08.397.3437.2916.5908-.1055.2495-.4078.3862-.6744.3081s-.3969-.3428-.291-.5899Z" fill="url(#New_Gradient_108)" fill-rule="evenodd"/>
          <path d="M4.0337,10.0186c.1064-.2486.4077-.3873.6748-.3091.2681.0781.3989.3423.2925.5913-.1055.249-.4082.3867-.6748.3076-.2676-.0786-.398-.3418-.2925-.5898Z" fill="url(#New_Gradient_107)" fill-rule="evenodd"/>
        </g>
        <g>
          <path d="M11.3804,5.7231c.2563.6172-.1504,1.2007-.1504,1.2007,0,0-1.813-.4497-6.9453-.0703-.2383-.666-.3819-1.1396-.3819-1.1396l-.6518.0132c-.0987,1.5053-.2598,3.1879-.2598,3.1879,0,0,.8477.5928,4.7573.6348,3.5386.0405,4.9624-.4224,4.9624-.4224,0,0,.3208-.6919-.2749-2.353-.3032-.8486-.5776-1.0547-.5776-1.0547l-.478.0034Z" fill="url(#New_Gradient_106)" fill-rule="evenodd"/>
          <path d="M10.4058,6.9712s.646.0796,1.103.1675c0,0,.2295-.8428.0864-1.2866h.1895s.5537.9643.6079,2.5136c0,0-.4297-.5757-.814-.8535-.3501-.2544-1.1728-.541-1.1728-.541Z" fill="url(#New_Gradient_105)" fill-rule="evenodd"/>
          <path d="M4.1011,7.0894c.2588-.0249,1.4643-.1338,2.729-.1568,0,0,.9477-.0185,1.6782.8003.8003.8916,3.5327,1.0542,3.5327,1.0542,0,0-4.457.5352-7.6128-.0825l-.7514-.1279c-.0689-1.6495-.188-2.7574-.188-2.7574l.2475-.0014s.1753.4951.3648,1.2715Z" fill="url(#New_Gradient_104)"/>
        </g>
      </g>
      <line x1="5.2554" y1="3.5303" x2="9.9463" y2="3.562" fill="none" stroke="#999" stroke-linejoin="round" stroke-width=".75"/>
      <line x1="5.3423" y1="5.1289" x2="9.4326" y2="5.1553" fill="none" stroke="#999" stroke-linecap="round" stroke-linejoin="round" stroke-width=".75"/>
    </g>
  </g>
  <g>
    <path d="M11.6733,10.0703l.3799.3789c.2989-.0537.6284.0274.9156.3154l1.7124,1.712c1.0024,1.0019-.501,2.5058-1.504,1.5034l-1.7119-1.7114c-.2881-.2881-.3691-.6177-.3149-.9165l-.6738-.6744c-.4571.1407-.9673.2198-1.5064.2198-1.9311,0-3.4961-1.0108-3.4961-2.2588,0-.9038.0005-1.209.0005-1.209l-.0005-.0293c0-1.2471,1.565-2.2578,3.4961-2.2578,1.9302,0,3.4951,1.0107,3.4951,2.2578v1.2383c0,.5434-.2968,1.042-.792,1.4316Z" fill="url(#New_Gradient_102)" stroke="#000" stroke-miterlimit="3.8637" stroke-width="1.9141"/>
    <path d="M5.4741,8.6387c0-.9038-.0273-1.209-.0273-1.209l7.0185-.0293s0-.0083,0,1.2383c0,1.248-1.5649,2.2588-3.4951,2.2588-1.9311,0-3.4961-1.0108-3.4961-2.2588Z" fill="url(#New_Gradient_102-2)" fill-rule="evenodd"/>
    <g mask="url(#mask-2)">
      <g>
        <path d="M8.9702,5.1426c1.9302,0,3.4951,1.0107,3.4951,2.2578s-1.5649,2.2583-3.4951,2.2583c-1.9311,0-3.4961-1.0112-3.4961-2.2583s1.565-2.2578,3.4961-2.2578Z" fill="url(#New_Gradient_95)"/>
        <g mask="url(#mask-3)">
          <g>
            <path d="M8.9702,5.7871c1.7368,0,3.145.9107,3.145,2.0332,0,1.1226-1.4082,2.0322-3.145,2.0322-1.7383,0-3.1465-.9096-3.1465-2.0322,0-1.1225,1.4082-2.0332,3.1465-2.0332Z" fill="url(#New_Gradient_96)"/>
            <path d="M8.9702,6.48c1.7368,0,3.145.9096,3.145,2.0327,0,1.1221-1.4082,2.0322-3.145,2.0322-1.7383,0-3.1465-.9101-3.1465-2.0322,0-1.1231,1.4082-2.0327,3.1465-2.0327Z" fill="url(#New_Gradient_97)"/>
            <path d="M8.9702,5.7871c1.7368,0,3.145.9107,3.145,2.0332,0,1.1226-1.4082,2.0322-3.145,2.0322-1.7383,0-3.1465-.9096-3.1465-2.0322,0-1.1225,1.4082-2.0332,3.1465-2.0332Z" fill="none" stroke="#69c" stroke-miterlimit="3.8637" stroke-width=".957"/>
          </g>
        </g>
        <path d="M8.8701,5c1.8687,0,3.4888.9834,3.4888,2.3008,0,1.3183-1.6201,2.3013-3.4888,2.3013-1.8681,0-3.4883-.983-3.4883-2.3013,0-1.3174,1.6202-2.3008,3.4883-2.3008ZM8.8701,5.2661c-1.8379,0-3.2226.9585-3.2226,2.0347,0,1.0771,1.3847,2.0356,3.2226,2.0356,1.8384,0,3.2232-.9585,3.2232-2.0356,0-1.0762-1.3848-2.0347-3.2232-2.0347Z" fill="url(#linear-gradient)"/>
      </g>
    </g>
    <path d="M8.9702,5.0996c1.8682,0,3.4883.9834,3.4883,2.3008s-1.6201,2.3008-3.4883,2.3008c-1.8691,0-3.4892-.9834-3.4892-2.3008s1.6201-2.3008,3.4892-2.3008ZM8.9702,5.3652c-1.8389,0-3.2226.958-3.2226,2.0352,0,1.0771,1.3837,2.0351,3.2226,2.0351,1.8374,0,3.2227-.958,3.2227-2.0351,0-1.0772-1.3853-2.0352-3.2227-2.0352Z" fill="url(#New_Gradient_89)"/>
    <g mask="url(#mask-4)">
      <g>
        <path d="M7.9336,6.2603c.5923-.0728,1.1108.1733,1.1572.5502.0464.376-.397.7403-.9897.8135-.5928.0718-1.1104-.1738-1.1573-.5503-.0459-.3764.397-.7407.9898-.8134Z" fill="#b3e0ff"/>
        <path d="M8.9702,6.48c1.7368,0,3.145.9096,3.145,2.0327,0,1.1221-1.4082,2.0322-3.145,2.0322-1.7383,0-3.1465-.9101-3.1465-2.0322,0-1.1231,1.4082-2.0327,3.1465-2.0327Z" fill="#fff"/>
      </g>
    </g>
    <path d="M11.3105,9.707l1.4244,1.4239c.6005.6015-.3013,1.5039-.9029.9023l-1.4238-1.4238c-.602-.6016.3003-1.5039.9023-.9024Z" fill="url(#New_Gradient_101)"/>
    <g mask="url(#mask-5)">
      <g>
        <path d="M12.9688,10.7646l1.7124,1.712c1.0024,1.0019-.501,2.5058-1.504,1.5034l-1.7119-1.7114c-1.0019-1.003.501-2.5064,1.5035-1.504Z" fill="url(#New_Gradient_100)"/>
        <path d="M13.9468,12.1885c.5815,0,1.0532.4717,1.0532,1.0527,0,.5816-.4717,1.0532-1.0532,1.0532-.5811,0-1.0528-.4716-1.0528-1.0532,0-.581.4717-1.0527,1.0528-1.0527Z" fill="url(#New_Gradient_99)" stroke="#a70000" stroke-miterlimit="3.8637" stroke-width=".4785"/>
        <path d="M13.9468,12.1885c.5815,0,1.0532.4717,1.0532,1.0527,0,.5816-.4717,1.0532-1.0532,1.0532-.5811,0-1.0528-.4716-1.0528-1.0532,0-.581.4717-1.0527,1.0528-1.0527Z" fill="url(#New_Gradient_98)"/>
        <line x1="11.5557" y1="11.0503" x2="12.9297" y2="12.4238" fill="none" stroke="#ff7845" stroke-linecap="round" stroke-miterlimit="3.8637" stroke-width="1.4356"/>
      </g>
    </g>
  </g>
</svg>