<?xml version="1.0" encoding="UTF-8"?>
<svg id="Set_3" data-name="Set 3" xmlns="http://www.w3.org/2000/svg" width="16" height="16" xmlns:xlink="http://www.w3.org/1999/xlink" viewBox="0 0 16 16">
  <defs>
    <mask id="mask" x="3.2851809" y="2.6042644" width="10.0608213" height="10.7502975" maskUnits="userSpaceOnUse">
      <path d="M10.6972949,2.6353c-.0244-.0401-.0674-.0411-.0938-.0044l-4.3583999,7.2299c-.0234.0401-.0625.0425-.0879.0049l-1.8711-2.4756c-.0273-.0371-.0644-.0322-.082.0103l-.912095,2.3013c-.0166049.0429-.002.1005.0341951.1294l3.0614999,2.8354c.0332.0313.083.0273.111305-.0088l6.1484948-7.0727c.0351-.0308.042-.0865.0175052-.125l-1.9677051-2.8247Z" fill="#fff"/>
    </mask>
    <linearGradient id="linear-gradient" x1="8.0057614" y1="7.8602677" x2="8.6756621" y2="14.559267" gradientUnits="userSpaceOnUse">
      <stop offset="0" stop-color="#c9ffc9"/>
      <stop offset=".80899" stop-color="#00cd00"/>
      <stop offset="1" stop-color="#00cd00"/>
    </linearGradient>
    <linearGradient id="linear-gradient-2" x1="5.5141445" y1="12.0250575" x2="12.381733" y2="2.6863236" gradientUnits="userSpaceOnUse">
      <stop offset="0" stop-color="#c9ffc9"/>
      <stop offset=".55618" stop-color="#00cd00"/>
      <stop offset="1" stop-color="#23a11f"/>
    </linearGradient>
  </defs>
  <path d="M10.6972949,2.6353c-.0244-.0401-.0674-.0411-.0938-.0044l-4.3583999,7.2299c-.0234.0401-.0625.0425-.0879.0049l-1.8711-2.4756c-.0273-.0371-.0644-.0322-.082.0103l-.912095,2.3013c-.0166049.0429-.002.1005.0341951.1294l3.0614999,2.8354c.0332.0313.083.0273.111305-.0088l6.1484948-7.0727c.0351-.0308.042-.0865.0175052-.125l-1.9677051-2.8247Z" fill="none" stroke="#000" stroke-width="2"/>
  <g mask="url(#mask)">
    <g>
      <path d="M10.6972949,2.6353c-.0244-.0401-.0674-.0411-.0938-.0044l-4.3583999,7.2299c-.0234.0401-.0625.0425-.0879.0049l-1.8711-2.4756c-.0273-.0371-.0644-.0322-.082.0103l-.912095,2.3013c-.0166049.0429-.002.1005.0341951.1294l3.0614999,2.8354c.0332.0313.083.0273.111305-.0088l6.1484948-7.0727c.0351-.0308.042-.0865.0175052-.125l-1.9677051-2.8247Z" fill="url(#linear-gradient)"/>
      <path d="M11.3642949,3.3013c-.0254-.0391-.0664-.0406-.0938-.0039l-4.3593999,7.2304c-.0215.0396-.0615.042-.0879.0049l-1.8701-2.4765c-.0283-.0362-.0644-.0318-.082.0107l-.912095,2.3018c-.0176049.0424-.002.1005.034195.1289l3.0604999,2.8359c.0332.0312.084.0273.112305-.0088l6.1484948-7.0732c.0341-.0303.0419-.0865.0166-.125l-1.9668-2.8252Z" fill="url(#linear-gradient-2)"/>
    </g>
  </g>
</svg>