<?xml version='1.0' encoding='UTF-8'?>
<svg xmlns="http://www.w3.org/2000/svg" xmlns:xlink="http://www.w3.org/1999/xlink" id="Set_5" data-name="Set 5" width="16" height="16" viewBox="0 0 16 16">
  <defs>
    <linearGradient id="New_Gradient_Swatch_18" data-name="New Gradient Swatch 18" x1="3" y1="10.25245" x2="10" y2="10.25245" gradientUnits="userSpaceOnUse">
      <stop offset="0" stop-color="#b0caff"/>
      <stop offset=".1381484" stop-color="#97b5f2"/>
      <stop offset=".4019205" stop-color="#6f93dd"/>
      <stop offset=".64258" stop-color="#527ace"/>
      <stop offset=".8499057" stop-color="#406bc5"/>
      <stop offset="1" stop-color="#3a66c2"/>
    </linearGradient>
    <linearGradient id="New_Gradient_Swatch_18-2" data-name="New Gradient Swatch 18" y1="4.7495" y2="4.7495" x1="3" x2="10" gradientUnits="userSpaceOnUse"><stop offset="0" stop-color="#b0caff"/><stop offset=".1381484" stop-color="#97b5f2"/><stop offset=".4019205" stop-color="#6f93dd"/><stop offset=".64258" stop-color="#527ace"/><stop offset=".8499057" stop-color="#406bc5"/><stop offset="1" stop-color="#3a66c2"/></linearGradient>
    <linearGradient id="New_Gradient_Swatch_18-3" data-name="New Gradient Swatch 18" y1="7.5005" y2="7.5005" x1="3" x2="10" gradientUnits="userSpaceOnUse"><stop offset="0" stop-color="#b0caff"/><stop offset=".1381484" stop-color="#97b5f2"/><stop offset=".4019205" stop-color="#6f93dd"/><stop offset=".64258" stop-color="#527ace"/><stop offset=".8499057" stop-color="#406bc5"/><stop offset="1" stop-color="#3a66c2"/></linearGradient>
    <linearGradient id="linear-gradient" x1="7.9245" y1="11.1128" x2="3.7742" y2="11.1128" gradientUnits="userSpaceOnUse">
      <stop offset="0" stop-color="#575757"/>
      <stop offset=".325843" stop-color="#6d6d6d"/>
      <stop offset="1" stop-color="#d3d3d3"/>
    </linearGradient>
    <linearGradient id="linear-gradient-2" x1="6.626137" y1="9.3275758" x2="3.4111163" y2="6.7555597" gradientUnits="userSpaceOnUse">
      <stop offset="0" stop-color="#404040"/>
      <stop offset=".325843" stop-color="#6d6d6d"/>
      <stop offset="1" stop-color="#e9e9e9"/>
    </linearGradient>
    <linearGradient id="linear-gradient-3" y1="8.3618" y2="8.3618" x1="7.9245" x2="3.7742" gradientUnits="userSpaceOnUse"><stop offset="0" stop-color="#575757"/><stop offset=".325843" stop-color="#6d6d6d"/><stop offset="1" stop-color="#d3d3d3"/></linearGradient>
    <linearGradient id="linear-gradient-4" x1="6.6262307" y1="6.5757569" x2="3.4109605" y2="4.0035412" gradientUnits="userSpaceOnUse"><stop offset="0" stop-color="#404040"/><stop offset=".325843" stop-color="#6d6d6d"/><stop offset="1" stop-color="#e9e9e9"/></linearGradient>
    <linearGradient id="linear-gradient-5" y1="5.61085" y2="5.61085" x1="7.9245" x2="3.7742" gradientUnits="userSpaceOnUse"><stop offset="0" stop-color="#575757"/><stop offset=".325843" stop-color="#6d6d6d"/><stop offset="1" stop-color="#d3d3d3"/></linearGradient>
    <linearGradient id="linear-gradient-6" x1="6.626251" y1="3.8236012" x2="3.4108541" y2="1.2512841" gradientUnits="userSpaceOnUse"><stop offset="0" stop-color="#404040"/><stop offset=".325843" stop-color="#6d6d6d"/><stop offset="1" stop-color="#e9e9e9"/></linearGradient>
    <mask id="mask" x="6.4877974" y="3.335" width="9.177843" height="10" maskUnits="userSpaceOnUse">
      <path d="M7.4877974,9.3887l3.3475999-2.7051-.0581,1.6318c.6934.0235,2.1044999.0782,2.4062999-.831.5596-1.6983-2.4506999-3.1494-2.4506999-3.1494,2.3149999.125,4.7377999,2.0546,3.6752999,4.6504-.9061972,2.2158-3.4584999,1.7568-3.5521972,1.7558l-.0528027,1.5938-3.3153999-2.9463Z" fill="#fff" stroke="#fff" stroke-linecap="round" stroke-linejoin="round" stroke-width="2"/>
    </mask>
    <radialGradient id="New_Gradient_1" data-name="New Gradient 1" cx="13.8738264" cy="133.3736" fx="13.8738264" fy="133.3736" r="7.4336117" gradientTransform="translate(-.0762 143.5078) scale(.9936 -1)" gradientUnits="userSpaceOnUse">
      <stop offset="0" stop-color="#fff"/>
      <stop offset="1" stop-color="#00cd00"/>
    </radialGradient>
    <radialGradient id="New_Gradient_189" data-name="New Gradient 189" cx="-22.9517425" cy="185.1974558" fx="-22.9517425" fy="185.1974558" r="6.6722587" gradientTransform="translate(-145.1312 97.5364) rotate(-125.8577783) scale(.948828) skewX(.447967)" gradientUnits="userSpaceOnUse">
      <stop offset="0" stop-color="#328e36"/>
      <stop offset="1" stop-color="#00cd00"/>
    </radialGradient>
    <mask id="mask-1" x="6.6654974" y="4" width="8.4529282" height="8.335" maskUnits="userSpaceOnUse">
      <path d="M7.4877974,9.3887l3.3475999-2.7051-.0581,1.6318c.6934.0235,2.1044999.0782,2.4062999-.831.5596-1.6983-2.4506999-3.1494-2.4506999-3.1494,2.3149999.125,4.7377999,2.0546,3.6752999,4.6504-.9061972,2.2158-3.4584999,1.7568-3.5521972,1.7558l-.0528027,1.5938-3.3153999-2.9463Z" fill="#fff"/>
    </mask>
    <linearGradient id="linear-gradient-7" x1="11.0767189" y1="10.5726" x2="11.0767189" y2="7.759" gradientUnits="userSpaceOnUse">
      <stop offset=".005618" stop-color="#a70000"/>
      <stop offset="1" stop-color="#fff95e"/>
    </linearGradient>
  </defs>
  <g>
    <g>
      <path d="M6.5004974,7.5049c-1.9336,0-3.5004974.7715-3.5004974,1.7207v2.0517c0,.9502,1.5668975,1.7227,3.5004974,1.7227,1.9331,0,3.4995026-.7725,3.4995026-1.7227v-2.0517c0-.9492-1.5664026-1.7207-3.4995026-1.7207Z" fill="url(#New_Gradient_Swatch_18)" stroke="#000" stroke-linecap="round" stroke-linejoin="round" stroke-width="2"/>
      <path d="M6.5004974,2c-1.9336,0-3.5004974.7705-3.5004974,1.7227v2.0527c0,.9502,1.5668975,1.7236,3.5004974,1.7236,1.9331,0,3.4995026-.7734,3.4995026-1.7236v-2.0527c0-.9522-1.5664026-1.7227-3.4995026-1.7227Z" fill="url(#New_Gradient_Swatch_18-2)" stroke="#000" stroke-linecap="round" stroke-linejoin="round" stroke-width="2"/>
      <path d="M6.5004974,4.752c-1.9336,0-3.5004974.7714-3.5004974,1.7226v2.0508c0,.9521,1.5668975,1.7236,3.5004974,1.7236,1.9331,0,3.4995026-.7715,3.4995026-1.7236v-2.0508c0-.9512-1.5664026-1.7226-3.4995026-1.7226Z" fill="url(#New_Gradient_Swatch_18-3)" stroke="#000" stroke-linecap="round" stroke-linejoin="round" stroke-width="2"/>
    </g>
    <g>
      <path d="M3,9.2256v2.0517c0,.9502,1.5668975,1.7227,3.5004974,1.7227,1.9331,0,3.4995026-.7725,3.4995026-1.7227v-2.0517H3Z" fill="url(#linear-gradient)"/>
      <path d="M10,9.2256c0,.9531-1.5664026,1.7226-3.4995026,1.7226-1.9336,0-3.5004974-.7695-3.5004974-1.7226,0-.9492,1.5668975-1.7207,3.5004974-1.7207,1.9331,0,3.4995026.7715,3.4995026,1.7207Z" fill="url(#linear-gradient-2)"/>
    </g>
    <g>
      <path d="M3,6.4746v2.0508c0,.9521,1.5668975,1.7236,3.5004974,1.7236,1.9331,0,3.4995026-.7715,3.4995026-1.7236v-2.0508H3Z" fill="url(#linear-gradient-3)"/>
      <path d="M10,6.4746c0,.9522-1.5664026,1.7227-3.4995026,1.7227-1.9336,0-3.5004974-.7705-3.5004974-1.7227,0-.9512,1.5668975-1.7226,3.5004974-1.7226,1.9331,0,3.4995026.7714,3.4995026,1.7226Z" fill="url(#linear-gradient-4)"/>
    </g>
    <g>
      <path d="M3,3.7227v2.0527c0,.9502,1.5668975,1.7236,3.5004974,1.7236,1.9331,0,3.4995026-.7734,3.4995026-1.7236v-2.0527H3Z" fill="url(#linear-gradient-5)"/>
      <path d="M10,3.7227c0,.9521-1.5664026,1.7226-3.4995026,1.7226-1.9336,0-3.5004974-.7705-3.5004974-1.7226,0-.9522,1.5668975-1.7227,3.5004974-1.7227,1.9331,0,3.4995026.7705,3.4995026,1.7227Z" fill="url(#linear-gradient-6)"/>
    </g>
  </g>
  <g>
    <g mask="url(#mask)">
      <g>
        <path d="M7.4877974,9.3887l3.3475999-2.7051-.0581,1.6318c.6934.0235,2.1044999.0782,2.4062999-.831.5596-1.6983-2.4506999-3.1494-2.4506999-3.1494,2.3149999.125,4.7377999,2.0546,3.6752999,4.6504-.9061972,2.2158-3.4584999,1.7568-3.5521972,1.7558l-.0528027,1.5938-3.3153999-2.9463Z" fill="url(#New_Gradient_1)"/>
        <path d="M6.6654974,9.3213l.8638.5517,3.1332999-2.2334.0425,1.1426s1.5644.3477,2.2684999-.4199c1.2266-1.332-.7402-2.6465-.7402-2.6465l-5.5678999,3.6055Z" fill="url(#New_Gradient_189)" fill-rule="evenodd"/>
        <path d="M7.4877974,9.3887l3.3475999-2.7051-.0581,1.6318c.6934.0235,2.1044999.0782,2.4062999-.831.5596-1.6983-2.4506999-3.1494-2.4506999-3.1494,2.3149999.125,4.7377999,2.0546,3.6752999,4.6504-.9061972,2.2158-3.4584999,1.7568-3.5521972,1.7558l-.0528027,1.5938-3.3153999-2.9463Z" fill="none" stroke="#000" stroke-linecap="round" stroke-linejoin="round" stroke-width="2"/>
      </g>
    </g>
    <g mask="url(#mask-1)">
      <g>
        <path d="M7.4877974,9.3887l3.3475999-2.7051-.0581,1.6318c.6934.0235,2.1044999.0782,2.4062999-.831.5596-1.6983-2.4506999-3.1494-2.4506999-3.1494,2.3149999.125,4.7377999,2.0546,3.6752999,4.6504-.9061972,2.2158-3.4584999,1.7568-3.5521972,1.7558l-.0528027,1.5938-3.3153999-2.9463Z" fill="url(#linear-gradient-7)"/>
        <path d="M7.8832974,8.9863l3.3471999-2.705-.0547,1.6347c.6904.0205,2.1600999.1455,2.4598999-.7646.5616-1.6993-2.4501999-3.1514-2.4501999-3.1514,2.3155027.127,4.7373999,2.0566,3.6757999,4.6533-.9052,2.2149-3.8983999,1.4981-3.9921999,1.4981l-.0429,1.2285-2.9428999-2.3936Z" fill="#ff7845"/>
        <path d="M6.6654974,9.3213l1.6988-.044,2.1927999-1.5322.0425,1.1445s1.6699.2403,2.3739999-.5273c1.2266-1.332-.7402-2.6465-.7402-2.6465l-5.5678999,3.6055Z" fill="#fff95e"/>
      </g>
    </g>
  </g>
</svg>