<?xml version="1.0" encoding="UTF-8"?>
<svg id="Set_3" data-name="Set 3" xmlns="http://www.w3.org/2000/svg" width="16" height="16" viewBox="0 0 16 16">
  <path d="M4.6362,13.667c-.7656,0-1.291-.8272-1.3027-2.3193,0-1.5206.5728-2.3477,1.3691-2.3477.8203,0,1.2974.8472,1.2974,2.2852,0,1.5346-.5005,2.3818-1.3579,2.3818h-.0059ZM4.6665,13.1948c.5371,0,.7959-.73.7959-1.8823,0-1.1104-.2402-1.8403-.7959-1.8403-.4829,0-.7959.7085-.7959,1.8403-.0127,1.1738.3013,1.8823.7896,1.8823h.0063Z"/>
  <g>
    <polyline points="8.9155 12.1353 8.9155 12.9829 7 11.479 8.9155 9.9741 8.9155 10.8438"/>
    <polyline points="12.6948 9 12.6948 11.479 8.3335 11.479" fill="none" stroke="#000" stroke-linecap="round" stroke-miterlimit="3.8637" stroke-width=".7125"/>
  </g>
  <path d="M1.6582,7.667c-.1904,0-.3252-.1431-.3252-.3335s.1401-.3335.3369-.3335c.1953,0,.3301.1377.3301.3335,0,.1904-.1348.3335-.3359.3335h-.0059Z"/>
  <path d="M12.6357,7.667c-.7656,0-1.291-.8267-1.3027-2.3193,0-1.521.5733-2.3477,1.3691-2.3477.8204,0,1.2979.8472,1.2979,2.2852,0,1.5346-.501,2.3818-1.3584,2.3818h-.0059ZM12.6665,7.1948c.5371,0,.7954-.7295.7954-1.8823,0-1.1108-.2402-1.8403-.7954-1.8403-.4829,0-.7964.7085-.7964,1.8403-.0122,1.1738.3018,1.8823.7901,1.8823h.0063Z" opacity=".5"/>
  <path d="M8.6362,7.667c-.7656,0-1.291-.8267-1.3027-2.3193,0-1.521.5728-2.3477,1.3691-2.3477.8203,0,1.2974.8472,1.2974,2.2852,0,1.5346-.5005,2.3818-1.3579,2.3818h-.0059ZM8.6665,7.1948c.5371,0,.7959-.7295.7959-1.8823,0-1.1108-.2402-1.8403-.7959-1.8403-.4829,0-.7959.7085-.7959,1.8403-.0127,1.1738.3013,1.8823.7896,1.8823h.0063Z"/>
  <path d="M4.6362,7.667c-.7656,0-1.291-.8267-1.3027-2.3193,0-1.521.5728-2.3477,1.3691-2.3477.8203,0,1.2974.8472,1.2974,2.2852,0,1.5346-.5005,2.3818-1.3579,2.3818h-.0059ZM4.667,7.1948c.5371,0,.7954-.7295.7954-1.8823,0-1.1108-.2402-1.8403-.7954-1.8403-.4834,0-.7964.7085-.7964,1.8403-.0122,1.1738.3013,1.8823.7896,1.8823h.0068Z"/>
</svg>