<?xml version="1.0" encoding="UTF-8"?>
<svg id="Set_2" data-name="Set 2" xmlns="http://www.w3.org/2000/svg" width="16" height="16" viewBox="0 0 16 16">
  <g>
    <g>
      <polygon points="13.9985 11 13.9985 6 13.332 6 2 6 2 10.333 2 11 13.9985 11" fill="#555"/>
      <polygon points="13.9985 11 13.9985 6 13.332 6 2 6 2 10.333 2 11 13.9985 11" fill="none" stroke="#555" stroke-width="2"/>
    </g>
    <rect x="2" y="6" width="12" height="4.9985" fill="silver"/>
    <rect x="2.667" y="6.6665" width="11.3325" height="4.3325" fill="#fff"/>
  </g>
  <g>
    <path d="M4.6157,7.4336h-.0088l-.5273.2852-.0796-.313.6626-.3545h.3501v3.0332h-.397v-2.6509Z" fill="#4d4d4d"/>
    <path d="M6.1187,10.0845v-.252l.3217-.313c.7749-.7373,1.1294-1.1289,1.1294-1.5864,0-.3081-.1445-.5928-.5971-.5928-.2754,0-.5044.1402-.6441.2569l-.1308-.2896c.2055-.1723.5087-.3076.8588-.3076.6485,0,.9239.4478.9239.8818,0,.5601-.4058,1.0127-1.0454,1.6289l-.2378.2237v.0093h1.3579v.3408h-1.9365Z" fill="#4d4d4d"/>
    <path d="M8.6104,9.6177c.1167.0698.3828.187.6723.187.5225,0,.6904-.3316.6856-.5879-.0044-.4248-.3872-.6069-.7842-.6069h-.2285v-.3081h.2285c.2988,0,.6767-.1539.6767-.5132,0-.2427-.1538-.4575-.5317-.4575-.2427,0-.4761.1074-.6069.2006l-.1118-.2983c.1635-.1172.4711-.2334.7983-.2334.5972,0,.8677.3545.8677.7231,0,.3174-.1914.5835-.5601.7188v.0093c.3735.0698.6768.3501.6768.7744,0,.4853-.3828.9101-1.106.9101-.3408,0-.6392-.1074-.7886-.205l.1119-.313Z" fill="#4d4d4d"/>
  </g>
</svg>