<?xml version="1.0" encoding="UTF-8"?>
<svg id="Set_2" data-name="Set 2" xmlns="http://www.w3.org/2000/svg" width="16" height="16" viewBox="0 0 16 16">
  <path d="M9.249,12c-.0381051,0-.0722051-.0269-.1025051-.0801-.0303-.0537-.0449-.1162-.0449-.1875,0-.0283.0048-.0683.0166-.1181.0117-.0498.0244-.0782.04-.085.415-.1001.875-.3384,1.377-.7139.5029-.3755.7539-.728.7539-1.0566v-.1611c0-.1646-.0362-.2823-.1075-.354-.0722-.0713-.1845-.107-.3359-.107h-5.3925999c-.3037,0-.5273.0674-.6718.2031-.1436.1353-.238295.4102-.2842.8243,0,.0214-.0313.0405-.0957.0586-.0635.018-.1153.0268-.152395.0268-.045905,0-.097605-.0088-.158205-.0268-.0605-.0181-.090795-.0372-.090795-.0586,0-.3433.012695-.6949.035195-1.0567.0244-.3618.0361-.7041.0361-1.0283,0-.3311-.0117-.6753-.0361-1.0332-.0225-.3584-.035195-.7124-.035195-1.062,0-.0215.030295-.041.090795-.0586.0606-.0186.1123-.0269.158205-.0269.037095,0,.086895.0083.147495.0269.0596.0176.0937.0371.1006.0586.0537.4209.1474.6973.2842.8291.136705.1323.3613.1982.6718.1982h5.3925999c.167,0,.2822-.0322.3467-.0966.0654-.0645.0967-.1856.0967-.3643v-.0859c0-.293-.2325-.6534-.6963-1.0826-.4657949-.4287-.9434-.7324-1.4346-.9111-.0234-.0068-.0381-.0332-.0449-.0801-.0088-.0464-.0117-.084-.0117-.1118,0-.0649.0146-.1274.0449-.1875.0303-.061.0644-.0913.1025051-.0913.377.0703.8388949.145,1.3866949.2256.5469.0801,1.002.1377,1.3643051.1728-.0439052.251-.082.6426-.1123052,1.1739-.0293.5317-.0439,1.3676-.0439,2.5097,0,.9761.0146,1.7886.0439,2.439.0303052.6499.0684,1.0786.1123052,1.2871-.3623051.0205-.792.0469-1.291.0806-.4981051.0337-.9854051.0708-1.46.1113Z"/>
</svg>