<?xml version="1.0" encoding="UTF-8"?>
<svg id="Set_3" data-name="Set 3" xmlns="http://www.w3.org/2000/svg" width="16" height="16" xmlns:xlink="http://www.w3.org/1999/xlink" viewBox="0 0 16 16">
  <defs>
    <linearGradient id="White_Black" data-name="White, Black" x1="7.7606937" y1="15.38755" x2="7.7606937" y2="1.44392" gradientUnits="userSpaceOnUse">
      <stop offset="0" stop-color="#fff"/>
      <stop offset="1" stop-color="#000"/>
    </linearGradient>
    <mask id="mask" x="-.2393061" y=".5039" width="15.9999996" height="15.667" maskUnits="userSpaceOnUse">
      <rect x="-.2393061" y=".5039" width="15.9999996" height="15.667" fill="url(#White_Black)"/>
    </mask>
  </defs>
  <path d="M2.8017939,5.5137l-.3809,1.1543h-.4893l1.2461-3.668h.5713061l1.251,3.668h-.5059062l-.3925-1.1543h-1.2998ZM4.0038938,5.1445l-.3643-1.0566c-.0761-.2383-.1308-.457-.1845-.668h-.0166c-.0489.211-.1084.4395-.1787.6641l-.3594,1.0605h1.1035Z"/>
  <g mask="url(#mask)">
    <g>
      <line x1="3.5048938" y1="11.8965" x2="3.5048938" y2="8.334" fill="none" stroke="#000" stroke-linecap="round" stroke-miterlimit="3.8637" stroke-width=".7125"/>
      <polyline points="4.1610938 11.9219 5.0087938 11.9219 3.5048938 13.8379 2 11.9219 2.8690939 11.9219"/>
      <line x1="7.5048937" y1="11.8965" x2="7.5048937" y2="3" fill="none" stroke="#000" stroke-linecap="round" stroke-miterlimit="3.8637" stroke-width=".7125"/>
      <polyline points="8.1610937 11.9219 9.0087937 11.9219 7.5048937 13.8379 6 11.9219 6.8690938 11.9219"/>
      <line x1="11.5048936" y1="11.8965" x2="11.5048936" y2="3" fill="none" stroke="#000" stroke-linecap="round" stroke-miterlimit="3.8637" stroke-width=".7125"/>
      <polyline points="12.1610936 11.9219 13.0087936 11.9219 11.5048936 13.8379 10 11.9219 10.8690937 11.9219"/>
    </g>
  </g>
</svg>