<?xml version='1.0' encoding='UTF-8'?>
<svg xmlns="http://www.w3.org/2000/svg" xmlns:xlink="http://www.w3.org/1999/xlink" id="Set_5" data-name="Set 5" width="16" height="16" viewBox="0 0 16 16">
  <defs>
    <linearGradient id="linear-gradient" x1="4" y1="3.999" x2="5.166" y2="3.999" gradientUnits="userSpaceOnUse">
      <stop offset="0" stop-color="#767676"/>
      <stop offset=".2125458" stop-color="#676767"/>
      <stop offset=".7167534" stop-color="#484848"/>
      <stop offset="1" stop-color="#3d3d3d"/>
    </linearGradient>
    <linearGradient id="linear-gradient-2" x1="6.916" y1="3.5" x2="8.082" y2="3.5" gradientUnits="userSpaceOnUse"><stop offset="0" stop-color="#767676"/><stop offset=".2125458" stop-color="#676767"/><stop offset=".7167534" stop-color="#484848"/><stop offset="1" stop-color="#3d3d3d"/></linearGradient>
    <linearGradient id="linear-gradient-3" x1="9.8345" x2="11" y1="3.999" y2="3.999" gradientUnits="userSpaceOnUse"><stop offset="0" stop-color="#767676"/><stop offset=".2125458" stop-color="#676767"/><stop offset=".7167534" stop-color="#484848"/><stop offset="1" stop-color="#3d3d3d"/></linearGradient>
  </defs>
  <g>
    <g>
      <rect x="4" y="7" width="1" height="1" fill="#c42e00"/>
      <rect x="2" y="7" width="1" height="1" fill="#c42e00"/>
      <rect x="6" y="7" width="1" height="1" fill="#c42e00"/>
      <rect x="8" y="7" width="1" height="1" fill="#c42e00"/>
      <rect x="10" y="7" width="1" height="1" fill="#c42e00"/>
      <rect x="13" y="8" width="1" height="1" fill="#c42e00"/>
      <rect x="8" y="13" width="1" height="1" fill="#c42e00"/>
      <rect x="13" y="10" width="1" height="1" fill="#c42e00"/>
      <rect x="13" y="12" width="1" height="1" fill="#c42e00"/>
      <rect x="10" y="13" width="1" height="1" fill="#c42e00"/>
      <rect x="12" y="7" width="1" height="1" fill="#c42e00"/>
      <rect x="12" y="13" width="1" height="1" fill="#c42e00"/>
      <rect x="6" y="13" width="1" height="1" fill="#c42e00"/>
      <rect x="4" y="13" width="1" height="1" fill="#c42e00"/>
      <rect x="2" y="11" width="1" height="1" fill="#c42e00"/>
      <rect x="2" y="13" width="1" height="1" fill="#c42e00"/>
      <rect x="2" y="9" width="1" height="1" fill="#c42e00"/>
    </g>
    <g>
      <path d="M5.0781,10.7383l-.2929.6094h-.375l.956-1.9366h.4375l.9605,1.9366h-.3882l-.3003-.6094h-.9976ZM6.0005,10.543l-.2798-.5576c-.0576-.126-.0996-.2413-.1416-.3526h-.0122c-.0381.1113-.084.2324-.1382.3496l-.2754.5606h.8472Z"/>
      <path d="M7.1782,9.4717c.1577-.0254.4121-.044.6626-.044.3638,0,.5977.044.7686.1407.1455.0761.2383.1904.2383.3437,0,.1895-.1846.3516-.4766.4248v.0078c.2671.044.5801.1963.5801.4834,0,.166-.0957.293-.2422.3877-.1924.124-.5098.1807-.9678.1807-.251,0-.4424-.0117-.563-.0235v-1.9013ZM7.5405,10.2637h.3301c.3794,0,.605-.1397.605-.3262,0-.2236-.2466-.3164-.6138-.3164-.167,0-.2627.0098-.3213.0166v.626ZM7.5405,11.1895c.0752.0087.1753.0117.3047.0117.3755,0,.7222-.0938.7222-.377,0-.2617-.3301-.373-.7266-.373h-.3003v.7383Z"/>
      <path d="M11.4019,11.3184c-.1309.0468-.4014.0927-.7437.0927-.7925,0-1.3853-.3447-1.3853-.9834,0-.6093.5967-1.0166,1.4688-1.0166.3462,0,.5723.0518.6685.0869l-.0923.2032c-.1333-.0449-.3296-.0801-.564-.0801-.6587,0-1.0976.291-1.0976.7988,0,.4776.3969.7783,1.0776.7783.2246,0,.4507-.0322.5962-.08l.0718.2002Z"/>
    </g>
  </g>
  <g>
    <g>
      <g opacity=".5">
        <rect x="4" y="2.998" width="1.166" height="2.002" stroke="#404040" stroke-width="2"/>
        <rect x="4" y="2.998" width="1.166" height="2.002" fill="url(#linear-gradient)"/>
      </g>
      <g opacity=".5">
        <rect x="6.916" y="2" width="1.166" height="3" stroke="#404040" stroke-width="2"/>
        <rect x="6.916" y="2" width="1.166" height="3" fill="url(#linear-gradient-2)"/>
      </g>
      <g opacity=".5">
        <rect x="9.8345" y="2.998" width="1.1655" height="2.002" stroke="#404040" stroke-width="2"/>
        <rect x="9.8345" y="2.998" width="1.1655" height="2.002" fill="url(#linear-gradient-3)"/>
      </g>
    </g>
    <rect x="2" y="5" width="11" height="1"/>
  </g>
</svg>