<?xml version="1.0" encoding="UTF-8"?>
<svg id="Icons_-_16x16" data-name="Icons - 16x16" xmlns="http://www.w3.org/2000/svg" width="16" height="16" xmlns:xlink="http://www.w3.org/1999/xlink" viewBox="0 0 16 16">
  <defs>
    <mask id="mask" x="1" y=".4409" width="13.9940952" height="14.5591" maskUnits="userSpaceOnUse">
      <path d="M6.8993954,8.0151c0-.6167.501-1.2441,1.1182-1.3994.6172-.1557,1.1162.2188,1.1162.836,0,.6167-.499,1.2436-1.1162,1.3994-.6172.1557-1.1182-.2183-1.1182-.836ZM1.6308955,9.3452c0-3.5268,2.8602999-7.1069,6.3866998-7.9971,3.5272999-.8891,6.3846998,1.2466,6.3846998,4.773s-2.8573999,7.1069-6.3846998,7.9976c-3.5263999.8896-6.3866998-1.2471-6.3866998-4.7735Z" fill="#fff" fill-rule="evenodd"/>
    </mask>
    <mask id="mask-1" x="1" y=".4409" width="13.9940952" height="14.5591" maskUnits="userSpaceOnUse">
      <path d="M8.0175954,1.6685c3.3505999-.8462,6.0654046,1.1845,6.0654046,4.5346,0,3.3506-2.7148047,6.751-6.0654046,7.5972-3.3505954.8457-6.0663998-1.1846-6.0663998-4.5357,0-3.3496,2.7158045-6.7509,6.0663998-7.5961Z" fill="#fff"/>
    </mask>
    <linearGradient id="New_Gradient_7" data-name="New Gradient 7" x1="2.7967844" y1="3.5066968" x2="13.2378179" y2="11.961679" gradientUnits="userSpaceOnUse">
      <stop offset="0" stop-color="#fff"/>
      <stop offset="1" stop-color="#ccc"/>
    </linearGradient>
  </defs>
  <path d="M6.8993954,8.0151c0-.6167.501-1.2441,1.1182-1.3994.6172-.1557,1.1162.2188,1.1162.836,0,.6167-.499,1.2436-1.1162,1.3994-.6172.1557-1.1182-.2183-1.1182-.836ZM1.6308955,9.3452c0-3.5268,2.8602999-7.1069,6.3866998-7.9971,3.5272999-.8891,6.3846998,1.2466,6.3846998,4.773s-2.8573999,7.1069-6.3846998,7.9976c-3.5263999.8896-6.3866998-1.2471-6.3866998-4.7735Z" fill="#b2b2b2" fill-rule="evenodd" stroke="#000" stroke-miterlimit="3.8637"/>
  <g mask="url(#mask)">
    <g>
      <path d="M6.8993954,8.0151c0-.6167.501-1.2441,1.1182-1.3994.6172-.1557,1.1162.2188,1.1162.836,0,.6167-.499,1.2436-1.1162,1.3994-.6172.1557-1.1182-.2183-1.1182-.836ZM1.6308955,9.3452c0-3.5268,2.8602999-7.1069,6.3866998-7.9971,3.5272999-.8891,6.3846998,1.2466,6.3846998,4.773s-2.8573999,7.1069-6.3846998,7.9976c-3.5263999.8896-6.3866998-1.2471-6.3866998-4.7735Z" fill="#b2b2b2" fill-rule="evenodd"/>
      <g mask="url(#mask-1)">
        <g>
          <path d="M8.0175954,1.6685c3.3505999-.8462,6.0654046,1.1845,6.0654046,4.5346,0,3.3506-2.7148047,6.751-6.0654046,7.5972-3.3505954.8457-6.0663998-1.1846-6.0663998-4.5357,0-3.3496,2.7158045-6.7509,6.0663998-7.5961Z" fill="url(#New_Gradient_7)"/>
          <g>
            <polygon points="7.9862954 7.7339 11.4335953 .4409 12.6728952 1.0977 7.9862954 7.7339" fill="#b2d6e8" fill-rule="evenodd"/>
            <polygon points="13.8007952 2.0747 7.9862954 7.7339 12.6728952 1.0977 13.8007952 2.0747" fill="#f6f8b2" fill-rule="evenodd"/>
            <polygon points="7.9862954 7.7339 14.4765952 3.2568 13.8007952 2.0747 7.9862954 7.7339" fill="#c8e9c2" fill-rule="evenodd"/>
            <polygon points="7.9862954 7.7339 14.9257952 4.6523 14.4765952 3.2568 7.9862954 7.7339" fill="#e5c9b0" fill-rule="evenodd"/>
            <polygon points="7.9862954 7.7339 14.9940952 6.1914 14.9257952 4.6523 7.9862954 7.7339" fill="#fff" fill-rule="evenodd"/>
          </g>
          <g>
            <polygon points="8.0087954 7.7061 4.5604954 15 3.3222955 14.3433 8.0087954 7.7061" fill="#b2d6e8" fill-rule="evenodd"/>
            <polygon points="2.1942955 13.3662 8.0087954 7.7061 3.3222955 14.3433 2.1942955 13.3662" fill="#f6f8b2" fill-rule="evenodd"/>
            <polygon points="8.0087954 7.7061 1.5175955 12.1841 2.1942955 13.3662 8.0087954 7.7061" fill="#c8e9c2" fill-rule="evenodd"/>
            <polygon points="8.0087954 7.7061 1.0683955 10.7871 1.5175955 12.1841 8.0087954 7.7061" fill="#e5c9b0" fill-rule="evenodd"/>
            <polygon points="8.0087954 7.7061 1 9.25 1.0683955 10.7871 8.0087954 7.7061" fill="#fff" fill-rule="evenodd"/>
          </g>
        </g>
      </g>
      <path d="M8.0175954,5.4985c1.2344046-.3105,2.2344046.4375,2.2344046,1.6719,0,1.2349-1,2.4868-2.2344046,2.7984-1.2344.312-2.2353999-.4356-2.2353999-1.67,0-1.2348,1.001-2.4883,2.2353999-2.8003Z" fill="#999" stroke="#666" stroke-miterlimit="3.8637" stroke-width="1.05"/>
      <path d="M6.8993954,8.0151c0-.6167.501-1.2441,1.1182-1.3994.6172-.1557,1.1162.2188,1.1162.836,0,.6167-.499,1.2436-1.1162,1.3994-.6172.1557-1.1182-.2183-1.1182-.836ZM1.6308955,9.3452c0-3.5268,2.8602999-7.1069,6.3866998-7.9971,3.5272999-.8891,6.3846998,1.2466,6.3846998,4.773s-2.8573999,7.1069-6.3846998,7.9976c-3.5263999.8896-6.3866998-1.2471-6.3866998-4.7735Z" fill="none" fill-rule="evenodd"/>
    </g>
  </g>
</svg>