<?xml version='1.0' encoding='UTF-8'?>
<svg xmlns="http://www.w3.org/2000/svg" xmlns:xlink="http://www.w3.org/1999/xlink" width="16" height="16" viewBox="0 0 16 16">
  <defs>
    <linearGradient id="New_Gradient_11" data-name="New Gradient 11" x1="11.4852086" y1="2.1662291" x2="3.9380233" y2="11.4862267" gradientTransform="translate(0 -1.0785) rotate(13.9984894) scale(1.0306069 .9703021) skewX(13.2089399)" gradientUnits="userSpaceOnUse">
      <stop offset="0" stop-color="#d9d9d9"/>
      <stop offset=".522476" stop-color="#f2f2f2"/>
      <stop offset="1" stop-color="#ccc"/>
    </linearGradient>
    <linearGradient id="New_Gradient_11-2" data-name="New Gradient 11" x1="7.9726084" y1="2.2473779" x2="3.2553774" y2="8.0726731" gradientTransform="translate(0 -1.0785) rotate(13.9984894) scale(1.0306069 .9703021) skewX(13.2089399)" gradientUnits="userSpaceOnUse"><stop offset="0" stop-color="#d9d9d9"/><stop offset=".522476" stop-color="#f2f2f2"/><stop offset="1" stop-color="#ccc"/></linearGradient>
    <linearGradient id="New_Gradient_7" data-name="New Gradient 7" x1="13.7576989" y1="11.9320107" x2="2.3566154" y2="2.0212" gradientTransform="translate(0 -1.0785) rotate(13.9984894) scale(1.0306069 .9703021) skewX(13.2089399)" gradientUnits="userSpaceOnUse">
      <stop offset="0" stop-color="#e5e5e5"/>
      <stop offset="1" stop-color="#ccc"/>
    </linearGradient>
    <mask id="mask" x="3.8369" y="4.3345" width="10.6245" height="9.5532" maskUnits="userSpaceOnUse">
      <polygon points="12.5015 4.7793 3.8369 4.7803 3.8369 10.9805 12.5015 11.0044 12.5015 4.7793" fill="#fff" fill-rule="evenodd"/>
    </mask>
    <linearGradient id="New_Gradient_192" data-name="New Gradient 192" x1="13.2395483" y1="9.7323584" x2="3.0993884" y2="4.111576" gradientTransform="translate(0 -1.0785) rotate(13.9984894) scale(1.0306069 .9703021) skewX(13.2089399)" gradientUnits="userSpaceOnUse">
      <stop offset="0" stop-color="#01326e"/>
      <stop offset="1" stop-color="#012859"/>
    </linearGradient>
    <radialGradient id="New_Gradient_193" data-name="New Gradient 193" cx="4.1613954" cy="-10.8146835" fx="4.1613954" fy="-10.8146835" r="9.1037419" gradientTransform="translate(3.1020825 14.4006) rotate(13.2056281) scale(.9402639 .8370639) skewX(11.7992375)" gradientUnits="userSpaceOnUse">
      <stop offset="0" stop-color="#23468e"/>
      <stop offset="1" stop-color="#012859"/>
    </radialGradient>
    <radialGradient id="radial-gradient" cx="-109.5322502" cy="-106.2917791" fx="-109.5322502" fy="-106.2917791" r="6.7317226" gradientTransform="translate(109.9639805 106.7188807) scale(.9187)" gradientUnits="userSpaceOnUse">
      <stop offset="0" stop-color="#fff"/>
      <stop offset=".207865" stop-color="#b7e9ff"/>
      <stop offset=".47191" stop-color="#3c97f6"/>
      <stop offset=".668539" stop-color="#032c87"/>
      <stop offset="1" stop-color="#0342d3"/>
    </radialGradient>
    <mask id="mask-1" x="6.8042" y="6.8115" width="9.1555" height="9.6118788" maskUnits="userSpaceOnUse">
      <path d="M6.8042,10.9111c0-2.2646,1.835-4.0986,4.0986-4.0996,2.2632,0,4.0972,1.835,4.0972,4.0996,0,2.2622-1.834,4.0962-4.0972,4.0962-2.2636,0-4.0986-1.834-4.0986-4.0962Z" fill="#fff" fill-rule="evenodd"/>
    </mask>
    <radialGradient id="radial-gradient-2" cx="9.4252168" cy="9.17271" fx="9.4252168" fy="9.17271" r="5.8345542" gradientUnits="userSpaceOnUse">
      <stop offset="0" stop-color="#dfeaeb"/>
      <stop offset=".303371" stop-color="#b7e9ff"/>
      <stop offset=".52809" stop-color="#3c97f6"/>
      <stop offset=".825843" stop-color="#032c87"/>
      <stop offset="1" stop-color="#0342d3"/>
    </radialGradient>
    <mask id="mask-2" x="9.6552713" y="9.1873405" width="6.3044287" height="6.7282249" maskUnits="userSpaceOnUse">
      <path d="M14.6992,10.5371c0,2.3775-1.438,4.0435-3.7983,4.2095-.2505.0171-.2862-.1997-.0415-.2564,2.0078-.4756,3.3657-2.6967,3.5874-3.976.0234-.2959.2524-.2281.2524.0229Z" fill="#fff"/>
    </mask>
    <linearGradient id="linear-gradient" x1="10.5295411" y1="7.7037806" x2="10.0679391" y2="16.5116711" gradientUnits="userSpaceOnUse">
      <stop offset="0" stop-color="#65bd7b"/>
      <stop offset=".0074065" stop-color="#60bb74"/>
      <stop offset=".0565792" stop-color="#45af4f"/>
      <stop offset=".1023037" stop-color="#32a734"/>
      <stop offset=".1428936" stop-color="#27a224"/>
      <stop offset=".174157" stop-color="#23a11f"/>
      <stop offset=".2984012" stop-color="#1c871d"/>
      <stop offset=".4981417" stop-color="#14651b"/>
      <stop offset=".6872815" stop-color="#0e4c19"/>
      <stop offset=".8596362" stop-color="#0b3d18"/>
      <stop offset="1" stop-color="#0a3818"/>
    </linearGradient>
    <mask id="mask-3" x="7.3437372" y="7.7859138" width="8.6159628" height="8.4866958" maskUnits="userSpaceOnUse">
      <path d="M7.5972,8.1597c.0244.0654-.0801.1084-.0093.1172.1582.0234.2475-.0948.4058-.0723.0522.0063.0776.0176.1293.0298-.0151.1045.0215.1748.0069.2798-.0235.1577-.1519.2124-.1748.3711-.0137.0966.039.1577.0249.2553-.0059.0449-.0327.0684-.0459.1084l.0195-.1352c-.0303-.0034-.0425-.021-.0737-.0264-.1543-.0215-.1201.2105-.2012.3403-.1528.2471-.2827.3814-.3227.6675-.0596.4204.1206.6675.061,1.0889-.022.1567.0654.2461.1616.3745.023.0029.0469.0024.063-.0064-.0269-.3525-.0854-.5371-.0747-.8837.0898.1201.04.2353.1006.3667.126.2578.209.4043.2876.6831.0283.1005-.0337.1909.022.2793.1196.1845.1752.331.3662.4492.1059.0649.2207.001.3081.0903.1342.1377.1572.3281.3491.355.0976.0132.1587-.0391.2563-.0249.1162.0156.044.1826.0894.2881.041.0947.1601.061.2432.126.0986.0795.1152.2158.2426.2343.0762.0103.1035-.0786.1787-.0678.1192.017.0806.1875.0635.3076-.0337.2324-.313.2622-.3447.4961-.0064.04.0366.0625.0303.103-.0088.0601-.086.0723-.0952.1323-.023.1651.1049.2403.1918.3789.0791.1226.0699.2437.1827.3335.1596.1255.4248.1392.3979.3379-.0478.335-.3476.397-.5259.6846.0323.02.0489.0371.086.0434.4023.0567.5986-.2221.9839-.352.2617-.0869.4404-.0493.684-.1802.1289-.0664.1431-.1943.2676-.2681.2588-.1557.4492-.1943.6558-.4145.1308-.1387.1103-.2944.2036-.4605.1323-.2382.2925-.3188.4014-.5722-.0318-.02-.0464-.0523-.0865-.0586l-.2788-.0391c-.1723-.0229-.3003-.1762-.2778-.3476-.1885-.0323-.2993-.0401-.4917-.066-.2437-.0346-.2944-.3017-.5386-.3364-.105-.0146-.1523.1006-.2573.0864-.1387-.0195-.2061-.0908-.3438-.1103-.0869-.0112-.1289.0659-.166.145l-.0625.0069c-.0146-.0562-.0009-.0997.0069-.1597.0029-.023-.0347-.0244-.0401-.0435-.1748.0479-.2324.2432-.4135.2173-.045-.0063-.0616-.0542-.1065-.061-.082-.0113-.1279.0429-.2109.0322-.1543-.022-.3033-.1313-.2818-.2852.0088-.0556.0708-.0698.0786-.1264.0201-.1387-.0898-.2276-.2192-.292l-.0933.0176-.1367-.0191c.0044-.0268-.0083-.0434-.0053-.0698.0151-.0972.1445-.102.1586-.2002.0123-.085.0015-.1401.0313-.2246l-.2471-.0342c-.1054.0645-.1577.1924-.2846.1743-.2266-.0327-.3628-.2578-.3306-.4834.0366-.2671.1753-.5654.4414-.5288.0898.0127.1294.065.2187.0777.065.0088.0845-.0801.1485-.0708.1684.0239.3686.1015.3442.2705-.021.1543.0894.2617.2295.33.0137-.0361.0205-.0585.0293-.0947l-.04-.4887c.1338-.23.4585-.1949.4941-.4561l.0244-.1724c.0269-.1987.2515-.29.4502-.2617-.0127-.0752-.06-.1167-.0498-.1914.0122-.0815.105-.0923.1836-.1118,0,.0351,0,.0586.0029.0923.1817-.0313.376-.0606.4019-.2422.0029-.0215-.0352-.0239-.04-.043-.0596.0142-.1001.0313-.1636.022-.0869-.0112-.0581-.1348-.0391-.2188-.0512-.0078-.0825-.0083-.1357-.0044.0371-.059.0932-.0712.1645-.0839l.086.0424c.0483-.0205.082-.0385.1308-.0576.0157.0708-.0058.1665.0699.1778l.3276.0454c.022-.0811-.0908-.0962-.1475-.1582-.0493-.0523.0117-.1284-.0342-.189-.0771-.102-.1914-.0835-.3007-.1494-.1861-.1143-.1861-.3672-.4034-.398-.0424-.0058-.0581.0538-.0986.0484-.1455-.0205-.1689-.1929-.3154-.2129-.0444-.0073-.0737.0078-.1167.0137.0034.0771.0605.1172.0493.1914-.0171.1264-.2002.1211-.2187.249-.0108.0776.0297.1221.0336.2036-.1181-.0059-.0839-.1694-.164-.2539-.1372-.1416-.4453-.1001-.4165-.2993.0386-.2813.5166-.1909.5556-.4736.0035-.0215-.0224-.0337-.0229-.0528.0356-.0063.0561-.0229.0942-.0171.1201.0171.1773.0977.2315.2046-.0713.0215-.1177.0142-.187.0342.1543.0957.3022.0742.4116.2202l.1479-.0713c-.0307-.0537-.0556-.0888-.104-.1299.0313-.0068.0591-.0107.0918-.0019-.0718-.1328-.2109-.1338-.3364-.2202-.126-.0874-.1855-.1787-.3398-.2007l.0107-.0718c.0127-.0928.0752-.1265.1357-.1992-.04-.0195-.0634-.0391-.1084-.0454-.0986-.0142-.2216-.0083-.2353.0893-.0088.0601.0498.0796.0737.1324-.0439.0337-.0737.0551-.1059.0932.0337.0313.0673.0669.061.1148-.0054.0346-.0396.0376-.0688.0522-.0582-.1035-.1294-.1709-.1124-.2915-.0537.0044-.123.0049-.1308.0586-.0083.063.04.0928.0708.148-.0537.0229-.0864.0493-.1475.0395l-.1308-.0181c.0151-.0356.0517-.0449.0576-.0874l.021-.1538c-.0864-.0039-.1328-.0263-.2202-.0385-.0708-.0108-.1577.0122-.1685.083-.0102.0796.0664.1049.1143.1694-.0367.0137-.0557.0415-.0972.0366-.0786-.0122-.0508-.1264-.1138-.1728-.082-.066-.165-.0196-.2715-.024.0064-.0976-.0166-.2163-.1137-.2299-.2735-.0386-.4322.0776-.6924.1792-.1939.0752-.3623.0517-.5156.187ZM9.4331,9.7046c.1372-.0493.2207-.1221.3657-.1016.0938.0127.086.1309.1587.1866.0996.08.2002.0703.2832.1625-.0669.0679-.1123.1153-.2031.1407.0103-.083-.0298-.1739-.1118-.1846-.1353-.019-.0718.2349-.1953.2939-.0196-.1064-.0367-.1738-.0215-.2792.0073-.0562.0498-.084.0923-.1167-.0459-.0293-.0703-.0708-.1265-.0787-.0752-.0107-.166-.0195-.2417-.0229ZM10.4419,10.0493l.0859.043c-.1274.1391-.2734.1987-.4614.1728l-.082-.0112c.1172-.1523.2593-.1894.4575-.2046ZM10.5825,12.5317c-.0405-.0063-.0097-.0664-.0122-.1049.0396-.0064.064-.0142.1069-.0157,0-.0351,0-.0571-.0029-.0918.0259.0025.0386-.0107.0659-.0063.1529.021.2242.0918.3765.1294-.1216.1753-.3271.1186-.5342.0893ZM9.8418,12.1362c-.0786-.0156-.1421-.0464-.1631-.1255.1026-.0166.1567-.0244.2583-.0102.1397.02.2124.0718.334.1387.0913.0503.2344.0639.2202.1689-.0078.0645-.0864.0723-.1504.0635l-.1308-.0186c.0161-.0322.0337-.0571.0576-.083-.1133-.1006-.187-.1723-.3369-.1943-.0264-.0034-.065.0566-.0889.0605ZM10.7402,8.0352c.1426.1005.2193.2143.3936.2187.0195.1108.1147.1372.1885.2153.1333.1451.2114.2745.4052.3018.0342.0049.0552-.0029.0894-.0029-.0518-.1255-.1738-.1812-.1553-.3164.0117-.0826.0923-.1099.1035-.1919.0196-.1397-.1884-.1299-.3081-.1978-.1714-.0913-.2592-.2041-.4546-.2324-.1767-.0239-.3525-.002-.4355.1548.0474.0176.1201.0464.1733.0508Z" fill="#fff" fill-rule="evenodd"/>
    </mask>
    <radialGradient id="radial-gradient-3" cx="8.6435323" cy="8.7805546" fx="8.6435323" fy="8.7805546" r="7.4928489" gradientUnits="userSpaceOnUse">
      <stop offset="0" stop-color="#d3edd5"/>
      <stop offset=".0881577" stop-color="#ceebd0"/>
      <stop offset=".1888042" stop-color="#c1e5c2"/>
      <stop offset=".2955934" stop-color="#aadbab"/>
      <stop offset=".4067144" stop-color="#8bce8b"/>
      <stop offset=".5211732" stop-color="#64bd62"/>
      <stop offset=".6367876" stop-color="#34a830"/>
      <stop offset=".674157" stop-color="#23a11f"/>
      <stop offset=".6869737" stop-color="#209b1c"/>
      <stop offset=".7628023" stop-color="#128010"/>
      <stop offset=".8398735" stop-color="#086d07"/>
      <stop offset=".9182832" stop-color="#016101"/>
      <stop offset="1" stop-color="#005e00"/>
    </radialGradient>
    <mask id="mask-4" x="9.6552713" y="9.1873405" width="6.3044287" height="6.7282249" maskUnits="userSpaceOnUse">
      <path d="M14.6992,10.5371c0,2.3775-1.438,4.0435-3.7983,4.2095-.2505.0171-.2862-.1997-.0415-.2564,2.0078-.4756,3.3657-2.6967,3.5874-3.976.0234-.2959.2524-.2281.2524.0229Z" fill="#fff"/>
    </mask>
  </defs>
  <g isolation="isolate">
    <g id="Set_1" data-name="Set 1">
      <g>
        <path d="M2.7485,12.1201s-.748-.5771-.748-1.5732V3.6597s-.0288-.6416.4663-.6577c.4932-.0171,9.2002.0737,9.6523.0659.5977-.0098,1.1753.5927,1.1753.5927l-.0615.0494h.103v8.4228l-10.5566-.0283-.0308.0156Z" fill="url(#New_Gradient_11)" stroke="#000" stroke-linecap="round" stroke-linejoin="round" stroke-width="2"/>
        <path d="M2.7485,12.1201s-.748-.5771-.748-1.5732V3.6597s-.0288-.6416.4663-.6577c.4932-.0171,9.2002.0737,9.6523.0659.5977-.0098,1.1753.5927,1.1753.5927L2.7485,12.1201Z" fill="url(#New_Gradient_11-2)" fill-rule="evenodd"/>
        <polygon points="13.3359 3.71 2.7793 3.7104 2.7793 12.1045 13.3359 12.1328 13.3359 3.71" fill="url(#New_Gradient_7)" fill-rule="evenodd"/>
        <g mask="url(#mask)">
          <g>
            <polygon points="12.5015 4.7793 3.8369 4.7803 3.8369 10.9805 12.5015 11.0044 12.5015 4.7793" fill="url(#New_Gradient_192)" fill-rule="evenodd"/>
            <path d="M11.9253,4.3345s-2.7471.729-4.2398,3.4487c-1.4926,2.7192-.4687,6.1045-.4687,6.1045l7.2446-.2319-.3862-9.2652-2.1499-.0561Z" fill="url(#New_Gradient_193)" fill-rule="evenodd"/>
          </g>
        </g>
        <path d="M2.5811,11.7983V3.6733c0-.0566.0795-.1386.1352-.1386l10.2534-.0396c.2749-.0014.4507.4556.1773.457l-10.232-.0415v8.1001c0,.2803-.3339.0679-.3339-.2124Z" fill="#fff"/>
        <polyline points="2.915 12.0107 2.915 3.9106 13.1909 3.8809" fill="none" stroke="#b2b2b2" stroke-linecap="round" stroke-linejoin="round" stroke-width=".5807"/>
        <polyline points="3.9097 11.0376 12.5332 11.0723 12.5332 4.8325" fill="none" stroke="#fff" stroke-linecap="round" stroke-miterlimit="3.8637" stroke-width=".6999"/>
        <polyline points="3.811 10.8457 3.811 4.7944 12.3662 4.7622" fill="none" stroke="gray" stroke-linecap="round" stroke-linejoin="round" stroke-width=".6873"/>
        <polygon points="5.0366 5.6025 6.6509 6.582 5.0366 7.584 4.7505 7.1753 5.6958 6.5884 4.7505 6.0156 5.0366 5.6025" fill="#fff"/>
      </g>
      <g>
        <path d="M6.8042,10.9111c0-2.2646,1.835-4.0986,4.0986-4.0996,2.2632,0,4.0972,1.835,4.0972,4.0996,0,2.2622-1.834,4.0962-4.0972,4.0962-2.2636,0-4.0986-1.834-4.0986-4.0962Z" fill="url(#radial-gradient)" fill-rule="evenodd" stroke="#000" stroke-miterlimit="3.8637" stroke-width="2"/>
        <g mask="url(#mask-1)">
          <g>
            <path d="M6.8042,10.9111c0-2.2646,1.835-4.0986,4.0986-4.0996,2.2632,0,4.0972,1.835,4.0972,4.0996,0,2.2622-1.834,4.0962-4.0972,4.0962-2.2636,0-4.0986-1.834-4.0986-4.0962Z" fill="url(#radial-gradient-2)" fill-rule="evenodd"/>
            <g mask="url(#mask-2)">
              <g>
                <path d="M14.6992,10.5371c0,2.3775-1.438,4.0435-3.7983,4.2095-.2505.0171-.2862-.1997-.0415-.2564,2.0078-.4756,3.3657-2.6967,3.5874-3.976.0234-.2959.2524-.2281.2524.0229Z" fill="#3c97f6"/>
                <path d="M14.8101,10.5547c0,2.3784-1.438,4.0444-3.7979,4.2104-.25.0162-.2866-.1997-.04-.2568,2.0058-.4741,3.3642-2.6973,3.5859-3.9766.0225-.2949.252-.2285.252.023Z" fill="none" stroke="#2b76b4" stroke-miterlimit="3.8637" stroke-width="2.2992"/>
                <path d="M14.7544,10.5464c0,2.3765-1.438,4.0434-3.7964,4.2095-.2515.017-.2881-.1997-.043-.2569,2.0079-.4736,3.3667-2.6972,3.5874-3.9756.024-.2959.252-.229.252.023Z" fill="none" stroke="#1459a5" stroke-miterlimit="3.8637" stroke-width="1.1497"/>
                <path d="M14.6992,10.5371c0,2.3775-1.438,4.0435-3.7983,4.2095-.2505.0171-.2862-.1997-.0415-.2564,2.0078-.4756,3.3657-2.6967,3.5874-3.976.0234-.2959.2524-.2281.2524.0229Z" fill="none" stroke="#1d3f99" stroke-miterlimit="3.8637"/>
              </g>
            </g>
            <path d="M9.4272,8.0752l.0328.0337c.0625.0557.1318.164.0078.2119l-.0332.0195c-.1719.0952-.2242-.0488-.2749-.1665-.0728-.0586-.3238.0708-.3116-.1147.0015-.0254.0015-.1001-.0224-.1206-.3003-.042-.5205.1523-.8008.2168-.0986.0244-.207.0346-.2944.0942-.0059.0342-.0215.062-.0425.0908-.1192-.0166-.1035-.0556-.0542-.1215.1582.0219.1616-.1236.5405-.043.1338.0288.0903.4385.0415.5298-.1269.2426-.1416.1211-.105.3955.0113.0859-.0044.1367-.0444.209-.0435.1279-.1787.1128-.2007.017l-.0146.0577c-.0113.0424-.0269.0923-.0557.1377-.2891.4638-.3862.5459-.2783,1.1396.0351.1992.0596.3745.0308.5776-.0127.086.0253.1446.0732.209l.0684.0909-.0616-.0367c-.0312.0034-.0547.1245-.0576.0987-.0288-.357-.0864-.5435-.0752-.8946.0049-.1924.2305-.1401.2647.1709.0048.0523.0073.1065.0298.1543.1108.232.2226.4522.2939.7012.0171.0601-.0078.2241.0088.25.103.1587.166.314.3345.4189.0752.0464.2065-.02.3281.1045.1245.1289.1631.3682.3789.3155.4233-.1035.2768.1958.3364.3344.1177.0723.1743.0088.293.1734.0264.0376.0674.1177.1123.1255.0693-.0323.0771-.0806.1787-.0669.1733.0239.1812.1958.165.3252l-.0141.0971c-.0376.2705-.3081.3174-.3438.4805.0645.1123.0235.1846-.0659.2598-.0107.1001.1245.2192.1768.3017.0561.0869.0835.2481.1601.3067.1577.1259.4746.146.4346.4331-.0459.3242-.271.4111-.4575.6167.3081.0083.582-.2554.8696-.3521.2217-.0727.4605-.0605.6675-.1723.0893-.0464.1367-.191.2646-.2671.2588-.1538.6309-.2525.7251-.5742.0274-.0894.0508-.1802.0957-.2632.1001-.1787.2613-.3067.3589-.4834-.2549-.0357-.5737-.0596-.6128-.3975-.3467-.0503-.4873.0015-.7314-.249-.0342-.0352-.1572-.1646-.2271-.1358-.0522.0308-.0346.0191-.0761.045-.19.1152-.3311-.0459-.5088-.0713-.0957.0698-.0157.1323-.2032.1523-.1079.0117-.1259-.1162-.1186-.1899l.0059-.0376c-.0147-.0152-.0245-.0322-.0303-.0528.0415.024.083.0494.125.0733-.1743.0478-.3242.3765-.5606.1655-.0713-.0073-.1162.0391-.2109.0264-.2578-.0371-.5127-.312-.2993-.522.022-.0732-.0166-.1186-.1245-.1753l-.0611.0103-.0312.0009-.1358-.019-.0859-.1143c-.02-.0922.0122-.1601.0835-.2163.0386-.0278.0215-.0146.0547-.04.0171-.0508.019-.0879.0215-.1201l-.0967-.0337-.0264.0244c-.0869.083-.1611.1631-.2988.1445-.7466-.1049-.3901-1.497.2808-1.164.0249.0127.0429.02.062.0259.1963-.1861.6318.0512.5952.3173-.0059.0494.0093.0957.0493.1387-.0303-.3823-.123-.4893.2266-.6728l.0786-.0401c.1811-.0942.1523-.1416.1811-.3359.0308-.2188.2207-.3262.4073-.3482-.0425-.1567.0478-.2519.1933-.2861l.0606-.0151c.0615-.0142.1108.0151.123.0688.0732-.0161.1602-.0361.1909-.0923-.0107-.0151-.0205-.0302-.0234-.0459.04.0235.0806.0489.1221.0738-.1685.0415-.3702.06-.3472-.1997-.2061.0151-.1416-.2203.0742-.273l.0566-.0107c.0333-.0064.0792.0166.107.0297.1875-.0854.2134-.06.2397.1348l.0313.0054c-.023-.0547-.0064-.0987-.0098-.1529-.0366-.0458-.206-.08-.271-.1191-.1455-.0884-.2427-.3486-.3398-.3779-.1016.0879-.2266.0254-.3081-.0586-.043-.0469-.0259-.0283-.0635-.0708-.0625-.064-.0811-.0361-.1567-.0269l.0893-.1074c.0059.1201.148.2354-.0679.3823l-.041.0269-.0337.019c-.0376.0274-.0341.043-.0205.0909l.0152.0517c.0605.2495-.2159.2329-.2842.0117-.0557-.1811-.0908-.1528-.2744-.2177-.3526-.125-.2359-.4429.0288-.5601.084-.0371.2763-.0835.3081-.1709-.1011-.1787.2944-.3301.5005.0786.0151.0303.0156.0601.0049.0855.0209.0068.0415.0161.061.0278-.0039-.02-.0039-.0386.0039-.0552l-.0825-.0366c-.1431-.0635-.2686-.2261-.4077-.2451-.1446-.021-.0743-.2505-.023-.3213-.0195,0-.0366.0015-.0493.0054.0571.0698.0859.1547.022.2021l-.0269.0225c.1099.2011-.1675.3286-.2363.2055-.0684-.122-.145-.1992-.124-.3554l.1079.1162c.1172.1723-.0904.2656-.229.2466-.1109-.0166-.3252-.0386-.1773-.2095l.0205-.0225.0054-.0425c-.0459-.0107-.1187-.0351-.1646-.0229ZM7.5347,8.229l.0249-.104c.1782-.1558.3525-.1294.5468-.2061.2344-.0913.8672-.4145.939.0381l.0415-.0049c.0591-.0034.1279.002.1973.0557.0444.0342.0649.085.0805.1372.0098-.0054.0196-.0107.0303-.0141l-.0449.1557c-.0772-.103-.2212-.1953-.0874-.3423.123-.1386.3013-.0429.4497-.0337.1533.0074.1001.2896.021.3711-.0146.0137-.1675-.1396-.0923-.1303.1607.0229.1094.0361.2232-.0142l-.0469.1436c-.0601-.105-.1821-.2774.0351-.3423.0196-.0049.0396-.0098.0596-.0113l.0454-.0039c.1397-.0107.0884.1309.127.2076.0219.0434.0532.0849.082.1357l-.103-.0312c-.0786-.0772-.1138-.1031-.0142-.1954-.1645-.2319.1768-.4004.459-.2504.1646.0883-.0527.2089-.0781.2856.1391.0508.2285.1743.3618.2358.0976.042.394.1914.2934.3306.085.1484-.2309.2974-.3105.1943-.0786-.1045-.2715-.125-.3857-.1933-.1382-.084-.0303-.1763.0664-.1948-.0108-.0079-.021-.0137-.0318-.0186-.0742.3237-.6098.2808-.5473.4683.059.0561.2636.0664.3857.1909.0532.0556.0693.1269.0918.1972.0064.023.0029.023.0029.0245-.0781-.0381-.0815.1953-.1118.0712l-.0127-.0444c-.0381-.1294-.0107-.2373.1021-.314l.0415-.0263.0327-.02c.0644-.043-.0171-.1294-.022-.2022-.0083-.1719.3028-.1396.4185-.02.0464.0527.0215.0244.0635.0708.0126.0127.0258.0259.0429.0352.2036-.1763.3848.1577.482.29.0244.0351.0498.06.083.0801.1743.1045.3911.0571.3623.3618.0844.0718.2075.0942.164.249-.0415.1465-.5293.0923-.5786-.104-.0527.0225-.102-.0024-.1479-.0254-.0323.0078-.0537.0142-.065.0337l-.0923-.1577c.1773-.0122.2637-.0093.23.1909l-.0063.0347c.0459-.0073.0693-.0152.0986-.0225l.1231.0752c-.0166-.0093-.021-.0273-.0259-.043.2046.1182-.0435.3721-.2774.4263-.0688.0156-.1894.0586-.2407-.0127l.0254.062c.1362.3496-.3862.0508-.4302.3638-.0361.2598-.0332.3569-.2881.4888l-.0776.0385c-.0542.0293-.1099.0625-.147.1133l.0357.4551-.002.0308c-.103.4174-.4941-.0181-.4585-.2749.0137-.0992-.1767-.1407-.2417-.1514-.1631.1543-.2412.0112-.3828-.0078-.312-.0435-.5058.7495-.084.8086.0816.0117.1724-.19.2852-.1743.3608.0507.3315-.0108.3125.2553-.0078.1162-.0015.1895-.1011.2657-.0317.0244-.0185.0136-.0317.0244.291-.0523.5669.2954.3403.519-.0161.1148.1528.1924.2534.1582.1001-.0337.1782-.0371.2598.0352.0835.0136.2524-.1763.3716-.209l.1259.0742c-.0151-.0098-.02-.0278-.0249-.0435.0235.0137.043.0318.0542.0523.1768-.1187.4278.1064.5093.0727.0523-.0322.0298-.0175.0737-.0449.3272-.1958.4712.2647.7042.2984.1923.0268.3032.0346.496.0654.1617.0254-.0024.3101.274.3486.0781.0098.2876.0069.3784.0869l.0259.0245s.0571.0864.0405.1264c-.0986.2276-.2896.3706-.4072.5816-.0904.166-.0645.3208-.2178.4819-.2148.2295-.4209.2773-.6768.4302-.1015.061-.1215.1933-.2724.2719-.2339.125-.4595.1075-.6997.1861-.356.1191-.7705.5405-1.1553.2993-.1787-.1113.2187-.416.2969-.4878.4287-.3882.0449-.3652-.1768-.5425-.1435-.1108-.126-.2309-.2075-.3584-.1055-.1665-.3555-.3838-.1235-.5776-.146-.2695.3003-.4097.3266-.6006l.0137-.0952c.0029-.0269.0049-.0542.0034-.0776-.2895.2055-.3652-.1817-.4995-.2256-.1016-.0313-.1895-.0342-.2368-.147-.0313-.0693-.0244-.1426-.0279-.2149l-.0234-.0141c-.312.0415-.352.0508-.5537-.2661-.1299-.2046-.1865-.0606-.3594-.1665-.2075-.1299-.2739-.2891-.3984-.482-.0845-.1328-.0093-.2172-.0352-.3061-.0337-.1216-.0757-.2359-.1264-.3501.0151.145.0341.29-.1651.2637-.0102-.002-.061-.0313-.0674-.0401l-.0688-.0913c-.1895-.2539-.0825-.3476-.105-.625-.04-.4526-.1914-.7578.0625-1.207.0586-.1001.1294-.1973.207-.3218.0831-.1367.0718-.5122.3741-.3618.1274.0181.0781.1802.0678.25l-.1967-.0454c.0044-.0152.0102-.0293.0175-.0425.0855-.1543-.1162-.2285.1036-.5352.1049-.1469.0664-.1699.0595-.3286l-.04-.0063c-.0796-.0122-.7627.2617-.4863-.125l.0122.0073ZM9.9585,10.0674l-.0059.0239-.0151.0547c-.0498.1943-.2466.2832-.2773.1172-.0308-.1665-.0748-.3491.0766-.4697l.0342-.0274.0049.1675c-.0249-.0161-.0454-.0347-.0669-.0537-.0332-.0244-.2095-.0303-.2505-.0322-.1343-.0049-.1572-.1519-.0298-.1968.1831-.0664.4526-.2329.5791.0263.0479.0997.0567.0923.1646.1363.0786.0322.2802.1421.1699.2524l-.0493.0493c-.0576.0542-.1192.0957-.1978.1162-.1582.044-.1118-.1254-.1367-.164ZM10.1064,10.0059c-.0659-.0274-.1259-.0489-.1831-.0933-.0771-.0605-.083-.1416-.1084-.1665-.1132-.0171-.2153.0586-.3183.0957l-.0303-.1973c.1138.0049.2764.002.3691.0767.0621.0513.168.125.0572.208l-.0298.022c-.0815.0854.0776.2417-.144.1987.0122-.0142.0185-.0391.0239-.0561l.0112-.0503c.0274-.1099.0796-.2139.2153-.1944.1451.0205.2173.166.1983.2993l-.1284-.1128c.0288-.0073.0488-.017.0673-.0297ZM10.6025,10.042c.2027.1011-.1523.417-.5205.3647-.0844-.0107-.2529-.04-.1494-.1738.1445-.1865.3228-.228.5313-.2432.041-.0034.1157.0411.1386.0523ZM10.5117,10.2251l-.0605-.0298c-.1695.0147-.271.0508-.356.1621l-.0679-.1636c.1944.0269.3111.0284.4551-.1279l.0293.1592ZM10.604,12.3901l.1148-.1308c.142-.0347.3081.0908.4516.1245.1929.0474.0195.3105-.2539.3232-.1079.0049-.2139-.0185-.3188-.0327-.0845-.0122-.1167-.0664-.1065-.1533l.0059-.0386c.0468-.0444.0805-.0722.1069-.0923ZM10.9102,12.5034c-.0352-.0166-.0664-.0293-.1021-.0381-.0078.045-.0522.086-.0977.0889-.0375.0015-.06.0093-.0957.0146l.0865-.1054c.0014.0268-.0039.0542-.0078.0815-.045-.0058-.0723-.0273-.0669-.0722.0927.0136.1884.0341.2837.0307ZM9.9785,12.2246c-.0459.0405-.0693.0508-.0889.0532h-.0371c-.29-.0542-.413-.4131.1289-.3364.1539.0215.2378.0786.3682.1509.1143.0635.2998.082.2725.2715-.0279.2031-.2661.1504-.396.1318-.0796-.0117-.1133-.0752-.0782-.147l.0127-.0224c-.0556-.0474-.1079-.0845-.1821-.1016ZM9.8496,12.0669c.104-.0962.2432-.0361.3491.0322.0596.0401.2007.1377.1988.2149-.002.0547-.045.0805-.0664.1255l-.0782-.1465.0767.0107c-.1309-.0493-.2339-.1416-.377-.1606-.0859-.0132-.1284-.0069-.227.0092l.0825-.1245c.0039.0152.0117.0284.0415.0391ZM10.7979,7.9814l.0307.0123c.1035.0737.2012.1962.3389.2016.0859.002.0845.0986.1357.1416.0415.0357.086.064.124.105.0865.0942.2188.2847.3638.2695.0186-.0014.0352-.0044.0586-.0029l-.0976.1401c-.0601-.1499-.2588-.2465-.128-.4609.0069-.0107.0142-.0225.022-.0332.0229-.0269.0142-.0161.0352-.0415.0112-.0176.0126-.022.0141-.0254-.0127-.0132-.2173-.0703-.2583-.0947-.2051-.1099-.3779-.2993-.6391-.2115ZM10.896,8.3047c-.0532-.0366-.1025-.0845-.1646-.1304-.5893-.0991.0415-.6465.5914-.2959.0659.0405.1289.0923.2124.1367.1357.0757.3945.0635.3608.3008-.0064.0449-.0269.0864-.0557.1226-.0244.0312-.0122.0146-.0327.042-.0425.0659.1079.2304.1328.2915.0567.1362-.1093.1548-.1963.1411-.2324-.0322-.3261-.1802-.4663-.3325-.0644-.0699-.143-.0967-.1894-.1895-.0772-.0141-.1382-.0478-.1924-.0864Z" fill="url(#linear-gradient)"/>
            <g mask="url(#mask-3)">
              <g>
                <path d="M7.5972,8.1597c.0244.0654-.0801.1084-.0093.1172.1582.0234.2475-.0948.4058-.0723.0522.0063.0776.0176.1293.0298-.0151.1045.0215.1748.0069.2798-.0235.1577-.1519.2124-.1748.3711-.0137.0966.039.1577.0249.2553-.0059.0449-.0327.0684-.0459.1084l.0195-.1352c-.0303-.0034-.0425-.021-.0737-.0264-.1543-.0215-.1201.2105-.2012.3403-.1528.2471-.2827.3814-.3227.6675-.0596.4204.1206.6675.061,1.0889-.022.1567.0654.2461.1616.3745.023.0029.0469.0024.063-.0064-.0269-.3525-.0854-.5371-.0747-.8837.0898.1201.04.2353.1006.3667.126.2578.209.4043.2876.6831.0283.1005-.0337.1909.022.2793.1196.1845.1752.331.3662.4492.1059.0649.2207.001.3081.0903.1342.1377.1572.3281.3491.355.0976.0132.1587-.0391.2563-.0249.1162.0156.044.1826.0894.2881.041.0947.1601.061.2432.126.0986.0795.1152.2158.2426.2343.0762.0103.1035-.0786.1787-.0678.1192.017.0806.1875.0635.3076-.0337.2324-.313.2622-.3447.4961-.0064.04.0366.0625.0303.103-.0088.0601-.086.0723-.0952.1323-.023.1651.1049.2403.1918.3789.0791.1226.0699.2437.1827.3335.1596.1255.4248.1392.3979.3379-.0478.335-.3476.397-.5259.6846.0323.02.0489.0371.086.0434.4023.0567.5986-.2221.9839-.352.2617-.0869.4404-.0493.684-.1802.1289-.0664.1431-.1943.2676-.2681.2588-.1557.4492-.1943.6558-.4145.1308-.1387.1103-.2944.2036-.4605.1323-.2382.2925-.3188.4014-.5722-.0318-.02-.0464-.0523-.0865-.0586l-.2788-.0391c-.1723-.0229-.3003-.1762-.2778-.3476-.1885-.0323-.2993-.0401-.4917-.066-.2437-.0346-.2944-.3017-.5386-.3364-.105-.0146-.1523.1006-.2573.0864-.1387-.0195-.2061-.0908-.3438-.1103-.0869-.0112-.1289.0659-.166.145l-.0625.0069c-.0146-.0562-.0009-.0997.0069-.1597.0029-.023-.0347-.0244-.0401-.0435-.1748.0479-.2324.2432-.4135.2173-.045-.0063-.0616-.0542-.1065-.061-.082-.0113-.1279.0429-.2109.0322-.1543-.022-.3033-.1313-.2818-.2852.0088-.0556.0708-.0698.0786-.1264.0201-.1387-.0898-.2276-.2192-.292l-.0933.0176-.1367-.0191c.0044-.0268-.0083-.0434-.0053-.0698.0151-.0972.1445-.102.1586-.2002.0123-.085.0015-.1401.0313-.2246l-.2471-.0342c-.1054.0645-.1577.1924-.2846.1743-.2266-.0327-.3628-.2578-.3306-.4834.0366-.2671.1753-.5654.4414-.5288.0898.0127.1294.065.2187.0777.065.0088.0845-.0801.1485-.0708.1684.0239.3686.1015.3442.2705-.021.1543.0894.2617.2295.33.0137-.0361.0205-.0585.0293-.0947l-.04-.4887c.1338-.23.4585-.1949.4941-.4561l.0244-.1724c.0269-.1987.2515-.29.4502-.2617-.0127-.0752-.06-.1167-.0498-.1914.0122-.0815.105-.0923.1836-.1118,0,.0351,0,.0586.0029.0923.1817-.0313.376-.0606.4019-.2422.0029-.0215-.0352-.0239-.04-.043-.0596.0142-.1001.0313-.1636.022-.0869-.0112-.0581-.1348-.0391-.2188-.0512-.0078-.0825-.0083-.1357-.0044.0371-.059.0932-.0712.1645-.0839l.086.0424c.0483-.0205.082-.0385.1308-.0576.0157.0708-.0058.1665.0699.1778l.3276.0454c.022-.0811-.0908-.0962-.1475-.1582-.0493-.0523.0117-.1284-.0342-.189-.0771-.102-.1914-.0835-.3007-.1494-.1861-.1143-.1861-.3672-.4034-.398-.0424-.0058-.0581.0538-.0986.0484-.1455-.0205-.1689-.1929-.3154-.2129-.0444-.0073-.0737.0078-.1167.0137.0034.0771.0605.1172.0493.1914-.0171.1264-.2002.1211-.2187.249-.0108.0776.0297.1221.0336.2036-.1181-.0059-.0839-.1694-.164-.2539-.1372-.1416-.4453-.1001-.4165-.2993.0386-.2813.5166-.1909.5556-.4736.0035-.0215-.0224-.0337-.0229-.0528.0356-.0063.0561-.0229.0942-.0171.1201.0171.1773.0977.2315.2046-.0713.0215-.1177.0142-.187.0342.1543.0957.3022.0742.4116.2202l.1479-.0713c-.0307-.0537-.0556-.0888-.104-.1299.0313-.0068.0591-.0107.0918-.0019-.0718-.1328-.2109-.1338-.3364-.2202-.126-.0874-.1855-.1787-.3398-.2007l.0107-.0718c.0127-.0928.0752-.1265.1357-.1992-.04-.0195-.0634-.0391-.1084-.0454-.0986-.0142-.2216-.0083-.2353.0893-.0088.0601.0498.0796.0737.1324-.0439.0337-.0737.0551-.1059.0932.0337.0313.0673.0669.061.1148-.0054.0346-.0396.0376-.0688.0522-.0582-.1035-.1294-.1709-.1124-.2915-.0537.0044-.123.0049-.1308.0586-.0083.063.04.0928.0708.148-.0537.0229-.0864.0493-.1475.0395l-.1308-.0181c.0151-.0356.0517-.0449.0576-.0874l.021-.1538c-.0864-.0039-.1328-.0263-.2202-.0385-.0708-.0108-.1577.0122-.1685.083-.0102.0796.0664.1049.1143.1694-.0367.0137-.0557.0415-.0972.0366-.0786-.0122-.0508-.1264-.1138-.1728-.082-.066-.165-.0196-.2715-.024.0064-.0976-.0166-.2163-.1137-.2299-.2735-.0386-.4322.0776-.6924.1792-.1939.0752-.3623.0517-.5156.187ZM9.4331,9.7046c.1372-.0493.2207-.1221.3657-.1016.0938.0127.086.1309.1587.1866.0996.08.2002.0703.2832.1625-.0669.0679-.1123.1153-.2031.1407.0103-.083-.0298-.1739-.1118-.1846-.1353-.019-.0718.2349-.1953.2939-.0196-.1064-.0367-.1738-.0215-.2792.0073-.0562.0498-.084.0923-.1167-.0459-.0293-.0703-.0708-.1265-.0787-.0752-.0107-.166-.0195-.2417-.0229ZM10.4419,10.0493l.0859.043c-.1274.1391-.2734.1987-.4614.1728l-.082-.0112c.1172-.1523.2593-.1894.4575-.2046ZM10.5825,12.5317c-.0405-.0063-.0097-.0664-.0122-.1049.0396-.0064.064-.0142.1069-.0157,0-.0351,0-.0571-.0029-.0918.0259.0025.0386-.0107.0659-.0063.1529.021.2242.0918.3765.1294-.1216.1753-.3271.1186-.5342.0893ZM9.8418,12.1362c-.0786-.0156-.1421-.0464-.1631-.1255.1026-.0166.1567-.0244.2583-.0102.1397.02.2124.0718.334.1387.0913.0503.2344.0639.2202.1689-.0078.0645-.0864.0723-.1504.0635l-.1308-.0186c.0161-.0322.0337-.0571.0576-.083-.1133-.1006-.187-.1723-.3369-.1943-.0264-.0034-.065.0566-.0889.0605ZM10.7402,8.0352c.1426.1005.2193.2143.3936.2187.0195.1108.1147.1372.1885.2153.1333.1451.2114.2745.4052.3018.0342.0049.0552-.0029.0894-.0029-.0518-.1255-.1738-.1812-.1553-.3164.0117-.0826.0923-.1099.1035-.1919.0196-.1397-.1884-.1299-.3081-.1978-.1714-.0913-.2592-.2041-.4546-.2324-.1767-.0239-.3525-.002-.4355.1548.0474.0176.1201.0464.1733.0508Z" fill="url(#radial-gradient-3)" fill-rule="evenodd"/>
                <g mask="url(#mask-4)">
                  <g mix-blend-mode="screen" opacity=".3">
                    <path d="M14.6992,10.5371c0,2.3775-1.438,4.0435-3.7983,4.2095-.2505.0171-.2862-.1997-.0415-.2564,2.0078-.4756,3.3657-2.6967,3.5874-3.976.0234-.2959.2524-.2281.2524.0229Z" fill="#c9ffc9"/>
                    <path d="M14.8101,10.5547c0,2.3784-1.438,4.0444-3.7979,4.2104-.25.0162-.2866-.1997-.04-.2568,2.0058-.4741,3.3642-2.6973,3.5859-3.9766.0225-.2949.252-.2285.252.023Z" fill="none" stroke="#a7dbaa" stroke-miterlimit="3.8637" stroke-width="2.2992"/>
                    <path d="M14.7544,10.5464c0,2.3765-1.438,4.0434-3.7964,4.2095-.2515.017-.2881-.1997-.043-.2569,2.0079-.4736,3.3667-2.6972,3.5874-3.9756.024-.2959.252-.229.252.023Z" fill="none" stroke="#85cd92" stroke-miterlimit="3.8637" stroke-width="1.1497"/>
                    <path d="M14.6992,10.5371c0,2.3775-1.438,4.0435-3.7983,4.2095-.2505.0171-.2862-.1997-.0415-.2564,2.0078-.4756,3.3657-2.6967,3.5874-3.976.0234-.2959.2524-.2281.2524.0229Z" fill="none" stroke="#65bd7b" stroke-miterlimit="3.8637"/>
                  </g>
                </g>
                <path d="M7.5972,8.1597c.0244.0654-.0801.1084-.0093.1172.1582.0234.2475-.0948.4058-.0723.0522.0063.0776.0176.1293.0298-.0151.1045.0215.1748.0069.2798-.0235.1577-.1519.2124-.1748.3711-.0137.0966.039.1577.0249.2553-.0059.0449-.0327.0684-.0459.1084l.0195-.1352c-.0303-.0034-.0425-.021-.0737-.0264-.1543-.0215-.1201.2105-.2012.3403-.1528.2471-.2827.3814-.3227.6675-.0596.4204.1206.6675.061,1.0889-.022.1567.0654.2461.1616.3745.023.0029.0469.0024.063-.0064-.0269-.3525-.0854-.5371-.0747-.8837.0898.1201.04.2353.1006.3667.126.2578.209.4043.2876.6831.0283.1005-.0337.1909.022.2793.1196.1845.1752.331.3662.4492.1059.0649.2207.001.3081.0903.1342.1377.1572.3281.3491.355.0976.0132.1587-.0391.2563-.0249.1162.0156.044.1826.0894.2881.041.0947.1601.061.2432.126.0986.0795.1152.2158.2426.2343.0762.0103.1035-.0786.1787-.0678.1192.017.0806.1875.0635.3076-.0337.2324-.313.2622-.3447.4961-.0064.04.0366.0625.0303.103-.0088.0601-.086.0723-.0952.1323-.023.1651.1049.2403.1918.3789.0791.1226.0699.2437.1827.3335.1596.1255.4248.1392.3979.3379-.0478.335-.3476.397-.5259.6846.0323.02.0489.0371.086.0434.4023.0567.5986-.2221.9839-.352.2617-.0869.4404-.0493.684-.1802.1289-.0664.1431-.1943.2676-.2681.2588-.1557.4492-.1943.6558-.4145.1308-.1387.1103-.2944.2036-.4605.1323-.2382.2925-.3188.4014-.5722-.0318-.02-.0464-.0523-.0865-.0586l-.2788-.0391c-.1723-.0229-.3003-.1762-.2778-.3476-.1885-.0323-.2993-.0401-.4917-.066-.2437-.0346-.2944-.3017-.5386-.3364-.105-.0146-.1523.1006-.2573.0864-.1387-.0195-.2061-.0908-.3438-.1103-.0869-.0112-.1289.0659-.166.145l-.0625.0069c-.0146-.0562-.0009-.0997.0069-.1597.0029-.023-.0347-.0244-.0401-.0435-.1748.0479-.2324.2432-.4135.2173-.045-.0063-.0616-.0542-.1065-.061-.082-.0113-.1279.0429-.2109.0322-.1543-.022-.3033-.1313-.2818-.2852.0088-.0556.0708-.0698.0786-.1264.0201-.1387-.0898-.2276-.2192-.292l-.0933.0176-.1367-.0191c.0044-.0268-.0083-.0434-.0053-.0698.0151-.0972.1445-.102.1586-.2002.0123-.085.0015-.1401.0313-.2246l-.2471-.0342c-.1054.0645-.1577.1924-.2846.1743-.2266-.0327-.3628-.2578-.3306-.4834.0366-.2671.1753-.5654.4414-.5288.0898.0127.1294.065.2187.0777.065.0088.0845-.0801.1485-.0708.1684.0239.3686.1015.3442.2705-.021.1543.0894.2617.2295.33.0137-.0361.0205-.0585.0293-.0947l-.04-.4887c.1338-.23.4585-.1949.4941-.4561l.0244-.1724c.0269-.1987.2515-.29.4502-.2617-.0127-.0752-.06-.1167-.0498-.1914.0122-.0815.105-.0923.1836-.1118,0,.0351,0,.0586.0029.0923.1817-.0313.376-.0606.4019-.2422.0029-.0215-.0352-.0239-.04-.043-.0596.0142-.1001.0313-.1636.022-.0869-.0112-.0581-.1348-.0391-.2188-.0512-.0078-.0825-.0083-.1357-.0044.0371-.059.0932-.0712.1645-.0839l.086.0424c.0483-.0205.082-.0385.1308-.0576.0157.0708-.0058.1665.0699.1778l.3276.0454c.022-.0811-.0908-.0962-.1475-.1582-.0493-.0523.0117-.1284-.0342-.189-.0771-.102-.1914-.0835-.3007-.1494-.1861-.1143-.1861-.3672-.4034-.398-.0424-.0058-.0581.0538-.0986.0484-.1455-.0205-.1689-.1929-.3154-.2129-.0444-.0073-.0737.0078-.1167.0137.0034.0771.0605.1172.0493.1914-.0171.1264-.2002.1211-.2187.249-.0108.0776.0297.1221.0336.2036-.1181-.0059-.0839-.1694-.164-.2539-.1372-.1416-.4453-.1001-.4165-.2993.0386-.2813.5166-.1909.5556-.4736.0035-.0215-.0224-.0337-.0229-.0528.0356-.0063.0561-.0229.0942-.0171.1201.0171.1773.0977.2315.2046-.0713.0215-.1177.0142-.187.0342.1543.0957.3022.0742.4116.2202l.1479-.0713c-.0307-.0537-.0556-.0888-.104-.1299.0313-.0068.0591-.0107.0918-.0019-.0718-.1328-.2109-.1338-.3364-.2202-.126-.0874-.1855-.1787-.3398-.2007l.0107-.0718c.0127-.0928.0752-.1265.1357-.1992-.04-.0195-.0634-.0391-.1084-.0454-.0986-.0142-.2216-.0083-.2353.0893-.0088.0601.0498.0796.0737.1324-.0439.0337-.0737.0551-.1059.0932.0337.0313.0673.0669.061.1148-.0054.0346-.0396.0376-.0688.0522-.0582-.1035-.1294-.1709-.1124-.2915-.0537.0044-.123.0049-.1308.0586-.0083.063.04.0928.0708.148-.0537.0229-.0864.0493-.1475.0395l-.1308-.0181c.0151-.0356.0517-.0449.0576-.0874l.021-.1538c-.0864-.0039-.1328-.0263-.2202-.0385-.0708-.0108-.1577.0122-.1685.083-.0102.0796.0664.1049.1143.1694-.0367.0137-.0557.0415-.0972.0366-.0786-.0122-.0508-.1264-.1138-.1728-.082-.066-.165-.0196-.2715-.024.0064-.0976-.0166-.2163-.1137-.2299-.2735-.0386-.4322.0776-.6924.1792-.1939.0752-.3623.0517-.5156.187ZM9.4331,9.7046c.1372-.0493.2207-.1221.3657-.1016.0938.0127.086.1309.1587.1866.0996.08.2002.0703.2832.1625-.0669.0679-.1123.1153-.2031.1407.0103-.083-.0298-.1739-.1118-.1846-.1353-.019-.0718.2349-.1953.2939-.0196-.1064-.0367-.1738-.0215-.2792.0073-.0562.0498-.084.0923-.1167-.0459-.0293-.0703-.0708-.1265-.0787-.0752-.0107-.166-.0195-.2417-.0229ZM10.4419,10.0493l.0859.043c-.1274.1391-.2734.1987-.4614.1728l-.082-.0112c.1172-.1523.2593-.1894.4575-.2046ZM10.5825,12.5317c-.0405-.0063-.0097-.0664-.0122-.1049.0396-.0064.064-.0142.1069-.0157,0-.0351,0-.0571-.0029-.0918.0259.0025.0386-.0107.0659-.0063.1529.021.2242.0918.3765.1294-.1216.1753-.3271.1186-.5342.0893ZM9.8418,12.1362c-.0786-.0156-.1421-.0464-.1631-.1255.1026-.0166.1567-.0244.2583-.0102.1397.02.2124.0718.334.1387.0913.0503.2344.0639.2202.1689-.0078.0645-.0864.0723-.1504.0635l-.1308-.0186c.0161-.0322.0337-.0571.0576-.083-.1133-.1006-.187-.1723-.3369-.1943-.0264-.0034-.065.0566-.0889.0605ZM10.7402,8.0352c.1426.1005.2193.2143.3936.2187.0195.1108.1147.1372.1885.2153.1333.1451.2114.2745.4052.3018.0342.0049.0552-.0029.0894-.0029-.0518-.1255-.1738-.1812-.1553-.3164.0117-.0826.0923-.1099.1035-.1919.0196-.1397-.1884-.1299-.3081-.1978-.1714-.0913-.2592-.2041-.4546-.2324-.1767-.0239-.3525-.002-.4355.1548.0474.0176.1201.0464.1733.0508Z" fill="none" fill-rule="evenodd"/>
              </g>
            </g>
          </g>
        </g>
      </g>
    </g>
  </g>
</svg>