<?xml version="1.0" encoding="UTF-8"?>
<svg xmlns="http://www.w3.org/2000/svg" width="48" height="48" xmlns:xlink="http://www.w3.org/1999/xlink" viewBox="0 0 48 48">
  <defs>
    <mask id="mask" x="6.5659" y="5" width="35.4341" height="40.384811" maskUnits="userSpaceOnUse">
      <path d="M25.46,43.429711l-17.8941-4.4609999L15.7866,6l25.2134,6.2832118-6.4136,25.6493994c-.8676,3.4853888-5.73,6.3437998-9.1264,5.4970999Z" fill="#fff" fill-rule="evenodd" stroke="#fff" stroke-linecap="round" stroke-linejoin="round" stroke-width="2"/>
    </mask>
    <linearGradient id="New_Gradient_399" data-name="New Gradient 399" x1="14.9174783" y1="6.423899" x2="33.3641283" y2="44.2451362" gradientUnits="userSpaceOnUse">
      <stop offset="0" stop-color="#e5e5e5"/>
      <stop offset="1" stop-color="#fff"/>
    </linearGradient>
    <radialGradient id="New_Gradient_400" data-name="New Gradient 400" cx="51.3014784" cy="83.2482846" fx="51.3014784" fy="83.2482846" r="8.8646647" gradientTransform="translate(-3.0688 -57.9413) rotate(13.9915205) skewX(-.0111829)" gradientUnits="userSpaceOnUse">
      <stop offset="0" stop-color="#fff"/>
      <stop offset="1" stop-color="#ccc"/>
    </radialGradient>
    <mask id="mask-1" x="7.5659" y="6" width="33.4341" height="39.384811" maskUnits="userSpaceOnUse">
      <path d="M25.46,43.429711l-17.8941-4.4609999L15.7866,6l25.2134,6.2832118-6.4136,25.6493994c-.8676,3.4853888-5.73,6.3437998-9.1264,5.4970999Z" fill="#fff" fill-rule="evenodd"/>
    </mask>
    <linearGradient id="New_Gradient_401" data-name="New Gradient 401" x1="14.9174783" y1="6.423899" x2="33.3641283" y2="44.2451362" gradientUnits="userSpaceOnUse">
      <stop offset="0" stop-color="#e5e5e5"/>
      <stop offset=".286514" stop-color="#f2f2f2"/>
      <stop offset=".646072" stop-color="#fff"/>
      <stop offset="1" stop-color="#fff"/>
    </linearGradient>
    <radialGradient id="New_Gradient_402" data-name="New Gradient 402" cx="51.3014784" cy="83.2482846" fx="51.3014784" fy="83.2482846" r="8.8646647" gradientTransform="translate(-3.0688 -57.9413) rotate(13.9915205) skewX(-.0111829)" gradientUnits="userSpaceOnUse">
      <stop offset="0" stop-color="#e5e5e5"/>
      <stop offset=".331467" stop-color="#e5e5e5"/>
      <stop offset="1" stop-color="#999"/>
    </radialGradient>
    <mask id="mask-2" x="7" y="13" width="23.1528" height="13" maskUnits="userSpaceOnUse">
      <rect x="7" y="13" width="22" height="11.8018115" fill="#fff"/>
    </mask>
    <radialGradient id="radial-gradient" cx="35.3521455" cy="26.3645738" fx="35.3521455" fy="26.3645738" r="14.2820144" gradientTransform="translate(-7.1239 8.4343) rotate(-13.9987235)" gradientUnits="userSpaceOnUse">
      <stop offset=".230337" stop-color="#f2b712"/>
      <stop offset=".44382" stop-color="#ffcd00"/>
      <stop offset=".5335957" stop-color="#fcc900"/>
      <stop offset=".6088672" stop-color="#f3bf02"/>
      <stop offset=".678882" stop-color="#e3ad06"/>
      <stop offset=".7453308" stop-color="#ce950c"/>
      <stop offset=".775281" stop-color="#c3880f"/>
    </radialGradient>
    <radialGradient id="radial-gradient-2" cx="299.0732093" cy="-122.1997047" fx="299.0732093" fy="-122.1997047" r="3.7367558" gradientTransform="translate(-46.6522 500.9508) rotate(-58.9990841) scale(1.480822)" gradientUnits="userSpaceOnUse">
      <stop offset=".191011" stop-color="#ecd600"/>
      <stop offset=".612359" stop-color="#fff"/>
      <stop offset=".6721602" stop-color="#fefefb"/>
      <stop offset=".7223228" stop-color="#fdfaf1"/>
      <stop offset=".7690372" stop-color="#fcf5df"/>
      <stop offset=".8136331" stop-color="#faeec7"/>
      <stop offset=".8567796" stop-color="#f8e4a7"/>
      <stop offset=".8987707" stop-color="#f5d980"/>
      <stop offset=".9398968" stop-color="#f2cb52"/>
      <stop offset=".9792847" stop-color="#eebc1e"/>
      <stop offset="1" stop-color="#ecb300"/>
    </radialGradient>
    <radialGradient id="radial-gradient-3" cx="294.9952783" cy="-117.9226684" fx="294.9952783" fy="-117.9226684" r="7.3910336" gradientTransform="translate(-46.6522 500.9508) rotate(-58.9990841) scale(1.480822)" gradientUnits="userSpaceOnUse">
      <stop offset=".191011" stop-color="#ecd600"/>
      <stop offset=".612359" stop-color="#fff"/>
      <stop offset=".6721602" stop-color="#fefefb"/>
      <stop offset=".7223228" stop-color="#fdfaf1"/>
      <stop offset=".7690372" stop-color="#fcf5df"/>
      <stop offset=".8136331" stop-color="#faeec7"/>
      <stop offset=".8567796" stop-color="#f8e4a7"/>
      <stop offset=".8987707" stop-color="#f5d980"/>
      <stop offset=".9398968" stop-color="#f2cb52"/>
      <stop offset=".9792847" stop-color="#eebc1e"/>
      <stop offset="1" stop-color="#ecb300"/>
    </radialGradient>
    <radialGradient id="radial-gradient-4" cx="312.4960428" cy="-110.3224757" fx="312.4960428" fy="-110.3224757" r="1.3439342" gradientTransform="translate(-41.5235 570.4917) rotate(-63.2098508) scale(1.5936579 1.6296829) skewX(-4.303879)" gradientUnits="userSpaceOnUse">
      <stop offset=".691011" stop-color="#999"/>
      <stop offset=".9178119" stop-color="#bdbdbd"/>
      <stop offset="1" stop-color="#ccc"/>
    </radialGradient>
    <radialGradient id="radial-gradient-5" cx="312.1565936" cy="-110.4053961" fx="312.1565936" fy="-110.4053961" r=".9171898" gradientTransform="translate(-41.5235 570.4917) rotate(-63.2098508) scale(1.5936579 1.6296829) skewX(-4.303879)" gradientUnits="userSpaceOnUse">
      <stop offset=".106741" stop-color="#999"/>
      <stop offset=".7624016" stop-color="#bdbdbd"/>
      <stop offset="1" stop-color="#ccc"/>
    </radialGradient>
    <radialGradient id="radial-gradient-6" cx="343.8679438" cy="-84.5556206" fx="343.8679438" fy="-84.5556206" r="1.3987131" gradientTransform="translate(-117.8237 688.5394) rotate(-63.2112777) scale(1.8673099 1.9096289) skewX(-4.306559)" gradientUnits="userSpaceOnUse">
      <stop offset=".691011" stop-color="#328e36"/>
      <stop offset=".8494552" stop-color="#4aae5a"/>
      <stop offset="1" stop-color="#65d081"/>
    </radialGradient>
    <radialGradient id="radial-gradient-7" cx="343.6937041" cy="-84.6029218" fx="343.6937041" fy="-84.6029218" r="1.0473501" gradientTransform="translate(-117.8237 688.5394) rotate(-63.2112777) scale(1.8673099 1.9096289) skewX(-4.306559)" gradientUnits="userSpaceOnUse">
      <stop offset=".106741" stop-color="#328e36"/>
      <stop offset=".5647888" stop-color="#4aae5a"/>
      <stop offset="1" stop-color="#65d081"/>
    </radialGradient>
    <radialGradient id="radial-gradient-8" cx="574.3168807" cy="-175.8394851" fx="574.3168807" fy="-175.8394851" r="1.3168491" gradientTransform="translate(830.273 853.9565) rotate(-116.8024443) scale(1.8673117 1.9097062) skewX(-4.3101363)" gradientUnits="userSpaceOnUse">
      <stop offset=".691011" stop-color="#0342d3"/>
      <stop offset=".8141137" stop-color="#274fe3"/>
      <stop offset="1" stop-color="#66f"/>
    </radialGradient>
    <radialGradient id="radial-gradient-9" cx="574.1433564" cy="-175.9084108" fx="574.1433564" fy="-175.9084108" r="1.0119531" gradientTransform="translate(830.273 853.9565) rotate(-116.8024443) scale(1.8673117 1.9097062) skewX(-4.3101363)" gradientUnits="userSpaceOnUse">
      <stop offset=".106741" stop-color="#0342d3"/>
      <stop offset=".4626197" stop-color="#274fe3"/>
      <stop offset="1" stop-color="#66f"/>
    </radialGradient>
    <radialGradient id="radial-gradient-10" cx="550.64535" cy="-158.9484493" fx="550.64535" fy="-158.9484493" r="1.3644401" gradientTransform="translate(810.8890859 949.9238) rotate(-115.5317422) scale(2.0384627 1.8965374) skewX(-7.3458432)" gradientUnits="userSpaceOnUse">
      <stop offset=".691011" stop-color="#a70000"/>
      <stop offset=".7940595" stop-color="#c12415"/>
      <stop offset="1" stop-color="#ff7845"/>
    </radialGradient>
    <radialGradient id="radial-gradient-11" cx="550.5958939" cy="-159.0531373" fx="550.5958939" fy="-159.0531373" r="1.1080253" gradientTransform="translate(810.8890859 949.9238) rotate(-115.5317422) scale(2.0384627 1.8965374) skewX(-7.3458432)" gradientUnits="userSpaceOnUse">
      <stop offset=".106741" stop-color="#a70000"/>
      <stop offset=".4046447" stop-color="#c12415"/>
      <stop offset="1" stop-color="#ff7845"/>
    </radialGradient>
    <linearGradient id="linear-gradient" x1="426.4174401" y1="156.2900146" x2="431.2673606" y2="156.2900146" gradientTransform="translate(298.2268 -323.1185) rotate(121.8921289) scale(1.0510642 .2521924) skewX(.2143572)" gradientUnits="userSpaceOnUse">
      <stop offset="0" stop-color="#6b3200"/>
      <stop offset=".2885023" stop-color="#6d3400"/>
      <stop offset=".4963073" stop-color="#773d03"/>
      <stop offset=".6782187" stop-color="#864b08"/>
      <stop offset=".825843" stop-color="#9a5d0e"/>
      <stop offset="1" stop-color="#ecb300"/>
    </linearGradient>
    <linearGradient id="linear-gradient-2" x1="429.0620293" y1="3.0230514" x2="425.5750735" y2="1.5872483" gradientTransform="translate(236.9997 -303.7463) rotate(121.8873475) scale(.9415981 -1.0620095) skewX(13.0553336)" gradientUnits="userSpaceOnUse">
      <stop offset="0" stop-color="#6b3200"/>
      <stop offset=".2685086" stop-color="#6e3501"/>
      <stop offset=".5357231" stop-color="#7a4006"/>
      <stop offset=".758427" stop-color="#8b4f0d"/>
      <stop offset="1" stop-color="#ecb300"/>
    </linearGradient>
    <radialGradient id="radial-gradient-12" cx="457.9657191" cy="-82.9846836" fx="457.9657191" fy="-82.9846836" r="8.0079259" gradientTransform="translate(113.81 -58.0906) rotate(121.8673785) scale(.2816529 -.3176831) skewX(-.9633841)" gradientUnits="userSpaceOnUse">
      <stop offset="0" stop-color="#fff"/>
      <stop offset="1" stop-color="#000"/>
    </radialGradient>
    <linearGradient id="linear-gradient-3" x1="522.0631304" y1="-81.9061823" x2="522.8264245" y2="-81.9061823" gradientTransform="translate(817.0599 -207.2718) rotate(156.9809917) scale(1.5249216 -1.0341785) skewX(-13.39759)" gradientUnits="userSpaceOnUse">
      <stop offset="0" stop-color="#fff"/>
      <stop offset="1" stop-color="#000"/>
    </linearGradient>
    <linearGradient id="linear-gradient-4" x1="404.0969144" y1="-174.9664129" x2="415.3051256" y2="-174.9664129" gradientTransform="translate(104.9027 -2.2497) rotate(121.8919456) scale(.1873868 -.3294263) skewX(-1.5633347)" gradientUnits="userSpaceOnUse">
      <stop offset="0" stop-color="#b0b0b0"/>
      <stop offset="1" stop-color="#4a4a4a"/>
    </linearGradient>
    <linearGradient id="linear-gradient-5" x1="430.9436835" y1="-9.8053242" x2="435.2714212" y2="-8.6442611" gradientTransform="translate(236.3837 -302.7829) rotate(121.8873475) scale(.9415981 -1.062003) skewX(25.6955006)" gradientUnits="userSpaceOnUse">
      <stop offset="0" stop-color="#fff"/>
      <stop offset=".2307365" stop-color="#fcfcfc"/>
      <stop offset=".3300776" stop-color="#f5f5f5"/>
      <stop offset=".4041854" stop-color="#e9e9e9"/>
      <stop offset=".4657753" stop-color="#d7d7d7"/>
      <stop offset=".5196246" stop-color="silver"/>
      <stop offset=".5680193" stop-color="#a3a3a3"/>
      <stop offset=".6123554" stop-color="#818181"/>
      <stop offset=".6535775" stop-color="#5a5a5a"/>
      <stop offset=".6907176" stop-color="#2e2e2e"/>
      <stop offset=".724719" stop-color="#000"/>
    </linearGradient>
    <mask id="mask-3" x="23.3863138" y="36.0051064" width="8.5412734" height="7.0970676" maskUnits="userSpaceOnUse">
      <path d="M28.9878,36.1621112c-.2632-.042-.6773.666-.9248.7192-.2661.0542-.5728.0079-.7754.1548-.2139.1563-.186.4932-.272.7242-.1245.3383-1.3037-.3013112-1.4184-.0127-.1109.2807,1.5415.7303888,1.4204,1.061-.125.3353889-1.1778.3247-1.3018.6587-.123.3345.4531.1156889.3306.4541-.1216.3252.2192.4917.0972.8169-.1138.31-.9488-.1011-1.0625.209-.0923.247.5659.6479.6606.8636889.0894.2066111.0884.4546111.312.586.1675.0991111.3311.621611.5571.656711.3941.063.4009-.0215.795.042.3745.0591.4018-.3081.7763-.25.2632.043.4444-.2954.6949-.352.2666-.0625.7646.4086.9687.2568.2158-.1587-.1636-.7974-.0776-1.0298.125-.3403.2192-.2935.3432-.6348.1211-.3296.149-.3159111.2705-.6445.1245-.3374111.333-.2349.458-.5713.1221-.3379.6871-.06.8106-.3965.1206-.3247-.8042-.7807-.6851-1.1069.1138-.3101.0782-.3281.1934-.6382.0913-.2461.8559-.4194.7607-.6367-.0888-.2065-.4726-.4805-.6953-.6113-.1675-.1001-.4629-.1651-.6889-.2002-.3946-.064-.3584-.1573112-.7496-.2559-.3735-.0957-.4238.1987-.7978.1377Z" fill="#fff"/>
    </mask>
    <linearGradient id="linear-gradient-6" x1="426.4174401" y1="156.2900146" x2="431.2673606" y2="156.2900146" gradientTransform="translate(298.2268 -323.1185) rotate(121.8921289) scale(1.0510642 .2521924) skewX(.2143572)" gradientUnits="userSpaceOnUse">
      <stop offset="0" stop-color="#a70000"/>
      <stop offset=".2134181" stop-color="#a90301"/>
      <stop offset=".3923643" stop-color="#b10d07"/>
      <stop offset=".5589223" stop-color="#bd1f11"/>
      <stop offset=".7179175" stop-color="#cf371f"/>
      <stop offset=".8700949" stop-color="#e65631"/>
      <stop offset="1" stop-color="#ff7845"/>
    </linearGradient>
    <linearGradient id="linear-gradient-7" x1="398.1842882" y1="2.3008301" x2="397.1267962" y2="1.2874009" gradientTransform="translate(222.5657 -280.027) rotate(121.8873475) scale(.9415981 -1.0620482) skewX(-1.0051953)" gradientUnits="userSpaceOnUse">
      <stop offset="0" stop-color="#a70000"/>
      <stop offset=".2134181" stop-color="#a90301"/>
      <stop offset=".3923643" stop-color="#b10d07"/>
      <stop offset=".5589223" stop-color="#bd1f11"/>
      <stop offset=".7179175" stop-color="#cf371f"/>
      <stop offset=".8700949" stop-color="#e65631"/>
      <stop offset="1" stop-color="#ff7845"/>
    </linearGradient>
  </defs>
  <g id="Layer_4" data-name="Layer 4">
    <g>
      <g mask="url(#mask)">
        <g>
          <path d="M25.46,43.429711l-17.8941-4.4609999L15.7866,6l25.2134,6.2832118-6.4136,25.6493994c-.8676,3.4853888-5.73,6.3437998-9.1264,5.4970999Z" fill="url(#New_Gradient_399)" fill-rule="evenodd"/>
          <path d="M24.2646,43.261711s4.2188.8809,5.376-3.7577999c4.3047,1.0732,5.2749-2.6719111,5.2749-2.6719111l-2.1333,8.552811-8.5176-2.1230999Z" fill="url(#New_Gradient_400)" fill-rule="evenodd"/>
          <path d="M25.46,43.429711l-17.8941-4.4609999L15.7866,6l25.2134,6.2832118-6.4136,25.6493994c-.8676,3.4853888-5.73,6.3437998-9.1264,5.4970999Z" fill="none" fill-rule="evenodd" stroke="#000" stroke-linecap="round" stroke-linejoin="round" stroke-width="2"/>
        </g>
      </g>
      <g mask="url(#mask-1)">
        <g>
          <path d="M25.46,43.429711l-17.8941-4.4609999L15.7866,6l25.2134,6.2832118-6.4136,25.6493994c-.8676,3.4853888-5.73,6.3437998-9.1264,5.4970999Z" fill="url(#New_Gradient_401)" fill-rule="evenodd"/>
          <path d="M24.2646,43.261711s4.2188.8809,5.376-3.7577999c4.3047,1.0732,5.2749-2.6719111,5.2749-2.6719111l-2.1333,8.552811-8.5176-2.1230999Z" fill="url(#New_Gradient_402)" fill-rule="evenodd"/>
        </g>
      </g>
    </g>
  </g>
  <g id="Layer_5" data-name="Layer 5">
    <g>
      <path d="M13.1943,29.5195114c6.3902,1.5918,12.7784,3.1874886,19.1709,4.7812999" fill="none" stroke="#ccc" stroke-linecap="round" stroke-linejoin="round" stroke-width="1.0502"/>
      <path d="M17.3037,13.0381118c6.3892,1.5918,12.7783,3.1864999,19.1709,4.7811999" fill="none" stroke="#ccc" stroke-linecap="round" stroke-linejoin="round" stroke-width="1.0502"/>
      <path d="M15.6602,19.6309116c6.3896,1.5908,12.7783,3.1874999,19.1704,4.7801999" fill="none" stroke="#ccc" stroke-linecap="round" stroke-linejoin="round" stroke-width="1.0502"/>
      <path d="M16.4819,16.334c6.3897,1.5918117,12.7774,3.1875116,19.1704,4.7812116" fill="none" stroke="#ccc" stroke-linecap="round" stroke-linejoin="round" stroke-width="1.0502"/>
      <path d="M14.0161,26.2227115c6.3897,1.5918,12.7778,3.1874999,19.1709,4.7811999" fill="none" stroke="#ccc" stroke-linecap="round" stroke-linejoin="round" stroke-width="1.0502"/>
      <path d="M14.8379,22.9258115c6.3896,1.5928,12.7783,3.1884999,19.1704,4.7821885" fill="none" stroke="#ccc" stroke-linecap="round" stroke-linejoin="round" stroke-width="1.0502"/>
    </g>
  </g>
  <g id="labels">
    <g opacity=".85">
      <rect x="7" y="13" width="22" height="11.8018115" fill="#032c87" stroke="#1459a5" stroke-width="2"/>
      <g mask="url(#mask-2)">
        <g>
          <rect x="7" y="13" width="22" height="11.8018115" fill="#fff"/>
          <rect x="8.1543" y="14.1704118" width="21.9985" height="11.8295882" fill="#d8eafd"/>
        </g>
      </g>
      <g>
        <path d="M11.0341797,16.5024414c.3481445-.0717773.8095703-.1103516,1.3842773-.1157227.7124023.0053711,1.234375.1640625,1.565918.4755859.3208008.28125.4853516.6835938.4931641,1.206543,0,.5175781-.1469727.9282227-.440918,1.2314453-.409668.4204102-.9785156.6303711-1.706543.6303711-.2158203.0058594-.4086914-.0107422-.5786133-.0493164v2.3081055h-.7172852v-5.6870117ZM11.7514648,19.2797852c.159668.0390625.3583984.0585938.5966797.0585938.9194336-.0053711,1.3876953-.4150391,1.4038086-1.2280273,0-.3881836-.1191406-.6772461-.3569336-.8671875-.2382812-.1816406-.5585938-.2724609-.9619141-.2724609-.3217773.0053711-.5488281.0249023-.6816406.0585938v2.2504883Z"/>
        <path d="M15.5805664,22.1894531v-5.7612305h.7929688l1.7832031,2.9169922c.2021484.331543.387207.6503906.5541992.956543.1645508.3149414.3100586.621582.4370117.9194336l.0239258-.012207c-.059082-.7299805-.0859375-1.5170898-.0800781-2.3613281v-2.4194336h.675293v5.7612305h-.7280273l-1.7758789-2.925293c-.4018555-.6518555-.7470703-1.2939453-1.0361328-1.9262695l-.0253906.0083008c.0361328.6796875.0546875,1.4726562.0546875,2.3779297v2.465332h-.6757812Z"/>
        <path d="M25.4575195,21.9370117c-.1586914.0610352-.3901367.1259766-.6938477.1948242-.2958984.0717773-.637207.1103516-1.0244141.1162109-.8417969.0053711-1.5356445-.2480469-2.081543-.7597656-.5224609-.5068359-.7890625-1.222168-.800293-2.1459961.0053711-.8769531.2758789-1.5893555.8115234-2.1376953.5327148-.5537109,1.2724609-.8334961,2.2192383-.8388672.6708984.0195312,1.1391602.1079102,1.4042969.2661133l-.1816406.6035156c-.1425781-.0800781-.3134766-.1411133-.512207-.184082-.1967773-.0454102-.4360352-.0683594-.7182617-.0683594-1.4604492.0283203-2.206543.8027344-2.2387695,2.3237305.0322266,1.5327148.7490234,2.3100586,2.1503906,2.3320312.4736328-.0053711.7924805-.0571289.956543-.1547852v-1.7246094h-1.121582v-.5917969h1.8305664v2.7695312Z"/>
      </g>
    </g>
  </g>
  <g id="Layer_3" data-name="Layer 3">
    <g>
      <path d="M34.4268,23.2568115c-2.9825.7354-4.6993,2.6611885-7.7334,3.3774999-2.7574.6513-.1133-2.1659999-2.4737-1.9336-3.852.5278-5.9384,3.6986999-6.0678,5.8104999-.105,1.7271,1.5214,3.4692999,4.3002,4.2455999,5.4366,1.5171,13.295,1.0596,17.7193-2.5678112,1.9502-1.5991886,2.3618-4.0527886,1.102-6.1503885-.9824-1.6402-3.8042-3.5341999-6.8466-2.7817999ZM25.4399,27.9492114c1.441.0869,2.5289.669,2.4224,1.2945-.1069.6274-1.3647,1.0605-2.8052.9731-1.4399-.0869-2.519-.6646-2.4135-1.2905.1049-.626,1.3554-1.0655,2.7963-.9771Z" fill="none" stroke="#000" stroke-width="2"/>
      <path d="M34.4268,23.2568115c-2.9825.7354-4.6993,2.6611885-7.7334,3.3774999-2.7574.6513-.1133-2.1659999-2.4737-1.9336-3.852.5278-5.9384,3.6986999-6.0678,5.8104999-.105,1.7271,1.5214,3.4692999,4.3002,4.2455999,5.4366,1.5171,13.295,1.0596,17.7193-2.5678112,1.9502-1.5991886,2.3618-4.0527886,1.102-6.1503885-.9824-1.6402-3.8042-3.5341999-6.8466-2.7817999ZM25.4399,27.9492114c1.441.0869,2.5289.669,2.4224,1.2945-.1069.6274-1.3647,1.0605-2.8052.9731-1.4399-.0869-2.519-.6646-2.4135-1.2905.1049-.626,1.3554-1.0655,2.7963-.9771Z" fill="url(#radial-gradient)"/>
      <path d="M28.3945,28.7222114c.1055-.626-.9814-1.2076-2.4238-1.2959-1.375-.084-2.5723.3115-2.7734.8911.52-.2725,1.3442-.4229,2.2426-.3682,1.441.0869,2.5289.669,2.4224,1.2945-.0044.0302-.0146.0556-.0254.0844.3145-.1626.5181-.3706.5576-.6059Z" fill="url(#radial-gradient-2)"/>
      <path d="M22.9888,34.2368113c-2.773-.7641-4.4107-2.5194999-4.3052-4.2465999.0625-1.0542114.6147-2.3714999,1.6274-3.4935999-1.3486,1.2158-2.0844,2.7924999-2.1591,4.0145999-.105,1.7271,1.5214,3.4692999,4.3002,4.2455999,5.4366,1.5171,13.2964,1.0591,17.7193-2.5678112.1704-.1410887.3271-.3071887.4746-.4653887-4.8081,3.5014999-12.1577,4.0307999-17.6572,2.5131999Z" fill="url(#radial-gradient-3)"/>
      <g>
        <path d="M28.48,31.6357113c1.4555-.042,2.6108.5752,2.5737,1.3755-.0381.8003-1.2563,1.4805-2.7143,1.522-1.4581.0415-2.604-.5693-2.565-1.3701.0386-.7998,1.2481-1.4839,2.7056-1.5274Z" fill="url(#radial-gradient-4)" stroke="#999" stroke-width=".5"/>
        <path d="M29.7822,33.5937113c-1.5195.044-2.604-.7075-2.2763-1.5078-1.5533.2364-1.5381,1.3077-.5684,1.8267,1.5771.8428,3.9634-.3501,2.8447-.3189" fill="url(#radial-gradient-5)"/>
      </g>
      <g>
        <path d="M32.6143,30.147c1.4975-.2201886,1.8491.5327114,3.1049,1.6142113,1.2564,1.084-1.1801,1.9067887-3.1074,1.7813-1.9258-.1255113-2.6025-.8648-3.0928-1.6104-.4907-.7451113,1.5987-1.5659,3.0953-1.7851113Z" fill="url(#radial-gradient-6)" stroke="#23a11f" stroke-width=".5"/>
        <path d="M34.9009,32.4907113c-1.9287-.0185-4.6094-.8135-3.8252-1.7236-1.7056.3901-.9976,1.3315.2803,1.937,2.0776.9858,4.9619-.2002,3.5449-.2134" fill="url(#radial-gradient-7)"/>
      </g>
      <g>
        <path d="M33.6523,25.207c.9893-.9872885,2.6294-1.0214885,4.1094-.354,1.479.666,1.9331,1.4766115.6333,2.1109114-1.3017.6342-3.5068,1.0595-4.6719.747-1.165-.3125-1.062-1.5156-.0708-2.5039114Z" fill="url(#radial-gradient-8)" stroke="#0342d3" stroke-width=".5"/>
        <path d="M37.8169,25.8921115c-1.229.7573-3.4629,1.0141-4.291.2725-.834,1.1137.6318,1.5122,2.4009,1.2285,2.8808-.4619,2.7934-2.0561999,1.8901-1.501" fill="url(#radial-gradient-9)"/>
      </g>
      <g>
        <path d="M34.2202,28.3022114c1.3838-.6015,3.0713-.4917,4.8526-.4096,1.7836.082,1.3774,1.457.246,2.3710999-1.1328.915-4.041,1.539-4.8681.415-.8262-1.1235-1.6138-1.7739-.2305-2.3764999Z" fill="url(#radial-gradient-10)" stroke="red" stroke-width=".5"/>
        <path d="M39.0308,28.7856114c-1.482.9878-3.4029.7139-4.7564.107-.834.6753.417,2.1766999,2.3853,1.9438,3.2026-.3799,3.4604-2.7738999,2.3711-2.0507999" fill="url(#radial-gradient-11)"/>
      </g>
    </g>
    <g>
      <path d="M21.6875,38.3853112c-.1436-.0552-.3008-.1299-.4736-.2334-5.2251-3.0634999-9.8531-5.4849112-14.3965-9.7705998.0088.0035.0146.0044.0239.0079-.0073-.0069-.0112-.0108-.0181-.0181,5.9532,2.0214999,10.2232,4.9105999,15.4131,8.1395998.1533.0957.2881.1968.4058.2989.3433.1152.687.3169.959.4966.2334.1533.4682.3549.6357.582.2857-.1143.5254-.1109.9634.0669.7095.2881,2.0903-.314,2.8144-.3848,1.4361-.1391,1.0284,2.0873999.8643,2.8163999-.1685-.9819-1.1528-.1513-1.46.1367-.7182.6739-1.1992,1.1602-2.3051.8935889-1.0386-.25-1.9004-1.4110889-1.8531-2.1273889-.4077-.0918-.8237-.3321-1.1113-.5787-.1816-.1088-.3349-.2163-.4619-.3256Z" fill="none" stroke="#000" stroke-linecap="round" stroke-linejoin="round" stroke-width="2"/>
      <path d="M23.7891,38.1196112c-.8521.8711-.3252,2.9008999,1.3247,3.2973888,1.1059.2666111,1.5869-.2196889,2.3051-.8935889.3072-.288,1.2915-1.1186,1.46-.1367.1641-.729.5718-2.9554999-.8643-2.8163999-.7241.0708-2.1049.6729-2.8144.3848-.6392-.2598-.8594-.1485-1.4111.1645" fill="url(#linear-gradient)"/>
      <path d="M24.2896,38.3994112c-.461.3892.4311,1.2481,1.7153,1.3198.8603.0489,1.1299-.1728,1.5425-.4814.1753-.1314.7553-.5181,1.0498-.1328111-.0064-.3002889-.0933-1.2172888-1.1265-1.0863888-.5215.0659-1.0986.7812-1.7119.6816-.5527-.0908-1.1235-.4517-1.4692-.3008" fill="url(#linear-gradient-2)"/>
      <path d="M22.1494,38.7109111c-.9443-.5634-1.1372-1.1308-.7051-1.6704.5464-.6792,1.5323-.143,2.1568.2657.5898.3876,1.1924,1.0864.6977,1.7011-.5205.6489-1.5835.19-2.1494-.2964" fill="url(#radial-gradient-12)"/>
      <path d="M23.6973,39.1797111c1.081-.9229-1.6353-1.6187111-1.3335-2.2577999-.2403.5107,3.1704.687,1.3335,2.2577999" fill="url(#linear-gradient-3)"/>
      <path d="M22.998,38.1768112c-.2973.3501-.81.5478-1.7841-.0249-5.2251-3.0634999-9.8531-5.4849112-14.3965-9.7705998.0088.0035.0146.0044.0239.0079-.0073-.0069-.0112-.0108-.0181-.0181,5.9532,2.0214999,10.2232,4.9105999,15.4131,8.1395998.8325.5186,1.1299,1.1542888.7617,1.6661" fill="none" stroke="#4d4d4d" stroke-miterlimit="3.8637" stroke-width=".5"/>
      <path d="M22.998,38.1768112c-.2973.3501-.81.5478-1.7841-.0249-5.2251-3.0634999-9.8531-5.4849112-14.3965-9.7705998.0088.0035.0146.0044.0239.0079-.0073-.0069-.0112-.0108-.0181-.0181,5.9532,2.0214999,10.2232,4.9105999,15.4131,8.1395998.8325.5186,1.1299,1.1542888.7617,1.6661" fill="url(#linear-gradient-4)"/>
      <path d="M8.3633,29.1821114c2.4922,2.0453999,4.4287,3.3324999,7.1474,4.9667999,1.1368.6836,2.2759,1.3452,3.4053,2.0033999l1.9575,1.1426c.8223.4829,1.4263.5142,1.7969.0908.0283-.0366.044-.0766.0645-.1167112.1743.232.289.5313112.0776.8228112-.313.3545-.8228.3203-1.5576-.1118112l-1.9653-1.1488888c-1.1285-.6563-2.2652-1.3174-3.4-1.9975999-3.1357-1.8862-5.475-3.4633999-8.2768-5.9398998.2456.0913.4946.1865.7505.2885Z" fill="url(#linear-gradient-5)"/>
      <g mask="url(#mask-3)">
        <g>
          <path d="M23.7891,38.1196112c-.8521.8711-.3252,2.9008999,1.3247,3.2973888,1.1059.2666111,1.5869-.2196889,2.3051-.8935889.3072-.288,1.2915-1.1186,1.46-.1367.1641-.729.5718-2.9554999-.8643-2.8163999-.7241.0708-2.1049.6729-2.8144.3848-.6392-.2598-.8594-.1485-1.4111.1645" fill="url(#linear-gradient-6)"/>
          <path d="M24.2896,38.3994112c-.461.3892.4311,1.2481,1.7153,1.3198.8603.0489,1.1299-.1728,1.5425-.4814.1753-.1314.7553-.5181,1.0498-.1328111-.0064-.3002889-.0933-1.2172888-1.1265-1.0863888-.5215.0659-1.0986.7812-1.7119.6816-.5527-.0908-1.1235-.4517-1.4692-.3008" fill="url(#linear-gradient-7)"/>
        </g>
      </g>
    </g>
  </g>
</svg>