<?xml version='1.0' encoding='UTF-8'?>
<svg xmlns="http://www.w3.org/2000/svg" xmlns:xlink="http://www.w3.org/1999/xlink" width="48" height="48" viewBox="0 0 48 48">
  <defs>
    <mask id="mask" x="6.5663925" y="5" width="35.4336075" height="40.3848134" maskUnits="userSpaceOnUse">
      <path d="M25.46,43.4297135l-17.8936075-4.4609999L15.7870923,6l25.2129077,6.2832142-6.4131081,25.6493994c-.8681,3.4853864-5.7304999,6.3437998-9.1268919,5.4970999Z" fill="#fff" fill-rule="evenodd" stroke="#fff" stroke-linecap="round" stroke-linejoin="round" stroke-width="2"/>
    </mask>
    <linearGradient id="New_Gradient_399" data-name="New Gradient 399" x1="14.9177709" y1="6.4239964" x2="33.3643272" y2="44.2450416" gradientUnits="userSpaceOnUse">
      <stop offset="0" stop-color="#e5e5e5"/>
      <stop offset="1" stop-color="#fff"/>
    </linearGradient>
    <radialGradient id="New_Gradient_400" data-name="New Gradient 400" cx="22.1427464" cy="27.2104268" fx="22.1427464" fy="27.2104268" r="8.8644027" gradientTransform="translate(11.5808 3.1339) rotate(13.9915205) skewX(-.0111829)" gradientUnits="userSpaceOnUse">
      <stop offset="0" stop-color="#fff"/>
      <stop offset="1" stop-color="#ccc"/>
    </radialGradient>
    <mask id="mask-1" x="7.5663925" y="6" width="33.4336075" height="39.3848134" maskUnits="userSpaceOnUse">
      <path d="M25.46,43.4297135l-17.8936075-4.4609999L15.7870923,6l25.2129077,6.2832142-6.4131081,25.6493994c-.8681,3.4853864-5.7304999,6.3437998-9.1268919,5.4970999Z" fill="#fff" fill-rule="evenodd"/>
    </mask>
    <linearGradient id="New_Gradient_401" data-name="New Gradient 401" x1="14.9177709" y1="6.4239964" x2="33.3643272" y2="44.2450416" gradientUnits="userSpaceOnUse">
      <stop offset="0" stop-color="#e5e5e5"/>
      <stop offset=".286514" stop-color="#f2f2f2"/>
      <stop offset=".646072" stop-color="#fff"/>
      <stop offset="1" stop-color="#fff"/>
    </linearGradient>
    <radialGradient id="New_Gradient_402" data-name="New Gradient 402" cx="22.1427464" cy="27.2104268" fx="22.1427464" fy="27.2104268" r="8.8644027" gradientTransform="translate(11.5808 3.1339) rotate(13.9915205) skewX(-.0111829)" gradientUnits="userSpaceOnUse">
      <stop offset="0" stop-color="#e5e5e5"/>
      <stop offset=".331467" stop-color="#e5e5e5"/>
      <stop offset="1" stop-color="#999"/>
    </radialGradient>
    <radialGradient id="radial-gradient" cx="1913.5218134" cy="-318.1836949" fx="1913.5218134" fy="-318.1836949" r="21.776095" gradientTransform="translate(812.152 141.5979) scale(-.4077 .3568)" gradientUnits="userSpaceOnUse">
      <stop offset=".067416" stop-color="#000"/>
      <stop offset=".1261794" stop-color="#03040d"/>
      <stop offset=".3814362" stop-color="#111645"/>
      <stop offset=".5716483" stop-color="#1a2167"/>
      <stop offset=".674157" stop-color="#1e2675"/>
      <stop offset=".7155498" stop-color="#505795"/>
      <stop offset=".7633361" stop-color="#848ab7"/>
      <stop offset=".8050186" stop-color="#a9afcf"/>
      <stop offset=".8384878" stop-color="#c0c5de"/>
      <stop offset=".85955" stop-color="#c9cee4"/>
    </radialGradient>
    <radialGradient id="radial-gradient-2" cx="1834.5711405" cy="-461.8347385" fx="1834.5711405" fy="-461.8347385" r="26.3670723" gradientTransform="translate(807.8474 159.2467) scale(-.4262 .2737)" gradientUnits="userSpaceOnUse"><stop offset=".067416" stop-color="#000"/><stop offset=".1261794" stop-color="#03040d"/><stop offset=".3814362" stop-color="#111645"/><stop offset=".5716483" stop-color="#1a2167"/><stop offset=".674157" stop-color="#1e2675"/><stop offset=".7155498" stop-color="#505795"/><stop offset=".7633361" stop-color="#848ab7"/><stop offset=".8050186" stop-color="#a9afcf"/><stop offset=".8384878" stop-color="#c0c5de"/><stop offset=".85955" stop-color="#c9cee4"/></radialGradient>
    <radialGradient id="radial-gradient-3" cx="1837.0720221" cy="-220.0174813" fx="1837.0720221" fy="-220.0174813" r="18.0228363" gradientTransform="translate(807.8445 130.4428) scale(-.4262 .4262)" gradientUnits="userSpaceOnUse"><stop offset=".067416" stop-color="#000"/><stop offset=".1261794" stop-color="#03040d"/><stop offset=".3814362" stop-color="#111645"/><stop offset=".5716483" stop-color="#1a2167"/><stop offset=".674157" stop-color="#1e2675"/><stop offset=".7155498" stop-color="#505795"/><stop offset=".7633361" stop-color="#848ab7"/><stop offset=".8050186" stop-color="#a9afcf"/><stop offset=".8384878" stop-color="#c0c5de"/><stop offset=".85955" stop-color="#c9cee4"/></radialGradient>
  </defs>
  <g id="Layer_4" data-name="Layer 4">
    <g>
      <g mask="url(#mask)">
        <g>
          <path d="M25.46,43.4297135l-17.8936075-4.4609999L15.7870923,6l25.2129077,6.2832142-6.4131081,25.6493994c-.8681,3.4853864-5.7304999,6.3437998-9.1268919,5.4970999Z" fill="url(#New_Gradient_399)" fill-rule="evenodd"/>
          <path d="M24.2645921,43.2617135s4.2187999.8809,5.3759999-3.7577999c4.3046999,1.0732,5.274408-2.6719136,5.274408-2.6719136l-2.1328081,8.5528134-8.5175998-2.1230999Z" fill="url(#New_Gradient_400)" fill-rule="evenodd"/>
          <path d="M25.46,43.4297135l-17.8936075-4.4609999L15.7870923,6l25.2129077,6.2832142-6.4131081,25.6493994c-.8681,3.4853864-5.7304999,6.3437998-9.1268919,5.4970999Z" fill="none" fill-rule="evenodd" stroke="#000" stroke-linecap="round" stroke-linejoin="round" stroke-width="2"/>
        </g>
      </g>
      <g mask="url(#mask-1)">
        <g>
          <path d="M25.46,43.4297135l-17.8936075-4.4609999L15.7870923,6l25.2129077,6.2832142-6.4131081,25.6493994c-.8681,3.4853864-5.7304999,6.3437998-9.1268919,5.4970999Z" fill="url(#New_Gradient_401)" fill-rule="evenodd"/>
          <path d="M24.2645921,43.2617135s4.2187999.8809,5.3759999-3.7577999c4.3046999,1.0732,5.274408-2.6719136,5.274408-2.6719136l-2.1328081,8.5528134-8.5175998-2.1230999Z" fill="url(#New_Gradient_402)" fill-rule="evenodd"/>
        </g>
      </g>
    </g>
  </g>
  <g id="Layer_5" data-name="Layer 5">
    <g>
      <path d="M13.1942924,29.5195138c6.3897076,1.5918,12.7783997,3.1874862,19.1708995,4.7812999" fill="none" stroke="#ccc" stroke-linecap="round" stroke-linejoin="round" stroke-width="1.0502"/>
      <path d="M17.3036923,13.0381142c6.3896998,1.5918,12.7783077,3.1864999,19.1708995,4.7811999" fill="none" stroke="#ccc" stroke-linecap="round" stroke-linejoin="round" stroke-width="1.0502"/>
      <path d="M15.6601923,19.6309141c6.3895998,1.5908,12.7782997,3.1874999,19.1708995,4.7801999" fill="none" stroke="#ccc" stroke-linecap="round" stroke-linejoin="round" stroke-width="1.0502"/>
      <path d="M16.4823923,16.334c6.3886998,1.5918141,12.7773997,3.1875141,19.1698995,4.781214" fill="none" stroke="#ccc" stroke-linecap="round" stroke-linejoin="round" stroke-width="1.0502"/>
      <path d="M14.0155924,26.2227139c6.3906998,1.5918,12.7782997,3.1874999,19.1708995,4.7811999" fill="none" stroke="#ccc" stroke-linecap="round" stroke-linejoin="round" stroke-width="1.0502"/>
      <path d="M14.8378923,22.925814c6.3895998,1.5928,12.7782997,3.1884999,19.1708995,4.782186" fill="none" stroke="#ccc" stroke-linecap="round" stroke-linejoin="round" stroke-width="1.0502"/>
    </g>
    <g>
      <path d="M27.323192,26.6309139c0,3.1463999,2.4623999,5.6996999,5.5004999,5.6996999,3.0405999,0,5.5019999-2.5532999,5.5019999-5.6996999,0-3.1499139-2.4613999-5.7055999-5.5019999-5.7055999-3.0380999,0-5.5004999,2.555686-5.5004999,5.7055999Z" stroke="#000" stroke-width="1.478"/>
      <path d="M34.3935919,29.8628138c0-2.2401999-1.816-4.0639999-4.0629999-4.0639999-2.2460999,0-4.060592,1.8238-4.060592,4.0639999,0,2.2465999,1.814492,4.0648999,4.060592,4.0648999,2.2469999,0,4.0629999-1.8183,4.0629999-4.0648999Z" stroke="#000" stroke-width="1.478"/>
      <path d="M25.1010921,33.5049137c0,1.5327,1.2446,2.7748999,2.7787999,2.7748999,1.5322,0,2.7772999-1.2422,2.7772999-2.7748999,0-1.5352-1.2451-2.7787999-2.7772999-2.7787999-1.5342,0-2.7787999,1.2436-2.7787999,2.7787999Z" stroke="#000" stroke-width="1.478"/>
      <g>
        <path d="M37.0116918,29.4722138c1.4776.3413,3.6308999,1.5512,4.8949999.643.6172-.4419,1-1.2075,1.4922-1.7675.6089-.6988,1.2285-1.399,1.7881084-2.1699999" fill="none" stroke="#000" stroke-width=".9853"/>
        <path d="M28.422892,27.7896138c-1.5196-.3677-4.3691999-.1993-4.797892-1.7549-.2168079-.7642-.0269079-1.2744-.0469079-1.9688-.0278-.8774.0791-2.7499999.1826-3.8695999" fill="none" stroke="#000" stroke-width=".9853"/>
      </g>
      <g>
        <path d="M30.094692,33.0728137c1.614308.3266,3.2406999.9809,4.821308,1.7055.0160918.3736-.4482081.6509-.6806081.9429-.2837.3569-.5118.7787864-.7188,1.1904-.1655.3325-.2769,1.0332-.6313,1.2803-.5782.4067-2.0771999.2402-2.8334999.2393-.1475.1684-.3282.249-.544.3891" fill="none" stroke="#000" stroke-width=".9853"/>
        <path d="M25.6103921,32.1055137c-1.2353921-.2832-2.5673921-.3267-3.7607999-.3086-.2383.2230863-.2129.521-.2998.7640863-.1011.3028137-.2681.6245137-.4409.9361137-.1318.248-.5161.6963-.5268922.9628863-.0166078.437.7138922.9174137,1.0561922,1.226-.0474.1626136-.0171.2911136-.0111922.4727136" fill="none" stroke="#000" stroke-width=".9853"/>
      </g>
      <line x1="44.125" y1="34.3843137" x2="18.374" y2="28.4395138" fill="none" stroke="#000" stroke-width=".9853"/>
      <path d="M27.323192,25.7427139c0,2.6581999,2.4623999,4.8114999,5.5004999,4.8114999,3.0405999,0,5.5019999-2.1547999,5.5019999-4.8114999,0-2.6607139-2.4613999-4.8173999-5.5019999-4.8173999-3.0380999,0-5.5004999,2.156686-5.5004999,4.8173999Z" fill="url(#radial-gradient)" stroke="#000" stroke-width=".4927"/>
      <path d="M34.3935919,29.8628138c0-1.4395-1.816-2.6068999-4.0629999-2.6068999-2.2460999,0-4.060592,1.1674-4.060592,2.6068999,0,1.4424,1.814492,2.6117999,4.060592,2.6117999,2.2469999,0,4.0629999-1.1694,4.0629999-2.6117999Z" fill="url(#radial-gradient-2)" stroke="#000" stroke-width=".4927"/>
      <path d="M25.1010921,33.5049137c0,1.5327,1.2446,2.7748999,2.7787999,2.7748999,1.5322,0,2.7772999-1.2422,2.7772999-2.7748999,0-1.5352-1.2451-2.7787999-2.7772999-2.7787999-1.5342,0-2.7787999,1.2436-2.7787999,2.7787999Z" fill="url(#radial-gradient-3)" stroke="#000" stroke-width=".4927"/>
    </g>
  </g>
</svg>