<?xml version="1.0" encoding="UTF-8"?>
<svg xmlns="http://www.w3.org/2000/svg" width="48" height="48" xmlns:xlink="http://www.w3.org/1999/xlink" viewBox="0 0 48 48">
  <defs>
    <mask id="mask" x="6.5663937" y="5" width="35.4336063" height="40.3848098" maskUnits="userSpaceOnUse">
      <path d="M25.46,43.4297098l-17.8936063-4.4609999L15.7870935,6l25.2129065,6.2832106-6.4131069,25.6493994c-.8681,3.48539-5.7304999,6.3437998-9.1268931,5.4970999Z" fill="#fff" fill-rule="evenodd" stroke="#fff" stroke-linecap="round" stroke-linejoin="round" stroke-width="2"/>
    </mask>
    <linearGradient id="New_Gradient_399" data-name="New Gradient 399" x1="14.9177731" y1="6.4239959" x2="33.3643283" y2="44.2450389" gradientUnits="userSpaceOnUse">
      <stop offset="0" stop-color="#e5e5e5"/>
      <stop offset="1" stop-color="#fff"/>
    </linearGradient>
    <radialGradient id="New_Gradient_400" data-name="New Gradient 400" cx="58.3451898" cy="35.403765" fx="58.3451898" fy="35.403765" r="8.8644008" gradientTransform="translate(-21.376 -13.4741) rotate(13.9915205) skewX(-.0111829)" gradientUnits="userSpaceOnUse">
      <stop offset="0" stop-color="#fff"/>
      <stop offset="1" stop-color="#ccc"/>
    </radialGradient>
    <mask id="mask-1" x="7.5663937" y="6" width="33.4336063" height="39.3848098" maskUnits="userSpaceOnUse">
      <path d="M25.46,43.4297098l-17.8936063-4.4609999L15.7870935,6l25.2129065,6.2832106-6.4131069,25.6493994c-.8681,3.48539-5.7304999,6.3437998-9.1268931,5.4970999Z" fill="#fff" fill-rule="evenodd"/>
    </mask>
    <linearGradient id="New_Gradient_401" data-name="New Gradient 401" x1="14.9177731" y1="6.4239959" x2="33.3643283" y2="44.2450389" gradientUnits="userSpaceOnUse">
      <stop offset="0" stop-color="#e5e5e5"/>
      <stop offset=".286514" stop-color="#f2f2f2"/>
      <stop offset=".646072" stop-color="#fff"/>
      <stop offset="1" stop-color="#fff"/>
    </linearGradient>
    <radialGradient id="New_Gradient_402" data-name="New Gradient 402" cx="58.3451898" cy="35.403765" fx="58.3451898" fy="35.403765" r="8.8644008" gradientTransform="translate(-21.376 -13.4741) rotate(13.9915205) skewX(-.0111829)" gradientUnits="userSpaceOnUse">
      <stop offset="0" stop-color="#e5e5e5"/>
      <stop offset=".331467" stop-color="#e5e5e5"/>
      <stop offset="1" stop-color="#999"/>
    </radialGradient>
    <mask id="mask-2" x="7" y="15" width="23.1527932" height="13" maskUnits="userSpaceOnUse">
      <rect x="7" y="15" width="22" height="11.8018102" fill="#fff"/>
    </mask>
    <mask id="mask-3" x="24.0287933" y="32.0063101" width="20.7832067" height="9.2963998" maskUnits="userSpaceOnUse">
      <polygon points="44.812 34.0718101 44.2885928 36.83841 30.2377932 40.4624099 24.7265933 34.94971 24.7265933 33.0991101 44.812 34.0718101" fill="#fff" fill-rule="evenodd"/>
    </mask>
    <linearGradient id="New_Gradient_410" data-name="New Gradient 410" x1="23.3157096" y1="40.5226471" x2="30.9861104" y2="32.8522463" gradientUnits="userSpaceOnUse">
      <stop offset="0" stop-color="#999"/>
      <stop offset=".382019" stop-color="#999"/>
      <stop offset=".786514" stop-color="#666"/>
      <stop offset="1" stop-color="#666"/>
    </linearGradient>
    <mask id="mask-4" x="24.0287933" y="24.3667103" width="21.8949994" height="15.6264996" maskUnits="userSpaceOnUse">
      <path d="M24.4906933,29.4185102v3.8959999l5.5703067,5.5682999,15.5947928-3.8866999v-2.2367999c-2.1840999-4.8178999-6.0058998-7.1855998-6.0058998-7.1855998l-15.1591996,3.8447999Z" fill="#fff" fill-rule="evenodd"/>
    </mask>
    <radialGradient id="New_Gradient_408" data-name="New Gradient 408" cx="29.5745502" cy="27.8748536" fx="29.5745502" fy="27.8748536" r="16.0799808" gradientUnits="userSpaceOnUse">
      <stop offset="0" stop-color="#f2f2f2"/>
      <stop offset="1" stop-color="#b2b2b2"/>
    </radialGradient>
    <mask id="mask-5" x="26.3210468" y="22.4841935" width="11.9094461" height="9.0519166" maskUnits="userSpaceOnUse">
      <polygon points="38.230493 28.3232102 30.6342932 31.5361101 27.5 29.6836102 26.6884933 25.6011103 37.220193 22.8799103 38.230493 28.3232102" fill="#fff" fill-rule="evenodd"/>
    </mask>
    <linearGradient id="New_Gradient_407" data-name="New Gradient 407" x1="30.649902" y1="22.2527944" x2="34.7674343" y2="31.9530928" gradientUnits="userSpaceOnUse">
      <stop offset="0" stop-color="#999"/>
      <stop offset="1" stop-color="#4c4c4c"/>
    </linearGradient>
    <linearGradient id="New_Gradient_406" data-name="New Gradient 406" x1="31.1886275" y1="20.6524866" x2="34.1417546" y2="31.673707" gradientUnits="userSpaceOnUse">
      <stop offset="0" stop-color="#fff"/>
      <stop offset=".662918" stop-color="#e5e5e5"/>
      <stop offset="1" stop-color="#737373"/>
    </linearGradient>
    <radialGradient id="New_Gradient_405" data-name="New Gradient 405" cx="-138.4957294" cy="-51.2634721" fx="-138.4957294" fy="-51.2634721" r="21.6006244" gradientTransform="translate(117.4749 66.1205) scale(.6533)" gradientUnits="userSpaceOnUse">
      <stop offset="0" stop-color="#3c97f6"/>
      <stop offset=".235962" stop-color="#3c97f6"/>
      <stop offset="1" stop-color="#0342d3"/>
    </radialGradient>
    <linearGradient id="New_Gradient_404" data-name="New Gradient 404" x1="25.7067286" y1="29.2714755" x2="44.4895262" y2="34.3043109" gradientUnits="userSpaceOnUse">
      <stop offset="0" stop-color="#fff"/>
      <stop offset="1" stop-color="#999"/>
    </linearGradient>
    <radialGradient id="New_Gradient_403" data-name="New Gradient 403" cx="-133.1287211" cy="-48.9173231" fx="-133.1287211" fy="-48.9173231" r="1.6668667" gradientTransform="translate(117.4749 66.1205) scale(.6533)" gradientUnits="userSpaceOnUse">
      <stop offset="0" stop-color="#23a11f"/>
      <stop offset="1" stop-color="#005e00"/>
    </radialGradient>
    <radialGradient id="New_Gradient_398" data-name="New Gradient 398" cx="-130.7258207" cy="-49.4973385" fx="-130.7258207" fy="-49.4973385" r="1.6656727" gradientTransform="translate(117.4749 66.1205) scale(.6533)" gradientUnits="userSpaceOnUse">
      <stop offset="0" stop-color="red"/>
      <stop offset="1" stop-color="#a70000"/>
    </radialGradient>
    <linearGradient id="New_Gradient_391" data-name="New Gradient 391" x1="27.7424152" y1="28.9629855" x2="42.179509" y2="37.2982455" gradientUnits="userSpaceOnUse">
      <stop offset="0" stop-color="#fff"/>
      <stop offset=".449432" stop-color="#fff"/>
      <stop offset="1" stop-color="#d9d9d9"/>
    </linearGradient>
    <linearGradient id="New_Gradient_390" data-name="New Gradient 390" x1="38.3009207" y1="30.5958719" x2="40.6274494" y2="26.398703" gradientUnits="userSpaceOnUse">
      <stop offset="0" stop-color="#3c97f6"/>
      <stop offset="1" stop-color="#0342d3"/>
    </linearGradient>
    <radialGradient id="New_Gradient_389" data-name="New Gradient 389" cx="-133.3462026" cy="-56.7909077" fx="-133.3462026" fy="-56.7909077" r="15.4960352" gradientTransform="translate(117.4749 66.1205) scale(.6533)" gradientUnits="userSpaceOnUse">
      <stop offset="0" stop-color="#b7e9ff"/>
      <stop offset=".69101" stop-color="#3c97f6"/>
      <stop offset="1" stop-color="#0342d3"/>
    </radialGradient>
  </defs>
  <g id="Layer_4" data-name="Layer 4">
    <g>
      <g mask="url(#mask)">
        <g>
          <path d="M25.46,43.4297098l-17.8936063-4.4609999L15.7870935,6l25.2129065,6.2832106-6.4131069,25.6493994c-.8681,3.48539-5.7304999,6.3437998-9.1268931,5.4970999Z" fill="url(#New_Gradient_399)" fill-rule="evenodd"/>
          <path d="M24.2645933,43.2617098s4.2187999.8809,5.3759999-3.7577999c4.3046999,1.0732,5.2744068-2.6719099,5.2744068-2.6719099l-2.1328069,8.5528098-8.5175998-2.1230999Z" fill="url(#New_Gradient_400)" fill-rule="evenodd"/>
          <path d="M25.46,43.4297098l-17.8936063-4.4609999L15.7870935,6l25.2129065,6.2832106-6.4131069,25.6493994c-.8681,3.48539-5.7304999,6.3437998-9.1268931,5.4970999Z" fill="none" fill-rule="evenodd" stroke="#000" stroke-linecap="round" stroke-linejoin="round" stroke-width="2"/>
        </g>
      </g>
      <g mask="url(#mask-1)">
        <g>
          <path d="M25.46,43.4297098l-17.8936063-4.4609999L15.7870935,6l25.2129065,6.2832106-6.4131069,25.6493994c-.8681,3.48539-5.7304999,6.3437998-9.1268931,5.4970999Z" fill="url(#New_Gradient_401)" fill-rule="evenodd"/>
          <path d="M24.2645933,43.2617098s4.2187999.8809,5.3759999-3.7577999c4.3046999,1.0732,5.2744068-2.6719099,5.2744068-2.6719099l-2.1328069,8.5528098-8.5175998-2.1230999Z" fill="url(#New_Gradient_402)" fill-rule="evenodd"/>
        </g>
      </g>
    </g>
  </g>
  <g id="Layer_5" data-name="Layer 5">
    <g>
      <path d="M13.1942936,29.5195102c6.3897064,1.5918,12.7783997,3.1874898,19.1708995,4.7812999" fill="none" stroke="#ccc" stroke-linecap="round" stroke-linejoin="round" stroke-width="1.0502"/>
      <path d="M17.3036935,13.0381106c6.3896998,1.5918,12.7783065,3.1864999,19.1708995,4.7811999" fill="none" stroke="#ccc" stroke-linecap="round" stroke-linejoin="round" stroke-width="1.0502"/>
      <path d="M15.6601935,19.6309104c6.3895998,1.5908,12.7782997,3.1874999,19.1708995,4.7801999" fill="none" stroke="#ccc" stroke-linecap="round" stroke-linejoin="round" stroke-width="1.0502"/>
      <path d="M16.4823935,16.334c6.3886998,1.5918105,12.7773997,3.1875104,19.1698995,4.7812104" fill="none" stroke="#ccc" stroke-linecap="round" stroke-linejoin="round" stroke-width="1.0502"/>
      <path d="M14.0155936,26.2227103c6.3906998,1.5918,12.7782997,3.1874999,19.1708995,4.7811999" fill="none" stroke="#ccc" stroke-linecap="round" stroke-linejoin="round" stroke-width="1.0502"/>
      <path d="M14.8378936,22.9258103c6.3895998,1.5928,12.7782997,3.1884999,19.1708995,4.7821897" fill="none" stroke="#ccc" stroke-linecap="round" stroke-linejoin="round" stroke-width="1.0502"/>
    </g>
    <g>
      <path d="M23.3573933,20.2012104c2.4667999-.6543,4.9326067-1.3125,7.4023998-1.9668" fill="none" stroke="#ccc" stroke-linecap="round" stroke-linejoin="round" stroke-width="1.0502"/>
      <path d="M24.5702933,25.0703103c2.4677999-.6582,4.9345999-1.3135,7.4052998-1.9678" fill="none" stroke="#ccc" stroke-linecap="round" stroke-linejoin="round" stroke-width="1.0502"/>
      <path d="M24.167,23.4482103c2.4667933-.6582103,4.9335932-1.3134,7.4022931-1.9707" fill="none" stroke="#ccc" stroke-linecap="round" stroke-linejoin="round" stroke-width="1.0502"/>
      <path d="M23.7626933,21.8242104c2.4647999-.6562104,4.9335999-1.3135,7.4013998-1.9687" fill="none" stroke="#ccc" stroke-linecap="round" stroke-linejoin="round" stroke-width="1.0502"/>
    </g>
  </g>
  <g id="labels">
    <g opacity=".85">
      <rect x="7" y="15" width="22" height="11.8018102" fill="#032c87" stroke="#1459a5" stroke-width="2"/>
      <g mask="url(#mask-2)">
        <g>
          <rect x="7" y="15" width="22" height="11.8018102" fill="#fff"/>
          <rect x="8.1542937" y="16.1704105" width="21.9984994" height="11.8295895" fill="#d8eafd"/>
        </g>
      </g>
      <g>
        <path d="M12.6020508,18.5024414c.4536133-.0717773.9672852-.1103516,1.5400391-.1157227,1.0292969,0,1.7856445.2348633,2.2695312.7050781.5239258.4624023.7890625,1.1552734.7944336,2.0791016-.0053711.9521484-.2729492,1.6992188-.8027344,2.2421875-.5483398.5454102-1.3764648.8208008-2.484375.8266602-.5131836,0-.9521484-.0224609-1.3168945-.0664062v-5.6708984ZM13.3276367,23.6137695c.1904297.027832.4321289.0390625.7250977.0332031,1.5688477-.0332031,2.3583984-.8505859,2.3691406-2.4511719.0112305-1.4555664-.7397461-2.1972656-2.2524414-2.2250977-.3706055.0053711-.6513672.0302734-.8417969.0751953v4.5678711Z"/>
        <path d="M19.5625,24.1894531l-1.8295898-5.7612305h.7875977l.8681641,2.8388672c.2368164.7739258.4350586,1.4921875.59375,2.1547852h.0161133c.1669922-.6738281.3798828-1.3891602.6381836-2.1459961l.940918-2.8476562h.7714844l-1.9951172,5.7612305h-.7915039Z"/>
        <path d="M23.8271484,18.4282227v5.7612305h-.7255859v-5.7612305h.7255859Z"/>
      </g>
    </g>
  </g>
  <g id="Layer_3" data-name="Layer 3">
    <g>
      <path d="M45.6557928,32.7593101c-.1704-.3784-.3555-.7364-.5435-1.0821-.0762-.143-.1641-.2993-.2592928-.4604-.0488072-.084-.0981072-.1689-.1469072-.2539-.1089-.1797-.2295-.3677-.3545-.5596-.0371-.0571-.0728-.1113101-.1079-.1645-.605-.9038101-1.3896928-1.9185-2.3115999-2.8228101-.0132-.0062898.003.0244102.0298.0708102-1.2886-1.2754-2.3119999-1.9131-2.3119999-1.9131l-1.1103.2802897-.623593-1.4872897-.394507.1294-.228493-1.2339.387693-.272-.4195.106-.041-.2163-.4604.1172-.3907-2.0312999-8.9295998,2.3778999.352,1.9708-1.103.2866.6152,3.1029999-.2406932.0601c-.0376067-.0181-.061-.0288-.061-.0288l-.9087067.2607c.0078.0054.0112.0078.0171.0107l-.0547.0131898c0-.0062898-.003-.0160898-.0039-.0238898l-1.5435.396s.0078.0058.021.0156l-.0386.0108v3.8959999l.2359.2353v1.3999l5.5111999,5.5126999,14.0507996-3.6239999.2983-1.5757,1.0689-.2666v-2.2367999Z" stroke="#000" stroke-linecap="round" stroke-linejoin="round" stroke-width="2"/>
      <g>
        <g mask="url(#mask-3)">
          <g>
            <polygon points="44.812 34.0718101 44.2885928 36.83841 30.2377932 40.4624099 24.7265933 34.94971 24.7265933 33.0991101 44.812 34.0718101" fill="gray" fill-rule="evenodd"/>
            <polygon points="30.208 41.3027099 30.208 37.88041 24.1596933 32.0063101 24.0287933 34.94971 30.208 41.3027099" fill="url(#New_Gradient_410)" fill-rule="evenodd"/>
          </g>
        </g>
        <g mask="url(#mask-4)">
          <g>
            <path d="M24.4906933,29.4185102v3.8959999l5.5703067,5.5682999,15.5947928-3.8866999v-2.2367999c-2.1840999-4.8178999-6.0058998-7.1855998-6.0058998-7.1855998l-15.1591996,3.8447999Z" fill="url(#New_Gradient_408)" fill-rule="evenodd"/>
            <path d="M24.0722933,29.0425102s3.5004999,2.8744898,6.6888998,7.8676998v3.0829999l-6.7323998-7.0034998.0435-3.9471999Z" fill="#e5e5e5" fill-rule="evenodd"/>
            <polygon points="30.084 39.7979099 30.084 36.11081 45.7934928 32.2988101 45.9237928 35.67821 30.084 39.7979099" fill="#b2b2b2" fill-rule="evenodd"/>
            <polygon points="37.916 24.3667103 39.7074929 28.6372102 37.916 29.4653102 37.115193 24.6284103 37.916 24.3667103" fill="#4c4c4c" fill-rule="evenodd"/>
          </g>
        </g>
        <g mask="url(#mask-5)">
          <g>
            <polygon points="38.230493 28.3232102 30.6342932 31.5361101 27.5 29.6836102 26.6884933 25.6011103 37.220193 22.8799103 38.230493 28.3232102" fill="url(#New_Gradient_407)" fill-rule="evenodd"/>
            <polyline points="27.7772932 29.9023102 26.9301933 25.6743103 37.680693 22.9902103" fill="none" stroke="#ccc" stroke-miterlimit="3.8637" stroke-width="1.0431"/>
          </g>
        </g>
        <polygon points="38.189493 30.4375101 30.7860932 31.2803101 28.6820932 30.3184101 27.4394932 23.3437103 36.369093 20.9658104 38.189493 30.4375101" fill="url(#New_Gradient_406)" fill-rule="evenodd"/>
        <path d="M37.892593,26.0381103c.9536,1.5107.9282,2.7880999.9282,2.7880999,0,0-2.569793-.3116-7.9008998,1.8457-2.0697999-1.0083-3.9178932-1.9365-3.9178932-1.9365l-.9087067.2607c4.4325999,2.4716999,7.1459998,4.0170999,7.1459998,4.0170999,0,0,1.3501.2153,4.2845999-.4912101,2.623107-.6303899,3.580107-1.2841899,3.580107-1.2841899,0,0,.1166929-.7583-1.021-3.0302999-.9287071-1.8511-1.502907-2.3510999-1.502907-2.3510999l-.6875.1817Z" fill="url(#New_Gradient_405)" fill-rule="evenodd"/>
        <path d="M26.0517933,28.9961102c.0293.7538898.9941,2.2914999,2.1152067,3.7201999,1.3842932,1.7695,2.23,2.2694999,2.8422932,2.2284999l12.6361997-3.1693999c.9282-.6733-1.8701-4.4442999-1.7134-4.3594101,2.3334999,2.291,3.8129999,5.3003101,3.6132999,5.3872101l-15.4335996,3.8520999s-.8486-1.78231-2.4970999-3.9799999c-1.6313-2.1767999-3.1063999-3.2831999-3.1063999-3.2831999l1.5435-.396Z" fill="url(#New_Gradient_404)"/>
        <path d="M30.3114932,34.38671c0-.2632.2852-.4839.6382-.4873.3555-.0054101.6406.2065899.6406.4717,0,.2646-.2851.4824-.6406.4888-.353.0034-.6382-.2076-.6382-.4732Z" fill="url(#New_Gradient_403)" fill-rule="evenodd"/>
        <path d="M31.8812931,34.0088101c0-.2656.2837069-.4844.6392-.4878101.3545069-.0043899.6397.2051101.6397.4692101,0,.2661-.2851931.4859-.6397.4893-.3554931.0044-.6392-.2056-.6392-.4707Z" fill="url(#New_Gradient_398)" fill-rule="evenodd"/>
        <path d="M24.8368933,29.4741102s.8228.7105,1.9165,1.9492c1.0698,1.208,2.3988999,2.9233999,3.4766067,4.9736899l15.0878928-3.7084899c.2461072-.0596.3374.3081.0913.3677l-15.2343996,3.7455999c-.0674.0166-.1802-.0342-.2129-.0957-1.2178-2.3618999-3.3295999-5.1767999-5.3739999-6.9438998-.1908933-.167.0571067-.4536.249-.2881Z" fill="url(#New_Gradient_391)"/>
        <line x1="30.0863932" y1="36.70611" x2="30.0863932" y2="38.5547099" fill="none" stroke="#fff" stroke-linecap="round" stroke-miterlimit="3.8637" stroke-width=".75"/>
        <path d="M37.944293,29.1318102s.772-.0434,1.3218-.0214c0,0-.3290929-1.6954102-.9243-2.7758999l.264207-.064s1.3871929,2.0473999,2.0462929,4.2709999c0,0-.5918-.5937-1.1005-.8809-.5054-.2871-1.6075-.5288-1.6075-.5288Z" fill="url(#New_Gradient_390)" fill-rule="evenodd"/>
        <path d="M31.2304931,31.0361101c.2324-.1006,1.3398-.581,2.7045999-.9697,0,0,1.0253-.2969,2.7792999.6382,1.434.7666,3.7689999.3501,3.7689999.3501,0,0-3.2353929,1.3379-6.3344998,1.5082899l-.7958931.0625101c-3.0224068-1.6621-6.5464067-3.5111999-6.5464067-3.5111999l.3423-.0953102s1.9112.9141102,4.0815999,2.0171101Z" fill="url(#New_Gradient_389)"/>
      </g>
    </g>
  </g>
</svg>