<?xml version="1.0" encoding="UTF-8"?>
<svg xmlns="http://www.w3.org/2000/svg" width="48" height="48" xmlns:xlink="http://www.w3.org/1999/xlink" viewBox="0 0 48 48">
  <defs>
    <mask id="mask" x="6.5663974" y="5" width="35.4336026" height="40.3848146" maskUnits="userSpaceOnUse">
      <path d="M25.46,43.4297147l-17.8936026-4.4609999L15.7870972,6l25.2129028,6.2832155-6.4131033,25.6493994c-.8681,3.4853852-5.7304999,6.3437998-9.1268967,5.4970999Z" fill="#fff" fill-rule="evenodd" stroke="#fff" stroke-linecap="round" stroke-linejoin="round" stroke-width="2"/>
    </mask>
    <linearGradient id="New_Gradient_399" data-name="New Gradient 399" x1="14.9177734" y1="6.4239976" x2="33.3643298" y2="44.2450431" gradientUnits="userSpaceOnUse">
      <stop offset="0" stop-color="#e5e5e5"/>
      <stop offset="1" stop-color="#fff"/>
    </linearGradient>
    <radialGradient id="New_Gradient_400" data-name="New Gradient 400" cx="15.0990332" cy="75.055068" fx="15.0990332" fy="75.055068" r="8.8644027" gradientTransform="translate(29.888 -41.3333) rotate(13.9915205) skewX(-.0111829)" gradientUnits="userSpaceOnUse">
      <stop offset="0" stop-color="#fff"/>
      <stop offset="1" stop-color="#ccc"/>
    </radialGradient>
    <mask id="mask-1" x="7.5663974" y="6" width="33.4336026" height="39.3848146" maskUnits="userSpaceOnUse">
      <path d="M25.46,43.4297147l-17.8936026-4.4609999L15.7870972,6l25.2129028,6.2832155-6.4131033,25.6493994c-.8681,3.4853852-5.7304999,6.3437998-9.1268967,5.4970999Z" fill="#fff" fill-rule="evenodd"/>
    </mask>
    <linearGradient id="New_Gradient_401" data-name="New Gradient 401" x1="14.9177734" y1="6.4239976" x2="33.3643298" y2="44.2450431" gradientUnits="userSpaceOnUse">
      <stop offset="0" stop-color="#e5e5e5"/>
      <stop offset=".286514" stop-color="#f2f2f2"/>
      <stop offset=".646072" stop-color="#fff"/>
      <stop offset="1" stop-color="#fff"/>
    </linearGradient>
    <radialGradient id="New_Gradient_402" data-name="New Gradient 402" cx="15.0990332" cy="75.055068" fx="15.0990332" fy="75.055068" r="8.8644027" gradientTransform="translate(29.888 -41.3333) rotate(13.9915205) skewX(-.0111829)" gradientUnits="userSpaceOnUse">
      <stop offset="0" stop-color="#e5e5e5"/>
      <stop offset=".331467" stop-color="#e5e5e5"/>
      <stop offset="1" stop-color="#999"/>
    </radialGradient>
    <mask id="mask-2" x="15.9875472" y="17.1128153" width="17.5268246" height="17.5243996" maskUnits="userSpaceOnUse">
      <path d="M27.9872969,17.8613153c0,.002-.0019.003-.0039.0059l-3.8114999,3.8104999-3.8154999-3.8163999h-.0009c-.9981-.998-2.6171999-.998-3.6171999,0-1.001.9991-1.001,2.6191999,0,3.6181999l3.8153999,3.8173999-3.8143999,3.8143999c-1.001.9991-1.001,2.6191999,0,3.6191999.999.999,2.6180999.999,3.6170999,0,0-.001.002-.002.003-.0049l3.8124999-3.8106149,3.8153999,3.8145149h0v.001c.999.999,2.6190999.999,3.6161999,0,1.001-1,1.001-2.6200999,0-3.6171999h0l-3.8124968-3.8163999,3.8144968-3.8173999c1-.999,1-2.6190999,0-3.6181999-.9981-.998-2.6191999-.998-3.6181999,0Z" fill="#fff"/>
    </mask>
    <linearGradient id="linear-gradient" x1="18.2588515" y1="10.60788" x2="28.089166" y2="35.0250978" gradientUnits="userSpaceOnUse">
      <stop offset=".005618" stop-color="#f8cccc"/>
      <stop offset="1" stop-color="#cb1009"/>
    </linearGradient>
    <linearGradient id="linear-gradient-2" x1="22.0710193" y1="19.6464203" x2="29.9142646" y2="36.0235775" gradientUnits="userSpaceOnUse">
      <stop offset="0" stop-color="#f3403f"/>
      <stop offset=".3789338" stop-color="#d02826"/>
      <stop offset=".7765172" stop-color="#b11411"/>
      <stop offset="1" stop-color="#a60d0a"/>
    </linearGradient>
  </defs>
  <g id="Layer_4" data-name="Layer 4">
    <g>
      <g mask="url(#mask)">
        <g>
          <path d="M25.46,43.4297147l-17.8936026-4.4609999L15.7870972,6l25.2129028,6.2832155-6.4131033,25.6493994c-.8681,3.4853852-5.7304999,6.3437998-9.1268967,5.4970999Z" fill="url(#New_Gradient_399)" fill-rule="evenodd"/>
          <path d="M24.264597,43.2617147s4.2187999.8809,5.3759999-3.7577999c4.3046999,1.0732,5.2744032-2.6719148,5.2744032-2.6719148l-2.1328033,8.5528146-8.5175998-2.1230999Z" fill="url(#New_Gradient_400)" fill-rule="evenodd"/>
          <path d="M25.46,43.4297147l-17.8936026-4.4609999L15.7870972,6l25.2129028,6.2832155-6.4131033,25.6493994c-.8681,3.4853852-5.7304999,6.3437998-9.1268967,5.4970999Z" fill="none" fill-rule="evenodd" stroke="#000" stroke-linecap="round" stroke-linejoin="round" stroke-width="2"/>
        </g>
      </g>
      <g mask="url(#mask-1)">
        <g>
          <path d="M25.46,43.4297147l-17.8936026-4.4609999L15.7870972,6l25.2129028,6.2832155-6.4131033,25.6493994c-.8681,3.4853852-5.7304999,6.3437998-9.1268967,5.4970999Z" fill="url(#New_Gradient_401)" fill-rule="evenodd"/>
          <path d="M24.264597,43.2617147s4.2187999.8809,5.3759999-3.7577999c4.3046999,1.0732,5.2744032-2.6719148,5.2744032-2.6719148l-2.1328033,8.5528146-8.5175998-2.1230999Z" fill="url(#New_Gradient_402)" fill-rule="evenodd"/>
        </g>
      </g>
    </g>
  </g>
  <g id="Layer_5" data-name="Layer 5">
    <g>
      <path d="M27.9872969,17.8613153c0,.002-.0019.003-.0039.0059l-3.8114999,3.8104999-3.8154999-3.8163999h-.0009c-.9981-.998-2.6171999-.998-3.6171999,0-1.001.9991-1.001,2.6191999,0,3.6181999l3.8153999,3.8173999-3.8143999,3.8143999c-1.001.9991-1.001,2.6191999,0,3.6191999.999.999,2.6180999.999,3.6170999,0,0-.001.002-.002.003-.0049l3.8124999-3.8106149,3.8153999,3.8145149h0v.001c.999.999,2.6190999.999,3.6161999,0,1.001-1,1.001-2.6200999,0-3.6171999h0l-3.8124968-3.8163999,3.8144968-3.8173999c1-.999,1-2.6190999,0-3.6181999-.9981-.998-2.6191999-.998-3.6181999,0Z" stroke="#000" stroke-linecap="round" stroke-linejoin="round" stroke-width="2"/>
      <g mask="url(#mask-2)">
        <g>
          <path d="M27.9872969,17.8613153c0,.002-.0019.003-.0039.0059l-3.8114999,3.8104999-3.8154999-3.8163999h-.0009c-.9981-.998-2.6171999-.998-3.6171999,0-1.001.9991-1.001,2.6191999,0,3.6181999l3.8153999,3.8173999-3.8143999,3.8143999c-1.001.9991-1.001,2.6191999,0,3.6191999.999.999,2.6180999.999,3.6170999,0,0-.001.002-.002.003-.0049l3.8124999-3.8106149,3.8153999,3.8145149h0v.001c.999.999,2.6190999.999,3.6161999,0,1.001-1,1.001-2.6200999,0-3.6171999h0l-3.8124968-3.8163999,3.8144968-3.8173999c1-.999,1-2.6190999,0-3.6181999-.9981-.998-2.6191999-.998-3.6181999,0Z" fill="url(#linear-gradient)"/>
          <path d="M29.1464968,19.0195153c0,.001-.001.002-.001.0049l-3.8153999,3.8105847-3.8144999-3.8144847h0l-.001-.001c-.998-1.0009-2.6200999-1.0009-3.6180999,0-.999.9991-.999,2.6181999,0,3.6191999l3.8163999,3.8153999-3.8144999,3.8163999c-1,.9981-1,2.6190999,0,3.6181999.9961.998,2.6181999.998,3.6171999,0,.001-.002.003-.003.0039-.0059l3.8105999-3.8095999,3.8163999,3.8154999h0c.999.998,2.6171999.998,3.6161999,0,1-.9991,1-2.6200999,0-3.6181999h0l-3.8144999-3.8163999,3.8154999-3.8153999c1.0009-1.001,1.0009-2.6200999,0-3.6191999-.9981-1.0009-2.6171999-1.0009-3.6171999,0Z" fill="url(#linear-gradient-2)"/>
        </g>
      </g>
    </g>
  </g>
</svg>