<?xml version='1.0' encoding='UTF-8'?>
<svg xmlns="http://www.w3.org/2000/svg" xmlns:xlink="http://www.w3.org/1999/xlink" id="Layer_1" data-name="Layer 1" width="16" height="16" viewBox="0 0 16 16">
  <defs>
    <mask id="mask" x="2.1836" y="5.1162" width="7.9878" height="6.2105" maskUnits="userSpaceOnUse">
      <polygon points="5.1226 11.0986 9.5586 9.9375 9.5586 6.4541 2.6221 5.1162 2.6221 8.5991 5.1226 11.0986" fill="#fff" fill-rule="evenodd"/>
    </mask>
    <mask id="mask-1" x="2.1836" y="5.4385" width="3.3389" height="5.8882" maskUnits="userSpaceOnUse">
      <rect x="2.1836" y="5.75" width="2.9468" height="5.5767" fill="#fff"/>
    </mask>
    <linearGradient id="New_Gradient_392" data-name="New Gradient 392" x1="5.3676994" y1="11.172596" x2="1.9463006" y2="5.904104" gradientUnits="userSpaceOnUse">
      <stop offset="0" stop-color="#c1a35f"/>
      <stop offset="1" stop-color="#a78631"/>
    </linearGradient>
    <linearGradient id="New_Gradient_393" data-name="New Gradient 393" x1="3.89675" y1="5.4385" x2="3.89675" y2="8.5498" gradientUnits="userSpaceOnUse">
      <stop offset="0" stop-color="#6f4b0a"/>
      <stop offset="1" stop-color="#a78631"/>
    </linearGradient>
    <linearGradient id="New_Gradient_394" data-name="New Gradient 394" x1="7.2816145" y1="5.8358622" x2="7.7694409" y2="8.6024634" gradientUnits="userSpaceOnUse">
      <stop offset="0" stop-color="#6f4b0a"/>
      <stop offset="1" stop-color="#967631"/>
    </linearGradient>
    <mask id="mask-2" x="2.6221" y="2.6279" width="7.8589" height="5.5323" maskUnits="userSpaceOnUse">
      <polygon points="5.1226 7.6157 9.5586 6.4541 7.0806 3.9766 2.6221 5.1162 5.1226 7.6157" fill="#fff" fill-rule="evenodd"/>
    </mask>
    <linearGradient id="New_Gradient_395" data-name="New Gradient 395" x1="5.5010526" y1="3.8576449" x2="6.6860297" y2="7.7335306" gradientUnits="userSpaceOnUse">
      <stop offset="0" stop-color="#6f4b0a"/>
      <stop offset="1" stop-color="#523800"/>
    </linearGradient>
    <linearGradient id="New_Gradient_396" data-name="New Gradient 396" x1="8.77515" y1="2.6279" x2="8.77515" y2="8.1602" gradientUnits="userSpaceOnUse">
      <stop offset="0" stop-color="#a78631"/>
      <stop offset=".696625" stop-color="#6f4b0a"/>
      <stop offset="1" stop-color="#6f4b0a"/>
    </linearGradient>
    <mask id="mask-3" x="2.6221" y="1" width="7.4345" height="8.7666463" maskUnits="userSpaceOnUse">
      <polygon points="5.1226 7.6157 9.5586 6.4541 10.0566 1 2.6411 1.1602 2.6221 5.1162 5.1226 7.6157" fill="#fff" fill-rule="evenodd"/>
    </mask>
    <mask id="mask-4" x="2.6367" y="2.5068" width="5.1172" height="6.0757" maskUnits="userSpaceOnUse">
      <path d="M5.8491,7.5825h-2.2124V3.5073l3.1172-.0005-.0019,3.1719c0,.4307-.4834.9038-.9029.9038Z" fill="#fff" fill-rule="evenodd" stroke="#fff" stroke-linecap="round" stroke-linejoin="round" stroke-width="2"/>
    </mask>
    <linearGradient id="New_Gradient_399" data-name="New Gradient 399" x1="4.0930581" y1="3.2847193" x2="6.2976243" y2="7.8047498" gradientUnits="userSpaceOnUse">
      <stop offset="0" stop-color="#e5e5e5"/>
      <stop offset="1" stop-color="#fff"/>
    </linearGradient>
    <radialGradient id="New_Gradient_400" data-name="New Gradient 400" cx="142.4592358" cy="44.1941032" fx="142.4592358" fy="44.1941032" r="1.8608244" gradientTransform="translate(-75.1975 -18.5424) scale(.5679)" gradientUnits="userSpaceOnUse">
      <stop offset="0" stop-color="#fff"/>
      <stop offset="1" stop-color="#ccc"/>
    </radialGradient>
    <mask id="mask-5" x="3.6367" y="3.5068" width="3.1206" height="4.0913" maskUnits="userSpaceOnUse">
      <path d="M5.8491,7.5825h-2.2124V3.5073l3.1172-.0005-.0019,3.1719c0,.4307-.4834.9038-.9029.9038Z" fill="#fff" fill-rule="evenodd"/>
    </mask>
    <linearGradient id="New_Gradient_401" data-name="New Gradient 401" x1="4.0930581" y1="3.2847193" x2="6.2976243" y2="7.8047498" gradientUnits="userSpaceOnUse">
      <stop offset="0" stop-color="#e5e5e5"/>
      <stop offset=".286514" stop-color="#f2f2f2"/>
      <stop offset=".646072" stop-color="#fff"/>
      <stop offset="1" stop-color="#fff"/>
    </linearGradient>
    <radialGradient id="New_Gradient_402" data-name="New Gradient 402" cx="142.4592358" cy="44.1941032" fx="142.4592358" fy="44.1941032" r="1.8608244" gradientTransform="translate(-75.1975 -18.5424) scale(.5679)" gradientUnits="userSpaceOnUse">
      <stop offset="0" stop-color="#e5e5e5"/>
      <stop offset=".331467" stop-color="#e5e5e5"/>
      <stop offset="1" stop-color="#999"/>
    </radialGradient>
    <mask id="mask-6" x="2.8047" y="2.0918" width="7.0488" height="7.6748463" maskUnits="userSpaceOnUse">
      <path d="M6.5059,8.7441l-2.7012-.6743,1.2427-4.978,3.8061.9492-.9687,3.8731c-.1304.5258-.8648.9575-1.3789.83Z" fill="#fff" fill-rule="evenodd" stroke="#fff" stroke-linecap="round" stroke-linejoin="round" stroke-width="2"/>
    </mask>
    <linearGradient id="New_Gradient_399-2" data-name="New Gradient 399" x1="4.9151223" y1="3.1563161" x2="7.7003874" y2="8.8669558" gradientUnits="userSpaceOnUse"><stop offset="0" stop-color="#e5e5e5"/><stop offset="1" stop-color="#fff"/></linearGradient>
    <radialGradient id="New_Gradient_400-2" data-name="New Gradient 400" cx="83.9275135" cy="-45.8798537" fx="83.9275135" fy="-45.8798537" r="1.8617539" gradientTransform="translate(-59.5051 24.7517) rotate(13.9876482) scale(.7148983)" gradientUnits="userSpaceOnUse"><stop offset="0" stop-color="#fff"/><stop offset="1" stop-color="#ccc"/></radialGradient>
    <mask id="mask-7" x="3.8047" y="3.0918" width="5.0488" height="5.9473" maskUnits="userSpaceOnUse">
      <path d="M6.5059,8.7441l-2.7012-.6743,1.2427-4.978,3.8061.9492-.9687,3.8731c-.1304.5258-.8648.9575-1.3789.83Z" fill="#fff" fill-rule="evenodd"/>
    </mask>
    <linearGradient id="linear-gradient" x1="5.6883695" y1="8.5348908" x2="6.9640852" y2="3.561658" gradientUnits="userSpaceOnUse">
      <stop offset="0" stop-color="#919191"/>
      <stop offset=".646072" stop-color="#fff"/>
      <stop offset="1" stop-color="#fff"/>
    </linearGradient>
    <radialGradient id="New_Gradient_402-2" data-name="New Gradient 402" cx="83.9275135" cy="-45.8798537" fx="83.9275135" fy="-45.8798537" r="1.8617539" gradientTransform="translate(-59.5051 24.7517) rotate(13.9876482) scale(.7148983)" gradientUnits="userSpaceOnUse"><stop offset="0" stop-color="#e5e5e5"/><stop offset=".331467" stop-color="#e5e5e5"/><stop offset="1" stop-color="#999"/></radialGradient>
    <linearGradient id="New_Gradient_519" data-name="New Gradient 519" x1="7.1364046" y1="14.8222298" x2="13.6828248" y2="9.3291311" gradientUnits="userSpaceOnUse">
      <stop offset="0" stop-color="#b2b2b2"/>
      <stop offset=".168533" stop-color="#e5e5e5"/>
      <stop offset=".230331" stop-color="#fff"/>
      <stop offset=".280899" stop-color="#e5e5e5"/>
      <stop offset="1" stop-color="#ccc"/>
    </linearGradient>
    <linearGradient id="linear-gradient-2" x1="7.4595875" y1="14.0650119" x2="12.4132511" y2="9.1113483" gradientUnits="userSpaceOnUse">
      <stop offset="0" stop-color="#b2b2b2"/>
      <stop offset=".168533" stop-color="#e5e5e5"/>
      <stop offset=".230331" stop-color="#fff"/>
      <stop offset=".280899" stop-color="#e5e5e5"/>
      <stop offset=".5" stop-color="#c2c2c2"/>
    </linearGradient>
    <linearGradient id="New_Gradient_518" data-name="New Gradient 518" x1="9.7151318" y1="11.3522485" x2="14.0644459" y2="15.7015626" gradientUnits="userSpaceOnUse">
      <stop offset="0" stop-color="#ccc"/>
      <stop offset="1" stop-color="#fff"/>
    </linearGradient>
    <linearGradient id="New_Gradient_517" data-name="New Gradient 517" x1="12.9681106" y1="15.9250355" x2="10.8161954" y2="11.0917548" gradientUnits="userSpaceOnUse">
      <stop offset="0" stop-color="#b2b2b2"/>
      <stop offset=".5" stop-color="#e5e5e5"/>
      <stop offset="1" stop-color="#fff"/>
    </linearGradient>
    <linearGradient id="New_Gradient_516" data-name="New Gradient 516" x1="13.6430998" y1="13.2527838" x2="13.8571716" y2="13.8409413" gradientUnits="userSpaceOnUse">
      <stop offset="0" stop-color="#0f6124"/>
      <stop offset="1" stop-color="#219630"/>
    </linearGradient>
    <linearGradient id="New_Gradient_515" data-name="New Gradient 515" x1="6.2736039" y1="14.4800461" x2="9.0180208" y2="11.7356292" gradientUnits="userSpaceOnUse">
      <stop offset="0" stop-color="#e5e5e5"/>
      <stop offset="1" stop-color="#ccc"/>
    </linearGradient>
    <linearGradient id="New_Gradient_510" data-name="New Gradient 510" x1="10.9747597" y1="11.9542403" x2="13.6956479" y2="9.2333521" gradientUnits="userSpaceOnUse">
      <stop offset="0" stop-color="#d9d9d9"/>
      <stop offset="1" stop-color="#f2f2f2"/>
    </linearGradient>
    <radialGradient id="New_Gradient_200" data-name="New Gradient 200" cx="33.9430106" cy="-21.3657775" fx="33.9430106" fy="-21.3657775" r="5.1300697" gradientTransform="translate(-27.2525 28.2721) scale(1.0314)" gradientUnits="userSpaceOnUse">
      <stop offset="0" stop-color="#328e36"/>
      <stop offset="1" stop-color="#00cd00"/>
    </radialGradient>
    <mask id="mask-8" x="7.6934" y="6.4657299" width="5.0161" height="4.8609701" maskUnits="userSpaceOnUse">
      <path d="M10.5957,11.314l-2.1147-2.6905h1.2221c0-.521.0098-1.2495-.7436-1.3774-.6387-.1084-.9849.1279-.9849.1279.3189-.4096.919-.999,2.0576-.8965,1.5772.1416,1.4824,2.0747,1.4849,2.146h1.1924l-2.1138,2.6905Z" fill="#fff"/>
    </mask>
    <radialGradient id="New_Gradient_200-2" data-name="New Gradient 200" cx="7.9746" cy="6.4657299" fx="7.9746" fy="6.4657299" r="4.8427147" gradientTransform="matrix(1,0,0,1,0,0)" gradientUnits="userSpaceOnUse"><stop offset="0" stop-color="#328e36"/><stop offset="1" stop-color="#00cd00"/></radialGradient>
    <radialGradient id="radial-gradient" cx="35.5732333" cy="-20.2714395" fx="35.5732333" fy="-20.2714395" r="4.2711518" gradientTransform="translate(-27.2525 28.2721) scale(1.0314)" gradientUnits="userSpaceOnUse">
      <stop offset="0" stop-color="#c9ffc9"/>
      <stop offset=".80899" stop-color="#00cd00"/>
      <stop offset="1" stop-color="#00cd00"/>
    </radialGradient>
  </defs>
  <g>
    <g>
      <polygon points="7.0806 3.9766 8.4873 2.5732 10.9561 5.0615 9.5586 6.4541 11.0767 6.4648 9.5586 6.8789 9.5586 9.9375 5.1226 11.0986 2.6221 8.5991 2.6221 6.6035 1.1362 5.1172 2.6221 5.1162 2.1201 3.2695 6.4775 2.1855 7.0806 3.9766" fill="#a78631" stroke="#000" stroke-linecap="round" stroke-linejoin="round" stroke-width="2"/>
      <g mask="url(#mask)">
        <g>
          <polygon points="5.1226 11.0986 9.5586 9.9375 9.5586 6.4541 2.6221 5.1162 2.6221 8.5991 5.1226 11.0986" fill="#a78631" fill-rule="evenodd"/>
          <g mask="url(#mask-1)">
            <g>
              <rect x="2.1836" y="5.75" width="2.9468" height="5.5767" fill="url(#New_Gradient_392)"/>
              <polygon points="2.271 6.8369 3.9844 8.5498 5.5225 7.5342 3.3828 5.4385 2.271 6.8369" fill="url(#New_Gradient_393)" fill-rule="evenodd"/>
            </g>
          </g>
          <polygon points="4.9204 7.4536 6.1758 8.3428 10.1714 7.2158 9.5669 6.0879 4.9204 7.4536" fill="url(#New_Gradient_394)" fill-rule="evenodd"/>
        </g>
      </g>
      <g mask="url(#mask-2)">
        <g>
          <polygon points="5.1226 7.6157 9.5586 6.4541 7.0806 3.9766 2.6221 5.1162 5.1226 7.6157" fill="url(#New_Gradient_395)" fill-rule="evenodd"/>
          <rect x="7.0693" y="2.6279" width="3.4117" height="5.5323" fill="url(#New_Gradient_396)"/>
        </g>
      </g>
      <polygon points="2.1201 3.2695 2.6221 5.1162 7.0806 3.9766 6.4775 2.1855 2.1201 3.2695" fill="#c1a35f" fill-rule="evenodd"/>
      <polygon points="7.0806 3.9766 9.5586 6.4541 10.9561 5.0615 8.4873 2.5732 7.0806 3.9766" fill="#ffdea0" fill-rule="evenodd"/>
      <line x1="5.1304" y1="10.9248" x2="5.1304" y2="7.7349" fill="none" stroke="#6f4b0a" stroke-linecap="round" stroke-miterlimit="3.8637"/>
      <line x1="2.6968" y1="5.1055" x2="7.001" y2="3.9824" fill="none" stroke="#a78631" stroke-linecap="round" stroke-miterlimit="3.8637"/>
      <line x1="7.1421" y1="4.0781" x2="9.4277" y2="6.3794" fill="none" stroke="#c1a35f" stroke-linecap="round" stroke-miterlimit="3.8637"/>
      <polyline points="2.6807 6.8115 3.5674 7.6987 5.0596 7.6987" fill="none" stroke="#6f4b0a" stroke-linecap="round" stroke-miterlimit="3.8637" stroke-width=".75"/>
      <polygon points="5.1304 7.624 6.8193 7.624 11.0767 6.4648 9.5625 6.4648 5.1304 7.624" fill="#c1a35f" fill-rule="evenodd"/>
      <polygon points="2.6221 5.1162 5.1226 7.6157 3.6431 7.624 1.1362 5.1172 2.6221 5.1162" fill="#a78631" fill-rule="evenodd"/>
      <polyline points="2.6377 5.0112 2.1787 3.2827 6.458 2.2349" fill="none" stroke="#ffdea0" stroke-linecap="round" stroke-miterlimit="3.8637" stroke-width=".5"/>
      <line x1="5.0483" y1="10.9243" x2="5.0483" y2="7.833" fill="none" stroke="#ffdea0" stroke-linecap="round" stroke-miterlimit="3.8637" stroke-width=".5"/>
      <line x1="1.2432" y1="5.1714" x2="3.6699" y2="7.5498" fill="none" stroke="#ffdea0" stroke-linecap="round" stroke-miterlimit="3.8637" stroke-width=".5"/>
      <polyline points="5.2866 7.6455 6.6963 7.6455 10.7407 6.5166" fill="none" stroke="#ffdea0" stroke-linecap="round" stroke-miterlimit="3.8637" stroke-width=".5"/>
      <g mask="url(#mask-3)">
        <g>
          <g>
            <g>
              <g mask="url(#mask-4)">
                <g>
                  <path d="M5.8491,7.5825h-2.2124V3.5073l3.1172-.0005-.0019,3.1719c0,.4307-.4834.9038-.9029.9038Z" fill="url(#New_Gradient_399)" fill-rule="evenodd"/>
                  <path d="M5.7051,7.5981s.5156-.0205.5156-.5932c.5332,0,.5366-.4639.5366-.4639v1.0571h-1.0522Z" fill="url(#New_Gradient_400)" fill-rule="evenodd"/>
                  <path d="M5.8491,7.5825h-2.2124V3.5073l3.1172-.0005-.0019,3.1719c0,.4307-.4834.9038-.9029.9038Z" fill="none" fill-rule="evenodd" stroke="#000" stroke-linecap="round" stroke-linejoin="round" stroke-width="2"/>
                </g>
              </g>
              <g mask="url(#mask-5)">
                <g>
                  <path d="M5.8491,7.5825h-2.2124V3.5073l3.1172-.0005-.0019,3.1719c0,.4307-.4834.9038-.9029.9038Z" fill="url(#New_Gradient_401)" fill-rule="evenodd"/>
                  <path d="M5.7051,7.5981s.5156-.0205.5156-.5932c.5332,0,.5366-.4639.5366-.4639v1.0571h-1.0522Z" fill="url(#New_Gradient_402)" fill-rule="evenodd"/>
                </g>
              </g>
            </g>
            <g>
              <path d="M4.0176,6.3203h2.3696" fill="none" stroke="#b3b3b3" stroke-linecap="round" stroke-linejoin="round" stroke-width="1.0502"/>
              <path d="M4.0176,4.2827c.7895,0,1.5801.0005,2.3696.0005" fill="none" stroke="#b3b3b3" stroke-linecap="round" stroke-linejoin="round" stroke-width="1.0502"/>
              <path d="M4.0176,5.0986h2.3696" fill="none" stroke="#b3b3b3" stroke-linecap="round" stroke-linejoin="round" stroke-width="1.0502"/>
              <path d="M4.0176,4.6904h2.3696" fill="none" stroke="#b3b3b3" stroke-linecap="round" stroke-linejoin="round" stroke-width="1.0502"/>
              <path d="M4.0176,5.9121h2.3696" fill="none" stroke="#b3b3b3" stroke-linecap="round" stroke-linejoin="round" stroke-width="1.0502"/>
              <path d="M4.0176,5.5049h2.3696" fill="none" stroke="#b3b3b3" stroke-linecap="round" stroke-linejoin="round" stroke-width="1.0502"/>
            </g>
          </g>
          <g>
            <g>
              <g mask="url(#mask-6)">
                <g>
                  <path d="M6.5059,8.7441l-2.7012-.6743,1.2427-4.978,3.8061.9492-.9687,3.8731c-.1304.5258-.8648.9575-1.3789.83Z" fill="url(#New_Gradient_399-2)" fill-rule="evenodd"/>
                  <path d="M6.3262,8.7188s.6382.1328.8125-.5674c.6494.1616.7959-.4034.7959-.4034l-.3223,1.2911-1.2861-.3203Z" fill="url(#New_Gradient_400-2)" fill-rule="evenodd"/>
                  <path d="M6.5059,8.7441l-2.7012-.6743,1.2427-4.978,3.8061.9492-.9687,3.8731c-.1304.5258-.8648.9575-1.3789.83Z" fill="none" fill-rule="evenodd" stroke="#000" stroke-linecap="round" stroke-linejoin="round" stroke-width="2"/>
                </g>
              </g>
              <g mask="url(#mask-7)">
                <g>
                  <path d="M6.5059,8.7441l-2.7012-.6743,1.2427-4.978,3.8061.9492-.9687,3.8731c-.1304.5258-.8648.9575-1.3789.83Z" fill="url(#linear-gradient)" fill-rule="evenodd"/>
                  <path d="M6.3262,8.7188s.6382.1328.8125-.5674c.6494.1616.7959-.4034.7959-.4034l-.3223,1.2911-1.2861-.3203Z" fill="url(#New_Gradient_402-2)" fill-rule="evenodd"/>
                </g>
              </g>
            </g>
            <g>
              <path d="M4.6548,6.6436c.9643.2402,1.9297.4814,2.8955.7211" fill="none" stroke="#b3b3b3" stroke-linecap="round" stroke-linejoin="round" stroke-width="1.0502"/>
              <path d="M5.2754,4.1548c.9643.2397,1.9292.4809,2.8945.7217" fill="none" stroke="#b3b3b3" stroke-linecap="round" stroke-linejoin="round" stroke-width="1.0502"/>
              <path d="M5.0269,5.1504c.9658.2402,1.9292.4809,2.895.7212" fill="none" stroke="#b3b3b3" stroke-linecap="round" stroke-linejoin="round" stroke-width="1.0502"/>
              <path d="M5.1514,4.6523c.9653.2398,1.9292.482,2.8945.7222" fill="none" stroke="#b3b3b3" stroke-linecap="round" stroke-linejoin="round" stroke-width="1.0502"/>
              <path d="M4.7783,6.1465c.9649.2397,1.9307.4795,2.8955.7207" fill="none" stroke="#b3b3b3" stroke-linecap="round" stroke-linejoin="round" stroke-width="1.0502"/>
              <path d="M4.9033,5.6475c.9649.2407,1.9297.4819,2.8946.7221" fill="none" stroke="#b3b3b3" stroke-linecap="round" stroke-linejoin="round" stroke-width="1.0502"/>
            </g>
          </g>
        </g>
      </g>
    </g>
    <line x1="5.1226" y1="7.6157" x2="9.5586" y2="6.4541" fill="#7e5b39" stroke="#7e5b39" stroke-linecap="round" stroke-miterlimit="3.8637" stroke-width=".5"/>
    <line x1="5.1226" y1="7.6157" x2="2.6221" y2="5.1162" fill="none" stroke="#7e5b39" stroke-linecap="round" stroke-miterlimit="3.8637" stroke-width=".5"/>
  </g>
  <g>
    <path d="M9.1797,15.1636l-2.9551-2.916c-.0303-.0342-.0459-.0791-.0459-.1353v-1.624c0-.1416.1143-.2837.2559-.3189l5.0107-1.2412c.086-.021.1621.0015.208.0542l2.9473,2.9077c.0342.0445.0503.0879.0503.1407v1.624c0,.1406-.1148.2837-.2559.3188l-5.0102,1.2412c-.085.0206-.1597-.0009-.2051-.0512Z" fill="url(#New_Gradient_519)" stroke="#000" stroke-miterlimit="3.8637" stroke-width="1.8248"/>
    <path d="M9.1797,15.1636l-2.9551-2.916c-.0303-.0342-.0459-.0791-.0459-.1353v-1.624c0-.1416.1143-.2837.2559-.3189l5.0107-1.2412c.086-.021.1621.0015.208.0542l2.9561,2.918-5.4297,3.2632Z" fill="url(#linear-gradient-2)" fill-rule="evenodd"/>
    <path d="M9.3848,13.0796l5.0102-1.2407c.1411-.0352.2559.0498.2559.1919v1.624c0,.1406-.1148.2837-.2559.3188l-5.0102,1.2412c-.1421.0352-.2564-.0507-.2564-.1914v-1.6245c0-.1406.1143-.2837.2564-.3193Z" fill="url(#New_Gradient_518)" fill-rule="evenodd"/>
    <path d="M14.2495,11.7695c.2446-.0669.4014.0557.4014.313v1.5425c0,.1846-.1406.3535-.312.3965l-4.7989,1.2236c-.1298.0322-.4004.0342-.4004-.2807v-1.5762c0-.1841.1407-.3521.3111-.3955l4.7988-1.2232ZM9.3701,15.0317c.0127.0005.0391,0,.0806-.0102l4.7993-1.2241c.0972-.0249.1748-.1275.1748-.2115v-1.5434c0-.0357,0-.0503-.0049-.062-.0151-.001-.041.0019-.0801.0122l-4.7998,1.2246c-.0971.0239-.1738.1274-.1738.2104v1.5762l.0039.0278Z" fill="url(#New_Gradient_517)"/>
    <path d="M13.5381,13.3926l.4238-.0982c.2715-.063.2715.3438,0,.4068l-.4238.0981c-.271.0635-.271-.3437,0-.4067Z" fill="url(#New_Gradient_516)"/>
    <line x1="13.5225" y1="13.5649" x2="13.9292" y2="13.4688" fill="none" stroke="#7cc771" stroke-linecap="round" stroke-miterlimit="3.8637" stroke-width="1.1405"/>
    <path d="M6.374,12.146l2.544,2.4321-.0132-.8066c-.439.209-2.5308-2.1343-2.5308-2.1343v.5088Z" fill="url(#New_Gradient_515)" fill-rule="evenodd"/>
    <path d="M11.4897,9.1528l2.5582,2.4493-2.6177.7104c2.7544-1.7134-.5298-3.0049-.5298-3.0049l.5893-.1548Z" fill="url(#New_Gradient_510)" fill-rule="evenodd"/>
  </g>
  <g>
    <path d="M10.5957,11.314l-2.1147-2.6905h1.2221c0-.521.0098-1.2495-.7436-1.3774-.6387-.1084-.9849.1279-.9849.1279.3189-.4096.919-.999,2.0576-.8965,1.5772.1416,1.4824,2.0747,1.4849,2.146h1.1924l-2.1138,2.6905Z" fill="url(#New_Gradient_200)" stroke="#000" stroke-linecap="round" stroke-linejoin="round" stroke-width="2"/>
    <g mask="url(#mask-8)">
      <g>
        <path d="M10.5957,11.314l-2.1147-2.6905h1.2221c0-.521.0098-1.2495-.7436-1.3774-.6387-.1084-.9849.1279-.9849.1279.3189-.4096.919-.999,2.0576-.8965,1.5772.1416,1.4824,2.0747,1.4849,2.146h1.1924l-2.1138,2.6905Z" fill="url(#New_Gradient_200-2)"/>
        <path d="M7.6934,7.6924s1.1123-1.544,2.6201-.9014c1.1562.4917.9477,2.0586.9477,2.0586h1.0093l-1.957,2.4771-2.6201-3.6343Z" fill="url(#radial-gradient)"/>
      </g>
    </g>
  </g>
</svg>