<?xml version='1.0' encoding='UTF-8'?>
<svg xmlns="http://www.w3.org/2000/svg" xmlns:xlink="http://www.w3.org/1999/xlink" id="Layer_7" data-name="Layer 7" width="16" height="16" viewBox="0 0 16 16">
  <defs>
    <linearGradient id="New_Gradient_109" data-name="New Gradient 109" x1="-62.2884423" y1="27.2907003" x2="-55.9489604" y2="21.9712434" gradientTransform="translate(56.0045 -11.9215) rotate(-1.7631399) scale(1.176557 .8498898) skewX(34.1847342)" gradientUnits="userSpaceOnUse">
      <stop offset="0" stop-color="#6b3200"/>
      <stop offset=".494385" stop-color="#d68100"/>
      <stop offset="1" stop-color="#9a5500"/>
    </linearGradient>
    <linearGradient id="New_Gradient_109-2" data-name="New Gradient 109" x1="-62.4246346" y1="27.2458083" x2="-56.2856314" y2="22.0945729" gradientTransform="translate(56.0045 -11.9215) rotate(-1.7631399) scale(1.176557 .8498898) skewX(34.1847342)" gradientUnits="userSpaceOnUse"><stop offset="0" stop-color="#6b3200"/><stop offset=".494385" stop-color="#d68100"/><stop offset="1" stop-color="#9a5500"/></linearGradient>
    <linearGradient id="New_Gradient_108" data-name="New Gradient 108" x1="-62.1596715" y1="21.1570748" x2="-56.1947855" y2="28.5230957" gradientTransform="translate(56.0045 -11.9215) rotate(-1.7631399) scale(1.176557 .8498898) skewX(34.1847342)" gradientUnits="userSpaceOnUse">
      <stop offset="0" stop-color="#6b3200"/>
      <stop offset="1" stop-color="#c96b00"/>
    </linearGradient>
    <linearGradient id="New_Gradient_107" data-name="New Gradient 107" x1="-56.4094658" y1="27.8254028" x2="-61.5267508" y2="21.9386397" gradientTransform="translate(56.0045 -11.9215) rotate(-1.7631399) scale(1.176557 .8498898) skewX(34.1847342)" gradientUnits="userSpaceOnUse">
      <stop offset="0" stop-color="#9a5500"/>
      <stop offset="1" stop-color="#6b3200"/>
    </linearGradient>
    <linearGradient id="New_Gradient_106" data-name="New Gradient 106" x1="-60.6935894" y1="21.5310269" x2="-57.6306558" y2="28.0995091" gradientTransform="translate(56.0045 -11.9215) rotate(-1.7631399) scale(1.176557 .8498898) skewX(34.1847342)" gradientUnits="userSpaceOnUse">
      <stop offset="0" stop-color="#e5e5e5"/>
      <stop offset=".758423" stop-color="#fff"/>
      <stop offset="1" stop-color="#fff"/>
    </linearGradient>
    <linearGradient id="New_Gradient_105" data-name="New Gradient 105" x1="-59.058494" y1="20.520908" x2="-59.3672814" y2="22.2721286" gradientTransform="translate(56.0045 -11.9215) rotate(-1.7631399) scale(1.176557 .8498898) skewX(34.1847342)" gradientUnits="userSpaceOnUse">
      <stop offset="0" stop-color="#999"/>
      <stop offset="1" stop-color="#b2b2b2"/>
    </linearGradient>
    <linearGradient id="New_Gradient_104" data-name="New Gradient 104" x1="-59.9499367" y1="21.6591323" x2="-58.8180541" y2="21.2913613" gradientTransform="translate(56.0045 -11.9215) rotate(-1.7631399) scale(1.176557 .8498898) skewX(34.1847342)" gradientUnits="userSpaceOnUse">
      <stop offset="0" stop-color="#737373"/>
      <stop offset="1" stop-color="#b2b2b2"/>
    </linearGradient>
    <linearGradient id="New_Gradient_103" data-name="New Gradient 103" x1="-59.4431812" y1="20.5284791" x2="-59.7288049" y2="22.1483314" gradientTransform="translate(56.0045 -11.9215) rotate(-1.7631399) scale(1.176557 .8498898) skewX(34.1847342)" gradientUnits="userSpaceOnUse">
      <stop offset="0" stop-color="#f2f2f2"/>
      <stop offset=".60112" stop-color="#e5e5e5"/>
      <stop offset="1" stop-color="#b2b2b2"/>
    </linearGradient>
    <linearGradient id="New_Gradient_102" data-name="New Gradient 102" x1="-59.4802314" y1="20.7254986" x2="-58.8786546" y2="23.1382915" gradientTransform="translate(56.0045 -11.9215) rotate(-1.7631399) scale(1.176557 .8498898) skewX(34.1847342)" gradientUnits="userSpaceOnUse">
      <stop offset="0" stop-color="#666"/>
      <stop offset=".876404" stop-color="#d9d9d9"/>
      <stop offset="1" stop-color="#b2b2b2"/>
    </linearGradient>
    <linearGradient id="New_Gradient_101" data-name="New Gradient 101" x1="-60.4809401" y1="21.6420381" x2="-57.6152735" y2="22.6850555" gradientTransform="translate(56.0045 -11.9215) rotate(-1.7631399) scale(1.176557 .8498898) skewX(34.1847342)" gradientUnits="userSpaceOnUse">
      <stop offset="0" stop-color="#4c4c4c"/>
      <stop offset="1" stop-color="gray"/>
    </linearGradient>
    <linearGradient id="New_Gradient_100" data-name="New Gradient 100" x1="-58.7371133" y1="20.8972636" x2="-58.9801734" y2="22.275726" gradientTransform="translate(56.0045 -11.9215) rotate(-1.7631399) scale(1.176557 .8498898) skewX(34.1847342)" gradientUnits="userSpaceOnUse">
      <stop offset="0" stop-color="#e5e5e5"/>
      <stop offset="1" stop-color="#b2b2b2"/>
    </linearGradient>
    <linearGradient id="New_Gradient_89" data-name="New Gradient 89" x1="-81.3976703" y1="-120.6414914" x2="-70.5216374" y2="-120.6414914" gradientTransform="translate(133.5318 78.3041) rotate(-28.0027189)" gradientUnits="userSpaceOnUse">
      <stop offset="0" stop-color="#b2b2b2"/>
      <stop offset=".449432" stop-color="#b2b2b2"/>
      <stop offset=".696625" stop-color="#e5e5e5"/>
      <stop offset="1" stop-color="#e5e5e5"/>
    </linearGradient>
    <mask id="mask" x="4.8895918" y="3.5815" width="9.5496543" height="7.7623" maskUnits="userSpaceOnUse">
      <path d="M14.002,5.4888c-.419.3828-1.0342084.6416-1.6006084.7075-1.4717,1.3467-2.2060999,2.019-3.6767999,3.3652.1719.2906.0527.6992-.3672,1.0825-.3993917.3648-.9746.6182-1.5127.6998l-.2412-.4551s.8555083-.2769,1.0703-.4727c-.122-.208-.123-.1982-.2461-.4067-.4043.0493-.6054.0732-1.0068.122-.3574.3282-.5361.4932-.8926.8218l-.2422-.4555s.2959082-.4663.5616-.711c.3994-.3686.9775-.6235,1.5205-.7031,1.4834-1.3643,2.2245999-2.0474,3.7079999-3.4121-.1475-.2886-.0283-.6821.3711-1.0503.2929-.2705,1.3369-1.0396,1.3369-1.0396l.2422.4551c-.3535.3257-.5303.4883-.8848.814.1279.2095.1318.2002.2598.4092.4062-.0469.6103-.0703,1.0175-.1182.2461084-.2246.7149-1.1616.7149-1.1616l.2422084.4551c.1522915.2895.0302916.684-.374,1.0537Z" fill="#fff"/>
    </mask>
    <linearGradient id="linear-gradient" x1="17.8671471" y1="3.4058525" x2="5.0248267" y2="10.0161123" gradientUnits="userSpaceOnUse">
      <stop offset="0" stop-color="#000"/>
      <stop offset=".0845945" stop-color="#242424"/>
      <stop offset=".1831949" stop-color="#484848"/>
      <stop offset=".2876334" stop-color="#656565"/>
      <stop offset=".3980741" stop-color="#7c7c7c"/>
      <stop offset=".5172226" stop-color="#8c8c8c"/>
      <stop offset=".6512391" stop-color="#969696"/>
      <stop offset=".831461" stop-color="#999"/>
    </linearGradient>
    <linearGradient id="linear-gradient-2" x1="-82.9926832" y1="-122.2730964" x2="-78.7040104" y2="-117.9844237" gradientTransform="translate(86.6217968 130.3088158)" gradientUnits="userSpaceOnUse">
      <stop offset="0" stop-color="#87ba87"/>
      <stop offset="0" stop-color="#75a275"/>
      <stop offset="0" stop-color="#567756"/>
      <stop offset="0" stop-color="#3b523b"/>
      <stop offset="0" stop-color="#263426"/>
      <stop offset="0" stop-color="#151d15"/>
      <stop offset="0" stop-color="#090c09"/>
      <stop offset="0" stop-color="#020302"/>
      <stop offset="0" stop-color="#000"/>
      <stop offset=".0895576" stop-color="#242424"/>
      <stop offset=".2878357" stop-color="#707070"/>
      <stop offset=".4295825" stop-color="#9f9f9f"/>
      <stop offset=".5" stop-color="#b2b2b2"/>
      <stop offset="1" stop-color="#e5e5e5"/>
    </linearGradient>
    <linearGradient id="linear-gradient-3" x1="7.0570125" y1="4.9412064" x2="11.2209935" y2="8.5474603" gradientUnits="userSpaceOnUse">
      <stop offset="0" stop-color="#999"/>
      <stop offset=".1201802" stop-color="#9c9c9c"/>
      <stop offset=".2271492" stop-color="#a7a7a7"/>
      <stop offset=".292135" stop-color="#b2b2b2"/>
      <stop offset=".606741" stop-color="#e5e5e5"/>
      <stop offset="1" stop-color="#e5e5e5"/>
    </linearGradient>
    <linearGradient id="linear-gradient-4" x1="-317.6023173" y1="-224.3275466" x2="-309.716369" y2="-216.4415984" gradientTransform="translate(245.2574 309.7575) rotate(17.00163)" gradientUnits="userSpaceOnUse">
      <stop offset="0" stop-color="#666"/>
      <stop offset=".0178513" stop-color="#6d6d6d"/>
      <stop offset=".1144914" stop-color="#949494"/>
      <stop offset=".2183295" stop-color="#b5b5b5"/>
      <stop offset=".3291794" stop-color="#d0d0d0"/>
      <stop offset=".4496279" stop-color="#e5e5e5"/>
      <stop offset=".5844797" stop-color="#f3f3f3"/>
      <stop offset=".745304" stop-color="#fcfcfc"/>
      <stop offset="1" stop-color="#fff"/>
    </linearGradient>
    <mask id="mask-1" x="4.8705201" y="3.2730135" width="9.4697979" height="8.0431337" maskUnits="userSpaceOnUse">
      <path d="M13.7597916,5.0337c-.419.3828-1.0352.6411-1.6016.7075-1.4707,1.3462-2.2050999,2.0186-3.6757999,3.3652.1709.2901.0528.6993-.3662,1.0826-.4004.3647-.9746.6176-1.5127.6997.3555083-.3257.5332-.4883.8897-.8135-.1231-.2085-.1836-.3125-.3077-.5205-.4033.0483-.6044.0723-1.0078.1211-.3554.3286-.5341.4931-.8916.8218-.1445-.2876-.0215-.6827.3799082-1.0523.3993918-.3686.9775917-.623,1.5204917-.7026,1.4834-1.3648,2.2255999-2.0479,3.7089999-3.4126-.1484-.2891-.0293-.6822.3711-1.0508.3955-.3652.9727-.6177,1.5176-.6978-.3535.3257-.5313.4883-.8838.8145.1279.209.1914.314.3193.5229.4063084-.0478.6104-.0712,1.0186-.1181.3574-.3281.5361-.4922.8955-.8208.1523.2895.0303.6846-.374,1.0537Z" fill="#fff"/>
    </mask>
    <linearGradient id="linear-gradient-5" x1="-311.6395662" y1="-224.5308491" x2="-310.5245378" y2="-223.4158207" gradientTransform="translate(245.2574 309.7575) rotate(17.00163)" gradientUnits="userSpaceOnUse">
      <stop offset="0" stop-color="#b2b2b2"/>
      <stop offset=".35955" stop-color="#b2b2b2"/>
      <stop offset=".55618" stop-color="#e5e5e5"/>
      <stop offset="1" stop-color="#e5e5e5"/>
    </linearGradient>
    <linearGradient id="linear-gradient-6" x1="-316.5778332" y1="-217.8155355" x2="-314.4309709" y2="-215.6686733" gradientTransform="translate(245.2574 309.7575) rotate(17.00163)" gradientUnits="userSpaceOnUse"><stop offset="0" stop-color="#b2b2b2"/><stop offset=".35955" stop-color="#b2b2b2"/><stop offset=".55618" stop-color="#e5e5e5"/><stop offset="1" stop-color="#e5e5e5"/></linearGradient>
    <linearGradient id="linear-gradient-7" x1="-75.7483811" y1="-127.4543951" x2="-76.783079" y2="-119.6546326" gradientTransform="translate(133.5318 78.3041) rotate(-28.0027189)" gradientUnits="userSpaceOnUse"><stop offset="0" stop-color="#b2b2b2"/><stop offset=".35955" stop-color="#b2b2b2"/><stop offset=".55618" stop-color="#e5e5e5"/><stop offset="1" stop-color="#e5e5e5"/></linearGradient>
    <linearGradient id="New_Gradient_88" data-name="New Gradient 88" x1="-317.7163163" y1="-224.3299578" x2="-309.824455" y2="-216.4380965" gradientTransform="translate(245.2574 309.7575) rotate(17.00163)" gradientUnits="userSpaceOnUse">
      <stop offset="0" stop-color="#666"/>
      <stop offset="1" stop-color="#fff"/>
    </linearGradient>
  </defs>
  <g>
    <path d="M3.3104918,7.6895c.1319.1323.4141.1962.629.1435.2168-.0532.2841-.2041.1523-.3354-.1317918-.1319-.4131-.1963-.6299-.1431-.2158.0532-.2832.2031-.1514.335ZM4.7245918,7.6821l.1094082.1094.5643918-.1421c-.1445-.0698-.3408-.0947-.5019-.0552-.0762.0186-.1348.0498-.1719.0879ZM2.9677918,7.7949c-.2539-.2539-.124-.5429.292-.645.415-.102.957.0205,1.2119.2749.0498-.0166.1045-.0347.1719-.0488.4306-.0918.8408.0517,1.0546.1977l1.002-.2524c.2275-.0571.8301.1494.8301.1494.081.0361.1465.0747.1933.1216l4.6524083,4.6518c.1385916.1402.0682916.3003-.1602084.3575l-5.4686999,1.3779c-.1230917.0312-.2666.0254-.3946-.0083,0,0-.4892-.1226-.6289-.2622L1.0712919,9.0566c-.1397-.1396-.0684-.2998.1592-.3574l2.1102999-.5317-.3594-.3589-.0136-.0137Z" fill="url(#New_Gradient_109)" stroke="#000" stroke-linecap="round" stroke-linejoin="round" stroke-width="2"/>
    <path d="M1.2304919,8.6992l5.4696999-1.3779c.2275-.0571.8301.1494.8301.1494l4.4882999,4.6523c.1396.1402.0693.2999-.1592.3575l-5.5068999,1.4907s-.4892-.1226-.6289-.2622L1.0712919,9.0566c-.1397-.1396-.0684-.2998.1592-.3574Z" fill="url(#New_Gradient_109-2)" fill-rule="evenodd"/>
    <path d="M1.5878919,8.8208l5.4686999-1.3784c.2286-.0571.5264083.0097.667.1499l4.6524083,4.6518c.1385916.1402.0682916.3003-.1602084.3575l-5.4686999,1.3779c-.2285.0571-.5264-.0098-.666-.1494L1.4286919,9.1777c-.1396-.1396-.0683-.2998.1592-.3569Z" fill="url(#New_Gradient_108)" fill-rule="evenodd"/>
    <polygon points="11.7821916 12.2017 6.7548917 13.4448 2.585 9.2754 7.6122917 8.0322 11.7821916 12.2017" fill="url(#New_Gradient_107)" fill-rule="evenodd"/>
    <polygon points="11.459 12.0908 6.3876918 13.3374 2.3397919 9.2896 7.4110917 8.0425 11.459 12.0908" fill="url(#New_Gradient_106)" fill-rule="evenodd"/>
    <path d="M3.3104918,7.6895c.1319.1323.4141.1962.629.1435.2168-.0532.2841-.2041.1523-.3354-.1317918-.1319-.4131-.1963-.6299-.1431-.2158.0532-.2832.2031-.1514.335ZM2.9677918,7.7949c-.2539-.2539-.124-.5429.292-.645.415-.102.957.0205,1.2119.2749.0137.0142.0263082.0283.0381.0425l.8261.8257-1.5008918.3691-.8536082-.8535-.0136-.0137Z" fill="url(#New_Gradient_105)"/>
    <path d="M3.8974918,8.5483s-.6182-.6176-.7471-.747c-.1289-.1299-.1152-.2549-.1152-.2549,0,0,.1113.2759.5986.3725.4258.085.6523-.101.6738-.1621l.543.5435-.9531.248Z" fill="url(#New_Gradient_104)" fill-rule="evenodd"/>
    <path d="M3.7040918,8.5278l-.7412-.7407c-.25-.2505-.1397-.5806.4502-.6748.0937-.0151.2246.0664.1299082.0811-.5274082.0849-.6182082.3833-.4063082.5957l.7412.7402c.0567.0566-.1181.0547-.1738-.0015Z" fill="url(#New_Gradient_103)"/>
    <path d="M4.0351918,7.8555s.3115-.1167.1953-.2886c-.1534-.228-.5889-.2686-.5889-.2686" fill="none" stroke="#f2f2f2" stroke-linecap="round" stroke-miterlimit="3.8637" stroke-width=".5272"/>
    <path d="M4.7450918,7.9292c.1319082.1323.4141.1963.6289082.1426.2167918-.0528.2841918-.2027.1523918-.3345-.1319-.1323-.4131-.1963-.6299-.1431-.2158.0533-.2842.2027-.1514.335ZM3.2636918,9.2988c-.0772-.208.2568-.2939.7451-.5532.5029-.2671.4131-.481.374-.6787-.043-.2192-.2803-.5762.2608-.6909.5918-.126,1.1455.1924,1.2041.3511.0859.2299.6601.3354.6601.3354.5899.0664.4707.2959.4707.2959l-3.7147999.9404Z" fill="url(#New_Gradient_102)" fill-rule="evenodd"/>
    <path d="M3.7343918,9.0513s.1699-.1221.5088-.2608c.3379-.1386.3877-.4116.3457-.5542-.043-.1425-.0674-.3593-.0674-.3593,0,0,.1982.2519.5469.2929.4101.0489.7207-.0942.7138-.2553,0,0,.1299.1381.5283.25.2374.0664.2354.1557.2354.1557l-2.8114999.731Z" fill="url(#New_Gradient_101)" fill-rule="evenodd"/>
    <path d="M4.2284918,8.6089s.0156-.0112.0381-.0342c.1504082-.1572.1572-.3765.0879-.581-.1592-.4703-.0029-.6158.4541-.6529.1055-.0088.2178.0752.1123.083-.3672.0303-.5313.1363-.376.5972.0694.2026.0742.5073-.1396.6528-.0518.0362-.2285-.0293-.1768-.0649Z" fill="url(#New_Gradient_100)"/>
    <path d="M5.2138918,7.5537s.2978.0503.4091082.2022c.1230918.166.0644918.3335-.3359082.3784" fill="none" stroke="#f2f2f2" stroke-linecap="round" stroke-miterlimit="3.8637" stroke-width=".5272"/>
    <line x1="3.251" y1="9.3193" x2="6.9716917" y2="8.3696" fill="none" stroke="gray" stroke-linecap="round" stroke-miterlimit="3.8637" stroke-width=".5272"/>
    <polygon points="4.0321918 9.8735 4.6757918 9.7061 5.0722918 10.104 4.4296918 10.2715 4.0321918 9.8735" fill="none" stroke="#999" stroke-linecap="round" stroke-linejoin="round" stroke-width=".7853"/>
    <line x1="5.5351918" y1="9.7847" x2="7.6776917" y2="9.2754" fill="none" stroke="#999" stroke-linecap="round" stroke-miterlimit="3.8637" stroke-width="1.3089"/>
    <polygon points="4.7353918 10.5762 5.3778918 10.4092 5.7753918 10.8062 5.1327918 10.9736 4.7353918 10.5762" fill="none" stroke="#999" stroke-linecap="round" stroke-linejoin="round" stroke-width=".7853"/>
    <line x1="6.2372918" y1="10.4873" x2="8.3798917" y2="9.978" fill="none" stroke="#999" stroke-linecap="round" stroke-miterlimit="3.8637" stroke-width="1.3089"/>
    <polygon points="5.4374918 11.2788 6.0800918 11.1113 6.4774918 11.5088 5.835 11.6763 5.4374918 11.2788" fill="none" stroke="#999" stroke-linecap="round" stroke-linejoin="round" stroke-width=".7853"/>
    <line x1="6.9394917" y1="11.1895" x2="9.082" y2="10.6807" fill="none" stroke="#999" stroke-linecap="round" stroke-miterlimit="3.8637" stroke-width="1.3089"/>
    <polygon points="6.1395918 11.981 6.7821917 11.8135 7.1796917 12.2109 6.5370918 12.3784 6.1395918 11.981" fill="none" stroke="#999" stroke-linecap="round" stroke-linejoin="round" stroke-width=".7853"/>
    <line x1="7.6425917" y1="11.8916" x2="9.7841917" y2="11.3828" fill="none" stroke="#999" stroke-linecap="round" stroke-miterlimit="3.8637" stroke-width="1.3089"/>
  </g>
  <g>
    <path d="M14.1366916,3.9775c-.3584.3282-.5381.4927-.8974.8204-.4072916.0478-.6104.0703-1.0176.1186-.0205-.0322-.0371-.0615-.0546916-.0894.3358916-.3095.5145916-.4736.8593916-.7905l-.2422-.4551s0,.0005-.001.0015c.001-.0015.002-.0024.0039-.0044-.5449.0801-1.123.332-1.5195.6978-.3985.3686-.5185916.7622-.3701,1.0512-1.4844,1.3648-2.2255999,2.0474-3.7079999,3.4126-.544.0796-1.1221.3345-1.5214917.7022-.4014082.3701-.5244082.7646-.3799082,1.0517-.001.001-.002.0035-.002.0035l.2422.4555c.3565-.3286.5352-.4936.8926-.8218.4014-.0488.6025-.0727,1.0068-.122.0186.0327.0332.0581.0479.0805-.3428.3135-.5205.4771-.8701.7964.0039-.0014.0097-.0024.0136-.0029-.0097.0034-.0156.0054-.0156.0054l.2412.4551c.5381-.0816,1.1133083-.335,1.5127-.6998.4199-.3833.5391-.7919.3672-1.0825,1.4707-1.3462,2.2050999-2.0185,3.6767999-3.3652.5664-.0659,1.1816084-.3247,1.6006084-.7075.4042916-.3697.5262915-.7642.374-1.0537l-.2295084-.4292c-.0029-.0093-.0049-.0196-.0098-.0284Z" fill="url(#New_Gradient_89)" stroke="#000" stroke-linecap="round" stroke-linejoin="round" stroke-width="2"/>
    <g mask="url(#mask)">
      <g>
        <path d="M14.002,5.4888c-.419.3828-1.0342084.6416-1.6006084.7075-1.4717,1.3467-2.2060999,2.019-3.6767999,3.3652.1719.2906.0527.6992-.3672,1.0825-.3993917.3648-.9746.6182-1.5127.6998l-.2412-.4551s.8555083-.2769,1.0703-.4727c-.122-.208-.123-.1982-.2461-.4067-.4043.0493-.6054.0732-1.0068.122-.3574.3282-.5361.4932-.8926.8218l-.2422-.4555s.2959082-.4663.5616-.711c.3994-.3686.9775-.6235,1.5205-.7031,1.4834-1.3643,2.2245999-2.0474,3.7079999-3.4121-.1475-.2886-.0283-.6821.3711-1.0503.2929-.2705,1.3369-1.0396,1.3369-1.0396l.2422.4551c-.3535.3257-.5303.4883-.8848.814.1279.2095.1318.2002.2598.4092.4062-.0469.6103-.0703,1.0175-.1182.2461084-.2246.7149-1.1616.7149-1.1616l.2422084.4551c.1522915.2895.0302916.684-.374,1.0537Z" fill="url(#linear-gradient)"/>
        <rect x="5.1271002" y="9.5400555" width="1.2471831" height="1.3214891" transform="translate(-4.1148215 3.8922008) rotate(-27.9906288)" fill="url(#linear-gradient-2)"/>
      </g>
    </g>
    <path d="M13.7597916,5.0337c-.419.3828-1.0352.6411-1.6016.7075-1.4707,1.3462-2.2050999,2.0186-3.6757999,3.3652.1709.2901.0528.6993-.3662,1.0826-.4004.3647-.9746.6176-1.5127.6997.3555083-.3257.5332-.4883.8897-.8135-.1231-.2085-.1836-.3125-.3077-.5205-.4033.0483-.6044.0723-1.0078.1211-.3554.3286-.5341.4931-.8916.8218-.1445-.2876-.0215-.6827.3799082-1.0523.3993918-.3686.9775917-.623,1.5204917-.7026,1.4834-1.3648,2.2255999-2.0479,3.7089999-3.4126-.1484-.2891-.0293-.6822.3711-1.0508.3955-.3652.9727-.6177,1.5176-.6978-.3535.3257-.5313.4883-.8838.8145.1279.209.1914.314.3193.5229.4063084-.0478.6104-.0712,1.0186-.1181.3574-.3281.5361-.4922.8955-.8208.1523.2895.0303.6846-.374,1.0537Z" fill="url(#linear-gradient-3)"/>
    <path d="M11.6962916,5.5005h0c.1748.0527.1875.2134.0293.3584-1.333,1.2217-1.9999999,1.833-3.3329999,3.0547-.1592.145-.4258.2202-.5987.1684h0c-.1718-.0527-.1835-.2124-.0263-.3574,1.332-1.2226,1.9960999-1.8335,3.3280999-3.0566.1572-.1455.4258-.2198.6006-.1675Z" fill="url(#linear-gradient-4)" fill-rule="evenodd"/>
    <g mask="url(#mask-1)">
      <g>
        <g>
          <path d="M14.0263916,3.9473c-.3583916.3276-.5371.4926-.8965.8203-.3418.0405-.5127.0595-.8545.0996.0205.0337.0312.0498.0517.084.4073-.0474.6104-.0708,1.0186-.1182.2959-.271.4443084-.4072.7402-.6782-.0058-.0733-.0263-.1426-.0595-.2075Z" fill="url(#linear-gradient-5)"/>
          <path d="M7.1278917,9.606c.1045.1748.1563.2622.2598.4365-.3564.3257-.5342.4888-.8896917.8139.1220917-.0185.2470917-.0463.3691917-.082.292-.2666.4385-.4009.7305-.6675-.1221-.208-.1836-.3125-.3076917-.52-.0644083.0073-.0966083.0117-.1621083.0191Z" fill="url(#linear-gradient-6)"/>
          <path d="M12.5185916,3.6943c.0634084-.0576.0947-.0869.1582-.1455-.545.0796-1.1221.3321-1.5186.6983-.3994.3686-.5186.7617-.3711,1.0503-1.4824,1.3657-2.2235999,2.0478-3.7059999,3.413-.544.0796-1.1220917.3345-1.5215.7027-.4004.3701-.5235.7646-.3789,1.0522.0625-.0571.0927-.0859.1543082-.1425-.0186082-.2554.123-.5577.4364918-.8457.4004-.3687.9775082-.6231,1.5205082-.7027,1.4833917-1.3642,2.2255917-2.0469,3.71-3.4121-.1485084-.2886-.0284084-.6821.372-1.0508.3056916-.2827.7197916-.497,1.1445916-.6172Z" fill="url(#linear-gradient-7)"/>
        </g>
        <path d="M13.6532916,5.0903c-.4189.3828-1.0361.6416-1.6035.708-1.4697,1.3457-2.2040999,2.0191-3.6737916,3.3643.1708917.2905.0516917.7002-.3682083,1.0835-.3984.3647-.9726.6172-1.5107.6992.3545-.3252.5332-.4883.8886-.814-.123-.2075-.1845-.312-.3076-.52-.4023.0484-.6045.0728-1.0068.1211-.3565.3291-.5361.4937-.8926.8223-.1445-.2881-.0205-.6831.3799-1.0527.3994082-.3687.9775-.6231,1.5215-.7022,1.4834-1.3652,2.2245999-2.0474,3.7079999-3.4126-.1485-.2891-.0283-.6826.3711-1.0508.3965-.3662.9736-.6181,1.5185-.6982-.3535.3257-.5302.4883-.8838.8144.128.209.1915.314.3194.523.4053-.0474.6094-.0708,1.0176-.1182.3584-.3286.5371084-.4922.8964-.8208.1514.2896.0313.6851-.374,1.0537Z" fill="none" stroke="#ccc" stroke-miterlimit="3.8637" stroke-width=".5"/>
        <path d="M11.5897916,5.4683h0c.1739.0527.1866.2133.0293.3579-1.3828,1.268-1.9960916,1.8301-3.3319999,3.0551-.1582.146-.4267.2203-.5976.168h0c-.1739-.0517-.1856-.2119-.0264-.3569,1.3291-1.2227,1.9950999-1.8345,3.3251999-3.0571.1582-.1446.4267084-.2203.6015-.167Z" fill="url(#New_Gradient_88)" fill-rule="evenodd"/>
      </g>
    </g>
  </g>
</svg>