<?xml version="1.0" encoding="UTF-8"?>
<svg xmlns="http://www.w3.org/2000/svg" width="16" height="16" xmlns:xlink="http://www.w3.org/1999/xlink" viewBox="0 0 16 16">
  <defs>
    <radialGradient id="radial-gradient" cx="-27.7535342" cy="69.2032284" fx="-27.7535342" fy="69.2032284" r="6.733734" gradientTransform="translate(37.3875 -71.9822) scale(1.1284)" gradientUnits="userSpaceOnUse">
      <stop offset="0" stop-color="#fff"/>
      <stop offset=".207865" stop-color="#b7e9ff"/>
      <stop offset=".47191" stop-color="#3c97f6"/>
      <stop offset=".668539" stop-color="#032c87"/>
      <stop offset="1" stop-color="#0342d3"/>
    </radialGradient>
    <mask id="mask" x="2.959" y="3.3335" width="11.3206444" height="11.8082797" maskUnits="userSpaceOnUse">
      <path d="M2.959,8.3682c0-2.7803,2.2538946-5.0347,5.0350945-5.0347,2.7792999,0,5.0341999,2.2539,5.0341999,5.0347,0,2.7812-2.2548999,5.0351-5.0341999,5.0351-2.7811999,0-5.0350945-2.2539-5.0350945-5.0351Z" fill="#fff" fill-rule="evenodd"/>
    </mask>
    <radialGradient id="radial-gradient-2" cx="6.1791604" cy="6.2346094" fx="6.1791604" fy="6.2346094" r="7.1684748" gradientUnits="userSpaceOnUse">
      <stop offset="0" stop-color="#dfeaeb"/>
      <stop offset=".303371" stop-color="#b7e9ff"/>
      <stop offset=".52809" stop-color="#3c97f6"/>
      <stop offset=".825843" stop-color="#032c87"/>
      <stop offset="1" stop-color="#0342d3"/>
    </radialGradient>
    <mask id="mask-1" x="6.3895581" y="6.1800244" width="7.8900863" height="8.4105139" maskUnits="userSpaceOnUse">
      <path d="M12.6581944,7.9097c0,2.9214-1.7686,4.9697-4.6659999,5.1723-.3086.0215-.3516-.2441-.0508-.3149,2.4667999-.583,4.1347999-3.314,4.4062999-4.8848.0283056-.3633.3105-.2807.3105.0274Z" fill="#fff"/>
    </mask>
    <linearGradient id="linear-gradient" x1="7.53548" y1="4.4296671" x2="6.9683947" y2="15.2503" gradientUnits="userSpaceOnUse">
      <stop offset="0" stop-color="#65bd7b"/>
      <stop offset=".0074065" stop-color="#60bb74"/>
      <stop offset=".0565792" stop-color="#45af4f"/>
      <stop offset=".1023037" stop-color="#32a734"/>
      <stop offset=".1428936" stop-color="#27a224"/>
      <stop offset=".174157" stop-color="#23a11f"/>
      <stop offset=".2984012" stop-color="#1c871d"/>
      <stop offset=".4981417" stop-color="#14651b"/>
      <stop offset=".6872815" stop-color="#0e4c19"/>
      <stop offset=".8596362" stop-color="#0b3d18"/>
      <stop offset="1" stop-color="#0a3818"/>
    </linearGradient>
    <mask id="mask-2" x="3.621916" y="4.5308185" width="10.6577284" height="10.4261238" maskUnits="userSpaceOnUse">
      <path d="M3.9325946,4.9902c.0313.0796-.0985946.1319-.0107.1441.1933.0273.3037-.1177.498-.0899.0635.0088.0957.023.1592.0367-.0186.1289.0264.2153.0068.3447-.0263.1933-.1855.2607-.2138.4546-.0166.1196.0488.1948.0302.3144-.0058.0552-.039.0835-.0556.1333l.0234-.166c-.0360946-.0058-.0517-.0264-.0888-.0312-.1895-.0264-.1504.2568-.2471.417-.1885.3027-.3487.4687-.3975.8193-.0722.5171.1475.8213.0742,1.3374-.0263.1943.0801053.3032.1993.4609.0293.0039.0556.0034.0761-.0083-.0332-.4326-.1035-.6592-.0918-1.0854.1114.1474.0489.289.125.4502.1534.3178.2549.497.3526.8403.0342.1231-.042.2334.0283.3423.1455.228.2148.4067.4482.5532.1299.0791.2725,0,.3799.1089.1651.1699.1924.4038.4278.4375.1201.0161.1953-.0483.3154-.0317.1426.0205.0537.2241.1094.3554.0498.1143.1962.0742.2988.1543.123.0967.1416.2642.2988.2866.0908.0132.127-.0947.2188-.0825.1474.021.0986.2305.0781.3784-.0401.2857-.3838.3223-.4238.608-.0069.0507.0459.0776.038.1279-.0097.0742-.1064.0889-.1171.1626-.0284.2031.1289.2954.2363054.4663.0966946.1494.084.2983.2245946.4077.1953.1548.5215.1724.4873.417-.0576.4102-.4258.4858-.6455.8403.0391.0249.0605.0469.1055.0533.4941054.0693.7363-.273,1.2089-.4327.3213-.1054.5411-.0605.8418-.2212.1573-.081.1739-.2382.3282-.33.3173-.19.5507-.2378.8047-.5078.1611-.1705.1357-.3614.25-.5674.1621-.2915.3603-.3911.4941-.7022-.04-.0244-.0575945-.0644-.1074-.0718l-.3418-.0478c-.2119-.0298-.3701-.2158-.3408-.4287-.2344-.0376-.3682-.0474-.6045-.0806-.3008-.0415-.3614-.3706-.6620945-.4131-.129-.0175-.1866055.1245-.3155055.107-.1719-.024-.2539-.1114-.4238-.1353-.1064-.0151-.1572.082-.2041.1787l-.0762.0078c-.0185-.0683-.0019-.122.0088-.1963.0029-.0273-.043-.0297-.0488-.0537-.2158.0586-.2871.2984-.5078.2671-.0557-.0073-.0752-.0669-.1319-.0747-.1006-.0137-.1572.0528-.2596946.0391-.1875054-.0274-.3711054-.1607-.3448054-.3501.0088054-.0694.087-.0864.0967-.1558.0244-.1709-.1113-.2788-.2695-.3584l-.1162.0215-.167-.0234c.0049-.0318-.0098-.0533-.0059-.085.0176-.1201.1778-.126.1944-.2466.0146-.105.0009-.1733.0381-.2759l-.3047-.0434c-.127.0806-.1924.2368-.3487.2148-.2773-.039-.4453-.3169-.4062-.5937.0459-.3277.2158054-.6939.5429-.6485.1104.0157.1583.0791.2696.0943.0791.0107.1015-.0982.1806-.0869.2081.0288.4532.124.4239.332-.0254.1895.1113.3218.2822.4063.0156054-.0445.0244-.0713.0352-.1172l-.0469-.5992c.1611-.2832.5596-.2417.6045-.5595l.0312-.2124c.0332-.2442.3086054-.3565.5528-.3218-.0157-.0918-.0743-.1426-.0616-.2349.0147-.1015.1289-.1133.2276-.1377-.002.042,0,.0703.0019.1133.2217-.039.4629055-.0762.4942-.2978.0039-.0274-.043-.0293-.0498-.0542-.0713.0185-.1221.0395-.2002.0288-.1075-.0152-.0722945-.1656-.0469-.2705-.0653945-.0088-.1035-.0098-.1699-.0044.0488-.0738.1162-.0874.2031-.1035l.1055.0522c.0605-.0244.1005-.0464.1611-.0713.0205.0874-.0059.2061.0869.2193l.4024.0561c.0273-.0996-.1114-.1191-.1807-.1943-.0615-.0655.0127-.1582-.043-.232-.0947-.1264-.2344-.1035-.3691-.1836-.2305-.1401-.2285-.4511-.4961-.4882-.0518-.0074-.0713.0649-.1211.0581-.1797-.0254-.207-.2359-.3867-.2613-.0557-.0083-.0907946.0103-.1446.0171.0069.0948.0752.1416.0616.2344-.0225.1572-.2461.1489-.2686.3057-.0137.0971.0352.1513.0401.2505-.1446-.0059-.1026-.2076-.2012-.3106-.169-.1743-.5469-.124-.5117-.3686.0478-.3462.6347-.2354.6836054-.5811.0038946-.0273-.0274054-.0415-.0284054-.0654.042-.0088.0694054-.0284.1162-.021.1465.02.2178.1191.2842054.2514-.0888054.0249-.1435054.0166-.2334054.043.1914054.1162.374.0898.5098.2686l.1807-.087c-.0380945-.0673-.0694-.1093-.128-.1596.0391-.0093.0723-.0132.1123-.0025-.0888-.1635-.2588-.164-.4131-.2705-.1542946-.1059-.2285-.2197-.4169-.2461l.0126054-.0879c.0165946-.1157.0927946-.1567.1660946-.2456-.0489-.0249-.0782-.0483-.1328-.0556-.1211-.0171-.2725-.0098-.2891.1098-.0098.0733.0615.0982.0918054.1631-.0547054.0396-.0918054.0674-.1309054.1138.042.0386.0821.0825.0742.1426-.0058.041-.0478.0444-.0839.063-.0723-.128-.1582-.2105-.1368-.3584-.0683.0048-.1533.0078-.1621.0713-.0107.0786.0498.1152.0869.1826-.0643946.0278-.1063946.0595-.1796.0498l-.1612-.0235c.0196-.0434.0625-.0561.0703-.1074l.0264-.189c-.1064-.0053-.1641-.0327-.2705-.0473-.0869-.0127-.1943.0146-.207.102-.0137.0982.081.1294.1406.2085-.0449.0171-.0693.0513-.1191.044-.0977-.0137-.0635-.1543-.1397-.2124-.1025-.0796-.2041-.0235-.335-.0288.0079-.1211-.0195-.2657-.1395946-.2823-.3369054-.0468-.5313054.0943-.8506054.2198-.2383.0927-.4443.0634-.6338.2304ZM6.1874946,6.8882c.168-.0611.2715054-.1504.4512-.125.1142.0161.1045.1606.1933054.2295.1220946.0967.2470946.0864.3495946.1997-.0839.0825-.1385946.1401-.2519.1719.0156-.1016-.0352-.2124-.1376946-.2266-.165-.023-.0869054.2891-.2383054.3613-.0234-.1303-.0439-.2129-.0264-.3423.0088-.0693.0616-.1045.1143-.144-.0565946-.0361-.0879-.0874-.1562-.0972-.0928-.0132-.2041-.0239-.2979-.0273ZM7.4276946,7.3115l.1045.0528c-.1551946.1709-.3349.2441-.5654.2114l-.1016-.0142c.1436-.186.3194-.2324.5625-.25ZM7.6005946,10.3613c-.0508-.0078-.0117-.082-.0155946-.1289.0497946-.0078.0780946-.0176.1297946-.0195.002-.042.002-.0708-.0019-.1138.0312.0049.0488-.0122.0801054-.0073.1893945.0269.2762945.1143.4628945.1592-.1475.2148-.4014.146-.6553.1103ZM6.6903946,9.8755c-.0966-.0181-.1758-.0576-.2002-.1548.126-.02.1924-.0298.3184-.0122.1699.0239.2598.0884.4082.1704.1133.0635.29.0791.2715.2075-.0098.0786-.1055.0889-.1846.0777l-.1611-.0225c.0195-.04.0429-.0693.0703-.1025-.1387-.1236-.2285-.2115-.4141-.2373-.0312-.0049-.08.0688-.1084.0737ZM7.793,4.8364c.1757945.1231.2694945.2632.4862945.27.0215.1353.1396.1661.2305.2632.1631.1787.2588.3374.498.3716.041.0059.0664-.0054.1084-.0034-.0625-.1548-.2139-.2232-.1904-.3892.0146-.1015.1133-.1347.1279-.2363.0244-.1709-.2314-.1597-.3799-.2422-.2099-.1133-.3174-.251-.5576-.2851-.2158-.0303-.4326-.0039-.5351.1879.0595.023.1474.0586.2119054.0635Z" fill="#fff" fill-rule="evenodd"/>
    </mask>
    <radialGradient id="radial-gradient-3" cx="5.218796" cy="5.7527602" fx="5.218796" fy="5.7527602" r="9.2052323" gradientUnits="userSpaceOnUse">
      <stop offset="0" stop-color="#d3edd5"/>
      <stop offset=".0881577" stop-color="#ceebd0"/>
      <stop offset=".1888042" stop-color="#c1e5c2"/>
      <stop offset=".2955934" stop-color="#aadbab"/>
      <stop offset=".4067144" stop-color="#8bce8b"/>
      <stop offset=".5211732" stop-color="#64bd62"/>
      <stop offset=".6367876" stop-color="#34a830"/>
      <stop offset=".674157" stop-color="#23a11f"/>
      <stop offset=".6869737" stop-color="#209b1c"/>
      <stop offset=".7628023" stop-color="#128010"/>
      <stop offset=".8398735" stop-color="#086d07"/>
      <stop offset=".9182832" stop-color="#016101"/>
      <stop offset="1" stop-color="#005e00"/>
    </radialGradient>
    <mask id="mask-3" x="6.3895581" y="6.1800244" width="7.8900863" height="8.4105139" maskUnits="userSpaceOnUse">
      <path d="M12.6581944,7.9097c0,2.9214-1.7686,4.9697-4.6659999,5.1723-.3086.0215-.3516-.2441-.0508-.3149,2.4667999-.583,4.1347999-3.314,4.4062999-4.8848.0283056-.3633.3105-.2807.3105.0274Z" fill="#fff"/>
    </mask>
    <mask id="mask-4" x="9.1877518" y="6.8027" width="2.6022482" height="3.6465" maskUnits="userSpaceOnUse">
      <path d="M10.6903945,8.8789l.003.9072c.0019.5293-.8311.6582-.8321.1289l-.0039-.8466c-.3633-.0469-.6308-.2823-.666-.6368-.0488-.5083.3984-1.0688,1-1.2524.6016055-.1836,1.1289.0791,1.1787.5869.0401.4136-.248.8609-.6797,1.1128Z" fill="#fff"/>
    </mask>
    <linearGradient id="New_Gradient_69" data-name="New Gradient 69" x1="9.6134658" y1="8.0250492" x2="12.1125713" y2="9.298407" gradientUnits="userSpaceOnUse">
      <stop offset="0" stop-color="#000"/>
      <stop offset=".241577" stop-color="#000"/>
      <stop offset="1" stop-color="#995510"/>
    </linearGradient>
    <radialGradient id="New_Gradient_51" data-name="New Gradient 51" cx="10.9638344" cy=".9064119" fx="10.9638344" fy=".9064119" r="3.8171939" gradientTransform="translate(.3556902 8.3197902) scale(.9527)" gradientUnits="userSpaceOnUse">
      <stop offset="0" stop-color="#fff"/>
      <stop offset=".331467" stop-color="#bae0e9"/>
      <stop offset=".561798" stop-color="#3892c2"/>
      <stop offset=".865173" stop-color="#192d84"/>
      <stop offset="1" stop-color="#1d3f99"/>
    </radialGradient>
    <linearGradient id="New_Gradient_62" data-name="New Gradient 62" x1="10.6387359" y1="15.7622798" x2="9.4197547" y2="10.482292" gradientUnits="userSpaceOnUse">
      <stop offset="0" stop-color="#f8f987"/>
      <stop offset="1" stop-color="#fbae0c"/>
    </linearGradient>
    <mask id="mask-5" x="5.3709485" y="11.03645" width="9.4812959" height="3.7918767" maskUnits="userSpaceOnUse">
      <path d="M7.3690946,13.3809c-.1308-.2115-.5019-.313-.8270946-.2276-.3262054.085-.4834054.3252-.3516054.5371.1319.2115.502.3135.8282.2285.3242-.0859.4804054-.3261.3505-.538ZM9.6464945,12.3428l4.2772999-1.124.294.081.1367.2217-.3291.5039-.2461-.0674-.3232.085-.0957.1465-.4346-.1197-.294.0767-.2295.3515-.249-.0683-.2881.0752-.1571944.2397-.3105055.0821-.2734945-.0757-.1162055.1772-.8457.2222.1475.2314s.0244055.084-.1201.1221c-.3047.0801-.3672-.2192-.6543-.1435,0,0-.212.1425-.1524.2421.0625.0987.0235.792-1.1953,1.1123-1.4932.3921-2.2743999-.3169-2.5917999-.8286-.3184-.5117-.5156-1.3882.9707-1.7788,1.2207-.3203,1.9882999.1612,2.0507999.2608.0615.0986.3672.1054.3672.1054.2871-.0752,0-.3159.3047-.396.1435-.0376.2334.0601.2334.0601l.124.2051Z" fill="#fff" fill-rule="evenodd"/>
    </mask>
    <linearGradient id="New_Gradient_53" data-name="New Gradient 53" x1="10.5626006" y1="15.4447082" x2="9.4310056" y2="10.5432316" gradientUnits="userSpaceOnUse">
      <stop offset="0" stop-color="#f8f987"/>
      <stop offset="1" stop-color="#fbae0c"/>
    </linearGradient>
    <linearGradient id="New_Gradient_56" data-name="New Gradient 56" x1="8.5326727" y1="14.5303245" x2="11.4235192" y2="11.639478" gradientUnits="userSpaceOnUse">
      <stop offset="0" stop-color="#f6f8b2"/>
      <stop offset="1" stop-color="#f9e917"/>
    </linearGradient>
    <linearGradient id="New_Gradient_52" data-name="New Gradient 52" x1="6.6713023" y1="11.881906" x2="7.2965479" y2="13.8062143" gradientUnits="userSpaceOnUse">
      <stop offset="0" stop-color="#f6f8b2"/>
      <stop offset=".404495" stop-color="#f6f8b2"/>
      <stop offset=".938202" stop-color="#fdcd12"/>
      <stop offset="1" stop-color="#fdcd12"/>
    </linearGradient>
    <linearGradient id="New_Gradient_50" data-name="New Gradient 50" x1="6.7387071" y1="13.2308952" x2="6.9919006" y2="14.2463989" gradientUnits="userSpaceOnUse">
      <stop offset="0" stop-color="#fdcd12"/>
      <stop offset=".578659" stop-color="#f6f8b2"/>
      <stop offset="1" stop-color="#f6f8b2"/>
    </linearGradient>
  </defs>
  <g isolation="isolate">
    <g id="Layer_1" data-name="Layer 1">
      <g>
        <path d="M2.959,8.3682c0-2.7803,2.2538946-5.0347,5.0350945-5.0347,2.7792999,0,5.0341999,2.2539,5.0341999,5.0347,0,2.7812-2.2548999,5.0351-5.0341999,5.0351-2.7811999,0-5.0350945-2.2539-5.0350945-5.0351Z" fill="url(#radial-gradient)" fill-rule="evenodd" stroke="#000" stroke-miterlimit="3.8637" stroke-width="2.3008"/>
        <g mask="url(#mask)">
          <g>
            <path d="M2.959,8.3682c0-2.7803,2.2538946-5.0347,5.0350945-5.0347,2.7792999,0,5.0341999,2.2539,5.0341999,5.0347,0,2.7812-2.2548999,5.0351-5.0341999,5.0351-2.7811999,0-5.0350945-2.2539-5.0350945-5.0351Z" fill="url(#radial-gradient-2)" fill-rule="evenodd"/>
            <g mask="url(#mask-1)">
              <g>
                <path d="M12.6581944,7.9097c0,2.9214-1.7686,4.9697-4.6659999,5.1723-.3086.0215-.3516-.2441-.0508-.3149,2.4667999-.583,4.1347999-3.314,4.4062999-4.8848.0283056-.3633.3105-.2807.3105.0274Z" fill="#3c97f6"/>
                <path d="M12.7948944,7.9326c0,2.9209-1.7685,4.9697-4.6659999,5.1719-.3066.022-.3516-.2441-.0508-.3149,2.4657999-.5831,4.1347999-3.314,4.4062999-4.8853.0293-.3633.3105-.2803.3105.0283Z" fill="none" stroke="#2b76b4" stroke-miterlimit="3.8637" stroke-width="2.9695"/>
                <path d="M12.7255944,7.9209c0,2.9214-1.7665944,4.9697-4.6640999,5.1724-.3086.0214-.3524945-.2437-.0517-.315,2.4647999-.583,4.1337999-3.3135,4.4062055-4.8847.0282944-.3633.3095944-.2808.3095944.0273Z" fill="none" stroke="#1459a5" stroke-miterlimit="3.8637" stroke-width="1.4848"/>
                <path d="M12.6581944,7.9097c0,2.9214-1.7686,4.9697-4.6659999,5.1723-.3086.0215-.3516-.2441-.0508-.3149,2.4667999-.583,4.1347999-3.314,4.4062999-4.8848.0283056-.3633.3105-.2807.3105.0274Z" fill="none" stroke="#1d3f99" stroke-miterlimit="3.8637"/>
              </g>
            </g>
            <path d="M6.1806946,4.8857l.041.0411c.0752.0688.1631.2016.0097.2607l-.0419.0234c-.211.1167-.2764-.059-.336-.2041-.0898-.0713-.4004.0879-.3847-.1406.0009-.0312.0019-.1235-.0274-.1489-.3672-.0523-.6406.1875-.9823946.2671-.1231054.0283-.2559054.0434-.3623054.1162-.0078.041-.0283.0771-.0528.1103-.1455-.0205-.1258946-.0673-.0683-.1494.1953.0279.2002-.1513.665-.0517.166.0351.1123.5385.0528.6504-.1563.2978-.1739.1494-.1309.4863.0156.1055-.0029.1665-.0537.2568-.0527.1568-.2187946.1387-.2471.02l-.0176.0708c-.0136.0518-.0332.1148-.0673.1709-.3545.5699-.4747.67-.3437946,1.3995.0448946.2446.0732946.4599.0390946.7089-.0147.105.0322.1778.0908.2574l.084.1108-.0762-.0444c-.0391.0049-.0693.1528-.0723.1206-.0332-.4375-.1053946-.667-.0918-1.0987.0079-.2358.2832-.1728.3243.211.0078.0639.0107.1299.039.1894.1367.2842.2735.5547.3594.8594.0205.0757-.0088.2764.0117054.3096.125.1953.2050946.3852.4101946.5136.0937.0572.2549-.0234.4043.129.1523.1572.2002.4526.4648.3872.5195-.1275.3389.2402.4121.4101.1465.0899.2158.0117.3614.2149.0332054.0434.082.145.1386.1528.084-.0391.0938-.0996.2188-.082.2119.0293.2226.2402.2031.3984l-.0176.1206c-.0469.3315-.3779.3892-.4219.5913.0782054.1367.0284.2256-.083.3179-.0107.1235.1553.2695.2188.3711.0693.1064.1025.3037.1963.3769.1963.1548.584.1783.5342.5323-.0557.3979-.3330946.5044-.5616.7568.3789.0102.7149-.3135,1.0684-.4321.2715-.0889.5654-.0762.8213-.2119.1094-.0567.167-.2354.3232-.3277.3184-.1899.7744-.311.8916055-.707.0322945-.1099.0624945-.2202.1171945-.3218.1231-.2187.3203-.3779.4414-.5947-.3135-.0435-.706-.0728-.7519-.4878-.4268-.061-.5996.0015-.8994-.3062-.043-.0434-.1934-.2031-.2792945-.167-.0655055.0381-.042.0235-.0928055.0557-.2354.1406-.4063-.0566-.6279-.0879-.1152945.086-.0176.1631-.2481.187-.1318.0142-.1543-.1421-.1445-.2329l.0058-.0464c-.0174946-.0195-.0312-.0405-.0371-.0649.0518.0298.1026054.0605.1543.0898-.2148.0596-.3984.4619-.6894.2036-.0879-.0097-.1426.0484-.2598.0313-.3164-.0444-.6289-.3814-.3682-.6401.0274-.0899-.0195-.1465-.1522946-.2163l-.0732054.0141-.0401.001-.167-.0239-.1054-.1412c-.0245-.1123.0156-.1953.1044-.2656.0459-.0342.0245-.0185.0645-.0478.0215-.0625.0254-.1084.0283-.149l-.1191-.0405-.0323.0298c-.1074.1025-.1982.2007-.3670946.1773-.918-.1285-.4795054-1.8399.3446946-1.4297.0303054.0151.0517.0254.0762.0312.2402-.229.7773.064.7314.3901-.0088.0606.0107054.1172.0596.17-.0371-.4693-.1494-.5991.2783-.8262l.0967-.0498c.2226-.1143.1894-.1729.2226-.4111.0381-.2696.2705054-.4019.501-.4292-.0537-.1934.0606-.3077.2373-.3521l.0742055-.0171c.0761945-.018.1357945.0176.1513945.0855.0908-.0205.1963-.0464.2354-.1148-.0157-.0166-.0254-.0366-.0303-.0576.0498.0308.0996.061.1513.0918-.206.0508-.456.0747-.4267-.2446-.2539.0171-.1758-.271.0918-.3364l.0683-.0137c.042-.0078.0967.0205.1309.0376.2295-.105.2627-.0733.2949055.1665l.0390945.0049c-.0293-.0655-.0078-.1206-.0137-.1866-.0439-.0576-.2519-.0991-.331-.1455-.1778-.1098-.2989-.4287-.418-.4648-.125.1079-.2793.0303-.3789-.0733-.0508-.0576-.0303-.0351-.0781-.0869-.0743-.0786-.0987-.0449-.1913946-.0332l.1073946-.1308c.0097.1469.1836054.289-.0821.4697l-.0507.0322-.0391.0244c-.0488.0332-.0439.0518-.0273.1104l.0185.064c.0752.3061-.2646.2856-.3486.0151-.0694-.2236-.1113-.1875-.3369-.2686-.4327-.1548-.2911-.5449.0361-.6884.1025-.0445.3398-.1026.3789-.209-.1269-.2198.3613-.4058.6133.0967.0185055.0361.0195055.0732.0078.1035.0244.0102.0508.021.0742.0346-.0068-.0234-.0039-.0468.0049-.0673l-.1025-.0445c-.1748-.0781-.3301-.2768-.501-.3017-.1787-.0245-.0908-.3062-.0283-.3936-.0235,0-.044.002-.0595946.0059.0702946.0859.1054946.1894.0263946.249l-.0332.0254c.1357.2495-.2051.4053-.2901.2549-.082-.1504-.1787-.2452-.1513-.437l.1318.1425c.1445.211-.1104.3257-.2803.3023-.1377-.0196-.4014-.0474-.2187-.2573l.0254054-.0274.0057946-.0532c-.0557-.0127-.1455-.041-.2021-.0274ZM3.8554946,5.0742l.0312-.1264c.2178-.1929.4317-.1597.6719-.254.2871-.1127,1.0664054-.5092,1.1543.0464l.0508-.0053c.0713054-.0044.1562.0024.2402.0678.0557.042.0811054.1045.1006.168.0117-.0059.0244-.0117.0371-.0166l-.0547.1914c-.0957-.1269-.2705-.2402-.1084-.4214.1524-.1704.3711-.0512.5528-.0415.1894.0103.121.357.0253.457-.0155946.0167-.205-.1718-.1123-.1591.1983.0283.1338.0434.2745-.0176l-.0586.1758c-.0723-.1289-.2227-.3408.0439-.4209.0225-.0074.0459054-.0113.0732-.0147l.0557054-.0039c.1708946-.0122.1073946.1612.1542946.2539.0273.0542.0664.1055.1016.1675l-.125-.0376c-.0967-.0957-.1407-.1265-.0166-.2412-.2041-.2832.2148-.4907.5615-.3066.2021.1074-.0635.2558-.0957.3501.1709054.0639.2803.2158.4443.2905.1192.0527.4844.2353.3614.4053.1035.184-.2862.3662-.3829.2387-.0947-.1279-.333-.1528-.4726-.2373-.1699-.1035-.0371-.2163.081-.2387-.0127-.0098-.0262946-.0167-.039-.0235-.0908.3975-.749.3447-.6729.5752.0723.0703.3252.0811.4737.2358.0654.0679.0869054.1548.1142.2408.0078.0302.0029.0302.0039.0312-.0967-.0469-.0996.2388-.1387.0874l-.0146-.0532c-.0458946-.1602-.0137-.293.126-.3872l.0508-.0327.039-.0244c.0801-.0533-.0205-.1587-.0254-.2481-.0136-.2109.3711-.1714.5117054-.0244.0576945.0635.0283945.0293.0790945.0869.0157.0166.0323.0318.0518.0415.25-.2153.4746.1958.5938.3584.0293055.0415.0615.0738.0996.0972.2148.1274.4814.0713.4463.4448.1044055.0884.2548.1167.2021.3067-.0508.1801-.6504.1118-.71-.1275-.0654.0274-.1259-.0039-.1836-.0322-.039.0098-.0654.0171-.0790945.041l-.1142055-.1934c.2197-.0156.3262055-.0102.2832055.2354l-.0078055.042c.0576-.0093.0859-.0186.1211-.0269l.1513.0918c-.0195-.0112-.0263-.0337-.0302-.0532.25.1465-.0537.4575-.3428.5234-.084.0196-.2324.0728-.2949-.0156l.0312.0772c.169.4287-.4736.061-.5273.4472-.0449.3169-.042.4375-.3555.5987l-.0957.0488c-.0663946.0361-.1338.0762-.1807.1396l.044.5572-.0029.0395c-.1241.5122-.6065-.0234-.5616-.3359.0166-.124-.2168-.1753-.2988-.1885-.1992.1904-.2959.0147-.4697-.0098-.3838-.0542-.6221.9204-.1026.9932.0997.0156.211-.2334.3516-.2134.4434.062.4043054-.0136.3828.3125-.0097.1446-.0019.2329-.123.3277-.041.0302-.0234946.0175-.041.0302.3593-.0634.6972.3623.4189.6368-.0195.142.1885.2373.3125.1948.1221054-.041.2178-.0464.3174.0434.1035.0157.3105-.2163.457-.2568l.1553.0908c-.0195-.0117-.0264-.0332-.0303-.0532.0293.0176.0508.0381.0664.064.2158-.146.5235.1318.624.0898.0664-.0395.0381-.0225.0909-.0557.4023-.2402.5781.3257.8672.3663.2363.0327.371.0429.6074.0805.1982.0318-.003.3809.3369.4282.0967.0137.3545.0093.4658.1075l.0313.0302s.0703.1065.0498055.1548c-.1202055.2808-.3545055.4551-.5.7144-.1123055.2041-.0821055.3945-.2676055.5918-.2647.2827-.5186.3423-.833.5302-.125.0733-.1485.2374-.334.3335-.2871.1524-.5645.1314-.8593945.2286-.4365054.1464-.9472054.6621-1.4199054.3671-.2188-.1367.2685-.5112.3652-.5981.5283-.4775.0557054-.4502-.2187-.6675-.1738-.1362-.1524-.2837-.252-.4389-.1308-.2061-.4375-.4732-.1523-.711-.1797-.331.3672-.5029.4004-.7383l.0176-.1162c.0029-.0337.0058-.0674.0048-.0967-.3574.2535-.4502-.2221-.6152-.2753-.125-.0401-.2314-.044-.292-.1822-.0371-.0844-.0303-.1738-.0322-.2636l-.0303-.0162c-.3838.0508-.4307.0611-.6777-.3276-.1621-.2519-.2305-.0757-.4444-.2056-.2539-.1591-.3349-.3535-.4882-.5913-.1045-.1626-.0118-.268-.042-.3764-.044-.1494-.0948-.2896-.1582-.4307.0205.1777.0439.3584-.2012.3232-.0126946-.0014-.0742-.0376-.082-.0478l-.086-.1123c-.2324-.3115-.0996-.4268-.1289-.7676-.0477947-.5561-.2353-.9307.0781-1.4829.0704-.1245.1582-.2422.253-.3965.1015-.1675.0879-.6284.4599-.4433.1563.0224.0957.2207.084.3071l-.2432-.0562c.0069-.019.0147-.0361.0225-.0522.1035-.1895-.1426-.2813.127-.6572.1298-.1797.082-.208.0722-.4024l-.0468-.0093c-.0977-.0141-.9384946.3228-.5977-.1533l.0137.0083ZM6.834,7.332l-.0078054.0308-.0176.0674c-.0625.2378-.3027.3476-.3408.143-.0381-.2031-.0927946-.4287.0927-.5776l.042-.0317.0069.205c-.0293-.0195-.0557-.0424-.0821-.0659-.04-.0312-.2578-.0371-.3085-.039-.1641-.0064-.1915-.1866-.0372-.2427.2266-.0811.5557-.2871.712.0332.0595.1221.0712.1143.2041.167.0957.0386.3437.1748.208.3096l-.0606.06c-.0713.0679-.1474.1177-.2450946.1445-.1914054.0533-.1367054-.1547-.166-.2036ZM7.0145946,7.2578c-.081-.0322-.1533-.0605-.2235946-.1157-.0937054-.0737-.1015054-.1729-.1338054-.2036-.1396-.0196-.2656.0727-.3896.1181l-.0371-.2421c.1386.0053.3379.0019.4511.0937.0772.0635.2071.1533.0704054.2559l-.0352054.0268c-.1006.105.0947.2964-.1757946.2432.0126946-.0166.0214946-.0474.0273946-.0679l.0146054-.0615c.0321946-.1358.0966946-.2632.2646946-.2398.1777.0245.2656.2041.2431.3677l-.1572-.1377c.0342-.0093.0586-.0215.081-.0371ZM7.625,7.3037c.249.1231-.1865054.5108-.6387054.4473-.1045-.0147-.3115-.0489-.1836-.2149.1768-.2285.3965-.2793.6524-.2983.0498-.0034.1426.0513.1699054.0659ZM7.5145946,7.5269l-.0751-.0367c-.21.0181-.334.0616-.4394946.1988l-.0811054-.1997c.2374.0332.3819.0351.5577-.1592l.038.1968ZM7.627,10.1885l.1395945-.1616c.1748-.043.3799.1118.5557.1538.2363.0571.0244.3798-.3116.3955-.1308.0058-.2616945-.022-.3906-.0401-.1055-.0146-.1445-.083-.1328-.1875l.0088-.0483c.0566-.0532.0986-.0884.1309054-.1118ZM8.0028945,10.3262c-.0428945-.0196-.082-.0357-.1258945-.0469-.0098055.0557-.0635055.1069-.1192055.1094-.0469.0019-.0742.0117-.1162.0185l.1045-.1313c.0029055.0346-.0039.0679-.0098.102-.0547-.0078-.0888-.0346-.082-.0898.1143.0166.2324.0434.3486.0381ZM6.8583946,9.9839c-.0557.0493-.0859.062-.1093946.0659h-.0459054c-.3554-.0679-.5068-.5073.1582-.4141.1885.0274.293.0967.4532.1846.1406.0791.3681.1016.3339.335-.0341.2485-.3261.1841-.4863.1616-.0967-.0142-.1377-.0933-.0957-.1792l.0156054-.0293c-.0683054-.0576-.1328054-.1045-.2236054-.1245ZM6.6991946,9.7905c.1279-.1176.2988054-.0449.4297.0396.0742.0478.2461054.1679.2441054.2637-.0029054.0673-.0537054.0991-.082.1542l-.0947054-.1787.0928.0127c-.1602-.0615-.2870946-.1738-.462-.1977-.1064-.0156-.1572-.0088-.2792.0107l.1015-.1533c.0029.019.0137.0352.0498.0488ZM7.8642945,4.7715l.038.0137c.128.0903.2481.2426.417.2475.1026.0039.1026.1216.167.1753.0518.043.1055.0786.1524.1289.1054.1152.2695.3496.4463055.3306.0223945-.002.0438945-.0044.0712945-.0039l-.1192.1718c-.0742-.184-.3183-.3022-.1582-.5664.0098-.0131.0186-.0258.0283-.0385.0283-.0342.0166-.0215.042-.0513.0156-.0225.0166-.0278.0176-.0332-.0147-.0156-.2656-.0859-.3164-.1147-.252-.1368-.4649-.3682-.7861-.2598ZM7.9843945,5.168c-.0635-.0459-.125-.1045-.2012-.1602-.7227-.1225.0518055-.7934.7266-.3642.081.0507.1582055.1132.2597.1684.168.0928.4864.0786.4453.3687-.0087.0566-.0341.1074-.0683.1518-.0303.0376-.0156.0186-.042.0513-.0498.081.1338.2832.1641.3574.0673.1685-.1338.1895-.2413.1743-.2861-.0395-.4002945-.2202-.5732-.4096-.0790945-.086-.1748-.1167-.2324-.2325-.0946945-.0175-.1699-.0576-.2373-.1054Z" fill="url(#linear-gradient)"/>
            <g mask="url(#mask-2)">
              <g>
                <path d="M3.9325946,4.9902c.0313.0796-.0985946.1319-.0107.1441.1933.0273.3037-.1177.498-.0899.0635.0088.0957.023.1592.0367-.0186.1289.0264.2153.0068.3447-.0263.1933-.1855.2607-.2138.4546-.0166.1196.0488.1948.0302.3144-.0058.0552-.039.0835-.0556.1333l.0234-.166c-.0360946-.0058-.0517-.0264-.0888-.0312-.1895-.0264-.1504.2568-.2471.417-.1885.3027-.3487.4687-.3975.8193-.0722.5171.1475.8213.0742,1.3374-.0263.1943.0801053.3032.1993.4609.0293.0039.0556.0034.0761-.0083-.0332-.4326-.1035-.6592-.0918-1.0854.1114.1474.0489.289.125.4502.1534.3178.2549.497.3526.8403.0342.1231-.042.2334.0283.3423.1455.228.2148.4067.4482.5532.1299.0791.2725,0,.3799.1089.1651.1699.1924.4038.4278.4375.1201.0161.1953-.0483.3154-.0317.1426.0205.0537.2241.1094.3554.0498.1143.1962.0742.2988.1543.123.0967.1416.2642.2988.2866.0908.0132.127-.0947.2188-.0825.1474.021.0986.2305.0781.3784-.0401.2857-.3838.3223-.4238.608-.0069.0507.0459.0776.038.1279-.0097.0742-.1064.0889-.1171.1626-.0284.2031.1289.2954.2363054.4663.0966946.1494.084.2983.2245946.4077.1953.1548.5215.1724.4873.417-.0576.4102-.4258.4858-.6455.8403.0391.0249.0605.0469.1055.0533.4941054.0693.7363-.273,1.2089-.4327.3213-.1054.5411-.0605.8418-.2212.1573-.081.1739-.2382.3282-.33.3173-.19.5507-.2378.8047-.5078.1611-.1705.1357-.3614.25-.5674.1621-.2915.3603-.3911.4941-.7022-.04-.0244-.0575945-.0644-.1074-.0718l-.3418-.0478c-.2119-.0298-.3701-.2158-.3408-.4287-.2344-.0376-.3682-.0474-.6045-.0806-.3008-.0415-.3614-.3706-.6620945-.4131-.129-.0175-.1866055.1245-.3155055.107-.1719-.024-.2539-.1114-.4238-.1353-.1064-.0151-.1572.082-.2041.1787l-.0762.0078c-.0185-.0683-.0019-.122.0088-.1963.0029-.0273-.043-.0297-.0488-.0537-.2158.0586-.2871.2984-.5078.2671-.0557-.0073-.0752-.0669-.1319-.0747-.1006-.0137-.1572.0528-.2596946.0391-.1875054-.0274-.3711054-.1607-.3448054-.3501.0088054-.0694.087-.0864.0967-.1558.0244-.1709-.1113-.2788-.2695-.3584l-.1162.0215-.167-.0234c.0049-.0318-.0098-.0533-.0059-.085.0176-.1201.1778-.126.1944-.2466.0146-.105.0009-.1733.0381-.2759l-.3047-.0434c-.127.0806-.1924.2368-.3487.2148-.2773-.039-.4453-.3169-.4062-.5937.0459-.3277.2158054-.6939.5429-.6485.1104.0157.1583.0791.2696.0943.0791.0107.1015-.0982.1806-.0869.2081.0288.4532.124.4239.332-.0254.1895.1113.3218.2822.4063.0156054-.0445.0244-.0713.0352-.1172l-.0469-.5992c.1611-.2832.5596-.2417.6045-.5595l.0312-.2124c.0332-.2442.3086054-.3565.5528-.3218-.0157-.0918-.0743-.1426-.0616-.2349.0147-.1015.1289-.1133.2276-.1377-.002.042,0,.0703.0019.1133.2217-.039.4629055-.0762.4942-.2978.0039-.0274-.043-.0293-.0498-.0542-.0713.0185-.1221.0395-.2002.0288-.1075-.0152-.0722945-.1656-.0469-.2705-.0653945-.0088-.1035-.0098-.1699-.0044.0488-.0738.1162-.0874.2031-.1035l.1055.0522c.0605-.0244.1005-.0464.1611-.0713.0205.0874-.0059.2061.0869.2193l.4024.0561c.0273-.0996-.1114-.1191-.1807-.1943-.0615-.0655.0127-.1582-.043-.232-.0947-.1264-.2344-.1035-.3691-.1836-.2305-.1401-.2285-.4511-.4961-.4882-.0518-.0074-.0713.0649-.1211.0581-.1797-.0254-.207-.2359-.3867-.2613-.0557-.0083-.0907946.0103-.1446.0171.0069.0948.0752.1416.0616.2344-.0225.1572-.2461.1489-.2686.3057-.0137.0971.0352.1513.0401.2505-.1446-.0059-.1026-.2076-.2012-.3106-.169-.1743-.5469-.124-.5117-.3686.0478-.3462.6347-.2354.6836054-.5811.0038946-.0273-.0274054-.0415-.0284054-.0654.042-.0088.0694054-.0284.1162-.021.1465.02.2178.1191.2842054.2514-.0888054.0249-.1435054.0166-.2334054.043.1914054.1162.374.0898.5098.2686l.1807-.087c-.0380945-.0673-.0694-.1093-.128-.1596.0391-.0093.0723-.0132.1123-.0025-.0888-.1635-.2588-.164-.4131-.2705-.1542946-.1059-.2285-.2197-.4169-.2461l.0126054-.0879c.0165946-.1157.0927946-.1567.1660946-.2456-.0489-.0249-.0782-.0483-.1328-.0556-.1211-.0171-.2725-.0098-.2891.1098-.0098.0733.0615.0982.0918054.1631-.0547054.0396-.0918054.0674-.1309054.1138.042.0386.0821.0825.0742.1426-.0058.041-.0478.0444-.0839.063-.0723-.128-.1582-.2105-.1368-.3584-.0683.0048-.1533.0078-.1621.0713-.0107.0786.0498.1152.0869.1826-.0643946.0278-.1063946.0595-.1796.0498l-.1612-.0235c.0196-.0434.0625-.0561.0703-.1074l.0264-.189c-.1064-.0053-.1641-.0327-.2705-.0473-.0869-.0127-.1943.0146-.207.102-.0137.0982.081.1294.1406.2085-.0449.0171-.0693.0513-.1191.044-.0977-.0137-.0635-.1543-.1397-.2124-.1025-.0796-.2041-.0235-.335-.0288.0079-.1211-.0195-.2657-.1395946-.2823-.3369054-.0468-.5313054.0943-.8506054.2198-.2383.0927-.4443.0634-.6338.2304ZM6.1874946,6.8882c.168-.0611.2715054-.1504.4512-.125.1142.0161.1045.1606.1933054.2295.1220946.0967.2470946.0864.3495946.1997-.0839.0825-.1385946.1401-.2519.1719.0156-.1016-.0352-.2124-.1376946-.2266-.165-.023-.0869054.2891-.2383054.3613-.0234-.1303-.0439-.2129-.0264-.3423.0088-.0693.0616-.1045.1143-.144-.0565946-.0361-.0879-.0874-.1562-.0972-.0928-.0132-.2041-.0239-.2979-.0273ZM7.4276946,7.3115l.1045.0528c-.1551946.1709-.3349.2441-.5654.2114l-.1016-.0142c.1436-.186.3194-.2324.5625-.25ZM7.6005946,10.3613c-.0508-.0078-.0117-.082-.0155946-.1289.0497946-.0078.0780946-.0176.1297946-.0195.002-.042.002-.0708-.0019-.1138.0312.0049.0488-.0122.0801054-.0073.1893945.0269.2762945.1143.4628945.1592-.1475.2148-.4014.146-.6553.1103ZM6.6903946,9.8755c-.0966-.0181-.1758-.0576-.2002-.1548.126-.02.1924-.0298.3184-.0122.1699.0239.2598.0884.4082.1704.1133.0635.29.0791.2715.2075-.0098.0786-.1055.0889-.1846.0777l-.1611-.0225c.0195-.04.0429-.0693.0703-.1025-.1387-.1236-.2285-.2115-.4141-.2373-.0312-.0049-.08.0688-.1084.0737ZM7.793,4.8364c.1757945.1231.2694945.2632.4862945.27.0215.1353.1396.1661.2305.2632.1631.1787.2588.3374.498.3716.041.0059.0664-.0054.1084-.0034-.0625-.1548-.2139-.2232-.1904-.3892.0146-.1015.1133-.1347.1279-.2363.0244-.1709-.2314-.1597-.3799-.2422-.2099-.1133-.3174-.251-.5576-.2851-.2158-.0303-.4326-.0039-.5351.1879.0595.023.1474.0586.2119054.0635Z" fill="url(#radial-gradient-3)" fill-rule="evenodd"/>
                <g mask="url(#mask-3)">
                  <g mix-blend-mode="screen" opacity=".3">
                    <path d="M12.6581944,7.9097c0,2.9214-1.7686,4.9697-4.6659999,5.1723-.3086.0215-.3516-.2441-.0508-.3149,2.4667999-.583,4.1347999-3.314,4.4062999-4.8848.0283056-.3633.3105-.2807.3105.0274Z" fill="#c9ffc9"/>
                    <path d="M12.7948944,7.9326c0,2.9209-1.7685,4.9697-4.6659999,5.1719-.3066.022-.3516-.2441-.0508-.3149,2.4657999-.5831,4.1347999-3.314,4.4062999-4.8853.0293-.3633.3105-.2803.3105.0283Z" fill="none" stroke="#a7dbaa" stroke-miterlimit="3.8637" stroke-width="2.9695"/>
                    <path d="M12.7255944,7.9209c0,2.9214-1.7665944,4.9697-4.6640999,5.1724-.3086.0214-.3524945-.2437-.0517-.315,2.4647999-.583,4.1337999-3.3135,4.4062055-4.8847.0282944-.3633.3095944-.2808.3095944.0273Z" fill="none" stroke="#85cd92" stroke-miterlimit="3.8637" stroke-width="1.4848"/>
                    <path d="M12.6581944,7.9097c0,2.9214-1.7686,4.9697-4.6659999,5.1723-.3086.0215-.3516-.2441-.0508-.3149,2.4667999-.583,4.1347999-3.314,4.4062999-4.8848.0283056-.3633.3105-.2807.3105.0274Z" fill="none" stroke="#65bd7b" stroke-miterlimit="3.8637"/>
                  </g>
                </g>
                <path d="M3.9325946,4.9902c.0313.0796-.0985946.1319-.0107.1441.1933.0273.3037-.1177.498-.0899.0635.0088.0957.023.1592.0367-.0186.1289.0264.2153.0068.3447-.0263.1933-.1855.2607-.2138.4546-.0166.1196.0488.1948.0302.3144-.0058.0552-.039.0835-.0556.1333l.0234-.166c-.0360946-.0058-.0517-.0264-.0888-.0312-.1895-.0264-.1504.2568-.2471.417-.1885.3027-.3487.4687-.3975.8193-.0722.5171.1475.8213.0742,1.3374-.0263.1943.0801053.3032.1993.4609.0293.0039.0556.0034.0761-.0083-.0332-.4326-.1035-.6592-.0918-1.0854.1114.1474.0489.289.125.4502.1534.3178.2549.497.3526.8403.0342.1231-.042.2334.0283.3423.1455.228.2148.4067.4482.5532.1299.0791.2725,0,.3799.1089.1651.1699.1924.4038.4278.4375.1201.0161.1953-.0483.3154-.0317.1426.0205.0537.2241.1094.3554.0498.1143.1962.0742.2988.1543.123.0967.1416.2642.2988.2866.0908.0132.127-.0947.2188-.0825.1474.021.0986.2305.0781.3784-.0401.2857-.3838.3223-.4238.608-.0069.0507.0459.0776.038.1279-.0097.0742-.1064.0889-.1171.1626-.0284.2031.1289.2954.2363054.4663.0966946.1494.084.2983.2245946.4077.1953.1548.5215.1724.4873.417-.0576.4102-.4258.4858-.6455.8403.0391.0249.0605.0469.1055.0533.4941054.0693.7363-.273,1.2089-.4327.3213-.1054.5411-.0605.8418-.2212.1573-.081.1739-.2382.3282-.33.3173-.19.5507-.2378.8047-.5078.1611-.1705.1357-.3614.25-.5674.1621-.2915.3603-.3911.4941-.7022-.04-.0244-.0575945-.0644-.1074-.0718l-.3418-.0478c-.2119-.0298-.3701-.2158-.3408-.4287-.2344-.0376-.3682-.0474-.6045-.0806-.3008-.0415-.3614-.3706-.6620945-.4131-.129-.0175-.1866055.1245-.3155055.107-.1719-.024-.2539-.1114-.4238-.1353-.1064-.0151-.1572.082-.2041.1787l-.0762.0078c-.0185-.0683-.0019-.122.0088-.1963.0029-.0273-.043-.0297-.0488-.0537-.2158.0586-.2871.2984-.5078.2671-.0557-.0073-.0752-.0669-.1319-.0747-.1006-.0137-.1572.0528-.2596946.0391-.1875054-.0274-.3711054-.1607-.3448054-.3501.0088054-.0694.087-.0864.0967-.1558.0244-.1709-.1113-.2788-.2695-.3584l-.1162.0215-.167-.0234c.0049-.0318-.0098-.0533-.0059-.085.0176-.1201.1778-.126.1944-.2466.0146-.105.0009-.1733.0381-.2759l-.3047-.0434c-.127.0806-.1924.2368-.3487.2148-.2773-.039-.4453-.3169-.4062-.5937.0459-.3277.2158054-.6939.5429-.6485.1104.0157.1583.0791.2696.0943.0791.0107.1015-.0982.1806-.0869.2081.0288.4532.124.4239.332-.0254.1895.1113.3218.2822.4063.0156054-.0445.0244-.0713.0352-.1172l-.0469-.5992c.1611-.2832.5596-.2417.6045-.5595l.0312-.2124c.0332-.2442.3086054-.3565.5528-.3218-.0157-.0918-.0743-.1426-.0616-.2349.0147-.1015.1289-.1133.2276-.1377-.002.042,0,.0703.0019.1133.2217-.039.4629055-.0762.4942-.2978.0039-.0274-.043-.0293-.0498-.0542-.0713.0185-.1221.0395-.2002.0288-.1075-.0152-.0722945-.1656-.0469-.2705-.0653945-.0088-.1035-.0098-.1699-.0044.0488-.0738.1162-.0874.2031-.1035l.1055.0522c.0605-.0244.1005-.0464.1611-.0713.0205.0874-.0059.2061.0869.2193l.4024.0561c.0273-.0996-.1114-.1191-.1807-.1943-.0615-.0655.0127-.1582-.043-.232-.0947-.1264-.2344-.1035-.3691-.1836-.2305-.1401-.2285-.4511-.4961-.4882-.0518-.0074-.0713.0649-.1211.0581-.1797-.0254-.207-.2359-.3867-.2613-.0557-.0083-.0907946.0103-.1446.0171.0069.0948.0752.1416.0616.2344-.0225.1572-.2461.1489-.2686.3057-.0137.0971.0352.1513.0401.2505-.1446-.0059-.1026-.2076-.2012-.3106-.169-.1743-.5469-.124-.5117-.3686.0478-.3462.6347-.2354.6836054-.5811.0038946-.0273-.0274054-.0415-.0284054-.0654.042-.0088.0694054-.0284.1162-.021.1465.02.2178.1191.2842054.2514-.0888054.0249-.1435054.0166-.2334054.043.1914054.1162.374.0898.5098.2686l.1807-.087c-.0380945-.0673-.0694-.1093-.128-.1596.0391-.0093.0723-.0132.1123-.0025-.0888-.1635-.2588-.164-.4131-.2705-.1542946-.1059-.2285-.2197-.4169-.2461l.0126054-.0879c.0165946-.1157.0927946-.1567.1660946-.2456-.0489-.0249-.0782-.0483-.1328-.0556-.1211-.0171-.2725-.0098-.2891.1098-.0098.0733.0615.0982.0918054.1631-.0547054.0396-.0918054.0674-.1309054.1138.042.0386.0821.0825.0742.1426-.0058.041-.0478.0444-.0839.063-.0723-.128-.1582-.2105-.1368-.3584-.0683.0048-.1533.0078-.1621.0713-.0107.0786.0498.1152.0869.1826-.0643946.0278-.1063946.0595-.1796.0498l-.1612-.0235c.0196-.0434.0625-.0561.0703-.1074l.0264-.189c-.1064-.0053-.1641-.0327-.2705-.0473-.0869-.0127-.1943.0146-.207.102-.0137.0982.081.1294.1406.2085-.0449.0171-.0693.0513-.1191.044-.0977-.0137-.0635-.1543-.1397-.2124-.1025-.0796-.2041-.0235-.335-.0288.0079-.1211-.0195-.2657-.1395946-.2823-.3369054-.0468-.5313054.0943-.8506054.2198-.2383.0927-.4443.0634-.6338.2304ZM6.1874946,6.8882c.168-.0611.2715054-.1504.4512-.125.1142.0161.1045.1606.1933054.2295.1220946.0967.2470946.0864.3495946.1997-.0839.0825-.1385946.1401-.2519.1719.0156-.1016-.0352-.2124-.1376946-.2266-.165-.023-.0869054.2891-.2383054.3613-.0234-.1303-.0439-.2129-.0264-.3423.0088-.0693.0616-.1045.1143-.144-.0565946-.0361-.0879-.0874-.1562-.0972-.0928-.0132-.2041-.0239-.2979-.0273ZM7.4276946,7.3115l.1045.0528c-.1551946.1709-.3349.2441-.5654.2114l-.1016-.0142c.1436-.186.3194-.2324.5625-.25ZM7.6005946,10.3613c-.0508-.0078-.0117-.082-.0155946-.1289.0497946-.0078.0780946-.0176.1297946-.0195.002-.042.002-.0708-.0019-.1138.0312.0049.0488-.0122.0801054-.0073.1893945.0269.2762945.1143.4628945.1592-.1475.2148-.4014.146-.6553.1103ZM6.6903946,9.8755c-.0966-.0181-.1758-.0576-.2002-.1548.126-.02.1924-.0298.3184-.0122.1699.0239.2598.0884.4082.1704.1133.0635.29.0791.2715.2075-.0098.0786-.1055.0889-.1846.0777l-.1611-.0225c.0195-.04.0429-.0693.0703-.1025-.1387-.1236-.2285-.2115-.4141-.2373-.0312-.0049-.08.0688-.1084.0737ZM7.793,4.8364c.1757945.1231.2694945.2632.4862945.27.0215.1353.1396.1661.2305.2632.1631.1787.2588.3374.498.3716.041.0059.0664-.0054.1084-.0034-.0625-.1548-.2139-.2232-.1904-.3892.0146-.1015.1133-.1347.1279-.2363.0244-.1709-.2314-.1597-.3799-.2422-.2099-.1133-.3174-.251-.5576-.2851-.2158-.0303-.4326-.0039-.5351.1879.0595.023.1474.0586.2119054.0635Z" fill="none" fill-rule="evenodd"/>
              </g>
            </g>
          </g>
        </g>
      </g>
      <g>
        <g mask="url(#mask-4)">
          <g>
            <path d="M10.6903945,8.8789l.003.9072c.0019.5293-.8311.6582-.8321.1289l-.0039-.8466c-.3633-.0469-.6308-.2823-.666-.6368-.0488-.5083.3984-1.0688,1-1.2524.6016055-.1836,1.1289.0791,1.1787.5869.0401.4136-.248.8609-.6797,1.1128Z"/>
            <path d="M10.0028945,7.1382s.666-.1245.666.3374c0,.4609-.332.8555-.6962,1.043v1.789l.7265.1416,1.0908055-2.1797-.455-1.4668-1.3321055.3355Z" fill="url(#New_Gradient_69)" fill-rule="evenodd"/>
          </g>
        </g>
        <path d="M10.8690945,6.9424s.0459055.0122.1153.0434c.3701.1665.5898.4947.5898.9019,0,.6748-.4541,1.1001-.7734,1.2974v1.145c0,.3242-.4112.4765-.6865.5097-.1807.0225-.2061-.2338-.0264-.2558,0,0,.0303-.0039.0762-.0137.1132-.0244.3662-.0962.3662-.2314v-1.2959c.4482-.2481.7734-.6158.7734-1.1465,0-.3159-.2002-.6157-.5176-.7051-.1728-.0469-.0908-.2954.083-.249Z" fill="url(#New_Gradient_51)" fill-rule="evenodd" opacity=".8"/>
      </g>
      <g>
        <path d="M14.3778944,11.5254l.003-.0039-.1387-.2217-.293-.081-4.2782999,1.124-.1221-.2046s-.0897945-.0982-.2343-.0606c-.3057.0801-.0176.3208-.3047.396,0,0-.3067-.0068-.3672-.1054-.0625-.0996-.8311-.5811-2.0497999-.2608-1.0077946.2647-1.2422.753-1.1885,1.1988-.0391.2924.0762.5859.2168.81.3184.5122,1.0986,1.2212,2.5927999.8291,1.2187-.3203,1.2578-1.0137,1.1953-1.1128-.001-.0019,0-.0034-.001-.0058.0098055-.0396.0156-.0757.0176-.107.0469-.0693.1347-.1299.1347-.1299.2881-.0752.3497.2247.6543.1446.1446-.0376.1202055-.1231.1202055-.1231l-.0147055-.1679c.0225-.0323.0147055-.0616.0147055-.0616l-.0205055-.0322.7187-.1909.1172-.1773.2734.0752.3106-.0815.1552-.2393.2901-.0766.249.0693.2295-.3511.2939-.0771.4336.1191.0948-.1465.3252-.0849.2461.0679.3291-.5039.0087-.2247-.0117-.0019ZM7.043,13.9189c-.3252054.085-.6963054-.017-.8272054-.2285-.0087946-.0136-.0117-.0268-.0185-.04.0537054-.1172.1826-.2178.3691-.2676.3262-.0849.6973.0171.8281.2285.0078.0132.0118.0269.0176.0401-.0527.1172-.1816.2177-.3690946.2675Z" fill="url(#New_Gradient_62)" fill-rule="evenodd" stroke="#000" stroke-linecap="square" stroke-linejoin="bevel" stroke-width="1.5"/>
        <g>
          <path d="M7.3690946,13.6113c-.1308-.2114-.5019-.3134-.8270946-.2285-.3262054.086-.4834054.3262-.3516054.5381.1319.2114.502.313.8282.2275.3242-.0849.4804054-.3261.3505-.5371ZM9.6464945,12.5728l4.2772999-1.1241.4414.0786-.0107.2247-.3291.5039-.2461-.0679-.3232.0849-.0957.1465-.4346-.1196-.294.0772-.2295.3515-.249-.0693-.2881.0762-.1571944.2397-.3105055.0815-.2734945-.0752-.1162055.1768-.7226.1914.0244.2617s.0244055.0855-.1201.1231c-.3047.0801-.3672-.2198-.6543-.1446,0,0-.212.1436-.1524.2422.0625.0996.0235.793-1.1953,1.1133-1.4932.3921-2.2743999-.3169-2.5917999-.8291-.3184-.5117-.5156-1.3877.9707-1.7783,1.2207-.3203,1.9882999.1611,2.0507999.2598.0615.0996.3672.1059.3672.1059.2871-.0757,0-.3154.3047-.3955.1435-.0386.2334.0601.2334.0601l.124.2046Z" fill="#d68112" fill-rule="evenodd"/>
          <g mask="url(#mask-5)">
            <g>
              <path d="M7.3690946,13.3809c-.1308-.2115-.5019-.313-.8270946-.2276-.3262054.085-.4834054.3252-.3516054.5371.1319.2115.502.3135.8282.2285.3242-.0859.4804054-.3261.3505-.538ZM9.6464945,12.3428l4.2772999-1.124.294.081.1367.2217-.3291.5039-.2461-.0674-.3232.085-.0957.1465-.4346-.1197-.294.0767-.2295.3515-.249-.0683-.2881.0752-.1571944.2397-.3105055.0821-.2734945-.0757-.1162055.1772-.8457.2222.1475.2314s.0244055.084-.1201.1221c-.3047.0801-.3672-.2192-.6543-.1435,0,0-.212.1425-.1524.2421.0625.0987.0235.792-1.1953,1.1123-1.4932.3921-2.2743999-.3169-2.5917999-.8286-.3184-.5117-.5156-1.3882.9707-1.7788,1.2207-.3203,1.9882999.1612,2.0507999.2608.0615.0986.3672.1054.3672.1054.2871-.0752,0-.3159.3047-.396.1435-.0376.2334.0601.2334.0601l.124.2051Z" fill="url(#New_Gradient_53)" fill-rule="evenodd"/>
              <g>
                <path d="M8.8007945,12.7949l5.8262055-1.561c.1483944-.0396.208.1821.0594944.2222l-5.5682999,1.4921c-.1485.0401-.4659-.1132-.3174-.1533Z" fill="#c96b0a"/>
                <line x1="8.7948945" y1="12.8291" x2="14.6210944" y2="11.2676" fill="none" stroke="#fff" stroke-linecap="round" stroke-miterlimit="3.8637" stroke-width=".4623"/>
              </g>
              <path d="M7.8544945,13.4141l6.2977998-1.7198-.1894.2964s-4.5790999,1.3013-4.7411999,1.356c-.1631.0537.4599.7646-1.083,1.2055-1.4629.4185-2.1386945-.3798-2.1386945-.3798,0,0,1.0292946.5429,1.7323946-.1631.2696054-.271.1221-.5952.1221-.5952Z" fill="url(#New_Gradient_56)" fill-rule="evenodd"/>
              <path d="M7.3690946,13.3809c-.1308-.2115-.5019-.313-.8270946-.2276-.3262054.085-.4834054.3252-.3516054.5371.1319.2115.502.3135.8282.2285.3242-.0859.4804054-.3261.3505-.538ZM9.6464945,12.3428l4.2772999-1.124.294.081.1367.2217-.3291.5039-.2461-.0674-.3232.085-.0957.1465-.4346-.1197-.294.0767-.2295.3515-.249-.0683-.2881.0752-.1571944.2397-.3105055.0821-.2734945-.0757-.1162055.1772-.8457.2222.1475.2314s.0244055.084-.1201.1221c-.3047.0801-.3672-.2192-.6543-.1435,0,0-.212.1425-.1524.2421.0625.0987.0235.792-1.1953,1.1123-1.4932.3921-2.2743999-.3169-2.5917999-.8286-.3184-.5117-.5156-1.3882.9707-1.7788,1.2207-.3203,1.9882999.1612,2.0507999.2608.0615.0986.3672.1054.3672.1054.2871-.0752,0-.3159.3047-.396.1435-.0376.2334.0601.2334.0601l.124.2051Z" fill="none" fill-rule="evenodd"/>
            </g>
          </g>
          <path d="M5.5370946,13.5142s-.0185-.0425-.0342-.1123c-.292-1.3208,2.2314999-1.6133,2.9814999-1.0074.1074.0869-.0215.2481-.1299.1612-.7188-.5811-3.0360999-.1573-2.6259999.8803.0518.128-.1396.2061-.1914.0782Z" fill="url(#New_Gradient_52)"/>
          <path d="M6.2216946,13.7861c.3213054.4004,1.3994.2271,1.2275-.3193-.0859-.1074.1397-.2891.1817.0288.0976.7466-1.2246.897-1.5538.3857-.0634-.0961.0811-.1909.1446-.0952Z" fill="url(#New_Gradient_50)"/>
        </g>
      </g>
    </g>
  </g>
</svg>