<?xml version="1.0" encoding="UTF-8"?>
<svg id="Layer_1" data-name="Layer 1" xmlns="http://www.w3.org/2000/svg" width="16" height="16" xmlns:xlink="http://www.w3.org/1999/xlink" viewBox="0 0 16 16">
  <defs>
    <linearGradient id="New_Gradient_161" data-name="New Gradient 161" x1="2.8668691" y1="12.5865762" x2="12.3758674" y2="4.6075792" gradientUnits="userSpaceOnUse">
      <stop offset="0" stop-color="#ccc"/>
      <stop offset=".415726" stop-color="#f2f2f2"/>
      <stop offset=".48877" stop-color="#fff"/>
      <stop offset=".578659" stop-color="#e5e5e5"/>
      <stop offset="1" stop-color="#d9d9d9"/>
    </linearGradient>
    <linearGradient id="New_Gradient_157" data-name="New Gradient 157" x1="3.1831779" y1="10.8557338" x2="9.8944211" y2="4.1444906" gradientUnits="userSpaceOnUse">
      <stop offset="0" stop-color="#999"/>
      <stop offset=".415726" stop-color="#f2f2f2"/>
      <stop offset=".48877" stop-color="#fff"/>
      <stop offset=".578659" stop-color="#e5e5e5"/>
      <stop offset="1" stop-color="#d9d9d9"/>
    </linearGradient>
    <mask id="mask" x="5.5487974" y="4.5999753" width="6.3910998" height="10.3984595" maskUnits="userSpaceOnUse">
      <path d="M6.4677974,6.1006l4.8129999-1.2866c.3652027-.0977.6591.1308.6591.5102v7.5039c0,.3784-.2938973.7647-.6591.8614l-4.8129999,1.2866c-.3633.0971-.6592-.1314-.6592-.5108v-7.5034c0-.3779.2959-.7632.6592-.8613Z" fill="#fff" fill-rule="evenodd"/>
    </mask>
    <linearGradient id="New_Gradient_155" data-name="New Gradient 155" x1="8.5070749" y1="4.6438587" x2="9.2415313" y2="15.1470759" gradientUnits="userSpaceOnUse">
      <stop offset="0" stop-color="#d9d9d9"/>
      <stop offset="1" stop-color="#ccc"/>
    </linearGradient>
    <linearGradient id="New_Gradient_156" data-name="New Gradient 156" x1="5.0298637" y1="5.2506854" x2="12.0769582" y2="13.9531224" gradientUnits="userSpaceOnUse">
      <stop offset="0" stop-color="#ccc"/>
      <stop offset="1" stop-color="#fff"/>
    </linearGradient>
    <mask id="mask-1" x="5.5350974" y="7.7540669" width="5.6929999" height="6.0256008" maskUnits="userSpaceOnUse">
      <path d="M6.4477974,11.7559c0-1.2998,1.0112026-2.6167,2.2592026-2.9424,1.2490973-.3262,2.2597973.4634,2.2597973,1.7632,0,1.2993-1.0107,2.6176-2.2597973,2.9433-1.248.3267-2.2592026-.4643-2.2592026-1.7641Z" fill="#fff" fill-rule="evenodd"/>
    </mask>
    <radialGradient id="New_Gradient_154" data-name="New Gradient 154" cx="61.6176151" cy="-16.3324899" fx="61.6176151" fy="-16.3324899" r="3.9444884" gradientTransform="translate(-57.9906 31.4796) scale(1.105 1.1506)" gradientUnits="userSpaceOnUse">
      <stop offset="0" stop-color="#f2f2f2"/>
      <stop offset=".415726" stop-color="#ccc"/>
      <stop offset="1" stop-color="gray"/>
    </radialGradient>
    <mask id="mask-2" x="7.1229974" y="5.3961765" width="2.9639999" height="3.1314509" maskUnits="userSpaceOnUse">
      <path d="M7.6601974,7.4834c0-.6499.5068026-1.3096,1.1303-1.4727.626-.163,1.1314.232,1.1314.8819,0,.6504-.5054,1.311-1.1314,1.4736-.6234974.1621-1.1303-.2319-1.1303-.8828Z" fill="#fff" fill-rule="evenodd"/>
    </mask>
    <mask id="mask-3" x="7.1229974" y="5.3961765" width="2.9639999" height="3.1314509" maskUnits="userSpaceOnUse">
      <path d="M7.4745974,7.2568c0-.6494.5073-1.3095,1.1323-1.4721.6231026-.1636,1.1285.2319,1.1285.8808,0,.6509-.5053973,1.3106-1.1285,1.4741-.625.1622-1.1323-.2324-1.1323-.8828Z" fill="#fff" fill-rule="evenodd" stroke="#fff" stroke-miterlimit="3.8637" stroke-width=".7032"/>
    </mask>
    <radialGradient id="New_Gradient_152" data-name="New Gradient 152" cx="9.6763905" cy="8.2867556" fx="9.6763905" fy="8.2867556" r="2.6510933" gradientUnits="userSpaceOnUse">
      <stop offset="0" stop-color="#f2f2f2"/>
      <stop offset=".443817" stop-color="#ccc"/>
      <stop offset="1" stop-color="gray"/>
    </radialGradient>
    <radialGradient id="New_Gradient_153" data-name="New Gradient 153" cx="59.8470689" cy="-21.7110443" fx="59.8470689" fy="-21.7110443" r=".748826" gradientTransform="translate(-57.9906 31.4796) scale(1.105 1.1506)" gradientUnits="userSpaceOnUse">
      <stop offset="0" stop-color="#f2f2f2"/>
      <stop offset="1" stop-color="#999"/>
    </radialGradient>
    <radialGradient id="New_Gradient_151" data-name="New Gradient 151" cx="59.4255972" cy="-18.5761332" fx="59.4255972" fy="-18.5761332" r="1.3220576" gradientTransform="translate(-57.9906 31.4796) scale(1.105 1.1506)" gradientUnits="userSpaceOnUse">
      <stop offset="0" stop-color="#f2f2f2"/>
      <stop offset="1" stop-color="#999"/>
    </radialGradient>
    <mask id="mask-4" x="6.082" y="6.4491003" width=".7031974" height=".7756509" maskUnits="userSpaceOnUse">
      <path d="M6.502,6.627c.1566974-.0411.2831974.059.2831974.2207,0,.1621-.1265.3271-.2831974.3676-.1548026.0415-.2823026-.0576-.2823026-.2202,0-.1621.1275-.3281.2823026-.3681Z" fill="#fff"/>
    </mask>
    <mask id="mask-5" x="6.082" y="13.401875" width=".7031974" height=".7758501" maskUnits="userSpaceOnUse">
      <path d="M6.502,13.5801c.1566974-.041.2831974.0581.2831974.2202,0,.1616-.1265.3276-.2831974.3682-.1548026.041-.2823026-.0586-.2823026-.2207,0-.1626.1275-.3277.2823026-.3677Z" fill="#fff"/>
    </mask>
    <mask id="mask-6" x="10.5014973" y="5.2340473" width=".7036" height=".7759949" maskUnits="userSpaceOnUse">
      <path d="M10.9213973,5.4121c.1567-.041.2837.0581.2837.2197,0,.1626-.127.3282-.2837.3697-.1548.039-.2808-.0591-.2808-.2217,0-.1631.126-.3267.2808-.3677Z" fill="#fff"/>
    </mask>
    <mask id="mask-7" x="10.5243973" y="12.1433789" width=".7017" height=".7757192" maskUnits="userSpaceOnUse">
      <path d="M10.9462973,12.3213c.1543-.0405.2798.0581.2798.2207,0,.1621-.1255.3271-.2798.3682-.1572.04-.2847-.0586-.2847-.2207,0-.1636.1275-.3282.2847-.3682Z" fill="#fff"/>
    </mask>
    <linearGradient id="New_Gradient_150" data-name="New Gradient 150" x1="5.4100368" y1="5.2976477" x2="12.3384456" y2="14.4919568" gradientUnits="userSpaceOnUse">
      <stop offset="0" stop-color="#fff"/>
      <stop offset="1" stop-color="#e5e5e5"/>
    </linearGradient>
    <linearGradient id="New_Gradient_149" data-name="New Gradient 149" x1="7.127344" y1="4.1443992" x2="9.7351109" y2="14.603581" gradientUnits="userSpaceOnUse">
      <stop offset="0" stop-color="#b2b2b2"/>
      <stop offset="1" stop-color="gray"/>
    </linearGradient>
    <linearGradient id="New_Gradient_148" data-name="New Gradient 148" x1="2.992946" y1="13.3835646" x2="6.071229" y2="10.8005785" gradientUnits="userSpaceOnUse">
      <stop offset="0" stop-color="#ccc"/>
      <stop offset="1" stop-color="#b2b2b2"/>
    </linearGradient>
    <linearGradient id="New_Gradient_147" data-name="New Gradient 147" x1="8.2598651" y1="4.7065253" x2="10.8929111" y2="2.4971373" gradientUnits="userSpaceOnUse">
      <stop offset="0" stop-color="#d9d9d9"/>
      <stop offset="1" stop-color="#fff"/>
    </linearGradient>
  </defs>
  <path d="M5.9306974,14.833l-2.4980974-2.6045c-.0762-.0918-.1216-.2168-.1216-.3662v-7.5039c0-.3779.2954-.7642.6587-.8613l4.8134974-1.2867c.2212-.059.4043-.0009.5342.1426l2.4872999,2.5913c.0849.0928.1352.2237.1352.3799v7.5039c0,.3784-.2938973.7647-.6591.8614l-4.8129999,1.2866c-.2217.0591-.4156-.0015-.5371-.1431Z" fill="url(#New_Gradient_161)" stroke="#000" stroke-miterlimit="3.8637" stroke-width="2"/>
  <path d="M5.9306974,14.833l-2.4980974-2.6045c-.0762-.0918-.1216-.2168-.1216-.3662v-7.5039c0-.3779.2954-.7642.6587-.8613l4.8134974-1.2867c.2212-.059.4043-.0009.5342.1426l2.4989999,2.604-5.8856999,9.876Z" fill="url(#New_Gradient_157)" fill-rule="evenodd"/>
  <g mask="url(#mask)">
    <g>
      <path d="M6.4677974,6.1006l4.8129999-1.2866c.3652027-.0977.6591.1308.6591.5102v7.5039c0,.3784-.2938973.7647-.6591.8614l-4.8129999,1.2866c-.3633.0971-.6592-.1314-.6592-.5108v-7.5034c0-.3779.2959-.7632.6592-.8613Z" fill="url(#New_Gradient_155)" fill-rule="evenodd"/>
      <path d="M6.1952974,5.8828l4.7167999-1.2607c.3565-.0957.646.1279.646.5v7.3545c0,.372-.2895.7485-.646.8447l-4.7167999,1.2607c-.3574.0962-.6465-.1289-.6465-.5v-7.3545c0-.3715.2891-.7495.6465-.8447Z" fill="url(#New_Gradient_156)" fill-rule="evenodd"/>
    </g>
  </g>
  <g mask="url(#mask-1)">
    <g>
      <path d="M6.4477974,11.7559c0-1.2998,1.0112026-2.6167,2.2592026-2.9424,1.2490973-.3262,2.2597973.4634,2.2597973,1.7632,0,1.2993-1.0107,2.6176-2.2597973,2.9433-1.248.3267-2.2592026-.4643-2.2592026-1.7641Z" fill="#ccc" fill-rule="evenodd"/>
      <path d="M6.1210974,11.3574c0-1.3003,1.0137-2.6181,2.2601999-2.9438,1.2486-.3262,2.2607999.4634,2.2607999,1.7641,0,1.2989-1.0122,2.6167-2.2607999,2.9424-1.2465.3262-2.2601999-.4629-2.2601999-1.7627Z" fill="url(#New_Gradient_154)" fill-rule="evenodd" stroke="#4c4c4c" stroke-miterlimit="3.8637" stroke-width="1.172"/>
    </g>
  </g>
  <g mask="url(#mask-2)">
    <g>
      <path d="M7.6601974,7.4834c0-.6499.5068026-1.3096,1.1303-1.4727.626-.163,1.1314.232,1.1314.8819,0,.6504-.5054,1.311-1.1314,1.4736-.6234974.1621-1.1303-.2319-1.1303-.8828Z" fill="#b2b2b2" fill-rule="evenodd"/>
      <g mask="url(#mask-3)">
        <g>
          <path d="M7.4745974,7.2568c0-.6494.5073-1.3095,1.1323-1.4721.6231026-.1636,1.1285.2319,1.1285.8808,0,.6509-.5053973,1.3106-1.1285,1.4741-.625.1622-1.1323-.2324-1.1323-.8828Z" fill="url(#New_Gradient_152)" fill-rule="evenodd"/>
          <path d="M8.3905974,6.2285c.2793-.0732.5088.1045.5088.3965s-.2295.5894-.5088.6631c-.2827.0727-.5097-.1055-.5097-.3975,0-.2929.227-.5888.5097-.6621Z" fill="url(#New_Gradient_153)" stroke="#737373" stroke-miterlimit="3.8637" stroke-width=".3161"/>
          <path d="M7.4745974,7.2568c0-.6494.5073-1.3095,1.1323-1.4721.6231026-.1636,1.1285.2319,1.1285.8808,0,.6509-.5053973,1.3106-1.1285,1.4741-.625.1622-1.1323-.2324-1.1323-.8828Z" fill="none" fill-rule="evenodd" stroke="#4c4c4c" stroke-miterlimit="3.8637" stroke-width=".7032"/>
        </g>
      </g>
    </g>
  </g>
  <path d="M8.0722974,9.4268c.54-.1416.976.1997.976.7612s-.436,1.1308-.976,1.271c-.5391.1406-.9746-.2007-.9746-.7617,0-.5611.4355-1.1304.9746-1.2705Z" fill="url(#New_Gradient_151)" stroke="#737373" stroke-miterlimit="3.8637" stroke-width=".4215"/>
  <g mask="url(#mask-4)">
    <g>
      <path d="M6.502,6.627c.1566974-.0411.2831974.059.2831974.2207,0,.1621-.1265.3271-.2831974.3676-.1548026.0415-.2823026-.0576-.2823026-.2202,0-.1621.1275-.3281.2823026-.3681Z" fill="gray"/>
      <path d="M6.3632974,6.458c.1562-.04.2842.0586.2842.2202,0,.1631-.128.3277-.2842.3697-.1548.04-.2812974-.0596-.2812974-.2208,0-.164.1264974-.3271.2812974-.3691Z" fill="#4c4c4c"/>
    </g>
  </g>
  <g mask="url(#mask-5)">
    <g>
      <path d="M6.502,13.5801c.1566974-.041.2831974.0581.2831974.2202,0,.1616-.1265.3276-.2831974.3682-.1548026.041-.2823026-.0586-.2823026-.2207,0-.1626.1275-.3277.2823026-.3677Z" fill="gray"/>
      <path d="M6.3632974,13.4111c.1562-.041.2842.0586.2842.2207,0,.1636-.128.3272-.2842.3682-.1548.04-.2812974-.0576-.2812974-.2202s.1264974-.3286.2812974-.3687Z" fill="#4c4c4c"/>
    </g>
  </g>
  <g mask="url(#mask-6)">
    <g>
      <path d="M10.9213973,5.4121c.1567-.041.2837.0581.2837.2197,0,.1626-.127.3282-.2837.3697-.1548.039-.2808-.0591-.2808-.2217,0-.1631.126-.3267.2808-.3677Z" fill="gray"/>
      <path d="M10.7841973,5.2432c.1572-.0406.2822.0576.2822.2207,0,.1626-.125.3271-.2822.3672-.1553.0415-.2827-.0577-.2827-.2203,0-.1616.1274-.3261.2827-.3676Z" fill="#4c4c4c"/>
    </g>
  </g>
  <g mask="url(#mask-7)">
    <g>
      <path d="M10.9462973,12.3213c.1543-.0405.2798.0581.2798.2207,0,.1621-.1255.3271-.2798.3682-.1572.04-.2847-.0586-.2847-.2207,0-.1636.1275-.3282.2847-.3682Z" fill="gray"/>
      <path d="M10.8080973,12.1528c.1548-.0415.2813.0581.2813.2202,0,.1626-.1265.3277-.2813.3672-.1577.0411-.2837-.0571-.2837-.2207,0-.1621.126-.3261.2837-.3667Z" fill="#4c4c4c"/>
    </g>
  </g>
  <path d="M11.1854973,4.79c.4185027-.1103.8145027.1651.8145027.647v7.355c0,.4268-.3232027.8408-.7178027.9477l-4.7186999,1.2603c-.418.1113-.815-.166-.815-.6465v-7.3555c0-.4267.3228-.8408.7188-.9462l4.7181999-1.2618ZM11.2821973,5.04l-4.7186999,1.2608c-.3174.0849-.5723.4267-.5723.7422v7.3554c0,.2603.1817.4312.4761.3521l4.7181999-1.2603c.3169-.0859.5723-.4277.5723-.7422v-7.3554c0-.2608-.1811-.4326-.4756-.3526Z" fill="url(#New_Gradient_150)"/>
  <path d="M5.5575974,14.0811v-7.0489c0-.5703.3643-1.0322.7559-1.1655.3686-.1235,4.8837999-1.2759,4.8837999-1.2759.1015-.0249.165.1446.0625.1699,0,0-4.5058999,1.1495-4.8720999,1.2725-.3389.1152-.6641.5278-.6641,1.0298v7.0474c0,.1152-.166.0849-.166-.0293Z" fill="url(#New_Gradient_149)"/>
  <polygon points="3.502 10.0991 5.5634974 12.2837 5.5663974 14.0815 3.5029 12.0107 3.502 10.0991" fill="url(#New_Gradient_148)"/>
  <polygon points="8.9384973 2.3711 11.1244973 4.5918 10.1625973 4.8281 8.0248974 2.6147 8.9384973 2.3711" fill="url(#New_Gradient_147)"/>
</svg>