<?xml version='1.0' encoding='UTF-8'?>
<svg xmlns="http://www.w3.org/2000/svg" xmlns:xlink="http://www.w3.org/1999/xlink" id="Layer_7" data-name="Layer 7" width="16" height="16" viewBox="0 0 16 16">
  <defs>
    <linearGradient id="New_Gradient_320" data-name="New Gradient 320" x1="1.9501923" y1="10.9219041" x2="8.5119954" y2="10.9219041" gradientUnits="userSpaceOnUse">
      <stop offset="0" stop-color="#999"/>
      <stop offset=".20224" stop-color="#f2f2f2"/>
      <stop offset=".516861" stop-color="#b2b2b2"/>
      <stop offset=".769669" stop-color="#b2b2b2"/>
      <stop offset="1" stop-color="#737373"/>
    </linearGradient>
    <linearGradient id="New_Gradient_320-2" data-name="New Gradient 320" x1="1.9315923" y1="10.5285497" x2="6.7606921" y2="10.5285497" gradientUnits="userSpaceOnUse"><stop offset="0" stop-color="#999"/><stop offset=".20224" stop-color="#f2f2f2"/><stop offset=".516861" stop-color="#b2b2b2"/><stop offset=".769669" stop-color="#b2b2b2"/><stop offset="1" stop-color="#737373"/></linearGradient>
    <mask id="mask" x="1.7138923" y="7.7046" width="5.2831999" height="3.7817" maskUnits="userSpaceOnUse">
      <path d="M4.3554922,7.8008c1.3271,0,2.4051999.6885,2.4051999,1.5371,0,.8501-1.0781,1.5376-2.4051999,1.5376-1.3272,0-2.4052999-.6875-2.4052999-1.5376,0-.8486,1.0781-1.5371,2.4052999-1.5371Z" fill="#fff"/>
    </mask>
    <linearGradient id="New_Gradient_317" data-name="New Gradient 317" x1="1.9501923" y1="9.33815" x2="6.7606921" y2="9.33815" gradientUnits="userSpaceOnUse">
      <stop offset="0" stop-color="#999"/>
      <stop offset=".219101" stop-color="#b2b2b2"/>
      <stop offset=".466293" stop-color="#b2b2b2"/>
      <stop offset=".769669" stop-color="#f2f2f2"/>
      <stop offset="1" stop-color="#737373"/>
    </linearGradient>
    <mask id="mask-1" x="1.7138923" y="7.7617" width="5.2831999" height="3.7246" maskUnits="userSpaceOnUse">
      <ellipse cx="4.3554922" cy="9.624" rx="2.1630999" ry="1.3838" fill="#fff" stroke="#fff" stroke-miterlimit="3.8637" stroke-width=".957"/>
    </mask>
    <linearGradient id="New_Gradient_318" data-name="New Gradient 318" x1="2.1923923" y1="9.624" x2="6.5185922" y2="9.624" gradientUnits="userSpaceOnUse">
      <stop offset="0" stop-color="#5587c0"/>
      <stop offset=".20787" stop-color="#97bae0"/>
      <stop offset=".865173" stop-color="#b3e0ff"/>
      <stop offset="1" stop-color="#5587c0"/>
    </linearGradient>
    <radialGradient id="New_Gradient_319" data-name="New Gradient 319" cx="55.6116169" cy="38.75298" fx="55.6116169" fy="38.75298" r="4.3428972" gradientTransform="translate(-41.2584 -21.8487) scale(.7969)" gradientUnits="userSpaceOnUse">
      <stop offset="0" stop-color="#78dcff"/>
      <stop offset="1" stop-color="#b7e9ff"/>
    </radialGradient>
    <linearGradient id="linear-gradient" x1="2.8516363" y1="7.8359894" x2="5.7217757" y2="10.7061287" gradientUnits="userSpaceOnUse">
      <stop offset="0" stop-color="gray"/>
      <stop offset=".187809" stop-color="#82868b"/>
      <stop offset=".5233754" stop-color="#8a99aa"/>
      <stop offset=".9651405" stop-color="#95b7db"/>
      <stop offset="1" stop-color="#97bae0"/>
    </linearGradient>
    <linearGradient id="New_Gradient_316" data-name="New Gradient 316" x1="2.9200111" y1="7.9030689" x2="5.7907017" y2="10.7737595" gradientUnits="userSpaceOnUse">
      <stop offset="0" stop-color="gray"/>
      <stop offset="1" stop-color="#fff"/>
    </linearGradient>
    <mask id="mask-2" x="2.1923923" y="8.5537364" width="4.3261999" height="2.9257636" maskUnits="userSpaceOnUse">
      <path d="M3.6425922,8.5625c.4082-.0498.7646.1177.7959.374.0322.2559-.2734922.5049-.6807.5542-.4072.0489-.7637-.1186-.7949-.374-.0322-.2573.2715-.5054.6797-.5542Z" fill="#fff"/>
    </mask>
    <linearGradient id="New_Gradient_315" data-name="New Gradient 315" x1="6.9468706" y1="10.8976886" x2="5.3415293" y2="12.5030298" gradientUnits="userSpaceOnUse">
      <stop offset="0" stop-color="#4c4c4c"/>
      <stop offset=".623596" stop-color="#d9d9d9"/>
      <stop offset="1" stop-color="#4c4c4c"/>
    </linearGradient>
    <mask id="mask-3" x="5.4169922" y="11.1054" width="3.3261499" height="3.16555" maskUnits="userSpaceOnUse">
      <path d="M7.1063921,11.6284l1.1788,1.1655c.6884.6827-.3457,1.7066-1.0351921,1.024l-1.1777078-1.1656c-.6895-.6831.3447078-1.706,1.0341-1.0239Z" fill="#fff"/>
    </mask>
    <linearGradient id="New_Gradient_312" data-name="New Gradient 312" x1="8.2859677" y1="11.6154575" x2="6.0709946" y2="13.8304307" gradientUnits="userSpaceOnUse">
      <stop offset="0" stop-color="#a70000"/>
      <stop offset=".662918" stop-color="#df4e15"/>
      <stop offset="1" stop-color="#740000"/>
    </linearGradient>
    <linearGradient id="New_Gradient_314" data-name="New Gradient 314" x1="7.3982647" y1="12.7051964" x2="8.1601079" y2="13.9244003" gradientUnits="userSpaceOnUse">
      <stop offset="0" stop-color="#df4e15"/>
      <stop offset="1" stop-color="#c42e00"/>
    </linearGradient>
    <linearGradient id="New_Gradient_313" data-name="New Gradient 313" x1="7.3982647" y1="12.7051964" x2="8.1601079" y2="13.9244003" gradientUnits="userSpaceOnUse">
      <stop offset="0" stop-color="#df4e15"/>
      <stop offset="1" stop-color="#c42e00"/>
    </linearGradient>
    <radialGradient id="radial-gradient" cx="1215.3459553" cy="-10.8294554" fx="1215.3459553" fy="-10.8294554" r="12.4455682" gradientTransform="translate(676.8662 1.0731) rotate(179.218316) scale(.5497512 -.6808536) skewX(-.6890828)" gradientUnits="userSpaceOnUse">
      <stop offset="0" stop-color="#fff"/>
      <stop offset=".505618" stop-color="#e5f2ff"/>
      <stop offset=".5429599" stop-color="#d8e8f9"/>
      <stop offset=".611775" stop-color="#b6cfea"/>
      <stop offset=".7036898" stop-color="#80a7d2"/>
      <stop offset=".769663" stop-color="#5587c0"/>
    </radialGradient>
    <radialGradient id="radial-gradient-2" cx="1244.473568" cy="-83.4429637" fx="1244.473568" fy="-83.4429637" r="13.5566254" gradientTransform="translate(699.9907 .4672) rotate(175.0750428) scale(.5486255 -.6822047) skewX(-3.3851758)" gradientUnits="userSpaceOnUse">
      <stop offset=".55618" stop-color="#fff"/>
      <stop offset=".6126591" stop-color="#f9fbfd"/>
      <stop offset=".6825068" stop-color="#eaf0f7"/>
      <stop offset=".7594197" stop-color="#d1deee"/>
      <stop offset=".8414115" stop-color="#aec5e1"/>
      <stop offset=".9264778" stop-color="#81a6d0"/>
      <stop offset="1" stop-color="#5587c0"/>
    </radialGradient>
    <radialGradient id="New_Gradient_Swatch_2" data-name="New Gradient Swatch 2" cx="-91.2240921" cy="37.2269982" fx="-91.2240921" fy="37.2269982" r="4.4639535" gradientTransform="translate(63.2248 -24.2614) scale(.684)" gradientUnits="userSpaceOnUse">
      <stop offset="0" stop-color="#fff"/>
      <stop offset="1" stop-color="#000"/>
    </radialGradient>
    <radialGradient id="New_Gradient_Swatch_2-2" data-name="New Gradient Swatch 2" cy="39.8826834" fy="39.8826834" r="4.4645534" cx="-91.2240921" fx="-91.2240921" gradientTransform="translate(63.2248 -24.2614) scale(.684)" gradientUnits="userSpaceOnUse"><stop offset="0" stop-color="#fff"/><stop offset="1" stop-color="#000"/></radialGradient>
    <radialGradient id="New_Gradient_Swatch_2-3" data-name="New Gradient Swatch 2" cy="42.5397475" fy="42.5397475" r="4.4639535" cx="-91.2240921" fx="-91.2240921" gradientTransform="translate(63.2248 -24.2614) scale(.684)" gradientUnits="userSpaceOnUse"><stop offset="0" stop-color="#fff"/><stop offset="1" stop-color="#000"/></radialGradient>
    <radialGradient id="New_Gradient_Swatch_2-4" data-name="New Gradient Swatch 2" cx="-86.5796808" cy="38.3900786" fx="-86.5796808" fy="38.3900786" r="2.2346095" gradientTransform="translate(63.2248 -24.2614) scale(.684)" gradientUnits="userSpaceOnUse"><stop offset="0" stop-color="#fff"/><stop offset="1" stop-color="#000"/></radialGradient>
    <radialGradient id="New_Gradient_Swatch_2-5" data-name="New Gradient Swatch 2" cx="-87.9070843" cy="39.8826834" fx="-87.9070843" fy="39.8826834" r="4.4681423" gradientTransform="translate(63.2248 -24.2614) scale(.684)" gradientUnits="userSpaceOnUse"><stop offset="0" stop-color="#fff"/><stop offset="1" stop-color="#000"/></radialGradient>
    <radialGradient id="New_Gradient_Swatch_2-6" data-name="New Gradient Swatch 2" cx="-86.5796808" cy="43.6999717" fx="-86.5796808" fy="43.6999717" r="2.2367054" gradientTransform="translate(63.2248 -24.2614) scale(.684)" gradientUnits="userSpaceOnUse"><stop offset="0" stop-color="#fff"/><stop offset="1" stop-color="#000"/></radialGradient>
    <radialGradient id="New_Gradient_116" data-name="New Gradient 116" cx="9.3145238" cy="-12.3019108" fx="9.3145238" fy="-12.3019108" r="5.5362995" gradientTransform="translate(.1381811 24.7107) scale(.9103 1.1543)" gradientUnits="userSpaceOnUse">
      <stop offset="0" stop-color="#b7e9ff"/>
      <stop offset=".69101" stop-color="#3c97f6"/>
      <stop offset="1" stop-color="#0342d3"/>
    </radialGradient>
    <linearGradient id="linear-gradient-2" x1="12.5226068" y1="10.2518345" x2="10.1086334" y2="8.7431" gradientUnits="userSpaceOnUse">
      <stop offset=".005618" stop-color="#c40000"/>
      <stop offset="1" stop-color="#fc6"/>
    </linearGradient>
    <linearGradient id="New_Gradient_113" data-name="New Gradient 113" x1="9.8647539" y1="10.4798537" x2="8.3607469" y2="8.6750469" gradientUnits="userSpaceOnUse">
      <stop offset="0" stop-color="#c96b00"/>
      <stop offset=".179779" stop-color="#ecb300"/>
      <stop offset=".460678" stop-color="#ffffb3"/>
      <stop offset=".80899" stop-color="#ecb300"/>
      <stop offset="1" stop-color="#c96b00"/>
    </linearGradient>
  </defs>
  <g>
    <path d="M6.2157922,11.1563l.2608.2573c.206-.0357.4326.0195.6298.2148l1.1788,1.1655c.6884.6827-.3457,1.7066-1.0351921,1.024l-1.1777078-1.1656c-.1982922-.1962-.2539-.4204-.2159-.624l-.4648-.459c-.3135.0967-.666.1499-1.0361.1499-1.3272,0-2.4052999-.6879-2.4052999-1.5376v-.8437c0-.8486,1.0781-1.5371,2.4052999-1.5371,1.3271,0,2.4051999.6885,2.4051999,1.5371v.8437c0,.3697-.206.71-.5449.9747Z" fill="url(#New_Gradient_320)" stroke="#000" stroke-miterlimit="3.8637" stroke-width="1.9141"/>
    <path d="M1.9501923,10.1816c0-.6152-.0186-.8237-.0186-.8237l4.8290999-.02s0-.0049,0,.8437c0,.8497-1.0781,1.5376-2.4051999,1.5376-1.3272,0-2.4052999-.6879-2.4052999-1.5376Z" fill="url(#New_Gradient_320-2)" fill-rule="evenodd"/>
    <g mask="url(#mask)">
      <g>
        <path d="M4.3554922,7.8008c1.3271,0,2.4051999.6885,2.4051999,1.5371,0,.8501-1.0781,1.5376-2.4051999,1.5376-1.3272,0-2.4052999-.6875-2.4052999-1.5376,0-.8486,1.0781-1.5371,2.4052999-1.5371Z" fill="url(#New_Gradient_317)"/>
        <g mask="url(#mask-1)">
          <g>
            <ellipse cx="4.3554922" cy="9.624" rx="2.1630999" ry="1.3838" fill="url(#New_Gradient_318)"/>
            <path d="M4.3554922,8.7119c1.1933,0,2.1630999.6192,2.1630999,1.3833,0,.7647-.9698,1.3843-2.1630999,1.3843-1.1953,0-2.1630999-.6196-2.1630999-1.3838,0-.7646.9678-1.3838,2.1630999-1.3838Z" fill="url(#New_Gradient_319)"/>
            <ellipse cx="4.3554922" cy="9.624" rx="2.1630999" ry="1.3838" fill="none" stroke="#69c" stroke-miterlimit="3.8637" stroke-width=".957"/>
          </g>
        </g>
        <path d="M4.2860922,7.7046c1.2862,0,2.4003999.6694,2.4003999,1.5669,0,.8965-1.1142,1.5654-2.4003999,1.5654-1.2840922,0-2.3993999-.6689-2.3993999-1.5654,0-.8975,1.1153077-1.5669,2.3993999-1.5669ZM4.2860922,7.8857c-1.2636,0-2.2167999.6524-2.2167999,1.3858,0,.7329.9532,1.3843,2.2167999,1.3843,1.2637,0,2.2177999-.6514,2.2177999-1.3843,0-.7334-.9541-1.3858-2.2177999-1.3858Z" fill="url(#linear-gradient)"/>
      </g>
    </g>
    <path d="M4.3554922,7.7725c1.2851,0,2.4003999.6689,2.4003999,1.5654,0,.8975-1.1153,1.5674-2.4003999,1.5674-1.2862,0-2.4003999-.6699-2.4003999-1.5674,0-.8965,1.1142-1.5654,2.4003999-1.5654ZM4.3554922,7.9531c-1.2647,0-2.2167999.6519-2.2167999,1.3848,0,.7334.9521,1.3857,2.2167999,1.3857,1.2636,0,2.2176999-.6523,2.2176999-1.3857,0-.7329-.9541-1.3848-2.2176999-1.3848Z" fill="url(#New_Gradient_316)"/>
    <g mask="url(#mask-2)">
      <g>
        <path d="M3.6425922,8.5625c.4082-.0498.7646.1177.7959.374.0322.2559-.2734922.5049-.6807.5542-.4072.0489-.7637-.1186-.7949-.374-.0322-.2573.2715-.5054.6797-.5542Z" fill="#b3e0ff"/>
        <path d="M4.3554922,8.7119c1.1933,0,2.1630999.6192,2.1630999,1.3833,0,.7647-.9698,1.3843-2.1630999,1.3843-1.1953,0-2.1630999-.6196-2.1630999-1.3838,0-.7646.9678-1.3838,2.1630999-1.3838Z" fill="#fff"/>
      </g>
    </g>
    <path d="M5.9657922,10.9087l.9785.9692c.4141.4097-.207,1.0244-.6201.6143l-.9804-.9697c-.4141-.4092.206-1.023.622-.6138Z" fill="url(#New_Gradient_315)"/>
    <g mask="url(#mask-3)">
      <g>
        <path d="M7.1063921,11.6284l1.1788,1.1655c.6884.6827-.3457,1.7066-1.0351921,1.024l-1.1777078-1.1656c-.6895-.6831.3447078-1.706,1.0341-1.0239Z" fill="url(#New_Gradient_312)"/>
        <path d="M7.7782921,12.5981c.4004,0,.7256.3213.7256.7168s-.3252.7168-.7256.7168c-.3984,0-.7236-.3213-.7236-.7168s.3252-.7168.7236-.7168Z" fill="url(#New_Gradient_314)" stroke="#a70000" stroke-miterlimit="3.8637" stroke-width=".4785"/>
        <path d="M7.7782921,12.5981c.4004,0,.7256.3213.7256.7168s-.3252.7168-.7256.7168c-.3984,0-.7236-.3213-.7236-.7168s.3252-.7168.7236-.7168Z" fill="url(#New_Gradient_313)"/>
        <line x1="6.1347922" y1="11.8232" x2="7.0780921" y2="12.7593" fill="none" stroke="#ff7845" stroke-linecap="round" stroke-miterlimit="3.8637" stroke-width="1.4356"/>
      </g>
    </g>
  </g>
  <g>
    <path d="M8.3671921,1.9741c2.0673999-.2451,6.6748079.2471,5.5048999,3.2598-.2344.6006-1.0928,2.9267-2.3407999,3.1831.468708-.3482.746-1.2217.6845-1.5825-.8291.1811-3.6268999.0342-4.5682999-.8457-.9317-.8701-1.8301-3.7769.7197-4.0147" fill="#ccc" stroke="#000" stroke-linecap="round" stroke-linejoin="round" stroke-width="1.8735"/>
    <path d="M8.3671921,1.9741c2.0673999-.2451,6.6748079.2471,5.5048999,3.2598-.2344.6006-1.0928,2.9267-2.3407999,3.1831.468708-.3482.746-1.2217.6845-1.5825-.8291.1811-3.6268999.0342-4.5682999-.8457-.9317-.8701-1.8301-3.7769.7197-4.0147" fill="url(#radial-gradient)"/>
    <path d="M12.492192,6.853c-.0098-.103-.0205-.206-.033192-.3086.390592-.437.796892-.9043.943292-1.4882.2344-.9444-.289-1.939-1.1425-2.0997-1.419-.267-4.9784999-.9838-5.3564999,1.1495-.0488-.7608.4131-1.5118,1.2061-1.6563,1.3779-.2529,2.7977999-.1401,4.1806079.1309,1.106492.2173,1.781292,1.4145,1.465892,2.5356-.1495.5254-.4317.9507-.8584,1.2817.0136.4375-.187492.7852-.4454,1.1358-.0097-.23.004-.4566.0401-.6807" fill="url(#radial-gradient-2)"/>
    <path d="M9.9218921,5.7471c-.0733-.5733.7861079-.459.8017.0888.0127.524-.7314.4595-.8017-.0888M10.4833921,5.0171c-.1543.2026-.2803-.0996-.3135-.2217-.0547-.1953-.1191-.3921-.1748-.5923-.1084-.3989-.5019-1.4009.1553-1.5952.2441-.0732.6191-.0083.8203.1763.2471.2256.2236.5483.1807.791-.0957.5259-.333,1.0488-.668,1.4419" fill="#2d4866"/>
  </g>
  <g>
    <path d="M3.3231922,2.5107c0,.3721-.3037.6739-.6796.6739-.376,0-.6817-.3018-.6817-.6739,0-.3725.3057-.6743.6817-.6743.3759,0,.6796.3018.6796.6743Z" fill="url(#New_Gradient_Swatch_2)"/>
    <path d="M3.3231922,4.3081c0,.3726-.3037.6748-.6796.6748-.376,0-.6817-.3022-.6817-.6748,0-.3716.3057-.6738.6817-.6738.3759,0,.6796.3022.6796.6738Z" fill="url(#New_Gradient_Swatch_2-2)"/>
    <path d="M3.3231922,6.1064c0,.3726-.3037.6744-.6796.6744-.376,0-.6817-.3018-.6817-.6744,0-.3725.3057-.6738.6817-.6738.3759,0,.6796.3013.6796.6738Z" fill="url(#New_Gradient_Swatch_2-3)"/>
    <path d="M5.2558922,2.5107c0,.1856-.1534.3365-.3418.3365-.1885,0-.3409-.1509-.3409-.3365,0-.186.1524-.3369.3409-.3369.1884,0,.3418.1509.3418.3369Z" fill="url(#New_Gradient_Swatch_2-4)"/>
    <path d="M5.5956922,4.3081c0,.3726-.3046922.6748-.6816.6748-.376,0-.6817-.3022-.6817-.6748,0-.3716.3057-.6738.6817-.6738.3769078,0,.6816.3022.6816.6738Z" fill="url(#New_Gradient_Swatch_2-5)"/>
    <path d="M5.2558922,6.1064c0,.1856-.1534.3374-.3418.3374-.1885,0-.3409-.1518-.3409-.3374,0-.186.1524-.3374.3409-.3374.1884,0,.3418.1514.3418.3374Z" fill="url(#New_Gradient_Swatch_2-6)"/>
  </g>
  <g>
    <g>
      <rect x="8.6171921" y="10.8481" width="4.8368999" height="1.1499" fill="none" stroke="#000" stroke-linecap="round" stroke-linejoin="round" stroke-width="2"/>
      <rect x="10.4306921" y="9.314" width="3.0233999" height="1.1504" fill="none" stroke="#000" stroke-linecap="round" stroke-linejoin="round" stroke-width="2"/>
      <rect x="8.6171921" y="9.314" width="1.5107" height="1.1504" fill="none" stroke="#000" stroke-linecap="round" stroke-linejoin="round" stroke-width="2"/>
    </g>
    <g>
      <rect x="8.6171921" y="10.8481" width="4.8368999" height="1.1499" fill="url(#New_Gradient_116)"/>
      <rect x="10.4306921" y="9.314" width="3.0233999" height="1.1504" fill="url(#linear-gradient-2)"/>
      <rect x="8.6171921" y="9.314" width="1.5107" height="1.1504" fill="url(#New_Gradient_113)"/>
    </g>
  </g>
</svg>