<?xml version='1.0' encoding='UTF-8'?>
<svg xmlns="http://www.w3.org/2000/svg" xmlns:xlink="http://www.w3.org/1999/xlink" id="Set_1" data-name="Set 1" width="32" height="32" viewBox="0 0 32 32">
  <defs>
    <mask id="mask" x="6.7355893" y="2.72193" width="23.2374107" height="27.37187" maskUnits="userSpaceOnUse">
      <path d="M22.8116889,29.0924l-15.0733996.0014-.0027-25.37187,21.2374107.00133-.009,19.74144c0,2.6807-3.2904112,5.6277-6.1523111,5.6277Z" fill="#fff" fill-rule="evenodd" stroke="#fff" stroke-linecap="round" stroke-linejoin="round" stroke-width="2"/>
    </mask>
    <linearGradient id="New_Gradient_11" data-name="New Gradient 11" x1="11.3162078" y1="1.9755457" x2="25.3491876" y2="30.7474181" gradientUnits="userSpaceOnUse">
      <stop offset="0" stop-color="#e5e5e5"/>
      <stop offset="1" stop-color="#fff"/>
    </linearGradient>
    <radialGradient id="New_Gradient_13" data-name="New Gradient 13" cx="-14.6205867" cy="31.3519917" fx="-14.6205867" fy="31.3519917" r="6.9866334" gradientTransform="translate(36.9078 -6.9292114) scale(1.0313 .9421)" gradientUnits="userSpaceOnUse">
      <stop offset="0" stop-color="#fff"/>
      <stop offset="1" stop-color="#ccc"/>
    </radialGradient>
    <mask id="mask-1" x="7.7355893" y="3.72193" width="21.2712995" height="25.46697" maskUnits="userSpaceOnUse">
      <path d="M22.8116889,29.0924l-15.0733996.0014-.0027-25.37187,21.2374107.00133-.009,19.74144c0,2.6807-3.2904112,5.6277-6.1523111,5.6277Z" fill="#fff" fill-rule="evenodd"/>
    </mask>
    <linearGradient id="New_Gradient_3" data-name="New Gradient 3" x1="11.3162078" y1="1.9755457" x2="25.3491876" y2="30.7474181" gradientUnits="userSpaceOnUse">
      <stop offset="0" stop-color="#e5e5e5"/>
      <stop offset=".286514" stop-color="#f2f2f2"/>
      <stop offset=".646072" stop-color="#fff"/>
      <stop offset="1" stop-color="#fff"/>
    </linearGradient>
    <radialGradient id="New_Gradient_7" data-name="New Gradient 7" cx="-14.6205867" cy="31.3519917" fx="-14.6205867" fy="31.3519917" r="6.9866334" gradientTransform="translate(36.9078 -6.9292114) scale(1.0313 .9421)" gradientUnits="userSpaceOnUse">
      <stop offset="0" stop-color="#e5e5e5"/>
      <stop offset=".331467" stop-color="#e5e5e5"/>
      <stop offset="1" stop-color="#999"/>
    </radialGradient>
    <linearGradient id="linear-gradient" x1="9.5047467" y1="3.7608712" x2="17.0046925" y2="32.5583455" gradientUnits="userSpaceOnUse">
      <stop offset="0" stop-color="#fff"/>
      <stop offset="1" stop-color="#a9c3dc"/>
    </linearGradient>
    <mask id="mask-2" x="-.360079" y="9.18112" width="28.0949995" height="21.6408029" maskUnits="userSpaceOnUse">
      <rect x="2.3298894" y="9.18112" width="21.3415995" height="16.00618" fill="#fff"/>
    </mask>
    <linearGradient id="linear-gradient-2" x1="14.3548105" y1="12.2190922" x2="10.3533931" y2="26.8909747" gradientUnits="userSpaceOnUse">
      <stop offset="0" stop-color="#b7e9ff"/>
      <stop offset="1" stop-color="#555b91"/>
    </linearGradient>
    <linearGradient id="linear-gradient-3" x1="17.4420621" y1="11.0837297" x2="19.3600366" y2="18.448159" gradientUnits="userSpaceOnUse">
      <stop offset="0" stop-color="#ffe900"/>
      <stop offset="1" stop-color="#c40000"/>
    </linearGradient>
    <linearGradient id="linear-gradient-4" x1="43.2261538" y1="16.7293297" x2="47.9802715" y2="34.9836729" gradientTransform="translate(-36.3657) skewX(7.716581)" gradientUnits="userSpaceOnUse"><stop offset="0" stop-color="#fff"/><stop offset="1" stop-color="#a9c3dc"/></linearGradient>
    <radialGradient id="radial-gradient" cx="19.5032538" cy="12.9690534" fx="19.5032538" fy="12.9690534" r="19.0415147" gradientUnits="userSpaceOnUse">
      <stop offset=".134831" stop-color="#86e099"/>
      <stop offset=".882022" stop-color="#005e00"/>
    </radialGradient>
  </defs>
  <g>
    <g>
      <g mask="url(#mask)">
        <g>
          <path d="M22.8116889,29.0924l-15.0733996.0014-.0027-25.37187,21.2374107.00133-.009,19.74144c0,2.6807-3.2904112,5.6277-6.1523111,5.6277Z" fill="url(#New_Gradient_11)" fill-rule="evenodd"/>
          <path d="M21.8295889,29.1875s3.5221999-.1231,3.5221999-3.6909c3.6250999.0007,3.6550999-2.8891,3.6550999-2.8891l-.0013,6.5814-7.1759998-.0014Z" fill="url(#New_Gradient_13)" fill-rule="evenodd"/>
          <path d="M22.8116889,29.0924l-15.0733996.0014-.0027-25.37187,21.2374107.00133-.009,19.74144c0,2.6807-3.2904112,5.6277-6.1523111,5.6277Z" fill="none" fill-rule="evenodd" stroke="#000" stroke-linecap="round" stroke-linejoin="round" stroke-width="2"/>
        </g>
      </g>
      <g mask="url(#mask-1)">
        <g>
          <path d="M22.8116889,29.0924l-15.0733996.0014-.0027-25.37187,21.2374107.00133-.009,19.74144c0,2.6807-3.2904112,5.6277-6.1523111,5.6277Z" fill="url(#New_Gradient_3)" fill-rule="evenodd"/>
          <path d="M21.8295889,29.1875s2.4488999-.898,2.4488999-4.4678c3.6249999-.0007,4.7283999-2.1122,4.7283999-2.1122l-.0013,6.5814-7.1759998-.0014Z" fill="url(#New_Gradient_7)" fill-rule="evenodd"/>
        </g>
      </g>
    </g>
    <g>
      <line x1="10.5335892" y1="12.8309" x2="15.3035891" y2="12.8309" fill="none" stroke="#999" stroke-linecap="round" stroke-miterlimit="3.8637" stroke-width=".7125"/>
      <line x1="21.5455889" y1="8.82938" x2="26.3156888" y2="8.82938" fill="none" stroke="#999" stroke-linecap="round" stroke-miterlimit="3.8637" stroke-width=".7125"/>
      <line x1="18.057289" y1="12.8309" x2="26.3156888" y2="12.8309" fill="none" stroke="#999" stroke-linecap="round" stroke-miterlimit="3.8637" stroke-width=".7125"/>
      <line x1="10.333" y1="24.8356" x2="22.1864889" y2="24.8356" fill="none" stroke="#999" stroke-linecap="round" stroke-miterlimit="3.8637" stroke-width=".7125"/>
      <line x1="10.5335892" y1="16.8325" x2="14.3865891" y2="16.8325" fill="none" stroke="#999" stroke-linecap="round" stroke-miterlimit="3.8637" stroke-width=".7125"/>
      <line x1="16.6517891" y1="16.8325" x2="20.503589" y2="16.8325" fill="none" stroke="#999" stroke-linecap="round" stroke-miterlimit="3.8637" stroke-width=".7125"/>
      <line x1="22.0328889" y1="16.8325" x2="26.3156888" y2="16.8325" fill="none" stroke="#999" stroke-linecap="round" stroke-miterlimit="3.8637" stroke-width=".7125"/>
      <line x1="10.5335892" y1="8.82938" x2="18.057289" y2="8.82938" fill="none" stroke="#999" stroke-linecap="round" stroke-miterlimit="3.8637" stroke-width=".7125"/>
      <line x1="10.5335892" y1="20.834" x2="16.8328891" y2="20.834" fill="none" stroke="#999" stroke-linecap="round" stroke-miterlimit="3.8637" stroke-width=".7125"/>
      <line x1="18.591389" y1="20.834" x2="26.6204888" y2="20.834" fill="none" stroke="#999" stroke-linecap="round" stroke-miterlimit="3.8637" stroke-width=".7125"/>
    </g>
  </g>
  <rect x="2.3298894" y="9.18112" width="21.3415995" height="16.00618" fill="url(#linear-gradient)" stroke="#333" stroke-width="2"/>
  <g mask="url(#mask-2)">
    <g>
      <rect x="2.3298894" y="9.18112" width="21.3415995" height="16.00618" fill="url(#linear-gradient-2)"/>
      <g>
        <circle cx="18.336089" cy="14.5165" r="2.6677" fill="#c40000" stroke="#740000" stroke-width=".75"/>
        <circle cx="18.336089" cy="14.5165" r="2.6677" fill="url(#linear-gradient-3)"/>
      </g>
      <g>
        <path d="M5.5445894,21.4971c1.3991-.0111,2.0764106-1.0011,2.7354999-1.5534.7242-.6096,2.4735999-.7307,2.8656999-1.4256,2.2612999,2.0256,5.8042999,2.2574,7.4702998,4.3851,1.1476.3583,1.2102-.6832,1.937-.7326.6773-.045,1.2844.5919,1.966911,1.0035.7190889.4345,1.5734889.7015,2.2625889,1.4909.9548,1.0961,1.2257,2.9262,1.5566,3.9208-1.8666-.0365-3.2434999,1.2687-5.6688999,1.2355-1.0916-.015-2.5686999-.4175-3.858289-.4962-1.154-.0718-2.1648109.218-3.3919108.2273-1.1853-.157-2.4305999-.3068-3.7410892-.4593-2.1323107-.2409-4.4157106-.4012-6.8724106-.4735-1.0329-.2624-1.0955-.1478-1.9461-.5405.5262-1.6537-1.2843-7.529,2.4371999-6.8068" fill="url(#linear-gradient-4)" stroke="#333" stroke-width="2"/>
        <path d="M5.5445894,21.4971c1.3991-.0111,2.0764106-1.0011,2.7354999-1.5534.7242-.6096,2.4735999-.7307,2.8656999-1.4256,2.2612999,2.0256,5.8042999,2.2574,7.4702998,4.3851,1.1476.3583,1.2102-.6832,1.937-.7326.6773-.045,1.2844.5919,1.966911,1.0035.7190889.4345,1.5734889.7015,2.2625889,1.4909.9548,1.0961,1.2257,2.9262,1.5566,3.9208-1.8666-.0365-3.2434999,1.2687-5.6688999,1.2355-1.0916-.015-2.5686999-.4175-3.858289-.4962-1.154-.0718-2.1648109.218-3.3919108.2273-1.1853-.157-2.4305999-.3068-3.7410892-.4593-2.1323107-.2409-4.4157106-.4012-6.8724106-.4735-1.0329-.2624-1.0955-.1478-1.9461-.5405.5262-1.6537-1.2843-7.529,2.4371999-6.8068" fill="url(#radial-gradient)"/>
      </g>
    </g>
  </g>
</svg>