<?xml version="1.0" encoding="UTF-8"?>
<svg id="Icons_-_24x24" data-name="Icons - 24x24" xmlns="http://www.w3.org/2000/svg" width="32" height="32" viewBox="0 0 32 32">
  <path d="M10.5361328,9.3945312c1.1035156-.2177734,2.6308594-.3344727,4.5810547-.3500977,2.0556641-.0234375,3.59375.2773438,4.6142578.9023438.5761719.2890625,1.0273438.7070312,1.3535156,1.2539062.3408203.5390625.5117188,1.1875.5117188,1.9453125,0,.703125-.2070312,1.359375-.6210938,1.96875-.4375.6015625-1.109375,1.0898438-2.015625,1.4648438v.046875c.9609375.234375,1.734375.6875,2.3203125,1.359375.5566406.671875.8427734,1.546875.8574219,2.625-.0302734,1.484375-.5703125,2.625-1.6201172,3.421875-1.0722656.9609375-3.1230469,1.4492188-6.1523438,1.4648438-1.7441406-.015625-3.0205078-.0932617-3.8291016-.2333984v-15.8696289ZM14.0498047,15.5844727h1.1630859c1.8828125-.0390625,2.8320312-.7075195,2.8466797-2.0053711-.0146484-1.2421875-.8505859-1.871582-2.5078125-1.887207-.7529297,0-1.2539062.0390625-1.5019531.1176758v3.7749023ZM14.0498047,22.7563477c.3251953.0625.7822266.0864258,1.3710938.0703125.8378906,0,1.5517578-.184082,2.1416016-.5522461.5664062-.3681641.8574219-.9716797.8720703-1.8100586-.0146484-.8149414-.3134766-1.4067383-.8955078-1.7749023-.6035156-.3369141-1.3632812-.5053711-2.2773438-.5053711h-1.2119141v4.5722656Z"/>
</svg>