<?xml version="1.0" encoding="UTF-8"?>
<svg id="Set_5" data-name="Set 5" xmlns="http://www.w3.org/2000/svg" width="32" height="32" viewBox="0 0 32 32">
  <g>
    <g>
      <rect x="23.6879" y="28.0289" width="1.3338" height="1.3338"/>
      <rect x="18.3525" y="28.0289" width="1.3338" height="1.3338"/>
      <rect x="13.0171" y="28.0289" width="1.3338" height="1.3338"/>
      <rect x="7.6817" y="28.0289" width="1.3338" height="1.3338"/>
      <rect x="2.3463" y="6.6873" width="1.3338" height="1.3338"/>
      <rect x="2.3463" y="12.0227" width="1.3338" height="1.3338"/>
      <rect x="2.3463" y="17.3581" width="1.3338" height="1.3338"/>
      <rect x="2.3463" y="22.6935" width="1.3338" height="1.3338"/>
      <rect x="2.3463" y="28.0289" width="1.3338" height="1.3338"/>
    </g>
    <rect x="3.6801" y="4.0196" width="1.3339" height="24.0093"/>
    <rect x="3.6801" y="26.695" width="24.0093" height="1.3339"/>
  </g>
  <g>
    <g>
      <rect x="23.6879" y="28.0289" width="1.3338" height="1.3338"/>
      <rect x="18.3525" y="28.0289" width="1.3338" height="1.3338"/>
      <rect x="13.0171" y="28.0289" width="1.3338" height="1.3338"/>
      <rect x="7.6817" y="28.0289" width="1.3338" height="1.3338"/>
      <rect x="2.3463" y="6.6873" width="1.3338" height="1.3338"/>
      <rect x="2.3463" y="12.0227" width="1.3338" height="1.3338"/>
      <rect x="2.3463" y="17.3581" width="1.3338" height="1.3338"/>
      <rect x="2.3463" y="22.6935" width="1.3338" height="1.3338"/>
      <rect x="2.3463" y="28.0289" width="1.3338" height="1.3338"/>
    </g>
    <rect x="3.6801" y="4.0196" width="1.3339" height="24.0093"/>
    <rect x="3.6801" y="26.695" width="24.0093" height="1.3339"/>
  </g>
</svg>