<?xml version='1.0' encoding='UTF-8'?>
<svg xmlns="http://www.w3.org/2000/svg" xmlns:xlink="http://www.w3.org/1999/xlink" id="Set_1" data-name="Set 1" width="32" height="32" viewBox="0 0 32 32">
  <defs>
    <linearGradient id="linear-gradient" x1="12.9622884" y1="9.4635" x2="26.328088" y2="9.4635" gradientUnits="userSpaceOnUse">
      <stop offset="0" stop-color="#c9ffc9"/>
      <stop offset=".55618" stop-color="#00cd00"/>
      <stop offset="1" stop-color="#23a11f"/>
    </linearGradient>
    <radialGradient id="radial-gradient" cx="6.10274" cy="13.0644077" fx="6.10274" fy="13.0644077" r="8.822657" gradientUnits="userSpaceOnUse">
      <stop offset="0" stop-color="#fff"/>
      <stop offset=".0998635" stop-color="#fdfeff"/>
      <stop offset=".1358351" stop-color="#f6fcff"/>
      <stop offset=".1614737" stop-color="#eaf8ff"/>
      <stop offset=".1821949" stop-color="#d9f3ff"/>
      <stop offset=".1997497" stop-color="#c3ecff"/>
      <stop offset=".207865" stop-color="#b7e9ff"/>
      <stop offset=".426966" stop-color="#3c97f6"/>
      <stop offset=".865173" stop-color="#032c87"/>
      <stop offset="1" stop-color="#0342d3"/>
    </radialGradient>
    <mask id="mask" x="9.6086221" y="11.9193105" width="19.5764546" height="16.4248953" maskUnits="userSpaceOnUse">
      <path d="M12.0244884,26.5428c-2.1532999.0025-3.0311999-1.4009-1.9579-3.1177l6.3787998-10.2163c1.0733-1.7168,2.8343999-1.7201,3.9129999-.0052l6.4113998,10.2019c1.073212,1.7142.1927,3.1177-1.9553,3.1216l-12.7899997.0157Z" fill="#fff"/>
    </mask>
    <linearGradient id="linear-gradient-2" x1="9.6086221" y1="19.2310569" x2="27.2272966" y2="19.2310569" gradientUnits="userSpaceOnUse">
      <stop offset="0" stop-color="#f3403f"/>
      <stop offset=".3789338" stop-color="#d02a27"/>
      <stop offset=".7765172" stop-color="#b11713"/>
      <stop offset="1" stop-color="#a6100c"/>
    </linearGradient>
    <radialGradient id="radial-gradient-2" cx="18.4179593" cy="19.2310569" fx="18.4179593" fy="19.2310569" r="8.0952473" gradientUnits="userSpaceOnUse">
      <stop offset=".005618" stop-color="#ffffb3"/>
      <stop offset="1" stop-color="#d68100"/>
    </radialGradient>
    <linearGradient id="linear-gradient-3" x1="12.0402932" y1="6.1927304" x2="29.6625134" y2="6.1927304" gradientTransform="translate(-.4909 15.3451836) scale(1 .9216)" gradientUnits="userSpaceOnUse"><stop offset="0" stop-color="#f3403f"/><stop offset=".3789338" stop-color="#d02a27"/><stop offset=".7765172" stop-color="#b11713"/><stop offset="1" stop-color="#a6100c"/></linearGradient>
    <mask id="mask-1" x="7.9783221" y="6.613475" width="15.522241" height="15.52185" maskUnits="userSpaceOnUse">
      <path d="M19.4464882,7.1636s-.0013.0018-.0024882.0038l-4.1292117,4.1286-4.1318999-4.1324h-.0013c-.732-.7335-1.9199-.7335-2.6532999,0-.7332885.7326-.7332885,1.9206,0,2.6533l4.1330999,4.1337-4.1318999,4.1325c-.7344885.732-.7344885,1.92,0,2.6533.7322.7327,1.9201.7327,2.6533999,0,0-.0006,0-.0018.0014-.0038l4.1304999-4.1279,4.1316999,4.1317h0c.7334.7327,1.9213.7327,2.6535118,0,.7332881-.7333.7332881-1.9213,0-2.6533h0l-4.1319118-4.1325,4.1319118-4.1337c.7346881-.7327.7346881-1.9207,0-2.6533-.7308119-.7335-1.9201118-.7335-2.6535118,0Z" fill="#fff"/>
    </mask>
    <linearGradient id="linear-gradient-4" x1="9.938485" y1=".5957358" x2="18.8758901" y2="22.7950831" gradientUnits="userSpaceOnUse">
      <stop offset=".005618" stop-color="#f8cccc"/>
      <stop offset="1" stop-color="#cb1009"/>
    </linearGradient>
    <linearGradient id="linear-gradient-5" x1="13.1976917" y1="8.6027496" x2="20.3370869" y2="23.5102263" gradientUnits="userSpaceOnUse"><stop offset="0" stop-color="#f3403f"/><stop offset=".3789338" stop-color="#d02a27"/><stop offset=".7765172" stop-color="#b11713"/><stop offset="1" stop-color="#a6100c"/></linearGradient>
  </defs>
  <g opacity=".75">
    <g>
      <rect x="12.9622884" y="3.8705" width="13.3657997" height="11.186" fill="#fff" stroke="#000" stroke-width="2"/>
      <rect x="12.9622884" y="3.8705" width="13.3657997" height="11.186" fill="url(#linear-gradient)"/>
    </g>
    <g>
      <path d="M15.3967883,15.7853c0,3.2949-2.6714999,5.9633-5.9606998,5.9633-3.2941999,0-5.9670884-2.6684-5.9670884-5.9633,0-3.2917,2.6728885-5.9626,5.9670884-5.9626,3.2891999,0,5.9606998,2.6709,5.9606998,5.9626Z" fill="#24972f" stroke="#000" stroke-width="2"/>
      <path d="M15.3967883,15.9827c0,3.4036-2.7613999,6.1612-6.1637883,6.1612-3.3959115,0-6.156-2.7576-6.156-6.1612,0-3.4024,2.7600885-6.16,6.156-6.16,3.4023884,0,6.1637883,2.7576,6.1637883,6.16Z" fill="url(#radial-gradient)"/>
    </g>
    <g>
      <path d="M12.0244884,26.5428c-2.1532999.0025-3.0311999-1.4009-1.9579-3.1177l6.3787998-10.2163c1.0733-1.7168,2.8343999-1.7201,3.9129999-.0052l6.4113998,10.2019c1.073212,1.7142.1927,3.1177-1.9553,3.1216l-12.7899997.0157Z" fill="none" stroke="#000" stroke-width="2"/>
      <g mask="url(#mask)">
        <g>
          <path d="M12.0244884,26.5428c-2.1532999.0025-3.0311999-1.4009-1.9579-3.1177l6.3787998-10.2163c1.0733-1.7168,2.8343999-1.7201,3.9129999-.0052l6.4113998,10.2019c1.073212,1.7142.1927,3.1177-1.9553,3.1216l-12.7899997.0157Z" fill="url(#linear-gradient-2)"/>
          <path d="M12.0244884,26.5428c-2.1532999.0025-3.0311999-1.4009-1.9579-3.1177l6.3787998-10.2163c1.0733-1.7168,2.8343999-1.7201,3.9129999-.0052l6.4113998,10.2019c1.073212,1.7142.1927,3.1177-1.9553,3.1216l-12.7899997.0157Z" fill="url(#radial-gradient-2)"/>
          <path d="M13.981,28.3442c-2.1506116.0033-3.0364116-1.3996-1.9592116-3.1203l6.3852998-10.2176c1.072-1.7154,2.8304999-1.7186,3.9090999-.0025l6.4086998,10.2012c1.0786,1.7136.194112,3.121-1.9526,3.1229l-12.791288.0163Z" fill="url(#linear-gradient-3)"/>
        </g>
      </g>
    </g>
  </g>
  <g>
    <path d="M19.4464882,7.1636s-.0013.0018-.0024882.0038l-4.1292117,4.1286-4.1318999-4.1324h-.0013c-.732-.7335-1.9199-.7335-2.6532999,0-.7332885.7326-.7332885,1.9206,0,2.6533l4.1330999,4.1337-4.1318999,4.1325c-.7344885.732-.7344885,1.92,0,2.6533.7322.7327,1.9201.7327,2.6533999,0,0-.0006,0-.0018.0014-.0038l4.1304999-4.1279,4.1316999,4.1317h0c.7334.7327,1.9213.7327,2.6535118,0,.7332881-.7333.7332881-1.9213,0-2.6533h0l-4.1319118-4.1325,4.1319118-4.1337c.7346881-.7327.7346881-1.9207,0-2.6533-.7308119-.7335-1.9201118-.7335-2.6535118,0Z" stroke="#000" stroke-linecap="round" stroke-linejoin="round" stroke-width="2"/>
    <g mask="url(#mask-1)">
      <g>
        <path d="M19.4464882,7.1636s-.0013.0018-.0024882.0038l-4.1292117,4.1286-4.1318999-4.1324h-.0013c-.732-.7335-1.9199-.7335-2.6532999,0-.7332885.7326-.7332885,1.9206,0,2.6533l4.1330999,4.1337-4.1318999,4.1325c-.7344885.732-.7344885,1.92,0,2.6533.7322.7327,1.9201.7327,2.6533999,0,0-.0006,0-.0018.0014-.0038l4.1304999-4.1279,4.1316999,4.1317h0c.7334.7327,1.9213.7327,2.6535118,0,.7332881-.7333.7332881-1.9213,0-2.6533h0l-4.1319118-4.1325,4.1319118-4.1337c.7346881-.7327.7346881-1.9207,0-2.6533-.7308119-.7335-1.9201118-.7335-2.6535118,0Z" fill="url(#linear-gradient-4)"/>
        <path d="M20.2970882,8.0122c0,.0013-.0013.0018-.0013.0038l-4.1316999,4.1292-4.1318999-4.1324h0l-.0013-.0006c-.7307-.7327-1.9213-.7327-2.6532999,0-.732.7326-.732,1.9206,0,2.6539l4.1330999,4.1332-4.1317999,4.1324c-.7321.732-.7321,1.9206,0,2.6541.7307.7327,1.9213.7327,2.6532999,0,.0013-.0013.0027-.002.0027-.004l4.1291999-4.1285,4.1329999,4.1319h0v.0006c.7321.7327,1.9201.7327,2.6520999,0,.7334-.7335.7334-1.9221,0-2.6534h0l-2.7979999-2.7992,2.7993999-5.4671c.7333-.7333.7333-1.9213,0-2.6539-.7334-.7327-1.9201-.7327-2.6534999,0Z" fill="url(#linear-gradient-5)"/>
      </g>
    </g>
  </g>
</svg>