<?xml version="1.0" encoding="UTF-8"?>
<svg id="Set_2" data-name="Set 2" xmlns="http://www.w3.org/2000/svg" width="32" height="32" viewBox="0 0 32 32">
  <polygon points="26.4921896 7.8969 19.8228898 7.8969 19.8228898 9.1416 26.4921896 9.1416 26.4921896 25.237 6.4843901 25.237 6.4843901 9.1416 7.8182901 9.1416 7.8182901 7.8969 6.4843901 7.8969 5.1505902 7.8969 5.1505902 9.1416 5.1505902 25.237 5.1505902 26.5709 6.4843901 26.5709 26.4921896 26.5709 27.826 26.5709 27.826 25.237 27.826 9.1416 27.826 7.8969 26.4921896 7.8969" fill="gray"/>
  <g>
    <path d="M13.07419,11.5221l-.8115-1.3912c-.3283-.5321-.5236-.878-.719-1.242h-.0183c-.17839.364-.3646.7002-.6825,1.251l-.7555,1.3822h-.9353l1.9253-3.1842-1.8498-3.1087h.9432l.831,1.4753c.2331.4103.4116.7281.5783,1.0641h.0287c.1771-.3739.3361-.663.5693-1.0641l.8506-1.4753h.943l-1.9149,3.0624,1.9605,3.2305h-.9431Z"/>
    <path d="M16.4075899,11.5221v-2.6704l-1.9981999-3.6225h.9326101l.8882899,1.7364c.232.4761.4286.859.6253,1.298h.0183c.168-.4109.392-.8219.6356-1.298l.9041-1.7364h.9157l-2.1010999,3.6134v2.6795h-.8206Z"/>
  </g>
</svg>