<?xml version="1.0" encoding="UTF-8"?>
<svg id="Icons_-_24x24" data-name="Icons - 24x24" xmlns="http://www.w3.org/2000/svg" width="32" height="32" xmlns:xlink="http://www.w3.org/1999/xlink" viewBox="0 0 32 32">
  <defs>
    <mask id="mask" x="8.434792" y="8.600375" width="17.1333247" height="17.132075" maskUnits="userSpaceOnUse">
      <path d="M20.165,9.3335c0,.001-.001911.0024-.003911.0049l-3.7264999,3.7256-3.7284999-3.73h0l-.002-.0005c-.9746-.9775-2.5585999-.9775-3.5360892,0-.9776107.9766-.9776107,2.5596,0,3.5371l3.7303892,3.731-3.7294999,3.7299c-.9775.9766-.9775,2.5596,0,3.5372.9766.9765,2.5605999.9765,3.5371999,0,0-.0015.0009108-.003.0019108-.0054l3.7265891-3.7246,3.7304109,3.729h0v.001c.976589.9765,2.5605889.9765,3.5351889,0,.9785-.9776.9785-2.5606,0-3.5367h0l-3.7274999-3.7304,3.7293999-3.731c.9776-.9775.9776-2.5605,0-3.5371-.9755-.9775-2.5604999-.9775-3.5370889,0Z" fill="#fff"/>
    </mask>
    <linearGradient id="linear-gradient" x1="10.6545005" y1="2.2415255" x2="20.2646263" y2="26.1118234" gradientUnits="userSpaceOnUse">
      <stop offset=".005618" stop-color="#f8cccc"/>
      <stop offset="1" stop-color="#cb1009"/>
    </linearGradient>
    <linearGradient id="linear-gradient-2" x1="14.3818755" y1="11.0781518" x2="22.0488502" y2="27.0872456" gradientUnits="userSpaceOnUse">
      <stop offset="0" stop-color="#f3403f"/>
      <stop offset=".3789338" stop-color="#d02a27"/>
      <stop offset=".7765172" stop-color="#b11713"/>
      <stop offset="1" stop-color="#a6100c"/>
    </linearGradient>
  </defs>
  <path d="M20.165,9.3335c0,.001-.001911.0024-.003911.0049l-3.7264999,3.7256-3.7284999-3.73h0l-.002-.0005c-.9746-.9775-2.5585999-.9775-3.5360892,0-.9776107.9766-.9776107,2.5596,0,3.5371l3.7303892,3.731-3.7294999,3.7299c-.9775.9766-.9775,2.5596,0,3.5372.9766.9765,2.5605999.9765,3.5371999,0,0-.0015.0009108-.003.0019108-.0054l3.7265891-3.7246,3.7304109,3.729h0v.001c.976589.9765,2.5605889.9765,3.5351889,0,.9785-.9776.9785-2.5606,0-3.5367h0l-3.7274999-3.7304,3.7293999-3.731c.9776-.9775.9776-2.5605,0-3.5371-.9755-.9775-2.5604999-.9775-3.5370889,0Z" stroke="#000" stroke-linecap="round" stroke-linejoin="round" stroke-width="2"/>
  <g mask="url(#mask)">
    <g>
      <path d="M20.165,9.3335c0,.001-.001911.0024-.003911.0049l-3.7264999,3.7256-3.7284999-3.73h0l-.002-.0005c-.9746-.9775-2.5585999-.9775-3.5360892,0-.9776107.9766-.9776107,2.5596,0,3.5371l3.7303892,3.731-3.7294999,3.7299c-.9775.9766-.9775,2.5596,0,3.5372.9766.9765,2.5605999.9765,3.5371999,0,0-.0015.0009108-.003.0019108-.0054l3.7265891-3.7246,3.7304109,3.729h0v.001c.976589.9765,2.5605889.9765,3.5351889,0,.9785-.9776.9785-2.5606,0-3.5367h0l-3.7274999-3.7304,3.7293999-3.731c.9776-.9775.9776-2.5605,0-3.5371-.9755-.9775-2.5604999-.9775-3.5370889,0Z" fill="url(#linear-gradient)"/>
      <path d="M21.297889,10.4648c0,.0015-.001.0025-.001.0054l-3.7294999,3.7251-3.7284999-3.73h0l-.002-.0005c-.9746-.977-2.5604999-.977-3.5360999,0-.9766.9766-.9766,2.5601,0,3.5372l3.7304999,3.7309-3.7294999,3.73c-.9766.9761-.9766,2.56,0,3.5371.9746.9766,2.5604999.9766,3.5370999,0,.0009-.0015.0019-.0024.0039-.0054l3.7245999-3.7246,3.7304999,3.7295h0v.0005c.9765.9766,2.5584999.9766,3.535111,0,.9784888-.9771.9784888-2.561,0-3.5366h0l-3.728511-3.7305,3.730511-3.7309c.9774888-.9771.9774888-2.5606,0-3.5372-.9766111-.977-2.5586111-.977-3.537111,0Z" fill="url(#linear-gradient-2)"/>
    </g>
  </g>
</svg>