<?xml version="1.0" encoding="UTF-8"?>
<svg id="Set_2" data-name="Set 2" xmlns="http://www.w3.org/2000/svg" width="32" height="32" viewBox="0 0 32 32">
  <g>
    <rect x="10.3865965" y="10.5646" width="10.6707997" height="10.6708" fill="gray" stroke="gray" stroke-linecap="round" stroke-linejoin="round" stroke-width="2"/>
    <rect x="10.3865965" y="10.5646" width="10.6707997" height="10.6708" fill="#fff"/>
  </g>
  <path d="M18.7127963,10.4227c-.0247963-.0404-.0677963-.0424-.0964-.0046l-4.4339999,7.3577c-.0235.0403-.0638.0423-.0899.0046l-1.903-2.5193c-.0274-.0377-.0653-.0332-.0834.0104l-.9288,2.3415c-.0169.0443-.0012965.1028.0364.1315l3.1133035,2.8852c.0351964.0326.0846964.0287.1132964-.009l6.2577036-7.1963c.035-.0319.0415962-.0879.0168962-.1276l-2.0020999-2.8741Z" fill="#16336e"/>
</svg>