<?xml version="1.0" encoding="UTF-8"?>
<svg id="Layer_1" data-name="Layer 1" xmlns="http://www.w3.org/2000/svg" width="32" height="32" xmlns:xlink="http://www.w3.org/1999/xlink" viewBox="0 0 32 32">
  <defs>
    <linearGradient id="New_Gradient_63" data-name="New Gradient 63" x1="3.8113596" y1="12.5569961" x2="26.9439661" y2="-6.8535656" gradientTransform="translate(.4862 10.0762) rotate(13.2092189) scale(1.0586085 .9446279) skewX(11.82935)" gradientUnits="userSpaceOnUse">
      <stop offset="0" stop-color="#ccc"/>
      <stop offset=".415726" stop-color="#f2f2f2"/>
      <stop offset=".48877" stop-color="#fff"/>
      <stop offset=".578659" stop-color="#e5e5e5"/>
      <stop offset="1" stop-color="#d9d9d9"/>
    </linearGradient>
    <linearGradient id="New_Gradient_62" data-name="New Gradient 62" x1="4.5205813" y1="8.2215509" x2="20.7815661" y2="-8.0394338" gradientTransform="translate(.4862 10.0762) rotate(13.2092189) scale(1.0586085 .9446279) skewX(11.82935)" gradientUnits="userSpaceOnUse">
      <stop offset="0" stop-color="#999"/>
      <stop offset=".415726" stop-color="#f2f2f2"/>
      <stop offset=".48877" stop-color="#fff"/>
      <stop offset=".578659" stop-color="#e5e5e5"/>
      <stop offset="1" stop-color="#d9d9d9"/>
    </linearGradient>
    <mask id="mask" x="9.8046973" y="7.7904347" width="16.3847996" height="21.3248019" maskUnits="userSpaceOnUse">
      <path d="M12.1615973,8.5449l12.3384027-.0893c.9350969-.0049,1.6894969.7021,1.6894969,1.58v17.3902c0,.8789-.7554,1.5976-1.6894969,1.603l-12.3384027.0864c-.9325973.0059-1.6894-.7026-1.6889-1.5825l-.0005-17.3906c.0005-.8745.7568027-1.5918,1.6894-1.5972Z" fill="#fff" fill-rule="evenodd"/>
    </mask>
    <linearGradient id="New_Gradient_60" data-name="New Gradient 60" x1="17.5352213" y1="7.4030536" x2="19.1274309" y2="30.1727129" gradientUnits="userSpaceOnUse">
      <stop offset="0" stop-color="#d9d9d9"/>
      <stop offset="1" stop-color="#ccc"/>
    </linearGradient>
    <linearGradient id="New_Gradient_61" data-name="New Gradient 61" x1="7.9694187" y1="-6.5968881" x2="25.0648121" y2="14.5141645" gradientTransform="translate(.4862 10.0762) rotate(13.2092189) scale(1.0586085 .9446279) skewX(11.82935)" gradientUnits="userSpaceOnUse">
      <stop offset="0" stop-color="#ccc"/>
      <stop offset="1" stop-color="#fff"/>
    </linearGradient>
    <mask id="mask-1" x="10.6873967" y="14.4681953" width="13.0079002" height="12.6197058" maskUnits="userSpaceOnUse">
      <path d="M12.1088973,21.6411c0-3.0141,2.5941999-5.4595,5.7953999-5.4619,3.2007029-.0039,5.7904999,2.4321,5.7909999,5.4458,0,3.0137-2.590297,5.457-5.7909999,5.4629-3.2011999.0019-5.7953999-2.437-5.7953999-5.4468Z" fill="#fff" fill-rule="evenodd"/>
    </mask>
    <radialGradient id="New_Gradient_59" data-name="New Gradient 59" cx="37.9383263" cy="22.0518078" fx="37.9383263" fy="22.0518078" r="12.0334794" gradientTransform="translate(-13.7615 -1.5502) rotate(13.2071526) scale(.9537257 .8509804) skewX(11.8267101)" gradientUnits="userSpaceOnUse">
      <stop offset="0" stop-color="#f2f2f2"/>
      <stop offset=".415726" stop-color="#ccc"/>
      <stop offset="1" stop-color="gray"/>
    </radialGradient>
    <mask id="mask-2" x="14.3920972" y="8.7460925" width="6.6234998" height="6.44531" maskUnits="userSpaceOnUse">
      <path d="M15.2191972,12.4634c0-1.5049,1.2969-2.7271,2.8979999-2.7285,1.6011-.0044,2.8983999,1.2158,2.8983999,2.7241,0,1.5058-1.2973,2.73-2.8983999,2.7324-1.6011.002-2.8979999-1.2168-2.8979999-2.728Z" fill="#fff" fill-rule="evenodd"/>
    </mask>
    <mask id="mask-3" x="14.3920972" y="8.7460925" width="6.4999999" height="6.1587168" maskUnits="userSpaceOnUse">
      <path d="M14.7436972,11.8281c0-1.5063,1.3012-2.73,2.8993999-2.7304,1.5996-.0035,2.8973999,1.2148,2.8973999,2.7246,0,1.5044-1.2978,2.729-2.8973999,2.7309-1.5996.0039-2.8993999-1.2178-2.8993999-2.7251Z" fill="#fff" fill-rule="evenodd" stroke="#fff" stroke-miterlimit="3.8637" stroke-width=".7032"/>
    </mask>
    <radialGradient id="New_Gradient_53" data-name="New Gradient 53" cx="20.3892006" cy="14.8019809" fx="20.3892006" fy="14.8019809" r="6.1521762" gradientUnits="userSpaceOnUse">
      <stop offset="0" stop-color="#f2f2f2"/>
      <stop offset=".443817" stop-color="#ccc"/>
      <stop offset="1" stop-color="gray"/>
    </radialGradient>
    <radialGradient id="New_Gradient_58" data-name="New Gradient 58" cx="32.5387543" cy="5.6426289" fx="32.5387543" fy="5.6426289" r="2.2818957" gradientTransform="translate(-13.7615 -1.5502) rotate(13.2071526) scale(.9537257 .8509804) skewX(11.8267101)" gradientUnits="userSpaceOnUse">
      <stop offset="0" stop-color="#f2f2f2"/>
      <stop offset="1" stop-color="#999"/>
    </radialGradient>
    <radialGradient id="New_Gradient_52" data-name="New Gradient 52" cx="31.2473353" cy="15.2066936" fx="31.2473353" fy="15.2066936" r="4.0354587" gradientTransform="translate(-13.7615 -1.5502) rotate(13.2071526) scale(.9537257 .8509804) skewX(11.8267101)" gradientUnits="userSpaceOnUse">
      <stop offset="0" stop-color="#f2f2f2"/>
      <stop offset="1" stop-color="#999"/>
    </radialGradient>
    <mask id="mask-4" x="11.1732973" y="9.312" width="1.8013" height="1.8369" maskUnits="userSpaceOnUse">
      <path d="M12.2523973,9.7832c.3985,0,.7222.3052.7222.6812,0,.3754-.3237.6826-.7222.6845-.4033,0-.7255-.3066-.7255-.6806,0-.3785.3222-.6851.7255-.6851Z" fill="#fff"/>
    </mask>
    <mask id="mask-5" x="11.1732973" y="25.4238" width="1.8013" height="1.8399" maskUnits="userSpaceOnUse">
      <path d="M12.2523973,25.897c.3985,0,.7222.3042.7222.6806,0,.3775-.3237.6841-.7222.6861-.4023,0-.7255-.3072-.7255-.6831,0-.3755.3222-.6817.7255-.6836Z" fill="#fff"/>
    </mask>
    <mask id="mask-6" x="22.502397" y="9.1537945" width="1.8042" height="1.8350337" maskUnits="userSpaceOnUse">
      <path d="M23.578097,9.627c.401903,0,.7285.3042.7285.6792,0,.3793-.326597.6826-.7285.6826-.3999.0034-.723097-.3013-.723097-.6807,0-.375.323197-.6811.723097-.6811Z" fill="#fff"/>
    </mask>
    <mask id="mask-7" x="22.562" y="25.1811945" width="1.799797" height="1.8383055" maskUnits="userSpaceOnUse">
      <path d="M23.640097,25.6538c.399,0,.7217.3037.7217.6802,0,.3774-.3227.6821-.7217.6855-.4013,0-.7255-.3051-.7255-.6836,0-.3784.3242-.6821.7255-.6821Z" fill="#fff"/>
    </mask>
    <linearGradient id="New_Gradient_50" data-name="New Gradient 50" x1="8.917236" y1="-6.4843069" x2="25.7101986" y2="15.8007072" gradientTransform="translate(.4862 10.0762) rotate(13.2092189) scale(1.0586085 .9446279) skewX(11.82935)" gradientUnits="userSpaceOnUse">
      <stop offset="0" stop-color="#fff"/>
      <stop offset="1" stop-color="#e5e5e5"/>
    </linearGradient>
    <linearGradient id="New_Gradient_49" data-name="New Gradient 49" x1="13.1169979" y1="-9.0099977" x2="19.3080681" y2="15.8210285" gradientTransform="translate(.4862 10.0762) rotate(13.2092189) scale(1.0586085 .9446279) skewX(11.82935)" gradientUnits="userSpaceOnUse">
      <stop offset="0" stop-color="#b2b2b2"/>
      <stop offset="1" stop-color="gray"/>
    </linearGradient>
    <linearGradient id="New_Gradient_44" data-name="New Gradient 44" x1="4.005044" y1="14.2949607" x2="11.3868023" y2="8.1009301" gradientTransform="translate(.4862 10.0762) rotate(13.2092189) scale(1.0586085 .9446279) skewX(11.82935)" gradientUnits="userSpaceOnUse">
      <stop offset="0" stop-color="#ccc"/>
      <stop offset="1" stop-color="#b2b2b2"/>
    </linearGradient>
    <linearGradient id="New_Gradient_43" data-name="New Gradient 43" x1="16.9920161" y1="-6.3534058" x2="23.4904167" y2="-11.8062114" gradientTransform="translate(.4862 10.0762) rotate(13.2092189) scale(1.0586085 .9446279) skewX(11.82935)" gradientUnits="userSpaceOnUse">
      <stop offset="0" stop-color="#d9d9d9"/>
      <stop offset="1" stop-color="#fff"/>
    </linearGradient>
  </defs>
  <path d="M10.7890973,28.4595l-3.9760973-4.4595c-.1953026-.2598-.311-.5762-.3115026-.9219l.0005026-17.3906c0-.8794.7542974-1.5952,1.687-1.603l12.3422971-.0845c.5639-.0039,1.0366.2417,1.3671.6528l3.9438999,4.4214c.2178.2671.3472.6021.3472.9614v17.3902c0,.8789-.7554,1.5976-1.6894969,1.603l-12.3384027.0864c-.5674.002-1.0678-.2553-1.3725-.6557Z" fill="url(#New_Gradient_63)" stroke="#000" stroke-miterlimit="3.8637" stroke-width="2"/>
  <path d="M10.7890973,28.4595l-3.9760973-4.4595c-.1953026-.2598-.311-.5762-.3115026-.9219l.0005026-17.3906c0-.8794.7542974-1.5952,1.687-1.603l12.3422971-.0845c.5639-.0039,1.0366.2417,1.3671.6528l3.974603,4.461-15.0839027,19.3457Z" fill="url(#New_Gradient_62)" fill-rule="evenodd"/>
  <g mask="url(#mask)">
    <g>
      <path d="M12.1615973,8.5449l12.3384027-.0893c.9350969-.0049,1.6894969.7021,1.6894969,1.58v17.3902c0,.8789-.7554,1.5976-1.6894969,1.603l-12.3384027.0864c-.9325973.0059-1.6894-.7026-1.6889-1.5825l-.0005-17.3906c.0005-.8745.7568027-1.5918,1.6894-1.5972Z" fill="url(#New_Gradient_60)" fill-rule="evenodd"/>
      <path d="M11.4613973,7.8735l12.0937997-.083c.914-.0078,1.6562.6841,1.6562,1.5449v17.0479c0,.8604-.7422,1.5601-1.6562,1.5703l-12.0937997.0811c-.914.0078-1.6567-.6856-1.6567-1.5479V9.4434c0-.8599.7427-1.5621,1.6567-1.5699Z" fill="url(#New_Gradient_61)" fill-rule="evenodd"/>
    </g>
  </g>
  <g mask="url(#mask-1)">
    <g>
      <path d="M12.1088973,21.6411c0-3.0141,2.5941999-5.4595,5.7953999-5.4619,3.2007029-.0039,5.7904999,2.4321,5.7909999,5.4458,0,3.0137-2.590297,5.457-5.7909999,5.4629-3.2011999.0019-5.7953999-2.437-5.7953999-5.4468Z" fill="#ccc" fill-rule="evenodd"/>
      <path d="M11.2733973,20.5171c0-3.0132,2.5952999-5.46,5.7963999-5.4629,3.1982999-.0039,5.7919999,2.4355,5.7919999,5.4478,0,3.0117-2.5936999,5.4584-5.7919999,5.4609-3.2010999.0073-5.7977971-2.4356-5.7963999-5.4458Z" fill="url(#New_Gradient_59)" fill-rule="evenodd" stroke="#4c4c4c" stroke-miterlimit="3.8637" stroke-width="1.172"/>
    </g>
  </g>
  <g mask="url(#mask-2)">
    <g>
      <path d="M15.2191972,12.4634c0-1.5049,1.2969-2.7271,2.8979999-2.7285,1.6011-.0044,2.8983999,1.2158,2.8983999,2.7241,0,1.5058-1.2973,2.73-2.8983999,2.7324-1.6011.002-2.8979999-1.2168-2.8979999-2.728Z" fill="#b2b2b2" fill-rule="evenodd"/>
      <g mask="url(#mask-3)">
        <g>
          <path d="M14.7436972,11.8281c0-1.5063,1.3012-2.73,2.8993999-2.7304,1.5996-.0035,2.8973999,1.2148,2.8973999,2.7246,0,1.5044-1.2978,2.729-2.8973999,2.7309-1.5996.0039-2.8993999-1.2178-2.8993999-2.7251Z" fill="url(#New_Gradient_53)" fill-rule="evenodd"/>
          <path d="M17.0917971,9.9966c.7187-.001,1.3013.5449,1.3013,1.2256,0,.6767-.5826,1.2275-1.3028,1.2275-.7231,0-1.3037-.5469-1.3037-1.2246,0-.6763.5811-1.2285,1.3052-1.2285Z" fill="url(#New_Gradient_58)" stroke="#737373" stroke-miterlimit="3.8637" stroke-width=".3161"/>
          <path d="M14.7436972,11.8281c0-1.5063,1.3012-2.73,2.8993999-2.7304,1.5996-.0035,2.8973999,1.2148,2.8973999,2.7246,0,1.5044-1.2978,2.729-2.8973999,2.7309-1.5996.0039-2.8993999-1.2178-2.8993999-2.7251Z" fill="none" fill-rule="evenodd" stroke="#4c4c4c" stroke-miterlimit="3.8637" stroke-width=".7032"/>
        </g>
      </g>
    </g>
  </g>
  <path d="M16.2748972,17.2153c1.3818-.0009,2.5004999,1.0518,2.5004999,2.3531,0,1.3012-1.1191,2.3559-2.5004999,2.3593-1.3828.002-2.5033999-1.0512-2.5033999-2.352,0-1.3037,1.1206-2.3604,2.5033999-2.3604Z" fill="url(#New_Gradient_52)" stroke="#737373" stroke-miterlimit="3.8637" stroke-width=".4215"/>
  <g mask="url(#mask-4)">
    <g>
      <path d="M12.2523973,9.7832c.3985,0,.7222.3052.7222.6812,0,.3754-.3237.6826-.7222.6845-.4033,0-.7255-.3066-.7255-.6806,0-.3785.3222-.6851.7255-.6851Z" fill="gray"/>
      <path d="M11.896,9.312c.4013973,0,.7255973.3013.7255973.6787,0,.3765-.3242.6826-.7251.6836-.398.0015-.7232-.3071-.7232-.6806,0-.3785.3252-.6817.7227027-.6817Z" fill="#4c4c4c"/>
    </g>
  </g>
  <g mask="url(#mask-5)">
    <g>
      <path d="M12.2523973,25.897c.3985,0,.7222.3042.7222.6806,0,.3775-.3237.6841-.7222.6861-.4023,0-.7255-.3072-.7255-.6831,0-.3755.3222-.6817.7255-.6836Z" fill="gray"/>
      <path d="M11.8964973,25.4238c.4009,0,.7251.3052.7251.6831,0,.377-.3242.6817-.7251.6817-.398,0-.7232-.3047-.7232-.6817,0-.3764.3252-.6811.7232-.6831Z" fill="#4c4c4c"/>
    </g>
  </g>
  <g mask="url(#mask-6)">
    <g>
      <path d="M23.578097,9.627c.401903,0,.7285.3042.7285.6792,0,.3793-.326597.6826-.7285.6826-.3999.0034-.723097-.3013-.723097-.6807,0-.375.323197-.6811.723097-.6811Z" fill="gray"/>
      <path d="M23.228497,9.1538c.4004-.0015.7241.3037.7241.6797,0,.3769-.3237.6826-.7241.6855-.3999,0-.7261-.3037-.7261-.6796,0-.3799.3262-.6836.7261-.6856Z" fill="#4c4c4c"/>
    </g>
  </g>
  <g mask="url(#mask-7)">
    <g>
      <path d="M23.640097,25.6538c.399,0,.7217.3037.7217.6802,0,.3774-.3227.6821-.7217.6855-.4013,0-.7255-.3051-.7255-.6836,0-.3784.3242-.6821.7255-.6821Z" fill="gray"/>
      <path d="M23.287597,25.1812c.3979-.0015.7246.3046.7246.6816,0,.3774-.3267.6821-.7246.6841-.4009-.002-.725597-.3067-.725597-.6841.000497-.3745.324697-.6816.725597-.6816Z" fill="#4c4c4c"/>
    </g>
  </g>
  <path d="M24.254397,8.3462c1.0752-.0083,2.0878999.8745,2.0878999,1.9878v17.0464c0,.9892-.8252,1.7539-1.8399,1.7597l-12.0956997.0845c-1.0726973.0098-2.0878999-.873-2.0878999-1.9878V10.1909c0-.9902.8262027-1.7554,1.8414-1.7612l12.0941997-.0835ZM24.502397,8.981l-12.0956997.082c-.8125.0054-1.4672.6474-1.4672,1.3784v17.0454c0,.6026.4663,1.1089,1.2207,1.1045l12.0941997-.083c.8144-.0068,1.4687-.645,1.4678-1.3774l.0009-17.0435c-.0009-.6084-.4653-1.1133-1.2207-1.1064Z" fill="url(#New_Gradient_50)"/>
  <path d="M9.8305973,26.4907V10.1563c-.0005-1.3209.9306-2.1773,1.9394027-2.2481.9423973-.0664,12.517597-.0195,12.517597-.0195.2588.0019.4219.435.1602.4336,0,0-11.550797-.0474-12.4892997.0156-.8731.0625-1.7061.8223-1.7061,1.9858v16.3369c0,.2632-.4218.0953-.4218-.1699Z" fill="url(#New_Gradient_49)"/>
  <polygon points="6.9901974 19.1035 9.8471973 22.3286 9.853 26.4985 6.9945974 23.5371 6.9901974 19.1035" fill="url(#New_Gradient_44)"/>
  <polygon points="20.929197 4.4673 24.099097 7.8491 21.634797 7.8188 18.5858971 4.4805 20.929197 4.4673" fill="url(#New_Gradient_43)"/>
</svg>