<?xml version="1.0" encoding="UTF-8"?>
<svg id="Set_1" data-name="Set 1" xmlns="http://www.w3.org/2000/svg" width="32" height="32" viewBox="0 0 32 32">
  <g>
    <line x1="13.1830875" y1="10.1632" x2="25.0938872" y2="10.1632" fill="none" stroke="#000" stroke-linecap="round" stroke-miterlimit="3.8637" stroke-width=".7125"/>
    <line x1="13.1830875" y1="16.8325" x2="25.0938872" y2="16.8325" fill="none" stroke="#000" stroke-linecap="round" stroke-miterlimit="3.8637" stroke-width=".7125"/>
    <line x1="13.1830875" y1="23.5017" x2="22.4261873" y2="23.5017" fill="none" stroke="#000" stroke-linecap="round" stroke-miterlimit="3.8637" stroke-width=".7125"/>
  </g>
  <g>
    <line x1="13.1830875" y1="11.4971" x2="25.0938872" y2="11.4971" fill="none" stroke="#999" stroke-linecap="round" stroke-miterlimit="3.8637" stroke-width=".7125"/>
    <line x1="13.1830875" y1="18.1663" x2="25.0938872" y2="18.1663" fill="none" stroke="#999" stroke-linecap="round" stroke-miterlimit="3.8637" stroke-width=".7125"/>
    <line x1="13.1830875" y1="24.8356" x2="22.4261873" y2="24.8356" fill="none" stroke="#999" stroke-linecap="round" stroke-miterlimit="3.8637" stroke-width=".7125"/>
  </g>
  <path d="M9.1893876,9.8331c0,1.0967-.8897,1.9852-1.9851999,1.9852-1.098,0-1.9863999-.8885-1.9863999-1.9852,0-1.09682.8884-1.98584,1.9863999-1.98584,1.0955,0,1.9851999.88902,1.9851999,1.98584Z" fill="#3f3f3f"/>
  <path d="M9.1893876,16.5024c0,1.0966-.8897,1.9851-1.9851999,1.9851-1.098,0-1.9863999-.8885-1.9863999-1.9851,0-1.0969.8884-1.9859,1.9863999-1.9859,1.0955,0,1.9851999.889,1.9851999,1.9859Z" fill="#3f3f3f"/>
  <path d="M9.1893876,23.1716c0,1.0967-.8897,1.9852-1.9851999,1.9852-1.098,0-1.9863999-.8885-1.9863999-1.9852,0-1.0968.8884-1.9858,1.9863999-1.9858,1.0955,0,1.9851999.889,1.9851999,1.9858Z" fill="#3f3f3f"/>
</svg>