<?xml version="1.0" encoding="UTF-8"?>
<svg id="Set_2" data-name="Set 2" xmlns="http://www.w3.org/2000/svg" width="32" height="32" viewBox="0 0 32 32">
  <g>
    <rect x="6.3354" y="3.9078" width="14.6724" height="24.0093" fill="gray" stroke="gray" stroke-linecap="round" stroke-linejoin="round" stroke-width="2"/>
    <rect x="6.3354" y="3.9078" width="14.6724" height="24.0093" fill="#fff"/>
  </g>
  <g>
    <g>
      <polygon points="22.3416 23.9156 22.3416 27.9171 23.6755 27.9171 27.677 27.9171 27.677 25.2494 27.677 23.9156 22.3416 23.9156" fill="#555"/>
      <polygon points="22.3416 23.9156 22.3416 27.9171 23.6755 27.9171 27.677 27.9171 27.677 25.2494 27.677 23.9156 22.3416 23.9156" fill="none" stroke="#555" stroke-width="2"/>
    </g>
    <rect x="22.3416" y="23.9156" width="5.3354" height="4.0015" fill="#fff"/>
    <rect x="23.6755" y="25.2494" width="4.0015" height="2.6677" fill="silver"/>
    <rect x="23.6755" y="25.2494" width="2.6677" height="1.3339" fill="gray"/>
  </g>
  <g>
    <g>
      <polygon points="22.3416 3.9078 22.3416 7.9094 23.6755 7.9094 27.677 7.9094 27.677 5.2417 27.677 3.9078 22.3416 3.9078" fill="#555"/>
      <polygon points="22.3416 3.9078 22.3416 7.9094 23.6755 7.9094 27.677 7.9094 27.677 5.2417 27.677 3.9078 22.3416 3.9078" fill="none" stroke="#555" stroke-width="2"/>
    </g>
    <rect x="22.3416" y="3.9078" width="5.3354" height="4.0016" fill="#fff"/>
    <rect x="23.6755" y="5.2417" width="4.0015" height="2.6677" fill="silver"/>
    <rect x="23.6755" y="5.2417" width="2.6677" height="1.3338" fill="gray"/>
  </g>
  <g>
    <g>
      <polygon points="22.3416 9.2432 22.3416 22.5817 23.6755 22.5817 27.677 22.5817 27.677 10.5771 27.677 9.2432 22.3416 9.2432" fill="#555"/>
      <polygon points="22.3416 9.2432 22.3416 22.5817 23.6755 22.5817 27.677 22.5817 27.677 10.5771 27.677 9.2432 22.3416 9.2432" fill="none" stroke="#555" stroke-width="2"/>
    </g>
    <rect x="22.3416" y="9.2432" width="5.3354" height="13.3385" fill="#999"/>
  </g>
  <g>
    <g>
      <polygon points="22.3416 9.2432 22.3416 17.2463 23.6755 17.2463 27.677 17.2463 27.677 10.5771 27.677 9.2432 22.3416 9.2432" fill="#555"/>
      <polygon points="22.3416 9.2432 22.3416 17.2463 23.6755 17.2463 27.677 17.2463 27.677 10.5771 27.677 9.2432 22.3416 9.2432" fill="none" stroke="#555" stroke-width="2"/>
    </g>
    <rect x="22.3416" y="9.2432" width="5.3354" height="8.0031" fill="#fff"/>
    <rect x="23.6755" y="10.5771" width="4.0015" height="6.6692" fill="silver"/>
    <rect x="23.6755" y="10.5771" width="2.6677" height="5.3354" fill="#d7d7d7"/>
  </g>
  <g>
    <line x1="8.96922" y1="11.5592" x2="14.1731" y2="11.5592" fill="none" stroke="#000" stroke-linecap="round" stroke-miterlimit="3.8637" stroke-width=".7125"/>
    <line x1="8.83771" y1="7.5576" x2="18.0809" y2="7.5576" fill="none" stroke="#000" stroke-linecap="round" stroke-miterlimit="3.8637" stroke-width=".7125"/>
    <line x1="8.76861" y1="23.5638" x2="16.6194" y2="23.5638" fill="none" stroke="#000" stroke-linecap="round" stroke-miterlimit="3.8637" stroke-width=".7125"/>
    <line x1="9.16463" y1="15.5607" x2="15.3102" y2="15.5607" fill="none" stroke="#000" stroke-linecap="round" stroke-miterlimit="3.8637" stroke-width=".7125"/>
    <line x1="8.96922" y1="19.5623" x2="12.6009" y2="19.5623" fill="none" stroke="#000" stroke-linecap="round" stroke-miterlimit="3.8637" stroke-width=".7125"/>
  </g>
</svg>