<?xml version="1.0" encoding="UTF-8"?>
<svg id="Set_2" data-name="Set 2" xmlns="http://www.w3.org/2000/svg" width="32" height="32" viewBox="0 0 32 32">
  <g>
    <g>
      <polygon points="27.6992 22.5817 27.6992 11.9109 26.3653 11.9109 5.0264 11.9109 5.0264 21.2479 5.0264 22.5817 27.6992 22.5817" fill="#555"/>
      <polygon points="27.6992 22.5817 27.6992 11.9109 26.3653 11.9109 5.0264 11.9109 5.0264 21.2479 5.0264 22.5817 27.6992 22.5817" fill="none" stroke="#555" stroke-width="2"/>
    </g>
    <rect x="5.0264" y="11.9109" width="22.6755" height="10.6682" fill="silver"/>
    <rect x="6.3602" y="13.2448" width="21.3403" height="9.3356" fill="#fff"/>
  </g>
  <g>
    <path d="M8.9263,15.4468h-.0181l-1.0552.5698-.1589-.6258,1.326-.7093h.7001v6.0688h-.7939v-5.3035Z" fill="#4d4d4d"/>
    <path d="M11.9327,20.7503v-.5042l.6441-.6258c1.5502-1.4752,2.2601-2.2594,2.2601-3.1744,0-.6161-.2899-1.1861-1.1952-1.1861-.551,0-1.0089.2808-1.2889.5139l-.2611-.579c.4109-.3452,1.0173-.6161,1.7181-.6161,1.2973,0,1.8483.8962,1.8483,1.7644,0,1.1209-.8122,2.0262-2.0913,3.259l-.4761.4482v.0181h2.7172v.682h-3.8752Z" fill="#4d4d4d"/>
    <path d="M16.9183,19.8164c.2339.1399.7659.3737,1.345.3737,1.0453,0,1.3814-.6629,1.3722-1.1762-.009-.8499-.7749-1.214-1.5689-1.214h-.4572v-.6161h.4572c.5979,0,1.354-.308,1.354-1.0271,0-.4859-.3081-.915-1.0641-.915-.4859,0-.9522.2149-1.2141.4012l-.2241-.5973c.327-.2338.9432-.467,1.5971-.467,1.1951,0,1.7364.7092,1.7364,1.4472,0,.635-.3831,1.1672-1.1203,1.4381v.0182c.7471.14,1.3534.7007,1.3534,1.5501,0,.9711-.7653,1.821-2.2124,1.821-.682,0-1.2792-.2149-1.5781-.411l.2239-.6258Z" fill="#4d4d4d"/>
  </g>
</svg>