<?xml version="1.0" encoding="UTF-8"?>
<svg id="Icons_-_24x24" data-name="Icons - 24x24" xmlns="http://www.w3.org/2000/svg" width="32" height="32" xmlns:xlink="http://www.w3.org/1999/xlink" viewBox="0 0 32 32">
  <defs>
    <radialGradient id="radial-gradient" cx="171.0448856" cy="-38.7411382" fx="171.0448856" fy="-38.7411382" r="6.3566669" gradientTransform="translate(-110.8477 37.8063) scale(.7441)" gradientUnits="userSpaceOnUse">
      <stop offset=".005618" stop-color="#ffffb3"/>
      <stop offset="1" stop-color="#d68100"/>
    </radialGradient>
    <radialGradient id="radial-gradient-2" cx="4.877757" cy="14.9322557" fx="4.877757" fy="14.9322557" r="7.7731894" gradientUnits="userSpaceOnUse">
      <stop offset="0" stop-color="#fff"/>
      <stop offset=".0998635" stop-color="#fdfeff"/>
      <stop offset=".1358351" stop-color="#f6fcff"/>
      <stop offset=".1614737" stop-color="#eaf8ff"/>
      <stop offset=".1821949" stop-color="#d9f3ff"/>
      <stop offset=".1997497" stop-color="#c3ecff"/>
      <stop offset=".207865" stop-color="#b7e9ff"/>
      <stop offset=".426966" stop-color="#3c97f6"/>
      <stop offset=".865173" stop-color="#032c87"/>
      <stop offset="1" stop-color="#0342d3"/>
    </radialGradient>
    <mask id="mask" x="14.5646729" y="17.3331865" width="15.6941499" height="13.1668161" maskUnits="userSpaceOnUse">
      <path d="M16.5038915,29.0566c-1.7266.002-2.4325999-1.1225-1.5732-2.5l5.1161999-8.1899c.8623-1.3765,2.2723999-1.3784,3.1366999-.0034l5.1366999,8.1772c.8633,1.375.1602,2.502-1.5635,2.5039l-10.2528997.0122Z" fill="#fff"/>
    </mask>
    <linearGradient id="linear-gradient" x1="16.5319923" y1="15.4714077" x2="30.6569704" y2="15.4714077" gradientTransform="translate(-.4205 10.4043836) scale(1 .9216)" gradientUnits="userSpaceOnUse">
      <stop offset="0" stop-color="#f3403f"/>
      <stop offset=".3789338" stop-color="#d02a27"/>
      <stop offset=".7765172" stop-color="#b11713"/>
      <stop offset="1" stop-color="#a6100c"/>
    </linearGradient>
  </defs>
  <path d="M18.8007914,13.6563l-3.2177914-4.3887,1.9413915.0678c.0293-.8291.0957-2.1464-.9892-2.5073-2.0185999-.6699-3.7431915,2.94-3.7431915,2.94.1483916-2.7754,2.4433915-5.6802,5.5311915-4.4082,2.6338085,1.0859,2.0869999,3.957,2.0869999,4.0698l1.8945.063-3.5038999,4.1636Z" fill="#66bb50" stroke="#000" stroke-linecap="round" stroke-linejoin="round" stroke-width="2"/>
  <path d="M18.8007914,13.6563l-3.2177914-4.3887,1.9413915.0678c.0293-.8291.0957-2.1464-.9892-2.5073-2.0185999-.6699-3.7431915,2.94-3.7431915,2.94.1483916-2.7754,2.4433915-5.6802,5.5311915-4.4082,2.6338085,1.0859,2.0869999,3.957,2.0869999,4.0698l1.8945.063-3.5038999,4.1636Z" fill="url(#radial-gradient)"/>
  <path d="M13.0663916,17.3296c0,2.9028-2.3515999,5.2544-5.2528999,5.2544-2.9023999,0-5.2548999-2.3516-5.2548999-5.2544,0-2.9014,2.3524999-5.2534,5.2548999-5.2534,2.9012999,0,5.2528999,2.352,5.2528999,5.2534Z" fill="#24972f" stroke="#000" stroke-width="2"/>
  <path d="M13.0663916,17.5034c0,2.9986-2.4296999,5.4282-5.4267999,5.4282-2.9979999,0-5.4276999-2.4296-5.4276999-5.4282,0-2.9975,2.4296999-5.4272,5.4276999-5.4272,2.9970999,0,5.4267999,2.4297,5.4267999,5.4272Z" fill="url(#radial-gradient-2)"/>
  <g>
    <path d="M16.5038915,29.0566c-1.7266.002-2.4325999-1.1225-1.5732-2.5l5.1161999-8.1899c.8623-1.3765,2.2723999-1.3784,3.1366999-.0034l5.1366999,8.1772c.8633,1.375.1602,2.502-1.5635,2.5039l-10.2528997.0122Z" fill="none" stroke="#000" stroke-width="2"/>
    <g mask="url(#mask)">
      <g>
        <path d="M16.5038915,29.0566c-1.7266.002-2.4325999-1.1225-1.5732-2.5l5.1161999-8.1899c.8623-1.3765,2.2723999-1.3784,3.1366999-.0034l5.1366999,8.1772c.8633,1.375.1602,2.502-1.5635,2.5039l-10.2528997.0122Z" fill="#da7d61"/>
        <path d="M18.0702915,30.5c-1.7236.002-2.4306999-1.123-1.5692915-2.5l5.1171914-8.1914c.8593-1.3765,2.2713999-1.3784,3.1356999-.0034l5.1356999,8.1787c.8643,1.374.1583,2.5019-1.5654,2.5039l-10.2538997.0122Z" fill="url(#linear-gradient)"/>
      </g>
    </g>
  </g>
</svg>