<?xml version='1.0' encoding='UTF-8'?>
<svg xmlns="http://www.w3.org/2000/svg" xmlns:xlink="http://www.w3.org/1999/xlink" id="Set_3" data-name="Set 3" width="32" height="32" viewBox="0 0 32 32">
  <defs>
    <linearGradient id="linear-gradient" x1="289.9966952" y1="-24.6530665" x2="295.2357468" y2="-24.6530665" gradientTransform="translate(5.9710285 -175.5195424) rotate(90.0296558) scale(.6515471) skewX(.078627)" gradientUnits="userSpaceOnUse">
      <stop offset="0" stop-color="#ffdea0"/>
      <stop offset=".1547921" stop-color="#f0cf91"/>
      <stop offset=".4521036" stop-color="#c9aa6d"/>
      <stop offset=".8582073" stop-color="#8a6e32"/>
      <stop offset="1" stop-color="#73581c"/>
    </linearGradient>
    <radialGradient id="radial-gradient" cx="512.7378122" cy="-39.0374778" fx="512.7378122" fy="-39.0374778" r="27.4672666" gradientTransform="translate(-188.0626 -73.4404) rotate(28.0647822) scale(.4374353 .624906) skewX(.1037942)" gradientUnits="userSpaceOnUse">
      <stop offset="0" stop-color="#ffdea0"/>
      <stop offset=".0080435" stop-color="#fedc9e"/>
      <stop offset=".3050006" stop-color="#edb55a"/>
      <stop offset=".5538701" stop-color="#e09929"/>
      <stop offset=".7422677" stop-color="#d8870b"/>
      <stop offset=".848315" stop-color="#d68100"/>
    </radialGradient>
    <mask id="mask" x="15.4036956" y="19.4179" width="4.9725999" height="5.1601" maskUnits="userSpaceOnUse">
      <polygon points="20.3762954 20.5224 19.6903955 21.2434 19.3405955 19.9701 18.0907955 20.3902 18.0907955 20.3902 18.3063955 19.4179 17.6205955 20.1395 17.1152955 24.1586 20.16 21.4941 20.3762954 20.5224" fill="#fff"/>
    </mask>
    <radialGradient id="radial-gradient-2" cx="18.2625153" cy="20.2167079" fx="18.2625153" fy="20.2167079" r="3.6938315" gradientUnits="userSpaceOnUse">
      <stop offset="0" stop-color="#ffdea0"/>
      <stop offset=".1216866" stop-color="#f0d091"/>
      <stop offset=".354407" stop-color="#cbad6a"/>
      <stop offset=".41573" stop-color="#c1a35f"/>
    </radialGradient>
    <radialGradient id="radial-gradient-3" cx="-997.7268972" cy="-17.1788437" fx="-997.7268972" fy="-17.1788437" r="9.1629742" gradientTransform="translate(-320.0512 -148.8662) rotate(-151.9283976) scale(.3810235 -.4373765) skewX(-.088324)" gradientUnits="userSpaceOnUse">
      <stop offset="0" stop-color="#999"/>
      <stop offset=".0504786" stop-color="#898989"/>
      <stop offset=".2007028" stop-color="#5f5f5f"/>
      <stop offset=".3543074" stop-color="#3d3d3d"/>
      <stop offset=".5095904" stop-color="#222"/>
      <stop offset=".6672868" stop-color="#0f0f0f"/>
      <stop offset=".8287757" stop-color="#030303"/>
      <stop offset="1" stop-color="#000"/>
    </radialGradient>
    <radialGradient id="radial-gradient-4" cx="118.3887333" cy="-17.2352551" fx="118.3887333" fy="-17.2352551" r="9.1594503" gradientTransform="translate(-93.4773 -27.9913) rotate(28.066432) scale(1.0019235 .4373765) skewX(.0313319)" gradientUnits="userSpaceOnUse"><stop offset="0" stop-color="#999"/><stop offset=".0504786" stop-color="#898989"/><stop offset=".2007028" stop-color="#5f5f5f"/><stop offset=".3543074" stop-color="#3d3d3d"/><stop offset=".5095904" stop-color="#222"/><stop offset=".6672868" stop-color="#0f0f0f"/><stop offset=".8287757" stop-color="#030303"/><stop offset="1" stop-color="#000"/></radialGradient>
    <linearGradient id="White_Black" data-name="White, Black" x1="292.0097402" y1="-34.7697657" x2="295.691133" y2="-29.6157819" gradientTransform="translate(-153.653 -60.518823) rotate(28.0714524) scale(.6515471) skewX(.078627)" gradientUnits="userSpaceOnUse">
      <stop offset="0" stop-color="#fff"/>
      <stop offset="1" stop-color="#000"/>
    </linearGradient>
    <linearGradient id="linear-gradient-2" x1="259.8666569" y1="-35.3330334" x2="264.2856086" y2="-35.3330334" gradientTransform="translate(-146.1904 -57.3680188) rotate(28.0637696) scale(.6959235 .6515237) skewX(.0664206)" gradientUnits="userSpaceOnUse">
      <stop offset="0" stop-color="#ccc"/>
      <stop offset=".0646036" stop-color="#cacaca"/>
      <stop offset=".0891761" stop-color="#c3c3c3"/>
      <stop offset=".1069277" stop-color="#b7b7b7"/>
      <stop offset=".1212965" stop-color="#a6a6a6"/>
      <stop offset=".129213" stop-color="#999"/>
      <stop offset=".1363661" stop-color="#a2a2a2"/>
      <stop offset=".153957" stop-color="#b5b5b5"/>
      <stop offset=".1748508" stop-color="#c2c2c2"/>
      <stop offset=".2020002" stop-color="#c9c9c9"/>
      <stop offset=".258427" stop-color="#ccc"/>
      <stop offset=".3265975" stop-color="#cacaca"/>
      <stop offset=".3539575" stop-color="#c2c2c2"/>
      <stop offset=".3739927" stop-color="#b6b6b6"/>
      <stop offset=".3903486" stop-color="#a5a5a5"/>
      <stop offset=".398876" stop-color="#999"/>
      <stop offset=".4052794" stop-color="#9f9f9f"/>
      <stop offset=".4282017" stop-color="#b3b3b3"/>
      <stop offset=".4546022" stop-color="#c1c1c1"/>
      <stop offset=".4872499" stop-color="#c9c9c9"/>
      <stop offset=".544944" stop-color="#ccc"/>
      <stop offset=".592446" stop-color="#c9c9c9"/>
      <stop offset=".6267399" stop-color="#bfbfbf"/>
      <stop offset=".6567881" stop-color="#b0b0b0"/>
      <stop offset=".6843986" stop-color="#999"/>
      <stop offset=".685393" stop-color="#999"/>
      <stop offset=".7146848" stop-color="#adadad"/>
      <stop offset=".7510613" stop-color="#bebebe"/>
      <stop offset=".7902871" stop-color="#c8c8c8"/>
      <stop offset=".837079" stop-color="#ccc"/>
      <stop offset=".8808857" stop-color="#c7c7c7"/>
      <stop offset=".9290745" stop-color="#bababa"/>
      <stop offset=".9791801" stop-color="#a4a4a4"/>
      <stop offset="1" stop-color="#999"/>
    </linearGradient>
    <linearGradient id="White_Black-2" data-name="White, Black" x1="292.0098122" y1="-37.746875" x2="295.6910644" y2="-32.593088" gradientTransform="translate(-153.653 -60.518823) rotate(28.0714524) scale(.6515471) skewX(.078627)" gradientUnits="userSpaceOnUse"><stop offset="0" stop-color="#fff"/><stop offset="1" stop-color="#000"/></linearGradient>
    <radialGradient id="radial-gradient-5" cx="291.5567959" cy="-39.8507175" fx="291.5567959" fy="-39.8507175" r="5.8806172" gradientTransform="translate(-153.653 -60.518823) rotate(28.0714524) scale(.6515471) skewX(.078627)" gradientUnits="userSpaceOnUse">
      <stop offset="0" stop-color="#ff7845"/>
      <stop offset=".0609421" stop-color="#f87241"/>
      <stop offset=".1468911" stop-color="#e66238"/>
      <stop offset=".2476895" stop-color="#c74829"/>
      <stop offset=".3588101" stop-color="#9e2414"/>
      <stop offset=".455056" stop-color="#740000"/>
    </radialGradient>
    <linearGradient id="White_Black-3" data-name="White, Black" x1="9.6803457" y1="10.5806957" x2="9.6803457" y2="30.8922334" gradientTransform="matrix(1,0,0,1,0,0)" gradientUnits="userSpaceOnUse"><stop offset="0" stop-color="#fff"/><stop offset="1" stop-color="#000"/></linearGradient>
    <mask id="mask-1" x="2.3958959" y="6.8674" width="14.8008023" height="23.7423" maskUnits="userSpaceOnUse">
      <rect x="2.3958959" y="6.8674" width="14.5688996" height="23.7423" fill="url(#White_Black-3)"/>
    </mask>
    <linearGradient id="linear-gradient-3" x1="9.7962971" y1="11.6680118" x2="9.7962971" y2="30.8768955" gradientUnits="userSpaceOnUse">
      <stop offset="0" stop-color="#4c8bca"/>
      <stop offset="1" stop-color="#b7e9ff"/>
    </linearGradient>
  </defs>
  <g>
    <path d="M26.5204953,9.5656l.2996-.5633c.2593-.1303.4904-.3217.6702-.5692.0737047-.1035.101-.2345.0717047-.3575-.0228047-.0945-.0737047-.1773-.1466047-.239.0287-.0886.0483-.1812.0593-.2736l.095-.1785c.3739-.7021.1075-1.5742-.5946-1.9486-.7014-.3739-1.5722-.1082-1.9453.594l-.0957953.1796c-.0697047.0594-.1342047.1277-.1929047.202-.0904-.0274-.1888-.0242-.2793.0104-.1185.0449-.2116.1407-.2559.2605-.1062.2866-.1335.5855-.0985.8734l-.2982.5641c-.0854-.0216-.1745-.017-.2579.0142-.1179.0463-.2116.1401-.2559.2599-.1238.3413-.1427.6982-.0718,1.0342l-5.6726999,10.6742.0697.0371-.5053,4.0191,3.0447045-2.6645.0657954-.2924,5.5372999-10.4188c.3184-.1288.6037-.3439.8168-.6369.0741047-.1029.1008-.2345.0716-.3583-.0203-.0866-.0671-.1627-.131-.2221Z" stroke="#000" stroke-linecap="round" stroke-linejoin="round" stroke-width="2"/>
    <rect x="15.2999524" y="13.4812955" width="13.2696861" height="2.877659" transform="translate(-1.5456679 27.2657) rotate(-61.9582034)" fill="url(#linear-gradient)"/>
    <polygon points="19.6187955 21.2063 18.0204955 20.353 24.2494953 8.635 25.849 9.4876 19.6187955 21.2063" fill="url(#radial-gradient)"/>
    <g mask="url(#mask)">
      <g>
        <polygon points="20.3762954 20.5224 19.6903955 21.2434 19.3405955 19.9701 18.0907955 20.3902 18.0907955 20.3902 18.3063955 19.4179 17.6205955 20.1395 17.1152955 24.1586 20.16 21.4941 20.3762954 20.5224" fill="url(#radial-gradient-2)"/>
        <polygon points="16.9932955 24.0251 16.6396955 23.349 17.3294955 22.0503 18.139 23.5939 17.7085955 24.4047 16.9932955 24.0251" fill="url(#radial-gradient-3)"/>
        <polygon points="17.2824955 24.1781 18.9440955 24.578 19.635 23.2794 15.8347956 22.3649 15.4036956 23.1764 17.2824955 24.1781" fill="url(#radial-gradient-4)"/>
      </g>
    </g>
    <path d="M26.6514953,9.7877c-.028-.1236-.1089-.2298-.2214-.2904l-2.5146999-1.3397c-.1121-.0599-.2456-.0677-.3641-.0235-.1179.0463-.2116.1401-.2559.2599-.3219.8772.0572,1.8692.8805,2.3082.8245.4396,1.8581047.2006,2.4039999-.5562.0741047-.1029.1008-.2345.0716-.3583Z" fill="url(#White_Black)"/>
    <path d="M26.6442953,6.0591c-.7496-.3993-1.6589-.1537-2.0312953.5478l-.8285046,1.5573c-.372.7013-.0671,1.593.6812,1.9935.749.3986,1.6582.1544,2.0319999-.5478l.8284-1.5565c.3726-.7014.0671-1.5944-.6818-1.9943Z" fill="url(#linear-gradient-2)"/>
    <path d="M27.562,8.0756c-.0287047-.1258-.1101047-.2306-.2214047-.2899l-2.5127999-1.3403c-.1133-.0613-.2462-.0685-.366-.0235-.1185.0449-.2116.1407-.2559.2605-.3218.8761.0567,1.8679.8811047,2.3075.8232953.4397,1.8561953.1993,2.4032953-.5568.0737047-.1035.101-.2345.0717047-.3575Z" fill="url(#White_Black-2)"/>
    <path d="M26.9750953,5.4359c-.7014-.3739-1.5722-.1082-1.9453.594l-.2482.4669c-.3733.7014-.1069,1.5741.5953,1.9473.7014.3746,1.5715.1089,1.9447-.5926l.2481-.467c.3739-.7021.1075-1.5742-.5946-1.9486Z" fill="url(#radial-gradient-5)"/>
    <path d="M23.1233954,13.8616c-.14.2658-.4748.3641-.7432.2202h0c-.2695-.1433-.3739-.4761-.2325-.7412l.9372-1.765c.1414-.2664.4742-.3648.7444-.2207h0c.2704.1439.3739.476.2326.7424l-.9385,1.7643Z"/>
    <path d="M23.1233954,12.8124l.2956046.157-.0266046.0508c-.0626.1152-.1232.2155-.183.2982-.0561.0756-.118.1414-.1851.1974-.1529.1263-.2799.1616-.3822.1067-.1003-.0533-.1446-.1764-.1329-.3705.0124-.1947.0782-.4006.1941-.6188.1186-.2239.2553-.3945.4096-.5131.1557-.1179.286-.1479.3902-.0931.0553.0299.0937.0827.1165.1575.0208.075.0235.1785.0086.314l-.1616.1184c.0313-.1999.0053-.3223-.0788-.3678-.0767954-.0398-.1699-.0176-.2807954.0671-.1093046.0827-.209.2063-.2962046.3725-.0906.1713-.1381.3269-.1394.4682-.0013.131.0299.213.0911.2469.0542.028.1219.0143.2046-.0384.0834-.0535.1557-.1342.2169046-.2372l-.1785046-.0944.1179-.2214Z" fill="#fff"/>
  </g>
  <path d="M16.8461955,25.0522c-2.4371955.4396-4.4580999,2.7875-7.3894998,1.8327-3.4798999-1.1339-1.6556957-4.6059-.2821-6.7292,2.4448999-3.7774-1.042-12.4305-6.7786998-11.9994" fill="none" opacity=".6" stroke="#000"/>
  <g mask="url(#mask-1)">
    <path d="M16.8865955,25.2743l.0782.4344c-.7862.1412-1.5501.5178-2.3583999.9163-1.511.7451-3.2231999,1.5885-5.3561999.8943-1.1861-.3869-1.9558-1.0564-2.2873999-1.9917-.6532-1.8412.6298-4.1546,1.6517-5.734,1.3221-2.0424,1.1535043-5.7991-.3758-8.375-.7601-1.2805-3.4843999-2.7705-5.7925999-2.5974l-.0502-.6649v22.4534h14.6723996v-5.3354c-.4448,0,.4448,0,0,0h-.1817Z" fill="url(#linear-gradient-3)"/>
  </g>
</svg>