<?xml version="1.0" encoding="UTF-8"?>
<svg id="Set_3" data-name="Set 3" xmlns="http://www.w3.org/2000/svg" width="32" height="32" xmlns:xlink="http://www.w3.org/1999/xlink" viewBox="0 0 32 32">
  <defs>
    <linearGradient id="linear-gradient" x1="13.6254534" y1="24.4494125" x2="5.5620634" y2="16.3860226" gradientUnits="userSpaceOnUse">
      <stop offset="0" stop-color="#fff"/>
      <stop offset="1" stop-color="#d9d9d9"/>
    </linearGradient>
    <linearGradient id="New_Gradient_120" data-name="New Gradient 120" x1="2.557691" y1="17.87175" x2="21.8751906" y2="17.87175" gradientUnits="userSpaceOnUse">
      <stop offset="0" stop-color="#999"/>
      <stop offset=".20224" stop-color="#f2f2f2"/>
      <stop offset=".516861" stop-color="#b2b2b2"/>
      <stop offset=".769669" stop-color="#b2b2b2"/>
      <stop offset="1" stop-color="#737373"/>
    </linearGradient>
    <linearGradient id="New_Gradient_119" data-name="New Gradient 119" x1="24.1886457" y1="19.0115205" x2="17.7563158" y2="25.4438504" gradientUnits="userSpaceOnUse">
      <stop offset="0" stop-color="#4c4c4c"/>
      <stop offset=".623596" stop-color="#d9d9d9"/>
      <stop offset="1" stop-color="#4c4c4c"/>
    </linearGradient>
    <linearGradient id="New_Gradient_118" data-name="New Gradient 118" x1="28.6791372" y1="21.0448852" x2="19.7893101" y2="29.9347124" gradientUnits="userSpaceOnUse">
      <stop offset="0" stop-color="#a70000"/>
      <stop offset=".662918" stop-color="#df4e15"/>
      <stop offset="1" stop-color="#740000"/>
    </linearGradient>
    <linearGradient id="New_Gradient_117" data-name="New Gradient 117" x1="25.5789635" y1="26.1441451" x2="27.5990234" y2="29.3769166" gradientUnits="userSpaceOnUse">
      <stop offset="0" stop-color="#df4e15"/>
      <stop offset="1" stop-color="#c42e00"/>
    </linearGradient>
    <linearGradient id="New_Gradient_116" data-name="New Gradient 116" x1="25.5789635" y1="26.1441451" x2="27.5990234" y2="29.3769166" gradientUnits="userSpaceOnUse">
      <stop offset="0" stop-color="#df4e15"/>
      <stop offset="1" stop-color="#c42e00"/>
    </linearGradient>
    <mask id="mask" x="2.305091" y="2.6236" width="19.5700995" height="21.085" maskUnits="userSpaceOnUse">
      <path d="M12.219,3.1642c5.3327907,0,9.6561906,3.8439,9.6561906,8.5867,0,4.7426-4.3233999,8.588-9.6561906,8.588-5.3354091,0-9.66-3.8454-9.66-8.588C2.559,7.0081,6.8835909,3.1642,12.219,3.1642Z" fill="#fff"/>
    </mask>
    <linearGradient id="New_Gradient_113" data-name="New Gradient 113" x1="2.559" y1="11.75155" x2="21.8751906" y2="11.75155" gradientUnits="userSpaceOnUse">
      <stop offset="0" stop-color="#999"/>
      <stop offset=".219101" stop-color="#b2b2b2"/>
      <stop offset=".466293" stop-color="#b2b2b2"/>
      <stop offset=".769669" stop-color="#f2f2f2"/>
      <stop offset="1" stop-color="#737373"/>
    </linearGradient>
    <mask id="mask-1" x="3.048391" y="5.1384" width="18.3373996" height="18.5702" maskUnits="userSpaceOnUse">
      <path d="M12.219,5.6169c4.7974907,0,8.6882906,3.4623,8.6882906,7.7297,0,4.2698-3.8907999,7.7282-8.6882906,7.7282-4.8026091,0-8.692109-3.4584-8.692109-7.7282,0-4.2674,3.8894999-7.7297,8.692109-7.7297Z" fill="#fff" stroke="#fff" stroke-miterlimit="3.8637" stroke-width=".957"/>
    </mask>
    <linearGradient id="New_Gradient_114" data-name="New Gradient 114" x1="3.526891" y1="13.34585" x2="20.9072906" y2="13.34585" gradientUnits="userSpaceOnUse">
      <stop offset="0" stop-color="#5587c0"/>
      <stop offset=".20787" stop-color="#97bae0"/>
      <stop offset=".865173" stop-color="#b3e0ff"/>
      <stop offset="1" stop-color="#5587c0"/>
    </linearGradient>
    <radialGradient id="New_Gradient_115" data-name="New Gradient 115" cx="45.7230924" cy="14.1743247" fx="45.7230924" fy="14.1743247" r="15.6147522" gradientTransform="translate(-33.7008221 -9.1169) scale(.8903 1.2253)" gradientUnits="userSpaceOnUse">
      <stop offset="0" stop-color="#78dcff"/>
      <stop offset="1" stop-color="#b7e9ff"/>
    </radialGradient>
    <linearGradient id="linear-gradient-2" x1="5.4266226" y1="4.8564812" x2="18.4598917" y2="17.8897503" gradientUnits="userSpaceOnUse">
      <stop offset="0" stop-color="gray"/>
      <stop offset=".187809" stop-color="#82868b"/>
      <stop offset=".5233754" stop-color="#8a99aa"/>
      <stop offset=".9651405" stop-color="#95b7db"/>
      <stop offset="1" stop-color="#97bae0"/>
    </linearGradient>
    <linearGradient id="New_Gradient_112" data-name="New Gradient 112" x1="5.7007326" y1="5.2347578" x2="18.7335052" y2="18.2675305" gradientUnits="userSpaceOnUse">
      <stop offset="0" stop-color="gray"/>
      <stop offset="1" stop-color="#fff"/>
    </linearGradient>
    <mask id="mask-2" x="3.526891" y="7.3670197" width="17.3803996" height="16.3415803" maskUnits="userSpaceOnUse">
      <path d="M9.3558909,7.4146c1.6348-.2736,3.0688999.6603,3.1965999,2.0932.1276,1.4303-1.0968,2.8149-2.7354908,3.0924-1.6359091.2735-3.0675091-.6604-3.1965091-2.0907-.125-1.4328,1.0955091-2.8162,2.7353999-3.0949Z" fill="#fff"/>
    </mask>
  </defs>
  <g>
    <rect x="3.804291" y="14.6283" width="10.6707997" height="10.6708" fill="#9c9c9c" stroke="#858585" stroke-width="2"/>
    <rect x="3.804291" y="14.6283" width="10.6707997" height="10.6708" fill="#fff"/>
    <rect x="5.138191" y="15.9621" width="9.3368998" height="9.337" fill="url(#linear-gradient)"/>
    <rect x="1.1365911" y="11.9606" width="2.6676999" height="2.6677"/>
    <rect x="14.4750907" y="11.9606" width="2.6676999" height="2.6677"/>
    <rect x="14.4750907" y="25.2991" width="2.6676999" height="2.6677"/>
    <rect x="1.1365911" y="25.2991" width="2.6676999" height="2.6677"/>
  </g>
  <g>
    <path d="M28.7762904,25.8748c-1.1985-1.197-2.4892904-2.4866-4.2789999-4.2777-.7491-.7489-1.6217-.9313-2.4279999-.7672l-1.9436-1.9434c1.0994-1.3951,1.7495-3.0884,1.7495-4.9213v-.7763h-.1446c.0886-.4676.1446-.947.1446-1.438,0-.7634-.1238-1.4992-.3335-2.204-.2956906-1.0499-.7934-2.0164-1.4551-2.8632-1.7363-2.4775-4.7908999-4.0601-8.1436998-4.0601C6.7806909,2.6236,2.305091,6.362,2.305091,11.3732c0,.6902.0924,1.3546.253909,1.9903v.6017c0,4.7441,4.3245909,8.5894,9.66,8.5894,1.9226908,0,3.7123907-.5054,5.2181907-1.3704l.0013.0026,2.1361999,2.135c-.1654.8075.0157,1.6816.7672,2.4319,1.7898,1.7897,3.0819999,3.0793,4.2802999,4.2778,1.7559,1.7558,5.9072999-2.4034,4.1540999-4.1567Z" stroke="#000" stroke-linecap="round" stroke-linejoin="round" stroke-width="2"/>
    <g>
      <path d="M2.557691,13.1889c.001309.2515.001309.4937.001309.7763,0,4.7441,4.3245909,8.5894,9.66,8.5894,5.3327907,0,9.6561906-3.8453,9.6561906-8.5894v-.7763H2.557691Z" fill="url(#New_Gradient_120)" fill-rule="evenodd"/>
      <path d="M19.933,18.6937l3.9337905,3.935c2.5139999,2.5154.0234,5.0085-2.4944999,2.4933l-3.9323999-3.9352c-1.6648-1.6621.8284-4.154,2.4931093-2.4931Z" fill="url(#New_Gradient_119)"/>
      <g>
        <path d="M24.4972905,21.5971c1.7897095,1.7911,3.0804999,3.0807,4.2789999,4.2777,1.7532,1.7533-2.3981999,5.9125-4.1540999,4.1567-1.1983-1.1985-2.4904999-2.4881-4.2802999-4.2778-2.6206999-2.6208,1.5345-6.7773,4.1553999-4.1566Z" fill="url(#New_Gradient_118)"/>
        <path d="M20.6206906,22.4152c1.515,1.5162,2.9308999,2.932,3.9949999,3.9963" fill="none" stroke="#ff7845" stroke-linecap="round" stroke-miterlimit="3.8637" stroke-width="1.4356"/>
        <path d="M27.1545904,25.488c1.4276-.1785,2.2585999.6526,1.8365,1.834-.4245,1.1841-1.7298,2.4854-2.9125999,2.9087-1.1827.4221-2.0124904-.409-1.834-1.8367.1798-1.4249,1.4823-2.7276,2.9100999-2.906Z" fill="url(#New_Gradient_117)" stroke="#a70000" stroke-miterlimit="3.8637" stroke-width=".4785"/>
        <path d="M27.1545904,25.488c1.4276-.1785,2.2585999.6526,1.8365,1.834-.4245,1.1841-1.7298,2.4854-2.9125999,2.9087-1.1827.4221-2.0124904-.409-1.834-1.8367.1798-1.4249,1.4823-2.7276,2.9100999-2.906Z" fill="url(#New_Gradient_116)"/>
      </g>
      <g mask="url(#mask)">
        <g>
          <path d="M12.219,3.1642c5.3327907,0,9.6561906,3.8439,9.6561906,8.5867,0,4.7426-4.3233999,8.588-9.6561906,8.588-5.3354091,0-9.66-3.8454-9.66-8.588C2.559,7.0081,6.8835909,3.1642,12.219,3.1642Z" fill="url(#New_Gradient_113)"/>
          <g mask="url(#mask-1)">
            <g>
              <path d="M12.219,5.6169c4.7974907,0,8.6882906,3.4623,8.6882906,7.7297,0,4.2698-3.8907999,7.7282-8.6882906,7.7282-4.8026091,0-8.692109-3.4584-8.692109-7.7282,0-4.2674,3.8894999-7.7297,8.692109-7.7297Z" fill="url(#New_Gradient_114)"/>
              <path d="M12.219,8.2509c4.7974907,0,8.6882906,3.4596,8.6882906,7.7295,0,4.2659-3.8907999,7.7282-8.6882906,7.7282-4.8026091,0-8.692109-3.4623-8.692109-7.7282,0-4.2699,3.8894999-7.7295,8.692109-7.7295Z" fill="url(#New_Gradient_115)"/>
              <path d="M12.219,5.6169c4.7974907,0,8.6882906,3.4623,8.6882906,7.7297,0,4.2698-3.8907999,7.7282-8.6882906,7.7282-4.8026091,0-8.692109-3.4584-8.692109-7.7282,0-4.2674,3.8894999-7.7297,8.692109-7.7297Z" fill="none" stroke="#69c" stroke-miterlimit="3.8637" stroke-width=".957"/>
            </g>
          </g>
          <path d="M11.9428908,2.6236c5.1621999,0,9.6391092,3.7384,9.6391092,8.7496,0,5.011-4.4769093,8.7494-9.6391092,8.7494S2.305091,16.3842,2.305091,11.3732C2.305091,6.362,6.7806909,2.6236,11.9428908,2.6236ZM11.9428908,3.6358c-5.0788908,0-8.9044998,3.6432-8.9044998,7.7374,0,4.0953,3.825609,7.7399,8.9044998,7.7399,5.0787999,0,8.9043998-3.6446,8.9043998-7.7399,0-4.0942-3.8255999-7.7374-8.9043998-7.7374Z" fill="url(#linear-gradient-2)"/>
        </g>
      </g>
      <path d="M12.219,3.0027c5.1607907,0,9.6365906,3.7384,9.6365906,8.7482,0,5.0097-4.4757999,8.7494-9.6365906,8.7494-5.1634091,0-9.641709-3.7397-9.641709-8.7494C2.577291,6.7411,7.0555909,3.0027,12.219,3.0027ZM12.219,4.0135c-5.0801091,0-8.904509,3.6421-8.904509,7.7374,0,4.0967,3.8243999,7.7386,8.904509,7.7386,5.0762907,0,8.9018906-3.6419,8.9018906-7.7386,0-4.0953-3.8255999-7.7374-8.9018906-7.7374Z" fill="url(#New_Gradient_112)"/>
      <g mask="url(#mask-2)">
        <g>
          <path d="M9.3558909,7.4146c1.6348-.2736,3.0688999.6603,3.1965999,2.0932.1276,1.4303-1.0968,2.8149-2.7354908,3.0924-1.6359091.2735-3.0675091-.6604-3.1965091-2.0907-.125-1.4328,1.0955091-2.8162,2.7353999-3.0949Z" fill="#b3e0ff"/>
          <path d="M12.219,8.2509c4.7974907,0,8.6882906,3.4596,8.6882906,7.7295,0,4.2659-3.8907999,7.7282-8.6882906,7.7282-4.8026091,0-8.692109-3.4623-8.692109-7.7282,0-4.2699,3.8894999-7.7295,8.692109-7.7295Z" fill="#fff"/>
        </g>
      </g>
    </g>
  </g>
</svg>