<?xml version='1.0' encoding='UTF-8'?>
<svg xmlns="http://www.w3.org/2000/svg" xmlns:xlink="http://www.w3.org/1999/xlink" id="Set_3" data-name="Set 3" width="32" height="32" viewBox="0 0 32 32">
  <defs>
    <linearGradient id="New_Gradient_87" data-name="New Gradient 87" x1="2.5203935" y1="17.87175" x2="21.837893" y2="17.87175" gradientUnits="userSpaceOnUse">
      <stop offset="0" stop-color="#999"/>
      <stop offset=".20224" stop-color="#f2f2f2"/>
      <stop offset=".516861" stop-color="#b2b2b2"/>
      <stop offset=".769669" stop-color="#b2b2b2"/>
      <stop offset="1" stop-color="#737373"/>
    </linearGradient>
    <linearGradient id="New_Gradient_86" data-name="New Gradient 86" x1="24.1513225" y1="19.0115906" x2="17.7191336" y2="25.4437794" gradientUnits="userSpaceOnUse">
      <stop offset="0" stop-color="#4c4c4c"/>
      <stop offset=".623596" stop-color="#d9d9d9"/>
      <stop offset="1" stop-color="#4c4c4c"/>
    </linearGradient>
    <linearGradient id="New_Gradient_85" data-name="New Gradient 85" x1="28.6418331" y1="21.0449244" x2="19.7521052" y2="29.9346523" gradientUnits="userSpaceOnUse">
      <stop offset="0" stop-color="#a70000"/>
      <stop offset=".662918" stop-color="#df4e15"/>
      <stop offset="1" stop-color="#740000"/>
    </linearGradient>
    <linearGradient id="New_Gradient_84" data-name="New Gradient 84" x1="25.5417183" y1="26.1441527" x2="27.5617751" y2="29.3769193" gradientUnits="userSpaceOnUse">
      <stop offset="0" stop-color="#df4e15"/>
      <stop offset="1" stop-color="#c42e00"/>
    </linearGradient>
    <linearGradient id="New_Gradient_83" data-name="New Gradient 83" x1="25.5417183" y1="26.1441527" x2="27.5617751" y2="29.3769193" gradientUnits="userSpaceOnUse">
      <stop offset="0" stop-color="#df4e15"/>
      <stop offset="1" stop-color="#c42e00"/>
    </linearGradient>
    <mask id="mask" x="2.2677935" y="2.6236" width="19.5700995" height="21.085" maskUnits="userSpaceOnUse">
      <path d="M12.1817932,3.1642c5.3326999,0,9.6560998,3.8439,9.6560998,8.5867,0,4.7426-4.3233999,8.588-9.6560998,8.588-5.3353999,0-9.6599998-3.8454-9.6599998-8.588C2.5217935,7.0081,6.8463934,3.1642,12.1817932,3.1642Z" fill="#fff"/>
    </mask>
    <linearGradient id="New_Gradient_80" data-name="New Gradient 80" x1="2.5217935" y1="11.75155" x2="21.837893" y2="11.75155" gradientUnits="userSpaceOnUse">
      <stop offset="0" stop-color="#999"/>
      <stop offset=".219101" stop-color="#b2b2b2"/>
      <stop offset=".466293" stop-color="#b2b2b2"/>
      <stop offset=".769669" stop-color="#f2f2f2"/>
      <stop offset="1" stop-color="#737373"/>
    </linearGradient>
    <mask id="mask-1" x="3.0110934" y="5.1384" width="18.3374996" height="18.5702" maskUnits="userSpaceOnUse">
      <path d="M12.1817932,5.6169c4.7973999,0,8.6882998,3.4623,8.6882998,7.7297,0,4.2698-3.8908999,7.7282-8.6882998,7.7282-4.8026999,0-8.6921998-3.4584-8.6921998-7.7282,0-4.2674,3.8894999-7.7297,8.6921998-7.7297Z" fill="#fff" stroke="#fff" stroke-miterlimit="3.8637" stroke-width=".957"/>
    </mask>
    <linearGradient id="New_Gradient_81" data-name="New Gradient 81" x1="3.4895934" y1="13.34585" x2="20.870093" y2="13.34585" gradientUnits="userSpaceOnUse">
      <stop offset="0" stop-color="#5587c0"/>
      <stop offset=".20787" stop-color="#97bae0"/>
      <stop offset=".865173" stop-color="#b3e0ff"/>
      <stop offset="1" stop-color="#5587c0"/>
    </linearGradient>
    <radialGradient id="New_Gradient_82" data-name="New Gradient 82" cx="33.8523998" cy="14.1743247" fx="33.8523998" fy="14.1743247" r="15.6148066" gradientTransform="translate(-23.1696221 -9.1169) scale(.8903 1.2253)" gradientUnits="userSpaceOnUse">
      <stop offset="0" stop-color="#78dcff"/>
      <stop offset="1" stop-color="#b7e9ff"/>
    </radialGradient>
    <linearGradient id="linear-gradient" x1="5.3893335" y1="4.8564825" x2="18.4225999" y2="17.889749" gradientUnits="userSpaceOnUse">
      <stop offset="0" stop-color="gray"/>
      <stop offset=".187809" stop-color="#82868b"/>
      <stop offset=".5233754" stop-color="#8a99aa"/>
      <stop offset=".9651405" stop-color="#95b7db"/>
      <stop offset="1" stop-color="#97bae0"/>
    </linearGradient>
    <linearGradient id="New_Gradient_79" data-name="New Gradient 79" x1="5.6634552" y1="5.2347501" x2="18.6962431" y2="18.2675381" gradientUnits="userSpaceOnUse">
      <stop offset="0" stop-color="gray"/>
      <stop offset="1" stop-color="#fff"/>
    </linearGradient>
    <mask id="mask-2" x="3.4895934" y="7.3670197" width="17.3804996" height="16.3415803" maskUnits="userSpaceOnUse">
      <path d="M9.3186933,7.4146c1.6347-.2736,3.0688999.6603,3.1964999,2.0932.1277,1.4303-1.0968,2.8149-2.7353999,3.0924-1.636.2735-3.0675999-.6604-3.1965999-2.0907-.125-1.4328,1.0955-2.8162,2.7354999-3.0949Z" fill="#fff"/>
    </mask>
    <linearGradient id="linear-gradient-2" x1="10.228" y1="9.37625" x2="17.0338931" y2="9.37625" gradientUnits="userSpaceOnUse">
      <stop offset="0" stop-color="#c9ffc9"/>
      <stop offset=".55618" stop-color="#00cd00"/>
      <stop offset="1" stop-color="#23a11f"/>
    </linearGradient>
    <radialGradient id="radial-gradient" cx="6.7340404" cy="11.2094473" fx="6.7340404" fy="11.2094473" r="4.4927824" gradientUnits="userSpaceOnUse">
      <stop offset="0" stop-color="#fff"/>
      <stop offset=".0998635" stop-color="#fdfeff"/>
      <stop offset=".1358351" stop-color="#f6fcff"/>
      <stop offset=".1614737" stop-color="#eaf8ff"/>
      <stop offset=".1821949" stop-color="#d9f3ff"/>
      <stop offset=".1997497" stop-color="#c3ecff"/>
      <stop offset=".207865" stop-color="#b7e9ff"/>
      <stop offset=".426966" stop-color="#3c97f6"/>
      <stop offset=".865173" stop-color="#032c87"/>
      <stop offset="1" stop-color="#0342d3"/>
    </radialGradient>
    <mask id="mask-3" x="8.5192463" y="10.6269117" width="9.9691633" height="8.6698883" maskUnits="userSpaceOnUse">
      <path d="M9.7498933,18.3459c-1.0968,0-1.5437-.7399-.9978933-1.6465l3.2487932-5.3927c.547-.9053,1.4432068-.9066,1.9928999-.0026l3.2643068,5.3849c.547.904.099,1.6465-.9952069,1.6478l-6.5128998.0091Z" fill="#fff"/>
    </mask>
    <linearGradient id="linear-gradient-3" x1="8.5192463" y1="14.4864059" x2="17.4913587" y2="14.4864059" gradientUnits="userSpaceOnUse">
      <stop offset="0" stop-color="#f3403f"/>
      <stop offset=".3789338" stop-color="#d02a27"/>
      <stop offset=".7765172" stop-color="#b11713"/>
      <stop offset="1" stop-color="#a6100c"/>
    </linearGradient>
    <radialGradient id="radial-gradient-2" cx="13.0053025" cy="11.2840659" fx="13.0053025" fy="11.2840659" r="4.1226478" gradientTransform="translate(0 2.7916) scale(1 1.0364)" gradientUnits="userSpaceOnUse">
      <stop offset=".005618" stop-color="#ffffb3"/>
      <stop offset="1" stop-color="#d68100"/>
    </radialGradient>
    <linearGradient id="linear-gradient-4" x1="9.7350276" y1="18.9210317" x2="18.7085863" y2="18.9210317" gradientTransform="translate(-.2445 -1.9860164) scale(1 .9216)" gradientUnits="userSpaceOnUse"><stop offset="0" stop-color="#f3403f"/><stop offset=".3789338" stop-color="#d02a27"/><stop offset=".7765172" stop-color="#b11713"/><stop offset="1" stop-color="#a6100c"/></linearGradient>
  </defs>
  <g>
    <path d="M28.739,25.8748c-1.1985072-1.197-2.4892071-2.4866-4.279-4.2777-.7491071-.7489-1.621707-.9313-2.428-.7672l-1.943607-1.9434c1.0994-1.3951,1.7495-3.0884,1.7495-4.9213v-.7763h-.1446c.0886-.4676.1446-.947.1446-1.438,0-.7634-.1238-1.4992-.3334-2.204-.2958-1.0499-.7934-2.0164-1.4551-2.8632-1.7363-2.4775-4.7909999-4.0601-8.1436998-4.0601C6.7433934,2.6236,2.2677935,6.362,2.2677935,11.3732c0,.6902.0924,1.3546.254,1.9903v.6017c0,4.7441,4.3245999,8.5894,9.6599998,8.5894,1.9226,0,3.7123999-.5054,5.2180999-1.3704l.0014.0026,2.1360999,2.135c-.165393.8075.0158,1.6816.7673,2.4319,1.7897,1.7897,3.0819999,3.0793,4.280307,4.2778,1.7558929,1.7558,5.9071928-2.4034,4.154-4.1567Z" stroke="#000" stroke-linecap="round" stroke-linejoin="round" stroke-width="2"/>
    <g>
      <path d="M2.5203935,13.1889c.0014.2515.0014.4937.0014.7763,0,4.7441,4.3245999,8.5894,9.6599998,8.5894,5.3326999,0,9.6560998-3.8453,9.6560998-8.5894v-.7763H2.5203935Z" fill="url(#New_Gradient_87)" fill-rule="evenodd"/>
      <path d="M19.895693,18.6937l3.9337999,3.935c2.5139999,2.5154.0235071,5.0085-2.4943999,2.4933l-3.9324999-3.9352c-1.6648-1.6621.8285-4.154,2.4930999-2.4931Z" fill="url(#New_Gradient_86)"/>
      <g>
        <path d="M24.46,21.5971c1.7897929,1.7911,3.0804928,3.0807,4.279,4.2777,1.7531928,1.7533-2.3981071,5.9125-4.154,4.1567-1.1983071-1.1985-2.490607-2.4881-4.280307-4.2778-2.6207999-2.6208,1.5344-6.7773,4.155307-4.1566Z" fill="url(#New_Gradient_85)"/>
        <path d="M20.583393,22.4152c1.515,1.5162,2.9308999,2.932,3.9950999,3.9963" fill="none" stroke="#ff7845" stroke-linecap="round" stroke-miterlimit="3.8637" stroke-width="1.4356"/>
        <path d="M27.1172928,25.488c1.4276-.1785,2.2585999.6526,1.8366,1.834-.4246,1.1841-1.7298928,2.4854-2.9125999,2.9087-1.1827.4221-2.0124999-.409-1.8341-1.8367.1799-1.4249,1.4824-2.7276,2.9100999-2.906Z" fill="url(#New_Gradient_84)" stroke="#a70000" stroke-miterlimit="3.8637" stroke-width=".4785"/>
        <path d="M27.1172928,25.488c1.4276-.1785,2.2585999.6526,1.8366,1.834-.4246,1.1841-1.7298928,2.4854-2.9125999,2.9087-1.1827.4221-2.0124999-.409-1.8341-1.8367.1799-1.4249,1.4824-2.7276,2.9100999-2.906Z" fill="url(#New_Gradient_83)"/>
      </g>
      <g mask="url(#mask)">
        <g>
          <path d="M12.1817932,3.1642c5.3326999,0,9.6560998,3.8439,9.6560998,8.5867,0,4.7426-4.3233999,8.588-9.6560998,8.588-5.3353999,0-9.6599998-3.8454-9.6599998-8.588C2.5217935,7.0081,6.8463934,3.1642,12.1817932,3.1642Z" fill="url(#New_Gradient_80)"/>
          <g mask="url(#mask-1)">
            <g>
              <path d="M12.1817932,5.6169c4.7973999,0,8.6882998,3.4623,8.6882998,7.7297,0,4.2698-3.8908999,7.7282-8.6882998,7.7282-4.8026999,0-8.6921998-3.4584-8.6921998-7.7282,0-4.2674,3.8894999-7.7297,8.6921998-7.7297Z" fill="url(#New_Gradient_81)"/>
              <path d="M12.1817932,8.2509c4.7973999,0,8.6882998,3.4596,8.6882998,7.7295,0,4.2659-3.8908999,7.7282-8.6882998,7.7282-4.8026999,0-8.6921998-3.4623-8.6921998-7.7282,0-4.2699,3.8894999-7.7295,8.6921998-7.7295Z" fill="url(#New_Gradient_82)"/>
              <path d="M12.1817932,5.6169c4.7973999,0,8.6882998,3.4623,8.6882998,7.7297,0,4.2698-3.8908999,7.7282-8.6882998,7.7282-4.8026999,0-8.6921998-3.4584-8.6921998-7.7282,0-4.2674,3.8894999-7.7297,8.6921998-7.7297Z" fill="none" stroke="#69c" stroke-miterlimit="3.8637" stroke-width=".957"/>
            </g>
          </g>
          <path d="M11.9056932,2.6236c5.1620999,0,9.6389998,3.7384,9.6389998,8.7496,0,5.011-4.4768999,8.7494-9.6389998,8.7494-5.1622999,0-9.6378998-3.7384-9.6378998-8.7494C2.2677935,6.362,6.7433934,2.6236,11.9056932,2.6236ZM11.9056932,3.6358c-5.0788999,0-8.9045998,3.6432-8.9045998,7.7374,0,4.0953,3.8256999,7.7399,8.9045998,7.7399,5.0786999,0,8.9043998-3.6446,8.9043998-7.7399,0-4.0942-3.8256999-7.7374-8.9043998-7.7374Z" fill="url(#linear-gradient)"/>
        </g>
      </g>
      <path d="M12.1817932,3.0027c5.1607999,0,9.6364998,3.7384,9.6364998,8.7482,0,5.0097-4.4756999,8.7494-9.6364998,8.7494-5.1634999,0-9.6417932-3.7397-9.6417932-8.7494C2.54,6.7411,7.0182934,3.0027,12.1817932,3.0027ZM12.1817932,4.0135c-5.0800999,0-8.9044998,3.6421-8.9044998,7.7374,0,4.0967,3.8243999,7.7386,8.9044998,7.7386,5.0762068,0,8.9017998-3.6419,8.9017998-7.7386,0-4.0953-3.825593-7.7374-8.9017998-7.7374Z" fill="url(#New_Gradient_79)"/>
      <g mask="url(#mask-2)">
        <g>
          <path d="M9.3186933,7.4146c1.6347-.2736,3.0688999.6603,3.1964999,2.0932.1277,1.4303-1.0968,2.8149-2.7353999,3.0924-1.636.2735-3.0675999-.6604-3.1965999-2.0907-.125-1.4328,1.0955-2.8162,2.7354999-3.0949Z" fill="#b3e0ff"/>
          <path d="M12.1817932,8.2509c4.7973999,0,8.6882998,3.4596,8.6882998,7.7295,0,4.2659-3.8908999,7.7282-8.6882998,7.7282-4.8026999,0-8.6921998-3.4623-8.6921998-7.7282,0-4.2699,3.8894999-7.7295,8.6921998-7.7295Z" fill="#fff"/>
        </g>
      </g>
    </g>
  </g>
  <g opacity=".75">
    <g>
      <rect x="10.228" y="6.5287" width="6.8058931" height="5.6951" fill="#fff" stroke="#000" stroke-width="2"/>
      <rect x="10.228" y="6.5287" width="6.8058931" height="5.6951" fill="url(#linear-gradient-2)"/>
    </g>
    <g>
      <path d="M11.4666932,12.5963c0,1.6777-1.36,3.035-3.0349999,3.035-1.6778,0-3.0389999-1.3573-3.0389999-3.035s1.3612-3.0377,3.0389999-3.0377c1.675,0,3.0349999,1.36,3.0349999,3.0377Z" fill="#24972f" stroke="#000" stroke-width="2"/>
      <path d="M11.4666932,12.6953c0,1.7337-1.4055,3.1379-3.1379999,3.1379-1.7299,0-3.1353999-1.4042-3.1353999-3.1379,0-1.7324,1.4055-3.1367,3.1353999-3.1367,1.7325,0,3.1379999,1.4043,3.1379999,3.1367Z" fill="url(#radial-gradient)"/>
    </g>
    <g>
      <path d="M9.7498933,18.3459c-1.0968,0-1.5437-.7399-.9978933-1.6465l3.2487932-5.3927c.547-.9053,1.4432068-.9066,1.9928999-.0026l3.2643068,5.3849c.547.904.099,1.6465-.9952069,1.6478l-6.5128998.0091Z" fill="none" stroke="#000" stroke-width="2"/>
      <g mask="url(#mask-3)">
        <g>
          <path d="M9.7498933,18.3459c-1.0968,0-1.5437-.7399-.9978933-1.6465l3.2487932-5.3927c.547-.9053,1.4432068-.9066,1.9928999-.0026l3.2643068,5.3849c.547.904.099,1.6465-.9952069,1.6478l-6.5128998.0091Z" fill="url(#linear-gradient-3)"/>
          <path d="M9.7498933,18.3459c-1.0968,0-1.5437-.7399-.9978933-1.6465l3.2487932-5.3927c.547-.9053,1.4432068-.9066,1.9928999-.0026l3.2643068,5.3849c.547.904.099,1.6465-.9952069,1.6478l-6.5128998.0091Z" fill="url(#radial-gradient-2)"/>
          <path d="M10.7462933,19.2968c-1.0955,0-1.5462-.7399-.9977-1.6479l3.2511999-5.3926c.5458-.9053,1.4419-.9079,1.9915999-.0013l3.2629999,5.3849c.5485.9039.099,1.6465-.9952,1.6465l-6.5128998.0104Z" fill="url(#linear-gradient-4)"/>
        </g>
      </g>
    </g>
  </g>
</svg>