<?xml version="1.0" encoding="UTF-8"?>
<svg id="Set_2" data-name="Set 2" xmlns="http://www.w3.org/2000/svg" width="32" height="32" viewBox="0 0 32 32">
  <g>
    <g>
      <polygon points="5.0387974 9.2308 5.0387974 23.9031 6.3726974 23.9031 26.3803969 23.9031 26.3803969 10.5646 26.3803969 9.2308 5.0387974 9.2308" fill="#555"/>
      <polygon points="5.0387974 9.2308 5.0387974 23.9031 6.3726974 23.9031 26.3803969 23.9031 26.3803969 10.5646 26.3803969 9.2308 5.0387974 9.2308" fill="none" stroke="#555" stroke-width="2"/>
    </g>
    <rect x="5.0387974" y="9.2308" width="21.3415995" height="14.6723" fill="#fff"/>
    <rect x="6.3726974" y="10.5646" width="20.0076995" height="13.3385" fill="silver"/>
    <rect x="6.3726974" y="10.5646" width="18.6738995" height="12.0047" fill="#d7d7d7"/>
  </g>
  <g opacity=".75">
    <path d="M13.1571972,19.7968c-1.4589,0-2.4689999-1.302-2.4689999-3.2253,0-2.0184,1.0759-3.3385,2.5438999-3.3385,1.5077,0,2.4774999,1.33,2.4774999,3.2161,0,2.1785-1.1495,3.3477-2.5431999,3.3477h-.0092ZM13.191,19.1272c1.1248972,0,1.7610972-1.1977,1.7610972-2.6409,0-1.2636-.5710972-2.5838-1.7532-2.5838-1.1827,0-1.7688972,1.2733-1.7688972,2.6502,0,1.3391.6362973,2.5745,1.7525972,2.5745h.0084028Z"/>
    <path d="M17.2478971,13.3372h.8213v3.0644h.028c.1701-.2449.34-.4715.4997-.6794l1.9427-2.385h1.0187l-2.3009999,2.697,2.4799999,3.6584h-.9717l-2.0827999-3.1211-.6136.6976v2.4235h-.8213v-6.3554Z"/>
  </g>
</svg>