<?xml version="1.0" encoding="UTF-8"?>
<svg id="Set_2" data-name="Set 2" xmlns="http://www.w3.org/2000/svg" width="32" height="32" viewBox="0 0 32 32">
  <g>
    <g>
      <polygon points="27.7736928 22.5817 27.7736928 11.9109 26.4397929 11.9109 5.1008934 11.9109 5.1008934 21.2479 5.1008934 22.5817 27.7736928 22.5817" fill="#555"/>
      <polygon points="27.7736928 22.5817 27.7736928 11.9109 26.4397929 11.9109 5.1008934 11.9109 5.1008934 21.2479 5.1008934 22.5817 27.7736928 22.5817" fill="none" stroke="#555" stroke-width="2"/>
    </g>
    <rect x="5.1008934" y="11.9109" width="22.6754994" height="10.6682" fill="silver"/>
    <rect x="6.4347934" y="13.2448" width="21.3402066" height="9.3356" fill="#fff"/>
  </g>
  <g>
    <path d="M9.7745933,19.2125l-.6539,1.9793h-.8402l2.1388999-6.2928h.9795l2.1478999,6.2928h-.8687l-.6720932-1.9793h-2.2314067ZM11.8378932,18.5775l-.6253-1.8112c-.1302-.411-.224-.7842-.3177-1.1489h-.0275c-.0846.3647-.1875.7568-.3087,1.1391l-.6161,1.821h1.8953Z" fill="#4d4d4d"/>
    <path d="M14.4716932,14.9922c.3543068-.084.9236-.14,1.4837-.14.8128,0,1.3352.14,1.7181.4572.3269.2429.5327.6168.5327,1.1111,0,.6168-.4101931,1.1489-1.0641931,1.382v.028c.5978931.1401,1.2973931.6351,1.2973931,1.5684,0,.5418-.2149.9528-.5418,1.2609-.4285931.4012-1.1385931.5881-2.1662999.5881-.5601,0-.9887-.0371-1.2596-.075v-6.1807ZM15.2831931,17.5694h.7386c.8493,0,1.3533-.4579,1.3533-1.065,0-.7281-.5509-1.027-1.3728-1.027-.3725,0-.5875.028-.7191.056v2.036ZM15.2831931,20.5757c.1681.0281.3921.0371.6826.0371.8402069,0,1.6151-.308,1.6151-1.2231,0-.8493-.7385-1.214-1.6255-1.214h-.6722v2.4Z" fill="#4d4d4d"/>
  </g>
  <g opacity=".9">
    <path d="M22.441,21.2036c.003793.3452.005193.5171.007793.861,1.0407.3204.0064.4155,2.657207.5171-.0859071-.3843-.1302071-.5757-.2162071-.9586-2.5751999-.1095-1.4394-.0978-2.4487929-.4195ZM18.4393931,22.5322c2.6507999-.1016,1.6152-.1915,2.6559999-.5119.0038-.3439.0078-.5158.0117-.861-1.0095.3231.1251.3048-2.4514999.4142-.0859.383-.129.5744-.2162.9587Z"/>
    <path d="M21.107093,14.6229c-.0039-.3452-.0052-.5171-.0079-.861-1.0406-.3204-.0064-.4155-2.6570999-.5171.0859069.3842.1302.5757.2162.9587,2.5750999.1094,1.4393.0977,2.4487999.4194ZM25.1086929,13.2448c-2.6507999.1016-1.6152.1967-2.6559999.5171-.0039.3439-.0079.5158-.011693.861,1.0093929-.3231-.125-.31,2.4513929-.4194.0859-.383.129-.5745.2163-.9587Z"/>
    <path d="M21.107093,21.2479h1.333907v-6.6693h-1.333907v6.6693Z"/>
  </g>
</svg>