<?xml version="1.0" encoding="UTF-8"?>
<svg id="Set_1" data-name="Set 1" xmlns="http://www.w3.org/2000/svg" width="32" height="32" xmlns:xlink="http://www.w3.org/1999/xlink" viewBox="0 0 32 32">
  <defs>
    <mask id="mask" x="2.6056902" y="2.7343" width="23.2385995" height="27.3719" maskUnits="userSpaceOnUse">
      <path d="M18.6831898,29.1049l-15.0747996.0013-.0027-25.3719,21.2385995.0014-.0104,19.7414c0,2.6807-3.2902999,5.6278-6.1506998,5.6278Z" fill="#fff" fill-rule="evenodd" stroke="#fff" stroke-linecap="round" stroke-linejoin="round" stroke-width="2"/>
    </mask>
    <linearGradient id="New_Gradient_11" data-name="New Gradient 11" x1="7.1867692" y1="1.9876911" x2="21.2198893" y2="30.7598511" gradientUnits="userSpaceOnUse">
      <stop offset="0" stop-color="#e5e5e5"/>
      <stop offset="1" stop-color="#fff"/>
    </linearGradient>
    <radialGradient id="New_Gradient_13" data-name="New Gradient 13" cx="-17.6526714" cy="33.331824" fx="-17.6526714" fy="33.331824" r="6.98658" gradientTransform="translate(35.9062 -8.7820114) scale(1.0313 .9421)" gradientUnits="userSpaceOnUse">
      <stop offset="0" stop-color="#fff"/>
      <stop offset="1" stop-color="#ccc"/>
    </radialGradient>
    <mask id="mask-1" x="3.6056902" y="3.7343" width="21.2724995" height="25.467" maskUnits="userSpaceOnUse">
      <path d="M18.6831898,29.1049l-15.0747996.0013-.0027-25.3719,21.2385995.0014-.0104,19.7414c0,2.6807-3.2902999,5.6278-6.1506998,5.6278Z" fill="#fff" fill-rule="evenodd"/>
    </mask>
    <linearGradient id="New_Gradient_3" data-name="New Gradient 3" x1="7.1867692" y1="1.9876911" x2="21.2198893" y2="30.7598511" gradientUnits="userSpaceOnUse">
      <stop offset="0" stop-color="#e5e5e5"/>
      <stop offset=".286514" stop-color="#f2f2f2"/>
      <stop offset=".646072" stop-color="#fff"/>
      <stop offset="1" stop-color="#fff"/>
    </linearGradient>
    <radialGradient id="New_Gradient_7" data-name="New Gradient 7" cx="-17.6526714" cy="33.331824" fx="-17.6526714" fy="33.331824" r="6.98658" gradientTransform="translate(35.9062 -8.7820114) scale(1.0313 .9421)" gradientUnits="userSpaceOnUse">
      <stop offset="0" stop-color="#e5e5e5"/>
      <stop offset=".331467" stop-color="#e5e5e5"/>
      <stop offset="1" stop-color="#999"/>
    </radialGradient>
    <linearGradient id="New_Gradient_371" data-name="New Gradient 371" x1="10.57589" y1="17.8945" x2="24.8182897" y2="17.8945" gradientUnits="userSpaceOnUse">
      <stop offset="0" stop-color="#999"/>
      <stop offset=".20224" stop-color="#f2f2f2"/>
      <stop offset=".516861" stop-color="#b2b2b2"/>
      <stop offset=".769669" stop-color="#b2b2b2"/>
      <stop offset="1" stop-color="#737373"/>
    </linearGradient>
    <linearGradient id="New_Gradient_376" data-name="New Gradient 376" x1="26.5241477" y1="18.7347127" x2="21.7821024" y2="23.476758" gradientUnits="userSpaceOnUse">
      <stop offset="0" stop-color="#4c4c4c"/>
      <stop offset=".623596" stop-color="#d9d9d9"/>
      <stop offset="1" stop-color="#4c4c4c"/>
    </linearGradient>
    <linearGradient id="New_Gradient_377" data-name="New Gradient 377" x1="29.8343255" y1="20.233827" x2="23.2792102" y2="26.7889424" gradientUnits="userSpaceOnUse">
      <stop offset="0" stop-color="#a70000"/>
      <stop offset=".662918" stop-color="#df4e15"/>
      <stop offset="1" stop-color="#740000"/>
    </linearGradient>
    <linearGradient id="New_Gradient_146" data-name="New Gradient 146" x1="27.5483842" y1="23.993285" x2="29.0379717" y2="26.3771233" gradientUnits="userSpaceOnUse">
      <stop offset="0" stop-color="#df4e15"/>
      <stop offset="1" stop-color="#c42e00"/>
    </linearGradient>
    <linearGradient id="New_Gradient_378" data-name="New Gradient 378" x1="27.5483842" y1="23.993285" x2="29.0379717" y2="26.3771233" gradientUnits="userSpaceOnUse">
      <stop offset="0" stop-color="#df4e15"/>
      <stop offset="1" stop-color="#c42e00"/>
    </linearGradient>
    <mask id="mask-2" x="10.38949" y="6.6521" width="14.4287996" height="15.5458" maskUnits="userSpaceOnUse">
      <path d="M17.6983899,7.0508c3.9311999,0,7.1198998,2.8345,7.1198998,6.3312,0,3.4961-3.1886999,6.3305-7.1198998,6.3305-3.9337999,0-7.1211998-2.8344-7.1211998-6.3305,0-3.4967,3.1873999-6.3312,7.1211998-6.3312Z" fill="#fff"/>
    </mask>
    <linearGradient id="New_Gradient_372" data-name="New Gradient 372" x1="10.57719" y1="13.38165" x2="24.8182897" y2="13.38165" gradientUnits="userSpaceOnUse">
      <stop offset="0" stop-color="#999"/>
      <stop offset=".219101" stop-color="#b2b2b2"/>
      <stop offset=".466293" stop-color="#b2b2b2"/>
      <stop offset=".769669" stop-color="#f2f2f2"/>
      <stop offset="1" stop-color="#737373"/>
    </linearGradient>
    <mask id="mask-3" x="10.81109" y="8.3809" width="13.7719997" height="13.817" maskUnits="userSpaceOnUse">
      <path d="M17.6983899,8.8594c3.5378999,0,6.4061998,2.5525,6.4061998,5.6989,0,3.1476-2.8682999,5.6981-6.4061998,5.6981-3.5404999,0-6.4087998-2.5505-6.4087998-5.6981,0-3.1464,2.8682999-5.6989,6.4087998-5.6989Z" fill="#fff" stroke="#fff" stroke-miterlimit="3.8637" stroke-width=".957"/>
    </mask>
    <linearGradient id="New_Gradient_373" data-name="New Gradient 373" x1="11.28959" y1="14.5579" x2="24.1045897" y2="14.5579" gradientUnits="userSpaceOnUse">
      <stop offset="0" stop-color="#5587c0"/>
      <stop offset=".20787" stop-color="#97bae0"/>
      <stop offset=".865173" stop-color="#b3e0ff"/>
      <stop offset="1" stop-color="#5587c0"/>
    </linearGradient>
    <radialGradient id="New_Gradient_374" data-name="New Gradient 374" cx="57.3586151" cy="63.3271036" fx="57.3586151" fy="63.3271036" r="11.5129663" gradientTransform="translate(-37.2112221 -66.7937) scale(.8903 1.2253)" gradientUnits="userSpaceOnUse">
      <stop offset="0" stop-color="#78dcff"/>
      <stop offset="1" stop-color="#b7e9ff"/>
    </radialGradient>
    <linearGradient id="linear-gradient" x1="12.6909374" y1="8.2985448" x2="22.3001481" y2="17.9077555" gradientUnits="userSpaceOnUse">
      <stop offset="0" stop-color="gray"/>
      <stop offset=".187809" stop-color="#82868b"/>
      <stop offset=".5233754" stop-color="#8a99aa"/>
      <stop offset=".9651405" stop-color="#95b7db"/>
      <stop offset="1" stop-color="#97bae0"/>
    </linearGradient>
    <linearGradient id="New_Gradient_375" data-name="New Gradient 375" x1="12.8936328" y1="8.5774636" x2="22.5024412" y2="18.1862721" gradientUnits="userSpaceOnUse">
      <stop offset="0" stop-color="gray"/>
      <stop offset="1" stop-color="#fff"/>
    </linearGradient>
    <mask id="mask-4" x="11.28959" y="10.1495602" width="12.8149997" height="12.0483398" maskUnits="userSpaceOnUse">
      <path d="M15.5868899,10.1849c1.2075-.2027,2.2625999.4871,2.3576999,1.5428.0938,1.0544-.8088,2.0758-2.0149999,2.2802-1.2089.2018-2.2626999-.4878-2.3577999-1.5423-.0937-1.0557.8076-2.0756,2.0150999-2.2807Z" fill="#fff"/>
    </mask>
  </defs>
  <g>
    <g>
      <g mask="url(#mask)">
        <g>
          <path d="M18.6831898,29.1049l-15.0747996.0013-.0027-25.3719,21.2385995.0014-.0104,19.7414c0,2.6807-3.2902999,5.6278-6.1506998,5.6278Z" fill="url(#New_Gradient_11)" fill-rule="evenodd"/>
          <path d="M17.701,29.2s3.5208898-.1232,3.5221898-3.6909c3.6238102.0006,3.6549999-2.8892,3.6549999-2.8892l-.0025,6.5814-7.1746897-.0013Z" fill="url(#New_Gradient_13)" fill-rule="evenodd"/>
          <path d="M18.6831898,29.1049l-15.0747996.0013-.0027-25.3719,21.2385995.0014-.0104,19.7414c0,2.6807-3.2902999,5.6278-6.1506998,5.6278Z" fill="none" fill-rule="evenodd" stroke="#000" stroke-linecap="round" stroke-linejoin="round" stroke-width="2"/>
        </g>
      </g>
      <g mask="url(#mask-1)">
        <g>
          <path d="M18.6831898,29.1049l-15.0747996.0013-.0027-25.3719,21.2385995.0014-.0104,19.7414c0,2.6807-3.2902999,5.6278-6.1506998,5.6278Z" fill="url(#New_Gradient_3)" fill-rule="evenodd"/>
          <path d="M17.701,29.2s2.4474898-.8981,2.4488898-4.4679c3.6237999-.0007,4.7282999-2.1122,4.7282999-2.1122l-.0025,6.5814-7.1746897-.0013Z" fill="url(#New_Gradient_7)" fill-rule="evenodd"/>
        </g>
      </g>
    </g>
    <g>
      <line x1="6.4048901" y1="12.8433" x2="11.175" y2="12.8433" fill="none" stroke="#999" stroke-linecap="round" stroke-miterlimit="3.8637" stroke-width=".7125"/>
      <line x1="17.4170899" y1="8.8418" x2="22.1857897" y2="8.8418" fill="none" stroke="#999" stroke-linecap="round" stroke-miterlimit="3.8637" stroke-width=".7125"/>
      <line x1="13.9273899" y1="12.8433" x2="22.1857897" y2="12.8433" fill="none" stroke="#999" stroke-linecap="round" stroke-miterlimit="3.8637" stroke-width=".7125"/>
      <line x1="6.2042901" y1="24.848" x2="18.0565898" y2="24.848" fill="none" stroke="#999" stroke-linecap="round" stroke-miterlimit="3.8637" stroke-width=".7125"/>
      <line x1="6.4048901" y1="16.8449" x2="10.25669" y2="16.8449" fill="none" stroke="#999" stroke-linecap="round" stroke-miterlimit="3.8637" stroke-width=".7125"/>
      <line x1="12.522" y1="16.8449" x2="16.3736899" y2="16.8449" fill="none" stroke="#999" stroke-linecap="round" stroke-miterlimit="3.8637" stroke-width=".7125"/>
      <line x1="17.9041898" y1="16.8449" x2="22.1857897" y2="16.8449" fill="none" stroke="#999" stroke-linecap="round" stroke-miterlimit="3.8637" stroke-width=".7125"/>
      <line x1="6.4048901" y1="20.8465" x2="12.70429" y2="20.8465" fill="none" stroke="#999" stroke-linecap="round" stroke-miterlimit="3.8637" stroke-width=".7125"/>
      <line x1="14.4626899" y1="20.8465" x2="22.492" y2="20.8465" fill="none" stroke="#999" stroke-linecap="round" stroke-miterlimit="3.8637" stroke-width=".7125"/>
    </g>
  </g>
  <g>
    <path d="M29.9062895,23.7956c-.8831-.8831-1.8354-1.834-3.1549999-3.1543-.5522-.5517-1.1956-.6864-1.7897-.5659l-1.4328-1.4329c.8101-1.027,1.2895-2.2769,1.2895-3.6276v-.5732h-.108c.0664-.3452.108-.6983.108-1.0597,0-.5633-.0911-1.1053-.2462-1.6249-.2174-.7751-.5848-1.487-1.072-2.1109-1.2804-1.8263-3.5325999-2.9941-6.0048998-2.9941-3.8060999,0-7.1056998,2.757-7.1056998,6.4506,0,.5092.0691.9997.1864,1.4685.0013.1434.0013.2828.0013.4437,0,3.4973,3.1873999,6.3324,7.1211998,6.3324,1.4199,0,2.7380999-.3739,3.8478999-1.0101v.0013l1.576,1.5741c-.1224.5953.0104,1.2401.5641,1.7931,1.3208,1.3194,2.2729999,2.2697,3.1574999,3.1542,1.2935,1.2941,4.3544999-1.7715,3.0623999-3.0643Z" stroke="#000" stroke-linecap="round" stroke-linejoin="round" stroke-width="2"/>
    <g>
      <path d="M10.57589,14.4417c0,.1855.0013.3647.0013.5732,0,3.4973,3.1873999,6.3324,7.1211998,6.3324,3.9311999,0,7.1198998-2.8351,7.1198998-6.3324v-.5732h-14.2423996Z" fill="url(#New_Gradient_371)" fill-rule="evenodd"/>
      <path d="M23.3854897,18.5005l2.9021999,2.9008c1.8523104,1.8557.0156,3.6936-1.8406,1.8374l-2.8994999-2.9002c-1.2258-1.2258.6122-3.063,1.8379-1.838Z" fill="url(#New_Gradient_376)"/>
      <g>
        <path d="M26.7512896,20.6413c1.3196,1.3203,2.2718999,2.2712,3.1549999,3.1543,1.2921,1.2928-1.7689,4.3584-3.0623999,3.0643-.8845-.8845-1.8367-1.8348-3.1574999-3.1542-1.9318-1.9324,1.1319-4.9967,3.0648999-3.0644Z" fill="url(#New_Gradient_377)"/>
        <path d="M23.8921897,21.2445c1.1189,1.1176,2.1609999,2.1609,2.9464999,2.9458" fill="none" stroke="#ff7845" stroke-linecap="round" stroke-miterlimit="3.8637" stroke-width="1.4356"/>
        <path d="M28.7104896,23.5096c1.0524-.1308,1.6647.4814,1.3533,1.3528-.3125.8728-1.2737895,1.8314-2.1464999,2.144-.8728.3107-1.4837-.3015-1.3522-1.3539.1316-1.0513,1.0929104-2.0119,2.1453999-2.1429Z" fill="url(#New_Gradient_146)" stroke="#a70000" stroke-miterlimit="3.8637" stroke-width=".4785"/>
        <path d="M28.7104896,23.5096c1.0524-.1308,1.6647.4814,1.3533,1.3528-.3125.8728-1.2737895,1.8314-2.1464999,2.144-.8728.3107-1.4837-.3015-1.3522-1.3539.1316-1.0513,1.0929104-2.0119,2.1453999-2.1429Z" fill="url(#New_Gradient_378)"/>
      </g>
      <g mask="url(#mask-2)">
        <g>
          <path d="M17.6983899,7.0508c3.9311999,0,7.1198998,2.8345,7.1198998,6.3312,0,3.4961-3.1886999,6.3305-7.1198998,6.3305-3.9337999,0-7.1211998-2.8344-7.1211998-6.3305,0-3.4967,3.1873999-6.3312,7.1211998-6.3312Z" fill="url(#New_Gradient_372)"/>
          <g mask="url(#mask-3)">
            <g>
              <path d="M17.6983899,8.8594c3.5378999,0,6.4061998,2.5525,6.4061998,5.6989,0,3.1476-2.8682999,5.6981-6.4061998,5.6981-3.5404999,0-6.4087998-2.5505-6.4087998-5.6981,0-3.1464,2.8682999-5.6989,6.4087998-5.6989Z" fill="url(#New_Gradient_373)"/>
              <path d="M17.6983899,10.801c3.5378999,0,6.4061998,2.5511,6.4061998,5.6987,0,3.1458-2.8682999,5.6982-6.4061998,5.6982-3.5404999,0-6.4087998-2.5524-6.4087998-5.6982,0-3.1476,2.8682999-5.6987,6.4087998-5.6987Z" fill="url(#New_Gradient_374)"/>
              <path d="M17.6983899,8.8594c3.5378999,0,6.4061998,2.5525,6.4061998,5.6989,0,3.1476-2.8682999,5.6981-6.4061998,5.6981-3.5404999,0-6.4087998-2.5505-6.4087998-5.6981,0-3.1464,2.8682999-5.6989,6.4087998-5.6989Z" fill="none" stroke="#69c" stroke-miterlimit="3.8637" stroke-width=".957"/>
            </g>
          </g>
          <path d="M17.4951899,6.6521c3.8061999,0,7.1068998,2.757,7.1068998,6.4506,0,3.6954-3.3006999,6.451-7.1068998,6.451-3.8060999,0-7.1056998-2.7556-7.1056998-6.451,0-3.6936,3.2995999-6.4506,7.1056998-6.4506ZM17.4951899,7.3986c-3.7436999,0-6.5649998,2.6859-6.5649998,5.7041,0,3.0199,2.8212999,5.7072,6.5649998,5.7072,3.7448999,0,6.5650998-2.6873,6.5650998-5.7072,0-3.0182-2.8201999-5.7041-6.5650998-5.7041Z" fill="url(#linear-gradient)"/>
        </g>
      </g>
      <path d="M17.6983899,6.9309c3.8060999,0,7.1056998,2.7576,7.1056998,6.4511s-3.2995999,6.4505-7.1056998,6.4505c-3.8061999,0-7.1068998-2.757-7.1068998-6.4505s3.3006999-6.4511,7.1068998-6.4511ZM17.6983899,7.6767c-3.7448999,0-6.5649998,2.6853-6.5649998,5.7053,0,3.0187,2.8200999,5.7047,6.5649998,5.7047,3.7436999,0,6.5636998-2.686,6.5636998-5.7047,0-3.02-2.8199999-5.7053-6.5636998-5.7053Z" fill="url(#New_Gradient_375)"/>
      <g mask="url(#mask-4)">
        <g>
          <path d="M15.5868899,10.1849c1.2075-.2027,2.2625999.4871,2.3576999,1.5428.0938,1.0544-.8088,2.0758-2.0149999,2.2802-1.2089.2018-2.2626999-.4878-2.3577999-1.5423-.0937-1.0557.8076-2.0756,2.0150999-2.2807Z" fill="#b3e0ff"/>
          <path d="M17.6983899,10.801c3.5378999,0,6.4061998,2.5511,6.4061998,5.6987,0,3.1458-2.8682999,5.6982-6.4061998,5.6982-3.5404999,0-6.4087998-2.5524-6.4087998-5.6982,0-3.1476,2.8682999-5.6987,6.4087998-5.6987Z" fill="#fff"/>
        </g>
      </g>
    </g>
  </g>
</svg>