<?xml version='1.0' encoding='UTF-8'?>
<svg xmlns="http://www.w3.org/2000/svg" xmlns:xlink="http://www.w3.org/1999/xlink" width="32" height="32" viewBox="0 0 32 32">
  <defs>
    <linearGradient id="New_Gradient_65" data-name="New Gradient 65" x1="22.984061" y1="14.4199316" x2="7.8135194" y2="33.1539902" gradientTransform="translate(0 -13.0449) rotate(13.9984894) scale(1.0306069 .9703021) skewX(13.2089399)" gradientUnits="userSpaceOnUse">
      <stop offset="0" stop-color="#d9d9d9"/>
      <stop offset=".522476" stop-color="#f2f2f2"/>
      <stop offset="1" stop-color="#ccc"/>
    </linearGradient>
    <linearGradient id="New_Gradient_65-2" data-name="New Gradient 65" x1="15.9227133" y1="14.5824848" x2="6.4406419" y2="26.2918678" gradientTransform="translate(0 -13.0449) rotate(13.9984894) scale(1.0306069 .9703021) skewX(13.2089399)" gradientUnits="userSpaceOnUse"><stop offset="0" stop-color="#d9d9d9"/><stop offset=".522476" stop-color="#f2f2f2"/><stop offset="1" stop-color="#ccc"/></linearGradient>
    <linearGradient id="New_Gradient_64" data-name="New Gradient 64" x1="27.5535546" y1="34.0500885" x2="4.6347008" y2="14.1270328" gradientTransform="translate(0 -13.0449) rotate(13.9984894) scale(1.0306069 .9703021) skewX(13.2089399)" gradientUnits="userSpaceOnUse">
      <stop offset="0" stop-color="#e5e5e5"/>
      <stop offset="1" stop-color="#ccc"/>
    </linearGradient>
    <mask id="mask" x="7.6095958" y="7.8746" width="21.3571995" height="19.2028" maskUnits="userSpaceOnUse">
      <polygon points="25.0277953 8.7702 7.6095958 8.7715 7.6095958 21.2341 25.0277953 21.2829 25.0277953 8.7702" fill="#fff" fill-rule="evenodd"/>
    </mask>
    <linearGradient id="New_Gradient_192" data-name="New Gradient 192" x1="26.511294" y1="29.6286488" x2="6.127195" y2="18.3295582" gradientTransform="translate(0 -13.0449) rotate(13.9984894) scale(1.0306069 .9703021) skewX(13.2089399)" gradientUnits="userSpaceOnUse">
      <stop offset="0" stop-color="#01326e"/>
      <stop offset="1" stop-color="#012859"/>
    </linearGradient>
    <radialGradient id="New_Gradient_193" data-name="New Gradient 193" cx="7.2394789" cy="-14.3944841" fx="7.2394789" fy="-14.3944841" r="18.2997675" gradientTransform="translate(7.1628825 22.0358) rotate(13.2056281) scale(.9402639 .8370639) skewX(11.7992375)" gradientUnits="userSpaceOnUse">
      <stop offset="0" stop-color="#23468e"/>
      <stop offset="1" stop-color="#012859"/>
    </radialGradient>
    <radialGradient id="radial-gradient" cx="-104.6885078" cy="-108.5594978" fx="-104.6885078" fy="-108.5594978" r="13.5318781" gradientTransform="translate(113.8663805 117.1252807) scale(.9187)" gradientUnits="userSpaceOnUse">
      <stop offset="0" stop-color="#fff"/>
      <stop offset=".207865" stop-color="#b7e9ff"/>
      <stop offset=".47191" stop-color="#3c97f6"/>
      <stop offset=".668539" stop-color="#032c87"/>
      <stop offset="1" stop-color="#0342d3"/>
    </radialGradient>
    <mask id="mask-1" x="12.5983956" y="12.8544" width="17.2418996" height="19.3203776" maskUnits="userSpaceOnUse">
      <path d="M12.5983956,21.0934c0-4.5499,3.6883999-8.2376,8.2382998-8.239,4.5498999,0,8.2363046,3.6891,8.2363046,8.239,0,4.5492-3.6864047,8.2362-8.2363046,8.2362s-8.2382998-3.6877-8.2382998-8.2362Z" fill="#fff" fill-rule="evenodd"/>
    </mask>
    <radialGradient id="radial-gradient-2" cx="17.8669741" cy="17.6009051" fx="17.8669741" fy="17.6009051" r="11.7284204" gradientUnits="userSpaceOnUse">
      <stop offset="0" stop-color="#dfeaeb"/>
      <stop offset=".303371" stop-color="#b7e9ff"/>
      <stop offset=".52809" stop-color="#3c97f6"/>
      <stop offset=".825843" stop-color="#032c87"/>
      <stop offset="1" stop-color="#0342d3"/>
    </radialGradient>
    <mask id="mask-2" x="19.4901645" y="18.7915951" width="10.3501307" height="11.2017338" maskUnits="userSpaceOnUse">
      <path d="M28.4672952,20.3424c0,4.7798-2.8911999,8.1301-7.6350998,8.4622-.5021954.0352-.5739-.3999-.0827-.5158,4.0346999-.9541,6.7661998-5.4213,7.2116998-7.9927.0463-.5946.5061-.4584.5061.0463Z" fill="#fff"/>
    </mask>
    <linearGradient id="linear-gradient" x1="20.0866862" y1="14.6483194" x2="19.1588581" y2="32.3523346" gradientUnits="userSpaceOnUse">
      <stop offset="0" stop-color="#65bd7b"/>
      <stop offset=".0074065" stop-color="#60bb74"/>
      <stop offset=".0565792" stop-color="#45af4f"/>
      <stop offset=".1023037" stop-color="#32a734"/>
      <stop offset=".1428936" stop-color="#27a224"/>
      <stop offset=".174157" stop-color="#23a11f"/>
      <stop offset=".2984012" stop-color="#1c871d"/>
      <stop offset=".4981417" stop-color="#14651b"/>
      <stop offset=".6872815" stop-color="#0e4c19"/>
      <stop offset=".8596362" stop-color="#0b3d18"/>
      <stop offset="1" stop-color="#0a3818"/>
    </linearGradient>
    <mask id="mask-3" x="13.6822475" y="14.8132619" width="16.1580478" height="17.0591176" maskUnits="userSpaceOnUse">
      <path d="M14.1915956,15.5645c.0507.1309-.1603.2176-.017.2364.3178.0469.4962-.1914.8134044-.1465.1048956.013.1583956.0365.2604956.0593-.0299.2103.0438.3522.0138.5639-.0462956.3179-.3055.426-.3511.7451-.0273.1941.0788044.3172.0501.5133-.0124.0905-.065.1374-.0917.2182l.0384044-.2711c-.0606044-.0084-.0854044-.0429-.1473044-.0533-.3099-.0423-.2429.422-.4051.6839-.3061.4963-.5685956.7665-.6493,1.3417-.1179.844.2423,1.3422.1238,2.1876-.0449.3166.1295.495.3243.7542.0469.0059.0937.0045.127-.0129-.0559-.7087-.1725-1.0793-.1517-1.7775.1823044.243.0807.4735.2038.7366.2514.5197.4188.8141.5777,1.3743.0567.2018-.0684.3836.0449.5614.2397.3719.3511.6663.7354.9033.2117.1303.4448.002.6193.1805.271.2781.3159.659.7015.7144.1974.0267.3198-.0788.5158-.0502.2331.0326.0867.3667.1798.5797.0813.1889.3217.1218.4884.2533.1993.159.2319.4331.4878.4697.1525.0208.2072-.157.3583-.1355.2409.0345.1634.377.1276045.6181-.0664045.4676-.6285045.5275-.6929045.997-.0117.0815.0748.1251.0618.2078-.017.1212-.1732.144-.1908.2657-.0463.3316.2104.484.3855.7627.1583.2443.1401.4898.3674045.6683.3197955.2526.8545955.2806.7990955.6805-.097.6722-.6975.7966-1.0563,1.3756.0631.0404.097.0742.1719.0873.8095.114,1.2036-.4474,1.9773045-.708.5261954-.1738.8856954-.099,1.3754954-.3609.2593-.134.2873-.392.5381-.5392.521-.3126.9026-.3907,1.3174046-.8337.2644953-.2786.2221953-.5913.4090953-.9261.2677-.4787.5894-.6409.8082-1.1495-.0638-.0397-.0931-.1055-.1751-.1172l-.5588-.0795c-.3479-.0475-.6058-.3543-.5582-.6988-.3811-.0638-.6031953-.0802-.9893-.1329-.4905-.0703-.5921-.607-1.0825-.6773-.2116-.0287-.3061.2045-.5171.1744-.2801-.039-.415-.181-.6924-.22-.1738-.0242-.2578.1328-.3328.2911l-.1256.013c-.03-.1114-.0027-.2012.0136-.3204.0058-.0463-.069-.0488-.0800954-.0892-.3517045.0976-.4676045.4897-.8304045.4383-.0918-.013-.1243-.1101-.2155955-.1218-.1647045-.0242-.2573045.086-.4233045.0639-.31-.0443-.6096-.2639-.5666955-.5732.017-.1127.1420955-.1414.1583955-.2553.0403-.2788-.1818-.4566-.4403-.5855l-.1889.0352-.2721955-.0379c.0071955-.054-.0196045-.0879-.0124045-.1413.0293-.1954.2911-.2058.3185-.4019.0247-.1719.0025-.2826.0637-.4513l-.4987955-.0697c-.211.1304-.3145045.3862-.5712045.3504-.454-.0644-.7281-.5191-.6637-.971.0743-.5381.3517-1.1359.8871-1.0629.1804.026.2592.1301.4402.1563.129.0163.1681-.1609.2984-.1427.338.0469.7399.2039.6916.5439-.043.3087.1798.5249.4611.6643.0267-.0737.0404-.1193.0587-.1921l-.0795-.9809c.2677-.4637.9202-.394.992-.9171l.0488-.3458c.056-.4006.5067-.5842.906-.5276-.0262-.1497-.1218-.2331-.0997-.3848.024-.1642.2104-.1856.3699-.2234-.0013.0696-.0013.1159.0039.1849.3648-.0638.7568-.123.8089-.4871.0052-.0437-.0703-.0475-.0808-.0873-.1191.0294-.2018.0626-.3295.045-.1731954-.0235-.1159-.2704-.0774-.4403-.1049-.0156-.1674-.017-.2743-.0086.0768-.1197.1882-.1432.3308-.1692l.1733.0859c.0984046-.0403.1648-.0775.2631-.1171.0319.1445-.011.336.1414.3588l.6571.0912c.0456-.1629-.181-.1929-.2951-.3179-.1008-.1061.0215-.2593-.0689-.379-.1557-.2065-.385-.17-.6057-.301-.3739-.2299-.3732-.7378-.8102-.8004-.084-.0111-.1172.1075-.1987.0971-.2931-.0417-.3387-.3883-.6331-.4286-.0906-.0124-.1484954.017-.2344954.028.0078955.1557.1217955.2345.0990955.3849-.0345.2547-.4032.243-.4396.5002-.0214955.1583.0599.2469.0664.4097-.2365-.0111-.1681-.34-.3288955-.5094-.2761045-.2845-.8949045-.2018-.8389045-.603.0795-.5653,1.0395-.3836,1.1177-.9516.007-.0429-.0443-.0677-.0457-.1062.0717-.0129.114-.0456.1896-.0345.2422.0345.3569.1961.4663045.4116-.1446045.0424-.2365045.0287-.3784045.0698.312.1914.6089.1478.8291.4408l.2976-.1432c-.0619-.1087-.1132954-.1778-.2104-.2605.0633-.0136.1199-.0208.1864-.0039-.1466-.267-.4241-.2684-.6774-.4423-.2521-.1751-.3732-.3602-.6826-.4044l.0215-.1426c.0261-.1889.1504-.2567.2722045-.4019-.08-.0398-.1277045-.0788-.2181045-.0911-.1974-.028-.4448-.017-.4728.1797-.0176.1211.1009045.1602.1484.2663-.0864955.0665-.1484.1121-.213.187.0691.0625.1349.1348.1218.2319-.0091.069-.078.0743-.1367.1048-.118-.2084-.2612-.3452-.2267-.5868-.1081.0091-.2481.0111-.2631.1173-.017.1282.0815.1875.1427.2982-.1074955.0456-.1733.099-.2957.0801l-.2639-.0371c.0307-.0716.1049-.0918.116-.1758l.043-.3081c-.1746-.0098-.267-.0541-.4428955-.0782-.142-.0208-.3172045.0241-.338.1667-.0222045.1597.1314955.2117.2285955.3414-.0723.0266-.1114.0833-.1948.0729-.1587955-.0235-.1027955-.2546-.2286-.3485-.1647-.1309-.3321-.0391-.547-.0468.013-.1974-.0327-.4351-.2279-.4625-.5504-.0775-.8689.1557-1.3906.359-.3901.1516-.7295.1041-1.0381.377ZM17.8824955,18.6699c.2754-.099.4435045-.2463.7359-.2038.1882.0246.1712.2623.3172.375.2006.1602.403.1414.5711.3263-.1346955.1369-.2259.2313-.4096.2821.0221-.1661-.0599-.3479-.2248-.3707-.2715-.037-.1446.4716-.392.5915-.0384-.2137-.0742955-.3491-.0442955-.5621.015-.1107.101-.1681.1861955-.2338-.0924-.0593-.1406-.1426-.2539-.1582-.1518-.0222-.3335-.0398-.4858-.0463ZM19.9092955,19.3628l.1726.086c-.2547.2807-.549.4006-.9268.3471l-.1655-.0228c.2365-.3061.523-.3803.9197-.4103ZM20.1931954,24.3537c-.082-.0136-.0189-.1349-.0248-.2117.0795-.0123.1284-.0287.2131-.0319.002-.0691.002-.1152-.0052-.185.0526.0066.0794-.0208.1341-.0123.3074.0423.4501.1849.7562.2599-.243.3517-.6572.239-1.0734.181ZM18.7050955,23.5584c-.1604-.0305-.288-.0931-.3283-.2533.2058-.0325.3145-.0494.5177-.0196.2821.0398.4267.1441.6716.2788.1842.1016.4728.1277.4435.3393-.0163.1297-.174.1453-.3015955.1277l-.2637045-.0378c.0305-.065.0683-.1139.1152-.1674-.2266-.2012-.3752-.3465-.6766-.3894-.0535-.0071-.1323.1127-.1778.1217ZM20.5103954,15.3138c.2865.2018.4397.4304.7919.4403.0385.2221.2293.2748.3771.4324.2691.2917.4241.5522.8161.6064.0671.0111.1095046-.0066.1784-.0047-.1035-.2526-.3497-.3653-.3118-.6369.024-.1667.1849046-.2208.2083-.3861.0398-.2802-.379-.2607-.6206-.3967-.3439-.1844-.5211-.411-.9125-.4664-.3556-.0501-.7087-.0058-.8754.31.0938.0352.2417.0931.3485.1017Z" fill="#fff" fill-rule="evenodd"/>
    </mask>
    <radialGradient id="radial-gradient-3" cx="16.2951079" cy="16.8125905" fx="16.2951079" fy="16.8125905" r="15.0616033" gradientUnits="userSpaceOnUse">
      <stop offset="0" stop-color="#d3edd5"/>
      <stop offset=".0881577" stop-color="#ceebd0"/>
      <stop offset=".1888042" stop-color="#c1e5c2"/>
      <stop offset=".2955934" stop-color="#aadbab"/>
      <stop offset=".4067144" stop-color="#8bce8b"/>
      <stop offset=".5211732" stop-color="#64bd62"/>
      <stop offset=".6367876" stop-color="#34a830"/>
      <stop offset=".674157" stop-color="#23a11f"/>
      <stop offset=".6869737" stop-color="#209b1c"/>
      <stop offset=".7628023" stop-color="#128010"/>
      <stop offset=".8398735" stop-color="#086d07"/>
      <stop offset=".9182832" stop-color="#016101"/>
      <stop offset="1" stop-color="#005e00"/>
    </radialGradient>
    <mask id="mask-4" x="19.4901645" y="18.7915951" width="10.3501307" height="11.2017338" maskUnits="userSpaceOnUse">
      <path d="M28.4672952,20.3424c0,4.7798-2.8911999,8.1301-7.6350998,8.4622-.5021954.0352-.5739-.3999-.0827-.5158,4.0346999-.9541,6.7661998-5.4213,7.2116998-7.9927.0463-.5946.5061-.4584.5061.0463Z" fill="#fff"/>
    </mask>
  </defs>
  <g isolation="isolate">
    <g id="Set_1" data-name="Set 1">
      <g>
        <path d="M5.4218958,23.5252s-1.5032-1.1606-1.5032-3.162V6.5174s-.0581-1.2877.9366-1.3216c.9912-.0338,18.4947995.1486,19.4018995.1329,1.2024-.0201,2.3628999,1.1919,2.3628999,1.1919l-.1224.099h.2078v16.9318l-21.2217995-.0581-.0618.0319Z" fill="url(#New_Gradient_65)" stroke="#000" stroke-linecap="round" stroke-linejoin="round" stroke-width="2"/>
        <path d="M5.4218958,23.5252s-1.5032-1.1606-1.5032-3.162V6.5174s-.0581-1.2877.9366-1.3216c.9912-.0338,18.4947995.1486,19.4018995.1329,1.2024-.0201,2.3628999,1.1919,2.3628999,1.1919L5.4218958,23.5252Z" fill="url(#New_Gradient_65-2)" fill-rule="evenodd"/>
        <polygon points="26.7054953 6.6196 5.4836958 6.6209 5.4836958 23.4933 26.7054953 23.5514 26.7054953 6.6196" fill="url(#New_Gradient_64)" fill-rule="evenodd"/>
        <g mask="url(#mask)">
          <g>
            <polygon points="25.0277953 8.7702 7.6095958 8.7715 7.6095958 21.2341 25.0277953 21.2829 25.0277953 8.7702" fill="url(#New_Gradient_192)" fill-rule="evenodd"/>
            <path d="M23.8683954,7.8746s-5.5222999,1.4649-8.5220998,6.9324c-3.0004999,5.467-.943,12.2704-.943,12.2704l14.5634996-.4643-.7777-18.6258-4.3206999-.1127Z" fill="url(#New_Gradient_193)" fill-rule="evenodd"/>
          </g>
        </g>
        <path d="M5.0857958,22.8792V6.546c0-.1146.1588-.2793.2709-.2793l20.6108995-.0782c.5516-.0033.9073.9164.357.9182l-20.5673995-.0827v16.2811c0,.5635-.6714.1361-.6714-.4259Z" fill="#fff"/>
        <polyline points="5.7571958 23.3051 5.7571958 7.024 26.4124953 6.9641" fill="none" stroke="#b2b2b2" stroke-linecap="round" stroke-linejoin="round" stroke-width=".5807"/>
        <polyline points="7.7561958 21.35 25.0902953 21.4196 25.0902953 8.8763" fill="none" stroke="#fff" stroke-linecap="round" stroke-miterlimit="3.8637" stroke-width=".6999"/>
        <polyline points="7.5566958 20.9637 7.5566958 8.7995 24.7548953 8.7344" fill="none" stroke="gray" stroke-linecap="round" stroke-linejoin="round" stroke-width=".6873"/>
        <polygon points="10.022 10.4232 13.266 12.3926 10.0212957 14.4058 9.4460957 13.5859 11.3460957 12.4057 9.4460957 11.2535 10.022 10.4232" fill="#fff"/>
      </g>
      <g>
        <path d="M12.5983956,21.0934c0-4.5499,3.6883999-8.2376,8.2382998-8.239,4.5498999,0,8.2363046,3.6891,8.2363046,8.239,0,4.5492-3.6864047,8.2362-8.2363046,8.2362s-8.2382998-3.6877-8.2382998-8.2362Z" fill="url(#radial-gradient)" fill-rule="evenodd" stroke="#000" stroke-miterlimit="3.8637" stroke-width="2"/>
        <g mask="url(#mask-1)">
          <g>
            <path d="M12.5983956,21.0934c0-4.5499,3.6883999-8.2376,8.2382998-8.239,4.5498999,0,8.2363046,3.6891,8.2363046,8.239,0,4.5492-3.6864047,8.2362-8.2363046,8.2362s-8.2382998-3.6877-8.2382998-8.2362Z" fill="url(#radial-gradient-2)" fill-rule="evenodd"/>
            <g mask="url(#mask-2)">
              <g>
                <path d="M28.4672952,20.3424c0,4.7798-2.8911999,8.1301-7.6350998,8.4622-.5021954.0352-.5739-.3999-.0827-.5158,4.0346999-.9541,6.7661998-5.4213,7.2116998-7.9927.0463-.5946.5061-.4584.5061.0463Z" fill="#3c97f6"/>
                <path d="M28.6906952,20.3788c0,4.7805-2.8910999,8.1302-7.6332998,8.463-.5033.0344-.577-.4012-.082-.5164,4.0327999-.9529,6.7629998-5.4208,7.2084998-7.9927.0457-.5928.5068-.4593.5068.0461Z" fill="none" stroke="#2b76b4" stroke-miterlimit="3.8637" stroke-width="2.2992"/>
                <path d="M28.578,20.3613c0,4.7786-2.8905047,8.1295-7.6313046,8.4616-.504.0352-.577-.4006-.0852-.5158,4.0352999-.9516,6.7668998-5.4208,7.2116998-7.9927.0463-.5933.5048048-.4591.5048048.0469Z" fill="none" stroke="#1459a5" stroke-miterlimit="3.8637" stroke-width="1.1497"/>
                <path d="M28.4672952,20.3424c0,4.7798-2.8911999,8.1301-7.6350998,8.4622-.5021954.0352-.5739-.3999-.0827-.5158,4.0346999-.9541,6.7661998-5.4213,7.2116998-7.9927.0463-.5946.5061-.4584.5061.0463Z" fill="none" stroke="#1d3f99" stroke-miterlimit="3.8637"/>
              </g>
            </g>
            <path d="M17.8700955,15.3938l.0671.0671c.1231.1127.265.3309.0156.4272l-.0677955.0391c-.3458045.1909-.4507045-.097-.5523045-.334-.1465-.1186-.6512.1419-.6272-.2306.0033-.0522.0033-.2006-.0443-.2436-.6037-.0853-1.0471955.3068-1.6086.4363-.1988.0483-.4175.0711-.5934.1896-.0116.0677-.0437.1263-.0853.1823-.2383-.0325-.2085-.1114-.1095-.2442.3179.0443.3264-.2488,1.0884-.0859.2683.0579.1797.8811.0821,1.0641-.256.4885-.284.2437-.211.7966.0228.1713-.0078956.2729-.0886.4195-.0872956.2558-.359.226-.4044.0337l-.0274.1161c-.0241.0852-.056.1855-.1127.2774-.5804.9327-.777,1.0974-.5595,2.2907.0704.4004.1185.7528.0618,1.1599-.0253.1726.0509044.291.1466.4207l.1381.1823-.1237956-.0742c-.0631044.0084-.1119044.2513-.1166044.1993-.0565-.7164-.1738-1.0923-.1503956-1.7989.0097956-.3862.4637956-.2814.5307956.3445.0104.105.0157.213.0613.3108.2234.4656.4473.9071.5894,1.4073.0357.1218-.0144.4514.0188.5049.2058.3184.3341.6304.6716.8407.1523.0945.4162-.0384.6604.211.2508.2573.3269.7399.7613.6337.85-.209.5556.3922.6754045.671.2382955.1464.351.0194.5900955.3502.0528.0743.1348.2365.2254.2515.1399-.0645.1557-.1622.3588-.1354.3477045.0501.3647045.394.3328.6538l-.0287.1968c-.0768.5425-.6193.6369-.6909.9658.1288.2253.0461.3706-.1334955.521-.0203045.202.2512955.4417.3561955.6064.1126.1758.168.4995.3224.6168.3178.2546.9535.293.8733.872-.0924.6507-.5451.8258-.9208954,1.2381.6206955.0176,1.171-.5131,1.7486954-.7067.4448-.1464.9255-.1236,1.3424-.3477.1798-.0931.2754-.3829.5314-.5354.5211-.3113,1.2674-.5093,1.4576-1.156.054-.1785.1017-.3609.1921-.5269.2013-.3595.5257-.6181.7229-.9731-.5130953-.0716-1.1547-.1191-1.2322-.7984-.6974-.101-.9808.0013-1.4712-.5009-.0691-.0709-.3152-.3314-.4573-.2735-.1048.0632-.0683954.0384-.1503954.0919-.3843046.2298-.6663046-.0933-1.0251046-.1434-.1915.1394-.032.2658-.4091.3049-.2155.024-.2514-.232-.2377-.3804l.0124-.0762c-.0286-.0319-.0508-.0657-.0604954-.1068.0826954.0495.1673954.0996.2512954.1484-.351.0958-.6532.7555-1.1261.3316-.1451955-.0144-.2351.0787-.4259.0527-.5171-.0736-1.0297-.6258-.6011-1.0479.0436-.1479-.0346-.239-.2495-.353l-.1224.0202-.0639.0026-.2722-.0391-.174-.2293c-.0396-.1849.0255-.3217.1694-.4343.0769-.0574.043-.0313.1075-.0795.0358-.1036.0403-.1785.0443-.2436l-.1933955-.0657-.0541045.0475c-.1738.1667-.3231.3296-.6012.2912-1.5006-.2111-.7828-3.0104.5654-2.3395.0508.0254.0853.0396.125.05.3928-.373,1.2701.1043,1.1958.6384-.0117.0997.0189.1928.0983.2793-.0599-.7684-.2454-.9814.4566-1.3513l.1576-.0815c.3647-.1889.3075-.2846.3647-.6741.0619045-.4409.4435-.6571.8194-.702-.0867-.3152.0963-.5041.3875046-.5739l.1217954-.03c.1244-.0298.2221.03.2475.1387.1478-.0332.3211-.0741.3842-.1868-.0222-.0294-.0416-.0599-.0482-.0931.0809.0488.1636.0989.2469.1498-.3386.082-.7464.1204-.6995-.4013-.4142.0294-.2846-.4435.1505-.549l.1126-.0228c.0684-.0124.1597.0339.2155.0619.3772-.1733.4279-.1211.4821.2703l.0637.011c-.0474-.11-.0124-.1979-.0214-.3073-.0723-.0932-.4142-.1615-.5438-.2397-.2924-.1771-.4872-.7008-.6832-.7602-.2039.1785-.4553.0509-.6188-.1177-.0858954-.0951-.052-.0574-.129-.1428-.1243-.1283-.1621-.0716-.3152-.054l.1798-.2149c.0124.2409.2989.4736-.1362.7685l-.082.0528-.0664.0404c-.0768955.0534-.0685.0852-.0416.1823l.0292.1022c.1231.5009-.4338.469-.5704955.0255-.1121045-.366-.1812045-.3081-.5524045-.4396-.7072-.2515-.474-.8904.0587-1.1255.1693-.0742.5556-.168.62-.3426-.2038-.3588.5914-.6642,1.0056.1577.0293.0599.0313.1211.0097.1713.0424046.0156.0829.0332.1231.0553-.0076954-.0391-.0076954-.0762.0079-.1107l-.1681-.0723c-.2864954-.1276-.5386-.4539-.8187-.4937-.291-.0404-.1497955-.5015-.0447955-.6447-.0404045,0-.0736045.0032-.0998045.0104.1141.14.1726.3106.0445.4064l-.0542.0429c.2202.4071-.336.6624-.4741.4155-.1381-.2455-.2925-.4012-.25-.7137l.2168.2325c.2351.3458-.1811.5341-.4599.495-.2239-.0319-.6552-.0775-.3574-.4202l.0416-.0455.011-.086c-.0924-.0215-.2397-.0691-.3314-.0463ZM14.0657956,15.7026l.0515-.2085c.3556-.3125.7067044-.2592,1.098-.4135.4717044-.1843,1.7443-.8323,1.8869.0762l.084-.0091c.1185-.0079.2573.0039.3966.1114.0892045.0683.1303.1706.1628.2754.019-.011.0378-.0208.0599-.0293l-.0897.3146c-.1564-.2078-.4437-.3921-.1766-.689.2488045-.2788.6063-.0854.904-.0685.3087.0157.2006.5829.043.7471-.0294.0274-.3373-.2807-.1864-.2611.3238.0468.2203.0728.4496-.0287l-.0945.2885c-.1192-.2103-.3661-.5575.071-.6891.0384-.0097.0788-.0189.1191045-.0228l.0925955-.0072c.2793-.0201.1758.2632.2533.4162.0442.0886.1081045.1732.166.2736l-.2071-.0613c-.1582-.1576-.2297955-.2076-.0279-.394-.3323-.465.3529-.805.9222-.5022.3295.176-.1062.4182-.157.5725.2781.103.4578.3524.7268.4742.1948.0866.7921046.3863.5901046.6644.1712954.3002-.4656046.5978-.6246046.39-.1575-.209-.5463-.2508-.7763-.3868-.2768-.17-.0592-.355.1335-.3927-.0201-.0157-.0417-.0268-.0632-.0372-.1491.6506-1.225.5641-1.1.9411.1179.1134.5308.1336.7757.3837.1067.1127.14.2553.1849045.3967.0130955.0474.0046955.0474.0051955.0501-.1561955-.077-.1641.3914-.2246.1426l-.0255-.0879c-.0755-.2612-.0208-.4774.2053-.6325l.0839-.052.0659-.0411c.1295-.0866-.0351955-.2592-.0443-.4064-.0183-.3446.6069-.2814.8394-.0397.0944.1049.0437046.0489.129.142.0248.0266.0521.0521.086.0696.4096-.3543.7738.3178.969.5835.049.0705.0997046.122.1656.1609.3509.2092.788.1167.7293.7276.1694.1439.4169.1901.329.5014-.0841.2944-1.0635.1837-1.1613-.209-.1074.0436-.2065-.0065-.2988954-.0515-.0644046.0144-.1069046.0274-.1303046.0664l-.1869-.3158c.3583-.0247.5314-.0183.4643.3843l-.0129.0691c.0924-.0151.1394-.0307.1972-.045l.2476046.151c-.0319046-.0188-.0417046-.0547-.0521046-.0872.4129.2383-.0866.7489-.5568954.8571-.1381046.0325-.3803046.1179-.4839046-.0248l.0514.1244c.2743.7028-.7756.101-.8648.7321-.0716954.5204-.0665.7164-.5796954.9809l-.1557045.0781c-.1094.0593-.2214.1264-.2957.2287l.0716.9136-.0051955.0633c-.2044045.8375-.9918045-.0378-.9202045-.5524.028-.2006-.3543-.284-.4866-.3054-.3269.3106-.4838.0241-.7684-.0163-.6285-.0886-1.0187,1.5064-.1681,1.6257.1622.0233.3446-.3824.5725-.3497.7255.1015.6663-.0222.6285.5118-.0169.2351-.0038.3817-.2033.5354-.0643955.0495-.0363955.0273-.0643955.0495.5848955-.1049,1.1390955.5927.6838955,1.0428-.0306.2304.3081045.3868.5112.3177.2007-.0676.3563-.0755.521.0716.1674.0255.5068-.3543.7465-.4214l.2533.1492c-.0298954-.0188-.0403-.0554-.0495-.0866.0476046.0273.086.0626.1088.1042.3543-.2384.859.2143,1.0232.1472.1062-.0651.0612-.0358.1485-.0912.6584-.3934.9475.5327,1.4165.5992.3856046.0541.6089.0697.9959.1329.3256.0507-.0052.6226.5503.6995.1576.0208.5797.0143.7614047.1758l.0526953.0482s.1147.1746.0808.2553c-.1981.4579-.5822.7444-.8194,1.1678-.1823.3341-.1302.6454-.4369.9691-.4331.4625-.8468.5588-1.3611953.8662-.204.1218-.2431046.3882-.5472046.5452-.4695.2514-.9235.2162-1.4055.3745-.7157.2384-1.55,1.085-2.3244999.6011-.3581-.224.4403-.8356.5973-.9788.863-.781.0918-.736-.3549-1.0923-.2878-.2228-.2514-.4637-.4161955-.7184-.2143045-.3374-.7152045-.7731-.2489045-1.1619-.2923-.5425.6025-.8245.6566-1.2081l.0273045-.1909c.0058955-.0547.0103955-.1087.0084955-.1576-.5829.4142-.7346-.3634-1.0062-.4513-.2026-.0639-.3804-.0697-.4755-.297-.0631-.1394-.0495-.2853-.0554-.4318l-.0481-.0273c-.6279.0833-.7067.1015-1.1111-.5348-.2625-.4116-.3758-.1231-.7237-.3361-.4186-.2605-.5503-.5796-.8011-.9677-.1686-.2665-.0188-.4378-.0696-.6156-.0677-.2442-.1531-.474-.256-.7047.0306.2919.0697.5843-.3314.5309-.021-.004-.1219-.0639-.1342-.0808l-.1394-.1844c-.3791-.5092-.1654-.6981-.2103-1.2557-.0802-.9098-.385-1.5227.1256-2.426.1166-.2026.2598-.3967.4162-.6474.166-.2741.1426-1.0291.7516-.7268.2553.0364.1563.3614.1367.5034l-.3965-.0925c.0097-.0312.0221-.0585.0357-.0853.1719-.31-.2325-.4598.2085-1.0759.211-.2937.1328-.3407.1184-.6591l-.0806956-.0137c-.1595044-.0242-1.5318044.5275-.9762044-.2514l.024.0137ZM18.9387955,19.3974l-.0116.0494-.0294.1101c-.103.3901-.497.5693-.5595.2358-.0606-.3348-.1498-.7015.1538-.945l.0684-.0534.0116.3354c-.0502-.0306-.0918-.069-.1360955-.1081-.0651045-.0489-.4207045-.06-.5028045-.0632-.2696-.0117-.3151955-.3055-.0606-.396.3687-.1342.9093-.4695,1.1646.0528.097.1993.1139.1862.3315.2736.1576.0631.5627.2851.342.5072l-.1003.0985c-.1153955.11-.2397.1927-.3987.235-.3172.0879-.224-.2533-.2729-.3321ZM19.2350955,19.2762c-.1320955-.0553-.2520955-.0996-.366-.1888-.1563-.1225-.168-.2833-.2188-.3342-.2287-.0338-.4338.1186-.6402.1928l-.0607-.3966c.2287.0104.5551.0046.7419.1537.1257045.1042.3374.2521.1153.4188l-.0599.0436c-.1654.1713.1563045.4865-.2892.3993.0241-.0294.0371-.0789.047-.1134l.0233-.0997c.0535-.222.1583-.4304.4312045-.3906.2916955.0402.4376955.3328.3992955.6003l-.2572955-.2259c.0572955-.0143.0970955-.0352.1340955-.0593ZM20.2341954,19.3492c.4064.2025-.3067.8369-1.0465.7327-.1701-.0228-.5094-.0808-.3003-.3497.2899-.3759.648-.458,1.0675-.4892.082-.0065.2331045.0827.2793.1062ZM20.0511955,19.7165l-.1225-.0612c-.3418.0306-.5444.1015-.717.3256l-.1348-.3269c.3901045.0547.6259.0573.9144-.2586l.0599.3211ZM20.2361954,24.069l.2286-.2623c.2865-.0717.6207.1816.9092046.2501.3880954.0944.0396954.6226-.51.6473-.2155046.0104-.4292046-.0351-.6402046-.0644-.1699-.0249-.235-.1342-.2142-.3075l.0117-.0782c.0938-.0879.1615-.1464.2149-.185ZM20.8515954,24.2958c-.0715954-.0326-.1335-.0587-.2064-.077-.015.0913-.1049.174-.1948.1785-.0768.0033-.1203954.0196-.1921.03l.174-.213c.0025.0547-.0086.1102-.017.1649-.0905-.0118-.1446-.0554-.1342-.1446.1869046.026.3803.0689.5705.0612ZM18.9791955,23.735c-.0918.0807-.1401.1022-.1778.1081h-.0755c-.5848955-.1094-.8311-.8317.2585-.6767.3081.0436.4787.157.7399.3021.2313.129.6025.1649.5478.5472-.0554.4071-.5348.3016-.7973.265-.1587955-.0233-.2259-.1523-.1556-.2944l.0253-.0468c-.1119-.0957-.2169-.1707-.3653-.2045ZM18.7192955,23.4191c.2084-.1941.4892-.0729.7015.0638.1205.0801.4044.2755.3999.4325-.0033.1094-.0899.1622-.1342.2521l-.1556-.2932.1523.0209c-.2624-.1003-.4695-.2839-.756-.3244-.174-.0246-.2593-.0124-.458.0183l.1668045-.2501c.0071955.0306.0227955.0579.0832955.0801ZM20.6256954,15.2063l.0605.0248c.2104.1464.4058046.3953.6826.4057.1719.0032.1707.1973.2729.284.0833046.071.1732.1289.2487.211.1746046.1896.441.5718.7315.5418.0364-.0032.071-.0084.1185-.0065l-.1973.2821c-.1218-.3029-.5203-.4944-.2566-.9281.013-.0203.0286-.0431.0449-.0639.045-.0547.028-.0345.0691-.0847.0247-.0357.0267-.0436.0286-.052-.0254-.0261-.4364-.14-.5184-.1889-.4123-.2221-.7606954-.6018-1.285-.4253ZM20.8217954,15.8563c-.1069-.0749-.2059-.17-.3303-.2625-1.1841-.2.084-1.2987,1.1893-.5947.1315.0829.2586.185.4272046.2743.2721954.1518.7931954.1283.7255954.6043-.0131.0919-.0542.1746-.112.2469-.0495.0626-.0248.0306-.0665.0847-.084.1315.2169046.4623.2677.5854.1139.275-.2207954.3102-.3953.2854-.467-.0658-.6552-.3635-.938-.6708-.1294954-.1408-.2864954-.1916-.3803-.3798-.1543-.0293-.2781-.0964-.3874-.1732Z" fill="url(#linear-gradient)"/>
            <g mask="url(#mask-3)">
              <g>
                <path d="M14.1915956,15.5645c.0507.1309-.1603.2176-.017.2364.3178.0469.4962-.1914.8134044-.1465.1048956.013.1583956.0365.2604956.0593-.0299.2103.0438.3522.0138.5639-.0462956.3179-.3055.426-.3511.7451-.0273.1941.0788044.3172.0501.5133-.0124.0905-.065.1374-.0917.2182l.0384044-.2711c-.0606044-.0084-.0854044-.0429-.1473044-.0533-.3099-.0423-.2429.422-.4051.6839-.3061.4963-.5685956.7665-.6493,1.3417-.1179.844.2423,1.3422.1238,2.1876-.0449.3166.1295.495.3243.7542.0469.0059.0937.0045.127-.0129-.0559-.7087-.1725-1.0793-.1517-1.7775.1823044.243.0807.4735.2038.7366.2514.5197.4188.8141.5777,1.3743.0567.2018-.0684.3836.0449.5614.2397.3719.3511.6663.7354.9033.2117.1303.4448.002.6193.1805.271.2781.3159.659.7015.7144.1974.0267.3198-.0788.5158-.0502.2331.0326.0867.3667.1798.5797.0813.1889.3217.1218.4884.2533.1993.159.2319.4331.4878.4697.1525.0208.2072-.157.3583-.1355.2409.0345.1634.377.1276045.6181-.0664045.4676-.6285045.5275-.6929045.997-.0117.0815.0748.1251.0618.2078-.017.1212-.1732.144-.1908.2657-.0463.3316.2104.484.3855.7627.1583.2443.1401.4898.3674045.6683.3197955.2526.8545955.2806.7990955.6805-.097.6722-.6975.7966-1.0563,1.3756.0631.0404.097.0742.1719.0873.8095.114,1.2036-.4474,1.9773045-.708.5261954-.1738.8856954-.099,1.3754954-.3609.2593-.134.2873-.392.5381-.5392.521-.3126.9026-.3907,1.3174046-.8337.2644953-.2786.2221953-.5913.4090953-.9261.2677-.4787.5894-.6409.8082-1.1495-.0638-.0397-.0931-.1055-.1751-.1172l-.5588-.0795c-.3479-.0475-.6058-.3543-.5582-.6988-.3811-.0638-.6031953-.0802-.9893-.1329-.4905-.0703-.5921-.607-1.0825-.6773-.2116-.0287-.3061.2045-.5171.1744-.2801-.039-.415-.181-.6924-.22-.1738-.0242-.2578.1328-.3328.2911l-.1256.013c-.03-.1114-.0027-.2012.0136-.3204.0058-.0463-.069-.0488-.0800954-.0892-.3517045.0976-.4676045.4897-.8304045.4383-.0918-.013-.1243-.1101-.2155955-.1218-.1647045-.0242-.2573045.086-.4233045.0639-.31-.0443-.6096-.2639-.5666955-.5732.017-.1127.1420955-.1414.1583955-.2553.0403-.2788-.1818-.4566-.4403-.5855l-.1889.0352-.2721955-.0379c.0071955-.054-.0196045-.0879-.0124045-.1413.0293-.1954.2911-.2058.3185-.4019.0247-.1719.0025-.2826.0637-.4513l-.4987955-.0697c-.211.1304-.3145045.3862-.5712045.3504-.454-.0644-.7281-.5191-.6637-.971.0743-.5381.3517-1.1359.8871-1.0629.1804.026.2592.1301.4402.1563.129.0163.1681-.1609.2984-.1427.338.0469.7399.2039.6916.5439-.043.3087.1798.5249.4611.6643.0267-.0737.0404-.1193.0587-.1921l-.0795-.9809c.2677-.4637.9202-.394.992-.9171l.0488-.3458c.056-.4006.5067-.5842.906-.5276-.0262-.1497-.1218-.2331-.0997-.3848.024-.1642.2104-.1856.3699-.2234-.0013.0696-.0013.1159.0039.1849.3648-.0638.7568-.123.8089-.4871.0052-.0437-.0703-.0475-.0808-.0873-.1191.0294-.2018.0626-.3295.045-.1731954-.0235-.1159-.2704-.0774-.4403-.1049-.0156-.1674-.017-.2743-.0086.0768-.1197.1882-.1432.3308-.1692l.1733.0859c.0984046-.0403.1648-.0775.2631-.1171.0319.1445-.011.336.1414.3588l.6571.0912c.0456-.1629-.181-.1929-.2951-.3179-.1008-.1061.0215-.2593-.0689-.379-.1557-.2065-.385-.17-.6057-.301-.3739-.2299-.3732-.7378-.8102-.8004-.084-.0111-.1172.1075-.1987.0971-.2931-.0417-.3387-.3883-.6331-.4286-.0906-.0124-.1484954.017-.2344954.028.0078955.1557.1217955.2345.0990955.3849-.0345.2547-.4032.243-.4396.5002-.0214955.1583.0599.2469.0664.4097-.2365-.0111-.1681-.34-.3288955-.5094-.2761045-.2845-.8949045-.2018-.8389045-.603.0795-.5653,1.0395-.3836,1.1177-.9516.007-.0429-.0443-.0677-.0457-.1062.0717-.0129.114-.0456.1896-.0345.2422.0345.3569.1961.4663045.4116-.1446045.0424-.2365045.0287-.3784045.0698.312.1914.6089.1478.8291.4408l.2976-.1432c-.0619-.1087-.1132954-.1778-.2104-.2605.0633-.0136.1199-.0208.1864-.0039-.1466-.267-.4241-.2684-.6774-.4423-.2521-.1751-.3732-.3602-.6826-.4044l.0215-.1426c.0261-.1889.1504-.2567.2722045-.4019-.08-.0398-.1277045-.0788-.2181045-.0911-.1974-.028-.4448-.017-.4728.1797-.0176.1211.1009045.1602.1484.2663-.0864955.0665-.1484.1121-.213.187.0691.0625.1349.1348.1218.2319-.0091.069-.078.0743-.1367.1048-.118-.2084-.2612-.3452-.2267-.5868-.1081.0091-.2481.0111-.2631.1173-.017.1282.0815.1875.1427.2982-.1074955.0456-.1733.099-.2957.0801l-.2639-.0371c.0307-.0716.1049-.0918.116-.1758l.043-.3081c-.1746-.0098-.267-.0541-.4428955-.0782-.142-.0208-.3172045.0241-.338.1667-.0222045.1597.1314955.2117.2285955.3414-.0723.0266-.1114.0833-.1948.0729-.1587955-.0235-.1027955-.2546-.2286-.3485-.1647-.1309-.3321-.0391-.547-.0468.013-.1974-.0327-.4351-.2279-.4625-.5504-.0775-.8689.1557-1.3906.359-.3901.1516-.7295.1041-1.0381.377ZM17.8824955,18.6699c.2754-.099.4435045-.2463.7359-.2038.1882.0246.1712.2623.3172.375.2006.1602.403.1414.5711.3263-.1346955.1369-.2259.2313-.4096.2821.0221-.1661-.0599-.3479-.2248-.3707-.2715-.037-.1446.4716-.392.5915-.0384-.2137-.0742955-.3491-.0442955-.5621.015-.1107.101-.1681.1861955-.2338-.0924-.0593-.1406-.1426-.2539-.1582-.1518-.0222-.3335-.0398-.4858-.0463ZM19.9092955,19.3628l.1726.086c-.2547.2807-.549.4006-.9268.3471l-.1655-.0228c.2365-.3061.523-.3803.9197-.4103ZM20.1931954,24.3537c-.082-.0136-.0189-.1349-.0248-.2117.0795-.0123.1284-.0287.2131-.0319.002-.0691.002-.1152-.0052-.185.0526.0066.0794-.0208.1341-.0123.3074.0423.4501.1849.7562.2599-.243.3517-.6572.239-1.0734.181ZM18.7050955,23.5584c-.1604-.0305-.288-.0931-.3283-.2533.2058-.0325.3145-.0494.5177-.0196.2821.0398.4267.1441.6716.2788.1842.1016.4728.1277.4435.3393-.0163.1297-.174.1453-.3015955.1277l-.2637045-.0378c.0305-.065.0683-.1139.1152-.1674-.2266-.2012-.3752-.3465-.6766-.3894-.0535-.0071-.1323.1127-.1778.1217ZM20.5103954,15.3138c.2865.2018.4397.4304.7919.4403.0385.2221.2293.2748.3771.4324.2691.2917.4241.5522.8161.6064.0671.0111.1095046-.0066.1784-.0047-.1035-.2526-.3497-.3653-.3118-.6369.024-.1667.1849046-.2208.2083-.3861.0398-.2802-.379-.2607-.6206-.3967-.3439-.1844-.5211-.411-.9125-.4664-.3556-.0501-.7087-.0058-.8754.31.0938.0352.2417.0931.3485.1017Z" fill="url(#radial-gradient-3)" fill-rule="evenodd"/>
                <g mask="url(#mask-4)">
                  <g mix-blend-mode="screen" opacity=".3">
                    <path d="M28.4672952,20.3424c0,4.7798-2.8911999,8.1301-7.6350998,8.4622-.5021954.0352-.5739-.3999-.0827-.5158,4.0346999-.9541,6.7661998-5.4213,7.2116998-7.9927.0463-.5946.5061-.4584.5061.0463Z" fill="#c9ffc9"/>
                    <path d="M28.6906952,20.3788c0,4.7805-2.8910999,8.1302-7.6332998,8.463-.5033.0344-.577-.4012-.082-.5164,4.0327999-.9529,6.7629998-5.4208,7.2084998-7.9927.0457-.5928.5068-.4593.5068.0461Z" fill="none" stroke="#a7dbaa" stroke-miterlimit="3.8637" stroke-width="2.2992"/>
                    <path d="M28.578,20.3613c0,4.7786-2.8905047,8.1295-7.6313046,8.4616-.504.0352-.577-.4006-.0852-.5158,4.0352999-.9516,6.7668998-5.4208,7.2116998-7.9927.0463-.5933.5048048-.4591.5048048.0469Z" fill="none" stroke="#85cd92" stroke-miterlimit="3.8637" stroke-width="1.1497"/>
                    <path d="M28.4672952,20.3424c0,4.7798-2.8911999,8.1301-7.6350998,8.4622-.5021954.0352-.5739-.3999-.0827-.5158,4.0346999-.9541,6.7661998-5.4213,7.2116998-7.9927.0463-.5946.5061-.4584.5061.0463Z" fill="none" stroke="#65bd7b" stroke-miterlimit="3.8637"/>
                  </g>
                </g>
                <path d="M14.1915956,15.5645c.0507.1309-.1603.2176-.017.2364.3178.0469.4962-.1914.8134044-.1465.1048956.013.1583956.0365.2604956.0593-.0299.2103.0438.3522.0138.5639-.0462956.3179-.3055.426-.3511.7451-.0273.1941.0788044.3172.0501.5133-.0124.0905-.065.1374-.0917.2182l.0384044-.2711c-.0606044-.0084-.0854044-.0429-.1473044-.0533-.3099-.0423-.2429.422-.4051.6839-.3061.4963-.5685956.7665-.6493,1.3417-.1179.844.2423,1.3422.1238,2.1876-.0449.3166.1295.495.3243.7542.0469.0059.0937.0045.127-.0129-.0559-.7087-.1725-1.0793-.1517-1.7775.1823044.243.0807.4735.2038.7366.2514.5197.4188.8141.5777,1.3743.0567.2018-.0684.3836.0449.5614.2397.3719.3511.6663.7354.9033.2117.1303.4448.002.6193.1805.271.2781.3159.659.7015.7144.1974.0267.3198-.0788.5158-.0502.2331.0326.0867.3667.1798.5797.0813.1889.3217.1218.4884.2533.1993.159.2319.4331.4878.4697.1525.0208.2072-.157.3583-.1355.2409.0345.1634.377.1276045.6181-.0664045.4676-.6285045.5275-.6929045.997-.0117.0815.0748.1251.0618.2078-.017.1212-.1732.144-.1908.2657-.0463.3316.2104.484.3855.7627.1583.2443.1401.4898.3674045.6683.3197955.2526.8545955.2806.7990955.6805-.097.6722-.6975.7966-1.0563,1.3756.0631.0404.097.0742.1719.0873.8095.114,1.2036-.4474,1.9773045-.708.5261954-.1738.8856954-.099,1.3754954-.3609.2593-.134.2873-.392.5381-.5392.521-.3126.9026-.3907,1.3174046-.8337.2644953-.2786.2221953-.5913.4090953-.9261.2677-.4787.5894-.6409.8082-1.1495-.0638-.0397-.0931-.1055-.1751-.1172l-.5588-.0795c-.3479-.0475-.6058-.3543-.5582-.6988-.3811-.0638-.6031953-.0802-.9893-.1329-.4905-.0703-.5921-.607-1.0825-.6773-.2116-.0287-.3061.2045-.5171.1744-.2801-.039-.415-.181-.6924-.22-.1738-.0242-.2578.1328-.3328.2911l-.1256.013c-.03-.1114-.0027-.2012.0136-.3204.0058-.0463-.069-.0488-.0800954-.0892-.3517045.0976-.4676045.4897-.8304045.4383-.0918-.013-.1243-.1101-.2155955-.1218-.1647045-.0242-.2573045.086-.4233045.0639-.31-.0443-.6096-.2639-.5666955-.5732.017-.1127.1420955-.1414.1583955-.2553.0403-.2788-.1818-.4566-.4403-.5855l-.1889.0352-.2721955-.0379c.0071955-.054-.0196045-.0879-.0124045-.1413.0293-.1954.2911-.2058.3185-.4019.0247-.1719.0025-.2826.0637-.4513l-.4987955-.0697c-.211.1304-.3145045.3862-.5712045.3504-.454-.0644-.7281-.5191-.6637-.971.0743-.5381.3517-1.1359.8871-1.0629.1804.026.2592.1301.4402.1563.129.0163.1681-.1609.2984-.1427.338.0469.7399.2039.6916.5439-.043.3087.1798.5249.4611.6643.0267-.0737.0404-.1193.0587-.1921l-.0795-.9809c.2677-.4637.9202-.394.992-.9171l.0488-.3458c.056-.4006.5067-.5842.906-.5276-.0262-.1497-.1218-.2331-.0997-.3848.024-.1642.2104-.1856.3699-.2234-.0013.0696-.0013.1159.0039.1849.3648-.0638.7568-.123.8089-.4871.0052-.0437-.0703-.0475-.0808-.0873-.1191.0294-.2018.0626-.3295.045-.1731954-.0235-.1159-.2704-.0774-.4403-.1049-.0156-.1674-.017-.2743-.0086.0768-.1197.1882-.1432.3308-.1692l.1733.0859c.0984046-.0403.1648-.0775.2631-.1171.0319.1445-.011.336.1414.3588l.6571.0912c.0456-.1629-.181-.1929-.2951-.3179-.1008-.1061.0215-.2593-.0689-.379-.1557-.2065-.385-.17-.6057-.301-.3739-.2299-.3732-.7378-.8102-.8004-.084-.0111-.1172.1075-.1987.0971-.2931-.0417-.3387-.3883-.6331-.4286-.0906-.0124-.1484954.017-.2344954.028.0078955.1557.1217955.2345.0990955.3849-.0345.2547-.4032.243-.4396.5002-.0214955.1583.0599.2469.0664.4097-.2365-.0111-.1681-.34-.3288955-.5094-.2761045-.2845-.8949045-.2018-.8389045-.603.0795-.5653,1.0395-.3836,1.1177-.9516.007-.0429-.0443-.0677-.0457-.1062.0717-.0129.114-.0456.1896-.0345.2422.0345.3569.1961.4663045.4116-.1446045.0424-.2365045.0287-.3784045.0698.312.1914.6089.1478.8291.4408l.2976-.1432c-.0619-.1087-.1132954-.1778-.2104-.2605.0633-.0136.1199-.0208.1864-.0039-.1466-.267-.4241-.2684-.6774-.4423-.2521-.1751-.3732-.3602-.6826-.4044l.0215-.1426c.0261-.1889.1504-.2567.2722045-.4019-.08-.0398-.1277045-.0788-.2181045-.0911-.1974-.028-.4448-.017-.4728.1797-.0176.1211.1009045.1602.1484.2663-.0864955.0665-.1484.1121-.213.187.0691.0625.1349.1348.1218.2319-.0091.069-.078.0743-.1367.1048-.118-.2084-.2612-.3452-.2267-.5868-.1081.0091-.2481.0111-.2631.1173-.017.1282.0815.1875.1427.2982-.1074955.0456-.1733.099-.2957.0801l-.2639-.0371c.0307-.0716.1049-.0918.116-.1758l.043-.3081c-.1746-.0098-.267-.0541-.4428955-.0782-.142-.0208-.3172045.0241-.338.1667-.0222045.1597.1314955.2117.2285955.3414-.0723.0266-.1114.0833-.1948.0729-.1587955-.0235-.1027955-.2546-.2286-.3485-.1647-.1309-.3321-.0391-.547-.0468.013-.1974-.0327-.4351-.2279-.4625-.5504-.0775-.8689.1557-1.3906.359-.3901.1516-.7295.1041-1.0381.377ZM17.8824955,18.6699c.2754-.099.4435045-.2463.7359-.2038.1882.0246.1712.2623.3172.375.2006.1602.403.1414.5711.3263-.1346955.1369-.2259.2313-.4096.2821.0221-.1661-.0599-.3479-.2248-.3707-.2715-.037-.1446.4716-.392.5915-.0384-.2137-.0742955-.3491-.0442955-.5621.015-.1107.101-.1681.1861955-.2338-.0924-.0593-.1406-.1426-.2539-.1582-.1518-.0222-.3335-.0398-.4858-.0463ZM19.9092955,19.3628l.1726.086c-.2547.2807-.549.4006-.9268.3471l-.1655-.0228c.2365-.3061.523-.3803.9197-.4103ZM20.1931954,24.3537c-.082-.0136-.0189-.1349-.0248-.2117.0795-.0123.1284-.0287.2131-.0319.002-.0691.002-.1152-.0052-.185.0526.0066.0794-.0208.1341-.0123.3074.0423.4501.1849.7562.2599-.243.3517-.6572.239-1.0734.181ZM18.7050955,23.5584c-.1604-.0305-.288-.0931-.3283-.2533.2058-.0325.3145-.0494.5177-.0196.2821.0398.4267.1441.6716.2788.1842.1016.4728.1277.4435.3393-.0163.1297-.174.1453-.3015955.1277l-.2637045-.0378c.0305-.065.0683-.1139.1152-.1674-.2266-.2012-.3752-.3465-.6766-.3894-.0535-.0071-.1323.1127-.1778.1217ZM20.5103954,15.3138c.2865.2018.4397.4304.7919.4403.0385.2221.2293.2748.3771.4324.2691.2917.4241.5522.8161.6064.0671.0111.1095046-.0066.1784-.0047-.1035-.2526-.3497-.3653-.3118-.6369.024-.1667.1849046-.2208.2083-.3861.0398-.2802-.379-.2607-.6206-.3967-.3439-.1844-.5211-.411-.9125-.4664-.3556-.0501-.7087-.0058-.8754.31.0938.0352.2417.0931.3485.1017Z" fill="none" fill-rule="evenodd"/>
              </g>
            </g>
          </g>
        </g>
      </g>
    </g>
  </g>
</svg>