/* XPM */
static char * maximize_toggled_active_xpm[] = {
"18 16 35 1",
" 	c None",
".	c #949599",
"+	c #F9F9FD",
"@	c #E4E5F4",
"#	c #E5E5F4",
"$	c #E5E6F4",
"%	c #E6E6F4",
"&	c #E6E7F5",
"*	c #E7E7F5",
"=	c #E7E8F5",
"-	c #E8E8F5",
";	c #E8E9F5",
">	c #E9E9F6",
",	c #E9EAF6",
"'	c #D6D7DA",
")	c #9191AB",
"!	c #9191AB",
"~	c #9192AB",
"{	c #9292AC",
"]	c #EBEBF7",
"^	c #9292AC",
"/	c #6B6C8B",
"(	c #6B6C8B",
"_	c #6B6D8C",
":	c #ECECF7",
"<	c #ECEDF7",
"[	c #9293AC",
"}	c #EEEEF8",
"|	c #6C6D8C",
"1	c #EEEFF8",
"2	c #676885",
"3	c #EFEFF8",
"4	c #EFF0F9",
"5	c #F0F0F9",
"6	c #F0F1F9",
"  ..............  ",
" .++++++++++++++. ",
".+@@#$%&*==-;>,,'.",
".+@#$%&)!!~{{,,]'.",
".+#$%&*==-;>^,]]'.",
".+$%&/((((_,^]]:'.",
".+%&*((((__,^]:<'.",
".+&*=(((___]^:<<'.",
".+==-(>,,]_:[<}}'.",
".+=-;_,,]]|<<}}1'.",
".+-;>____|2<}}13'.",
".+;>,,]]:<<}}134'.",
".+>,,]]:<<}}1345'.",
".+,,]]:<<}}13456'.",
" .''''''''''''''. ",
"  ..............  "};
