/* XPM */
static char * maximize_toggled_inactive_xpm[] = {
"18 16 10 1",
" 	c None",
".	c #C8C8B5",
"+	c #F3F3ED",
"@	c #F2F2EC",
"#	c #AFAF9C",
"$	c #F2F2EB",
"%	c #929179",
"&	c #F1F1EA",
"*	c #EFEFE8",
"=	c #EFEFE7",
"  ..............  ",
" .++++++++++++++. ",
".@@@@@@@@@@@@@@@@.",
".@@@@@@######@@@@.",
".$$$$$$$$$$$#$$$$.",
".$$$$%%%%%%$#$$$$.",
".$$$$%%%%%%$#$$$$.",
".&&&&%%%%%%&#&&&&.",
".&&&&%&&&&%&#&&&&.",
".&&&&%&&&&%&&&&&&.",
".****%%%%%%******.",
".****************.",
".****************.",
".================.",
" .==============. ",
"  ..............  "};
