/* XPM */
static char * maximize_pressed_xpm[] = {
"18 16 8 1",
" 	c None",
".	c #949599",
"+	c #D1D1DA",
"@	c #6B6C8B",
"#	c #6B6C8B",
"$	c #6B6D8C",
"%	c #6C6D8C",
"&	c #676885",
"  ..............  ",
" .++++++++++++++. ",
".++++++++++++++++.",
".++++++++++++++++.",
".++++@@####$+++++.",
".++++@####$$+++++.",
".++++####$$$+++++.",
".++++#+++++$+++++.",
".++++#+++++%+++++.",
".++++$+++++&+++++.",
".++++$$$$%&&+++++.",
".++++++++++++++++.",
".++++++++++++++++.",
".++++++++++++++++.",
" .++++++++++++++. ",
"  ..............  "};
