/* XPM */
static char * menu_active_xpm[] = {
"18 16 27 1",
" 	c None",
".	c #949599",
"+	c #F9F9FD",
"@	c #E4E5F4",
"#	c #E5E5F4",
"$	c #E5E6F4",
"%	c #E6E6F4",
"&	c #E6E7F5",
"*	c #E7E7F5",
"=	c #E7E8F5",
"-	c #E8E8F5",
";	c #E8E9F5",
">	c #E9E9F6",
",	c #E9EAF6",
"'	c #D6D7DA",
")	c #E8EDF9",
"!	c #6B6C8B",
"~	c #6B6D8C",
"{	c #E9EEF9",
"]	c #6B6C8B",
"^	c #EAEEF9",
"/	c #EBEFF9",
"(	c #ECF0FA",
"_	c #EDF0FA",
":	c #EDF1FA",
"<	c #EEF1FA",
"[	c #EEF2FA",
"  ..............  ",
" .++++++++++++++. ",
".+@@#$%&*==-;>,,'.",
".+@#$%&*==-;>,,)'.",
".+#$%&*==-;>,,))'.",
".+$%&!==-;>~,)){'.",
".+%&!]]-;>~~~){^'.",
".+&*=]]]>~~~){^^'.",
".+==-;~~~~~{^^//'.",
".+=-;>,~~~{^^//('.",
".+-;>,,)~{^^//(_'.",
".+;>,,)){^^//(_:'.",
".+>,,)){^^//(_:<'.",
".+,,)){^^//(_:<['.",
" .''''''''''''''. ",
"  ..............  "};
