/* XPM */
static char * right_active_xpm[] = {
"5 4 3 1",
" 	c None",
"+	c #000000",
".	c #e6e6e6 s active_color_2",
"....+",
"....+",
"....+",
"....+"};
