/* XPM */
static char * top_left_active_xpm[] = {
"10 22 13 1",
" 	c None",
".	c #000000",
"+	c #36383D",
"@	c #A7AEBE",
"#	c #C7C7D4",
"$	c #979EAC",
"%	c #393B40",
"&	c #A5ACBB",
"*	c #CBCCDA",
"=	c #D0D0DF",
"-	c #D4D5E5",
";	c #D9D9EB",
">	c #81829C",
"     .....",
"   .+@####",
"  .$######",
" .$#######",
" %########",
".&########",
".#########",
".#########",
".#########",
".#########",
".#########",
".#########",
".#########",
".#########",
".#########",
".#########",
".#########",
".*********",
".=========",
".---------",
".;;;;;;;;;",
".>>>>>>>>>"};
