<?xml version='1.0' encoding='UTF-8'?>
<svg xmlns="http://www.w3.org/2000/svg" xmlns:xlink="http://www.w3.org/1999/xlink" id="Layer_6" data-name="Layer 6" width="32" height="32" viewBox="0 0 32 32">
  <defs>
    <linearGradient id="New_Gradient_Swatch_8" data-name="New Gradient Swatch 8" x1="20.2626119" y1="25.1951241" x2="7.3326765" y2="12.2651888" gradientUnits="userSpaceOnUse">
      <stop offset="0" stop-color="#b0caff"/>
      <stop offset=".1381484" stop-color="#97b5f2"/>
      <stop offset=".4019205" stop-color="#6f93dd"/>
      <stop offset=".64258" stop-color="#527ace"/>
      <stop offset=".8499057" stop-color="#406bc5"/>
      <stop offset="1" stop-color="#3a66c2"/>
    </linearGradient>
    <linearGradient id="New_Gradient_Swatch_8-2" data-name="New Gradient Swatch 8" x1="4.9623926" y1="11.56885" x2="19.9813922" y2="11.56885" gradientUnits="userSpaceOnUse"><stop offset="0" stop-color="#b0caff"/><stop offset=".1381484" stop-color="#97b5f2"/><stop offset=".4019205" stop-color="#6f93dd"/><stop offset=".64258" stop-color="#527ace"/><stop offset=".8499057" stop-color="#406bc5"/><stop offset="1" stop-color="#3a66c2"/></linearGradient>
    <linearGradient id="New_Gradient_Swatch_8-3" data-name="New Gradient Swatch 8" x1="4.9623926" y1="11.56885" x2="19.9813922" y2="11.56885" gradientUnits="userSpaceOnUse"><stop offset="0" stop-color="#b0caff"/><stop offset=".1381484" stop-color="#97b5f2"/><stop offset=".4019205" stop-color="#6f93dd"/><stop offset=".64258" stop-color="#527ace"/><stop offset=".8499057" stop-color="#406bc5"/><stop offset="1" stop-color="#3a66c2"/></linearGradient>
    <mask id="mask" x="3.4618926" y="5.0908" width="24.1601494" height="22.8003" maskUnits="userSpaceOnUse">
      <path d="M8.2372925,12.5449c0-.3076.2534-.56.5659-.5635h17.1132996c.3125079-.0039.5654.2417.5654.5489v11.3701c0,.3081-.2528921.56-.5654.5615l-17.1132996.0015c-.3125.0049-.5659-.2403-.5659-.5479v-11.3706Z" fill="#fff"/>
    </mask>
    <mask id="mask-1" x="3.4618926" y="5.0908" width="22.8320995" height="22.8003" maskUnits="userSpaceOnUse">
      <path d="M8.793,12.8633c0-.1538.1263925-.2798.2836925-.2808l16.5663996.0059c.1567-.0015.2837.1201.2837.2749v10.7187c0,.1529-.127.2779-.2837.2793l-16.5663996-.0053c-.1573.0019-.2836925-.1211-.2836925-.274v-10.7187Z" fill="#fff" stroke="#fff" stroke-miterlimit="3.8637" stroke-width=".7344"/>
    </mask>
    <linearGradient id="New_Gradient_87" data-name="New Gradient 87" x1="18.1264913" y1="12.7678834" x2="16.5937438" y2="23.6739489" gradientUnits="userSpaceOnUse">
      <stop offset="0" stop-color="#6498c1"/>
      <stop offset=".893265" stop-color="#b4daea"/>
      <stop offset="1" stop-color="#b4daea"/>
    </linearGradient>
    <linearGradient id="New_Gradient_Swatch_8-4" data-name="New Gradient Swatch 8" x1="19.5732095" y1="25.112896" x2="6.7514151" y2="12.2911017" gradientUnits="userSpaceOnUse"><stop offset="0" stop-color="#b0caff"/><stop offset=".1381484" stop-color="#97b5f2"/><stop offset=".4019205" stop-color="#6f93dd"/><stop offset=".64258" stop-color="#527ace"/><stop offset=".8499057" stop-color="#406bc5"/><stop offset="1" stop-color="#3a66c2"/></linearGradient>
    <linearGradient id="New_Gradient_Swatch_8-5" data-name="New Gradient Swatch 8" x1="4.4618926" y1="11.5398" x2="19.2333922" y2="11.5398" gradientUnits="userSpaceOnUse"><stop offset="0" stop-color="#b0caff"/><stop offset=".1381484" stop-color="#97b5f2"/><stop offset=".4019205" stop-color="#6f93dd"/><stop offset=".64258" stop-color="#527ace"/><stop offset=".8499057" stop-color="#406bc5"/><stop offset="1" stop-color="#3a66c2"/></linearGradient>
    <linearGradient id="New_Gradient_Swatch_8-6" data-name="New Gradient Swatch 8" x1="19.5732095" y1="25.112896" x2="6.7514151" y2="12.2911017" gradientUnits="userSpaceOnUse"><stop offset="0" stop-color="#b0caff"/><stop offset=".1381484" stop-color="#97b5f2"/><stop offset=".4019205" stop-color="#6f93dd"/><stop offset=".64258" stop-color="#527ace"/><stop offset=".8499057" stop-color="#406bc5"/><stop offset="1" stop-color="#3a66c2"/></linearGradient>
    <linearGradient id="New_Gradient_Swatch_8-7" data-name="New Gradient Swatch 8" x1="4.4618926" y1="11.5398" x2="19.2333922" y2="11.5398" gradientUnits="userSpaceOnUse"><stop offset="0" stop-color="#b0caff"/><stop offset=".1381484" stop-color="#97b5f2"/><stop offset=".4019205" stop-color="#6f93dd"/><stop offset=".64258" stop-color="#527ace"/><stop offset=".8499057" stop-color="#406bc5"/><stop offset="1" stop-color="#3a66c2"/></linearGradient>
    <mask id="mask-2" x="7.3325425" y="10.8223003" width="20.2894995" height="13.6562497" maskUnits="userSpaceOnUse">
      <polygon points="7.5922925 11.1167 27.362292 11.0825 27.362292 13.8208 7.5922925 13.8545 7.5922925 11.1167" fill="#fff" stroke="#fff" stroke-miterlimit="3.8637" stroke-width=".5195"/>
    </mask>
    <linearGradient id="New_Gradient_86" data-name="New Gradient 86" x1="7.6796671" y1="5.0854599" x2="27.2751577" y2="19.8517212" gradientUnits="userSpaceOnUse">
      <stop offset="0" stop-color="#b2b2b2"/>
      <stop offset="1" stop-color="#fff"/>
    </linearGradient>
  </defs>
  <g>
    <g>
      <path d="M4.9623926,11.5688v9.9029c0,3.0078,3.3622999,5.4482,7.5092998,5.4482,4.1464999,0,7.5096998-2.4404,7.5096998-5.4482v-9.9029H4.9623926Z" fill="url(#New_Gradient_Swatch_8)" stroke="#000" stroke-linecap="round" stroke-linejoin="round" stroke-width="2"/>
      <path d="M19.9813922,11.5688c0,3.0093-3.3631999,5.4493-7.5096998,5.4493-4.1469999,0-7.5092998-2.44-7.5092998-5.4493,0-3.0097,3.3622999-5.4492,7.5092998-5.4492,4.1464999,0,7.5096998,2.4395,7.5096998,5.4492Z" fill="url(#New_Gradient_Swatch_8-2)" stroke="#000" stroke-linecap="round" stroke-linejoin="round" stroke-width="2"/>
    </g>
    <g>
      <path d="M4.9623926,11.5688v9.9029c0,3.0078,3.3622999,5.4482,7.5092998,5.4482,4.1464999,0,7.5096998-2.4404,7.5096998-5.4482v-9.9029H4.9623926Z" fill="url(#New_Gradient_Swatch_8)"/>
      <path d="M19.9813922,11.5688c0,3.0093-3.3631999,5.4493-7.5096998,5.4493-4.1469999,0-7.5092998-2.44-7.5092998-5.4493,0-3.0097,3.3622999-5.4492,7.5092998-5.4492,4.1464999,0,7.5096998,2.4395,7.5096998,5.4492Z" fill="url(#New_Gradient_Swatch_8-3)"/>
    </g>
  </g>
  <g>
    <path d="M8.2372925,12.5449c0-.3076.2534-.561.5659-.5635l17.1132996-.0004c.3125079-.0035.5654.2421.5654.5493v11.3701c0,.3081-.2528921.5586-.5654.5615H8.8031925c-.3125.0049-.5659-.2388-.5659-.5473v-11.3697Z" fill="#e5e5e5" stroke="#000" stroke-miterlimit="3.8637" stroke-width="2"/>
    <g mask="url(#mask)">
      <g>
        <path d="M8.2372925,12.5449c0-.3076.2534-.56.5659-.5635h17.1132996c.3125079-.0039.5654.2417.5654.5489v11.3701c0,.3081-.2528921.56-.5654.5615l-17.1132996.0015c-.3125.0049-.5659-.2403-.5659-.5479v-11.3706Z" fill="#e5e5e5"/>
        <path d="M26.3446921,12.2183c.0606.0976.0977.2153.0977.3466v11.0542c0,.3267-.2442.5957-.5463921.5997l-16.9297075-.001c-.1328.001-.2554-.0484-.3501-.1348" fill="none" stroke="#ccc" stroke-linecap="round" stroke-linejoin="round" stroke-width=".5195"/>
        <path d="M8.4364925,23.772c-.0093-.0449-.0156-.0918-.0156-.1402v-11.0547c0-.3266.2441075-.5947.5454-.5981h16.9297075c.0268921,0,.0531921.0034.0907921.0049" fill="none" stroke="#fff" stroke-linecap="round" stroke-miterlimit="3.8637" stroke-width=".5195"/>
        <g mask="url(#mask-1)">
          <g>
            <path d="M8.793,12.8633c0-.1538.1263925-.2798.2836925-.2808l16.5663996.0059c.1567-.0015.2837.1201.2837.2749v10.7187c0,.1529-.127.2779-.2837.2793l-16.5663996-.0053c-.1573.0019-.2836925-.1211-.2836925-.274v-10.7187Z" fill="url(#New_Gradient_87)"/>
            <rect x="8.8412925" y="13.9263" width="17.0204996" height=".44845" fill="#5387ba"/>
            <g opacity=".5">
              <g opacity=".5">
                <path d="M4.4618926,11.5396v9.9033c0,3.0078,3.3066999,5.4482,7.3857998,5.4482,4.0780999,0,7.3856998-2.4404,7.3856998-5.4482v-9.9033H4.4618926Z" fill="url(#New_Gradient_Swatch_8-4)" stroke="#000" stroke-linecap="round" stroke-linejoin="round" stroke-width="2"/>
                <path d="M19.2333922,11.5396c0,3.0092-3.3075999,5.4492-7.3856998,5.4492-4.0790999,0-7.3857998-2.44-7.3857998-5.4492,0-3.0093,3.3066999-5.4488,7.3857998-5.4488,4.0780999,0,7.3856998,2.4395,7.3856998,5.4488Z" fill="url(#New_Gradient_Swatch_8-5)" stroke="#000" stroke-linecap="round" stroke-linejoin="round" stroke-width="2"/>
              </g>
              <g>
                <path d="M4.4618926,11.5396v9.9033c0,3.0078,3.3066999,5.4482,7.3857998,5.4482,4.0780999,0,7.3856998-2.4404,7.3856998-5.4482v-9.9033H4.4618926Z" fill="url(#New_Gradient_Swatch_8-6)"/>
                <path d="M19.2333922,11.5396c0,3.0092-3.3075999,5.4492-7.3856998,5.4492-4.0790999,0-7.3857998-2.44-7.3857998-5.4492,0-3.0093,3.3066999-5.4488,7.3857998-5.4488,4.0780999,0,7.3856998,2.4395,7.3856998,5.4488Z" fill="url(#New_Gradient_Swatch_8-7)"/>
              </g>
            </g>
            <g>
              <g opacity=".5">
                <path d="M8.8187925,24.4634s0-1.3804.3169-1.5918c.2549-.2095,1.9698-.7822,2.2236999-.9927.1274-.4155.2539-.4863.2539-.4863.1279-.0698.2549-.0718.2549-.0718v-.207c-.1704.0024-.3907-.6426-.523-1.188-.0117-.0464-.1274-.0137-.1523-.1504-.0468924-.2183-.0498-.4058-.0498-.5386-.0508-.3423.0927-.2539.0888-.666-.0141-1.731,1.4624-1.814,1.4624-1.814,0,0,1.4673.0323,1.4605,1.7764-.001.4146.0962076.2676.1084.5679.0132.1377-.0121924.4443-.0747.6518-.0269.1236-.1621.0708-.166.1934-.1231.5698-.3287,1.144-.503,1.147v.208s.1275076-.0025.2539.0659c0,0,.1275.0674.2549.48.2539.2016,1.9693.7334,2.2227076.937.3177923.2026.3177923,1.5815.3177923,1.5815l-7.7499998.0977Z" fill="#16336e"/>
              </g>
              <g opacity=".75">
                <path d="M17.3344923,24.4634s0-1.5239.3501-1.7578c.2812-.231,2.1761999-.8633,2.4559999-1.0967.1407-.458.2803-.5361.2803-.5361.1416-.0787.2812-.0801.2812-.0801v-.2276c-.1875.001-.4316-.7109-.5760922-1.313-.0142078-.0512-.1406078-.0151-.169-.166-.0522078-.2412-.0561078-.4477-.0561078-.5947-.0547-.3789.104-.2798.1001078-.7378-.0156078-1.9092,1.6136922-2.0005,1.6136922-2.0005,0,0,1.6221.0352,1.6133078,1.9619-.0005079.4561.107.293.1196921.6265.0146.1514-.0126921.4902-.0835.7188-.0274.1367-.1783.0791-.1811921.2143-.1377079.6289-.3642078,1.2642-.5557078,1.2676v.229s.1392-.0024.2798.0723c0,0,.1407.0752.2803.5288.2808.2251,2.1757999.811,2.4564999,1.0366.3506.2246.3506,1.7471.3506,1.7471l-8.5599998.1074Z" fill="#16336e"/>
              </g>
              <path d="M12.1562924,24.4482s0-1.7021.392-1.9619c.3135-.2592,2.4291999-.9663,2.7431999-1.2256.1563-.5122.314-.5986.314-.5986.1552-.0874.3125077-.0898.3125077-.0898v-.2544c-.2095077.0014-.4815077-.7925-.6436077-1.4678-.0151-.0557-.1562-.0142-.1885-.1851-.0576-.2685-.0625-.498-.0625-.663-.0633923-.4244.1148-.314.1109-.8233-.0161-2.1318,1.8032-2.2344,1.8032-2.2344,0,0,1.811.0381,1.8018,2.19-.002.5102.1186.3281.1333.7007.0156.1699-.0147.5473-.0938.8027-.0303.1519-.1982.0884-.2031.2397-.1528.7017-.4053,1.4112-.6201,1.4136v.2559s.1562-.001.313.0815c0,0,.1562.083.3144077.5928.313.251,2.4286922.9053,2.7421922,1.1558.3911.2524.3911,1.9506.3911,1.9506l-9.5599998.1206Z" fill="#16336e"/>
            </g>
            <path d="M8.793,12.8633c0-.1538.1263925-.2798.2836925-.2808l16.5663996.0059c.1567-.0015.2837.1201.2837.2749v10.7187c0,.1529-.127.2779-.2837.2793l-16.5663996-.0053c-.1573.0019-.2836925-.1211-.2836925-.274v-10.7187Z" fill="none" stroke="gray" stroke-miterlimit="3.8637" stroke-width=".7344"/>
          </g>
        </g>
        <g mask="url(#mask-2)">
          <g>
            <polygon points="7.5922925 11.1167 27.362292 11.0825 27.362292 13.8208 7.5922925 13.8545 7.5922925 11.1167" fill="url(#New_Gradient_86)"/>
            <path d="M8.4364925,23.772c-.0093-.0449-.0156-.0918-.0156-.1402v-11.0547c0-.3266.2441075-.5947.5454-.5981h16.9297075c.0268921,0,.0531921.0034.0907921.0049" fill="none" stroke="#fff" stroke-linecap="round" stroke-miterlimit="3.8637" stroke-width=".5195"/>
            <path d="M26.3446921,12.2183c.0606.0976.0977.2153.0977.3466v11.0542c0,.3267-.2442.5957-.5463921.5997l-16.9297075-.001c-.1328.001-.2554-.0484-.3501-.1348" fill="none" stroke="#ccc" stroke-linecap="round" stroke-linejoin="round" stroke-width=".5195"/>
            <polygon points="7.5922925 11.1167 27.362292 11.0825 27.362292 13.8208 7.5922925 13.8545 7.5922925 11.1167" fill="none" stroke="gray" stroke-miterlimit="3.8637" stroke-width=".5195"/>
          </g>
        </g>
      </g>
    </g>
  </g>
</svg>