<?xml version='1.0' encoding='UTF-8'?>
<svg xmlns="http://www.w3.org/2000/svg" xmlns:xlink="http://www.w3.org/1999/xlink" id="Layer_7" data-name="Layer 7" width="32" height="32" viewBox="0 0 32 32">
  <defs>
    <linearGradient id="New_Gradient_124" data-name="New Gradient 124" x1="-1.4356939" y1="27.1453229" x2="10.021054" y2="17.5319699" gradientTransform="translate(-9.2803 2.1149) rotate(-1.7631399) scale(1.176557 .8498898) skewX(34.1847342)" gradientUnits="userSpaceOnUse">
      <stop offset="0" stop-color="#6b3200"/>
      <stop offset=".494385" stop-color="#d68100"/>
      <stop offset="1" stop-color="#9a5500"/>
    </linearGradient>
    <linearGradient id="New_Gradient_124-2" data-name="New Gradient 124" x1="-1.6818689" y1="27.0641373" x2="9.4125727" y2="17.7547954" gradientTransform="translate(-9.2803 2.1149) rotate(-1.7631399) scale(1.176557 .8498898) skewX(34.1847342)" gradientUnits="userSpaceOnUse"><stop offset="0" stop-color="#6b3200"/><stop offset=".494385" stop-color="#d68100"/><stop offset="1" stop-color="#9a5500"/></linearGradient>
    <linearGradient id="New_Gradient_123" data-name="New Gradient 123" x1="-1.2038736" y1="16.0612" x2="9.5755273" y2="29.3726515" gradientTransform="translate(-9.2803 2.1149) rotate(-1.7631399) scale(1.176557 .8498898) skewX(34.1847342)" gradientUnits="userSpaceOnUse">
      <stop offset="0" stop-color="#6b3200"/>
      <stop offset="1" stop-color="#c96b00"/>
    </linearGradient>
    <linearGradient id="New_Gradient_113" data-name="New Gradient 113" x1="9.1868586" y1="28.1118794" x2="-.0599067" y2="17.4746927" gradientTransform="translate(-9.2803 2.1149) rotate(-1.7631399) scale(1.176557 .8498898) skewX(34.1847342)" gradientUnits="userSpaceOnUse">
      <stop offset="0" stop-color="#9a5500"/>
      <stop offset="1" stop-color="#6b3200"/>
    </linearGradient>
    <linearGradient id="New_Gradient_106" data-name="New Gradient 106" x1="1.4461479" y1="16.7376604" x2="6.9807807" y2="28.6067186" gradientTransform="translate(-9.2803 2.1149) rotate(-1.7631399) scale(1.176557 .8498898) skewX(34.1847342)" gradientUnits="userSpaceOnUse">
      <stop offset="0" stop-color="#e5e5e5"/>
      <stop offset=".758423" stop-color="#fff"/>
      <stop offset="1" stop-color="#fff"/>
    </linearGradient>
    <linearGradient id="New_Gradient_105" data-name="New Gradient 105" x1="4.400029" y1="14.9117117" x2="3.8420154" y2="18.0763637" gradientTransform="translate(-9.2803 2.1149) rotate(-1.7631399) scale(1.176557 .8498898) skewX(34.1847342)" gradientUnits="userSpaceOnUse">
      <stop offset="0" stop-color="#999"/>
      <stop offset="1" stop-color="#b2b2b2"/>
    </linearGradient>
    <linearGradient id="New_Gradient_104" data-name="New Gradient 104" x1="2.7898947" y1="16.9691362" x2="4.8358785" y2="16.3043558" gradientTransform="translate(-9.2803 2.1149) rotate(-1.7631399) scale(1.176557 .8498898) skewX(34.1847342)" gradientUnits="userSpaceOnUse">
      <stop offset="0" stop-color="#737373"/>
      <stop offset="1" stop-color="#b2b2b2"/>
    </linearGradient>
    <linearGradient id="New_Gradient_103" data-name="New Gradient 103" x1="3.7052531" y1="14.9262223" x2="3.1891356" y2="17.8532699" gradientTransform="translate(-9.2803 2.1149) rotate(-1.7631399) scale(1.176557 .8498898) skewX(34.1847342)" gradientUnits="userSpaceOnUse">
      <stop offset="0" stop-color="#f2f2f2"/>
      <stop offset=".60112" stop-color="#e5e5e5"/>
      <stop offset="1" stop-color="#b2b2b2"/>
    </linearGradient>
    <linearGradient id="New_Gradient_102" data-name="New Gradient 102" x1="3.6384444" y1="15.2811581" x2="4.7258296" y2="19.6424221" gradientTransform="translate(-9.2803 2.1149) rotate(-1.7631399) scale(1.176557 .8498898) skewX(34.1847342)" gradientUnits="userSpaceOnUse">
      <stop offset="0" stop-color="#666"/>
      <stop offset=".876404" stop-color="#d9d9d9"/>
      <stop offset="1" stop-color="#b2b2b2"/>
    </linearGradient>
    <linearGradient id="New_Gradient_101" data-name="New Gradient 101" x1="1.8316644" y1="16.9384238" x2="7.008051" y2="18.8224744" gradientTransform="translate(-9.2803 2.1149) rotate(-1.7631399) scale(1.176557 .8498898) skewX(34.1847342)" gradientUnits="userSpaceOnUse">
      <stop offset="0" stop-color="#4c4c4c"/>
      <stop offset="1" stop-color="gray"/>
    </linearGradient>
    <linearGradient id="New_Gradient_100" data-name="New Gradient 100" x1="4.9807572" y1="15.5920165" x2="4.5414537" y2="18.08343" gradientTransform="translate(-9.2803 2.1149) rotate(-1.7631399) scale(1.176557 .8498898) skewX(34.1847342)" gradientUnits="userSpaceOnUse">
      <stop offset="0" stop-color="#e5e5e5"/>
      <stop offset="1" stop-color="#b2b2b2"/>
    </linearGradient>
    <linearGradient id="New_Gradient_89" data-name="New Gradient 89" x1="-45.9946287" y1="-24.1057625" x2="-26.3417036" y2="-24.1057625" gradientTransform="translate(62.9144 19.1163) rotate(-28.0027189)" gradientUnits="userSpaceOnUse">
      <stop offset="0" stop-color="#b2b2b2"/>
      <stop offset=".449432" stop-color="#b2b2b2"/>
      <stop offset=".696625" stop-color="#e5e5e5"/>
      <stop offset="1" stop-color="#e5e5e5"/>
    </linearGradient>
    <mask id="mask" x="10.7440836" y="7.8188" width="17.2562523" height="14.0269" maskUnits="userSpaceOnUse">
      <path d="M27.2108831,11.2651c-.7578.6924-1.8691,1.1592-2.8924999,1.2784-2.6601999,2.4336-3.9882999,3.6484-6.6445998,6.0815.3106.5249.0957,1.2642-.664,1.9561-.7207.6591-1.7597834,1.1167-2.7324999,1.2646l-.4375-.8228s1.5489-.5,1.9356-.854c-.2207-.3754-.2227-.3584-.4453-.7343-.7305.0883-1.0938.1318-1.8203.2202-.6446.5928-.9667835.8906-1.6114,1.4844l-.4375-.8223s.5332-.8438,1.0137-1.2852c.7227-.666,1.7676-1.1264,2.7480999-1.2705,2.6795999-2.4658,4.0213999-3.6997,6.7010998-6.1665-.2675-.5205-.0507833-1.2319.67-1.8969.5292167-.4893,2.4159999-1.879,2.4159999-1.879l.4375.8223c-.6387.5889-.959.8828-1.5977,1.4712.2305.3784.2383.3618.4688.7393.7343-.0855,1.1015-.1275,1.8379-.2129.4453-.4068,1.2929-2.0991,1.2929-2.0991l.4356.8217c.2773.5235.0566,1.2364-.6739,1.9038Z" fill="#fff"/>
    </mask>
    <linearGradient id="linear-gradient" x1="34.1933321" y1="7.5022368" x2="10.9885112" y2="19.4463318" gradientUnits="userSpaceOnUse">
      <stop offset="0" stop-color="#000"/>
      <stop offset=".0845945" stop-color="#242424"/>
      <stop offset=".1831949" stop-color="#484848"/>
      <stop offset=".2876334" stop-color="#656565"/>
      <stop offset=".3980741" stop-color="#7c7c7c"/>
      <stop offset=".5172226" stop-color="#8c8c8c"/>
      <stop offset=".6512391" stop-color="#969696"/>
      <stop offset=".831461" stop-color="#999"/>
    </linearGradient>
    <linearGradient id="linear-gradient-2" x1="-48.87718" y1="-27.0539073" x2="-41.126944" y2="-19.3036713" gradientTransform="translate(57.3123031 42.9352997)" gradientUnits="userSpaceOnUse">
      <stop offset="0" stop-color="#87ba87"/>
      <stop offset="0" stop-color="#75a275"/>
      <stop offset="0" stop-color="#567756"/>
      <stop offset="0" stop-color="#3b523b"/>
      <stop offset="0" stop-color="#263426"/>
      <stop offset="0" stop-color="#151d15"/>
      <stop offset="0" stop-color="#090c09"/>
      <stop offset="0" stop-color="#020302"/>
      <stop offset="0" stop-color="#000"/>
      <stop offset=".0895576" stop-color="#242424"/>
      <stop offset=".2878357" stop-color="#707070"/>
      <stop offset=".4295825" stop-color="#9f9f9f"/>
      <stop offset=".5" stop-color="#b2b2b2"/>
      <stop offset="1" stop-color="#e5e5e5"/>
    </linearGradient>
    <linearGradient id="linear-gradient-3" x1="14.6595995" y1="10.2751206" x2="22.1851538" y2="16.7926958" gradientUnits="userSpaceOnUse">
      <stop offset="0" stop-color="#999"/>
      <stop offset=".1201802" stop-color="#9c9c9c"/>
      <stop offset=".2271492" stop-color="#a7a7a7"/>
      <stop offset=".292135" stop-color="#b2b2b2"/>
      <stop offset=".606741" stop-color="#e5e5e5"/>
      <stop offset="1" stop-color="#e5e5e5"/>
    </linearGradient>
    <linearGradient id="linear-gradient-4" x1="-348.8035216" y1="-263.5883288" x2="-334.5524415" y2="-249.3372487" gradientTransform="translate(271.2764 359.6815) rotate(17.00163)" gradientUnits="userSpaceOnUse">
      <stop offset="0" stop-color="#666"/>
      <stop offset=".0178513" stop-color="#6d6d6d"/>
      <stop offset=".1144914" stop-color="#949494"/>
      <stop offset=".2183295" stop-color="#b5b5b5"/>
      <stop offset=".3291794" stop-color="#d0d0d0"/>
      <stop offset=".4496279" stop-color="#e5e5e5"/>
      <stop offset=".5844797" stop-color="#f3f3f3"/>
      <stop offset=".745304" stop-color="#fcfcfc"/>
      <stop offset="1" stop-color="#fff"/>
    </linearGradient>
    <mask id="mask-1" x="10.9118695" y="7.5555497" width="16.7078316" height="13.9408707" maskUnits="userSpaceOnUse">
      <path d="M26.7733832,10.4424c-.7558.6919-1.8711,1.1597-2.8944999,1.2788-2.6581999,2.4331-3.9862999,3.6484-6.6425998,6.081.3086.5245.0938,1.2647-.6621,1.9566-.7226.6592-1.7617,1.1167-2.7343999,1.2641.6426-.5878.9649-.8818,1.6075-1.4702-.2207-.3759-.3301-.5644-.5547-.9404-.7285.0874-1.0938.1314-1.8203.2197-.6446.5938-.9668.8907-1.6114,1.4849-.2617-.52-.041-1.2339.6856-1.9023.7226-.6661,1.7656-1.126,2.7479999-1.2696,2.6796999-2.4663,4.0215165-3.7002,6.7011998-6.166-.2676-.5225-.0508-1.2329.6719-1.8989.7148-.6607,1.7578-1.1167,2.7421999-1.2613-.6387.5884-.959.8824-1.5977,1.4722.2324.3775.3477.5669.5781.9444.7325-.086,1.1016-.128,1.8399-.2134.6465-.5928.9687-.8897,1.6191-1.4824.2735.5224.0547,1.2363-.6758,1.9028Z" fill="#fff"/>
    </mask>
    <linearGradient id="linear-gradient-5" x1="-338.029286" y1="-263.954357" x2="-336.0141524" y2="-261.9392234" gradientTransform="translate(271.2764 359.6815) rotate(17.00163)" gradientUnits="userSpaceOnUse">
      <stop offset="0" stop-color="#b2b2b2"/>
      <stop offset=".35955" stop-color="#b2b2b2"/>
      <stop offset=".55618" stop-color="#e5e5e5"/>
      <stop offset="1" stop-color="#e5e5e5"/>
    </linearGradient>
    <linearGradient id="linear-gradient-6" x1="-346.9528171" y1="-251.8206255" x2="-343.0719654" y2="-247.9397739" gradientTransform="translate(271.2764 359.6815) rotate(17.00163)" gradientUnits="userSpaceOnUse"><stop offset="0" stop-color="#b2b2b2"/><stop offset=".35955" stop-color="#b2b2b2"/><stop offset=".55618" stop-color="#e5e5e5"/><stop offset="1" stop-color="#e5e5e5"/></linearGradient>
    <linearGradient id="linear-gradient-7" x1="-35.7860484" y1="-36.4174771" x2="-37.6558782" y2="-22.3223202" gradientTransform="translate(62.9144 19.1163) rotate(-28.0027189)" gradientUnits="userSpaceOnUse"><stop offset="0" stop-color="#b2b2b2"/><stop offset=".35955" stop-color="#b2b2b2"/><stop offset=".55618" stop-color="#e5e5e5"/><stop offset="1" stop-color="#e5e5e5"/></linearGradient>
    <linearGradient id="New_Gradient_88" data-name="New Gradient 88" x1="-349.0111315" y1="-263.5935259" x2="-334.7475599" y2="-249.3299543" gradientTransform="translate(271.2764 359.6815) rotate(17.00163)" gradientUnits="userSpaceOnUse">
      <stop offset="0" stop-color="#666"/>
      <stop offset="1" stop-color="#fff"/>
    </linearGradient>
  </defs>
  <g>
    <path d="M7.8905836,15.2427c.2383.2383.7481.3545,1.1367.2583.3926-.0957.5137164-.3677.2754-.606-.2382-.2383-.748-.354-1.1386-.2578-.3887.0957-.5137.3672-.2735.6055ZM10.4452836,15.229l.1973.1978,1.0195-.2569c-.2598-.1264-.6152-.1714-.9062-.0996-.1368.0337-.2422.0894-.3106.1587ZM7.2714836,15.4326c-.459-.4585-.2246-.9809.5273-1.166.75-.1841,1.7305.0376,2.1894999.4971.0898-.0298.1894-.0625.3105-.0884.7793-.1655,1.5196.0937,1.9063.3579l1.8105-.4565c.4121-.1036,1.502.2695,1.502.2695.1445.0654.2637.1352.3476.2202l8.4062998,8.4063c.2519.2529.125.5424-.2891.6455l-9.8827998,2.4907c-.2225835.0557-.4805.0459-.7109-.0151,0,0-.8848-.2217-1.1366835-.4742L3.8456837,17.7129c-.2539-.2529-.125-.542.2871-.646l3.8124999-.9609-.6504-.6485-.0234-.0249Z" fill="url(#New_Gradient_124)" stroke="#000" stroke-linecap="round" stroke-linejoin="round" stroke-width="2"/>
    <path d="M4.1327837,17.0669l9.8827998-2.4902c.4121-.1036,1.502.2695,1.502.2695l8.1094166,8.4072c.2518832.2529.125.5425-.2891168.646l-9.9491997,2.6944s-.8848-.2217-1.1366835-.4742L3.8456837,17.7129c-.2539-.2529-.125-.542.2871-.646Z" fill="url(#New_Gradient_124-2)" fill-rule="evenodd"/>
    <path d="M4.7772837,17.2866l9.8828998-2.4907c.414-.104.9511.0171,1.205.2705l8.4062998,8.4063c.2519.2529.125.5424-.2891.6455l-9.8827998,2.4907c-.4121.103-.9512-.0181-1.2031-.2705l-8.4062998-8.4063c-.2539-.2529-.125-.5425.2871-.6455Z" fill="url(#New_Gradient_123)" fill-rule="evenodd"/>
    <polygon points="23.1991832 23.3955 14.1132835 25.6426 6.5800837 18.1079 15.6640834 15.8613 23.1991832 23.3955" fill="url(#New_Gradient_113)" fill-rule="evenodd"/>
    <polygon points="22.6151833 23.1953 13.4511835 25.4482 6.1366837 18.1338 15.3007834 15.8799 22.6151833 23.1953" fill="url(#New_Gradient_106)" fill-rule="evenodd"/>
    <path d="M7.8905836,15.2427c.2383.2383.7481.3545,1.1367.2583.3926-.0957.5137164-.3677.2754-.606-.2382-.2383-.748-.354-1.1386-.2578-.3887.0957-.5137.3672-.2735.6055ZM7.2714836,15.4326c-.459-.4585-.2246-.9809.5273-1.166.75-.1841,1.7305.0376,2.1894999.4971.0254.0259.0488.0512.0703.0771l1.4902,1.4917-2.7108999.667-1.543-1.542-.0234-.0249Z" fill="url(#New_Gradient_105)"/>
    <path d="M8.9511836,16.7939s-1.1171836-1.1162-1.3496-1.3501c-.2344-.2343-.209-.4599-.209-.4599,0,0,.2031.4985,1.082.6733.7695.1524,1.1797-.1836,1.2188-.2934l.9804.9824-1.7226.4477Z" fill="url(#New_Gradient_104)" fill-rule="evenodd"/>
    <path d="M8.6015836,16.7573l-1.3399-1.3388c-.4512-.4527-.2519-1.0489.8145-1.2188.1699-.0278.4062.1191.2343.1465-.9531.1523-1.1171.6919-.7343,1.0757l1.3398164,1.3384c.1015836.1015-.2148164.0986-.3144164-.003Z" fill="url(#New_Gradient_103)"/>
    <path d="M9.2011836,15.5415s.5605-.21.3515-.5215c-.2773-.4121-1.0644-.4844-1.0644-.4844" fill="none" stroke="#f2f2f2" stroke-linecap="round" stroke-miterlimit="3.8637" stroke-width=".5272"/>
    <path d="M10.4823836,15.6758c.2383.2388.7481.354,1.1367.2573.3907-.0957.5137-.3662.2754-.6045-.2382-.2388-.748-.355-1.1386-.2583-.3907.0957-.5118.3662-.2735.6055ZM7.8065836,18.1504c-.1405836-.3755.4629-.5313,1.3457-1,.9082-.4824.7461-.8687.6758-1.2261-.0780836-.3965-.5058-1.0415.4707-1.249,1.0703-.2275,2.0702999.3486,2.1757999.6343.1543.416,1.1934165.6069,1.1934165.6069,1.0663835.1191.8495835.5342.8495835.5342l-6.7109998,1.6997Z" fill="url(#New_Gradient_102)" fill-rule="evenodd"/>
    <path d="M8.6581836,17.7031s.3047-.2202.918-.4712c.6093-.2509.6992-.7441.623-1.0009-.0761836-.2579-.1211-.6499-.1211-.6499,0,0,.3574.4545.9883.5288.7422.0883,1.3027-.17,1.291-.461,0,0,.2344.2495.9551.4512.4277.1211.4238.2817.4238.2817l-5.0780999,1.3213Z" fill="url(#New_Gradient_101)" fill-rule="evenodd"/>
    <path d="M9.5487836,16.9038s.0293-.0205.0703-.0615c.2696-.2847.2813-.6812.1582-1.0503-.289-.8496-.0058-1.1128.8204-1.1802.1894-.0156.3925.1358.2031.1504-.6621.0542-.961.2461-.6797,1.0786.125.3667.1328.9175-.252,1.1807-.0937.0649-.414-.0537-.3203-.1177Z" fill="url(#New_Gradient_100)"/>
    <path d="M11.3300835,14.9966s.5371.0913.7402.3652c.2207165.3003.1172.6035-.6074.6846" fill="none" stroke="#f2f2f2" stroke-linecap="round" stroke-miterlimit="3.8637" stroke-width=".5272"/>
    <line x1="7.7831836" y1="18.1875" x2="14.5058835" y2="16.4707" fill="none" stroke="gray" stroke-linecap="round" stroke-miterlimit="3.8637" stroke-width=".5272"/>
    <polygon points="9.1952836 19.1895 10.3573836 18.8867 11.0741836 19.605 9.9140836 19.9077 9.1952836 19.1895" fill="none" stroke="#999" stroke-linecap="round" stroke-linejoin="round" stroke-width=".7853"/>
    <line x1="11.9101835" y1="19.0278" x2="15.7812834" y2="18.1079" fill="none" stroke="#999" stroke-linecap="round" stroke-miterlimit="3.8637" stroke-width="1.3089"/>
    <polygon points="10.4647836 20.4585 11.627 20.1567 12.3437835 20.874 11.1835835 21.1768 10.4647836 20.4585" fill="none" stroke="#999" stroke-linecap="round" stroke-linejoin="round" stroke-width=".7853"/>
    <line x1="13.1796835" y1="20.2974" x2="17.0507834" y2="19.3779" fill="none" stroke="#999" stroke-linecap="round" stroke-miterlimit="3.8637" stroke-width="1.3089"/>
    <polygon points="11.7343835 21.7275 12.8944835 21.4253 13.6132835 22.144 12.4511835 22.4463 11.7343835 21.7275" fill="none" stroke="#999" stroke-linecap="round" stroke-linejoin="round" stroke-width=".7853"/>
    <line x1="14.4491835" y1="21.5669" x2="18.3183834" y2="20.647" fill="none" stroke="#999" stroke-linecap="round" stroke-miterlimit="3.8637" stroke-width="1.3089"/>
    <polygon points="13.002 22.9966 14.1640835 22.6943 14.8827835 23.4126 13.7206835 23.7153 13.002 22.9966" fill="none" stroke="#999" stroke-linecap="round" stroke-linejoin="round" stroke-width=".7853"/>
    <line x1="15.7187834" y1="22.8354" x2="19.5878833" y2="21.916" fill="none" stroke="#999" stroke-linecap="round" stroke-miterlimit="3.8637" stroke-width="1.3089"/>
  </g>
  <g>
    <path d="M27.4530831,8.5337c-.6465.5937-.9726.8906-1.6210831,1.4834-.7363168.0859-1.1035168.1269-1.8379168.2139-.0370832-.0581-.0683-.1104-.0996-.1612.6075168-.5595.9297-.8554,1.5528-1.4287l-.4375-.8223s0,.001-.002.0025c.002-.0025.0039-.0039.0078-.0078-.9863.1445-2.0292999.5996-2.7460999,1.2607-.7207.6665-.9374833,1.3775-.6699,1.8994-2.6815833,2.4668-4.0214999,3.7002-6.6991998,6.1675-.9843835.1441-2.0273835.6035-2.7499999,1.2686-.7246.6689-.9473,1.3818-.6856,1.9008-.0019.002-.0039.0064-.0039.0064l.4375.8223c.6446165-.5938.9668-.8916,1.6114-1.4844.7265-.0884,1.0898-.1319,1.8203-.2202.0332.0586.0605.1045.0879166.1455-.6192165.5654-.9414165.8613-1.5742165,1.4385.0078-.002.0175-.0044.0253-.0049-.0156.0058-.0293.0092-.0293.0092l.4375.8228c.9727165-.1479,2.0117999-.6055,2.7324999-1.2646.7597-.6919.9746-1.4312.664-1.9561,2.6562999-2.4331,3.9843999-3.6479,6.6445998-6.0815,1.0234-.1192,2.1346999-.586,2.8924999-1.2784.7305-.6674.9512-1.3803.6739-1.9038l-.4121-.7759c-.0079-.0166-.0098-.0351-.0196-.0517Z" fill="url(#New_Gradient_89)" stroke="#000" stroke-linecap="round" stroke-linejoin="round" stroke-width="2"/>
    <g mask="url(#mask)">
      <g>
        <path d="M27.2108831,11.2651c-.7578.6924-1.8691,1.1592-2.8924999,1.2784-2.6601999,2.4336-3.9882999,3.6484-6.6445998,6.0815.3106.5249.0957,1.2642-.664,1.9561-.7207.6591-1.7597834,1.1167-2.7324999,1.2646l-.4375-.8228s1.5489-.5,1.9356-.854c-.2207-.3754-.2227-.3584-.4453-.7343-.7305.0883-1.0938.1318-1.8203.2202-.6446.5928-.9667835.8906-1.6114,1.4844l-.4375-.8223s.5332-.8438,1.0137-1.2852c.7227-.666,1.7676-1.1264,2.7480999-1.2705,2.6795999-2.4658,4.0213999-3.6997,6.7010998-6.1665-.2675-.5205-.0507833-1.2319.67-1.8969.5292167-.4893,2.4159999-1.879,2.4159999-1.879l.4375.8223c-.6387.5889-.959.8828-1.5977,1.4712.2305.3784.2383.3618.4688.7393.7343-.0855,1.1015-.1275,1.8379-.2129.4453-.4068,1.2929-2.0991,1.2929-2.0991l.4356.8217c.2773.5235.0566,1.2364-.6739,1.9038Z" fill="url(#linear-gradient)"/>
        <rect x="11.1727412" y="18.5867926" width="2.2550347" height="2.3872647" transform="translate(-7.8412094 8.0807309) rotate(-27.9737271)" fill="url(#linear-gradient-2)"/>
      </g>
    </g>
    <path d="M26.7733832,10.4424c-.7558.6919-1.8711,1.1597-2.8944999,1.2788-2.6581999,2.4331-3.9862999,3.6484-6.6425998,6.081.3086.5245.0938,1.2647-.6621,1.9566-.7226.6592-1.7617,1.1167-2.7343999,1.2641.6426-.5878.9649-.8818,1.6075-1.4702-.2207-.3759-.3301-.5644-.5547-.9404-.7285.0874-1.0938.1314-1.8203.2197-.6446.5938-.9668.8907-1.6114,1.4849-.2617-.52-.041-1.2339.6856-1.9023.7226-.6661,1.7656-1.126,2.7479999-1.2696,2.6796999-2.4663,4.0215165-3.7002,6.7011998-6.166-.2676-.5225-.0508-1.2329.6719-1.8989.7148-.6607,1.7578-1.1167,2.7421999-1.2613-.6387.5884-.959.8824-1.5977,1.4722.2324.3775.3477.5669.5781.9444.7325-.086,1.1016-.128,1.8399-.2134.6465-.5928.9687-.8897,1.6191-1.4824.2735.5224.0547,1.2363-.6758,1.9028Z" fill="url(#linear-gradient-3)"/>
    <path d="M23.0448833,11.2861h0c.3164.0952.3379.3863.0508.648-2.4081999,2.208-3.6132999,3.3125-6.0214998,5.52-.2871.2622-.7695.398-1.0801.3042h0c-.3125-.0952-.332-.3838-.0488-.6455,2.4062999-2.21,3.6073999-3.3135,6.0117166-5.5234.2870833-.2632.7714833-.397,1.0878833-.3033Z" fill="url(#linear-gradient-4)" fill-rule="evenodd"/>
    <g mask="url(#mask-1)">
      <g>
        <g>
          <path d="M27.2538831,8.4795c-.6465.5928-.9707.8901-1.6191,1.4824-.6172.0733-.9257832.1079-1.545.1807.0372168.06.0567.0898.0938.1509.7363-.0855,1.1035-.1275,1.8418-.2134.5332-.4898.8008-.7354,1.3379-1.2251-.0117-.1328-.0488-.2583-.1094-.3755Z" fill="url(#linear-gradient-5)"/>
          <path d="M14.7890835,18.7051c.1875.3159.2832.4741.4687.789-.6426.5884-.9667834.8829-1.6074,1.4712.2207-.0332.4453-.0844.668-.1484.5273-.4824.7929-.7241,1.3203-1.2061-.2226834-.3759-.334-.5644-.5586-.9399-.1153.0132-.1719.021-.291.0342Z" fill="url(#linear-gradient-6)"/>
          <path d="M24.5292832,8.0225c.1152-.104.1719-.1568.2871-.2632-.9863.144-2.0292999.6006-2.7440999,1.2622-.7227.6665-.9375,1.3764-.67,1.8984-2.6795999,2.4673-4.0194999,3.7002-6.6991998,6.167-.9824.1441-2.0253999.605-2.7479999,1.2705-.7246.668-.9453,1.3814-.6856,1.9009.1133-.103.17-.1548.2793-.2578-.0332-.4609.2227-1.0078.7891-1.5278.7226-.6661,1.7656-1.126,2.7479999-1.2701,2.6796999-2.4648,4.0214999-3.6987,6.7031998-6.1655-.2676-.5215-.0508-1.2329.6718-1.8989.5528-.5108,1.3008-.8985,2.0683999-1.1157Z" fill="url(#linear-gradient-7)"/>
        </g>
        <path d="M26.5800832,10.5449c-.7578.6919-1.8710832,1.1597-2.8984999,1.2798-2.6542999,2.4316-3.9823999,3.6484-6.6385832,6.0796.3104834.5254.0956834,1.2651-.6641166,1.9575-.7207.6587-1.7578,1.1157-2.7304999,1.2637.6426165-.5879.9629-.8823,1.6075-1.4707-.2227-.375-.336-.564-.5567-.94-.7285.087-1.0918.1314-1.8183.2193-.6446.5942-.9688.8921-1.6133,1.4853-.2617-.5205-.0391-1.2339.6855-1.9023.7227-.666,1.7657-1.1255,2.7480999-1.2686,2.6815999-2.4672,4.0214999-3.7002,6.7010998-6.1665-.2675-.5229-.0507-1.2334.67-1.8994.7187167-.6611,1.7597167-1.1167,2.7460999-1.2617-.6407.5894-.959.8823-1.5977,1.4722.2305.3779.3438.5678.5762.9448.7344-.0855,1.1035-.1284,1.8398-.2129.6465-.5942.9707-.8901,1.6192-1.4839.2734.5235.0566,1.2383-.6758,1.9038Z" fill="none" stroke="#ccc" stroke-miterlimit="3.8637" stroke-width=".5"/>
        <path d="M22.8515833,11.228h0c.3144167.0952.3379.3858.0527.6465-2.4979999,2.292-3.6054999,3.3071-6.0214998,5.522-.2851.2627-.7715.3974-1.0801.3032h0c-.3125-.0937-.3339-.3828-.0468-.6455,2.4022999-2.209,3.6053999-3.3149,6.0077998-5.5244.2851-.2612.7734-.3975,1.0879-.3018Z" fill="url(#New_Gradient_88)" fill-rule="evenodd"/>
      </g>
    </g>
  </g>
</svg>