<?xml version="1.0" encoding="UTF-8"?>
<svg xmlns="http://www.w3.org/2000/svg" width="32" height="32" xmlns:xlink="http://www.w3.org/1999/xlink" viewBox="0 0 32 32">
  <defs>
    <radialGradient id="New_Gradient_355" data-name="New Gradient 355" cx="11.7851091" cy="16.7619117" fx="11.7851091" fy="16.7619117" r="9.3197938" gradientTransform="translate(7.4727873 -7.0130116) scale(.9408)" gradientUnits="userSpaceOnUse">
      <stop offset="0" stop-color="#ffe900"/>
      <stop offset=".623596" stop-color="#d68100"/>
      <stop offset="1" stop-color="#9a5500"/>
    </radialGradient>
    <mask id="mask" x="9.084" y="19.6233" width="14.3567963" height="10.5512976" maskUnits="userSpaceOnUse">
      <path d="M15.6425867,21.7212c3.6171999,0,6.5546998,1.8213,6.5546998,4.0688,0,2.2466-2.9374999,4.0684-6.5546998,4.0684-3.6230999,0-6.5585867-1.8218-6.5585867-4.0684,0-2.2475,2.9354868-4.0688,6.5585867-4.0688Z" fill="#fff"/>
    </mask>
    <radialGradient id="New_Gradient_353" data-name="New Gradient 353" cx="10.39664" cy="22.0312273" fx="10.39664" fy="22.0312273" r="11.8013086" gradientUnits="userSpaceOnUse">
      <stop offset="0" stop-color="#ffe900"/>
      <stop offset=".533707" stop-color="#d68100"/>
      <stop offset=".915726" stop-color="#9a5500"/>
      <stop offset="1" stop-color="#9a5500"/>
    </radialGradient>
    <radialGradient id="New_Gradient_354" data-name="New Gradient 354" cx="9.4485589" cy="39.3512587" fx="9.4485589" fy="39.3512587" r="8.8572426" gradientTransform="translate(7.4727873 -7.0130116) scale(.9408)" gradientUnits="userSpaceOnUse">
      <stop offset="0" stop-color="#ecd600"/>
      <stop offset=".146072" stop-color="#ecb300"/>
      <stop offset="1" stop-color="#9a5500"/>
    </radialGradient>
    <mask id="mask-1" x="9.5695868" y="19.6233" width="12.6536998" height="9.2333" maskUnits="userSpaceOnUse">
      <path d="M15.666,21.71c2.3671866,0,4.2870866,1.1528,4.2870866,2.5732,0,1.4233-1.9199,2.5757-4.2870866,2.5757-2.3672133,0-4.2851132-1.1519-4.2851132-2.5747,0-1.4214,1.9179-2.5742,4.2851132-2.5742Z" fill="#fff"/>
    </mask>
    <linearGradient id="New_Gradient_352" data-name="New Gradient 352" x1="10.8240991" y1="24.3576832" x2="21.3651814" y2="29.7286329" gradientTransform="translate(-.0522 .0479)" gradientUnits="userSpaceOnUse">
      <stop offset="0" stop-color="#ecb300"/>
      <stop offset=".213486" stop-color="#d68100"/>
      <stop offset="1" stop-color="#6b3200"/>
    </linearGradient>
    <mask id="mask-2" x="12.9843867" y="7.2046" width="12.1542997" height="18.2202" maskUnits="userSpaceOnUse">
      <path d="M12.9843867,24.9761c.9043.291,1.8633.4487,2.8651999.4487,5.1288999,0,9.2890998-4.1611,9.2890998-9.2925,0-4.2344-2.8183999-7.8071-6.6874998-8.9277l-.4121,1.3286c3.3065999.9468,5.7109134,3.9907,5.7109134,7.5991,0,4.3633-3.5391134,7.9024-7.9004133,7.9024-.7773,0-1.5293-.1133-2.2401999-.3223l-.625,1.2637Z" fill="#fff" fill-rule="evenodd"/>
    </mask>
    <linearGradient id="New_Gradient_349" data-name="New Gradient 349" x1="19.0615366" y1="7.2046" x2="19.0615366" y2="25.4248" gradientUnits="userSpaceOnUse">
      <stop offset="0" stop-color="#ecb300"/>
      <stop offset=".5" stop-color="#d68100"/>
      <stop offset=".853928" stop-color="#9a5500"/>
      <stop offset="1" stop-color="#6b3200"/>
    </linearGradient>
    <linearGradient id="New_Gradient_351" data-name="New Gradient 351" x1="21.7689865" y1="7.1962" x2="21.7689865" y2="14.2563" gradientTransform="translate(-.0522 .0479)" gradientUnits="userSpaceOnUse">
      <stop offset="0" stop-color="#ffe900"/>
      <stop offset="1" stop-color="#d68100"/>
    </linearGradient>
    <linearGradient id="New_Gradient_350" data-name="New Gradient 350" x1="22.6610971" y1="10.2465" x2="22.6610971" y2="21.748" gradientTransform="translate(-.0522 .0479)" gradientUnits="userSpaceOnUse">
      <stop offset="0" stop-color="#d68100"/>
      <stop offset="1" stop-color="#fff95e"/>
    </linearGradient>
    <linearGradient id="New_Gradient_348" data-name="New Gradient 348" x1="13.3567288" y1="25.7636291" x2="14.0756973" y2="22.0648569" gradientTransform="translate(-.0522 .0479)" gradientUnits="userSpaceOnUse">
      <stop offset="0" stop-color="#9a5500"/>
      <stop offset=".432587" stop-color="#6b3200"/>
      <stop offset="1" stop-color="#6b3200"/>
    </linearGradient>
    <linearGradient id="New_Gradient_347" data-name="New Gradient 347" x1="10.3899815" y1="27.9448732" x2="11.4019658" y2="23.1838615" gradientTransform="translate(-.0522 .0479)" gradientUnits="userSpaceOnUse">
      <stop offset="0" stop-color="#ffffb3"/>
      <stop offset="1" stop-color="#ffe900"/>
    </linearGradient>
    <mask id="mask-3" x="6.7147869" y="8.5176" width="17.4753496" height="19.3765058" maskUnits="userSpaceOnUse">
      <path d="M6.7147869,16.7793c0-4.5625,3.7012131-8.2617,8.2636998-8.2617,4.5625133,0,8.2616998,3.6992,8.2616998,8.2617,0,4.562-3.6991865,8.2603-8.2616998,8.2603-4.5624867.0009-8.2636998-3.6983-8.2636998-8.2603Z" fill="#fff" fill-rule="evenodd"/>
    </mask>
    <radialGradient id="radial-gradient" cx="11.9996097" cy="13.2775882" fx="11.9996097" fy="13.2775882" r="11.7630946" gradientUnits="userSpaceOnUse">
      <stop offset="0" stop-color="#dfeaeb"/>
      <stop offset=".303371" stop-color="#b7e9ff"/>
      <stop offset=".52809" stop-color="#3c97f6"/>
      <stop offset=".825843" stop-color="#032c87"/>
      <stop offset="1" stop-color="#0342d3"/>
    </radialGradient>
    <mask id="mask-4" x="13.4443018" y="14.2899414" width="10.7458347" height="11.597013" maskUnits="userSpaceOnUse">
      <path d="M22.6288865,16.0269c0,4.7924-2.8983999,8.1533-7.6542998,8.4863-.5078.0371-.5781-.4004-.082-.5171,4.0428999-.9561,6.7831998-5.437,7.2284998-8.0151.0469135-.5957.5078-.46.5078.0459Z" fill="#fff"/>
    </mask>
    <linearGradient id="linear-gradient" x1="14.2757978" y1="10.2677575" x2="13.3452285" y2="28.0240775" gradientTransform="translate(-.0522 .0479)" gradientUnits="userSpaceOnUse">
      <stop offset="0" stop-color="#65bd7b"/>
      <stop offset=".0074065" stop-color="#60bb74"/>
      <stop offset=".0565792" stop-color="#45af4f"/>
      <stop offset=".1023037" stop-color="#32a734"/>
      <stop offset=".1428936" stop-color="#27a224"/>
      <stop offset=".174157" stop-color="#23a11f"/>
      <stop offset=".2984012" stop-color="#1c871d"/>
      <stop offset=".4981417" stop-color="#14651b"/>
      <stop offset=".6872815" stop-color="#0e4c19"/>
      <stop offset=".8596362" stop-color="#0b3d18"/>
      <stop offset="1" stop-color="#0a3818"/>
    </linearGradient>
    <mask id="mask-5" x="7.8030167" y="10.4817785" width="16.3871198" height="17.1076729" maskUnits="userSpaceOnUse">
      <path d="M8.3144869,11.2358c.0488.1309-.1622.2159-.0196.2369.3164.0439.4981131-.1929.8164-.1485.1075.0147.1563.0371.2617132.0601-.0292132.2129.043.3535.0117868.5649-.043.3198-.3047.4273-.3496.7466-.0254.1982.0781.3203.0488132.5181-.0117132.0903-.0625132.1362-.0899132.2182l.0372-.2724c-.0606-.0093-.086-.044-.1465-.0528-.3125-.0439-.2461.4209-.4043.6841-.3106.4981-.5723.7705-.6524,1.3457-.1210869.8482.2422,1.3472.1231,2.1934-.043.3198.1289.4975.3242.7563.0469.0074.0937.0064.1269-.0122-.0566-.7109-.1718-1.082-.1502869-1.7817.1795869.2422.082.4756.2030869.7388.2539131.5219.4179131.8164.5801,1.3784.0566.2021-.0684.3842.0449.5625.2402.373.3554.6679.7363.9067.2129.1314.4492.0015.625.1797.2676132.2788.3125.6611.7012.7173.1953.0263.3164132-.0791.5137-.0518.2363.0337.0898.3672.1816.583.084.187.3223.1216.4922.2525.2012.1606.2304.435.4922.4712.1445.02.205-.1568.3554-.1348.2422.0332.1641.3784.1309.6206-.0684.4683-.6348.5288-.6953.9971-.0137.0844.0683.1269.0605.2094-.0136.1202-.1717867.1456-.1914.2671-.0488.3335.211.4859.3887.7637.1562.2481.1387.4917.3672.6709.3203.2529.8555.2817.7988.6841-.0957.6719-.6973.7983-1.0605,1.3789.0664133.041.1015.0762.1777.0864.8086.1148,1.2031-.4477,1.9785-.7095.5313-.1723.8887-.0986,1.3809-.3627.2597-.1314.289-.3921.541-.5401.5215-.313.9004-.3926,1.3183134-.8354.2675866-.2793.2246866-.5933.4121866-.9292.2656-.48.5918134-.6441.8105-1.1543-.0644-.0386-.0936866-.104-.1776866-.1177l-.5606134-.0767c-.3476-.0503-.6053866-.3554-.5547-.7031-.3866866-.0625-.6074-.0786-.9941-.1328-.4941-.0689-.5957-.6084-1.0859-.6773-.2149-.0292-.3066867.2037-.5196.1734-.2812-.0386-.414-.1812-.6953-.2212-.1737867-.0244-.2577867.1343-.334.2935l-.125.0122c-.0332-.1119,0-.1997.0157-.3208.0058-.0454-.0723-.0508-.0821-.0884-.3515.0952-.4687.4892-.832.4385-.0918-.0118-.125-.1099-.2149-.1236-.1679-.0224-.2597.0884-.4257.0635-.3125-.0435-.6133-.2632-.5703-.5737.0175132-.1138.1425132-.1421.1601-.2549.0391-.2808-.1835867-.459-.4433-.5879l-.1895.0342-.2715-.0381c.0078-.0523-.0195-.0879-.0117-.1401.0254132-.1958.291-.2061.3184132-.4039.0252868-.1733.0018868-.2846.0643868-.4531l-.5019-.0713c-.211.1319-.3144868.3892-.5723.3521-.4551-.063-.7285-.5191-.666-.9732.0761-.5385.3535-1.1381.8926-1.0639.1777.0254.2597.1284.4375.1538.1328.0176.1718-.1612.3007132-.1426.3398868.0488.7441867.2051.6952867.5454-.041.3115.1797133.5274.461.667.0254-.0723.041-.1182.0586-.1914l-.0781-.9839c.2656-.4653.9218-.3965.9941-.9184l.0488-.3497c.0567-.3994.5078-.5844.9082-.5268-.0254-.1504-.1211-.2344-.1015-.3853.0234-.1665.2109-.187.375-.226-.0059.0678,0,.1167.0039.1855.3613-.0635.7578-.1245.8086-.4878.0078-.0444-.0684-.0493-.0821-.0898-.1152.0312-.1992.0644-.33.0473-.1719-.0244-.1133-.2724-.0743-.4448-.1074-.0146-.1699-.0161-.2793-.0068.0821-.1206.1914-.1436.336-.1699l.1718133.0854c.0976867-.0381.1640867-.0762.2636867-.1172.0332.1445-.0096867.3394.1406.3613l.6602.0918c.0488-.163-.1797-.1953-.2949-.3198-.1015866-.1055.0215-.2593-.0703-.3813-.1582-.2066-.3848-.168-.6075-.2993-.375-.2315-.373-.7403-.8144-.8023-.082-.0117-.1133.1069-.1992.0952-.293-.0415-.3399-.3872-.6328-.4282-.0918-.0132-.1485.0176-.2363867.0288.0097867.1548.1230867.2329.0995867.3843-.0351.2578-.4043.2446-.4394.5019-.0215.1602.0566.2476.0644.4102-.2363-.0098-.1679-.3408-.3281-.5088-.2773-.2861-.9004-.2046-.8398-.6055.0761-.5678,1.041-.3857,1.1191-.9546.0059-.0444-.043-.0678-.0449-.1064.0723-.0127.1133-.0459.1894-.0347.2422.0332.3575.1968.4668.4126-.1425.041-.2324.0293-.3789.0703.3106.1905.6133.147.8321.4419l.2988-.1435c-.0625-.1099-.1152-.1782-.2129-.2622.0664-.0127.1211-.0215.1875-.003-.1465-.2685-.4258-.27-.6758-.4438-.2558-.1743-.3768867-.3618-.6875-.4048l.0215-.144c.0254-.1895.1524-.2569.2734-.4019-.08-.0415-.1269-.0806-.2207-.0932-.1953-.0289-.4453-.0157-.4707.1816-.0195.1206.0996.1601.1465.2676-.084.0649-.1465.1108-.2109.1865.0683.062.1348.1348.1172.2339-.0059.0674-.0762.0727-.1348.103-.1191-.2095-.2637-.3457-.2266-.5874-.1092867.0083-.248.0117-.2636.1182-.0196.1279.082.1875.1445.2973-.1055.0469-.1777.0987-.2969.0816l-.2656-.0386c.0313132-.0708.1074-.0908.1172-.1748l.043-.311c-.1758-.0078-.2676-.0533-.4434-.0777-.1426-.0215-.3184.0244-.3418.1685-.0215.1606.1328.2119.2324.3418-.0760868.0273-.1152.0845-.1972.0722-.1582-.0229-.1036-.2529-.2286-.3486-.166-.1313-.3339-.0386-.5507-.0464.0136-.1992-.0313-.437-.2285868-.4643-.5507132-.0777-.8691132.1552-1.3964132.3593-.3887.1548-.7265868.107-1.0371.3794ZM12.0155868,14.3501c.2754132-.1006.4434132-.2466.7364132-.2051.1913867.0259.1717867.2637.3202867.377.2011.1592.4023.1416.5703.3271-.1367.1343-.2245867.23-.4102.2818.0235-.167-.0605-.3477-.2265-.3711-.2735-.0386-.1446.4741-.3907.5932-.041-.2143-.0741867-.3506-.0429-.5625.0136-.1142.0976-.1704.1875-.2363-.0957-.0586-.1426-.1436-.2577867-.1587-.1504132-.022-.336-.04-.4864132-.0454ZM14.0468867,15.0444l.1738.0865c-.2559.2807-.5508.4013-.9296867.3481l-.166-.0239c.2362867-.3042.5253867-.3809.9218867-.4107ZM14.332,20.0498c-.0859133-.0132-.0175133-.1343-.0254133-.2129.0801-.0112.1289-.0278.2129-.0307.0039-.0704.0039-.1163-.0039-.1866.0547.0069.0821-.0205.1328-.0127.3125.0445.4551.1875.7598.2613-.2441.3525-.6601867.2397-1.0761867.1816ZM12.8378867,19.2524c-.1582-.0302-.2871-.0942-.3262-.2553.2031-.0323.3145-.0474.5215-.0191.2773.0406.4238133.1465.6699.2808.1856.1025.4746.1284.4453.3393-.0175.129-.1738.146-.3027.1285l-.2656-.0376c.0312-.0664.0703-.1143.1172-.168-.2266-.2031-.377-.3472-.6797-.3906-.0547-.0059-.1289.1133-.1797.122ZM14.6483867,10.9834c.2871.2017.4414.4331.7969.4438.0371.2217.2305.2725.3789.4312.2676.293.4238133.5532.8164.6089.0684134.0102.1114134-.0059.1778-.0049-.1036-.2549-.3496-.3672-.3106-.6392.0254-.1669.1856-.2207.207-.3877.043-.2802-.3769-.2607-.621-.3969-.3457867-.187-.5215-.4121-.9161-.4683-.3554-.0488-.7109-.0063-.8769.3096.0957.0371.2422133.0957.3476.1035Z" fill="#fff" fill-rule="evenodd"/>
    </mask>
    <radialGradient id="radial-gradient-2" cx="10.423348" cy="12.4867978" fx="10.423348" fy="12.4867978" r="15.1045256" gradientUnits="userSpaceOnUse">
      <stop offset="0" stop-color="#d3edd5"/>
      <stop offset=".0881577" stop-color="#ceebd0"/>
      <stop offset=".1888042" stop-color="#c1e5c2"/>
      <stop offset=".2955934" stop-color="#aadbab"/>
      <stop offset=".4067144" stop-color="#8bce8b"/>
      <stop offset=".5211732" stop-color="#64bd62"/>
      <stop offset=".6367876" stop-color="#34a830"/>
      <stop offset=".674157" stop-color="#23a11f"/>
      <stop offset=".6869737" stop-color="#209b1c"/>
      <stop offset=".7628023" stop-color="#128010"/>
      <stop offset=".8398735" stop-color="#086d07"/>
      <stop offset=".9182832" stop-color="#016101"/>
      <stop offset="1" stop-color="#005e00"/>
    </radialGradient>
    <mask id="mask-6" x="13.4443018" y="14.2899414" width="10.7458347" height="11.597013" maskUnits="userSpaceOnUse">
      <path d="M22.6288865,16.0269c0,4.7924-2.8983999,8.1533-7.6542998,8.4863-.5078.0371-.5781-.4004-.082-.5171,4.0428999-.9561,6.7831998-5.437,7.2284998-8.0151.0469135-.5957.5078-.46.5078.0459Z" fill="#fff"/>
    </mask>
    <radialGradient id="radial-gradient-3" cx="13.5553134" cy="9.5886885" fx="13.5553134" fy="9.5886885" r="3.5604147" gradientTransform="translate(2.3748946 -2.652305) scale(.9748)" gradientUnits="userSpaceOnUse">
      <stop offset="0" stop-color="#fff"/>
      <stop offset=".601124" stop-color="#e19a00"/>
      <stop offset="1" stop-color="#995510"/>
    </radialGradient>
  </defs>
  <g isolation="isolate">
    <g id="Layer_1" data-name="Layer 1">
      <g>
        <path d="M21.248,23.686c2.3515865-1.6855,3.8906864-4.4375,3.8906864-7.5537,0-.7998-.0976864-1.5747-.2891-2.3149-.2168-1.3511-1.2675864-5.1509-6.2479998-6.5733l-.002.0103c-.0508-.0147-.0975866-.0342-.1484-.0498.0566-.2979-.1231-.5928-.418-.667-.3086-.0772-.6191.1089-.6953.417l-.418,1.666c-.0117.0459-.0018866.0898-.0018866.1353-.625-.1509-1.2696133-.2383-1.9395133-.2383-4.5624867,0-8.2636998,3.6992-8.2636998,8.2617,0,2.7822,1.3809,5.2378,3.4882999,6.7353-.707.649-1.1190868,1.4322-1.1190868,2.2754,0,.2105.0350868.4151.082.6153.1835868,1.1675,1.3124868,2.1899,2.957,2.813,1.0175867.4033,2.2226867.6401,3.5195867.6401.1054133,0,.207-.0073.3105-.0103,3.1699133-.0434,5.4120999-1.4414,6.0370998-3.0083.0938135-.0854.1817-.3256.1953-.6064.0079-.1548.0118-.2998.0118-.4409v-.0049c.0039-.5708-.084-1.0449-.5098-1.5742-.123-.1846-.2773-.3584-.4394865-.5274ZM21.2558865,10.3667v.0039c-.0391-.0391-.0821-.0781-.1231-.1157.0391.0376.084.0727.1231.1118ZM20.8905865,10.0425c-.0761-.0645-.1582-.124-.2383-.1856.0801.0616.1622.1211.2383.1856ZM20.3983866,9.667c-.0839-.0586-.1699-.1143-.2558-.1694.0859.0551.1719.1108.2558.1694ZM19.877,9.3301c-.086-.0528-.1797134-.1021-.2696134-.1524.0899.0503.1836134.0996.2696134.1524ZM19.3300866,9.0347c-.0938-.0469-.1934-.0894-.291-.1328.0976.0434.1972.0859.291.1328ZM18.7558866,8.7817c-.0996-.0385-.1993-.0752-.3047-.1098.1054.0346.2051.0713.3047.1098ZM18.0331866,8.8975l.084-.3374c.0488134.0151.1035.0346.1543.0507l-.1484866.5196c1.209.4145,2.2910866,1.1098,3.168,2.0049l.0155865.3364c-.8905865-1.0601-2.0467999-1.8867-3.3592999-2.3941.039-.0547.0722-.1128.0859-.1801Z" fill-rule="evenodd" stroke="#000" stroke-miterlimit="3.8637" stroke-width="2"/>
        <path d="M18.123,9.1304c3.1972865,1.0971,5.4960865,4.1333,5.4960865,7.7046,0,.3623-.0234.7192-.0703,1.0703.1328-.5699.2012135-1.1626.2012135-1.773,0-3.5234-2.291-6.5078-5.4746134-7.5273l-.1523866.5254Z" fill="url(#New_Gradient_355)" stroke="#000" stroke-miterlimit="3.8637" stroke-width="2"/>
        <g mask="url(#mask)">
          <g>
            <path d="M15.6425867,21.7212c3.6171999,0,6.5546998,1.8213,6.5546998,4.0688,0,2.2466-2.9374999,4.0684-6.5546998,4.0684-3.6230999,0-6.5585867-1.8218-6.5585867-4.0684,0-2.2475,2.9354868-4.0688,6.5585867-4.0688Z" fill="url(#New_Gradient_353)"/>
            <path d="M9.2831868,27.5444s3.6034999,1.7886,7.5898132.7774c5.4746865-1.3843,4.9511865-4.6333,3.1152866-6.6446-.1602-.3471,7.9277134,6.5762-.1192,8.126-8.0487998,1.5513-10.5858997-2.2588-10.5858997-2.2588Z" fill="url(#New_Gradient_354)" fill-rule="evenodd"/>
            <g mask="url(#mask-1)">
              <g>
                <path d="M11.3808868,24.2842c0-1.4214,1.9179-2.5742,4.2851132-2.5742,2.3671866,0,4.2870866,1.1528,4.2870866,2.5732,0,1.4233-1.9199,2.5757-4.2870866,2.5757-2.3672133,0-4.2851132-1.1519-4.2851132-2.5747Z" fill="#6b3200" fill-rule="evenodd"/>
                <path d="M11.6112868,24.2402c0-1.4223,1.92-2.5752,4.2870999-2.5752,2.3671999,0,4.2831999,1.1529,4.2831999,2.5752,0,1.4214-1.916,2.5747-4.2831999,2.5747-2.3670999,0-4.2870999-1.1533-4.2870999-2.5747Z" fill="none" fill-rule="evenodd" stroke="#6b3200" stroke-miterlimit="3.8637" stroke-width="4.0834"/>
                <path d="M11.5780868,24.2466c0-1.4204,1.918-2.5737,4.2851999-2.5737,2.3651999,0,4.2831999,1.1533,4.2831999,2.5737,0,1.4228-1.918,2.5757-4.2831999,2.5747-2.3671999,0-4.2851999-1.1519-4.2851999-2.5747Z" fill="none" fill-rule="evenodd" stroke="#6b3200" stroke-miterlimit="3.8637" stroke-width="3.447"/>
                <path d="M11.5136868,24.2588c0-1.4214,1.9179-2.5757,4.2811999-2.5757,2.3671999,0,4.2871133,1.1543,4.2871133,2.5747,0,1.4234-1.9199134,2.5776-4.2871133,2.5776-2.3632999,0-4.2811999-1.1538-4.2811999-2.5766Z" fill="none" fill-rule="evenodd" stroke="#7b3e00" stroke-miterlimit="3.8637" stroke-width="2.298"/>
                <path d="M11.4452868,24.2729c0-1.4238,1.9199-2.5766,4.2851999-2.5766,2.3690999.0005,4.2870999,1.1528,4.2870999,2.5766,0,1.4205-1.918,2.5748-4.2870999,2.5748-2.3652999,0-4.2851999-1.1539-4.2851999-2.5748Z" fill="none" fill-rule="evenodd" stroke="#8a4900" stroke-miterlimit="3.8637" stroke-width="1.149"/>
                <path d="M11.3808868,24.2842c0-1.4214,1.9179-2.5742,4.2851132-2.5742,2.3671866,0,4.2870866,1.1528,4.2870866,2.5732,0,1.4233-1.9199,2.5757-4.2870866,2.5757-2.3672133,0-4.2851132-1.1519-4.2851132-2.5747Z" fill="none" fill-rule="evenodd" stroke="#9a5500" stroke-miterlimit="3.8637"/>
              </g>
            </g>
          </g>
        </g>
        <path d="M14.0038867,25.0483s3.7655999,1.1089,7.4081998-1.6289c3.9511999-2.9648,3.8515999-7.1733,3.2539135-9.5527" fill="none" stroke="#9a5500" stroke-linecap="round" stroke-miterlimit="3.8637" stroke-width=".5357"/>
        <path d="M9.6366868,26.0659c-.0019,1.5586,2.7831999,3.0376,5.9960998,3.0376,3.3886999-.0005,6.0234998-1.6929,6.0234998-2.9165,0-.332.5351-.3301.5019,0-.1953,1.8628-2.7401865,3.7246-6.5253998,3.666-3.6405999-.0551-6.4940998-1.7534-6.4940998-3.7871,0-.332.498-.332.498,0Z" fill="url(#New_Gradient_352)"/>
        <g mask="url(#mask-2)">
          <g>
            <path d="M12.9843867,24.9761c.9043.291,1.8633.4487,2.8651999.4487,5.1288999,0,9.2890998-4.1611,9.2890998-9.2925,0-4.2344-2.8183999-7.8071-6.6874998-8.9277l-.4121,1.3286c3.3065999.9468,5.7109134,3.9907,5.7109134,7.5991,0,4.3633-3.5391134,7.9024-7.9004133,7.9024-.7773,0-1.5293-.1133-2.2401999-.3223l-.625,1.2637Z" fill="url(#New_Gradient_349)" fill-rule="evenodd"/>
            <path d="M18.5253866,7.563s4.8690999,1.2275,6.3827998,6.7412c0,0-.2011864-5.3169-6.3065998-7.0601l-.0762.3189Z" fill="url(#New_Gradient_351)" fill-rule="evenodd"/>
            <path d="M21.2558865,10.2944c2.2577999,1.8682,4.5213999,6.8218.4746,11.5015l-.4746-11.5015Z" fill="url(#New_Gradient_350)" fill-rule="evenodd"/>
          </g>
        </g>
        <path d="M13.6464867,22.1743c.1914-.1919.9492.0493.9922.2847-.0391.1489-.9805,3.4214-.9805,3.4214-.2266.1797-.9355.0102-.9941-.2852.0371-.1328.9824-3.4209.9824-3.4209Z" fill="url(#New_Gradient_348)" fill-rule="evenodd"/>
        <path d="M11.0351868,28.0859c-1.4961-.7973-1.7266-1.934-1.459-3.0376.0351-.8286,1.0234-1.5703,1.6347-1.9331.4297-.2563.6778.0327.2481132.2925-1.6231132.9878-.5781132,2.9116.2733868,3.8027.3555.3726-.2539,1.1094-.6972.8755Z" fill="url(#New_Gradient_347)"/>
        <path d="M21.1405865,23.9624s.6387.4961.5938,1.9512c-.0449,1.4575.4199.9975.4511.3198.0469-.9517.0469-1.5894-.9062-2.4546l-.1387.1836Z" fill="#6b3200" fill-rule="evenodd"/>
        <g mask="url(#mask-3)">
          <g>
            <path d="M6.7147869,16.7793c0-4.5625,3.7012131-8.2617,8.2636998-8.2617,4.5625133,0,8.2616998,3.6992,8.2616998,8.2617,0,4.562-3.6991865,8.2603-8.2616998,8.2603-4.5624867.0009-8.2636998-3.6983-8.2636998-8.2603Z" fill="url(#radial-gradient)" fill-rule="evenodd"/>
            <g mask="url(#mask-4)">
              <g>
                <path d="M22.6288865,16.0269c0,4.7924-2.8983999,8.1533-7.6542998,8.4863-.5078.0371-.5781-.4004-.082-.5171,4.0428999-.9561,6.7831998-5.437,7.2284998-8.0151.0469135-.5957.5078-.46.5078.0459Z" fill="#3c97f6"/>
                <path d="M22.8554865,16.0635c0,4.7929-2.9003999,8.1557-7.6581998,8.4868-.5039.0351-.5782-.4009-.0821-.5161,4.0449999-.9575,6.7851998-5.4385,7.2324998-8.0166.0429-.5947.5078-.4614.5078.0459Z" fill="none" stroke="#2b76b4" stroke-miterlimit="3.8637" stroke-width="2.6693"/>
                <path d="M22.7421865,16.0449c0,4.794-2.9023999,8.1538-7.6542998,8.4864-.5058867.0361-.5801-.3995-.0858867-.5167,4.0467866-.9555,6.7850865-5.436,7.2323865-8.0151.0469-.5972.5078-.4609.5078.0454Z" fill="none" stroke="#1459a5" stroke-miterlimit="3.8637" stroke-width="1.3347"/>
                <path d="M22.6288865,16.0269c0,4.7924-2.8983999,8.1533-7.6542998,8.4863-.5078.0371-.5781-.4004-.082-.5171,4.0428999-.9561,6.7831998-5.437,7.2284998-8.0151.0469135-.5957.5078-.46.5078.0459Z" fill="none" stroke="#1d3f99" stroke-miterlimit="3.8637"/>
              </g>
            </g>
            <path d="M12.002,11.063l.0682868.0674c.1231.1137.2676.3325.0156.4287l-.0683.0395c-.3457.1905-.4531-.0976-.5547-.3359-.1465-.1162-.6524.1436-.6288868-.23.0038868-.0513.0038868-.2031-.0469132-.2451-.6016-.085-1.0469.3076-1.6094.4385-.2031.0473-.4218.0713-.5976.1909-.0098.0669-.043.126-.0820868.1816-.2421131-.0337-.2109131-.1103-.1152131-.2451.3223.044.3301-.249,1.0957-.0849.2695132.0571.1797.8828.082,1.0668-.2578.4883-.2832.2437-.2109.7969.0234132.1734-.0078.2744-.0898.4219-.0879.2568-.3594.2266-.4063.0342l-.0293.1162c-.0215.084-.0508.1875-.1094.2783-.5839.9351-.7832,1.0996-.5625,2.2979.0723.4004.1192.7548.0645,1.1635-.0254.1714.0488.2915.1445.4214l.1407131.1826-.1231131-.0747c-.0664.0103-.1191.2525-.123.2002-.0528-.7192-.1718869-1.0947-.1485-1.8047.0117-.3852.4649-.2822.5313.3462.0117.1065.0176.2139.0625.3116.2246.4668.4511.9111.5918132,1.4106.0350868.1245-.0137132.4526.0174868.5083.2071.3193.336.6328.6758.8428.1524.0927.418-.0391.6621.2109.25.2588.3282.7432.7637.6353.8516-.209.5547.394.6758.6733.2422.147.3535.0195.5937.3525.0489.0713.1348.2378.2266.251.1387-.0639.1523-.1636.3594-.1357.3457.0483.3633.3945.332.6548l-.0293.1987c-.0762.5439-.6211.6377-.6894.9697.1289.2241.0429.3692-.1387.5215-.0156.2012.2539.4414.3594.6079.1132.1758.1699.499.3222.6177.3223.2549.9571.293.877.8755-.0937867.6523-.5469.8271-.9237867,1.2427.625.0156,1.1737867-.5166,1.7538867-.71.4453-.1475.9277-.124,1.3476-.3491.1797-.0918.2754-.3848.5313-.5366.5195-.3125,1.2695-.5113,1.4609-1.1602.0566-.1807.1035-.3599.1953134-.5293.2030866-.3579.5253866-.6191.7245866-.9751-.5155866-.0718-1.1582-.1196-1.2363-.8003-.6992-.1011-.9805.002-1.4766-.5029-.0683-.0703-.3144-.3321-.457-.2725-.1055.0625-.0684.0371-.1504.0913-.3887.2305-.666-.0937-1.0312-.145-.1914.1416-.0313.2661-.4120867.3076-.211.0225-.25-.2344-.2325133-.3833l.0098-.0761c-.0292867-.0313-.0508-.0674-.0605-.107.0839.0498.1699.0982.2539.1485-.3536.0976-.6563.7578-1.1309.3339-.1445-.0156-.2344.0787-.4257867.0513-.5215133-.0737-1.0351132-.6265-.6055132-1.0493.045-.1489-.0351-.2407-.248-.3555l-.123.023-.0664868.0019-.2734132-.0395-.1738-.232c-.0371-.184.0293-.3208.1719-.436.0781-.0561.041-.0303.1074-.0771.0351-.1036.039-.1797.0449132-.2452l-.1973132-.0669-.0526868.0489c-.1738132.1684-.3223132.3301-.5996132.292-1.5078-.2115-.7871-3.0191.5644-2.3477.0508.0259.086.0425.125.0508.3965-.376,1.2735.1064,1.2012132.6411-.0117133.0991.0155867.1943.0976867.2788-.0645-.7685-.2461-.9819.457-1.355l.1602-.0815c.3652-.189.3086-.2842.3652-.6743.0586-.4424.4434-.6602.8223-.7056-.0879-.3174.0957-.5049.3847-.5762l.1231-.0297c.125-.0284.2226.0317.25.1401.1465-.0318.3222-.0747.3847-.187-.0234-.0293-.039-.0615-.0468-.0962.08.0517.164.1015.2461.1509-.336.0849-.7461.123-.7011867-.4004-.418.0278-.2871133-.4463.1503867-.5518l.1113-.0229c.0723133-.0127.1621.0341.2188.061.373-.1709.4296-.1201.4804.2739l.0684.0083c-.0508-.1079-.0156-.1987-.0274-.3076-.0703-.0937-.4121-.1621-.539-.2383-.293-.1801-.4922-.7031-.6875-.7632-.2051.1783-.4551.0508-.6231-.1186-.082-.0957-.0468-.0576-.1269-.144-.1231-.1275-.1621-.0728-.3145-.0533l.1778-.2148c.0136.2402.2988.4746-.1348.7715l-.082.0507-.0664.0411c-.0782.0542-.0704.0854-.0411.1821l.0274.104c.123.5024-.4356.4697-.5723.0254-.1133-.3677-.1816-.3086-.5547-.4404-.7109-.2554-.4746-.8946.0606-1.1289.1699-.0743.5566133-.17.6191-.3458-.2031-.3588.5938-.665,1.0078.1587.0313.0601.0332.1216.0137133.1714.041.0171.084.0352.1210867.0567-.0098-.0386-.0059-.0777.0078-.1118l-.1698867-.0723c-.2852133-.1275-.5391133-.4546-.8203133-.4942-.291-.0415-.1504-.5019-.0449-.6469-.0391,0-.0723.0029-.0997.0112.1172.1397.1758.3106.0469133.4058l-.0547133.0434c.2207133.4107-.3379.6655-.4765.4195-.1387-.2491-.295-.4039-.2481-.7178l.2149.2334c.2363.3462-.1835867.5342-.459.4961-.2285-.0318-.6602-.0782-.3613-.4214l.0429-.0454.0137-.0879c-.0957-.0195-.2441-.0664-.3358868-.0459ZM8.1874869,11.3745l.0508-.2085c.3574-.3159.707-.2622,1.1015-.416.4747-.1855,1.752-.8345,1.8926.0757l.086-.0093c.1152-.0068.2578.0044.3945.1128.0898.0693.1328.1699.1621132.2759.0214868-.0108.043-.0205.0644868-.0293l-.0938.3159c-.1562-.209-.4434-.396-.1738-.6924.248-.2788.6074-.0835.9043-.0683.3125.0166.2011.5869.0429.75-.0273.0278-.3398-.2823-.1855-.2608.3262.0459.2207.0713.4551-.0307l-.0996.2905c-.1210867-.2114-.3672-.5606.0722-.6924.0371-.0103.0762-.0171.1192-.021l.0957-.0093c.2793-.0176.1718133.2652.25.418.0449.0879.1093.1728.1679.2739l-.207-.0615c-.1600867-.1577-.2305-.2075-.0293-.395-.334-.4644.3535-.8057.9238-.503.3321.1758-.1035.4185-.1582.5733.2793.1045.461.355.7305.4761.1953.0888.7949.3872.5899.666.1718.3017-.4687867.602-.627.3921-.1523-.209-.5449-.2505-.7773-.3902-.2734867-.1694-.0567-.3549.1347-.3916-.0215-.0151-.0429-.0268-.0625-.0366-.1504.6519-1.2285.564-1.1035.9434.1191.1137.5352.1318.7773.3867.1075133.1113.1407.2534.1856.394.0156.0493.0059133.0508.0078.0528-.1582-.0777-.1641.3911-.2285.1421l-.0215-.0879c-.0801-.2622-.0254-.4795.2051133-.6343l.084-.0542.0643867-.0401c.1309-.0874-.0351-.2602-.0429-.4072-.0196-.3457.6093-.2798.8398-.0395.0937133.104.0449.0483.127.1421.0253.0263.0566.0517.0878.0693.4102-.355.7793.3198.9747.5874.0468.0679.0976.1201.1621.1597.3554.2085.789.1162.7324.729.1699.1455.4199.1924.332.5039-.0859.2944-1.0664.1841-1.168-.2095-.1035.0454-.2031-.0068-.2988-.0527-.0644.0146-.1054867.0283-.1289.0664l-.1875-.3164c.3613-.0259.5352-.0181.4609133.3857l-.0078133.0693c.0918133-.0151.1387-.0302.1973-.0444l.248.1509c-.0312-.019-.039-.0547-.0527-.0855.4121.2393-.0859.7496-.5566.8575-.1387.0317-.3828.1186-.4864-.0244l.0528.125c.2754133.7045-.7793.1-.8653.7334-.0742.5219-.0702867.7182-.5878.9838l-.1524.0791c-.1113.0581-.2187.126-.2969.2281l.0703.9155-.0039.0644c-.207.8414-.9961-.0385-.9218-.5517.0273-.2022-.3555-.2861-.4883-.3086-.3281.313-.4863.0249-.7734868-.0166-.6269132-.0869-1.0214132,1.5107-.166,1.6309.1620868.0253.3437868-.3829.5722868-.3506.7305.101.668-.022.6309.5136-.0176.2364-.0039.3819-.2011868.5371-.0664132.0499-.0371132.0274-.0664132.0499.5898-.1055,1.1445.5927.6875,1.0459-.0332.2309.3086.3876.5117.3183.1992133-.0674.3555-.0766.5234.0703.168.0259.5039-.3545.7481-.4219l.2558.149c-.0332-.0186-.0429-.0542-.0527-.0855.0488.0288.0879.0625.1094.104.3535-.2387.8613.2163,1.0254.1485.1093-.065.0625-.0376.1484-.0928.6621-.3936.9492.5342,1.4219.6011.3887.0542.6094.0713.9961.1333.3281.0527-.0059.625.5547.7016.1601.0225.582.0157.7636.1778l.0528.0488s.1133134.1743.0781.2539c-.1953.4609-.582.7466-.8203,1.1724-.1836.3339-.1328.646-.4374866.9697-.4356134.4648-.8496134.561-1.3652134.8716-.2051.1196-.2442.3891-.5507866.5459-.4688133.2509-.9239133.2168-1.4082133.3759-.7129.2403-1.5507867,1.0874-2.3281999.6031-.3593-.2246.4395-.8394.5997-.9834.8652-.7818.0878-.7368-.3594-1.0938-.2852-.2221-.252-.4653-.4121-.7212-.2167867-.3374-.7227-.7758-.2539-1.165-.293-.5435.6035-.8252.6582-1.2129l.0273-.1899c.0059-.0562.0117-.1094.0098-.1587-.584.415-.7383-.3638-1.0098-.4532-.2051-.0644-.3789-.0708-.4785-.2988-.0625-.1372-.0488-.2847-.0566-.4316l-.0469-.0269c-.6289.0835-.7071.1011-1.1153-.5376-.2597-.414-.3769-.123-.7246-.3369-.4199-.2607-.5507-.5791-.8027-.9702-.1699-.2671-.0195-.439-.0684-.6177-.0722-.2451-.1543-.4741-.2597-.7065.0312.2925.0703132.5874-.3301.5312-.0215-.0029-.1211-.0625-.1328-.0791l-.1406-.1845c-.3829-.5113-.1661-.7007-.2149-1.2593-.0801-.9126-.3867-1.5274.1309-2.4341.1133-.2051.2578131-.398.414-.6499.1661-.2739.1446-1.0308.7559-.7275.2559132.0361.1582.3618.1348.5034l-.3946-.0923c.0078-.0313.0215-.0586.0352-.0855.168-.311-.2363-.4609.207-1.0781.2149-.2949.1348-.3423.1192-.6606l-.0782-.0152c-.164-.0239-1.539.5288-.9824-.2509l.0254.0141ZM13.0761867,15.0786l-.0157.0498-.0234.1113c-.1055.3912-.5019.5699-.5644.2344-.0606-.334-.1504-.7036.1543132-.9472l.0663867-.0528.0136133.3379c-.0468133-.0317-.0918133-.0713-.1347133-.1094-.0664-.0507-.4239-.061-.5059-.0644-.2695-.0103-.3163868-.3052-.0625-.397.3711132-.1343.9121132-.4722,1.168.0532.0996.2012.1172.188.334.2744.1582.0635.5625.2862.3418.5079l-.0996867.0981c-.1171133.1123-.2421133.1953-.4003133.2368-.3145.0884-.2246867-.2539-.2715-.333ZM13.3710867,14.9575c-.1328-.0537-.2539-.1006-.3652-.1909-.1582-.1211-.17-.2842-.2188-.3354-.2324-.0313-.4375.1215-.6426.1958l-.0624868-.399c.2284868.0098.5566867.0039.7441867.1533.123.1065.3379.253.1152.4219l-.0586.044c-.168.1718.1563.4873-.289.3984.0234-.0264.0371-.0776.0449-.1113l.0254-.1006c.0468-.2217.1582-.4321.4316-.3936.291.0411.4375.336.4004.6036l-.2578-.2266c.0547133-.0151.0976-.0352.1328-.0596ZM14.3690867,15.0308c.4122.2031-.3046.8398-1.0429.7358-.1719-.0244-.5117-.0811-.3028-.3525.2891-.375.6504-.4595,1.0684-.4908.082-.0058.2363.0865.2773.1075ZM14.1913867,15.3979l-.123-.0605c-.3438.0313-.5469.1035-.7207.3262l-.1348-.3282c.3906.0562.6269.0582.918-.2592l.0605.3217ZM14.373,19.7651l.2324867-.2631c.2871-.0723.625.1811.9101.2504.3887.0948.041.6246-.5097.649-.2168.0102-.4297-.0352-.6446-.0655-.1699-.0239-.2324-.1357-.2148-.3081l.0137-.0786c.0937-.0884.1621-.145.2128133-.1841ZM14.9921867,19.9922c-.0703-.0327-.1348-.0586-.207-.0767-.0137.0908-.1055.1748-.1973.1787-.0742.0025-.1211.0191-.1895.0288l.1758-.2153c.002.0567-.0097.1123-.0195.168-.0918-.0117-.1465-.0562-.1348-.146.1895.0268.3828.0703.5723.0625ZM13.1151867,19.4297c-.0918.0801-.1425.1011-.1816.1074l-.0742.0005c-.584-.1118-.8321-.832.2597-.6782.3086.0434.4805.1587.7442.3032.2285.1289.6015.1665.5488.5488-.0586.4077-.5390867.3018-.8008.2647-.1562-.0235-.2265-.1524-.1562-.294l.0273-.0483c-.1133-.0933-.2207-.1709-.3672-.2041ZM12.8534867,19.1138c.209-.1953.4903-.0747.7051.0644.1211.0772.4043.2744.3984133.4322-.0019133.1088-.0859133.1625-.1367133.2539l-.1522867-.2945.1522867.0215c-.2617-.103-.4707-.2856-.7578-.3242-.1719-.0269-.2598-.0147-.4551.0171l.1621-.2515c.0078.0303.0235133.0581.084.0811ZM14.7636867,10.8765l.0664.0234c.207.147.4023.3975.6797.4058.1718.0058.1718.2006.2754.2866.0839.0718.1738133.1299.248.2119.1758133.1895.4434.5747.7363.5439.0332-.0043.0684-.0087.1172-.0078l-.1953.2832c-.125-.3032-.5215-.4961-.2617-.9287.0156-.0234.0312-.0434.0469-.0644.0449-.0562.0293-.0366.0664134-.0855.0253866-.0361.0292866-.0449.0311866-.0532-.0254-.0264-.4355-.1411-.5176-.1875-.414-.2256-.7655867-.6055-1.2929-.4277ZM14.9647867,11.5288c-.1074-.0771-.207-.1724-.3339-.2646-1.1856-.2012.0839-1.3018,1.1953-.5972.1289.0845.2578133.1846.4258133.2759.2733866.1523.7967866.1299.7284866.6059-.0137.0933-.0567.1753-.1153.2486-.0468.0615-.0234.0317-.0644.0835-.084.1333.2187.4648.2676.5869.1132.2773-.2207.312-.3965.2871-.4668-.0659-.6563-.3628-.9395-.6743-.1308-.1411-.2851-.19-.3808-.3804-.1563-.0293-.2793-.0952-.3868-.1714Z" fill="url(#linear-gradient)"/>
            <g mask="url(#mask-5)">
              <g>
                <path d="M8.3144869,11.2358c.0488.1309-.1622.2159-.0196.2369.3164.0439.4981131-.1929.8164-.1485.1075.0147.1563.0371.2617132.0601-.0292132.2129.043.3535.0117868.5649-.043.3198-.3047.4273-.3496.7466-.0254.1982.0781.3203.0488132.5181-.0117132.0903-.0625132.1362-.0899132.2182l.0372-.2724c-.0606-.0093-.086-.044-.1465-.0528-.3125-.0439-.2461.4209-.4043.6841-.3106.4981-.5723.7705-.6524,1.3457-.1210869.8482.2422,1.3472.1231,2.1934-.043.3198.1289.4975.3242.7563.0469.0074.0937.0064.1269-.0122-.0566-.7109-.1718-1.082-.1502869-1.7817.1795869.2422.082.4756.2030869.7388.2539131.5219.4179131.8164.5801,1.3784.0566.2021-.0684.3842.0449.5625.2402.373.3554.6679.7363.9067.2129.1314.4492.0015.625.1797.2676132.2788.3125.6611.7012.7173.1953.0263.3164132-.0791.5137-.0518.2363.0337.0898.3672.1816.583.084.187.3223.1216.4922.2525.2012.1606.2304.435.4922.4712.1445.02.205-.1568.3554-.1348.2422.0332.1641.3784.1309.6206-.0684.4683-.6348.5288-.6953.9971-.0137.0844.0683.1269.0605.2094-.0136.1202-.1717867.1456-.1914.2671-.0488.3335.211.4859.3887.7637.1562.2481.1387.4917.3672.6709.3203.2529.8555.2817.7988.6841-.0957.6719-.6973.7983-1.0605,1.3789.0664133.041.1015.0762.1777.0864.8086.1148,1.2031-.4477,1.9785-.7095.5313-.1723.8887-.0986,1.3809-.3627.2597-.1314.289-.3921.541-.5401.5215-.313.9004-.3926,1.3183134-.8354.2675866-.2793.2246866-.5933.4121866-.9292.2656-.48.5918134-.6441.8105-1.1543-.0644-.0386-.0936866-.104-.1776866-.1177l-.5606134-.0767c-.3476-.0503-.6053866-.3554-.5547-.7031-.3866866-.0625-.6074-.0786-.9941-.1328-.4941-.0689-.5957-.6084-1.0859-.6773-.2149-.0292-.3066867.2037-.5196.1734-.2812-.0386-.414-.1812-.6953-.2212-.1737867-.0244-.2577867.1343-.334.2935l-.125.0122c-.0332-.1119,0-.1997.0157-.3208.0058-.0454-.0723-.0508-.0821-.0884-.3515.0952-.4687.4892-.832.4385-.0918-.0118-.125-.1099-.2149-.1236-.1679-.0224-.2597.0884-.4257.0635-.3125-.0435-.6133-.2632-.5703-.5737.0175132-.1138.1425132-.1421.1601-.2549.0391-.2808-.1835867-.459-.4433-.5879l-.1895.0342-.2715-.0381c.0078-.0523-.0195-.0879-.0117-.1401.0254132-.1958.291-.2061.3184132-.4039.0252868-.1733.0018868-.2846.0643868-.4531l-.5019-.0713c-.211.1319-.3144868.3892-.5723.3521-.4551-.063-.7285-.5191-.666-.9732.0761-.5385.3535-1.1381.8926-1.0639.1777.0254.2597.1284.4375.1538.1328.0176.1718-.1612.3007132-.1426.3398868.0488.7441867.2051.6952867.5454-.041.3115.1797133.5274.461.667.0254-.0723.041-.1182.0586-.1914l-.0781-.9839c.2656-.4653.9218-.3965.9941-.9184l.0488-.3497c.0567-.3994.5078-.5844.9082-.5268-.0254-.1504-.1211-.2344-.1015-.3853.0234-.1665.2109-.187.375-.226-.0059.0678,0,.1167.0039.1855.3613-.0635.7578-.1245.8086-.4878.0078-.0444-.0684-.0493-.0821-.0898-.1152.0312-.1992.0644-.33.0473-.1719-.0244-.1133-.2724-.0743-.4448-.1074-.0146-.1699-.0161-.2793-.0068.0821-.1206.1914-.1436.336-.1699l.1718133.0854c.0976867-.0381.1640867-.0762.2636867-.1172.0332.1445-.0096867.3394.1406.3613l.6602.0918c.0488-.163-.1797-.1953-.2949-.3198-.1015866-.1055.0215-.2593-.0703-.3813-.1582-.2066-.3848-.168-.6075-.2993-.375-.2315-.373-.7403-.8144-.8023-.082-.0117-.1133.1069-.1992.0952-.293-.0415-.3399-.3872-.6328-.4282-.0918-.0132-.1485.0176-.2363867.0288.0097867.1548.1230867.2329.0995867.3843-.0351.2578-.4043.2446-.4394.5019-.0215.1602.0566.2476.0644.4102-.2363-.0098-.1679-.3408-.3281-.5088-.2773-.2861-.9004-.2046-.8398-.6055.0761-.5678,1.041-.3857,1.1191-.9546.0059-.0444-.043-.0678-.0449-.1064.0723-.0127.1133-.0459.1894-.0347.2422.0332.3575.1968.4668.4126-.1425.041-.2324.0293-.3789.0703.3106.1905.6133.147.8321.4419l.2988-.1435c-.0625-.1099-.1152-.1782-.2129-.2622.0664-.0127.1211-.0215.1875-.003-.1465-.2685-.4258-.27-.6758-.4438-.2558-.1743-.3768867-.3618-.6875-.4048l.0215-.144c.0254-.1895.1524-.2569.2734-.4019-.08-.0415-.1269-.0806-.2207-.0932-.1953-.0289-.4453-.0157-.4707.1816-.0195.1206.0996.1601.1465.2676-.084.0649-.1465.1108-.2109.1865.0683.062.1348.1348.1172.2339-.0059.0674-.0762.0727-.1348.103-.1191-.2095-.2637-.3457-.2266-.5874-.1092867.0083-.248.0117-.2636.1182-.0196.1279.082.1875.1445.2973-.1055.0469-.1777.0987-.2969.0816l-.2656-.0386c.0313132-.0708.1074-.0908.1172-.1748l.043-.311c-.1758-.0078-.2676-.0533-.4434-.0777-.1426-.0215-.3184.0244-.3418.1685-.0215.1606.1328.2119.2324.3418-.0760868.0273-.1152.0845-.1972.0722-.1582-.0229-.1036-.2529-.2286-.3486-.166-.1313-.3339-.0386-.5507-.0464.0136-.1992-.0313-.437-.2285868-.4643-.5507132-.0777-.8691132.1552-1.3964132.3593-.3887.1548-.7265868.107-1.0371.3794ZM12.0155868,14.3501c.2754132-.1006.4434132-.2466.7364132-.2051.1913867.0259.1717867.2637.3202867.377.2011.1592.4023.1416.5703.3271-.1367.1343-.2245867.23-.4102.2818.0235-.167-.0605-.3477-.2265-.3711-.2735-.0386-.1446.4741-.3907.5932-.041-.2143-.0741867-.3506-.0429-.5625.0136-.1142.0976-.1704.1875-.2363-.0957-.0586-.1426-.1436-.2577867-.1587-.1504132-.022-.336-.04-.4864132-.0454ZM14.0468867,15.0444l.1738.0865c-.2559.2807-.5508.4013-.9296867.3481l-.166-.0239c.2362867-.3042.5253867-.3809.9218867-.4107ZM14.332,20.0498c-.0859133-.0132-.0175133-.1343-.0254133-.2129.0801-.0112.1289-.0278.2129-.0307.0039-.0704.0039-.1163-.0039-.1866.0547.0069.0821-.0205.1328-.0127.3125.0445.4551.1875.7598.2613-.2441.3525-.6601867.2397-1.0761867.1816ZM12.8378867,19.2524c-.1582-.0302-.2871-.0942-.3262-.2553.2031-.0323.3145-.0474.5215-.0191.2773.0406.4238133.1465.6699.2808.1856.1025.4746.1284.4453.3393-.0175.129-.1738.146-.3027.1285l-.2656-.0376c.0312-.0664.0703-.1143.1172-.168-.2266-.2031-.377-.3472-.6797-.3906-.0547-.0059-.1289.1133-.1797.122ZM14.6483867,10.9834c.2871.2017.4414.4331.7969.4438.0371.2217.2305.2725.3789.4312.2676.293.4238133.5532.8164.6089.0684134.0102.1114134-.0059.1778-.0049-.1036-.2549-.3496-.3672-.3106-.6392.0254-.1669.1856-.2207.207-.3877.043-.2802-.3769-.2607-.621-.3969-.3457867-.187-.5215-.4121-.9161-.4683-.3554-.0488-.7109-.0063-.8769.3096.0957.0371.2422133.0957.3476.1035Z" fill="url(#radial-gradient-2)" fill-rule="evenodd"/>
                <g mask="url(#mask-6)">
                  <g mix-blend-mode="screen" opacity=".3">
                    <path d="M22.6288865,16.0269c0,4.7924-2.8983999,8.1533-7.6542998,8.4863-.5078.0371-.5781-.4004-.082-.5171,4.0428999-.9561,6.7831998-5.437,7.2284998-8.0151.0469135-.5957.5078-.46.5078.0459Z" fill="#c9ffc9"/>
                    <path d="M22.8554865,16.0635c0,4.7929-2.9003999,8.1557-7.6581998,8.4868-.5039.0351-.5782-.4009-.0821-.5161,4.0449999-.9575,6.7851998-5.4385,7.2324998-8.0166.0429-.5947.5078-.4614.5078.0459Z" fill="none" stroke="#a7dbaa" stroke-miterlimit="3.8637" stroke-width="2.6693"/>
                    <path d="M22.7421865,16.0449c0,4.794-2.9023999,8.1538-7.6542998,8.4864-.5058867.0361-.5801-.3995-.0858867-.5167,4.0467866-.9555,6.7850865-5.436,7.2323865-8.0151.0469-.5972.5078-.4609.5078.0454Z" fill="none" stroke="#85cd92" stroke-miterlimit="3.8637" stroke-width="1.3347"/>
                    <path d="M22.6288865,16.0269c0,4.7924-2.8983999,8.1533-7.6542998,8.4863-.5078.0371-.5781-.4004-.082-.5171,4.0428999-.9561,6.7831998-5.437,7.2284998-8.0151.0469135-.5957.5078-.46.5078.0459Z" fill="none" stroke="#65bd7b" stroke-miterlimit="3.8637"/>
                  </g>
                </g>
                <path d="M8.3144869,11.2358c.0488.1309-.1622.2159-.0196.2369.3164.0439.4981131-.1929.8164-.1485.1075.0147.1563.0371.2617132.0601-.0292132.2129.043.3535.0117868.5649-.043.3198-.3047.4273-.3496.7466-.0254.1982.0781.3203.0488132.5181-.0117132.0903-.0625132.1362-.0899132.2182l.0372-.2724c-.0606-.0093-.086-.044-.1465-.0528-.3125-.0439-.2461.4209-.4043.6841-.3106.4981-.5723.7705-.6524,1.3457-.1210869.8482.2422,1.3472.1231,2.1934-.043.3198.1289.4975.3242.7563.0469.0074.0937.0064.1269-.0122-.0566-.7109-.1718-1.082-.1502869-1.7817.1795869.2422.082.4756.2030869.7388.2539131.5219.4179131.8164.5801,1.3784.0566.2021-.0684.3842.0449.5625.2402.373.3554.6679.7363.9067.2129.1314.4492.0015.625.1797.2676132.2788.3125.6611.7012.7173.1953.0263.3164132-.0791.5137-.0518.2363.0337.0898.3672.1816.583.084.187.3223.1216.4922.2525.2012.1606.2304.435.4922.4712.1445.02.205-.1568.3554-.1348.2422.0332.1641.3784.1309.6206-.0684.4683-.6348.5288-.6953.9971-.0137.0844.0683.1269.0605.2094-.0136.1202-.1717867.1456-.1914.2671-.0488.3335.211.4859.3887.7637.1562.2481.1387.4917.3672.6709.3203.2529.8555.2817.7988.6841-.0957.6719-.6973.7983-1.0605,1.3789.0664133.041.1015.0762.1777.0864.8086.1148,1.2031-.4477,1.9785-.7095.5313-.1723.8887-.0986,1.3809-.3627.2597-.1314.289-.3921.541-.5401.5215-.313.9004-.3926,1.3183134-.8354.2675866-.2793.2246866-.5933.4121866-.9292.2656-.48.5918134-.6441.8105-1.1543-.0644-.0386-.0936866-.104-.1776866-.1177l-.5606134-.0767c-.3476-.0503-.6053866-.3554-.5547-.7031-.3866866-.0625-.6074-.0786-.9941-.1328-.4941-.0689-.5957-.6084-1.0859-.6773-.2149-.0292-.3066867.2037-.5196.1734-.2812-.0386-.414-.1812-.6953-.2212-.1737867-.0244-.2577867.1343-.334.2935l-.125.0122c-.0332-.1119,0-.1997.0157-.3208.0058-.0454-.0723-.0508-.0821-.0884-.3515.0952-.4687.4892-.832.4385-.0918-.0118-.125-.1099-.2149-.1236-.1679-.0224-.2597.0884-.4257.0635-.3125-.0435-.6133-.2632-.5703-.5737.0175132-.1138.1425132-.1421.1601-.2549.0391-.2808-.1835867-.459-.4433-.5879l-.1895.0342-.2715-.0381c.0078-.0523-.0195-.0879-.0117-.1401.0254132-.1958.291-.2061.3184132-.4039.0252868-.1733.0018868-.2846.0643868-.4531l-.5019-.0713c-.211.1319-.3144868.3892-.5723.3521-.4551-.063-.7285-.5191-.666-.9732.0761-.5385.3535-1.1381.8926-1.0639.1777.0254.2597.1284.4375.1538.1328.0176.1718-.1612.3007132-.1426.3398868.0488.7441867.2051.6952867.5454-.041.3115.1797133.5274.461.667.0254-.0723.041-.1182.0586-.1914l-.0781-.9839c.2656-.4653.9218-.3965.9941-.9184l.0488-.3497c.0567-.3994.5078-.5844.9082-.5268-.0254-.1504-.1211-.2344-.1015-.3853.0234-.1665.2109-.187.375-.226-.0059.0678,0,.1167.0039.1855.3613-.0635.7578-.1245.8086-.4878.0078-.0444-.0684-.0493-.0821-.0898-.1152.0312-.1992.0644-.33.0473-.1719-.0244-.1133-.2724-.0743-.4448-.1074-.0146-.1699-.0161-.2793-.0068.0821-.1206.1914-.1436.336-.1699l.1718133.0854c.0976867-.0381.1640867-.0762.2636867-.1172.0332.1445-.0096867.3394.1406.3613l.6602.0918c.0488-.163-.1797-.1953-.2949-.3198-.1015866-.1055.0215-.2593-.0703-.3813-.1582-.2066-.3848-.168-.6075-.2993-.375-.2315-.373-.7403-.8144-.8023-.082-.0117-.1133.1069-.1992.0952-.293-.0415-.3399-.3872-.6328-.4282-.0918-.0132-.1485.0176-.2363867.0288.0097867.1548.1230867.2329.0995867.3843-.0351.2578-.4043.2446-.4394.5019-.0215.1602.0566.2476.0644.4102-.2363-.0098-.1679-.3408-.3281-.5088-.2773-.2861-.9004-.2046-.8398-.6055.0761-.5678,1.041-.3857,1.1191-.9546.0059-.0444-.043-.0678-.0449-.1064.0723-.0127.1133-.0459.1894-.0347.2422.0332.3575.1968.4668.4126-.1425.041-.2324.0293-.3789.0703.3106.1905.6133.147.8321.4419l.2988-.1435c-.0625-.1099-.1152-.1782-.2129-.2622.0664-.0127.1211-.0215.1875-.003-.1465-.2685-.4258-.27-.6758-.4438-.2558-.1743-.3768867-.3618-.6875-.4048l.0215-.144c.0254-.1895.1524-.2569.2734-.4019-.08-.0415-.1269-.0806-.2207-.0932-.1953-.0289-.4453-.0157-.4707.1816-.0195.1206.0996.1601.1465.2676-.084.0649-.1465.1108-.2109.1865.0683.062.1348.1348.1172.2339-.0059.0674-.0762.0727-.1348.103-.1191-.2095-.2637-.3457-.2266-.5874-.1092867.0083-.248.0117-.2636.1182-.0196.1279.082.1875.1445.2973-.1055.0469-.1777.0987-.2969.0816l-.2656-.0386c.0313132-.0708.1074-.0908.1172-.1748l.043-.311c-.1758-.0078-.2676-.0533-.4434-.0777-.1426-.0215-.3184.0244-.3418.1685-.0215.1606.1328.2119.2324.3418-.0760868.0273-.1152.0845-.1972.0722-.1582-.0229-.1036-.2529-.2286-.3486-.166-.1313-.3339-.0386-.5507-.0464.0136-.1992-.0313-.437-.2285868-.4643-.5507132-.0777-.8691132.1552-1.3964132.3593-.3887.1548-.7265868.107-1.0371.3794ZM12.0155868,14.3501c.2754132-.1006.4434132-.2466.7364132-.2051.1913867.0259.1717867.2637.3202867.377.2011.1592.4023.1416.5703.3271-.1367.1343-.2245867.23-.4102.2818.0235-.167-.0605-.3477-.2265-.3711-.2735-.0386-.1446.4741-.3907.5932-.041-.2143-.0741867-.3506-.0429-.5625.0136-.1142.0976-.1704.1875-.2363-.0957-.0586-.1426-.1436-.2577867-.1587-.1504132-.022-.336-.04-.4864132-.0454ZM14.0468867,15.0444l.1738.0865c-.2559.2807-.5508.4013-.9296867.3481l-.166-.0239c.2362867-.3042.5253867-.3809.9218867-.4107ZM14.332,20.0498c-.0859133-.0132-.0175133-.1343-.0254133-.2129.0801-.0112.1289-.0278.2129-.0307.0039-.0704.0039-.1163-.0039-.1866.0547.0069.0821-.0205.1328-.0127.3125.0445.4551.1875.7598.2613-.2441.3525-.6601867.2397-1.0761867.1816ZM12.8378867,19.2524c-.1582-.0302-.2871-.0942-.3262-.2553.2031-.0323.3145-.0474.5215-.0191.2773.0406.4238133.1465.6699.2808.1856.1025.4746.1284.4453.3393-.0175.129-.1738.146-.3027.1285l-.2656-.0376c.0312-.0664.0703-.1143.1172-.168-.2266-.2031-.377-.3472-.6797-.3906-.0547-.0059-.1289.1133-.1797.122ZM14.6483867,10.9834c.2871.2017.4414.4331.7969.4438.0371.2217.2305.2725.3789.4312.2676.293.4238133.5532.8164.6089.0684134.0102.1114134-.0059.1778-.0049-.1036-.2549-.3496-.3672-.3106-.6392.0254-.1669.1856-.2207.207-.3877.043-.2802-.3769-.2607-.621-.3969-.3457867-.187-.5215-.4121-.9161-.4683-.3554-.0488-.7109-.0063-.8769.3096.0957.0371.2422133.0957.3476.1035Z" fill="none" fill-rule="evenodd"/>
              </g>
            </g>
          </g>
        </g>
        <path d="M18.0331866,8.8975c-.0781.3076-.3867.4936-.6953.417h0c-.3047-.0767-.4922-.3863-.418-.6939l.418-1.666c.0762-.3081.3867-.4942.6953-.417h0c.3047.0762.4941.3872.416.6938l-.416,1.6661Z" fill="url(#radial-gradient-3)" fill-rule="evenodd"/>
      </g>
    </g>
  </g>
</svg>