<?xml version='1.0' encoding='UTF-8'?>
<svg xmlns="http://www.w3.org/2000/svg" xmlns:xlink="http://www.w3.org/1999/xlink" id="Layer_7" data-name="Layer 7" width="32" height="32" viewBox="0 0 32 32">
  <defs>
    <linearGradient id="New_Gradient_318" data-name="New Gradient 318" x1="12.9764556" y1="27.6050804" x2="26.6852001" y2="16.1020779" gradientUnits="userSpaceOnUse">
      <stop offset="0" stop-color="#b2b2b2"/>
      <stop offset=".168533" stop-color="#e5e5e5"/>
      <stop offset=".230331" stop-color="#fff"/>
      <stop offset=".280899" stop-color="#e5e5e5"/>
      <stop offset="1" stop-color="#ccc"/>
    </linearGradient>
    <linearGradient id="linear-gradient" x1="13.6529559" y1="26.0191554" x2="24.0266693" y2="15.645442" gradientUnits="userSpaceOnUse">
      <stop offset="0" stop-color="#b2b2b2"/>
      <stop offset=".168533" stop-color="#e5e5e5"/>
      <stop offset=".230331" stop-color="#fff"/>
      <stop offset=".280899" stop-color="#e5e5e5"/>
      <stop offset=".5" stop-color="#c2c2c2"/>
    </linearGradient>
    <linearGradient id="New_Gradient_312" data-name="New Gradient 312" x1="18.3770248" y1="20.3377575" x2="27.4849862" y2="29.4457189" gradientUnits="userSpaceOnUse">
      <stop offset="0" stop-color="#ccc"/>
      <stop offset="1" stop-color="#fff"/>
    </linearGradient>
    <linearGradient id="New_Gradient_317" data-name="New Gradient 317" x1="25.1884637" y1="29.9133244" x2="20.6827369" y2="19.7932964" gradientUnits="userSpaceOnUse">
      <stop offset="0" stop-color="#b2b2b2"/>
      <stop offset=".5" stop-color="#e5e5e5"/>
      <stop offset="1" stop-color="#fff"/>
    </linearGradient>
    <linearGradient id="New_Gradient_316" data-name="New Gradient 316" x1="26.6019947" y1="24.3181433" x2="27.0503178" y2="25.549901" gradientUnits="userSpaceOnUse">
      <stop offset="0" stop-color="#0f6124"/>
      <stop offset="1" stop-color="#219630"/>
    </linearGradient>
    <linearGradient id="New_Gradient_315" data-name="New Gradient 315" x1="11.1721135" y1="26.8862287" x2="16.9152898" y2="21.1430524" gradientUnits="userSpaceOnUse">
      <stop offset="0" stop-color="#e5e5e5"/>
      <stop offset="1" stop-color="#ccc"/>
    </linearGradient>
    <linearGradient id="linear-gradient-2" x1="21.0133383" y1="21.5986957" x2="26.7121522" y2="15.8998818" gradientUnits="userSpaceOnUse">
      <stop offset="0" stop-color="#bfbfbf"/>
      <stop offset="1" stop-color="#f2f2f2"/>
    </linearGradient>
    <mask id="mask" x="5" y="3.7271" width="16.3056841" height="16.9633" maskUnits="userSpaceOnUse">
      <path d="M11.874,12.5532c0-.7192.583-1.4497,1.3027843-1.6308.7187-.1817,1.3017.2544,1.3017.9726,0,.7197-.583,1.4492-1.3017,1.6314-.7197843.1806-1.3027843-.2544-1.3027843-.9732ZM5.7362845,14.1021c0-4.1089,3.3310999-8.2808,7.4404998-9.3184,4.1092999-1.0371,7.4393998,1.4536,7.4393998,5.5625s-3.3300999,8.2803-7.4393998,9.3179c-4.1093999,1.0371-7.4404998-1.4532-7.4404998-5.562Z" fill="#fff" fill-rule="evenodd"/>
    </mask>
    <mask id="mask-1" x="5" y="3.7271" width="16.3056841" height="16.9633" maskUnits="userSpaceOnUse">
      <path d="M13.1767843,5.1572c3.9032999-.9853,7.0672998,1.3804,7.0672998,5.2842,0,3.9033-3.1639999,7.8662-7.0672998,8.8521-3.9033999.9848-7.0673998-1.3804-7.0673998-5.2842,0-3.9033,3.1639999-7.8672,7.0673998-8.8521Z" fill="#fff"/>
    </mask>
    <linearGradient id="New_Gradient_434" data-name="New Gradient 434" x1="7.0943011" y1="7.2997983" x2="19.2590821" y2="17.1506437" gradientUnits="userSpaceOnUse">
      <stop offset="0" stop-color="#fff"/>
      <stop offset="1" stop-color="#ccc"/>
    </linearGradient>
    <radialGradient id="radial-gradient" cx="-98.0682205" cy="-28.1739929" fx="-98.0682205" fy="-28.1739929" r="9.2239467" gradientTransform="translate(156.9934 51.2736) scale(1.4871)" gradientUnits="userSpaceOnUse">
      <stop offset="0" stop-color="#fff"/>
      <stop offset=".0189232" stop-color="#edf5f9"/>
      <stop offset=".0834349" stop-color="#b6d7e8"/>
      <stop offset=".1463504" stop-color="#89beda"/>
      <stop offset=".2062392" stop-color="#65abd0"/>
      <stop offset=".262314" stop-color="#4c9dc8"/>
      <stop offset=".3131118" stop-color="#3d94c3"/>
      <stop offset=".353932" stop-color="#3892c2"/>
      <stop offset=".7437657" stop-color="#378dbf"/>
      <stop offset="1" stop-color="#3786bb"/>
    </radialGradient>
    <radialGradient id="radial-gradient-2" cx="50.6018201" cy="-12.8066778" fx="50.6018201" fy="-12.8066778" r="18.2844171" gradientTransform="translate(-31.3759176 31.7604819) scale(.9142)" gradientUnits="userSpaceOnUse"><stop offset="0" stop-color="#fff"/><stop offset=".0189232" stop-color="#edf5f9"/><stop offset=".0834349" stop-color="#b6d7e8"/><stop offset=".1463504" stop-color="#89beda"/><stop offset=".2062392" stop-color="#65abd0"/><stop offset=".262314" stop-color="#4c9dc8"/><stop offset=".3131118" stop-color="#3d94c3"/><stop offset=".353932" stop-color="#3892c2"/><stop offset=".7437657" stop-color="#378dbf"/><stop offset="1" stop-color="#3786bb"/></radialGradient>
  </defs>
  <g>
    <path d="M17.2538842,28.3193l-6.1874998-6.1064c-.0625-.0718-.0937-.167-.0937-.2822v-3.4014c0-.2959.2382-.5942.5332-.668l10.4941157-2.5991c.1796841-.0449.3397841.0034.4335841.1138l6.1737998,6.0893c.0723.0913.1055.1826.1055.293v3.4019c0,.2939-.2402.5937-.5371.6679l-10.4921997,2.5977c-.1758.0449-.332-.0015-.4297-.1065Z" fill="url(#New_Gradient_318)" stroke="#000" stroke-miterlimit="3.8637" stroke-width="1.8248"/>
    <path d="M17.2538842,28.3193l-6.1874998-6.1064c-.0625-.0718-.0937-.167-.0937-.2822v-3.4014c0-.2959.2382-.5942.5332-.668l10.4941157-2.5991c.1796841-.0449.3397841.0034.4335841.1138l6.1914159,6.1094-11.3711158,6.8339Z" fill="url(#linear-gradient)" fill-rule="evenodd"/>
    <path d="M17.6835842,23.9541l10.4921997-2.5981c.2969-.0728.5371.1059.5371.4023v3.4019c0,.2939-.2402.5937-.5371.6679l-10.4921997,2.5977c-.2949.0747-.5352-.106-.5352-.4009v-3.4004c0-.2954.2403-.5947.5352-.6704Z" fill="url(#New_Gradient_312)" fill-rule="evenodd"/>
    <path d="M27.873,21.2114c.5097839-.1386.8398839.1172.8398839.6563v3.2304c0,.3863-.2948839.7393-.6524.8287l-10.0487997,2.5639c-.2734.0674-.8398.0713-.8398-.5879v-3.3007c0-.3853.2929-.7383.6523-.8282l10.0488158-2.5625ZM17.6522842,28.043c.0293.0009.084,0,.1719-.022l10.0508158-2.563c.2030839-.0513.3632839-.2671.3632839-.4429v-3.2314c0-.0752,0-.1055-.0078-.1299-.0313-.001-.086.0034-.168.0254l-10.0507997,2.5649c-.2051.0513-.3652.2657-.3652.4414v3.3013l.0058.0562Z" fill="url(#New_Gradient_317)"/>
    <path d="M26.382784,24.6108l.8867-.206c.5684-.1319.5684.7207,0,.8525l-.8867.2056c-.5683.1328-.5683-.7207,0-.8521Z" fill="url(#New_Gradient_316)"/>
    <line x1="26.347684" y1="24.9722" x2="27.201184" y2="24.772" fill="none" stroke="#7cc771" stroke-linecap="round" stroke-miterlimit="3.8637" stroke-width="1.1405"/>
    <path d="M11.3808844,22.0005l5.3261156,5.0928-.0273158-1.6885c-.9199.4365-5.2987999-4.4693-5.2987999-4.4693v1.065Z" fill="url(#New_Gradient_315)" fill-rule="evenodd"/>
    <path d="M22.0937841,15.7329l5.3553999,5.1275-5.4823999,1.4882c5.7694999-3.5879-1.1094-6.2915-1.1094-6.2915l1.2364-.3242Z" fill="url(#linear-gradient-2)" fill-rule="evenodd"/>
  </g>
  <g>
    <g>
      <path d="M11.874,12.5532c0-.7192.583-1.4497,1.3027843-1.6308.7187-.1817,1.3017.2544,1.3017.9726,0,.7197-.583,1.4492-1.3017,1.6314-.7197843.1806-1.3027843-.2544-1.3027843-.9732ZM5.7362845,14.1021c0-4.1089,3.3310999-8.2808,7.4404998-9.3184,4.1092999-1.0371,7.4393998,1.4536,7.4393998,5.5625s-3.3300999,8.2803-7.4393998,9.3179c-4.1093999,1.0371-7.4404998-1.4532-7.4404998-5.562Z" fill="#b2b2b2" fill-rule="evenodd" stroke="#000" stroke-miterlimit="3.8637"/>
      <g mask="url(#mask)">
        <g>
          <path d="M11.874,12.5532c0-.7192.583-1.4497,1.3027843-1.6308.7187-.1817,1.3017.2544,1.3017.9726,0,.7197-.583,1.4492-1.3017,1.6314-.7197843.1806-1.3027843-.2544-1.3027843-.9732ZM5.7362845,14.1021c0-4.1089,3.3310999-8.2808,7.4404998-9.3184,4.1092999-1.0371,7.4393998,1.4536,7.4393998,5.5625s-3.3300999,8.2803-7.4393998,9.3179c-4.1093999,1.0371-7.4404998-1.4532-7.4404998-5.562Z" fill="#b2b2b2" fill-rule="evenodd"/>
          <g mask="url(#mask-1)">
            <g>
              <path d="M13.1767843,5.1572c3.9032999-.9853,7.0672998,1.3804,7.0672998,5.2842,0,3.9033-3.1639999,7.8662-7.0672998,8.8521-3.9033999.9848-7.0673998-1.3804-7.0673998-5.2842,0-3.9033,3.1639999-7.8672,7.0673998-8.8521Z" fill="url(#New_Gradient_434)"/>
              <g>
                <polygon points="13.1405843 12.2251 17.1571842 3.7271 18.6005842 4.4922 13.1405843 12.2251" fill="#b2d6e8" fill-rule="evenodd"/>
                <polygon points="19.915 5.6309 13.1405843 12.2251 18.6005842 4.4922 19.915 5.6309" fill="#f6f8b2" fill-rule="evenodd"/>
                <polygon points="13.1405843 12.2251 20.7030841 7.0083 19.915 5.6309 13.1405843 12.2251" fill="#c8e9c2" fill-rule="evenodd"/>
                <polygon points="13.1405843 12.2251 21.2265841 8.6348 20.7030841 7.0083 13.1405843 12.2251" fill="#e5c9b0" fill-rule="evenodd"/>
                <polygon points="13.1405843 12.2251 21.3056841 10.4268 21.2265841 8.6348 13.1405843 12.2251" fill="#fff" fill-rule="evenodd"/>
              </g>
              <g>
                <polygon points="13.166 12.1929 9.1483844 20.6904 7.7050844 19.9253 13.166 12.1929" fill="#b2d6e8" fill-rule="evenodd"/>
                <polygon points="6.3905845 18.7866 13.166 12.1929 7.7050844 19.9253 6.3905845 18.7866" fill="#f6f8b2" fill-rule="evenodd"/>
                <polygon points="13.166 12.1929 5.6024845 17.4092 6.3905845 18.7866 13.166 12.1929" fill="#c8e9c2" fill-rule="evenodd"/>
                <polygon points="13.166 12.1929 5.0780845 15.7827 5.6024845 17.4092 13.166 12.1929" fill="#e5c9b0" fill-rule="evenodd"/>
                <polygon points="13.166 12.1929 5 13.9912 5.0780845 15.7827 13.166 12.1929" fill="#fff" fill-rule="evenodd"/>
              </g>
            </g>
          </g>
          <path d="M13.1767843,9.6211c1.4384-.3633,2.6044999.5088,2.6044999,1.9468,0,1.4384-1.1661,2.8984-2.6044999,3.2617-1.4375.3628-2.6044999-.5088-2.6044999-1.9473,0-1.4375,1.167-2.8979,2.6044999-3.2612Z" fill="#999" stroke="#666" stroke-miterlimit="3.8637" stroke-width="1.05"/>
          <path d="M11.874,12.5532c0-.7192.583-1.4497,1.3027843-1.6308.7187-.1817,1.3017.2544,1.3017.9726,0,.7197-.583,1.4492-1.3017,1.6314-.7197843.1806-1.3027843-.2544-1.3027843-.9732ZM5.7362845,14.1021c0-4.1089,3.3310999-8.2808,7.4404998-9.3184,4.1092999-1.0371,7.4393998,1.4536,7.4393998,5.5625s-3.3300999,8.2803-7.4393998,9.3179c-4.1093999,1.0371-7.4404998-1.4532-7.4404998-5.562Z" fill="none" fill-rule="evenodd"/>
        </g>
      </g>
    </g>
    <g>
      <path d="M16.0468842,3.2095c-.4395-.1109-.8906.143-1.3418.3232-.5713.2285-.8975.0415-1.4004-.0552l.0547-.1782c.1113-.3525-.3613843-.4175-.4727-.0649l-1.7422,5.5171c-.457-.5518-1.3261-.7036-2.0907999-.4478-.6406.2139-1.2764.8579-1.0312,1.5523.3662,1.0263,3.1229999,1.4213,3.3563999-.3345.0205-.0303.0371156-.063.0498-.0996l1.0147-3.2188c.2187.8452,1.1513.0908,1.6709-.3183.5742-.4507,1.291-1.0611,1.9257157-.834.0703842.0263.3710842.2573.4638842.1553.1279-.1348.085-.5132.0801158-.6504-.0166158-.4556-.083-1.23-.5371158-1.3462" fill="#d68112" fill-rule="evenodd" stroke="#000"/>
      <path d="M16.0468842,3.2095c-.4395-.1109-.8906.143-1.3418.3232-.5713.2285-.8975.0415-1.4004-.0552l.0547-.1782c.1113-.3525-.3613843-.4175-.4727-.0649l-1.7422,5.5171c-.457-.5518-1.3261-.7036-2.0907999-.4478-.6406.2139-1.2764.8579-1.0312,1.5523.3662,1.0263,3.1229999,1.4213,3.3563999-.3345.0205-.0303.0371156-.063.0498-.0996l1.0147-3.2188c.2187.8452,1.1513.0908,1.6709-.3183.5742-.4507,1.291-1.0611,1.9257157-.834.0703842.0263.3710842.2573.4638842.1553.1279-.1348.085-.5132.0801158-.6504-.0166158-.4556-.083-1.23-.5371158-1.3462" fill="url(#radial-gradient)" fill-rule="evenodd"/>
    </g>
    <g>
      <path d="M21.5556841,14.2588c.0507-.1587-.0313-.2969-.1719-.3008-.0567-.0371-.1494-.0649-.294-.085l-2.0858999-.2876-.4404-.0605-2.0859999-.2866c-.1454842-.0205-.25-.0176-.3242.001-.1299-.0386-.2939.0693-.3437.2295l-1.709,5.415c-.461-.5557-1.3467-.7017-2.1132999-.419-.5879.2168-1.1592.8086-.9668,1.4541.2051.6924.9941.9522,1.6641.9165.5908-.0288,1.5351-.3803,1.6445-1.1967.0205-.0288.0361-.0616.0479157-.0972l1.1307842-3.582c.0313.0063.0664.0122.1045.0171l2.0858999.2866.4405.061,2.0848999.2862c.0371.0053.0703.0087.0996.0117l-.9414,2.9878c-.4589-.5557-1.3457-.7017-2.1122999-.4185-.5879.2168-1.1591.8091-.9668,1.4551.2061.6904.9952.9497,1.6641.9165.5928-.0303,1.5371-.3828,1.6436-1.1978.0224-.0293.038-.0625.0488-.0976l1.8965-6.0088M20.5478841,15.5894l-2.0859999-.2872-.4424-.0595-2.0839999-.2876c-.039-.0039-.0732-.0088-.1064-.0108l.2197-.7026c.0323.0063.0664.0127.1055.0181l2.0868999.2866.4395.0605,2.0858999.2881c.0352.0039.0693.0083.0996.0093l-.2217.7017c-.0293-.0069-.0614841-.0122-.0966-.0166" fill="#d68112" fill-rule="evenodd" stroke="#000"/>
      <path d="M21.5556841,14.2588c.0507-.1587-.0313-.2969-.1719-.3008-.0567-.0371-.1494-.0649-.294-.085l-2.0858999-.2876-.4404-.0605-2.0859999-.2866c-.1454842-.0205-.25-.0176-.3242.001-.1299-.0386-.2939.0693-.3437.2295l-1.709,5.415c-.461-.5557-1.3467-.7017-2.1132999-.419-.5879.2168-1.1592.8086-.9668,1.4541.2051.6924.9941.9522,1.6641.9165.5908-.0288,1.5351-.3803,1.6445-1.1967.0205-.0288.0361-.0616.0479157-.0972l1.1307842-3.582c.0313.0063.0664.0122.1045.0171l2.0858999.2866.4405.061,2.0848999.2862c.0371.0053.0703.0087.0996.0117l-.9414,2.9878c-.4589-.5557-1.3457-.7017-2.1122999-.4185-.5879.2168-1.1591.8091-.9668,1.4551.2061.6904.9952.9497,1.6641.9165.5928-.0303,1.5371-.3828,1.6436-1.1978.0224-.0293.038-.0625.0488-.0976l1.8965-6.0088M20.5478841,15.5894l-2.0859999-.2872-.4424-.0595-2.0839999-.2876c-.039-.0039-.0732-.0088-.1064-.0108l.2197-.7026c.0323.0063.0664.0127.1055.0181l2.0868999.2866.4395.0605,2.0858999.2881c.0352.0039.0693.0083.0996.0093l-.2217.7017c-.0293-.0069-.0614841-.0122-.0966-.0166" fill="url(#radial-gradient-2)" fill-rule="evenodd"/>
    </g>
  </g>
</svg>