<?xml version="1.0" encoding="UTF-8"?>
<svg id="Layer_1" data-name="Layer 1" xmlns="http://www.w3.org/2000/svg" width="32" height="32" xmlns:xlink="http://www.w3.org/1999/xlink" viewBox="0 0 32 32">
  <defs>
    <radialGradient id="radial-gradient" cx="19.6098181" cy="16.549634" fx="19.6098181" fy="16.549634" r="12.9695417" gradientTransform="translate(-.2124 -.9772) scale(1.0286)" gradientUnits="userSpaceOnUse">
      <stop offset=".230337" stop-color="#f2b712"/>
      <stop offset=".44382" stop-color="#ffcd00"/>
      <stop offset=".5335957" stop-color="#fcc900"/>
      <stop offset=".6088672" stop-color="#f3bf02"/>
      <stop offset=".678882" stop-color="#e3ad06"/>
      <stop offset=".7453308" stop-color="#ce950c"/>
      <stop offset=".775281" stop-color="#c3880f"/>
    </radialGradient>
    <radialGradient id="radial-gradient-2" cx="169.4281594" cy="132.1495384" fx="169.4281594" fy="132.1495384" r="3.3242111" gradientTransform="translate(-318.7064 57.8181) rotate(-45) scale(1.554645)" gradientUnits="userSpaceOnUse">
      <stop offset=".191011" stop-color="#ecd600"/>
      <stop offset=".612359" stop-color="#fff"/>
      <stop offset=".6721602" stop-color="#fefefb"/>
      <stop offset=".7223228" stop-color="#fdfaf1"/>
      <stop offset=".7690372" stop-color="#fcf5df"/>
      <stop offset=".8136331" stop-color="#faeec7"/>
      <stop offset=".8567796" stop-color="#f8e4a7"/>
      <stop offset=".8987707" stop-color="#f5d980"/>
      <stop offset=".9398968" stop-color="#f2cb52"/>
      <stop offset=".9792847" stop-color="#eebc1e"/>
      <stop offset="1" stop-color="#ecb300"/>
    </radialGradient>
    <radialGradient id="radial-gradient-3" cx="165.8002615" cy="135.9547253" fx="165.8002615" fy="135.9547253" r="6.5759441" gradientTransform="translate(-318.7064 57.8181) rotate(-45) scale(1.554645)" gradientUnits="userSpaceOnUse">
      <stop offset=".191011" stop-color="#ecd600"/>
      <stop offset=".612359" stop-color="#fff"/>
      <stop offset=".6721602" stop-color="#fefefb"/>
      <stop offset=".7223228" stop-color="#fdfaf1"/>
      <stop offset=".7690372" stop-color="#fcf5df"/>
      <stop offset=".8136331" stop-color="#faeec7"/>
      <stop offset=".8567796" stop-color="#f8e4a7"/>
      <stop offset=".8987707" stop-color="#f5d980"/>
      <stop offset=".9398968" stop-color="#f2cb52"/>
      <stop offset=".9792847" stop-color="#eebc1e"/>
      <stop offset="1" stop-color="#ecb300"/>
    </radialGradient>
    <radialGradient id="radial-gradient-4" cx="166.0788592" cy="151.6522189" fx="166.0788592" fy="151.6522189" r="1.1954821" gradientTransform="translate(-351.918 48.196) rotate(-49.2100095) scale(1.6730744 1.7109533) skewX(-4.3049709)" gradientUnits="userSpaceOnUse">
      <stop offset=".691011" stop-color="#999"/>
      <stop offset=".9178119" stop-color="#bdbdbd"/>
      <stop offset="1" stop-color="#ccc"/>
    </radialGradient>
    <radialGradient id="radial-gradient-5" cx="165.7764642" cy="151.5784431" fx="165.7764642" fy="151.5784431" r=".8159917" gradientTransform="translate(-351.918 48.196) rotate(-49.2100095) scale(1.6730744 1.7109533) skewX(-4.3049709)" gradientUnits="userSpaceOnUse">
      <stop offset=".106741" stop-color="#999"/>
      <stop offset=".7624016" stop-color="#bdbdbd"/>
      <stop offset="1" stop-color="#ccc"/>
    </radialGradient>
    <radialGradient id="radial-gradient-6" cx="161.9844862" cy="162.165795" fx="161.9844862" fy="162.165795" r="1.24441" gradientTransform="translate(-420.1711 31.6737) rotate(-49.2113582) scale(1.9604436 2.0048766) skewX(-4.3064527)" gradientUnits="userSpaceOnUse">
      <stop offset=".691011" stop-color="#328e36"/>
      <stop offset=".8494552" stop-color="#4aae5a"/>
      <stop offset="1" stop-color="#65d081"/>
    </radialGradient>
    <radialGradient id="radial-gradient-7" cx="161.8293751" cy="162.1237992" fx="161.8293751" fy="162.1237992" r=".9317844" gradientTransform="translate(-420.1711 31.6737) rotate(-49.2113582) scale(1.9604436 2.0048766) skewX(-4.3064527)" gradientUnits="userSpaceOnUse">
      <stop offset=".106741" stop-color="#328e36"/>
      <stop offset=".5647888" stop-color="#4aae5a"/>
      <stop offset="1" stop-color="#65d081"/>
    </radialGradient>
    <radialGradient id="radial-gradient-8" cx="250.6415767" cy="190.0802184" fx="250.6415767" fy="190.0802184" r="1.1715297" gradientTransform="translate(-247.076 553.2775) rotate(-102.8027115) scale(1.9603362 2.0047841) skewX(-4.3123832)" gradientUnits="userSpaceOnUse">
      <stop offset=".691011" stop-color="#0342d3"/>
      <stop offset=".8141137" stop-color="#274fe3"/>
      <stop offset="1" stop-color="#66f"/>
    </radialGradient>
    <radialGradient id="radial-gradient-9" cx="250.4874753" cy="190.0185389" fx="250.4874753" fy="190.0185389" r=".9004055" gradientTransform="translate(-247.076 553.2775) rotate(-102.8027115) scale(1.9603362 2.0047841) skewX(-4.3123832)" gradientUnits="userSpaceOnUse">
      <stop offset=".106741" stop-color="#0342d3"/>
      <stop offset=".4626197" stop-color="#274fe3"/>
      <stop offset="1" stop-color="#66f"/>
    </radialGradient>
    <radialGradient id="radial-gradient-10" cx="238.5745962" cy="206.6087166" fx="238.5745962" fy="206.6087166" r="1.2138709" gradientTransform="translate(-290.1361 546.9522) rotate(-101.5309803) scale(2.140094 1.9911174) skewX(-7.3484058)" gradientUnits="userSpaceOnUse">
      <stop offset=".691011" stop-color="#a70000"/>
      <stop offset=".7940595" stop-color="#c12415"/>
      <stop offset="1" stop-color="#ff7845"/>
    </radialGradient>
    <radialGradient id="radial-gradient-11" cx="238.530185" cy="206.5156259" fx="238.530185" fy="206.5156259" r=".9859568" gradientTransform="translate(-290.1361 546.9522) rotate(-101.5309803) scale(2.140094 1.9911174) skewX(-7.3484058)" gradientUnits="userSpaceOnUse">
      <stop offset=".106741" stop-color="#a70000"/>
      <stop offset=".4046447" stop-color="#c12415"/>
      <stop offset="1" stop-color="#ff7845"/>
    </radialGradient>
    <linearGradient id="linear-gradient" x1="-357.0261824" y1="666.1161139" x2="-352.4969461" y2="666.1161139" gradientTransform="translate(-309.9532 273.3849) rotate(166.8905736) scale(1.0510929 .2521583) skewX(.2131071)" gradientUnits="userSpaceOnUse">
      <stop offset="0" stop-color="#6b3200"/>
      <stop offset=".2885023" stop-color="#6d3400"/>
      <stop offset=".4963073" stop-color="#773d03"/>
      <stop offset=".6782187" stop-color="#864b08"/>
      <stop offset=".825843" stop-color="#9a5d0e"/>
      <stop offset="1" stop-color="#ecb300"/>
    </linearGradient>
    <linearGradient id="linear-gradient-2" x1="-379.9231098" y1="80.0820784" x2="-383.1790066" y2="78.7414171" gradientTransform="translate(-339.7929 21.4341) rotate(166.8877067) scale(.9415487 -1.06206) skewX(13.0553383)" gradientUnits="userSpaceOnUse">
      <stop offset="0" stop-color="#6b3200"/>
      <stop offset=".2685086" stop-color="#6e3501"/>
      <stop offset=".5357231" stop-color="#7a4006"/>
      <stop offset=".758427" stop-color="#8b4f0d"/>
      <stop offset="1" stop-color="#ecb300"/>
    </linearGradient>
    <radialGradient id="radial-gradient-12" cx="-1403.3978611" cy="-193.9672648" fx="-1403.3978611" fy="-193.9672648" r="7.1239713" gradientTransform="translate(-377.1365 179.8721) rotate(166.8659777) scale(.2957361 -.3335471) skewX(-.956476)" gradientUnits="userSpaceOnUse">
      <stop offset="0" stop-color="#fff"/>
      <stop offset="1" stop-color="#000"/>
    </radialGradient>
    <linearGradient id="linear-gradient-3" x1="-125.7233673" y1="-224.092296" x2="-125.0105929" y2="-224.092296" gradientTransform="translate(-177.0616 196.7669) rotate(-158.0185846) scale(1.5249562 -1.0342269) skewX(-13.3973551)" gradientUnits="userSpaceOnUse">
      <stop offset="0" stop-color="#fff"/>
      <stop offset="1" stop-color="#000"/>
    </linearGradient>
    <linearGradient id="linear-gradient-4" x1="-2220.3391869" y1="-279.1457768" x2="-2209.8677327" y2="-279.1457768" gradientTransform="translate(-372.9474 197.7006) rotate(166.8907918) scale(.1873833 -.3294451) skewX(-1.5628549)" gradientUnits="userSpaceOnUse">
      <stop offset="0" stop-color="#b0b0b0"/>
      <stop offset="1" stop-color="#4a4a4a"/>
    </linearGradient>
    <linearGradient id="linear-gradient-5" x1="-357.6189031" y1="68.4197567" x2="-353.5769704" y2="69.5041429" gradientTransform="translate(-304.271 12.8024) rotate(166.8877067) scale(.9415487 -1.0620126) skewX(25.6952404)" gradientUnits="userSpaceOnUse">
      <stop offset="0" stop-color="#fff"/>
      <stop offset=".2307365" stop-color="#fcfcfc"/>
      <stop offset=".3300776" stop-color="#f5f5f5"/>
      <stop offset=".4041854" stop-color="#e9e9e9"/>
      <stop offset=".4657753" stop-color="#d7d7d7"/>
      <stop offset=".5196246" stop-color="silver"/>
      <stop offset=".5680193" stop-color="#a3a3a3"/>
      <stop offset=".6123554" stop-color="#818181"/>
      <stop offset=".6535775" stop-color="#5a5a5a"/>
      <stop offset=".6907176" stop-color="#2e2e2e"/>
      <stop offset=".724719" stop-color="#000"/>
    </linearGradient>
    <mask id="mask" x="10.0809965" y="23.3867" width="7.6908926" height="7.0611193" maskUnits="userSpaceOnUse">
      <path d="M16.4164931,25.5278c-.1464931-.2007-.8882-.0063-1.0859-.1352-.2115-.1406-.3848-.374-.6153-.4102-.2436-.0376-.4482.2031-.6567.2989-.3057.1391-.6625932-1.0601-.9287-.9463-.2588.1128.5347,1.5009.2378,1.6391-.3046932.1392-.9936932-.5635-1.2959-.4243-.3017932.1397.2226.3765-.0811.5171-.2954.1362-.1806.4702-.4761.6055-.2802.1289-.56-.6949-.8393-.565-.2246.103-.0537.8028-.1348,1.0078-.0771.1949-.2417.3579-.1806.5928.0449.1763-.1914.6294-.066.8018.2193.3022.2789.2514.4976.5527.208.2866.4697.0625.6777.3477.1465.2026.4888068.0986.6919.2251.2178.1362.2359068.7768.4698.811.2475.0376.4189-.6343.6298-.7305.3067-.1421.3379-.0508.6456-.1929.2973-.1381.3066-.1108.6044-.248.3042-.1411.3746.0659.6792-.0752.3038-.1411.4937.4155.7969.2749.2949-.1352-.0141-1.0478.2793-1.1846.2793-.1294.2681-.1655.5488-.2949.2237-.102.8433.2891.9229.084.0781-.1963.0059-.6299-.0557-.8652-.0444-.1753-.1958-.4141-.3222-.5869-.2183-.3013-.1328-.3399-.3252-.6636-.1846-.3091-.4112-.148-.6182-.4356Z" fill="#fff"/>
    </mask>
    <linearGradient id="linear-gradient-6" x1="-357.0261824" y1="666.1161139" x2="-352.4969461" y2="666.1161139" gradientTransform="translate(-309.9532 273.3849) rotate(166.8905736) scale(1.0510929 .2521583) skewX(.2131071)" gradientUnits="userSpaceOnUse">
      <stop offset="0" stop-color="#a70000"/>
      <stop offset=".2134181" stop-color="#a90301"/>
      <stop offset=".3923643" stop-color="#b10d07"/>
      <stop offset=".5589223" stop-color="#bd1f11"/>
      <stop offset=".7179175" stop-color="#cf371f"/>
      <stop offset=".8700949" stop-color="#e65631"/>
      <stop offset="1" stop-color="#ff7845"/>
    </linearGradient>
    <linearGradient id="linear-gradient-7" x1="-431.6403968" y1="79.8812816" x2="-432.6280536" y2="78.9347779" gradientTransform="translate(-403.7596 36.0835) rotate(166.8877067) scale(.9415487 -1.0620326) skewX(-1.0037914)" gradientUnits="userSpaceOnUse">
      <stop offset="0" stop-color="#a70000"/>
      <stop offset=".2134181" stop-color="#a90301"/>
      <stop offset=".3923643" stop-color="#b10d07"/>
      <stop offset=".5589223" stop-color="#bd1f11"/>
      <stop offset=".7179175" stop-color="#cf371f"/>
      <stop offset=".8700949" stop-color="#e65631"/>
      <stop offset="1" stop-color="#ff7845"/>
    </linearGradient>
  </defs>
  <g>
    <path d="M21.245593,14.2427c-2.8690999-.0049-4.8598999,1.3496-7.7709998,1.313-2.6474999-.0323.3867-1.9888-1.8042-2.3116-3.6112999-.3916-6.2186998,2.0113-6.8124998,3.8965-.4868,1.5401.5942,3.4864,2.9369999,4.8179,4.5849999,2.6035,11.8105997,3.9663,16.6405996,1.6763,2.1275071-1.0078,3.0551999-3.1382,2.3872999-5.3243-.5196-1.7084-2.6484999-4.0625-5.5771999-4.0678ZM12.0414932,16.4644c1.2861.4047,2.1410999,1.1777,1.9028,1.7211-.2387.544-1.4765.6524-2.7621999.2476-1.2856-.4048-2.1332999-1.1704-1.895-1.7148.2358-.544,1.4688-.6592,2.7543999-.2539Z" fill="none" stroke="#000" stroke-width="2"/>
    <path d="M21.245593,14.2427c-2.8690999-.0049-4.8598999,1.3496-7.7709998,1.313-2.6474999-.0323.3867-1.9888-1.8042-2.3116-3.6112999-.3916-6.2186998,2.0113-6.8124998,3.8965-.4868,1.5401.5942,3.4864,2.9369999,4.8179,4.5849999,2.6035,11.8105997,3.9663,16.6405996,1.6763,2.1275071-1.0078,3.0551999-3.1382,2.3872999-5.3243-.5196-1.7084-2.6484999-4.0625-5.5771999-4.0678ZM12.0414932,16.4644c1.2861.4047,2.1410999,1.1777,1.9028,1.7211-.2387.544-1.4765.6524-2.7621999.2476-1.2856-.4048-2.1332999-1.1704-1.895-1.7148.2358-.544,1.4688-.6592,2.7543999-.2539Z" fill="url(#radial-gradient)"/>
    <path d="M14.5453932,17.832c.2363-.5434-.6182-1.3154-1.9053-1.7207-1.227-.3867-2.4012999-.2998-2.7137999.1812.5327067-.1304,1.313-.0796,2.1151999.1719,1.2861.4047,2.1410999,1.1777,1.9028,1.7211-.0112.0259-.0262932.0479-.041.0713.3208-.0771.5523-.2197.6421-.4248Z" fill="url(#radial-gradient-2)"/>
    <path d="M8.3988933,21.6089c-2.3407999-1.3189-3.4281999-3.2808-2.9423999-4.8218.295-.9404,1.0938-2.0093,2.2656999-2.7969-1.4976.7964-2.5209999,2.0586-2.8642999,3.1504-.4868,1.5401.5942,3.4864,2.9369999,4.8179,4.5849999,2.6035,11.8111067,3.9663,16.6405996,1.6763.1856-.0874.3643-.2032.5352-.314-5.1498999,2.0874-11.9301997.9058-16.5717996-1.7119Z" fill="url(#radial-gradient-3)"/>
    <g>
      <path d="M13.9633932,20.4922c1.3291.292,2.2362999,1.1113,2.0214999,1.8286-.2158931.7163-1.4732,1.0571-2.8036999.7661-1.3296-.291-2.2309999-1.105-2.0141932-1.8213.2152932-.7158,1.4652932-1.0625,2.7963932-.7734Z" fill="url(#radial-gradient-4)" stroke="#999" stroke-width=".5"/>
      <path d="M14.7011932,22.5625c-1.3863-.3047-2.2001932-1.2305-1.7227-1.8813-1.4609-.1377-1.6894.8374-.9277,1.5263,1.2392068,1.1187,3.6708999.5786,2.6503999.355" fill="url(#radial-gradient-5)"/>
    </g>
    <g>
      <path d="M18.0458931,20.0771c1.4072.1382,1.5562.9,2.4506999,2.1666.8926,1.2631-1.5005,1.4604-3.2201999.9111-1.7153931-.5484-2.1611999-1.3716-2.4379999-2.1587-.2759-.7871,1.8027-1.0586,3.2074999-.919Z" fill="url(#radial-gradient-6)" stroke="#23a11f" stroke-width=".5"/>
      <path d="M19.589393,22.7178c-1.7432-.4527-3.9926999-1.7774-3.0766999-2.4263-1.6333-.0317-1.2056.9824-.1841,1.8198,1.6611,1.3633,4.5424999.9395,3.2607999.6065" fill="url(#radial-gradient-7)"/>
    </g>
    <g>
      <path d="M20.104,15.8359c1.119593-.6718,2.613293-.332,3.8046929.606,1.1894.939,1.418,1.7759.0967,2.0566-1.3233.2818-3.4179999.1685-4.4032999-.3774-.9844-.5469-.6187-1.6152.501907-2.2852Z" fill="url(#radial-gradient-8)" stroke="#0342d3" stroke-width=".5"/>
      <path d="M23.7230929,17.3979c-1.2850929.4087-3.3666999.1353-3.9505999-.7241-1.0074.8223.2309,1.5142,1.8979,1.6568,2.7162999.2309,2.996607-1.2325,2.0526999-.9327" fill="url(#radial-gradient-9)"/>
    </g>
    <g>
      <path d="M19.920393,18.7686c1.3887-.233,2.893607.2475,4.4882999.726,1.5991.4776.9199,1.6309-.3125,2.2046-1.2329.5713-4.0092999.4805-4.5058999-.7246-.4946-1.2051-1.061-1.9726.3301-2.206Z" fill="url(#radial-gradient-10)" stroke="red" stroke-width=".5"/>
      <path d="M24.1703929,20.2944c-1.5673929.5591-3.2455999-.123-4.3358999-.978-.9092.4238-.1133,2.0669,1.7231,2.3013,2.9877999.3784,3.7631999-1.7334,2.6127999-1.3233" fill="url(#radial-gradient-11)"/>
    </g>
  </g>
  <g>
    <path d="M10.1254933,22.1758c-.0576-.1328-.1123-.2862-.1587-.4673-1.4272-5.4751-2.8842999-10.1304-3.0551999-15.9624.0044066.0088.0073.0127.0108.021v-.0234c2.5970999,5.2661,3.5091999,9.9951,4.8046999,15.5556.0375.1641.0605.3203.0703.4653.1508.3028.2436068.6631.3056068.9615.0517932.2549.0746932.5434.0351932.8047.2646.1118.4199.2749.5923.6792.2778.6582,1.5883,1.1738,2.1122999,1.6054,1.0405.8565-.6987932,2.0572-1.2891,2.4307.5371-.7612-.6611-.8613-1.0542-.8731-.9194-.0297-1.5581-.0268-2.1122999-.9335-.5225-.8497-.3231933-2.1866.1812-2.628-.2095-.3296-.3252-.7641-.3526-1.1177-.0483-.1904-.0786-.3623-.0903-.518Z" fill="none" stroke="#000" stroke-linecap="round" stroke-linejoin="round" stroke-width="2"/>
    <path d="M11.6898932,23.3867c-1.1386.0132-2.1307999,1.7012-1.3027,3.0528.5542.9067,1.1929.9038,2.1122999.9335.3931.0118,1.5913.1119,1.0542.8731.5903068-.3735,2.3295999-1.5742,1.2891-2.4307-.524-.4316-1.8345-.9472-2.1122999-1.6054-.2514932-.5933-.4693-.6651-1.0406-.8233" fill="url(#linear-gradient)"/>
    <path d="M11.8353932,23.9028c-.5615-.0478-.538,1.1084.2613,2.0044.5356.6006.8603068.6319,1.3359.7002.2041.0293.8423.1577.7813.6055.1948-.2012.7426-.8652-.0258932-1.46-.3887068-.3003-1.2417068-.2099-1.5811068-.6806-.3042-.4258-.4438-1.041-.7715-1.1695" fill="url(#linear-gradient-2)"/>
    <path d="M10.2157933,22.6938c-.2514-.9946-.0044-1.4975.6377-1.5673.8096-.0894,1.1065067.9165,1.2495067,1.5996.1332932.6435.0702932,1.5044-.6631068,1.584-.7728932.0859-1.1718-.9205-1.2241-1.6163" fill="url(#radial-gradient-12)"/>
    <path d="M10.9286933,24.0269c1.3237.1044-.0112-2.1495.6109-2.3711-.4961.1777,1.6391,2.5463-.6109,2.3711" fill="url(#linear-gradient-3)"/>
    <path d="M11.1293933,22.9023c-.4277.0347-.898-.1728-1.1626-1.1938-1.4272-5.4751-2.8842999-10.1304-3.0551999-15.9624.0044066.0088.0073.0127.0108.021v-.0234c2.5970999,5.2661,3.5091999,9.9951,4.8046999,15.5556.2065.8921-.0170932,1.5088-.5977,1.603" fill="none" stroke="#4d4d4d" stroke-miterlimit="3.8637" stroke-width=".5"/>
    <path d="M11.1293933,22.9023c-.4277.0347-.898-.1728-1.1626-1.1938-1.4272-5.4751-2.8842999-10.1304-3.0551999-15.9624.0044066.0088.0073.0127.0108.021v-.0234c2.5970999,5.2661,3.5091999,9.9951,4.8046999,15.5556.2065.8921-.0170932,1.5088-.5977,1.603" fill="url(#linear-gradient-4)"/>
    <path d="M7.4037933,7.2949c.2949,2.9976.7236,5.126,1.4404,8.0034.2998067,1.2012.6153,2.3916.9258067,3.5713l.5385933,2.0469c.2236.8623.6025,1.2822,1.1274067,1.2481.0424932-.0064.0785932-.0235.1181932-.0357-.0376.2676-.1591932.543-.4917.5947-.4399.0284-.7549-.333-.9541-1.1025l-.5396-2.0576c-.3115-1.1768-.6264-2.3653-.9252-3.565-.8267-3.3164-1.3301-5.9028-1.545-9.3886.1026.2226.2041.4497.3052.685Z" fill="url(#linear-gradient-5)"/>
    <g mask="url(#mask)">
      <g>
        <path d="M11.6898932,23.3867c-1.1386.0132-2.1307999,1.7012-1.3027,3.0528.5542.9067,1.1929.9038,2.1122999.9335.3931.0118,1.5913.1119,1.0542.8731.5903068-.3735,2.3295999-1.5742,1.2891-2.4307-.524-.4316-1.8345-.9472-2.1122999-1.6054-.2514932-.5933-.4693-.6651-1.0406-.8233" fill="url(#linear-gradient-6)"/>
        <path d="M11.8353932,23.9028c-.5615-.0478-.538,1.1084.2613,2.0044.5356.6006.8603068.6319,1.3359.7002.2041.0293.8423.1577.7813.6055.1948-.2012.7426-.8652-.0258932-1.46-.3887068-.3003-1.2417068-.2099-1.5811068-.6806-.3042-.4258-.4438-1.041-.7715-1.1695" fill="url(#linear-gradient-7)"/>
      </g>
    </g>
  </g>
</svg>