<?xml version='1.0' encoding='UTF-8'?>
<svg xmlns="http://www.w3.org/2000/svg" xmlns:xlink="http://www.w3.org/1999/xlink" id="Layer_1" data-name="Layer 1" width="32" height="32" viewBox="0 0 32 32">
  <defs>
    <mask id="mask" x="4.4869579" y="8.2422" width="21.754735" height="18.4511621" maskUnits="userSpaceOnUse">
      <path d="M5.5995934,17.8325l1.6138-4.5014s-.0425-.3233.7051-.3956c.6997-.0654,2.4012999-.4926,4.6991999-.9775,2.2670999-.4775,3.7474999-.9834,4.4828999-1.0264.7358-.0439,1.0517.4878,1.0517.4878,0,0,.9805.9849,2.3267069,2.2891,1.929693,1.8682,3.0214929,2.2969,3.1967929,3.0566.1211.5215,1.4414,5.355,1.4414,5.355,0,0,.1728071.5064-.3891929.71-2.519.6216-10.8574068,2.7012-11.2983068,2.8066-.5191.1255-.9522.0923-1.5708-.6225-.3687-.4263-4.6610999-4.4815-6.0839998-6.188-.5215-.5352-.1753-.9937-.1753-.9937Z" fill="#fff" fill-rule="evenodd" stroke="#fff" stroke-miterlimit="3.8637" stroke-width="2"/>
    </mask>
    <linearGradient id="New_Gradient_336" data-name="New Gradient 336" x1="12.5976936" y1="11.0474356" x2="17.1056054" y2="25.7921506" gradientUnits="userSpaceOnUse">
      <stop offset="0" stop-color="#e5e5e5"/>
      <stop offset="1" stop-color="#b2b2b2"/>
    </linearGradient>
    <linearGradient id="New_Gradient_340" data-name="New Gradient 340" x1="19.0512679" y1="15.3976379" x2="19.4418313" y2="26.5819089" gradientUnits="userSpaceOnUse">
      <stop offset="0" stop-color="#ccc"/>
      <stop offset="1" stop-color="#999"/>
    </linearGradient>
    <linearGradient id="New_Gradient_339" data-name="New Gradient 339" x1="14.2074817" y1="8.1458382" x2="15.6025448" y2="19.5077156" gradientUnits="userSpaceOnUse">
      <stop offset="0" stop-color="#b2b2b2"/>
      <stop offset="1" stop-color="#fff"/>
    </linearGradient>
    <mask id="mask-1" x="5.4869579" y="8.2422" width="20.754735" height="18.1435" maskUnits="userSpaceOnUse">
      <path d="M5.5995934,17.8325l1.6138-4.5014s-.0425-.3233.7051-.3956c.6997-.0654,2.3495999-.4272,4.6991999-.9775,2.2557999-.5283,3.7474999-.9834,4.4828999-1.0264.7358-.0439,1.0517.4878,1.0517.4878,0,0,.6827069,1.2818,2.8383999,3.5494,2.0893999,2.1992,2.3593999.8432,2.6850999,1.7963.1743.5064,1.4414,5.355,1.4414,5.355,0,0,.1728071.5064-.3891929.71-2.519.6216-10.8574068,2.7012-11.2983068,2.8066-.5191.1255-.9522.0923-1.5708-.6225-.3687-.4263-4.6610999-4.4815-6.0839998-6.188-.5215-.5352-.1753-.9937-.1753-.9937Z" fill="#fff" fill-rule="evenodd"/>
    </mask>
    <linearGradient id="New_Gradient_336-2" data-name="New Gradient 336" x1="12.5933703" y1="11.0351897" x2="17.101282" y2="25.7799047" gradientUnits="userSpaceOnUse"><stop offset="0" stop-color="#e5e5e5"/><stop offset="1" stop-color="#b2b2b2"/></linearGradient>
    <linearGradient id="New_Gradient_338" data-name="New Gradient 338" x1="19.0512679" y1="15.3976379" x2="19.4418313" y2="26.5819089" gradientUnits="userSpaceOnUse">
      <stop offset="0" stop-color="#ccc"/>
      <stop offset="1" stop-color="gray"/>
    </linearGradient>
    <linearGradient id="New_Gradient_337" data-name="New Gradient 337" x1="14.2074817" y1="8.1458382" x2="15.6025448" y2="19.5077156" gradientUnits="userSpaceOnUse">
      <stop offset="0" stop-color="#b2b2b2"/>
      <stop offset=".859558" stop-color="#fff"/>
      <stop offset="1" stop-color="#fff"/>
    </linearGradient>
    <linearGradient id="New_Gradient_325" data-name="New Gradient 325" x1="15.6236086" y1="10.752138" x2="15.4112801" y2="16.8324295" gradientUnits="userSpaceOnUse">
      <stop offset="0" stop-color="#e5e5e5"/>
      <stop offset=".741577" stop-color="#fff"/>
      <stop offset="1" stop-color="#fff"/>
    </linearGradient>
    <linearGradient id="New_Gradient_324" data-name="New Gradient 324" x1="9.2175893" y1="19.4108159" x2="6.088911" y2="14.7723595" gradientUnits="userSpaceOnUse">
      <stop offset="0" stop-color="#d9d9d9"/>
      <stop offset=".146072" stop-color="#d9d9d9"/>
      <stop offset=".528091" stop-color="#e5e5e5"/>
      <stop offset="1" stop-color="#fff"/>
    </linearGradient>
    <linearGradient id="New_Gradient_323" data-name="New Gradient 323" x1="10.9273843" y1="21.3995446" x2="13.2825366" y2="21.1103683" gradientUnits="userSpaceOnUse">
      <stop offset="0" stop-color="#ccc"/>
      <stop offset=".561798" stop-color="#ccc"/>
      <stop offset="1" stop-color="#e5e5e5"/>
    </linearGradient>
    <linearGradient id="New_Gradient_322" data-name="New Gradient 322" x1="13.4870857" y1="22.1816931" x2="24.635737" y2="20.2158851" gradientUnits="userSpaceOnUse">
      <stop offset="0" stop-color="#999"/>
      <stop offset=".5" stop-color="#999"/>
      <stop offset=".870789" stop-color="#b2b2b2"/>
      <stop offset="1" stop-color="#d9d9d9"/>
    </linearGradient>
  </defs>
  <g mask="url(#mask)">
    <g>
      <path d="M5.5995934,17.8325l1.6138-4.5014s-.0425-.3233.7051-.3956c.6997-.0654,2.4012999-.4926,4.6991999-.9775,2.2670999-.4775,3.7474999-.9834,4.4828999-1.0264.7358-.0439,1.0517.4878,1.0517.4878,0,0,.9805.9849,2.3267069,2.2891,1.929693,1.8682,3.0214929,2.2969,3.1967929,3.0566.1211.5215,1.4414,5.355,1.4414,5.355,0,0,.1728071.5064-.3891929.71-2.519.6216-10.8574068,2.7012-11.2983068,2.8066-.5191.1255-.9522.0923-1.5708-.6225-.3687-.4263-4.6610999-4.4815-6.0839998-6.188-.5215-.5352-.1753-.9937-.1753-.9937Z" fill="url(#New_Gradient_336)" fill-rule="evenodd"/>
      <polygon points="13.5160932 18.6343 12.521 26.3857 26.2416929 23.314 23.936 15.5859 13.5160932 18.6343" fill="url(#New_Gradient_340)" fill-rule="evenodd"/>
      <path d="M6.3251934,10.564s-.4326.3696.043.9292c.435.5117,6.4130998,7.1416,6.7588066,7.5478.3465932.4072.7484932.4351,1.1375932.3301.3897-.1035,8.5380998-2.1289,8.9785998-2.25.8652-.2363.0864-1.4688.0864-1.4688l-6.7148998-7.4101-10.2894997,2.3218Z" fill="url(#New_Gradient_339)" fill-rule="evenodd"/>
      <path d="M5.5995934,17.8325l1.6138-4.5014s-.0425-.3233.7051-.3956c.6997-.0654,2.4012999-.4926,4.6991999-.9775,2.2670999-.4775,3.7474999-.9834,4.4828999-1.0264.7358-.0439,1.0517.4878,1.0517.4878,0,0,.9805.9849,2.3267069,2.2891,1.929693,1.8682,3.0214929,2.2969,3.1967929,3.0566.1211.5215,1.4414,5.355,1.4414,5.355,0,0,.1728071.5064-.3891929.71-2.519.6216-10.8574068,2.7012-11.2983068,2.8066-.5191.1255-.9522.0923-1.5708-.6225-.3687-.4263-4.6610999-4.4815-6.0839998-6.188-.5215-.5352-.1753-.9937-.1753-.9937Z" fill="none" fill-rule="evenodd" stroke="#000" stroke-miterlimit="3.8637" stroke-width="2"/>
    </g>
  </g>
  <g mask="url(#mask-1)">
    <g>
      <path d="M5.5995934,17.8325l1.6138-4.5014s-.0425-.3233.7051-.3956c.6997-.0654,2.3495999-.4272,4.6991999-.9775,2.2557999-.5283,3.7474999-.9834,4.4828999-1.0264.7358-.0439,1.0517.4878,1.0517.4878,0,0,.6827069,1.2818,2.8383999,3.5494,2.0893999,2.1992,2.3593999.8432,2.6850999,1.7963.1743.5064,1.4414,5.355,1.4414,5.355,0,0,.1728071.5064-.3891929.71-2.519.6216-10.8574068,2.7012-11.2983068,2.8066-.5191.1255-.9522.0923-1.5708-.6225-.3687-.4263-4.6610999-4.4815-6.0839998-6.188-.5215-.5352-.1753-.9937-.1753-.9937Z" fill="url(#New_Gradient_336-2)" fill-rule="evenodd"/>
      <polygon points="13.5160932 18.6343 12.521 26.3857 26.2416929 23.314 23.936 15.5859 13.5160932 18.6343" fill="url(#New_Gradient_338)" fill-rule="evenodd"/>
      <path d="M6.3251934,10.564s-.4326.3696.043.9292c.435.5117,6.4130998,7.1416,6.7588066,7.5478.3465932.4072.7484932.4351,1.1375932.3301.3897-.1035,8.5380998-2.1289,8.9785998-2.25.8652-.2363.0864-1.4688.0864-1.4688l-6.7148998-7.4101-10.2894997,2.3218Z" fill="url(#New_Gradient_337)" fill-rule="evenodd"/>
    </g>
  </g>
  <line x1="13.5590932" y1="19.377" x2="12.6508932" y2="25.2832" fill="none" stroke="gray" stroke-linecap="round" stroke-linejoin="round" stroke-width="1.5"/>
  <path d="M7.7353933,13.0034s2.4124999-.4995,4.6971999-1.0132c2.3051999-.5175,3.8432999-.9526,4.2021999-1.0195,1.4531-.2686,1.1801.1167,2.4623999,1.2822,1.3891,1.2627,1.8183,2.0225,4.2998069,3.9556.3846929.2993-.482.6982-.820307.3472,0,0-1.188-1.208-2.6899999-2.5323-1.0762-.9492-1.219693-1.2651-2.2338999-2.3671-.1947931-.2115-.7011-.1539-.8984-.1172-.3593931.0664-1.8433.4858-4.1132999.9961-2.3080932.5175-4.7831999,1.0654-4.7831999,1.0654-.4277.0537-.5503-.544-.1225-.5972Z" fill="url(#New_Gradient_325)"/>
  <path d="M7.7533933,13.2632s4.4501999,4.2939,4.8813999,4.7588c.3501.3764.5351.4565.9663.3667.5625-.1172,8.1630998-1.1773,7.2372998-3.5044.3071-.0821,2.5541999.9741,2.7484999,1.6089.064.2085.315.5991-.1211.6709,0,0-8.5609998,2.2871-9.1234998,2.4043-.6934.144-1.1397-.0606-1.6562932-.6153-.4331068-.4668-5.3403067-5.2461-5.3403067-5.2461-.3159-.3711.0918-.8154.4077-.4438Z" fill="#fff"/>
  <path d="M10.7807933,13.5913l.708-.1689c.4863-.0967.6972068.0478.8164.2417.1191.1928.1162.3886-.3487.519l-.7089.1685-.4668-.7603ZM12.0360932,14.4985c.1792-.0302.3433-.082.5367.0005.2172068.0889.3408.2891.5102068.501.1112932.1416.2607932.2886.3896932.4258l.4589-.1094c-.2539-.2051-.4487-.4575-.646-.6909-.2168-.2642-.3637-.4077-.7812-.3901l-.0043932-.0069c.3187932-.1538.4018932-.435.2201932-.7305-.2988-.4848-.9145-.4863-1.4331-.3632l-1.1069.2646,1.5078067,2.4522.4291932-.1026-.6817-1.1069.6006-.1436Z" fill="#666" fill-rule="evenodd"/>
  <path d="M10.6044933,16.9336l-3.4223999-3.397s-1.5760934,4.4732-1.666,4.6079c-.0903.1348.0899066.4453.0899066.4453l1.2977934,1.5079s-.6514-1.2603.1577-2.3746c1.0327-1.4238,3.5429999-.7895,3.5429999-.7895Z" fill="url(#New_Gradient_324)" fill-rule="evenodd"/>
  <path d="M12.2426932,25.3423l.9355-5.957s-.1494-.1187-.3613-.3355c-.3931-.4009-1.7715-1.769-1.7715-1.769,0,0,1.3482,2.3349,1.1074,4.4716-.1972,1.7486-.9179,2.6455-.9179,2.6455l1.0078.9444Z" fill="url(#New_Gradient_323)" fill-rule="evenodd"/>
  <line x1="12.3031932" y1="25.1421" x2="13.0868932" y2="19.519" fill="none" stroke="#b2b2b2" stroke-linecap="round" stroke-miterlimit="3.8637" stroke-width=".75"/>
  <path d="M13.1781932,25.688c.3028068-.0669,11.4530997-2.8281,11.4530997-2.8281,0,0,.5738-.2007.483-.6089-.0904-.4072-1.3652929-5.3306-1.3652929-5.3306,0,0-.1201071.2202-.4521071.3125,0,0,.5434,2.0645.1806,3.7573-.3618,1.6934-4.5755999,2.8648-5.2401999,3.0498-.6636.1831-5.0590999,1.3164-5.0590999,1.3164,0,0-.2715.2842,0,.3316Z" fill="url(#New_Gradient_322)" fill-rule="evenodd"/>
  <path d="M13.7206932,19.6987s.1279.0157.4302-.0219c.3008-.0367,9.3573998-2.4668,9.3573998-2.4668" fill="none" stroke="#999" stroke-linecap="round" stroke-miterlimit="3.8637" stroke-width=".5"/>
</svg>