<?xml version='1.0' encoding='UTF-8'?>
<svg xmlns="http://www.w3.org/2000/svg" xmlns:xlink="http://www.w3.org/1999/xlink" id="Layer_1" data-name="Layer 1" width="32" height="32" viewBox="0 0 32 32">
  <defs>
    <radialGradient id="radial-gradient" cx="23.9889351" cy="21.0547838" fx="23.9889351" fy="21.0547838" r="4.7004362" gradientTransform="translate(-4.8801172 2.8756824) scale(.9128)" gradientUnits="userSpaceOnUse">
      <stop offset=".005618" stop-color="#a70000"/>
      <stop offset=".35955" stop-color="#f5b472"/>
      <stop offset=".730337" stop-color="#ffffb3"/>
      <stop offset="1" stop-color="#fff95e"/>
    </radialGradient>
    <radialGradient id="radial-gradient-2" cx="24.3711255" cy="10.5382807" fx="24.3711255" fy="10.5382807" r="9.0412701" gradientTransform="translate(-4.8801172 2.8756824) scale(.9128)" gradientUnits="userSpaceOnUse"><stop offset=".005618" stop-color="#a70000"/><stop offset=".35955" stop-color="#f5b472"/><stop offset=".730337" stop-color="#ffffb3"/><stop offset="1" stop-color="#fff95e"/></radialGradient>
    <mask id="mask" x="9.8965" y="8.2884225" width="12.9067" height="19.0899637" maskUnits="userSpaceOnUse">
      <path d="M22.7939,12.9805c-.0009-.0293-.0039-.0586-.0058-.0884-.0059-.0811-.0122-.1597-.021-.2378-.0029-.0293-.0068-.0576-.0108-.0864-.0102-.0806-.0224-.1592-.0361-.2364-.0039-.021-.0073-.0419-.0112-.0629-.0191-.0962-.0401-.1895-.064-.2808v-.002c0-.0503-.0073-.0991-.0107-.1479-.0034-.0498-.0034-.1006-.0098-.1484-.0068-.0494-.019-.0967-.0288-.1446-.0093-.0469-.0161-.0952-.0283-.1406-.0112-.042-.0278-.082-.0415-.123-.0161-.0494-.0303-.1001-.0493-.149-.0074-.0185-.0171-.0356-.0249-.0532-.4825-1.1226-1.774-1.9019-2.6841-2.335-1.1377-.5429-2.5674-.6005-4.2876-.1738-1.3096.3257-2.4131.8926-3.3115,1.6895-1.4175,1.2597-2.1797,2.9843-2.272,5.1748l1.3291,1.3286c1.3325-.3311,1.9985-.4961,3.3315-.8267,0-.6299.1826-1.2822.5484-1.9575.3657-.6743.9863-1.1216,1.8613-1.3389.1001-.0249.1958-.0449.2881-.0615.0513-.0093.1006-.0161.1494-.0224.0356-.0054.0713-.0108.106-.0152.0634-.0058.1245-.0112.184-.0137.0142-.0004.0274-.0009.0415-.0019.0674-.002.1338-.002.1963.0019.0147.0752.0259.1529.0342.2325.001.0058.0015.0117.0025.0175.0073.0821.0122.1661.0122.252,0,.5034-.1592,1.0039-.4532,1.4971-.1679.2802-.3852.5654-.6572.8408-.331.3462-.4971.519-.8271.8652-.8164.8506-1.3228,1.5493-1.5191,2.0947-.1963.5459-.3169,1.4776-.3628,2.7916l1.0493,1.0493c-.9062.4326-1.5815,1.3886-1.5815,2.332,0,.0366.0019.0742.0078.1133.001.0122.0039.0254.0059.039.0048.0264.0092.0523.0156.0787.0039.0161.0083.0322.0127.0483.0068.0244.0146.0503.0229.0757.0054.0166.0122.0337.0186.0513.0093.0253.0185.0512.0298.0761l.0234.0528c.0117.0258.0249.0522.0376.0791.0088.0175.0171.0346.0269.0522.0141.0283.0302.0562.0468.0835.0098.0166.0191.0332.0284.0498.019.0313.0395.0625.06.0938.0088.0131.0171.0263.0259.04.061.0913.1284.1821.2017.2725.0073.0102.0161.0205.0239.0302.0283.0352.0581.0703.0884.105.0122.0142.0249.0278.0376.0425.0263.0308.0537.0615.082.0913.0146.0151.0288.0308.0439.0464.0274.0288.0552.0571.0835.0859.0157.0156.0318.0313.0469.0469.0283.0273.0571.0547.0864.083.0161.0147.0323.0303.0489.0454.0297.0278.0605.0552.0913.082.0161.0142.0317.0279.0473.0416.0332.0288.0679.0566.1016.0854.0137.0107.0273.0225.041.0337.0444.0361.0889.0708.1338.105.0044.0024.0073.0053.0112.0083h0c.083.1469.188.2744.313.3808.001.0015.0025.002.003.003.124.1045.2656.1884.4223.2475.0069.0034.0132.0039.0195.0073.0684.0245.1397.045.2129.0601.0132.0029.0264.0064.0406.0088.08.0156.1616.0259.2475.0293.0098.001.02-.0005.0298,0,.0742.0024.1499-.0005.2271-.0068.0229-.002.0459-.0044.0688-.0069.0884-.0107.1782-.0254.2695-.0483,1.1353-.2818,2.0562-1.4033,2.0562-2.5059,0-.0693-.0034-.1367-.0103-.2021-.0019-.0152-.0053-.0288-.0073-.043-.0063-.0508-.0137-.1011-.0244-.1484-.0034-.0127-.0073-.0235-.0103-.0352-.0122-.0498-.0253-.0991-.0419-.1465-.002-.0078-.0064-.0141-.0088-.0215-.0186-.0503-.0386-.0991-.062-.1464-.002-.004-.0035-.0069-.0064-.0108-.0249-.0493-.0527-.0981-.0825-.1435-.0005-.0005-.0015-.0015-.0015-.002-.0971-.1465-.2192-.271-.3608-.3711h-.001c-.1396-.168-.2974-.334-.4663-.4912-.001-.001-.002-.001-.0029-.0029-.1123-.104-.229-.2041-.3496-.2993-.002-.0015-.0035-.0025-.0054-.004-.0562-.0444-.1123-.0864-.1695-.1279-.0063-.0044-.0122-.0093-.0185-.0137-.1177-.0844-.2383-.164-.3579-.2348-.0093-.0059-.0191-.0108-.0274-.0156-.0503-.0293-.0991-.0567-.1484-.0831-.0127-.0063-.0249-.0131-.0376-.019-.0644-.0332-.1294-.0644-.1929-.0928.5938-.1474,1.1255-.2798,1.9009-.4726.0078-.6177.0567-1.085.1485-1.4009.1435-.498.435-.9746.874-1.4316.3227-.3345.4834-.501.8061-.836.8179-.8511,1.3687-1.5244,1.6577-2.0029.4839-.7998.7383-1.6997.7383-2.6934,0-.1142-.0034-.2256-.0093-.3349Z" fill="#fff"/>
    </mask>
  </defs>
  <path d="M18.4546,23.5371c-.7495-.9004-2.0083-1.7314-2.7686-1.543-1.1357.2818-2.0566,1.4043-2.0566,2.5059,0,.6191.709,1.5176,1.5317,2.1387.3316.5884,1.0357.8784,1.854.6748,1.1353-.2818,2.0562-1.4033,2.0562-2.5059,0-.5576-.2359-1.0029-.6167-1.2705Z" fill="#ecb300" stroke="#000" stroke-miterlimit="3.8637" stroke-width="2"/>
  <path d="M13.6294,24.5c0,1.1021,2.25,3.0957,3.3857,2.8135,1.1353-.2818,2.0562-1.4033,2.0562-2.5059,0-1.1015-2.2495-3.0952-3.3853-2.8135-1.1357.2818-2.0566,1.4043-2.0566,2.5059Z" fill="url(#radial-gradient)"/>
  <path d="M22.645,11.9858c-.0005-1.6186-1.7402-2.6997-2.8774-3.2417-1.1377-.5429-2.5674-.6005-4.2876-.1738-1.3096.3257-2.4131.8926-3.3115,1.6895-1.4175,1.2597-2.1797,2.9843-2.272,5.1748l1.3291,1.3286c1.3325-.3311,1.9985-.4961,3.3315-.8267,0-.6299.1826-1.2822.5484-1.9575.3657-.6743.9863-1.1216,1.8613-1.3389.3711-.0922.6904-.1279.9653-.1128.0313.1592.0489.3257.0489.502,0,.5034-.1592,1.0039-.4532,1.4971-.1679.2802-.3852.5654-.6572.8408-.331.3462-.4971.519-.8271.8652-.8164.8506-1.3228,1.5493-1.5191,2.0947-.1963.5459-.3169,1.4776-.3628,2.7916l1.3291,1.3286c1.2354-.3067,1.8535-.46,3.0879-.7671.0078-.6177.0567-1.085.1485-1.4009.1435-.498.435-.9746.874-1.4316.3227-.3345.4834-.501.8061-.836.8179-.8511,1.3687-1.5244,1.6577-2.0029.4839-.7998.7383-1.6997.7383-2.6934,0-.4931-.0527-.936-.1582-1.3296Z" fill="#ecb300" stroke="#000" stroke-miterlimit="3.8637" stroke-width="2"/>
  <path d="M12.1685,10.2598c.8984-.7969,2.0019-1.3638,3.3115-1.6895,1.7202-.4267,3.1499-.3691,4.2876.1738,1.1372.542,2.8774,1.6231,2.8774,3.2422,0,.9942-1.4258,1.8936-1.9087,2.6934-.2895.479-.8398,1.1523-1.6582,2.0029-.3222.335-.4834.5015-.8061.836-.4395.456-.7305.934-.8745,1.4326-.0909.3144-1.9068,3.4961-1.9068,3.4961l-1.3291-1.3286c.0459-1.314.1665-2.2457.3628-2.7916.1963-.5454.7027-1.2441,1.5191-2.0947.33-.3462.4961-.519.8271-.8652.272-.2754.4893-.5606.6572-.8408.294-.4932.4532-.9937.4532-1.4971,0-.5801-.168-1.0664-.5039-1.4605-.336-.3925-.9493-.479-1.8389-.2583-.8755.2173-1.4961.6646-1.8623,1.3399-.3653.6748-2.5503,4.1128-2.5503,4.1128l-1.3291-1.3286c.0923-2.1905.8545-3.9151,2.272-5.1748Z" fill="url(#radial-gradient-2)"/>
  <g mask="url(#mask)">
    <g>
      <g>
        <path d="M14.7456,25.6167c0,1.1021.9209,1.7666,2.0566,1.4849,1.1358-.2823,2.0572-1.4043,2.0572-2.5059,0-1.1025-.9214-1.7671-2.0567-1.4849-1.1357.2818-2.0571,1.4034-2.0571,2.5059Z" fill="#ffffb3"/>
        <path d="M13.2856,11.3765c.8975-.7969,2.002-1.3643,3.3111-1.689,1.7202-.4277,3.1499-.3691,4.2881.1733,1.1367.542,1.706,1.6231,1.706,3.2427,0,.9937-.2544,1.8931-.7383,2.6929-.2895.4785-.8403,1.1523-1.6572,2.0034-.3227.334-.4844.501-.8066.8355-.4395.4565-.7305.934-.8741,1.4316-.0913.3159-.1411.7827-.1479,1.4014-1.2354.3066-1.853.4594-3.0884.7666.0449-1.3135.1665-2.2447.3628-2.7915.1958-.5459.7022-1.2437,1.5186-2.0948.3305-.3457.497-.5185.8276-.8652.2725-.2749.4893-.5601.6572-.8408.2935-.4922.4532-.9937.4532-1.4966,0-.5801-.169-1.0664-.5044-1.4605-.3355-.3925-.9488-.479-1.8389-.2578-.875.2168-1.4961.6641-1.8613,1.3389-.3658.6753-.5489,1.3276-.5489,1.9575-1.3325.3306-1.9985.4961-3.3315.8267.0918-2.19.855-3.9151,2.2729-5.1743Z" fill="#ffffb3"/>
      </g>
      <g>
        <path d="M14.958,25.8291c0,1.1021.9214,1.7666,2.0571,1.4844,1.1353-.2818,2.0562-1.4033,2.0562-2.5059,0-1.1015-.9204-1.7666-2.0562-1.4844-1.1357.2823-2.0571,1.4034-2.0571,2.5059Z" fill="#ff7845"/>
        <path d="M13.498,11.5889c.8975-.7969,2.002-1.3643,3.3111-1.6895,1.7207-.4267,3.1499-.3691,4.2871.1738,1.1377.542,1.707,1.6226,1.707,3.2422,0,.9937-.2544,1.8936-.7383,2.6934-.289.4785-.8398,1.1518-1.6577,2.0029-.3227.335-.4834.5015-.8061.836-.439.457-.7305.9336-.874,1.4316-.0918.3159-.1407.7832-.1485,1.4009-1.2344.3071-1.8525.4604-3.0879.7671.0454-1.3135.166-2.2447.3628-2.791.1958-.5459.7022-1.2442,1.5186-2.0953.331-.3462.497-.5185.8276-.8647.2715-.2754.4898-.5601.6567-.8408.2945-.4927.4532-.9942.4532-1.4976,0-.5796-.168-1.0654-.5039-1.4595-.335-.3925-.9483-.479-1.8389-.2583-.875.2173-1.4956.6646-1.8613,1.3389-.3658.6753-.5484,1.3276-.5484,1.9575-1.333.3306-1.999.4956-3.3315.8267.0918-2.19.8545-3.9151,2.2724-5.1743Z" fill="#ff7845"/>
      </g>
    </g>
  </g>
</svg>