<?xml version='1.0' encoding='UTF-8'?>
<svg xmlns="http://www.w3.org/2000/svg" xmlns:xlink="http://www.w3.org/1999/xlink" id="Layer_1" data-name="Layer 1" width="32" height="32" viewBox="0 0 32 32">
  <defs>
    <mask id="mask" x="8.7549" y="4.2437" width="18.5600008" height="25.5278" maskUnits="userSpaceOnUse">
      <path d="M27.3149,17.3184c.0015,5.2749-2.0341,9.5493-4.5468,9.5488-2.5118.0005-4.5479-4.2739-4.5479-9.5488,0-5.274,2.0357-9.5484,4.5479-9.5484,2.5112,0,4.5483,4.2759,4.5468,9.5484Z" fill="#fff"/>
    </mask>
    <linearGradient id="linear-gradient" x1="8.4028" y1="17.4864743" x2="16.7163001" y2="17.4864743" gradientUnits="userSpaceOnUse">
      <stop offset="0" stop-color="#999"/>
      <stop offset=".20224" stop-color="#f2f2f2"/>
      <stop offset=".662921" stop-color="#b2b2b2"/>
      <stop offset="1" stop-color="#737373"/>
    </linearGradient>
    <linearGradient id="New_Gradient_248" data-name="New Gradient 248" x1="255.9458" y1="256.28315" x2="262.0611" y2="256.28315" gradientTransform="translate(265.0029 -241.6924) rotate(90)" gradientUnits="userSpaceOnUse">
      <stop offset="0" stop-color="#999"/>
      <stop offset=".20224" stop-color="#f2f2f2"/>
      <stop offset=".516861" stop-color="#b2b2b2"/>
      <stop offset=".769669" stop-color="#b2b2b2"/>
      <stop offset="1" stop-color="#737373"/>
    </linearGradient>
    <linearGradient id="linear-gradient-2" x1="255.9458" y1="256.28315" x2="262.0611" y2="256.28315" gradientTransform="translate(265.0029 -241.6924) rotate(90)" gradientUnits="userSpaceOnUse"><stop offset="0" stop-color="#999"/><stop offset=".20224" stop-color="#f2f2f2"/><stop offset=".662921" stop-color="#b2b2b2"/><stop offset="1" stop-color="#737373"/></linearGradient>
    <mask id="mask-1" x="8.4028" y="9.4154196" width="8.8135002" height="16.1422581" maskUnits="userSpaceOnUse">
      <path d="M14.8569,9.9194c-1.0215-.209-6.4531,2.4297-6.4541,7.565-.0005,5.1401,5.4336,7.7768,6.4541,7.5693h0v-15.1343Z" fill="#fff" fill-rule="evenodd"/>
    </mask>
    <linearGradient id="New_Gradient_95" data-name="New Gradient 95" x1="11.4555098" y1="21.0319868" x2="17.0240464" y2="7.0703041" gradientUnits="userSpaceOnUse">
      <stop offset="0" stop-color="#999"/>
      <stop offset=".415726" stop-color="#f2f2f2"/>
      <stop offset=".48877" stop-color="#fff"/>
      <stop offset=".578659" stop-color="#e5e5e5"/>
      <stop offset="1" stop-color="#d9d9d9"/>
    </linearGradient>
    <linearGradient id="White_Black" data-name="White, Black" x1="106.5127681" y1="232.6220638" x2="106.5791012" y2="237.1996868" gradientTransform="translate(115.045 -213.5765) rotate(47.9995846)" gradientUnits="userSpaceOnUse">
      <stop offset="0" stop-color="#fff"/>
      <stop offset="1" stop-color="#000"/>
    </linearGradient>
    <radialGradient id="New_Gradient_122" data-name="New Gradient 122" cx="147.3343468" cy="185.0692343" fx="147.3343468" fy="185.0692343" r="5.7455565" gradientTransform="translate(66.6465 -282.7179) rotate(48.0003092) scale(1.2969145)" gradientUnits="userSpaceOnUse">
      <stop offset="0" stop-color="#f2f2f2"/>
      <stop offset=".415726" stop-color="#ccc"/>
      <stop offset="1" stop-color="gray"/>
    </radialGradient>
    <radialGradient id="radial-gradient" cx="149.983776" cy="183.2506182" fx="149.983776" fy="183.2506182" r="8.0597877" gradientTransform="translate(66.6465 -282.7179) rotate(48.0003092) scale(1.2969145)" gradientUnits="userSpaceOnUse">
      <stop offset=".146067" stop-color="#e5e5e5"/>
      <stop offset=".640449" stop-color="gray"/>
      <stop offset="1" stop-color="#4c4c4c"/>
    </radialGradient>
    <linearGradient id="linear-gradient-3" x1="46.7911182" y1="290.9355815" x2="50.2959006" y2="291.2422102" gradientTransform="translate(153.4963 -213.4811) rotate(55.6373492) scale(.9002018 .8434787) skewX(14.5605026)" gradientUnits="userSpaceOnUse">
      <stop offset="0" stop-color="#eaeaea"/>
      <stop offset=".219101" stop-color="#fff"/>
      <stop offset="1" stop-color="#d7d7d7"/>
    </linearGradient>
  </defs>
  <g mask="url(#mask)">
    <g>
      <path d="M20.8555,17.3184c0,2.5322-1.4312,4.5854-3.1992,4.5839-1.7667.0005-3.2007-2.0517-3.2002-4.583-.0005-2.5317,1.434-4.5854,3.2011-4.5854,1.7657.0019,3.1983,2.0537,3.1983,4.5845Z" fill="none" stroke="#01326e"/>
      <path d="M23.4331,17.3193c0,4.3023-2.4346,7.7896-5.4375,7.7886-3.0034.001-5.4375-3.4868-5.4375-7.7895-.0005-4.3013,2.4346-7.7901,5.4375-7.7891,3.0029-.001,5.4375,3.4868,5.4375,7.79Z" fill="none" stroke="#01326e" stroke-width="1.5"/>
      <path d="M26.1772,17.0083c0,6.4956-3.6757,11.7637-8.2094,11.7632-4.5357,0-8.2119-5.2676-8.2129-11.7642.0005-6.4956,3.6772-11.7622,8.2129-11.7636,4.5346.0004,8.2094,5.2675,8.2094,11.7646Z" fill="none" stroke="#01326e" stroke-width="2"/>
    </g>
  </g>
  <g>
    <path d="M14.8569,9.9194c-1.0215-.209-6.4531,2.4297-6.4541,7.565-.0005,5.1401,5.4336,7.7768,6.4541,7.5693.5899-.1206,1.8594-2.8867,1.8594-7.5693.0005-4.6792-1.269-7.4439-1.8594-7.565Z" fill="url(#linear-gradient)" stroke="#000" stroke-miterlimit="3.8637" stroke-width="2"/>
    <path d="M8.3779,14.2534h2.545v6.1153h-2.5445c-1.0288,0-1.8618-1.3692-1.8618-3.0582,0-1.6879.833-3.0571,1.8613-3.0571Z" fill="url(#New_Gradient_248)" fill-rule="evenodd" stroke="#000" stroke-miterlimit="3.8637" stroke-width="2"/>
    <path d="M8.3779,14.2534h2.545v6.1153h-2.5445c-1.0288,0-1.8618-1.3692-1.8618-3.0582,0-1.6879.833-3.0571,1.8613-3.0571Z" fill="url(#linear-gradient-2)" fill-rule="evenodd"/>
    <g>
      <g>
        <g mask="url(#mask-1)">
          <g>
            <path d="M14.8569,9.9194c-1.0215-.209-6.4531,2.4297-6.4541,7.565-.0005,5.1401,5.4336,7.7768,6.4541,7.5693h0v-15.1343Z" fill="url(#New_Gradient_95)" fill-rule="evenodd"/>
            <path d="M12.9438,21.9355c-.1484.5972-.6748.5669-1.8681-.1801-.4238-.2681-.8325-.648-1.1402-1.0454-.1167.0756-.1801.1963-.1928.3701-.0449.6963,1.1328,2.1836,2.124,2.8476,1.1792.7925,1.6147,1.2276,1.9521.6963.3448-.5405-.1533-1.5639-.875-2.6885Z" fill="url(#White_Black)" fill-rule="evenodd" opacity=".6"/>
            <path d="M14.8569,25.0537c-.5893.1206-2.4458-2.5034-2.4453-7.5669,0-5.0659,1.857-7.688,2.4453-7.5674.5904.1211,1.8599,2.8858,1.8594,7.565,0,4.6826-1.2695,7.4487-1.8594,7.5693Z" fill="url(#New_Gradient_122)" fill-rule="evenodd" stroke="#4d4d4d" stroke-miterlimit="3.8637"/>
          </g>
        </g>
        <path d="M14.8569,25.0537c-.5893.1206-2.4458-2.5034-2.4453-7.5669,0-5.0659,1.857-7.688,2.4453-7.5674.5904.1211,1.8599,2.8858,1.8594,7.565,0,4.6826-1.2695,7.4487-1.8594,7.5693Z" fill="url(#radial-gradient)" fill-rule="evenodd"/>
      </g>
      <g>
        <path d="M13.9492,15.2573l-.9023-.0014c-.3609.0009-.6519.9438-.6519,2.1069,0,1.1601.293,2.105.6519,2.105h.9009l.0014-4.2105Z" fill="#666" fill-rule="evenodd"/>
        <path d="M14.312,15.2832l-.8999-.0019c-.3599.0019-.6528.9458-.6528,2.1049-.0015,1.1626.2939,2.104.6533,2.1035l.8994.0005v-4.207Z" fill="#c5c5c5"/>
        <path d="M13.8994,19.4648c-.3618-.0019-.6518-.9433-.6518-2.1088-.001-1.1607.292-2.1016.6518-2.1006.3609-.0034.6538.9399.6528,2.1035-.0009,1.1621-.2929,2.105-.6528,2.1059Z" fill="url(#linear-gradient-3)"/>
        <path d="M14.312,19.4902c-.3584.0015-.6509-.9414-.6509-2.102.0005-1.1621.2915-2.1065.6509-2.105.3618,0,.6528.939.6553,2.103-.001,1.1621-.2925,2.107-.6553,2.104Z" fill="#c5c5c5"/>
      </g>
    </g>
  </g>
</svg>