<?xml version='1.0' encoding='UTF-8'?>
<svg xmlns="http://www.w3.org/2000/svg" xmlns:xlink="http://www.w3.org/1999/xlink" id="Layer_1" data-name="Layer 1" width="32" height="32" viewBox="0 0 32 32">
  <defs>
    <linearGradient id="New_Gradient_171" data-name="New Gradient 171" x1="-268.6831394" y1="150.4269409" x2="-259.5560359" y2="158.3610109" gradientTransform="translate(311.3231 -86.2356) rotate(21.7566897) scale(.7613325 1.3134613) skewX(-17.300561)" gradientUnits="userSpaceOnUse">
      <stop offset="0" stop-color="#e5e5e5"/>
      <stop offset="1" stop-color="#fff"/>
    </linearGradient>
    <mask id="mask" x="3.4354951" y="7.8198" width="23.9121994" height="12.272" maskUnits="userSpaceOnUse">
      <path d="M11.6962949,20.0918c5.2162999-1.3252,10.4340997-2.6504,15.6513996-3.9766-3.3373999-3.3173-5.0068999-4.9775-8.3442998-8.2954-5.1903947,1.3516-10.3783947,2.7051-15.5678996,4.0572,3.3037999,3.2856,4.9565999,4.9296,8.2607998,8.2148Z" fill="#fff" fill-rule="evenodd"/>
    </mask>
    <linearGradient id="New_Gradient_171-2" data-name="New Gradient 171" x1="10.7015934" y1="9.9151368" x2="20.0981392" y2="18.0834294" gradientTransform="matrix(1,0,0,1,0,0)" gradientUnits="userSpaceOnUse"><stop offset="0" stop-color="#e5e5e5"/><stop offset="1" stop-color="#fff"/></linearGradient>
    <mask id="mask-1" x="4.974595" y="8.7549" width="20.6774862" height="10.9858" maskUnits="userSpaceOnUse">
      <path d="M11.5595949,18.0776c5.0467999-1.2905,7.5716998-1.936,12.6185997-3.228-2.2284999-2.2168-3.3441945-3.3247-5.5731945-5.5425-5.0342052,1.3052-7.5518051,1.9575-12.586405,3.2632,2.2162999,2.2031,3.3241999,3.3047,5.5409999,5.5073Z" fill="#fff" fill-rule="evenodd" stroke="#fff" stroke-miterlimit="3.8637" stroke-width=".475"/>
    </mask>
    <mask id="mask-2" x="4.974595" y="8.7549" width="15.7099996" height="10.9858" maskUnits="userSpaceOnUse">
      <path d="M19.1347947,8.7549c-4.7192999,1.1846-9.4409998,2.3647-14.1601996,3.5503,2.9989999,2.9746,4.4975999,4.4619,7.4950998,7.4355.8814-.3637,1.3199-.5464,2.2006999-.9111-2.1762999-2.2026-3.2640999-3.3042-5.4418999-5.5083,4.5815999-1.1729,6.8735998-1.7598,11.4560997-2.9331-.6201-.6533-.9287-.9805-1.5498-1.6333Z" fill="#fff" fill-rule="evenodd"/>
    </mask>
    <mask id="mask-3" x="5.1113501" y="14.8520669" width="17.1834767" height="14.6135523" maskUnits="userSpaceOnUse">
      <path d="M12.9721948,16.4448c4.1971999.2476,7.4852998,2.9014,7.3461998,5.9287-.1416,3.0269-3.6581999,5.2788-7.8569998,5.0308-4.1971999-.2476-7.4862998-2.9023-7.3456998-5.9277.1411-3.0269,3.6591999-5.2803,7.8564998-5.0318Z" fill="#fff" fill-rule="evenodd"/>
    </mask>
    <linearGradient id="linear-gradient" x1="5.7748723" y1="25.3412368" x2="19.788022" y2="18.4447275" gradientUnits="userSpaceOnUse">
      <stop offset="0" stop-color="#2c6eb2"/>
      <stop offset=".213483" stop-color="#fff"/>
    </linearGradient>
    <linearGradient id="linear-gradient-2" x1="4.4553177" y1="28.8361229" x2="21.4738628" y2="21.647243" gradientUnits="userSpaceOnUse">
      <stop offset="0" stop-color="#fff"/>
      <stop offset=".0659937" stop-color="#d7d9e1"/>
      <stop offset=".1372393" stop-color="#b5b8c7"/>
      <stop offset=".2162204" stop-color="#989bb1"/>
      <stop offset=".3033519" stop-color="#80849f"/>
      <stop offset=".4021126" stop-color="#6e7291"/>
      <stop offset=".5192141" stop-color="#616687"/>
      <stop offset=".672578" stop-color="#5a5f81"/>
      <stop offset="1" stop-color="#585d80"/>
    </linearGradient>
    <mask id="mask-4" x="5.1113501" y="14.4738304" width="17.2107531" height="13.0332414" maskUnits="userSpaceOnUse">
      <path d="M12.9721948,15.9126c4.1971999.2207,7.4852998,2.5781,7.3461998,5.2681-.1416,2.6884-3.6581999,4.6899-7.8569998,4.4697-4.1971999-.2207-7.4862998-2.5781-7.3456998-5.2676.1411-2.689,3.6591999-4.6904,7.8564998-4.4702Z" fill="#fff" fill-rule="evenodd"/>
    </mask>
    <linearGradient id="linear-gradient-3" x1="2.0601278" y1="27.6708589" x2="16.593252" y2="18.2757222" gradientUnits="userSpaceOnUse">
      <stop offset="0" stop-color="#fff"/>
      <stop offset=".193443" stop-color="#c3dffc"/>
      <stop offset=".5249655" stop-color="#62abf7"/>
      <stop offset=".674157" stop-color="#3c97f6"/>
    </linearGradient>
    <linearGradient id="linear-gradient-4" x1="6.3210312" y1="27.5930124" x2="18.9393547" y2="22.0908472" gradientUnits="userSpaceOnUse">
      <stop offset="0" stop-color="#fff"/>
      <stop offset=".5218671" stop-color="#a7abcf"/>
      <stop offset=".780899" stop-color="#8187ba"/>
    </linearGradient>
  </defs>
  <g>
    <path d="M11.6962949,20.0918c5.2162999-1.3252,10.4340997-2.6504,15.6513996-3.9766-3.3373999-3.3173-5.0068999-4.9775-8.3442998-8.2954-5.1903947,1.3516-10.3783947,2.7051-15.5678996,4.0572,3.3037999,3.2856,4.9565999,4.9296,8.2607998,8.2148Z" fill="url(#New_Gradient_171)" fill-rule="evenodd" stroke="#000" stroke-linecap="round" stroke-linejoin="round" stroke-width="2"/>
    <g mask="url(#mask)">
      <path d="M11.6962949,20.0918c5.2162999-1.3252,10.4340997-2.6504,15.6513996-3.9766-3.3373999-3.3173-5.0068999-4.9775-8.3442998-8.2954-5.1903947,1.3516-10.3783947,2.7051-15.5678996,4.0572,3.3037999,3.2856,4.9565999,4.9296,8.2607998,8.2148Z" fill="url(#New_Gradient_171-2)" fill-rule="evenodd"/>
    </g>
    <g mask="url(#mask-1)">
      <g>
        <g mask="url(#mask-2)">
          <path d="M19.1347947,8.7549c-4.7192999,1.1846-9.4409998,2.3647-14.1601996,3.5503,2.9989999,2.9746,4.4975999,4.4619,7.4950998,7.4355.8814-.3637,1.3199-.5464,2.2006999-.9111-2.1762999-2.2026-3.2640999-3.3042-5.4418999-5.5083,4.5815999-1.1729,6.8735998-1.7598,11.4560997-2.9331-.6201-.6533-.9287-.9805-1.5498-1.6333Z" fill="#b7e9ff" fill-rule="evenodd"/>
        </g>
        <path d="M20.8656946,10.3398c-4.8241999,1.2583-9.6483998,2.5176-14.4730996,3.7749,4.8246999-1.2573,9.6488998-2.5166,14.4730996-3.7749Z" fill="none" fill-rule="evenodd" stroke="#999" stroke-miterlimit="3.8637" stroke-width=".475"/>
        <path d="M22.0473946,11.377c-4.8310999,1.2519-9.6601998,2.5078-14.4902996,3.7607,4.8300999-1.2529,9.6591998-2.5088,14.4902996-3.7607Z" fill="none" fill-rule="evenodd" stroke="#999" stroke-miterlimit="3.8637" stroke-width=".475"/>
        <path d="M23.23,12.4136c-4.836,1.2505-9.6714052,2.5-14.5078051,3.7466,4.8363999-1.2466,9.6718051-2.4961,14.5078051-3.7466Z" fill="none" fill-rule="evenodd" stroke="#999" stroke-miterlimit="3.8637" stroke-width=".475"/>
        <path d="M24.4105945,13.4517c-4.8402999,1.2446-9.6820998,2.4882-14.5223996,3.7319,4.8402999-1.2437,9.6820998-2.4873,14.5223996-3.7319Z" fill="none" fill-rule="evenodd" stroke="#999" stroke-miterlimit="3.8637" stroke-width=".475"/>
        <path d="M25.5932945,14.4893c-4.8466999,1.2382-9.6933998,2.478-14.5385996,3.7172,4.8451999-1.2392,9.6918998-2.479,14.5385996-3.7172Z" fill="none" fill-rule="evenodd" stroke="#999" stroke-miterlimit="3.8637" stroke-width=".475"/>
        <path d="M11.5595949,18.0776c5.0467999-1.2905,7.5716998-1.936,12.6185997-3.228-2.2284999-2.2168-3.3441945-3.3247-5.5731945-5.5425-5.0342052,1.3052-7.5518051,1.9575-12.586405,3.2632,2.2162999,2.2031,3.3241999,3.3047,5.5409999,5.5073Z" fill="none" fill-rule="evenodd" stroke="#999" stroke-miterlimit="3.8637" stroke-width=".475"/>
      </g>
    </g>
    <path d="M7.9994949,12.1431c2.1875051,2.1787,3.2821999,3.268,5.4701999,5.4453" fill="none" stroke="#999" stroke-miterlimit="3.8637" stroke-width=".5"/>
    <path d="M11.2514949,11.1812c2.2303999,2.2192,3.3465999,3.3281,5.5765999,5.5488" fill="none" stroke="#999" stroke-miterlimit="3.8637" stroke-width=".5"/>
    <path d="M14.8642948,10.2734c2.2259999,2.2139,3.3397999,3.3213,5.5648999,5.5352" fill="none" stroke="#999" stroke-miterlimit="3.8637" stroke-width=".5"/>
  </g>
  <g>
    <path d="M20.3183946,21.1807c.1391-2.69-3.1489999-5.0474-7.3461998-5.2681-4.1972999-.2202-7.7153998,1.7812-7.8564998,4.4702-.0122.2354.003.4658.041.6939-.019.1313-.033695.2636-.041.3999-.1406,3.0254,3.1484999,5.6801,7.3456998,5.9277,4.1987999.248,7.7153998-2.0039,7.8569998-5.0308.0122-.2744-.0053946-.5464-.0463946-.813.0218946-.125.039-.2524.0463946-.3798Z" fill="#2c6eb2" fill-rule="evenodd" stroke="#000" stroke-width="2"/>
    <g mask="url(#mask-3)">
      <g>
        <path d="M12.9721948,16.4448c4.1971999.2476,7.4852998,2.9014,7.3461998,5.9287-.1416,3.0269-3.6581999,5.2788-7.8569998,5.0308-4.1971999-.2476-7.4862998-2.9023-7.3456998-5.9277.1411-3.0269,3.6591999-5.2803,7.8564998-5.0318Z" fill="url(#linear-gradient)" fill-rule="evenodd"/>
        <polygon points="7.567895 21.9004 7.583495 26.459 16.9613947 29.1743 21.8280946 21.8027 7.567895 21.9004" fill="url(#linear-gradient-2)" fill-rule="evenodd" stroke="#585d80" stroke-width=".5"/>
        <polygon points="12.584 21.8027 14.0526948 15.2236 21.4188946 19.0459 12.584 21.8027" fill="#ff7845" fill-rule="evenodd" stroke="#000" stroke-width=".5"/>
      </g>
    </g>
    <g mask="url(#mask-4)">
      <g>
        <path d="M12.9721948,15.9126c4.1971999.2207,7.4852998,2.5781,7.3461998,5.2681-.1416,2.6884-3.6581999,4.6899-7.8569998,4.4697-4.1971999-.2207-7.4862998-2.5781-7.3456998-5.2676.1411-2.689,3.6591999-4.6904,7.8564998-4.4702Z" fill="url(#linear-gradient-3)" fill-rule="evenodd"/>
        <polygon points="12.584 20.5923 6.932095 24.6436 16.9613947 27.2231 21.8280946 20.6738 12.584 20.5923" fill="url(#linear-gradient-4)" fill-rule="evenodd" stroke="#8187ba" stroke-width=".5"/>
        <polygon points="12.584 20.6738 21.583 21.4087 19.9486946 17.686 12.584 20.6738" fill="#65d081" fill-rule="evenodd" stroke="#4b995f" stroke-width=".5"/>
        <polygon points="12.584 20.6738 14.0526948 14.8271 21.4188946 18.2246 12.584 20.6738" fill="#ff7845" fill-rule="evenodd" stroke="#cc6037" stroke-width=".5"/>
      </g>
    </g>
  </g>
</svg>