<?xml version='1.0' encoding='UTF-8'?>
<svg xmlns="http://www.w3.org/2000/svg" xmlns:xlink="http://www.w3.org/1999/xlink" id="Layer_1" data-name="Layer 1" width="32" height="32" viewBox="0 0 32 32">
  <defs>
    <linearGradient id="New_Gradient_477" data-name="New Gradient 477" x1="12.3769335" y1="5.9038" x2="12.3769335" y2="25.2388" gradientUnits="userSpaceOnUse">
      <stop offset="0" stop-color="#c0aa94"/>
      <stop offset="1" stop-color="#e5c9b0"/>
    </linearGradient>
    <mask id="mask" x="5.4374837" y="4.52" width="15.8769996" height="22.0075467" maskUnits="userSpaceOnUse">
      <polygon points="6.127 22.8979 6.127 10.4414 16.166 7.9487 18.5644834 10.3467 8.5370836 25.3081 6.127 22.8979" fill="#fff" fill-rule="evenodd"/>
    </mask>
    <linearGradient id="New_Gradient_477-2" data-name="New Gradient 477" x1="12.3457417" y1="7.9487" x2="12.3457417" y2="25.3081" gradientUnits="userSpaceOnUse"><stop offset="0" stop-color="#c0aa94"/><stop offset="1" stop-color="#e5c9b0"/></linearGradient>
    <linearGradient id="New_Gradient_479" data-name="New Gradient 479" x1="13.6396448" y1="6.3262296" x2="12.8195084" y2="12.1618036" gradientUnits="userSpaceOnUse">
      <stop offset="0" stop-color="#a48765"/>
      <stop offset="1" stop-color="#5b391c"/>
    </linearGradient>
    <linearGradient id="New_Gradient_478" data-name="New Gradient 478" x1="18.6923834" y1="4.52" x2="18.6923834" y2="12.9316" gradientUnits="userSpaceOnUse">
      <stop offset="0" stop-color="#c0aa94"/>
      <stop offset="1" stop-color="#7e5b39"/>
    </linearGradient>
    <linearGradient id="New_Gradient_476" data-name="New Gradient 476" x1="7.3443787" y1="11.6209953" x2="19.746066" y2="24.0226825" gradientUnits="userSpaceOnUse">
      <stop offset="0" stop-color="#a48765"/>
      <stop offset="1" stop-color="#c0aa94"/>
    </linearGradient>
    <linearGradient id="New_Gradient_475" data-name="New Gradient 475" x1="15.9929857" y1="14.374344" x2="26.7681955" y2="25.1495538" gradientUnits="userSpaceOnUse">
      <stop offset="0" stop-color="#5587c0"/>
      <stop offset="1" stop-color="#69c"/>
    </linearGradient>
    <linearGradient id="New_Gradient_475-2" data-name="New Gradient 475" x1="15.3631197" y1="13.7442364" x2="26.1375645" y2="24.5186812" gradientUnits="userSpaceOnUse"><stop offset="0" stop-color="#5587c0"/><stop offset="1" stop-color="#69c"/></linearGradient>
    <linearGradient id="New_Gradient_474" data-name="New Gradient 474" x1="17.1825834" y1="14.6396" x2="17.1825834" y2="26.9702" gradientUnits="userSpaceOnUse">
      <stop offset="0" stop-color="#b3e0ff"/>
      <stop offset="1" stop-color="#97bae0"/>
    </linearGradient>
    <linearGradient id="New_Gradient_473" data-name="New Gradient 473" x1="20.8817427" y1="12.5388008" x2="21.81243" y2="16.9173405" gradientUnits="userSpaceOnUse">
      <stop offset="0" stop-color="#ccc"/>
      <stop offset="1" stop-color="#fff"/>
    </linearGradient>
    <linearGradient id="New_Gradient_472" data-name="New Gradient 472" x1="17.1311979" y1="14.3663652" x2="26.8911102" y2="26.4188532" gradientUnits="userSpaceOnUse">
      <stop offset="0" stop-color="#97bae0"/>
      <stop offset="1" stop-color="#69c"/>
    </linearGradient>
    <mask id="mask-1" x="8.7753836" y="16.7324" width="13.3690997" height="13.9097" maskUnits="userSpaceOnUse">
      <path d="M15.4784834,17.6367c-3.3280999.8404-6.0253998,4.2363-6.0253998,7.585,0,3.3486,2.6972999,5.3813,6.0253998,4.542,3.3300999-.8413,6.0273998-4.2364,6.0273998-7.5855,0-3.3481-2.6972999-5.3813-6.0273998-4.5415ZM15.4784834,25.8228c-1.164.2944-2.1093999-.4185-2.1093999-1.5904,0-1.1709.9454-2.3594,2.1093999-2.6533,1.1641-.2949,2.1093999.417,2.1093999,1.5898,0,1.1709-.9453,2.3599-2.1093999,2.6539Z" fill="#fff" fill-rule="evenodd"/>
    </mask>
    <mask id="mask-2" x="8.7753836" y="16.7324" width="13.3690997" height="13.9097" maskUnits="userSpaceOnUse">
      <path d="M15.4784834,17.9409c3.1620999-.7983,5.7265999,1.1333,5.7265999,4.3154,0,3.1797-2.5644999,6.4058-5.7265999,7.2046-3.1620999.7984-5.7264834-1.1338-5.7264834-4.3149,0-3.1812,2.5643835-6.4063,5.7264834-7.2051Z" fill="#fff"/>
    </mask>
    <linearGradient id="New_Gradient_7" data-name="New Gradient 7" x1="10.5358131" y1="19.6983354" x2="20.4211043" y2="27.7032864" gradientUnits="userSpaceOnUse">
      <stop offset="0" stop-color="#fff"/>
      <stop offset="1" stop-color="#ccc"/>
    </linearGradient>
    <linearGradient id="New_Gradient_118" data-name="New Gradient 118" x1="23.0214005" y1="3.3953123" x2="9.5640973" y2="-10.0619909" gradientTransform="translate(0 31.7009) rotate(-13.9984894) scale(1.0306069 .9703021) skewX(-13.2089399)" gradientUnits="userSpaceOnUse">
      <stop offset="0" stop-color="#fff"/>
      <stop offset="1" stop-color="#ccc"/>
    </linearGradient>
  </defs>
  <g>
    <polygon points="18.5702834 10.3325 20.4550833 10.7661 18.5702834 11.2344 18.5702834 22.7871 8.5780836 25.2388 6.1640837 22.8516 6.1640837 12.0332 4.2987837 10.1685 6.1640837 10.4277 5.2733837 8.3911 15.2870834 5.9038 16.1640834 7.9077 17.918 6.1489 20.3085833 8.5405 18.5448834 10.3091 18.5702834 10.3325" fill="url(#New_Gradient_477)" stroke="#000" stroke-linecap="round" stroke-linejoin="round" stroke-width="2"/>
    <g>
      <g mask="url(#mask)">
        <g>
          <polygon points="6.127 22.8979 6.127 10.4414 16.166 7.9487 18.5644834 10.3467 8.5370836 25.3081 6.127 22.8979" fill="url(#New_Gradient_477-2)" fill-rule="evenodd"/>
          <polygon points="5.7421837 23.3633 8.7675836 26.3906 8.7675836 13.0864 5.7421837 10.0586 5.7421837 23.3633" fill="none" fill-rule="evenodd" stroke="#000" stroke-miterlimit="3.8637" stroke-width=".1134"/>
          <polygon points="5.4374837 9.8613 8.5253836 12.8398 20.7636833 10.4624 17.6054834 5.6123 5.4374837 9.8613" fill="url(#New_Gradient_479)" fill-rule="evenodd"/>
          <rect x="16.0702834" y="4.52" width="5.2441999" height="8.4116" fill="url(#New_Gradient_478)"/>
        </g>
      </g>
      <polygon points="16.166 7.9487 6.127 10.4414 5.2343837 8.4004 15.2733834 5.9077 16.166 7.9487" fill="#c0aa94" fill-rule="evenodd"/>
      <polygon points="4.2597837 10.1821 6.6581837 12.5806 8.5253836 12.8398 6.127 10.4414 4.2597837 10.1821" fill="#c0aa94" fill-rule="evenodd"/>
      <polygon points="16.1288834 7.9385 18.5253834 10.3369 20.3065833 8.5498 17.9101834 6.1523 16.1288834 7.9385" fill="#e5c9b0" fill-rule="evenodd"/>
      <polygon points="8.5253836 25.2964 8.5253836 12.8398 18.5644834 10.3467 18.5644834 22.8325 8.5253836 25.2964" fill="url(#New_Gradient_476)" fill-rule="evenodd"/>
      <polygon points="18.5487834 10.353 8.5097836 12.8457 10.4140836 13.2739 20.4530833 10.7813 18.5487834 10.353" fill="#e5c9b0" fill-rule="evenodd"/>
      <line x1="8.541" y1="25.1587" x2="8.541" y2="12.9868" fill="none" stroke="#f9e3c9" stroke-linecap="round" stroke-miterlimit="3.8637" stroke-width=".4667"/>
      <line x1="6.3397837" y1="10.4199" x2="15.9608834" y2="8.0601" fill="none" stroke="#a48765" stroke-linecap="round" stroke-miterlimit="3.8637" stroke-width=".4667"/>
      <polyline points="15.166 6.0273 5.3827837 8.4561 6.207 10.353" fill="none" stroke="#f9e3c9" stroke-linecap="round" stroke-miterlimit="3.8637" stroke-width=".4667"/>
      <polyline points="8.707 12.8872 10.4726836 13.2881 20.2597833 10.8203" fill="none" stroke="#7e5b39" stroke-linecap="round" stroke-miterlimit="3.8637" stroke-width=".4667"/>
      <polyline points="8.4062836 12.7856 6.6425837 12.5522 4.375 10.3193" fill="none" stroke="#f9e3c9" stroke-linecap="round" stroke-miterlimit="3.8637" stroke-width=".4667"/>
      <polyline points="18.6054834 10.2109 20.291 8.5513 17.959 6.2637" fill="none" stroke="#a48765" stroke-linecap="round" stroke-miterlimit="3.8637" stroke-width=".4667"/>
    </g>
  </g>
  <g>
    <polygon points="24.9472832 13.4429 25.4960832 13.9907 26.209 13.814 26.209 24.9097 17.8124834 26.9702 16.5526834 25.709 16.5526834 14.6396 24.9472832 12.5532 24.9472832 13.4429" fill="url(#New_Gradient_475)" stroke="#000" stroke-linecap="round" stroke-linejoin="round" stroke-width="2"/>
    <g>
      <polygon points="16.5526834 25.709 16.5526834 14.6396 24.9472832 12.5532 24.9472832 23.6484 16.5526834 25.709" fill="url(#New_Gradient_475-2)" fill-rule="evenodd"/>
      <polygon points="17.8124834 26.9702 16.5526834 25.709 16.5526834 14.6396 17.8124834 15.8999 17.8124834 26.9702" fill="url(#New_Gradient_474)" fill-rule="evenodd"/>
      <polygon points="17.0175834 15.0444 24.6581832 13.1528 25.6112832 14.1045 18.0194834 16.3179 17.0175834 15.0444" fill="url(#New_Gradient_473)" fill-rule="evenodd"/>
      <polygon points="17.8124834 26.9702 17.8124834 15.8999 26.209 13.814 26.209 24.9097 17.8124834 26.9702" fill="url(#New_Gradient_472)" fill-rule="evenodd"/>
      <polyline points="26.1112832 13.8604 17.8671834 15.8896 16.668 14.6909 24.9140832 12.6616" fill="none" stroke="#b3e0ff" stroke-linecap="round" stroke-linejoin="round" stroke-width=".5"/>
      <line x1="17.8397834" y1="16.0347" x2="17.8397834" y2="26.8667" fill="none" stroke="#69c" stroke-linecap="round" stroke-linejoin="round" stroke-width=".5"/>
    </g>
  </g>
  <g>
    <path d="M15.4784834,17.9409c3.1620999-.7983,5.7265999,1.1333,5.7265999,4.3154,0,3.1797-2.5644999,6.4058-5.7265999,7.2046-3.1620999.7984-5.7264834-1.1338-5.7264834-4.3149,0-3.1812,2.5643835-6.4063,5.7264834-7.2051Z" fill="none" stroke="#000" stroke-linecap="round" stroke-linejoin="round" stroke-width="2"/>
    <path d="M15.4784834,21.5791c-1.164.2939-2.1093999,1.4824-2.1093999,2.6533,0,1.1719.9454,1.8848,2.1093999,1.5904,1.1641-.294,2.1093999-1.483,2.1093999-2.6539,0-1.1728-.9453-1.8847-2.1093999-1.5898ZM15.4784834,24.793c-.5976.1499-1.0859-.2159-1.0859-.8184s.4883-1.2134,1.0859-1.3652c.6016-.1509,1.086.2148,1.086.8169,0,.603-.4844,1.2148-1.086,1.3667Z" fill="none" opacity=".5" stroke="#000" stroke-miterlimit="3.8637"/>
    <path d="M15.4784834,21.5791c-1.164.2939-2.1093999,1.4824-2.1093999,2.6533,0,1.1719.9454,1.8848,2.1093999,1.5904,1.1641-.294,2.1093999-1.483,2.1093999-2.6539,0-1.1728-.9453-1.8847-2.1093999-1.5898ZM15.4784834,24.793c-.5976.1499-1.0859-.2159-1.0859-.8184s.4883-1.2134,1.0859-1.3652c.6016-.1509,1.086.2148,1.086.8169,0,.603-.4844,1.2148-1.086,1.3667Z" fill="#ccc" opacity=".9" stroke="#666" stroke-miterlimit="3.8637" stroke-width=".525"/>
    <g mask="url(#mask-1)">
      <g>
        <path d="M15.4784834,17.6367c-3.3280999.8404-6.0253998,4.2363-6.0253998,7.585,0,3.3486,2.6972999,5.3813,6.0253998,4.542,3.3300999-.8413,6.0273998-4.2364,6.0273998-7.5855,0-3.3481-2.6972999-5.3813-6.0273998-4.5415ZM15.4784834,25.8228c-1.164.2944-2.1093999-.4185-2.1093999-1.5904,0-1.1709.9454-2.3594,2.1093999-2.6533,1.1641-.2949,2.1093999.417,2.1093999,1.5898,0,1.1709-.9453,2.3599-2.1093999,2.6539Z" fill="none" fill-rule="evenodd"/>
        <g mask="url(#mask-2)">
          <g>
            <path d="M15.4784834,17.9409c3.1620999-.7983,5.7265999,1.1333,5.7265999,4.3154,0,3.1797-2.5644999,6.4058-5.7265999,7.2046-3.1620999.7984-5.7264834-1.1338-5.7264834-4.3149,0-3.1812,2.5643835-6.4063,5.7264834-7.2051Z" fill="url(#New_Gradient_7)"/>
            <path d="M16.127,18.4224c3.1620833-.7994,5.7264833,1.1328,5.7264833,4.3139,0,3.1807-2.5643999,6.4068-5.7264833,7.2051-3.1622165.7988-5.7247164-1.1333-5.7247164-4.3144,0-3.1817,2.5624999-6.4068,5.7247164-7.2046Z" fill="url(#New_Gradient_118)" stroke="#b2b2b2" stroke-miterlimit="3.8637" stroke-width=".5"/>
            <polygon points="15.4491834 23.7007 18.7440834 16.7324 19.9257833 17.3594 15.4491834 23.7007" fill="#b2d6e8" fill-rule="evenodd"/>
            <polygon points="21.0038833 18.2935 15.4491834 23.7007 19.9257833 17.3594 21.0038833 18.2935" fill="#f6f8b2" fill-rule="evenodd"/>
            <polygon points="15.4491834 23.7007 21.6503833 19.4229 21.0038833 18.2935 15.4491834 23.7007" fill="#c9ffc9" fill-rule="evenodd"/>
            <polygon points="15.4491834 23.7007 22.0800833 20.7563 21.6503833 19.4229 15.4491834 23.7007" fill="#e5c9b0" fill-rule="evenodd"/>
            <polygon points="15.4491834 23.7007 22.1444833 22.2261 22.0800833 20.7563 15.4491834 23.7007" fill="#fff" fill-rule="evenodd"/>
            <polygon points="15.4706834 23.6729 12.1757835 30.6421 10.9940836 30.0146 15.4706834 23.6729" fill="#b2d6e8" fill-rule="evenodd"/>
            <polygon points="9.916 29.0811 15.4706834 23.6729 10.9940836 30.0146 9.916 29.0811" fill="#f6f8b2" fill-rule="evenodd"/>
            <polygon points="15.4706834 23.6729 9.2694836 27.9512 9.916 29.0811 15.4706834 23.6729" fill="#c9ffc9" fill-rule="evenodd"/>
            <polygon points="15.4706834 23.6729 8.8378836 26.6172 9.2694836 27.9512 15.4706834 23.6729" fill="#e5c9b0" fill-rule="evenodd"/>
            <polygon points="15.4706834 23.6729 8.7753836 25.1489 8.8378836 26.6172 15.4706834 23.6729" fill="#fff" fill-rule="evenodd"/>
            <path d="M15.4784834,17.6367c-3.3280999.8404-6.0253998,4.2363-6.0253998,7.585,0,3.3486,2.6972999,5.3813,6.0253998,4.542,3.3300999-.8413,6.0273998-4.2364,6.0273998-7.5855,0-3.3481-2.6972999-5.3813-6.0273998-4.5415ZM15.4784834,25.8228c-1.164.2944-2.1093999-.4185-2.1093999-1.5904,0-1.1709.9454-2.3594,2.1093999-2.6533,1.1641-.2949,2.1093999.417,2.1093999,1.5898,0,1.1709-.9453,2.3599-2.1093999,2.6539Z" fill="none" fill-rule="evenodd" stroke="gray" stroke-linecap="round" stroke-linejoin="round"/>
          </g>
        </g>
        <path d="M15.4784834,17.6367c-3.3280999.8404-6.0253998,4.2363-6.0253998,7.585,0,3.3486,2.6972999,5.3813,6.0253998,4.542,3.3300999-.8413,6.0273998-4.2364,6.0273998-7.5855,0-3.3481-2.6972999-5.3813-6.0273998-4.5415ZM15.4784834,25.8228c-1.164.2944-2.1093999-.4185-2.1093999-1.5904,0-1.1709.9454-2.3594,2.1093999-2.6533,1.1641-.2949,2.1093999.417,2.1093999,1.5898,0,1.1709-.9453,2.3599-2.1093999,2.6539Z" fill="none" fill-rule="evenodd"/>
      </g>
    </g>
  </g>
</svg>