/* XPM */
static char * close_inactive_xpm[] = {
"18 16 9 1",
" 	c None",
".	c #ADB4AA",
"+	c #E1E5E0",
"@	c #E0E4DF",
"#	c #DFE3DE",
"$	c #98A094",
"%	c #DDE1DC",
"&	c #DBDFDA",
"*	c #DADED8",
"  ..............  ",
" .++++++++++++++. ",
".@@@@@@@@@@@@@@@@.",
".@@@@@@@@@@@@@@@@.",
".#####$###$######.",
".####$$$#$$$#####.",
".#####$$$$$######.",
".%%%%%%$$$%%%%%%%.",
".%%%%%$$$$$%%%%%%.",
".%%%%$$$%$$$%%%%%.",
".&&&&&$&&&$&&&&&&.",
".&&&&&&&&&&&&&&&&.",
".&&&&&&&&&&&&&&&&.",
".****************.",
" .**************. ",
"  ..............  "};
