/* XPM */
static char * title_5_inactive_xpm[] = {
"2 22 10 1",
" 	c None",
".	c #000000",
"+	c #D6DBD5",
"@	c #D1D7CF",
"#	c #CCD2CA",
"$	c #C7CDC5",
"%	c #C5CBC3",
"&	c #C3C9C0",
"*	c #C1C7BE",
"=	c #B4BBB1",
"..",
"++",
"@@",
"##",
"$$",
"$$",
"$$",
"$$",
"$$",
"$$",
"$$",
"$$",
"$$",
"$$",
"$$",
"$$",
"$$",
"%%",
"&&",
"**",
"**",
"=="};
