/* XPM */
static char * top_left_inactive_xpm[] = {
"10 22 16 1",
" 	c None",
".	c #000000",
"+	c #3C3E3C",
"@	c #BCC0BB",
"#	c #D6DBD5",
"$	c #A6ABA5",
"%	c #D1D7CF",
"&	c #A2A7A1",
"*	c #CCD2CA",
"=	c #3B3D3B",
"-	c #C7CDC5",
";	c #ACB2AB",
">	c #C5CBC3",
",	c #C3C9C0",
"'	c #C1C7BE",
")	c #B4BBB1",
"     .....",
"   .+@####",
"  .$%%%%%%",
" .&*******",
" =--------",
".;--------",
".---------",
".---------",
".---------",
".---------",
".---------",
".---------",
".---------",
".---------",
".---------",
".---------",
".---------",
".>>>>>>>>>",
".,,,,,,,,,",
".'''''''''",
".'''''''''",
".)))))))))"};
