<?xml version="1.0" encoding="UTF-8"?>
<svg id="Layer_1" data-name="Layer 1" xmlns="http://www.w3.org/2000/svg" width="24" height="24" xmlns:xlink="http://www.w3.org/1999/xlink" viewBox="0 0 24 24">
  <defs>
    <mask id="mask" x="3" y="2.231" width="18.9638934" height="19.7285" maskUnits="userSpaceOnUse">
      <path d="M10.9950937,12.4951c0-.8359.6773-1.685,1.5137-1.8965.8369-.2109,1.5146.2959,1.5146,1.1319,0,.8369-.6777,1.6855-1.5146,1.8969-.8364.2105-1.5137-.2954-1.5137-1.1323ZM3.8563938,14.2969c0-4.7783,3.8736062-9.6304,8.6523998-10.8369,4.7792999-1.2061,8.6532998,1.6904,8.6532998,6.4692s-3.8739999,9.6304-8.6532998,10.8359c-4.7787936,1.2061-8.6523998-1.6894-8.6523998-6.4682Z" fill="#fff" fill-rule="evenodd"/>
    </mask>
    <mask id="mask-1" x="3" y="2.231" width="18.9638934" height="19.7285" maskUnits="userSpaceOnUse">
      <path d="M12.5087936,3.894c4.5399999-1.146,8.2196998,1.606,8.2196998,6.146,0,4.5386-3.6796999,9.1485-8.2196998,10.2945-4.5395999,1.1455-8.2191998-1.606-8.2191998-6.1455,0-4.5396,3.6795999-9.149,8.2191998-10.295Z" fill="#fff"/>
    </mask>
    <linearGradient id="New_Gradient_112" data-name="New Gradient 112" x1="5.4350936" y1="6.3858604" x2="19.582888" y2="17.8425184" gradientUnits="userSpaceOnUse">
      <stop offset="0" stop-color="#fff"/>
      <stop offset="1" stop-color="#ccc"/>
    </linearGradient>
  </defs>
  <path d="M10.9950937,12.4951c0-.8359.6773-1.685,1.5137-1.8965.8369-.2109,1.5146.2959,1.5146,1.1319,0,.8369-.6777,1.6855-1.5146,1.8969-.8364.2105-1.5137-.2954-1.5137-1.1323ZM3.8563938,14.2969c0-4.7783,3.8736062-9.6304,8.6523998-10.8369,4.7792999-1.2061,8.6532998,1.6904,8.6532998,6.4692s-3.8739999,9.6304-8.6532998,10.8359c-4.7787936,1.2061-8.6523998-1.6894-8.6523998-6.4682Z" fill="#b2b2b2" fill-rule="evenodd" stroke="#000" stroke-miterlimit="3.8637" stroke-width="1.5"/>
  <g mask="url(#mask)">
    <g>
      <path d="M10.9950937,12.4951c0-.8359.6773-1.685,1.5137-1.8965.8369-.2109,1.5146.2959,1.5146,1.1319,0,.8369-.6777,1.6855-1.5146,1.8969-.8364.2105-1.5137-.2954-1.5137-1.1323ZM3.8563938,14.2969c0-4.7783,3.8736062-9.6304,8.6523998-10.8369,4.7792999-1.2061,8.6532998,1.6904,8.6532998,6.4692s-3.8739999,9.6304-8.6532998,10.8359c-4.7787936,1.2061-8.6523998-1.6894-8.6523998-6.4682Z" fill="#b2b2b2" fill-rule="evenodd"/>
      <g mask="url(#mask-1)">
        <g>
          <path d="M12.5087936,3.894c4.5399999-1.146,8.2196998,1.606,8.2196998,6.146,0,4.5386-3.6796999,9.1485-8.2196998,10.2945-4.5395999,1.1455-8.2191998-1.606-8.2191998-6.1455,0-4.5396,3.6795999-9.149,8.2191998-10.295Z" fill="url(#New_Gradient_112)"/>
          <g>
            <polygon points="12.4672936 12.1143 17.1386935 2.231 18.8183935 3.1216 12.4672936 12.1143" fill="#b2d6e8" fill-rule="evenodd"/>
            <polygon points="20.3456934 4.4448 12.4672936 12.1143 18.8183935 3.1216 20.3456934 4.4448" fill="#f6f8b2" fill-rule="evenodd"/>
            <polygon points="12.4672936 12.1143 21.2626934 6.0474 20.3456934 4.4448 12.4672936 12.1143" fill="#c8e9c2" fill-rule="evenodd"/>
            <polygon points="12.4672936 12.1143 21.8720934 7.939 21.2626934 6.0474 12.4672936 12.1143" fill="#e5c9b0" fill-rule="evenodd"/>
            <polygon points="12.4672936 12.1143 21.9638934 10.0229 21.8720934 7.939 12.4672936 12.1143" fill="#fff" fill-rule="evenodd"/>
          </g>
          <g>
            <polygon points="12.4965936 12.0767 7.8251937 21.9595 6.146 21.0693 12.4965936 12.0767" fill="#b2d6e8" fill-rule="evenodd"/>
            <polygon points="4.6181938 19.7456 12.4965936 12.0767 6.146 21.0693 4.6181938 19.7456" fill="#f6f8b2" fill-rule="evenodd"/>
            <polygon points="12.4965936 12.0767 3.7006938 18.1436 4.6181938 19.7456 12.4965936 12.0767" fill="#c8e9c2" fill-rule="evenodd"/>
            <polygon points="12.4965936 12.0767 3.0917939 16.2515 3.7006938 18.1436 12.4965936 12.0767" fill="#e5c9b0" fill-rule="evenodd"/>
            <polygon points="12.4965936 12.0767 3 14.1685 3.0917939 16.2515 12.4965936 12.0767" fill="#fff" fill-rule="evenodd"/>
          </g>
        </g>
      </g>
      <path d="M12.5087936,9.0859c1.6728-.4223,3.0287999.5918,3.0287999,2.2642,0,1.6728-1.356,3.3706-3.0287999,3.793-1.6719.4218-3.0277936-.5918-3.0277936-2.2647,0-1.6719,1.3558937-3.3706,3.0277936-3.7925Z" fill="#999" stroke="#666" stroke-miterlimit="3.8637" stroke-width="1.05"/>
      <path d="M10.9950937,12.4951c0-.8359.6773-1.685,1.5137-1.8965.8369-.2109,1.5146.2959,1.5146,1.1319,0,.8369-.6777,1.6855-1.5146,1.8969-.8364.2105-1.5137-.2954-1.5137-1.1323ZM3.8563938,14.2969c0-4.7783,3.8736062-9.6304,8.6523998-10.8369,4.7792999-1.2061,8.6532998,1.6904,8.6532998,6.4692s-3.8739999,9.6304-8.6532998,10.8359c-4.7787936,1.2061-8.6523998-1.6894-8.6523998-6.4682Z" fill="none" fill-rule="evenodd"/>
    </g>
  </g>
</svg>