<?xml version="1.0" encoding="UTF-8"?>
<svg xmlns="http://www.w3.org/2000/svg" width="24" height="24" xmlns:xlink="http://www.w3.org/1999/xlink" viewBox="0 0 24 24">
  <defs>
    <mask id="mask" x="2.2832" y="1.5" width="18.7168" height="20.7899922" maskUnits="userSpaceOnUse">
      <path d="M12.23,21.2148l-8.9468-2.2304L7.3936,2.5l12.6064,3.1416-3.207,12.8252c-.4336,1.7422-2.8648,3.1719-4.563,2.748Z" fill="#fff" fill-rule="evenodd" stroke="#fff" stroke-linecap="round" stroke-linejoin="round" stroke-width="2"/>
    </mask>
    <linearGradient id="New_Gradient_399" data-name="New Gradient 399" x1="6.9588902" y1="2.7120221" x2="16.1822499" y2="21.6227118" gradientUnits="userSpaceOnUse">
      <stop offset="0" stop-color="#e5e5e5"/>
      <stop offset="1" stop-color="#fff"/>
    </linearGradient>
    <radialGradient id="New_Gradient_400" data-name="New Gradient 400" cx="57.7674717" cy="15.6814925" fx="57.7674717" fy="15.6814925" r="4.4324768" gradientTransform="translate(-39.2624 -12.1621) rotate(13.9915205) skewX(-.0111829)" gradientUnits="userSpaceOnUse">
      <stop offset="0" stop-color="#fff"/>
      <stop offset="1" stop-color="#ccc"/>
    </radialGradient>
    <mask id="mask-1" x="3.2832" y="2.5" width="16.7168" height="19.6924" maskUnits="userSpaceOnUse">
      <path d="M12.23,21.2148l-8.9468-2.2304L7.3936,2.5l12.6064,3.1416-3.207,12.8252c-.4336,1.7422-2.8648,3.1719-4.563,2.748Z" fill="#fff" fill-rule="evenodd"/>
    </mask>
    <linearGradient id="New_Gradient_401" data-name="New Gradient 401" x1="6.9588902" y1="2.7120221" x2="16.1822499" y2="21.6227118" gradientUnits="userSpaceOnUse">
      <stop offset="0" stop-color="#e5e5e5"/>
      <stop offset=".286514" stop-color="#f2f2f2"/>
      <stop offset=".646072" stop-color="#fff"/>
      <stop offset="1" stop-color="#fff"/>
    </linearGradient>
    <radialGradient id="New_Gradient_402" data-name="New Gradient 402" cx="57.7674717" cy="15.6814925" fx="57.7674717" fy="15.6814925" r="4.4324768" gradientTransform="translate(-39.2624 -12.1621) rotate(13.9915205) skewX(-.0111829)" gradientUnits="userSpaceOnUse">
      <stop offset="0" stop-color="#e5e5e5"/>
      <stop offset=".331467" stop-color="#e5e5e5"/>
      <stop offset="1" stop-color="#999"/>
    </radialGradient>
    <linearGradient id="New_Gradient_1" data-name="New Gradient 1" x1="277.9381037" y1="-1306.956459" x2="288.2949632" y2="-1306.956459" gradientTransform="translate(1024.7019 -27.1572) rotate(94.3536493) scale(1.0143269 -.7675146) skewX(7.3263493)" gradientUnits="userSpaceOnUse">
      <stop offset="0" stop-color="#ccc"/>
      <stop offset=".337082" stop-color="#999"/>
      <stop offset=".629211" stop-color="#b2b2b2"/>
      <stop offset="1" stop-color="#d9d9d9"/>
    </linearGradient>
    <linearGradient id="linear-gradient" x1="277.9381037" y1="-1306.956459" x2="288.2949632" y2="-1306.956459" gradientTransform="translate(1024.7019 -27.1572) rotate(94.3536493) scale(1.0143269 -.7675146) skewX(7.3263493)" gradientUnits="userSpaceOnUse">
      <stop offset="0" stop-color="#ccc"/>
      <stop offset=".337082" stop-color="#999"/>
      <stop offset=".629211" stop-color="#b2b2b2"/>
      <stop offset="1" stop-color="#d9d9d9"/>
    </linearGradient>
    <radialGradient id="radial-gradient" cx="-70.6357093" cy="-56.6729027" fx="-70.6357093" fy="-56.6729027" r="13.2914896" gradientTransform="translate(60.6995 49.9848) scale(.6768)" gradientUnits="userSpaceOnUse">
      <stop offset=".140449" stop-color="#ffe900"/>
      <stop offset=".1588104" stop-color="#ffe204"/>
      <stop offset=".2913167" stop-color="#ffb420"/>
      <stop offset=".4092463" stop-color="#ff9334"/>
      <stop offset=".5071755" stop-color="#ff7f40"/>
      <stop offset=".573034" stop-color="#ff7845"/>
    </radialGradient>
  </defs>
  <g id="Layer_4" data-name="Layer 4">
    <g>
      <g mask="url(#mask)">
        <g>
          <path d="M12.23,21.2148l-8.9468-2.2304L7.3936,2.5l12.6064,3.1416-3.207,12.8252c-.4336,1.7422-2.8648,3.1719-4.563,2.748Z" fill="url(#New_Gradient_399)" fill-rule="evenodd"/>
          <path d="M11.6323,21.1309s2.1094.4404,2.688-1.8789c2.1524.5371,2.6377-1.336,2.6377-1.336l-1.0669,4.2764-4.2588-1.0615Z" fill="url(#New_Gradient_400)" fill-rule="evenodd"/>
          <path d="M12.23,21.2148l-8.9468-2.2304L7.3936,2.5l12.6064,3.1416-3.207,12.8252c-.4336,1.7422-2.8648,3.1719-4.563,2.748Z" fill="none" fill-rule="evenodd" stroke="#000" stroke-linecap="round" stroke-linejoin="round" stroke-width="2"/>
        </g>
      </g>
      <g mask="url(#mask-1)">
        <g>
          <path d="M12.23,21.2148l-8.9468-2.2304L7.3936,2.5l12.6064,3.1416-3.207,12.8252c-.4336,1.7422-2.8648,3.1719-4.563,2.748Z" fill="url(#New_Gradient_401)" fill-rule="evenodd"/>
          <path d="M11.6323,21.1309s2.1094.4404,2.688-1.8789c2.1524.5371,2.6377-1.336,2.6377-1.336l-1.0669,4.2764-4.2588-1.0615Z" fill="url(#New_Gradient_402)" fill-rule="evenodd"/>
        </g>
      </g>
    </g>
  </g>
  <g id="Layer_5" data-name="Layer 5">
    <g>
      <path d="M6.0972,14.2598c3.1948.7959,6.3891,1.5937,9.5854,2.3906" fill="none" stroke="#ccc" stroke-linecap="round" stroke-linejoin="round" stroke-width="1.0502"/>
      <path d="M8.1519,6.0195c3.1948.795,6.3891,1.5928,9.5854,2.3907" fill="none" stroke="#ccc" stroke-linecap="round" stroke-linejoin="round" stroke-width="1.0502"/>
      <path d="M7.3301,9.3154c3.1948.7959,6.3891,1.5938,9.5849,2.3897" fill="none" stroke="#ccc" stroke-linecap="round" stroke-linejoin="round" stroke-width="1.0502"/>
      <path d="M7.7412,7.667c3.1943.7959,6.3887,1.5937,9.585,2.3906" fill="none" stroke="#ccc" stroke-linecap="round" stroke-linejoin="round" stroke-width="1.0502"/>
      <path d="M6.5078,12.6113c3.1953.7959,6.3892,1.5938,9.586,2.3907" fill="none" stroke="#ccc" stroke-linecap="round" stroke-linejoin="round" stroke-width="1.0502"/>
      <path d="M6.9189,10.9629c3.1949.7969,6.3892,1.5937,9.585,2.3906" fill="none" stroke="#ccc" stroke-linecap="round" stroke-linejoin="round" stroke-width="1.0502"/>
    </g>
  </g>
  <g id="Layer_3" data-name="Layer 3">
    <g>
      <path d="M11.9043,13.6885c.1177-.2735.2412-.5322.3613-.8076l-.0039.0556.7769.1865c-.1138.2569-.2271.5-.3379.7579l-.7964-.1924ZM12.5918,12.0703c.0703-.1963.1396-.415.2061-.6543l.0546-.2002.795.1924-.0537.2012c-.0655.2383-.1353.4551-.2066.6523l-.7954-.1914ZM13.0605,10.3213c.0767-.3731.1348-.7197.1788-1.0371l.7949.1924c-.044.3164-.1011.666-.1773,1.0361l-.7964-.1914ZM17.3364,16.8086c.0659-.3008.1392-.5645.2163-.8066l.7945.1923c-.0767.2412-.148.5069-.2144.8086l-.7964-.1943ZM17.8789,15.1348c.1177-.2735.2393-.5332.3613-.8047l-.0048.0537.7783.1885c-.1153.2539-.229.499-.3394.7539l-.7954-.1914ZM18.5659,13.5176c.0703-.1973.1397-.4141.2061-.6524l.0542-.2011.7949.1914-.0537.2011c-.0654.2383-.1353.4571-.2056.6543l-.7959-.1933ZM19.0352,11.7686c.0771-.3721.1328-.7198.1767-1.0372l.7974.1924c-.0445.3184-.1021.6651-.1782,1.0381l-.7959-.1933ZM11.3628,15.3613c.0659-.2998.1382-.5644.2143-.8047l.7959.1914c-.0761.2403-.1484.5059-.2138.8067l-.7964-.1934ZM19.3418,8.6836c.0049.1338.0132.5137-.0278,1.0713l.7949.1933c.0405-.5595.0337-.9365.0283-1.0712l.3628.0878s.0928,1.752-.5791,4.1758c-.5913,2.1407-1.4209,2.4356-1.707,5.875l-.3711-.0898c.0302-.3438.0664-.6572.1054-.9424l-.7949-.1914c-.041.2842-.0762.5967-.1054.9404l-.2784-.0664-1.6836-.4072-3.2168-.7813c.0298-.3427.065-.6552.1055-.9404l-.7949-.1933c-.041.2861-.0772.5976-.1069.9423l-.3702-.0898c.2867-3.4395,1.1167-3.7354,1.7076-5.8731.6718-2.4267.5644-4.1816.5644-4.1816l.3941.0938c.0043.1357.0122.5126-.0289,1.0742l.7959.1924c.0401-.5606.0323-.9375.0274-1.0713l3.1943.7714,1.6992.4131.2852.0684Z" fill="url(#New_Gradient_1)" fill-rule="evenodd" stroke="#000" stroke-linecap="round" stroke-linejoin="round" stroke-width="1.75"/>
      <path d="M11.9043,13.6885c.1177-.2735.2412-.5322.3613-.8076l-.0039.0556.7769.1865c-.1138.2569-.2271.5-.3379.7579l-.7964-.1924ZM12.5918,12.0703c.0703-.1963.1396-.415.2061-.6543l.0546-.2002.795.1924-.0537.2012c-.0655.2383-.1353.4551-.2066.6523l-.7954-.1914ZM13.0605,10.3213c.0767-.3731.1348-.7197.1788-1.0371l.7949.1924c-.044.3164-.1011.666-.1773,1.0361l-.7964-.1914ZM17.3364,16.8086c.0659-.3008.1392-.5645.2163-.8066l.7945.1923c-.0767.2412-.148.5069-.2144.8086l-.7964-.1943ZM17.8789,15.1348c.1177-.2735.2393-.5332.3613-.8047l-.0048.0537.7783.1885c-.1153.2539-.229.499-.3394.7539l-.7954-.1914ZM18.5659,13.5176c.0703-.1973.1397-.4141.2061-.6524l.0542-.2011.7949.1914-.0537.2011c-.0654.2383-.1353.4571-.2056.6543l-.7959-.1933ZM19.0352,11.7686c.0771-.3721.1328-.7198.1767-1.0372l.7974.1924c-.0445.3184-.1021.6651-.1782,1.0381l-.7959-.1933ZM11.3628,15.3613c.0659-.2998.1382-.5644.2143-.8047l.7959.1914c-.0761.2403-.1484.5059-.2138.8067l-.7964-.1934ZM19.3418,8.6836c.0049.1338.0132.5137-.0278,1.0713l.7949.1933c.0405-.5595.0337-.9365.0283-1.0712l.3628.0878s.0928,1.752-.5791,4.1758c-.5913,2.1407-1.4209,2.4356-1.707,5.875l-.3711-.0898c.0302-.3438.0664-.6572.1054-.9424l-.7949-.1914c-.041.2842-.0762.5967-.1054.9404l-.2784-.0664-1.6836-.4072-3.2168-.7813c.0298-.3427.065-.6552.1055-.9404l-.7949-.1933c-.041.2861-.0772.5976-.1069.9423l-.3702-.0898c.2867-3.4395,1.1167-3.7354,1.7076-5.8731.6718-2.4267.5644-4.1816.5644-4.1816l.3941.0938c.0043.1357.0122.5126-.0289,1.0742l.7959.1924c.0401-.5606.0323-.9375.0274-1.0713l3.1943.7714,1.6992.4131.2852.0684Z" fill="url(#linear-gradient)" fill-rule="evenodd"/>
      <path d="M14.2041,10.624c.3838-1.8564.3076-3.1103.3076-3.1103l4.5108,1.0937s.0761,1.2539-.3057,3.1104l-4.5127-1.0938ZM12.5078,15.6602c.3799-1.7598.9805-2.3077,1.4385-3.9649.0234-.0859.0459-.168.0683-.251l4.5118,1.0928c-.0215.083-.044.166-.0679.252-.4556,1.6474-1.043,2.2187-1.4204,3.9697l-4.5303-1.0986ZM12.2402,17.5684c.0303-.377.0684-.7178.1123-1.0254l4.5313,1.0986c-.0449.3135-.083.6641-.1162,1.0508l-4.5274-1.124Z" fill="url(#radial-gradient)" fill-rule="evenodd" stroke="#d68100" stroke-width=".5"/>
    </g>
  </g>
</svg>