<?xml version='1.0' encoding='UTF-8'?>
<svg xmlns="http://www.w3.org/2000/svg" xmlns:xlink="http://www.w3.org/1999/xlink" width="24" height="24" viewBox="0 0 24 24">
  <defs>
    <mask id="mask" x="2.7832" y="2" width="18.7168" height="20.7898516" maskUnits="userSpaceOnUse">
      <path d="M12.73,21.7148l-8.9468-2.2304L7.8936,3l12.6064,3.1416-3.2065,12.8247c-.4341,1.7427-2.8653,3.1719-4.5635,2.7485Z" fill="#fff" fill-rule="evenodd" stroke="#fff" stroke-linecap="round" stroke-linejoin="round" stroke-width="2"/>
    </mask>
    <linearGradient id="New_Gradient_399" data-name="New Gradient 399" x1="7.4588902" y1="3.2120221" x2="16.682153" y2="22.1225132" gradientUnits="userSpaceOnUse">
      <stop offset="0" stop-color="#e5e5e5"/>
      <stop offset="1" stop-color="#fff"/>
    </linearGradient>
    <radialGradient id="New_Gradient_400" data-name="New Gradient 400" cx="21.5949647" cy="2.0189593" fx="21.5949647" fy="2.0189593" r="4.4321916" gradientTransform="translate(-7.1504 10.2155) rotate(13.9915205) skewX(-.0111829)" gradientUnits="userSpaceOnUse">
      <stop offset="0" stop-color="#fff"/>
      <stop offset="1" stop-color="#ccc"/>
    </radialGradient>
    <mask id="mask-1" x="3.7832" y="3" width="16.7168" height="19.6924" maskUnits="userSpaceOnUse">
      <path d="M12.73,21.7148l-8.9468-2.2304L7.8936,3l12.6064,3.1416-3.2065,12.8247c-.4341,1.7427-2.8653,3.1719-4.5635,2.7485Z" fill="#fff" fill-rule="evenodd"/>
    </mask>
    <linearGradient id="New_Gradient_401" data-name="New Gradient 401" x1="7.4588902" y1="3.2120221" x2="16.682153" y2="22.1225132" gradientUnits="userSpaceOnUse">
      <stop offset="0" stop-color="#e5e5e5"/>
      <stop offset=".286514" stop-color="#f2f2f2"/>
      <stop offset=".646072" stop-color="#fff"/>
      <stop offset="1" stop-color="#fff"/>
    </linearGradient>
    <radialGradient id="New_Gradient_402" data-name="New Gradient 402" cx="21.5949647" cy="2.0189593" fx="21.5949647" fy="2.0189593" r="4.4321916" gradientTransform="translate(-7.1504 10.2155) rotate(13.9915205) skewX(-.0111829)" gradientUnits="userSpaceOnUse">
      <stop offset="0" stop-color="#e5e5e5"/>
      <stop offset=".331467" stop-color="#e5e5e5"/>
      <stop offset="1" stop-color="#999"/>
    </radialGradient>
    <linearGradient id="linear-gradient" x1="9.7063264" y1="14.8837524" x2="14.8445816" y2="10.5722444" gradientUnits="userSpaceOnUse">
      <stop offset="0" stop-color="#d68112"/>
      <stop offset=".117981" stop-color="#ebb310"/>
      <stop offset=".516861" stop-color="#fff"/>
      <stop offset=".882019" stop-color="#ebb310"/>
      <stop offset="1" stop-color="#c96b0a"/>
    </linearGradient>
    <linearGradient id="linear-gradient-2" x1="8.0118902" y1="12.7434169" x2="16.5013142" y2="12.7434169" gradientUnits="userSpaceOnUse">
      <stop offset="0" stop-color="#2b76b4"/>
      <stop offset=".117981" stop-color="#b0d9ff"/>
      <stop offset=".516861" stop-color="#fff"/>
      <stop offset=".882019" stop-color="#b0d9ff"/>
      <stop offset="1" stop-color="#2b76b4"/>
    </linearGradient>
    <mask id="mask-2" x="8.5334655" y="9.0066709" width="7.4477346" height="7.4735127" maskUnits="userSpaceOnUse">
      <path d="M12.2095,9.1831c2.0298-.0361,3.7197,1.5659,3.7705,3.5776.0513,2.0176-1.5484,3.6812-3.5801,3.7188-2.0308.0386-3.7212-1.5625-3.7744-3.5786-.0523-2.0147,1.5503-3.6797,3.584-3.7178Z" fill="#fff"/>
    </mask>
    <radialGradient id="New_Gradient_82" data-name="New Gradient 82" cx="14.4583126" cy="14.8484219" fx="14.4583126" fy="14.8484219" r="5.7605046" gradientUnits="userSpaceOnUse">
      <stop offset="0" stop-color="#e5e5e5"/>
      <stop offset=".280899" stop-color="#e5e5e5"/>
      <stop offset="1" stop-color="#999"/>
    </radialGradient>
    <radialGradient id="New_Gradient_83" data-name="New Gradient 83" cx="-179.3730479" cy="66.5492086" fx="-179.3730479" fy="66.5492086" r="6.8411714" gradientTransform="translate(145.1425 -5.4032214) rotate(12.3491977) scale(.7612127 .7119338) skewX(12.9844293)" gradientUnits="userSpaceOnUse">
      <stop offset="0" stop-color="#fff"/>
      <stop offset=".48877" stop-color="#f2f2f2"/>
      <stop offset="1" stop-color="#ccc"/>
    </radialGradient>
    <linearGradient id="linear-gradient-3" x1="9.7729162" y1="10.2599542" x2="15.8502953" y2="16.3373332" gradientUnits="userSpaceOnUse"><stop offset="0" stop-color="#2b76b4"/><stop offset=".117981" stop-color="#b0d9ff"/><stop offset=".516861" stop-color="#fff"/><stop offset=".882019" stop-color="#b0d9ff"/><stop offset="1" stop-color="#2b76b4"/></linearGradient>
  </defs>
  <g id="Layer_4" data-name="Layer 4">
    <g>
      <g mask="url(#mask)">
        <g>
          <path d="M12.73,21.7148l-8.9468-2.2304L7.8936,3l12.6064,3.1416-3.2065,12.8247c-.4341,1.7427-2.8653,3.1719-4.5635,2.7485Z" fill="url(#New_Gradient_399)" fill-rule="evenodd"/>
          <path d="M12.1323,21.6309s2.1094.4404,2.688-1.8789c2.1524.5366,2.6372-1.336,2.6372-1.336l-1.0664,4.2764-4.2588-1.0615Z" fill="url(#New_Gradient_400)" fill-rule="evenodd"/>
          <path d="M12.73,21.7148l-8.9468-2.2304L7.8936,3l12.6064,3.1416-3.2065,12.8247c-.4341,1.7427-2.8653,3.1719-4.5635,2.7485Z" fill="none" fill-rule="evenodd" stroke="#000" stroke-linecap="round" stroke-linejoin="round" stroke-width="2"/>
        </g>
      </g>
      <g mask="url(#mask-1)">
        <g>
          <path d="M12.73,21.7148l-8.9468-2.2304L7.8936,3l12.6064,3.1416-3.2065,12.8247c-.4341,1.7427-2.8653,3.1719-4.5635,2.7485Z" fill="url(#New_Gradient_401)" fill-rule="evenodd"/>
          <path d="M12.1323,21.6309s2.1094.4404,2.688-1.8789c2.1524.5366,2.6372-1.336,2.6372-1.336l-1.0664,4.2764-4.2588-1.0615Z" fill="url(#New_Gradient_402)" fill-rule="evenodd"/>
        </g>
      </g>
    </g>
  </g>
  <g id="Layer_5" data-name="Layer 5">
    <g>
      <path d="M12.0962,8.5h0c-1.1543.0234-2.2153.498-2.9893,1.3428-.7324.7964-1.1206,1.8349-1.0937,2.9258.0654,2.3706,2.041,4.2631,4.4043,4.2182,1.1538-.0234,2.2153-.498,2.9902-1.3428.7324-.7968,1.1192-1.8369,1.0923-2.9262-.064-2.3701-2.0391-4.2617-4.4038-4.2178ZM9.3643,12.7759c0-.7095.2641-1.3867.7514-1.9185.5489-.5957,1.2989-.9326,2.1162-.9472,1.5957-.0313,2.8765,1.1674,2.916,2.726.021.7368-.2465,1.4468-.7509,1.9937-.5479.5947-1.2969.9341-2.1157.9468-1.5953.0317-2.875-1.1665-2.9161-2.7261-.0009-.0259-.0009-.0508-.0009-.0747Z" fill="url(#linear-gradient)" fill-rule="evenodd" stroke="#000" stroke-miterlimit="3.8637" stroke-width="2"/>
      <path d="M12.0962,8.5h0c-1.1543.0234-2.2153.498-2.9893,1.3428-.7324.7964-1.1206,1.8349-1.0937,2.9258.0654,2.3706,2.041,4.2631,4.4043,4.2182,1.1538-.0234,2.2153-.498,2.9902-1.3428.7324-.7968,1.1192-1.8369,1.0923-2.9262-.064-2.3701-2.0391-4.2617-4.4038-4.2178ZM9.3643,12.7759c0-.7095.2641-1.3867.7514-1.9185.5489-.5957,1.2989-.9326,2.1162-.9472,1.5957-.0313,2.8765,1.1674,2.916,2.726.021.7368-.2465,1.4468-.7509,1.9937-.5479.5947-1.2969.9341-2.1157.9468-1.5953.0317-2.875-1.1665-2.9161-2.7261-.0009-.0259-.0009-.0508-.0009-.0747Z" fill="url(#linear-gradient-2)" fill-rule="evenodd"/>
      <g mask="url(#mask-2)">
        <g>
          <path d="M12.2095,9.1831c2.0298-.0361,3.7197,1.5659,3.7705,3.5776.0513,2.0176-1.5484,3.6812-3.5801,3.7188-2.0308.0386-3.7212-1.5625-3.7744-3.5786-.0523-2.0147,1.5503-3.6797,3.584-3.7178Z" fill="url(#New_Gradient_82)"/>
          <path d="M11.936,9.0073c1.9292-.0361,3.5357,1.4859,3.585,3.3985.0508,1.9165-1.4756,3.497-3.4038,3.5317-1.9297.0352-3.5327-1.4858-3.5825-3.3984-.0508-1.9156,1.4726-3.4966,3.4013-3.5318Z" fill="url(#New_Gradient_83)"/>
        </g>
      </g>
      <path d="M12.105,9.0542c2.0425-.0381,3.8091,1.6045,3.8638,3.6787.0527,2.0166-1.5435,3.6626-3.5611,3.7002-2.0444.0386-3.8071-1.605-3.8623-3.6802-.0522-2.0151,1.5425-3.6616,3.5596-3.6987ZM12.2217,9.3564c-1.9219.0362-3.439,1.6182-3.3892,3.5093.0488,1.8345,1.5611,3.3018,3.458,3.2647,1.9243-.0337,3.4395-1.6172,3.3897-3.5098-.0489-1.8335-1.5611-3.2998-3.4585-3.2642Z" fill="url(#linear-gradient-3)" fill-rule="evenodd"/>
      <g>
        <polygon points="13.5483 10.8379 13.7563 10.832 13.7378 10.0625 13.5532 10.0635 13.2959 10.2417 13.3911 10.376 13.5356 10.2681 13.5483 10.8379" fill="#b2b2b2" fill-rule="evenodd"/>
        <path d="M14.311,11.7222l.562-.0108-.0043-.1455-.3072.0064.0557-.0484c.0718-.0649.229-.2192.2246-.3686-.0034-.1529-.1289-.2237-.3027-.2217-.0464.0015-.1182.0093-.231.0508l.0137.1601c.0483-.0307.1362-.0551.2036-.0571.061-.0015.1108.0259.1123.0942.0015.1031-.1758.2564-.3315.3941l.0048.1465Z" fill="#b2b2b2" fill-rule="evenodd"/>
        <path d="M14.7207,12.4976c.0435-.0186.1089-.0323.1777-.0323.0625-.0005.1348.0108.1368.0855,0,.063-.0762.0869-.1255.0879-.0279.0024-.0528.0024-.0879.0014l.0034.1348c.0225-.0029.0532-.0039.0854-.0054.0494,0,.1416.0083.1441.086.0024.0815-.0928.1006-.1553.102-.0718.001-.1426-.0044-.1929-.0322l-.0053.1641c.0571.0156.1406.0214.229.02.1518-.0025.3379-.0557.3325-.2471-.0034-.0952-.0659-.1538-.1602-.1689v-.0039c.0855-.0249.1397-.0855.1368-.1714-.0044-.1695-.1641-.2095-.3077-.2056-.0888.001-.1557.0127-.2265.0361l.0156.149Z" fill="#b2b2b2" fill-rule="evenodd"/>
        <path d="M14.6357,14.4595l.1919-.0059-.0044-.147.1114-.0019-.0034-.1382-.1124.0024-.0126-.4848-.2276.0024-.2998.4678.0044.1641.3472-.0074.0053.1485ZM14.6392,14.1714l-.2139.0044.2026-.3311h.0025l.0088.3267Z" fill="#b2b2b2" fill-rule="evenodd"/>
        <path d="M13.4248,15.0703c.0562-.0137.1123-.021.1675-.0215.0825-.0014.1738.024.1782.1099.0024.0981-.0786.1245-.1558.1265-.0664,0-.1303-.0108-.1889-.0381l-.001.1679c.0654.0108.1323.022.2109.0215.1714-.0053.3389-.0727.3335-.2881-.0048-.1709-.144-.2373-.3032-.2329-.0146.0005-.0337.0015-.063.0064l-.0039-.1309.3321-.0058-.004-.1382-.5083.0102.0059.4131Z" fill="#b2b2b2" fill-rule="evenodd"/>
        <path d="M12.5381,15.1172c-.0591-.023-.124-.0347-.2031-.0327-.2579.0053-.3384.2031-.3291.438.0034.1948.0844.3637.3051.3603.1734-.0019.2896-.1216.2867-.2637-.0044-.1411-.0962-.2441-.2417-.2417-.0762.0025-.1304.0313-.1656.0835l-.0009-.0005c-.002-.1362.0361-.228.1748-.2299.0786-.0015.1337.0166.1665.039l.0073-.1523ZM12.2031,15.6348c-.0014-.0611.0308-.1128.0991-.1148.0718,0,.1016.0552.1026.1182.001.06-.0318.1128-.0977.1128-.0664.0019-.1025-.0542-.104-.1162Z" fill="#b2b2b2" fill-rule="evenodd"/>
        <polygon points="10.77 15.498 10.9956 15.4937 11.2583 14.8828 11.2544 14.7188 10.6929 14.7275 10.6973 14.874 11.0439 14.8682 10.77 15.498" fill="#b2b2b2" fill-rule="evenodd"/>
        <path d="M9.6816,13.9336c.0015.0771.0645.1396.1382.1602v.0034-.0015c-.0849.0264-.1518.0815-.1484.1919.0034.1582.1406.2183.3052.2148.164-.0019.3047-.0717.2993-.2353-.002-.1172-.0752-.1631-.1587-.1875l-.001-.0005c.0669-.0283.1255-.0859.1226-.1812-.0049-.1347-.1172-.1943-.27-.1923-.1543.0029-.2925.063-.2872.228ZM10.0771,14.2632c.002.0625-.0458.1006-.104.1006-.0537.0019-.101-.0381-.1015-.0928-.001-.0596.0361-.0918.0859-.1167.0537.0132.1172.0386.1196.1089ZM9.8706,13.9326c-.0029-.0532.0371-.0932.0874-.0962.0444-.0005.0928.0264.0942.083.002.0523-.0293.0796-.0834.1133-.0494-.0234-.0972-.0449-.0982-.1001Z" fill="#b2b2b2" fill-rule="evenodd"/>
        <path d="M9.3115,13.2129c.0591.0225.1211.0312.2017.0293.2583-.0025.3379-.2002.3315-.4365-.0053-.1919-.0854-.3628-.3081-.3604-.1709.0025-.2886.1235-.2856.2656.0039.1397.0967.2422.2383.2398.081-.0025.1333-.0283.1684-.0811l.002-.0014c.0024.1367-.0371.2265-.1758.2304-.0767.0015-.1314-.0156-.1636-.0385l-.0088.1528ZM9.6436,12.6943c.0024.0586-.0269.1138-.0972.1153-.0708.0014-.0996-.0567-.1026-.1192,0-.0581.0333-.1108.0958-.1123.0683.001.103.0552.104.1162Z" fill="#b2b2b2" fill-rule="evenodd"/>
        <g>
          <polygon points="9.543 12.0044 9.7534 12.0005 9.7324 11.2295 9.5503 11.2354 9.2896 11.4082 9.3853 11.5479 9.5293 11.4404 9.543 12.0044" fill="#b2b2b2" fill-rule="evenodd"/>
          <path d="M10.1641,12.0068c.2563-.0044.2963-.2055.291-.4043-.0069-.1992-.0562-.3974-.3125-.394-.2573.0054-.2974.2051-.291.4053.0063.1992.0551.3979.3125.393ZM10.1606,11.8672c-.0932.0019-.1054-.1338-.1093-.2578-.0025-.1201.0029-.2573.0942-.2593.0933-.0015.106.1333.1104.2554.0024.1235-.003.2607-.0953.2617Z" fill="#b2b2b2" fill-rule="evenodd"/>
        </g>
        <g>
          <polygon points="10.5068 10.8823 10.7153 10.8809 10.6929 10.1113 10.5112 10.1133 10.251 10.2871 10.3472 10.4238 10.4917 10.3179 10.5068 10.8823" fill="#b2b2b2" fill-rule="evenodd"/>
          <polygon points="11.0415 10.873 11.249 10.8691 11.2275 10.0996 11.0474 10.1035 10.7866 10.2769 10.8828 10.4136 11.0269 10.3096 11.0415 10.873" fill="#b2b2b2" fill-rule="evenodd"/>
        </g>
        <g>
          <polygon points="11.9106 10.397 12.1147 10.3936 12.0972 9.6226 11.9146 9.624 11.6548 9.8018 11.7539 9.9385 11.896 9.8311 11.9106 10.397" fill="#b2b2b2" fill-rule="evenodd"/>
          <path d="M12.1997,10.3911l.5606-.0102-.0049-.1465-.3052.0078.0552-.0488c.0717-.066.2304-.2198.2265-.3711-.0039-.1534-.1298-.2222-.3042-.2183-.0464,0-.1206.0078-.2295.0479l.0113.1611c.0468-.0288.1362-.0552.2031-.0567.062-.0014.1118.0254.1143.0948.0029.105-.1768.2553-.3316.393l.0044.147Z" fill="#b2b2b2" fill-rule="evenodd"/>
        </g>
      </g>
      <g>
        <path d="M11.9995,13.124c.0098.4141.7041.3897.6909-.06-.0044-.2266-.2104-2.2246-.2104-2.2246l-.3013-.0059-.1792,2.2905Z" fill="#b2b2b2" fill-rule="evenodd"/>
        <path d="M12.0581,12.793c-.3174.0713-.206.7583.1431.6792.1743-.0381,2.1816-.4751,2.1816-.4751l-.0088-.2574-2.3159.0533Z" fill="#b2b2b2" fill-rule="evenodd"/>
        <path d="M11.8398,12.978c.0108.4136.7037.3887.6919-.06-.0048-.2266-.2104-2.2256-.2104-2.2256l-.3003-.0054-.1812,2.291Z" fill="#a70000" fill-rule="evenodd"/>
        <path d="M12.0356,12.5962c-.3178.0732-.2065.7593.1431.6811.1724-.0385,2.1821-.4741,2.1821-.4741l-.0078-.2568-2.3174.0498Z" fill="red" fill-rule="evenodd"/>
      </g>
    </g>
  </g>
</svg>