<?xml version="1.0" encoding="UTF-8"?>
<svg xmlns="http://www.w3.org/2000/svg" width="24" height="24" xmlns:xlink="http://www.w3.org/1999/xlink" viewBox="0 0 24 24">
  <defs>
    <mask id="mask" x="2.7831951" y="2" width="18.7168049" height="20.7898516" maskUnits="userSpaceOnUse">
      <path d="M12.73,21.7148l-8.9468049-2.2304L7.893595,3l12.606405,3.1416-3.2065053,12.8247c-.4341,1.7427-2.8652999,3.1719-4.5634947,2.7485Z" fill="#fff" fill-rule="evenodd" stroke="#fff" stroke-linecap="round" stroke-linejoin="round" stroke-width="2"/>
    </mask>
    <linearGradient id="New_Gradient_399" data-name="New Gradient 399" x1="7.4588872" y1="3.2120211" x2="16.6821502" y2="22.1225125" gradientUnits="userSpaceOnUse">
      <stop offset="0" stop-color="#e5e5e5"/>
      <stop offset="1" stop-color="#fff"/>
    </linearGradient>
    <radialGradient id="New_Gradient_400" data-name="New Gradient 400" cx="18.696635" cy="-27.159359" fx="18.696635" fy="-27.159359" r="4.4321915" gradientTransform="translate(-11.3744 39.0635) rotate(13.9915205) skewX(-.0111829)" gradientUnits="userSpaceOnUse">
      <stop offset="0" stop-color="#fff"/>
      <stop offset="1" stop-color="#ccc"/>
    </radialGradient>
    <mask id="mask-1" x="3.7831951" y="3" width="16.7168049" height="19.6924" maskUnits="userSpaceOnUse">
      <path d="M12.73,21.7148l-8.9468049-2.2304L7.893595,3l12.606405,3.1416-3.2065053,12.8247c-.4341,1.7427-2.8652999,3.1719-4.5634947,2.7485Z" fill="#fff" fill-rule="evenodd"/>
    </mask>
    <linearGradient id="New_Gradient_401" data-name="New Gradient 401" x1="7.4588872" y1="3.2120211" x2="16.6821502" y2="22.1225125" gradientUnits="userSpaceOnUse">
      <stop offset="0" stop-color="#e5e5e5"/>
      <stop offset=".286514" stop-color="#f2f2f2"/>
      <stop offset=".646072" stop-color="#fff"/>
      <stop offset="1" stop-color="#fff"/>
    </linearGradient>
    <radialGradient id="New_Gradient_402" data-name="New Gradient 402" cx="18.696635" cy="-27.159359" fx="18.696635" fy="-27.159359" r="4.4321915" gradientTransform="translate(-11.3744 39.0635) rotate(13.9915205) skewX(-.0111829)" gradientUnits="userSpaceOnUse">
      <stop offset="0" stop-color="#e5e5e5"/>
      <stop offset=".331467" stop-color="#e5e5e5"/>
      <stop offset="1" stop-color="#999"/>
    </radialGradient>
    <linearGradient id="New_Gradient_80" data-name="New Gradient 80" x1="17.3834107" y1="25.0824627" x2="12.5730243" y2="4.2463897" gradientUnits="userSpaceOnUse">
      <stop offset="0" stop-color="#ffff87"/>
      <stop offset="1" stop-color="#ffad00"/>
    </linearGradient>
    <linearGradient id="New_Gradient_159" data-name="New Gradient 159" x1="17.3834107" y1="25.0824627" x2="12.5730243" y2="4.2463897" gradientUnits="userSpaceOnUse">
      <stop offset="0" stop-color="#ffff87"/>
      <stop offset="1" stop-color="#ffad00"/>
    </linearGradient>
    <mask id="mask-2" x="11.6014899" y="10.1126101" width="6.7873548" height="9.4205899" maskUnits="userSpaceOnUse">
      <path d="M13.8646948,12.2461c.3052-.1768.4019-.582.2154-.9053-.1875-.3232-.586-.4429-.8916-.2666-.3052.1763-.4014.5811-.2149.9048.1875.3237.586.4429.8911.2671ZM15.8544947,14.4287l2.4550999,4.2529-.0752.3213-.3208.1841-.8355-.2505.064-.269-.1856-.3218-.2431-.0732.1123-.4742-.169-.2924-.5815-.1748.0644-.2715-.1655-.2871-.397-.1192-.1787-.3091.0708-.2993-.2944-.0879-.4853-.8413-.3326.1973s-.1268948.0405-.2094-.103c-.1758-.3037.2783-.4229.1123-.709,0,0-.2559-.1958-.3994-.1133-.1426.083-1.2227.1709-1.9219-1.041-.8584-1.4854.1074-2.4302.8476-2.857.7383-.4262,2.0624999-.7939,2.9150999.6841.7002,1.2119.084,2.1026-.0591,2.1856-.1440948.082-.1020948.4023-.1020948.4023.1650948.2871.4877947-.0586.6630947.2446.0835.1431-.0532.2554-.0532.2554l-.2954.167Z" fill="#fff" fill-rule="evenodd"/>
    </mask>
    <linearGradient id="linear-gradient" x1="14.5578427" y1="15.5846241" x2="20.0205943" y2="10.4493018" gradientUnits="userSpaceOnUse">
      <stop offset="0" stop-color="#f2f2f2"/>
      <stop offset=".3596726" stop-color="#9d9d9d"/>
      <stop offset="1" stop-color="#000"/>
    </linearGradient>
    <linearGradient id="linear-gradient-2" x1="10.9434617" y1="58.1167121" x2="11.9132383" y2="59.3289808" gradientTransform="translate(-26.5497 -30.804) rotate(-30.0007278)" gradientUnits="userSpaceOnUse">
      <stop offset=".005618" stop-color="#fff"/>
      <stop offset="1" stop-color="#ccc"/>
    </linearGradient>
    <linearGradient id="New_Gradient_79" data-name="New Gradient 79" x1="13.7785643" y1="55.8298571" x2="15.6312381" y2="59.6051284" gradientTransform="translate(-26.5497 -30.804) rotate(-30.0007278)" gradientUnits="userSpaceOnUse">
      <stop offset="0" stop-color="#fff"/>
      <stop offset=".112366" stop-color="#fff"/>
      <stop offset="1" stop-color="#ccc"/>
    </linearGradient>
    <linearGradient id="New_Gradient_78" data-name="New Gradient 78" x1="12.0256306" y1="57.4454807" x2="14.2082797" y2="57.4107928" gradientTransform="translate(-26.5497 -30.804) rotate(-30.0007278)" gradientUnits="userSpaceOnUse">
      <stop offset="0" stop-color="#d9d9d9"/>
      <stop offset=".814606" stop-color="#fff"/>
      <stop offset="1" stop-color="#fff"/>
    </linearGradient>
    <mask id="mask-3" x="12.2887843" y="9.2518373" width="8.3774604" height="8.2950627" maskUnits="userSpaceOnUse">
      <path d="M14.5341948,11.4248c.2495-.249.2383-.666-.0264-.9297-.2646-.2641-.6807-.2763-.9297-.0268-.2495.2495-.2373.6655.0264.9292.2646.2641.6807.2763.9297.0273ZM17.021,13.0181l3.4726946,3.4726.0097.3296-.2617.2617-.8711-.0254-.0088-.2768-.2627-.2632-.2539-.0078-.0137-.4868-.2392-.2388-.6065-.0181-.0077947-.2797-.2353053-.2344-.4136-.0117-.2524-.2525-.0088-.3071-.3072-.0088-.6865-.687-.2705.2759s-.1123.0717-.229-.045c-.2476-.2475.1597-.4809-.0746948-.7148,0,0-.2983052-.1221-.415-.0049-.1167052.1172-1.1372052.4815-2.127-.5088-1.2119051-1.2119-.5234052-2.3755.0800948-2.9785s1.7866-1.3008,2.9931999-.0942c.9897053.9897.6254,2.0093.5073,2.1269-.1162.1167.0058.4156.0058.4156.2344.2334.4576053-.1836.7051.0639.1172.1177.0137.2603.0137.2603l-.2421947.2378Z" fill="#fff" fill-rule="evenodd"/>
    </mask>
    <linearGradient id="New_Gradient_77" data-name="New Gradient 77" x1="18.0938858" y1="21.4994339" x2="14.6172823" y2="6.4406098" gradientUnits="userSpaceOnUse">
      <stop offset="0" stop-color="#ffff87"/>
      <stop offset="1" stop-color="#ffad00"/>
    </linearGradient>
    <linearGradient id="linear-gradient-3" x1="1.7157353" y1="69.3747459" x2="7.4229598" y2="86.939777" gradientTransform="translate(-40.1618 -37.0131) rotate(-45)" gradientUnits="userSpaceOnUse">
      <stop offset="0" stop-color="#ffffb3"/>
      <stop offset=".44382" stop-color="#fcd72f"/>
      <stop offset="1" stop-color="#ffcd00"/>
    </linearGradient>
    <linearGradient id="New_Gradient_76" data-name="New Gradient 76" x1="4.6441164" y1="69.9469612" x2="6.9107051" y2="76.922804" gradientTransform="translate(-40.1618 -37.0131) rotate(-45)" gradientUnits="userSpaceOnUse">
      <stop offset="0" stop-color="#ffffb3"/>
      <stop offset=".404495" stop-color="#ffffb3"/>
      <stop offset=".938202" stop-color="#ffcd00"/>
      <stop offset="1" stop-color="#ffcd00"/>
    </linearGradient>
    <linearGradient id="New_Gradient_75" data-name="New Gradient 75" x1="4.1840538" y1="71.7563379" x2="4.6071258" y2="73.453187" gradientTransform="translate(-40.1618 -37.0131) rotate(-45)" gradientUnits="userSpaceOnUse">
      <stop offset="0" stop-color="#ffcd00"/>
      <stop offset=".578659" stop-color="#ffffb3"/>
      <stop offset="1" stop-color="#ffffb3"/>
    </linearGradient>
    <mask id="mask-4" x="8.3065949" y="8.1113" width="6.4374998" height="6.542" maskUnits="userSpaceOnUse">
      <path d="M14.3866948,10.3516v-2.2403h-5.2362999v1.399h-.8438v4.1489h1.6875v.9941h2.5776999v-.3198c-.1919-.1587-.3799-.3716-.5464-.6597-.167-.289-.2627-.5566-.3066-.8042-.1885-.5415-.1255-.998.0585-1.3716h-.5v-.6933h2.1513999c-.0088.043-.0136948.0869-.0136948.1328,0,.3672.2983948.6646.6650948.6646s.664-.2974.664-.6646c0-.2559-.1455-.4751-.3574-.5859Z" fill="#fff"/>
    </mask>
    <mask id="mask-5" x="9.0882281" y="8.3500273" width="5.1659218" height="5.1790898" maskUnits="userSpaceOnUse">
      <path d="M11.998,13.5225c-.0107052.0263-.7402051-.0313-.9238051-.0762-1.3691-.3379-2.2470999-1.7227-1.916-3.1118.3301-1.3892,1.751-2.2398,3.1112999-1.9156,1.3614.3243,2.2441999,1.7178,1.916,3.1114-.0224.0957-.0322.1469-.0468.1611-.0596.0557-.6533-.0435-.687-.168-.0103-.038.0278-.0761.0473052-.1562.1791948-.7549-.3222052-1.7686-1.4463052-2.0361-1.124-.2681-2.0277999.4111-2.2079999,1.1669-.1796949.7544.3223051,1.7686,1.4468,2.0362.1509.0361.3037.0547.3608.0561l.3457051.9322Z" fill="#fff"/>
    </mask>
    <radialGradient id="New_Gradient_72" data-name="New Gradient 72" cx="13.5304042" cy="12.8309757" fx="13.5304042" fy="12.8309757" r="4.9973918" gradientUnits="userSpaceOnUse">
      <stop offset="0" stop-color="#333"/>
      <stop offset="1" stop-color="#999"/>
    </radialGradient>
    <linearGradient id="New_Gradient_74" data-name="New Gradient 74" x1="23.7086459" y1="-19.2097324" x2="25.9195507" y2="-18.1314021" gradientTransform="translate(-12.0382 22.3646927) rotate(13.3828989) scale(.8018749)" gradientUnits="userSpaceOnUse">
      <stop offset="0" stop-color="gray"/>
      <stop offset="1" stop-color="#e5e5e5"/>
    </linearGradient>
    <linearGradient id="New_Gradient_73" data-name="New Gradient 73" x1="27.1858955" y1="-21.9041548" x2="27.8229956" y2="-21.2670547" gradientTransform="translate(-12.0382 22.3646927) rotate(13.3828989) scale(.8018749)" gradientUnits="userSpaceOnUse">
      <stop offset="0" stop-color="#737373"/>
      <stop offset="1" stop-color="#d9d9d9"/>
    </linearGradient>
    <linearGradient id="New_Gradient_71" data-name="New Gradient 71" x1="22.9075463" y1="-23.7174577" x2="26.9211196" y2="-18.9342674" gradientTransform="translate(-12.0382 22.3646927) rotate(13.3828989) scale(.8018749)" gradientUnits="userSpaceOnUse">
      <stop offset="0" stop-color="#fff"/>
      <stop offset=".146072" stop-color="#fff"/>
      <stop offset="1" stop-color="#737373"/>
    </linearGradient>
  </defs>
  <g id="Layer_4" data-name="Layer 4">
    <g>
      <g mask="url(#mask)">
        <g>
          <path d="M12.73,21.7148l-8.9468049-2.2304L7.893595,3l12.606405,3.1416-3.2065053,12.8247c-.4341,1.7427-2.8652999,3.1719-4.5634947,2.7485Z" fill="url(#New_Gradient_399)" fill-rule="evenodd"/>
          <path d="M12.1322948,21.6309s2.1093999.4404,2.6879999-1.8789c2.1523999.5366,2.6371999-1.336,2.6371999-1.336l-1.0664,4.2764-4.2587999-1.0615Z" fill="url(#New_Gradient_400)" fill-rule="evenodd"/>
          <path d="M12.73,21.7148l-8.9468049-2.2304L7.893595,3l12.606405,3.1416-3.2065053,12.8247c-.4341,1.7427-2.8652999,3.1719-4.5634947,2.7485Z" fill="none" fill-rule="evenodd" stroke="#000" stroke-linecap="round" stroke-linejoin="round" stroke-width="2"/>
        </g>
      </g>
      <g mask="url(#mask-1)">
        <g>
          <path d="M12.73,21.7148l-8.9468049-2.2304L7.893595,3l12.606405,3.1416-3.2065053,12.8247c-.4341,1.7427-2.8652999,3.1719-4.5634947,2.7485Z" fill="url(#New_Gradient_401)" fill-rule="evenodd"/>
          <path d="M12.1322948,21.6309s2.1093999.4404,2.6879999-1.8789c2.1523999.5366,2.6371999-1.336,2.6371999-1.336l-1.0664,4.2764-4.2587999-1.0615Z" fill="url(#New_Gradient_402)" fill-rule="evenodd"/>
        </g>
      </g>
    </g>
  </g>
  <g id="Layer_5" data-name="Layer 5">
    <g>
      <path d="M6.597195,14.7598c3.194805.7959,6.3890998,1.5937,9.5853998,2.3906" fill="none" stroke="#ccc" stroke-linecap="round" stroke-linejoin="round" stroke-width="1.0502"/>
      <path d="M8.6518949,6.519c3.1947999.7959,6.3891051,1.5933,9.5853998,2.3907" fill="none" stroke="#ccc" stroke-linecap="round" stroke-linejoin="round" stroke-width="1.0502"/>
      <path d="M7.830095,9.8154c3.1947999.7954,6.3890998,1.5938,9.5853998,2.3902" fill="none" stroke="#ccc" stroke-linecap="round" stroke-linejoin="round" stroke-width="1.0502"/>
      <path d="M8.2411949,8.167c3.1942999.7959,6.3886998,1.5937,9.5849998,2.3906" fill="none" stroke="#ccc" stroke-linecap="round" stroke-linejoin="round" stroke-width="1.0502"/>
      <path d="M7.007795,13.1113c3.1952999.7959,6.389205,1.5938,9.5854998,2.3907" fill="none" stroke="#ccc" stroke-linecap="round" stroke-linejoin="round" stroke-width="1.0502"/>
      <path d="M7.418895,11.4629c3.1948999.7964,6.3891998,1.5942,9.5854998,2.3911" fill="none" stroke="#ccc" stroke-linecap="round" stroke-linejoin="round" stroke-width="1.0502"/>
    </g>
  </g>
  <g id="Layer_3" data-name="Layer 3">
    <g>
      <path d="M20.4936946,16.4907l-3.2641999-3.2641.1211-.1192s.0552-.4101-.0615-.5273c-.0083-.0205-.0200947-.041-.0396-.0601-.2363-.2358-.4492.1294-.6709-.0361.0039-.0454.0186-.0864.0484053-.1162.083-.0835.2884947-.6226.0482947-1.2818-.0606-.3525-.2362947-.7641-.644-1.1723-.8179-.8174-1.6231-.7598-2.2465999-.4507-.3521-.5078-.8804-.8936-1.5152-1.044-1.3603-.3242-2.7811999.5264-3.1112999,1.9156-.3311,1.3891.5469,2.7739,1.916,3.1118.1572.0386.709.0859.875.0825.0244.0483.0479.0952.0762.145.7002,1.2119,1.7793,1.1241,1.9224,1.041.0883-.0502.2182052.003.3056.0523-.0698.1216-.1919.2309-.1283948.395-.0078052.0938.0175948.2149.1098948.375.083.1431.2094.1025.2094.1025l.333-.1967.4854.8413.1514.0879.0717.2998.1783.3086.3974.1191.0137.2315.0864.3281.583.1738.0518.0899-.083.3496.0879.3271.2422.0728.0693.1191-.0347.145.0874.3272.836.25.3193-.1841.0762053-.3213-.0874053-.3267-2.2909999-3.9692.2182-.124s.0601-.0508.0757-.127l.5361.5362.2281-.0108.0879.3272.2519.2524.4141.0117.1538.1538.0014.0332.0069.0005.0815.3272.606.0166.1592.1592.0058.2402.0889.3271.2529053.0074.1816947.1826.0019.0307.0293.0005.0576.3267.8721.0254.2607-.2617-.0966-.6568ZM12.5556948,10.6367c-.5469.3809-1.0976948,1.0303-.9112,1.9531-.0634-.0029-.2074949-.0205-.353-.0556-1.1244949-.2676-1.6264949-1.2818-1.4468-2.0362.1802-.7558,1.084-1.435,2.2079999-1.1669.4512.1069.8008.3359,1.0469.6181-.0205.02-.042.0391-.0615.0586-.1694.169-.3447.3828-.4824.6289Z" fill="url(#New_Gradient_80)" fill-rule="evenodd" stroke="#000" stroke-miterlimit="3.8637" stroke-width="2"/>
      <path d="M20.4936946,16.4907l-3.2641999-3.2641.1211-.1192s.0552-.4101-.0615-.5273c-.0083-.0205-.0200947-.041-.0396-.0601-.2363-.2358-.4492.1294-.6709-.0361.0039-.0454.0186-.0864.0484053-.1162.083-.0835.2884947-.6226.0482947-1.2818-.0606-.3525-.2362947-.7641-.644-1.1723-.8179-.8174-1.6231-.7598-2.2465999-.4507-.3521-.5078-.8804-.8936-1.5152-1.044-1.3603-.3242-2.7811999.5264-3.1112999,1.9156-.3311,1.3891.5469,2.7739,1.916,3.1118.1572.0386.709.0859.875.0825.0244.0483.0479.0952.0762.145.7002,1.2119,1.7793,1.1241,1.9224,1.041.0883-.0502.2182052.003.3056.0523-.0698.1216-.1919.2309-.1283948.395-.0078052.0938.0175948.2149.1098948.375.083.1431.2094.1025.2094.1025l.333-.1967.4854.8413.1514.0879.0717.2998.1783.3086.3974.1191.0137.2315.0864.3281.583.1738.0518.0899-.083.3496.0879.3271.2422.0728.0693.1191-.0347.145.0874.3272.836.25.3193-.1841.0762053-.3213-.0874053-.3267-2.2909999-3.9692.2182-.124s.0601-.0508.0757-.127l.5361.5362.2281-.0108.0879.3272.2519.2524.4141.0117.1538.1538.0014.0332.0069.0005.0815.3272.606.0166.1592.1592.0058.2402.0889.3271.2529053.0074.1816947.1826.0019.0307.0293.0005.0576.3267.8721.0254.2607-.2617-.0966-.6568ZM12.5556948,10.6367c-.5469.3809-1.0976948,1.0303-.9112,1.9531-.0634-.0029-.2074949-.0205-.353-.0556-1.1244949-.2676-1.6264949-1.2818-1.4468-2.0362.1802-.7558,1.084-1.435,2.2079999-1.1669.4512.1069.8008.3359,1.0469.6181-.0205.02-.042.0391-.0615.0586-.1694.169-.3447.3828-.4824.6289Z" fill="url(#New_Gradient_159)" fill-rule="evenodd"/>
      <path d="M18.3095947,18.6816l-2.2909999-3.9692.2182-.124s.1367-.1118.0547-.2549c-.0322-.0547-.0693-.0884-.1084-.1079.0342-.0444.0752-.1245.02-.2193-.1455-.2534-.3955-.0551-.5693-.1494.0127-.0708.04-.1386.0957-.1704.1255052-.0727.6138-.7656.2617-1.7519-.0449-.2344-.1328-.4893-.29-.7608-.8526-1.478-2.1767999-1.1103-2.9150999-.6841-.6562.3785-1.4892,1.168-1.0673,2.3799.0439.2476.1396.5152.3066.8042.7002,1.2119,1.7793,1.1241,1.9224,1.041.0883-.0502.2182052.003.3056.0523-.0698.1216-.1919.2309-.1283948.395-.0078052.0938.0175948.2149.1098948.375.083.1431.2094.1025.2094.1025l.333-.1967.4854.8413.1514.0879.0717.2998.1783.3086.3974.1191.0137.2315.0864.3281.583.1738.0518.0899-.083.3496.0879.3271.2422.0728.0693.1191-.0347.145.0874.3272.836.25.3193-.1841.0762053-.3213-.0874053-.3267ZM13.8646948,12.2461c-.3051.1758-.7036.0566-.8911-.2671-.0019-.0034-.0024-.0073-.0048-.0102-.0049-.2295.1035-.4493.3076-.5674.3047-.1763.7041-.0567.8906052.2661.0018948.0039.0028948.0073.0048948.0107.0049.23-.1035.4497-.3072.5679Z" fill="gray" fill-rule="evenodd"/>
      <g>
        <g mask="url(#mask-2)">
          <g>
            <path d="M13.8646948,12.2461c.3052-.1768.4019-.582.2154-.9053-.1875-.3232-.586-.4429-.8916-.2666-.3052.1763-.4014.5811-.2149.9048.1875.3237.586.4429.8911.2671ZM15.8544947,14.4287l2.4550999,4.2529-.0752.3213-.3208.1841-.8355-.2505.064-.269-.1856-.3218-.2431-.0732.1123-.4742-.169-.2924-.5815-.1748.0644-.2715-.1655-.2871-.397-.1192-.1787-.3091.0708-.2993-.2944-.0879-.4853-.8413-.3326.1973s-.1268948.0405-.2094-.103c-.1758-.3037.2783-.4229.1123-.709,0,0-.2559-.1958-.3994-.1133-.1426.083-1.2227.1709-1.9219-1.041-.8584-1.4854.1074-2.4302.8476-2.857.7383-.4262,2.0624999-.7939,2.9150999.6841.7002,1.2119.084,2.1026-.0591,2.1856-.1440948.082-.1020948.4023-.1020948.4023.1650948.2871.4877947-.0586.6630947.2446.0835.1431-.0532.2554-.0532.2554l-.2954.167Z" fill="url(#linear-gradient)" fill-rule="evenodd"/>
            <path d="M14.9813948,13.4268l3.2099999,5.5605c.082.1411-.2266.3189-.3081.1773l-3.0678999-5.314c-.081-.1416.084-.5654.166-.4238Z" fill="#666"/>
            <line x1="14.9477948" y1="13.4634" x2="18.1576947" y2="19.0234" fill="none" stroke="#fff" stroke-linecap="round" stroke-miterlimit="3.8637" stroke-width=".4623"/>
            <path d="M12.4862948,10.8867s-1.1445.9907-.3935,2.2901c.8857,1.5356,2.1327999.8496,2.1772052.9238.0434948.0752,3.1357947,5.4326,3.1357947,5.4326l.3447-.1992-3.7709999-6.5318s-1.001.4478-1.6064948-.6015c-.3891052-.6738.1132948-1.314.1132948-1.314Z" fill="url(#linear-gradient-2)" fill-rule="evenodd"/>
            <path d="M13.8646948,12.2461c.3052-.1768.4019-.582.2154-.9053-.1875-.3232-.586-.4429-.8916-.2666-.3052.1763-.4014.5811-.2149.9048.1875.3237.586.4429.8911.2671ZM15.8544947,14.4287l2.4550999,4.2529-.0752.3213-.3208.1841-.8355-.2505.064-.269-.1856-.3218-.2431-.0732.1123-.4742-.169-.2924-.5815-.1748.0644-.2715-.1655-.2871-.397-.1192-.1787-.3091.0708-.2993-.2944-.0879-.4853-.8413-.3326.1973s-.1268948.0405-.2094-.103c-.1758-.3037.2783-.4229.1123-.709,0,0-.2559-.1958-.3994-.1133-.1426.083-1.2227.1709-1.9219-1.041-.8584-1.4854.1074-2.4302.8476-2.857.7383-.4262,2.0624999-.7939,2.9150999.6841.7002,1.2119.084,2.1026-.0591,2.1856-.1440948.082-.1020948.4023-.1020948.4023.1650948.2871.4877947-.0586.6630947.2446.0835.1431-.0532.2554-.0532.2554l-.2954.167Z" fill="none" fill-rule="evenodd"/>
          </g>
        </g>
        <path d="M12.9608948,10.4873s.1128-.0625.2974-.1255c1.189-.4116,1.9702.1499,2.3769999.8535.6699,1.1592-.022,1.9839-.0562,2.023-.1475.1689-.3945.0581-.2470948-.1109l.0160948-.0219c.4253-.5782.2144-1.3052-.021-1.7119-.3437-.5977-1.0039-1.1363-2.0340948-.7803-.1367052.0478-.2198052.0923-.2198052.0923-.208.1137-.3193-.105-.1123-.2183Z" fill="url(#New_Gradient_79)"/>
        <path d="M14.2821948,11.5444s.0117.0254.0235.0679c.1113052.3984-.1806948.6582-.3926.7808-.2022.1167-.6836.2632-.958-.1109-.1006-.146-.2432-.0268-.1416.1187,0,0,.0322.0473.0952.1089.3882.3818.8345.289,1.1377.1147.2724-.1577.6836052-.6133.4067-1.1509-.0796-.1591-.25-.0879-.1709.0708Z" fill="url(#New_Gradient_78)"/>
      </g>
      <path d="M20.4936946,16.4907l-3.2641999-3.2641.1211-.1192s.0552-.4101-.0615-.5273c-.0083-.0205-.0200947-.041-.0396-.0601-.2363-.2358-.4492.1294-.6709-.0361.0039-.0454.0186-.0864.0484053-.1162.083-.0835.2884947-.6226.0482947-1.2818-.0606-.3525-.2362947-.7641-.644-1.1723-1.2066-1.2066-2.3896999-.5088-2.9931999.0942-.4629.4629-.9732,1.2559-.6387,2.147.0586052.3696.2485.7612.6465,1.1587.9893.9897,2.0097999.6255,2.1269999.5088.0898-.0909.288-.0381.373-.0098-.0278.083-.063.1665-.0508.2515-.0488.1089-.0522.2583.167.4775.1172.1172.2295.0454.2295.0454l.27-.2764.687.6871.2281-.0108.0879.3272.2519.2524.4141.0117.1538.1538h0l.0014.0332.0069.0005.0815.3272.606.0166.1592.1592.0058.2402.0889.3271.2529053.0074.1816947.1826.0019.0307.0293.0005h0l.0576.3267.8721.0254.2607-.2617-.0966-.6568ZM13.6044948,11.3975c-.0479-.0484-.085-.1026-.1167-.1602-.0005-.1621.0581-.3218.1782052-.4424.2485948-.2485.6650948-.2368.9296948.0274.0483052.0483.0859.103.1167.1601.0005.1621-.0571.3223-.1782.4424-.249.249-.6651.2368-.9297-.0273Z" fill="#d68100" fill-rule="evenodd" stroke="#000" stroke-miterlimit="3.8637"/>
      <path d="M20.4936946,16.4907l-3.2641999-3.2641.1211-.1192s.0552-.4101-.0615-.5273c-.0083-.0205-.0200947-.041-.0396-.0601-.2363-.2358-.4492.1294-.6709-.0361.0039-.0454.0186-.0864.0484053-.1162.083-.0835.2884947-.6226.0482947-1.2818-.0606-.3525-.2362947-.7641-.644-1.1723-1.2066-1.2066-2.3896999-.5088-2.9931999.0942-.4629.4629-.9732,1.2559-.6387,2.147.0586052.3696.2485.7612.6465,1.1587.9893.9897,2.0097999.6255,2.1269999.5088.0898-.0909.288-.0381.373-.0098-.0278.083-.063.1665-.0508.2515-.0488.1089-.0522.2583.167.4775.1172.1172.2295.0454.2295.0454l.27-.2764.687.6871.2281-.0108.0879.3272.2519.2524.4141.0117.1538.1538h0l.0014.0332.0069.0005.0815.3272.606.0166.1592.1592.0058.2402.0889.3271.2529053.0074.1816947.1826.0019.0307.0293.0005h0l.0576.3267.8721.0254.2607-.2617-.0966-.6568ZM13.6044948,11.3975c-.0479-.0484-.085-.1026-.1167-.1602-.0005-.1621.0581-.3218.1782052-.4424.2485948-.2485.6650948-.2368.9296948.0274.0483052.0483.0859.103.1167.1601.0005.1621-.0571.3223-.1782.4424-.249.249-.6651.2368-.9297-.0273Z" fill="#d68100" fill-rule="evenodd"/>
      <g>
        <g mask="url(#mask-3)">
          <g>
            <path d="M14.5341948,11.4248c.2495-.249.2383-.666-.0264-.9297-.2646-.2641-.6807-.2763-.9297-.0268-.2495.2495-.2373.6655.0264.9292.2646.2641.6807.2763.9297.0273ZM17.021,13.0181l3.4726946,3.4726.0097.3296-.2617.2617-.8711-.0254-.0088-.2768-.2627-.2632-.2539-.0078-.0137-.4868-.2392-.2388-.6065-.0181-.0077947-.2797-.2353053-.2344-.4136-.0117-.2524-.2525-.0088-.3071-.3072-.0088-.6865-.687-.2705.2759s-.1123.0717-.229-.045c-.2476-.2475.1597-.4809-.0746948-.7148,0,0-.2983052-.1221-.415-.0049-.1167052.1172-1.1372052.4815-2.127-.5088-1.2119051-1.2119-.5234052-2.3755.0800948-2.9785s1.7866-1.3008,2.9931999-.0942c.9897053.9897.6254,2.0093.5073,2.1269-.1162.1167.0058.4156.0058.4156.2344.2334.4576053-.1836.7051.0639.1172.1177.0137.2603.0137.2603l-.2421947.2378Z" fill="url(#New_Gradient_77)" fill-rule="evenodd"/>
            <path d="M15.9184947,12.2764l4.5399999,4.54c.1162.1152-.1357.3667-.252.252l-4.3382999-4.3399c-.1153-.1152-.0645-.5674.0503-.4521Z" fill="#d68100" fill-rule="evenodd"/>
            <line x1="15.8954947" y1="12.3203" x2="20.4350946" y2="16.8608" fill="none" stroke="#fff" stroke-linecap="round" stroke-miterlimit="3.8637" stroke-width=".4623"/>
            <path d="M12.8505948,10.4683s-.8477,1.2534.2134052,2.3149c1.2543948,1.2534,2.2811948.2676,2.3422948.3286.0605.0615,4.4339999,4.4351,4.4339999,4.4351l.2823-.2813-5.3325946-5.333s-.8515052.6919-1.708-.165c-.5503052-.5508-.2314052-1.2993-.2314052-1.2993Z" fill="url(#linear-gradient-3)"/>
            <path d="M14.5341948,11.4248c.2495-.249.2383-.666-.0264-.9297-.2646-.2641-.6807-.2763-.9297-.0268-.2495.2495-.2373.6655.0264.9292.2646.2641.6807.2763.9297.0273ZM17.021,13.0181l3.4726946,3.4726.0097.3296-.2617.2617-.8711-.0254-.0088-.2768-.2627-.2632-.2539-.0078-.0137-.4868-.2392-.2388-.6065-.0181-.0077947-.2797-.2353053-.2344-.4136-.0117-.2524-.2525-.0088-.3071-.3072-.0088-.6865-.687-.2705.2759s-.1123.0717-.229-.045c-.2476-.2475.1597-.4809-.0746948-.7148,0,0-.2983052-.1221-.415-.0049-.1167052.1172-1.1372052.4815-2.127-.5088-1.2119051-1.2119-.5234052-2.3755.0800948-2.9785s1.7866-1.3008,2.9931999-.0942c.9897053.9897.6254,2.0093.5073,2.1269-.1162.1167.0058.4156.0058.4156.2344.2334.4576053-.1836.7051.0639.1172.1177.0137.2603.0137.2603l-.2421947.2378Z" fill="none" fill-rule="evenodd"/>
          </g>
        </g>
        <path d="M13.207,9.96s.0917948-.0889.2538948-.1988c1.043-.7046,1.9424-.3652,2.5175999.21.9458.9463.4917,1.9219.4688,1.9678-.0982.2021-.3662.1591-.2681-.0425l.0107-.0254c.2608-.6685-.1303-1.3154-.4633-1.6484-.4873-.4873-1.2627-.837-2.1664999-.2266-.1197.081-.1885.1455-.1885.1455-.1719.1636-.3364-.0186-.1645948-.1816Z" fill="url(#New_Gradient_76)"/>
        <path d="M14.7567948,10.6396s.0176.021.0401.0586c.2104.357-.0048948.6827-.1787.8565-.1646.165-.5899.4316-.9527.1401-.1357-.1147-.2417.0371-.1064.1519,0,0,.043.0371.1206.081.4736.2676.8804.0635,1.1279-.1845.2222-.2222.502-.7696.0957-1.2168-.1181-.1328-.2637-.0196-.1465.1132Z" fill="url(#New_Gradient_75)"/>
      </g>
      <g mask="url(#mask-4)">
        <g>
          <g mask="url(#mask-5)">
            <g>
              <path d="M11.998,13.5225c-.0107052.0263-.7402051-.0313-.9238051-.0762-1.3691-.3379-2.2470999-1.7227-1.916-3.1118.3301-1.3892,1.751-2.2398,3.1112999-1.9156,1.3614.3243,2.2441999,1.7178,1.916,3.1114-.0224.0957-.0322.1469-.0468.1611-.0596.0557-.6533-.0435-.687-.168-.0103-.038.0278-.0761.0473052-.1562.1791948-.7549-.3222052-1.7686-1.4463052-2.0361-1.124-.2681-2.0277999.4111-2.2079999,1.1669-.1796949.7544.3223051,1.7686,1.4468,2.0362.1509.0361.3037.0547.3608.0561l.3457051.9322Z" fill="url(#New_Gradient_72)"/>
              <path d="M9.9862949,11.8101s.0205.0454.0699.1176c.395.5689,1.1733.7764,1.7568051.8272.1303948.0117.0922948.269-.0391051.2573-.5376-.0474-1.6723-.3472-1.9663-1.0581-.0585949-.1426.1196-.2866.1787-.144Z" fill="url(#New_Gradient_74)"/>
              <path d="M13.2802948,9.5879s.0576.0547.1367052.1562c.3764948.4864.5975948,1.1895.3056948,1.9527-.0616.1611-.2388.0727-.1768-.0889.2666-.6968-.0015-1.4263-.3975-1.8061-.1001-.0957.0323-.3096.1319-.2139Z" fill="url(#New_Gradient_73)"/>
            </g>
          </g>
          <path d="M9.3886949,11.8447s-.0313-.0703-.0674-.1928c-.1856-.6314-.1548-1.3833.2275-1.9913.8682051-1.3847,2.7870999-1.5024,3.9765999-.3769.0986052.0933-.0313.3091-.1299.2153-1.0937-1.0356-2.8861999-.9746-3.6952999.3028-.3467.5473-.3701,1.3545-.1338,1.896.0615.1401-.1162.288-.1777.1469Z" fill="url(#New_Gradient_71)"/>
        </g>
      </g>
    </g>
  </g>
</svg>