<?xml version="1.0" encoding="UTF-8"?>
<svg xmlns="http://www.w3.org/2000/svg" width="24" height="24" xmlns:xlink="http://www.w3.org/1999/xlink" viewBox="0 0 24 24">
  <defs>
    <mask id="mask" x="2.7831957" y="2" width="18.7168043" height="20.7898516" maskUnits="userSpaceOnUse">
      <path d="M12.73,21.7148l-8.9468043-2.2304L7.8935956,3l12.6064044,3.1416-3.207,12.8247c-.4336047,1.7427-2.8648046,3.1719-4.563,2.7485Z" fill="#fff" fill-rule="evenodd" stroke="#fff" stroke-linecap="round" stroke-linejoin="round" stroke-width="2"/>
    </mask>
    <linearGradient id="New_Gradient_399" data-name="New Gradient 399" x1="7.4588876" y1="3.2120212" x2="16.6821423" y2="22.1224958" gradientUnits="userSpaceOnUse">
      <stop offset="0" stop-color="#e5e5e5"/>
      <stop offset="1" stop-color="#fff"/>
    </linearGradient>
    <radialGradient id="New_Gradient_400" data-name="New Gradient 400" cx="19.2763005" cy="-21.3238179" fx="19.2763005" fy="-21.3238179" r="4.4324795" gradientTransform="translate(-10.5296 33.2939) rotate(13.9915205) skewX(-.0111829)" gradientUnits="userSpaceOnUse">
      <stop offset="0" stop-color="#fff"/>
      <stop offset="1" stop-color="#ccc"/>
    </radialGradient>
    <mask id="mask-1" x="3.7831957" y="3" width="16.7168043" height="19.6924" maskUnits="userSpaceOnUse">
      <path d="M12.73,21.7148l-8.9468043-2.2304L7.8935956,3l12.6064044,3.1416-3.207,12.8247c-.4336047,1.7427-2.8648046,3.1719-4.563,2.7485Z" fill="#fff" fill-rule="evenodd"/>
    </mask>
    <linearGradient id="New_Gradient_401" data-name="New Gradient 401" x1="7.4588876" y1="3.2120212" x2="16.6821423" y2="22.1224958" gradientUnits="userSpaceOnUse">
      <stop offset="0" stop-color="#e5e5e5"/>
      <stop offset=".286514" stop-color="#f2f2f2"/>
      <stop offset=".646072" stop-color="#fff"/>
      <stop offset="1" stop-color="#fff"/>
    </linearGradient>
    <radialGradient id="New_Gradient_402" data-name="New Gradient 402" cx="19.2763005" cy="-21.3238179" fx="19.2763005" fy="-21.3238179" r="4.4324795" gradientTransform="translate(-10.5296 33.2939) rotate(13.9915205) skewX(-.0111829)" gradientUnits="userSpaceOnUse">
      <stop offset="0" stop-color="#e5e5e5"/>
      <stop offset=".331467" stop-color="#e5e5e5"/>
      <stop offset="1" stop-color="#999"/>
    </radialGradient>
    <linearGradient id="New_Gradient_1" data-name="New Gradient 1" x1="-71.5105976" y1="-963.8331757" x2="-62.8960345" y2="-963.8331757" gradientTransform="translate(734.9883 259.6428) rotate(94.3536493) scale(1.0143269 -.7675146) skewX(7.3263493)" gradientUnits="userSpaceOnUse">
      <stop offset="0" stop-color="#ccc"/>
      <stop offset=".337082" stop-color="#999"/>
      <stop offset=".629211" stop-color="#b2b2b2"/>
      <stop offset="1" stop-color="#d9d9d9"/>
    </linearGradient>
    <linearGradient id="linear-gradient" x1="-71.5105976" y1="-963.8331757" x2="-62.8960345" y2="-963.8331757" gradientTransform="translate(734.9883 259.6428) rotate(94.3536493) scale(1.0143269 -.7675146) skewX(7.3263493)" gradientUnits="userSpaceOnUse">
      <stop offset="0" stop-color="#ccc"/>
      <stop offset=".337082" stop-color="#999"/>
      <stop offset=".629211" stop-color="#b2b2b2"/>
      <stop offset="1" stop-color="#d9d9d9"/>
    </linearGradient>
    <radialGradient id="radial-gradient" cx="5.0338598" cy="-129.3665953" fx="5.0338598" fy="-129.3665953" r="11.0562098" gradientTransform="translate(6.4019 96.5256) scale(.6768)" gradientUnits="userSpaceOnUse">
      <stop offset=".140449" stop-color="#ffe900"/>
      <stop offset=".1588104" stop-color="#ffe204"/>
      <stop offset=".2913167" stop-color="#ffb420"/>
      <stop offset=".4092463" stop-color="#ff9334"/>
      <stop offset=".5071755" stop-color="#ff7f40"/>
      <stop offset=".573034" stop-color="#ff7845"/>
    </radialGradient>
    <radialGradient id="radial-gradient-2" cx="12.9035556" cy="3.8706611" fx="12.9035556" fy="3.8706611" r="16.2555982" gradientTransform="translate(1.7318912 14.6270909) scale(.9573)" gradientUnits="userSpaceOnUse">
      <stop offset="0" stop-color="#fff"/>
      <stop offset=".0148633" stop-color="#f1f7fe"/>
      <stop offset=".0801777" stop-color="#badafb"/>
      <stop offset=".1438424" stop-color="#8dc2f9"/>
      <stop offset=".2044479" stop-color="#69aff8"/>
      <stop offset=".2612008" stop-color="#50a2f6"/>
      <stop offset=".312615" stop-color="#4199f6"/>
      <stop offset=".353932" stop-color="#3c97f6"/>
      <stop offset=".5755021" stop-color="#3b94f1"/>
      <stop offset=".8388609" stop-color="#3a8de2"/>
      <stop offset="1" stop-color="#3a88d6"/>
    </radialGradient>
  </defs>
  <g id="Layer_4" data-name="Layer 4">
    <g>
      <g mask="url(#mask)">
        <g>
          <path d="M12.73,21.7148l-8.9468043-2.2304L7.8935956,3l12.6064044,3.1416-3.207,12.8247c-.4336047,1.7427-2.8648046,3.1719-4.563,2.7485Z" fill="url(#New_Gradient_399)" fill-rule="evenodd"/>
          <path d="M12.1322954,21.6309s2.1093999.4404,2.6879999-1.8789c2.1523999.5366,2.6377046-1.336,2.6377046-1.336l-1.0669047,4.2764-4.2587999-1.0615Z" fill="url(#New_Gradient_400)" fill-rule="evenodd"/>
          <path d="M12.73,21.7148l-8.9468043-2.2304L7.8935956,3l12.6064044,3.1416-3.207,12.8247c-.4336047,1.7427-2.8648046,3.1719-4.563,2.7485Z" fill="none" fill-rule="evenodd" stroke="#000" stroke-linecap="round" stroke-linejoin="round" stroke-width="2"/>
        </g>
      </g>
      <g mask="url(#mask-1)">
        <g>
          <path d="M12.73,21.7148l-8.9468043-2.2304L7.8935956,3l12.6064044,3.1416-3.207,12.8247c-.4336047,1.7427-2.8648046,3.1719-4.563,2.7485Z" fill="url(#New_Gradient_401)" fill-rule="evenodd"/>
          <path d="M12.1322954,21.6309s2.1093999.4404,2.6879999-1.8789c2.1523999.5366,2.6377046-1.336,2.6377046-1.336l-1.0669047,4.2764-4.2587999-1.0615Z" fill="url(#New_Gradient_402)" fill-rule="evenodd"/>
        </g>
      </g>
    </g>
  </g>
  <g id="Layer_5" data-name="Layer 5">
    <g>
      <path d="M6.5971956,14.7598c3.1948044.7959,6.3890998,1.5937,9.5853998,2.3906" fill="none" stroke="#ccc" stroke-linecap="round" stroke-linejoin="round" stroke-width="1.0502"/>
      <path d="M8.6518955,6.519c3.1947999.7959,6.3891045,1.5933,9.5853998,2.3907" fill="none" stroke="#ccc" stroke-linecap="round" stroke-linejoin="round" stroke-width="1.0502"/>
      <path d="M7.8300956,9.8154c3.1947999.7954,6.3890998,1.5938,9.5849044,2.3902" fill="none" stroke="#ccc" stroke-linecap="round" stroke-linejoin="round" stroke-width="1.0502"/>
      <path d="M8.2411955,8.167c3.1942999.7959,6.3886998,1.5937,9.5849998,2.3906" fill="none" stroke="#ccc" stroke-linecap="round" stroke-linejoin="round" stroke-width="1.0502"/>
      <path d="M7.0077956,13.1113c3.1952999.7959,6.3892044,1.5938,9.5859998,2.3907" fill="none" stroke="#ccc" stroke-linecap="round" stroke-linejoin="round" stroke-width="1.0502"/>
      <path d="M7.4188956,11.4629c3.1948999.7964,6.3891998,1.5942,9.5849998,2.3911" fill="none" stroke="#ccc" stroke-linecap="round" stroke-linejoin="round" stroke-width="1.0502"/>
    </g>
  </g>
  <g id="Layer_3" data-name="Layer 3">
    <g>
      <path d="M8.9862955,10.6841c.0977045-.2276.2007045-.4434.3008-.6719l-.0029.0464.646.1553c-.0948.2133-.1895.4155-.2813.6299l-.6626-.1597ZM9.5585955,9.3379c.0586-.1636.1157-.3452.1709-.544l.0459-.1665.6611.1602-.0449.167c-.0547.1977-.1123.3784-.1719.543l-.6611-.1597ZM9.9481955,7.8833c.0635-.3105.1123-.5986.1485-.8628l.6611.1602c-.0366.2627-.084.5537-.147.8618l-.6626-.1592ZM13.5048954,13.2788c.0552-.2495.1157-.4692.1802-.6709l.6606.1607c-.0635.2006-.123.4213-.1786954.6723l-.6621046-.1621ZM13.9560954,11.8872c.0981-.228.1992-.4434.3007-.6699l-.0039.0449.6475.1567c-.0967.212-.1903954.4151-.2822.627l-.6621-.1587ZM14.5277954,10.5415c.0581-.1641.1158-.3447.1714-.5425l.0449-.1675.6617.1592-.0454.168c-.0547.1982-.1123954.3794-.1709.5439l-.6617-.1611ZM14.918,9.0869c.0638954-.3096.1102954-.5991.1473954-.8628l.6631.1602c-.0371.2641-.0849.5532-.1484.8633l-.6620954-.1607ZM8.5360955,12.0757c.0547-.2495.1153-.4697.1787-.6699l.6617.1596c-.0634955.2002-.1236.4209-.1783.6714l-.6621-.1611ZM15.1728954,6.521c.0048.1108.0112.4272-.0235.8911l.6616046.1607c.0336954-.4654.0283954-.7789.024-.8912l.3016953.0733s.0772,1.457-.4819,3.4736c-.4917,1.7798-1.1821,2.0254-1.4199,4.8862l-.3086-.0742c.0249-.2861.0551-.5468.0874-.7837l-.6612-.1596c-.0337.2368-.0629.4966-.0879.7827l-.2314-.0562-1.3999-.3379-2.6762955-.6499c.0248955-.2851.0541955-.5449.0878955-.7827l-.6611-.1611c-.0342.2388-.064.4975-.0889.7842l-.3076-.0747c.2383-2.8609.9287044-3.107,1.4199-4.8853.5591-2.0185.4698045-3.478.4698045-3.478l.3270955.0781c.0044.1123.0107.4263-.0234.8931l.6621.1601c.0332045-.4663.0263-.7798.0224-.8911l2.6572999.6421,1.4135046.3433.2368954.0571Z" fill="url(#New_Gradient_1)" fill-rule="evenodd" stroke="#000" stroke-linecap="round" stroke-linejoin="round" stroke-width="1.75"/>
      <path d="M8.9862955,10.6841c.0977045-.2276.2007045-.4434.3008-.6719l-.0029.0464.646.1553c-.0948.2133-.1895.4155-.2813.6299l-.6626-.1597ZM9.5585955,9.3379c.0586-.1636.1157-.3452.1709-.544l.0459-.1665.6611.1602-.0449.167c-.0547.1977-.1123.3784-.1719.543l-.6611-.1597ZM9.9481955,7.8833c.0635-.3105.1123-.5986.1485-.8628l.6611.1602c-.0366.2627-.084.5537-.147.8618l-.6626-.1592ZM13.5048954,13.2788c.0552-.2495.1157-.4692.1802-.6709l.6606.1607c-.0635.2006-.123.4213-.1786954.6723l-.6621046-.1621ZM13.9560954,11.8872c.0981-.228.1992-.4434.3007-.6699l-.0039.0449.6475.1567c-.0967.212-.1903954.4151-.2822.627l-.6621-.1587ZM14.5277954,10.5415c.0581-.1641.1158-.3447.1714-.5425l.0449-.1675.6617.1592-.0454.168c-.0547.1982-.1123954.3794-.1709.5439l-.6617-.1611ZM14.918,9.0869c.0638954-.3096.1102954-.5991.1473954-.8628l.6631.1602c-.0371.2641-.0849.5532-.1484.8633l-.6620954-.1607ZM8.5360955,12.0757c.0547-.2495.1153-.4697.1787-.6699l.6617.1596c-.0634955.2002-.1236.4209-.1783.6714l-.6621-.1611ZM15.1728954,6.521c.0048.1108.0112.4272-.0235.8911l.6616046.1607c.0336954-.4654.0283954-.7789.024-.8912l.3016953.0733s.0772,1.457-.4819,3.4736c-.4917,1.7798-1.1821,2.0254-1.4199,4.8862l-.3086-.0742c.0249-.2861.0551-.5468.0874-.7837l-.6612-.1596c-.0337.2368-.0629.4966-.0879.7827l-.2314-.0562-1.3999-.3379-2.6762955-.6499c.0248955-.2851.0541955-.5449.0878955-.7827l-.6611-.1611c-.0342.2388-.064.4975-.0889.7842l-.3076-.0747c.2383-2.8609.9287044-3.107,1.4199-4.8853.5591-2.0185.4698045-3.478.4698045-3.478l.3270955.0781c.0044.1123.0107.4263-.0234.8931l.6621.1601c.0332045-.4663.0263-.7798.0224-.8911l2.6572999.6421,1.4135046.3433.2368954.0571Z" fill="url(#linear-gradient)" fill-rule="evenodd"/>
      <path d="M10.8998955,8.1353c.3189-1.545.2554-2.5879.2554-2.5879l3.7518999.9101s.0635,1.0425-.2539,2.5874l-3.7533999-.9096ZM9.4882955,12.3237c.3164-1.4633.8159-1.9194,1.1963-3.2973.02-.0718.0385-.1402.0571-.209l3.7523999.9092c-.0175.0688-.0360954.1377-.0556.2094-.3789,1.3702-.8677,1.8457-1.1817,3.3023l-3.7684999-.9146ZM9.2655955,13.9116c.0254045-.3139.0572-.5971.0938-.8535l3.7689999.9141c-.0371.2602-.0688.5522-.0967.874l-3.7660999-.9346Z" fill="url(#radial-gradient)" fill-rule="evenodd" stroke="#d68100" stroke-width=".5"/>
    </g>
    <g>
      <path d="M20.2958952,12.939c.0464-.1475-.0303-.2764-.1602-.2798-.0526952-.0347-.1396-.0606-.2734-.0796l-1.9429-.2666-.4091-.0581-1.9424-.2652c-.1353-.0195-.2325-.017-.3023.001-.1201-.0366-.2734.0635-.3193.2129l-1.5918,5.041c-.4287-.5166-1.2539-.6528-1.9668-.3891-.5483.2021-1.0801.7524-.9004,1.354.1914.644.9258.8857,1.5493.8525.5498-.0268,1.4302-.3545,1.5313-1.1142.019-.0269.0337-.0572.0444-.0904l1.0523-3.3354c.0302.0063.0629.0122.0981.0166l1.9414.2666.4102.0561,1.9414.2666c.0341.0054.0654.0088.0927.0113l-.8763953,2.7812c-.4282047-.5171-1.2539047-.6528-1.9673047-.3896-.5479.2026-1.0791.7529-.8994,1.3545.1904.643.9258.8847,1.5488.853.5508-.0274,1.4297-.356,1.5303-1.1153.0195-.0268.0342-.0571.0459-.0903l1.7656-5.5937M19.3573953,14.1777l-1.9423953-.2671-.4111047-.0566-1.9404-.2661c-.0366-.0044-.0689-.0093-.1001-.0103l.2065-.6543c.0288.0059.0615.0118.0977.0171l1.9414046.2661.4105953.0567,1.9414047.2676c.0331953.0039.064.0078.0932953.0097l-.207.6519c-.0274-.0059-.0572-.0108-.0899-.0147" fill="#d68100" fill-rule="evenodd" stroke="#000" stroke-width="1.5"/>
      <path d="M20.2958952,12.939c.0464-.1475-.0303-.2764-.1602-.2798-.0526952-.0347-.1396-.0606-.2734-.0796l-1.9429-.2666-.4091-.0581-1.9424-.2652c-.1353-.0195-.2325-.017-.3023.001-.1201-.0366-.2734.0635-.3193.2129l-1.5918,5.041c-.4287-.5166-1.2539-.6528-1.9668-.3891-.5483.2021-1.0801.7524-.9004,1.354.1914.644.9258.8857,1.5493.8525.5498-.0268,1.4302-.3545,1.5313-1.1142.019-.0269.0337-.0572.0444-.0904l1.0523-3.3354c.0302.0063.0629.0122.0981.0166l1.9414.2666.4102.0561,1.9414.2666c.0341.0054.0654.0088.0927.0113l-.8763953,2.7812c-.4282047-.5171-1.2539047-.6528-1.9673047-.3896-.5479.2026-1.0791.7529-.8994,1.3545.1904.643.9258.8847,1.5488.853.5508-.0274,1.4297-.356,1.5303-1.1153.0195-.0268.0342-.0571.0459-.0903l1.7656-5.5937M19.3573953,14.1777l-1.9423953-.2671-.4111047-.0566-1.9404-.2661c-.0366-.0044-.0689-.0093-.1001-.0103l.2065-.6543c.0288.0059.0615.0118.0977.0171l1.9414046.2661.4105953.0567,1.9414047.2676c.0331953.0039.064.0078.0932953.0097l-.207.6519c-.0274-.0059-.0572-.0108-.0899-.0147" fill="url(#radial-gradient-2)" fill-rule="evenodd"/>
    </g>
  </g>
</svg>