<?xml version="1.0" encoding="UTF-8"?>
<svg id="Layer_3" data-name="Layer 3" xmlns="http://www.w3.org/2000/svg" width="24" height="24" xmlns:xlink="http://www.w3.org/1999/xlink" viewBox="0 0 24 24">
  <defs>
    <mask id="mask" x="2.7832" y="2" width="18.7168" height="20.7898516" maskUnits="userSpaceOnUse">
      <path d="M12.73,21.7148l-8.9468-2.2304L7.8935974,3l12.6064026,3.1416-3.2065029,12.8247c-.4341,1.7427-2.8652999,3.1719-4.5634971,2.7485Z" fill="#fff" fill-rule="evenodd" stroke="#fff" stroke-linecap="round" stroke-linejoin="round" stroke-width="2"/>
    </mask>
    <linearGradient id="New_Gradient_201" data-name="New Gradient 201" x1="7.4588897" y1="3.2120211" x2="16.6821525" y2="22.1225123" gradientUnits="userSpaceOnUse">
      <stop offset="0" stop-color="#e5e5e5"/>
      <stop offset="1" stop-color="#fff"/>
    </linearGradient>
    <radialGradient id="New_Gradient_202" data-name="New Gradient 202" cx="44.3773727" cy="-6.1353637" fx="44.3773727" fy="-6.1353637" r="4.4321915" gradientTransform="translate(-31.0928 12.6059) rotate(13.9915205) skewX(-.0111829)" gradientUnits="userSpaceOnUse">
      <stop offset="0" stop-color="#fff"/>
      <stop offset="1" stop-color="#ccc"/>
    </radialGradient>
    <mask id="mask-1" x="3.7832" y="3" width="16.7168" height="19.6924" maskUnits="userSpaceOnUse">
      <path d="M12.73,21.7148l-8.9468-2.2304L7.8935974,3l12.6064026,3.1416-3.2065029,12.8247c-.4341,1.7427-2.8652999,3.1719-4.5634971,2.7485Z" fill="#fff" fill-rule="evenodd"/>
    </mask>
    <linearGradient id="New_Gradient_198" data-name="New Gradient 198" x1="7.4588897" y1="3.2120211" x2="16.6821525" y2="22.1225123" gradientUnits="userSpaceOnUse">
      <stop offset="0" stop-color="#e5e5e5"/>
      <stop offset=".286514" stop-color="#f2f2f2"/>
      <stop offset=".646072" stop-color="#fff"/>
      <stop offset="1" stop-color="#fff"/>
    </linearGradient>
    <radialGradient id="New_Gradient_200" data-name="New Gradient 200" cx="44.3773727" cy="-6.1353637" fx="44.3773727" fy="-6.1353637" r="4.4321915" gradientTransform="translate(-31.0928 12.6059) rotate(13.9915205) skewX(-.0111829)" gradientUnits="userSpaceOnUse">
      <stop offset="0" stop-color="#e5e5e5"/>
      <stop offset=".331467" stop-color="#e5e5e5"/>
      <stop offset="1" stop-color="#999"/>
    </radialGradient>
    <mask id="mask-2" x="8.751" y="13.9668" width="11.5907971" height="5.1846" maskUnits="userSpaceOnUse">
      <polygon points="20.3417971 15.1187 20.0497971 16.6616 12.2138973 18.6826 9.1400973 15.6084 9.1400973 14.5762 20.3417971 15.1187" fill="#fff" fill-rule="evenodd"/>
    </mask>
    <linearGradient id="New_Gradient_197" data-name="New Gradient 197" x1="8.3534032" y1="18.7164441" x2="12.6313725" y2="14.4384748" gradientUnits="userSpaceOnUse">
      <stop offset="0" stop-color="#999"/>
      <stop offset=".382019" stop-color="#999"/>
      <stop offset=".786514" stop-color="#666"/>
      <stop offset="1" stop-color="#666"/>
    </linearGradient>
    <mask id="mask-3" x="8.751" y="9.7061" width="12.210897" height="8.7148" maskUnits="userSpaceOnUse">
      <path d="M9.0087973,12.5234v2.1729l3.1063999,3.1055,8.6972998-2.1675v-1.2476c-1.2183-2.687-3.3495999-4.0073-3.3495999-4.0073l-8.4540998,2.144Z" fill="#fff" fill-rule="evenodd"/>
    </mask>
    <radialGradient id="New_Gradient_196" data-name="New Gradient 196" cx="11.844046" cy="11.662733" fx="11.844046" fy="11.662733" r="8.9677331" gradientUnits="userSpaceOnUse">
      <stop offset="0" stop-color="#f2f2f2"/>
      <stop offset="1" stop-color="#b2b2b2"/>
    </radialGradient>
    <mask id="mask-4" x="9.7599" y="8.4324845" width="6.9114972" height="5.2721155" maskUnits="userSpaceOnUse">
      <polygon points="16.6713972 11.9126 12.4350973 13.7046 10.687 12.6714 10.2343973 10.3945 16.1078972 8.877 16.6713972 11.9126" fill="#fff" fill-rule="evenodd"/>
    </mask>
    <linearGradient id="New_Gradient_195" data-name="New Gradient 195" x1="12.4436372" y1="8.5271611" x2="14.7399829" y2="13.9370126" gradientUnits="userSpaceOnUse">
      <stop offset="0" stop-color="#999"/>
      <stop offset="1" stop-color="#4c4c4c"/>
    </linearGradient>
    <linearGradient id="New_Gradient_194" data-name="New Gradient 194" x1="12.7441372" y1="7.6348454" x2="14.3910491" y2="13.7812043" gradientUnits="userSpaceOnUse">
      <stop offset="0" stop-color="#fff"/>
      <stop offset=".662918" stop-color="#e5e5e5"/>
      <stop offset="1" stop-color="#737373"/>
    </linearGradient>
    <radialGradient id="New_Gradient_193" data-name="New Gradient 193" cx="-104.4527116" cy="-66.5621573" fx="-104.4527116" fy="-66.5621573" r="12.0468454" gradientTransform="translate(78.6445 57.7997) scale(.6533)" gradientUnits="userSpaceOnUse">
      <stop offset="0" stop-color="#3c97f6"/>
      <stop offset=".235962" stop-color="#3c97f6"/>
      <stop offset="1" stop-color="#0342d3"/>
    </radialGradient>
    <linearGradient id="New_Gradient_192" data-name="New Gradient 192" x1="9.6869486" y1="12.44158" x2="20.1621062" y2="15.24839" gradientUnits="userSpaceOnUse">
      <stop offset="0" stop-color="#fff"/>
      <stop offset="1" stop-color="#999"/>
    </linearGradient>
    <radialGradient id="New_Gradient_191" data-name="New Gradient 191" cx="-101.4593257" cy="-65.2538169" fx="-101.4593257" fy="-65.2538169" r=".9297739" gradientTransform="translate(78.6445 57.7997) scale(.6533)" gradientUnits="userSpaceOnUse">
      <stop offset="0" stop-color="#23a11f"/>
      <stop offset="1" stop-color="#005e00"/>
    </radialGradient>
    <radialGradient id="New_Gradient_190" data-name="New Gradient 190" cx="-100.1192063" cy="-65.5771441" fx="-100.1192063" fy="-65.5771441" r=".9291598" gradientTransform="translate(78.6445 57.7997) scale(.6533)" gradientUnits="userSpaceOnUse">
      <stop offset="0" stop-color="red"/>
      <stop offset="1" stop-color="#a70000"/>
    </radialGradient>
    <linearGradient id="New_Gradient_189" data-name="New Gradient 189" x1="10.8221987" y1="12.2695194" x2="18.8736084" y2="16.9180031" gradientUnits="userSpaceOnUse">
      <stop offset="0" stop-color="#fff"/>
      <stop offset=".449432" stop-color="#fff"/>
      <stop offset="1" stop-color="#d9d9d9"/>
    </linearGradient>
    <linearGradient id="New_Gradient_188" data-name="New Gradient 188" x1="16.7105773" y1="13.1803187" x2="18.0081148" y2="10.8394991" gradientUnits="userSpaceOnUse">
      <stop offset="0" stop-color="#3c97f6"/>
      <stop offset="1" stop-color="#0342d3"/>
    </linearGradient>
    <radialGradient id="New_Gradient_187" data-name="New Gradient 187" cx="-101.5805973" cy="-69.6447268" fx="-101.5805973" fy="-69.6447268" r="8.6419137" gradientTransform="translate(78.6445 57.7997) scale(.6533)" gradientUnits="userSpaceOnUse">
      <stop offset="0" stop-color="#b7e9ff"/>
      <stop offset=".69101" stop-color="#3c97f6"/>
      <stop offset="1" stop-color="#0342d3"/>
    </radialGradient>
  </defs>
  <g>
    <g mask="url(#mask)">
      <g>
        <path d="M12.73,21.7148l-8.9468-2.2304L7.8935974,3l12.6064026,3.1416-3.2065029,12.8247c-.4341,1.7427-2.8652999,3.1719-4.5634971,2.7485Z" fill="url(#New_Gradient_201)" fill-rule="evenodd"/>
        <path d="M12.1322973,21.6309s2.1093999.4404,2.6879999-1.8789c2.1523999.5366,2.6371999-1.336,2.6371999-1.336l-1.0664,4.2764-4.2587999-1.0615Z" fill="url(#New_Gradient_202)" fill-rule="evenodd"/>
        <path d="M12.73,21.7148l-8.9468-2.2304L7.8935974,3l12.6064026,3.1416-3.2065029,12.8247c-.4341,1.7427-2.8652999,3.1719-4.5634971,2.7485Z" fill="none" fill-rule="evenodd" stroke="#000" stroke-linecap="round" stroke-linejoin="round" stroke-width="2"/>
      </g>
    </g>
    <g mask="url(#mask-1)">
      <g>
        <path d="M12.73,21.7148l-8.9468-2.2304L7.8935974,3l12.6064026,3.1416-3.2065029,12.8247c-.4341,1.7427-2.8652999,3.1719-4.5634971,2.7485Z" fill="url(#New_Gradient_198)" fill-rule="evenodd"/>
        <path d="M12.1322973,21.6309s2.1093999.4404,2.6879999-1.8789c2.1523999.5366,2.6371999-1.336,2.6371999-1.336l-1.0664,4.2764-4.2587999-1.0615Z" fill="url(#New_Gradient_200)" fill-rule="evenodd"/>
      </g>
    </g>
  </g>
  <g>
    <path d="M6.5971974,14.7598c3.1948026.7959,6.3890998,1.5937,9.5853998,2.3906" fill="none" stroke="#ccc" stroke-linecap="round" stroke-linejoin="round" stroke-width="1.0502"/>
    <path d="M8.6518974,6.519c3.1947999.7959,6.3891026,1.5933,9.5853998,2.3907" fill="none" stroke="#ccc" stroke-linecap="round" stroke-linejoin="round" stroke-width="1.0502"/>
    <path d="M7.8300974,9.8154c3.1947999.7954,6.3890998,1.5938,9.5853998,2.3902" fill="none" stroke="#ccc" stroke-linecap="round" stroke-linejoin="round" stroke-width="1.0502"/>
    <path d="M8.2411974,8.167c3.1942999.7959,6.3886998,1.5937,9.5849998,2.3906" fill="none" stroke="#ccc" stroke-linecap="round" stroke-linejoin="round" stroke-width="1.0502"/>
    <path d="M7.0077974,13.1113c3.1952999.7959,6.3892026,1.5938,9.5854998,2.3907" fill="none" stroke="#ccc" stroke-linecap="round" stroke-linejoin="round" stroke-width="1.0502"/>
    <path d="M7.4188974,11.4629c3.1948999.7964,6.3891998,1.5942,9.5854998,2.3911" fill="none" stroke="#ccc" stroke-linecap="round" stroke-linejoin="round" stroke-width="1.0502"/>
  </g>
  <g>
    <path d="M11.6786973,10.1006c1.2334-.3272,2.4663027-.6563,3.7011999-.9834" fill="none" stroke="#ccc" stroke-linecap="round" stroke-linejoin="round" stroke-width="1.0502"/>
    <path d="M12.2851973,12.5352c1.2338027-.3291,2.4671999-.6568,3.7025999-.9839" fill="none" stroke="#ccc" stroke-linecap="round" stroke-linejoin="round" stroke-width="1.0502"/>
    <path d="M12.0834973,11.7241c1.2334-.3291,2.4667999-.6567,3.7011999-.9853" fill="none" stroke="#ccc" stroke-linecap="round" stroke-linejoin="round" stroke-width="1.0502"/>
    <path d="M11.8812973,10.9121c1.2325-.3281,2.4667999-.6567,3.7007027-.9844" fill="none" stroke="#ccc" stroke-linecap="round" stroke-linejoin="round" stroke-width="1.0502"/>
  </g>
  <g>
    <path d="M20.812497,14.3867c-.0952-.2109-.1982-.4106-.3032-.6035-.0425-.0796-.0912971-.167-.1446-.2568-.0273-.0469-.0546-.0943-.082-.1416-.0605-.1001-.1279-.2051-.1976971-.312-.0205029-.0318-.0406029-.0621-.0601029-.0918-.3374-.5039-.7748971-1.0699-1.2891-1.5743-.0073-.0034.0015.0137.0166.0396-.7187-.7114-1.2895-1.0669-1.2895-1.0669l-.6191.1562-.3477-.8295-.2202.0722-.1275-.688.2163-.1518-.2338.0591-.023-.1206-.2568.0654-.2178-1.1328-4.9799999,1.3261.1963,1.0992-.6152.1596.3432,1.7305-.1342.0337c-.021-.0103-.0342-.0161-.0342-.0161l-.5069.1455c.0044.0029.0064.0044.0098.0058l-.0308.0074c0-.0034-.0014-.0088-.0019-.0132l-.8608.2207s.0043.0034.0117.0088l-.0215.0058v2.1729l.1313.1313v.7808l3.0737999,3.0742,7.8358998-2.021.1665-.8789.5962-.1484v-1.2476Z" stroke="#000" stroke-linecap="round" stroke-linejoin="round" stroke-width="2"/>
    <g>
      <g mask="url(#mask-2)">
        <g>
          <polygon points="20.3417971 15.1187 20.0497971 16.6616 12.2138973 18.6826 9.1400973 15.6084 9.1400973 14.5762 20.3417971 15.1187" fill="gray" fill-rule="evenodd"/>
          <polygon points="12.1972973 19.1514 12.1972973 17.2427 8.8241974 13.9668 8.751 15.6084 12.1972973 19.1514" fill="url(#New_Gradient_197)" fill-rule="evenodd"/>
        </g>
      </g>
      <g mask="url(#mask-3)">
        <g>
          <path d="M9.0087973,12.5234v2.1729l3.1063999,3.1055,8.6972998-2.1675v-1.2476c-1.2183-2.687-3.3495999-4.0073-3.3495999-4.0073l-8.4540998,2.144Z" fill="url(#New_Gradient_196)" fill-rule="evenodd"/>
          <path d="M8.7753974,12.314s1.9521,1.603,3.7304999,4.3877v1.7192l-3.7548973-3.9058.0243974-2.2011Z" fill="#e5e5e5" fill-rule="evenodd"/>
          <polygon points="12.1278973 18.312 12.1278973 16.2559 20.889197 14.1299 20.961897 16.0146 12.1278973 18.312" fill="#b2b2b2" fill-rule="evenodd"/>
          <polygon points="16.4960972 9.7061 17.4950971 12.0879 16.4960972 12.5498 16.0492972 9.8521 16.4960972 9.7061" fill="#4c4c4c" fill-rule="evenodd"/>
        </g>
      </g>
      <g mask="url(#mask-4)">
        <g>
          <polygon points="16.6713972 11.9126 12.4350973 13.7046 10.687 12.6714 10.2343973 10.3945 16.1078972 8.877 16.6713972 11.9126" fill="url(#New_Gradient_195)" fill-rule="evenodd"/>
          <polyline points="10.8417973 12.7935 10.3690973 10.4355 16.3646972 8.9385" fill="none" stroke="#ccc" stroke-miterlimit="3.8637" stroke-width="1.0431"/>
        </g>
      </g>
      <polygon points="16.6483972 13.0918 12.5194973 13.562 11.3461973 13.0254 10.6532973 9.1357 15.6332972 7.8096 16.6483972 13.0918" fill="url(#New_Gradient_194)" fill-rule="evenodd"/>
      <path d="M16.4828972,10.6382c.5317.8428.5176,1.5552.5176,1.5552,0,0-1.4331-.1739-4.4062999,1.0293-1.1543-.5625-2.1849999-1.0801-2.1849999-1.0801l-.5069.1455c2.4721999,1.3784,3.9853999,2.2402,3.9853999,2.2402,0,0,.7529.1201,2.3895999-.2739,1.4629-.3516,1.9965999-.7163,1.9965999-.7163,0,0,.065-.4229-.5693-1.69-.5181-1.0322-.8384-1.311-.8384-1.311l-.3833.1011Z" fill="url(#New_Gradient_193)" fill-rule="evenodd"/>
      <path d="M9.8793973,12.2881c.0161.4204.5542,1.2778,1.1797,2.0747.772.9868,1.2436,1.2656,1.5849027,1.2427l7.0473971-1.7676c.5176029-.3755-1.043-2.4785-.9556-2.4312,1.3013,1.2779,2.1264999,2.9561,2.0152029,3.0044l-8.6074027,2.1485s-.4732-.9942-1.3925973-2.2198c-.9097027-1.2138-1.7324027-1.831-1.7324027-1.831l.8608-.2207Z" fill="url(#New_Gradient_192)"/>
      <path d="M12.2548973,15.2944c0-.1469.1592-.27.3559-.2719.1983-.003.3575.1152.3575.2631,0,.1475-.1592.2691-.3575.2725-.1967.002-.3559-.1157-.3559-.2637Z" fill="url(#New_Gradient_191)" fill-rule="evenodd"/>
      <path d="M13.1303972,15.0835c0-.148.1582-.27.3564-.272.1978-.0024.357.1143.357.2617,0,.1485-.1592.271-.357.273-.1982.0024-.3564-.1148-.3564-.2627Z" fill="url(#New_Gradient_190)" fill-rule="evenodd"/>
      <path d="M9.2016973,12.5547s.4589.396,1.0688,1.0869c.5967.6738,1.3379,1.6304,1.939,2.7739l8.4145027-2.0683c.1371971-.0332.188.1718.0507971.205l-8.4960998,2.0889c-.0376.0093-.1006-.019-.1186-.0532-.6792-1.3174-1.857-2.8872-2.9970973-3.8726-.1065027-.0932.0316973-.2529.1386973-.1606Z" fill="url(#New_Gradient_189)"/>
      <line x1="12.1293973" y1="16.5879" x2="12.1293973" y2="17.6187" fill="none" stroke="#fff" stroke-linecap="round" stroke-miterlimit="3.8637" stroke-width=".75"/>
      <path d="M16.5116972,12.3638s.4307-.0244.7373028-.0122c0,0-.1836029-.9453-.5156028-1.5479l.1475-.0356s.7734,1.1416,1.1411029,2.3818c0,0-.3301029-.3311-.6138029-.4912-.2817-.1602-.8965-.2949-.8965-.2949Z" fill="url(#New_Gradient_188)" fill-rule="evenodd"/>
      <path d="M12.7675973,13.4258c.1294027-.0562.747-.3242,1.5083-.541,0,0,.5718-.1656,1.5498.3559.7998.4278,2.1019999.1953,2.1019999.1953,0,0-1.8042.7461-3.5326971.8413l-.4438028.0347c-1.6856-.9267-3.6508999-1.958-3.6508999-1.958l.1909-.0532s1.0659.5097,2.2763999,1.125Z" fill="url(#New_Gradient_187)"/>
    </g>
  </g>
</svg>