<?xml version="1.0" encoding="UTF-8"?>
<svg xmlns="http://www.w3.org/2000/svg" width="24" height="24" xmlns:xlink="http://www.w3.org/1999/xlink" viewBox="0 0 24 24">
  <defs>
    <mask id="mask" x="2.2832" y="1.5" width="18.7168" height="20.7899922" maskUnits="userSpaceOnUse">
      <path d="M12.23,21.2148l-8.9468-2.2304L7.3936,2.5l12.6064,3.1416-3.207,12.8252c-.4336,1.7422-2.8648,3.1719-4.563,2.748Z" fill="#fff" fill-rule="evenodd" stroke="#fff" stroke-linecap="round" stroke-linejoin="round" stroke-width="2"/>
    </mask>
    <linearGradient id="New_Gradient_399" data-name="New Gradient 399" x1="6.9588902" y1="2.7120221" x2="16.1822499" y2="21.6227118" gradientUnits="userSpaceOnUse">
      <stop offset="0" stop-color="#e5e5e5"/>
      <stop offset="1" stop-color="#fff"/>
    </linearGradient>
    <radialGradient id="New_Gradient_400" data-name="New Gradient 400" cx="56.0284769" cy="-1.8254992" fx="56.0284769" fy="-1.8254992" r="4.4324768" gradientTransform="translate(-41.7968 5.1467) rotate(13.9915205) skewX(-.0111829)" gradientUnits="userSpaceOnUse">
      <stop offset="0" stop-color="#fff"/>
      <stop offset="1" stop-color="#ccc"/>
    </radialGradient>
    <mask id="mask-1" x="3.2832" y="2.5" width="16.7168" height="19.6924" maskUnits="userSpaceOnUse">
      <path d="M12.23,21.2148l-8.9468-2.2304L7.3936,2.5l12.6064,3.1416-3.207,12.8252c-.4336,1.7422-2.8648,3.1719-4.563,2.748Z" fill="#fff" fill-rule="evenodd"/>
    </mask>
    <linearGradient id="New_Gradient_401" data-name="New Gradient 401" x1="6.9588902" y1="2.7120221" x2="16.1822499" y2="21.6227118" gradientUnits="userSpaceOnUse">
      <stop offset="0" stop-color="#e5e5e5"/>
      <stop offset=".286514" stop-color="#f2f2f2"/>
      <stop offset=".646072" stop-color="#fff"/>
      <stop offset="1" stop-color="#fff"/>
    </linearGradient>
    <radialGradient id="New_Gradient_402" data-name="New Gradient 402" cx="56.0284769" cy="-1.8254992" fx="56.0284769" fy="-1.8254992" r="4.4324768" gradientTransform="translate(-41.7968 5.1467) rotate(13.9915205) skewX(-.0111829)" gradientUnits="userSpaceOnUse">
      <stop offset="0" stop-color="#e5e5e5"/>
      <stop offset=".331467" stop-color="#e5e5e5"/>
      <stop offset="1" stop-color="#999"/>
    </radialGradient>
    <linearGradient id="New_Gradient_1" data-name="New Gradient 1" x1="189.8158689" y1="-1212.5011439" x2="198.8001659" y2="-1212.5011439" gradientTransform="translate(947.1579 45.6636) rotate(94.3536493) scale(1.0143269 -.7675146) skewX(7.3263493)" gradientUnits="userSpaceOnUse">
      <stop offset="0" stop-color="#ccc"/>
      <stop offset=".337082" stop-color="#999"/>
      <stop offset=".629211" stop-color="#b2b2b2"/>
      <stop offset="1" stop-color="#d9d9d9"/>
    </linearGradient>
    <linearGradient id="linear-gradient" x1="189.8158689" y1="-1212.5011439" x2="198.8001659" y2="-1212.5011439" gradientTransform="translate(947.1579 45.6636) rotate(94.3536493) scale(1.0143269 -.7675146) skewX(7.3263493)" gradientUnits="userSpaceOnUse">
      <stop offset="0" stop-color="#ccc"/>
      <stop offset=".337082" stop-color="#999"/>
      <stop offset=".629211" stop-color="#b2b2b2"/>
      <stop offset="1" stop-color="#d9d9d9"/>
    </linearGradient>
    <radialGradient id="radial-gradient" cx="-34.7636887" cy="-55.2271805" fx="-34.7636887" fy="-55.2271805" r="11.5310074" gradientTransform="translate(37.4291 49.9848) scale(.6768)" gradientUnits="userSpaceOnUse">
      <stop offset=".140449" stop-color="#ffe900"/>
      <stop offset=".1588104" stop-color="#ffe204"/>
      <stop offset=".2913167" stop-color="#ffb420"/>
      <stop offset=".4092463" stop-color="#ff9334"/>
      <stop offset=".5071755" stop-color="#ff7f40"/>
      <stop offset=".573034" stop-color="#ff7845"/>
    </radialGradient>
  </defs>
  <g id="Layer_4" data-name="Layer 4">
    <g>
      <g mask="url(#mask)">
        <g>
          <path d="M12.23,21.2148l-8.9468-2.2304L7.3936,2.5l12.6064,3.1416-3.207,12.8252c-.4336,1.7422-2.8648,3.1719-4.563,2.748Z" fill="url(#New_Gradient_399)" fill-rule="evenodd"/>
          <path d="M11.6323,21.1309s2.1094.4404,2.688-1.8789c2.1524.5371,2.6377-1.336,2.6377-1.336l-1.0669,4.2764-4.2588-1.0615Z" fill="url(#New_Gradient_400)" fill-rule="evenodd"/>
          <path d="M12.23,21.2148l-8.9468-2.2304L7.3936,2.5l12.6064,3.1416-3.207,12.8252c-.4336,1.7422-2.8648,3.1719-4.563,2.748Z" fill="none" fill-rule="evenodd" stroke="#000" stroke-linecap="round" stroke-linejoin="round" stroke-width="2"/>
        </g>
      </g>
      <g mask="url(#mask-1)">
        <g>
          <path d="M12.23,21.2148l-8.9468-2.2304L7.3936,2.5l12.6064,3.1416-3.207,12.8252c-.4336,1.7422-2.8648,3.1719-4.563,2.748Z" fill="url(#New_Gradient_401)" fill-rule="evenodd"/>
          <path d="M11.6323,21.1309s2.1094.4404,2.688-1.8789c2.1524.5371,2.6377-1.336,2.6377-1.336l-1.0669,4.2764-4.2588-1.0615Z" fill="url(#New_Gradient_402)" fill-rule="evenodd"/>
        </g>
      </g>
    </g>
  </g>
  <g id="Layer_5" data-name="Layer 5">
    <g>
      <path d="M6.0972,14.2598c3.1948.7959,6.3891,1.5937,9.5854,2.3906" fill="none" stroke="#ccc" stroke-linecap="round" stroke-linejoin="round" stroke-width="1.0502"/>
      <path d="M8.1519,6.0195c3.1948.795,6.3891,1.5928,9.5854,2.3907" fill="none" stroke="#ccc" stroke-linecap="round" stroke-linejoin="round" stroke-width="1.0502"/>
      <path d="M7.3301,9.3154c3.1948.7959,6.3891,1.5938,9.5849,2.3897" fill="none" stroke="#ccc" stroke-linecap="round" stroke-linejoin="round" stroke-width="1.0502"/>
      <path d="M7.7412,7.667c3.1943.7959,6.3887,1.5937,9.585,2.3906" fill="none" stroke="#ccc" stroke-linecap="round" stroke-linejoin="round" stroke-width="1.0502"/>
      <path d="M6.5078,12.6113c3.1953.7959,6.3892,1.5938,9.586,2.3907" fill="none" stroke="#ccc" stroke-linecap="round" stroke-linejoin="round" stroke-width="1.0502"/>
      <path d="M6.9189,10.9629c3.1949.7969,6.3892,1.5937,9.585,2.3906" fill="none" stroke="#ccc" stroke-linecap="round" stroke-linejoin="round" stroke-width="1.0502"/>
    </g>
  </g>
  <g id="Layer_3" data-name="Layer 3">
    <g>
      <path d="M13.043,14.3945c.1025-.2382.2094-.4629.3139-.7011l-.0034.0488.6738.1621c-.0986.2227-.1972.4336-.2929.6572l-.6914-.167ZM13.6396,12.9902c.0611-.1699.1211-.3593.1788-.5673l.0478-.1739.6895.167-.0469.1748c-.0567.2061-.1172.3946-.1787.5664l-.6905-.167ZM14.0464,11.4736c.0664-.3232.1167-.624.1548-.8994l.6899.166c-.0386.2744-.0879.5782-.1538.8994l-.6909-.166ZM17.7559,17.1006c.0571-.2608.1201-.4893.1875-.7002l.6889.168c-.0659.2089-.1284.4394-.186.7011l-.6904-.1689ZM18.2266,15.6484c.1015-.2373.2075-.4619.313-.6972l-.004.0468.6753.1622c-.1005.2216-.1992.4336-.2949.6552l-.6894-.167ZM18.8223,14.2461c.061-.1719.1211-.3594.1787-.5664l.0469-.1738.6899.166-.0474.1738c-.0566.207-.1172.3965-.1777.5684l-.6904-.168ZM19.229,12.7285c.0669-.3222.1157-.625.1538-.8994l.6914.167c-.0381.2754-.0888.5762-.1543.9004l-.6909-.168ZM12.5732,15.8457c.0577-.2598.1202-.4902.1866-.6982l.6904.166c-.0664.209-.1289.4385-.1856.7002l-.6914-.168ZM19.4951,10.0527c.0049.1162.0117.4453-.0239.9297l.6899.168c.0342-.4863.0293-.8125.0244-.9297l.3145.0762s.0806,1.5195-.5024,3.622c-.5127,1.8565-1.233,2.1124-1.481,5.0967l-.3218-.0781c.0259-.2988.0576-.5703.0913-.8174l-.6894-.166c-.0352.2471-.0659.5176-.0918.8164l-.2412-.0586-1.46-.3525-2.791-.6778c.0259-.2978.0566-.5683.0913-.8164l-.6894-.1679c-.0352.248-.0669.5195-.0923.8183l-.3213-.0781c.249-2.9844.9687-3.2402,1.4814-5.0957.583-2.1045.4893-3.627.4893-3.627l.3418.0811c.0039.1182.0107.4453-.0249.9326l.6909.166c.0342-.4863.0273-.8125.0234-.9287l2.7715.669,1.4736.3584.2471.0595Z" fill="url(#New_Gradient_1)" fill-rule="evenodd" stroke="#000" stroke-linecap="round" stroke-linejoin="round" stroke-width="1.75"/>
      <path d="M13.043,14.3945c.1025-.2382.2094-.4629.3139-.7011l-.0034.0488.6738.1621c-.0986.2227-.1972.4336-.2929.6572l-.6914-.167ZM13.6396,12.9902c.0611-.1699.1211-.3593.1788-.5673l.0478-.1739.6895.167-.0469.1748c-.0567.2061-.1172.3946-.1787.5664l-.6905-.167ZM14.0464,11.4736c.0664-.3232.1167-.624.1548-.8994l.6899.166c-.0386.2744-.0879.5782-.1538.8994l-.6909-.166ZM17.7559,17.1006c.0571-.2608.1201-.4893.1875-.7002l.6889.168c-.0659.2089-.1284.4394-.186.7011l-.6904-.1689ZM18.2266,15.6484c.1015-.2373.2075-.4619.313-.6972l-.004.0468.6753.1622c-.1005.2216-.1992.4336-.2949.6552l-.6894-.167ZM18.8223,14.2461c.061-.1719.1211-.3594.1787-.5664l.0469-.1738.6899.166-.0474.1738c-.0566.207-.1172.3965-.1777.5684l-.6904-.168ZM19.229,12.7285c.0669-.3222.1157-.625.1538-.8994l.6914.167c-.0381.2754-.0888.5762-.1543.9004l-.6909-.168ZM12.5732,15.8457c.0577-.2598.1202-.4902.1866-.6982l.6904.166c-.0664.209-.1289.4385-.1856.7002l-.6914-.168ZM19.4951,10.0527c.0049.1162.0117.4453-.0239.9297l.6899.168c.0342-.4863.0293-.8125.0244-.9297l.3145.0762s.0806,1.5195-.5024,3.622c-.5127,1.8565-1.233,2.1124-1.481,5.0967l-.3218-.0781c.0259-.2988.0576-.5703.0913-.8174l-.6894-.166c-.0352.2471-.0659.5176-.0918.8164l-.2412-.0586-1.46-.3525-2.791-.6778c.0259-.2978.0566-.5683.0913-.8164l-.6894-.1679c-.0352.248-.0669.5195-.0923.8183l-.3213-.0781c.249-2.9844.9687-3.2402,1.4814-5.0957.583-2.1045.4893-3.627.4893-3.627l.3418.0811c.0039.1182.0107.4453-.0249.9326l.6909.166c.0342-.4863.0273-.8125.0234-.9287l2.7715.669,1.4736.3584.2471.0595Z" fill="url(#linear-gradient)" fill-rule="evenodd"/>
      <path d="M15.0386,11.7363c.333-1.6113.2666-2.6992.2666-2.6992l3.9131.9492s.0659,1.0879-.2652,2.6992l-3.9145-.9492ZM13.5674,16.1055c.3291-1.5274.8506-2.002,1.2471-3.4395.0205-.0752.04-.1465.0595-.2187l3.9141.9492c-.0186.0703-.0381.1426-.0591.2187-.395,1.4278-.9048,1.9239-1.2319,3.4424l-3.9297-.9521ZM13.3345,17.7598c.0263-.3262.0591-.6231.0971-.8897l3.9312.9541c-.0386.2715-.0718.5752-.1011.9112l-3.9272-.9756Z" fill="url(#radial-gradient)" fill-rule="evenodd" stroke="#d68100" stroke-width=".5"/>
    </g>
  </g>
</svg>