<?xml version='1.0' encoding='UTF-8'?>
<svg xmlns="http://www.w3.org/2000/svg" xmlns:xlink="http://www.w3.org/1999/xlink" width="24" height="24" viewBox="0 0 24 24">
  <defs>
    <mask id="mask" x="2.7831957" y="2" width="18.7168043" height="20.7898516" maskUnits="userSpaceOnUse">
      <path d="M12.73,21.7148l-8.9468043-2.2304L7.8935956,3l12.6064044,3.1416-3.2065047,12.8247c-.4341,1.7427-2.8652999,3.1719-4.5634953,2.7485Z" fill="#fff" fill-rule="evenodd" stroke="#fff" stroke-linecap="round" stroke-linejoin="round" stroke-width="2"/>
    </mask>
    <linearGradient id="New_Gradient_399" data-name="New Gradient 399" x1="7.4588876" y1="3.2120212" x2="16.6821505" y2="22.1225126" gradientUnits="userSpaceOnUse">
      <stop offset="0" stop-color="#e5e5e5"/>
      <stop offset="1" stop-color="#fff"/>
    </linearGradient>
    <radialGradient id="New_Gradient_400" data-name="New Gradient 400" cx="25.1168194" cy="-21.9033602" fx="25.1168194" fy="-21.9033602" r="4.4321915" gradientTransform="translate(-16.304 32.4491) rotate(13.9915205) skewX(-.0111829)" gradientUnits="userSpaceOnUse">
      <stop offset="0" stop-color="#fff"/>
      <stop offset="1" stop-color="#ccc"/>
    </radialGradient>
    <mask id="mask-1" x="3.7831957" y="3" width="16.7168043" height="19.6924" maskUnits="userSpaceOnUse">
      <path d="M12.73,21.7148l-8.9468043-2.2304L7.8935956,3l12.6064044,3.1416-3.2065047,12.8247c-.4341,1.7427-2.8652999,3.1719-4.5634953,2.7485Z" fill="#fff" fill-rule="evenodd"/>
    </mask>
    <linearGradient id="New_Gradient_401" data-name="New Gradient 401" x1="7.4588876" y1="3.2120212" x2="16.6821505" y2="22.1225126" gradientUnits="userSpaceOnUse">
      <stop offset="0" stop-color="#e5e5e5"/>
      <stop offset=".286514" stop-color="#f2f2f2"/>
      <stop offset=".646072" stop-color="#fff"/>
      <stop offset="1" stop-color="#fff"/>
    </linearGradient>
    <radialGradient id="New_Gradient_402" data-name="New Gradient 402" cx="25.1168194" cy="-21.9033602" fx="25.1168194" fy="-21.9033602" r="4.4321915" gradientTransform="translate(-16.304 32.4491) rotate(13.9915205) skewX(-.0111829)" gradientUnits="userSpaceOnUse">
      <stop offset="0" stop-color="#e5e5e5"/>
      <stop offset=".331467" stop-color="#e5e5e5"/>
      <stop offset="1" stop-color="#999"/>
    </radialGradient>
    <mask id="mask-2" x="16.1464953" y="13.9644" width="4.3690999" height="4.6377" maskUnits="userSpaceOnUse">
      <polygon points="19.1986953 13.9644 19.1693953 15.4614 20.3866952 16.3345 18.9540953 16.7705 18.5004953 18.1973 17.6435953 16.9692 16.1464953 16.978 17.0497953 15.7842 16.5775953 14.3628 17.9926953 14.8525 19.1986953 13.9644" fill="#fff"/>
    </mask>
    <linearGradient id="linear-gradient" x1="32.2247368" y1="-1.9902388" x2="36.3865177" y2="-1.9902388" gradientTransform="translate(-15.499 9.9639) rotate(13.3678138)" gradientUnits="userSpaceOnUse">
      <stop offset="0" stop-color="#0342d3"/>
      <stop offset="1" stop-color="#b7e9ff"/>
    </linearGradient>
    <radialGradient id="radial-gradient" cx="48.0181556" cy="-26.2420094" fx="48.0181556" fy="-26.2420094" r="2.0927698" gradientTransform="translate(-36.3185 17.413) rotate(27.3670731)" gradientUnits="userSpaceOnUse">
      <stop offset=".410112" stop-color="#b7e9ff"/>
      <stop offset="1" stop-color="#4c8bca"/>
    </radialGradient>
    <mask id="mask-3" x="9.2411955" y="12.4624" width="4.6000999" height="4.4375" maskUnits="userSpaceOnUse">
      <polygon points="11.2807955 12.4624 12.0287955 13.7598 13.521 13.8789 12.519 14.9912 12.8676954 16.4473 11.4994955 15.8384 10.2221955 16.6191 10.3783955 15.1299 9.2411955 14.1558 10.7060955 13.8452 11.2807955 12.4624" fill="#fff"/>
    </mask>
    <linearGradient id="linear-gradient-2" x1="-18.0519509" y1="34.0981011" x2="-13.8904858" y2="34.0981011" gradientTransform="translate(16.4169 -22.7235) rotate(-17.7047249)" gradientUnits="userSpaceOnUse"><stop offset="0" stop-color="#0342d3"/><stop offset="1" stop-color="#b7e9ff"/></linearGradient>
    <radialGradient id="radial-gradient-2" cx="7.4464748" cy="21.6884068" fx="7.4464748" fy="21.6884068" r="2.0930107" gradientTransform="translate(2.8982 -6.3826) rotate(-3.7096458)" gradientUnits="userSpaceOnUse"><stop offset=".410112" stop-color="#b7e9ff"/><stop offset="1" stop-color="#4c8bca"/></radialGradient>
    <mask id="mask-4" x="14.1737954" y="7.9688" width="4.3803999" height="4.6435" maskUnits="userSpaceOnUse">
      <polygon points="16.6312953 7.9688 16.9496953 9.4316 18.335 10 17.042 10.7544 16.9306953 12.2476 15.8124954 11.251 14.3583954 11.606 14.9608954 10.2354 14.1737954 8.9619 15.6635954 9.1113 16.6312953 7.9688" fill="#fff"/>
    </mask>
    <linearGradient id="linear-gradient-3" x1="14.1737954" y1="10.1082" x2="18.335" y2="10.1082" gradientTransform="matrix(1,0,0,1,0,0)" gradientUnits="userSpaceOnUse"><stop offset="0" stop-color="#0342d3"/><stop offset="1" stop-color="#b7e9ff"/></linearGradient>
    <radialGradient id="radial-gradient-3" cx="33.7072511" cy="-9.7541039" fx="33.7072511" fy="-9.7541039" r="2.0928863" gradientTransform="translate(-18.7087 11.6229) rotate(13.9987235)" gradientUnits="userSpaceOnUse"><stop offset=".410112" stop-color="#b7e9ff"/><stop offset="1" stop-color="#4c8bca"/></radialGradient>
  </defs>
  <g id="Layer_4" data-name="Layer 4">
    <g>
      <g mask="url(#mask)">
        <g>
          <path d="M12.73,21.7148l-8.9468043-2.2304L7.8935956,3l12.6064044,3.1416-3.2065047,12.8247c-.4341,1.7427-2.8652999,3.1719-4.5634953,2.7485Z" fill="url(#New_Gradient_399)" fill-rule="evenodd"/>
          <path d="M12.1322954,21.6309s2.1093999.4404,2.6879999-1.8789c2.1523999.5366,2.6371999-1.336,2.6371999-1.336l-1.0664,4.2764-4.2587999-1.0615Z" fill="url(#New_Gradient_400)" fill-rule="evenodd"/>
          <path d="M12.73,21.7148l-8.9468043-2.2304L7.8935956,3l12.6064044,3.1416-3.2065047,12.8247c-.4341,1.7427-2.8652999,3.1719-4.5634953,2.7485Z" fill="none" fill-rule="evenodd" stroke="#000" stroke-linecap="round" stroke-linejoin="round" stroke-width="2"/>
        </g>
      </g>
      <g mask="url(#mask-1)">
        <g>
          <path d="M12.73,21.7148l-8.9468043-2.2304L7.8935956,3l12.6064044,3.1416-3.2065047,12.8247c-.4341,1.7427-2.8652999,3.1719-4.5634953,2.7485Z" fill="url(#New_Gradient_401)" fill-rule="evenodd"/>
          <path d="M12.1322954,21.6309s2.1093999.4404,2.6879999-1.8789c2.1523999.5366,2.6371999-1.336,2.6371999-1.336l-1.0664,4.2764-4.2587999-1.0615Z" fill="url(#New_Gradient_402)" fill-rule="evenodd"/>
        </g>
      </g>
    </g>
  </g>
  <g id="Layer_5" data-name="Layer 5">
    <g>
      <path d="M6.5971956,14.7598c3.1948044.7959,6.3890998,1.5937,9.5853998,2.3906" fill="none" stroke="#ccc" stroke-linecap="round" stroke-linejoin="round" stroke-width="1.0502"/>
      <path d="M8.6518955,6.519c3.1947999.7959,6.3891045,1.5933,9.5853998,2.3907" fill="none" stroke="#ccc" stroke-linecap="round" stroke-linejoin="round" stroke-width="1.0502"/>
      <path d="M7.8300956,9.8154c3.1947999.7954,6.3890998,1.5938,9.5853998,2.3902" fill="none" stroke="#ccc" stroke-linecap="round" stroke-linejoin="round" stroke-width="1.0502"/>
      <path d="M8.2411955,8.167c3.1942999.7959,6.3886998,1.5937,9.5849998,2.3906" fill="none" stroke="#ccc" stroke-linecap="round" stroke-linejoin="round" stroke-width="1.0502"/>
      <path d="M7.0077956,13.1113c3.1952999.7959,6.3892044,1.5938,9.5854998,2.3907" fill="none" stroke="#ccc" stroke-linecap="round" stroke-linejoin="round" stroke-width="1.0502"/>
      <path d="M7.4188956,11.4629c3.1948999.7964,6.3891998,1.5942,9.5854998,2.3911" fill="none" stroke="#ccc" stroke-linecap="round" stroke-linejoin="round" stroke-width="1.0502"/>
    </g>
    <g>
      <g>
        <polygon points="19.1986953 13.9644 19.1693953 15.4614 20.3866952 16.3345 18.9540953 16.7705 18.5004953 18.1973 17.6435953 16.9692 16.1464953 16.978 17.0497953 15.7842 16.5775953 14.3628 17.9926953 14.8525 19.1986953 13.9644" fill="#ffe900" stroke="#000" stroke-width="2"/>
        <g mask="url(#mask-2)">
          <g>
            <polygon points="19.1986953 13.9644 19.1693953 15.4614 20.3866952 16.3345 18.9540953 16.7705 18.5004953 18.1973 17.6435953 16.9692 16.1464953 16.978 17.0497953 15.7842 16.5775953 14.3628 17.9926953 14.8525 19.1986953 13.9644" fill="url(#linear-gradient)"/>
            <polygon points="19.3280953 14.3701 19.2982953 15.8682 20.5155952 16.7397 19.083 17.1748 18.6288953 18.6021 17.7724953 17.374 16.2743953 17.3833 17.1781953 16.189 16.707 14.7676 18.1210953 15.2578 19.3280953 14.3701" fill="url(#radial-gradient)"/>
          </g>
        </g>
      </g>
      <g>
        <polygon points="11.2807955 12.4624 12.0287955 13.7598 13.521 13.8789 12.519 14.9912 12.8676954 16.4473 11.4994955 15.8384 10.2221955 16.6191 10.3783955 15.1299 9.2411955 14.1558 10.7060955 13.8452 11.2807955 12.4624" fill="#ffe900" stroke="#000" stroke-width="2"/>
        <g mask="url(#mask-3)">
          <g>
            <polygon points="11.2807955 12.4624 12.0287955 13.7598 13.521 13.8789 12.519 14.9912 12.8676954 16.4473 11.4994955 15.8384 10.2221955 16.6191 10.3783955 15.1299 9.2411955 14.1558 10.7060955 13.8452 11.2807955 12.4624" fill="url(#linear-gradient-2)"/>
            <polygon points="11.6000955 12.7427 12.3485954 14.0405 13.8412954 14.1597 12.8388954 15.2715 13.187 16.7285 11.8192955 16.1187 10.5404955 16.8999 10.6981955 15.4102 9.561 14.437 11.0253955 14.126 11.6000955 12.7427" fill="url(#radial-gradient-2)"/>
          </g>
        </g>
      </g>
      <g>
        <polygon points="16.6312953 7.9688 16.9496953 9.4316 18.335 10 17.042 10.7544 16.9306953 12.2476 15.8124954 11.251 14.3583954 11.606 14.9608954 10.2354 14.1737954 8.9619 15.6635954 9.1113 16.6312953 7.9688" fill="#ffe900" stroke="#000" stroke-width="2"/>
        <g mask="url(#mask-4)">
          <g>
            <polygon points="16.6312953 7.9688 16.9496953 9.4316 18.335 10 17.042 10.7544 16.9306953 12.2476 15.8124954 11.251 14.3583954 11.606 14.9608954 10.2354 14.1737954 8.9619 15.6635954 9.1113 16.6312953 7.9688" fill="url(#linear-gradient-3)"/>
            <polygon points="16.8510953 8.333 17.1688953 9.7969 18.5541953 10.3638 17.2606953 11.1182 17.1493953 12.6123 16.0321954 11.6157 14.5770954 11.9707 15.1801954 10.5996 14.3925954 9.3267 15.8817954 9.4761 16.8510953 8.333" fill="url(#radial-gradient-3)"/>
          </g>
        </g>
      </g>
    </g>
  </g>
</svg>