<?xml version="1.0" encoding="UTF-8"?>
<svg id="Icons_-_24x24" data-name="Icons - 24x24" xmlns="http://www.w3.org/2000/svg" width="32" height="32" xmlns:xlink="http://www.w3.org/1999/xlink" viewBox="0 0 32 32">
  <defs>
    <linearGradient id="New_Gradient_51" data-name="New Gradient 51" x1="8.0842878" y1="-3.0986334" x2="18.7500456" y2="39.6793844" gradientUnits="userSpaceOnUse">
      <stop offset="0" stop-color="#666"/>
      <stop offset=".876404" stop-color="#d9d9d9"/>
      <stop offset="1" stop-color="#b2b2b2"/>
    </linearGradient>
    <linearGradient id="linear-gradient" x1="-10.9752454" y1="-92.0672949" x2="7.2501547" y2="-107.3602214" gradientTransform="translate(14.7918 114.0991) rotate(13.2092189) scale(1.0586085 .9446279) skewX(11.82935)" gradientUnits="userSpaceOnUse">
      <stop offset="0" stop-color="#6b3200"/>
      <stop offset=".0731411" stop-color="#844400"/>
      <stop offset=".1947417" stop-color="#a75e00"/>
      <stop offset=".3091029" stop-color="#c17100"/>
      <stop offset=".4122566" stop-color="#d07d00"/>
      <stop offset=".494385" stop-color="#d68100"/>
      <stop offset=".6225836" stop-color="#d17d00"/>
      <stop offset=".7553839" stop-color="#c57400"/>
      <stop offset=".889808" stop-color="#b06500"/>
      <stop offset="1" stop-color="#9a5500"/>
    </linearGradient>
    <linearGradient id="linear-gradient-2" x1="-9.4119091" y1="-109.2182567" x2="8.019356" y2="-87.692437" gradientTransform="translate(14.7918 114.0991) rotate(13.2092189) scale(1.0586085 .9446279) skewX(11.82935)" gradientUnits="userSpaceOnUse">
      <stop offset="0" stop-color="#6b3200"/>
      <stop offset=".0901757" stop-color="#783a00"/>
      <stop offset=".414098" stop-color="#a35400"/>
      <stop offset=".6664352" stop-color="#be6400"/>
      <stop offset=".814607" stop-color="#c96b00"/>
      <stop offset=".853932" stop-color="#c4680a"/>
    </linearGradient>
    <linearGradient id="New_Gradient_48" data-name="New Gradient 48" x1="-4.9010708" y1="-114.5445455" x2="-2.3045618" y2="-104.1305168" gradientTransform="translate(14.7918 114.0991) rotate(13.2092189) scale(1.0586085 .9446279) skewX(11.82935)" gradientUnits="userSpaceOnUse">
      <stop offset="0" stop-color="#666"/>
      <stop offset=".876404" stop-color="#d9d9d9"/>
      <stop offset="1" stop-color="#b2b2b2"/>
    </linearGradient>
    <linearGradient id="New_Gradient_47" data-name="New Gradient 47" x1="-970.4330963" y1="126.1667775" x2="-967.8365872" y2="136.5808068" gradientTransform="translate(-982.9217 114.0991) rotate(166.7907811) scale(1.0586085 -.9446279) skewX(11.82935)" gradientUnits="userSpaceOnUse">
      <stop offset="0" stop-color="#666"/>
      <stop offset=".876404" stop-color="#d9d9d9"/>
      <stop offset="1" stop-color="#b2b2b2"/>
    </linearGradient>
    <linearGradient id="linear-gradient-3" x1="-6.8837394" y1="-109.7092765" x2=".752191" y2="-106.9300252" gradientTransform="translate(14.7918 114.0991) rotate(13.2092189) scale(1.0586085 .9446279) skewX(11.82935)" gradientUnits="userSpaceOnUse">
      <stop offset="0" stop-color="#fff"/>
      <stop offset=".1293922" stop-color="#fbfbfb"/>
      <stop offset=".2464236" stop-color="#f0f0f0"/>
      <stop offset=".3583322" stop-color="#dedede"/>
      <stop offset=".438202" stop-color="#ccc"/>
      <stop offset="1" stop-color="gray"/>
    </linearGradient>
    <linearGradient id="linear-gradient-4" x1="-972.4299594" y1="131.0206131" x2="-964.8265117" y2="133.7880417" gradientTransform="translate(-982.7879 114.0991) rotate(166.7907811) scale(1.0586085 -.9446279) skewX(11.82935)" gradientUnits="userSpaceOnUse">
      <stop offset="0" stop-color="#4c4c4c"/>
      <stop offset=".640449" stop-color="gray"/>
      <stop offset="1" stop-color="#ccc"/>
    </linearGradient>
    <linearGradient id="New_Gradient_46" data-name="New Gradient 46" x1="-2.6899029" y1="-113.3175595" x2="-3.6109952" y2="-108.0937855" gradientTransform="translate(14.7918 114.0991) rotate(13.2092189) scale(1.0586085 .9446279) skewX(11.82935)" gradientUnits="userSpaceOnUse">
      <stop offset="0" stop-color="#e5e5e5"/>
      <stop offset="1" stop-color="#b2b2b2"/>
    </linearGradient>
    <mask id="mask" x="9.501" y="11.0762" width="19.3036936" height="20.4458" maskUnits="userSpaceOnUse">
      <path d="M22.6532938,30.5176l-12.1503997.0044-.0018941-18.4453,17.3036936-.0005-.0068,14.1675c0,2.0361-2.7509999,4.2739-5.1445999,4.2739Z" fill="#fff" fill-rule="evenodd" stroke="#fff" stroke-linecap="round" stroke-linejoin="round" stroke-width="2"/>
    </mask>
    <linearGradient id="New_Gradient_399" data-name="New Gradient 399" x1="13.8573177" y1="10.4397145" x2="24.3501004" y2="31.9531072" gradientUnits="userSpaceOnUse">
      <stop offset="0" stop-color="#e5e5e5"/>
      <stop offset="1" stop-color="#fff"/>
    </linearGradient>
    <radialGradient id="New_Gradient_400" data-name="New Gradient 400" cx="-13.3373831" cy="43.2209312" fx="-13.3373831" fy="43.2209312" r="5.809576" gradientTransform="translate(35.6652 -11.5857) scale(1.0371 .8602)" gradientUnits="userSpaceOnUse">
      <stop offset="0" stop-color="#fff"/>
      <stop offset="1" stop-color="#ccc"/>
    </radialGradient>
    <mask id="mask-1" x="10.501" y="12.0762" width="17.334" height="18.5141" maskUnits="userSpaceOnUse">
      <path d="M22.6532938,30.5176l-12.1503997.0044-.0018941-18.4453,17.3036936-.0005-.0068,14.1675c0,2.0361-2.7509999,4.2739-5.1445999,4.2739Z" fill="#fff" fill-rule="evenodd"/>
    </mask>
    <linearGradient id="New_Gradient_401" data-name="New Gradient 401" x1="13.8573177" y1="10.4397145" x2="24.3501004" y2="31.9531072" gradientUnits="userSpaceOnUse">
      <stop offset="0" stop-color="#e5e5e5"/>
      <stop offset=".286514" stop-color="#f2f2f2"/>
      <stop offset=".646072" stop-color="#fff"/>
      <stop offset="1" stop-color="#fff"/>
    </linearGradient>
    <radialGradient id="New_Gradient_402" data-name="New Gradient 402" cx="-13.3373831" cy="43.2209312" fx="-13.3373831" fy="43.2209312" r="5.809576" gradientTransform="translate(35.6652 -11.5857) scale(1.0371 .8602)" gradientUnits="userSpaceOnUse">
      <stop offset="0" stop-color="#e5e5e5"/>
      <stop offset=".331467" stop-color="#e5e5e5"/>
      <stop offset="1" stop-color="#999"/>
    </radialGradient>
  </defs>
  <g>
    <path d="M22.3124938,7.7773l.001-.061s-.9082-1.2226-1.5644938-1.2217l-3.6474061.0113c-.6983-.4478-.9297-.9883-1.1845939-1.48-.4199061-.8008-.703106-2.2442-2.256806-2.1763-.0303.0025-.0538.0122-.0821.0137-.0283-.0015-.0517-.0112-.082-.0137-1.5537-.0679-1.8369,1.3755-2.2567999,2.1763-.2598.501-.4932,1.0488-1.2188,1.5039l-4.9999999.0137c-.6543.0034-1.1854942.4931-1.1846,1.0898l-.0008942,18.5654c0,.5982.8407942,1.438.8407942,1.438h.0117c.2188.2202.5244.3648.875.3633l15.7275058-.0483c.6562938-.001,1.1865938-.4883,1.1865938-1.0884V8.2949c0-.1914-.0674-.3618-.1641-.5176ZM13.578094,3.8286c.6358.002,1.1485.4658,1.1514,1.0371-.0029.5703-.5147,1.0362-1.1514,1.0366-.6357-.0004-1.1474-.4663-1.1513-1.0366.0029-.5713.5156-1.0351,1.1513-1.0371Z" fill="url(#New_Gradient_51)" fill-rule="evenodd" stroke="#000" stroke-miterlimit="3.8637" stroke-width="2"/>
    <path d="M5.0204942,6.5435l15.7285058-.0489c.6562938-.0009,1.5644938,1.2217,1.5644938,1.2217l-.3789,18.4282c0,.5982-.5293,1.0874-1.1855938,1.0884l-16.0732058.4038s-.8407942-.8398-.8407942-1.438l.0008942-18.5654c-.0008942-.5967.5303-1.0864,1.1846-1.0898Z" fill="url(#linear-gradient)" fill-rule="evenodd"/>
    <path d="M6.7724942,8.8403l14.6025058-.042c.6093938-.0039,1.1015938.4454,1.1015938.9991v17.1464c0,.5567-.4922,1.0108-1.1015938,1.0132l-14.6025058.043c-.6094.0015-1.1036-.4473-1.1036-1.0039V9.8511c0-.5576.4942-1.0074,1.1036-1.0108Z" fill="url(#linear-gradient-2)" fill-rule="evenodd"/>
  </g>
  <path d="M19.5312938,8.3032c-1.1124-.376-.9297-.9165-1.3155-1.4804h-3.4266999l.003906.0742c-.058606-.0157-.176806-.0493-.243206-.0742h-2.7724999c-.3007.3994.0713.7514-.2666,1.0053-.2646.1758-.5859.3374-.9941.4751-1.6494.5596-2.5790999.5718-2.8681999,1.4942l7.3759998-.042,7.3739998.042c-.288-.9224-1.2158-.9346-2.8670999-1.4942Z" fill="#333"/>
  <path d="M19.5312938,8.3032c-1.1124-.376-.9297-.9165-1.3155-1.4804h-3.4266999l.003906.0742c-.058606-.0157-.176806-.0493-.243206-.0742h-2.7724999c-.3007.3994.0713.7514-.2666,1.0053-.2646.1758-.5859.3374-.9941.4751-1.6494.5596-2.5790999.5718-2.8681999,1.4942l7.3759998-.042,7.3739998.042c-.288-.9224-1.2158-.9346-2.8670999-1.4942Z" fill="#333"/>
  <g>
    <path d="M12.153294,5.8276c.003.6709.5918,1.2159,1.3262,1.2173.7324.0039,1.3242-.5371,1.3252-1.207,0-.6699-.5928-1.2163-1.3252-1.2183-.7334-.0039-1.3232.5362-1.3262,1.208ZM6.0966942,9.8926c.2861-.9219-.2031-.9341,1.8301-1.4942,2.0965999-.5761,2.4335999-1.5351,2.8652059-2.3774.4813941-.9365.806594-2.6265,2.591794-2.5449,1.956.0879,2.5927999,1.9419,2.3222999,2.6465-.3946,1.0205.8828,2.0332.8828,2.0332,1.4267.8662-.209,1.6787-.209,1.6787l-10.2831997.0581Z" fill="url(#New_Gradient_48)" fill-rule="evenodd"/>
    <path d="M13.479494,4.6196c-.7334.002-1.3262.5484-1.3262,1.2183s.5928,1.2109,1.3262,1.207c.7344-.0014,1.3223-.5464,1.3252-1.2173-.0029-.6718-.5928-1.2119-1.3252-1.208ZM10.5595941,9.8345s-1.6182-.8125-.1914-1.6787c0,0,1.2773-1.0127.8847-2.0332-.2734-.7046.3643-2.5586,2.3212999-2.6465,1.7852-.0816,2.1103999,1.6084,2.592806,2.5449.4306939.8423.7675939,1.8013,2.8632939,2.3774,2.0350999.5601,1.5273.5723,1.8135,1.4942l-10.2841997-.0581Z" fill="url(#New_Gradient_47)" fill-rule="evenodd"/>
    <path d="M7.6825941,9.3647s.6455-.3242,1.6992-.5459c1.0528-.2226,1.2383-1.2792,1.5118-1.9023.2714059-.6211.7939-1.5293.7939-1.5293,0,0-.145494,1.2236.6924,1.7441.9844.6148,2.2186999.3487,2.6366999-.3125,0,0-.0215.6915.7607,1.5518.462.5098-.2666.8711-.2666.8711l-7.8280998.123Z" fill="url(#linear-gradient-3)" fill-rule="evenodd"/>
    <path d="M19.4130939,9.3647s-.6475-.3242-1.6992-.5459c-1.0547-.2226-1.1856-1.2792-1.461-1.9023-.2715-.6211-.792-1.5293-.792-1.5293,0,0,.1436,1.2236-.6943,1.7441-.9824.6148-2.2167999.3487-2.6366999-.3125,0,0,.0224.6915-.7598,1.5518-.4638.5098.2149059.8711.2149059.8711l7.8280939.123Z" fill="url(#linear-gradient-4)" fill-rule="evenodd"/>
    <path d="M8.8983941,8.0659s.0733-.0283.1954-.0991c.8369-.4883,1.4531-1.3716,1.8232059-2.2739.843694-2.0718,1.666-2.5054,3.012694-2.1934.3076.0723.3877.5259.0791.4536-1.0801-.25-1.8184.0137-2.6464999,2.0445-.3652.893-.5702941,2.1386-1.3632941,2.5127-.1943059.0952-1.3388059-.3506-1.1006059-.4444Z" fill="url(#New_Gradient_46)"/>
    <path d="M14.453094,4.7769s.671906.5043.5625,1.2368c-.1172.7968-.7295,1.4204-1.9453,1.1967" fill="none" stroke="#f2f2f2" stroke-linecap="round" stroke-miterlimit="3.8637" stroke-width=".5272"/>
    <line x1="6.0204942" y1="9.9624" x2="20.6044938" y2="9.8735" fill="none" stroke="gray" stroke-linecap="round" stroke-miterlimit="3.8637" stroke-width=".5272"/>
  </g>
  <g>
    <g>
      <g mask="url(#mask)">
        <g>
          <path d="M22.6532938,30.5176l-12.1503997.0044-.0018941-18.4453,17.3036936-.0005-.0068,14.1675c0,2.0361-2.7509999,4.2739-5.1445999,4.2739Z" fill="url(#New_Gradient_399)" fill-rule="evenodd"/>
          <path d="M21.833,30.5903s2.9452937-.0942,2.9452937-2.8037c3.0292999,0,3.0567063-2.1929,3.0567063-2.1929l-.002,4.9966h-6Z" fill="url(#New_Gradient_400)" fill-rule="evenodd"/>
          <path d="M22.6532938,30.5176l-12.1503997.0044-.0018941-18.4453,17.3036936-.0005-.0068,14.1675c0,2.0361-2.7509999,4.2739-5.1445999,4.2739Z" fill="none" fill-rule="evenodd" stroke="#000" stroke-linecap="round" stroke-linejoin="round" stroke-width="2"/>
        </g>
      </g>
      <g mask="url(#mask-1)">
        <g>
          <path d="M22.6532938,30.5176l-12.1503997.0044-.0018941-18.4453,17.3036936-.0005-.0068,14.1675c0,2.0361-2.7509999,4.2739-5.1445999,4.2739Z" fill="url(#New_Gradient_401)" fill-rule="evenodd"/>
          <path d="M21.833,30.5903s2.0468937-.6821,2.0468937-3.3925c3.0302999,0,3.9551063-1.6041,3.9551063-1.6041l-.002,4.9966h-6Z" fill="url(#New_Gradient_402)" fill-rule="evenodd"/>
        </g>
      </g>
    </g>
    <line x1="12.867194" y1="18.0513" x2="16.7187939" y2="18.0513" fill="none" stroke="#999" stroke-linecap="round" stroke-miterlimit="3.8637" stroke-width=".7125"/>
    <line x1="21.7606938" y1="15.3892" x2="25.6093937" y2="15.3892" fill="none" stroke="#999" stroke-linecap="round" stroke-miterlimit="3.8637" stroke-width=".7125"/>
    <line x1="18.9413939" y1="18.0513" x2="25.6093937" y2="18.0513" fill="none" stroke="#999" stroke-linecap="round" stroke-miterlimit="3.8637" stroke-width=".7125"/>
    <line x1="12.703094" y1="26.0352" x2="22.2772938" y2="26.0352" fill="none" stroke="#999" stroke-linecap="round" stroke-miterlimit="3.8637" stroke-width=".7125"/>
    <line x1="12.867194" y1="20.7129" x2="15.9794939" y2="20.7129" fill="none" stroke="#999" stroke-linecap="round" stroke-miterlimit="3.8637" stroke-width=".7125"/>
    <line x1="17.8075939" y1="20.7129" x2="20.9188938" y2="20.7129" fill="none" stroke="#999" stroke-linecap="round" stroke-miterlimit="3.8637" stroke-width=".7125"/>
    <line x1="22.1532938" y1="20.7129" x2="25.6093937" y2="20.7129" fill="none" stroke="#999" stroke-linecap="round" stroke-miterlimit="3.8637" stroke-width=".7125"/>
    <line x1="12.867194" y1="15.3892" x2="18.9413939" y2="15.3892" fill="none" stroke="#999" stroke-linecap="round" stroke-miterlimit="3.8637" stroke-width=".7125"/>
    <line x1="12.867194" y1="23.3745" x2="17.9530939" y2="23.3745" fill="none" stroke="#999" stroke-linecap="round" stroke-miterlimit="3.8637" stroke-width=".7125"/>
    <line x1="19.374" y1="23.3745" x2="25.8563937" y2="23.3745" fill="none" stroke="#999" stroke-linecap="round" stroke-miterlimit="3.8637" stroke-width=".7125"/>
  </g>
</svg>