<?xml version='1.0' encoding='UTF-8'?>
<svg xmlns="http://www.w3.org/2000/svg" xmlns:xlink="http://www.w3.org/1999/xlink" id="Set_5" data-name="Set 5" width="32" height="32" viewBox="0 0 32 32">
  <defs>
    <linearGradient id="New_Gradient_Swatch_22" data-name="New Gradient Swatch 22" x1="6.5853909" y1="15.22375" x2="6.6542909" y2="15.22375" gradientUnits="userSpaceOnUse">
      <stop offset=".005618" stop-color="#e2be89"/>
      <stop offset=".606741" stop-color="#c96b00"/>
      <stop offset="1" stop-color="#6b3200"/>
    </linearGradient>
    <linearGradient id="New_Gradient_Swatch_22-2" data-name="New Gradient Swatch 22" x1="24.8462905" x2="24.9152905" y1="15.22375" y2="15.22375" gradientUnits="userSpaceOnUse"><stop offset=".005618" stop-color="#e2be89"/><stop offset=".606741" stop-color="#c96b00"/><stop offset="1" stop-color="#6b3200"/></linearGradient>
    <linearGradient id="New_Gradient_Swatch_22-3" data-name="New Gradient Swatch 22" x1="6.2570604" y1="19.8797716" x2="25.2440903" y2="19.8797716" gradientUnits="userSpaceOnUse"><stop offset=".005618" stop-color="#e2be89"/><stop offset=".606741" stop-color="#c96b00"/><stop offset="1" stop-color="#6b3200"/></linearGradient>
    <linearGradient id="New_Gradient_Swatch_22-4" data-name="New Gradient Swatch 22" x1="14.2875907" y1="17.2317" x2="17.2143907" y2="17.2317" gradientUnits="userSpaceOnUse"><stop offset=".005618" stop-color="#e2be89"/><stop offset=".606741" stop-color="#c96b00"/><stop offset="1" stop-color="#6b3200"/></linearGradient>
    <linearGradient id="New_Gradient_Swatch_22-5" data-name="New Gradient Swatch 22" x1="10.1113909" y1="11.03595" x2="21.3892906" y2="11.03595" gradientUnits="userSpaceOnUse"><stop offset=".005618" stop-color="#e2be89"/><stop offset=".606741" stop-color="#c96b00"/><stop offset="1" stop-color="#6b3200"/></linearGradient>
    <linearGradient id="New_Gradient_Swatch_22-6" data-name="New Gradient Swatch 22" x1="5.019591" y1="16.4985843" x2="8.0194909" y2="16.4985843" gradientUnits="userSpaceOnUse"><stop offset=".005618" stop-color="#e2be89"/><stop offset=".606741" stop-color="#c96b00"/><stop offset="1" stop-color="#6b3200"/></linearGradient>
    <linearGradient id="New_Gradient_Swatch_22-7" data-name="New Gradient Swatch 22" x1="23.4798905" y1="16.4985843" x2="26.4810904" y2="16.4985843" gradientUnits="userSpaceOnUse"><stop offset=".005618" stop-color="#e2be89"/><stop offset=".606741" stop-color="#c96b00"/><stop offset="1" stop-color="#6b3200"/></linearGradient>
    <linearGradient id="New_Gradient_Swatch_22-8" data-name="New Gradient Swatch 22" x1="13.5293908" y1="7.4036" x2="18.1236906" y2="7.4036" gradientUnits="userSpaceOnUse"><stop offset=".005618" stop-color="#e2be89"/><stop offset=".606741" stop-color="#c96b00"/><stop offset="1" stop-color="#6b3200"/></linearGradient>
  </defs>
  <g>
    <g>
      <path d="M6.5878909,15.2016c0,.0143,0,.0299-.0025.0443.0233-.0144.0443-.0365.0689-.0443h-.0664Z" fill="#9c9c9c" stroke="#000" stroke-linecap="round" stroke-linejoin="round" stroke-width="2"/>
      <path d="M24.8462905,15.2016c.0247095.0078.0456.0299.069.0443-.0025-.0144-.0025-.03-.0025-.0443h-.0665Z" fill="#9c9c9c" stroke="#000" stroke-linecap="round" stroke-linejoin="round" stroke-width="2"/>
      <path d="M24.9152905,15.2459c.288,4.7753-3.7422905,4.8716-6.0296998,5.2819-.2058.0379-2.2363999.1382-3.1351999.2033-.8989-.0651-2.9294999-.1654-3.1352999-.2033-2.2874999-.4103-6.3176998-.5066-6.0296998-5.2819-.5823909.4273-.2372,1.7806-.1161,2.3251.3154,1.4446.8937091,2.7198,1.6348,3.6838,2.0307999,2.6429,5.0527999,3.6993,7.6462998,3.0922,2.5933999.6071,5.6153999-.4493,7.6447998-3.0922.7413-.964,1.3208095-2.2392,1.6361-3.6838.1211-.5445.4676-1.8978-.116-2.3251Z" fill="#9c9c9c" stroke="#000" stroke-linecap="round" stroke-linejoin="round" stroke-width="2"/>
    </g>
    <rect x="14.2875907" y="9.1133" width="2.9267999" height="16.2368" fill="#9c9c9c" stroke="#000" stroke-linecap="round" stroke-linejoin="round" stroke-width="2"/>
    <rect x="10.1113909" y="9.9679" width="11.2778997" height="2.1361" fill="#9c9c9c" stroke="#000" stroke-linecap="round" stroke-linejoin="round" stroke-width="2"/>
    <path d="M18.0480907,7.403c0,1.1802-1.0290907,2.1375-2.2976999,2.1375-1.2688,0-2.2977999-.9573-2.2977999-2.1375s1.029-2.1363,2.2977999-2.1363c1.2686093,0,2.2976999.9561,2.2976999,2.1363ZM15.7503907,6.5485c-.6931,0-1.2518.383-1.2518.8545s.5587.8545,1.2518.8545c.6929,0,1.253-.383,1.253-.8545s-.5601-.8545-1.253-.8545Z" fill="#9c9c9c" stroke="#000" stroke-linecap="round" stroke-linejoin="round" stroke-width="2"/>
    <g>
      <path d="M5.019591,18.3994c.7672-.9456,1.834-1.3416,2.9998999-1.1306-.2319-.5471-.8467-2.4046-1.5866-2.6677-.3568909-.1276-1.3026,3.4506-1.4133,3.7983" fill="#9c9c9c" stroke="#000" stroke-linecap="round" stroke-linejoin="round" stroke-width="2"/>
      <path d="M26.4810904,18.3994c-.7672-.9456-1.834-1.3416-3.0011999-1.1306.2319-.5471.8466-2.4046,1.5879-2.6677.3569-.1276,1.3026,3.4506,1.4133,3.7983" fill="#9c9c9c" stroke="#000" stroke-linecap="round" stroke-linejoin="round" stroke-width="2"/>
    </g>
  </g>
  <g>
    <g>
      <path d="M6.5878909,15.2016c0,.0143,0,.0299-.0025.0443.0233-.0144.0443-.0365.0689-.0443h-.0664Z" fill="url(#New_Gradient_Swatch_22)"/>
      <path d="M24.8462905,15.2016c.0247095.0078.0456.0299.069.0443-.0025-.0144-.0025-.03-.0025-.0443h-.0665Z" fill="url(#New_Gradient_Swatch_22-2)"/>
      <path d="M24.9152905,15.2459c.288,4.7753-3.7422905,4.8716-6.0296998,5.2819-.2058.0379-2.2363999.1382-3.1351999.2033-.8989-.0651-2.9294999-.1654-3.1352999-.2033-2.2874999-.4103-6.3176998-.5066-6.0296998-5.2819-.5823909.4273-.2372,1.7806-.1161,2.3251.3154,1.4446.8937091,2.7198,1.6348,3.6838,2.0307999,2.6429,5.0527999,3.6993,7.6462998,3.0922,2.5933999.6071,5.6153999-.4493,7.6447998-3.0922.7413-.964,1.3208095-2.2392,1.6361-3.6838.1211-.5445.4676-1.8978-.116-2.3251Z" fill="url(#New_Gradient_Swatch_22-3)"/>
    </g>
    <rect x="14.2875907" y="9.1133" width="2.9267999" height="16.2368" fill="url(#New_Gradient_Swatch_22-4)"/>
    <rect x="10.1113909" y="9.9679" width="11.2778997" height="2.1361" fill="url(#New_Gradient_Swatch_22-5)"/>
    <g>
      <path d="M5.019591,18.3994c.7672-.9456,1.834-1.3416,2.9998999-1.1306-.2319-.5471-.8467-2.4046-1.5866-2.6677-.3568909-.1276-1.3026,3.4506-1.4133,3.7983" fill="url(#New_Gradient_Swatch_22-6)"/>
      <path d="M26.4810904,18.3994c-.7672-.9456-1.834-1.3416-3.0011999-1.1306.2319-.5471.8466-2.4046,1.5879-2.6677.3569-.1276,1.3026,3.4506,1.4133,3.7983" fill="url(#New_Gradient_Swatch_22-7)"/>
    </g>
    <path d="M15.8258907,5.2667c1.2688,0,2.2977999.9561,2.2977999,2.1363s-1.029,2.1375-2.2977999,2.1375c-1.2674,0-2.2964999-.9573-2.2964999-2.1375s1.0291-2.1363,2.2964999-2.1363M15.8258907,6.5485c-.6943,0-1.2532.383-1.2532.8545s.5589.8545,1.2532.8545c.6929,0,1.2518-.383,1.2518-.8545s-.5589-.8545-1.2518-.8545" fill="url(#New_Gradient_Swatch_22-8)"/>
  </g>
</svg>