<?xml version="1.0" encoding="UTF-8"?>
<svg xmlns="http://www.w3.org/2000/svg" width="32" height="32" xmlns:xlink="http://www.w3.org/1999/xlink" viewBox="0 0 32 32">
  <defs>
    <linearGradient id="White_Black" data-name="White, Black" x1="6.4340575" y1="8.1105787" x2="27.9433581" y2="28.3165756" gradientUnits="userSpaceOnUse">
      <stop offset="0" stop-color="#fff"/>
      <stop offset="1" stop-color="#000"/>
    </linearGradient>
    <mask id="mask" x="4.8361363" y="6.5630798" width="22.533464" height="21.341629" maskUnits="userSpaceOnUse">
      <polyline points="26.035696 26.5708923 4.8361363 26.5708923 4.8361363 6.5630798 26.035696 6.5630798 26.035696 26.5708923" fill="#fff"/>
    </mask>
  </defs>
  <g isolation="isolate">
    <g id="Set_2" data-name="Set 2">
      <g mix-blend-mode="color">
        <rect x="4.83615" y="6.5631" width="21.19955" height="20.0078" fill="url(#White_Black)" stroke="#000" stroke-width="2"/>
        <g>
          <polyline points="4.8361363 6.5630798 4.8361363 6.5630798 4.8361363 26.5708923 26.035696 26.5708923 26.035696 11.7317963 20.8004875 11.7317963 20.8004875 26.5708923 20.0505028 26.5708923 20.0505028 11.7317963 19.4667053 11.7317963 19.4667053 26.5708923 18.7166843 26.5708923 18.7166843 11.7317963 14.1313095 11.7317963 14.1313095 26.5708923 13.3812866 26.5708923 13.3812866 11.7317963 12.797411 11.7317963 12.797411 26.5708923 12.047389 26.5708923 12.047389 11.7317963 7.4620147 11.7317963 7.4620147 26.5708923 6.7120314 26.5708923 6.7120314 11.7317963 6.1281948 11.7317963 6.1281948 26.5708923 5.3781724 26.5708923 5.3781724 11.7317963 4.8361363 11.7317963 4.8361363 11.0648193 4.8361363 6.5630798" fill="#e5e5e5"/>
          <g mask="url(#mask)">
            <g>
              <polyline points="6.1700101 12.7736969 27.3696003 12.7736969 27.3696003 12.0236969 6.1700101 12.0236969" fill="#fff"/>
              <polyline points="6.1700101 18.1091003 27.3696003 18.1091003 27.3696003 17.3591003 6.1700101 17.3591003" fill="#fff"/>
              <polyline points="20.8004875 11.7317963 20.0505028 11.7317963 20.0505028 26.5708923 20.8004875 26.5708923 20.8004875 11.7317963" fill="#fff"/>
              <polyline points="14.1313095 11.7317963 13.3812866 11.7317963 13.3812866 26.5708923 14.1313095 26.5708923 14.1313095 11.7317963" fill="#fff"/>
              <polyline points="7.4620147 11.7317963 6.7120314 11.7317963 6.7120314 26.5708923 7.4620147 26.5708923 7.4620147 11.7317963" fill="#fff"/>
              <polyline points="6.1699953 8.6888123 27.3695927 8.6888123 27.3695927 7.9387817 6.1699953 7.9387817 6.1699953 8.6888123" fill="#fff"/>
              <polyline points="4.8361502 17.0252991 26.0356998 17.0252991 26.0356998 16.2752991 4.8361502 16.2752991" fill="#999"/>
              <polyline points="6.1700101 23.6945953 27.3696003 23.6945953 27.3696003 22.9445953 6.1700101 22.9445953" fill="#fff"/>
              <polyline points="4.8361502 22.3607025 26.0356998 22.3607025 26.0356998 21.6107025 4.8361502 21.6107025" fill="#999"/>
              <polyline points="19.4667053 11.7317963 18.7166843 11.7317963 18.7166843 26.5708923 19.4667053 26.5708923 19.4667053 11.7317963" fill="#999"/>
              <polyline points="12.797411 11.7317963 12.047389 11.7317963 12.047389 26.5708923 12.797411 26.5708923 12.797411 11.7317963" fill="#999"/>
              <polyline points="6.1281948 11.7317963 5.3781724 11.7317963 5.3781724 26.5708923 6.1281948 26.5708923 6.1281948 11.7317963" fill="#fff"/>
              <path d="M20.0505028,11.4398193h-.5837975v.2919769h.5837975v-.2919769M26.035696,11.4398193h-5.2352085v.2919769h5.2352085v-.2919769" fill="#5a73a6"/>
              <polyline points="20.8004875 11.4398193 20.0505028 11.4398193 20.0505028 11.7317963 20.8004875 11.7317963 20.8004875 11.4398193" fill="#6480b9"/>
              <path d="M13.3812866,11.4398193h-.5838757v.2919769h.5838757v-.2919769M18.7166843,11.4398193h-4.5853748v.2919769h4.5853748v-.2919769M4.8361363,11.0648193h0v.6669769h.5420361v-.2919769h-.5420361v-.375" fill="#5a73a6"/>
              <polyline points="14.1313095 11.4398193 13.3812866 11.4398193 13.3812866 11.7317963 14.1313095 11.7317963 14.1313095 11.4398193" fill="#6480b9"/>
              <path d="M18.7166843,7.3549042h-5.9192734v3.3348846h5.9192734v-3.3348846M26.035696,7.3549042h-6.5689907v3.3348846h6.5689907v-3.3348846M5.3781724,6.5630798h-.5420361v4.5017395-.3750305h.5420361v-3.3348846h-.5420361v-.7500153h.5420361v-.0418091M12.047389,6.5630798h-5.9191942v.0418091h5.9191942v-.0418091M18.7166843,6.5630798h-5.9192734v.0418091h5.9192734v-.0418091M26.035696,6.5630798h-6.5689907v.0418091h6.5689907v-.0418091" fill="#506794"/>
              <path d="M5.3781724,10.6897888h-.5420361v.7500305h.5420361v-.7500305M18.7166843,10.6897888h-5.9192734v.7500305h5.9192734v-.7500305M26.035696,10.6897888h-6.5689907v.7500305h6.5689907v-.7500305" fill="#3c4d6f"/>
              <path d="M19.4667053,7.3549042h-.750021v4.3768921h.750021v-4.3768921M19.4667053,6.5630798h-.750021v.0418091h.750021v-.0418091" fill="#3c4d6f"/>
              <path d="M6.7120314,11.4398193h-.5838366v.2919769h.5838366v-.2919769M12.047389,11.4398193h-4.5853744v.2919769h4.5853744v-.2919769" fill="#5a73a6"/>
              <polyline points="7.4620147 11.4398193 6.7120314 11.4398193 6.7120314 11.7317963 7.4620147 11.7317963 7.4620147 11.4398193" fill="#6480b9"/>
              <polyline points="12.047389 7.3549042 6.1281948 7.3549042 6.1281948 10.6897888 12.047389 10.6897888 12.047389 7.3549042" fill="#506794"/>
              <polyline points="12.047389 10.6897888 6.1281948 10.6897888 6.1281948 11.4398193 6.7120314 11.4398193 7.4620147 11.4398193 12.047389 11.4398193 12.047389 10.6897888" fill="#3c4d6f"/>
              <path d="M12.797411,7.3549042h-.7500219v4.3768921h.7500219v-4.3768921M12.797411,6.5630798h-.7500219v.0418091h.7500219v-.0418091" fill="#3c4d6f"/>
              <path d="M6.1281948,7.3549042h-.7500224v4.3768921h.7500224v-4.3768921M6.1281948,6.5630798h-.7500224v.0418091h.7500224v-.0418091" fill="#6480b9"/>
              <polyline points="26.035696 6.6048889 19.4667053 6.6048889 18.7166843 6.6048889 12.797411 6.6048889 12.047389 6.6048889 6.1281948 6.6048889 5.3781724 6.6048889 4.8361363 6.6048889 4.8361363 7.3549042 5.3781724 7.3549042 6.1281948 7.3549042 12.047389 7.3549042 12.797411 7.3549042 18.7166843 7.3549042 19.4667053 7.3549042 26.035696 7.3549042 26.035696 6.6048889" fill="#6480b9"/>
            </g>
          </g>
        </g>
      </g>
    </g>
  </g>
</svg>