<?xml version='1.0' encoding='UTF-8'?>
<svg xmlns="http://www.w3.org/2000/svg" xmlns:xlink="http://www.w3.org/1999/xlink" id="Icons_-_24x24" data-name="Icons - 24x24" width="32" height="32" viewBox="0 0 32 32">
  <defs>
    <linearGradient id="linear-gradient" x1="-15.1900451" y1="-49.5771329" x2="12.2653929" y2="-31.7473629" gradientTransform="translate(-13.3691 58.3662) rotate(17.8658635) scale(.8086975 1.2157395) skewX(-26.3546733)" gradientUnits="userSpaceOnUse">
      <stop offset="0" stop-color="#b4daea"/>
      <stop offset=".51123" stop-color="#b4daea"/>
      <stop offset=".646072" stop-color="#5387ba"/>
      <stop offset="1" stop-color="#16336e"/>
    </linearGradient>
    <mask id="mask" x="5.7422" y="7.6934" width="19.1055" height="21.1235" maskUnits="userSpaceOnUse">
      <polygon points="7.8159 26.3667 23.4609 26.2417 23.9961 25.4185 21.6733 9.9409 8.4116 8.3247 7.8711 9.1597 7.8159 26.3667" fill="#fff" fill-rule="evenodd"/>
    </mask>
    <linearGradient id="New_Gradient_21" data-name="New Gradient 21" x1="9.7314164" y1="13.795906" x2="20.2671064" y2="22.9544416" gradientUnits="userSpaceOnUse">
      <stop offset="0" stop-color="#5387ba"/>
      <stop offset="1" stop-color="#96bad6"/>
    </linearGradient>
    <linearGradient id="New_Gradient_23" data-name="New Gradient 23" x1="-10.7210566" y1="-42.6685449" x2="8.8232207" y2="-29.9763428" gradientTransform="translate(-13.3691 58.3662) rotate(17.8658635) scale(.8086975 1.2157395) skewX(-26.3546733)" gradientUnits="userSpaceOnUse">
      <stop offset="0" stop-color="#b4daea"/>
      <stop offset=".51123" stop-color="#b4daea"/>
      <stop offset=".646072" stop-color="#5387ba"/>
      <stop offset="1" stop-color="#16336e"/>
    </linearGradient>
    <linearGradient id="New_Gradient_24" data-name="New Gradient 24" x1="-1.3683361" y1="-46.4668721" x2="-1.3683361" y2="-31.6396417" gradientTransform="translate(-13.3691 58.3662) rotate(17.8658635) scale(.8086975 1.2157395) skewX(-26.3546733)" gradientUnits="userSpaceOnUse">
      <stop offset="0" stop-color="#b2b2b2"/>
      <stop offset="1" stop-color="#f2f2f2"/>
    </linearGradient>
    <mask id="mask-1" x="8.7129" y="4.9849" width="17.3511" height="19.4253" maskUnits="userSpaceOnUse">
      <polygon points="9.0034 23.6587 24.0562 23.5332 24.5874 22.7109 24.6445 5.5317 9.5981 5.6152 9.0571 6.4517 9.0034 23.6587" fill="#fff" fill-rule="evenodd"/>
    </mask>
    <linearGradient id="linear-gradient-2" x1="11.6559185" y1="10.1026987" x2="21.9885168" y2="19.0846894" gradientUnits="userSpaceOnUse">
      <stop offset=".005618" stop-color="#6498c1"/>
      <stop offset=".2332473" stop-color="#79a9cb"/>
      <stop offset=".7405465" stop-color="#a3cce1"/>
      <stop offset="1" stop-color="#b4daea"/>
    </linearGradient>
    <linearGradient id="New_Gradient_23-2" data-name="New Gradient 23" x1="-11.1392934" y1="-45.7378765" x2="8.3757502" y2="-33.064659" gradientTransform="translate(-13.3691 58.3662) rotate(17.8658635) scale(.8086975 1.2157395) skewX(-26.3546733)" gradientUnits="userSpaceOnUse"><stop offset="0" stop-color="#b4daea"/><stop offset=".51123" stop-color="#b4daea"/><stop offset=".646072" stop-color="#5387ba"/><stop offset="1" stop-color="#16336e"/></linearGradient>
    <linearGradient id="New_Gradient_21-2" data-name="New Gradient 21" x1="-15.5341226" y1="-44.2133091" x2="-4.1465998" y2="-34.3142865" gradientTransform="translate(-13.3691 58.3662) rotate(17.8658635) scale(.8086975 1.2157395) skewX(-26.3546733)" gradientUnits="userSpaceOnUse"><stop offset="0" stop-color="#5387ba"/><stop offset="1" stop-color="#96bad6"/></linearGradient>
    <linearGradient id="New_Gradient_20" data-name="New Gradient 20" x1="-44.2206497" y1="-29.35091" x2="-42.0814514" y2="-23.1382272" gradientTransform="translate(33.6009 56.2921) rotate(17.9033405) scale(.984997 1.4712592) skewX(-26.2790975)" gradientUnits="userSpaceOnUse">
      <stop offset="0" stop-color="#ccc"/>
      <stop offset="1" stop-color="#f2f2f2"/>
    </linearGradient>
  </defs>
  <path d="M23.3462,23.6504c.0771-.1333-.4307.8574-.3242.6997.3877-.5742-.3579-.4946-.0205-.832l.9961-.0059.5312-.8232.0557-17.1768-15.0337.0811c.0679-.5508-.0645-.4097-1.0386,1.0337-.9751,1.4472-.6372,1.9477-.709,2.5039-.0097.0717-.0049.1196.0078.1508l-.0547,17.0645,15.6465-.126.5342-.8232-.5908-1.7466Z" fill="url(#linear-gradient)" stroke="#000" stroke-linecap="round" stroke-linejoin="round" stroke-width="2"/>
  <g>
    <g>
      <g mask="url(#mask)">
        <g>
          <polygon points="7.8159 26.3667 23.4609 26.2417 23.9961 25.4185 21.6733 9.9409 8.4116 8.3247 7.8711 9.1597 7.8159 26.3667" fill="url(#New_Gradient_21)" fill-rule="evenodd"/>
          <polygon points="8.3828 8.2017 8.3267 25.7031 24.8477 25.4375 22.4985 28.3569 5.7422 28.8169 5.9829 10.4028 7.8667 7.6934 8.3828 8.2017" fill="url(#New_Gradient_23)" fill-rule="evenodd"/>
        </g>
      </g>
      <path d="M23.5977,23.0469s.2265.2231-.5162,1.3242c-.7392,1.0981.4834.4731.4834.4731l-14.8632.2217.0556-16.6972.709-1.9957,14.1314,16.6739Z" fill="url(#New_Gradient_24)" fill-rule="evenodd"/>
      <g mask="url(#mask-1)">
        <g>
          <polygon points="9.0034 23.6587 24.0562 23.5332 24.5874 22.7109 24.6445 5.5317 9.5981 5.6152 9.0571 6.4517 9.0034 23.6587" fill="url(#linear-gradient-2)" fill-rule="evenodd"/>
          <polygon points="9.5737 5.4946 9.5156 22.9956 25.439 22.73 26.064 23.9468 8.7129 24.4102 8.957 5.9956 9.0542 4.9849 9.5737 5.4946" fill="url(#New_Gradient_23-2)" fill-rule="evenodd"/>
        </g>
      </g>
    </g>
    <path d="M8.5132,24.271c.8027-1.189.8442-1.3135,1.001-1.2085l.0918-16.9224c.0732-.5576-.0596-.4155-1.0357,1.0303-.9746,1.4468-.6382,1.9487-.7104,2.5078-.0088.0694-.0044.1187.0112.1499l-.0571,16.8999c.1118-.601-.25-1.0508.6992-2.457Z" fill="#4d7ba6"/>
    <path d="M8.5142,23.7476c.8022-1.1875.8427-1.3121,1.0029-1.208l.0942-16.9224c.0718-.5571-.0659-.4141-1.041,1.0312-.9746,1.4449-.6362,1.9458-.7095,2.5054-.0078.0689-.0048.1211.0108.1524l-.0557,16.8989c.1099-.6011-.25-1.0493.6983-2.4575Z" fill="url(#New_Gradient_21-2)"/>
    <line x1="9.6113" y1="5.6172" x2="9.5142" y2="22.8862" fill="none" stroke="#5387ba" stroke-linejoin="round"/>
  </g>
  <polygon points="21.4399 12.9751 21.4966 7.7891 12.9043 7.8379 12.9043 13.0371 21.4399 12.9751" fill="url(#New_Gradient_20)" fill-rule="evenodd" stroke="gray" stroke-linecap="round" stroke-linejoin="round" stroke-width=".5"/>
</svg>