<?xml version="1.0" encoding="UTF-8"?>
<svg id="Set_3" data-name="Set 3" xmlns="http://www.w3.org/2000/svg" width="32" height="32" xmlns:xlink="http://www.w3.org/1999/xlink" viewBox="0 0 32 32">
  <defs>
    <linearGradient id="New_Gradient_37" data-name="New Gradient 37" x1="2.4459" y1="17.87175" x2="21.7634" y2="17.87175" gradientUnits="userSpaceOnUse">
      <stop offset="0" stop-color="#999"/>
      <stop offset=".20224" stop-color="#f2f2f2"/>
      <stop offset=".516861" stop-color="#b2b2b2"/>
      <stop offset=".769669" stop-color="#b2b2b2"/>
      <stop offset="1" stop-color="#737373"/>
    </linearGradient>
    <linearGradient id="New_Gradient_36" data-name="New Gradient 36" x1="24.0764721" y1="19.0121279" x2="17.6449279" y2="25.4436721" gradientUnits="userSpaceOnUse">
      <stop offset="0" stop-color="#4c4c4c"/>
      <stop offset=".623596" stop-color="#d9d9d9"/>
      <stop offset="1" stop-color="#4c4c4c"/>
    </linearGradient>
    <linearGradient id="New_Gradient_35" data-name="New Gradient 35" x1="28.5676302" y1="21.0448269" x2="19.6771613" y2="29.9352959" gradientUnits="userSpaceOnUse">
      <stop offset="0" stop-color="#a70000"/>
      <stop offset=".662918" stop-color="#df4e15"/>
      <stop offset="1" stop-color="#740000"/>
    </linearGradient>
    <linearGradient id="New_Gradient_34" data-name="New Gradient 34" x1="25.467156" y1="26.1441691" x2="27.4873832" y2="29.3772085" gradientUnits="userSpaceOnUse">
      <stop offset="0" stop-color="#df4e15"/>
      <stop offset="1" stop-color="#c42e00"/>
    </linearGradient>
    <linearGradient id="New_Gradient_33" data-name="New Gradient 33" x1="25.467156" y1="26.1441691" x2="27.4873832" y2="29.3772085" gradientUnits="userSpaceOnUse">
      <stop offset="0" stop-color="#df4e15"/>
      <stop offset="1" stop-color="#c42e00"/>
    </linearGradient>
    <mask id="mask" x="2.1933" y="2.6236" width="19.5701" height="21.085" maskUnits="userSpaceOnUse">
      <path d="M12.1066,3.1642c5.3334,0,9.6568,3.8439,9.6568,8.5867,0,4.7426-4.3234,8.588-9.6568,8.588-5.3347,0-9.6587-3.8454-9.6587-8.588C2.4479,7.0081,6.7719,3.1642,12.1066,3.1642Z" fill="#fff"/>
    </mask>
    <linearGradient id="New_Gradient_30" data-name="New Gradient 30" x1="2.4479" y1="11.75155" x2="21.7634" y2="11.75155" gradientUnits="userSpaceOnUse">
      <stop offset="0" stop-color="#999"/>
      <stop offset=".219101" stop-color="#b2b2b2"/>
      <stop offset=".466293" stop-color="#b2b2b2"/>
      <stop offset=".769669" stop-color="#f2f2f2"/>
      <stop offset="1" stop-color="#737373"/>
    </linearGradient>
    <mask id="mask-1" x="2.9366" y="5.1384" width="18.3381" height="18.5702" maskUnits="userSpaceOnUse">
      <path d="M12.1066,5.6169c4.7981,0,8.6896,3.4623,8.6896,7.7297,0,4.2698-3.8915,7.7282-8.6896,7.7282-4.802,0-8.6915-3.4584-8.6915-7.7282,0-4.2674,3.8895-7.7297,8.6915-7.7297Z" fill="#fff" stroke="#fff" stroke-miterlimit="3.8637" stroke-width=".957"/>
    </mask>
    <linearGradient id="New_Gradient_31" data-name="New Gradient 31" x1="3.4151" y1="13.34585" x2="20.7962" y2="13.34585" gradientUnits="userSpaceOnUse">
      <stop offset="0" stop-color="#5587c0"/>
      <stop offset=".20787" stop-color="#97bae0"/>
      <stop offset=".865173" stop-color="#b3e0ff"/>
      <stop offset="1" stop-color="#5587c0"/>
    </linearGradient>
    <radialGradient id="New_Gradient_32" data-name="New Gradient 32" cx="10.1112191" cy="14.1743247" fx="10.1112191" fy="14.1743247" r="15.615133" gradientTransform="translate(-2.1072221 -9.1169) scale(.8903 1.2253)" gradientUnits="userSpaceOnUse">
      <stop offset="0" stop-color="#78dcff"/>
      <stop offset="1" stop-color="#b7e9ff"/>
    </radialGradient>
    <linearGradient id="linear-gradient" x1="5.3148401" y1="4.8564824" x2="18.3481068" y2="17.889749" gradientUnits="userSpaceOnUse">
      <stop offset="0" stop-color="gray"/>
      <stop offset=".187809" stop-color="#82868b"/>
      <stop offset=".5233754" stop-color="#8a99aa"/>
      <stop offset=".9651405" stop-color="#95b7db"/>
      <stop offset="1" stop-color="#97bae0"/>
    </linearGradient>
    <linearGradient id="New_Gradient_29" data-name="New Gradient 29" x1="5.5889447" y1="5.2348471" x2="18.6215387" y2="18.2674411" gradientUnits="userSpaceOnUse">
      <stop offset="0" stop-color="gray"/>
      <stop offset="1" stop-color="#fff"/>
    </linearGradient>
    <mask id="mask-2" x="3.4151" y="7.3670197" width="17.3811" height="16.3415803" maskUnits="userSpaceOnUse">
      <path d="M9.2435,7.4146c1.6354-.2736,3.0689.6603,3.1966,2.0932.1276,1.4303-1.0962,2.8149-2.7342,3.0924-1.6366.2735-3.0682-.6604-3.1972-2.0907-.1256-1.4328,1.0955-2.8162,2.7348-3.0949Z" fill="#fff"/>
    </mask>
  </defs>
  <g>
    <path d="M28.6645,25.8748c-1.1985-1.197-2.4892-2.4866-4.2797-4.2777-.7484-.7489-1.621-.9313-2.428-.7672l-1.9422-1.9434c1.0987-1.3951,1.7488-3.0884,1.7488-4.9213v-.7763h-.1452c.0885-.4676.1452-.947.1452-1.438,0-.7634-.1231-1.4992-.3334-2.204-.2958-1.0499-.7928-2.0164-1.4551-2.8632-1.7363-2.4775-4.791-4.0601-8.1437-4.0601C6.6689,2.6236,2.1933,6.362,2.1933,11.3732c0,.6902.0924,1.3546.2533,1.9903.0007.1953.0013.3842.0013.6017,0,4.7441,4.324,8.5894,9.6587,8.5894,1.924,0,3.7137-.5054,5.2195-1.3704l.0007.0026,2.1361,2.135c-.166.8075.0158,1.6816.7666,2.4319,1.7904,1.7897,3.0827,3.0793,4.2816,4.2778,1.7559,1.7558,5.9066-2.4034,4.1534-4.1567Z" stroke="#000" stroke-linecap="round" stroke-linejoin="round" stroke-width="2"/>
    <g>
      <path d="M2.4459,13.1889c.0007.2515.002.4937.002.7763,0,4.7441,4.324,8.5894,9.6587,8.5894,5.3334,0,9.6568-3.8453,9.6568-8.5894v-.7763H2.4459Z" fill="url(#New_Gradient_37)" fill-rule="evenodd"/>
      <path d="M19.8205,18.6937l3.9352,3.935c2.514,2.5154.0221,5.0085-2.4951,2.4933l-3.9332-3.9352c-1.6634-1.6621.8297-4.154,2.4931-2.4931Z" fill="url(#New_Gradient_36)"/>
      <g>
        <path d="M24.3848,21.5971c1.7905,1.7911,3.0812,3.0807,4.2797,4.2777,1.7532,1.7533-2.3975,5.9125-4.1534,4.1567-1.1989-1.1985-2.4912-2.4881-4.2816-4.2778-2.6201-2.6208,1.5358-6.7773,4.1553-4.1566Z" fill="url(#New_Gradient_35)"/>
        <path d="M20.5083,22.4152c1.5156,1.5162,2.9308,2.932,3.9956,3.9963" fill="none" stroke="#ff7845" stroke-linecap="round" stroke-miterlimit="3.8637" stroke-width="1.4356"/>
        <path d="M27.0428,25.488c1.4276-.1785,2.2586.6526,1.8359,1.834-.4239,1.1841-1.7285,2.4854-2.9113,2.9087-1.184.4221-2.0131-.409-1.834-1.8367.1791-1.4249,1.4816-2.7276,2.9094-2.906Z" fill="url(#New_Gradient_34)" stroke="#a70000" stroke-miterlimit="3.8637" stroke-width=".4785"/>
        <path d="M27.0428,25.488c1.4276-.1785,2.2586.6526,1.8359,1.834-.4239,1.1841-1.7285,2.4854-2.9113,2.9087-1.184.4221-2.0131-.409-1.834-1.8367.1791-1.4249,1.4816-2.7276,2.9094-2.906Z" fill="url(#New_Gradient_33)"/>
      </g>
      <g mask="url(#mask)">
        <g>
          <path d="M12.1066,3.1642c5.3334,0,9.6568,3.8439,9.6568,8.5867,0,4.7426-4.3234,8.588-9.6568,8.588-5.3347,0-9.6587-3.8454-9.6587-8.588C2.4479,7.0081,6.7719,3.1642,12.1066,3.1642Z" fill="url(#New_Gradient_30)"/>
          <g mask="url(#mask-1)">
            <g>
              <path d="M12.1066,5.6169c4.7981,0,8.6896,3.4623,8.6896,7.7297,0,4.2698-3.8915,7.7282-8.6896,7.7282-4.802,0-8.6915-3.4584-8.6915-7.7282,0-4.2674,3.8895-7.7297,8.6915-7.7297Z" fill="url(#New_Gradient_31)"/>
              <path d="M12.1066,8.2509c4.7981,0,8.6896,3.4596,8.6896,7.7295,0,4.2659-3.8915,7.7282-8.6896,7.7282-4.802,0-8.6915-3.4623-8.6915-7.7282,0-4.2699,3.8895-7.7295,8.6915-7.7295Z" fill="url(#New_Gradient_32)"/>
              <path d="M12.1066,5.6169c4.7981,0,8.6896,3.4623,8.6896,7.7297,0,4.2698-3.8915,7.7282-8.6896,7.7282-4.802,0-8.6915-3.4584-8.6915-7.7282,0-4.2674,3.8895-7.7297,8.6915-7.7297Z" fill="none" stroke="#69c" stroke-miterlimit="3.8637" stroke-width=".957"/>
            </g>
          </g>
          <path d="M11.8312,2.6236c5.1621,0,9.639,3.7384,9.639,8.7496,0,5.011-4.4769,8.7494-9.639,8.7494-5.1623,0-9.6379-3.7384-9.6379-8.7494C2.1933,6.362,6.6689,2.6236,11.8312,2.6236ZM11.8312,3.6358c-5.0789,0-8.9046,3.6432-8.9046,7.7374,0,4.0953,3.8257,7.7399,8.9046,7.7399,5.0787,0,8.9044-3.6446,8.9044-7.7399,0-4.0942-3.8257-7.7374-8.9044-7.7374Z" fill="url(#linear-gradient)"/>
        </g>
      </g>
      <path d="M12.1066,3.0027c5.1608,0,9.6372,3.7384,9.6372,8.7482,0,5.0097-4.4764,8.7494-9.6372,8.7494-5.1635,0-9.6404-3.7397-9.6404-8.7494C2.4662,6.7411,6.9431,3.0027,12.1066,3.0027ZM12.1066,4.0135c-5.0788,0-8.9032,3.6421-8.9032,7.7374,0,4.0967,3.8244,7.7386,8.9032,7.7386,5.0769,0,8.9032-3.6419,8.9032-7.7386,0-4.0953-3.8263-7.7374-8.9032-7.7374Z" fill="url(#New_Gradient_29)"/>
      <g mask="url(#mask-2)">
        <g>
          <path d="M9.2435,7.4146c1.6354-.2736,3.0689.6603,3.1966,2.0932.1276,1.4303-1.0962,2.8149-2.7342,3.0924-1.6366.2735-3.0682-.6604-3.1972-2.0907-.1256-1.4328,1.0955-2.8162,2.7348-3.0949Z" fill="#b3e0ff"/>
          <path d="M12.1066,8.2509c4.7981,0,8.6896,3.4596,8.6896,7.7295,0,4.2659-3.8915,7.7282-8.6896,7.7282-4.802,0-8.6915-3.4623-8.6915-7.7282,0-4.2699,3.8895-7.7295,8.6915-7.7295Z" fill="#fff"/>
        </g>
      </g>
    </g>
  </g>
  <g>
    <path d="M8.5292969,15.9619141v-4.2392578h-1.6435547v-.9990234c.2304688.0068359.4526367-.0107422.6674805-.0507812.2148438-.0410156.4077148-.1123047.5791016-.2148438.1708984-.1025391.315918-.2382812.434082-.40625s.1962891-.3769531.2333984-.6259766h1.0551758v6.5361328h-1.3256836Z" fill="#16336e"/>
    <path d="M11.722168,12.65625v-1.4375h1.4663086v1.4375h-1.4663086ZM13.1884766,14.5244141v1.4375h-1.4663086v-1.4375h1.4663086Z" fill="#16336e"/>
    <path d="M15.8496094,15.9619141v-4.2392578h-1.6435547v-.9990234c.2304688.0068359.4526367-.0107422.6674805-.0507812.2148438-.0410156.4077148-.1123047.5791016-.2148438.1708984-.1025391.315918-.2382812.434082-.40625s.1962891-.3769531.2333984-.6259766h1.0551758v6.5361328h-1.3256836Z" fill="#16336e"/>
  </g>
</svg>