<?xml version='1.0' encoding='UTF-8'?>
<svg xmlns="http://www.w3.org/2000/svg" xmlns:xlink="http://www.w3.org/1999/xlink" id="Set_5" data-name="Set 5" width="32" height="32" viewBox="0 0 32 32">
  <defs>
    <linearGradient id="linear-gradient" x1="6.3726974" y1="10.6888" x2="9.0403973" y2="10.6888" gradientUnits="userSpaceOnUse">
      <stop offset="0" stop-color="#767676"/>
      <stop offset=".2125458" stop-color="#676767"/>
      <stop offset=".7167534" stop-color="#484848"/>
      <stop offset="1" stop-color="#3d3d3d"/>
    </linearGradient>
    <linearGradient id="linear-gradient-2" x1="13.0457972" y1="9.35495" x2="15.7134972" y2="9.35495" gradientUnits="userSpaceOnUse"><stop offset="0" stop-color="#767676"/><stop offset=".2125458" stop-color="#676767"/><stop offset=".7167534" stop-color="#484848"/><stop offset="1" stop-color="#3d3d3d"/></linearGradient>
    <linearGradient id="linear-gradient-3" x1="19.7215971" x2="22.389297" y1="10.6888" y2="10.6888" gradientUnits="userSpaceOnUse"><stop offset="0" stop-color="#767676"/><stop offset=".2125458" stop-color="#676767"/><stop offset=".7167534" stop-color="#484848"/><stop offset="1" stop-color="#3d3d3d"/></linearGradient>
  </defs>
  <g opacity=".5">
    <rect x="6.3726974" y="8.0211" width="2.6676999" height="5.3354" stroke="#404040" stroke-width="2"/>
    <rect x="6.3726974" y="8.0211" width="2.6676999" height="5.3354" fill="url(#linear-gradient)"/>
  </g>
  <g opacity=".5">
    <rect x="13.0457972" y="5.3534" width="2.6676999" height="8.0031" stroke="#404040" stroke-width="2"/>
    <rect x="13.0457972" y="5.3534" width="2.6676999" height="8.0031" fill="url(#linear-gradient-2)"/>
  </g>
  <g opacity=".5">
    <rect x="19.7215971" y="8.0211" width="2.6676999" height="5.3354" stroke="#404040" stroke-width="2"/>
    <rect x="19.7215971" y="8.0211" width="2.6676999" height="5.3354" fill="url(#linear-gradient-3)"/>
  </g>
  <g>
    <rect x="3.731" y="17.3581" width="22.6753969" height="12.0046" fill="#fff"/>
    <g>
      <g>
        <rect x="19.7111971" y="28.0289" width="1.3338029" height="1.3338" fill="#c42e00"/>
        <rect x="14.3757972" y="28.0289" width="1.3338" height="1.3338" fill="#c42e00"/>
        <rect x="9.0403973" y="28.0289" width="1.3338" height="1.3338" fill="#c42e00"/>
        <rect x="3.705" y="20.0258" width="1.3337974" height="1.3338" fill="#c42e00"/>
        <rect x="3.705" y="17.3581" width="1.3337974" height="1.3338" fill="#c42e00"/>
        <rect x="3.705" y="28.0289" width="1.3337974" height="1.3338" fill="#c42e00"/>
        <rect x="3.705" y="25.3612" width="1.3337974" height="1.3338" fill="#c42e00"/>
        <rect x="22.378897" y="28.0289" width="1.3338" height="1.3338" fill="#c42e00"/>
        <rect x="17.0434971" y="28.0289" width="1.3338" height="1.3338" fill="#c42e00"/>
        <rect x="11.7080973" y="28.0289" width="1.3338" height="1.3338" fill="#c42e00"/>
        <rect x="6.3726974" y="28.0289" width="1.3338" height="1.3338" fill="#c42e00"/>
        <rect x="9.0403973" y="17.3581" width="1.3338" height="1.3338" fill="#c42e00"/>
        <rect x="14.3757972" y="17.3581" width="1.3338" height="1.3338" fill="#c42e00"/>
        <rect x="19.7111971" y="17.3581" width="1.3338029" height="1.3338" fill="#c42e00"/>
        <rect x="25.0465969" y="28.0289" width="1.3338" height="1.3338" fill="#c42e00"/>
        <rect x="25.0465969" y="25.3612" width="1.3338" height="1.3338" fill="#c42e00"/>
        <rect x="25.0465969" y="17.3581" width="1.3338" height="1.3338" fill="#c42e00"/>
        <rect x="25.0465969" y="22.6935" width="1.3338" height="1.3338" fill="#c42e00"/>
        <rect x="3.705" y="22.6935" width="1.3337974" height="1.3338" fill="#c42e00"/>
        <rect x="3.705" y="20.0258" width="1.3337974" height="1.3338" fill="#c42e00"/>
        <rect x="25.0465969" y="20.0258" width="1.3338" height="1.3338" fill="#c42e00"/>
        <rect x="6.3726974" y="17.3581" width="1.3338" height="1.3338" fill="#c42e00"/>
        <rect x="11.7080973" y="17.3581" width="1.3338" height="1.3338" fill="#c42e00"/>
        <rect x="17.0434971" y="17.3581" width="1.3338" height="1.3338" fill="#c42e00"/>
        <rect x="22.378897" y="17.3581" width="1.3338" height="1.3338" fill="#c42e00"/>
      </g>
      <g>
        <path d="M8.0268974,24.452l-.7248,2.032h-.9294l2.3680999-6.4582h1.0844l2.3791999,6.4582h-.962l-.7451-2.032h-2.4703999ZM10.311,23.8007l-.6916027-1.8602c-.1433-.4193-.2476-.8049-.3511-1.1775h-.0312c-.0944.3726-.2070973.7764-.342,1.1671l-.6819,1.8706h2.0978026Z"/>
        <path d="M13.2287972,20.2264c.3915-.086,1.0213-.1446,1.642-.1446.9007,0,1.4797.1446,1.9031.469.3608.254.5906.633.5906,1.1423,0,.633-.4572,1.1775-1.18,1.4186v.0286c.661.1433,1.4373.6512,1.4373,1.6113,0,.5522-.237.9769-.6005,1.2908-.476.4129-1.2615.6032-2.3980999.6032-.6206,0-1.0954-.0391-1.3944-.0755v-6.3437ZM14.127,22.8706h.8166972c.9417,0,1.4999-.4688,1.4999-1.0903,0-.7476-.6109-1.055-1.5202-1.055-.4148,0-.6505.03-.7963972.056v2.0893ZM14.127,25.9565c.1868972.0273.4343972.0377.7547972.0377.9307,0,1.7878-.3152,1.7878-1.2543,0-.8728-.8167-1.2453-1.7988-1.2453h-.7437972v2.4619Z"/>
        <path d="M23.692597,26.3851c-.3244.1549-.9952.3099-1.8419.3099-1.963697,0-3.4322999-1.1488-3.4322999-3.2799,0-2.0295,1.4778-3.3893,3.6386999-3.3893.8578,0,1.4173.1719,1.6556.2878l-.2286.6787c-.330097-.1511-.8167-.267-1.3969-.267-1.6323,0-2.7185999.9678-2.7185999,2.6638,0,1.5905.9821,2.5947,2.6684029,2.5947.557397,0,1.117-.1041,1.478397-.267l.1772.6683Z"/>
      </g>
    </g>
  </g>
  <g>
    <g>
      <rect x="22.378897" y="14.6904" width="1.3338" height="1.3338"/>
      <rect x="17.0434971" y="14.6904" width="1.3338" height="1.3338"/>
      <rect x="11.7080973" y="14.6904" width="1.3338" height="1.3338"/>
      <rect x="6.3726974" y="14.6904" width="1.3338" height="1.3338"/>
    </g>
    <rect x="3.7063" y="13.3565" width="22.6740969" height="1.3339"/>
  </g>
</svg>