<?xml version="1.0" encoding="UTF-8"?>
<svg id="Icons_-_24x24" data-name="Icons - 24x24" xmlns="http://www.w3.org/2000/svg" width="32" height="32" xmlns:xlink="http://www.w3.org/1999/xlink" viewBox="0 0 32 32">
  <defs>
    <linearGradient id="New_Gradient_371" data-name="New Gradient 371" x1="2.7538967" y1="17.9089" x2="22.064" y2="17.9089" gradientUnits="userSpaceOnUse">
      <stop offset="0" stop-color="#999"/>
      <stop offset=".20224" stop-color="#f2f2f2"/>
      <stop offset=".516861" stop-color="#b2b2b2"/>
      <stop offset=".769669" stop-color="#b2b2b2"/>
      <stop offset="1" stop-color="#737373"/>
    </linearGradient>
    <linearGradient id="New_Gradient_376" data-name="New Gradient 376" x1="24.3757999" y1="19.048941" x2="17.9468392" y2="25.4779017" gradientUnits="userSpaceOnUse">
      <stop offset="0" stop-color="#4c4c4c"/>
      <stop offset=".623596" stop-color="#d9d9d9"/>
      <stop offset="1" stop-color="#4c4c4c"/>
    </linearGradient>
    <linearGradient id="New_Gradient_377" data-name="New Gradient 377" x1="28.8655647" y1="21.0807011" x2="19.9787317" y2="29.9675341" gradientUnits="userSpaceOnUse">
      <stop offset="0" stop-color="#a70000"/>
      <stop offset=".662918" stop-color="#df4e15"/>
      <stop offset="1" stop-color="#740000"/>
    </linearGradient>
    <linearGradient id="New_Gradient_146" data-name="New Gradient 146" x1="25.7661903" y1="26.1780901" x2="27.7856371" y2="29.4098806" gradientUnits="userSpaceOnUse">
      <stop offset="0" stop-color="#df4e15"/>
      <stop offset="1" stop-color="#c42e00"/>
    </linearGradient>
    <linearGradient id="New_Gradient_378" data-name="New Gradient 378" x1="25.7661903" y1="26.1780901" x2="27.7856371" y2="29.4098806" gradientUnits="userSpaceOnUse">
      <stop offset="0" stop-color="#df4e15"/>
      <stop offset="1" stop-color="#c42e00"/>
    </linearGradient>
    <mask id="mask" x="2.5014967" y="2.6665" width="19.5625033" height="21.0772" maskUnits="userSpaceOnUse">
      <path d="M12.4105965,3.207c5.3315999,0,9.6534035,3.8423,9.6534035,8.5835,0,4.7408-4.3218037,8.5845-9.6534035,8.5845-5.3324999,0-9.6546998-3.8437-9.6546998-8.5845C2.7558967,7.0493,7.0780966,3.207,12.4105965,3.207Z" fill="#fff"/>
    </mask>
    <linearGradient id="New_Gradient_372" data-name="New Gradient 372" x1="2.7558967" y1="11.791" x2="22.064" y2="11.791" gradientUnits="userSpaceOnUse">
      <stop offset="0" stop-color="#999"/>
      <stop offset=".219101" stop-color="#b2b2b2"/>
      <stop offset=".466293" stop-color="#b2b2b2"/>
      <stop offset=".769669" stop-color="#f2f2f2"/>
      <stop offset="1" stop-color="#737373"/>
    </linearGradient>
    <mask id="mask-1" x="3.2441967" y="5.1802" width="18.3314996" height="18.5635" maskUnits="userSpaceOnUse">
      <path d="M12.4105965,5.6587c4.7964035,0,8.6865998,3.4609,8.6865998,7.7266,0,4.2685-3.8901962,7.7255-8.6865998,7.7255-4.7997999,0-8.6878998-3.457-8.6878998-7.7255,0-4.2657,3.8880999-7.7266,8.6878998-7.7266Z" fill="#fff" stroke="#fff" stroke-miterlimit="3.8637" stroke-width=".957"/>
    </mask>
    <linearGradient id="New_Gradient_373" data-name="New Gradient 373" x1="3.7226967" y1="13.38475" x2="21.0971962" y2="13.38475" gradientUnits="userSpaceOnUse">
      <stop offset="0" stop-color="#5587c0"/>
      <stop offset=".20787" stop-color="#97bae0"/>
      <stop offset=".865173" stop-color="#b3e0ff"/>
      <stop offset="1" stop-color="#5587c0"/>
    </linearGradient>
    <radialGradient id="New_Gradient_374" data-name="New Gradient 374" cx="26.2269949" cy="37.7432466" fx="26.2269949" fy="37.7432466" r="15.6093508" gradientTransform="translate(-16.1488221 -37.9553) scale(.8903 1.2253)" gradientUnits="userSpaceOnUse">
      <stop offset="0" stop-color="#78dcff"/>
      <stop offset="1" stop-color="#b7e9ff"/>
    </radialGradient>
    <linearGradient id="linear-gradient" x1="5.621726" y1="4.8986146" x2="18.6498979" y2="17.9267865" gradientUnits="userSpaceOnUse">
      <stop offset="0" stop-color="gray"/>
      <stop offset=".187809" stop-color="#82868b"/>
      <stop offset=".5233754" stop-color="#8a99aa"/>
      <stop offset=".9651405" stop-color="#95b7db"/>
      <stop offset="1" stop-color="#97bae0"/>
    </linearGradient>
    <linearGradient id="New_Gradient_375" data-name="New Gradient 375" x1="5.8955955" y1="5.2768564" x2="18.9233231" y2="18.304584" gradientUnits="userSpaceOnUse">
      <stop offset="0" stop-color="gray"/>
      <stop offset="1" stop-color="#fff"/>
    </linearGradient>
    <mask id="mask-2" x="3.7226967" y="7.408039" width="17.3744996" height="16.335661" maskUnits="userSpaceOnUse">
      <path d="M9.5487965,7.4556c1.6348-.2735,3.0678999.6601,3.1952999,2.0927.1275,1.4297-1.0957,2.8135-2.7328999,3.0909-1.6361965.2734-3.0673999-.6602-3.1962999-2.0899-.1254-1.4321,1.0953-2.8149,2.7338999-3.0937Z" fill="#fff"/>
    </mask>
  </defs>
  <g>
    <path d="M28.962396,25.9087c-1.1982-1.1963-2.4882999-2.4854-4.2782999-4.2759-.7480961-.7485-1.6200961-.9311-2.4267999-.7671l-1.9414-1.9424c1.0982-1.3945,1.7481037-3.0874,1.7481037-4.9194v-.7759h-.1455038c.0888-.4677.1455038-.9467.1455038-1.4375,0-.7632-.1231038-1.499-.3335038-2.2031-.2954-1.0498-.7924962-2.0156-1.4546-2.8623-1.7354-2.4766-4.7890999-4.0586-8.1405998-4.0586C6.9750966,2.6665,2.5014967,6.4038,2.5014967,11.4126c0,.6904.0923,1.3545.2529,1.9897.001.1954.0015.3843.0015.6016,0,4.7422,4.3221999,8.5859,9.6546998,8.5859,1.9234035,0,3.7124035-.5053,5.2177999-1.3696l.0005.0025,2.1352999,2.1342c-.1661.8072.0156,1.6807.7666,2.4307,1.7895,1.7891,3.0809999,3.0781,4.2796999,4.2764,1.7554,1.7548,5.9042999-2.4024,4.1518999-4.1553Z" stroke="#000" stroke-linecap="round" stroke-linejoin="round" stroke-width="2"/>
    <g>
      <path d="M2.7538967,13.228c.0005.251.002.4932.002.7759,0,4.7422,4.3221999,8.5859,9.6546998,8.5859,5.3315999,0,9.6534035-3.8437,9.6534035-8.5859v-.7759H2.7538967Z" fill="url(#New_Gradient_371)" fill-rule="evenodd"/>
      <path d="M20.1215963,18.7305l3.9335999,3.9336c2.5131999,2.5141.0224,5.0063-2.4941962,2.4922l-3.9316037-3.9336c-1.6626-1.6617.8296037-4.1524,2.4921999-2.4922Z" fill="url(#New_Gradient_376)"/>
      <g>
        <path d="M24.6840961,21.6328c1.79,1.7905,3.0800999,3.0796,4.2782999,4.2759,1.7524,1.7529-2.3964999,5.9101-4.1518999,4.1553-1.1987-1.1983-2.4901999-2.4873-4.2796999-4.2764-2.6191999-2.6196,1.5351-6.7744,4.1532999-4.1548Z" fill="url(#New_Gradient_377)"/>
        <path d="M20.8090962,22.4507c1.5151,1.5156,2.9296999,2.9306,3.9940999,3.9946" fill="none" stroke="#ff7845" stroke-linecap="round" stroke-miterlimit="3.8637" stroke-width="1.4356"/>
        <path d="M27.3412961,25.522c1.4268-.1782,2.2577999.6523,1.835,1.8335-.4239,1.1836-1.7276,2.4843-2.9101999,2.9077-1.1836.4219-2.0121999-.4092-1.833-1.836.1787-1.4248,1.481-2.7265,2.9081999-2.9052Z" fill="url(#New_Gradient_146)" stroke="#a70000" stroke-miterlimit="3.8637" stroke-width=".4785"/>
        <path d="M27.3412961,25.522c1.4268-.1782,2.2577999.6523,1.835,1.8335-.4239,1.1836-1.7276,2.4843-2.9101999,2.9077-1.1836.4219-2.0121999-.4092-1.833-1.836.1787-1.4248,1.481-2.7265,2.9081999-2.9052Z" fill="url(#New_Gradient_378)"/>
      </g>
      <g mask="url(#mask)">
        <g>
          <path d="M12.4105965,3.207c5.3315999,0,9.6534035,3.8423,9.6534035,8.5835,0,4.7408-4.3218037,8.5845-9.6534035,8.5845-5.3324999,0-9.6546998-3.8437-9.6546998-8.5845C2.7558967,7.0493,7.0780966,3.207,12.4105965,3.207Z" fill="url(#New_Gradient_372)"/>
          <g mask="url(#mask-1)">
            <g>
              <path d="M12.4105965,5.6587c4.7964035,0,8.6865998,3.4609,8.6865998,7.7266,0,4.2685-3.8901962,7.7255-8.6865998,7.7255-4.7997999,0-8.6878998-3.457-8.6878998-7.7255,0-4.2657,3.8880999-7.7266,8.6878998-7.7266Z" fill="url(#New_Gradient_373)"/>
              <path d="M12.4105965,8.2915c4.7964035,0,8.6865998,3.4585,8.6865998,7.7266,0,4.2646-3.8901962,7.7256-8.6865998,7.7256-4.7997999,0-8.6878998-3.461-8.6878998-7.7256,0-4.2681,3.8880999-7.7266,8.6878998-7.7266Z" fill="url(#New_Gradient_374)"/>
              <path d="M12.4105965,5.6587c4.7964035,0,8.6865998,3.4609,8.6865998,7.7266,0,4.2685-3.8901962,7.7255-8.6865998,7.7255-4.7997999,0-8.6878998-3.457-8.6878998-7.7255,0-4.2657,3.8880999-7.7266,8.6878998-7.7266Z" fill="none" stroke="#69c" stroke-miterlimit="3.8637" stroke-width=".957"/>
            </g>
          </g>
          <path d="M12.1352965,2.6665c5.1600999,0,9.6357035,3.7373,9.6357035,8.7461,0,5.0093-4.4756037,8.7461-9.6357035,8.7461-5.1601999,0-9.6337998-3.7368-9.6337998-8.7461C2.5014967,6.4038,6.9750966,2.6665,12.1352965,2.6665ZM12.1352965,3.6782c-5.0766999,0-8.9008998,3.6421-8.9008998,7.7344,0,4.0937,3.8241999,7.7373,8.9008998,7.7373,5.0770999,0,8.9012998-3.6436,8.9012998-7.7373,0-4.0923-3.8241999-7.7344-8.9012998-7.7344Z" fill="url(#linear-gradient)"/>
        </g>
      </g>
      <path d="M12.4105965,3.0454c5.1591999,0,9.6337998,3.7373,9.6337998,8.7451s-4.4745999,8.7461-9.6337998,8.7461c-5.1610999,0-9.6366998-3.7383-9.6366998-8.7461S7.2494966,3.0454,12.4105965,3.0454ZM12.4105965,4.0562c-5.0765965,0-8.8993998,3.6406-8.8993998,7.7343,0,4.0948,3.8228033,7.7354,8.8993998,7.7354,5.0751999,0,8.8998998-3.6406,8.8998998-7.7354,0-4.0937-3.8246999-7.7343-8.8998998-7.7343Z" fill="url(#New_Gradient_375)"/>
      <g mask="url(#mask-2)">
        <g>
          <path d="M9.5487965,7.4556c1.6348-.2735,3.0678999.6601,3.1952999,2.0927.1275,1.4297-1.0957,2.8135-2.7328999,3.0909-1.6361965.2734-3.0673999-.6602-3.1962999-2.0899-.1254-1.4321,1.0953-2.8149,2.7338999-3.0937Z" fill="#b3e0ff"/>
          <path d="M12.4105965,8.2915c4.7964035,0,8.6865998,3.4585,8.6865998,7.7266,0,4.2646-3.8901962,7.7256-8.6865998,7.7256-4.7997999,0-8.6878998-3.461-8.6878998-7.7256,0-4.2681,3.8880999-7.7266,8.6878998-7.7266Z" fill="#fff"/>
        </g>
      </g>
    </g>
  </g>
  <g>
    <path d="M9.9790955,15.9980927h-.8203125v-5.2271957c-.197525.1884155-.4565125.3767624-.7770081.5651016-.3205872.1884155-.6083984.329689-.8636169.4238281v-.7929688c.458725-.215683.8597717-.476944,1.203125-.7838516.3432922-.3068314.586319-.6045456.7291718-.8932266h.5286407v6.708313Z" fill="#16336e"/>
    <path d="M12.3009644,12.0925064v-.9342422h.9342499v.9342422h-.9342499ZM12.3009644,15.9980927v-.9342422h.9342499v.9342422h-.9342499Z" fill="#16336e"/>
    <path d="M17.296402,15.9980927h-.8203125v-5.2271957c-.197525.1884155-.4565125.3767624-.7770081.5651016-.3205872.1884155-.6083984.329689-.8636169.4238281v-.7929688c.458725-.215683.8597717-.476944,1.203125-.7838516.3432922-.3068314.586319-.6045456.7291718-.8932266h.5286407v6.708313Z" fill="#16336e"/>
  </g>
</svg>