<?xml version='1.0' encoding='UTF-8'?>
<svg xmlns="http://www.w3.org/2000/svg" xmlns:xlink="http://www.w3.org/1999/xlink" id="Set_5" data-name="Set 5" width="32" height="32" viewBox="0 0 32 32">
  <defs>
    <mask id="mask" x="2.7652277" y="9.3674" width="29.2706294" height="22.5689218" maskUnits="userSpaceOnUse">
      <rect x="5.00155" y="9.3674" width="22.67545" height="17.3401" fill="#fff"/>
    </mask>
    <linearGradient id="linear-gradient" x1="17.7987213" y1="12.68614" x2="13.4860694" y2="28.4992173" gradientUnits="userSpaceOnUse">
      <stop offset="0" stop-color="#f3d9b2"/>
      <stop offset="1" stop-color="#6b3200"/>
    </linearGradient>
    <linearGradient id="linear-gradient-2" x1="21.3319802" y1="11.3337754" x2="23.3384429" y2="19.0379722" gradientUnits="userSpaceOnUse">
      <stop offset="0" stop-color="#c1a35f"/>
      <stop offset="1" stop-color="#6b3200"/>
    </linearGradient>
    <linearGradient id="linear-gradient-3" x1="-18.3766391" y1="17.2407672" x2="-13.4033995" y2="36.3364705" gradientTransform="translate(28.6743) skewX(7.716581)" gradientUnits="userSpaceOnUse">
      <stop offset="0" stop-color="#fff"/>
      <stop offset="1" stop-color="#a9c3dc"/>
    </linearGradient>
    <radialGradient id="radial-gradient" cx="23.4884674" cy="13.3075895" fx="23.4884674" fy="13.3075895" r="19.918408" gradientUnits="userSpaceOnUse">
      <stop offset=".134831" stop-color="#e2be89"/>
      <stop offset=".882022" stop-color="#6b3200"/>
    </radialGradient>
    <linearGradient id="linear-gradient-4" x1="3.3959312" y1="27.7321258" x2="10.6624916" y2="21.6347577" gradientUnits="userSpaceOnUse">
      <stop offset="0" stop-color="#d68112"/>
      <stop offset=".117981" stop-color="#ebb310"/>
      <stop offset=".516861" stop-color="#fff"/>
      <stop offset=".882019" stop-color="#ebb310"/>
      <stop offset="1" stop-color="#c96b0a"/>
    </linearGradient>
    <linearGradient id="linear-gradient-5" x1="1.0002235" y1="24.7066973" x2="13.0051357" y2="24.7066973" gradientUnits="userSpaceOnUse">
      <stop offset="0" stop-color="#2b76b4"/>
      <stop offset=".117981" stop-color="#b2d6e8"/>
      <stop offset=".516861" stop-color="#fff"/>
      <stop offset=".882019" stop-color="#b2d6e8"/>
      <stop offset="1" stop-color="#2b76b4"/>
    </linearGradient>
    <mask id="mask-1" x="1.7369076" y="19.4211242" width="10.532877" height="10.5697951" maskUnits="userSpaceOnUse">
      <path d="M6.9339,19.6695c2.87165-.0495,5.2606,2.2158,5.3342,5.0632.0723,2.8527-2.1916,5.2065-5.06263,5.2572-2.87284.0561-5.2631-2.2104-5.3386-5.0591-.07096-2.8501,2.19285-5.2039,5.06703-5.2613Z" fill="#fff"/>
    </mask>
    <radialGradient id="New_Gradient_292" data-name="New Gradient 292" cx="-3.0313143" cy="39.9401244" fx="-3.0313143" fy="39.9401244" r="10.1390479" gradientTransform="translate(12.5511 -4.421) scale(.8033)" gradientUnits="userSpaceOnUse">
      <stop offset="0" stop-color="#e5e5e5"/>
      <stop offset=".280899" stop-color="#e5e5e5"/>
      <stop offset="1" stop-color="#999"/>
    </radialGradient>
    <radialGradient id="New_Gradient_293" data-name="New Gradient 293" cx="-242.4775625" cy="245.8364119" fx="-242.4775625" fy="245.8364119" r="12.0406639" gradientTransform="translate(149.1767 -86.3745) rotate(12.3499559) scale(.6115516 .5721741) skewX(12.9869962)" gradientUnits="userSpaceOnUse">
      <stop offset="0" stop-color="#fff"/>
      <stop offset=".48877" stop-color="#f2f2f2"/>
      <stop offset="1" stop-color="#ccc"/>
    </radialGradient>
    <linearGradient id="linear-gradient-6" x1="3.4906867" y1="21.1937484" x2="12.085507" y2="29.7885687" gradientUnits="userSpaceOnUse"><stop offset="0" stop-color="#2b76b4"/><stop offset=".117981" stop-color="#b2d6e8"/><stop offset=".516861" stop-color="#fff"/><stop offset=".882019" stop-color="#b2d6e8"/><stop offset="1" stop-color="#2b76b4"/></linearGradient>
  </defs>
  <rect x="5.00155" y="9.3674" width="22.67545" height="17.3401" fill="none" stroke="#000" stroke-linecap="round" stroke-linejoin="round" stroke-width="2"/>
  <g mask="url(#mask)">
    <g>
      <rect x="5.00155" y="9.3674" width="22.67545" height="17.3401" fill="url(#linear-gradient)"/>
      <g>
        <path d="M25.0581,14.9256c0,1.5396-1.2491,2.7901-2.7908,2.7901-1.5415,0-2.7907-1.2505-2.7907-2.7901,0-1.541,1.2492-2.7915,2.7907-2.7915,1.5417,0,2.7908,1.2505,2.7908,2.7915Z" fill="#c40000" stroke="#6b3200" stroke-width=".75"/>
        <path d="M25.0581,14.9256c0,1.5396-1.2491,2.7901-2.7908,2.7901-1.5415,0-2.7907-1.2505-2.7907-2.7901,0-1.541,1.2492-2.7915,2.7907-2.7915,1.5417,0,2.7908,1.2505,2.7908,2.7915Z" fill="url(#linear-gradient-2)"/>
      </g>
      <g>
        <path d="M8.88586,22.2279c1.46414-.0131,2.17204-1.0486,2.86114-1.6256.7581-.6384,2.5876-.762,2.9979-1.4902,2.3662,2.118,6.0727,2.3628,7.8156,4.5851,1.2003.3764,1.2654-.7125,2.0261-.7633.7092-.0482,1.3436.6187,2.0581,1.0485.7522.4547,1.6464.7334,2.3668,1.5593.9984,1.1463,1.2824,3.0624,1.6283,4.1018-1.952-.039-3.3927,1.3287-5.9301,1.2921-1.1424-.0156-2.6878-.4376-4.0367-.5196-1.2069-.0743-2.2652.2291-3.5475.2383-1.2408-.1654-2.5441-.3204-3.9137-.4794-2.2314-.2526-4.61965-.4193-7.19039-.4963-1.08108-.2734-1.14551-.1523-2.03585-.5639.55101-1.7324-1.34359-7.8782,2.54979-7.1227" fill="url(#linear-gradient-3)" stroke="#6f4b0a" stroke-width="2"/>
        <path d="M8.88586,22.2279c1.46414-.0131,2.17204-1.0486,2.86114-1.6256.7581-.6384,2.5876-.762,2.9979-1.4902,2.3662,2.118,6.0727,2.3628,7.8156,4.5851,1.2003.3764,1.2654-.7125,2.0261-.7633.7092-.0482,1.3436.6187,2.0581,1.0485.7522.4547,1.6464.7334,2.3668,1.5593.9984,1.1463,1.2824,3.0624,1.6283,4.1018-1.952-.039-3.3927,1.3287-5.9301,1.2921-1.1424-.0156-2.6878-.4376-4.0367-.5196-1.2069-.0743-2.2652.2291-3.5475.2383-1.2408-.1654-2.5441-.3204-3.9137-.4794-2.2314-.2526-4.61965-.4193-7.19039-.4963-1.08108-.2734-1.14551-.1523-2.03585-.5639.55101-1.7324-1.34359-7.8782,2.54979-7.1227" fill="url(#radial-gradient)"/>
      </g>
    </g>
  </g>
  <g>
    <path d="M6.77571,18.7057h0c-1.62957.0312-3.13402.7047-4.22631,1.8953-1.03613,1.1293-1.584614,2.5972-1.5474,4.1409.09177,3.3502,2.88525,6.0283,6.22962,5.9658,1.6301-.0312,3.13018-.706,4.22498-1.8978,1.0375-1.1281,1.5845-2.5988,1.5467-4.1384-.0899-3.3555-2.8826-6.0284-6.22759-5.9658ZM2.91154,24.7523c0-1.0043.37388-1.9617,1.06295-2.7106.7763-.8468,1.83791-1.3223,2.99396-1.3456,2.25474-.0405,4.06595,1.6542,4.12195,3.8581.0287,1.0447-.349,2.0451-1.0621,2.8215-.7731.8427-1.83404,1.3195-2.99343,1.3391-2.25287.0429-4.06277-1.6517-4.12199-3.8545-.00134-.0377-.00134-.0755-.00134-.108Z" fill="url(#linear-gradient-4)" fill-rule="evenodd" stroke="#000" stroke-miterlimit="3.8637" stroke-width="2"/>
    <path d="M6.77571,18.7057h0c-1.62957.0312-3.13402.7047-4.22631,1.8953-1.03613,1.1293-1.584614,2.5972-1.5474,4.1409.09177,3.3502,2.88525,6.0283,6.22962,5.9658,1.6301-.0312,3.13018-.706,4.22498-1.8978,1.0375-1.1281,1.5845-2.5988,1.5467-4.1384-.0899-3.3555-2.8826-6.0284-6.22759-5.9658ZM2.91154,24.7523c0-1.0043.37388-1.9617,1.06295-2.7106.7763-.8468,1.83791-1.3223,2.99396-1.3456,2.25474-.0405,4.06595,1.6542,4.12195,3.8581.0287,1.0447-.349,2.0451-1.0621,2.8215-.7731.8427-1.83404,1.3195-2.99343,1.3391-2.25287.0429-4.06277-1.6517-4.12199-3.8545-.00134-.0377-.00134-.0755-.00134-.108Z" fill="url(#linear-gradient-5)" fill-rule="evenodd"/>
    <g mask="url(#mask-1)">
      <g>
        <path d="M6.9339,19.6695c2.87165-.0495,5.2606,2.2158,5.3342,5.0632.0723,2.8527-2.1916,5.2065-5.06263,5.2572-2.87284.0561-5.2631-2.2104-5.3386-5.0591-.07096-2.8501,2.19285-5.2039,5.06703-5.2613Z" fill="url(#New_Gradient_292)"/>
        <path d="M6.54962,19.4221c2.72639-.0535,4.99808,2.0997,5.06718,4.8065.0709,2.7095-2.08416,4.9446-4.81121,4.9954-2.72946.0522-4.99541-2.101-5.06704-4.8052-.06962-2.7119,2.08281-4.9472,4.81107-4.9967Z" fill="url(#New_Gradient_293)"/>
      </g>
    </g>
    <path d="M6.78678,19.4899c2.89045-.0561,5.38812,2.2664,5.46492,5.2037.0743,2.8502-2.1838,5.1791-5.03569,5.2339-2.89245.0495-5.38102-2.2743-5.46052-5.2065-.07363-2.8526,2.18058-5.1803,5.03129-5.2311ZM6.95284,19.9158c-2.71785.0508-4.86068,2.2886-4.79292,4.9655.07109,2.5921,2.20792,4.6697,4.88936,4.6176,2.72239-.0508,4.86442-2.2899,4.79482-4.9641-.0691-2.5961-2.20928-4.6712-4.89126-4.619Z" fill="url(#linear-gradient-6)" fill-rule="evenodd"/>
    <g>
      <polygon points="8.82917 22.0103 9.12235 21.9999 9.09554 20.9109 8.83571 20.9148 8.4717 21.1676 8.60522 21.3565 8.81036 21.2027 8.82917 22.0103" fill="#b2b2b2" fill-rule="evenodd"/>
      <path d="M9.90772,23.2635l.79268-.017-.0065-.2071-.4338.009.0782-.0664c.1028-.0938.3262-.3113.3204-.5235-.0052-.2164-.1837-.3153-.4299-.3153-.0651.0052-.1668.0156-.32361.0743l.01627.224c.06963-.0404.19544-.0743.28854-.0769.0872-.0026.1563.0365.1575.129.0027.1472-.2454.3648-.46631.56l.00653.2099Z" fill="#b2b2b2" fill-rule="evenodd"/>
      <path d="M10.4842,24.3589c.0631-.0261.1543-.0469.2546-.0469.0866,0,.1889.0169.1915.1224,0,.0886-.1074.1225-.1772.1225-.0404.0065-.0743.0065-.1256.0052l.0052.1889c.0345-.0026.0741-.0039.1211-.0052.0716-.0027.2019.009.2051.1211.0027.1134-.1315.142-.2194.142-.1036.0012-.2019-.0052-.2729-.0456l-.0079.2305c.0814.0221.2.03.3218.0287.2155-.0039.4787-.0782.4715-.3464-.0059-.1342-.0918-.2176-.2246-.241l-.002-.0052c.1231-.0353.198-.12.1947-.2424-.0059-.2384-.2325-.2944-.437-.2892-.1224.0013-.2202.0183-.3205.0508l.0216.2098Z" fill="#b2b2b2" fill-rule="evenodd"/>
      <path d="M10.365,27.1334l.2709-.0078-.0052-.2085.1576-.0038-.0058-.198-.1584.0078-.0169-.6891-.3224.0052-.4239.6631.00521.2331.49169-.0131.0072.2111ZM10.3702,26.7257l-.3023.0026.2867-.4611h.0032l.0124.4585Z" fill="#b2b2b2" fill-rule="evenodd"/>
      <path d="M8.65404,27.9997c.07816-.0209.15819-.0327.23702-.0327.11725,0,.2449.0379.25143.155.0032.1382-.11137.1773-.22008.1798-.09191,0-.18434-.0156-.26771-.0547l-.00066.237c.09056.017.18754.0326.29758.0326.24356-.0064.47938-.1042.47151-.4103-.0064-.2409-.20381-.3373-.42843-.3295-.01961,0-.04695.0026-.0887.0078l-.00453-.1837.46831-.0077-.0072-.1968-.71708.017.00854.5862Z" fill="#b2b2b2" fill-rule="evenodd"/>
      <path d="M7.40088,28.0635c-.08336-.0313-.17446-.047-.28851-.0457-.36281.0052-.47872.2892-.46565.6227.00454.2735.12112.5106.43444.5054.24356-.0014.40642-.172.40242-.3726-.0052-.1992-.13405-.3452-.33986-.34-.11018.0027-.18568.0431-.23516.1147l-.002-.0013c-.00187-.1889.05148-.3178.24876-.3204.11018-.0052.18767.0208.23449.0495l.01107-.2123ZM6.92683,28.7968c-.00333-.0834.04295-.1602.13806-.1615.1035,0,.14592.0781.14712.1667.00133.0808-.04495.159-.13872.159-.09444.0012-.14526-.0795-.14646-.1642Z" fill="#b2b2b2" fill-rule="evenodd"/>
      <polygon points="4.90191 28.6027 5.22044 28.5975 5.59031 27.7327 5.58511 27.4982 4.79187 27.5111 4.79774 27.7169 5.28873 27.7105 4.90191 28.6027" fill="#b2b2b2" fill-rule="evenodd"/>
      <path d="M3.36158,26.3896c.00267.1082.09057.1981.19341.2266v.0052-.0025c-.11791.0364-.21288.1134-.20835.2709.00454.2241.19795.3088.43177.3036.23182-.0027.43177-.0991.42337-.3335-.00334-.1615-.10751-.2319-.22596-.2631l-.00133-.0014c.0951-.0404.17847-.1198.1758-.2526-.00774-.1929-.1686-.2815-.38495-.2788-.21688.0039-.41096.0911-.40376.3256ZM3.9198,26.8534c.00387.0899-.06323.1432-.14792.1432-.07683.0027-.14126-.0533-.14259-.1328-.00134-.082.05082-.129.12244-.1615.07483.0156.1654.0533.16807.1511ZM3.62795,26.3896c-.00387-.0782.05216-.129.12445-.1354.06189,0,.13018.0351.13219.1159.00266.0742-.04229.1094-.11925.1576-.07029-.0326-.13605-.0586-.13739-.1381Z" fill="#b2b2b2" fill-rule="evenodd"/>
      <path d="M2.83858,25.3684c.08337.0352.1706.047.28264.0443.36601-.0052.47939-.284.47152-.6174-.00974-.2723-.12178-.5145-.43564-.5106-.24422.0038-.40842.1758-.40509.3764.00774.1992.13806.3426.33867.3361.11204-.0013.18554-.0391.23636-.1095l.00333-.0025c.0032.1902-.05415.3151-.24756.3203-.10938.0014-.18754-.0181-.23183-.052l-.0124.2149ZM3.30943,24.6364c.00333.0846-.04228.1615-.13872.1641-.10031.0013-.14126-.0795-.14512-.1706,0-.0809.04748-.155.13471-.155.09578,0,.14793.0768.14913.1615Z" fill="#b2b2b2" fill-rule="evenodd"/>
      <g>
        <polygon points="3.16617 23.662 3.46322 23.6541 3.43388 22.564 3.17591 22.5731 2.80737 22.8205 2.94275 23.0146 3.1467 22.8622 3.16617 23.662" fill="#b2b2b2" fill-rule="evenodd"/>
        <path d="M4.04291,23.6672c.36201-.0079.41683-.2917.41096-.5757-.00987-.2788-.07749-.5614-.44163-.5562-.36348.0077-.41883.2904-.40963.5744.0084.2814.07616.5602.4403.5575ZM4.03704,23.4693c-.13165.0025-.14859-.1954-.15312-.3687-.0032-.1706.00333-.3647.13352-.3673.13285-.0026.14979.1888.15566.3621.0032.1758-.00387.3739-.13606.3739Z" fill="#b2b2b2" fill-rule="evenodd"/>
      </g>
      <g>
        <polygon points="4.5255 22.0729 4.82242 22.0729 4.79187 20.9839 4.5319 20.9852 4.16523 21.2301 4.30208 21.4267 4.50723 21.277 4.5255 22.0729" fill="#b2b2b2" fill-rule="evenodd"/>
        <polygon points="5.28486 22.0598 5.57858 22.0546 5.5487 20.9643 5.2914 20.9722 4.92472 21.2157 5.06011 21.4111 5.26539 21.2627 5.28486 22.0598" fill="#b2b2b2" fill-rule="evenodd"/>
      </g>
      <g>
        <polygon points="6.51254 21.3863 6.80105 21.3799 6.77704 20.2922 6.51974 20.2962 6.15173 20.5436 6.29045 20.7377 6.49106 20.5866 6.51254 21.3863" fill="#b2b2b2" fill-rule="evenodd"/>
        <path d="M6.92096,21.3773l.79458-.0131-.00654-.2084-.4331.0118.07883-.0678c.10217-.0924.32559-.3126.31906-.525-.0052-.2174-.18367-.3138-.42977-.3073-.06389,0-.17073.0077-.32506.0651l.01628.2279c.06709-.0404.1934-.0781.28917-.0807.08791-.0026.15633.0378.16087.1341.00266.1486-.25143.3621-.46952.5562l.0052.2072Z" fill="#b2b2b2" fill-rule="evenodd"/>
      </g>
    </g>
    <g>
      <path d="M6.63632,25.2446c.01494.5863.99705.551.98078-.0872-.0064-.3192-.29825-3.1458-.29825-3.1458l-.42723-.009-.2553,3.242Z" fill="#b2b2b2" fill-rule="evenodd"/>
      <path d="M6.72169,24.7758c-.44751.1028-.29252,1.0745.20114.9586.24756-.0533,3.08517-.6656,3.08517-.6656l-.01291-.3673-3.2734.0743Z" fill="#b2b2b2" fill-rule="evenodd"/>
      <path d="M6.41357,25.0388c.01427.5822.99518.5485.97891-.0859-.0072-.3205-.29838-3.1471-.29838-3.1471l-.4239-.009-.25663,3.242Z" fill="#a70000" fill-rule="evenodd"/>
      <path d="M6.69034,24.5009c-.44937.1029-.29171,1.0707.20128.9587.24423-.0534,3.08653-.6696,3.08653-.6696l-.01107-.3608-3.27674.0717Z" fill="red" fill-rule="evenodd"/>
    </g>
  </g>
</svg>