<?xml version="1.0" encoding="UTF-8"?>
<svg id="Set_3" data-name="Set 3" xmlns="http://www.w3.org/2000/svg" width="32" height="32" xmlns:xlink="http://www.w3.org/1999/xlink" viewBox="0 0 32 32">
  <defs>
    <linearGradient id="New_Gradient_78" data-name="New Gradient 78" x1="2.4955951" y1="17.87175" x2="21.8130946" y2="17.87175" gradientUnits="userSpaceOnUse">
      <stop offset="0" stop-color="#999"/>
      <stop offset=".20224" stop-color="#f2f2f2"/>
      <stop offset=".516861" stop-color="#b2b2b2"/>
      <stop offset=".769669" stop-color="#b2b2b2"/>
      <stop offset="1" stop-color="#737373"/>
    </linearGradient>
    <linearGradient id="New_Gradient_77" data-name="New Gradient 77" x1="24.1265415" y1="19.0115291" x2="17.6942237" y2="25.4438469" gradientUnits="userSpaceOnUse">
      <stop offset="0" stop-color="#4c4c4c"/>
      <stop offset=".623596" stop-color="#d9d9d9"/>
      <stop offset="1" stop-color="#4c4c4c"/>
    </linearGradient>
    <linearGradient id="New_Gradient_76" data-name="New Gradient 76" x1="28.6170449" y1="21.0448889" x2="19.7272178" y2="29.934716" gradientUnits="userSpaceOnUse">
      <stop offset="0" stop-color="#a70000"/>
      <stop offset=".662918" stop-color="#df4e15"/>
      <stop offset="1" stop-color="#740000"/>
    </linearGradient>
    <linearGradient id="New_Gradient_75" data-name="New Gradient 75" x1="25.5168689" y1="26.1441443" x2="27.5369427" y2="29.3769383" gradientUnits="userSpaceOnUse">
      <stop offset="0" stop-color="#df4e15"/>
      <stop offset="1" stop-color="#c42e00"/>
    </linearGradient>
    <linearGradient id="New_Gradient_56" data-name="New Gradient 56" x1="25.5168689" y1="26.1441443" x2="27.5369427" y2="29.3769383" gradientUnits="userSpaceOnUse">
      <stop offset="0" stop-color="#df4e15"/>
      <stop offset="1" stop-color="#c42e00"/>
    </linearGradient>
    <mask id="mask" x="2.243" y="2.6236" width="19.5700946" height="21.085" maskUnits="userSpaceOnUse">
      <path d="M12.1568948,3.1642c5.3327999,0,9.6561998,3.8439,9.6561998,8.5867,0,4.7426-4.3233999,8.588-9.6561998,8.588-5.3353999,0-9.6599998-3.8454-9.6599998-8.588C2.4968951,7.0081,6.821495,3.1642,12.1568948,3.1642Z" fill="#fff"/>
    </mask>
    <linearGradient id="New_Gradient_52" data-name="New Gradient 52" x1="2.4968951" y1="11.75155" x2="21.8130946" y2="11.75155" gradientUnits="userSpaceOnUse">
      <stop offset="0" stop-color="#999"/>
      <stop offset=".219101" stop-color="#b2b2b2"/>
      <stop offset=".466293" stop-color="#b2b2b2"/>
      <stop offset=".769669" stop-color="#f2f2f2"/>
      <stop offset="1" stop-color="#737373"/>
    </linearGradient>
    <mask id="mask-1" x="2.9862951" y="5.1384" width="18.3373996" height="18.5702" maskUnits="userSpaceOnUse">
      <path d="M12.1568948,5.6169c4.7974999,0,8.6882998,3.4623,8.6882998,7.7297,0,4.2698-3.8907999,7.7282-8.6882998,7.7282-4.8025999,0-8.6920998-3.4584-8.6920998-7.7282,0-4.2674,3.8894999-7.7297,8.6920998-7.7297Z" fill="#fff" stroke="#fff" stroke-miterlimit="3.8637" stroke-width=".957"/>
    </mask>
    <linearGradient id="New_Gradient_53" data-name="New Gradient 53" x1="3.4647951" y1="13.34585" x2="20.8451946" y2="13.34585" gradientUnits="userSpaceOnUse">
      <stop offset="0" stop-color="#5587c0"/>
      <stop offset=".20787" stop-color="#97bae0"/>
      <stop offset=".865173" stop-color="#b3e0ff"/>
      <stop offset="1" stop-color="#5587c0"/>
    </linearGradient>
    <radialGradient id="New_Gradient_55" data-name="New Gradient 55" cx="25.9386422" cy="14.1743247" fx="25.9386422" fy="14.1743247" r="15.6147522" gradientTransform="translate(-16.1488221 -9.1169) scale(.8903 1.2253)" gradientUnits="userSpaceOnUse">
      <stop offset="0" stop-color="#78dcff"/>
      <stop offset="1" stop-color="#b7e9ff"/>
    </radialGradient>
    <linearGradient id="linear-gradient" x1="5.3645278" y1="4.8564827" x2="18.3977938" y2="17.8897487" gradientUnits="userSpaceOnUse">
      <stop offset="0" stop-color="gray"/>
      <stop offset=".187809" stop-color="#82868b"/>
      <stop offset=".5233754" stop-color="#8a99aa"/>
      <stop offset=".9651405" stop-color="#95b7db"/>
      <stop offset="1" stop-color="#97bae0"/>
    </linearGradient>
    <linearGradient id="New_Gradient_50" data-name="New Gradient 50" x1="5.6386357" y1="5.2347578" x2="18.6714084" y2="18.2675305" gradientUnits="userSpaceOnUse">
      <stop offset="0" stop-color="gray"/>
      <stop offset="1" stop-color="#fff"/>
    </linearGradient>
    <mask id="mask-2" x="3.4647951" y="7.3670197" width="17.3803996" height="16.3415803" maskUnits="userSpaceOnUse">
      <path d="M9.2937949,7.4146c1.6348-.2736,3.0689999.6603,3.1965999,2.0932.1277,1.4303-1.0968,2.8149-2.7354999,3.0924-1.6358949.2735-3.0674999-.6604-3.1964999-2.0907-.125-1.4328,1.0955-2.8162,2.7353999-3.0949Z" fill="#fff"/>
    </mask>
  </defs>
  <g>
    <path d="M28.7141944,25.8748c-1.1985-1.197-2.4892999-2.4866-4.2789999-4.2777-.7491-.7489-1.6217-.9313-2.4279999-.7672l-1.9436-1.9434c1.0994054-1.3951,1.7495-3.0884,1.7495-4.9213v-.7763h-.1446c.0886-.4676.1446-.947.1446-1.438,0-.7634-.1238-1.4992-.3335-2.204-.2957-1.0499-.7933-2.0164-1.4551-2.8632-1.7362-2.4775-4.7908999-4.0601-8.1436998-4.0601C6.718595,2.6236,2.243,6.362,2.243,11.3732c0,.6902.0923951,1.3546.2538951,1.9903v.6017c0,4.7441,4.3245999,8.5894,9.6599998,8.5894,1.9227,0,3.7123999-.5054,5.2181999-1.3704l.0013.0026,2.1361999,2.135c-.1654.8075.0157,1.6816.7672,2.4319,1.7898,1.7897,3.0819999,3.0793,4.2803999,4.2778,1.7558055,1.7558,5.9071999-2.4034,4.1539999-4.1567Z" stroke="#000" stroke-linecap="round" stroke-linejoin="round" stroke-width="2"/>
    <g>
      <path d="M2.4955951,13.1889c.0013.2515.0013.4937.0013.7763,0,4.7441,4.3245999,8.5894,9.6599998,8.5894,5.3327999,0,9.6561998-3.8453,9.6561998-8.5894v-.7763H2.4955951Z" fill="url(#New_Gradient_78)" fill-rule="evenodd"/>
      <path d="M19.8708946,18.6937l3.9337999,3.935c2.5139999,2.5154.0234,5.0085-2.4944999,2.4933l-3.9323999-3.9352c-1.6647947-1.6621.8284-4.154,2.4930999-2.4931Z" fill="url(#New_Gradient_77)"/>
      <g>
        <path d="M24.4351945,21.5971c1.7897,1.7911,3.0804999,3.0807,4.2789999,4.2777,1.7532,1.7533-2.3981944,5.9125-4.1539999,4.1567-1.1984-1.1985-2.4905999-2.4881-4.2803999-4.2778-2.6206999-2.6208,1.5345-6.7773,4.1553999-4.1566Z" fill="url(#New_Gradient_76)"/>
        <path d="M20.5585946,22.4152c1.515,1.5162,2.9308999,2.932,3.9949999,3.9963" fill="none" stroke="#ff7845" stroke-linecap="round" stroke-miterlimit="3.8637" stroke-width="1.4356"/>
        <path d="M27.0924945,25.488c1.4276-.1785,2.2585999.6526,1.8365055,1.834-.4245056,1.1841-1.7298055,2.4854-2.9125055,2.9087-1.1828.4221-2.0125999-.409-1.8341-1.8367.1798-1.4249,1.4823-2.7276,2.9100999-2.906Z" fill="url(#New_Gradient_75)" stroke="#a70000" stroke-miterlimit="3.8637" stroke-width=".4785"/>
        <path d="M27.0924945,25.488c1.4276-.1785,2.2585999.6526,1.8365055,1.834-.4245056,1.1841-1.7298055,2.4854-2.9125055,2.9087-1.1828.4221-2.0125999-.409-1.8341-1.8367.1798-1.4249,1.4823-2.7276,2.9100999-2.906Z" fill="url(#New_Gradient_56)"/>
      </g>
      <g mask="url(#mask)">
        <g>
          <path d="M12.1568948,3.1642c5.3327999,0,9.6561998,3.8439,9.6561998,8.5867,0,4.7426-4.3233999,8.588-9.6561998,8.588-5.3353999,0-9.6599998-3.8454-9.6599998-8.588C2.4968951,7.0081,6.821495,3.1642,12.1568948,3.1642Z" fill="url(#New_Gradient_52)"/>
          <g mask="url(#mask-1)">
            <g>
              <path d="M12.1568948,5.6169c4.7974999,0,8.6882998,3.4623,8.6882998,7.7297,0,4.2698-3.8907999,7.7282-8.6882998,7.7282-4.8025999,0-8.6920998-3.4584-8.6920998-7.7282,0-4.2674,3.8894999-7.7297,8.6920998-7.7297Z" fill="url(#New_Gradient_53)"/>
              <path d="M12.1568948,8.2509c4.7974999,0,8.6882998,3.4596,8.6882998,7.7295,0,4.2659-3.8907999,7.7282-8.6882998,7.7282-4.8025999,0-8.6920998-3.4623-8.6920998-7.7282,0-4.2699,3.8894999-7.7295,8.6920998-7.7295Z" fill="url(#New_Gradient_55)"/>
              <path d="M12.1568948,5.6169c4.7974999,0,8.6882998,3.4623,8.6882998,7.7297,0,4.2698-3.8907999,7.7282-8.6882998,7.7282-4.8025999,0-8.6920998-3.4584-8.6920998-7.7282,0-4.2674,3.8894999-7.7297,8.6920998-7.7297Z" fill="none" stroke="#69c" stroke-miterlimit="3.8637" stroke-width=".957"/>
            </g>
          </g>
          <path d="M11.8807948,2.6236c5.1622052,0,9.6390998,3.7384,9.6390998,8.7496,0,5.011-4.4768946,8.7494-9.6390998,8.7494-5.1621999,0-9.6377948-3.7384-9.6377948-8.7494C2.243,6.362,6.718595,2.6236,11.8807948,2.6236ZM11.8807948,3.6358c-5.0788999,0-8.9044998,3.6432-8.9044998,7.7374,0,4.0953,3.8255999,7.7399,8.9044998,7.7399,5.0787999,0,8.9043998-3.6446,8.9043998-7.7399,0-4.0942-3.8255999-7.7374-8.9043998-7.7374Z" fill="url(#linear-gradient)"/>
        </g>
      </g>
      <path d="M12.1568948,3.0027c5.1607999,0,9.6365998,3.7384,9.6365998,8.7482,0,5.0097-4.4757999,8.7494-9.6365998,8.7494-5.1633999,0-9.6416998-3.7397-9.6416998-8.7494C2.5151951,6.7411,6.993495,3.0027,12.1568948,3.0027ZM12.1568948,4.0135c-5.0800999,0-8.9044998,3.6421-8.9044998,7.7374,0,4.0967,3.8243999,7.7386,8.9044998,7.7386,5.0762999,0,8.9018998-3.6419,8.9018998-7.7386,0-4.0953-3.8255999-7.7374-8.9018998-7.7374Z" fill="url(#New_Gradient_50)"/>
      <g mask="url(#mask-2)">
        <g>
          <path d="M9.2937949,7.4146c1.6348-.2736,3.0689999.6603,3.1965999,2.0932.1277,1.4303-1.0968,2.8149-2.7354999,3.0924-1.6358949.2735-3.0674999-.6604-3.1964999-2.0907-.125-1.4328,1.0955-2.8162,2.7353999-3.0949Z" fill="#b3e0ff"/>
          <path d="M12.1568948,8.2509c4.7974999,0,8.6882998,3.4596,8.6882998,7.7295,0,4.2659-3.8907999,7.7282-8.6882998,7.7282-4.8025999,0-8.6920998-3.4623-8.6920998-7.7282,0-4.2699,3.8894999-7.7295,8.6920998-7.7295Z" fill="#fff"/>
        </g>
      </g>
    </g>
  </g>
  <g>
    <line x1="9.1193949" y1="12.8959" x2="16.2470947" y2="12.8959" fill="none" stroke="#000" stroke-linecap="round" stroke-miterlimit="3.8637" stroke-width=".7125"/>
    <polyline points="14.5823948 14.2088 14.5823948 15.9048 18.4145947 12.8959 14.5823948 9.8843 14.5823948 11.6245"/>
    <polyline points="9.0671949 14.2088 9.0671949 15.9048 5.234895 12.8959 9.0671949 9.8843 9.0671949 11.6245"/>
  </g>
</svg>