<?xml version='1.0' encoding='UTF-8'?>
<svg xmlns="http://www.w3.org/2000/svg" xmlns:xlink="http://www.w3.org/1999/xlink" id="Icons_-_24x24" data-name="Icons - 24x24" width="32" height="32" viewBox="0 0 32 32">
  <defs>
    <linearGradient id="New_Gradient_18" data-name="New Gradient 18" x1="2.8942782" y1="16.0400131" x2="29.2907553" y2="16.0400131" gradientUnits="userSpaceOnUse">
      <stop offset="0" stop-color="#b2b2b2"/>
      <stop offset=".449432" stop-color="#b2b2b2"/>
      <stop offset=".696625" stop-color="#e5e5e5"/>
      <stop offset="1" stop-color="#e5e5e5"/>
    </linearGradient>
    <linearGradient id="linear-gradient" x1="4.8007473" y1="4.7626973" x2="27.3697279" y2="27.3316779" gradientUnits="userSpaceOnUse">
      <stop offset="0" stop-color="#87ba87"/>
      <stop offset="0" stop-color="#89b689"/>
      <stop offset="0" stop-color="#92a592"/>
      <stop offset="0" stop-color="#979c97"/>
      <stop offset="0" stop-color="#999"/>
      <stop offset=".1664031" stop-color="#9c9c9c"/>
      <stop offset=".3145137" stop-color="#a7a7a7"/>
      <stop offset=".404494" stop-color="#b2b2b2"/>
      <stop offset=".606741" stop-color="#e5e5e5"/>
      <stop offset="1" stop-color="#e5e5e5"/>
    </linearGradient>
    <linearGradient id="linear-gradient-2" x1="10.6198223" y1="10.7497169" x2="22.3104585" y2="22.4403531" gradientUnits="userSpaceOnUse">
      <stop offset="0" stop-color="#666"/>
      <stop offset=".0178513" stop-color="#6d6d6d"/>
      <stop offset=".1144914" stop-color="#949494"/>
      <stop offset=".2183295" stop-color="#b5b5b5"/>
      <stop offset=".3291794" stop-color="#d0d0d0"/>
      <stop offset=".4496279" stop-color="#e5e5e5"/>
      <stop offset=".5844797" stop-color="#f3f3f3"/>
      <stop offset=".745304" stop-color="#fcfcfc"/>
      <stop offset="1" stop-color="#fff"/>
    </linearGradient>
    <mask id="mask" x="2.5956514" y="2.5581548" width="26.6876147" height="26.6890404" maskUnits="userSpaceOnUse">
      <path d="M27.8848,11.0063c-1.2525,1.2515-3.022,1.6631-4.6177,1.2383l-10.9844,10.9859c.4248,1.5937.0108,3.3657-1.2383,4.6172-1.1909,1.1928-2.8584,1.6225-4.3921,1.2915l2.6582-2.6573-.767-2.8593-2.856-.7647-2.6802,2.6773c-.3535-1.5484.0728-3.2398,1.2779-4.4454,1.2031-1.2016,2.8842-1.6313,4.4262-1.2851l11.1324-11.1289c-.3472-1.5445.0834-3.2251,1.2827-4.4282,1.1933-1.1905,2.8579-1.6226,4.3916-1.2906l-2.6573,2.6587.7657,2.8555,2.8579.7671,2.6782-2.6797c.3545,1.5508-.0723,3.2407-1.2778,4.4477Z" fill="#fff"/>
    </mask>
    <linearGradient id="linear-gradient-3" x1="23.0283553" y1="4.1507053" x2="30.0514843" y2="11.1738343" gradientUnits="userSpaceOnUse">
      <stop offset="0" stop-color="#b2b2b2"/>
      <stop offset=".35955" stop-color="#b2b2b2"/>
      <stop offset=".55618" stop-color="#e5e5e5"/>
      <stop offset="1" stop-color="#e5e5e5"/>
    </linearGradient>
    <linearGradient id="linear-gradient-4" x1="4.2331486" y1="23.0165986" x2="11.2544411" y2="30.0378911" gradientUnits="userSpaceOnUse"><stop offset="0" stop-color="#b2b2b2"/><stop offset=".35955" stop-color="#b2b2b2"/><stop offset=".55618" stop-color="#e5e5e5"/><stop offset="1" stop-color="#e5e5e5"/></linearGradient>
    <linearGradient id="linear-gradient-5" x1="9.8842377" y1="9.8683377" x2="17.0784966" y2="17.0625966" gradientUnits="userSpaceOnUse"><stop offset="0" stop-color="#b2b2b2"/><stop offset=".35955" stop-color="#b2b2b2"/><stop offset=".55618" stop-color="#e5e5e5"/><stop offset="1" stop-color="#e5e5e5"/></linearGradient>
    <linearGradient id="New_Gradient_17" data-name="New Gradient 17" x1="10.0547763" y1="10.2210257" x2="21.7505027" y2="21.9167521" gradientUnits="userSpaceOnUse">
      <stop offset="0" stop-color="#666"/>
      <stop offset="1" stop-color="#fff"/>
    </linearGradient>
  </defs>
  <path d="M27.8906,10.9985c-1.2485,1.2515-3.0215,1.6631-4.6157,1.2373l-10.9853,10.9869c.4248,1.5937.0126,3.3647-1.2388,4.6157-1.1929,1.1929-2.8579,1.624-4.3902,1.2929l2.6563-2.6586-.7647-2.858-2.8593-.7656-2.6778,2.6797c-.3549-1.5498.0723-3.2422,1.2784-4.4492,1.2011-1.2007,2.8823-1.6279,4.4253-1.2827l11.1323-11.1314c-.3472-1.542.081-3.2241,1.2822-4.4248,1.1924-1.1924,2.8589-1.6235,4.3916-1.2915l-2.6558,2.6577.7642,2.8565,2.8584.7671,2.6787-2.6797c.3535,1.5493-.0713,3.2407-1.2798,4.4477Z" fill="url(#New_Gradient_18)" stroke="#000" stroke-linecap="round" stroke-linejoin="round" stroke-width="2"/>
  <path d="M27.8848,11.0063c-1.2525,1.2515-3.022,1.6631-4.6177,1.2383l-10.9844,10.9859c.4248,1.5937.0108,3.3657-1.2383,4.6172-1.1909,1.1928-2.8584,1.6225-4.3921,1.2915l2.6582-2.6573-.767-2.8593-2.856-.7647-2.6802,2.6773c-.3535-1.5484.0728-3.2398,1.2779-4.4454,1.2031-1.2016,2.8842-1.6313,4.4262-1.2851l11.1324-11.1289c-.3472-1.5445.0834-3.2251,1.2827-4.4282,1.1933-1.1905,2.8579-1.6226,4.3916-1.2906l-2.6573,2.6587.7657,2.8555,2.8579.7671,2.6782-2.6797c.3545,1.5508-.0723,3.2407-1.2778,4.4477Z" fill="url(#linear-gradient)"/>
  <path d="M22.3066,10.7515h0c.4742.4726.4742,1.2392,0,1.7133l-9.9682,9.9727c-.4771.4741-1.2427.4741-1.7158,0h0c-.4747-.4741-.4747-1.2397,0-1.7134l9.9707-9.9726c.4731-.4756,1.2412-.4756,1.7133,0Z" fill="url(#linear-gradient-2)" fill-rule="evenodd"/>
  <g mask="url(#mask)">
    <g>
      <g>
        <path d="M28.8711,6.2681l-2.6777,2.6797-2.399-.6431.1221.4595,2.8584.7656,2.2168-2.2158c-.002-.3506-.042-.7007-.1206-1.0459Z" fill="url(#linear-gradient-3)"/>
        <path d="M8.377,23.7915l.6406,2.3984-2.6568,2.6592c.3501.0752.7051.1079,1.0586.1055l2.1807-2.1826-.7661-2.8594-.457-.1211Z" fill="url(#linear-gradient-4)"/>
        <path d="M24.75,3.1421l.4766-.4756c-1.5332-.332-3.1997.0991-4.3907,1.292-1.2011,1.2017-1.6303,2.8813-1.2846,4.4243l-11.1294,11.1314c-1.5454-.3448-3.2266.082-4.4263,1.2827-1.207,1.2085-1.6338,2.8999-1.2793,4.4477l.4639-.4633c-.0039-1.2305.458-2.4625,1.3984-3.4009,1.2002-1.2007,2.8809-1.6289,4.4253-1.2852l11.1304-11.1279c-.3467-1.544.081-3.2266,1.2832-4.4268.9209-.9218,2.126-1.3867,3.3325-1.3984Z" fill="url(#linear-gradient-5)"/>
      </g>
      <path d="M21.7466,10.2266h0c.4741.4726.4741,1.2407,0,1.7148l-9.9717,9.9702c-.4736.4751-1.2417.4751-1.7158,0h0c-.4727-.4717-.4727-1.2397,0-1.7124l9.9722-9.9751c.4741-.4717,1.2416-.4717,1.7153.0025Z" fill="url(#New_Gradient_17)" fill-rule="evenodd"/>
    </g>
  </g>
</svg>