<?xml version="1.0" encoding="UTF-8"?>
<svg id="Set_4" data-name="Set 4" xmlns="http://www.w3.org/2000/svg" width="32" height="32" xmlns:xlink="http://www.w3.org/1999/xlink" viewBox="0 0 32 32">
  <defs>
    <radialGradient id="radial-gradient" cx="17.0412185" cy="18.0981832" fx="17.0412185" fy="18.0981832" r="18.035483" gradientTransform="translate(3.588788 .1321914) scale(.9409 .9593)" gradientUnits="userSpaceOnUse">
      <stop offset=".5" stop-color="#fff"/>
      <stop offset=".5120147" stop-color="#f4f4f4"/>
      <stop offset=".5921692" stop-color="#b4b4b4"/>
      <stop offset=".6712713" stop-color="#7d7d7d"/>
      <stop offset=".7473915" stop-color="#505050"/>
      <stop offset=".81997" stop-color="#2d2d2d"/>
      <stop offset=".8880428" stop-color="#141414"/>
      <stop offset=".9499014" stop-color="#050505"/>
      <stop offset="1" stop-color="#000"/>
    </radialGradient>
  </defs>
  <rect x="3.6925" y="4.0072" width="22.6755" height="22.6754" fill="#fff"/>
  <g>
    <g opacity=".5">
      <rect x="19.6987" y="25.3488" width="1.3339" height="1.3338"/>
      <rect x="14.3633" y="25.3488" width="1.3339" height="1.3338"/>
      <rect x="9.0279" y="25.3488" width="1.3339" height="1.3338"/>
      <rect x="3.6925" y="4.0072" width="1.3339" height="1.3338"/>
      <rect x="3.6925" y="14.678" width="1.3339" height="1.3338"/>
      <rect x="3.6925" y="20.0134" width="1.3339" height="1.3338"/>
      <rect x="3.6925" y="25.3488" width="1.3339" height="1.3338"/>
      <rect x="3.6925" y="12.0103" width="1.3339" height="1.3338"/>
      <rect x="3.6925" y="17.3457" width="1.3339" height="1.3338"/>
      <rect x="3.6925" y="22.6811" width="1.3339" height="1.3338"/>
      <rect x="22.3665" y="25.3488" width="1.3338" height="1.3338"/>
      <rect x="17.031" y="25.3488" width="1.3339" height="1.3338"/>
      <rect x="11.6956" y="25.3488" width="1.3339" height="1.3338"/>
      <rect x="6.3602" y="25.3488" width="1.3339" height="1.3338"/>
      <rect x="9.0279" y="4.0072" width="1.3339" height="1.3338"/>
      <rect x="14.3633" y="4.0072" width="1.3339" height="1.3338"/>
      <rect x="19.6987" y="4.0072" width="1.3339" height="1.3338"/>
      <rect x="25.0342" y="22.6811" width="1.3338" height="1.3338"/>
      <rect x="25.0342" y="25.3488" width="1.3338" height="1.3338"/>
      <rect x="25.0342" y="17.3457" width="1.3338" height="1.3338"/>
      <rect x="25.0342" y="12.0103" width="1.3338" height="1.3338"/>
      <rect x="25.0342" y="4.0072" width="1.3338" height="1.3338"/>
      <rect x="25.0342" y="20.0134" width="1.3338" height="1.3338"/>
      <rect x="25.0342" y="14.678" width="1.3338" height="1.3338"/>
      <rect x="3.6925" y="9.3426" width="1.3339" height="1.3338"/>
      <rect x="25.0342" y="9.3426" width="1.3338" height="1.3338"/>
      <rect x="3.6925" y="6.6749" width="1.3339" height="1.3338"/>
      <rect x="25.0342" y="6.6749" width="1.3338" height="1.3338"/>
      <rect x="6.3602" y="4.0072" width="1.3339" height="1.3338"/>
      <rect x="11.6956" y="4.0072" width="1.3339" height="1.3338"/>
      <rect x="17.031" y="4.0072" width="1.3339" height="1.3338"/>
      <rect x="22.3665" y="4.0072" width="1.3338" height="1.3338"/>
    </g>
    <path d="M8.0145,11.1011l-.7248,2.032h-.9295l2.3682-6.4582h1.0844l2.3792,6.4582h-.962l-.7451-2.032h-2.4704ZM10.2986,10.4498l-.6916-1.8602c-.1433-.4194-.2476-.805-.3511-1.1775h-.0312c-.0945.3725-.2072.7764-.342,1.1671l-.6819,1.8706h2.0978Z"/>
    <path d="M13.2164,6.8755c.3915-.0861,1.0213-.1446,1.6419-.1446.9008,0,1.4798.1446,1.9032.469.3608.2539.5906.633.5906,1.1423,0,.633-.4572,1.1775-1.1801,1.4185v.0287c.6611.1433,1.4374.6512,1.4374,1.6113,0,.5522-.237.9769-.6005,1.2908-.476.4129-1.2616.6031-2.3981.6031-.6207,0-1.0954-.0391-1.3944-.0755v-6.3436ZM14.1146,9.5197h.8167c.9417,0,1.4999-.4689,1.4999-1.0903,0-.7476-.6109-1.0551-1.5202-1.0551-.4148,0-.6505.03-.7964.0561v2.0893ZM14.1146,12.6056c.1869.0273.4344.0377.7548.0377.9306,0,1.7878-.3152,1.7878-1.2543,0-.8728-.8167-1.2453-1.7989-1.2453h-.7437v2.4619Z"/>
    <path d="M23.6802,13.0341c-.3244.155-.9952.31-1.842.31-1.9636,0-3.4322-1.1488-3.4322-3.2799,0-2.0295,1.4778-3.3893,3.6387-3.3893.8578,0,1.4172.1719,1.6556.2878l-.2286.6787c-.3301-.1512-.8167-.2671-1.397-.2671-1.6322,0-2.7185.9679-2.7185,2.6639,0,1.5904.9821,2.5947,2.6684,2.5947.5574,0,1.117-.1042,1.4784-.267l.1772.6682Z"/>
    <rect x="6.3602" y="18.6795" width="6.6693" height="1.3339"/>
  </g>
  <g>
    <path d="M17.4277,27.4837c0-.7489.6623-1.356,1.4778-1.356h5.9059c.8147,0,1.4764.6071,1.4764,1.356h0c0,.7465-.6617,1.3534-1.4764,1.3534h-5.9059c-.8155,0-1.4778-.6069-1.4778-1.3534h0Z" fill="#032c87"/>
    <path d="M25.8443,20.709c-.2442,0-.4421.4051-.4421.9026v.452c0,.2501-.1986.4507-.4442.4507-.2442,0-.4423-.2006-.4423-.4507v-1.3546c0-.4977-.1986-.904-.4422-.904-.2442,0-.4435.4063-.4435.904v.4507c0,.2501-.1981.4519-.443.4519-.2442,0-.4428-.2018-.4428-.4519v-.4507c0-.4977-.1993-.904-.4435-.904-.2436,0-.4428.4063-.4428.904v.4507c0,.2501-.1988.4519-.443.4519-.2456,0-.4429-.2018-.4429-.4519v-4.2451c0-.499-.3992-.9041-.8858-.9041-.4871,0-.885.4051-.885.9041v6.5416c0,.3334-.1296.6382-.3354.8662-.7881-.9184-.8272-2.4124-1.8686-3.5235-.3536-.3791-1.2017-.4157-1.3398-.0795-.1367.3321.1772.9079.3642,1.2857.7509,1.5175.1862,2.6298,1.6445,4.4509.0319.0404,1.2309.2474,2.0528.2474h.966c.0617,0,.1197-.009.1803-.0129.0359.0012.071.0129.1068.0129h2.658c.9749,0,2.6578-.5757,2.6578-2.381h0v-2.7108c0-.4975-.1986-.9026-.4435-.9026Z" stroke="#000" stroke-linejoin="round" stroke-width="2"/>
    <path d="M25.8443,20.864c-.2442,0-.4421.4168-.4421.9287v.465c0,.2566-.1986.4638-.4442.4638-.2442,0-.4423-.2072-.4423,0v-1.3926c0-.9769-.1986-1.395-.4422-1.395-.2442,0-.4435.4181-.4435.9301v.9287c0,.2567-.1981.465-.443.465-.2442,0-.4428-.2083-.4428-.465v-.9287c0-.512-.1993-.9301-.4435-.9301-.2436,0-.4428.4181-.4428.9301v.9287c0,.2567-.1988.465-.443.465-.2456,0-.4429-.2083-.4429-.465v-4.8521c0-.512-.3992-.9301-.8858-.9301-.4871,0-.885.4181-.885.9301v6.7474c0,.3464-.2371.1159-.4429.3517-.7881-.9445-.7197-1.9395-1.7611-3.0833-.3536-.3895-1.2017-.4259-1.3398-.082-.1367.3438.1772.9339.3642,1.3234.7509,1.5592.1862,2.7068,1.6445,4.5786.0319.0404,1.2309.254,2.0528.254h.966c.0617,0,.1197-.0091.1803-.0143.0359.0039.071.0143.1068.0143h2.658c.9749,0,2.6578-.5913,2.6578-2.4502h0v-2.7875c0-.5119-.1986-.9287-.4435-.9287Z" fill="url(#radial-gradient)"/>
  </g>
</svg>