<?xml version='1.0' encoding='UTF-8'?>
<svg xmlns="http://www.w3.org/2000/svg" xmlns:xlink="http://www.w3.org/1999/xlink" id="Icons_-_24x24" data-name="Icons - 24x24" width="32" height="32" viewBox="0 0 32 32">
  <defs>
    <mask id="mask" x="2.5805959" y="3.4448" width="16.6975451" height="20.1763" maskUnits="userSpaceOnUse">
      <path d="M15.6713956,20.5547l-8.2860998,2.0664L3.5805959,7.3555l11.6732997-2.9107,2.9531044,11.8794c.4023955,1.6133-.9643045,3.8384-2.5356044,4.2305Z" fill="#fff" fill-rule="evenodd" stroke="#fff" stroke-linecap="round" stroke-linejoin="round" stroke-width="2"/>
    </mask>
    <linearGradient id="New_Gradient_79" data-name="New Gradient 79" x1="7.3984493" y1="5.4934085" x2="15.4735264" y2="22.0497701" gradientUnits="userSpaceOnUse">
      <stop offset="0" stop-color="#e5e5e5"/>
      <stop offset="1" stop-color="#fff"/>
    </linearGradient>
    <radialGradient id="New_Gradient_80" data-name="New Gradient 80" cx="68.2474112" cy="166.8244045" fx="68.2474112" fy="166.8244045" r="5.672509" gradientTransform="translate(-62.5293249 -87.792) rotate(-14.0034092) scale(.719482)" gradientUnits="userSpaceOnUse">
      <stop offset="0" stop-color="#fff"/>
      <stop offset="1" stop-color="#ccc"/>
    </radialGradient>
    <mask id="mask-1" x="3.5805959" y="4.4448" width="15.5087996" height="18.1763" maskUnits="userSpaceOnUse">
      <path d="M15.6713956,20.5547l-8.2860998,2.0664L3.5805959,7.3555l11.6732997-2.9107,2.9531044,11.8794c.4023955,1.6133-.9643045,3.8384-2.5356044,4.2305Z" fill="#fff" fill-rule="evenodd"/>
    </mask>
    <linearGradient id="New_Gradient_77" data-name="New Gradient 77" x1="7.3984493" y1="5.4934085" x2="15.4735264" y2="22.0497701" gradientUnits="userSpaceOnUse">
      <stop offset="0" stop-color="#e5e5e5"/>
      <stop offset=".286514" stop-color="#f2f2f2"/>
      <stop offset=".646072" stop-color="#fff"/>
      <stop offset="1" stop-color="#fff"/>
    </linearGradient>
    <radialGradient id="New_Gradient_78" data-name="New Gradient 78" cx="68.2474112" cy="166.8244045" fx="68.2474112" fy="166.8244045" r="5.672509" gradientTransform="translate(-62.5293249 -87.792) rotate(-14.0034092) scale(.719482)" gradientUnits="userSpaceOnUse">
      <stop offset="0" stop-color="#e5e5e5"/>
      <stop offset=".331467" stop-color="#e5e5e5"/>
      <stop offset="1" stop-color="#999"/>
    </radialGradient>
    <mask id="mask-2" x="7.396" y="3.5601" width="15.207" height="19.27" maskUnits="userSpaceOnUse">
      <path d="M17.769,21.8301h-9.373l.0004957-17.27h13.2065043l-.0092046,13.436c0,1.8262-2.0454999,3.834-3.8247954,3.834Z" fill="#fff" fill-rule="evenodd" stroke="#fff" stroke-linecap="round" stroke-linejoin="round" stroke-width="2"/>
    </mask>
    <linearGradient id="New_Gradient_79-2" data-name="New Gradient 79" x1="10.3283691" y1="3.6178624" x2="19.6701599" y2="22.7713719" gradientUnits="userSpaceOnUse"><stop offset="0" stop-color="#e5e5e5"/><stop offset="1" stop-color="#fff"/></linearGradient>
    <radialGradient id="New_Gradient_80-2" data-name="New Gradient 80" cx="89.1963732" cy="63.9368" fx="89.1963732" fy="63.9368" r="5.6724497" gradientTransform="translate(-53.2886 -33.0732) scale(.7898)" gradientUnits="userSpaceOnUse"><stop offset="0" stop-color="#fff"/><stop offset="1" stop-color="#ccc"/></radialGradient>
    <mask id="mask-3" x="8.396" y="4.5601" width="13.2250954" height="17.3344" maskUnits="userSpaceOnUse">
      <path d="M17.769,21.8301h-9.373l.0004957-17.27h13.2065043l-.0092046,13.436c0,1.8262-2.0454999,3.834-3.8247954,3.834Z" fill="#fff" fill-rule="evenodd"/>
    </mask>
    <linearGradient id="New_Gradient_77-2" data-name="New Gradient 77" x1="10.3283691" y1="3.6178624" x2="19.6701599" y2="22.7713719" gradientUnits="userSpaceOnUse"><stop offset="0" stop-color="#e5e5e5"/><stop offset=".286514" stop-color="#f2f2f2"/><stop offset=".646072" stop-color="#fff"/><stop offset="1" stop-color="#fff"/></linearGradient>
    <radialGradient id="New_Gradient_78-2" data-name="New Gradient 78" cx="89.1963732" cy="63.9368" fx="89.1963732" fy="63.9368" r="5.6724497" gradientTransform="translate(-53.2886 -33.0732) scale(.7898)" gradientUnits="userSpaceOnUse"><stop offset="0" stop-color="#e5e5e5"/><stop offset=".331467" stop-color="#e5e5e5"/><stop offset="1" stop-color="#999"/></radialGradient>
    <mask id="mask-4" x="8.1078957" y="1.7993" width="23.3935995" height="26.2007" maskUnits="userSpaceOnUse">
      <path d="M20.5580954,26.748l-11.4501997-2.853L14.3686956,2.7993l16.1327996,4.0205-4.1044952,16.4112c-.5547047,2.2304-3.666,4.06-5.8389046,3.517Z" fill="#fff" fill-rule="evenodd" stroke="#fff" stroke-linecap="round" stroke-linejoin="round" stroke-width="2"/>
    </mask>
    <linearGradient id="New_Gradient_79-3" data-name="New Gradient 79" x1="13.8121045" y1="3.0707676" x2="25.6151339" y2="27.2705643" gradientUnits="userSpaceOnUse"><stop offset="0" stop-color="#e5e5e5"/><stop offset="1" stop-color="#fff"/></linearGradient>
    <radialGradient id="New_Gradient_80-3" data-name="New Gradient 80" cx="40.2465612" cy="-34.505739" fx="40.2465612" fy="-34.505739" r="5.672318" gradientTransform="translate(-25.9744 44.7851) rotate(13.9915205) skewX(-.0111829)" gradientUnits="userSpaceOnUse"><stop offset="0" stop-color="#fff"/><stop offset="1" stop-color="#ccc"/></radialGradient>
    <mask id="mask-5" x="9.1078957" y="2.7993" width="21.3935995" height="25.2007" maskUnits="userSpaceOnUse">
      <path d="M20.5580954,26.748l-11.4501997-2.853L14.3686956,2.7993l16.1327996,4.0205-4.1044952,16.4112c-.5547047,2.2304-3.666,4.06-5.8389046,3.517Z" fill="#fff" fill-rule="evenodd"/>
    </mask>
    <linearGradient id="New_Gradient_77-3" data-name="New Gradient 77" x1="13.8121045" y1="3.0707676" x2="25.6151339" y2="27.2705643" gradientUnits="userSpaceOnUse"><stop offset="0" stop-color="#e5e5e5"/><stop offset=".286514" stop-color="#f2f2f2"/><stop offset=".646072" stop-color="#fff"/><stop offset="1" stop-color="#fff"/></linearGradient>
    <radialGradient id="New_Gradient_78-3" data-name="New Gradient 78" cx="40.2465612" cy="-34.505739" fx="40.2465612" fy="-34.505739" r="5.672318" gradientTransform="translate(-25.9744 44.7851) rotate(13.9915205) skewX(-.0111829)" gradientUnits="userSpaceOnUse"><stop offset="0" stop-color="#e5e5e5"/><stop offset=".331467" stop-color="#e5e5e5"/><stop offset="1" stop-color="#999"/></radialGradient>
    <linearGradient id="linear-gradient" x1="6.4473583" y1="24.4299656" x2="18.4272527" y2="14.3776406" gradientUnits="userSpaceOnUse">
      <stop offset="0" stop-color="#d68112"/>
      <stop offset=".117981" stop-color="#ebb310"/>
      <stop offset=".516861" stop-color="#fff"/>
      <stop offset=".882019" stop-color="#ebb310"/>
      <stop offset="1" stop-color="#c96b0a"/>
    </linearGradient>
    <linearGradient id="linear-gradient-2" x1="2.4972695" y1="19.4406897" x2="22.2902756" y2="19.4406897" gradientUnits="userSpaceOnUse">
      <stop offset="0" stop-color="#2b76b4"/>
      <stop offset=".117981" stop-color="#b2d6e8"/>
      <stop offset=".516861" stop-color="#fff"/>
      <stop offset=".882019" stop-color="#b2d6e8"/>
      <stop offset="1" stop-color="#2b76b4"/>
    </linearGradient>
    <mask id="mask-6" x="3.711506" y="10.7284383" width="17.3670091" height="17.4250474" maskUnits="userSpaceOnUse">
      <path d="M12.2816956,11.1401c4.7333999-.0854,8.6733998,3.649,8.7939998,8.3423.1201,4.7036-3.6112999,8.5801-8.3495998,8.6695-4.7343999.0898-8.6757998-3.6456-8.8002998-8.3438-.1216-4.6973,3.6172041-8.5776,8.3558998-8.668Z" fill="#fff"/>
    </mask>
    <radialGradient id="New_Gradient_292" data-name="New Gradient 292" cx="17.5273052" cy="24.3489716" fx="17.5273052" fy="24.3489716" r="13.4317856" gradientUnits="userSpaceOnUse">
      <stop offset="0" stop-color="#e5e5e5"/>
      <stop offset=".280899" stop-color="#e5e5e5"/>
      <stop offset="1" stop-color="#999"/>
    </radialGradient>
    <radialGradient id="New_Gradient_293" data-name="New Gradient 293" cx="-126.4802731" cy="53.1782783" fx="-126.4802731" fy="53.1782783" r="15.9507752" gradientTransform="translate(107.2449 4.3903786) rotate(12.3491977) scale(.7612127 .7119338) skewX(12.9844293)" gradientUnits="userSpaceOnUse">
      <stop offset="0" stop-color="#fff"/>
      <stop offset=".48877" stop-color="#f2f2f2"/>
      <stop offset="1" stop-color="#ccc"/>
    </radialGradient>
    <linearGradient id="linear-gradient-3" x1="6.6033017" y1="13.6505182" x2="20.7712788" y2="27.8184952" gradientUnits="userSpaceOnUse"><stop offset="0" stop-color="#2b76b4"/><stop offset=".117981" stop-color="#b2d6e8"/><stop offset=".516861" stop-color="#fff"/><stop offset=".882019" stop-color="#b2d6e8"/><stop offset="1" stop-color="#2b76b4"/></linearGradient>
  </defs>
  <g>
    <g>
      <g>
        <g mask="url(#mask)">
          <g>
            <path d="M15.6713956,20.5547l-8.2860998,2.0664L3.5805959,7.3555l11.6732997-2.9107,2.9531044,11.8794c.4023955,1.6133-.9643045,3.8384-2.5356044,4.2305Z" fill="url(#New_Gradient_79)" fill-rule="evenodd"/>
            <path d="M15.146,20.7466s1.916-.5576,1.3812955-2.7041c1.9921999-.499,1.5748-2.2398,1.5748-2.2398l.9873,3.9595-3.9433955.9844Z" fill="url(#New_Gradient_80)" fill-rule="evenodd"/>
            <path d="M15.6713956,20.5547l-8.2860998,2.0664L3.5805959,7.3555l11.6732997-2.9107,2.9531044,11.8794c.4023955,1.6133-.9643045,3.8384-2.5356044,4.2305Z" fill="none" fill-rule="evenodd" stroke="#000" stroke-linecap="round" stroke-linejoin="round" stroke-width="2"/>
          </g>
        </g>
        <g mask="url(#mask-1)">
          <g>
            <path d="M15.6713956,20.5547l-8.2860998,2.0664L3.5805959,7.3555l11.6732997-2.9107,2.9531044,11.8794c.4023955,1.6133-.9643045,3.8384-2.5356044,4.2305Z" fill="url(#New_Gradient_77)" fill-rule="evenodd"/>
            <path d="M15.146,20.7466s1.916-.5576,1.3812955-2.7041c1.9921999-.499,1.5748-2.2398,1.5748-2.2398l.9873,3.9595-3.9433955.9844Z" fill="url(#New_Gradient_78)" fill-rule="evenodd"/>
          </g>
        </g>
      </g>
      <g>
        <path d="M7.6327958,17.5356c2.9574999-.7392,5.9164999-1.4765,8.8764998-2.2148" fill="none" stroke="#b3b3b3" stroke-linecap="round" stroke-linejoin="round" stroke-width="1.0502"/>
        <path d="M5.73,9.9023c2.959-.7377,5.917-1.4731,8.8768956-2.2114" fill="none" stroke="#b3b3b3" stroke-linecap="round" stroke-linejoin="round" stroke-width="1.0502"/>
        <path d="M6.4916958,12.9551c2.9579999-.7368,5.9164999-1.4741,8.8754998-2.211" fill="none" stroke="#b3b3b3" stroke-linecap="round" stroke-linejoin="round" stroke-width="1.0502"/>
        <path d="M6.1107958,11.4292c2.9579999-.7383,5.9169999-1.4741,8.8769998-2.2124" fill="none" stroke="#b3b3b3" stroke-linecap="round" stroke-linejoin="round" stroke-width="1.0502"/>
        <path d="M7.2523958,16.0083c2.9579999-.7383,5.9169999-1.4736,8.8764998-2.2119" fill="none" stroke="#b3b3b3" stroke-linecap="round" stroke-linejoin="round" stroke-width="1.0502"/>
        <path d="M6.8725958,14.481c2.9574999-.7369,5.9164999-1.4737,8.8758998-2.211" fill="none" stroke="#b3b3b3" stroke-linecap="round" stroke-linejoin="round" stroke-width="1.0502"/>
      </g>
    </g>
    <g>
      <g>
        <g mask="url(#mask-2)">
          <g>
            <path d="M17.769,21.8301h-9.373l.0004957-17.27h13.2065043l-.0092046,13.436c0,1.8262-2.0454999,3.834-3.8247954,3.834Z" fill="url(#New_Gradient_79-2)" fill-rule="evenodd"/>
            <path d="M17.1586955,21.8945s2.1889999-.0859,2.1889999-2.5161c2.2543999,0,2.2733999-1.9638,2.2733999-1.9638l-.0005,4.4799h-4.4618999Z" fill="url(#New_Gradient_80-2)" fill-rule="evenodd"/>
            <path d="M17.769,21.8301h-9.373l.0004957-17.27h13.2065043l-.0092046,13.436c0,1.8262-2.0454999,3.834-3.8247954,3.834Z" fill="none" fill-rule="evenodd" stroke="#000" stroke-linecap="round" stroke-linejoin="round" stroke-width="2"/>
          </g>
        </g>
        <g mask="url(#mask-3)">
          <g>
            <path d="M17.769,21.8301h-9.373l.0004957-17.27h13.2065043l-.0092046,13.436c0,1.8262-2.0454999,3.834-3.8247954,3.834Z" fill="url(#New_Gradient_77-2)" fill-rule="evenodd"/>
            <path d="M17.1586955,21.8945s2.1889999-.0859,2.1889999-2.5161c2.2543999,0,2.2733999-1.9638,2.2733999-1.9638l-.0005,4.4799h-4.4618999Z" fill="url(#New_Gradient_78-2)" fill-rule="evenodd"/>
          </g>
        </g>
      </g>
      <g>
        <path d="M10.0097957,16.4771c3.3470999,0,6.6927998.0014,10.0414997.0014" fill="none" stroke="#b3b3b3" stroke-linecap="round" stroke-linejoin="round" stroke-width="1.0502"/>
        <path d="M10.0097957,7.8438c3.3470999,0,6.6927998.0024,10.0414997.0024" fill="none" stroke="#b3b3b3" stroke-linecap="round" stroke-linejoin="round" stroke-width="1.0502"/>
        <path d="M10.0097957,11.2974c3.3470999,0,6.6927998.0014,10.0414997.0014" fill="none" stroke="#b3b3b3" stroke-linecap="round" stroke-linejoin="round" stroke-width="1.0502"/>
        <path d="M10.0097957,9.5708c3.3470999,0,6.6927998.0015,10.0414997.0015" fill="none" stroke="#b3b3b3" stroke-linecap="round" stroke-linejoin="round" stroke-width="1.0502"/>
        <path d="M10.0097957,14.7505c3.3470999,0,6.6927998.0015,10.0414997.0015" fill="none" stroke="#b3b3b3" stroke-linecap="round" stroke-linejoin="round" stroke-width="1.0502"/>
        <path d="M10.0097957,13.0249c3.3470999-.0015,6.6927998.001,10.0414997.001" fill="none" stroke="#b3b3b3" stroke-linecap="round" stroke-linejoin="round" stroke-width="1.0502"/>
      </g>
    </g>
    <g>
      <g>
        <g mask="url(#mask-4)">
          <g>
            <path d="M20.5580954,26.748l-11.4501997-2.853L14.3686956,2.7993l16.1327996,4.0205-4.1044952,16.4112c-.5547047,2.2304-3.666,4.06-5.8389046,3.517Z" fill="url(#New_Gradient_79-3)" fill-rule="evenodd"/>
            <path d="M19.793,26.6411s2.6991954.564,3.4398954-2.4043c2.7538999.6865,3.3749999-1.7095,3.3749999-1.7095l-1.3642,5.4727-5.4506953-1.3589Z" fill="url(#New_Gradient_80-3)" fill-rule="evenodd"/>
            <path d="M20.5580954,26.748l-11.4501997-2.853L14.3686956,2.7993l16.1327996,4.0205-4.1044952,16.4112c-.5547047,2.2304-3.666,4.06-5.8389046,3.517Z" fill="none" fill-rule="evenodd" stroke="#000" stroke-linecap="round" stroke-linejoin="round" stroke-width="2"/>
          </g>
        </g>
        <g mask="url(#mask-5)">
          <g>
            <path d="M20.5580954,26.748l-11.4501997-2.853L14.3686956,2.7993l16.1327996,4.0205-4.1044952,16.4112c-.5547047,2.2304-3.666,4.06-5.8389046,3.517Z" fill="url(#New_Gradient_77-3)" fill-rule="evenodd"/>
            <path d="M19.793,26.6411s2.6991954.564,3.4398954-2.4043c2.7538999.6865,3.3749999-1.7095,3.3749999-1.7095l-1.3642,5.4727-5.4506953-1.3589Z" fill="url(#New_Gradient_78-3)" fill-rule="evenodd"/>
          </g>
        </g>
      </g>
      <g>
        <path d="M12.7094956,17.8491c4.0887999,1.0181,8.1757998,2.0381,12.2665997,3.0591" fill="none" stroke="#b3b3b3" stroke-linecap="round" stroke-linejoin="round" stroke-width="1.0502"/>
        <path d="M15.3393956,7.3032c4.0877999,1.0186,8.1761998,2.0386,12.2674997,3.0596" fill="none" stroke="#b3b3b3" stroke-linecap="round" stroke-linejoin="round" stroke-width="1.0502"/>
        <path d="M14.2875956,11.521c4.0878999,1.0176,8.1757998,2.0395,12.2655997,3.0591" fill="none" stroke="#b3b3b3" stroke-linecap="round" stroke-linejoin="round" stroke-width="1.0502"/>
        <path d="M14.813,9.4121c4.0892955,1.0191,8.1757954,2.0386,12.2665953,3.0591" fill="none" stroke="#b3b3b3" stroke-linecap="round" stroke-linejoin="round" stroke-width="1.0502"/>
        <path d="M13.2357956,15.7388c4.0883999,1.0185,8.1762998,2.0405,12.2665997,3.0595" fill="none" stroke="#b3b3b3" stroke-linecap="round" stroke-linejoin="round" stroke-width="1.0502"/>
        <path d="M13.7611956,13.6289c4.0883999,1.0195,8.1762998,2.0405,12.2660997,3.061" fill="none" stroke="#b3b3b3" stroke-linecap="round" stroke-linejoin="round" stroke-width="1.0502"/>
      </g>
    </g>
  </g>
  <g>
    <path d="M12.0180957,9.5474h0c-2.6884999.0522-5.1630957,1.1611-6.9687998,3.1289-1.709,1.8574-2.6132958,4.2802-2.5487999,6.8217.1514,5.5274,4.7567999,9.939,10.2689997,9.836,2.6889999-.0532,5.1620999-1.1626,6.9706998-3.1304,1.7071-1.8584,2.6108999-4.2832,2.5468999-6.8223-.1479-5.5263-4.7543999-9.9375-10.2689997-9.8339ZM5.6483958,19.5151c0-1.6523.6187-3.2338,1.7525-4.4702,1.2793-1.3911,3.0287999-2.1758,4.9364999-2.2109,3.7177999-.0708,6.7036044,2.7226,6.7978998,6.3569.0478,1.7178-.5762,3.3721-1.751,4.6475-1.2774,1.3887-3.0263999,2.1758-4.9350999,2.208-3.7167999.0723-6.7025998-2.7202-6.7982998-6.3565-.0025-.059-.0025-.1176-.0025-.1748Z" fill="url(#linear-gradient)" fill-rule="evenodd" stroke="#000" stroke-miterlimit="3.8637" stroke-width="2"/>
    <path d="M12.0180957,9.5474h0c-2.6884999.0522-5.1630957,1.1611-6.9687998,3.1289-1.709,1.8574-2.6132958,4.2802-2.5487999,6.8217.1514,5.5274,4.7567999,9.939,10.2689997,9.836,2.6889999-.0532,5.1620999-1.1626,6.9706998-3.1304,1.7071-1.8584,2.6108999-4.2832,2.5468999-6.8223-.1479-5.5263-4.7543999-9.9375-10.2689997-9.8339ZM5.6483958,19.5151c0-1.6523.6187-3.2338,1.7525-4.4702,1.2793-1.3911,3.0287999-2.1758,4.9364999-2.2109,3.7177999-.0708,6.7036044,2.7226,6.7978998,6.3569.0478,1.7178-.5762,3.3721-1.751,4.6475-1.2774,1.3887-3.0263999,2.1758-4.9350999,2.208-3.7167999.0723-6.7025998-2.7202-6.7982998-6.3565-.0025-.059-.0025-.1176-.0025-.1748Z" fill="url(#linear-gradient-2)" fill-rule="evenodd"/>
    <g mask="url(#mask-6)">
      <g>
        <path d="M12.2816956,11.1401c4.7333999-.0854,8.6733998,3.649,8.7939998,8.3423.1201,4.7036-3.6112999,8.5801-8.3495998,8.6695-4.7343999.0898-8.6757998-3.6456-8.8002998-8.3438-.1216-4.6973,3.6172041-8.5776,8.3558998-8.668Z" fill="url(#New_Gradient_292)"/>
        <path d="M11.645,10.73c4.499-.0869,8.2421955,3.4638,8.3583955,7.9223.1162,4.4673-3.4374999,8.1519-7.9335998,8.2359-4.4989999.082-8.2396998-3.4649-8.3553998-7.9258-.1187-4.4639,3.4339999-8.1514,7.9306041-8.2324Z" fill="url(#New_Gradient_293)"/>
      </g>
    </g>
    <path d="M12.0375957,10.8384c4.7655999-.0899,8.8808998,3.7397,9.0092998,8.5771.123,4.7017-3.5981999,8.5391-8.3012998,8.6275-4.7675956.0893-8.8744998-3.7422-9.0048998-8.5786-.1211-4.7002,3.5986999-8.5386,8.2968998-8.626ZM12.3124956,11.543c-4.4823999.0844-8.0180998,3.7739-7.9022998,8.1821.1127,4.2773,3.6390999,7.6973,8.0609998,7.6123,4.4862999-.0801,8.0204998-3.7715,7.9042998-8.1831-.1133-4.2754-3.6405999-7.6939-8.0629998-7.6113Z" fill="url(#linear-gradient-3)" fill-rule="evenodd"/>
    <g>
      <polygon points="15.4062956 14.9966 15.8900956 14.9839 15.8451956 13.189 15.416 13.1929 14.8144956 13.606 15.0375956 13.9214 15.375 13.6699 15.4062956 14.9966" fill="#b2b2b2" fill-rule="evenodd"/>
      <path d="M17.1815955,17.0601l1.3106-.0249-.0098-.3414-.7153.0166.1294-.1127c.1655045-.1509.5366-.5123.5259-.8619-.0078-.3554-.3028-.519-.708-.5151-.107.0039-.2753955.02-.5367.1172l.0293045.3725c.1127955-.0683.3183955-.1264.4745955-.1323.1431-.0019.2593.0625.2618.2202.0053.2413-.4082.5982-.7701.92l.0083.3418Z" fill="#b2b2b2" fill-rule="evenodd"/>
      <path d="M18.1366955,18.8677c.103-.044.2539-.0762.4165-.0762.1441-.001.3125.0249.3174.1992,0,.146-.1787.2027-.292.2041-.0654.0064-.1235.0064-.206.003l.0083.3154c.0546-.0054.123-.0078.1997-.0098.1162-.0014.331.0161.3369.1983.0039.1894-.2163.2363-.3613.2378-.1695.0024-.3335-.0103-.4507-.0757l-.0113.3803c.1319.0406.3277.0533.5308045.0489.3534955-.0054.7875955-.1294.7753955-.5738-.0078-.2246-.1519-.3598-.3706-.3974l-.0005-.0078c.2007045-.0581.3262-.1968.3188-.3999-.0087-.3926-.3852-.4869-.7192-.479-.2051.0024-.3638.0312-.5268.0864l.0346.3462Z" fill="#b2b2b2" fill-rule="evenodd"/>
      <path d="M17.939,23.4395l.4476955-.0118-.0102-.3432.2602-.0049-.0093-.3218-.2607.0054-.0293-1.1309-.5312.0078-.6993,1.0884.0103.3833.81-.0176.0118045.3453ZM17.9486955,22.7695l-.5.0083.4727-.77h.0058l.0215.7617Z" fill="#b2b2b2" fill-rule="evenodd"/>
      <path d="M15.1166956,24.8652c.1294-.0332.2607-.0488.3916-.0507.1914-.002.4043.0561.4131.2558.0058.229-.1831.291-.3613.2964-.1524.0005-.3047-.0254-.4414-.0894l-.0015.3892c.1509.0293.3086.0547.4907.0537.4014-.0117.791-.1719.7783-.6738-.0111955-.3975-.3374-.5537-.707-.5425-.0321956.0015-.0791.0024-.1445.0137l-.0098-.3028.7705-.0131-.0083-.3247-1.1840955.0239.0136956.9643Z" fill="#b2b2b2" fill-rule="evenodd"/>
      <path d="M13.0492956,24.9741c-.1387-.0522-.289-.0776-.4726-.0742-.6016.0107-.7896.4731-.7696,1.0225.0074.4502.1973.8466.7144.8388.4028-.0058.6723-.2861.6655044-.6186-.0093044-.3257-.2236044-.5659-.5605044-.5586-.1797.0054-.3047.0703-.3863.1909l-.0039-.0015c-.0052956-.3164.0855-.5293.4082-.5337.1822-.0034.3101.0376.3872.0889l.0176-.3545ZM12.2680956,26.1821c-.0039-.1406.0717-.2656.2295-.2695.1684044,0,.2373.1309.2392.2783.002.1387-.0732.2608-.2256.2608-.1557.0048-.2411956-.1255-.2431-.2696Z" fill="#b2b2b2" fill-rule="evenodd"/>
      <polygon points="8.9281957 25.8628 9.4530957 25.853 10.064 24.4302 10.0541957 24.0435 8.7475957 24.0659 8.7577957 24.4058 9.5663957 24.3926 8.9281957 25.8628" fill="#b2b2b2" fill-rule="evenodd"/>
      <path d="M6.3905958,22.2129c.0034042.1802.1499.3262.3208.3765v.0068-.002c-.1953.0586-.354.1866-.3462.4473.0078042.3672.3277.5068.7134.501.3828-.0069.71-.1675.6983-.5498-.0058958-.2725-.1768-.3814-.3726-.4375l-.002-.002c.1568-.0649.2945-.1977.2886-.4204-.0127-.3149-.2768-.4536-.6338-.4492-.3579.0063-.6797.1479-.6665.5293ZM7.313,22.9819c.0038958.1465-.1074042.2334-.2442042.2354-.1254.0049-.2363-.0889-.2387-.2158-.0025-.1402.0874-.2149.2026-.273.125.0327.2754.0923.2803042.2534ZM6.8285958,22.2124c-.0063-.125.0889-.2148.2046-.2227.1055-.0014.2168042.0596.2207.1919.0039.1216-.0703.1851-.1968.2622-.1137-.0527-.227-.1015-.2285-.2314Z" fill="#b2b2b2" fill-rule="evenodd"/>
      <path d="M5.5253958,20.5332c.1372.0522.2847.0747.4707.0708.6016-.0068.7891-.4673.7749042-1.0176-.0127042-.4497-.2002042-.8481-.7197042-.8418-.399.0074-.6724.2891-.6646.6206.0083042.3247.2246.564.5567.5586.1855-.0053.3061-.0678.3901-.1894l.0044-.0025c.0063.3184-.0884.5284-.4082.5362-.1792.0039-.3066958-.0371-.3843-.0899l-.02.355ZM6.3021958,19.3262c.0049.1382-.0659.2656-.2265.268-.166.0039-.2334-.1298-.2398-.2793-.0005-.1352.0757-.2568.2242-.2602.1572.0015.2392.1269.2421.2715Z" fill="#b2b2b2" fill-rule="evenodd"/>
      <g>
        <polygon points="6.0678958 17.7192 6.5565958 17.7085 6.5092958 15.9116 6.0834958 15.9238 5.4770958 16.3281 5.6991958 16.6504 6.0365958 16.4019 6.0678958 17.7192" fill="#b2b2b2" fill-rule="evenodd"/>
        <path d="M7.5131958,17.7246c.5986-.0117.6914-.4805.6797-.9438-.0152-.4659-.1308958-.9273-.7281-.9175-.6001.0112-.6927958.477-.6782.9448.0142.4629.1275.9258.7266.9165ZM7.5053958,17.397c-.2178.0053-.2451-.3125-.2539-.6001-.0054-.2818.0058-.6031.2212-.606.2182-.0049.2461.3125.2553042.5967.0048958.2881-.0068042.6069-.2226042.6094Z" fill="#b2b2b2" fill-rule="evenodd"/>
      </g>
      <g>
        <polygon points="8.313 15.1021 8.7982957 15.0977 8.748 13.3013 8.3236957 13.3086 7.7172958 13.7134 7.9418958 14.0337 8.2787957 13.7856 8.313 15.1021" fill="#b2b2b2" fill-rule="evenodd"/>
        <polygon points="9.561 15.0801 10.0448957 15.0708 9.9940957 13.2754 9.5727957 13.2847 8.9662957 13.6895 9.1894957 14.0093 9.5258957 13.7642 9.561 15.0801" fill="#b2b2b2" fill-rule="evenodd"/>
      </g>
      <g>
        <polygon points="11.5853957 13.9688 12.0624957 13.9609 12.02 12.1641 11.5956957 12.1699 10.9887957 12.5801 11.2182957 12.9019 11.5512957 12.6519 11.5853957 13.9688" fill="#b2b2b2" fill-rule="evenodd"/>
        <path d="M12.2592956,13.9551l1.3095-.023-.0117-.3418-.7129.0176.1265-.1123c.1699-.1533.5396-.5127.5308-.8643-.0093-.3584-.3042-.5205-.71-.5107-.1074,0-.2803.0161-.5356.1113l.0278.375c.1108-.0659.3184-.1289.4741-.1328.1445-.0019.2603.0615.2651.2227.0049.2431-.4121.5937-.7724.915l.0088.3433Z" fill="#b2b2b2" fill-rule="evenodd"/>
      </g>
    </g>
    <g>
      <path d="M11.791,20.3286c.0238957.9644,1.6425956.9053,1.6137956-.1411-.0122-.5298-.4902-5.187-.4902-5.187l-.7032-.0142-.4203956,5.3423Z" fill="#b2b2b2" fill-rule="evenodd"/>
      <path d="M11.9320957,19.5547c-.7426.168-.4829,1.7695.3316,1.5835.4048-.0894,5.0853999-1.1045,5.0853999-1.1045l-.021-.6025-5.3959999.1235Z" fill="#b2b2b2" fill-rule="evenodd"/>
      <path d="M11.4213957,19.9863c.0254.9663,1.6411.9058,1.6138-.1406-.0123-.5288-.4903-5.188-.4903-5.188l-.7007-.0117-.4228,5.3403Z" fill="#a70000" fill-rule="evenodd"/>
      <path d="M11.8788957,19.0996c-.7402.1694-.4818957,1.7681.3325,1.5845.4019-.0899,5.0873999-1.1026,5.0873999-1.1026l-.018-.5996-5.4018999.1177Z" fill="red" fill-rule="evenodd"/>
    </g>
  </g>
</svg>