<?xml version='1.0' encoding='UTF-8'?>
<svg xmlns="http://www.w3.org/2000/svg" xmlns:xlink="http://www.w3.org/1999/xlink" width="16" height="16" viewBox="0 0 16 16">
  <defs>
    <mask id="mask" x="1.8228" y=".9756" width="13.1479" height="14.5305005" maskUnits="userSpaceOnUse">
      <path d="M8.7891,14.4561l-5.9663-1.4873L5.564,1.9756l8.4067,2.0952-2.1382,8.5522c-.2895,1.1622-1.9106,2.1153-3.0434,1.8331Z" fill="#fff" fill-rule="evenodd" stroke="#fff" stroke-linecap="round" stroke-linejoin="round" stroke-width="2"/>
    </mask>
    <linearGradient id="New_Gradient_399" data-name="New Gradient 399" x1="5.2739325" y1="2.1170754" x2="11.4246695" y2="14.7279549" gradientUnits="userSpaceOnUse">
      <stop offset="0" stop-color="#e5e5e5"/>
      <stop offset="1" stop-color="#fff"/>
    </linearGradient>
    <radialGradient id="New_Gradient_400" data-name="New Gradient 400" cx="-31.3315211" cy="-43.7560507" fx="-31.3315211" fy="-43.7560507" r="4.4322089" gradientTransform="translate(22.2377 44.7238) rotate(13.9901369) scale(.6630684) skewX(-.0167694)" gradientUnits="userSpaceOnUse">
      <stop offset="0" stop-color="#fff"/>
      <stop offset="1" stop-color="#ccc"/>
    </radialGradient>
    <mask id="mask-1" x="2.8228" y="1.9756" width="11.1479" height="13.1323" maskUnits="userSpaceOnUse">
      <path d="M8.7891,14.4561l-5.9663-1.4873L5.564,1.9756l8.4067,2.0952-2.1382,8.5522c-.2895,1.1622-1.9106,2.1153-3.0434,1.8331Z" fill="#fff" fill-rule="evenodd"/>
    </mask>
    <linearGradient id="New_Gradient_401" data-name="New Gradient 401" x1="5.2739325" y1="2.1170754" x2="11.4246695" y2="14.7279549" gradientUnits="userSpaceOnUse">
      <stop offset="0" stop-color="#e5e5e5"/>
      <stop offset=".286514" stop-color="#f2f2f2"/>
      <stop offset=".646072" stop-color="#fff"/>
      <stop offset="1" stop-color="#fff"/>
    </linearGradient>
    <radialGradient id="New_Gradient_402" data-name="New Gradient 402" cx="-31.3315211" cy="-43.7560507" fx="-31.3315211" fy="-43.7560507" r="4.4322089" gradientTransform="translate(22.2377 44.7238) rotate(13.9901369) scale(.6630684) skewX(-.0167694)" gradientUnits="userSpaceOnUse">
      <stop offset="0" stop-color="#e5e5e5"/>
      <stop offset=".331467" stop-color="#e5e5e5"/>
      <stop offset="1" stop-color="#999"/>
    </radialGradient>
    <radialGradient id="radial-gradient" cx="-51.7973597" cy="-35.6322418" fx="-51.7973597" fy="-35.6322418" r="3.9830631" gradientTransform="translate(32.3024 25.8396) scale(.4402)" gradientUnits="userSpaceOnUse">
      <stop offset=".005618" stop-color="#a70000"/>
      <stop offset=".35955" stop-color="#f5b472"/>
      <stop offset=".730337" stop-color="#ffffb3"/>
      <stop offset="1" stop-color="#fff95e"/>
    </radialGradient>
    <radialGradient id="radial-gradient-2" cx="-51.4739981" cy="-44.5431269" fx="-51.4739981" fy="-44.5431269" r="7.6607087" gradientTransform="translate(32.3024 25.8396) scale(.4402)" gradientUnits="userSpaceOnUse"><stop offset=".005618" stop-color="#a70000"/><stop offset=".35955" stop-color="#f5b472"/><stop offset=".730337" stop-color="#ffffb3"/><stop offset="1" stop-color="#fff95e"/></radialGradient>
    <mask id="mask-2" x="6.5913" y="4.5128619" width="5.2744" height="7.800583" maskUnits="userSpaceOnUse">
      <path d="M11.8618,6.4302c-.0005-.0122-.0019-.0239-.0024-.0362-.002-.0327-.0049-.0654-.0083-.0971-.0015-.0117-.003-.0235-.0044-.0357-.0044-.0322-.0093-.0649-.0147-.0962-.0019-.0087-.0029-.0171-.0049-.0258-.0078-.0391-.0161-.0777-.0263-.1153h0c0-.0205-.0025-.041-.0039-.0605-.0015-.0205-.0015-.041-.0039-.0611-.003-.02-.0083-.0395-.0122-.059-.0039-.0186-.0064-.0386-.0113-.0572-.0049-.0171-.0112-.0337-.0171-.0503-.0068-.0205-.0122-.0415-.02-.061-.0034-.0073-.0078-.0146-.0102-.0215-.1973-.459-.7251-.7773-1.0972-.9546-.4648-.2212-1.0483-.2451-1.7515-.0708-.5351.1333-.9863.3648-1.353.6905-.5796.5151-.8916,1.2197-.9292,2.1147l.5435.5425c.5444-.1353.8169-.2027,1.3613-.3379,0-.2568.0747-.5239.2246-.7993.1489-.2759.4023-.4585.7603-.5474.0405-.0097.08-.0185.1176-.0249.0205-.0039.041-.0068.0606-.0098.0146-.0014.0298-.0039.0434-.0058.0259-.002.0513-.0049.0752-.0059h.0171c.0279-.0009.0547-.0009.0806,0,.0058.0308.0102.063.0137.0952.0004.0025.0009.0049.0009.0074.003.0337.0054.0674.0054.103,0,.2051-.0654.4102-.1855.6118-.0689.1143-.1573.2305-.2686.3433-.1348.1416-.2026.2124-.3379.3535-.334.3476-.5405.6333-.6206.8564-.0806.2227-.1299.604-.1484,1.1407l.4287.4287c-.3701.1767-.6465.5669-.6465.9526,0,.0151.001.0303.0039.0464,0,.0054.0015.0107.002.0156.0019.0112.0039.022.0063.0327.0015.0064.0034.0127.0054.0191.0029.0102.0058.021.0093.0317.0019.0064.0048.0132.0078.0205.0034.0108.0073.0215.0122.0313.0029.0068.0058.0141.0097.0215.0039.0107.0098.0214.0147.0322.0039.0068.0073.0146.0112.0215.0059.0117.0122.0229.0191.0341.0039.0069.0078.0132.0117.0201.0078.0127.0161.0258.0244.0385.0034.0054.0073.0113.0107.0166.0249.0367.0523.0743.0821.1114.0034.0039.0068.0083.0102.0122.0117.0141.0235.0283.0362.0429.0048.0059.0102.0113.0156.0176.0102.0122.0215.0244.0332.0371.0058.0064.0117.0127.0176.0191.0112.0117.0229.0229.0341.0346.0064.0069.0127.0127.0191.0191.0122.0112.0234.0224.0356.0342.0069.0063.0127.0122.0196.018.0122.0118.0254.023.0376.0342.0063.0054.0131.0108.019.0171.0137.0117.0283.0234.042.0347.0059.0044.0107.0092.0166.0136.0185.0147.0361.0293.0547.043.0014.001.0029.0025.0049.0029v.0005c.0337.0601.0761.1123.1284.1558,0,.0005,0,.001.001.0015.0507.0419.1084.0766.1723.101.0025.001.0049.0015.0078.0025.0279.0102.0567.0185.0869.0249.0054.001.0108.0024.0162.0034.0332.0068.0664.0107.1015.0117.0039.001.0078,0,.0122,0,.0303.001.0616,0,.0928-.0029.0093-.0005.019-.001.0283-.002.0362-.0049.0728-.0107.1104-.02.4634-.1147.8398-.5737.8398-1.0244,0-.0278-.0014-.0557-.0044-.0825-.0005-.0059-.0019-.0117-.0024-.0171-.0029-.021-.0059-.0415-.0103-.061-.0009-.0049-.0034-.0093-.0044-.0147-.0053-.02-.0102-.04-.0175-.0591-.0005-.0034-.002-.0063-.0035-.0093-.0078-.0205-.0156-.0405-.0254-.059-.0009-.002-.0009-.0035-.0019-.0049-.0103-.0205-.022-.0401-.0342-.0591l-.0005-.0005c-.0395-.0601-.0893-.1103-.1474-.1514h0l-.0005-.0004c-.0567-.0689-.1211-.1363-.1905-.2007,0,0-.0009-.0005-.0009-.001-.0459-.0425-.0938-.0835-.1431-.1226-.001-.0005-.0015-.0009-.0019-.0019-.0235-.0176-.0464-.0347-.0694-.0518-.0029-.0019-.0049-.0039-.0078-.0053-.0478-.0352-.0972-.0674-.1455-.0962-.0039-.002-.0078-.0044-.0117-.0069-.0205-.0117-.0405-.0224-.0606-.0337-.0049-.0024-.0102-.0053-.0156-.0083-.0264-.0127-.0527-.0258-.0786-.0371.2427-.0605.46-.1142.7768-.1928.0035-.253.023-.4434.0606-.5728.0586-.2031.1777-.3984.3569-.5855.1319-.1357.1978-.2041.3296-.3408.3345-.3481.5591-.6235.6773-.8193.1977-.3262.3017-.6939.3017-1.0996,0-.0474-.001-.0928-.0039-.1372Z" fill="#fff"/>
    </mask>
  </defs>
  <g id="Layer_4" data-name="Layer 4">
    <g>
      <g mask="url(#mask)">
        <g>
          <path d="M8.7891,14.4561l-5.9663-1.4873L5.564,1.9756l8.4067,2.0952-2.1382,8.5522c-.2895,1.1622-1.9106,2.1153-3.0434,1.8331Z" fill="url(#New_Gradient_399)" fill-rule="evenodd"/>
          <path d="M8.3906,14.3999s1.4068.2939,1.7925-1.2529c1.4356.3579,1.7588-.8907,1.7588-.8907l-.7109,2.8516-2.8404-.708Z" fill="url(#New_Gradient_400)" fill-rule="evenodd"/>
          <path d="M8.7891,14.4561l-5.9663-1.4873L5.564,1.9756l8.4067,2.0952-2.1382,8.5522c-.2895,1.1622-1.9106,2.1153-3.0434,1.8331Z" fill="none" fill-rule="evenodd" stroke="#000" stroke-linecap="round" stroke-linejoin="round" stroke-width="2"/>
        </g>
      </g>
      <g mask="url(#mask-1)">
        <g>
          <path d="M8.7891,14.4561l-5.9663-1.4873L5.564,1.9756l8.4067,2.0952-2.1382,8.5522c-.2895,1.1622-1.9106,2.1153-3.0434,1.8331Z" fill="url(#New_Gradient_401)" fill-rule="evenodd"/>
          <path d="M8.3906,14.3999s1.4068.2939,1.7925-1.2529c1.4356.3579,1.7588-.8907,1.7588-.8907l-.7109,2.8516-2.8404-.708Z" fill="url(#New_Gradient_402)" fill-rule="evenodd"/>
        </g>
      </g>
    </g>
  </g>
  <g id="Layer_5" data-name="Layer 5">
    <g>
      <path d="M4.6997,9.8179c2.1304.5307,4.2607,1.063,6.3921,1.5942" fill="none" stroke="#ccc" stroke-linecap="round" stroke-linejoin="round" stroke-width="1.0502"/>
      <path d="M6.0698,4.3223c2.1304.5307,4.2608,1.0625,6.3921,1.5942" fill="none" stroke="#ccc" stroke-linecap="round" stroke-linejoin="round" stroke-width="1.0502"/>
      <path d="M5.5215,6.5205c2.1308.5308,4.2607,1.063,6.3926,1.5942" fill="none" stroke="#ccc" stroke-linecap="round" stroke-linejoin="round" stroke-width="1.0502"/>
      <path d="M5.7959,5.4214c2.1304.5307,4.2603,1.063,6.3921,1.5942" fill="none" stroke="#ccc" stroke-linecap="round" stroke-linejoin="round" stroke-width="1.0502"/>
      <path d="M4.9731,8.7188c2.1309.5307,4.2608,1.0625,6.3926,1.5942" fill="none" stroke="#ccc" stroke-linecap="round" stroke-linejoin="round" stroke-width="1.0502"/>
      <path d="M5.2476,7.6191c2.1303.5313,4.2607,1.0635,6.392,1.5948" fill="none" stroke="#ccc" stroke-linecap="round" stroke-linejoin="round" stroke-width="1.0502"/>
    </g>
  </g>
  <g id="Layer_3" data-name="Layer 3">
    <g>
      <path d="M10.0884,10.7441c-.3057-.3681-.8203-.7075-1.1309-.6308-.4643.1152-.8408.5737-.8408,1.0239,0,.2529.2896.6206.6265.8735.1352.2408.4228.3594.7578.2764.4634-.1147.8398-.5737.8398-1.0244,0-.2271-.0967-.4092-.2524-.5186Z" fill="#ecb300" stroke="#000" stroke-miterlimit="3.8637" stroke-width="2"/>
      <path d="M8.1167,11.1372c0,.4502.9194,1.2647,1.3843,1.1499.4634-.1147.8398-.5737.8398-1.0244,0-.4502-.9189-1.2647-1.3833-1.1494-.4643.1152-.8408.5737-.8408,1.0239Z" fill="url(#radial-gradient)"/>
      <path d="M11.8008,6.0239c0-.6616-.711-1.1035-1.1758-1.3252-.4648-.2212-1.0483-.2451-1.7515-.0708-.5351.1333-.9863.3648-1.353.6905-.5796.5151-.8916,1.2197-.9292,2.1147l.5435.5425c.5444-.1353.8169-.2027,1.3613-.3379,0-.2568.0747-.5239.2246-.7993.1489-.2759.4023-.4585.7603-.5474.1513-.0376.2817-.0522.3945-.0464.0127.0655.02.1333.02.2056,0,.2051-.0654.4102-.1855.6118-.0689.1143-.1573.2305-.2686.3433-.1348.1416-.2026.2124-.3379.3535-.334.3476-.5405.6333-.6206.8564-.0806.2227-.1299.604-.1484,1.1407l.5429.5424c.5049-.125.7574-.1875,1.2622-.3129.0035-.253.023-.4434.0606-.5728.0586-.2031.1777-.3984.3569-.5855.1319-.1357.1978-.2041.3296-.3408.3345-.3481.5591-.6235.6773-.8193.1977-.3262.3017-.6939.3017-1.0996,0-.2017-.0219-.3828-.0649-.5435Z" fill="#ecb300" stroke="#000" stroke-miterlimit="3.8637" stroke-width="2"/>
      <path d="M7.5205,5.3184c.3667-.3257.8179-.5572,1.353-.6905.7032-.1743,1.2867-.1504,1.7515.0708.4648.2217,1.1758.6636,1.1758,1.3252,0,.4058-.5825.774-.7793,1.1006-.1187.1953-.3438.4707-.6777.8184-.1324.1367-.1978.205-.3296.3418-.1802.186-.2984.3813-.3575.5854-.0376.1289-.7793,1.4282-.7793,1.4282l-.5429-.5424c.0185-.5367.0678-.918.1484-1.1407.0801-.2231.2866-.5088.6206-.8564.1353-.1411.2031-.2119.3379-.3535.1113-.1128.1997-.229.2686-.3433.1201-.2016.1855-.4067.1855-.6118,0-.2368-.0693-.436-.206-.5967-.1377-.1606-.3882-.1963-.7515-.1059-.3579.0888-.6109.2714-.7608.5473-.1494.2759-1.0424,1.6807-1.0424,1.6807l-.5435-.5425c.0376-.895.3496-1.5996.9292-2.1147Z" fill="url(#radial-gradient-2)"/>
      <g mask="url(#mask-2)">
        <g>
          <g>
            <path d="M8.5728,11.5938c0,.4506.3769.7221.8408.6064.4638-.1152.8403-.5737.8403-1.0239,0-.4507-.3765-.7217-.8403-.607-.4639.1153-.8408.5738-.8408,1.0245Z" fill="#ffffb3"/>
            <path d="M7.9761,5.7744c.3672-.3252.8183-.5571,1.3535-.6899.7031-.1748,1.2866-.1504,1.7519.0708.4649.2217.6978.6631.6978,1.3252,0,.4057-.1045.7734-.3022,1.1001-.1182.1958-.3428.4707-.6773.8183-.1318.1372-.1977.2056-.3291.3418-.1802.1865-.2993.3819-.3574.585-.0371.1289-.0576.3198-.0601.5727-.5053.1255-.7573.188-1.2617.313.0181-.5366.0674-.917.1475-1.1406.08-.2227.2871-.5083.6206-.856.1347-.1411.2026-.2114.3383-.353.1109-.1128.1998-.229.2686-.3437.1201-.2012.1851-.4063.1851-.6118,0-.2369-.0689-.4356-.2061-.5967-.1372-.1607-.3882-.1958-.7515-.1055-.3574.0889-.6113.2715-.7612.5474-.1484.2763-.2236.5424-.2236.7998-.5449.1352-.8164.2021-1.3613.3379.0375-.8946.3496-1.5996.9282-2.1148Z" fill="#ffffb3"/>
          </g>
          <g>
            <path d="M8.6597,11.6807c0,.4502.3764.7212.8413.6064.4634-.1147.8398-.5737.8398-1.0244,0-.4502-.3764-.7212-.8398-.6064-.4644.1152-.8413.5737-.8413,1.0244Z" fill="#ff7845"/>
            <path d="M8.063,5.8613c.3667-.3257.8188-.5576,1.353-.6899.7031-.1748,1.2876-.1514,1.7525.0708.4643.2217.6972.6631.6972,1.3252,0,.4057-.104.7734-.3017,1.0996-.1182.1958-.3428.4712-.6773.8193-.1318.1367-.1977.2051-.3296.3408-.1792.1871-.2983.3824-.3569.5855-.0376.1294-.0571.3198-.0606.5728-.5048.1254-.7573.1879-1.2622.3129.0186-.5366.0684-.917.1485-1.1406.0801-.2226.2866-.5078.6206-.8559.1348-.1412.2031-.2115.3384-.3536.1113-.1123.1997-.229.268-.3437.1206-.2012.1856-.4058.1856-.6113,0-.2373-.0689-.4356-.2066-.5967-.1367-.1607-.3872-.1958-.7509-.1055-.358.0889-.6114.2715-.7603.5474-.1499.2754-.2246.5425-.2246.7993-.5444.1352-.8169.2026-1.3613.3379.0371-.8945.3491-1.5996.9282-2.1143Z" fill="#ff7845"/>
          </g>
        </g>
      </g>
    </g>
  </g>
</svg>