<?xml version="1.0" encoding="UTF-8"?>
<svg xmlns="http://www.w3.org/2000/svg" width="16" height="16" xmlns:xlink="http://www.w3.org/1999/xlink" viewBox="0 0 16 16">
  <defs>
    <mask id="mask" x="1.8027" y=".9907" width="13.1485" height="14.5305007" maskUnits="userSpaceOnUse">
      <path d="M8.7695,14.4712l-5.9668-1.4878L5.5439,1.9907l8.4073,2.0947-2.1392,8.5528c-.2891,1.1621-1.9101,2.1152-3.0425,1.833Z" fill="#fff" fill-rule="evenodd" stroke="#fff" stroke-linecap="round" stroke-linejoin="round" stroke-width="2"/>
    </mask>
    <linearGradient id="New_Gradient_399" data-name="New Gradient 399" x1="5.2542719" y1="2.1319611" x2="11.4050331" y2="14.7428904" gradientUnits="userSpaceOnUse">
      <stop offset="0" stop-color="#e5e5e5"/>
      <stop offset="1" stop-color="#fff"/>
    </linearGradient>
    <radialGradient id="New_Gradient_400" data-name="New Gradient 400" cx="-43.4849797" cy="1.8435849" fx="-43.4849797" fy="1.8435849" r="4.432577" gradientTransform="translate(37.3561 17.3478) rotate(13.9901369) scale(.6630684) skewX(-.0167694)" gradientUnits="userSpaceOnUse">
      <stop offset="0" stop-color="#fff"/>
      <stop offset="1" stop-color="#ccc"/>
    </radialGradient>
    <mask id="mask-1" x="2.8027" y="1.9907" width="11.1485" height="13.1323" maskUnits="userSpaceOnUse">
      <path d="M8.7695,14.4712l-5.9668-1.4878L5.5439,1.9907l8.4073,2.0947-2.1392,8.5528c-.2891,1.1621-1.9101,2.1152-3.0425,1.833Z" fill="#fff" fill-rule="evenodd"/>
    </mask>
    <linearGradient id="New_Gradient_401" data-name="New Gradient 401" x1="5.2542719" y1="2.1319611" x2="11.4050331" y2="14.7428904" gradientUnits="userSpaceOnUse">
      <stop offset="0" stop-color="#e5e5e5"/>
      <stop offset=".286514" stop-color="#f2f2f2"/>
      <stop offset=".646072" stop-color="#fff"/>
      <stop offset="1" stop-color="#fff"/>
    </linearGradient>
    <radialGradient id="New_Gradient_402" data-name="New Gradient 402" cx="-43.4849797" cy="1.8435849" fx="-43.4849797" fy="1.8435849" r="4.432577" gradientTransform="translate(37.3561 17.3478) rotate(13.9901369) scale(.6630684) skewX(-.0167694)" gradientUnits="userSpaceOnUse">
      <stop offset="0" stop-color="#e5e5e5"/>
      <stop offset=".331467" stop-color="#e5e5e5"/>
      <stop offset="1" stop-color="#999"/>
    </radialGradient>
    <radialGradient id="radial-gradient" cx="-68.0861663" cy="-3.2306214" fx="-68.0861663" fy="-3.2306214" r="7.1622492" gradientTransform="translate(57.1642 10.8633) scale(.6669)" gradientUnits="userSpaceOnUse">
      <stop offset=".230337" stop-color="#f2b712"/>
      <stop offset=".44382" stop-color="#ffcd00"/>
      <stop offset=".5335957" stop-color="#fcc900"/>
      <stop offset=".6088672" stop-color="#f3bf02"/>
      <stop offset=".678882" stop-color="#e3ad06"/>
      <stop offset=".7453308" stop-color="#ce950c"/>
      <stop offset=".775281" stop-color="#c3880f"/>
    </radialGradient>
    <radialGradient id="radial-gradient-2" cx="53.7256279" cy="-61.4363731" fx="53.7256279" fy="-61.4363731" r="1.8687112" gradientTransform="translate(33.7447 86.0968) rotate(-59.0014181) scale(.9875405)" gradientUnits="userSpaceOnUse">
      <stop offset=".191011" stop-color="#ecd600"/>
      <stop offset=".612359" stop-color="#fff"/>
      <stop offset=".6721602" stop-color="#fefefb"/>
      <stop offset=".7223228" stop-color="#fdfaf1"/>
      <stop offset=".7690372" stop-color="#fcf5df"/>
      <stop offset=".8136331" stop-color="#faeec7"/>
      <stop offset=".8567796" stop-color="#f8e4a7"/>
      <stop offset=".8987707" stop-color="#f5d980"/>
      <stop offset=".9398968" stop-color="#f2cb52"/>
      <stop offset=".9792847" stop-color="#eebc1e"/>
      <stop offset="1" stop-color="#ecb300"/>
    </radialGradient>
    <radialGradient id="radial-gradient-3" cx="51.6868963" cy="-59.2978272" fx="51.6868963" fy="-59.2978272" r="3.6952994" gradientTransform="translate(33.7447 86.0968) rotate(-59.0014181) scale(.9875405)" gradientUnits="userSpaceOnUse">
      <stop offset=".191011" stop-color="#ecd600"/>
      <stop offset=".612359" stop-color="#fff"/>
      <stop offset=".6721602" stop-color="#fefefb"/>
      <stop offset=".7223228" stop-color="#fdfaf1"/>
      <stop offset=".7690372" stop-color="#fcf5df"/>
      <stop offset=".8136331" stop-color="#faeec7"/>
      <stop offset=".8567796" stop-color="#f8e4a7"/>
      <stop offset=".8987707" stop-color="#f5d980"/>
      <stop offset=".9398968" stop-color="#f2cb52"/>
      <stop offset=".9792847" stop-color="#eebc1e"/>
      <stop offset="1" stop-color="#ecb300"/>
    </radialGradient>
    <radialGradient id="radial-gradient-4" cx="65.0625608" cy="-59.2646858" fx="65.0625608" fy="-59.2646858" r=".6720014" gradientTransform="translate(33.9483 106.0068) rotate(-63.2107239) scale(1.0627665 1.0867819) skewX(-4.3025757)" gradientUnits="userSpaceOnUse">
      <stop offset=".691011" stop-color="#999"/>
      <stop offset=".9178119" stop-color="#bdbdbd"/>
      <stop offset="1" stop-color="#ccc"/>
    </radialGradient>
    <radialGradient id="radial-gradient-5" cx="64.893184" cy="-59.3060811" fx="64.893184" fy="-59.3060811" r=".4585863" gradientTransform="translate(33.9483 106.0068) rotate(-63.2107239) scale(1.0627665 1.0867819) skewX(-4.3025757)" gradientUnits="userSpaceOnUse">
      <stop offset=".106741" stop-color="#999"/>
      <stop offset=".7624016" stop-color="#bdbdbd"/>
      <stop offset="1" stop-color="#ccc"/>
    </radialGradient>
    <radialGradient id="radial-gradient-6" cx="89.6362812" cy="-51.0739099" fx="89.6362812" fy="-51.0739099" r=".6992773" gradientTransform="translate(16.8114 143.8767) rotate(-63.2127138) scale(1.2452309 1.2734565) skewX(-4.3101307)" gradientUnits="userSpaceOnUse">
      <stop offset=".691011" stop-color="#328e36"/>
      <stop offset=".8494552" stop-color="#4aae5a"/>
      <stop offset="1" stop-color="#65d081"/>
    </radialGradient>
    <radialGradient id="radial-gradient-7" cx="89.5492415" cy="-51.0975456" fx="89.5492415" fy="-51.0975456" r=".5236702" gradientTransform="translate(16.8114 143.8767) rotate(-63.2127138) scale(1.2452309 1.2734565) skewX(-4.3101307)" gradientUnits="userSpaceOnUse">
      <stop offset=".106741" stop-color="#328e36"/>
      <stop offset=".5647888" stop-color="#4aae5a"/>
      <stop offset="1" stop-color="#65d081"/>
    </radialGradient>
    <radialGradient id="radial-gradient-8" cx="224.5115323" cy="-159.19748" fx="224.5115323" fy="-159.19748" r=".6584198" gradientTransform="translate(325.9788 180.1418) rotate(-116.8016817) scale(1.2452769 1.2735114) skewX(-4.3080439)" gradientUnits="userSpaceOnUse">
      <stop offset=".691011" stop-color="#0342d3"/>
      <stop offset=".8141137" stop-color="#274fe3"/>
      <stop offset="1" stop-color="#66f"/>
    </radialGradient>
    <radialGradient id="radial-gradient-9" cx="224.4250372" cy="-159.2319581" fx="224.4250372" fy="-159.2319581" r=".5060102" gradientTransform="translate(325.9788 180.1418) rotate(-116.8016817) scale(1.2452769 1.2735114) skewX(-4.3080439)" gradientUnits="userSpaceOnUse">
      <stop offset=".106741" stop-color="#0342d3"/>
      <stop offset=".4626197" stop-color="#274fe3"/>
      <stop offset="1" stop-color="#66f"/>
    </radialGradient>
    <radialGradient id="radial-gradient-10" cx="213.7558725" cy="-140.4859307" fx="213.7558725" fy="-140.4859307" r=".6821851" gradientTransform="translate(308.825 217.5862) rotate(-115.5320254) scale(1.3593478 1.2647758) skewX(-7.3462706)" gradientUnits="userSpaceOnUse">
      <stop offset=".691011" stop-color="#a70000"/>
      <stop offset=".7940595" stop-color="#c12415"/>
      <stop offset="1" stop-color="#ff7845"/>
    </radialGradient>
    <radialGradient id="radial-gradient-11" cx="213.7311153" cy="-140.5382057" fx="213.7311153" fy="-140.5382057" r=".5540238" gradientTransform="translate(308.825 217.5862) rotate(-115.5320254) scale(1.3593478 1.2647758) skewX(-7.3462706)" gradientUnits="userSpaceOnUse">
      <stop offset=".106741" stop-color="#a70000"/>
      <stop offset=".4046447" stop-color="#c12415"/>
      <stop offset="1" stop-color="#ff7845"/>
    </radialGradient>
    <linearGradient id="linear-gradient" x1="-127.9992611" y1="-284.9863739" x2="-126.3824435" y2="-284.9863739" gradientTransform="translate(-139.4605 -27.1223) rotate(166.8905736) scale(1.0510929 .2521583) skewX(.2131071)" gradientUnits="userSpaceOnUse">
      <stop offset="0" stop-color="#6b3200"/>
      <stop offset=".2885023" stop-color="#6d3400"/>
      <stop offset=".4963073" stop-color="#773d03"/>
      <stop offset=".6782187" stop-color="#864b08"/>
      <stop offset=".825843" stop-color="#9a5d0e"/>
      <stop offset="1" stop-color="#ecb300"/>
    </linearGradient>
    <linearGradient id="linear-gradient-2" x1="-180.723902" y1="28.1930954" x2="-181.8864272" y2="27.7144093" gradientTransform="translate(-159.0067 20.7901) rotate(166.8877067) scale(.9415487 -1.06206) skewX(13.0553383)" gradientUnits="userSpaceOnUse">
      <stop offset="0" stop-color="#6b3200"/>
      <stop offset=".2685086" stop-color="#6e3501"/>
      <stop offset=".5357231" stop-color="#7a4006"/>
      <stop offset=".758427" stop-color="#8b4f0d"/>
      <stop offset="1" stop-color="#ecb300"/>
    </linearGradient>
    <radialGradient id="radial-gradient-12" cx="-545.3379211" cy="70.5089647" fx="-545.3379211" fy="70.5089647" r="4.0038529" gradientTransform="translate(-95.6426 19.9976) rotate(166.8590458) scale(.1878183 -.2118563) skewX(-.9506708)" gradientUnits="userSpaceOnUse">
      <stop offset="0" stop-color="#fff"/>
      <stop offset="1" stop-color="#000"/>
    </radialGradient>
    <linearGradient id="linear-gradient-3" x1="24.5197195" y1="-223.4275199" x2="24.7740822" y2="-223.4275199" gradientTransform="translate(31.3543 269.9897) rotate(-158.0185846) scale(1.5249562 -1.0342269) skewX(-13.3973551)" gradientUnits="userSpaceOnUse">
      <stop offset="0" stop-color="#fff"/>
      <stop offset="1" stop-color="#000"/>
    </linearGradient>
    <linearGradient id="linear-gradient-4" x1="-1362.0784656" y1="76.7934324" x2="-1358.3415518" y2="76.7934324" gradientTransform="translate(-247.4871 41.4459) rotate(166.8907918) scale(.1873833 -.3294451) skewX(-1.5628549)" gradientUnits="userSpaceOnUse">
      <stop offset="0" stop-color="#b0b0b0"/>
      <stop offset="1" stop-color="#4a4a4a"/>
    </linearGradient>
    <linearGradient id="linear-gradient-5" x1="-203.6444251" y1="24.2503384" x2="-202.2012863" y2="24.6375095" gradientTransform="translate(-174.6912 24.0752) rotate(166.8877067) scale(.9415487 -1.0620126) skewX(25.6952404)" gradientUnits="userSpaceOnUse">
      <stop offset="0" stop-color="#fff"/>
      <stop offset=".2307365" stop-color="#fcfcfc"/>
      <stop offset=".3300776" stop-color="#f5f5f5"/>
      <stop offset=".4041854" stop-color="#e9e9e9"/>
      <stop offset=".4657753" stop-color="#d7d7d7"/>
      <stop offset=".5196246" stop-color="silver"/>
      <stop offset=".5680193" stop-color="#a3a3a3"/>
      <stop offset=".6123554" stop-color="#818181"/>
      <stop offset=".6535775" stop-color="#5a5a5a"/>
      <stop offset=".6907176" stop-color="#2e2e2e"/>
      <stop offset=".724719" stop-color="#000"/>
    </linearGradient>
    <mask id="mask-2" x="7.235773" y="11.4263" width="2.7455977" height="2.520525" maskUnits="userSpaceOnUse">
      <path d="M9.4976,12.1904c-.0528-.0717-.3169-.0024-.3882-.0483-.0752-.0498-.1367-.1333-.2188-.1465-.0874-.0137-.1601.0723-.2348.1065-.1094.0507-.2364-.3785-.3316-.3375-.0923.0401.1909.5357.0845.5855-.1084.0493-.354-.2012-.4624-.1519-.1074.0498.0796.1343-.0288.1851-.105.0483-.064.1675-.1695.2153-.1001.0464-.2001-.2475-.3002-.2011-.0796.0366-.0191.2861-.0479.3593-.0273.0699-.0859.128-.0645.212.0167.0629-.0683.2246-.0234.2861.0781.1079.0996.0893.1777.1972.0743.1026.1675.0225.2417.1241.0523.0722.1749.0351.2471.081.0772.0479.084.2764.168.2891.0879.0132.1489-.2266.2241-.2612.1099-.0508.1211-.0176.2305-.0689.1069-.0488.1098-.0391.2163-.0879.1084-.0503.1338.023.2422-.0268.1084-.0508.1762.1479.2846.0976.1055-.0483-.0053-.374.0996-.4228.0997-.0459.0958-.0586.1958-.1045.0796-.0366.3008.1025.3296.0293.0279-.0698.002-.2251-.0195-.3081-.0161-.0635-.0703-.1485-.1152-.21-.0782-.1079-.0474-.1211-.1167-.2368-.0655-.1108-.1465-.0532-.2202-.1558Z" fill="#fff"/>
    </mask>
    <linearGradient id="linear-gradient-6" x1="-127.9992611" y1="-284.9863739" x2="-126.3824435" y2="-284.9863739" gradientTransform="translate(-139.4605 -27.1223) rotate(166.8905736) scale(1.0510929 .2521583) skewX(.2131071)" gradientUnits="userSpaceOnUse">
      <stop offset="0" stop-color="#a70000"/>
      <stop offset=".2134181" stop-color="#a90301"/>
      <stop offset=".3923643" stop-color="#b10d07"/>
      <stop offset=".5589223" stop-color="#bd1f11"/>
      <stop offset=".7179175" stop-color="#cf371f"/>
      <stop offset=".8700949" stop-color="#e65631"/>
      <stop offset="1" stop-color="#ff7845"/>
    </linearGradient>
    <linearGradient id="linear-gradient-7" x1="-188.2306828" y1="28.2748283" x2="-188.5832069" y2="27.936993" gradientTransform="translate(-171.7446 23.5003) rotate(166.8877067) scale(.9415487 -1.0620326) skewX(-1.0037914)" gradientUnits="userSpaceOnUse">
      <stop offset="0" stop-color="#a70000"/>
      <stop offset=".2134181" stop-color="#a90301"/>
      <stop offset=".3923643" stop-color="#b10d07"/>
      <stop offset=".5589223" stop-color="#bd1f11"/>
      <stop offset=".7179175" stop-color="#cf371f"/>
      <stop offset=".8700949" stop-color="#e65631"/>
      <stop offset="1" stop-color="#ff7845"/>
    </linearGradient>
  </defs>
  <g id="Layer_4" data-name="Layer 4">
    <g>
      <g mask="url(#mask)">
        <g>
          <path d="M8.7695,14.4712l-5.9668-1.4878L5.5439,1.9907l8.4073,2.0947-2.1392,8.5528c-.2891,1.1621-1.9101,2.1152-3.0425,1.833Z" fill="url(#New_Gradient_399)" fill-rule="evenodd"/>
          <path d="M8.3706,14.415s1.4067.294,1.7925-1.2529c1.4355.3579,1.7593-.8911,1.7593-.8911l-.7115,2.852-2.8403-.708Z" fill="url(#New_Gradient_400)" fill-rule="evenodd"/>
          <path d="M8.7695,14.4712l-5.9668-1.4878L5.5439,1.9907l8.4073,2.0947-2.1392,8.5528c-.2891,1.1621-1.9101,2.1152-3.0425,1.833Z" fill="none" fill-rule="evenodd" stroke="#000" stroke-linecap="round" stroke-linejoin="round" stroke-width="2"/>
        </g>
      </g>
      <g mask="url(#mask-1)">
        <g>
          <path d="M8.7695,14.4712l-5.9668-1.4878L5.5439,1.9907l8.4073,2.0947-2.1392,8.5528c-.2891,1.1621-1.9101,2.1152-3.0425,1.833Z" fill="url(#New_Gradient_401)" fill-rule="evenodd"/>
          <path d="M8.3706,14.415s1.4067.294,1.7925-1.2529c1.4355.3579,1.7593-.8911,1.7593-.8911l-.7115,2.852-2.8403-.708Z" fill="url(#New_Gradient_402)" fill-rule="evenodd"/>
        </g>
      </g>
    </g>
  </g>
  <g id="Layer_5" data-name="Layer 5">
    <g>
      <path d="M4.6797,9.833c2.1304.5308,4.2607,1.0625,6.3921,1.5942" fill="none" stroke="#ccc" stroke-linecap="round" stroke-linejoin="round" stroke-width="1.0502"/>
      <path d="M6.0498,4.3374c2.1304.5308,4.2607,1.0625,6.3921,1.5942" fill="none" stroke="#ccc" stroke-linecap="round" stroke-linejoin="round" stroke-width="1.0502"/>
      <path d="M5.5015,6.5356c2.1308.5303,4.2612,1.063,6.3921,1.5938" fill="none" stroke="#ccc" stroke-linecap="round" stroke-linejoin="round" stroke-width="1.0502"/>
      <path d="M5.7759,5.4365c2.1304.5308,4.2602,1.0625,6.3921,1.5943" fill="none" stroke="#ccc" stroke-linecap="round" stroke-linejoin="round" stroke-width="1.0502"/>
      <path d="M4.9531,8.7334c2.1309.5308,4.2608,1.063,6.3931,1.5942" fill="none" stroke="#ccc" stroke-linecap="round" stroke-linejoin="round" stroke-width="1.0502"/>
      <path d="M5.2275,7.6343c2.1304.5312,4.2608,1.063,6.3921,1.5947" fill="none" stroke="#ccc" stroke-linecap="round" stroke-linejoin="round" stroke-width="1.0502"/>
    </g>
  </g>
  <g id="Layer_3" data-name="Layer 3">
    <g>
      <path d="M11.7593,7.7446c-.9947.2451-1.5669.8872-2.5786,1.1265-.9195.2168-.0381-.7222-.8247-.645-1.2847.1762-1.9805,1.2334-2.0235,1.9375-.0351.5757.5073,1.1567,1.4341,1.4155,1.8125.5059,4.4326.3535,5.9082-.856.6499-.5332.7876-1.351.3672-2.0507-.3276-.5469-1.2686-1.1787-2.2827-.9278ZM8.7627,9.3096c.4805.0288.8433.2226.8076.4316-.0356.209-.4551.3535-.9355.3242-.48-.0288-.8399-.2216-.8047-.4306.0351-.208.4521-.355.9326-.3252Z" fill="none" stroke="#000" stroke-width="2"/>
      <path d="M11.7593,7.7446c-.9947.2451-1.5669.8872-2.5786,1.1265-.9195.2168-.0381-.7222-.8247-.645-1.2847.1762-1.9805,1.2334-2.0235,1.9375-.0351.5757.5073,1.1567,1.4341,1.4155,1.8125.5059,4.4326.3535,5.9082-.856.6499-.5332.7876-1.351.3672-2.0507-.3276-.5469-1.2686-1.1787-2.2827-.9278ZM8.7627,9.3096c.4805.0288.8433.2226.8076.4316-.0356.209-.4551.3535-.9355.3242-.48-.0288-.8399-.2216-.8047-.4306.0351-.208.4521-.355.9326-.3252Z" fill="url(#radial-gradient)"/>
      <path d="M9.748,9.5674c.0352-.209-.3276-.4028-.8085-.4326-.4585-.0279-.8575.104-.9249.2973.1734-.0908.4483-.1411.7481-.1225.4805.0288.8433.2226.8076.4316-.0015.0098-.0049.0181-.0083.0278.1045-.0542.1729-.1235.186-.2016Z" fill="url(#radial-gradient-2)"/>
      <path d="M7.9453,11.4058c-.9248-.2549-1.4707-.8404-1.4355-1.4161.021-.3515.205-.7905.5424-1.165-.4492.4058-.6948.9312-.7197,1.3389-.0351.5757.5073,1.1567,1.4341,1.4155,1.8125.5059,4.4331.3535,5.9082-.856.0566-.0473.1089-.1025.1582-.1552-1.6035,1.1675-4.0537,1.3437-5.8877.8379Z" fill="url(#radial-gradient-3)"/>
      <g>
        <path d="M9.7764,10.5386c.4853-.0142.8706.1919.8579.459-.0127.2666-.419.4936-.9048.5073-.4863.0137-.8682-.19-.8555-.457.0127-.2666.4165-.4947.9024-.5093Z" fill="url(#radial-gradient-4)" stroke="#999" stroke-width=".5"/>
        <path d="M10.2104,11.1914c-.5068.0147-.8681-.2358-.7587-.5029-.5181.0791-.5132.436-.1895.6089.5259.2817,1.3213-.1162.9482-.106" fill="url(#radial-gradient-5)"/>
      </g>
      <g>
        <path d="M11.1548,10.042c.499-.0732.6162.1777,1.0351.5386.419.3613-.3935.6357-1.0361.5937-.6421-.042-.8672-.2886-1.0308-.5371-.164-.248.5328-.522,1.0318-.5952Z" fill="url(#radial-gradient-6)" stroke="#23a11f" stroke-width=".5"/>
        <path d="M11.917,10.8232c-.6426-.0058-1.5366-.2705-1.2749-.5742-.5689.1299-.333.4439.0928.6455.6933.3286,1.6552-.0664,1.1821-.0713" fill="url(#radial-gradient-7)"/>
      </g>
      <g>
        <path d="M11.501,8.395c.3301-.3291.8764-.3408,1.3701-.1177.4932.2217.645.4922.2109.7037-.4336.2109-1.1689.353-1.5576.249-.3882-.1045-.354-.5054-.0234-.835Z" fill="url(#radial-gradient-8)" stroke="#0342d3" stroke-width=".5"/>
        <path d="M12.8896,8.6235c-.4096.2525-1.1547.3379-1.4311.0904-.2778.3715.2109.5044.8008.4096.9604-.1533.9316-.685.6303-.5" fill="url(#radial-gradient-9)"/>
      </g>
      <g>
        <path d="M11.6904,9.4272c.461-.2006,1.024-.164,1.6177-.1367.5952.0274.4595.4859.082.7906-.3774.3051-1.3471.5131-1.623.1381-.2754-.3745-.5381-.5913-.0767-.792Z" fill="url(#radial-gradient-10)" stroke="red" stroke-width=".5"/>
        <path d="M13.2944,9.5879c-.4941.3296-1.1347.2383-1.5859.0361-.2783.2251.1392.7256.7954.648,1.0679-.1265,1.1538-.9248.7905-.6841" fill="url(#radial-gradient-11)"/>
      </g>
    </g>
    <g>
      <path d="M7.252,10.9937c-.021-.0469-.0401-.1021-.0567-.167-.5098-1.9541-1.0298-3.6163-1.0908-5.6978.0015.0029.0024.0044.0039.0073v-.0088c.9268,1.8804,1.2524,3.5684,1.7148,5.5533.0137.0586.0215.1142.0254.166.0537.1084.0869.2368.1089.3432.0191.0914.0269.1944.0127.2876.0943.0401.1499.0977.2114.2427.0992.2349.5669.419.7539.5728.3716.3056-.2495.7348-.4599.8676.1919-.271-.2359-.3071-.3765-.312-.3281-.0102-.5566-.0088-.7539-.3325-.186-.3037-.1157-.7807.0645-.9385-.0743-.1176-.1158-.2724-.1255-.3984-.0171-.0684-.0279-.1299-.0322-.1855Z" fill="none" stroke="#000" stroke-linecap="round" stroke-linejoin="round" stroke-width="2"/>
      <path d="M7.8101,11.4263c-.4063.0044-.7608.6074-.4649,1.0898.1973.3237.4258.3223.7539.3325.1406.0049.5684.041.3765.312.2104-.1328.8315-.562.4599-.8676-.187-.1538-.6547-.3379-.7539-.5728-.0893-.2119-.1674-.2378-.3715-.2939" fill="url(#linear-gradient)"/>
      <path d="M7.8623,11.6104c-.2002-.0171-.1924.3959.0933.7153.1909.2143.3066.2261.477.2505.0723.0102.3003.0556.2788.2158.0694-.0723.2652-.3086-.0093-.5215-.1386-.1074-.4433-.0747-.5644-.2427-.1094-.1518-.1587-.3715-.2754-.4174" fill="url(#linear-gradient-2)"/>
      <path d="M7.2842,11.1792c-.0899-.356-.0015-.5347.227-.5601.2896-.0312.3955.3277.4463.5708.0474.231.0249.5376-.2363.566-.2759.0302-.418-.3287-.437-.5767" fill="url(#radial-gradient-12)"/>
      <path d="M7.5386,11.6543c.4721.0376-.0039-.7671.2177-.8467-.1772.064.5855.9097-.2177.8467" fill="url(#linear-gradient-3)"/>
      <path d="M7.6099,11.2534c-.1524.0122-.3199-.062-.4146-.4267-.5098-1.9541-1.0298-3.6163-1.0908-5.6978.0015.0029.0024.0044.0039.0073v-.0088c.9268,1.8804,1.2524,3.5684,1.7148,5.5533.0743.3188-.0058.5385-.2133.5727" fill="none" stroke="#4d4d4d" stroke-miterlimit="3.8637" stroke-width=".5"/>
      <path d="M7.6099,11.2534c-.1524.0122-.3199-.062-.4146-.4267-.5098-1.9541-1.0298-3.6163-1.0908-5.6978.0015.0029.0024.0044.0039.0073v-.0088c.9268,1.8804,1.2524,3.5684,1.7148,5.5533.0743.3188-.0058.5385-.2133.5727" fill="url(#linear-gradient-4)"/>
      <path d="M6.2803,5.6816c.105,1.0704.2583,1.8301.5141,2.8565.107.4292.2193.854.3306,1.2754l.1919.7309c.0801.3077.2153.4576.4023.4453.0157-.0019.0288-.0078.043-.0126-.0137.0957-.0571.1933-.1758.2124-.1572.0097-.2695-.1187-.3408-.3936l-.1929-.7344c-.1113-.4209-.2231-.8447-.33-1.2724-.295-1.1841-.4747-2.1075-.5513-3.3521.0361.0796.0727.1607.1089.2446Z" fill="url(#linear-gradient-5)"/>
      <g mask="url(#mask-2)">
        <g>
          <path d="M7.8101,11.4263c-.4063.0044-.7608.6074-.4649,1.0898.1973.3237.4258.3223.7539.3325.1406.0049.5684.041.3765.312.2104-.1328.8315-.562.4599-.8676-.187-.1538-.6547-.3379-.7539-.5728-.0893-.2119-.1674-.2378-.3715-.2939" fill="url(#linear-gradient-6)"/>
          <path d="M7.8623,11.6104c-.2002-.0171-.1924.3959.0933.7153.1909.2143.3066.2261.477.2505.0723.0102.3003.0556.2788.2158.0694-.0723.2652-.3086-.0093-.5215-.1386-.1074-.4433-.0747-.5644-.2427-.1094-.1518-.1587-.3715-.2754-.4174" fill="url(#linear-gradient-7)"/>
        </g>
      </g>
    </g>
  </g>
</svg>