<?xml version='1.0' encoding='UTF-8'?>
<svg xmlns="http://www.w3.org/2000/svg" xmlns:xlink="http://www.w3.org/1999/xlink" width="16" height="16" viewBox="0 0 16 16">
  <defs>
    <mask id="mask" x="1.833" y=".9756" width="13.148" height="14.5305005" maskUnits="userSpaceOnUse">
      <path d="M8.7992974,14.4561l-5.9662974-1.4873L5.5741974,1.9756l8.4068026,2.0952-2.1387027,8.5522c-.2891,1.1622-1.9107,2.1153-3.0429999,1.8331Z" fill="#fff" fill-rule="evenodd" stroke="#fff" stroke-linecap="round" stroke-linejoin="round" stroke-width="2"/>
    </mask>
    <linearGradient id="New_Gradient_399" data-name="New Gradient 399" x1="5.2841724" y1="2.1170546" x2="11.4348597" y2="14.7278324" gradientUnits="userSpaceOnUse">
      <stop offset="0" stop-color="#e5e5e5"/>
      <stop offset="1" stop-color="#fff"/>
    </linearGradient>
    <radialGradient id="New_Gradient_400" data-name="New Gradient 400" cx="-16.490917" cy="-55.4261243" fx="-16.490917" fy="-55.4261243" r="4.4318988" gradientTransform="translate(10.8265 49.8534) rotate(13.9901369) scale(.6630684) skewX(-.0167694)" gradientUnits="userSpaceOnUse">
      <stop offset="0" stop-color="#fff"/>
      <stop offset="1" stop-color="#ccc"/>
    </radialGradient>
    <mask id="mask-1" x="2.833" y="1.9756" width="11.148" height="13.1323" maskUnits="userSpaceOnUse">
      <path d="M8.7992974,14.4561l-5.9662974-1.4873L5.5741974,1.9756l8.4068026,2.0952-2.1387027,8.5522c-.2891,1.1622-1.9107,2.1153-3.0429999,1.8331Z" fill="#fff" fill-rule="evenodd"/>
    </mask>
    <linearGradient id="New_Gradient_401" data-name="New Gradient 401" x1="5.2841724" y1="2.1170546" x2="11.4348597" y2="14.7278324" gradientUnits="userSpaceOnUse">
      <stop offset="0" stop-color="#e5e5e5"/>
      <stop offset=".286514" stop-color="#f2f2f2"/>
      <stop offset=".646072" stop-color="#fff"/>
      <stop offset="1" stop-color="#fff"/>
    </linearGradient>
    <radialGradient id="New_Gradient_402" data-name="New Gradient 402" cx="-16.490917" cy="-55.4261243" fx="-16.490917" fy="-55.4261243" r="4.4318988" gradientTransform="translate(10.8265 49.8534) rotate(13.9901369) scale(.6630684) skewX(-.0167694)" gradientUnits="userSpaceOnUse">
      <stop offset="0" stop-color="#e5e5e5"/>
      <stop offset=".331467" stop-color="#e5e5e5"/>
      <stop offset="1" stop-color="#999"/>
    </radialGradient>
    <radialGradient id="radial-gradient" cx="74.6695161" cy="41.3686954" fx="74.6695161" fy="41.3686954" r="10.9631674" gradientTransform="translate(-24.6833 -12.2657) scale(.4525)" gradientUnits="userSpaceOnUse">
      <stop offset="0" stop-color="#fff"/>
      <stop offset=".207865" stop-color="#b7e9ff"/>
      <stop offset=".47191" stop-color="#3c97f6"/>
      <stop offset=".668539" stop-color="#032c87"/>
      <stop offset="1" stop-color="#0342d3"/>
    </radialGradient>
    <mask id="mask-2" x="7.0731974" y="4.6431" width="7.9066498" height="7.8645766" maskUnits="userSpaceOnUse">
      <path d="M7.0731974,7.9307c0-1.816,1.4717-3.2876,3.2871999-3.2876,1.8154,0,3.2870999,1.4716,3.2870999,3.2876,0,1.8154-1.4717,3.2866-3.2870999,3.2866-1.8155,0-3.2871999-1.4712-3.2871999-3.2866Z" fill="#fff" fill-rule="evenodd"/>
    </mask>
    <radialGradient id="radial-gradient-2" cx="9.1756585" cy="6.537127" fx="9.1756585" fy="6.537127" r="4.6801781" gradientUnits="userSpaceOnUse">
      <stop offset="0" stop-color="#dfeaeb"/>
      <stop offset=".303371" stop-color="#b7e9ff"/>
      <stop offset=".52809" stop-color="#3c97f6"/>
      <stop offset=".825843" stop-color="#032c87"/>
      <stop offset="1" stop-color="#0342d3"/>
    </radialGradient>
    <mask id="mask-3" x="8.7975578" y="5.9860916" width="6.1822894" height="6.521585" maskUnits="userSpaceOnUse">
      <path d="M13.4057972,7.6309c0,1.9072-1.1537972,3.2446-3.0458999,3.3769-.2012.0142-.2295-.1592-.0332-.2056,1.6098-.3808,2.6996999-2.1635,2.8773999-3.1894.0176-.2368.2017-.1831.2017.0181Z" fill="#fff"/>
    </mask>
    <linearGradient id="linear-gradient" x1="10.0614392" y1="5.3588439" x2="9.6912005" y2="12.4234194" gradientUnits="userSpaceOnUse">
      <stop offset="0" stop-color="#65bd7b"/>
      <stop offset=".0074065" stop-color="#60bb74"/>
      <stop offset=".0565792" stop-color="#45af4f"/>
      <stop offset=".1023037" stop-color="#32a734"/>
      <stop offset=".1428936" stop-color="#27a224"/>
      <stop offset=".174157" stop-color="#23a11f"/>
      <stop offset=".2984012" stop-color="#1c871d"/>
      <stop offset=".4981417" stop-color="#14651b"/>
      <stop offset=".6872815" stop-color="#0e4c19"/>
      <stop offset=".8596362" stop-color="#0b3d18"/>
      <stop offset="1" stop-color="#0a3818"/>
    </linearGradient>
    <mask id="mask-4" x="7.5059228" y="5.425127" width="7.4739244" height="7.0825495" maskUnits="userSpaceOnUse">
      <path d="M7.7094974,5.7246c.02.0523-.0644974.0864-.0074.0942.1265.0181.1983-.0766.3252-.059.0415.0063.0621.0151.104.0244-.0122.0845.0166.1406.0049.2251-.0175.1264-.122.1699-.1401.2969-.0107.0786.0317.1274.0205.2055-.0049.0357-.0264.0542-.0371.0869l.0156-.1084c-.0239-.0039-.0347-.0175-.0586-.0205-.1234974-.0176-.0976.167-.1611.2725-.1226.1973-.2275.3061-.2598.5347-.0473.3374.0967.5356.0498.873-.0175.1265.0518.1982.1299.3013.0181.0024.0361.0019.0498-.0054-.022-.2827-.0683-.4307-.0605-.709.0722.0962.0322.1885.0815.294.0996.208.1665.3247.23.5483.0225.0801-.0273.1528.0181.2236.0957.149.1406.2657.2929.3609.0855.0517.1783.0005.2486.0718.1074.1103.1259.2636.2793026.2851.0785973.0108.1268973-.0312.2054973-.0205.0933.0137.0347.1465.0718.2319.0327027.0747.1284.0484.1948.1006.0801.0635.0923.1729.1944.1875.0605027.0088.083-.062.143-.0537.0967.0132.0655027.1504.0518.2471-.0264.186-.2515.2099-.2769.397-.0048.0332.0293.0502.0249.0834-.0068.0484-.0698.0572-.0766.106-.0181.1328.084.1929.1543027.3042.0624973.0977.0550973.1948.1464973.2666.1269.1006.3403.1123.3178.272-.0371.2676-.2772973.3174-.4209.5493.0254.0156.0391.0298.0694.0342.3222027.0449.479-.1787.789-.2827.2095-.0689.3531-.0391.5489-.1446.103-.0527.1142-.1552.2143027-.2148.208-.1245.3593973-.1558.5258973-.3325.1045-.1109.0884-.2354.1631027-.3697.1063973-.1909.2352973-.2558.3221973-.4589-.0258-.0157-.0371-.0416-.0703-.0464l-.2226-.0313c-.1387-.0195-.2417-.1416-.2227-.2798-.1528-.0249-.2407-.0312-.395-.0522-.1958-.0278-.2358-.2422-.4315973-.27-.0845027-.0118-.1216027.081-.2066027.0693-.1118-.0156-.165-.0723-.2759-.0884-.0693-.0093-.1024973.0532-.1338.1167l-.0498.0049c-.0117-.0439-.0004-.0791.0059-.1279.0029-.0176-.0277973-.0191-.0317-.0352-.1407.0391-.1875.1953-.3316.1748-.0366-.0053-.0493-.0439-.0859-.0488-.0659-.0093-.103.0347-.1695.0254-.123-.0176-.2436-.105-.226-.2285.0068-.045.0576-.0567.0639027-.1016.0156973-.1118-.0727027-.1826-.1762027-.2339l-.0752.0137-.1089-.0156c.0029-.0205-.0078-.0342-.0044-.0552.0102-.0786.1162-.082.1269-.1607.0098027-.0688.001-.1132.0254-.1806l-.1992-.0278c-.084.0522-.1255.1547-.2285.1401-.1802-.0254-.2905-.2075-.2646-.3877.0297026-.2144.1401-.4531.3544-.4229.0718.0098.1031.0508.1753026.0616.0512973.0068.0668973-.0645.1186973-.0577.1357.0191.2959.0816.2773027.2173-.0175027.1241.0712973.21.1835973.2652.0103-.0288.0157-.0464.023-.0757l-.0313-.3921c.1065-.1851.3662-.1577.3955-.3657l.0196-.1382c.0224-.1597.2016027-.2329.3608-.21-.0098-.06-.0474-.0932-.0391-.1533.0093-.0664.084-.0742.1475-.0898-.001.0273,0,.0459.002.0737.145-.0254.3022-.0498.3227-.1939.0025-.0185-.0282973-.0195-.0322-.0356-.0479.0112-.0800973.0259-.1318.0181-.0689-.0093-.0464-.1075-.0302973-.1758-.0425027-.0059-.0669027-.0068-.1104027-.0034.0313-.0484.0757-.0572.1328-.0674l.0684.0342c.0391-.0157.0659-.0308.105-.0469.0132027.0571-.0034.1348.0566.1431l.2622.0371c.0186-.065-.0718-.0772-.1172-.127-.04-.043.0088-.1035-.0278-.1518-.0625-.0826-.1533-.0674-.2412-.1197-.1503973-.0913-.1489-.2944-.3242-.3188-.0331973-.0049-.0459.043-.0791.0381-.1172-.0166-.1348-.1543-.2525-.1709-.0361-.0049-.059.0073-.0937.0112.0034.062.0483.0933.04.1533-.0146.1026-.1616.0972-.1753.1997-.0092.0635.023.0987.0259.1636-.0947-.0044-.0664-.1353-.1313-.2026-.1099-.1143-.3575-.0811-.335-.2412.0322-.2261.415-.1539.4473-.3794.0024-.0181-.0181-.0269-.0186-.0425.0278-.0054.0454-.0186.0757-.0142.0957.0137.1426.0786.1855.1646-.0580973.0161-.0937.0112-.1518.0283.1245.0757.2441.0581.332.1753l.1187027-.0571c-.0249027-.0435-.0454027-.0708-.084-.1041.0258973-.0053.0472973-.0083.0741973-.0019-.0591-.1064-.1694-.1064-.2705-.1758-.1006-.0698-.1489-.144-.2725-.1616l.0083-.0571c.0103-.0752.0611-.1021.1089-.1602-.0317-.0161-.0508-.0312-.0869-.0366-.0786-.0108-.1777-.0064-.1884973.0723-.0068027.0478.0400973.0639.0590973.1064-.0347.0259-.0586.0439-.0845.0742.0274027.0254.0538.0537.0489.0928-.0039.0268-.0323.0288-.0557.0415-.0469-.0835-.1035-.1377-.0897973-.2339-.0435027.0029-.0992027.0044-.105.0459-.0069027.0518.0326973.0757.0570973.1191-.0425.0186-.0698.0396-.1182.0328l-.1054-.0152c.0132-.0283.0415027-.0371.0469-.0698l.0166027-.1235c-.0694027-.0039-.1065027-.0215-.1763027-.0313-.0571-.0083-.127.0098-.1353.0669-.0092.0635.0528.0845.0913.1358-.0293.0112-.0449.0336-.0776.0288-.0635-.0088-.041-.1006-.0913-.1382-.0664-.0523-.1333-.0156-.2183-.0191.0049-.0786-.0127-.1738-.0908-.184-.2202-.0308-.3466974.0615-.5552.143-.1557.0611-.291.042-.414.1504ZM9.1820973,6.9639c.1099027-.0401.1763-.0982.294-.0816.0752.0108.0678.105.1264.1504.0801.063.1607.0557.2276.1299-.0542.0537-.0899.0913-.1636.1118.0093-.0659-.0234-.1382-.0898-.1474-.1089-.0152-.0572.1884-.1563.2358-.0156-.085-.0293-.1392-.0176-.2236.0069-.045.0401-.0684.0752027-.0938-.0371027-.0234-.0571027-.0571-.102-.0635-.0606027-.0083-.1333027-.0151-.1939027-.018ZM9.9906973,7.2402l.0689.0342c-.1015973.1118-.2193.1602-.3697.1392l-.0664-.0098c.0943-.1221.209-.1518.3672-.1636ZM10.104,9.2319c-.0332027-.0053-.0078027-.0537-.0098027-.0849.0318027-.0049.0513-.0108.085-.0127.001-.0274.0005-.0459-.002-.0738.0215.0035.0323-.0083.0533-.0048.123.0171.1797.0747.3012.104-.0962.1401-.2616973.0947-.4276973.0722ZM9.5092973,8.9146c-.0625-.0123-.1142973-.0376-.1299-.1016.082-.0132.1255-.0191.207-.0078.1114.0161.1699.0581.2671.1118.0742.0405.1895027.0513.1773.1352-.0069.0513-.0694.0582-.1206.0508l-.1055-.0146c.0127-.0264.0283027-.0454.0464-.0669-.0904-.0806-.1494-.1382-.27-.1553-.021-.0029-.0523.0444-.0718.0484ZM10.2304973,5.6245c.1142.0806.1753.1719.3159.1768.0156027.0879.0923.1079.1509.1714.1064.1167.1689.2202.3256.2426.0269.0039.0435-.0034.0709-.0024-.0411-.1011-.1397-.146-.1241-.2544.0098-.0664.0733027-.0879.083-.1543.0161-.1108-.1508-.104-.248-.1577-.1366973-.0742-.2075-.1641-.3638-.1861-.1416-.0195-.2827-.0029-.3501.1231.0386.0142.0967.0376.1397.041Z" fill="#fff" fill-rule="evenodd"/>
    </mask>
    <radialGradient id="radial-gradient-3" cx="8.5485462" cy="6.2228904" fx="8.5485462" fy="6.2228904" r="6.0098947" gradientUnits="userSpaceOnUse">
      <stop offset="0" stop-color="#d3edd5"/>
      <stop offset=".0881577" stop-color="#ceebd0"/>
      <stop offset=".1888042" stop-color="#c1e5c2"/>
      <stop offset=".2955934" stop-color="#aadbab"/>
      <stop offset=".4067144" stop-color="#8bce8b"/>
      <stop offset=".5211732" stop-color="#64bd62"/>
      <stop offset=".6367876" stop-color="#34a830"/>
      <stop offset=".674157" stop-color="#23a11f"/>
      <stop offset=".6869737" stop-color="#209b1c"/>
      <stop offset=".7628023" stop-color="#128010"/>
      <stop offset=".8398735" stop-color="#086d07"/>
      <stop offset=".9182832" stop-color="#016101"/>
      <stop offset="1" stop-color="#005e00"/>
    </radialGradient>
    <mask id="mask-5" x="8.7975578" y="5.9860916" width="6.1822894" height="6.521585" maskUnits="userSpaceOnUse">
      <path d="M13.4057972,7.6309c0,1.9072-1.1537972,3.2446-3.0458999,3.3769-.2012.0142-.2295-.1592-.0332-.2056,1.6098-.3808,2.6996999-2.1635,2.8773999-3.1894.0176-.2368.2017-.1831.2017.0181Z" fill="#fff"/>
    </mask>
    <mask id="mask-6" x="5.0580974" y="8.6724" width="5.4115999" height="5.4094842" maskUnits="userSpaceOnUse">
      <path d="M8.2011974,9.6724l.0063,2.207-.6211-.4849c-.207.2647-.3359.6275-.0112.9571.606.6152,1.8945-.3702,1.8945-.3702-.5659.9751-1.9296973,1.6006-2.8099999.5713-.751-.8779-.0225-1.8418.0044-1.8789l-.606-.4731,2.1430999-.5283Z" fill="#fff" stroke="#fff" stroke-linecap="round" stroke-linejoin="round" stroke-width="2"/>
    </mask>
    <radialGradient id="New_Gradient_116" data-name="New Gradient 116" cx="9.0149311" cy="10.6103491" fx="9.0149311" fy="10.6103491" r="3.1777689" gradientUnits="userSpaceOnUse">
      <stop offset="0" stop-color="#fff"/>
      <stop offset="1" stop-color="#00cd00"/>
    </radialGradient>
    <radialGradient id="New_Gradient_117" data-name="New Gradient 117" cx="-5.597124" cy="-142.9508396" fx="-5.597124" fy="-142.9508396" r="5.7511802" gradientTransform="translate(9.9555 80.0258) scale(.4916)" gradientUnits="userSpaceOnUse">
      <stop offset="0" stop-color="#328e36"/>
      <stop offset="1" stop-color="#00cd00"/>
    </radialGradient>
    <mask id="mask-7" x="6.0580974" y="9.4922" width="3.4115999" height="3.5896842" maskUnits="userSpaceOnUse">
      <path d="M8.2011974,9.6724l.0063,2.207-.6211-.4849c-.207.2647-.3359.6275-.0112.9571.606.6152,1.8945-.3702,1.8945-.3702-.5659.9751-1.9296973,1.6006-2.8099999.5713-.751-.8779-.0225-1.8418.0044-1.8789l-.606-.4731,2.1430999-.5283Z" fill="#fff"/>
    </mask>
    <radialGradient id="New_Gradient_116-2" data-name="New Gradient 116" cx="8.8965486" cy="10.6713789" fx="8.8965486" fy="10.6713789" r="2.8762648" gradientUnits="userSpaceOnUse"><stop offset="0" stop-color="#fff"/><stop offset="1" stop-color="#00cd00"/></radialGradient>
  </defs>
  <g isolation="isolate">
    <g id="Layer_4" data-name="Layer 4">
      <g>
        <g mask="url(#mask)">
          <g>
            <path d="M8.7992974,14.4561l-5.9662974-1.4873L5.5741974,1.9756l8.4068026,2.0952-2.1387027,8.5522c-.2891,1.1622-1.9107,2.1153-3.0429999,1.8331Z" fill="url(#New_Gradient_399)" fill-rule="evenodd"/>
            <path d="M8.4008974,14.3999s1.4067.2939,1.7925-1.2529c1.435.3579,1.7587-.8907,1.7587-.8907l-.7114,2.8516-2.8397999-.708Z" fill="url(#New_Gradient_400)" fill-rule="evenodd"/>
            <path d="M8.7992974,14.4561l-5.9662974-1.4873L5.5741974,1.9756l8.4068026,2.0952-2.1387027,8.5522c-.2891,1.1622-1.9107,2.1153-3.0429999,1.8331Z" fill="none" fill-rule="evenodd" stroke="#000" stroke-linecap="round" stroke-linejoin="round" stroke-width="2"/>
          </g>
        </g>
        <g mask="url(#mask-1)">
          <g>
            <path d="M8.7992974,14.4561l-5.9662974-1.4873L5.5741974,1.9756l8.4068026,2.0952-2.1387027,8.5522c-.2891,1.1622-1.9107,2.1153-3.0429999,1.8331Z" fill="url(#New_Gradient_401)" fill-rule="evenodd"/>
            <path d="M8.4008974,14.3999s1.4067.2939,1.7925-1.2529c1.435.3579,1.7587-.8907,1.7587-.8907l-.7114,2.8516-2.8397999-.708Z" fill="url(#New_Gradient_402)" fill-rule="evenodd"/>
          </g>
        </g>
      </g>
    </g>
    <g id="Layer_5" data-name="Layer 5">
      <g>
        <path d="M4.7094975,9.8179c2.1302999.5307,4.2606999,1.063,6.3920998,1.5942" fill="none" stroke="#ccc" stroke-linecap="round" stroke-linejoin="round" stroke-width="1.0502"/>
        <path d="M6.0795974,4.3223c2.1307999.5307,4.2606999,1.0625,6.3925998,1.5942" fill="none" stroke="#ccc" stroke-linecap="round" stroke-linejoin="round" stroke-width="1.0502"/>
        <path d="M5.5316974,6.5205c2.1303999.5308,4.2607999,1.063,6.3920998,1.5942" fill="none" stroke="#ccc" stroke-linecap="round" stroke-linejoin="round" stroke-width="1.0502"/>
        <path d="M5.8056974,5.4214c2.1303026.5307,4.2606999,1.063,6.3920998,1.5942" fill="none" stroke="#ccc" stroke-linecap="round" stroke-linejoin="round" stroke-width="1.0502"/>
        <path d="M4.9833974,8.7188c2.1308999.5307,4.2606999,1.0625,6.3926026,1.5942" fill="none" stroke="#ccc" stroke-linecap="round" stroke-linejoin="round" stroke-width="1.0502"/>
        <path d="M5.2572974,7.6191c2.1308999.5313,4.2607999,1.0635,6.3920998,1.5948" fill="none" stroke="#ccc" stroke-linecap="round" stroke-linejoin="round" stroke-width="1.0502"/>
      </g>
    </g>
    <g id="Layer_3" data-name="Layer 3">
      <g>
        <g>
          <path d="M7.0731974,7.9307c0-1.816,1.4717-3.2876,3.2871999-3.2876,1.8154,0,3.2870999,1.4716,3.2870999,3.2876,0,1.8154-1.4717,3.2866-3.2870999,3.2866-1.8155,0-3.2871999-1.4712-3.2871999-3.2866Z" fill="url(#radial-gradient)" fill-rule="evenodd" stroke="#000" stroke-miterlimit="3.8637" stroke-width="2.3008"/>
          <g mask="url(#mask-2)">
            <g>
              <path d="M7.0731974,7.9307c0-1.816,1.4717-3.2876,3.2871999-3.2876,1.8154,0,3.2870999,1.4716,3.2870999,3.2876,0,1.8154-1.4717,3.2866-3.2870999,3.2866-1.8155,0-3.2871999-1.4712-3.2871999-3.2866Z" fill="url(#radial-gradient-2)" fill-rule="evenodd"/>
              <g mask="url(#mask-3)">
                <g>
                  <path d="M13.4057972,7.6309c0,1.9072-1.1537972,3.2446-3.0458999,3.3769-.2012.0142-.2295-.1592-.0332-.2056,1.6098-.3808,2.6996999-2.1635,2.8773999-3.1894.0176-.2368.2017-.1831.2017.0181Z" fill="#3c97f6"/>
                  <path d="M13.4950972,7.6455c0,1.9072-1.1543,3.2451-3.0458999,3.3765-.2016.0151-.23-.1587-.0331973-.2051,1.6093973-.3809,2.6991972-2.1641,2.877-3.1899.0184972-.2369.2020972-.1827.2020972.0185Z" fill="none" stroke="#2b76b4" stroke-miterlimit="3.8637" stroke-width="2.9695"/>
                  <path d="M13.4501972,7.6382c0,1.9072-1.1538,3.2446-3.0458999,3.3769-.2012.0142-.23-.1591-.0332-.2055,1.6094-.3804,2.6996999-2.1631,2.8769027-3.1895.0185972-.2373.2021972-.1831.2021972.0181Z" fill="none" stroke="#1459a5" stroke-miterlimit="3.8637" stroke-width="1.4848"/>
                  <path d="M13.4057972,7.6309c0,1.9072-1.1537972,3.2446-3.0458999,3.3769-.2012.0142-.2295-.1592-.0332-.2056,1.6098-.3808,2.6996999-2.1635,2.8773999-3.1894.0176-.2368.2017-.1831.2017.0181Z" fill="none" stroke="#1d3f99" stroke-miterlimit="3.8637"/>
                </g>
              </g>
              <path d="M9.1771973,5.6567l.0269.0264c.0493.0449.106.1318.0059027.1704l-.0269027.0156c-.1382.0757-.1802-.0385-.2202-.1337-.0586-.0464-.2608.0571-.251-.0918.001-.0196.0015-.0801-.0171-.0972-.2402-.0337-.4184.1225-.6421.1743-.08.0186-.167.0288-.2363.0767-.0049.0263-.0185.0498-.0342.0717-.0957-.0136-.0825-.0444-.0449-.0976.1274.0181.1309-.0986.4351-.0337.1069.0229.0717.3516.0332.4248-.1025974.1943-.1133.0967-.0845.3174.0098.0683-.0024.1089-.0352.167-.0351.103-.1435.0908-.1611.0136l-.0122.0459c-.0088.0342-.0215.0748-.0444.1114-.231.372-.3096.4375-.2231974.914.0287974.1597.0473974.3008.0248974.4629-.0097.0684.0205.1167.0591026.1685l.0546974.0722-.0488-.0292c-.0258974.0029-.0458974.1-.0474.0786-.022-.2857-.0693-.4351-.0604974-.7173.0047974-.1543.1854974-.1123.2118974.1382.0044.0415.0068.0839.0249.123.0893.1856.1782026.3623.2348.5615.0142.0493-.0053.1802.0078.2017.0826026.1279.1338.2524.2676026.3354.0614974.0376.1664974-.0146.2641974.084.0996.1031.1308026.2959.3042.2534.3389-.0839.2207.1563.269.2676.0957.0586.1407.0078.2354.1402.021.0288.0537.0952.0908.0996.0547-.0249.061-.0645.1426-.0537.1382.0195.145.1572.1323.2607l-.0117.0786c-.0303.2163-.2466.2539-.2749.3858.0512.0898.018.1479-.0542.208-.0078.08.1006.1757.1426.2417.0449.0698.0678.1992.1289.2461.1274.1015.3803.1162.3476.3481-.0361.2593-.2173.3291-.3662.4937.2471.0068.4673-.2046.6973-.2818.1772-.0586.3691027-.0498.5366-.1387.0713-.0371.1089-.1533.2104-.2138.2076-.1245.5064-.2031.5826-.4615.021-.0717.04-.1435.0771-.2099.0796-.1431.209-.2471.2876-.3882-.2046-.0288-.4609-.0478-.4917-.3188-.2773-.0401-.3906.0009-.5874-.1997-.0273-.0284-.1255-.1329-.1816-.1094-.042.0254-.0274.0156-.0596.0366-.1543.0918-.2661-.0371-.4106-.0576-.0752.0561-.0118.1064-.1626.122-.0855.0093-.1006-.0932-.0938-.1518l.0039-.0303c-.0117-.0127-.0205-.0268-.0239-.0425.0332.0196.0674.0396.1006.0591-.1407.0386-.2603.3013-.4502.1323-.0572-.0063-.0928.0313-.169.021-.2065-.0297-.4116-.2495-.2407-.4179.0176-.0586-.0142-.0957-.0991-.1416l-.0488.0088-.0259.0009-.1084-.0156-.0698-.0923c-.0157-.0732.0107-.1269.0683-.1728.0303-.022.0171027-.0122.0425-.0313.0137-.041.0161-.0713.0186027-.0976l-.0782027-.0264-.0215.0195c-.0692973.0674-.1289.1319-.2392.1158-.5990974-.084-.3135-1.2007.2246-.9336.0205.0102.0342.0166.0498.0205.1577-.1499.5073.042.4775027.2549-.0053027.0395.0073973.0761.0395973.1108-.0244-.3066-.0982-.3911.1821-.5391l.0625-.0322c.1455-.0752.1236-.1133.1455-.269.0244-.1758.1768-.2618.3272-.2803-.0347-.1265.039-.2012.1543-.23l.0493-.0107c.0493-.0122.0884.0117.0981.0551.0591-.0131.128-.0297.1534027-.0747-.0088027-.0112-.0157027-.0239-.0191027-.0376.0327.0201.0654.0401.0982.0596-.1338.0332-.2974.0493-.2779-.1587-.1665.0108-.1147-.1777.0596-.2202l.0444-.0088c.0274-.0049.064.0137.086.0244.1504-.0683.1709-.0483.1923.1089l.0254.0039c-.0185-.0439-.0048-.0791-.0092-.1225-.0284-.0376-.1646-.0645-.2154-.0957-.1172-.0713-.1958-.2793-.2739-.3028-.0811.0703-.1811.02-.2471-.0478-.0337-.0376-.0195-.023-.0507-.0572-.0489-.0507-.0645-.0288-.125-.021l.0708-.0854c.0053.0962.1196027.1885-.0538.3061l-.0332.021-.0263.0162c-.0303.0214-.0279.0341-.0166.0722l.0117.041c.0488027.2007-.1729.1871-.2276.0108-.0449-.146-.0722-.1226-.2207-.1753-.2827-.1011-.1894-.356.0235-.4492.0674-.0293.2222-.0674.2475-.1367-.0815-.1436.2359-.2652.4004.0625.0127027.0239.0132.0478.0054.0683.0161.0068.0332.0137.0488.0225-.0044-.0157-.0034-.0308.0025027-.044l-.0669027-.0293c-.1143-.0508-.2144-.1806-.3272-.1967-.1157-.0166-.0591-.2002-.0175-.2574-.0157,0-.0293.0015-.0396.0044.0464.0557.0693.1231.0176.1621l-.0215.0166c.0879.1631-.1343.2647-.1895.1665-.0546-.0986-.1171-.1606-.0991-.2851l.0869.0923c.0938027.1381-.0737.2133-.184.1977-.0899-.0127-.2618-.0307-.1431-.1675l.0171-.0185.0044-.0347c-.0371-.0073-.0957-.0264-.1324-.0176ZM7.6591974,5.7798l.0205-.0825c.1416-.126.2812-.1045.4385-.1656.188-.0737.6963-.333.7529.0303l.0332-.0039c.0469-.0029.1025.0015.1572.0449.0362.0269.0532.0679.0655027.1089.0077973-.0034.0160973-.0078.0248973-.0107l-.0367.1255c-.0625-.0835-.1761973-.1573-.0703-.2754.1001027-.1109.2417-.0337.3609-.0274.1235.0069.0796.2334.0171.2989-.0113.0107-.1348-.1128-.0738-.1045.1294.018.0879027.0288.1797-.0113l-.0386.1148c-.0478-.084-.146-.2227.0288027-.2749.0146973-.0044.0302973-.0073.0473973-.0088l.0366027-.0034c.1117973-.0078.0702973.1059.1010973.166.0176.0351.043.0688.0659027.1094l-.082-.0245c-.063-.0629-.0913027-.083-.0112027-.1572-.1329-.185.1406-.3208.3676-.2007.1319.0703-.0423973.167-.062.2286.1109.0415.1822.1416.2896027.1899.0770973.0342.3158973.1533.2352973.2646.0684.1202-.1865.2393-.2495.1553-.062-.083-.2177973-.0991-.3086-.1548-.1108-.0674-.0244-.1411.0523-.1557-.0078-.0059-.0166-.0108-.0249-.0147-.0601.2588-.4888.2246-.439.3755.0469.0454.2124027.0527.3096.1533.0424.0445.0561.1011.0732.1573.0059.0195.0025.02.0025.0205-.0625-.0308-.0645.1557-.0894.0566l-.0103-.0342c-.0301973-.1045-.0087-.1909.0826-.2529l.0332027-.0215.0257973-.0156c.0513-.0352-.0141-.1035-.0175-.1621-.0078-.1377.2422-.1118.3344-.0161.0381.0415.0181.0195.0518.0571.0103.0102.0215027.0205.0342.0273.1631-.1411.3091.127.3872.2334.0195.0274.04.0479.0654.0635.1397027.0835.3145.0469.291.2905.0679.0577.167.0762.1319.2002-.0331973.1172-.4248.0733-.4639-.0835-.042.0181-.082-.0024-.1191-.021-.0259.0064-.0425.0118-.0523.0269l-.0747-.1265c.1436-.0097.2129-.0063.1856.1538l-.0049.0279c.0371027-.0064.0556-.0127.0786-.0181l.0991.0601c-.0127-.0074-.0171-.0215-.0205-.0347.1636.0957-.0347.2988-.2227.3423-.0556.0127-.1523.0473-.1933-.0108l.021.0503c.1098.2803-.3096.0401-.3452.292-.0288.2075-.0268973.2857-.2315.3911l-.0625.0318c-.0434.0229-.0868973.0503-.1177.0908l.0288027.3643-.0019027.0258c-.082.3345-.396-.0151-.3672-.2197.0112-.0811-.1416-.1143-.1943-.123-.1304.1245-.1934.0097-.3075973-.0069-.25-.0346-.4058026.6021-.0665026.6494.065.0098.1377-.1528.2281-.1401.2905.041.2666-.0083.251.2046-.0069.0947-.0015.1523-.0801.2139-.0269.02-.0152.0117-.0269.02.2344027-.042.4551.2358.2735.4155-.0127.0928.123.1548.2041.127.0795-.0269.1416-.0298.2075.0288.0674.0097.2016-.1416.2983027-.168l.1010973.0591c-.0127-.0073-.0166-.0215-.0195-.0342.0185.0112.0337.0244.0429.0415.1416-.0952.3423.0859.4082.0586.043-.0264.0249-.0147.0591-.0361.2632027-.1568.3779.2119.5659.2387.1538.0215.2422.0279.3965.0528.1299.0205-.0024.2485.2202.2793.063.0088.2315.0063.3037.0703l.0215.0195s.0454027.0698.0313.1016c-.0781.1831-.232.2973-.3257.4663-.0741973.1333-.0531973.2573-.1748.3862-.1738.1841-.3383973.2232-.5435.3462-.082.0479-.0976.1548-.2182.2178-.1875.0991-.3686973.0859-.5611.1489-.2855973.0957-.6181.4321-.9277.2402-.1431-.0898.1758-.334.2393-.3911.3437-.311.0356-.2934-.1426-.4355-.1148-.0884-.1001-.1846-.1651-.2866-.0854-.1343-.2866-.3091-.0996-.4639-.1176-.2163.2398-.3281.2613-.4824l.0112-.0757c.0024-.022.0049-.0435.0039-.063-.2334.165-.2939-.145-.4019-.1802-.0815-.0259-.1518-.0283-.1909-.1181-.0244-.0557-.0194973-.1143-.0214973-.1729l-.019-.0103c-.2505026.0332-.2817026.0396-.4434026-.2138-.1045-.1646-.1499-.0493-.2885-.1348-.1665-.1035-.2198-.2305-.3199-.3857-.0678-.106-.0073-.1743-.0273-.2456-.0278-.0972-.0615-.189-.103-.2813.0127.1162.0283.2344-.1314.2114-.0083-.0014-.0488-.0249-.0542-.0317l-.0552-.0728c-.1518-.2041-.0659-.2792-.0844-.5009-.0313-.3638-.1538-.6079.0508-.9688.0459-.081.1035026-.1582.166-.2583.0664-.1094.0566-.4106.2998-.29.102.0146.063.1435.0542.2007l-.1582-.0367c.0039-.0126.0088-.0239.0141-.0341.0684-.1241-.0927-.1831.0835-.4292.0845-.1172.0532-.1358.0469-.2627l-.0312-.0059c-.064-.0093-.6119.2105-.3902-.1001l.0098.0054ZM9.604,7.2534l-.0054027.0205-.0107.044c-.042.1552-.1987.227-.2236.0937-.0245-.1333-.0606-.2803.061-.3769l.0273-.0215.0049.1338c-.0194973-.0122-.0371-.0279-.0547-.043-.0257973-.02-.1674-.0239-.2002-.0254-.1074-.0039-.1259-.1216-.0244-.1582.1475-.0532.3623-.1875.4644.0215.0395.0801.0464027.0742.1328.1089.063.0259.2246027.1138.1357.2026l-.039.0391c-.0469.0444-.0962.0766-.1602.0942-.1255.0352-.0888973-.1011-.1078973-.1333ZM9.7216973,7.2056c-.0528-.0215-.1006-.0396-.146-.0762-.0615-.0479-.0674-.1123-.0874-.1328-.0912973-.0127-.1734.0483-.2554.0776l-.0238973-.1587c.0912973.0039.2211973.0015.2953973.0611.0498.0424.1343.1005.0459.1674l-.0234.0176c-.0655.0689.0629.1939-.1148.1587.0088-.0107.0147-.0312.0181-.0444l.0097-.0401c.0205-.0888.063-.1718.1724-.1562.1162.0161.1738.1328.1592.2397l-.103-.0903c.0224-.0059.0385027-.0137.0532-.0234ZM10.1200973,7.2349c.1626.081-.1216.3339-.418.2924-.0673-.0097-.2020973-.0322-.1190973-.1396.1151973-.1499.2592973-.1831.4257973-.1958.0327-.002.0933.0342.1113.043ZM10.0473973,7.3809l-.0489-.024c-.1367.0122-.2172.0406-.2866.1304l-.0527-.1309c.1553.0215.249.0225.3642-.104l.024.1285ZM10.1210973,9.1187l.0918-.1055c.1142-.0283.2475.0727.3618.1006.1553027.0371.0166.248-.2026.2578-.0865.0039-.1709-.0142-.2559-.0259-.0679-.0098-.0937-.0542-.0859-.1226l.0053-.0312c.0376-.0352.065-.0576.0855-.0732ZM10.3666973,9.2085c-.0283-.0127-.0526973-.023-.083-.0303-.0049.0362-.0405.0694-.0772.0713-.0302.001-.0478.0078-.0756.0117l.0688-.0854c.0015.022-.0034.0444-.0068.0664-.0362-.0054-.0576-.022-.0537-.0581.0752.0107.1518027.0283.2275.0244ZM9.6200973,8.9849c-.0370973.0322-.0566.0405-.0718.0439l-.0297-.001c-.233-.0439-.3315973-.3305.1035-.27.1225.0176.1904.063.2949027.1211.0917973.0513.2401973.0659.2186973.2183-.0234.1621-.2138.1196-.3183.1054-.063-.0092-.0899-.0605-.0615-.1172l.0097-.019c-.0449-.0376-.0869-.0679-.1455-.0815ZM9.5155973,8.8594c.0835-.0777.1953-.0298.2798.0254.0488.0312.1616027.1093.1597.1723-.001.0435-.0352.0645-.0532.1011l-.0621-.1172.0606.0083c-.1045-.04-.1875-.1133-.3018-.1294-.0688-.0097-.103-.0053-.1821.0073l.0664-.1001c.0025.0118.0088.023.0327.0323ZM10.2768973,5.582l.0244.0093c.0835.0586.1611.1582.2715.1616.0688.002.0678.0796.1093.1138.0337.0288.0694.0518.0996.084.0689.0757.1753027.2285.2915.2163.0142-.0015.0289-.0024.0469-.0024l-.0780973.1127c-.0483027-.1206-.207-.1982-.1025027-.3701.0058-.0093.0112-.0171.0175027-.0249.0185973-.0234.0112973-.0146.0273973-.0342.0097-.0146.0112-.018.0117-.0214-.0098-.0108-.1729-.0562-.2065-.0752-.1645973-.0889-.3038-.2408-.5127-.1695ZM10.3554973,5.8413c-.0424973-.0303-.0826-.0688-.1324-.105-.4720973-.08.0332-.518.4747-.2378.0532027.0337.103.0738.1694.1104.1099.06.3174.0508.2905.2402-.0054.0371-.022.0703-.0444.0991-.02.0245-.0108.0122-.0274.0332-.0332.0533.0874.1851.1075.2339.0444.1099-.0883973.1236-.1582.1138-.1861-.0259-.2613-.1445-.3741-.2676-.0517-.0561-.1137-.0761-.1513-.1518-.062-.0118-.1114-.0376-.1543-.0684Z" fill="url(#linear-gradient)"/>
              <g mask="url(#mask-4)">
                <g>
                  <path d="M7.7094974,5.7246c.02.0523-.0644974.0864-.0074.0942.1265.0181.1983-.0766.3252-.059.0415.0063.0621.0151.104.0244-.0122.0845.0166.1406.0049.2251-.0175.1264-.122.1699-.1401.2969-.0107.0786.0317.1274.0205.2055-.0049.0357-.0264.0542-.0371.0869l.0156-.1084c-.0239-.0039-.0347-.0175-.0586-.0205-.1234974-.0176-.0976.167-.1611.2725-.1226.1973-.2275.3061-.2598.5347-.0473.3374.0967.5356.0498.873-.0175.1265.0518.1982.1299.3013.0181.0024.0361.0019.0498-.0054-.022-.2827-.0683-.4307-.0605-.709.0722.0962.0322.1885.0815.294.0996.208.1665.3247.23.5483.0225.0801-.0273.1528.0181.2236.0957.149.1406.2657.2929.3609.0855.0517.1783.0005.2486.0718.1074.1103.1259.2636.2793026.2851.0785973.0108.1268973-.0312.2054973-.0205.0933.0137.0347.1465.0718.2319.0327027.0747.1284.0484.1948.1006.0801.0635.0923.1729.1944.1875.0605027.0088.083-.062.143-.0537.0967.0132.0655027.1504.0518.2471-.0264.186-.2515.2099-.2769.397-.0048.0332.0293.0502.0249.0834-.0068.0484-.0698.0572-.0766.106-.0181.1328.084.1929.1543027.3042.0624973.0977.0550973.1948.1464973.2666.1269.1006.3403.1123.3178.272-.0371.2676-.2772973.3174-.4209.5493.0254.0156.0391.0298.0694.0342.3222027.0449.479-.1787.789-.2827.2095-.0689.3531-.0391.5489-.1446.103-.0527.1142-.1552.2143027-.2148.208-.1245.3593973-.1558.5258973-.3325.1045-.1109.0884-.2354.1631027-.3697.1063973-.1909.2352973-.2558.3221973-.4589-.0258-.0157-.0371-.0416-.0703-.0464l-.2226-.0313c-.1387-.0195-.2417-.1416-.2227-.2798-.1528-.0249-.2407-.0312-.395-.0522-.1958-.0278-.2358-.2422-.4315973-.27-.0845027-.0118-.1216027.081-.2066027.0693-.1118-.0156-.165-.0723-.2759-.0884-.0693-.0093-.1024973.0532-.1338.1167l-.0498.0049c-.0117-.0439-.0004-.0791.0059-.1279.0029-.0176-.0277973-.0191-.0317-.0352-.1407.0391-.1875.1953-.3316.1748-.0366-.0053-.0493-.0439-.0859-.0488-.0659-.0093-.103.0347-.1695.0254-.123-.0176-.2436-.105-.226-.2285.0068-.045.0576-.0567.0639027-.1016.0156973-.1118-.0727027-.1826-.1762027-.2339l-.0752.0137-.1089-.0156c.0029-.0205-.0078-.0342-.0044-.0552.0102-.0786.1162-.082.1269-.1607.0098027-.0688.001-.1132.0254-.1806l-.1992-.0278c-.084.0522-.1255.1547-.2285.1401-.1802-.0254-.2905-.2075-.2646-.3877.0297026-.2144.1401-.4531.3544-.4229.0718.0098.1031.0508.1753026.0616.0512973.0068.0668973-.0645.1186973-.0577.1357.0191.2959.0816.2773027.2173-.0175027.1241.0712973.21.1835973.2652.0103-.0288.0157-.0464.023-.0757l-.0313-.3921c.1065-.1851.3662-.1577.3955-.3657l.0196-.1382c.0224-.1597.2016027-.2329.3608-.21-.0098-.06-.0474-.0932-.0391-.1533.0093-.0664.084-.0742.1475-.0898-.001.0273,0,.0459.002.0737.145-.0254.3022-.0498.3227-.1939.0025-.0185-.0282973-.0195-.0322-.0356-.0479.0112-.0800973.0259-.1318.0181-.0689-.0093-.0464-.1075-.0302973-.1758-.0425027-.0059-.0669027-.0068-.1104027-.0034.0313-.0484.0757-.0572.1328-.0674l.0684.0342c.0391-.0157.0659-.0308.105-.0469.0132027.0571-.0034.1348.0566.1431l.2622.0371c.0186-.065-.0718-.0772-.1172-.127-.04-.043.0088-.1035-.0278-.1518-.0625-.0826-.1533-.0674-.2412-.1197-.1503973-.0913-.1489-.2944-.3242-.3188-.0331973-.0049-.0459.043-.0791.0381-.1172-.0166-.1348-.1543-.2525-.1709-.0361-.0049-.059.0073-.0937.0112.0034.062.0483.0933.04.1533-.0146.1026-.1616.0972-.1753.1997-.0092.0635.023.0987.0259.1636-.0947-.0044-.0664-.1353-.1313-.2026-.1099-.1143-.3575-.0811-.335-.2412.0322-.2261.415-.1539.4473-.3794.0024-.0181-.0181-.0269-.0186-.0425.0278-.0054.0454-.0186.0757-.0142.0957.0137.1426.0786.1855.1646-.0580973.0161-.0937.0112-.1518.0283.1245.0757.2441.0581.332.1753l.1187027-.0571c-.0249027-.0435-.0454027-.0708-.084-.1041.0258973-.0053.0472973-.0083.0741973-.0019-.0591-.1064-.1694-.1064-.2705-.1758-.1006-.0698-.1489-.144-.2725-.1616l.0083-.0571c.0103-.0752.0611-.1021.1089-.1602-.0317-.0161-.0508-.0312-.0869-.0366-.0786-.0108-.1777-.0064-.1884973.0723-.0068027.0478.0400973.0639.0590973.1064-.0347.0259-.0586.0439-.0845.0742.0274027.0254.0538.0537.0489.0928-.0039.0268-.0323.0288-.0557.0415-.0469-.0835-.1035-.1377-.0897973-.2339-.0435027.0029-.0992027.0044-.105.0459-.0069027.0518.0326973.0757.0570973.1191-.0425.0186-.0698.0396-.1182.0328l-.1054-.0152c.0132-.0283.0415027-.0371.0469-.0698l.0166027-.1235c-.0694027-.0039-.1065027-.0215-.1763027-.0313-.0571-.0083-.127.0098-.1353.0669-.0092.0635.0528.0845.0913.1358-.0293.0112-.0449.0336-.0776.0288-.0635-.0088-.041-.1006-.0913-.1382-.0664-.0523-.1333-.0156-.2183-.0191.0049-.0786-.0127-.1738-.0908-.184-.2202-.0308-.3466974.0615-.5552.143-.1557.0611-.291.042-.414.1504ZM9.1820973,6.9639c.1099027-.0401.1763-.0982.294-.0816.0752.0108.0678.105.1264.1504.0801.063.1607.0557.2276.1299-.0542.0537-.0899.0913-.1636.1118.0093-.0659-.0234-.1382-.0898-.1474-.1089-.0152-.0572.1884-.1563.2358-.0156-.085-.0293-.1392-.0176-.2236.0069-.045.0401-.0684.0752027-.0938-.0371027-.0234-.0571027-.0571-.102-.0635-.0606027-.0083-.1333027-.0151-.1939027-.018ZM9.9906973,7.2402l.0689.0342c-.1015973.1118-.2193.1602-.3697.1392l-.0664-.0098c.0943-.1221.209-.1518.3672-.1636ZM10.104,9.2319c-.0332027-.0053-.0078027-.0537-.0098027-.0849.0318027-.0049.0513-.0108.085-.0127.001-.0274.0005-.0459-.002-.0738.0215.0035.0323-.0083.0533-.0048.123.0171.1797.0747.3012.104-.0962.1401-.2616973.0947-.4276973.0722ZM9.5092973,8.9146c-.0625-.0123-.1142973-.0376-.1299-.1016.082-.0132.1255-.0191.207-.0078.1114.0161.1699.0581.2671.1118.0742.0405.1895027.0513.1773.1352-.0069.0513-.0694.0582-.1206.0508l-.1055-.0146c.0127-.0264.0283027-.0454.0464-.0669-.0904-.0806-.1494-.1382-.27-.1553-.021-.0029-.0523.0444-.0718.0484ZM10.2304973,5.6245c.1142.0806.1753.1719.3159.1768.0156027.0879.0923.1079.1509.1714.1064.1167.1689.2202.3256.2426.0269.0039.0435-.0034.0709-.0024-.0411-.1011-.1397-.146-.1241-.2544.0098-.0664.0733027-.0879.083-.1543.0161-.1108-.1508-.104-.248-.1577-.1366973-.0742-.2075-.1641-.3638-.1861-.1416-.0195-.2827-.0029-.3501.1231.0386.0142.0967.0376.1397.041Z" fill="url(#radial-gradient-3)" fill-rule="evenodd"/>
                  <g mask="url(#mask-5)">
                    <g mix-blend-mode="screen" opacity=".3">
                      <path d="M13.4057972,7.6309c0,1.9072-1.1537972,3.2446-3.0458999,3.3769-.2012.0142-.2295-.1592-.0332-.2056,1.6098-.3808,2.6996999-2.1635,2.8773999-3.1894.0176-.2368.2017-.1831.2017.0181Z" fill="#c9ffc9"/>
                      <path d="M13.4950972,7.6455c0,1.9072-1.1543,3.2451-3.0458999,3.3765-.2016.0151-.23-.1587-.0331973-.2051,1.6093973-.3809,2.6991972-2.1641,2.877-3.1899.0184972-.2369.2020972-.1827.2020972.0185Z" fill="none" stroke="#a7dbaa" stroke-miterlimit="3.8637" stroke-width="2.9695"/>
                      <path d="M13.4501972,7.6382c0,1.9072-1.1538,3.2446-3.0458999,3.3769-.2012.0142-.23-.1591-.0332-.2055,1.6094-.3804,2.6996999-2.1631,2.8769027-3.1895.0185972-.2373.2021972-.1831.2021972.0181Z" fill="none" stroke="#85cd92" stroke-miterlimit="3.8637" stroke-width="1.4848"/>
                      <path d="M13.4057972,7.6309c0,1.9072-1.1537972,3.2446-3.0458999,3.3769-.2012.0142-.2295-.1592-.0332-.2056,1.6098-.3808,2.6996999-2.1635,2.8773999-3.1894.0176-.2368.2017-.1831.2017.0181Z" fill="none" stroke="#65bd7b" stroke-miterlimit="3.8637"/>
                    </g>
                  </g>
                  <path d="M7.7094974,5.7246c.02.0523-.0644974.0864-.0074.0942.1265.0181.1983-.0766.3252-.059.0415.0063.0621.0151.104.0244-.0122.0845.0166.1406.0049.2251-.0175.1264-.122.1699-.1401.2969-.0107.0786.0317.1274.0205.2055-.0049.0357-.0264.0542-.0371.0869l.0156-.1084c-.0239-.0039-.0347-.0175-.0586-.0205-.1234974-.0176-.0976.167-.1611.2725-.1226.1973-.2275.3061-.2598.5347-.0473.3374.0967.5356.0498.873-.0175.1265.0518.1982.1299.3013.0181.0024.0361.0019.0498-.0054-.022-.2827-.0683-.4307-.0605-.709.0722.0962.0322.1885.0815.294.0996.208.1665.3247.23.5483.0225.0801-.0273.1528.0181.2236.0957.149.1406.2657.2929.3609.0855.0517.1783.0005.2486.0718.1074.1103.1259.2636.2793026.2851.0785973.0108.1268973-.0312.2054973-.0205.0933.0137.0347.1465.0718.2319.0327027.0747.1284.0484.1948.1006.0801.0635.0923.1729.1944.1875.0605027.0088.083-.062.143-.0537.0967.0132.0655027.1504.0518.2471-.0264.186-.2515.2099-.2769.397-.0048.0332.0293.0502.0249.0834-.0068.0484-.0698.0572-.0766.106-.0181.1328.084.1929.1543027.3042.0624973.0977.0550973.1948.1464973.2666.1269.1006.3403.1123.3178.272-.0371.2676-.2772973.3174-.4209.5493.0254.0156.0391.0298.0694.0342.3222027.0449.479-.1787.789-.2827.2095-.0689.3531-.0391.5489-.1446.103-.0527.1142-.1552.2143027-.2148.208-.1245.3593973-.1558.5258973-.3325.1045-.1109.0884-.2354.1631027-.3697.1063973-.1909.2352973-.2558.3221973-.4589-.0258-.0157-.0371-.0416-.0703-.0464l-.2226-.0313c-.1387-.0195-.2417-.1416-.2227-.2798-.1528-.0249-.2407-.0312-.395-.0522-.1958-.0278-.2358-.2422-.4315973-.27-.0845027-.0118-.1216027.081-.2066027.0693-.1118-.0156-.165-.0723-.2759-.0884-.0693-.0093-.1024973.0532-.1338.1167l-.0498.0049c-.0117-.0439-.0004-.0791.0059-.1279.0029-.0176-.0277973-.0191-.0317-.0352-.1407.0391-.1875.1953-.3316.1748-.0366-.0053-.0493-.0439-.0859-.0488-.0659-.0093-.103.0347-.1695.0254-.123-.0176-.2436-.105-.226-.2285.0068-.045.0576-.0567.0639027-.1016.0156973-.1118-.0727027-.1826-.1762027-.2339l-.0752.0137-.1089-.0156c.0029-.0205-.0078-.0342-.0044-.0552.0102-.0786.1162-.082.1269-.1607.0098027-.0688.001-.1132.0254-.1806l-.1992-.0278c-.084.0522-.1255.1547-.2285.1401-.1802-.0254-.2905-.2075-.2646-.3877.0297026-.2144.1401-.4531.3544-.4229.0718.0098.1031.0508.1753026.0616.0512973.0068.0668973-.0645.1186973-.0577.1357.0191.2959.0816.2773027.2173-.0175027.1241.0712973.21.1835973.2652.0103-.0288.0157-.0464.023-.0757l-.0313-.3921c.1065-.1851.3662-.1577.3955-.3657l.0196-.1382c.0224-.1597.2016027-.2329.3608-.21-.0098-.06-.0474-.0932-.0391-.1533.0093-.0664.084-.0742.1475-.0898-.001.0273,0,.0459.002.0737.145-.0254.3022-.0498.3227-.1939.0025-.0185-.0282973-.0195-.0322-.0356-.0479.0112-.0800973.0259-.1318.0181-.0689-.0093-.0464-.1075-.0302973-.1758-.0425027-.0059-.0669027-.0068-.1104027-.0034.0313-.0484.0757-.0572.1328-.0674l.0684.0342c.0391-.0157.0659-.0308.105-.0469.0132027.0571-.0034.1348.0566.1431l.2622.0371c.0186-.065-.0718-.0772-.1172-.127-.04-.043.0088-.1035-.0278-.1518-.0625-.0826-.1533-.0674-.2412-.1197-.1503973-.0913-.1489-.2944-.3242-.3188-.0331973-.0049-.0459.043-.0791.0381-.1172-.0166-.1348-.1543-.2525-.1709-.0361-.0049-.059.0073-.0937.0112.0034.062.0483.0933.04.1533-.0146.1026-.1616.0972-.1753.1997-.0092.0635.023.0987.0259.1636-.0947-.0044-.0664-.1353-.1313-.2026-.1099-.1143-.3575-.0811-.335-.2412.0322-.2261.415-.1539.4473-.3794.0024-.0181-.0181-.0269-.0186-.0425.0278-.0054.0454-.0186.0757-.0142.0957.0137.1426.0786.1855.1646-.0580973.0161-.0937.0112-.1518.0283.1245.0757.2441.0581.332.1753l.1187027-.0571c-.0249027-.0435-.0454027-.0708-.084-.1041.0258973-.0053.0472973-.0083.0741973-.0019-.0591-.1064-.1694-.1064-.2705-.1758-.1006-.0698-.1489-.144-.2725-.1616l.0083-.0571c.0103-.0752.0611-.1021.1089-.1602-.0317-.0161-.0508-.0312-.0869-.0366-.0786-.0108-.1777-.0064-.1884973.0723-.0068027.0478.0400973.0639.0590973.1064-.0347.0259-.0586.0439-.0845.0742.0274027.0254.0538.0537.0489.0928-.0039.0268-.0323.0288-.0557.0415-.0469-.0835-.1035-.1377-.0897973-.2339-.0435027.0029-.0992027.0044-.105.0459-.0069027.0518.0326973.0757.0570973.1191-.0425.0186-.0698.0396-.1182.0328l-.1054-.0152c.0132-.0283.0415027-.0371.0469-.0698l.0166027-.1235c-.0694027-.0039-.1065027-.0215-.1763027-.0313-.0571-.0083-.127.0098-.1353.0669-.0092.0635.0528.0845.0913.1358-.0293.0112-.0449.0336-.0776.0288-.0635-.0088-.041-.1006-.0913-.1382-.0664-.0523-.1333-.0156-.2183-.0191.0049-.0786-.0127-.1738-.0908-.184-.2202-.0308-.3466974.0615-.5552.143-.1557.0611-.291.042-.414.1504ZM9.1820973,6.9639c.1099027-.0401.1763-.0982.294-.0816.0752.0108.0678.105.1264.1504.0801.063.1607.0557.2276.1299-.0542.0537-.0899.0913-.1636.1118.0093-.0659-.0234-.1382-.0898-.1474-.1089-.0152-.0572.1884-.1563.2358-.0156-.085-.0293-.1392-.0176-.2236.0069-.045.0401-.0684.0752027-.0938-.0371027-.0234-.0571027-.0571-.102-.0635-.0606027-.0083-.1333027-.0151-.1939027-.018ZM9.9906973,7.2402l.0689.0342c-.1015973.1118-.2193.1602-.3697.1392l-.0664-.0098c.0943-.1221.209-.1518.3672-.1636ZM10.104,9.2319c-.0332027-.0053-.0078027-.0537-.0098027-.0849.0318027-.0049.0513-.0108.085-.0127.001-.0274.0005-.0459-.002-.0738.0215.0035.0323-.0083.0533-.0048.123.0171.1797.0747.3012.104-.0962.1401-.2616973.0947-.4276973.0722ZM9.5092973,8.9146c-.0625-.0123-.1142973-.0376-.1299-.1016.082-.0132.1255-.0191.207-.0078.1114.0161.1699.0581.2671.1118.0742.0405.1895027.0513.1773.1352-.0069.0513-.0694.0582-.1206.0508l-.1055-.0146c.0127-.0264.0283027-.0454.0464-.0669-.0904-.0806-.1494-.1382-.27-.1553-.021-.0029-.0523.0444-.0718.0484ZM10.2304973,5.6245c.1142.0806.1753.1719.3159.1768.0156027.0879.0923.1079.1509.1714.1064.1167.1689.2202.3256.2426.0269.0039.0435-.0034.0709-.0024-.0411-.1011-.1397-.146-.1241-.2544.0098-.0664.0733027-.0879.083-.1543.0161-.1108-.1508-.104-.248-.1577-.1366973-.0742-.2075-.1641-.3638-.1861-.1416-.0195-.2827-.0029-.3501.1231.0386.0142.0967.0376.1397.041Z" fill="none" fill-rule="evenodd"/>
                </g>
              </g>
            </g>
          </g>
        </g>
        <g>
          <g mask="url(#mask-6)">
            <g>
              <path d="M8.2011974,9.6724l.0063,2.207-.6211-.4849c-.207.2647-.3359.6275-.0112.9571.606.6152,1.8945-.3702,1.8945-.3702-.5659.9751-1.9296973,1.6006-2.8099999.5713-.751-.8779-.0225-1.8418.0044-1.8789l-.606-.4731,2.1430999-.5283Z" fill="url(#New_Gradient_116)"/>
              <path d="M8.3715974,9.4922l-.3715974.0596-.0264026,1.8647-.458-.3086s-.4443.4878-.2719.96c.3022.8237,1.2314.3965,1.2314.3965l-.1035-2.9722Z" fill="url(#New_Gradient_117)" fill-rule="evenodd"/>
              <path d="M8.2011974,9.6724l.0063,2.207-.6211-.4849c-.207.2647-.3359.6275-.0112.9571.606.6152,1.8945-.3702,1.8945-.3702-.5659.9751-1.9296973,1.6006-2.8099999.5713-.751-.8779-.0225-1.8418.0044-1.8789l-.606-.4731,2.1430999-.5283Z" fill="none" stroke="#000" stroke-linecap="round" stroke-linejoin="round" stroke-width="2"/>
            </g>
          </g>
          <g mask="url(#mask-7)">
            <g>
              <path d="M8.2011974,9.6724l.0063,2.207-.6211-.4849c-.207.2647-.3359.6275-.0112.9571.606.6152,1.8945-.3702,1.8945-.3702-.5659.9751-1.9296973,1.6006-2.8099999.5713-.751-.8779-.0225-1.8418.0044-1.8789l-.606-.4731,2.1430999-.5283Z" fill="url(#New_Gradient_116-2)"/>
              <path d="M8.3715974,9.4922l-.3715974.0596-.0264026,1.8647-.458-.3086s-.4443.4878-.2719.96c.3022.8237,1.2314.3965,1.2314.3965l-.1035-2.9722Z" fill="url(#New_Gradient_117)" fill-rule="evenodd"/>
            </g>
          </g>
        </g>
      </g>
    </g>
  </g>
</svg>