<?xml version='1.0' encoding='UTF-8'?>
<svg xmlns="http://www.w3.org/2000/svg" xmlns:xlink="http://www.w3.org/1999/xlink" width="16" height="16" viewBox="0 0 16 16">
  <defs>
    <mask id="mask" x="1.8427967" y=".9805" width="13.1478997" height="14.5304477" maskUnits="userSpaceOnUse">
      <path d="M8.8090965,14.4609l-5.9662998-1.4873L5.584,1.9805l8.4066964,2.0952-2.1381999,8.5522c-.2894965,1.1626-1.9106,2.1153-3.0433999,1.833Z" fill="#fff" fill-rule="evenodd" stroke="#fff" stroke-linecap="round" stroke-linejoin="round" stroke-width="2"/>
    </mask>
    <linearGradient id="New_Gradient_399" data-name="New Gradient 399" x1="5.2939495" y1="2.1219671" x2="11.4447317" y2="14.7329396" gradientUnits="userSpaceOnUse">
      <stop offset="0" stop-color="#e5e5e5"/>
      <stop offset="1" stop-color="#fff"/>
    </linearGradient>
    <radialGradient id="New_Gradient_400" data-name="New Gradient 400" cx="4.1912388" cy="-59.6761146" fx="4.1912388" fy="-59.6761146" r="4.4322464" gradientTransform="translate(-3.1527 49.2774) rotate(13.9901369) scale(.6630684) skewX(-.0167694)" gradientUnits="userSpaceOnUse">
      <stop offset="0" stop-color="#fff"/>
      <stop offset="1" stop-color="#ccc"/>
    </radialGradient>
    <mask id="mask-1" x="2.8427967" y="1.9805" width="11.1478997" height="13.1323" maskUnits="userSpaceOnUse">
      <path d="M8.8090965,14.4609l-5.9662998-1.4873L5.584,1.9805l8.4066964,2.0952-2.1381999,8.5522c-.2894965,1.1626-1.9106,2.1153-3.0433999,1.833Z" fill="#fff" fill-rule="evenodd"/>
    </mask>
    <linearGradient id="New_Gradient_401" data-name="New Gradient 401" x1="5.2939495" y1="2.1219671" x2="11.4447317" y2="14.7329396" gradientUnits="userSpaceOnUse">
      <stop offset="0" stop-color="#e5e5e5"/>
      <stop offset=".286514" stop-color="#f2f2f2"/>
      <stop offset=".646072" stop-color="#fff"/>
      <stop offset="1" stop-color="#fff"/>
    </linearGradient>
    <radialGradient id="New_Gradient_402" data-name="New Gradient 402" cx="4.1912388" cy="-59.6761146" fx="4.1912388" fy="-59.6761146" r="4.4322464" gradientTransform="translate(-3.1527 49.2774) rotate(13.9901369) scale(.6630684) skewX(-.0167694)" gradientUnits="userSpaceOnUse">
      <stop offset="0" stop-color="#e5e5e5"/>
      <stop offset=".331467" stop-color="#e5e5e5"/>
      <stop offset="1" stop-color="#999"/>
    </radialGradient>
    <mask id="mask-2" x="6.6493966" y="7.9066291" width="6.3412998" height="5.8033232" maskUnits="userSpaceOnUse">
      <path d="M9.8197965,11.9897c1.2359,0,2.3549999-.3149,3.1708999-.8242-.1963-1.5234-1.5395-2.7036-3.1708999-2.7036-1.6313,0-2.9740999,1.1802-3.1703999,2.7036.8159.5093,1.9351.8242,3.1703999.8242Z" fill="#fff"/>
    </mask>
    <radialGradient id="radial-gradient" cx="9.3047496" cy="-33.7578799" fx="9.3047496" fy="-33.7578799" r="6.1064248" gradientTransform="translate(2.6798 30.2883) scale(.6139)" gradientUnits="userSpaceOnUse">
      <stop offset="0" stop-color="#ff936a"/>
      <stop offset=".0734014" stop-color="#ff845f"/>
      <stop offset=".2143019" stop-color="#ff5d43"/>
      <stop offset=".4065987" stop-color="#ff1e16"/>
      <stop offset=".494382" stop-color="red"/>
      <stop offset="1" stop-color="#a70000"/>
    </radialGradient>
    <radialGradient id="radial-gradient-2" cx="-19.2910641" cy="56.3445493" fx="-19.2910641" fy="56.3445493" r="3.5921416" gradientTransform="translate(22.8888 -30.3417) rotate(-22.1358439) scale(.766712 .5686513) skewX(-16.7887588)" gradientUnits="userSpaceOnUse">
      <stop offset="0" stop-color="#fff"/>
      <stop offset=".2672026" stop-color="#fdfeff"/>
      <stop offset=".3634512" stop-color="#f6fcff"/>
      <stop offset=".4320518" stop-color="#eaf8ff"/>
      <stop offset=".487495" stop-color="#d9f3ff"/>
      <stop offset=".5344661" stop-color="#c3ecff"/>
      <stop offset=".55618" stop-color="#b7e9ff"/>
      <stop offset=".955056" stop-color="#69c"/>
    </radialGradient>
    <radialGradient id="radial-gradient-3" cx="10.7411825" cy="-33.7575871" fx="10.7411825" fy="-33.7575871" r="3.5923651" gradientTransform="translate(2.6798 30.2883) scale(.6139)" gradientUnits="userSpaceOnUse">
      <stop offset="0" stop-color="#fff"/>
      <stop offset=".2672026" stop-color="#fdfeff"/>
      <stop offset=".3634512" stop-color="#f6fcff"/>
      <stop offset=".4320518" stop-color="#eaf8ff"/>
      <stop offset=".487495" stop-color="#d9f3ff"/>
      <stop offset=".5344661" stop-color="#c3ecff"/>
      <stop offset=".55618" stop-color="#b7e9ff"/>
      <stop offset=".955056" stop-color="#69c"/>
    </radialGradient>
    <linearGradient id="linear-gradient" x1="9.4840271" y1="7.8264267" x2="10.1560779" y2="8.4984775" gradientUnits="userSpaceOnUse">
      <stop offset="0" stop-color="#fff"/>
      <stop offset="1" stop-color="#9a5500"/>
    </linearGradient>
    <linearGradient id="linear-gradient-2" x1="9.4365184" y1="7.6686655" x2="10.2035622" y2="8.4357093" gradientUnits="userSpaceOnUse">
      <stop offset="0" stop-color="#fff"/>
      <stop offset="1" stop-color="#ffe900"/>
    </linearGradient>
    <radialGradient id="radial-gradient-4" cx="24.7857307" cy="-17.0790702" fx="24.7857307" fy="-17.0790702" r="1.5431937" gradientTransform="translate(-5.7669 18.882) rotate(-5.008547) scale(.6139442)" gradientUnits="userSpaceOnUse">
      <stop offset="0" stop-color="#16336e"/>
      <stop offset="1" stop-color="#b4daea"/>
    </radialGradient>
    <radialGradient id="radial-gradient-5" cx="29.0924256" cy="-16.0927162" fx="29.0924256" fy="-16.0927162" r="1.5431104" gradientTransform="translate(-5.7669 18.882) rotate(-5.008547) scale(.6139442)" gradientUnits="userSpaceOnUse"><stop offset="0" stop-color="#16336e"/><stop offset="1" stop-color="#b4daea"/></radialGradient>
  </defs>
  <g id="Layer_4" data-name="Layer 4">
    <g>
      <g mask="url(#mask)">
        <g>
          <path d="M8.8090965,14.4609l-5.9662998-1.4873L5.584,1.9805l8.4066964,2.0952-2.1381999,8.5522c-.2894965,1.1626-1.9106,2.1153-3.0433999,1.833Z" fill="url(#New_Gradient_399)" fill-rule="evenodd"/>
          <path d="M8.4105966,14.4053s1.4068.2934,1.7925-1.2534c1.4356.3579,1.7588-.8907,1.7588-.8907l-.7108965,2.8516-2.8404034-.7075Z" fill="url(#New_Gradient_400)" fill-rule="evenodd"/>
          <path d="M8.8090965,14.4609l-5.9662998-1.4873L5.584,1.9805l8.4066964,2.0952-2.1381999,8.5522c-.2894965,1.1626-1.9106,2.1153-3.0433999,1.833Z" fill="none" fill-rule="evenodd" stroke="#000" stroke-linecap="round" stroke-linejoin="round" stroke-width="2"/>
        </g>
      </g>
      <g mask="url(#mask-1)">
        <g>
          <path d="M8.8090965,14.4609l-5.9662998-1.4873L5.584,1.9805l8.4066964,2.0952-2.1381999,8.5522c-.2894965,1.1626-1.9106,2.1153-3.0433999,1.833Z" fill="url(#New_Gradient_401)" fill-rule="evenodd"/>
          <path d="M8.4105966,14.4053s1.4068.2934,1.7925-1.2534c1.4356.3579,1.7588-.8907,1.7588-.8907l-.7108965,2.8516-2.8404034-.7075Z" fill="url(#New_Gradient_402)" fill-rule="evenodd"/>
        </g>
      </g>
    </g>
  </g>
  <g id="Layer_5" data-name="Layer 5">
    <g>
      <path d="M4.7196966,9.8228c2.1303999.5307,4.2607999,1.0629,6.3920998,1.5942" fill="none" stroke="#ccc" stroke-linecap="round" stroke-linejoin="round" stroke-width="1.0502"/>
      <path d="M6.0897966,4.3271c2.1303999.5313,4.2607999,1.0625,6.3920998,1.5948" fill="none" stroke="#ccc" stroke-linecap="round" stroke-linejoin="round" stroke-width="1.0502"/>
      <path d="M5.5414966,6.5259c2.1308999.5303,4.2606999,1.0625,6.3925998,1.5937" fill="none" stroke="#ccc" stroke-linecap="round" stroke-linejoin="round" stroke-width="1.0502"/>
      <path d="M5.8158966,5.4263c2.1303999.5307,4.2602999,1.063,6.3921034,1.5942" fill="none" stroke="#ccc" stroke-linecap="round" stroke-linejoin="round" stroke-width="1.0502"/>
      <path d="M4.9931966,8.7236c2.1308034.5308,4.2606999,1.063,6.3924998,1.5943" fill="none" stroke="#ccc" stroke-linecap="round" stroke-linejoin="round" stroke-width="1.0502"/>
      <path d="M5.2675966,7.6245c2.1302999.5308,4.2606999,1.063,6.3920998,1.5943" fill="none" stroke="#ccc" stroke-linecap="round" stroke-linejoin="round" stroke-width="1.0502"/>
    </g>
    <g>
      <g>
        <path d="M9.7318965,7.3105c-.8681-.1015-1.7661-1.395-2.4730999-.1401-.0087966.1177.0078.3008.0356.416.8106034.003,1.5777-.2788,2.3686999-.0556-.001-.0738-.0142-.1397-.0170965-.2134" stroke="#000" stroke-width="2"/>
        <path d="M9.9081965,7.2778c.8682.1011,1.7661,1.3951,2.4726999.1397.0092-.1177-.0074-.3003-.0352-.4155-.8105-.003-1.5776.2778-2.3685999.0556.0009035.0733.0141.1397.017.2124" stroke="#000" stroke-width="2"/>
      </g>
      <path d="M10.1508965,8.3511c0,.1831-.148.331-.3311.331h0c-.1826,0-.3305-.1479-.3305-.331v-.5987c0-.1821.1479-.33.3305-.33h0c.1831,0,.3311.1479.3311.33v.5987Z" stroke="#333" stroke-linecap="round" stroke-linejoin="round" stroke-width="2"/>
      <path d="M9.8197965,11.9897c1.2359,0,2.3549999-.3149,3.1708999-.8242-.1963-1.5234-1.5395-2.7036-3.1708999-2.7036-1.6313,0-2.9740999,1.1802-3.1703999,2.7036.8159.5093,1.9351.8242,3.1703999.8242Z" stroke="#000" stroke-linecap="round" stroke-linejoin="round" stroke-width="2"/>
      <g mask="url(#mask-2)">
        <g>
          <path d="M9.8197965,11.9897c1.2359,0,2.3549999-.3149,3.1708999-.8242-.1963-1.5234-1.5395-2.7036-3.1708999-2.7036-1.6313,0-2.9740999,1.1802-3.1703999,2.7036.8159.5093,1.9351.8242,3.1703999.8242Z" fill="url(#radial-gradient)"/>
          <path d="M9.8197965,13.0928c.6343-.2578,1.2085-.9043,1.627-1.7437-.1006-1.9595-.7896-3.228-1.627-2.8872-.8369.3399-1.5259,2.169-1.6264,4.21.4184.499.9926034.6787,1.6264.4209Z" fill="url(#radial-gradient-2)" fill-rule="evenodd" stroke="#a70000"/>
          <path d="M9.8197965,13.0928c.5484,0,1.0445-.4136,1.4068-1.0825-.0874-2-.6831-3.5484-1.4068-3.5484-.7231,0-1.3187965,1.5484-1.4062,3.5484.3623.6689.8584034,1.0825,1.4062,1.0825Z" fill="url(#radial-gradient-3)" fill-rule="evenodd" stroke="#a70000"/>
        </g>
      </g>
      <path d="M10.1508965,8.3984c0,.1573-.148.2837-.3311.2837h0c-.1826,0-.3305-.1264-.3305-.2837v-.4721c0-.1568.1479-.2837.3305-.2837h0c.1831,0,.3311.1269.3311.2837v.4721Z" fill="url(#linear-gradient)" stroke="#c42e00"/>
      <path d="M10.1508965,8.3511c0,.1831-.148.331-.3311.331h0c-.1826,0-.3305-.1479-.3305-.331v-.5987c0-.1821.1479-.33.3305-.33h0c.1831,0,.3311.1479.3311.33v.5987Z" fill="url(#linear-gradient-2)"/>
      <g>
        <path d="M9.7318965,7.3105c-.8681-.1015-1.7661-1.395-2.4730999-.1401-.0087966.1177.0078.3008.0356.416.8106034.003,1.5777-.2788,2.3686999-.0556-.001-.0738-.0142-.1397-.0170965-.2134" fill="url(#radial-gradient-4)"/>
        <path d="M9.9081965,7.2778c.8682.1011,1.7661,1.3951,2.4726999.1397.0092-.1177-.0074-.3003-.0352-.4155-.8105-.003-1.5776.2778-2.3685999.0556.0009035.0733.0141.1397.017.2124" fill="url(#radial-gradient-5)"/>
      </g>
    </g>
  </g>
</svg>