<?xml version='1.0' encoding='UTF-8'?>
<svg xmlns="http://www.w3.org/2000/svg" xmlns:xlink="http://www.w3.org/1999/xlink" id="Layer_1" data-name="Layer 1" width="16" height="16" viewBox="0 0 16 16">
  <defs>
    <mask id="mask" x=".2559" y="1.499" width="9.6591616" height="11.4727" maskUnits="userSpaceOnUse">
      <path d="M7.5562,10.895l-4.3174,1.0767-1.9829-7.9551,6.083-1.5176,1.539,6.1909c.21.8414-.5024,2.0005-1.3217,2.2051Z" fill="#fff" fill-rule="evenodd" stroke="#fff" stroke-linecap="round" stroke-linejoin="round" stroke-width="2"/>
    </mask>
    <linearGradient id="New_Gradient_399" data-name="New Gradient 399" x1="3.2456362" y1="3.0461408" x2="7.4536413" y2="11.67383" gradientUnits="userSpaceOnUse">
      <stop offset="0" stop-color="#e5e5e5"/>
      <stop offset="1" stop-color="#fff"/>
    </linearGradient>
    <radialGradient id="New_Gradient_400" data-name="New Gradient 400" cx="-80.2414898" cy="26.8479901" fx="-80.2414898" fy="26.8479901" r="4.4327942" gradientTransform="translate(41.0034 -12.8827) rotate(-14.0043819) scale(.4797598)" gradientUnits="userSpaceOnUse">
      <stop offset="0" stop-color="#fff"/>
      <stop offset="1" stop-color="#ccc"/>
    </radialGradient>
    <mask id="mask-1" x="1.2559" y="2.499" width="8.0815" height="9.4727" maskUnits="userSpaceOnUse">
      <path d="M7.5562,10.895l-4.3174,1.0767-1.9829-7.9551,6.083-1.5176,1.539,6.1909c.21.8414-.5024,2.0005-1.3217,2.2051Z" fill="#fff" fill-rule="evenodd"/>
    </mask>
    <linearGradient id="New_Gradient_401" data-name="New Gradient 401" x1="3.2456362" y1="3.0461408" x2="7.4536413" y2="11.67383" gradientUnits="userSpaceOnUse">
      <stop offset="0" stop-color="#e5e5e5"/>
      <stop offset=".286514" stop-color="#f2f2f2"/>
      <stop offset=".646072" stop-color="#fff"/>
      <stop offset="1" stop-color="#fff"/>
    </linearGradient>
    <radialGradient id="New_Gradient_402" data-name="New Gradient 402" cx="-80.2414898" cy="26.8479901" fx="-80.2414898" fy="26.8479901" r="4.4327942" gradientTransform="translate(41.0034 -12.8827) rotate(-14.0043819) scale(.4797598)" gradientUnits="userSpaceOnUse">
      <stop offset="0" stop-color="#e5e5e5"/>
      <stop offset=".331467" stop-color="#e5e5e5"/>
      <stop offset="1" stop-color="#999"/>
    </radialGradient>
    <mask id="mask-2" x="2.6143" y="1.6426" width="8.8823" height="11" maskUnits="userSpaceOnUse">
      <path d="M8.4985,11.6426H3.6143V2.6431l6.8823-.0005-.0044,7.0024c0,.9517-1.0659,1.9976-1.9937,1.9976Z" fill="#fff" fill-rule="evenodd" stroke="#fff" stroke-linecap="round" stroke-linejoin="round" stroke-width="2"/>
    </mask>
    <linearGradient id="New_Gradient_399-2" data-name="New Gradient 399" x1="4.6213395" y1="2.151934" x2="9.489524" y2="12.1331912" gradientUnits="userSpaceOnUse"><stop offset="0" stop-color="#e5e5e5"/><stop offset="1" stop-color="#fff"/></linearGradient>
    <radialGradient id="New_Gradient_400-2" data-name="New Gradient 400" cx="-62.1758117" cy="5.2014883" fx="-62.1758117" fy="5.2014883" r="4.4323417" gradientTransform="translate(40.9287 6.5959) scale(.5267)" gradientUnits="userSpaceOnUse"><stop offset="0" stop-color="#fff"/><stop offset="1" stop-color="#ccc"/></radialGradient>
    <mask id="mask-3" x="3.6143" y="2.6426" width="6.8916" height="9.0332" maskUnits="userSpaceOnUse">
      <path d="M8.4985,11.6426H3.6143V2.6431l6.8823-.0005-.0044,7.0024c0,.9517-1.0659,1.9976-1.9937,1.9976Z" fill="#fff" fill-rule="evenodd"/>
    </mask>
    <linearGradient id="New_Gradient_401-2" data-name="New Gradient 401" x1="4.6213395" y1="2.151934" x2="9.489524" y2="12.1331912" gradientUnits="userSpaceOnUse"><stop offset="0" stop-color="#e5e5e5"/><stop offset=".286514" stop-color="#f2f2f2"/><stop offset=".646072" stop-color="#fff"/><stop offset="1" stop-color="#fff"/></linearGradient>
    <radialGradient id="New_Gradient_402-2" data-name="New Gradient 402" cx="-62.1758117" cy="5.2014883" fx="-62.1758117" fy="5.2014883" r="4.4323417" gradientTransform="translate(40.9287 6.5959) scale(.5267)" gradientUnits="userSpaceOnUse"><stop offset="0" stop-color="#e5e5e5"/><stop offset=".331467" stop-color="#e5e5e5"/><stop offset="1" stop-color="#999"/></radialGradient>
    <mask id="mask-4" x="3.1367" y=".6421" width="13.148" height="14.5305007" maskUnits="userSpaceOnUse">
      <path d="M10.103,14.1226l-5.9663-1.4873L6.8779,1.6421l8.4068,2.0952-2.1387,8.5523c-.2891,1.1621-1.9106,2.1152-3.043,1.833Z" fill="#fff" fill-rule="evenodd" stroke="#fff" stroke-linecap="round" stroke-linejoin="round" stroke-width="2"/>
    </mask>
    <linearGradient id="New_Gradient_399-3" data-name="New Gradient 399" x1="6.5878729" y1="1.7835557" x2="12.7385722" y2="14.3943581" gradientUnits="userSpaceOnUse"><stop offset="0" stop-color="#e5e5e5"/><stop offset="1" stop-color="#fff"/></linearGradient>
    <radialGradient id="New_Gradient_400-3" data-name="New Gradient 400" cx="-59.1815566" cy="-21.3902521" fx="-59.1815566" fy="-21.3902521" r="4.4319352" gradientTransform="translate(45.0601 34.4646) rotate(13.9901369) scale(.6630684) skewX(-.0167694)" gradientUnits="userSpaceOnUse"><stop offset="0" stop-color="#fff"/><stop offset="1" stop-color="#ccc"/></radialGradient>
    <mask id="mask-5" x="4.1367" y="1.6421" width="11.148" height="13.1323" maskUnits="userSpaceOnUse">
      <path d="M10.103,14.1226l-5.9663-1.4873L6.8779,1.6421l8.4068,2.0952-2.1387,8.5523c-.2891,1.1621-1.9106,2.1152-3.043,1.833Z" fill="#fff" fill-rule="evenodd"/>
    </mask>
    <linearGradient id="New_Gradient_401-3" data-name="New Gradient 401" x1="6.5878729" y1="1.7835557" x2="12.7385722" y2="14.3943581" gradientUnits="userSpaceOnUse"><stop offset="0" stop-color="#e5e5e5"/><stop offset=".286514" stop-color="#f2f2f2"/><stop offset=".646072" stop-color="#fff"/><stop offset="1" stop-color="#fff"/></linearGradient>
    <radialGradient id="New_Gradient_402-3" data-name="New Gradient 402" cx="-59.1815566" cy="-21.3902521" fx="-59.1815566" fy="-21.3902521" r="4.4319352" gradientTransform="translate(45.0601 34.4646) rotate(13.9901369) scale(.6630684) skewX(-.0167694)" gradientUnits="userSpaceOnUse"><stop offset="0" stop-color="#e5e5e5"/><stop offset=".331467" stop-color="#e5e5e5"/><stop offset="1" stop-color="#999"/></radialGradient>
  </defs>
  <g>
    <g>
      <g mask="url(#mask)">
        <g>
          <path d="M7.5562,10.895l-4.3174,1.0767-1.9829-7.9551,6.083-1.5176,1.539,6.1909c.21.8414-.5024,2.0005-1.3217,2.2051Z" fill="url(#New_Gradient_399)" fill-rule="evenodd"/>
          <path d="M7.2827,10.9946s.9986-.2905.7197-1.4096c1.0381-.2593.8208-1.1665.8208-1.1665l.5142,2.0634-2.0547.5127Z" fill="url(#New_Gradient_400)" fill-rule="evenodd"/>
          <path d="M7.5562,10.895l-4.3174,1.0767-1.9829-7.9551,6.083-1.5176,1.539,6.1909c.21.8414-.5024,2.0005-1.3217,2.2051Z" fill="none" fill-rule="evenodd" stroke="#000" stroke-linecap="round" stroke-linejoin="round" stroke-width="2"/>
        </g>
      </g>
      <g mask="url(#mask-1)">
        <g>
          <path d="M7.5562,10.895l-4.3174,1.0767-1.9829-7.9551,6.083-1.5176,1.539,6.1909c.21.8414-.5024,2.0005-1.3217,2.2051Z" fill="url(#New_Gradient_401)" fill-rule="evenodd"/>
          <path d="M7.2827,10.9946s.9986-.2905.7197-1.4096c1.0381-.2593.8208-1.1665.8208-1.1665l.5142,2.0634-2.0547.5127Z" fill="url(#New_Gradient_402)" fill-rule="evenodd"/>
        </g>
      </g>
    </g>
    <g>
      <path d="M3.3677,9.3208c1.5415-.3848,3.083-.7681,4.6255-1.1533" fill="none" stroke="#b3b3b3" stroke-linecap="round" stroke-linejoin="round" stroke-width="1.0502"/>
      <path d="M2.3765,5.3438c1.5415-.3843,3.083-.7681,4.625-1.1524" fill="none" stroke="#b3b3b3" stroke-linecap="round" stroke-linejoin="round" stroke-width="1.0502"/>
      <path d="M2.7725,6.9351c1.542-.3848,3.0835-.7686,4.6254-1.1529" fill="none" stroke="#b3b3b3" stroke-linecap="round" stroke-linejoin="round" stroke-width="1.0502"/>
      <path d="M2.5742,6.1392c1.5415-.3843,3.0835-.7681,4.626-1.1529" fill="none" stroke="#b3b3b3" stroke-linecap="round" stroke-linejoin="round" stroke-width="1.0502"/>
      <path d="M3.1694,8.5254c1.5415-.3843,3.083-.7681,4.6255-1.1528" fill="none" stroke="#b3b3b3" stroke-linecap="round" stroke-linejoin="round" stroke-width="1.0502"/>
      <path d="M2.9707,7.73c1.5415-.3843,3.084-.7686,4.626-1.1529" fill="none" stroke="#b3b3b3" stroke-linecap="round" stroke-linejoin="round" stroke-width="1.0502"/>
    </g>
  </g>
  <g>
    <g>
      <g mask="url(#mask-2)">
        <g>
          <path d="M8.4985,11.6426H3.6143V2.6431l6.8823-.0005-.0044,7.0024c0,.9517-1.0659,1.9976-1.9937,1.9976Z" fill="url(#New_Gradient_399-2)" fill-rule="evenodd"/>
          <path d="M8.1807,11.6758s1.1411-.044,1.1411-1.3101c1.1748,0,1.1841-1.0244,1.1841-1.0244v2.3345h-2.3252Z" fill="url(#New_Gradient_400-2)" fill-rule="evenodd"/>
          <path d="M8.4985,11.6426H3.6143V2.6431l6.8823-.0005-.0044,7.0024c0,.9517-1.0659,1.9976-1.9937,1.9976Z" fill="none" fill-rule="evenodd" stroke="#000" stroke-linecap="round" stroke-linejoin="round" stroke-width="2"/>
        </g>
      </g>
      <g mask="url(#mask-3)">
        <g>
          <path d="M8.4985,11.6426H3.6143V2.6431l6.8823-.0005-.0044,7.0024c0,.9517-1.0659,1.9976-1.9937,1.9976Z" fill="url(#New_Gradient_401-2)" fill-rule="evenodd"/>
          <path d="M8.1807,11.6758s1.1411-.044,1.1411-1.3101c1.1748,0,1.1841-1.0244,1.1841-1.0244v2.3345h-2.3252Z" fill="url(#New_Gradient_402-2)" fill-rule="evenodd"/>
        </g>
      </g>
    </g>
    <g>
      <path d="M4.4556,8.8535c1.7441-.0005,3.4878.0005,5.2329.0005" fill="none" stroke="#b3b3b3" stroke-linecap="round" stroke-linejoin="round" stroke-width="1.0502"/>
      <path d="M4.4556,4.3545c1.7441,0,3.4878.001,5.2329.001" fill="none" stroke="#b3b3b3" stroke-linecap="round" stroke-linejoin="round" stroke-width="1.0502"/>
      <path d="M4.4556,6.1538c1.7441,0,3.4878.001,5.2329.001" fill="none" stroke="#b3b3b3" stroke-linecap="round" stroke-linejoin="round" stroke-width="1.0502"/>
      <path d="M4.4556,5.2544c1.7441-.0005,3.4878.0005,5.2329.0005" fill="none" stroke="#b3b3b3" stroke-linecap="round" stroke-linejoin="round" stroke-width="1.0502"/>
      <path d="M4.4556,7.9536c1.7441,0,3.4878.0005,5.2329.0005" fill="none" stroke="#b3b3b3" stroke-linecap="round" stroke-linejoin="round" stroke-width="1.0502"/>
      <path d="M4.4556,7.0542c1.7441-.001,3.4878,0,5.2329,0" fill="none" stroke="#b3b3b3" stroke-linecap="round" stroke-linejoin="round" stroke-width="1.0502"/>
    </g>
  </g>
  <g>
    <g>
      <g mask="url(#mask-4)">
        <g>
          <path d="M10.103,14.1226l-5.9663-1.4873L6.8779,1.6421l8.4068,2.0952-2.1387,8.5523c-.2891,1.1621-1.9106,2.1152-3.043,1.833Z" fill="url(#New_Gradient_399-3)" fill-rule="evenodd"/>
          <path d="M9.7046,14.0664s1.4067.294,1.7925-1.2529c1.4355.3579,1.7588-.8906,1.7588-.8906l-.7115,2.8515-2.8398-.708Z" fill="url(#New_Gradient_400-3)" fill-rule="evenodd"/>
          <path d="M10.103,14.1226l-5.9663-1.4873L6.8779,1.6421l8.4068,2.0952-2.1387,8.5523c-.2891,1.1621-1.9106,2.1152-3.043,1.833Z" fill="none" fill-rule="evenodd" stroke="#000" stroke-linecap="round" stroke-linejoin="round" stroke-width="2"/>
        </g>
      </g>
      <g mask="url(#mask-5)">
        <g>
          <path d="M10.103,14.1226l-5.9663-1.4873L6.8779,1.6421l8.4068,2.0952-2.1387,8.5523c-.2891,1.1621-1.9106,2.1152-3.043,1.833Z" fill="url(#New_Gradient_401-3)" fill-rule="evenodd"/>
          <path d="M9.7046,14.0664s1.4067.294,1.7925-1.2529c1.4355.3579,1.7588-.8906,1.7588-.8906l-.7115,2.8515-2.8398-.708Z" fill="url(#New_Gradient_402-3)" fill-rule="evenodd"/>
        </g>
      </g>
    </g>
    <g>
      <path d="M6.0132,9.4844c2.1304.5307,4.2607,1.063,6.3926,1.5942" fill="none" stroke="#b3b3b3" stroke-linecap="round" stroke-linejoin="round" stroke-width="1.0502"/>
      <path d="M7.3833,3.9888c2.1309.5307,4.2607,1.0625,6.3926,1.5942" fill="none" stroke="#b3b3b3" stroke-linecap="round" stroke-linejoin="round" stroke-width="1.0502"/>
      <path d="M6.8354,6.187c2.1304.5308,4.2608,1.063,6.3921,1.5943" fill="none" stroke="#b3b3b3" stroke-linecap="round" stroke-linejoin="round" stroke-width="1.0502"/>
      <path d="M7.1094,5.0879c2.1303.5308,4.2607,1.063,6.3921,1.5942" fill="none" stroke="#b3b3b3" stroke-linecap="round" stroke-linejoin="round" stroke-width="1.0502"/>
      <path d="M6.2871,8.3853c2.1309.5307,4.2608,1.0629,6.3926,1.5942" fill="none" stroke="#b3b3b3" stroke-linecap="round" stroke-linejoin="round" stroke-width="1.0502"/>
      <path d="M6.561,7.2856c2.1309.5313,4.2613,1.0635,6.3921,1.5948" fill="none" stroke="#b3b3b3" stroke-linecap="round" stroke-linejoin="round" stroke-width="1.0502"/>
    </g>
  </g>
</svg>