<?xml version="1.0" encoding="UTF-8"?>
<svg id="Layer_1" data-name="Layer 1" xmlns="http://www.w3.org/2000/svg" width="24" height="24" xmlns:xlink="http://www.w3.org/1999/xlink" viewBox="0 0 24 24">
  <defs>
    <mask id="mask" x="1.0360897" y="2.231" width="18.9639103" height="19.7285" maskUnits="userSpaceOnUse">
      <path d="M9.0312895,12.4951c0-.8359.6767105-1.685,1.5136-1.8965.8369-.2109,1.5147.2959,1.5147,1.1319,0,.8369-.6778,1.6855-1.5147,1.8969-.8368894.2105-1.5136-.2954-1.5136-1.1323ZM1.8925896,14.2969c0-4.7783,3.8739999-9.6304,8.6522998-10.8369,4.7792999-1.2061,8.6532998,1.6904,8.6532998,6.4692s-3.8739999,9.6304-8.6532998,10.8359c-4.7782999,1.2061-8.6522998-1.6894-8.6522998-6.4682Z" fill="#fff" fill-rule="evenodd"/>
    </mask>
    <mask id="mask-1" x="1.0360897" y="2.231" width="18.9639103" height="19.7285" maskUnits="userSpaceOnUse">
      <path d="M10.5448894,3.894c4.5401106-1.146,8.2196998,1.606,8.2196998,6.146,0,4.5386-3.6795892,9.1485-8.2196998,10.2945-4.5399999,1.1455-8.2196998-1.606-8.2196998-6.1455,0-4.5396,3.6796999-9.149,8.2196998-10.295Z" fill="#fff"/>
    </mask>
    <linearGradient id="linear-gradient" x1="3.4708425" y1="6.3857288" x2="17.6189699" y2="17.8426565" gradientUnits="userSpaceOnUse">
      <stop offset="0" stop-color="#fff"/>
      <stop offset="1" stop-color="#cc6c6c"/>
    </linearGradient>
    <linearGradient id="New_Gradient_6" data-name="New Gradient 6" x1="-413.7469754" y1="-602.5602677" x2="-402.0321961" y2="-602.5602677" gradientTransform="translate(440.2491 541.3404) rotate(94.3536493) scale(1.0143269 -.7675146) skewX(7.3263493)" gradientUnits="userSpaceOnUse">
      <stop offset="0" stop-color="#ccc"/>
      <stop offset=".337082" stop-color="#999"/>
      <stop offset=".629211" stop-color="#b2b2b2"/>
      <stop offset="1" stop-color="#d9d9d9"/>
    </linearGradient>
    <linearGradient id="linear-gradient-2" x1="-413.7469754" y1="-602.5602677" x2="-402.0321961" y2="-602.5602677" gradientTransform="translate(440.2491 541.3404) rotate(94.3536493) scale(1.0143269 -.7675146) skewX(7.3263493)" gradientUnits="userSpaceOnUse">
      <stop offset="0" stop-color="#ccc"/>
      <stop offset=".337082" stop-color="#999"/>
      <stop offset=".629211" stop-color="#b2b2b2"/>
      <stop offset="1" stop-color="#d9d9d9"/>
    </linearGradient>
    <radialGradient id="radial-gradient" cx="34.4952425" cy="-4.1220935" fx="34.4952425" fy="-4.1220935" r="11.0559371" gradientTransform="translate(-18.3593163 17.4824834) scale(.9204)" gradientUnits="userSpaceOnUse">
      <stop offset=".140449" stop-color="#ffe900"/>
      <stop offset=".1588104" stop-color="#ffe204"/>
      <stop offset=".2913167" stop-color="#ffb420"/>
      <stop offset=".4092463" stop-color="#ff9334"/>
      <stop offset=".5071755" stop-color="#ff7f40"/>
      <stop offset=".573034" stop-color="#ff7845"/>
    </radialGradient>
  </defs>
  <g>
    <path d="M9.0312895,12.4951c0-.8359.6767105-1.685,1.5136-1.8965.8369-.2109,1.5147.2959,1.5147,1.1319,0,.8369-.6778,1.6855-1.5147,1.8969-.8368894.2105-1.5136-.2954-1.5136-1.1323ZM1.8925896,14.2969c0-4.7783,3.8739999-9.6304,8.6522998-10.8369,4.7792999-1.2061,8.6532998,1.6904,8.6532998,6.4692s-3.8739999,9.6304-8.6532998,10.8359c-4.7782999,1.2061-8.6522998-1.6894-8.6522998-6.4682Z" fill="#b2b2b2" fill-rule="evenodd" stroke="#000" stroke-miterlimit="3.8637" stroke-width="1.5"/>
    <g mask="url(#mask)">
      <g>
        <path d="M9.0312895,12.4951c0-.8359.6767105-1.685,1.5136-1.8965.8369-.2109,1.5147.2959,1.5147,1.1319,0,.8369-.6778,1.6855-1.5147,1.8969-.8368894.2105-1.5136-.2954-1.5136-1.1323ZM1.8925896,14.2969c0-4.7783,3.8739999-9.6304,8.6522998-10.8369,4.7792999-1.2061,8.6532998,1.6904,8.6532998,6.4692s-3.8739999,9.6304-8.6532998,10.8359c-4.7782999,1.2061-8.6522998-1.6894-8.6522998-6.4682Z" fill="#b2b2b2" fill-rule="evenodd"/>
        <g mask="url(#mask-1)">
          <g>
            <path d="M10.5448894,3.894c4.5401106-1.146,8.2196998,1.606,8.2196998,6.146,0,4.5386-3.6795892,9.1485-8.2196998,10.2945-4.5399999,1.1455-8.2196998-1.606-8.2196998-6.1455,0-4.5396,3.6796999-9.149,8.2196998-10.295Z" fill="url(#linear-gradient)"/>
            <g>
              <polygon points="10.5028894 12.1143 15.1747893 2.231 16.8544893 3.1216 10.5028894 12.1143" fill="#b2d6e8" fill-rule="evenodd"/>
              <polygon points="18.3817892 4.4448 10.5028894 12.1143 16.8544893 3.1216 18.3817892 4.4448" fill="#f6f8b2" fill-rule="evenodd"/>
              <polygon points="10.5028894 12.1143 19.2987892 6.0474 18.3817892 4.4448 10.5028894 12.1143" fill="#c8e9c2" fill-rule="evenodd"/>
              <polygon points="10.5028894 12.1143 19.9081892 7.939 19.2987892 6.0474 10.5028894 12.1143" fill="#e5c9b0" fill-rule="evenodd"/>
              <polygon points="10.5028894 12.1143 20 10.0229 19.9081892 7.939 10.5028894 12.1143" fill="#fff" fill-rule="evenodd"/>
            </g>
            <g>
              <polygon points="10.5321894 12.0767 5.8612895 21.9595 4.1825896 21.0693 10.5321894 12.0767" fill="#b2d6e8" fill-rule="evenodd"/>
              <polygon points="2.6542896 19.7456 10.5321894 12.0767 4.1825896 21.0693 2.6542896 19.7456" fill="#f6f8b2" fill-rule="evenodd"/>
              <polygon points="10.5321894 12.0767 1.7372896 18.1436 2.6542896 19.7456 10.5321894 12.0767" fill="#c8e9c2" fill-rule="evenodd"/>
              <polygon points="10.5321894 12.0767 1.1278897 16.2515 1.7372896 18.1436 10.5321894 12.0767" fill="#e5c9b0" fill-rule="evenodd"/>
              <polygon points="10.5321894 12.0767 1.0360897 14.1685 1.1278897 16.2515 10.5321894 12.0767" fill="#fff" fill-rule="evenodd"/>
            </g>
          </g>
        </g>
        <path d="M10.5448894,9.0859c1.6729-.4223,3.0282999.5918,3.0282999,2.2642,0,1.6728-1.3554,3.3706-3.0282999,3.793-1.6718894.4218-3.0282999-.5918-3.0282999-2.2647,0-1.6719,1.3564105-3.3706,3.0282999-3.7925Z" fill="#999" stroke="#666" stroke-miterlimit="3.8637" stroke-width="1.05"/>
        <path d="M9.0312895,12.4951c0-.8359.6767105-1.685,1.5136-1.8965.8369-.2109,1.5147.2959,1.5147,1.1319,0,.8369-.6778,1.6855-1.5147,1.8969-.8368894.2105-1.5136-.2954-1.5136-1.1323ZM1.8925896,14.2969c0-4.7783,3.8739999-9.6304,8.6522998-10.8369,4.7792999-1.2061,8.6532998,1.6904,8.6532998,6.4692s-3.8739999,9.6304-8.6532998,10.8359c-4.7782999,1.2061-8.6522998-1.6894-8.6522998-6.4682Z" fill="none" fill-rule="evenodd"/>
      </g>
    </g>
  </g>
  <g>
    <path d="M12.2714894,16.0195c.1328-.31.2724-.6035.4092-.9135l-.0049.0625.8799.2119c-.1299.29-.2578.5649-.3828.8564l-.9014-.2173ZM13.0497894,14.189c.0791-.2232.1572106-.4698.2324-.7403l.0616-.226.8994.2172-.0606.2276c-.0742.2695-.1533.5146-.2344.7388l-.8984-.2173ZM13.5800893,12.2109c.0859107-.4223.1513-.8144.2012-1.1738l.8994.2183c-.0498.3574-.1143.7524-.2002,1.1718l-.9004-.2163ZM18.417,19.5488c.0741892-.3398.1561892-.6386.2440892-.9131l.8985.2188c-.086.2729-.168.5727-.2422.9136l-.9003892-.2193ZM19.0302892,17.6563c.1328-.3106.2705-.6036.4082-.9122l-.0049.0621.8799.2124c-.1309.2885-.2588.5649-.3838.853l-.8994-.2153ZM19.8075892,15.8257c.0791-.2236.1572-.4688.2324108-.7378l.0615892-.2275.8994108.2163-.0606108.228c-.0742.2695-.1533.5166-.2323892.7397l-.9004108-.2187ZM20.3378892,13.8472c.0869-.4209.1514-.8145.2002-1.1729l.9023.2173c-.0508.3599-.1162.7529-.2011,1.1738l-.9014-.2182ZM11.6591894,17.9116c.0742-.3388.1562-.6382.2422-.9106l.9004.2168c-.086.2724-.168.5722-.2422.9135l-.9004-.2197ZM20.6845892,10.3584c.0058.1504.0156.5801-.0313,1.2114l.8994.2188c.0459-.6333.0381-1.0596.0323109-1.2119l.4100891.0996s.1045,1.9809-.6553,4.7236c-.6689,2.4209-1.6074,2.7544-1.9306,6.645l-.4199-.1011c.0332-.3891.0742-.7436.1191-1.0659l-.8993892-.2168c-.0459108.3223-.086.6753-.1192108,1.0645l-.3144-.0762-1.9043-.4599-3.6396999-.8833c.0332-.3877.0733-.7413.1192-1.0645l-.8994-.2192c-.0459.3237-.0869.6767-.1201,1.0654l-.419-.1011c.3252-3.8906,1.2627-4.2251,1.9317-6.643.7607-2.7452.6386-4.7305.6386-4.7305l.4453.1064c.0059.1529.0137.5796-.0322,1.2149l.9004.2177c.0449-.6342.0361107-1.0605.0312-1.2124l3.6132999.8736,1.9219.4668.3223.0781Z" fill="url(#New_Gradient_6)" fill-rule="evenodd" stroke="#000" stroke-linecap="round" stroke-linejoin="round" stroke-width="1.75"/>
    <path d="M12.2714894,16.0195c.1328-.31.2724-.6035.4092-.9135l-.0049.0625.8799.2119c-.1299.29-.2578.5649-.3828.8564l-.9014-.2173ZM13.0497894,14.189c.0791-.2232.1572106-.4698.2324-.7403l.0616-.226.8994.2172-.0606.2276c-.0742.2695-.1533.5146-.2344.7388l-.8984-.2173ZM13.5800893,12.2109c.0859107-.4223.1513-.8144.2012-1.1738l.8994.2183c-.0498.3574-.1143.7524-.2002,1.1718l-.9004-.2163ZM18.417,19.5488c.0741892-.3398.1561892-.6386.2440892-.9131l.8985.2188c-.086.2729-.168.5727-.2422.9136l-.9003892-.2193ZM19.0302892,17.6563c.1328-.3106.2705-.6036.4082-.9122l-.0049.0621.8799.2124c-.1309.2885-.2588.5649-.3838.853l-.8994-.2153ZM19.8075892,15.8257c.0791-.2236.1572-.4688.2324108-.7378l.0615892-.2275.8994108.2163-.0606108.228c-.0742.2695-.1533.5166-.2323892.7397l-.9004108-.2187ZM20.3378892,13.8472c.0869-.4209.1514-.8145.2002-1.1729l.9023.2173c-.0508.3599-.1162.7529-.2011,1.1738l-.9014-.2182ZM11.6591894,17.9116c.0742-.3388.1562-.6382.2422-.9106l.9004.2168c-.086.2724-.168.5722-.2422.9135l-.9004-.2197ZM20.6845892,10.3584c.0058.1504.0156.5801-.0313,1.2114l.8994.2188c.0459-.6333.0381-1.0596.0323109-1.2119l.4100891.0996s.1045,1.9809-.6553,4.7236c-.6689,2.4209-1.6074,2.7544-1.9306,6.645l-.4199-.1011c.0332-.3891.0742-.7436.1191-1.0659l-.8993892-.2168c-.0459108.3223-.086.6753-.1192108,1.0645l-.3144-.0762-1.9043-.4599-3.6396999-.8833c.0332-.3877.0733-.7413.1192-1.0645l-.8994-.2192c-.0459.3237-.0869.6767-.1201,1.0654l-.419-.1011c.3252-3.8906,1.2627-4.2251,1.9317-6.643.7607-2.7452.6386-4.7305.6386-4.7305l.4453.1064c.0059.1529.0137.5796-.0322,1.2149l.9004.2177c.0449-.6342.0361107-1.0605.0312-1.2124l3.6132999.8736,1.9219.4668.3223.0781Z" fill="url(#linear-gradient-2)" fill-rule="evenodd"/>
    <path d="M14.874,12.5537c.4335893-2.1011.3466893-3.52.3466893-3.52l5.1024999,1.2378s.087,1.418-.3457,3.5185l-5.1034892-1.2363ZM12.9540894,18.2495c.4297-1.9902,1.1094-2.6108,1.627-4.4844.0273-.0976.0517-.1909.0771-.2841l5.1034999,1.2363c-.0234.0937-.0488.1875-.0762.2847-.5146,1.8637-1.1796,2.5107-1.6064,4.4907l-5.1249999-1.2432ZM12.6513894,20.4087c.0341-.4268.0781-.812.1269-1.1607l5.1259999,1.2432c-.0508.354-.0947.7515-.1318,1.188l-5.1210999-1.2705Z" fill="url(#radial-gradient)" fill-rule="evenodd" stroke="#d68100" stroke-width=".5"/>
  </g>
</svg>