<?xml version="1.0" encoding="UTF-8"?>
<svg id="Layer_1" data-name="Layer 1" xmlns="http://www.w3.org/2000/svg" width="24" height="24" xmlns:xlink="http://www.w3.org/1999/xlink" viewBox="0 0 24 24">
  <defs>
    <mask id="mask" x="3" y="2.231" width="18.9638928" height="19.7285" maskUnits="userSpaceOnUse">
      <path d="M10.9950931,12.4951c0-.8359.6768-1.685,1.5137-1.8965.8369-.2109,1.5146.2959,1.5146,1.1319,0,.8369-.6777,1.6855-1.5146,1.8969-.8369.2105-1.5137-.2954-1.5137-1.1323ZM3.8563932,14.2969c0-4.7783,3.8740999-9.6304,8.6523998-10.8369,4.7792999-1.2061,8.6532998,1.6904,8.6532998,6.4692s-3.8739999,9.6304-8.6532998,10.8359c-4.7782999,1.2061-8.6523998-1.6894-8.6523998-6.4682Z" fill="#fff" fill-rule="evenodd"/>
    </mask>
    <mask id="mask-1" x="3" y="2.231" width="18.9638928" height="19.7285" maskUnits="userSpaceOnUse">
      <path d="M12.508793,3.894c4.5399999-1.146,8.2196998,1.606,8.2196998,6.146,0,4.5386-3.6796999,9.1485-8.2196998,10.2945-4.5399999,1.1455-8.2196998-1.606-8.2196998-6.1455,0-4.5396,3.6796999-9.149,8.2196998-10.295Z" fill="#fff"/>
    </mask>
    <linearGradient id="linear-gradient" x1="5.4347415" y1="6.3857412" x2="19.5828371" y2="17.8426431" gradientUnits="userSpaceOnUse">
      <stop offset="0" stop-color="#fff"/>
      <stop offset="1" stop-color="#cc6c6c"/>
    </linearGradient>
  </defs>
  <path d="M10.9950931,12.4951c0-.8359.6768-1.685,1.5137-1.8965.8369-.2109,1.5146.2959,1.5146,1.1319,0,.8369-.6777,1.6855-1.5146,1.8969-.8369.2105-1.5137-.2954-1.5137-1.1323ZM3.8563932,14.2969c0-4.7783,3.8740999-9.6304,8.6523998-10.8369,4.7792999-1.2061,8.6532998,1.6904,8.6532998,6.4692s-3.8739999,9.6304-8.6532998,10.8359c-4.7782999,1.2061-8.6523998-1.6894-8.6523998-6.4682Z" fill="#b2b2b2" fill-rule="evenodd" stroke="#000" stroke-miterlimit="3.8637" stroke-width="1.5"/>
  <g mask="url(#mask)">
    <g>
      <path d="M10.9950931,12.4951c0-.8359.6768-1.685,1.5137-1.8965.8369-.2109,1.5146.2959,1.5146,1.1319,0,.8369-.6777,1.6855-1.5146,1.8969-.8369.2105-1.5137-.2954-1.5137-1.1323ZM3.8563932,14.2969c0-4.7783,3.8740999-9.6304,8.6523998-10.8369,4.7792999-1.2061,8.6532998,1.6904,8.6532998,6.4692s-3.8739999,9.6304-8.6532998,10.8359c-4.7782999,1.2061-8.6523998-1.6894-8.6523998-6.4682Z" fill="#b2b2b2" fill-rule="evenodd"/>
      <g mask="url(#mask-1)">
        <g>
          <path d="M12.508793,3.894c4.5399999-1.146,8.2196998,1.606,8.2196998,6.146,0,4.5386-3.6796999,9.1485-8.2196998,10.2945-4.5399999,1.1455-8.2196998-1.606-8.2196998-6.1455,0-4.5396,3.6796999-9.149,8.2196998-10.295Z" fill="url(#linear-gradient)"/>
          <g>
            <polygon points="12.466793 12.1143 17.1386929 2.231 18.8183929 3.1216 12.466793 12.1143" fill="#b2d6e8" fill-rule="evenodd"/>
            <polygon points="20.3456928 4.4448 12.466793 12.1143 18.8183929 3.1216 20.3456928 4.4448" fill="#f6f8b2" fill-rule="evenodd"/>
            <polygon points="12.466793 12.1143 21.2626928 6.0474 20.3456928 4.4448 12.466793 12.1143" fill="#c8e9c2" fill-rule="evenodd"/>
            <polygon points="12.466793 12.1143 21.8720928 7.939 21.2626928 6.0474 12.466793 12.1143" fill="#e5c9b0" fill-rule="evenodd"/>
            <polygon points="12.466793 12.1143 21.9638928 10.0229 21.8720928 7.939 12.466793 12.1143" fill="#fff" fill-rule="evenodd"/>
          </g>
          <g>
            <polygon points="12.496093 12.0767 7.8251931 21.9595 6.1464932 21.0693 12.496093 12.0767" fill="#b2d6e8" fill-rule="evenodd"/>
            <polygon points="4.6181932 19.7456 12.496093 12.0767 6.1464932 21.0693 4.6181932 19.7456" fill="#f6f8b2" fill-rule="evenodd"/>
            <polygon points="12.496093 12.0767 3.7011932 18.1436 4.6181932 19.7456 12.496093 12.0767" fill="#c8e9c2" fill-rule="evenodd"/>
            <polygon points="12.496093 12.0767 3.0917933 16.2515 3.7011932 18.1436 12.496093 12.0767" fill="#e5c9b0" fill-rule="evenodd"/>
            <polygon points="12.496093 12.0767 3 14.1685 3.0917933 16.2515 12.496093 12.0767" fill="#fff" fill-rule="evenodd"/>
          </g>
        </g>
      </g>
      <path d="M12.508793,9.0859c1.6728-.4223,3.0282999.5918,3.0282999,2.2642,0,1.6728-1.3555,3.3706-3.0282999,3.793-1.6719.4218-3.0282999-.5918-3.0282999-2.2647,0-1.6719,1.3564-3.3706,3.0282999-3.7925Z" fill="#999" stroke="#666" stroke-miterlimit="3.8637" stroke-width="1.05"/>
      <path d="M10.9950931,12.4951c0-.8359.6768-1.685,1.5137-1.8965.8369-.2109,1.5146.2959,1.5146,1.1319,0,.8369-.6777,1.6855-1.5146,1.8969-.8369.2105-1.5137-.2954-1.5137-1.1323ZM3.8563932,14.2969c0-4.7783,3.8740999-9.6304,8.6523998-10.8369,4.7792999-1.2061,8.6532998,1.6904,8.6532998,6.4692s-3.8739999,9.6304-8.6532998,10.8359c-4.7782999,1.2061-8.6523998-1.6894-8.6523998-6.4682Z" fill="none" fill-rule="evenodd"/>
    </g>
  </g>
</svg>