<?xml version='1.0' encoding='UTF-8'?>
<svg xmlns="http://www.w3.org/2000/svg" xmlns:xlink="http://www.w3.org/1999/xlink" width="24" height="24" viewBox="0 0 24 24">
  <defs>
    <mask id="mask" x="2.7831951" y="2" width="18.7168049" height="20.7898516" maskUnits="userSpaceOnUse">
      <path d="M12.73,21.7148l-8.9468049-2.2304L7.893595,3l12.606405,3.1416-3.2065053,12.8247c-.4341,1.7427-2.8652999,3.1719-4.5634947,2.7485Z" fill="#fff" fill-rule="evenodd" stroke="#fff" stroke-linecap="round" stroke-linejoin="round" stroke-width="2"/>
    </mask>
    <linearGradient id="New_Gradient_399" data-name="New Gradient 399" x1="7.4588872" y1="3.2120211" x2="16.6821502" y2="22.1225125" gradientUnits="userSpaceOnUse">
      <stop offset="0" stop-color="#e5e5e5"/>
      <stop offset="1" stop-color="#fff"/>
    </linearGradient>
    <radialGradient id="New_Gradient_400" data-name="New Gradient 400" cx="24.5371539" cy="-27.7390239" fx="24.5371539" fy="-27.7390239" r="4.4321915" gradientTransform="translate(-17.1488 38.2187) rotate(13.9915205) skewX(-.0111829)" gradientUnits="userSpaceOnUse">
      <stop offset="0" stop-color="#fff"/>
      <stop offset="1" stop-color="#ccc"/>
    </radialGradient>
    <mask id="mask-1" x="3.7831951" y="3" width="16.7168049" height="19.6924" maskUnits="userSpaceOnUse">
      <path d="M12.73,21.7148l-8.9468049-2.2304L7.893595,3l12.606405,3.1416-3.2065053,12.8247c-.4341,1.7427-2.8652999,3.1719-4.5634947,2.7485Z" fill="#fff" fill-rule="evenodd"/>
    </mask>
    <linearGradient id="New_Gradient_401" data-name="New Gradient 401" x1="7.4588872" y1="3.2120211" x2="16.6821502" y2="22.1225125" gradientUnits="userSpaceOnUse">
      <stop offset="0" stop-color="#e5e5e5"/>
      <stop offset=".286514" stop-color="#f2f2f2"/>
      <stop offset=".646072" stop-color="#fff"/>
      <stop offset="1" stop-color="#fff"/>
    </linearGradient>
    <radialGradient id="New_Gradient_402" data-name="New Gradient 402" cx="24.5371539" cy="-27.7390239" fx="24.5371539" fy="-27.7390239" r="4.4321915" gradientTransform="translate(-17.1488 38.2187) rotate(13.9915205) skewX(-.0111829)" gradientUnits="userSpaceOnUse">
      <stop offset="0" stop-color="#e5e5e5"/>
      <stop offset=".331467" stop-color="#e5e5e5"/>
      <stop offset="1" stop-color="#999"/>
    </radialGradient>
    <mask id="mask-2" x="9.4911949" y="12.1358675" width="9.5088051" height="8.2028856" maskUnits="userSpaceOnUse">
      <path d="M14.2455948,18.0093c1.853,0,3.5307999-.4722,4.7544052-1.2364-.2939053-2.2846-2.3081053-4.0541-4.7544052-4.0541s-4.4603999,1.7695-4.7543999,4.0541c1.2236.7642,2.9013999,1.2364,4.7543999,1.2364Z" fill="#fff"/>
    </mask>
    <radialGradient id="radial-gradient" cx="29.9702699" cy="-2.0897264" fx="29.9702699" fy="-2.0897264" r="6.1062017" gradientTransform="translate(-15.4864159 16.2958834) scale(.9206)" gradientUnits="userSpaceOnUse">
      <stop offset="0" stop-color="#ff936a"/>
      <stop offset=".0734014" stop-color="#ff845f"/>
      <stop offset=".2143019" stop-color="#ff5d43"/>
      <stop offset=".4065987" stop-color="#ff1e16"/>
      <stop offset=".494382" stop-color="red"/>
      <stop offset="1" stop-color="#a70000"/>
    </radialGradient>
    <radialGradient id="radial-gradient-2" cx="1.4579929" cy="87.7628919" fx="1.4579929" fy="87.7628919" r="3.5921067" gradientTransform="translate(11.7454 -65.4053) rotate(-22.134553) scale(1.1497336 .8527532) skewX(-16.7881869)" gradientUnits="userSpaceOnUse">
      <stop offset="0" stop-color="#fff"/>
      <stop offset=".2672026" stop-color="#fdfeff"/>
      <stop offset=".3634512" stop-color="#f6fcff"/>
      <stop offset=".4320518" stop-color="#eaf8ff"/>
      <stop offset=".487495" stop-color="#d9f3ff"/>
      <stop offset=".5344661" stop-color="#c3ecff"/>
      <stop offset=".55618" stop-color="#b7e9ff"/>
      <stop offset=".955056" stop-color="#69c"/>
    </radialGradient>
    <radialGradient id="radial-gradient-3" cx="31.4065978" cy="-2.0895563" fx="31.4065978" fy="-2.0895563" r="3.5921894" gradientTransform="translate(-15.4864159 16.2958834) scale(.9206)" gradientUnits="userSpaceOnUse">
      <stop offset="0" stop-color="#fff"/>
      <stop offset=".2672026" stop-color="#fdfeff"/>
      <stop offset=".3634512" stop-color="#f6fcff"/>
      <stop offset=".4320518" stop-color="#eaf8ff"/>
      <stop offset=".487495" stop-color="#d9f3ff"/>
      <stop offset=".5344661" stop-color="#c3ecff"/>
      <stop offset=".55618" stop-color="#b7e9ff"/>
      <stop offset=".955056" stop-color="#69c"/>
    </radialGradient>
    <linearGradient id="linear-gradient" x1="13.7417845" y1="11.7659979" x2="14.7494051" y2="12.7736184" gradientUnits="userSpaceOnUse">
      <stop offset="0" stop-color="#fff"/>
      <stop offset="1" stop-color="#9a5500"/>
    </linearGradient>
    <linearGradient id="linear-gradient-2" x1="13.6705978" y1="11.5294216" x2="14.8205918" y2="12.6794155" gradientUnits="userSpaceOnUse">
      <stop offset="0" stop-color="#fff"/>
      <stop offset="1" stop-color="#ffe900"/>
    </linearGradient>
    <radialGradient id="radial-gradient-4" cx="46.6083219" cy="14.4423494" fx="46.6083219" fy="14.4423494" r="1.5431288" gradientTransform="translate(-31.6732 1.1859) rotate(-5.0039771) scale(.9206088)" gradientUnits="userSpaceOnUse">
      <stop offset="0" stop-color="#16336e"/>
      <stop offset="1" stop-color="#b4daea"/>
    </radialGradient>
    <radialGradient id="radial-gradient-5" cx="50.9153099" cy="15.4287593" fx="50.9153099" fy="15.4287593" r="1.5430771" gradientTransform="translate(-31.6732 1.1859) rotate(-5.0039771) scale(.9206088)" gradientUnits="userSpaceOnUse"><stop offset="0" stop-color="#16336e"/><stop offset="1" stop-color="#b4daea"/></radialGradient>
  </defs>
  <g id="Layer_4" data-name="Layer 4">
    <g>
      <g mask="url(#mask)">
        <g>
          <path d="M12.73,21.7148l-8.9468049-2.2304L7.893595,3l12.606405,3.1416-3.2065053,12.8247c-.4341,1.7427-2.8652999,3.1719-4.5634947,2.7485Z" fill="url(#New_Gradient_399)" fill-rule="evenodd"/>
          <path d="M12.1322948,21.6309s2.1093999.4404,2.6879999-1.8789c2.1523999.5366,2.6371999-1.336,2.6371999-1.336l-1.0664,4.2764-4.2587999-1.0615Z" fill="url(#New_Gradient_400)" fill-rule="evenodd"/>
          <path d="M12.73,21.7148l-8.9468049-2.2304L7.893595,3l12.606405,3.1416-3.2065053,12.8247c-.4341,1.7427-2.8652999,3.1719-4.5634947,2.7485Z" fill="none" fill-rule="evenodd" stroke="#000" stroke-linecap="round" stroke-linejoin="round" stroke-width="2"/>
        </g>
      </g>
      <g mask="url(#mask-1)">
        <g>
          <path d="M12.73,21.7148l-8.9468049-2.2304L7.893595,3l12.606405,3.1416-3.2065053,12.8247c-.4341,1.7427-2.8652999,3.1719-4.5634947,2.7485Z" fill="url(#New_Gradient_401)" fill-rule="evenodd"/>
          <path d="M12.1322948,21.6309s2.1093999.4404,2.6879999-1.8789c2.1523999.5366,2.6371999-1.336,2.6371999-1.336l-1.0664,4.2764-4.2587999-1.0615Z" fill="url(#New_Gradient_402)" fill-rule="evenodd"/>
        </g>
      </g>
    </g>
  </g>
  <g id="Layer_5" data-name="Layer 5">
    <g>
      <path d="M6.597195,14.7598c3.194805.7959,6.3890998,1.5937,9.5853998,2.3906" fill="none" stroke="#ccc" stroke-linecap="round" stroke-linejoin="round" stroke-width="1.0502"/>
      <path d="M8.6518949,6.519c3.1947999.7959,6.3891051,1.5933,9.5853998,2.3907" fill="none" stroke="#ccc" stroke-linecap="round" stroke-linejoin="round" stroke-width="1.0502"/>
      <path d="M7.830095,9.8154c3.1947999.7954,6.3890998,1.5938,9.5853998,2.3902" fill="none" stroke="#ccc" stroke-linecap="round" stroke-linejoin="round" stroke-width="1.0502"/>
      <path d="M8.2411949,8.167c3.1942999.7959,6.3886998,1.5937,9.5849998,2.3906" fill="none" stroke="#ccc" stroke-linecap="round" stroke-linejoin="round" stroke-width="1.0502"/>
      <path d="M7.007795,13.1113c3.1952999.7959,6.389205,1.5938,9.5854998,2.3907" fill="none" stroke="#ccc" stroke-linecap="round" stroke-linejoin="round" stroke-width="1.0502"/>
      <path d="M7.418895,11.4629c3.1948999.7964,6.3891998,1.5942,9.5854998,2.3911" fill="none" stroke="#ccc" stroke-linecap="round" stroke-linejoin="round" stroke-width="1.0502"/>
    </g>
    <g>
      <g>
        <path d="M14.1132948,10.9922c-1.3018-.1519-2.6484999-2.0918-3.7079999-.21-.0137.1768.0112.4512.0532.6241,1.2153.0039,2.3656999-.418,3.5517999-.084-.0015-.1104-.0215-.209-.0259-.3194" stroke="#000" stroke-width="2"/>
        <path d="M14.3778948,10.9434c1.3018.1513,2.6484999,2.0918,3.7079999.2094.0137-.1762-.0112-.4502-.0532-.6235-1.2153-.0039-2.3656947.417-3.5516947.084.0013948.1094.0213948.209.0257948.3183" stroke="#000" stroke-width="2"/>
      </g>
      <path d="M14.7416948,12.5527c0,.2744-.2222.4961-.4961.4961h0c-.2739,0-.4961-.2217-.4961-.4961v-.8974c0-.2735.2222-.4951.4961-.4951h0c.2739,0,.4961.2216.4961.4951v.8974Z" stroke="#333" stroke-linecap="round" stroke-linejoin="round" stroke-width="2"/>
      <path d="M14.2455948,18.0093c1.853,0,3.5307999-.4722,4.7544052-1.2364-.2939053-2.2846-2.3081053-4.0541-4.7544052-4.0541s-4.4603999,1.7695-4.7543999,4.0541c1.2236.7642,2.9013999,1.2364,4.7543999,1.2364Z" stroke="#000" stroke-linecap="round" stroke-linejoin="round" stroke-width="2"/>
      <g mask="url(#mask-2)">
        <g>
          <path d="M14.2455948,18.0093c1.853,0,3.5307999-.4722,4.7544052-1.2364-.2939053-2.2846-2.3081053-4.0541-4.7544052-4.0541s-4.4603999,1.7695-4.7543999,4.0541c1.2236.7642,2.9013999,1.2364,4.7543999,1.2364Z" fill="url(#radial-gradient)"/>
          <path d="M14.2455948,19.6631c.9507-.3867,1.8115-1.3565,2.4394999-2.6148-.1509-2.9379-1.1840947-4.8408-2.4394999-4.3295-1.2554.5097-2.2885948,3.2529-2.4393999,6.3134.6279.7476,1.4887,1.0176,2.4393999.6309Z" fill="url(#radial-gradient-2)" fill-rule="evenodd" stroke="#a70000"/>
          <path d="M14.2455948,19.6631c.8218,0,1.5659-.6201,2.1088999-1.6231-.1309-2.999-1.0244-5.3212-2.1088999-5.3212-1.085,0-1.978,2.3222-2.1088999,5.3212.543,1.003,1.2871,1.6231,2.1088999,1.6231Z" fill="url(#radial-gradient-3)" fill-rule="evenodd" stroke="#a70000"/>
        </g>
      </g>
      <path d="M14.7416948,12.624c0,.2354-.2222.4248-.4961.4248h0c-.2739,0-.4961-.1894-.4961-.4248v-.708c0-.2353.2222-.4258.4961-.4258h0c.2739,0,.4961.1905.4961.4258v.708Z" fill="url(#linear-gradient)" stroke="#c42e00"/>
      <path d="M14.7416948,12.5527c0,.2744-.2222.4961-.4961.4961h0c-.2739,0-.4961-.2217-.4961-.4961v-.8974c0-.2735.2222-.4951.4961-.4951h0c.2739,0,.4961.2216.4961.4951v.8974Z" fill="url(#linear-gradient-2)"/>
      <g>
        <path d="M14.1132948,10.9922c-1.3018-.1519-2.6484999-2.0918-3.7079999-.21-.0137.1768.0112.4512.0532.6241,1.2153.0039,2.3656999-.418,3.5517999-.084-.0015-.1104-.0215-.209-.0259-.3194" fill="url(#radial-gradient-4)"/>
        <path d="M14.3778948,10.9434c1.3018.1513,2.6484999,2.0918,3.7079999.2094.0137-.1762-.0112-.4502-.0532-.6235-1.2153-.0039-2.3656947.417-3.5516947.084.0013948.1094.0213948.209.0257948.3183" fill="url(#radial-gradient-5)"/>
      </g>
    </g>
  </g>
</svg>