<?xml version="1.0" encoding="UTF-8"?>
<svg xmlns="http://www.w3.org/2000/svg" width="24" height="24" xmlns:xlink="http://www.w3.org/1999/xlink" viewBox="0 0 24 24">
  <defs>
    <mask id="mask" x="2.7831969" y="2" width="18.7168031" height="20.7898516" maskUnits="userSpaceOnUse">
      <path d="M12.73,21.7148l-8.9468031-2.2304L7.8935968,3l12.6064032,3.1416-3.2065035,12.8247c-.4341,1.7427-2.8652999,3.1719-4.5634965,2.7485Z" fill="#fff" fill-rule="evenodd" stroke="#fff" stroke-linecap="round" stroke-linejoin="round" stroke-width="2"/>
    </mask>
    <linearGradient id="New_Gradient_399" data-name="New Gradient 399" x1="7.4588883" y1="3.2120215" x2="16.6821512" y2="22.1225127" gradientUnits="userSpaceOnUse">
      <stop offset="0" stop-color="#e5e5e5"/>
      <stop offset="1" stop-color="#fff"/>
    </linearGradient>
    <radialGradient id="New_Gradient_400" data-name="New Gradient 400" cx="20.4356316" cy="-9.6523677" fx="20.4356316" fy="-9.6523677" r="4.4321915" gradientTransform="translate(-8.84 21.7547) rotate(13.9915205) skewX(-.0111829)" gradientUnits="userSpaceOnUse">
      <stop offset="0" stop-color="#fff"/>
      <stop offset="1" stop-color="#ccc"/>
    </radialGradient>
    <mask id="mask-1" x="3.7831969" y="3" width="16.7168031" height="19.6924" maskUnits="userSpaceOnUse">
      <path d="M12.73,21.7148l-8.9468031-2.2304L7.8935968,3l12.6064032,3.1416-3.2065035,12.8247c-.4341,1.7427-2.8652999,3.1719-4.5634965,2.7485Z" fill="#fff" fill-rule="evenodd"/>
    </mask>
    <linearGradient id="New_Gradient_401" data-name="New Gradient 401" x1="7.4588883" y1="3.2120215" x2="16.6821512" y2="22.1225127" gradientUnits="userSpaceOnUse">
      <stop offset="0" stop-color="#e5e5e5"/>
      <stop offset=".286514" stop-color="#f2f2f2"/>
      <stop offset=".646072" stop-color="#fff"/>
      <stop offset="1" stop-color="#fff"/>
    </linearGradient>
    <radialGradient id="New_Gradient_402" data-name="New Gradient 402" cx="20.4356316" cy="-9.6523677" fx="20.4356316" fy="-9.6523677" r="4.4321915" gradientTransform="translate(-8.84 21.7547) rotate(13.9915205) skewX(-.0111829)" gradientUnits="userSpaceOnUse">
      <stop offset="0" stop-color="#e5e5e5"/>
      <stop offset=".331467" stop-color="#e5e5e5"/>
      <stop offset="1" stop-color="#999"/>
    </radialGradient>
    <radialGradient id="radial-gradient" cx="-40.6096077" cy="-299.846163" fx="-40.6096077" fy="-299.846163" r="13.3627821" gradientTransform="translate(94.9848 210.5623) rotate(-14.3061863) scale(.7001111)" gradientUnits="userSpaceOnUse">
      <stop offset=".191011" stop-color="gray"/>
      <stop offset=".2044765" stop-color="gray"/>
      <stop offset=".707865" stop-color="gray"/>
    </radialGradient>
    <radialGradient id="radial-gradient-2" cx="-42.5531086" cy="-300.9720455" fx="-42.5531086" fy="-300.9720455" r="12.6080222" gradientTransform="translate(94.9848 210.5623) rotate(-14.3061863) scale(.7001111)" gradientUnits="userSpaceOnUse">
      <stop offset=".44382" stop-color="#f9e917"/>
      <stop offset=".4866018" stop-color="#f8e616"/>
      <stop offset=".5107358" stop-color="#f5de16"/>
      <stop offset=".5302345" stop-color="#f0d015"/>
      <stop offset=".5471417" stop-color="#eabd15"/>
      <stop offset=".561798" stop-color="#e2a514"/>
      <stop offset=".702247" stop-color="#f9e917"/>
      <stop offset=".842697" stop-color="#e2a514"/>
      <stop offset=".938202" stop-color="#f9e917"/>
      <stop offset="1" stop-color="#d68112"/>
    </radialGradient>
    <radialGradient id="radial-gradient-3" cx="-40.547552" cy="-299.8793161" fx="-40.547552" fy="-299.8793161" r="12.3154474" gradientTransform="translate(94.9848 210.5623) rotate(-14.3061863) scale(.7001111)" gradientUnits="userSpaceOnUse">
      <stop offset=".191011" stop-color="gray"/>
      <stop offset=".2277988" stop-color="#9f9f9f"/>
      <stop offset=".2768374" stop-color="#c1c1c1"/>
      <stop offset=".3268178" stop-color="#dcdcdc"/>
      <stop offset=".3774113" stop-color="#efefef"/>
      <stop offset=".4290096" stop-color="#fbfbfb"/>
      <stop offset=".483146" stop-color="#fff"/>
      <stop offset=".5369519" stop-color="#fcfcfc"/>
      <stop offset=".5758184" stop-color="#f2f2f2"/>
      <stop offset=".6099931" stop-color="#e2e2e2"/>
      <stop offset=".6414513" stop-color="#ccc"/>
      <stop offset=".6710511" stop-color="#afafaf"/>
      <stop offset=".6988858" stop-color="#8c8c8c"/>
      <stop offset=".707865" stop-color="gray"/>
    </radialGradient>
    <mask id="mask-2" x="8.0874036" y="7.7233419" width="14.782425" height="13.5413669" maskUnits="userSpaceOnUse">
      <path d="M20.6596964,12.8213c.6313036,2.7563-1.0264,5.2876-3.8325999,6.0693-2.5799999.7193-5.6903999-.9375-6.2752998-3.5019-.6299-2.7583,1.0263-5.2876,3.8338999-6.0689,2.5790999-.7187,5.6879999.938,6.2739998,3.5015ZM14.9745966,11.6279c-1.4443.3667-2.3324999,1.774-1.9843999,3.1411.3496,1.3677,1.8028034,2.1788,3.2475999,1.8125,1.4429-.3671,2.3314999-1.7734,1.9828999-3.1406s-1.8026965-2.1787-3.2460999-1.813Z" fill="#fff"/>
    </mask>
    <radialGradient id="radial-gradient-4" cx="15.5904045" cy="14.1360317" fx="15.5904045" fy="14.1360317" r="8.609202" gradientUnits="userSpaceOnUse">
      <stop offset=".224719" stop-color="gray"/>
      <stop offset=".2642511" stop-color="#9c9c9c"/>
      <stop offset=".332586" stop-color="#c6c6c6"/>
      <stop offset=".3942686" stop-color="#e5e5e5"/>
      <stop offset=".4465473" stop-color="#f8f8f8"/>
      <stop offset=".483146" stop-color="#fff"/>
      <stop offset=".5207264" stop-color="#fafafa"/>
      <stop offset=".5611494" stop-color="#ededed"/>
      <stop offset=".6029126" stop-color="#d8d8d8"/>
      <stop offset=".645574" stop-color="#bababa"/>
      <stop offset=".6885269" stop-color="#939393"/>
      <stop offset=".707865" stop-color="gray"/>
    </radialGradient>
    <radialGradient id="radial-gradient-5" cx="-18.6699912" cy="-237.5899557" fx="-18.6699912" fy="-237.5899557" r="7.7051625" gradientTransform="translate(70.0042846 173.9709) rotate(-1.0922921) scale(.7606382 .6786618) skewX(11.8350782)" gradientUnits="userSpaceOnUse">
      <stop offset=".325843" stop-color="#740000"/>
      <stop offset=".623595" stop-color="#df4e15"/>
      <stop offset=".6767685" stop-color="#da4a14"/>
      <stop offset=".7394779" stop-color="#cb3f11"/>
      <stop offset=".8070087" stop-color="#b42e0c"/>
      <stop offset=".8774485" stop-color="#931606"/>
      <stop offset=".932584" stop-color="#740000"/>
    </radialGradient>
  </defs>
  <g id="Layer_4" data-name="Layer 4">
    <g>
      <g mask="url(#mask)">
        <g>
          <path d="M12.73,21.7148l-8.9468031-2.2304L7.8935968,3l12.6064032,3.1416-3.2065035,12.8247c-.4341,1.7427-2.8652999,3.1719-4.5634965,2.7485Z" fill="url(#New_Gradient_399)" fill-rule="evenodd"/>
          <path d="M12.1322967,21.6309s2.1093999.4404,2.6879999-1.8789c2.1523999.5366,2.6371999-1.336,2.6371999-1.336l-1.0664,4.2764-4.2587999-1.0615Z" fill="url(#New_Gradient_400)" fill-rule="evenodd"/>
          <path d="M12.73,21.7148l-8.9468031-2.2304L7.8935968,3l12.6064032,3.1416-3.2065035,12.8247c-.4341,1.7427-2.8652999,3.1719-4.5634965,2.7485Z" fill="none" fill-rule="evenodd" stroke="#000" stroke-linecap="round" stroke-linejoin="round" stroke-width="2"/>
        </g>
      </g>
      <g mask="url(#mask-1)">
        <g>
          <path d="M12.73,21.7148l-8.9468031-2.2304L7.8935968,3l12.6064032,3.1416-3.2065035,12.8247c-.4341,1.7427-2.8652999,3.1719-4.5634965,2.7485Z" fill="url(#New_Gradient_401)" fill-rule="evenodd"/>
          <path d="M12.1322967,21.6309s2.1093999.4404,2.6879999-1.8789c2.1523999.5366,2.6371999-1.336,2.6371999-1.336l-1.0664,4.2764-4.2587999-1.0615Z" fill="url(#New_Gradient_402)" fill-rule="evenodd"/>
        </g>
      </g>
    </g>
  </g>
  <g id="Layer_5" data-name="Layer 5">
    <g>
      <path d="M6.5971968,14.7598c3.1948032.7959,6.3890998,1.5937,9.5853998,2.3906" fill="none" stroke="#ccc" stroke-linecap="round" stroke-linejoin="round" stroke-width="1.0502"/>
      <path d="M8.6518967,6.519c3.1947999.7959,6.3891033,1.5933,9.5853998,2.3907" fill="none" stroke="#ccc" stroke-linecap="round" stroke-linejoin="round" stroke-width="1.0502"/>
      <path d="M7.8300968,9.8154c3.1947999.7954,6.3890998,1.5938,9.5853998,2.3902" fill="none" stroke="#ccc" stroke-linecap="round" stroke-linejoin="round" stroke-width="1.0502"/>
      <path d="M8.2411968,8.167c3.1942999.7959,6.3886998,1.5937,9.5849998,2.3906" fill="none" stroke="#ccc" stroke-linecap="round" stroke-linejoin="round" stroke-width="1.0502"/>
      <path d="M7.0077968,13.1113c3.1952999.7959,6.3892032,1.5938,9.5854998,2.3907" fill="none" stroke="#ccc" stroke-linecap="round" stroke-linejoin="round" stroke-width="1.0502"/>
      <path d="M7.4188968,11.4629c3.1948999.7964,6.3891998,1.5942,9.5854998,2.3911" fill="none" stroke="#ccc" stroke-linecap="round" stroke-linejoin="round" stroke-width="1.0502"/>
    </g>
  </g>
  <g id="Layer_1" data-name="Layer 1">
    <g>
      <path d="M20.793,14.0161c.0018964-.3901-.0406036-.791-.1333036-1.1948-.1245-.5474-.3662-1.0537-.6914-1.5039-.085-.8047-.1905-1.6055-.7266-2.332-.8345-1.1294-2.4257999-.4991-3.7963999.1704-.3584.0146-.7139.0669-1.0596.164-.6372.1768-1.2124.4434-1.7172.7837-1.3409.0567-3.1015999-.0854-3.6474966.8213-.5742032.9531.5722967,2.3037,1.4018967,3.4815.0112.3227.0532.6513.1289.9824.1333.584.3994,1.1201.7578,1.5923.0986,1.0571.248,2.2441,1.2085,2.7099.9419033.4551,2.0550999-.1006,3.0282999-.6323.4316034.0019.8623-.0518,1.2807-.168.5635-.1562,1.0796-.3852,1.5416-.6714,1.496-.0556,3.3011999.0147,3.7948999-.9599.476-.9429-.6529-2.1948-1.3705964-3.2432ZM18.4306965,8.9961c.4858.2334.7246.8555.8662,1.5737-.7442-.6758-1.7031-1.146-2.7089999-1.3315.7021035-.2974,1.3725-.4668,1.8428-.2422ZM16.2377966,16.5815c-1.4447966.3663-2.8979999-.4448-3.2475999-1.8125-.3481-1.3671.5401-2.7744,1.9843999-3.1411,1.4434034-.3657,2.8974999.4458,3.2460999,1.813s-.54,2.7735-1.9828999,3.1406ZM9.647,11.2368c.3041967-.5068,1.3368967-.5776,2.3407967-.5928-.8257.7735-1.3623,1.7793-1.52,2.8926-.6137967-.8755-1.1397-1.7685-.8207967-2.2998ZM12.7895966,19.2217c-.4205-.2036-.6207-.7969-.7339-1.459.6792.5723,1.5166.9819,2.3968999,1.1738-.6377.292-1.2607.4795-1.663.2852ZM21.5228964,16.9756c-.2748964.541-1.3286.6636-2.4286999.7095.8501-.7452,1.4204-1.7266,1.6197-2.8228.5566.7676,1.0761036,1.5825.809,2.1133Z" fill="url(#radial-gradient)" stroke="#000" stroke-miterlimit="3.8637" stroke-width="2"/>
      <path d="M18.4306965,8.9961c1.1977.5762.9023035,3.5288,1.3144,4.4409.4126.9121,2.2339035,2.6358,1.7778,3.5386-.518,1.0229-3.8246999.5498-4.9505999.8916-.7754.2358-2.8593999,1.8017-3.7826999,1.3545-.9561-.4634-.7745-2.94-1.0274-3.6865-.3564-1.0552-2.7128999-3.3052-2.1151967-4.2984.5150967-.8564,3.1063966-.4663,4.1317966-.6753,1.0313-.2099,3.4706999-2.1323,4.6518999-1.5654M13.5106966,10.0171c-1.3016966.2637-3.8168999-.209-4.4896966.9077-.7813032,1.2998,1.6317967,3.3364,2.0824967,4.6699.3594,1.064-.0288,3.3965,1.4146,4.0962,1.4301.6919,3.2587999-.9531,4.3851999-1.2939,1.4209-.4336,4.5820999.2026,5.2602999-1.1377.5869-1.1616-1.2622-2.7896-1.7788-3.9346-.6299-1.395-.1519-2.9956-1.1431-4.3393-1.3042-1.7666-4.4623999.7729-5.7309999,1.0317" fill="url(#radial-gradient-2)"/>
      <path d="M20.6596964,12.8213c.6313036,2.7563-1.0264,5.2876-3.8325999,6.0693-2.5799999.7193-5.6903999-.9375-6.2752998-3.5019-.6299-2.7583,1.0263-5.2876,3.8338999-6.0689,2.5790999-.7187,5.6879999.938,6.2739998,3.5015ZM14.9745966,11.6279c-1.4443.3667-2.3324999,1.774-1.9843999,3.1411.3496,1.3677,1.8028034,2.1788,3.2475999,1.8125,1.4429-.3671,2.3314999-1.7734,1.9828999-3.1406s-1.8026965-2.1787-3.2460999-1.813Z" fill="url(#radial-gradient-3)" stroke="#000" stroke-miterlimit="3.8637" stroke-width="2"/>
      <g mask="url(#mask-2)">
        <g>
          <path d="M20.6596964,12.8213c.6313036,2.7563-1.0264,5.2876-3.8325999,6.0693-2.5799999.7193-5.6903999-.9375-6.2752998-3.5019-.6299-2.7583,1.0263-5.2876,3.8338999-6.0689,2.5790999-.7187,5.6879999.938,6.2739998,3.5015ZM14.9745966,11.6279c-1.4443.3667-2.3324999,1.774-1.9843999,3.1411.3496,1.3677,1.8028034,2.1788,3.2475999,1.8125,1.4429-.3671,2.3314999-1.7734,1.9828999-3.1406s-1.8026965-2.1787-3.2460999-1.813Z" fill="url(#radial-gradient-4)"/>
          <path d="M21.2836964,11.3472c-1.7949.1504-3.0805999,1.0058-5.5229999,1.0527-.2993-.8501-.413-2.8408.2378-4.022-.5664-.1059-1.1424966-.164-1.7197-.1533-.5371.0103-1.042.0776-1.5171.1885-.2134,1.8408-.143,3.6875,1.2871,5.5752-1.4775,1.1094-3.4506999.7016-5.3597966-.0523.0287967.2286.0702967.459.1297967.6929.2183.8569.6211,1.6694,1.1622033,2.4058,2.0516967.249,4.0038966.0981,5.5135966-1.0528.7959,1.7129.3242,3.1621-.4945966,4.4536.8051966.2232,1.6391965.3443,2.4760965.3277.3193-.0054.6255-.0371.9248-.0801.3032-2.0781.4209-4.1577-1.1934-6.2905,1.8389.4624,4.4711999.1069,5.0492999-.187l-.9731-2.8584Z" fill="url(#radial-gradient-5)" stroke="#740000" stroke-miterlimit="3.8637"/>
          <path d="M20.6596964,12.8213c.6313036,2.7563-1.0264,5.2876-3.8325999,6.0693-2.5799999.7193-5.6903999-.9375-6.2752998-3.5019-.6299-2.7583,1.0263-5.2876,3.8338999-6.0689,2.5790999-.7187,5.6879999.938,6.2739998,3.5015ZM14.9745966,11.6279c-1.4443.3667-2.3324999,1.774-1.9843999,3.1411.3496,1.3677,1.8028034,2.1788,3.2475999,1.8125,1.4429-.3671,2.3314999-1.7734,1.9828999-3.1406s-1.8026965-2.1787-3.2460999-1.813Z" fill="none"/>
        </g>
      </g>
    </g>
  </g>
</svg>