<?xml version='1.0' encoding='UTF-8'?>
<svg xmlns="http://www.w3.org/2000/svg" xmlns:xlink="http://www.w3.org/1999/xlink" width="24" height="24" viewBox="0 0 24 24">
  <defs>
    <mask id="mask" x="2.7832" y="2" width="18.7168" height="20.7898516" maskUnits="userSpaceOnUse">
      <path d="M12.73,21.7148l-8.9468-2.2304L7.8935974,3l12.6064026,3.1416-3.2065029,12.8247c-.4341,1.7427-2.8652999,3.1719-4.5634971,2.7485Z" fill="#fff" fill-rule="evenodd" stroke="#fff" stroke-linecap="round" stroke-linejoin="round" stroke-width="2"/>
    </mask>
    <linearGradient id="New_Gradient_399" data-name="New Gradient 399" x1="7.4588897" y1="3.2120211" x2="16.6821525" y2="22.1225123" gradientUnits="userSpaceOnUse">
      <stop offset="0" stop-color="#e5e5e5"/>
      <stop offset="1" stop-color="#fff"/>
    </linearGradient>
    <radialGradient id="New_Gradient_400" data-name="New Gradient 400" cx="21.0152971" cy="-3.8167039" fx="21.0152971" fy="-3.8167039" r="4.4321915" gradientTransform="translate(-7.9952 15.9851) rotate(13.9915205) skewX(-.0111829)" gradientUnits="userSpaceOnUse">
      <stop offset="0" stop-color="#fff"/>
      <stop offset="1" stop-color="#ccc"/>
    </radialGradient>
    <mask id="mask-1" x="3.7832" y="3" width="16.7168" height="19.6924" maskUnits="userSpaceOnUse">
      <path d="M12.73,21.7148l-8.9468-2.2304L7.8935974,3l12.6064026,3.1416-3.2065029,12.8247c-.4341,1.7427-2.8652999,3.1719-4.5634971,2.7485Z" fill="#fff" fill-rule="evenodd"/>
    </mask>
    <linearGradient id="New_Gradient_401" data-name="New Gradient 401" x1="7.4588897" y1="3.2120211" x2="16.6821525" y2="22.1225123" gradientUnits="userSpaceOnUse">
      <stop offset="0" stop-color="#e5e5e5"/>
      <stop offset=".286514" stop-color="#f2f2f2"/>
      <stop offset=".646072" stop-color="#fff"/>
      <stop offset="1" stop-color="#fff"/>
    </linearGradient>
    <radialGradient id="New_Gradient_402" data-name="New Gradient 402" cx="21.0152971" cy="-3.8167039" fx="21.0152971" fy="-3.8167039" r="4.4321915" gradientTransform="translate(-7.9952 15.9851) rotate(13.9915205) skewX(-.0111829)" gradientUnits="userSpaceOnUse">
      <stop offset="0" stop-color="#e5e5e5"/>
      <stop offset=".331467" stop-color="#e5e5e5"/>
      <stop offset="1" stop-color="#999"/>
    </radialGradient>
    <radialGradient id="radial-gradient" cx="1.1256968" cy="4.2908442" fx="1.1256968" fy="4.2908442" r="3.9831385" gradientTransform="translate(13.0546 12.4317) scale(.6601)" gradientUnits="userSpaceOnUse">
      <stop offset=".005618" stop-color="#a70000"/>
      <stop offset=".35955" stop-color="#f5b472"/>
      <stop offset=".730337" stop-color="#ffffb3"/>
      <stop offset="1" stop-color="#fff95e"/>
    </radialGradient>
    <radialGradient id="radial-gradient-2" cx="1.4490956" cy="-4.6197162" fx="1.4490956" fy="-4.6197162" r="7.6609746" gradientTransform="translate(13.0546 12.4317) scale(.6601)" gradientUnits="userSpaceOnUse"><stop offset=".005618" stop-color="#a70000"/><stop offset=".35955" stop-color="#f5b472"/><stop offset=".730337" stop-color="#ffffb3"/><stop offset="1" stop-color="#fff95e"/></radialGradient>
    <mask id="mask-2" x="9.4340973" y="6.804622" width="7.9091998" height="11.6973572" maskUnits="userSpaceOnUse">
      <path d="M17.3373971,9.6797c-.0005-.0181-.0029-.0361-.0033971-.0542-.0029029-.0493-.0073029-.0982-.0127029-.1455-.002-.0176-.0044-.0352-.0064-.0532-.0068-.0489-.0141-.0977-.0224-.1446-.0024971-.0132-.0044-.0259-.0069-.039-.0122-.0586-.0244-.1162-.0395-.1724v-.0005c0-.0307-.0039-.061-.0059-.0908-.0024-.0308-.0024-.0615-.0058-.0913-.0049-.0298-.0127-.0591-.0186-.0884-.0057971-.0283-.0093-.0581-.0171-.0859-.0068-.0254-.0166-.0503-.0254-.0752-.0102-.0308-.0185-.062-.0302-.0913-.0049-.0113-.0113-.0225-.0152-.0328-.2958971-.6879-1.0874-1.1655-1.645-1.4311-.6973-.332-1.5723-.3677-2.6268972-.1064-.8023027.2001-1.479.5473-2.0289027,1.0356-.8686.772-1.3364,1.8286-1.393,3.1709l.8149027.8135c.8163973-.2027,1.2245973-.3037,2.041-.5064,0-.3852.1122973-.7856.337-1.1992.2235973-.4131.6034972-.6875,1.1400972-.8203.061-.0151.1201-.0278.1767-.0376.0308-.0054.0611-.0098.0909-.0142.0219-.0024.0444-.0063.0649-.0092.0391-.003.0767-.0069.1128-.0083.0093-.0005.0171-.0005.0254-.0005.042-.0015.0825-.0015.1206.0005.0088.0459.0156028.0942.021.142.0005.004.001.0079.001.0113.0049.0503.0083.1011.0083.1543,0,.3076-.0982.6152-.2783.9175-.1031.1718-.2359.3461-.4023972.5151-.2026028.2119-.3042028.3183-.5068028.5298-.5005.5215-.8106.9497-.9307,1.2842-.1206.3339-.1948.9057-.2226,1.7104l.643.6431c-.5552.2651-.9692.8501-.9692,1.4287,0,.0224.0014.0454.0054.0693.0004.0078.0024.0161.0034.0235.0024.0166.0053.0327.0092.0488.0025.0097.0054.019.0083027.0288.004.0156.0082973.0312.0136973.0474.0029.0097.0073027.02.0117.0307.0054.0161.0113.0322.0181.0469.0044.0107.0093.0215.0147.0327.0063.0161.0146.0317.0224.0483.0059.0103.0108.0215.0166.0318.0088027.0176.0186.0347.0288027.0517.0058973.0098.0116973.0196.0170973.0298.0117.0191.0244.0386.0366.0576.0054.0083.0108.0166.0161.0249.0376.0552.0787.1114.1231.167.0054.0059.0102.0127.0156.0186.0171.021.0347.0425.0537.064.0078027.0092.0157.017.0235.0263.0156.0186.0327.0371.0503027.0562.0087973.0093.0174973.0185.0262973.0283.0166.0176.0342.0347.0513.0522.0093.0098.019.0191.0283.0284.0181027.0171.0352.0337.0532.0512.0108.0093.0196.0181.0298.0274.0181027.0171.0376.0342.0562.0508.0097.0083.0195.0166.0288.0258.0205.0176.042.0352.0625.0523.0093.0063.0166027.0137.0254.02.0273.0225.0542027.0439.0815.0649.0025.001.0049.0035.0073.0044v.0005c.0508.0899.1148.1685.1924027.2334,0,.0005.0004973.0015.0014973.002.0762.0635.1626.1152.2588.1518.0034.0015.0073.002.0117028.0039.042.0152.085.0274.1303972.0372.0083.0014.0161.0039.0244.0053.0493.0098.0996.0156.1523.0176.0059028.001.0117,0,.0181,0,.0454.0015.0918028,0,.1392-.0044.0136028-.001.0283-.0019.0419-.0034.0542-.0073.1094-.0156.1656-.0298.6953-.1724,1.2597-.8603,1.2597-1.5361,0-.0415-.0024-.0835-.0068-.1241-.001-.0087-.0029-.017-.0039-.0253-.0038972-.0313-.0088-.0621-.0151-.0918-.0015-.0074-.0049-.0137-.0064-.0215-.0078-.0303-.0156-.0601-.0263972-.0889-.0004028-.0049-.0029028-.0093-.0048028-.0137-.0118-.0307-.024-.0605-.0381-.0888-.0015-.003-.002-.0049-.0034-.0074-.0152-.0307-.0328-.06-.0508-.0883,0,0-.001,0-.001-.001-.0596-.0899-.1343-.1655-.2212-.2271h0l-.0005-.0005c-.0854-.103-.1821-.2045-.2856-.3012-.001,0-.0015-.0005-.002-.0015-.0683-.0635-.1401-.125-.2138-.1831-.0015-.001-.0025-.0019-.003-.0029-.0351-.0269-.0697972-.0523-.1045-.0777-.0039-.0029-.0072972-.0058-.0117-.0083-.0718-.0527-.1455-.101-.2182-.1445-.0059-.0029-.0118-.0063-.0176-.0098-.0303-.0175-.0606-.0341-.0904-.0507-.0078-.0035-.0156-.0078-.0233972-.0122-.0395028-.0196-.0791028-.0391-.1182028-.0557.3638-.0908.69-.1719,1.1651-.2896.0049-.3794.0347-.665.0908-.8588.0879-.3047.2661-.5972.5352-.8775.1977-.2041.2968-.3066.4941028-.5117.5014972-.5215.8383972-.9346,1.0155971-1.228.2969-.4898.4527-1.0406.4527-1.6494,0-.0708-.0015-.1387-.0059-.2056Z" fill="#fff"/>
    </mask>
  </defs>
  <g id="Layer_4" data-name="Layer 4">
    <g>
      <g mask="url(#mask)">
        <g>
          <path d="M12.73,21.7148l-8.9468-2.2304L7.8935974,3l12.6064026,3.1416-3.2065029,12.8247c-.4341,1.7427-2.8652999,3.1719-4.5634971,2.7485Z" fill="url(#New_Gradient_399)" fill-rule="evenodd"/>
          <path d="M12.1322973,21.6309s2.1093999.4404,2.6879999-1.8789c2.1523999.5366,2.6371999-1.336,2.6371999-1.336l-1.0664,4.2764-4.2587999-1.0615Z" fill="url(#New_Gradient_400)" fill-rule="evenodd"/>
          <path d="M12.73,21.7148l-8.9468-2.2304L7.8935974,3l12.6064026,3.1416-3.2065029,12.8247c-.4341,1.7427-2.8652999,3.1719-4.5634971,2.7485Z" fill="none" fill-rule="evenodd" stroke="#000" stroke-linecap="round" stroke-linejoin="round" stroke-width="2"/>
        </g>
      </g>
      <g mask="url(#mask-1)">
        <g>
          <path d="M12.73,21.7148l-8.9468-2.2304L7.8935974,3l12.6064026,3.1416-3.2065029,12.8247c-.4341,1.7427-2.8652999,3.1719-4.5634971,2.7485Z" fill="url(#New_Gradient_401)" fill-rule="evenodd"/>
          <path d="M12.1322973,21.6309s2.1093999.4404,2.6879999-1.8789c2.1523999.5366,2.6371999-1.336,2.6371999-1.336l-1.0664,4.2764-4.2587999-1.0615Z" fill="url(#New_Gradient_402)" fill-rule="evenodd"/>
        </g>
      </g>
    </g>
  </g>
  <g id="Layer_5" data-name="Layer 5">
    <g>
      <path d="M6.5971974,14.7598c3.1948026.7959,6.3890998,1.5937,9.5853998,2.3906" fill="none" stroke="#ccc" stroke-linecap="round" stroke-linejoin="round" stroke-width="1.0502"/>
      <path d="M8.6518974,6.519c3.1947999.7959,6.3891026,1.5933,9.5853998,2.3907" fill="none" stroke="#ccc" stroke-linecap="round" stroke-linejoin="round" stroke-width="1.0502"/>
      <path d="M7.8300974,9.8154c3.1947999.7954,6.3890998,1.5938,9.5853998,2.3902" fill="none" stroke="#ccc" stroke-linecap="round" stroke-linejoin="round" stroke-width="1.0502"/>
      <path d="M8.2411974,8.167c3.1942999.7959,6.3886998,1.5937,9.5849998,2.3906" fill="none" stroke="#ccc" stroke-linecap="round" stroke-linejoin="round" stroke-width="1.0502"/>
      <path d="M7.0077974,13.1113c3.1952999.7959,6.3892026,1.5938,9.5854998,2.3907" fill="none" stroke="#ccc" stroke-linecap="round" stroke-linejoin="round" stroke-width="1.0502"/>
      <path d="M7.4188974,11.4629c3.1948999.7964,6.3891998,1.5942,9.5854998,2.3911" fill="none" stroke="#ccc" stroke-linecap="round" stroke-linejoin="round" stroke-width="1.0502"/>
    </g>
  </g>
  <g id="Layer_3" data-name="Layer 3">
    <g>
      <path d="M14.6781972,16.1484c-.4585-.5517-1.23-1.0605-1.6963-.9458-.6963.1729-1.2602.8604-1.2602,1.5357,0,.3789.4341.9302.9389,1.31.2032.3609.6343.5386,1.1363.4141.6953-.1724,1.2597-.8603,1.2597-1.5361,0-.3409-.145-.6138-.3784-.7779Z" fill="#ecb300" stroke="#000" stroke-miterlimit="3.8637" stroke-width="2"/>
      <path d="M11.7216973,16.7383c0,.6748,1.3784,1.8965,2.0751999,1.7241.6953-.1724,1.2597-.8603,1.2597-1.5361,0-.6748-1.3779-1.8965-2.0746999-1.7237-.6963.1729-1.2602.8604-1.2602,1.5357Z" fill="url(#radial-gradient)"/>
      <path d="M17.2460971,9.0703c0-.9917-1.0664-1.6543-1.7632-1.9868-.6973-.332-1.5723-.3677-2.6268972-.1064-.8023027.2001-1.479.5473-2.0289027,1.0356-.8686.772-1.3364,1.8286-1.393,3.1709l.8149027.8135c.8163973-.2027,1.2245973-.3037,2.041-.5064,0-.3852.1122973-.7856.337-1.1992.2235973-.4131.6034972-.6875,1.1400972-.8203.227-.0566.4228-.0786.5913-.0693.0195.0976.0303.1992.0303.3076,0,.3076-.0982.6152-.2783.9175-.1031.1718-.2359.3461-.4023972.5151-.2026028.2119-.3042028.3183-.5068028.5298-.5005.5215-.8106.9497-.9307,1.2842-.1206.3339-.1948.9057-.2226,1.7104l.8144.814c.7568-.188,1.1353-.2818,1.8926-.4698.0049-.3794.0347-.665.0908-.8588.0879-.3047.2661-.5972.5352-.8775.1977-.2041.2968-.3066.4941028-.5117.5014972-.5215.8383972-.9346,1.0155971-1.228.2969-.4898.4527-1.0406.4527-1.6494,0-.3023-.0328-.5738-.0972-.815Z" fill="#ecb300" stroke="#000" stroke-miterlimit="3.8637" stroke-width="2"/>
      <path d="M10.8270973,8.0127c.5499027-.4883,1.2266-.8355,2.0289027-1.0356,1.0545972-.2613,1.9295972-.2256,2.6268972.1064.6968.3325,1.7632.9951,1.7632,1.9868,0,.6089-.8735,1.1607-1.169,1.6504-.1777.293-.5150972.7061-1.0166,1.2275-.1977.2051-.2959.3072-.4936.5122-.27.2793-.4478.5718-.5361.878-.0562.1933-1.1685,2.1421-1.1685,2.1421l-.8144-.814c.0278-.8047.102-1.3765.2226-1.7104.1201-.3345.4302-.7627.9307-1.2842.2026-.2115.3042-.3179.5068028-.5298.1664972-.169.2992972-.3433.4023972-.5151.1801-.3023.2783-.6099.2783-.9175,0-.355-.104-.6538-.3091-.8946-.2061-.2407-.582-.2944-1.1265-.1586-.5366.1333-.9165.4072-1.1410972.8208-.2236027.4135-1.563,2.52-1.563,2.52l-.8149027-.8135c.0566-1.3423.5244-2.3989,1.393-3.1709Z" fill="url(#radial-gradient-2)"/>
      <g mask="url(#mask-2)">
        <g>
          <g>
            <path d="M12.4052973,17.4229c0,.6752.5654,1.0825,1.2607027.9091.6957972-.1728,1.2602972-.8603,1.2602972-1.5356s-.5645-1.082-1.2602972-.9097c-.6953028.1729-1.2607027.8604-1.2607027,1.5362Z" fill="#ffffb3"/>
            <path d="M11.5106973,8.6968c.5503027-.4883,1.2271-.836,2.0293027-1.0352,1.0541972-.2622,1.9296972-.2256,2.6274972.1065.6968.332,1.0459.9941,1.0459,1.9868,0,.6089-.1568,1.1601-.4531,1.6499-.1768.2934-.5142.706-1.0152,1.227-.1977.2056-.2969.3081-.4940972.5127-.2696028.2798-.4483028.5723-.5357028.8775-.0556.1928-.0864.479-.0902972.8589-.7573028.1875-1.1357028.2812-1.8916027.4692.0269-.8047.1006027-1.375.2212-1.7105.1201-.3339.4302-.7622.9307-1.2836.2021-.212.3037028-.3174.5068-.5293.1665-.1695.2998-.3438.4028-.5157.1802-.3017.2774-.6093.2774-.9174,0-.355-.1031-.6534-.3086-.8946-.2056-.2412-.5821-.2939-1.127-.1582-.5361.1333-.9165.4068-1.1411.8208-.2231.4141-.3354.8135-.3354,1.1992-.8174.2027-1.2247.3033-2.0414999.5064.0561-1.3413.5239-2.3984,1.392-3.1704Z" fill="#ffffb3"/>
          </g>
          <g>
            <path d="M12.5355973,17.5532c0,.6748.5645,1.0816,1.2613.9092.6953-.1724,1.2597-.8603,1.2597-1.5361,0-.6748-.5644-1.0816-1.2597-.9092-.6963.1724-1.2613.8603-1.2613,1.5361Z" fill="#ff7845"/>
            <path d="M11.6410973,8.8267c.5498-.4883,1.2276-.836,2.0287999-1.0347,1.0542-.2617,1.9307-.2266,2.6274999.1059.6967.3326,1.0459.9947,1.0459,1.9874,0,.6088-.1558,1.1596-.4527,1.6494-.1772.2934-.5141.7065-1.0155971,1.228-.1973028.2051-.2964028.3076-.4941028.5117-.2691.2803-.4473.5728-.5352.8775-.0561.1938-.0859.4794-.0908.8588-.7573.188-1.1358.2818-1.8926.4698.0278-.8052.1021-1.3755.2222-1.7105.1201-.3345.4301-.7617.9306-1.2837.2027-.2114.3052-.3174.5078-.5302.1666-.168.2994-.3433.4019-.5152.1807-.3017.2778-.6089.2778-.917,0-.3554-.103-.6533-.309-.895-.2051-.2402-.5811-.2935-1.1265-.1577-.5366.1328-.9165.4072-1.1400972.8203-.2247027.4136-.337.814-.337,1.1992-.8164027.2027-1.2246027.3037-2.041.5064.0556973-1.3413.5234973-2.3985,1.3920973-3.1704Z" fill="#ff7845"/>
          </g>
        </g>
      </g>
    </g>
  </g>
</svg>