<?xml version="1.0" encoding="UTF-8"?>
<svg xmlns="http://www.w3.org/2000/svg" width="24" height="24" xmlns:xlink="http://www.w3.org/1999/xlink" viewBox="0 0 24 24">
  <defs>
    <mask id="mask" x="2.7831914" y="2" width="18.7168086" height="20.7898516" maskUnits="userSpaceOnUse">
      <path d="M12.7304912,21.7148l-8.9472998-2.2304L7.8935913,3l12.6064087,3.1416-3.207,12.8247c-.4336089,1.7427-2.8653089,3.1719-4.5625088,2.7485Z" fill="#fff" fill-rule="evenodd" stroke="#fff" stroke-linecap="round" stroke-linejoin="round" stroke-width="2"/>
    </mask>
    <linearGradient id="New_Gradient_399" data-name="New Gradient 399" x1="7.4588851" y1="3.2120204" x2="16.6821156" y2="22.1224453" gradientUnits="userSpaceOnUse">
      <stop offset="0" stop-color="#e5e5e5"/>
      <stop offset="1" stop-color="#fff"/>
    </linearGradient>
    <radialGradient id="New_Gradient_400" data-name="New Gradient 400" cx="15.2191297" cy="-62.1732222" fx="15.2191297" fy="-62.1732222" r="4.4317047" gradientTransform="translate(-16.4432 73.6811) rotate(13.9915205) skewX(-.0111829)" gradientUnits="userSpaceOnUse">
      <stop offset="0" stop-color="#fff"/>
      <stop offset="1" stop-color="#ccc"/>
    </radialGradient>
    <mask id="mask-1" x="3.7831914" y="3" width="16.7168086" height="19.6924" maskUnits="userSpaceOnUse">
      <path d="M12.7304912,21.7148l-8.9472998-2.2304L7.8935913,3l12.6064087,3.1416-3.207,12.8247c-.4336089,1.7427-2.8653089,3.1719-4.5625088,2.7485Z" fill="#fff" fill-rule="evenodd"/>
    </mask>
    <linearGradient id="New_Gradient_401" data-name="New Gradient 401" x1="7.4588851" y1="3.2120204" x2="16.6821156" y2="22.1224453" gradientUnits="userSpaceOnUse">
      <stop offset="0" stop-color="#e5e5e5"/>
      <stop offset=".286514" stop-color="#f2f2f2"/>
      <stop offset=".646072" stop-color="#fff"/>
      <stop offset="1" stop-color="#fff"/>
    </linearGradient>
    <radialGradient id="New_Gradient_402" data-name="New Gradient 402" cx="15.2191297" cy="-62.1732222" fx="15.2191297" fy="-62.1732222" r="4.4317047" gradientTransform="translate(-16.4432 73.6811) rotate(13.9915205) skewX(-.0111829)" gradientUnits="userSpaceOnUse">
      <stop offset="0" stop-color="#e5e5e5"/>
      <stop offset=".331467" stop-color="#e5e5e5"/>
      <stop offset="1" stop-color="#999"/>
    </radialGradient>
    <mask id="mask-2" x="5.9218914" y="5.3652" width="13.4159997" height="10.9853269" maskUnits="userSpaceOnUse">
      <polygon points="6.8817913 13.1455 16.793 15.6123 18.556591 8.5459 8.6483913 6.0381 6.8817913 13.1455" fill="#fff" fill-rule="evenodd" stroke="#fff" stroke-miterlimit="3.8637" stroke-width=".95"/>
    </mask>
    <mask id="mask-3" x="5.9218914" y="5.3652" width="13.4159997" height="9.7334" maskUnits="userSpaceOnUse">
      <polygon points="19.337891 8.2983 8.2997913 5.3652 5.9218914 14.9761 7.959 15.0986 9.7782913 8.043 18.767591 10.3389 19.337891 8.2983" fill="#fff" fill-rule="evenodd"/>
    </mask>
    <mask id="mask-4" x="11.4971193" y="11.3887421" width="11.4500679" height="9.8297761" maskUnits="userSpaceOnUse">
      <path d="M16.6620911,12.563c2.7577999.1626,4.9179999,1.9062,4.8261999,3.896-.0918,1.9883-2.403291,3.4682-5.1620999,3.3056-2.7577999-.163-4.9189999-1.9072-4.8261911-3.8955.0927912-1.9887,2.4042912-3.4692,5.1620911-3.3061Z" fill="#fff" fill-rule="evenodd"/>
    </mask>
    <linearGradient id="linear-gradient" x1="11.9329325" y1="18.4086876" x2="21.1401508" y2="13.877396" gradientUnits="userSpaceOnUse">
      <stop offset="0" stop-color="#2c6eb2"/>
      <stop offset=".213483" stop-color="#fff"/>
    </linearGradient>
    <linearGradient id="linear-gradient-2" x1="11.065751" y1="20.7049657" x2="22.2476282" y2="15.9815789" gradientUnits="userSpaceOnUse">
      <stop offset="0" stop-color="#fff"/>
      <stop offset=".0659937" stop-color="#d7d9e1"/>
      <stop offset=".1372393" stop-color="#b5b8c7"/>
      <stop offset=".2162204" stop-color="#989bb1"/>
      <stop offset=".3033519" stop-color="#80849f"/>
      <stop offset=".4021126" stop-color="#6e7291"/>
      <stop offset=".5192141" stop-color="#616687"/>
      <stop offset=".672578" stop-color="#5a5f81"/>
      <stop offset="1" stop-color="#585d80"/>
    </linearGradient>
    <mask id="mask-5" x="11.4971193" y="11.1467715" width="11.4773394" height="8.7822012" maskUnits="userSpaceOnUse">
      <path d="M16.6620911,12.2134c2.7577999.1445,4.9179999,1.6938,4.8261999,3.4614-.0918,1.7666-2.403291,3.0815-5.1620999,2.937-2.7577999-.145-4.9189999-1.6943-4.8261911-3.4614.0927912-1.7666,2.4042912-3.082,5.1620911-2.937Z" fill="#fff" fill-rule="evenodd"/>
    </mask>
    <linearGradient id="linear-gradient-3" x1="9.492238" y1="19.9392325" x2="19.0411577" y2="13.7662029" gradientUnits="userSpaceOnUse">
      <stop offset="0" stop-color="#fff"/>
      <stop offset=".193443" stop-color="#c3dffc"/>
      <stop offset=".5249655" stop-color="#62abf7"/>
      <stop offset=".674157" stop-color="#3c97f6"/>
    </linearGradient>
    <linearGradient id="linear-gradient-4" x1="12.291823" y1="19.8878758" x2="20.5824662" y2="16.2727768" gradientUnits="userSpaceOnUse">
      <stop offset="0" stop-color="#fff"/>
      <stop offset=".5218671" stop-color="#a7abcf"/>
      <stop offset=".780899" stop-color="#8187ba"/>
    </linearGradient>
  </defs>
  <g id="Layer_4" data-name="Layer 4">
    <g>
      <g mask="url(#mask)">
        <g>
          <path d="M12.7304912,21.7148l-8.9472998-2.2304L7.8935913,3l12.6064087,3.1416-3.207,12.8247c-.4336089,1.7427-2.8653089,3.1719-4.5625088,2.7485Z" fill="url(#New_Gradient_399)" fill-rule="evenodd"/>
          <path d="M12.1327912,21.6309s2.1093999.4404,2.6874999-1.8789c2.1523999.5366,2.6367089-1.336,2.6367089-1.336l-1.0664089,4.2764-4.2577999-1.0615Z" fill="url(#New_Gradient_400)" fill-rule="evenodd"/>
          <path d="M12.7304912,21.7148l-8.9472998-2.2304L7.8935913,3l12.6064087,3.1416-3.207,12.8247c-.4336089,1.7427-2.8653089,3.1719-4.5625088,2.7485Z" fill="none" fill-rule="evenodd" stroke="#000" stroke-linecap="round" stroke-linejoin="round" stroke-width="2"/>
        </g>
      </g>
      <g mask="url(#mask-1)">
        <g>
          <path d="M12.7304912,21.7148l-8.9472998-2.2304L7.8935913,3l12.6064087,3.1416-3.207,12.8247c-.4336089,1.7427-2.8653089,3.1719-4.5625088,2.7485Z" fill="url(#New_Gradient_401)" fill-rule="evenodd"/>
          <path d="M12.1327912,21.6309s2.1093999.4404,2.6874999-1.8789c2.1523999.5366,2.6367089-1.336,2.6367089-1.336l-1.0664089,4.2764-4.2577999-1.0615Z" fill="url(#New_Gradient_402)" fill-rule="evenodd"/>
        </g>
      </g>
    </g>
  </g>
  <g id="Layer_1" data-name="Layer 1">
    <g>
      <g mask="url(#mask-2)">
        <g>
          <g mask="url(#mask-3)">
            <polygon points="19.337891 8.2983 8.2997913 5.3652 5.9218914 14.9761 7.959 15.0986 9.7782913 8.043 18.767591 10.3389 19.337891 8.2983" fill="#b7e9ff" fill-rule="evenodd"/>
          </g>
          <path d="M18.912091,10.375l-11.4188997-2.8418,11.4188997,2.8418Z" fill="none" fill-rule="evenodd" stroke="#999" stroke-miterlimit="3.8637" stroke-width=".95"/>
          <path d="M18.658191,11.7534l-11.4179997-2.8413,11.4179997,2.8413Z" fill="none" fill-rule="evenodd" stroke="#999" stroke-miterlimit="3.8637" stroke-width=".95"/>
          <path d="M18.408191,13.1323l-11.4188997-2.8418,11.4188997,2.8418Z" fill="none" fill-rule="evenodd" stroke="#999" stroke-miterlimit="3.8637" stroke-width=".95"/>
          <path d="M18.1542911,14.5112l-11.4179997-2.8423,11.4179997,2.8423Z" fill="none" fill-rule="evenodd" stroke="#999" stroke-miterlimit="3.8637" stroke-width=".95"/>
          <path d="M17.9042911,15.8896l-11.4188997-2.8432,11.4188997,2.8432Z" fill="none" fill-rule="evenodd" stroke="#999" stroke-miterlimit="3.8637" stroke-width=".95"/>
          <polygon points="6.8817913 13.1455 16.793 15.6123 18.556591 8.5459 8.6483913 6.0381 6.8817913 13.1455" fill="none" fill-rule="evenodd" stroke="#999" stroke-miterlimit="3.8637" stroke-width=".95"/>
        </g>
      </g>
      <line x1="10.1308913" y1="6.5073" x2="8.3827913" y2="13.5195" fill="none" stroke="#999" stroke-miterlimit="3.8637"/>
      <line x1="12.7968912" y1="7.0518" x2="11.0214912" y2="14.1768" fill="none" stroke="#999" stroke-miterlimit="3.8637"/>
      <line x1="15.6151911" y1="7.7969" x2="13.8495912" y2="14.8804" fill="none" stroke="#999" stroke-miterlimit="3.8637"/>
    </g>
    <g>
      <path d="M21.488291,15.6748c.0918-1.7676-2.0683999-3.3169-4.8261999-3.4614-2.7577999-.145-5.0692999,1.1704-5.1620911,2.937-.0078088.1543.002.3061.0263912.4556-.0127.0869-.0225.1738-.0263912.2631-.0928088,1.9883,2.0683912,3.7325,4.8261911,3.8955,2.7588089.1626,5.0702999-1.3173,5.1620999-3.3056.0088-.1807-.0029-.3599-.030291-.5347.014691-.0825.026391-.1655.030291-.2495Z" fill="#2c6eb2" fill-rule="evenodd" stroke="#000" stroke-width="2"/>
      <g mask="url(#mask-4)">
        <g>
          <path d="M16.6620911,12.563c2.7577999.1626,4.9179999,1.9062,4.8261999,3.896-.0918,1.9883-2.403291,3.4682-5.1620999,3.3056-2.7577999-.163-4.9189999-1.9072-4.8261911-3.8955.0927912-1.9887,2.4042912-3.4692,5.1620911-3.3061Z" fill="url(#linear-gradient)" fill-rule="evenodd"/>
          <polygon points="13.1112912 16.1475 13.1210912 19.1431 19.283191 20.9272 22.4804909 16.084 13.1112912 16.1475" fill="url(#linear-gradient-2)" fill-rule="evenodd" stroke="#585d80" stroke-width=".5"/>
          <polygon points="16.4062911 16.084 17.3720911 11.7603 22.211891 14.2725 16.4062911 16.084" fill="#ff7845" fill-rule="evenodd" stroke="#000" stroke-width=".5"/>
        </g>
      </g>
      <g mask="url(#mask-5)">
        <g>
          <path d="M16.6620911,12.2134c2.7577999.1445,4.9179999,1.6938,4.8261999,3.4614-.0918,1.7666-2.403291,3.0815-5.1620999,2.937-2.7577999-.145-4.9189999-1.6943-4.8261911-3.4614.0927912-1.7666,2.4042912-3.082,5.1620911-2.937Z" fill="url(#linear-gradient-3)" fill-rule="evenodd"/>
          <polygon points="16.4062911 15.2881 12.6933912 17.9502 19.283191 19.645 22.4804909 15.3418 16.4062911 15.2881" fill="url(#linear-gradient-4)" fill-rule="evenodd" stroke="#8187ba" stroke-width=".5"/>
          <polygon points="16.4062911 15.3418 22.3202909 15.8247 21.246091 13.3784 16.4062911 15.3418" fill="#65d081" fill-rule="evenodd" stroke="#4b995f" stroke-width=".5"/>
          <polygon points="16.4062911 15.3418 17.3720911 11.5 22.211891 13.7319 16.4062911 15.3418" fill="#ff7845" fill-rule="evenodd" stroke="#cc6037" stroke-width=".5"/>
        </g>
      </g>
    </g>
  </g>
</svg>