<?xml version="1.0" encoding="UTF-8"?>
<svg id="Layer_3" data-name="Layer 3" xmlns="http://www.w3.org/2000/svg" width="24" height="24" xmlns:xlink="http://www.w3.org/1999/xlink" viewBox="0 0 24 24">
  <defs>
    <mask id="mask" x="2.7832" y="2" width="18.7168" height="20.7898516" maskUnits="userSpaceOnUse">
      <path d="M12.73,21.7148l-8.9468-2.2304L7.8936,3l12.6064,3.1416-3.2065,12.8247c-.4341,1.7427-2.8653,3.1719-4.5635,2.7485Z" fill="#fff" fill-rule="evenodd" stroke="#fff" stroke-linecap="round" stroke-linejoin="round" stroke-width="2"/>
    </mask>
    <linearGradient id="New_Gradient_165" data-name="New Gradient 165" x1="7.4588902" y1="3.2120221" x2="16.682153" y2="22.1225132" gradientUnits="userSpaceOnUse">
      <stop offset="0" stop-color="#e5e5e5"/>
      <stop offset="1" stop-color="#fff"/>
    </linearGradient>
    <radialGradient id="New_Gradient_166" data-name="New Gradient 166" cx="45.5367052" cy="5.5359635" fx="45.5367052" fy="5.5359635" r="4.4321916" gradientTransform="translate(-29.4032 1.0667) rotate(13.9915205) skewX(-.0111829)" gradientUnits="userSpaceOnUse">
      <stop offset="0" stop-color="#fff"/>
      <stop offset="1" stop-color="#ccc"/>
    </radialGradient>
    <mask id="mask-1" x="3.7832" y="3" width="16.7168" height="19.6924" maskUnits="userSpaceOnUse">
      <path d="M12.73,21.7148l-8.9468-2.2304L7.8936,3l12.6064,3.1416-3.2065,12.8247c-.4341,1.7427-2.8653,3.1719-4.5635,2.7485Z" fill="#fff" fill-rule="evenodd"/>
    </mask>
    <linearGradient id="New_Gradient_163" data-name="New Gradient 163" x1="7.4588902" y1="3.2120221" x2="16.682153" y2="22.1225132" gradientUnits="userSpaceOnUse">
      <stop offset="0" stop-color="#e5e5e5"/>
      <stop offset=".286514" stop-color="#f2f2f2"/>
      <stop offset=".646072" stop-color="#fff"/>
      <stop offset="1" stop-color="#fff"/>
    </linearGradient>
    <radialGradient id="New_Gradient_164" data-name="New Gradient 164" cx="45.5367052" cy="5.5359635" fx="45.5367052" fy="5.5359635" r="4.4321916" gradientTransform="translate(-29.4032 1.0667) rotate(13.9915205) skewX(-.0111829)" gradientUnits="userSpaceOnUse">
      <stop offset="0" stop-color="#e5e5e5"/>
      <stop offset=".331467" stop-color="#e5e5e5"/>
      <stop offset="1" stop-color="#999"/>
    </radialGradient>
    <mask id="mask-2" x="8.751" y="13.9668" width="11.5908" height="5.1846" maskUnits="userSpaceOnUse">
      <polygon points="20.3418 15.1187 20.0498 16.6616 12.2139 18.6826 9.1401 15.6084 9.1401 14.5762 20.3418 15.1187" fill="#fff" fill-rule="evenodd"/>
    </mask>
    <linearGradient id="New_Gradient_162" data-name="New Gradient 162" x1="8.3534059" y1="18.7164441" x2="12.6313752" y2="14.4384748" gradientUnits="userSpaceOnUse">
      <stop offset="0" stop-color="#999"/>
      <stop offset=".382019" stop-color="#999"/>
      <stop offset=".786514" stop-color="#666"/>
      <stop offset="1" stop-color="#666"/>
    </linearGradient>
    <mask id="mask-3" x="8.751" y="9.7061" width="12.2109" height="8.7148" maskUnits="userSpaceOnUse">
      <path d="M9.0088,12.5234v2.1729l3.1064,3.1055,8.6973-2.1675v-1.2476c-1.2183-2.687-3.3496-4.0073-3.3496-4.0073l-8.4541,2.144Z" fill="#fff" fill-rule="evenodd"/>
    </mask>
    <radialGradient id="New_Gradient_161" data-name="New Gradient 161" cx="11.8440487" cy="11.662733" fx="11.8440487" fy="11.662733" r="8.9677332" gradientUnits="userSpaceOnUse">
      <stop offset="0" stop-color="#f2f2f2"/>
      <stop offset="1" stop-color="#b2b2b2"/>
    </radialGradient>
    <mask id="mask-4" x="9.7599027" y="8.4324845" width="6.9114973" height="5.2721155" maskUnits="userSpaceOnUse">
      <polygon points="16.6714 11.9126 12.4351 13.7046 10.687 12.6714 10.2344 10.3945 16.1079 8.877 16.6714 11.9126" fill="#fff" fill-rule="evenodd"/>
    </mask>
    <linearGradient id="New_Gradient_157" data-name="New Gradient 157" x1="12.4436388" y1="8.5271616" x2="14.7399845" y2="13.9370132" gradientUnits="userSpaceOnUse">
      <stop offset="0" stop-color="#999"/>
      <stop offset="1" stop-color="#4c4c4c"/>
    </linearGradient>
    <linearGradient id="New_Gradient_156" data-name="New Gradient 156" x1="12.7441399" y1="7.6348454" x2="14.3910519" y2="13.7812043" gradientUnits="userSpaceOnUse">
      <stop offset="0" stop-color="#fff"/>
      <stop offset=".662918" stop-color="#e5e5e5"/>
      <stop offset="1" stop-color="#737373"/>
    </linearGradient>
    <radialGradient id="New_Gradient_155" data-name="New Gradient 155" cx="-129.9258439" cy="-66.5621573" fx="-129.9258439" fy="-66.5621573" r="12.0468457" gradientTransform="translate(95.2861 57.7997) scale(.6533)" gradientUnits="userSpaceOnUse">
      <stop offset="0" stop-color="#3c97f6"/>
      <stop offset=".235962" stop-color="#3c97f6"/>
      <stop offset="1" stop-color="#0342d3"/>
    </radialGradient>
    <linearGradient id="New_Gradient_154" data-name="New Gradient 154" x1="9.6869512" y1="12.4415799" x2="20.1621067" y2="15.2483894" gradientUnits="userSpaceOnUse">
      <stop offset="0" stop-color="#fff"/>
      <stop offset="1" stop-color="#999"/>
    </linearGradient>
    <radialGradient id="New_Gradient_153" data-name="New Gradient 153" cx="-126.9324579" cy="-65.2538169" fx="-126.9324579" fy="-65.2538169" r=".9297739" gradientTransform="translate(95.2861 57.7997) scale(.6533)" gradientUnits="userSpaceOnUse">
      <stop offset="0" stop-color="#23a11f"/>
      <stop offset="1" stop-color="#005e00"/>
    </radialGradient>
    <radialGradient id="New_Gradient_152" data-name="New Gradient 152" cx="-125.5923385" cy="-65.5771441" fx="-125.5923385" fy="-65.5771441" r=".9291598" gradientTransform="translate(95.2861 57.7997) scale(.6533)" gradientUnits="userSpaceOnUse">
      <stop offset="0" stop-color="red"/>
      <stop offset="1" stop-color="#a70000"/>
    </radialGradient>
    <linearGradient id="New_Gradient_151" data-name="New Gradient 151" x1="10.8222007" y1="12.2695195" x2="18.8736102" y2="16.9180029" gradientUnits="userSpaceOnUse">
      <stop offset="0" stop-color="#fff"/>
      <stop offset=".449432" stop-color="#fff"/>
      <stop offset="1" stop-color="#d9d9d9"/>
    </linearGradient>
    <linearGradient id="New_Gradient_150" data-name="New Gradient 150" x1="16.710579" y1="13.1803181" x2="18.0081165" y2="10.8394985" gradientUnits="userSpaceOnUse">
      <stop offset="0" stop-color="#3c97f6"/>
      <stop offset="1" stop-color="#0342d3"/>
    </linearGradient>
    <radialGradient id="New_Gradient_149" data-name="New Gradient 149" cx="-127.0537295" cy="-69.6447268" fx="-127.0537295" fy="-69.6447268" r="8.6419139" gradientTransform="translate(95.2861 57.7997) scale(.6533)" gradientUnits="userSpaceOnUse">
      <stop offset="0" stop-color="#b7e9ff"/>
      <stop offset=".69101" stop-color="#3c97f6"/>
      <stop offset="1" stop-color="#0342d3"/>
    </radialGradient>
  </defs>
  <g>
    <g mask="url(#mask)">
      <g>
        <path d="M12.73,21.7148l-8.9468-2.2304L7.8936,3l12.6064,3.1416-3.2065,12.8247c-.4341,1.7427-2.8653,3.1719-4.5635,2.7485Z" fill="url(#New_Gradient_165)" fill-rule="evenodd"/>
        <path d="M12.1323,21.6309s2.1094.4404,2.688-1.8789c2.1524.5366,2.6372-1.336,2.6372-1.336l-1.0664,4.2764-4.2588-1.0615Z" fill="url(#New_Gradient_166)" fill-rule="evenodd"/>
        <path d="M12.73,21.7148l-8.9468-2.2304L7.8936,3l12.6064,3.1416-3.2065,12.8247c-.4341,1.7427-2.8653,3.1719-4.5635,2.7485Z" fill="none" fill-rule="evenodd" stroke="#000" stroke-linecap="round" stroke-linejoin="round" stroke-width="2"/>
      </g>
    </g>
    <g mask="url(#mask-1)">
      <g>
        <path d="M12.73,21.7148l-8.9468-2.2304L7.8936,3l12.6064,3.1416-3.2065,12.8247c-.4341,1.7427-2.8653,3.1719-4.5635,2.7485Z" fill="url(#New_Gradient_163)" fill-rule="evenodd"/>
        <path d="M12.1323,21.6309s2.1094.4404,2.688-1.8789c2.1524.5366,2.6372-1.336,2.6372-1.336l-1.0664,4.2764-4.2588-1.0615Z" fill="url(#New_Gradient_164)" fill-rule="evenodd"/>
      </g>
    </g>
  </g>
  <g>
    <path d="M6.5972,14.7598c3.1948.7959,6.3891,1.5937,9.5854,2.3906" fill="none" stroke="#ccc" stroke-linecap="round" stroke-linejoin="round" stroke-width="1.0502"/>
    <path d="M8.6519,6.519c3.1948.7959,6.3891,1.5933,9.5854,2.3907" fill="none" stroke="#ccc" stroke-linecap="round" stroke-linejoin="round" stroke-width="1.0502"/>
    <path d="M7.8301,9.8154c3.1948.7954,6.3891,1.5938,9.5854,2.3902" fill="none" stroke="#ccc" stroke-linecap="round" stroke-linejoin="round" stroke-width="1.0502"/>
    <path d="M8.2412,8.167c3.1943.7959,6.3887,1.5937,9.585,2.3906" fill="none" stroke="#ccc" stroke-linecap="round" stroke-linejoin="round" stroke-width="1.0502"/>
    <path d="M7.0078,13.1113c3.1953.7959,6.3892,1.5938,9.5855,2.3907" fill="none" stroke="#ccc" stroke-linecap="round" stroke-linejoin="round" stroke-width="1.0502"/>
    <path d="M7.4189,11.4629c3.1949.7964,6.3892,1.5942,9.5855,2.3911" fill="none" stroke="#ccc" stroke-linecap="round" stroke-linejoin="round" stroke-width="1.0502"/>
  </g>
  <g>
    <path d="M11.6787,10.1006c1.2334-.3272,2.4663-.6563,3.7012-.9834" fill="none" stroke="#ccc" stroke-linecap="round" stroke-linejoin="round" stroke-width="1.0502"/>
    <path d="M12.2852,12.5352c1.2338-.3291,2.4672-.6568,3.7026-.9839" fill="none" stroke="#ccc" stroke-linecap="round" stroke-linejoin="round" stroke-width="1.0502"/>
    <path d="M12.0835,11.7241c1.2334-.3291,2.4668-.6567,3.7012-.9853" fill="none" stroke="#ccc" stroke-linecap="round" stroke-linejoin="round" stroke-width="1.0502"/>
    <path d="M11.8813,10.9121c1.2325-.3281,2.4668-.6567,3.7007-.9844" fill="none" stroke="#ccc" stroke-linecap="round" stroke-linejoin="round" stroke-width="1.0502"/>
  </g>
  <g>
    <path d="M20.8125,14.3867c-.0952-.2109-.1982-.4106-.3032-.6035-.0425-.0796-.0913-.167-.1446-.2568-.0273-.0469-.0546-.0943-.082-.1416-.0605-.1001-.1279-.2051-.1977-.312-.0205-.0318-.0406-.0621-.0601-.0918-.3374-.5039-.7749-1.0699-1.2891-1.5743-.0073-.0034.0015.0137.0166.0396-.7187-.7114-1.2895-1.0669-1.2895-1.0669l-.6191.1562-.3477-.8295-.2202.0722-.1275-.688.2163-.1518-.2338.0591-.023-.1206-.2568.0654-.2178-1.1328-4.98,1.3261.1963,1.0992-.6152.1596.3432,1.7305-.1342.0337c-.021-.0103-.0342-.0161-.0342-.0161l-.5069.1455c.0044.0029.0064.0044.0098.0058l-.0308.0074c0-.0034-.0014-.0088-.0019-.0132l-.8608.2207s.0043.0034.0117.0088l-.0215.0058v2.1729l.1313.1313v.7808l3.0738,3.0742,7.8359-2.021.1665-.8789.5962-.1484v-1.2476Z" stroke="#000" stroke-linecap="round" stroke-linejoin="round" stroke-width="2"/>
    <g>
      <g mask="url(#mask-2)">
        <g>
          <polygon points="20.3418 15.1187 20.0498 16.6616 12.2139 18.6826 9.1401 15.6084 9.1401 14.5762 20.3418 15.1187" fill="gray" fill-rule="evenodd"/>
          <polygon points="12.1973 19.1514 12.1973 17.2427 8.8242 13.9668 8.751 15.6084 12.1973 19.1514" fill="url(#New_Gradient_162)" fill-rule="evenodd"/>
        </g>
      </g>
      <g mask="url(#mask-3)">
        <g>
          <path d="M9.0088,12.5234v2.1729l3.1064,3.1055,8.6973-2.1675v-1.2476c-1.2183-2.687-3.3496-4.0073-3.3496-4.0073l-8.4541,2.144Z" fill="url(#New_Gradient_161)" fill-rule="evenodd"/>
          <path d="M8.7754,12.314s1.9521,1.603,3.7305,4.3877v1.7192l-3.7549-3.9058.0244-2.2011Z" fill="#e5e5e5" fill-rule="evenodd"/>
          <polygon points="12.1279 18.312 12.1279 16.2559 20.8892 14.1299 20.9619 16.0146 12.1279 18.312" fill="#b2b2b2" fill-rule="evenodd"/>
          <polygon points="16.4961 9.7061 17.4951 12.0879 16.4961 12.5498 16.0493 9.8521 16.4961 9.7061" fill="#4c4c4c" fill-rule="evenodd"/>
        </g>
      </g>
      <g mask="url(#mask-4)">
        <g>
          <polygon points="16.6714 11.9126 12.4351 13.7046 10.687 12.6714 10.2344 10.3945 16.1079 8.877 16.6714 11.9126" fill="url(#New_Gradient_157)" fill-rule="evenodd"/>
          <polyline points="10.8418 12.7935 10.3691 10.4355 16.3647 8.9385" fill="none" stroke="#ccc" stroke-miterlimit="3.8637" stroke-width="1.0431"/>
        </g>
      </g>
      <polygon points="16.6484 13.0918 12.5195 13.562 11.3462 13.0254 10.6533 9.1357 15.6333 7.8096 16.6484 13.0918" fill="url(#New_Gradient_156)" fill-rule="evenodd"/>
      <path d="M16.4829,10.6382c.5317.8428.5176,1.5552.5176,1.5552,0,0-1.4331-.1739-4.4063,1.0293-1.1543-.5625-2.185-1.0801-2.185-1.0801l-.5069.1455c2.4722,1.3784,3.9854,2.2402,3.9854,2.2402,0,0,.7529.1201,2.3896-.2739,1.4629-.3516,1.9966-.7163,1.9966-.7163,0,0,.065-.4229-.5693-1.69-.5181-1.0322-.8384-1.311-.8384-1.311l-.3833.1011Z" fill="url(#New_Gradient_155)" fill-rule="evenodd"/>
      <path d="M9.8794,12.2881c.0161.4204.5542,1.2778,1.1797,2.0747.772.9868,1.2436,1.2656,1.5849,1.2427l7.0474-1.7676c.5176-.3755-1.043-2.4785-.9556-2.4312,1.3013,1.2779,2.1265,2.9561,2.0152,3.0044l-8.6074,2.1485s-.4732-.9942-1.3926-2.2198c-.9097-1.2138-1.7324-1.831-1.7324-1.831l.8608-.2207Z" fill="url(#New_Gradient_154)"/>
      <path d="M12.2549,15.2944c0-.1469.1592-.27.3559-.2719.1983-.003.3575.1152.3575.2631,0,.1475-.1592.2691-.3575.2725-.1967.002-.3559-.1157-.3559-.2637Z" fill="url(#New_Gradient_153)" fill-rule="evenodd"/>
      <path d="M13.1304,15.0835c0-.148.1582-.27.3564-.272.1978-.0024.357.1143.357.2617,0,.1485-.1592.271-.357.273-.1982.0024-.3564-.1148-.3564-.2627Z" fill="url(#New_Gradient_152)" fill-rule="evenodd"/>
      <path d="M9.2017,12.5547s.4589.396,1.0688,1.0869c.5967.6738,1.3379,1.6304,1.939,2.7739l8.4145-2.0683c.1372-.0332.188.1718.0508.205l-8.4961,2.0889c-.0376.0093-.1006-.019-.1186-.0532-.6792-1.3174-1.857-2.8872-2.9971-3.8726-.1065-.0932.0317-.2529.1387-.1606Z" fill="url(#New_Gradient_151)"/>
      <line x1="12.1294" y1="16.5879" x2="12.1294" y2="17.6187" fill="none" stroke="#fff" stroke-linecap="round" stroke-miterlimit="3.8637" stroke-width=".75"/>
      <path d="M16.5117,12.3638s.4307-.0244.7373-.0122c0,0-.1836-.9453-.5156-1.5479l.1475-.0356s.7734,1.1416,1.1411,2.3818c0,0-.3301-.3311-.6138-.4912-.2817-.1602-.8965-.2949-.8965-.2949Z" fill="url(#New_Gradient_150)" fill-rule="evenodd"/>
      <path d="M12.7676,13.4258c.1294-.0562.747-.3242,1.5083-.541,0,0,.5718-.1656,1.5498.3559.7998.4278,2.102.1953,2.102.1953,0,0-1.8042.7461-3.5327.8413l-.4438.0347c-1.6856-.9267-3.6509-1.958-3.6509-1.958l.1909-.0532s1.0659.5097,2.2764,1.125Z" fill="url(#New_Gradient_149)"/>
    </g>
  </g>
</svg>