<?xml version='1.0' encoding='UTF-8'?>
<svg xmlns="http://www.w3.org/2000/svg" xmlns:xlink="http://www.w3.org/1999/xlink" width="48" height="48" viewBox="0 0 48 48">
  <defs>
    <mask id="mask" x="6.565895" y="5" width="35.434105" height="40.3848086" maskUnits="userSpaceOnUse">
      <path d="M25.46,43.4297086l-17.894105-4.4609999L15.7865948,6l25.2134052,6.2832094-6.4136057,25.6493994c-.8676,3.4853913-5.7299999,6.3437998-9.1263943,5.4970999Z" fill="#fff" fill-rule="evenodd" stroke="#fff" stroke-linecap="round" stroke-linejoin="round" stroke-width="2"/>
    </mask>
    <linearGradient id="New_Gradient_399" data-name="New Gradient 399" x1="14.9174763" y1="6.4238974" x2="33.3641256" y2="44.2451335" gradientUnits="userSpaceOnUse">
      <stop offset="0" stop-color="#e5e5e5"/>
      <stop offset="1" stop-color="#fff"/>
    </linearGradient>
    <radialGradient id="New_Gradient_400" data-name="New Gradient 400" cx="71.1855584" cy="45.9156428" fx="71.1855584" fy="45.9156428" r="8.8646637" gradientTransform="translate(-31.2352 -26.7029) rotate(13.9915205) skewX(-.0111829)" gradientUnits="userSpaceOnUse">
      <stop offset="0" stop-color="#fff"/>
      <stop offset="1" stop-color="#ccc"/>
    </radialGradient>
    <mask id="mask-1" x="7.565895" y="6" width="33.434105" height="39.3848086" maskUnits="userSpaceOnUse">
      <path d="M25.46,43.4297086l-17.894105-4.4609999L15.7865948,6l25.2134052,6.2832094-6.4136057,25.6493994c-.8676,3.4853913-5.7299999,6.3437998-9.1263943,5.4970999Z" fill="#fff" fill-rule="evenodd"/>
    </mask>
    <linearGradient id="New_Gradient_401" data-name="New Gradient 401" x1="14.9174763" y1="6.4238974" x2="33.3641256" y2="44.2451335" gradientUnits="userSpaceOnUse">
      <stop offset="0" stop-color="#e5e5e5"/>
      <stop offset=".286514" stop-color="#f2f2f2"/>
      <stop offset=".646072" stop-color="#fff"/>
      <stop offset="1" stop-color="#fff"/>
    </linearGradient>
    <radialGradient id="New_Gradient_402" data-name="New Gradient 402" cx="71.1855584" cy="45.9156428" fx="71.1855584" fy="45.9156428" r="8.8646637" gradientTransform="translate(-31.2352 -26.7029) rotate(13.9915205) skewX(-.0111829)" gradientUnits="userSpaceOnUse">
      <stop offset="0" stop-color="#e5e5e5"/>
      <stop offset=".331467" stop-color="#e5e5e5"/>
      <stop offset="1" stop-color="#999"/>
    </radialGradient>
    <radialGradient id="radial-gradient" cx="103.8763676" cy="-88.7330322" fx="103.8763676" fy="-88.7330322" r="14.9595557" gradientTransform="translate(-131.3122 144.4816) scale(1.4871)" gradientUnits="userSpaceOnUse">
      <stop offset="0" stop-color="#fff"/>
      <stop offset=".0148633" stop-color="#f1f7fe"/>
      <stop offset=".0801777" stop-color="#badafb"/>
      <stop offset=".1438424" stop-color="#8dc2f9"/>
      <stop offset=".2044479" stop-color="#69aff8"/>
      <stop offset=".2612008" stop-color="#50a2f6"/>
      <stop offset=".312615" stop-color="#4199f6"/>
      <stop offset=".353932" stop-color="#3c97f6"/>
      <stop offset=".5755021" stop-color="#3b94f1"/>
      <stop offset=".8388609" stop-color="#3a8de2"/>
      <stop offset="1" stop-color="#3a88d6"/>
    </radialGradient>
    <mask id="mask-2" x="6" y="15" width="23.1527944" height="13" maskUnits="userSpaceOnUse">
      <rect x="6" y="15" width="22" height="11.801809" fill="#fff"/>
    </mask>
    <radialGradient id="radial-gradient-2" cx="3.7975938" cy="23.2376879" fx="3.7975938" fy="23.2376879" r="29.8910132" gradientTransform="translate(19.4176824 15.2868819) scale(.9142)" gradientUnits="userSpaceOnUse"><stop offset="0" stop-color="#fff"/><stop offset=".0148633" stop-color="#f1f7fe"/><stop offset=".0801777" stop-color="#badafb"/><stop offset=".1438424" stop-color="#8dc2f9"/><stop offset=".2044479" stop-color="#69aff8"/><stop offset=".2612008" stop-color="#50a2f6"/><stop offset=".312615" stop-color="#4199f6"/><stop offset=".353932" stop-color="#3c97f6"/><stop offset=".5755021" stop-color="#3b94f1"/><stop offset=".8388609" stop-color="#3a8de2"/><stop offset="1" stop-color="#3a88d6"/></radialGradient>
  </defs>
  <g id="Layer_4" data-name="Layer 4">
    <g>
      <g mask="url(#mask)">
        <g>
          <path d="M25.46,43.4297086l-17.894105-4.4609999L15.7865948,6l25.2134052,6.2832094-6.4136057,25.6493994c-.8676,3.4853913-5.7299999,6.3437998-9.1263943,5.4970999Z" fill="url(#New_Gradient_399)" fill-rule="evenodd"/>
          <path d="M24.2645945,43.2617086s4.2187999.8809,5.3759999-3.7577999c4.3046999,1.0732,5.2748999-2.6719087,5.2748999-2.6719087l-2.1332999,8.5528086-8.5175998-2.1230999Z" fill="url(#New_Gradient_400)" fill-rule="evenodd"/>
          <path d="M25.46,43.4297086l-17.894105-4.4609999L15.7865948,6l25.2134052,6.2832094-6.4136057,25.6493994c-.8676,3.4853913-5.7299999,6.3437998-9.1263943,5.4970999Z" fill="none" fill-rule="evenodd" stroke="#000" stroke-linecap="round" stroke-linejoin="round" stroke-width="2"/>
        </g>
      </g>
      <g mask="url(#mask-1)">
        <g>
          <path d="M25.46,43.4297086l-17.894105-4.4609999L15.7865948,6l25.2134052,6.2832094-6.4136057,25.6493994c-.8676,3.4853913-5.7299999,6.3437998-9.1263943,5.4970999Z" fill="url(#New_Gradient_401)" fill-rule="evenodd"/>
          <path d="M24.2645945,43.2617086s4.2187999.8809,5.3759999-3.7577999c4.3046999,1.0732,5.2748999-2.6719087,5.2748999-2.6719087l-2.1332999,8.5528086-8.5175998-2.1230999Z" fill="url(#New_Gradient_402)" fill-rule="evenodd"/>
        </g>
      </g>
    </g>
  </g>
  <g id="Layer_5" data-name="Layer 5">
    <g>
      <path d="M13.1942948,29.519509c6.3901998,1.5918,12.7783997,3.187491,19.1708995,4.7812999" fill="none" stroke="#ccc" stroke-linecap="round" stroke-linejoin="round" stroke-width="1.0502"/>
      <path d="M17.3036947,13.0381094c6.3891998,1.5918,12.7783053,3.1864999,19.1708995,4.7811999" fill="none" stroke="#ccc" stroke-linecap="round" stroke-linejoin="round" stroke-width="1.0502"/>
      <path d="M15.6601948,19.6309092c6.3895998,1.5908,12.7782997,3.1874999,19.1703995,4.7801999" fill="none" stroke="#ccc" stroke-linecap="round" stroke-linejoin="round" stroke-width="1.0502"/>
      <path d="M16.4818947,16.334c6.3896998,1.5918092,12.7773997,3.1875092,19.1703995,4.7812092" fill="none" stroke="#ccc" stroke-linecap="round" stroke-linejoin="round" stroke-width="1.0502"/>
      <path d="M14.0160948,26.222709c6.3896998,1.5918,12.7777997,3.1874999,19.1709052,4.7811999" fill="none" stroke="#ccc" stroke-linecap="round" stroke-linejoin="round" stroke-width="1.0502"/>
      <path d="M14.8378948,22.9258091c6.3895998,1.5928,12.7782997,3.1884999,19.1703995,4.7821909" fill="none" stroke="#ccc" stroke-linecap="round" stroke-linejoin="round" stroke-width="1.0502"/>
    </g>
  </g>
  <g id="Layer_1" data-name="Layer 1">
    <g>
      <path d="M31.0800944,2.6602096c-.7105-.1797-1.4419.2324-2.1747999.5253-.9278.3692-1.4556.0664904-2.2729999-.0898l.0904-.2891c.1811-.5722-.5874-.6777-.7671-.1054l-2.8242999,8.9481998c-.7431-.8955-2.1522946-1.1416-3.3910999-.7256-1.0405.3457-2.0716999,1.3907-1.6723,2.5175999.5918,1.6641,5.0643999,2.3046999,5.4418999-.543.0327-.0488.0605-.1015.0796-.1621l1.6469-5.2206999c.3545,1.3721,1.8667055.1475,2.7114999-.5156095.9306-.7323905,2.0932056-1.7206904,3.1219999-1.3515904.1157.0411.6021.4161.7534.25.2081-.2187.1358057-.833.1294-1.0547-.0254-.7382-.1347-1.9950999-.8725-2.1834999" fill="#d68100" fill-rule="evenodd" stroke="#000" stroke-width="1.5"/>
      <path d="M31.0800944,2.6602096c-.7105-.1797-1.4419.2324-2.1747999.5253-.9278.3692-1.4556.0664904-2.2729999-.0898l.0904-.2891c.1811-.5722-.5874-.6777-.7671-.1054l-2.8242999,8.9481998c-.7431-.8955-2.1522946-1.1416-3.3910999-.7256-1.0405.3457-2.0716999,1.3907-1.6723,2.5175999.5918,1.6641,5.0643999,2.3046999,5.4418999-.543.0327-.0488.0605-.1015.0796-.1621l1.6469-5.2206999c.3545,1.3721,1.8667055.1475,2.7114999-.5156095.9306-.7323905,2.0932056-1.7206904,3.1219999-1.3515904.1157.0411.6021.4161.7534.25.2081-.2187.1358057-.833.1294-1.0547-.0254-.7382-.1347-1.9950999-.8725-2.1834999" fill="url(#radial-gradient)" fill-rule="evenodd"/>
    </g>
  </g>
  <g id="labels">
    <g opacity=".85">
      <rect x="6" y="15" width="22" height="11.801809" fill="#032c87" stroke="#1459a5" stroke-width="2"/>
      <g mask="url(#mask-2)">
        <g>
          <rect x="6" y="15" width="22" height="11.801809" fill="#fff"/>
          <rect x="7.154295" y="16.1699093" width="21.9984994" height="11.8300907" fill="#d8eafd"/>
        </g>
      </g>
      <g>
        <path d="M13.5219727,22.3769531l-.5776367,1.8125h-.7475586l1.8950195-5.7617188h.8686523l1.902832,5.7617188h-.7675781l-.5976562-1.8125h-1.9760742ZM15.3481445,21.8017578l-.5532227-1.6621094c-.1108398-.3701172-.2036133-.7207031-.2788086-1.0517578h-.0283203c-.0322266.1669922-.0703125.3349609-.1132812.5048828-.0512695.1777344-.1035156.3574219-.1577148.5390625l-.5454102,1.6699219h1.6767578Z"/>
        <path d="M18.3286133,18.4277344v3.4257812c.0273438,1.2373047.4604492,1.8476562,1.2998047,1.8310547.8852539.0117188,1.3388672-.5996094,1.3603516-1.8310547v-3.4257812h.7255859v3.3691406c-.0053711.8710938-.203125,1.5058594-.5942383,1.9042969-.390625.3896484-.8959961.5839844-1.515625.5839844-.5795898,0-1.0541992-.1884766-1.4233398-.5673828-.3798828-.3759766-.5727539-1.0078125-.578125-1.8955078v-3.3945312h.7255859Z"/>
      </g>
    </g>
  </g>
  <g id="Layer_3" data-name="Layer 3">
    <g>
      <path d="M33.7963943,27.058609c.0815-.2588-.0527-.4844-.2808-.4902-.0927-.0625-.2461-.1075-.48-.1407l-3.4120999-.468709-.7192-.100591-3.4105999-.4678c-.2369-.0342-.4078-.0293-.5303.002-.211-.0645-.48.1123-.5615.375l-2.7934999,8.8514998c-.7529-.9082-2.2025999-1.1464-3.4545999-.6836-.9624.3544912-1.8955,1.3213-1.5806,2.3769999.336,1.1309,1.6265,1.5557,2.7211999,1.498.9659-.0468,2.5107999-.622,2.6884999-1.956.0337-.0479.0591054-.1006.0791054-.1592l1.8461945-5.8573999c.0532.0117.1104.0215.1729.0293l3.4085999.4687.7207.0996,3.4096999.4678c.0591.0088.1133.0146911.1621.0186l-1.5385,4.8846999c-.752-.9082-2.2016944-1.1474-3.4545999-.6836088-.9615.3536088-1.8946,1.3223088-1.5790945,2.379.3338945,1.1289087,1.6253945,1.5527087,2.7196944,1.498.9678-.0487913,2.5106999-.626,2.6864999-1.958.0357-.0487912.061-.1024912.0811-.1601912l3.0990999-9.8231998M32.1488943,29.234409l-3.4105999-.4698-.7217-.098609-3.4081999-.468691c-.0645-.0078-.1206-.0147-.1758-.0176l.3623-1.1485c.0508.009791.1084.0196.1719.0293l3.4096999.4678.7207.0996,3.4090999.4707c.0582.0069.1133.0127.1641.0157l-.3628,1.1464c-.0488-.010709-.1011-.0195-.1587-.0263" fill="#d68100" fill-rule="evenodd" stroke="#000" stroke-width="1.5"/>
      <path d="M33.7963943,27.058609c.0815-.2588-.0527-.4844-.2808-.4902-.0927-.0625-.2461-.1075-.48-.1407l-3.4120999-.468709-.7192-.100591-3.4105999-.4678c-.2369-.0342-.4078-.0293-.5303.002-.211-.0645-.48.1123-.5615.375l-2.7934999,8.8514998c-.7529-.9082-2.2025999-1.1464-3.4545999-.6836-.9624.3544912-1.8955,1.3213-1.5806,2.3769999.336,1.1309,1.6265,1.5557,2.7211999,1.498.9659-.0468,2.5107999-.622,2.6884999-1.956.0337-.0479.0591054-.1006.0791054-.1592l1.8461945-5.8573999c.0532.0117.1104.0215.1729.0293l3.4085999.4687.7207.0996,3.4096999.4678c.0591.0088.1133.0146911.1621.0186l-1.5385,4.8846999c-.752-.9082-2.2016944-1.1474-3.4545999-.6836088-.9615.3536088-1.8946,1.3223088-1.5790945,2.379.3338945,1.1289087,1.6253945,1.5527087,2.7196944,1.498.9678-.0487913,2.5106999-.626,2.6864999-1.958.0357-.0487912.061-.1024912.0811-.1601912l3.0990999-9.8231998M32.1488943,29.234409l-3.4105999-.4698-.7217-.098609-3.4081999-.468691c-.0645-.0078-.1206-.0147-.1758-.0176l.3623-1.1485c.0508.009791.1084.0196.1719.0293l3.4096999.4678.7207.0996,3.4090999.4707c.0582.0069.1133.0127.1641.0157l-.3628,1.1464c-.0488-.010709-.1011-.0195-.1587-.0263" fill="url(#radial-gradient-2)" fill-rule="evenodd"/>
    </g>
  </g>
</svg>