<?xml version='1.0' encoding='UTF-8'?>
<svg xmlns="http://www.w3.org/2000/svg" xmlns:xlink="http://www.w3.org/1999/xlink" width="48" height="48" viewBox="0 0 48 48">
  <defs>
    <mask id="mask" x="6.5658974" y="5" width="35.4341026" height="40.3848086" maskUnits="userSpaceOnUse">
      <path d="M25.46,43.4297086l-17.8941026-4.4609999L15.7865972,6l25.2134028,6.2832094-6.4136033,25.6493994c-.8676,3.4853913-5.7299999,6.3437998-9.1263967,5.4970999Z" fill="#fff" fill-rule="evenodd" stroke="#fff" stroke-linecap="round" stroke-linejoin="round" stroke-width="2"/>
    </mask>
    <linearGradient id="New_Gradient_399" data-name="New Gradient 399" x1="14.9174777" y1="6.4238979" x2="33.364127" y2="44.2451338" gradientUnits="userSpaceOnUse">
      <stop offset="0" stop-color="#e5e5e5"/>
      <stop offset="1" stop-color="#fff"/>
    </linearGradient>
    <radialGradient id="New_Gradient_400" data-name="New Gradient 400" cx="73.5042205" cy="69.2582978" fx="73.5042205" fy="69.2582978" r="8.8646637" gradientTransform="translate(-27.856 -49.7813) rotate(13.9915205) skewX(-.0111829)" gradientUnits="userSpaceOnUse">
      <stop offset="0" stop-color="#fff"/>
      <stop offset="1" stop-color="#ccc"/>
    </radialGradient>
    <mask id="mask-1" x="7.5658974" y="6" width="33.4341026" height="39.3848086" maskUnits="userSpaceOnUse">
      <path d="M25.46,43.4297086l-17.8941026-4.4609999L15.7865972,6l25.2134028,6.2832094-6.4136033,25.6493994c-.8676,3.4853913-5.7299999,6.3437998-9.1263967,5.4970999Z" fill="#fff" fill-rule="evenodd"/>
    </mask>
    <linearGradient id="New_Gradient_401" data-name="New Gradient 401" x1="14.9174777" y1="6.4238979" x2="33.364127" y2="44.2451338" gradientUnits="userSpaceOnUse">
      <stop offset="0" stop-color="#e5e5e5"/>
      <stop offset=".286514" stop-color="#f2f2f2"/>
      <stop offset=".646072" stop-color="#fff"/>
      <stop offset="1" stop-color="#fff"/>
    </linearGradient>
    <radialGradient id="New_Gradient_402" data-name="New Gradient 402" cx="73.5042205" cy="69.2582978" fx="73.5042205" fy="69.2582978" r="8.8646637" gradientTransform="translate(-27.856 -49.7813) rotate(13.9915205) skewX(-.0111829)" gradientUnits="userSpaceOnUse">
      <stop offset="0" stop-color="#e5e5e5"/>
      <stop offset=".331467" stop-color="#e5e5e5"/>
      <stop offset="1" stop-color="#999"/>
    </radialGradient>
    <radialGradient id="radial-gradient" cx="135.3211901" cy="-88.7113257" fx="135.3211901" fy="-88.7113257" r="14.9595546" gradientTransform="translate(-178.0738 144.4336) scale(1.4871)" gradientUnits="userSpaceOnUse">
      <stop offset="0" stop-color="#fff"/>
      <stop offset=".0148633" stop-color="#f1f7fe"/>
      <stop offset=".0801777" stop-color="#badafb"/>
      <stop offset=".1438424" stop-color="#8dc2f9"/>
      <stop offset=".2044479" stop-color="#69aff8"/>
      <stop offset=".2612008" stop-color="#50a2f6"/>
      <stop offset=".312615" stop-color="#4199f6"/>
      <stop offset=".353932" stop-color="#3c97f6"/>
      <stop offset=".5755021" stop-color="#3b94f1"/>
      <stop offset=".8388609" stop-color="#3a8de2"/>
      <stop offset="1" stop-color="#3a88d6"/>
    </radialGradient>
    <mask id="mask-2" x="6" y="15" width="23.1527968" height="13" maskUnits="userSpaceOnUse">
      <rect x="6" y="15" width="22" height="11.801809" fill="#fff"/>
    </mask>
    <radialGradient id="radial-gradient-2" cx="-5.2122482" cy="23.2376879" fx="-5.2122482" fy="23.2376879" r="29.8910132" gradientTransform="translate(27.6544824 15.2868819) scale(.9142)" gradientUnits="userSpaceOnUse"><stop offset="0" stop-color="#fff"/><stop offset=".0148633" stop-color="#f1f7fe"/><stop offset=".0801777" stop-color="#badafb"/><stop offset=".1438424" stop-color="#8dc2f9"/><stop offset=".2044479" stop-color="#69aff8"/><stop offset=".2612008" stop-color="#50a2f6"/><stop offset=".312615" stop-color="#4199f6"/><stop offset=".353932" stop-color="#3c97f6"/><stop offset=".5755021" stop-color="#3b94f1"/><stop offset=".8388609" stop-color="#3a8de2"/><stop offset="1" stop-color="#3a88d6"/></radialGradient>
  </defs>
  <g id="Layer_4" data-name="Layer 4">
    <g>
      <g mask="url(#mask)">
        <g>
          <path d="M25.46,43.4297086l-17.8941026-4.4609999L15.7865972,6l25.2134028,6.2832094-6.4136033,25.6493994c-.8676,3.4853913-5.7299999,6.3437998-9.1263967,5.4970999Z" fill="url(#New_Gradient_399)" fill-rule="evenodd"/>
          <path d="M24.264597,43.2617086s4.2187999.8809,5.3759999-3.7577999c4.3046999,1.0732,5.2748999-2.6719087,5.2748999-2.6719087l-2.1332999,8.5528086-8.5175998-2.1230999Z" fill="url(#New_Gradient_400)" fill-rule="evenodd"/>
          <path d="M25.46,43.4297086l-17.8941026-4.4609999L15.7865972,6l25.2134028,6.2832094-6.4136033,25.6493994c-.8676,3.4853913-5.7299999,6.3437998-9.1263967,5.4970999Z" fill="none" fill-rule="evenodd" stroke="#000" stroke-linecap="round" stroke-linejoin="round" stroke-width="2"/>
        </g>
      </g>
      <g mask="url(#mask-1)">
        <g>
          <path d="M25.46,43.4297086l-17.8941026-4.4609999L15.7865972,6l25.2134028,6.2832094-6.4136033,25.6493994c-.8676,3.4853913-5.7299999,6.3437998-9.1263967,5.4970999Z" fill="url(#New_Gradient_401)" fill-rule="evenodd"/>
          <path d="M24.264597,43.2617086s4.2187999.8809,5.3759999-3.7577999c4.3046999,1.0732,5.2748999-2.6719087,5.2748999-2.6719087l-2.1332999,8.5528086-8.5175998-2.1230999Z" fill="url(#New_Gradient_402)" fill-rule="evenodd"/>
        </g>
      </g>
    </g>
  </g>
  <g id="Layer_5" data-name="Layer 5">
    <g>
      <path d="M13.1942972,29.519509c6.3901998,1.5918,12.7783997,3.187491,19.1708995,4.7812999" fill="none" stroke="#ccc" stroke-linecap="round" stroke-linejoin="round" stroke-width="1.0502"/>
      <path d="M17.3036971,13.0381094c6.3891998,1.5918,12.7783029,3.1864999,19.1708995,4.7811999" fill="none" stroke="#ccc" stroke-linecap="round" stroke-linejoin="round" stroke-width="1.0502"/>
      <path d="M15.6601972,19.6309092c6.3895998,1.5908,12.7782997,3.1874999,19.1703995,4.7801999" fill="none" stroke="#ccc" stroke-linecap="round" stroke-linejoin="round" stroke-width="1.0502"/>
      <path d="M16.4818972,16.334c6.3896998,1.5918092,12.7773997,3.1875092,19.1703995,4.7812092" fill="none" stroke="#ccc" stroke-linecap="round" stroke-linejoin="round" stroke-width="1.0502"/>
      <path d="M14.0160972,26.222709c6.3896998,1.5918,12.7777997,3.1874999,19.1709028,4.7811999" fill="none" stroke="#ccc" stroke-linecap="round" stroke-linejoin="round" stroke-width="1.0502"/>
      <path d="M14.8378972,22.9258091c6.3895998,1.5928,12.7782997,3.1884999,19.1703995,4.7821909" fill="none" stroke="#ccc" stroke-linecap="round" stroke-linejoin="round" stroke-width="1.0502"/>
    </g>
  </g>
  <g id="Layer_1" data-name="Layer 1">
    <g>
      <path d="M31.0800968,2.6602096c-.7105-.1797-1.4419.2324-2.1747999.5253-.9278.3692-1.4556.0664904-2.2729999-.0898l.0904-.2891c.1811-.5722-.5874-.6777-.7671-.1054l-2.8242999,8.9481998c-.7431-.8955-2.152297-1.1416-3.3910999-.7256-1.0405.3457-2.0716999,1.3907-1.6723,2.5175999.5918,1.6641,5.0643999,2.3046999,5.4418999-.543.0327-.0488.0605-.1015.0796-.1621l1.6469-5.2206999c.3545,1.3721,1.8667031.1475,2.7114999-.5156095.9306-.7323905,2.0932031-1.7206904,3.1219999-1.3515904.1157.0411.6021.4161.7534.25.2081-.2187.1358032-.833.1294-1.0547-.0254-.7382-.1347-1.9950999-.8725-2.1834999" fill="#d68100" fill-rule="evenodd" stroke="#000" stroke-width="1.5"/>
      <path d="M31.0800968,2.6602096c-.7105-.1797-1.4419.2324-2.1747999.5253-.9278.3692-1.4556.0664904-2.2729999-.0898l.0904-.2891c.1811-.5722-.5874-.6777-.7671-.1054l-2.8242999,8.9481998c-.7431-.8955-2.152297-1.1416-3.3910999-.7256-1.0405.3457-2.0716999,1.3907-1.6723,2.5175999.5918,1.6641,5.0643999,2.3046999,5.4418999-.543.0327-.0488.0605-.1015.0796-.1621l1.6469-5.2206999c.3545,1.3721,1.8667031.1475,2.7114999-.5156095.9306-.7323905,2.0932031-1.7206904,3.1219999-1.3515904.1157.0411.6021.4161.7534.25.2081-.2187.1358032-.833.1294-1.0547-.0254-.7382-.1347-1.9950999-.8725-2.1834999" fill="url(#radial-gradient)" fill-rule="evenodd"/>
    </g>
  </g>
  <g id="labels">
    <g opacity=".85">
      <rect x="6" y="15" width="22" height="11.801809" fill="#032c87" stroke="#1459a5" stroke-width="2"/>
      <g mask="url(#mask-2)">
        <g>
          <rect x="6" y="15" width="22" height="11.801809" fill="#fff"/>
          <rect x="7.1542974" y="16.1699093" width="21.9984994" height="11.8300907" fill="#d8eafd"/>
        </g>
      </g>
      <g>
        <path d="M14.6767578,21.6621094c-.0566406-.8808594-.0878906-1.7109375-.0932617-2.4912109h-.0161133c-.190918.6679688-.425293,1.3974609-.703125,2.1884766l-.9858398,2.7978516h-.5454102l-.9091797-2.7480469c-.2641602-.8125-.4770508-1.5585938-.6386719-2.2382812h-.0161133c-.0161133.7685547-.0512695,1.6171875-.1049805,2.546875l-.1494141,2.4716797h-.6870117l.3876953-5.7617188h.9174805l.9536133,2.7871094c.2319336.7021484.4189453,1.3496094.5615234,1.9433594h.0161133c.1484375-.5771484.3476562-1.2246094.5981445-1.9433594l.9902344-2.7871094h.9213867l.347168,5.7617188h-.7109375l-.1333008-2.5273438Z"/>
        <path d="M16.8496094,18.5029297c.3481445-.0722656.8095703-.1113281,1.3842773-.1162109.7119141.0048828,1.234375.1640625,1.565918.4755859.3208008.28125.4853516.6835938.4931641,1.2070312,0,.5175781-.1469727.9277344-.440918,1.2314453-.409668.4199219-.9790039.6298828-1.706543.6298828-.2158203.0058594-.4086914-.0107422-.5786133-.0498047v2.3085938h-.7172852v-5.6865234ZM17.5668945,21.2802734c.159668.0390625.3583984.0585938.5966797.0585938.9194336-.0058594,1.3876953-.4150391,1.4038086-1.2285156,0-.3886719-.1191406-.6777344-.3569336-.8671875-.2382812-.1816406-.5585938-.2724609-.9619141-.2724609-.3217773.0058594-.5493164.0253906-.6816406.0585938v2.2509766Z"/>
        <path d="M21.3198242,23.3408203c.1162109.0703125.2792969.1416016.4897461.2138672.2104492.0810547.4448242.1240234.7041016.1298828.2314453,0,.4267578-.0361328.5854492-.1083984.1616211-.0644531.2871094-.1513672.3759766-.2607422.1865234-.2285156.2714844-.4667969.2543945-.7119141-.0161133-.3945312-.1586914-.6806641-.4282227-.859375-.2719727-.1708984-.5927734-.2558594-.9619141-.2558594h-.4174805v-.5585938h.4174805c.2871094,0,.5537109-.0791016.800293-.2363281.1152344-.078125.2099609-.1777344.2851562-.2978516.0722656-.1152344.1088867-.2539062.1088867-.4169922,0-.2353516-.0717773-.4326172-.2148438-.5927734-.1508789-.1601562-.3935547-.2421875-.7285156-.2480469-.2158203,0-.4179688.0361328-.6069336.109375-.1943359.0810547-.3520508.1679688-.4736328.2607422l-.1982422-.546875c.1538086-.1181641.355957-.2167969.6064453-.296875.2480469-.0791016.5175781-.1220703.809082-.1269531.5307617.0048828.9233398.140625,1.1762695.4042969.2426758.2617188.3642578.5693359.3642578.9228516-.0053711.6044922-.3369141,1.0419922-.9936523,1.3154297v.0166016c.34375.0634766.6298828.21875.8574219.4628906.2280273.2392578.3442383.5585938.3496094.9560547,0,.4570312-.1640625.8447266-.4926758,1.1650391-.331543.3232422-.8203125.4912109-1.4667969.5048828-.3046875-.0078125-.5786133-.0507812-.8212891-.1269531-.2480469-.0742188-.4428711-.15625-.5849609-.2470703l.2045898-.5703125Z"/>
      </g>
    </g>
  </g>
  <g id="Layer_3" data-name="Layer 3">
    <g>
      <path d="M33.7963967,27.058609c.0815-.2588-.0527-.4844-.2808-.4902-.0927-.0625-.2461-.1075-.48-.1407l-3.4120999-.468709-.7192-.100591-3.4105999-.4678c-.2369-.0342-.4078-.0293-.5303.002-.211-.0645-.48.1123-.5615.375l-2.7934999,8.8514998c-.7529-.9082-2.2025999-1.1464-3.4545999-.6836-.9624.3544912-1.8955,1.3213-1.5806,2.3769999.336,1.1309,1.6265,1.5557,2.7211999,1.498.9659-.0468,2.5107999-.622,2.6884999-1.956.0337-.0479.059103-.1006.079103-.1592l1.846197-5.8573999c.0532.0117.1104.0215.1729.0293l3.4085999.4687.7207.0996,3.4096999.4678c.0591.0088.1133.0146911.1621.0186l-1.5385,4.8846999c-.752-.9082-2.2016968-1.1474-3.4545999-.6836088-.9615.3536088-1.8946,1.3223088-1.5790969,2.379.3338969,1.1289087,1.6253969,1.5527087,2.7196969,1.498.9678-.0487913,2.5106999-.626,2.6864999-1.958.0357-.0487912.061-.1024912.0811-.1601912l3.0990999-9.8231998M32.1488968,29.234409l-3.4105999-.4698-.7217-.098609-3.4081999-.468691c-.0645-.0078-.1206-.0147-.1758-.0176l.3623-1.1485c.0508.009791.1084.0196.1719.0293l3.4096999.4678.7207.0996,3.4090999.4707c.0582.0069.1133.0127.1641.0157l-.3628,1.1464c-.0488-.010709-.1011-.0195-.1587-.0263" fill="#d68100" fill-rule="evenodd" stroke="#000" stroke-width="1.5"/>
      <path d="M33.7963967,27.058609c.0815-.2588-.0527-.4844-.2808-.4902-.0927-.0625-.2461-.1075-.48-.1407l-3.4120999-.468709-.7192-.100591-3.4105999-.4678c-.2369-.0342-.4078-.0293-.5303.002-.211-.0645-.48.1123-.5615.375l-2.7934999,8.8514998c-.7529-.9082-2.2025999-1.1464-3.4545999-.6836-.9624.3544912-1.8955,1.3213-1.5806,2.3769999.336,1.1309,1.6265,1.5557,2.7211999,1.498.9659-.0468,2.5107999-.622,2.6884999-1.956.0337-.0479.059103-.1006.079103-.1592l1.846197-5.8573999c.0532.0117.1104.0215.1729.0293l3.4085999.4687.7207.0996,3.4096999.4678c.0591.0088.1133.0146911.1621.0186l-1.5385,4.8846999c-.752-.9082-2.2016968-1.1474-3.4545999-.6836088-.9615.3536088-1.8946,1.3223088-1.5790969,2.379.3338969,1.1289087,1.6253969,1.5527087,2.7196969,1.498.9678-.0487913,2.5106999-.626,2.6864999-1.958.0357-.0487912.061-.1024912.0811-.1601912l3.0990999-9.8231998M32.1488968,29.234409l-3.4105999-.4698-.7217-.098609-3.4081999-.468691c-.0645-.0078-.1206-.0147-.1758-.0176l.3623-1.1485c.0508.009791.1084.0196.1719.0293l3.4096999.4678.7207.0996,3.4090999.4707c.0582.0069.1133.0127.1641.0157l-.3628,1.1464c-.0488-.010709-.1011-.0195-.1587-.0263" fill="url(#radial-gradient-2)" fill-rule="evenodd"/>
    </g>
  </g>
</svg>