<?xml version="1.0" encoding="UTF-8"?>
<svg xmlns="http://www.w3.org/2000/svg" width="48" height="48" xmlns:xlink="http://www.w3.org/1999/xlink" viewBox="0 0 48 48">
  <defs>
    <mask id="mask" x="6.5663937" y="5" width="35.4336063" height="40.3848134" maskUnits="userSpaceOnUse">
      <path d="M25.46,43.4297135l-17.8936063-4.4609999L15.7870935,6l25.2129065,6.2832142-6.4131069,25.6493994c-.8681,3.4853864-5.7304999,6.3437998-9.1268931,5.4970999Z" fill="#fff" fill-rule="evenodd" stroke="#fff" stroke-linecap="round" stroke-linejoin="round" stroke-width="2"/>
    </mask>
    <linearGradient id="New_Gradient_399" data-name="New Gradient 399" x1="14.9177717" y1="6.4239966" x2="33.3643279" y2="44.2450418" gradientUnits="userSpaceOnUse">
      <stop offset="0" stop-color="#e5e5e5"/>
      <stop offset="1" stop-color="#fff"/>
    </linearGradient>
    <radialGradient id="New_Gradient_400" data-name="New Gradient 400" cx="23.3020775" cy="38.8817547" fx="23.3020775" fy="38.8817547" r="8.8644026" gradientTransform="translate(13.2704 -8.4053) rotate(13.9915205) skewX(-.0111829)" gradientUnits="userSpaceOnUse">
      <stop offset="0" stop-color="#fff"/>
      <stop offset="1" stop-color="#ccc"/>
    </radialGradient>
    <mask id="mask-1" x="7.5663937" y="6" width="33.4336063" height="39.3848134" maskUnits="userSpaceOnUse">
      <path d="M25.46,43.4297135l-17.8936063-4.4609999L15.7870935,6l25.2129065,6.2832142-6.4131069,25.6493994c-.8681,3.4853864-5.7304999,6.3437998-9.1268931,5.4970999Z" fill="#fff" fill-rule="evenodd"/>
    </mask>
    <linearGradient id="New_Gradient_401" data-name="New Gradient 401" x1="14.9177717" y1="6.4239966" x2="33.3643279" y2="44.2450418" gradientUnits="userSpaceOnUse">
      <stop offset="0" stop-color="#e5e5e5"/>
      <stop offset=".286514" stop-color="#f2f2f2"/>
      <stop offset=".646072" stop-color="#fff"/>
      <stop offset="1" stop-color="#fff"/>
    </linearGradient>
    <radialGradient id="New_Gradient_402" data-name="New Gradient 402" cx="23.3020775" cy="38.8817547" fx="23.3020775" fy="38.8817547" r="8.8644026" gradientTransform="translate(13.2704 -8.4053) rotate(13.9915205) skewX(-.0111829)" gradientUnits="userSpaceOnUse">
      <stop offset="0" stop-color="#e5e5e5"/>
      <stop offset=".331467" stop-color="#e5e5e5"/>
      <stop offset="1" stop-color="#999"/>
    </radialGradient>
    <linearGradient id="linear-gradient" x1="21.3243243" y1="16.3431987" x2="37.1579658" y2="32.1768402" gradientUnits="userSpaceOnUse">
      <stop offset="0" stop-color="#fff"/>
      <stop offset=".0659634" stop-color="#e4ecf4"/>
      <stop offset=".2593088" stop-color="#9bb8d8"/>
      <stop offset=".432711" stop-color="#618fc2"/>
      <stop offset=".579883" stop-color="#3771b2"/>
      <stop offset=".6950611" stop-color="#1d5fa8"/>
      <stop offset=".764045" stop-color="#1459a5"/>
    </linearGradient>
  </defs>
  <g id="Layer_4" data-name="Layer 4">
    <g>
      <g mask="url(#mask)">
        <g>
          <path d="M25.46,43.4297135l-17.8936063-4.4609999L15.7870935,6l25.2129065,6.2832142-6.4131069,25.6493994c-.8681,3.4853864-5.7304999,6.3437998-9.1268931,5.4970999Z" fill="url(#New_Gradient_399)" fill-rule="evenodd"/>
          <path d="M24.2645933,43.2617135s4.2187999.8809,5.3759999-3.7577999c4.3046999,1.0732,5.2744068-2.6719136,5.2744068-2.6719136l-2.1328069,8.5528134-8.5175998-2.1230999Z" fill="url(#New_Gradient_400)" fill-rule="evenodd"/>
          <path d="M25.46,43.4297135l-17.8936063-4.4609999L15.7870935,6l25.2129065,6.2832142-6.4131069,25.6493994c-.8681,3.4853864-5.7304999,6.3437998-9.1268931,5.4970999Z" fill="none" fill-rule="evenodd" stroke="#000" stroke-linecap="round" stroke-linejoin="round" stroke-width="2"/>
        </g>
      </g>
      <g mask="url(#mask-1)">
        <g>
          <path d="M25.46,43.4297135l-17.8936063-4.4609999L15.7870935,6l25.2129065,6.2832142-6.4131069,25.6493994c-.8681,3.4853864-5.7304999,6.3437998-9.1268931,5.4970999Z" fill="url(#New_Gradient_401)" fill-rule="evenodd"/>
          <path d="M24.2645933,43.2617135s4.2187999.8809,5.3759999-3.7577999c4.3046999,1.0732,5.2744068-2.6719136,5.2744068-2.6719136l-2.1328069,8.5528134-8.5175998-2.1230999Z" fill="url(#New_Gradient_402)" fill-rule="evenodd"/>
        </g>
      </g>
    </g>
  </g>
  <g id="Layer_5" data-name="Layer 5">
    <g>
      <path d="M13.1942936,29.5195138c6.3897064,1.5918,12.7783997,3.1874862,19.1708995,4.7812999" fill="none" stroke="#ccc" stroke-linecap="round" stroke-linejoin="round" stroke-width="1.0502"/>
      <path d="M17.3036935,13.0381142c6.3896998,1.5918,12.7783065,3.1864999,19.1708995,4.7811999" fill="none" stroke="#ccc" stroke-linecap="round" stroke-linejoin="round" stroke-width="1.0502"/>
      <path d="M15.6601935,19.6309141c6.3895998,1.5908,12.7782997,3.1874999,19.1708995,4.7801999" fill="none" stroke="#ccc" stroke-linecap="round" stroke-linejoin="round" stroke-width="1.0502"/>
      <path d="M16.4823935,16.334c6.3886998,1.5918141,12.7773997,3.1875141,19.1698995,4.781214" fill="none" stroke="#ccc" stroke-linecap="round" stroke-linejoin="round" stroke-width="1.0502"/>
      <path d="M14.0155936,26.2227139c6.3906998,1.5918,12.7782997,3.1874999,19.1708995,4.7811999" fill="none" stroke="#ccc" stroke-linecap="round" stroke-linejoin="round" stroke-width="1.0502"/>
      <path d="M14.8378936,22.925814c6.3895998,1.5928,12.7782997,3.1884999,19.1708995,4.782186" fill="none" stroke="#ccc" stroke-linecap="round" stroke-linejoin="round" stroke-width="1.0502"/>
    </g>
    <g>
      <path d="M31.8847931,16.5107141c5.7392069,0,10.3920997,4.6518999,10.3920997,10.3930997,0,5.7397999-4.6528929,10.3930997-10.3920997,10.3925997-5.7407931-.0005-10.3940997-4.6542999-10.3940997-10.3954997,0-5.7402999,4.6533066-10.3905997,10.3940997-10.3901997Z" fill="url(#linear-gradient)" fill-rule="evenodd" stroke="#000"/>
      <path d="M33.6654931,31.0386138h1.2891c.4624069,0,.793.0853862.9868.2533862.1963.168.293.4492137.293.8379137,0,.3994-.1011.6855-.297393.8608-.198207.1752863-.524907.2622-.9824069.2617h-5.0961999c-.4463-.0004137-.7656-.0869-.959-.2622-.1943-.1753-.2886-.4619-.2886-.8613,0-.3887.0923-.6694.2798-.8374.1856-.168.5093-.2534.9678-.2534h1.3198v-4.8921138h-1.2601931c-.4102068,0-.7017068-.0844861-.8814068-.2558861-.1743-.1714-.2637-.4575-.2637-.8564,0-.3955.087-.6792.2569-.8482.1719-.1684.4658-.2524.8882068-.2519h3.1717931c.1861,0,.3287.0386.4283.1182.0971.0756.1474.1821.1474.3164v6.6703998ZM32.1156931,19.3965141c.5352,0,.8916.0932,1.0684.2822.1753.186.2632.6338.2632,1.3457,0,.683586-.0791,1.1035-.2378,1.2691-.1563.163-.5293.2456-1.1157.2456-.5713,0-.941-.0762-1.1055-.2295-.1646-.1548-.2451-.4615-.2451-.9258,0-.854.0815-1.4014.2505-1.635814.1699-.2328859.5429-.3514859,1.122-.3514859Z" fill="#1459a5" stroke="#144780" stroke-width="2"/>
      <path d="M33.6654931,31.0386138h1.2891c.4624069,0,.793.0853862.9868.2533862.1963.168.293.4492137.293.8379137,0,.3994-.1011.6855-.297393.8608-.198207.1752863-.524907.2622-.9824069.2617h-5.0961999c-.4463-.0004137-.7656-.0869-.959-.2622-.1943-.1753-.2886-.4619-.2886-.8613,0-.3887.0923-.6694.2798-.8374.1856-.168.5093-.2534.9678-.2534h1.3198v-4.8921138h-1.2601931c-.4102068,0-.7017068-.0844861-.8814068-.2558861-.1743-.1714-.2637-.4575-.2637-.8564,0-.3955.087-.6792.2569-.8482.1719-.1684.4658-.2524.8882068-.2519h3.1717931c.1861,0,.3287.0386.4283.1182.0971.0756.1474.1821.1474.3164v6.6703998ZM32.1156931,19.3965141c.5352,0,.8916.0932,1.0684.2822.1753.186.2632.6338.2632,1.3457,0,.683586-.0791,1.1035-.2378,1.2691-.1563.163-.5293.2456-1.1157.2456-.5713,0-.941-.0762-1.1055-.2295-.1646-.1548-.2451-.4615-.2451-.9258,0-.854.0815-1.4014.2505-1.635814.1699-.2328859.5429-.3514859,1.122-.3514859Z" fill="#fff"/>
    </g>
  </g>
</svg>