<?xml version='1.0' encoding='UTF-8'?>
<svg xmlns="http://www.w3.org/2000/svg" xmlns:xlink="http://www.w3.org/1999/xlink" width="48" height="48" viewBox="0 0 48 48">
  <defs>
    <mask id="mask" x="6.5663901" y="5" width="35.4336099" height="40.3848134" maskUnits="userSpaceOnUse">
      <path d="M25.46,43.4297135l-17.8936099-4.4609999L15.7870899,6l25.2129101,6.2832142-6.4131106,25.6493994c-.8681,3.4853864-5.7304999,6.3437998-9.1268894,5.4970999Z" fill="#fff" fill-rule="evenodd" stroke="#fff" stroke-linecap="round" stroke-linejoin="round" stroke-width="2"/>
    </mask>
    <linearGradient id="New_Gradient_399" data-name="New Gradient 399" x1="14.9177695" y1="6.4239959" x2="33.3643259" y2="44.2450413" gradientUnits="userSpaceOnUse">
      <stop offset="0" stop-color="#e5e5e5"/>
      <stop offset="1" stop-color="#fff"/>
    </linearGradient>
    <radialGradient id="New_Gradient_400" data-name="New Gradient 400" cx="19.8240842" cy="3.8677712" fx="19.8240842" fy="3.8677712" r="8.864403" gradientTransform="translate(8.2016 26.2123) rotate(13.9915205) skewX(-.0111829)" gradientUnits="userSpaceOnUse">
      <stop offset="0" stop-color="#fff"/>
      <stop offset="1" stop-color="#ccc"/>
    </radialGradient>
    <mask id="mask-1" x="7.5663901" y="6" width="33.4336099" height="39.3848134" maskUnits="userSpaceOnUse">
      <path d="M25.46,43.4297135l-17.8936099-4.4609999L15.7870899,6l25.2129101,6.2832142-6.4131106,25.6493994c-.8681,3.4853864-5.7304999,6.3437998-9.1268894,5.4970999Z" fill="#fff" fill-rule="evenodd"/>
    </mask>
    <linearGradient id="New_Gradient_401" data-name="New Gradient 401" x1="14.9177695" y1="6.4239959" x2="33.3643259" y2="44.2450413" gradientUnits="userSpaceOnUse">
      <stop offset="0" stop-color="#e5e5e5"/>
      <stop offset=".286514" stop-color="#f2f2f2"/>
      <stop offset=".646072" stop-color="#fff"/>
      <stop offset="1" stop-color="#fff"/>
    </linearGradient>
    <radialGradient id="New_Gradient_402" data-name="New Gradient 402" cx="19.8240842" cy="3.8677712" fx="19.8240842" fy="3.8677712" r="8.864403" gradientTransform="translate(8.2016 26.2123) rotate(13.9915205) skewX(-.0111829)" gradientUnits="userSpaceOnUse">
      <stop offset="0" stop-color="#e5e5e5"/>
      <stop offset=".331467" stop-color="#e5e5e5"/>
      <stop offset="1" stop-color="#999"/>
    </radialGradient>
    <mask id="mask-2" x="18.9823898" y="24.7716715" width="19.0176102" height="15.4060289" maskUnits="userSpaceOnUse">
      <path d="M28.4911896,36.0186136c3.7060999,0,7.0614998-.9439,9.5088104-2.4726999-.5874106-4.5692999-4.6162105-8.1083998-9.5088104-8.1083998s-8.9213998,3.5390999-9.5087998,8.1083998c2.4472999,1.5288,5.8027999,2.4726999,9.5087998,2.4726999Z" fill="#fff"/>
    </mask>
    <radialGradient id="radial-gradient" cx="37.5985716" cy="5.2420424" fx="37.5985716" fy="5.2420424" r="12.2124285" gradientTransform="translate(-10.4048159 23.9182834) scale(.9206)" gradientUnits="userSpaceOnUse">
      <stop offset="0" stop-color="#ff936a"/>
      <stop offset=".0734014" stop-color="#ff845f"/>
      <stop offset=".2143019" stop-color="#ff5d43"/>
      <stop offset=".4065987" stop-color="#ff1e16"/>
      <stop offset=".494382" stop-color="red"/>
      <stop offset="1" stop-color="#a70000"/>
    </radialGradient>
    <radialGradient id="radial-gradient-2" cx="17.8505398" cy="73.1113219" fx="17.8505398" fy="73.1113219" r="7.1844507" gradientTransform="translate(7.5854 -30.0581) rotate(-22.134553) scale(1.1497336 .8527532) skewX(-16.7881869)" gradientUnits="userSpaceOnUse">
      <stop offset="0" stop-color="#fff"/>
      <stop offset=".2672026" stop-color="#fdfeff"/>
      <stop offset=".3634512" stop-color="#f6fcff"/>
      <stop offset=".4320518" stop-color="#eaf8ff"/>
      <stop offset=".487495" stop-color="#d9f3ff"/>
      <stop offset=".5344661" stop-color="#c3ecff"/>
      <stop offset=".55618" stop-color="#b7e9ff"/>
      <stop offset=".955056" stop-color="#69c"/>
    </radialGradient>
    <radialGradient id="radial-gradient-3" cx="40.4714384" cy="5.2425038" fx="40.4714384" fy="5.2425038" r="7.1844166" gradientTransform="translate(-10.4048159 23.9182834) scale(.9206)" gradientUnits="userSpaceOnUse">
      <stop offset="0" stop-color="#fff"/>
      <stop offset=".2672026" stop-color="#fdfeff"/>
      <stop offset=".3634512" stop-color="#f6fcff"/>
      <stop offset=".4320518" stop-color="#eaf8ff"/>
      <stop offset=".487495" stop-color="#d9f3ff"/>
      <stop offset=".5344661" stop-color="#c3ecff"/>
      <stop offset=".55618" stop-color="#b7e9ff"/>
      <stop offset=".955056" stop-color="#69c"/>
    </radialGradient>
    <linearGradient id="linear-gradient" x1="27.4833964" y1="23.5317212" x2="29.4988552" y2="25.5471799" gradientUnits="userSpaceOnUse">
      <stop offset="0" stop-color="#fff"/>
      <stop offset="1" stop-color="#9a5500"/>
    </linearGradient>
    <linearGradient id="linear-gradient-2" x1="27.3409095" y1="23.0584989" x2="29.6413249" y2="25.3589143" gradientUnits="userSpaceOnUse">
      <stop offset="0" stop-color="#fff"/>
      <stop offset="1" stop-color="#ffe900"/>
    </linearGradient>
    <radialGradient id="radial-gradient-4" cx="62.6718933" cy="13.2222893" fx="62.6718933" fy="13.2222893" r="3.0860907" gradientTransform="translate(-34.0764 14.2835) rotate(-5.0039771) scale(.9206088)" gradientUnits="userSpaceOnUse">
      <stop offset="0" stop-color="#16336e"/>
      <stop offset="1" stop-color="#b4daea"/>
    </radialGradient>
    <radialGradient id="radial-gradient-5" cx="71.2866189" cy="15.1944233" fx="71.2866189" fy="15.1944233" r="3.0861129" gradientTransform="translate(-34.0764 14.2835) rotate(-5.0039771) scale(.9206088)" gradientUnits="userSpaceOnUse"><stop offset="0" stop-color="#16336e"/><stop offset="1" stop-color="#b4daea"/></radialGradient>
  </defs>
  <g id="Layer_4" data-name="Layer 4">
    <g>
      <g mask="url(#mask)">
        <g>
          <path d="M25.46,43.4297135l-17.8936099-4.4609999L15.7870899,6l25.2129101,6.2832142-6.4131106,25.6493994c-.8681,3.4853864-5.7304999,6.3437998-9.1268894,5.4970999Z" fill="url(#New_Gradient_399)" fill-rule="evenodd"/>
          <path d="M24.2645897,43.2617135s4.2187999.8809,5.3759999-3.7577999c4.3046999,1.0732,5.2744104-2.6719136,5.2744104-2.6719136l-2.1328105,8.5528134-8.5175998-2.1230999Z" fill="url(#New_Gradient_400)" fill-rule="evenodd"/>
          <path d="M25.46,43.4297135l-17.8936099-4.4609999L15.7870899,6l25.2129101,6.2832142-6.4131106,25.6493994c-.8681,3.4853864-5.7304999,6.3437998-9.1268894,5.4970999Z" fill="none" fill-rule="evenodd" stroke="#000" stroke-linecap="round" stroke-linejoin="round" stroke-width="2"/>
        </g>
      </g>
      <g mask="url(#mask-1)">
        <g>
          <path d="M25.46,43.4297135l-17.8936099-4.4609999L15.7870899,6l25.2129101,6.2832142-6.4131106,25.6493994c-.8681,3.4853864-5.7304999,6.3437998-9.1268894,5.4970999Z" fill="url(#New_Gradient_401)" fill-rule="evenodd"/>
          <path d="M24.2645897,43.2617135s4.2187999.8809,5.3759999-3.7577999c4.3046999,1.0732,5.2744104-2.6719136,5.2744104-2.6719136l-2.1328105,8.5528134-8.5175998-2.1230999Z" fill="url(#New_Gradient_402)" fill-rule="evenodd"/>
        </g>
      </g>
    </g>
  </g>
  <g id="Layer_5" data-name="Layer 5">
    <g>
      <path d="M13.19429,29.5195138c6.38971,1.5918,12.7783997,3.1874862,19.1708995,4.7812999" fill="none" stroke="#ccc" stroke-linecap="round" stroke-linejoin="round" stroke-width="1.0502"/>
      <path d="M17.3036899,13.0381142c6.3896998,1.5918,12.7783101,3.1864999,19.1708995,4.7811999" fill="none" stroke="#ccc" stroke-linecap="round" stroke-linejoin="round" stroke-width="1.0502"/>
      <path d="M15.6601899,19.6309141c6.3895998,1.5908,12.7782997,3.1874999,19.1708995,4.7801999" fill="none" stroke="#ccc" stroke-linecap="round" stroke-linejoin="round" stroke-width="1.0502"/>
      <path d="M16.4823899,16.334c6.3886998,1.5918141,12.7773997,3.1875141,19.1698995,4.781214" fill="none" stroke="#ccc" stroke-linecap="round" stroke-linejoin="round" stroke-width="1.0502"/>
      <path d="M14.0155899,26.2227139c6.3906998,1.5918,12.7782997,3.1874999,19.1708995,4.7811999" fill="none" stroke="#ccc" stroke-linecap="round" stroke-linejoin="round" stroke-width="1.0502"/>
      <path d="M14.8378899,22.925814c6.3895998,1.5928,12.7782997,3.1884999,19.1708995,4.782186" fill="none" stroke="#ccc" stroke-linecap="round" stroke-linejoin="round" stroke-width="1.0502"/>
    </g>
    <g>
      <g>
        <path d="M28.2260896,21.984914c-2.6030896-.3042-5.2963999-4.1835999-7.4150896-.42-.0283102.3526.022.9014.106,1.247086,2.4306897.008314,4.7318897-.834886,7.1034896-.167-.0024-.221186-.043-.418886-.0522-.638686" stroke="#000" stroke-width="2"/>
        <path d="M28.7562896,21.886214c2.6025999.3037,5.2963999,4.1840999,7.4155998.4195.0278-.3526-.0225-.9004-.1065-1.2466-2.4305999-.0078-4.7318999.834-7.1034998.167.0025.2197.043.4184.0523.6377" stroke="#000" stroke-width="2"/>
      </g>
      <path d="M29.4833896,25.106c0,.5478139-.4443.9921139-.9922.9921139h0c-.5483,0-.9921896-.4443-.9921896-.9921139v-1.795486c0-.5473.4438896-.9907.9921896-.9907h0c.5479,0,.9922.4434.9922.9907v1.795486Z" stroke="#333" stroke-linecap="round" stroke-linejoin="round" stroke-width="2"/>
      <path d="M28.4911896,36.0186136c3.7060999,0,7.0614998-.9439,9.5088104-2.4726999-.5874106-4.5692999-4.6162105-8.1083998-9.5088104-8.1083998s-8.9213998,3.5390999-9.5087998,8.1083998c2.4472999,1.5288,5.8027999,2.4726999,9.5087998,2.4726999Z" stroke="#000" stroke-linecap="round" stroke-linejoin="round" stroke-width="2"/>
      <g mask="url(#mask-2)">
        <g>
          <path d="M28.4911896,36.0186136c3.7060999,0,7.0614998-.9439,9.5088104-2.4726999-.5874106-4.5692999-4.6162105-8.1083998-9.5088104-8.1083998s-8.9213998,3.5390999-9.5087998,8.1083998c2.4472999,1.5288,5.8027999,2.4726999,9.5087998,2.4726999Z" fill="url(#radial-gradient)"/>
          <path d="M28.4911896,39.3267136c1.9014-.7735,3.6230999-2.7138999,4.8788999-5.2299999-.3017-5.8759999-2.3680895-9.6817137-4.8788999-8.6591998-2.5106999,1.02-4.5770999,6.5062998-4.8788999,12.6273997,1.2559,1.4947,2.9774999,2.0346999,4.8788999,1.2618Z" fill="url(#radial-gradient-2)" fill-rule="evenodd" stroke="#a70000"/>
          <path d="M28.4911896,39.3267136c1.6436,0,3.1318104-1.2413,4.2172999-3.2465999-.2607-5.9975998-2.0478999-10.6425997-4.2172999-10.6425997-2.1698999,0-3.9559999,4.6449999-4.2172999,10.6425997,1.0855,2.0052999,2.5737999,3.2465999,4.2172999,3.2465999Z" fill="url(#radial-gradient-3)" fill-rule="evenodd" stroke="#a70000"/>
        </g>
      </g>
      <path d="M29.4833896,25.2476139c0,.4707-.4443.8505-.9922.8505h0c-.5483,0-.9921896-.3798-.9921896-.8505v-1.4161c0-.4702.4438896-.8515139.9921896-.8515139h0c.5479,0,.9922.381314.9922.8515139v1.4161Z" fill="url(#linear-gradient)" stroke="#c42e00"/>
      <path d="M29.4833896,25.106c0,.5478139-.4443.9921139-.9922.9921139h0c-.5483,0-.9921896-.4443-.9921896-.9921139v-1.795486c0-.5473.4438896-.9907.9921896-.9907h0c.5479,0,.9922.4434.9922.9907v1.795486Z" fill="url(#linear-gradient-2)"/>
      <g>
        <path d="M28.2260896,21.984914c-2.6030896-.3042-5.2963999-4.1835999-7.4150896-.42-.0283102.3526.022.9014.106,1.247086,2.4306897.008314,4.7318897-.834886,7.1034896-.167-.0024-.221186-.043-.418886-.0522-.638686" fill="url(#radial-gradient-4)"/>
        <path d="M28.7562896,21.886214c2.6025999.3037,5.2963999,4.1840999,7.4155998.4195.0278-.3526-.0225-.9004-.1065-1.2466-2.4305999-.0078-4.7318999.834-7.1034998.167.0025.2197.043.4184.0523.6377" fill="url(#radial-gradient-5)"/>
      </g>
    </g>
  </g>
</svg>