<?xml version="1.0" encoding="UTF-8"?>
<svg xmlns="http://www.w3.org/2000/svg" width="48" height="48" xmlns:xlink="http://www.w3.org/1999/xlink" viewBox="0 0 48 48">
  <defs>
    <mask id="mask" x="6.5658937" y="5" width="35.4341063" height="40.384811" maskUnits="userSpaceOnUse">
      <path d="M25.46,43.429711l-17.8941063-4.4609999L15.7865935,6l25.2134065,6.2832118-6.4136069,25.6493994c-.8676,3.4853888-5.7299999,6.3437998-9.1263931,5.4970999Z" fill="#fff" fill-rule="evenodd" stroke="#fff" stroke-linecap="round" stroke-linejoin="round" stroke-width="2"/>
    </mask>
    <linearGradient id="New_Gradient_399" data-name="New Gradient 399" x1="14.9174746" y1="6.4238976" x2="33.3641247" y2="44.2451352" gradientUnits="userSpaceOnUse">
      <stop offset="0" stop-color="#e5e5e5"/>
      <stop offset="1" stop-color="#fff"/>
    </linearGradient>
    <radialGradient id="New_Gradient_400" data-name="New Gradient 400" cx="46.6641524" cy="36.562975" fx="46.6641524" fy="36.562975" r="8.8646646" gradientTransform="translate(-9.8272 -11.7845) rotate(13.9915205) skewX(-.0111829)" gradientUnits="userSpaceOnUse">
      <stop offset="0" stop-color="#fff"/>
      <stop offset="1" stop-color="#ccc"/>
    </radialGradient>
    <mask id="mask-1" x="7.5658937" y="6" width="33.4341063" height="39.384811" maskUnits="userSpaceOnUse">
      <path d="M25.46,43.429711l-17.8941063-4.4609999L15.7865935,6l25.2134065,6.2832118-6.4136069,25.6493994c-.8676,3.4853888-5.7299999,6.3437998-9.1263931,5.4970999Z" fill="#fff" fill-rule="evenodd"/>
    </mask>
    <linearGradient id="New_Gradient_401" data-name="New Gradient 401" x1="14.9174746" y1="6.4238976" x2="33.3641247" y2="44.2451352" gradientUnits="userSpaceOnUse">
      <stop offset="0" stop-color="#e5e5e5"/>
      <stop offset=".286514" stop-color="#f2f2f2"/>
      <stop offset=".646072" stop-color="#fff"/>
      <stop offset="1" stop-color="#fff"/>
    </linearGradient>
    <radialGradient id="New_Gradient_402" data-name="New Gradient 402" cx="46.6641524" cy="36.562975" fx="46.6641524" fy="36.562975" r="8.8646646" gradientTransform="translate(-9.8272 -11.7845) rotate(13.9915205) skewX(-.0111829)" gradientUnits="userSpaceOnUse">
      <stop offset="0" stop-color="#e5e5e5"/>
      <stop offset=".331467" stop-color="#e5e5e5"/>
      <stop offset="1" stop-color="#999"/>
    </radialGradient>
    <mask id="mask-2" x="7" y="13" width="23.1527932" height="13" maskUnits="userSpaceOnUse">
      <rect x="7" y="13" width="22" height="11.8018115" fill="#fff"/>
    </mask>
    <radialGradient id="radial-gradient" cx="29.6501673" cy="72.809479" fx="29.6501673" fy="72.809479" r="14.2820142" gradientTransform="translate(-12.8263 -38.0105) rotate(-13.9987235)" gradientUnits="userSpaceOnUse">
      <stop offset=".230337" stop-color="#f2b712"/>
      <stop offset=".44382" stop-color="#ffcd00"/>
      <stop offset=".5335957" stop-color="#fcc900"/>
      <stop offset=".6088672" stop-color="#f3bf02"/>
      <stop offset=".678882" stop-color="#e3ad06"/>
      <stop offset=".7453308" stop-color="#ce950c"/>
      <stop offset=".775281" stop-color="#c3880f"/>
    </radialGradient>
    <radialGradient id="radial-gradient-2" cx="173.8536455" cy="-11.0624193" fx="173.8536455" fy="-11.0624193" r="3.7367577" gradientTransform="translate(-92.2138 257.2452) rotate(-58.9990841) scale(1.480822)" gradientUnits="userSpaceOnUse">
      <stop offset=".191011" stop-color="#ecd600"/>
      <stop offset=".612359" stop-color="#fff"/>
      <stop offset=".6721602" stop-color="#fefefb"/>
      <stop offset=".7223228" stop-color="#fdfaf1"/>
      <stop offset=".7690372" stop-color="#fcf5df"/>
      <stop offset=".8136331" stop-color="#faeec7"/>
      <stop offset=".8567796" stop-color="#f8e4a7"/>
      <stop offset=".8987707" stop-color="#f5d980"/>
      <stop offset=".9398968" stop-color="#f2cb52"/>
      <stop offset=".9792847" stop-color="#eebc1e"/>
      <stop offset="1" stop-color="#ecb300"/>
    </radialGradient>
    <radialGradient id="radial-gradient-3" cx="169.7757142" cy="-6.7853813" fx="169.7757142" fy="-6.7853813" r="7.3910355" gradientTransform="translate(-92.2138 257.2452) rotate(-58.9990841) scale(1.480822)" gradientUnits="userSpaceOnUse">
      <stop offset=".191011" stop-color="#ecd600"/>
      <stop offset=".612359" stop-color="#fff"/>
      <stop offset=".6721602" stop-color="#fefefb"/>
      <stop offset=".7223228" stop-color="#fdfaf1"/>
      <stop offset=".7690372" stop-color="#fcf5df"/>
      <stop offset=".8136331" stop-color="#faeec7"/>
      <stop offset=".8567796" stop-color="#f8e4a7"/>
      <stop offset=".8987707" stop-color="#f5d980"/>
      <stop offset=".9398968" stop-color="#f2cb52"/>
      <stop offset=".9792847" stop-color="#eebc1e"/>
      <stop offset="1" stop-color="#ecb300"/>
    </radialGradient>
    <radialGradient id="radial-gradient-4" cx="182.7129932" cy="-5.1539467" fx="182.7129932" fy="-5.1539467" r="1.3439339" gradientTransform="translate(-95.6099 297.3525) rotate(-63.2098508) scale(1.5936579 1.6296829) skewX(-4.303879)" gradientUnits="userSpaceOnUse">
      <stop offset=".691011" stop-color="#999"/>
      <stop offset=".9178119" stop-color="#bdbdbd"/>
      <stop offset="1" stop-color="#ccc"/>
    </radialGradient>
    <radialGradient id="radial-gradient-5" cx="182.3735439" cy="-5.2368677" fx="182.3735439" fy="-5.2368677" r=".9171898" gradientTransform="translate(-95.6099 297.3525) rotate(-63.2098508) scale(1.5936579 1.6296829) skewX(-4.303879)" gradientUnits="userSpaceOnUse">
      <stop offset=".106741" stop-color="#999"/>
      <stop offset=".7624016" stop-color="#bdbdbd"/>
      <stop offset="1" stop-color="#ccc"/>
    </radialGradient>
    <radialGradient id="radial-gradient-6" cx="204.968717" cy="5.1966393" fx="204.968717" fy="5.1966393" r="1.3987124" gradientTransform="translate(-148.2365 368.4946) rotate(-63.2112777) scale(1.8673099 1.9096289) skewX(-4.306559)" gradientUnits="userSpaceOnUse">
      <stop offset=".691011" stop-color="#328e36"/>
      <stop offset=".8494552" stop-color="#4aae5a"/>
      <stop offset="1" stop-color="#65d081"/>
    </radialGradient>
    <radialGradient id="radial-gradient-7" cx="204.7944774" cy="5.1493374" fx="204.7944774" fy="5.1493374" r="1.0473499" gradientTransform="translate(-148.2365 368.4946) rotate(-63.2112777) scale(1.8673099 1.9096289) skewX(-4.306559)" gradientUnits="userSpaceOnUse">
      <stop offset=".106741" stop-color="#328e36"/>
      <stop offset=".5647888" stop-color="#4aae5a"/>
      <stop offset="1" stop-color="#65d081"/>
    </radialGradient>
    <radialGradient id="radial-gradient-8" cx="342.7163929" cy="-86.1017118" fx="342.7163929" fy="-86.1017118" r="1.3168494" gradientTransform="translate(476.609 533.9501) rotate(-116.8024443) scale(1.8673117 1.9097062) skewX(-4.3101363)" gradientUnits="userSpaceOnUse">
      <stop offset=".691011" stop-color="#0342d3"/>
      <stop offset=".8141137" stop-color="#274fe3"/>
      <stop offset="1" stop-color="#66f"/>
    </radialGradient>
    <radialGradient id="radial-gradient-9" cx="342.5428691" cy="-86.1706377" fx="342.5428691" fy="-86.1706377" r="1.0119531" gradientTransform="translate(476.609 533.9501) rotate(-116.8024443) scale(1.8673117 1.9097062) skewX(-4.3101363)" gradientUnits="userSpaceOnUse">
      <stop offset=".106741" stop-color="#0342d3"/>
      <stop offset=".4626197" stop-color="#274fe3"/>
      <stop offset="1" stop-color="#66f"/>
    </radialGradient>
    <radialGradient id="radial-gradient-10" cx="329.8256404" cy="-67.5974702" fx="329.8256404" fy="-67.5974702" r="1.3644401" gradientTransform="translate(450.1978859 596.759) rotate(-115.5317422) scale(2.0384627 1.8965374) skewX(-7.3458432)" gradientUnits="userSpaceOnUse">
      <stop offset=".691011" stop-color="#a70000"/>
      <stop offset=".7940595" stop-color="#c12415"/>
      <stop offset="1" stop-color="#ff7845"/>
    </radialGradient>
    <radialGradient id="radial-gradient-11" cx="329.7761847" cy="-67.7021582" fx="329.7761847" fy="-67.7021582" r="1.1080253" gradientTransform="translate(450.1978859 596.759) rotate(-115.5317422) scale(2.0384627 1.8965374) skewX(-7.3458432)" gradientUnits="userSpaceOnUse">
      <stop offset=".106741" stop-color="#a70000"/>
      <stop offset=".4046447" stop-color="#c12415"/>
      <stop offset="1" stop-color="#ff7845"/>
    </radialGradient>
    <linearGradient id="linear-gradient" x1="140.3261954" y1="-490.1074213" x2="145.1761159" y2="-490.1074213" gradientTransform="translate(-.3908 -151.7777) rotate(121.8921289) scale(1.0510642 .2521924) skewX(.2143572)" gradientUnits="userSpaceOnUse">
      <stop offset="0" stop-color="#6b3200"/>
      <stop offset=".2885023" stop-color="#6d3400"/>
      <stop offset=".4963073" stop-color="#773d03"/>
      <stop offset=".6782187" stop-color="#864b08"/>
      <stop offset=".825843" stop-color="#9a5d0e"/>
      <stop offset="1" stop-color="#ecb300"/>
    </linearGradient>
    <linearGradient id="linear-gradient-2" x1="93.7512509" y1="156.5291705" x2="90.2642951" y2="155.0933674" gradientTransform="translate(-50.5011 -150.2423) rotate(121.8873475) scale(.9415981 -1.0620095) skewX(13.0553336)" gradientUnits="userSpaceOnUse">
      <stop offset="0" stop-color="#6b3200"/>
      <stop offset=".2685086" stop-color="#6e3501"/>
      <stop offset=".5357231" stop-color="#7a4006"/>
      <stop offset=".758427" stop-color="#8b4f0d"/>
      <stop offset="1" stop-color="#ecb300"/>
    </linearGradient>
    <radialGradient id="radial-gradient-12" cx="-85.3047441" cy="430.2950648" fx="-85.3047441" fy="430.2950648" r="8.0079258" gradientTransform="translate(-106.7404 -12.1642) rotate(121.8673785) scale(.2816529 -.3176831) skewX(-.9633841)" gradientUnits="userSpaceOnUse">
      <stop offset="0" stop-color="#fff"/>
      <stop offset="1" stop-color="#000"/>
    </radialGradient>
    <linearGradient id="linear-gradient-3" x1="231.4724256" y1="-9.3084578" x2="232.2357196" y2="-9.3084578" gradientTransform="translate(355.5879 -92.7822) rotate(156.9809917) scale(1.5249216 -1.0341785) skewX(-13.39759)" gradientUnits="userSpaceOnUse">
      <stop offset="0" stop-color="#fff"/>
      <stop offset="1" stop-color="#000"/>
    </linearGradient>
    <linearGradient id="linear-gradient-4" x1="-315.7230273" y1="319.8842298" x2="-304.5148163" y2="319.8842298" gradientTransform="translate(-106.1053 28.2975) rotate(121.8919456) scale(.1873868 -.3294263) skewX(-1.5633347)" gradientUnits="userSpaceOnUse">
      <stop offset="0" stop-color="#b0b0b0"/>
      <stop offset="1" stop-color="#4a4a4a"/>
    </linearGradient>
    <linearGradient id="linear-gradient-5" x1="57.3656545" y1="143.7017439" x2="61.6933918" y2="144.8628069" gradientTransform="translate(-51.1171 -149.2789) rotate(121.8873475) scale(.9415981 -1.062003) skewX(25.6955006)" gradientUnits="userSpaceOnUse">
      <stop offset="0" stop-color="#fff"/>
      <stop offset=".2307365" stop-color="#fcfcfc"/>
      <stop offset=".3300776" stop-color="#f5f5f5"/>
      <stop offset=".4041854" stop-color="#e9e9e9"/>
      <stop offset=".4657753" stop-color="#d7d7d7"/>
      <stop offset=".5196246" stop-color="silver"/>
      <stop offset=".5680193" stop-color="#a3a3a3"/>
      <stop offset=".6123554" stop-color="#818181"/>
      <stop offset=".6535775" stop-color="#5a5a5a"/>
      <stop offset=".6907176" stop-color="#2e2e2e"/>
      <stop offset=".724719" stop-color="#000"/>
    </linearGradient>
    <mask id="mask-3" x="23.3863101" y="36.0051064" width="8.5412703" height="7.0970676" maskUnits="userSpaceOnUse">
      <path d="M28.9877932,36.1621112c-.2632-.042-.6773.666-.9247932.7192-.2661068.0542-.5728068.0079-.7754068.1548-.2139.1563-.186.4932-.272.7242-.1245.3383-1.3037-.3013112-1.4184-.0127-.1109.2807,1.5415.7303888,1.4204,1.061-.125.3353889-1.1778.3247-1.3018.6587-.123.3345.4531.1156889.3306.4541-.1216.3252.2192.4917.0972.8169-.1138.31-.9488-.1011-1.0625.209-.0923.247.5659067.6479.6606.8636889.0894.2066111.0884.4546111.312.586.1675.0991111.3311.621611.5571.656711.3941.063.4009-.0215.795.042.3745.0591.4018-.3081.7763-.25.2632.043.4444-.2954.6949068-.352.2665932-.0625.7645932.4086.9686932.2568.2158-.1587-.1636-.7974-.0776-1.0298.125-.3403.2192-.2935.3432-.6348.1211-.3296.149-.3159111.2705-.6445.1245-.3374111.333-.2349.458-.5713.1221-.3379.6871-.06.8106-.3965.1206069-.3247-.8042-.7807-.6851-1.1069.1138-.3101.0782-.3281.1934-.6382.0913069-.2461.8559-.4194.7607-.6367-.0888-.2065-.4726-.4805-.6953-.6113-.1675-.1001-.4629-.1651-.6889-.2002-.3946-.064-.3584-.1573112-.7496-.2559-.3735-.0957-.4238.1987-.7978.1377Z" fill="#fff"/>
    </mask>
    <linearGradient id="linear-gradient-6" x1="140.3261954" y1="-490.1074213" x2="145.1761159" y2="-490.1074213" gradientTransform="translate(-.3908 -151.7777) rotate(121.8921289) scale(1.0510642 .2521924) skewX(.2143572)" gradientUnits="userSpaceOnUse">
      <stop offset="0" stop-color="#a70000"/>
      <stop offset=".2134181" stop-color="#a90301"/>
      <stop offset=".3923643" stop-color="#b10d07"/>
      <stop offset=".5589223" stop-color="#bd1f11"/>
      <stop offset=".7179175" stop-color="#cf371f"/>
      <stop offset=".8700949" stop-color="#e65631"/>
      <stop offset="1" stop-color="#ff7845"/>
    </linearGradient>
    <linearGradient id="linear-gradient-7" x1="101.1626602" y1="155.8013633" x2="100.1051681" y2="154.7879341" gradientTransform="translate(-64.9351 -126.523) rotate(121.8873475) scale(.9415981 -1.0620482) skewX(-1.0051953)" gradientUnits="userSpaceOnUse">
      <stop offset="0" stop-color="#a70000"/>
      <stop offset=".2134181" stop-color="#a90301"/>
      <stop offset=".3923643" stop-color="#b10d07"/>
      <stop offset=".5589223" stop-color="#bd1f11"/>
      <stop offset=".7179175" stop-color="#cf371f"/>
      <stop offset=".8700949" stop-color="#e65631"/>
      <stop offset="1" stop-color="#ff7845"/>
    </linearGradient>
  </defs>
  <g id="Layer_4" data-name="Layer 4">
    <g>
      <g mask="url(#mask)">
        <g>
          <path d="M25.46,43.429711l-17.8941063-4.4609999L15.7865935,6l25.2134065,6.2832118-6.4136069,25.6493994c-.8676,3.4853888-5.7299999,6.3437998-9.1263931,5.4970999Z" fill="url(#New_Gradient_399)" fill-rule="evenodd"/>
          <path d="M24.2645933,43.261711s4.2187999.8809,5.3759999-3.7577999c4.3046999,1.0732,5.2748999-2.6719111,5.2748999-2.6719111l-2.1332999,8.552811-8.5175998-2.1230999Z" fill="url(#New_Gradient_400)" fill-rule="evenodd"/>
          <path d="M25.46,43.429711l-17.8941063-4.4609999L15.7865935,6l25.2134065,6.2832118-6.4136069,25.6493994c-.8676,3.4853888-5.7299999,6.3437998-9.1263931,5.4970999Z" fill="none" fill-rule="evenodd" stroke="#000" stroke-linecap="round" stroke-linejoin="round" stroke-width="2"/>
        </g>
      </g>
      <g mask="url(#mask-1)">
        <g>
          <path d="M25.46,43.429711l-17.8941063-4.4609999L15.7865935,6l25.2134065,6.2832118-6.4136069,25.6493994c-.8676,3.4853888-5.7299999,6.3437998-9.1263931,5.4970999Z" fill="url(#New_Gradient_401)" fill-rule="evenodd"/>
          <path d="M24.2645933,43.261711s4.2187999.8809,5.3759999-3.7577999c4.3046999,1.0732,5.2748999-2.6719111,5.2748999-2.6719111l-2.1332999,8.552811-8.5175998-2.1230999Z" fill="url(#New_Gradient_402)" fill-rule="evenodd"/>
        </g>
      </g>
    </g>
  </g>
  <g id="Layer_5" data-name="Layer 5">
    <g>
      <path d="M13.1942936,29.5195114c6.3901998,1.5918,12.7783997,3.1874886,19.1708995,4.7812999" fill="none" stroke="#ccc" stroke-linecap="round" stroke-linejoin="round" stroke-width="1.0502"/>
      <path d="M17.3036935,13.0381118c6.3891998,1.5918,12.7783065,3.1864999,19.1708995,4.7811999" fill="none" stroke="#ccc" stroke-linecap="round" stroke-linejoin="round" stroke-width="1.0502"/>
      <path d="M15.6601935,19.6309116c6.3895998,1.5908,12.7782997,3.1874999,19.1703995,4.7801999" fill="none" stroke="#ccc" stroke-linecap="round" stroke-linejoin="round" stroke-width="1.0502"/>
      <path d="M16.4818935,16.334c6.3896998,1.5918117,12.7773997,3.1875116,19.1703995,4.7812116" fill="none" stroke="#ccc" stroke-linecap="round" stroke-linejoin="round" stroke-width="1.0502"/>
      <path d="M14.0160936,26.2227115c6.3896998,1.5918,12.7777997,3.1874999,19.1709064,4.7811999" fill="none" stroke="#ccc" stroke-linecap="round" stroke-linejoin="round" stroke-width="1.0502"/>
      <path d="M14.8378936,22.9258115c6.3895998,1.5928,12.7782997,3.1884999,19.1703995,4.7821885" fill="none" stroke="#ccc" stroke-linecap="round" stroke-linejoin="round" stroke-width="1.0502"/>
    </g>
  </g>
  <g id="labels">
    <g opacity=".85">
      <rect x="7" y="13" width="22" height="11.8018115" fill="#032c87" stroke="#1459a5" stroke-width="2"/>
      <g mask="url(#mask-2)">
        <g>
          <rect x="7" y="13" width="22" height="11.8018115" fill="#fff"/>
          <rect x="8.1542937" y="14.1704118" width="21.9984994" height="11.8295882" fill="#d8eafd"/>
        </g>
      </g>
      <g>
        <path d="M13.7841797,22.1894531l-.7197266-1.2729492c-.2695312-.4560547-.4829102-.8344727-.6391602-1.1352539h-.0161133c-.1376953.2949219-.3383789.6762695-.6025391,1.1435547l-.671875,1.2646484h-.8291016l1.7070312-2.9140625-1.6381836-2.847168h.8330078l.7407227,1.3481445c.1967773.3588867.3676758.684082.5136719.9760742h.0239258c.1430664-.3139648.3115234-.6396484.5058594-.9760742l.7524414-1.3481445h.8369141l-1.753418,2.8012695,1.7939453,2.9599609h-.8374023Z"/>
        <path d="M15.6118164,16.5024414c.3481445-.0717773.8095703-.1103516,1.3842773-.1157227.7124023.0053711,1.234375.1640625,1.5664062.4755859.3203125.28125.4848633.6835938.4926758,1.206543,0,.5175781-.1469727.9282227-.440918,1.2314453-.409668.4204102-.9785156.6303711-1.706543.6303711-.2158203.0058594-.4086914-.0107422-.5786133-.0493164v2.3081055h-.7172852v-5.6870117ZM16.3291016,19.2797852c.159668.0390625.3583984.0585938.5966797.0585938.9194336-.0053711,1.3876953-.4150391,1.4038086-1.2280273,0-.3881836-.1191406-.6772461-.3569336-.8671875-.2382812-.1816406-.5585938-.2724609-.9619141-.2724609-.3217773.0053711-.5488281.0249023-.6816406.0585938v2.2504883Z"/>
        <path d="M24.8569336,19.6616211c-.0566406-.8803711-.0874023-1.7104492-.0927734-2.4907227h-.0161133c-.1914062.6679688-.4257812,1.3974609-.703125,2.1879883l-.9858398,2.7978516h-.5458984l-.9091797-2.7475586c-.2641602-.8129883-.4765625-1.559082-.6381836-2.2382812h-.0161133c-.0161133.7680664-.0512695,1.6171875-.1054688,2.546875l-.1494141,2.4716797h-.6870117l.3881836-5.7612305h.9169922l.9541016,2.7866211c.2314453.7021484.418457,1.3496094.5615234,1.9428711h.0161133c.1479492-.5761719.3476562-1.2241211.5981445-1.9428711l.9897461-2.7866211h.9213867l.3476562,5.7612305h-.7114258l-.1333008-2.527832Z"/>
      </g>
    </g>
  </g>
  <g id="Layer_3" data-name="Layer 3">
    <g>
      <path d="M34.4267931,23.2568115c-2.9824999.7354-4.6992999,2.6611885-7.7333998,3.3774999-2.7573933.6513-.1133-2.1659999-2.4736999-1.9336-3.8519999.5278-5.9383998,3.6986999-6.0677998,5.8104999-.105,1.7271,1.5214,3.4692999,4.3001999,4.2455999,5.4365999,1.5171,13.2949997,1.0596,17.7192996-2.5678112,1.9502-1.5991886,2.3617999-4.0527886,1.102-6.1503885-.9823929-1.6402-3.8041999-3.5341999-6.8465998-2.7817999ZM25.4398933,27.9492114c1.441.0869,2.5288999.669,2.4223999,1.2945-.1069.6274-1.3647,1.0605-2.8051999.9731-1.4399-.0869-2.5189999-.6646-2.4134999-1.2905.1049-.626,1.3554066-1.0655,2.7962999-.9771Z" fill="none" stroke="#000" stroke-width="2"/>
      <path d="M34.4267931,23.2568115c-2.9824999.7354-4.6992999,2.6611885-7.7333998,3.3774999-2.7573933.6513-.1133-2.1659999-2.4736999-1.9336-3.8519999.5278-5.9383998,3.6986999-6.0677998,5.8104999-.105,1.7271,1.5214,3.4692999,4.3001999,4.2455999,5.4365999,1.5171,13.2949997,1.0596,17.7192996-2.5678112,1.9502-1.5991886,2.3617999-4.0527886,1.102-6.1503885-.9823929-1.6402-3.8041999-3.5341999-6.8465998-2.7817999ZM25.4398933,27.9492114c1.441.0869,2.5288999.669,2.4223999,1.2945-.1069.6274-1.3647,1.0605-2.8051999.9731-1.4399-.0869-2.5189999-.6646-2.4134999-1.2905.1049-.626,1.3554066-1.0655,2.7962999-.9771Z" fill="url(#radial-gradient)"/>
      <path d="M28.3944932,28.7222114c.1055068-.626-.9814-1.2076-2.4237999-1.2959-1.375-.084-2.5722999.3115-2.7733999.8911.52-.2725,1.3442-.4229,2.2425999-.3682,1.441.0869,2.5288999.669,2.4223999,1.2945-.0044.0302-.0146.0556-.0254.0844.3145-.1626.5181068-.3706.5576-.6059Z" fill="url(#radial-gradient-2)"/>
      <path d="M22.9887934,34.2368113c-2.7729999-.7641-4.4106999-2.5194999-4.3051999-4.2465999.0625-1.0542114.6147-2.3714999,1.6274065-3.4935999-1.3486065,1.2158-2.0844065,2.7924999-2.1591065,4.0145999-.105,1.7271,1.5214,3.4692999,4.3001999,4.2455999,5.4365999,1.5171,13.2963997,1.0591,17.7192996-2.5678112.1704-.1410887.3271-.3071887.4746071-.4653887-4.808107,3.5014999-12.1577068,4.0307999-17.6572066,2.5131999Z" fill="url(#radial-gradient-3)"/>
      <g>
        <path d="M28.48,31.6357113c1.4554932-.042,2.6107932.5752,2.5736932,1.3755-.0381.8003-1.2563,1.4805-2.7142999,1.522-1.4581.0415-2.6039999-.5693-2.5649999-1.3701.0386067-.7998,1.2481-1.4839,2.7056067-1.5274Z" fill="url(#radial-gradient-4)" stroke="#999" stroke-width=".5"/>
        <path d="M29.7821932,33.5937113c-1.5195.044-2.6039999-.7075-2.2762999-1.5078-1.5533.2364-1.5381,1.3077-.5684,1.8267,1.5771.8428,3.9633999-.3501,2.8446999-.3189" fill="url(#radial-gradient-5)"/>
      </g>
      <g>
        <path d="M32.6142931,30.147c1.4975-.2201886,1.8491.5327114,3.1048999,1.6142113,1.2564,1.084-1.1801,1.9067887-3.1073999,1.7813-1.9257931-.1255113-2.6024999-.8648-3.0927931-1.6104-.4907068-.7451113,1.5986932-1.5659,3.0952931-1.7851113Z" fill="url(#radial-gradient-6)" stroke="#23a11f" stroke-width=".5"/>
        <path d="M34.9008931,32.4907113c-1.9287-.0185-4.6093999-.8135-3.8251999-1.7236-1.7056.3901-.9976,1.3315.2803068,1.937,2.0775931.9858,4.961893-.2002,3.5448931-.2134" fill="url(#radial-gradient-7)"/>
      </g>
      <g>
        <path d="M33.6522931,25.207c.9893-.9872885,2.6293999-1.0214885,4.1093999-.354,1.479.666,1.9331,1.4766115.633307,2.1109114-1.301707.6342-3.5068069,1.0595-4.6719069.747-1.165-.3125-1.062-1.5156-.0708-2.5039114Z" fill="url(#radial-gradient-8)" stroke="#0342d3" stroke-width=".5"/>
        <path d="M37.816893,25.8921115c-1.229.7573-3.462893,1.0141-4.2909999.2725-.834,1.1137.6318,1.5122,2.4008999,1.2285,2.8807999-.4619,2.7933999-2.0561999,1.8901-1.501" fill="url(#radial-gradient-9)"/>
      </g>
      <g>
        <path d="M34.2201931,28.3022114c1.3838069-.6015,3.0712999-.4917,4.8525999-.4096,1.7836.082,1.3774,1.457.246,2.3710999-1.1327929.915-4.0409999,1.539-4.8680999.415-.8262-1.1235-1.6138-1.7739-.2305-2.3764999Z" fill="url(#radial-gradient-10)" stroke="red" stroke-width=".5"/>
        <path d="M39.030793,28.7856114c-1.482.9878-3.4028999.7139-4.7563999.107-.834.6753.417,2.1766999,2.3852999,1.9438,3.2025999-.3799,3.4603999-2.7738999,2.3710999-2.0507999" fill="url(#radial-gradient-11)"/>
      </g>
    </g>
    <g>
      <path d="M21.6874934,38.3853112c-.1436-.0552-.3008-.1299-.4736-.2334-5.2250999-3.0634999-9.8530998-5.4849112-14.3964996-9.7705998.0088.0035.0146062.0044.0239.0079-.0072938-.0069-.0112-.0108-.0181-.0181,5.9531998,2.0214999,10.2231997,4.9105999,15.4130996,8.1395998.1533.0957.2881.1968.4058.2989.3433.1152.687.3169.959.4966.2334.1533.4682.3549.6357.582.2857-.1143.5254-.1109.9634.0669.7095.2881,2.0902999-.314,2.8143999-.3848,1.4361-.1391,1.0284068,2.0873999.8643,2.8163999-.1685-.9819-1.1528-.1513-1.46.1367-.7182.6739-1.1992,1.1602-2.3050999.8935889-1.0386-.25-1.9004-1.4110889-1.8531-2.1273889-.4076933-.0918-.8236933-.3321-1.1113-.5787-.1816-.1088-.3349-.2163-.4619-.3256Z" fill="none" stroke="#000" stroke-linecap="round" stroke-linejoin="round" stroke-width="2"/>
      <path d="M23.7890933,38.1196112c-.8520933.8711-.3252,2.9008999,1.3247,3.2973888,1.1059.2666111,1.5869-.2196889,2.3050999-.8935889.3072-.288,1.2915-1.1186,1.46-.1367.1641068-.729.5718-2.9554999-.8643-2.8163999-.7241.0708-2.1048999.6729-2.8143999.3848-.6391933-.2598-.8594-.1485-1.4111.1645" fill="url(#linear-gradient)"/>
      <path d="M24.2895933,38.3994112c-.461.3892.4311,1.2481,1.7153,1.3198.8603.0489,1.1299-.1728,1.5425-.4814.1753-.1314.7553-.5181,1.0498-.1328111-.0064-.3002889-.0933-1.2172888-1.1265-1.0863888-.5215.0659-1.0986.7812-1.7119.6816-.5527-.0908-1.1235-.4517-1.4692-.3008" fill="url(#linear-gradient-2)"/>
      <path d="M22.1493934,38.7109111c-.9443-.5634-1.1372-1.1308-.7051-1.6704.5464-.6792,1.5323-.143,2.1567999.2657.5898.3876,1.1924,1.0864.6977,1.7011-.5205.6489-1.5835.19-2.1493999-.2964" fill="url(#radial-gradient-12)"/>
      <path d="M23.6972933,39.1797111c1.081-.9229-1.6352933-1.6187111-1.3335-2.2577999-.2403.5107,3.1703999.687,1.3335,2.2577999" fill="url(#linear-gradient-3)"/>
      <path d="M22.998,38.1768112c-.2973066.3501-.81.5478-1.7841066-.0249-5.2250999-3.0634999-9.8530998-5.4849112-14.3964996-9.7705998.0088.0035.0146062.0044.0239.0079-.0072938-.0069-.0112-.0108-.0181-.0181,5.9531998,2.0214999,10.2231997,4.9105999,15.4130996,8.1395998.8325.5186,1.1299,1.1542888.7617066,1.6661" fill="none" stroke="#4d4d4d" stroke-miterlimit="3.8637" stroke-width=".5"/>
      <path d="M22.998,38.1768112c-.2973066.3501-.81.5478-1.7841066-.0249-5.2250999-3.0634999-9.8530998-5.4849112-14.3964996-9.7705998.0088.0035.0146062.0044.0239.0079-.0072938-.0069-.0112-.0108-.0181-.0181,5.9531998,2.0214999,10.2231997,4.9105999,15.4130996,8.1395998.8325.5186,1.1299,1.1542888.7617066,1.6661" fill="url(#linear-gradient-4)"/>
      <path d="M8.3632937,29.1821114c2.4921999,2.0453999,4.4287063,3.3324999,7.1473998,4.9667999,1.1368.6836,2.2758999,1.3452,3.4053065,2.0033999l1.9574934,1.1426c.8223.4829,1.4263.5142,1.7969.0908.0283-.0366.044-.0766.0645-.1167112.1743.232.289.5313112.0776.8228112-.313.3545-.8228.3203-1.5576-.1118112l-1.9653-1.1488888c-1.1285-.6563-2.2651999-1.3174-3.3999999-1.9975999-3.1356999-1.8862-5.4749999-3.4633999-8.2767998-5.9398998.2456.0913.4946.1865.7505.2885Z" fill="url(#linear-gradient-5)"/>
      <g mask="url(#mask-3)">
        <g>
          <path d="M23.7890933,38.1196112c-.8520933.8711-.3252,2.9008999,1.3247,3.2973888,1.1059.2666111,1.5869-.2196889,2.3050999-.8935889.3072-.288,1.2915-1.1186,1.46-.1367.1641068-.729.5718-2.9554999-.8643-2.8163999-.7241.0708-2.1048999.6729-2.8143999.3848-.6391933-.2598-.8594-.1485-1.4111.1645" fill="url(#linear-gradient-6)"/>
          <path d="M24.2895933,38.3994112c-.461.3892.4311,1.2481,1.7153,1.3198.8603.0489,1.1299-.1728,1.5425-.4814.1753-.1314.7553-.5181,1.0498-.1328111-.0064-.3002889-.0933-1.2172888-1.1265-1.0863888-.5215.0659-1.0986.7812-1.7119.6816-.5527-.0908-1.1235-.4517-1.4692-.3008" fill="url(#linear-gradient-7)"/>
        </g>
      </g>
    </g>
  </g>
</svg>