/* XPM */
static char * menu_pressed_xpm[] = {
"18 16 6 1",
" 	c None",
".	c #858C8D",
"+	c #C9D0D5",
"@	c #64717C",
"#	c #64717D",
"$	c #64717D",
"  ..............  ",
" .++++++++++++++. ",
".++++++++++++++++.",
".++++++++++++++++.",
".++++++++++++++++.",
".++++@+++++#+++++.",
".+++@$$+++###++++.",
".++++$$$+###+++++.",
".+++++#####++++++.",
".++++++###+++++++.",
".+++++++#++++++++.",
".++++++++++++++++.",
".++++++++++++++++.",
".++++++++++++++++.",
" .++++++++++++++. ",
"  ..............  "};
