/* XPM */
static char * title_2_inactive_xpm[] = {
"4 22 10 1",
" 	c None",
".	c #000000",
"+	c #DEDCD7",
"@	c #D9D7D2",
"#	c #D5D2CD",
"$	c #D0CEC8",
"%	c #CECBC5",
"&	c #CCC9C3",
"*	c #CAC7C1",
"=	c #BDBAB3",
"....",
"++++",
"@@@@",
"####",
"$$$$",
"$$$$",
"$$$$",
"$$$$",
"$$$$",
"$$$$",
"$$$$",
"$$$$",
"$$$$",
"$$$$",
"$$$$",
"$$$$",
"$$$$",
"%%%%",
"&&&&",
"****",
"****",
"===="};
