/* XPM */
static char * title_4_active_xpm[] = {
"4 22 9 1",
" 	c None",
".	c #000000",
"+	c #2D3F4E",
"@	c #B8BEC1",
"#	c #BEC5C9",
"$	c #C4CCD2",
"%	c #CAD4DB",
"&	c #D0DBE3",
"*	c #75828A",
"....",
"+@@@",
"+@@@",
"+@@@",
"+@@@",
"+@@@",
"+@@@",
"+@@@",
"+@@@",
"+@@@",
"+@@@",
"+@@@",
"+@@@",
"+@@@",
"+@@@",
"+@@@",
"+@@@",
"+###",
"+$$$",
"+%%%",
"+&&&",
"+***"};
