<?xml version="1.0" encoding="UTF-8"?>
<svg id="Set_5" data-name="Set 5" xmlns="http://www.w3.org/2000/svg" width="48" height="48" viewBox="0 0 48 48">
  <g>
    <g>
      <rect x="35.467793" y="42.7507" width="2.0034999" height="2.0034"/>
      <rect x="27.4541932" y="42.7507" width="2.0033999" height="2.0034"/>
      <rect x="19.4404934" y="42.7507" width="2.0033999" height="2.0034"/>
      <rect x="11.4268936" y="42.7507" width="2.0033999" height="2.0034"/>
      <rect x="3.4131939" y="42.7507" width="2.0033999" height="2.0034"/>
      <rect x="3.4131939" y="10.6961" width="2.0033999" height="2.0034"/>
      <rect x="3.4131939" y="18.7097" width="2.0033999" height="2.0035"/>
      <rect x="3.4131939" y="26.7234" width="2.0033999" height="2.0034"/>
      <rect x="3.4131939" y="34.7371" width="2.0033999" height="2.0034"/>
    </g>
    <rect x="5.4165938" y="6.6892" width="2.0034062" height="36.0615"/>
    <rect x="5.4165938" y="40.7473" width="36.0614991" height="2.0034"/>
  </g>
  <g>
    <g>
      <g>
        <rect x="35.467793" y="42.7507" width="2.0034999" height="2.0034"/>
        <rect x="27.4541932" y="42.7507" width="2.0033999" height="2.0034"/>
        <rect x="19.4404934" y="42.7507" width="2.0033999" height="2.0034"/>
        <rect x="11.4268936" y="42.7507" width="2.0033999" height="2.0034"/>
      </g>
      <rect x="3.4131939" y="42.7507" width="2.0033999" height="2.0034"/>
      <g>
        <rect x="3.4131939" y="10.6961" width="2.0033999" height="2.0034"/>
        <rect x="3.4131939" y="18.7097" width="2.0033999" height="2.0035"/>
        <rect x="3.4131939" y="26.7234" width="2.0033999" height="2.0034"/>
        <rect x="3.4131939" y="34.7371" width="2.0033999" height="2.0034"/>
      </g>
    </g>
    <g opacity=".75">
      <rect x="7.42" y="10.6961" width="34.0580929" height="2.0034" fill="#219630"/>
      <rect x="7.42" y="18.7097" width="34.0580929" height="2.0035" fill="#219630"/>
      <rect x="7.42" y="26.7234" width="34.0580929" height="2.0034" fill="#219630"/>
      <rect x="7.42" y="34.7371" width="34.0580929" height="2.0034" fill="#219630"/>
    </g>
    <rect x="5.4165938" y="6.6892" width="2.0034062" height="36.0615"/>
    <rect x="5.4165938" y="40.7473" width="36.0614991" height="2.0034"/>
  </g>
</svg>