<?xml version="1.0" encoding="UTF-8"?>
<svg id="Set_2" data-name="Set 2" xmlns="http://www.w3.org/2000/svg" width="48" height="48" viewBox="0 0 48 48">
  <polygon points="15.5084851 15.9687 12.3917851 35.5295 7.5633853 25.6522 3.9868853 27.416 4.3760853 28.225 6.7297853 27.0726 12.6872851 39.3788 16.163785 17.3421 42.7150844 17.3421 42.7150844 15.9687 15.5084851 15.9687"/>
  <path d="M33.8012846,35.7005c0,1.2894.0353,2.6119.2368,3.867h-1.4947l-.2348-2.339h-.0685846c-.8137153,1.2552-2.6118153,2.7127-5.2237152,2.7127-3.2887999,0-4.7834999-2.3058-4.7834999-4.4773,0-3.7642,3.2927999-6.0387,9.9406997-5.9701v-.4422c0-1.5925-.3071-4.8168-4.1748999-4.7825-1.4244,0-2.9171999.3736-4.1047999,1.2216l-.5087-1.1884c1.4928-.9833,3.3260999-1.3902,4.7835999-1.3902,4.7169999,0,5.6325999,3.5277,5.6325999,6.4114v6.377ZM32.1734846,30.8505c-3.5645999-.1026-8.2443998.4411-8.2443998,4.3424,0,2.34,1.5612,3.3916,3.2574999,3.3916,2.7115999,0,4.2728999-1.6621,4.8147999-3.2566.1371-.3394.1721-.7112.1721-.9831v-3.4943Z"/>
</svg>