<?xml version="1.0" encoding="UTF-8"?>
<svg id="Set_2" data-name="Set 2" xmlns="http://www.w3.org/2000/svg" width="48" height="48" viewBox="0 0 48 48">
  <g>
    <g>
      <polygon points="7.2560962 13.8833 7.2560962 35.9209 9.2594961 35.9209 39.3107954 35.9209 39.3107954 15.8868 39.3107954 13.8833 7.2560962 13.8833" fill="#555"/>
      <polygon points="7.2560962 13.8833 7.2560962 35.9209 9.2594961 35.9209 39.3107954 35.9209 39.3107954 15.8868 39.3107954 13.8833 7.2560962 13.8833" fill="none" stroke="#555" stroke-width="2"/>
    </g>
    <rect x="7.2560962" y="13.8833" width="32.0546992" height="22.0376" fill="#fff"/>
    <rect x="9.2594961" y="15.8868" width="30.0512992" height="20.0341" fill="silver"/>
    <rect x="9.2594961" y="15.8868" width="28.0477993" height="18.0307" fill="#d7d7d7"/>
  </g>
  <g opacity=".75">
    <path d="M19.4496959,29.7532c-2.1910999,0-3.7082999-1.9555-3.7082999-4.8443,0-3.0315,1.6159-5.0143,3.8208999-5.0143,2.2644999,0,3.7210999,1.9976,3.7210999,4.8304,0,3.2722-1.7265,5.0282-3.8198999,5.0282h-.0138ZM19.5005959,28.7475c1.6895,0,2.6450999-1.7989,2.6450999-3.9666,0-1.8978-.8579-3.8808-2.6332999-3.8808-1.7763959,0-2.6568999,1.9125-2.6568999,3.9806,0,2.0112.9558,3.8668,2.6325041,3.8668h.0125959Z"/>
    <path d="M25.594,20.0511h1.2334957v4.6026h.042c.2555043-.3678.5107-.7082.7505043-1.0203l2.918-3.5823h1.53l-3.4561044,4.0509,3.7249999,5.4947h-1.4595l-3.1283956-4.6878-.9215043,1.0478v3.64h-1.2334957v-9.5456Z"/>
  </g>
</svg>