<?xml version='1.0' encoding='UTF-8'?>
<svg xmlns="http://www.w3.org/2000/svg" xmlns:xlink="http://www.w3.org/1999/xlink" id="Icons_-_24x24" data-name="Icons - 24x24" width="48" height="48" viewBox="0 0 48 48">
  <defs>
    <mask id="mask" x="7.7866" y="16.8505" width="30.7481" height="23.9111" maskUnits="userSpaceOnUse">
      <polygon points="19.0962 39.8827 36.1738 35.4105 36.1738 22.0009 9.4736 16.8505 9.4736 30.2601 19.0962 39.8827" fill="#fff" fill-rule="evenodd"/>
    </mask>
    <mask id="mask-1" x="7.7866" y="18.0917" width="12.8486" height="22.6699" maskUnits="userSpaceOnUse">
      <rect x="7.7866" y="19.2904" width="11.3404" height="21.4712" fill="#fff"/>
    </mask>
    <linearGradient id="New_Gradient_120" data-name="New Gradient 120" x1="20.0424903" y1="40.1670737" x2="6.8711097" y2="19.8849263" gradientUnits="userSpaceOnUse">
      <stop offset="0" stop-color="#c1a35f"/>
      <stop offset="1" stop-color="#a78631"/>
    </linearGradient>
    <linearGradient id="New_Gradient_393" data-name="New Gradient 393" x1="14.37765" y1="18.0917" x2="14.37765" y2="30.0692" gradientUnits="userSpaceOnUse">
      <stop offset="0" stop-color="#6f4b0a"/>
      <stop offset="1" stop-color="#a78631"/>
    </linearGradient>
    <linearGradient id="New_Gradient_394" data-name="New Gradient 394" x1="27.4099387" y1="19.6201551" x2="29.2881726" y2="30.272149" gradientUnits="userSpaceOnUse">
      <stop offset="0" stop-color="#6f4b0a"/>
      <stop offset="1" stop-color="#957630"/>
    </linearGradient>
    <mask id="mask-2" x="9.4736" y="7.2743" width="30.2559" height="21.2939" maskUnits="userSpaceOnUse">
      <polygon points="19.0962 26.475 36.1738 22.0009 26.6362 12.4652 9.4736 16.8505 19.0962 26.475" fill="#fff" fill-rule="evenodd"/>
    </mask>
    <linearGradient id="New_Gradient_395" data-name="New Gradient 395" x1="20.55527" y1="12.0059998" x2="25.1166978" y2="26.9257579" gradientUnits="userSpaceOnUse">
      <stop offset="0" stop-color="#6f4b0a"/>
      <stop offset="1" stop-color="#52380d"/>
    </linearGradient>
    <linearGradient id="New_Gradient_119" data-name="New Gradient 119" x1="33.1614" y1="7.2743" x2="33.1614" y2="28.5682" gradientUnits="userSpaceOnUse">
      <stop offset="0" stop-color="#a78631"/>
      <stop offset=".696625" stop-color="#6f4b0a"/>
      <stop offset="1" stop-color="#6f4b0a"/>
    </linearGradient>
    <mask id="mask-3" x="9.4736" y="1.0048" width="28.6231" height="30.9487" maskUnits="userSpaceOnUse">
      <polygon points="19.0962 26.475 36.1738 22.0009 38.0967 1.0048 9.5454 1.62 9.4736 16.8505 19.0962 26.475" fill="#fff" fill-rule="evenodd"/>
    </mask>
    <mask id="mask-4" x="12.379" y="9.6581" width="13.9984" height="17.6899" maskUnits="userSpaceOnUse">
      <path d="M21.8945,26.348h-8.5155l.0004-15.6894,11.998-.0005-.0083,12.207c.0005,1.6597-1.8579,3.4829-3.4746,3.4829Z" fill="#fff" fill-rule="evenodd" stroke="#fff" stroke-linecap="round" stroke-linejoin="round" stroke-width="2"/>
    </mask>
    <linearGradient id="New_Gradient_399" data-name="New Gradient 399" x1="15.1346596" y1="9.8025027" x2="23.6216262" y2="27.203363" gradientUnits="userSpaceOnUse">
      <stop offset="0" stop-color="#e5e5e5"/>
      <stop offset="1" stop-color="#fff"/>
    </linearGradient>
    <radialGradient id="New_Gradient_400" data-name="New Gradient 400" cx="-100.6588975" cy="85.2097371" fx="-100.6588975" fy="85.2097371" r="7.5279902" gradientTransform="translate(75.757 -23.7374) scale(.5406)" gradientUnits="userSpaceOnUse">
      <stop offset="0" stop-color="#fff"/>
      <stop offset="1" stop-color="#ccc"/>
    </radialGradient>
    <mask id="mask-5" x="13.379" y="10.6581" width="12.015" height="15.748" maskUnits="userSpaceOnUse">
      <path d="M21.8945,26.348h-8.5155l.0004-15.6894,11.998-.0005-.0083,12.207c.0005,1.6597-1.8579,3.4829-3.4746,3.4829Z" fill="#fff" fill-rule="evenodd"/>
    </mask>
    <linearGradient id="New_Gradient_39" data-name="New Gradient 39" x1="15.1346596" y1="9.8025027" x2="23.6216262" y2="27.203363" gradientUnits="userSpaceOnUse">
      <stop offset="0" stop-color="#e5e5e5"/>
      <stop offset=".286514" stop-color="#f2f2f2"/>
      <stop offset=".646072" stop-color="#fff"/>
      <stop offset="1" stop-color="#fff"/>
    </linearGradient>
    <radialGradient id="New_Gradient_40" data-name="New Gradient 40" cx="-100.6588975" cy="85.2097371" fx="-100.6588975" fy="85.2097371" r="7.5279902" gradientTransform="translate(75.757 -23.7374) scale(.5406)" gradientUnits="userSpaceOnUse">
      <stop offset="0" stop-color="#e5e5e5"/>
      <stop offset=".331467" stop-color="#e5e5e5"/>
      <stop offset="1" stop-color="#999"/>
    </radialGradient>
    <mask id="mask-6" x="13.0268" y="8.0585" width="21.4352" height="23.895" maskUnits="userSpaceOnUse">
      <path d="M24.4287,30.8173l-10.4019-2.5933,4.7793-19.1655,14.6559,3.6523-3.729,14.9107c-.503,2.0258-3.3302,3.6875-5.3043,3.1958Z" fill="#fff" fill-rule="evenodd" stroke="#fff" stroke-linecap="round" stroke-linejoin="round" stroke-width="2"/>
    </mask>
    <linearGradient id="New_Gradient_399-2" data-name="New Gradient 399" x1="18.3002426" y1="9.3052231" x2="29.0233703" y2="31.2908931" gradientUnits="userSpaceOnUse"><stop offset="0" stop-color="#e5e5e5"/><stop offset="1" stop-color="#fff"/></linearGradient>
    <radialGradient id="New_Gradient_400-2" data-name="New Gradient 400" cx="-38.0223901" cy="85.3878338" fx="-38.0223901" fy="85.3878338" r="7.5281294" gradientTransform="translate(64.1381 -24.3874) rotate(13.9872396) scale(.6805795)" gradientUnits="userSpaceOnUse"><stop offset="0" stop-color="#fff"/><stop offset="1" stop-color="#ccc"/></radialGradient>
    <mask id="mask-7" x="14.0268" y="9.0585" width="19.4352" height="22.895" maskUnits="userSpaceOnUse">
      <path d="M24.4287,30.8173l-10.4019-2.5933,4.7793-19.1655,14.6559,3.6523-3.729,14.9107c-.503,2.0258-3.3302,3.6875-5.3043,3.1958Z" fill="#fff" fill-rule="evenodd"/>
    </mask>
    <linearGradient id="linear-gradient" x1="21.275119" y1="30.0136172" x2="26.1870156" y2="10.865146" gradientUnits="userSpaceOnUse">
      <stop offset="0" stop-color="#919191"/>
      <stop offset=".646072" stop-color="#fff"/>
      <stop offset="1" stop-color="#fff"/>
    </linearGradient>
    <radialGradient id="New_Gradient_40-2" data-name="New Gradient 40" cx="-38.0223901" cy="85.3878338" fx="-38.0223901" fy="85.3878338" r="7.5281294" gradientTransform="translate(64.1381 -24.3874) rotate(13.9872396) scale(.6805795)" gradientUnits="userSpaceOnUse"><stop offset="0" stop-color="#e5e5e5"/><stop offset=".331467" stop-color="#e5e5e5"/><stop offset="1" stop-color="#999"/></radialGradient>
    <linearGradient id="linear-gradient-2" x1="27.7722789" y1="26.055968" x2="39.7075567" y2="41.9696704" gradientUnits="userSpaceOnUse">
      <stop offset="0" stop-color="#9acb9e"/>
      <stop offset=".1373406" stop-color="#92c697"/>
      <stop offset=".3445527" stop-color="#7db885"/>
      <stop offset=".5958409" stop-color="#5ba268"/>
      <stop offset=".8793332" stop-color="#2d8340"/>
      <stop offset="1" stop-color="#17752e"/>
    </linearGradient>
  </defs>
  <g>
    <g>
      <polygon points="26.6362 12.4652 32.0503 7.0614 41.5576 16.641 36.1738 22.0009 42.021 22.0443 36.1738 23.6381 36.1738 35.4105 19.0962 39.8827 9.4736 30.2601 9.4736 22.5761 3.7524 16.8558 9.4736 16.8505 7.5376 9.745 24.3164 5.5687 26.6362 12.4652" fill="#a78631" stroke="#000" stroke-linecap="round" stroke-linejoin="round" stroke-width="2"/>
      <g mask="url(#mask)">
        <g>
          <polygon points="19.0962 39.8827 36.1738 35.4105 36.1738 22.0009 9.4736 16.8505 9.4736 30.2601 19.0962 39.8827" fill="#a78631" fill-rule="evenodd"/>
          <g mask="url(#mask-1)">
            <g>
              <rect x="7.7866" y="19.2904" width="11.3404" height="21.4712" fill="url(#New_Gradient_120)"/>
              <polygon points="8.1201 23.4745 14.7158 30.0692 20.6352 26.1591 12.4 18.0917 8.1201 23.4745" fill="url(#New_Gradient_393)" fill-rule="evenodd"/>
            </g>
          </g>
          <polygon points="18.3208 25.8514 23.15 29.2728 38.5347 24.9335 36.2051 20.5912 18.3208 25.8514" fill="url(#New_Gradient_394)" fill-rule="evenodd"/>
        </g>
      </g>
      <g mask="url(#mask-2)">
        <g>
          <polygon points="19.0962 26.475 36.1738 22.0009 26.6362 12.4652 9.4736 16.8505 19.0962 26.475" fill="url(#New_Gradient_395)" fill-rule="evenodd"/>
          <rect x="26.5933" y="7.2743" width="13.1362" height="21.2939" fill="url(#New_Gradient_119)"/>
        </g>
      </g>
      <polygon points="7.5376 9.745 9.4736 16.8505 26.6362 12.4652 24.3164 5.5687 7.5376 9.745" fill="#c1a35f" fill-rule="evenodd"/>
      <polygon points="26.6362 12.4652 36.1738 22.0009 41.5576 16.641 32.0503 7.0614 26.6362 12.4652" fill="#f8dea0" fill-rule="evenodd"/>
      <line x1="19.127" y1="39.2152" x2="19.127" y2="26.9325" fill="none" stroke="#6f4b0a" stroke-linecap="round" stroke-miterlimit="3.8637"/>
      <line x1="9.7588" y1="16.8099" x2="26.3306" y2="12.4901" fill="none" stroke="#a78631" stroke-linecap="round" stroke-miterlimit="3.8637"/>
      <line x1="26.874" y1="12.8534" x2="35.6724" y2="21.7128" fill="none" stroke="#c1a35f" stroke-linecap="round" stroke-miterlimit="3.8637"/>
      <polyline points="9.6977 23.3798 13.1113 26.7938 18.857 26.7938" fill="none" stroke="#6f4b0a" stroke-linecap="round" stroke-miterlimit="3.8637" stroke-width=".75"/>
      <polygon points="19.127 26.5072 25.6323 26.5072 42.021 22.0443 36.191 22.0443 19.127 26.5072" fill="#c1a35f" fill-rule="evenodd"/>
      <polygon points="9.4736 16.8505 19.0962 26.475 13.4033 26.5072 3.7524 16.8558 9.4736 16.8505" fill="#a78631" fill-rule="evenodd"/>
      <polyline points="9.5317 16.4481 7.7671 9.7933 24.2402 5.7587" fill="none" stroke="#ffdea0" stroke-linecap="round" stroke-miterlimit="3.8637" stroke-width=".5"/>
      <line x1="18.811" y1="39.2128" x2="18.811" y2="27.3095" fill="none" stroke="#ffdea0" stroke-linecap="round" stroke-miterlimit="3.8637" stroke-width=".5"/>
      <line x1="4.1626" y1="17.0639" x2="13.504" y2="26.2201" fill="none" stroke="#ffdea0" stroke-linecap="round" stroke-miterlimit="3.8637" stroke-width=".5"/>
      <polyline points="19.731 26.5892 25.1611 26.5892 40.73 22.2484" fill="none" stroke="#ffdea0" stroke-linecap="round" stroke-miterlimit="3.8637" stroke-width=".5"/>
      <g mask="url(#mask-3)">
        <g>
          <g>
            <g>
              <g mask="url(#mask-4)">
                <g>
                  <path d="M21.8945,26.348h-8.5155l.0004-15.6894,11.998-.0005-.0083,12.207c.0005,1.6597-1.8579,3.4829-3.4746,3.4829Z" fill="url(#New_Gradient_399)" fill-rule="evenodd"/>
                  <path d="M21.3408,26.4061s1.9878-.0766,1.9878-2.2837c2.0488,0,2.0654-1.7861,2.0654-1.7861v4.0698h-4.0532Z" fill="url(#New_Gradient_400)" fill-rule="evenodd"/>
                  <path d="M21.8945,26.348h-8.5155l.0004-15.6894,11.998-.0005-.0083,12.207c.0005,1.6597-1.8579,3.4829-3.4746,3.4829Z" fill="none" fill-rule="evenodd" stroke="#000" stroke-linecap="round" stroke-linejoin="round" stroke-width="2"/>
                </g>
              </g>
              <g mask="url(#mask-5)">
                <g>
                  <path d="M21.8945,26.348h-8.5155l.0004-15.6894,11.998-.0005-.0083,12.207c.0005,1.6597-1.8579,3.4829-3.4746,3.4829Z" fill="url(#New_Gradient_39)" fill-rule="evenodd"/>
                  <path d="M21.3408,26.4061s1.9878-.0766,1.9878-2.2837c2.0488,0,2.0654-1.7861,2.0654-1.7861v4.0698h-4.0532Z" fill="url(#New_Gradient_40)" fill-rule="evenodd"/>
                </g>
              </g>
            </g>
            <g>
              <path d="M14.8452,21.4857c3.0405-.0005,6.0806,0,9.1231.001" fill="none" stroke="#b3b3b3" stroke-linecap="round" stroke-linejoin="round" stroke-width="1.0502"/>
              <path d="M14.8452,13.6415c3.0405,0,6.0806.0019,9.1231.0019" fill="none" stroke="#b3b3b3" stroke-linecap="round" stroke-linejoin="round" stroke-width="1.0502"/>
              <path d="M14.8452,16.7792c3.0405,0,6.0806.0014,9.1231.0014" fill="none" stroke="#b3b3b3" stroke-linecap="round" stroke-linejoin="round" stroke-width="1.0502"/>
              <path d="M14.8452,15.2108c3.0405-.0005,6.0806.0005,9.1231.0005" fill="none" stroke="#b3b3b3" stroke-linecap="round" stroke-linejoin="round" stroke-width="1.0502"/>
              <path d="M14.8452,19.9169h9.1231" fill="none" stroke="#b3b3b3" stroke-linecap="round" stroke-linejoin="round" stroke-width="1.0502"/>
              <path d="M14.8452,18.3475c3.0405,0,6.0806.0005,9.1231.0005" fill="none" stroke="#b3b3b3" stroke-linecap="round" stroke-linejoin="round" stroke-width="1.0502"/>
            </g>
          </g>
          <g>
            <g>
              <g mask="url(#mask-6)">
                <g>
                  <path d="M24.4287,30.8173l-10.4019-2.5933,4.7793-19.1655,14.6559,3.6523-3.729,14.9107c-.503,2.0258-3.3302,3.6875-5.3043,3.1958Z" fill="url(#New_Gradient_399-2)" fill-rule="evenodd"/>
                  <path d="M23.7344,30.7186s2.4526.5127,3.125-2.1836c2.5024.6241,3.0649-1.5537,3.0649-1.5537l-1.2392,4.9722-4.9507-1.2349Z" fill="url(#New_Gradient_400-2)" fill-rule="evenodd"/>
                  <path d="M24.4287,30.8173l-10.4019-2.5933,4.7793-19.1655,14.6559,3.6523-3.729,14.9107c-.503,2.0258-3.3302,3.6875-5.3043,3.1958Z" fill="none" fill-rule="evenodd" stroke="#000" stroke-linecap="round" stroke-linejoin="round" stroke-width="2"/>
                </g>
              </g>
              <g mask="url(#mask-7)">
                <g>
                  <path d="M24.4287,30.8173l-10.4019-2.5933,4.7793-19.1655,14.6559,3.6523-3.729,14.9107c-.503,2.0258-3.3302,3.6875-5.3043,3.1958Z" fill="url(#linear-gradient)" fill-rule="evenodd"/>
                  <path d="M23.7344,30.7186s2.4526.5127,3.125-2.1836c2.5024.6241,3.0649-1.5537,3.0649-1.5537l-1.2392,4.9722-4.9507-1.2349Z" fill="url(#New_Gradient_40-2)" fill-rule="evenodd"/>
                </g>
              </g>
            </g>
            <g>
              <path d="M17.2978,22.7304c3.7149.9248,7.4292,1.8535,11.1452,2.7793" fill="none" stroke="#b3b3b3" stroke-linecap="round" stroke-linejoin="round" stroke-width="1.0502"/>
              <path d="M19.687,13.1503c3.7144.9248,7.4277,1.8525,11.145,2.7788" fill="none" stroke="#b3b3b3" stroke-linecap="round" stroke-linejoin="round" stroke-width="1.0502"/>
              <path d="M18.732,16.9823c3.7148.9248,7.4267,1.853,11.1445,2.7788" fill="none" stroke="#b3b3b3" stroke-linecap="round" stroke-linejoin="round" stroke-width="1.0502"/>
              <path d="M19.2095,15.0653c3.7143.9258,7.4277,1.853,11.1445,2.7798" fill="none" stroke="#b3b3b3" stroke-linecap="round" stroke-linejoin="round" stroke-width="1.0502"/>
              <path d="M17.7764,20.8153c3.7138.9243,7.4272,1.8521,11.1446,2.7778" fill="none" stroke="#b3b3b3" stroke-linecap="round" stroke-linejoin="round" stroke-width="1.0502"/>
              <path d="M18.254,18.8978c3.7147.9258,7.4281,1.8531,11.144,2.7798" fill="none" stroke="#b3b3b3" stroke-linecap="round" stroke-linejoin="round" stroke-width="1.0502"/>
            </g>
          </g>
        </g>
      </g>
    </g>
    <line x1="19.0962" y1="26.475" x2="9.4736" y2="16.8505" fill="none" stroke="#7e5b39" stroke-linecap="round" stroke-miterlimit="3.8637" stroke-width=".5"/>
  </g>
  <g>
    <path d="M34.8096,26.4335c4.9658,0,8.9965,4.0307,8.9965,9.0034,0,4.9697-4.0307,8.9966-8.9965,8.9966-4.9712,0-9.0035-4.0269-9.0035-8.9966,0-4.9727,4.0323-9.0034,9.0035-9.0034Z" fill="url(#linear-gradient-2)" stroke="#000"/>
    <g>
      <polygon points="30.2207 34.0531 33.5527 34.0531 33.5527 30.7186 36.2593 30.7186 36.2593 34.0531 39.5947 34.0531 39.5947 36.7582 36.2593 36.7582 36.2593 40.0902 33.5527 40.0902 33.5527 36.7582 30.2207 36.7582 30.2207 34.0531" fill="#fff" stroke="#196e19" stroke-linecap="round" stroke-linejoin="round" stroke-width="2"/>
      <polyline points="36.2593 38.3588 36.2593 40.0902 33.5527 40.0902 33.5527 36.7582 30.2207 36.7582 30.2207 34.0531 33.5527 34.0531 33.5527 30.7186 36.2593 30.7186 36.2593 34.0531 39.5947 34.0531 39.5947 36.7582 36.2593 36.7582 36.2593 38.3588" fill="#fff"/>
    </g>
  </g>
  <line x1="19.0962" y1="26.475" x2="36.1738" y2="22.0009" fill="#7e5b39" stroke="#7e5b39" stroke-linecap="round" stroke-miterlimit="3.8637" stroke-width=".5"/>
</svg>