<?xml version="1.0" encoding="UTF-8"?>
<svg id="Set_1" data-name="Set 1" xmlns="http://www.w3.org/2000/svg" width="48" height="48" viewBox="0 0 48 48">
  <g>
    <line x1="20.2481813" y1="15.0306" x2="38.1380808" y2="15.0306" fill="none" stroke="#000" stroke-linecap="round" stroke-miterlimit="3.8637" stroke-width=".7125"/>
    <line x1="20.2481813" y1="25.0477" x2="38.1380808" y2="25.0477" fill="none" stroke="#000" stroke-linecap="round" stroke-miterlimit="3.8637" stroke-width=".7125"/>
    <line x1="20.2481813" y1="35.0648" x2="34.1312809" y2="35.0648" fill="none" stroke="#000" stroke-linecap="round" stroke-miterlimit="3.8637" stroke-width=".7125"/>
  </g>
  <g>
    <line x1="20.2481813" y1="17.034" x2="38.1380808" y2="17.034" fill="none" stroke="#999" stroke-linecap="round" stroke-miterlimit="3.8637" stroke-width=".7125"/>
    <line x1="20.2481813" y1="27.0511" x2="38.1380808" y2="27.0511" fill="none" stroke="#999" stroke-linecap="round" stroke-miterlimit="3.8637" stroke-width=".7125"/>
    <line x1="20.2481813" y1="37.0682" x2="34.1312809" y2="37.0682" fill="none" stroke="#999" stroke-linecap="round" stroke-miterlimit="3.8637" stroke-width=".7125"/>
  </g>
  <path d="M14.2497815,14.5348c0,1.6472-1.3362,2.9817-2.9816999,2.9817-1.6492,0-2.9833999-1.3345-2.9833999-2.9817,0-1.6474,1.3342-2.9827,2.9833999-2.9827,1.6455,0,2.9816999,1.3353,2.9816999,2.9827Z" fill="#3f3f3f"/>
  <path d="M14.2497815,24.5519c0,1.6472-1.3362,2.9816-2.9816999,2.9816-1.6492,0-2.9833999-1.3344-2.9833999-2.9816,0-1.6475,1.3342-2.9827,2.9833999-2.9827,1.6455,0,2.9816999,1.3352,2.9816999,2.9827Z" fill="#3f3f3f"/>
  <path d="M14.2497815,34.5689c0,1.6472-1.3362,2.9817-2.9816999,2.9817-1.6492,0-2.9833999-1.3345-2.9833999-2.9817,0-1.6474,1.3342-2.9827,2.9833999-2.9827,1.6455,0,2.9816999,1.3353,2.9816999,2.9827Z" fill="#3f3f3f"/>
</svg>