<?xml version='1.0' encoding='UTF-8'?>
<svg xmlns="http://www.w3.org/2000/svg" xmlns:xlink="http://www.w3.org/1999/xlink" id="Icons_-_24x24" data-name="Icons - 24x24" width="48" height="48" viewBox="0 0 48 48">
  <defs>
    <linearGradient id="linear-gradient" x1="6.086965" y1="4.4248652" x2="27.6091609" y2="37.6864953" gradientUnits="userSpaceOnUse">
      <stop offset="0" stop-color="#555b91"/>
      <stop offset=".539326" stop-color="#a4aad9"/>
      <stop offset=".6294817" stop-color="#9ca2d1"/>
      <stop offset=".7675427" stop-color="#868cbe"/>
      <stop offset=".9354859" stop-color="#646a9e"/>
      <stop offset="1" stop-color="#555b91"/>
    </linearGradient>
    <linearGradient id="linear-gradient-2" x1="12.3195039" y1="6.2939204" x2="22.7901104" y2="22.4757934" gradientUnits="userSpaceOnUse"><stop offset="0" stop-color="#555b91"/><stop offset=".539326" stop-color="#a4aad9"/><stop offset=".6294817" stop-color="#9ca2d1"/><stop offset=".7675427" stop-color="#868cbe"/><stop offset=".9354859" stop-color="#646a9e"/><stop offset="1" stop-color="#555b91"/></linearGradient>
  </defs>
  <rect x="17.8598959" y="9.4971" width="3.9999999" height="32.8008" fill="#999" stroke="#000" stroke-linecap="round" stroke-linejoin="round" stroke-width="2"/>
  <polygon points="30.3744956 18.04 19.9213959 7.5869 9.4652961 18.04 30.3744956 18.04" fill="#999" stroke="#000" stroke-linecap="round" stroke-linejoin="round" stroke-width="2"/>
  <rect x="17.981" y="9.4971" width="4" height="32.8008" fill="url(#linear-gradient)"/>
  <polygon points="30.3744956 18.04 19.9213959 7.5869 9.4652961 18.04 30.3744956 18.04" fill="url(#linear-gradient-2)"/>
  <g>
    <path d="M38.687561,19.5394974h-1.5820312v-10.0810547c-.3809509.3633728-.8804169.7266083-1.4985352,1.0898438-.6182556.3633728-1.1733398.6358337-1.6655273.8173828v-1.5292969c.8846741-.4159698,1.6581116-.9198303,2.3203125-1.5117188.6620636-.5917511,1.1307678-1.1659241,1.40625-1.7226562h1.0195312v12.9375Z"/>
    <path d="M32.9658813,41.5620041l1.5205078-.140625c.1288147.7149353.3749084,1.23349.7382812,1.5556641.3632355.3223114.8290558.4833984,1.3974609.4833984.4862823,0,.9125519-.1112366,1.2788086-.3339844.3661194-.2226105.6664581-.519928.9008789-.8920898.2342834-.3720245.4306641-.8745117.5888672-1.5073242s.2373047-1.277298.2373047-1.9335938c0-.0703125-.0030212-.1757812-.0087891-.3164062-.3164062.5039978-.7485809.9126892-1.2963867,1.2260742-.5479431.3135223-1.1412048.4702148-1.7797852.4702148-1.0664978,0-1.96875-.3867188-2.7070312-1.1601562s-1.1074219-1.7929688-1.1074219-3.0585938c0-1.3065491.3852081-2.3583527,1.1557617-3.1552734.7704163-.7967834,1.7358398-1.1953125,2.8959961-1.1953125.8378448,0,1.6040039.2256317,2.2983398.6767578.6943359.4512634,1.2216797,1.0942383,1.5820312,1.9291992s.5405273,2.043457.5405273,3.6254883c0,1.6465759-.1788025,2.9575195-.5361328,3.9331055-.3574677.9755859-.8892059,1.7182617-1.5952148,2.2280273-.7061462.5097656-1.5336914.7646484-2.4829102.7646484-1.0078583,0-1.8311462-.2797394-2.4697266-.8393555-.6387177-.5594788-1.0225525-1.3460999-1.1513672-2.3598633ZM39.4434204,35.8754807c0-.9081573-.2416992-1.6288605-.7250977-2.1621094-.4833984-.5331116-1.0649872-.7998047-1.7446289-.7998047-.703125,0-1.3154755.2871552-1.8369141.8613281-.5215759.5743103-.7822266,1.3183594-.7822266,2.2324219,0,.8204041.247467,1.4868622.7426758,1.9995117.4950714.5127869,1.1059113.769043,1.8325195.769043.7323761,0,1.3344269-.2562561,1.8061523-.769043.4715881-.5126495.7075195-1.223053.7075195-2.1313477Z"/>
  </g>
  <rect x="36.481" y="24.04" width="2" height="2"/>
  <rect x="36.481" y="28.04" width="2" height="2"/>
</svg>