<?xml version="1.0" encoding="UTF-8"?>
<svg id="Icons_-_24x24" data-name="Icons - 24x24" xmlns="http://www.w3.org/2000/svg" width="48" height="48" xmlns:xlink="http://www.w3.org/1999/xlink" viewBox="0 0 48 48">
  <defs>
    <linearGradient id="New_Gradient_19" data-name="New Gradient 19" x1="23.9505148" y1="3.9282031" x2="23.9505148" y2="44.0957477" gradientUnits="userSpaceOnUse">
      <stop offset="0" stop-color="#999"/>
      <stop offset=".303375" stop-color="#b2b2b2"/>
      <stop offset="1" stop-color="#b2b2b2"/>
    </linearGradient>
    <linearGradient id="New_Gradient_26" data-name="New Gradient 26" x1="9.891182" y1="-21.314169" x2="38.0097393" y2="-21.314169" gradientTransform="translate(0 47.7784) rotate(13.9984894) scale(1.0306069 .9703021) skewX(13.2089399)" gradientUnits="userSpaceOnUse">
      <stop offset="0" stop-color="#ebb310"/>
      <stop offset=".168533" stop-color="#f9e917"/>
      <stop offset=".280899" stop-color="#f6f8b2"/>
      <stop offset=".387634" stop-color="#f9e917"/>
      <stop offset="1" stop-color="#d68112"/>
    </linearGradient>
    <radialGradient id="New_Gradient_27" data-name="New Gradient 27" cx="89.8436074" cy="-518.618544" fx="89.8436074" fy="-518.618544" r="44.1082384" gradientTransform="translate(-15.4715 126.5389) rotate(7.7265476) scale(.4076006 .2179035) skewX(4.1485746)" gradientUnits="userSpaceOnUse">
      <stop offset="0" stop-color="#fff"/>
      <stop offset="1" stop-color="#fff95e"/>
    </radialGradient>
    <linearGradient id="New_Gradient_28" data-name="New Gradient 28" x1="10.9048541" y1="-21.7938983" x2="18.7718387" y2="-17.2518926" gradientTransform="translate(0 47.7784) rotate(13.9984894) scale(1.0306069 .9703021) skewX(13.2089399)" gradientUnits="userSpaceOnUse">
      <stop offset="0" stop-color="#ecd600"/>
      <stop offset=".314606" stop-color="#f6f8b2"/>
      <stop offset="1" stop-color="#fff"/>
    </linearGradient>
    <radialGradient id="New_Gradient_29" data-name="New Gradient 29" cx="102.9267344" cy="-208.421648" fx="102.9267344" fy="-208.421648" r="30.3725783" gradientTransform="translate(-15.4715 107.3179) rotate(14.7184227) scale(.4176032) skewX(14.5137348)" gradientUnits="userSpaceOnUse">
      <stop offset="0" stop-color="#ebb310"/>
      <stop offset=".325836" stop-color="#ebb310"/>
      <stop offset=".853928" stop-color="#c96b0a"/>
      <stop offset="1" stop-color="#995510"/>
    </radialGradient>
    <linearGradient id="New_Gradient_32" data-name="New Gradient 32" x1="14.8648823" y1="-48.0381888" x2="31.9613081" y2="-29.0506844" gradientTransform="translate(0 47.7784) rotate(13.9984894) scale(1.0306069 .9703021) skewX(13.2089399)" gradientUnits="userSpaceOnUse">
      <stop offset="0" stop-color="gray"/>
      <stop offset="1" stop-color="#4c4c4c"/>
    </linearGradient>
    <linearGradient id="New_Gradient_33" data-name="New Gradient 33" x1="34.5282818" y1="-35.8157204" x2="12.7379433" y2="-42.0639994" gradientTransform="translate(0 47.7784) rotate(13.9984894) scale(1.0306069 .9703021) skewX(13.2089399)" gradientUnits="userSpaceOnUse">
      <stop offset="0" stop-color="#666"/>
      <stop offset=".219101" stop-color="#737373"/>
      <stop offset="1" stop-color="#fff"/>
    </linearGradient>
    <linearGradient id="New_Gradient_34" data-name="New Gradient 34" x1="28.8154391" y1="-43.0027766" x2="30.848569" y2="-33.4376522" gradientTransform="translate(0 47.7784) rotate(13.9984894) scale(1.0306069 .9703021) skewX(13.2089399)" gradientUnits="userSpaceOnUse">
      <stop offset="0" stop-color="#666"/>
      <stop offset=".51123" stop-color="#e5e5e5"/>
      <stop offset=".79776" stop-color="#fff"/>
      <stop offset="1" stop-color="gray"/>
    </linearGradient>
    <linearGradient id="New_Gradient_35" data-name="New Gradient 35" x1="24.7990618" y1="-39.3692926" x2="19.7250093" y2="-35.9468009" gradientTransform="translate(0 47.7784) rotate(13.9984894) scale(1.0306069 .9703021) skewX(13.2089399)" gradientUnits="userSpaceOnUse">
      <stop offset="0" stop-color="#666"/>
      <stop offset=".657303" stop-color="#191919"/>
      <stop offset="1" stop-color="#191919"/>
    </linearGradient>
    <linearGradient id="New_Gradient_36" data-name="New Gradient 36" x1="32.729017" y1="-47.9403755" x2="32.729017" y2="-33.4960985" gradientTransform="translate(0 47.7784) rotate(13.9984894) scale(1.0306069 .9703021) skewX(13.2089399)" gradientUnits="userSpaceOnUse">
      <stop offset="0" stop-color="#737373"/>
      <stop offset=".629211" stop-color="#191919"/>
      <stop offset="1" stop-color="#191919"/>
    </linearGradient>
    <linearGradient id="New_Gradient_37" data-name="New Gradient 37" x1="20.5537546" y1="-48.3892642" x2="20.5537546" y2="-29.2775323" gradientTransform="translate(0 47.7784) rotate(13.9984894) scale(1.0306069 .9703021) skewX(13.2089399)" gradientUnits="userSpaceOnUse">
      <stop offset="0" stop-color="#999"/>
      <stop offset=".303375" stop-color="#b2b2b2"/>
      <stop offset="1" stop-color="#b2b2b2"/>
    </linearGradient>
    <linearGradient id="New_Gradient_30" data-name="New Gradient 30" x1="27.5543605" y1="-26.9459501" x2="26.4221369" y2="-14.0045752" gradientTransform="translate(0 47.7784) rotate(13.9984894) scale(1.0306069 .9703021) skewX(13.2089399)" gradientUnits="userSpaceOnUse">
      <stop offset="0" stop-color="#ebb310"/>
      <stop offset=".561798" stop-color="#fff95e"/>
      <stop offset="1" stop-color="#ecd600"/>
    </linearGradient>
    <mask id="mask" x="21.0064262" y="27.2979" width="8.9583634" height="12.9199" maskUnits="userSpaceOnUse">
      <path d="M26.1757896,34.3916c.0039,1.3438.0058,2.0176.0117,3.3613.0078,1.961-2.8593999,1.67-2.8671999-.291-.0058-1.2558-.0058-1.8808-.0117-3.1387-1.2461-.5058-2.1718999-1.6289-2.2890999-2.9726-.1718-1.9258,1.3711-3.5879,3.4375102-3.7168,2.0702896-.125,3.8906896,1.3359,4.0585896,3.2656.1407,1.5645-.8535,2.961-2.3397999,3.4922Z" fill="#fff"/>
    </mask>
    <linearGradient id="New_Gradient_31" data-name="New Gradient 31" x1="22.3123983" y1="-23.0206719" x2="31.4055383" y2="-18.3874856" gradientTransform="translate(0 47.7784) rotate(13.9984894) scale(1.0306069 .9703021) skewX(13.2089399)" gradientUnits="userSpaceOnUse">
      <stop offset="0" stop-color="#000"/>
      <stop offset=".241577" stop-color="#000"/>
      <stop offset="1" stop-color="#995510"/>
    </linearGradient>
  </defs>
  <g>
    <path d="M37.9804893,23.0869c.1562-.5762-.3047-1.3594-1.5313-2.4238-.2421894-.2129-.5156-.4043-.7929-.582v-4.8008c-.295-7.0078-6.2558998-12.2598-12.8632894-11.2207-5.5586101.875-9.49221,5.8125-9.42781,11.7265,0,0-.0273,1.1758-.041,2.4434-1.9453.25-3.8514999.791-3.32219,2.0957-.00981-.002-.01371-.002-.02151-.002v13.0606c-.2461.9082.0039,2.1211.9062,3.7109,3.07231,5.3692,5.5898999,6.8516,9.1191998,6.9453,2.1971999.1602,4.6444999-.0566,6.6581998-.25,1.3164-.0781,2.6756999-.1914,4.1913999-.3574.4883-.0488.9961-.1055,1.5078-.1797.2812-.0371.5683-.0742.8594-.1113,2.7323999-.3711,4.5038999-1.1367,4.7577999-2.8809.039-.2832.039-.5976,0-.9375v-16.2363ZM28.3358896,17.9463c-1.3671-.1309-2.5057999-.1504-3.1014999-.1543-1.0821-.0039-2.8300999.0234-4.6054999.0625v-.5274c.0215-.7832.3672-1.6074.6348-2.5429.6699-2.3321,4.1659999-3.9063,6.3495998-2.5801.5273.3242.7031.8516.7871,1.4609,0,0-.0527,2.2735-.0645,4.2813Z" fill="url(#New_Gradient_19)" stroke="#000" stroke-miterlimit="3.8637" stroke-width="2"/>
    <path d="M10.88669,37.0947c-.9023-1.5898-1.1523-2.8027-.9062-3.7109v-13.0606c9.3299998.9981,18.6522995,1.9122,27.9999993,2.7598v16.2402c.039.3399.039.6543,0,.9375-.2539,1.7442-2.0253999,2.5098-4.7577999,2.8809-4.9335999.668-8.0507998.7344-12.2148997.8926-4.0780999.1543-6.7655998-1.0723-10.1210997-6.9395Z" fill="url(#New_Gradient_26)"/>
    <path d="M10.88669,21.458c3.36131,3.0371,6.0429998,3.668,10.1210997,3.5879,4.1640999-.082,7.2812998-.1191,12.2148997-.4648,4.4803999-.3125,6.3827998-1.1739,3.2264999-3.918-3.1561894-2.7402-9.4803998-2.8613-11.2147997-2.8711-2.2109999-.0098-7.1952998.1055-9.5546998.2363-2.5487999.1446-7.9960998.5293-4.7929999,3.4297Z" fill="url(#New_Gradient_27)" fill-rule="evenodd"/>
    <path d="M17.5878899,25.333c0,5.6914-.002,11.3828,0,17.0762,0,1.0664-1.1543.4121-1.1895-.6153-.2303899-6.9296-4.2831999-21.25-4.2831999-21.25.0059-.0019,5.4726999,4.7891,5.4726999,4.7891Z" fill="url(#New_Gradient_28)"/>
    <path d="M12.17769,21.4658c-1.1172-.9512-.58-1.3906-.58-1.3906,0,0,.4824-.8418,4.7733999-1.1016,4.3359101-.2617,10.4530997-.2343,13.5976997-.3261" fill="none" stroke="#ecd600" stroke-linecap="round" stroke-miterlimit="3.8637" stroke-width=".7366"/>
    <path d="M10.47269,20.3643v14.3222" fill="none" stroke="#fff95e" stroke-linecap="round" stroke-linejoin="round" stroke-width="1.0246"/>
    <path d="M10.42969,20.2119s2.5194999,3.5488,6.3964998,4.4649c5.2284999,1.2363,11.5389997.3632,17.0331996-.2461,1.9375-.2149,3.6718999-.7168,3.6718999-.7168" fill="none" stroke="#d68112" stroke-linecap="round" stroke-linejoin="round" stroke-width=".6058"/>
    <path d="M36.834,23.7451s.0741894,3.1153.0741894,8.1016c0,4.9902-.2324,8.1914-.3848,8.4492-.1562.2598-1.0273,1.8027-10.4335997,2.2871,0,0,6.5468998-2.2598,7.4277998-7.3203,1.1445-6.5879-4.2519999-9.9043-4.2519999-9.9043,0,0,2.8476999-.3809,4.2421999-.5879,1.4727-.2109,3.3262105-1.0254,3.3262105-1.0254Z" fill="url(#New_Gradient_29)" fill-rule="evenodd"/>
    <path d="M11.40429,36.1162s.1152.2442.334.6309c3.4139999,6.0586,5.72071,6.082,9.9491997,6.082,4.5409999,0,13.3690997-.1211,14.6796996-2.752,1.4219-2.8691-.7207-14.9707.2324-16.1054.1699-.2012,1.2988-.6797,1.2988-.6797,0,0,.0469,3.9101.0469,7.5644,0,3.6192-.0449,8.6719-.2382893,9.8438-.4297106,2.5644-7.5605105,2.7715-9.8281104,2.9746-3.4257999.3106-9.0116998,1.041-11.8749997-.6836-1.8555-1.1191-4.0878899-3.9629-5.4100999-6.623-.3672-.7403.457-.9981.8105-.252Z" fill="#ebb310"/>
    <path d="M17.0897899,19.876c1.9727.1054,3.7656999,1.0234,3.7656999,2.0586,0,1.0332-1.793,1.791-3.7656999,1.6855-1.9765-.0996-3.6581999-1.0215-3.6581999-2.0586s1.6817-1.7871,3.6581999-1.6855Z" fill="#995510"/>
    <path d="M31.7890895,19.4932c1.9765.1035,3.7655999,1.0234,3.7655999,2.0625,0,1.0332-1.7891,1.791-3.7655999,1.6855-1.9746-.1035-3.6542999-1.0234-3.6542999-2.0605,0-1.0313,1.6797-1.7891,3.6542999-1.6875Z" fill="#995510"/>
    <g>
      <path d="M13.36719,21.208c-.1074-.7559-.002-5.4219-.002-5.4219-.0644-5.914,3.8691999-10.8515,9.42781-11.7265,6.6073896-1.0391,12.5682894,4.2129,12.8632894,11.2207v6.3203c-1.375,1.6406-6.8828998,1.1172-7.2558998-.711-.1503896-.7265,0-7.2246,0-7.2246-.084-.6093-.2598-1.1367-.7871-1.4609-2.1835999-1.3262-5.6796999.248-6.3495998,2.5801-.2676.9355-.6133,1.7597-.6348,2.5429v4.6133c-1.0703,1.8711-6.9843998,1.17-7.2616998-.7324Z" fill="url(#New_Gradient_32)"/>
      <path d="M14.0507899,20.9678v-4.1114c-.0781-10.2832,11.7167997-16.9433,18.4686995-8.2168.9024,1.1739.2852,1.668-.6464895.5645-6.2636103-7.4883-15.4765101-.1543-15.4238101,8.4883v4.1621c0,1.1328-2.3983999.1348-2.3983999-.8867Z" fill="url(#New_Gradient_33)"/>
      <path d="M28.8397896,20.4951v-7.4707c0-1.0781,1.9102104-2.2519,1.9102104.5039v6.8926c.2030895.75.9843895.9863.9843895,1.4941,0,1.1368-2.8945999-.4375-2.8945999-1.4199Z" fill="url(#New_Gradient_34)"/>
      <path d="M17.1444899,22.3213c0-.7188.8477-.7461.8477-2.9121v-2.336c.1113-5.2089,4.8866999-9.3574,9.5819998-7.0586.918.4493.8399,1.3594-.0879.8809-2.6854999-1.3789-7.8553998,1.7168-7.8553998,6.1231v5.1015c0,.875-2.4863999,1.0977-2.4863999.2012Z" fill="url(#New_Gradient_35)"/>
      <path d="M32.375,21.9307v-7.8985c0-1.6855-.3008105-3.9511-1.4219105-4.998-.8066-.7481.2305-1.8477,1.0274-1.0918,0,0,.1894.1777.4726.5117,1.4961,1.7773,2.3437999,4.0234,2.3437999,6.1367v7.3731c0,.8574-2.4218894.8203-2.4218894-.0332Z" fill="url(#New_Gradient_36)"/>
      <path d="M15.3085899,22.0303v-4.7617c.082-6.1231,3.8515999-11.5547,10.0448997-11.5469.4551,0,.6387.7754.1778.7754-5.6914999.0097-8.8828998,5.5136-9.0117998,10.955v4.7872c0,.4472-1.2109.2246-1.2109-.209Z" fill="url(#New_Gradient_37)"/>
    </g>
  </g>
  <g>
    <path d="M27.166,27.4404s.1503896.086.3652896.2481c1.1796.8847,1.8769,2.1914,1.8769,3.582,0,2.3047-1.4394,3.3691-2.4511896,3.7695v3.9102c0,1.1055-1.3086103,1.2773-2.1836103,1.1523-.5703-.0761-.6523-.9707-.082-.8984,0,0,.0977.0176.2422.0195.3555.0137,1.1621-.0136,1.1621-.4726v-4.4278c1.4199-.4609,2.4550999-1.4414,2.4550999-3.2539,0-1.0761-.6445-2.2793-1.6445-2.8457-.543-.3125-.2832896-1.084.2597104-.7832Z" fill="url(#New_Gradient_30)"/>
    <g mask="url(#mask)">
      <g>
        <path d="M26.1757896,34.3916c.0039,1.3438.0058,2.0176.0117,3.3613.0078,1.961-2.8593999,1.67-2.8671999-.291-.0058-1.2558-.0058-1.8808-.0117-3.1387-1.2461-.5058-2.1718999-1.6289-2.2890999-2.9726-.1718-1.9258,1.3711-3.5879,3.4375102-3.7168,2.0702896-.125,3.8906896,1.3359,4.0585896,3.2656.1407,1.5645-.8535,2.961-2.3397999,3.4922Z"/>
        <path d="M23.8104897,27.3076s2.2910999.1582,2.2910999,1.8672c0,1.7051-1.1425896,2.8633-2.3945896,3.2207v6.625c.9960897.4766,1.5.7168,2.502,1.1973,1.5-2.8282,2.2557896-4.2403,3.7557895-7.0664-.6289-2.3418-.9414-3.5118-1.5644-5.8535-1.834.0039-2.7519999.0058-4.5898999.0097Z" fill="url(#New_Gradient_31)" fill-rule="evenodd"/>
      </g>
    </g>
  </g>
</svg>