<?xml version="1.0" encoding="UTF-8"?>
<svg id="Icons_-_24x24" data-name="Icons - 24x24" xmlns="http://www.w3.org/2000/svg" width="48" height="48" xmlns:xlink="http://www.w3.org/1999/xlink" viewBox="0 0 48 48">
  <defs>
    <radialGradient id="radial-gradient" cx="-130.4730459" cy="-29.1031198" fx="-130.4730459" fy="-29.1031198" r="28.0847378" gradientTransform="translate(131.9308 124.5109) rotate(33.5325487) scale(1.0794507 .9905174) skewX(-8.7770678)" gradientUnits="userSpaceOnUse">
      <stop offset=".230337" stop-color="#f2b712"/>
      <stop offset=".44382" stop-color="#ffcd00"/>
      <stop offset=".5335957" stop-color="#fcc900"/>
      <stop offset=".6088672" stop-color="#f3bf02"/>
      <stop offset=".678882" stop-color="#e3ad06"/>
      <stop offset=".7453308" stop-color="#ce950c"/>
      <stop offset=".775281" stop-color="#c3880f"/>
    </radialGradient>
    <radialGradient id="radial-gradient-2" cx="141.0333859" cy="-37.3866511" fx="141.0333859" fy="-37.3866511" r="5.7803668" gradientTransform="translate(-275.122 164.9826) rotate(-15.5234088) scale(2.1839686 1.6180521) skewX(-12.0874983)" gradientUnits="userSpaceOnUse">
      <stop offset=".191011" stop-color="#ecd600"/>
      <stop offset=".612359" stop-color="#fff"/>
      <stop offset=".6721602" stop-color="#fefefb"/>
      <stop offset=".7223228" stop-color="#fdfaf1"/>
      <stop offset=".7690372" stop-color="#fcf5df"/>
      <stop offset=".8136331" stop-color="#faeec7"/>
      <stop offset=".8567796" stop-color="#f8e4a7"/>
      <stop offset=".8987707" stop-color="#f5d980"/>
      <stop offset=".9398968" stop-color="#f2cb52"/>
      <stop offset=".9792847" stop-color="#eebc1e"/>
      <stop offset="1" stop-color="#ecb300"/>
    </radialGradient>
    <radialGradient id="radial-gradient-3" cx="134.7245015" cy="-30.772719" fx="134.7245015" fy="-30.772719" r="11.433602" gradientTransform="translate(-275.122 164.9826) rotate(-15.5234088) scale(2.1839686 1.6180521) skewX(-12.0874983)" gradientUnits="userSpaceOnUse">
      <stop offset=".191011" stop-color="#ecd600"/>
      <stop offset=".612359" stop-color="#fff"/>
      <stop offset=".6721602" stop-color="#fefefb"/>
      <stop offset=".7223228" stop-color="#fdfaf1"/>
      <stop offset=".7690372" stop-color="#fcf5df"/>
      <stop offset=".8136331" stop-color="#faeec7"/>
      <stop offset=".8567796" stop-color="#f8e4a7"/>
      <stop offset=".8987707" stop-color="#f5d980"/>
      <stop offset=".9398968" stop-color="#f2cb52"/>
      <stop offset=".9792847" stop-color="#eebc1e"/>
      <stop offset="1" stop-color="#ecb300"/>
    </radialGradient>
    <radialGradient id="radial-gradient-4" cx="148.7473146" cy="-19.6981048" fx="148.7473146" fy="-19.6981048" r="2.0788681" gradientTransform="translate(-321.3054 178.8528) rotate(-18.5960367) scale(2.3844933 1.7554716) skewX(-14.3747752)" gradientUnits="userSpaceOnUse">
      <stop offset=".691011" stop-color="#999"/>
      <stop offset=".9178119" stop-color="#bdbdbd"/>
      <stop offset="1" stop-color="#ccc"/>
    </radialGradient>
    <radialGradient id="radial-gradient-5" cx="148.2222511" cy="-19.8269611" fx="148.2222511" fy="-19.8269611" r="1.4182535" gradientTransform="translate(-321.3054 178.8528) rotate(-18.5960367) scale(2.3844933 1.7554716) skewX(-14.3747752)" gradientUnits="userSpaceOnUse">
      <stop offset=".106741" stop-color="#999"/>
      <stop offset=".7624016" stop-color="#bdbdbd"/>
      <stop offset="1" stop-color="#ccc"/>
    </radialGradient>
    <radialGradient id="radial-gradient-6" cx="172.1996527" cy="8.0300679" fx="172.1996527" fy="8.0300679" r="2.1637044" gradientTransform="translate(-433.5431 168.6877) rotate(-18.5964217) scale(2.7939783 2.0569173) skewX(-14.3763426)" gradientUnits="userSpaceOnUse">
      <stop offset=".691011" stop-color="#328e36"/>
      <stop offset=".8494552" stop-color="#4aae5a"/>
      <stop offset="1" stop-color="#65d081"/>
    </radialGradient>
    <radialGradient id="radial-gradient-7" cx="171.9302498" cy="7.9555888" fx="171.9302498" fy="7.9555888" r="1.6203234" gradientTransform="translate(-433.5431 168.6877) rotate(-18.5964217) scale(2.7939783 2.0569173) skewX(-14.3763426)" gradientUnits="userSpaceOnUse">
      <stop offset=".106741" stop-color="#328e36"/>
      <stop offset=".5647888" stop-color="#4aae5a"/>
      <stop offset="1" stop-color="#65d081"/>
    </radialGradient>
    <radialGradient id="radial-gradient-8" cx="388.7141926" cy="-38.7354215" fx="388.7141926" fy="-38.7354215" r="2.0371828" gradientTransform="translate(-435.8569 905.701) rotate(-56.804221) scale(2.6169788 2.1959575) skewX(13.3004904)" gradientUnits="userSpaceOnUse">
      <stop offset=".691011" stop-color="#0342d3"/>
      <stop offset=".8141137" stop-color="#274fe3"/>
      <stop offset="1" stop-color="#66f"/>
    </radialGradient>
    <radialGradient id="radial-gradient-9" cx="388.4461602" cy="-38.8430647" fx="388.4461602" fy="-38.8430647" r="1.5656295" gradientTransform="translate(-435.8569 905.701) rotate(-56.804221) scale(2.6169788 2.1959575) skewX(13.3004904)" gradientUnits="userSpaceOnUse">
      <stop offset=".106741" stop-color="#0342d3"/>
      <stop offset=".4626197" stop-color="#274fe3"/>
      <stop offset="1" stop-color="#66f"/>
    </radialGradient>
    <radialGradient id="radial-gradient-10" cx="363.9151734" cy="-22.4082093" fx="363.9151734" fy="-22.4082093" r="2.1106115" gradientTransform="translate(-511.2369 918.9108) rotate(-55.769537) scale(2.8759711 2.166403) skewX(8.3016068)" gradientUnits="userSpaceOnUse">
      <stop offset=".691011" stop-color="#a70000"/>
      <stop offset=".7940595" stop-color="#c12415"/>
      <stop offset="1" stop-color="#ff7845"/>
    </radialGradient>
    <radialGradient id="radial-gradient-11" cx="363.8374299" cy="-22.5695642" fx="363.8374299" fy="-22.5695642" r="1.7139716" gradientTransform="translate(-511.2369 918.9108) rotate(-55.769537) scale(2.8759711 2.166403) skewX(8.3016068)" gradientUnits="userSpaceOnUse">
      <stop offset=".106741" stop-color="#a70000"/>
      <stop offset=".4046447" stop-color="#c12415"/>
      <stop offset="1" stop-color="#ff7845"/>
    </radialGradient>
  </defs>
  <path d="M40.5757,22.2549c-4.7276-2.5059-10.2861-1.8047-15.0293-4.4043-4.3145-2.3574,3.9765-3.2305.8994-5.7149-5.2988-3.8418-13.6338-1.8027-17.7773,1.0664-3.3868,2.3399-4.8711,6.7696-3.2432,11.2012,3.2012,8.6543,12.8359,17.3867,24.6504,17.4766,5.206.041,10.3076-2.9727,12.876-7.4746,2.0068-3.5157,2.4462-9.5957-2.376-12.1504ZM21.6577,18.2373c1.4395,1.8457,1.5547,3.9727.249,4.7441-1.3046.7657-3.5293-.1152-4.9707-1.9589-1.4453-1.8457-1.5547-3.959-.249-4.7286,1.3008-.7695,3.5254.0977,4.9707,1.9434Z" fill="none" stroke="#000" stroke-width="2"/>
  <path d="M40.5757,22.2549c-4.7276-2.5059-10.2861-1.8047-15.0293-4.4043-4.3145-2.3574,3.9765-3.2305.8994-5.7149-5.2988-3.8418-13.6338-1.8027-17.7773,1.0664-3.3868,2.3399-4.8711,6.7696-3.2432,11.2012,3.2012,8.6543,12.8359,17.3867,24.6504,17.4766,5.206.041,10.3076-2.9727,12.876-7.4746,2.0068-3.5157,2.4462-9.5957-2.376-12.1504ZM21.6577,18.2373c1.4395,1.8457,1.5547,3.9727.249,4.7441-1.3046.7657-3.5293-.1152-4.9707-1.9589-1.4453-1.8457-1.5547-3.959-.249-4.7286,1.3008-.7695,3.5254.0977,4.9707,1.9434Z" fill="url(#radial-gradient)"/>
  <path d="M23.4897,22.8701c1.3047-.7695,1.1924-2.8984-.2519-4.7461-1.377-1.7597-3.4609-2.6269-4.7793-2.0371,1.0947.2305,2.2998.9981,3.1992,2.1504,1.4395,1.8457,1.5547,3.9727.249,4.7441-.0595.0352-.1211.0625-.1865.0899.6602.1406,1.2793.0898,1.7695-.2012Z" fill="url(#radial-gradient-2)"/>
  <path d="M7.0142,24.2998c-1.6524-4.4004-.1573-8.8652,3.2353-11.209,2.0664-1.4355,5.1758-2.6543,8.4317-3.0508-3.8086.125-7.6172,1.502-10.0127,3.1621-3.3868,2.3399-4.8711,6.7696-3.2432,11.2012,3.2012,8.6543,12.8369,17.3906,24.6504,17.4766.456.0039.9424-.0488,1.4111-.1016-12.001-.7304-21.209-8.7441-24.4726-17.4785Z" fill="url(#radial-gradient-3)"/>
  <g>
    <path d="M18.0669,27.1357c1.7051,1.6817,1.831,3.9356.2695,5.0391-1.5566,1.0977-4.206.6172-5.9111-1.0625-1.709-1.6836-1.8291-3.9238-.2705-5.0215,1.5566-1.0957,4.2051-.6367,5.9121,1.0449Z" fill="url(#radial-gradient-4)" stroke="#999" stroke-width=".5"/>
    <path d="M15.8149,31.4873c-1.7793-1.748-1.5683-4.1152.3125-4.8711-2.1787-1.5137-4.1923.0313-4.0908,1.9336.1621,3.0879,5.0869,4.2285,3.7783,2.9375" fill="url(#radial-gradient-5)"/>
  </g>
  <g>
    <path d="M25.5024,29.9424c2.0889,1.4707,1.0547,2.9668.4102,6.0176-.6494,3.0468-4.9277,1.3105-6.8428-1.168-1.9121-2.4766-1.2666-4.3418-.4052-5.9902.8681-1.6543,4.7539-.3321,6.8378,1.1406Z" fill="url(#radial-gradient-6)" stroke="#23a11f" stroke-width=".5"/>
    <path d="M23.6177,36.0225c-2.1153-2.3321-3.6055-6.6641-1.0059-7.0313-2.6426-1.4785-3.6357.709-3.3584,3.1035.457,3.8887,5.9248,5.6328,4.3643,3.9278" fill="url(#radial-gradient-7)"/>
  </g>
  <g>
    <path d="M36.019,24.1182c2.9727-.2305,4.8702,1.6797,5.2579,4.4023.3886,2.7188-.6397,4.416-3.294,3.7734-2.6533-.6503-5.9199-2.6738-6.6279-4.5078-.708-1.8379,1.6855-3.4375,4.664-3.6679Z" fill="url(#radial-gradient-8)" stroke="#0342d3" stroke-width=".5"/>
    <path d="M39.3677,30.0713c-2.8028-.3867-5.7852-2.6875-5.3057-4.7344-3.043.5977-2.1592,2.916.3565,4.6211,4.0888,2.7793,7.0127.3945,4.9492.1133" fill="url(#radial-gradient-9)"/>
  </g>
  <g>
    <path d="M30.7886,29.2197c2.6855.791,4.3623,2.9649,6.1933,5.211,1.835,2.2441-1.2216,3.7265-4.2119,3.6797-2.998-.045-7.4277-2.6231-6.2246-5.2168,1.207-2.5899,1.5576-4.4629,4.2432-3.6739Z" fill="url(#radial-gradient-10)" stroke="red" stroke-width=".5"/>
    <path d="M35.2456,35.6553c-3.5225-.3594-5.1504-3.041-5.5127-5.5235-2.2129-.0273-3.6543,3.6075-1.0185,5.625,4.291,3.2852,9.1181.1621,6.5312-.1015" fill="url(#radial-gradient-11)"/>
  </g>
</svg>