<?xml version="1.0" encoding="UTF-8"?>
<svg id="Set_4" data-name="Set 4" xmlns="http://www.w3.org/2000/svg" width="48" height="48" viewBox="0 0 48 48">
  <g opacity=".5">
    <rect x="36.1234833" y="32.4878" width="2.0033999" height="2.0034"/>
    <rect x="12.0824839" y="8.4468" width="2.0033999" height="2.0034"/>
    <rect x="12.0824839" y="40.5014" width="2.0033999" height="2.0034"/>
    <rect x="12.0824839" y="12.4536" width="2.0033999" height="2.0034"/>
    <rect x="12.0824839" y="36.4946" width="2.0033999" height="2.0034"/>
    <rect x="32.1166834" y="8.4468" width="2.0033999" height="2.0034"/>
    <rect x="32.1166834" y="40.5014" width="2.0033999" height="2.0034"/>
    <rect x="32.1166834" y="12.4536" width="2.0033999" height="2.0034"/>
    <rect x="32.1166834" y="36.4946" width="2.0033999" height="2.0034"/>
    <rect x="4.0688841" y="32.4878" width="2.0033999" height="2.0034"/>
    <rect x="40.1302832" y="32.4878" width="2.0033999" height="2.0034"/>
    <rect x="8.075684" y="32.4878" width="2.0033999" height="2.0034"/>
    <rect x="36.1234833" y="16.4605" width="2.0033999" height="2.0034"/>
    <rect x="4.0688841" y="16.4605" width="2.0033999" height="2.0034"/>
    <rect x="40.1302832" y="16.4605" width="2.0033999" height="2.0034"/>
    <rect x="8.075684" y="16.4605" width="2.0033999" height="2.0034"/>
  </g>
  <path d="M12.0824839,16.4605v18.0307h22.0375994v-18.0307H12.0824839ZM32.1166834,32.4878H14.0858839v-14.0239h18.0307995v14.0239Z"/>
</svg>