<?xml version="1.0" encoding="UTF-8"?>
<svg id="Set_3" data-name="Set 3" xmlns="http://www.w3.org/2000/svg" width="48" height="48" xmlns:xlink="http://www.w3.org/1999/xlink" viewBox="0 0 48 48">
  <defs>
    <linearGradient id="New_Gradient_37" data-name="New Gradient 37" x1="3.5441938" y1="27.1784" x2="32.5586931" y2="27.1784" gradientUnits="userSpaceOnUse">
      <stop offset="0" stop-color="#999"/>
      <stop offset=".20224" stop-color="#f2f2f2"/>
      <stop offset=".516861" stop-color="#b2b2b2"/>
      <stop offset=".769669" stop-color="#b2b2b2"/>
      <stop offset="1" stop-color="#737373"/>
    </linearGradient>
    <linearGradient id="New_Gradient_36" data-name="New Gradient 36" x1="36.0332772" y1="28.8904802" x2="26.3724233" y2="38.5513341" gradientUnits="userSpaceOnUse">
      <stop offset="0" stop-color="#4c4c4c"/>
      <stop offset=".623596" stop-color="#d9d9d9"/>
      <stop offset="1" stop-color="#4c4c4c"/>
    </linearGradient>
    <linearGradient id="New_Gradient_35" data-name="New Gradient 35" x1="42.7779946" y1="31.9444513" x2="29.42577" y2="45.2966759" gradientUnits="userSpaceOnUse">
      <stop offset="0" stop-color="#a70000"/>
      <stop offset=".662918" stop-color="#df4e15"/>
      <stop offset="1" stop-color="#740000"/>
    </linearGradient>
    <linearGradient id="New_Gradient_34" data-name="New Gradient 34" x1="38.121675" y1="39.6033309" x2="41.1557666" y2="44.4588926" gradientUnits="userSpaceOnUse">
      <stop offset="0" stop-color="#df4e15"/>
      <stop offset="1" stop-color="#c42e00"/>
    </linearGradient>
    <linearGradient id="New_Gradient_33" data-name="New Gradient 33" x1="38.121675" y1="39.6033309" x2="41.1557666" y2="44.4588926" gradientUnits="userSpaceOnUse">
      <stop offset="0" stop-color="#df4e15"/>
      <stop offset="1" stop-color="#c42e00"/>
    </linearGradient>
    <mask id="mask" x="3.1647939" y="4.276" width="29.3938993" height="31.6692" maskUnits="userSpaceOnUse">
      <path d="M18.0552935,5.088c8.0097065,0,14.5033996,5.7735,14.5033996,12.897,0,7.1234-6.4936931,12.899-14.5033996,12.899-8.0135998,0-14.5090996-5.7756-14.5090996-12.899,0-7.1235,6.4954998-12.897,14.5090996-12.897Z" fill="#fff"/>
    </mask>
    <linearGradient id="New_Gradient_30" data-name="New Gradient 30" x1="3.5461938" y1="17.986" x2="32.5586931" y2="17.986" gradientUnits="userSpaceOnUse">
      <stop offset="0" stop-color="#999"/>
      <stop offset=".219101" stop-color="#b2b2b2"/>
      <stop offset=".466293" stop-color="#b2b2b2"/>
      <stop offset=".769669" stop-color="#f2f2f2"/>
      <stop offset="1" stop-color="#737373"/>
    </linearGradient>
    <mask id="mask-1" x="4.5213938" y="8.2934" width="27.0621062" height="27.6518" maskUnits="userSpaceOnUse">
      <path d="M18.0552935,8.7719c7.2057065,0,13.0497065,5.2003,13.0497065,11.6098,0,6.4131-5.844,11.6076-13.0497065,11.6076-7.2133998,0-13.0553997-5.1945-13.0553997-11.6076,0-6.4095,5.8419999-11.6098,13.0553997-11.6098Z" fill="#fff" stroke="#fff" stroke-miterlimit="3.8637" stroke-width=".957"/>
    </mask>
    <linearGradient id="New_Gradient_31" data-name="New Gradient 31" x1="4.9998938" y1="20.3806" x2="31.105" y2="20.3806" gradientUnits="userSpaceOnUse">
      <stop offset="0" stop-color="#5587c0"/>
      <stop offset=".20787" stop-color="#97bae0"/>
      <stop offset=".865173" stop-color="#b3e0ff"/>
      <stop offset="1" stop-color="#5587c0"/>
    </linearGradient>
    <radialGradient id="New_Gradient_32" data-name="New Gradient 32" cx="19.7674471" cy="17.828287" fx="19.7674471" fy="17.828287" r="23.453074" gradientTransform="translate(-7.3728221 -9.1169) scale(.8903 1.2253)" gradientUnits="userSpaceOnUse">
      <stop offset="0" stop-color="#78dcff"/>
      <stop offset="1" stop-color="#b7e9ff"/>
    </radialGradient>
    <linearGradient id="linear-gradient" x1="7.8532751" y1="7.6297019" x2="27.4289429" y2="27.2053697" gradientUnits="userSpaceOnUse">
      <stop offset="0" stop-color="gray"/>
      <stop offset=".187809" stop-color="#82868b"/>
      <stop offset=".5233754" stop-color="#8a99aa"/>
      <stop offset=".9651405" stop-color="#95b7db"/>
      <stop offset="1" stop-color="#97bae0"/>
    </linearGradient>
    <linearGradient id="New_Gradient_29" data-name="New Gradient 29" x1="8.2650056" y1="8.1978915" x2="27.839935" y2="27.7728208" gradientUnits="userSpaceOnUse">
      <stop offset="0" stop-color="gray"/>
      <stop offset="1" stop-color="#fff"/>
    </linearGradient>
    <mask id="mask-2" x="4.9998938" y="11.4004521" width="26.1051062" height="24.5447479" maskUnits="userSpaceOnUse">
      <path d="M13.755,11.4719c2.4553935-.4109,4.6094935.9919,4.8011935,3.144.1917,2.1482-1.6474,4.228-4.1085999,4.6447-2.4571999.4109-4.6073999-.9919-4.8011999-3.1402-.1877-2.152,1.6454-4.2298,4.1086063-4.6485Z" fill="#fff"/>
    </mask>
  </defs>
  <g>
    <path d="M42.9238929,39.1988c-1.8-1.7979-3.7386999-3.7348-6.4268929-6.425-1.125107-1.1249-2.4358069-1.3988-3.6468069-1.1523l-2.9191931-2.919c1.6511931-2.0954,2.6276931-4.6387,2.6276931-7.3916v-1.166h-.2172c.133-.7024.2172-1.4224.2172-2.1599,0-1.1465-.1859-2.2518-.5009-3.3104-.4441-1.5769-1.1916-3.0286-2.1854999-4.3004-2.6078999-3.7211-7.1958998-6.0982-12.2316997-6.0982-7.7535935,0-14.4757996,5.615-14.4757996,13.1416,0,1.0368.1388,2.0347.3814,2.9895v.9038c0,7.1255,6.4954998,12.901,14.5090996,12.901,2.8877999,0,5.5759999-.7591,7.8375998-2.0583l.002.004,3.2084999,3.2066c-.2483932,1.2129.0236068,2.5257,1.1523,3.6527,2.6881999,2.6881,4.6290999,4.625,6.4289998,6.4251,2.637307,2.6373,8.8724998-3.6097,6.2391998-6.2432Z" stroke="#000" stroke-linecap="round" stroke-linejoin="round" stroke-width="2"/>
    <g>
      <path d="M3.5441938,20.1449c.002.3776.002.7415.002,1.166,0,7.1255,6.4954998,12.901,14.5090996,12.901,8.0097065,0,14.5033996-5.7755,14.5033996-12.901v-1.166H3.5441938Z" fill="url(#New_Gradient_37)" fill-rule="evenodd"/>
      <path d="M29.6414932,28.413l5.9085068,5.9103c3.776,3.778.035193,7.5226-3.7466069,3.7447l-5.9064999-5.9104c-2.5003999-2.4965,1.2443-6.2393,3.7445999-3.7446Z" fill="url(#New_Gradient_36)"/>
      <g>
        <path d="M36.497,32.7738c2.6881929,2.6902,4.6268929,4.6271,6.4268929,6.425,2.6332999,2.6335-3.6018929,8.8805-6.2391998,6.2432-1.7999-1.8001-3.7407999-3.737-6.4289998-6.4251-3.9362999-3.9363,2.3047999-10.1794,6.2413068-6.2431Z" fill="url(#New_Gradient_35)"/>
        <path d="M30.6744932,34.0025c2.2753999,2.2773,4.4020999,4.4039,6.0003998,6.0024" fill="none" stroke="#ff7845" stroke-linecap="round" stroke-miterlimit="3.8637" stroke-width="1.4356"/>
        <path d="M40.4881929,38.6178c2.1441999-.2681,3.3923999.9803,2.7584999,2.7547-.6376928,1.7784-2.5981999,3.7329-4.3746928,4.3688-1.776407.6339-3.022707-.6144-2.754707-2.7587.2701-2.1402,2.2263999-4.0968,4.3708999-4.3648Z" fill="url(#New_Gradient_34)" stroke="#a70000" stroke-miterlimit="3.8637" stroke-width=".4785"/>
        <path d="M40.4881929,38.6178c2.1441999-.2681,3.3923999.9803,2.7584999,2.7547-.6376928,1.7784-2.5981999,3.7329-4.3746928,4.3688-1.776407.6339-3.022707-.6144-2.754707-2.7587.2701-2.1402,2.2263999-4.0968,4.3708999-4.3648Z" fill="url(#New_Gradient_33)"/>
      </g>
      <g mask="url(#mask)">
        <g>
          <path d="M18.0552935,5.088c8.0097065,0,14.5033996,5.7735,14.5033996,12.897,0,7.1234-6.4936931,12.899-14.5033996,12.899-8.0135998,0-14.5090996-5.7756-14.5090996-12.899,0-7.1235,6.4954998-12.897,14.5090996-12.897Z" fill="url(#New_Gradient_30)"/>
          <g mask="url(#mask-1)">
            <g>
              <path d="M18.0552935,8.7719c7.2057065,0,13.0497065,5.2003,13.0497065,11.6098,0,6.4131-5.844,11.6076-13.0497065,11.6076-7.2133998,0-13.0553997-5.1945-13.0553997-11.6076,0-6.4095,5.8419999-11.6098,13.0553997-11.6098Z" fill="url(#New_Gradient_31)"/>
              <path d="M18.0552935,12.7281c7.2057065,0,13.0497065,5.1962,13.0497065,11.6095,0,6.4074-5.844,11.6076-13.0497065,11.6076-7.2133998,0-13.0553997-5.2002-13.0553997-11.6076,0-6.4133,5.8419999-11.6095,13.0553997-11.6095Z" fill="url(#New_Gradient_32)"/>
              <path d="M18.0552935,8.7719c7.2057065,0,13.0497065,5.2003,13.0497065,11.6098,0,6.4131-5.844,11.6076-13.0497065,11.6076-7.2133998,0-13.0553997-5.1945-13.0553997-11.6076,0-6.4095,5.8419999-11.6098,13.0553997-11.6098Z" fill="none" stroke="#69c" stroke-miterlimit="3.8637" stroke-width=".957"/>
            </g>
          </g>
          <path d="M17.6405935,4.276c7.7534998,0,14.4776996,5.615,14.4776996,13.1416,0,7.5265-6.7241998,13.1414-14.4776996,13.1414-7.7535935,0-14.4757996-5.6149-14.4757996-13.1414,0-7.5266,6.7222061-13.1416,14.4757996-13.1416ZM17.6405935,5.7962c-7.6283998,0-13.3743997,5.4722-13.3743997,11.6214,0,6.1511,5.7459999,11.6253,13.3743997,11.6253,7.6281998,0,13.3741997-5.4742,13.3741997-11.6253,0-6.1492-5.7459999-11.6214-13.3741997-11.6214Z" fill="url(#linear-gradient)"/>
        </g>
      </g>
      <path d="M18.0552935,4.8454c7.7514998,0,14.4738996,5.615,14.4738996,13.1396,0,7.5244-6.7223998,13.1414-14.4738996,13.1414-7.7553998,0-14.4815996-5.617-14.4815996-13.1414,0-7.5246,6.7261998-13.1396,14.4815996-13.1396ZM18.0552935,6.3636c-7.6300998,0-13.3742935,5.4703-13.3742935,11.6214,0,6.1531,5.7441937,11.6232,13.3742935,11.6232,7.6243998,0,13.3703997-5.4701,13.3703997-11.6232,0-6.1511-5.7459999-11.6214-13.3703997-11.6214Z" fill="url(#New_Gradient_29)"/>
      <g mask="url(#mask-2)">
        <g>
          <path d="M13.755,11.4719c2.4553935-.4109,4.6094935.9919,4.8011935,3.144.1917,2.1482-1.6474,4.228-4.1085999,4.6447-2.4571999.4109-4.6073999-.9919-4.8011999-3.1402-.1877-2.152,1.6454-4.2298,4.1086063-4.6485Z" fill="#b3e0ff"/>
          <path d="M18.0552935,12.7281c7.2057065,0,13.0497065,5.1962,13.0497065,11.6095,0,6.4074-5.844,11.6076-13.0497065,11.6076-7.2133998,0-13.0553997-5.2002-13.0553997-11.6076,0-6.4133,5.8419999-11.6095,13.0553997-11.6095Z" fill="#fff"/>
        </g>
      </g>
    </g>
  </g>
  <g>
    <line x1="11.7671936" y1="18.9573" x2="23.1107934" y2="18.9593" fill="none" stroke="#000" stroke-linecap="round" stroke-linejoin="round" stroke-width="3"/>
    <line x1="11.7671936" y1="18.9573" x2="23.1107934" y2="18.9593" fill="none" stroke="#9a5500" stroke-linecap="round" stroke-linejoin="round" stroke-width="4"/>
    <line x1="11.1783937" y1="18.3" x2="22.52" y2="18.3" fill="none" stroke="#ffe900" stroke-linecap="round" stroke-linejoin="round" stroke-width="1.5"/>
  </g>
</svg>