<?xml version="1.0" encoding="UTF-8"?>
<svg id="Icons_-_24x24" data-name="Icons - 24x24" xmlns="http://www.w3.org/2000/svg" width="48" height="48" xmlns:xlink="http://www.w3.org/1999/xlink" viewBox="0 0 48 48">
  <defs>
    <radialGradient id="radial-gradient" cx="-10.3186625" cy="18.9046909" fx="-10.3186625" fy="18.9046909" r="25.3159198" gradientTransform="translate(38.2588 4.2828) rotate(13.2104354) scale(1.3849495 1.2358082) skewX(11.8302285)" gradientUnits="userSpaceOnUse">
      <stop offset=".191011" stop-color="gray"/>
      <stop offset=".2044765" stop-color="gray"/>
      <stop offset=".707865" stop-color="gray"/>
    </radialGradient>
    <radialGradient id="radial-gradient-2" cx="-13.6703692" cy="16.5359403" fx="-13.6703692" fy="16.5359403" r="23.7389508" gradientTransform="translate(38.2588 4.2828) rotate(13.2104354) scale(1.3849495 1.2358082) skewX(11.8302285)" gradientUnits="userSpaceOnUse">
      <stop offset=".44382" stop-color="#f9e917"/>
      <stop offset=".4866018" stop-color="#f8e616"/>
      <stop offset=".5107358" stop-color="#f5de16"/>
      <stop offset=".5302345" stop-color="#f0d015"/>
      <stop offset=".5471417" stop-color="#eabd15"/>
      <stop offset=".561798" stop-color="#e2a514"/>
      <stop offset=".702247" stop-color="#f9e917"/>
      <stop offset=".842697" stop-color="#e2a514"/>
      <stop offset=".938202" stop-color="#f9e917"/>
      <stop offset="1" stop-color="#d68112"/>
    </radialGradient>
    <radialGradient id="radial-gradient-3" cx="-10.2109486" cy="18.8739863" fx="-10.2109486" fy="18.8739863" r="22.1961982" gradientTransform="translate(38.2588 4.2828) rotate(13.2104354) scale(1.3849495 1.2358082) skewX(11.8302285)" gradientUnits="userSpaceOnUse">
      <stop offset=".191011" stop-color="gray"/>
      <stop offset=".2277988" stop-color="#9f9f9f"/>
      <stop offset=".2768374" stop-color="#c1c1c1"/>
      <stop offset=".3268178" stop-color="#dcdcdc"/>
      <stop offset=".3774113" stop-color="#efefef"/>
      <stop offset=".4290096" stop-color="#fbfbfb"/>
      <stop offset=".483146" stop-color="#fff"/>
      <stop offset=".5369519" stop-color="#fcfcfc"/>
      <stop offset=".5758184" stop-color="#f2f2f2"/>
      <stop offset=".6099931" stop-color="#e2e2e2"/>
      <stop offset=".6414513" stop-color="#ccc"/>
      <stop offset=".6710511" stop-color="#afafaf"/>
      <stop offset=".6988858" stop-color="#8c8c8c"/>
      <stop offset=".707865" stop-color="gray"/>
    </radialGradient>
    <mask id="mask" x="1.7749" y="3.757873" width="44.619401" height="45.1562943" maskUnits="userSpaceOnUse">
      <path d="M41.8618,24.933603c-.2353,9.3876998-7.6455,16.1727996-17.3203,16.3856996-8.8896.1953-17.5371-7.6874998-17.3164-16.4188996.2383-9.3925998,7.6406-16.1737996,17.3164-16.3866996,8.8936-.1934,17.5352,7.6874998,17.3203,16.4198996ZM24.5415,16.4316032c-4.9473-.0068-8.958,3.7880999-8.958,8.4755998,0,4.6864999,4.0107,8.4892998,8.958,8.4970998,4.9463.0049,8.9619-3.7929999,8.9619-8.4794998,0-4.6854999-4.0156-8.4892998-8.9619-8.4931998Z" fill="#fff"/>
    </mask>
    <radialGradient id="radial-gradient-4" cx="24.491378" cy="25.0182558" fx="24.491378" fy="25.0182558" r="28.6364897" gradientUnits="userSpaceOnUse">
      <stop offset=".224719" stop-color="gray"/>
      <stop offset=".2642511" stop-color="#9c9c9c"/>
      <stop offset=".332586" stop-color="#c6c6c6"/>
      <stop offset=".3942686" stop-color="#e5e5e5"/>
      <stop offset=".4465473" stop-color="#f8f8f8"/>
      <stop offset=".483146" stop-color="#fff"/>
      <stop offset=".5207264" stop-color="#fafafa"/>
      <stop offset=".5611494" stop-color="#ededed"/>
      <stop offset=".6029126" stop-color="#d8d8d8"/>
      <stop offset=".645574" stop-color="#bababa"/>
      <stop offset=".6885269" stop-color="#939393"/>
      <stop offset=".707865" stop-color="gray"/>
    </radialGradient>
    <radialGradient id="radial-gradient-5" cx="3.0575884" cy="28.7910762" fx="3.0575884" fy="28.7910762" r="13.4784602" gradientTransform="translate(18.1663 -15.9431) rotate(13.2114368) scale(1.4439157 1.288374) skewX(11.8306806)" gradientUnits="userSpaceOnUse">
      <stop offset=".325843" stop-color="#740000"/>
      <stop offset=".623595" stop-color="#df4e15"/>
      <stop offset=".6767685" stop-color="#da4a14"/>
      <stop offset=".7394779" stop-color="#cb3f11"/>
      <stop offset=".8070087" stop-color="#b42e0c"/>
      <stop offset=".8774485" stop-color="#931606"/>
      <stop offset=".932584" stop-color="#740000"/>
    </radialGradient>
  </defs>
  <path d="M41.3052,28.8838029c.3291-1.2529.5224-2.5702999.5566-3.9501999.044-1.8643-.3174-3.6942999-.9951-5.4091999.3877-2.6552999.7061-5.3202999-.4209-8.0956998-1.7617-4.3222999-7.3994-3.5975999-12.3584-2.5673999-1.1621-.2519-2.3516-.372-3.5459-.3476-2.1914.0508-4.2676.4355-6.1699,1.1132966-4.3584-.917-9.9053-2.8173965-12.4092-.3457966-2.627,2.5927966-.0469,7.8808998,1.6543,12.3505997-.2275,1.0489-.3633,2.1376999-.3916,3.2685999-.0488,1.9891999.3662,3.932597,1.1318,5.7450999-.5498,3.4833999-1.042,7.4257998,1.666,9.7089998,2.6573,2.2401999,6.6934,1.3623,10.2608.4531,1.3896.3583974,2.8213.541,4.2578.5117,1.9453-.042,3.7939-.3564,5.5166-.8945,4.8555,1.0469,10.6084,2.7577999,12.9961.0234,2.3086-2.6434999-.2998-7.5965998-1.749-11.5643997ZM37.8218,10.7979034c1.373,1.1445,1.6357,3.3436999,1.497,5.7713999-1.8388-2.7850999-4.5371-5.0819999-7.622-6.5057998,2.5019-.3848,4.7998-.3809,6.125.7344ZM24.5415,33.4043028c-4.9473-.0078-8.958-3.8105999-8.958-8.4970998,0-4.6874999,4.0107-8.4823998,8.958-8.4755998,4.9463.0039,8.9619,3.8076999,8.9619,8.4931998,0,4.6864999-4.0156,8.4843998-8.9619,8.4794998ZM7.7231,10.7959034c1.3965-1.3809034,4.7754-.7617,8.0186.0127-3.291,1.8115-5.8467,4.6073966-7.2666,8.0643966-1.2539-3.3231968-2.2168-6.6297967-.752-8.0770966ZM11.2827,39.0693027c-1.1865-1-1.3467-3.0721999-1.167-5.2977999,1.7158,2.4003999,4.0752,4.4061999,6.751,5.7479999-2.2939.4141-4.4531.5069-5.584-.4502ZM41.2261,39.0078027c-1.3262,1.5166-4.8213,1.0479-8.3955.291,3.3457-1.6982,5.9863-4.3915999,7.5283-7.7528998,1.1631,2.9247999,2.167,5.9755998.8672,7.4618998Z" fill="url(#radial-gradient)" stroke="#000" stroke-miterlimit="3.8637" stroke-width="2"/>
  <path d="M37.8218,10.7979034c3.3838,2.8309999.0078,12.0926997.5918,15.3631996.5732,3.2734999,5.0234,10.3163997,2.8125,12.8466997-2.5049,2.8661973-12.7617-1.3682-16.6592-1.1914-2.6885.1221-10.6826,3.4501999-13.2842,1.2529-2.6963-2.2753999-.0801-10.0965997-.2812-12.7069997-.2832-3.6874999-6.0176-12.860303-3.2784-15.5663996,2.3584-2.3319999,10.3741,1.0488,13.8477,1.2178,3.4893.1728,12.9199-4.0127033,16.251-1.2158M21.1577,10.042c-4.4062-.2177966-12.1152-3.8046965-15.1953-.7607966-3.5791,3.5380999,2.5127,12.0771997,2.8682,16.7314996.2861,3.7226999-2.8799,10.9061997,1.1923,14.3417996,4.0342,3.4013999,11.2676-.3887,15.1719-.5674,4.9278-.2217,14.5762,4.4179974,17.8594.6611,2.8437-3.2547999-1.7695-10.0145997-2.4932-14.1210996-.8857-5.0077999,1.9717-9.7665998-.1152-14.8983996-2.748-6.7577998-14.998-1.1758-19.2881-1.3867033" fill="url(#radial-gradient-2)"/>
  <path d="M41.8618,24.933603c-.2353,9.3876998-7.6455,16.1727996-17.3203,16.3856996-8.8896.1953-17.5371-7.6874998-17.3164-16.4188996.2383-9.3925998,7.6406-16.1737996,17.3164-16.3866996,8.8936-.1934,17.5352,7.6874998,17.3203,16.4198996ZM24.5415,16.4316032c-4.9473-.0068-8.958,3.7880999-8.958,8.4755998,0,4.6864999,4.0107,8.4892998,8.958,8.4970998,4.9463.0049,8.9619-3.7929999,8.9619-8.4794998,0-4.6854999-4.0156-8.4892998-8.9619-8.4931998Z" fill="url(#radial-gradient-3)" stroke="#000" stroke-miterlimit="3.8637" stroke-width="2"/>
  <g mask="url(#mask)">
    <g>
      <path d="M41.8618,24.933603c-.2353,9.3876998-7.6455,16.1727996-17.3203,16.3856996-8.8896.1953-17.5371-7.6874998-17.3164-16.4188996.2383-9.3925998,7.6406-16.1737996,17.3164-16.3866996,8.8936-.1934,17.5352,7.6874998,17.3203,16.4198996ZM24.5415,16.4316032c-4.9473-.0068-8.958,3.7880999-8.958,8.4755998,0,4.6864999,4.0107,8.4892998,8.958,8.4970998,4.9463.0049,8.9619-3.7929999,8.9619-8.4794998,0-4.6854999-4.0156-8.4892998-8.9619-8.4931998Z" fill="url(#radial-gradient-4)"/>
      <path d="M45.0757,20.7041031c-5.8985-.9922-10.7373.7031-18.6348-1.1494-.2676-2.9775999,1.0029-9.4775998,4.0664-12.7470997-1.7373-.8047-3.5449-1.4629-5.4121-1.9033-1.7324-.4053035-3.4101-.6025-5.0342-.6387-2.1963,5.7480999-3.4853,11.7470997-.4336,18.9989995-5.667,2.3574999-11.6787-.5751-17.2041-4.5682999-.0918.7588-.1484,1.5351-.1484,2.3368999,0,2.9354999.627,5.8798999,1.7637,8.6962998,6.3965,2.4852999,12.8037,3.5975999,18.6035,1.1328,1.1592,6.1688998-1.5488,10.4423997-5.2442,13.9276971,2.4073,1.3789,4.9932,2.4512,7.6973,3.085,1.0352.2432,2.0449.3945,3.042.502,2.6816-6.4365974,4.7676-13.0341973,1.3213-21.219797,5.54,2.9960999,14.2988,4.0116999,16.4033,3.5429999l-.7861-9.9960997Z" fill="url(#radial-gradient-5)" stroke="#c42e00" stroke-miterlimit="3.8637"/>
      <path d="M41.8618,24.933603c-.2353,9.3876998-7.6455,16.1727996-17.3203,16.3856996-8.8896.1953-17.5371-7.6874998-17.3164-16.4188996.2383-9.3925998,7.6406-16.1737996,17.3164-16.3866996,8.8936-.1934,17.5352,7.6874998,17.3203,16.4198996ZM24.5415,16.4316032c-4.9473-.0068-8.958,3.7880999-8.958,8.4755998,0,4.6864999,4.0107,8.4892998,8.958,8.4970998,4.9463.0049,8.9619-3.7929999,8.9619-8.4794998,0-4.6854999-4.0156-8.4892998-8.9619-8.4931998Z" fill="none"/>
    </g>
  </g>
</svg>