<?xml version="1.0" encoding="UTF-8"?>
<svg id="Set_4" data-name="Set 4" xmlns="http://www.w3.org/2000/svg" width="48" height="48" xmlns:xlink="http://www.w3.org/1999/xlink" viewBox="0 0 48 48">
  <defs>
    <linearGradient id="New_Gradient_Swatch_18" data-name="New Gradient Swatch 18" x1="22.1367837" y1="25.55965" x2="40.1615832" y2="25.55965" gradientUnits="userSpaceOnUse">
      <stop offset="0" stop-color="#b0caff"/>
      <stop offset=".1381484" stop-color="#97b5f2"/>
      <stop offset=".4019205" stop-color="#6f93dd"/>
      <stop offset=".64258" stop-color="#527ace"/>
      <stop offset=".8499057" stop-color="#406bc5"/>
      <stop offset="1" stop-color="#3a66c2"/>
    </linearGradient>
    <mask id="mask" x="20.1333837" y="14.5448" width="22.0336163" height="22.0318" maskUnits="userSpaceOnUse">
      <path d="M35.8886833,16.5482h-12.3570997c-.4792,0-.9448.1214-1.3948.3346v5.6739h11.2495997c.3482.9253.7669.489.7669,3.0011,0,2.5101-.4187,2.0777-.7669,3.0051h-11.2495997v5.6737c.45.2133.9156.3345,1.3948.3345h12.3570997c3.4648999,0,4.2728999-1.8195,4.2728999-9.0133,0-7.1919-.808-9.0096-4.2728999-9.0096Z" fill="#fff"/>
    </mask>
    <radialGradient id="radial-gradient" cx="25.9490288" cy="17.5881213" fx="25.9490288" fy="17.5881213" r="23.9397161" gradientUnits="userSpaceOnUse">
      <stop offset="0" stop-color="#c40000"/>
      <stop offset="1" stop-color="#740000"/>
    </radialGradient>
    <radialGradient id="radial-gradient-2" cx="38.9250098" cy="36.5747977" fx="38.9250098" fy="36.5747977" r="37.6374043" gradientUnits="userSpaceOnUse">
      <stop offset="0" stop-color="#c40000"/>
      <stop offset="1" stop-color="#740000"/>
    </radialGradient>
    <linearGradient id="linear-gradient" x1="20.1333837" y1="25.3934" x2="26.1416836" y2="25.3934" gradientUnits="userSpaceOnUse">
      <stop offset="0" stop-color="#fff"/>
      <stop offset=".184472" stop-color="#fcfcfc"/>
      <stop offset=".3174053" stop-color="#f2f2f2"/>
      <stop offset=".4342052" stop-color="#e2e2e2"/>
      <stop offset=".5417015" stop-color="#ccc"/>
      <stop offset=".6428948" stop-color="#afafaf"/>
      <stop offset=".7393118" stop-color="#8c8c8c"/>
      <stop offset=".8320115" stop-color="#626262"/>
      <stop offset=".9193608" stop-color="#323232"/>
      <stop offset="1" stop-color="#000"/>
    </linearGradient>
  </defs>
  <g>
    <g opacity=".5">
      <rect x="40.1302832" y="8.5287" width="2.0033999" height="2.0035" fill="#fff"/>
      <rect x="40.1302832" y="16.5424" width="2.0033999" height="2.0034" fill="#fff"/>
      <rect x="40.1302832" y="24.5561" width="2.0033999" height="2.0034" fill="#fff"/>
      <rect x="40.1302832" y="32.5697" width="2.0033999" height="2.0034" fill="#fff"/>
      <rect x="40.1302832" y="40.5834" width="2.0033999" height="2.0034" fill="#fff"/>
      <rect x="32.1166834" y="8.5287" width="2.0033999" height="2.0035" fill="#fff"/>
      <rect x="32.1166834" y="16.5424" width="2.0033999" height="2.0034" fill="#fff"/>
      <rect x="32.1166834" y="24.5561" width="2.0033999" height="2.0034" fill="#fff"/>
      <rect x="32.1166834" y="32.5697" width="2.0033999" height="2.0034" fill="#fff"/>
      <rect x="32.1166834" y="40.5834" width="2.0033999" height="2.0034" fill="#fff"/>
      <rect x="24.103" y="8.5287" width="2.0033836" height="2.0035" fill="#fff"/>
      <rect x="24.103" y="16.5424" width="2.0033836" height="2.0034" fill="#fff"/>
      <rect x="24.103" y="24.5561" width="2.0033836" height="2.0034" fill="#fff"/>
      <rect x="24.103" y="32.5697" width="2.0033836" height="2.0034" fill="#fff"/>
      <rect x="24.103" y="40.5834" width="2.0033836" height="2.0034" fill="#fff"/>
      <rect x="16.0892838" y="8.5287" width="2.0034999" height="2.0035" fill="#fff"/>
      <rect x="16.0892838" y="16.5424" width="2.0034999" height="2.0034" fill="#fff"/>
      <rect x="16.0892838" y="24.5561" width="2.0034999" height="2.0034" fill="#fff"/>
      <rect x="16.0892838" y="32.5697" width="2.0034999" height="2.0034" fill="#fff"/>
      <rect x="16.0892838" y="40.5834" width="2.0034999" height="2.0034" fill="#fff"/>
      <rect x="8.075684" y="8.5287" width="2.0033999" height="2.0035" fill="#fff"/>
      <rect x="8.075684" y="16.5424" width="2.0033999" height="2.0034" fill="#fff"/>
      <rect x="8.075684" y="24.5561" width="2.0033999" height="2.0034" fill="#fff"/>
      <rect x="8.075684" y="32.5697" width="2.0033999" height="2.0034" fill="#fff"/>
      <rect x="8.075684" y="40.5834" width="2.0033999" height="2.0034" fill="#fff"/>
    </g>
    <g>
      <rect x="38.1268833" y="6.5253" width="2.0033999" height="2.0034"/>
      <rect x="38.1268833" y="14.539" width="2.0033999" height="2.0034"/>
      <rect x="38.1268833" y="22.5527" width="2.0033999" height="2.0034"/>
      <rect x="38.1268833" y="30.5663" width="2.0033999" height="2.0034"/>
      <rect x="38.1268833" y="38.58" width="2.0033999" height="2.0034"/>
      <rect x="30.1131835" y="6.5253" width="2.0034999" height="2.0034"/>
      <rect x="30.1131835" y="14.539" width="2.0034999" height="2.0034"/>
      <rect x="30.1131835" y="22.5527" width="2.0034999" height="2.0034"/>
      <rect x="30.1131835" y="30.5663" width="2.0034999" height="2.0034"/>
      <rect x="30.1131835" y="38.58" width="2.0034999" height="2.0034"/>
      <rect x="22.0995837" y="6.5253" width="2.0034163" height="2.0034"/>
      <rect x="22.0995837" y="14.539" width="2.0034163" height="2.0034"/>
      <rect x="22.0995837" y="22.5527" width="2.0034163" height="2.0034"/>
      <rect x="22.0995837" y="30.5663" width="2.0034163" height="2.0034"/>
      <rect x="22.0995837" y="38.58" width="2.0034163" height="2.0034"/>
      <rect x="14.0858839" y="6.5253" width="2.0033999" height="2.0034"/>
      <rect x="14.0858839" y="14.539" width="2.0033999" height="2.0034"/>
      <rect x="14.0858839" y="22.5527" width="2.0033999" height="2.0034"/>
      <rect x="14.0858839" y="30.5663" width="2.0033999" height="2.0034"/>
      <rect x="14.0858839" y="38.58" width="2.0033999" height="2.0034"/>
      <rect x="6.0722841" y="6.5253" width="2.0033999" height="2.0034"/>
      <rect x="6.0722841" y="14.539" width="2.0033999" height="2.0034"/>
      <rect x="6.0722841" y="22.5527" width="2.0033999" height="2.0034"/>
      <rect x="6.0722841" y="30.5663" width="2.0033999" height="2.0034"/>
      <rect x="6.0722841" y="38.58" width="2.0033999" height="2.0034"/>
    </g>
  </g>
  <g>
    <path d="M35.8886833,16.5482h-12.3570997c-.4792,0-.9448.1214-1.3948.3346v5.6739h11.2495997c.3482.9253.7669.489.7669,3.0011,0,2.5101-.4187,2.0777-.7669,3.0051h-11.2495997v5.6737c.45.2133.9156.3345,1.3948.3345h12.3570997c3.4648999,0,4.2728999-1.8195,4.2728999-9.0133,0-7.1919-.808-9.0096-4.2728999-9.0096Z" fill="url(#New_Gradient_Swatch_18)" stroke="#000" stroke-linecap="round" stroke-linejoin="round" stroke-width="2"/>
    <g mask="url(#mask)">
      <g>
        <path d="M35.8886833,16.5482h-12.3570997c-.4792,0-.9448.1214-1.3948.3346v5.6739h11.2495997c.3482.9253.7669.489.7669,3.0011,0,2.5101-.4187,2.0777-.7669,3.0051h-11.2495997v5.6737c.45.2133.9156.3345,1.3948.3345h12.3570997c3.4648999,0,4.2728999-1.8195,4.2728999-9.0133,0-7.1919-.808-9.0096-4.2728999-9.0096Z" fill="url(#radial-gradient)"/>
        <path d="M35.8886833,18.5536h-12.3570997c-.4792,0,1.0604164.1214.6105.3346v5.6737h11.2496997c.3482167.9254.7669-1.5162.7669.9959,0,2.5101-.4186833,4.0831-.7669,5.0105h-11.2496997v5.6737c.4499164.2134-1.0897.3346-.6105.3346h12.3570997c3.4648999,0,6.2783167-3.825,6.2783167-11.0188,0-7.1919-2.8134168-7.0042-6.2783167-7.0042Z" fill="url(#radial-gradient-2)"/>
        <rect x="20.1333837" y="14.5448" width="6.0082998" height="21.6972" fill="url(#linear-gradient)"/>
      </g>
    </g>
  </g>
</svg>