<?xml version="1.0" encoding="UTF-8"?>
<svg id="Icons_-_24x24" data-name="Icons - 24x24" xmlns="http://www.w3.org/2000/svg" width="48" height="48" viewBox="0 0 48 48">
  <path d="M16.3046875,14.0913086c1.6542969-.3266602,3.9453125-.5014648,6.8701172-.5249023,3.0839844-.0351562,5.3916016.4160156,6.9228516,1.3535156.8632812.4335938,1.5400391,1.0605469,2.0292969,1.8808594.5117188.8085938.7675781,1.78125.7675781,2.9179688,0,1.0546875-.3105469,2.0390625-.9316406,2.953125-.65625.9023438-1.6640625,1.6347656-3.0234375,2.1972656v.0703125c1.4414062.3515625,2.6015625,1.03125,3.4804688,2.0390625.8359375,1.0078125,1.2646484,2.3203125,1.2871094,3.9375-.0458984,2.2265625-.8554688,3.9375-2.4306641,5.1328125-1.6083984,1.4414062-4.6845703,2.1738281-9.2275391,2.1972656-2.6171875-.0234375-4.5322266-.1401367-5.7441406-.3500977V14.0913086ZM21.5742188,23.3764648h1.7451172c2.8242188-.0585938,4.2480469-1.0615234,4.2705078-3.0078125-.0224609-1.8637695-1.2763672-2.8076172-3.7617188-2.8310547-1.1298828,0-1.8808594.059082-2.2539062.1767578v5.6621094ZM21.5742188,34.1342773c.4873047.09375,1.1728516.1293945,2.0566406.1054688,1.2578125,0,2.328125-.2758789,3.2128906-.8286133.8496094-.5522461,1.2851562-1.4570312,1.3085938-2.715332-.0234375-1.222168-.4707031-2.109375-1.3427734-2.6621094-.90625-.5053711-2.0458984-.7578125-3.4169922-.7578125h-1.8183594v6.8583984Z"/>
</svg>