<?xml version="1.0" encoding="UTF-8"?>
<svg id="Icons_-_24x24" data-name="Icons - 24x24" xmlns="http://www.w3.org/2000/svg" width="48" height="48" xmlns:xlink="http://www.w3.org/1999/xlink" viewBox="0 0 48 48">
  <defs>
    <mask id="mask" x="19.0862184" y="13.9681287" width="27.1768561" height="29.0383809" maskUnits="userSpaceOnUse">
      <path d="M39.1069,14.0518033c-.0654-.1075-.1797-.1114-.2529-.0118033l-11.7734,19.5303028c-.0606.1074-.167.1143-.2383.0126972l-5.0518-6.687497c-.0742-.0996-.1738-.0869-.2207.0274l-2.4648,6.2166998c-.0459.1163-.0049.2715.0928.3497l8.2675,7.6590998c.0909.084.2256.0743.3037-.0244026l16.6084-19.1044969c.0928-.083.1114-.2334.045-.3379l-5.3155-7.6297998Z" fill="#fff"/>
    </mask>
    <linearGradient id="linear-gradient" x1="31.8373076" y1="28.1657011" x2="33.6468502" y2="46.2611047" gradientUnits="userSpaceOnUse">
      <stop offset="0" stop-color="#c9ffc9"/>
      <stop offset=".80899" stop-color="#00cd00"/>
      <stop offset="1" stop-color="#00cd00"/>
    </linearGradient>
    <linearGradient id="linear-gradient-2" x1="25.107427" y1="39.4152455" x2="43.6573175" y2="14.1905993" gradientUnits="userSpaceOnUse">
      <stop offset="0" stop-color="#c9ffc9"/>
      <stop offset=".55618" stop-color="#00cd00"/>
      <stop offset="1" stop-color="#23a11f"/>
    </linearGradient>
  </defs>
  <g>
    <path d="M1.9731293,20.0394974L6.9213715,7.1547241h1.8369141l5.2734375,12.8847733h-1.9423828l-1.5029297-3.9023438h-5.3876953l-1.4150391,3.9023438h-1.8105469ZM5.6909027,14.7484741h4.3681641l-1.3447266-3.5683594c-.410202-1.0839233-.7149353-1.9745178-.9140625-2.671875-.1641083.8261719-.3955078,1.6465759-.6943359,2.4609375l-1.4150391,3.7792969Z"/>
    <path d="M15.1259918,20.0394974V7.1547241h4.8339844c.984375,0,1.77388.1304626,2.3686523.3911133.594635.2608032,1.0604553.6622009,1.3974609,1.2041016.3368683.5420532.5053711,1.1089478.5053711,1.7006836,0,.5508423-.1494141,1.069397-.4482422,1.5556641-.2988281.4864197-.7500916.8789062-1.3535156,1.1777344.7792053.2285156,1.3783722.6182556,1.7973633,1.1689453.4188538.5508423.628418,1.2012329.628418,1.9511795,0,.6035614-.1274414,1.1645508-.3823242,1.6831055s-.5699158.918457-.9448242,1.199707c-.3750458.28125-.8452606.4936981-1.4106445.637207-.5655212.1436462-1.2583466.215332-2.0786133.215332h-4.9130859ZM16.8310699,12.5687866h2.7861328c.7558594,0,1.29776-.0497131,1.6259766-.1494141.433548-.1288147.7602539-.3427734.9799805-.6416016s.3295898-.6737366.3295898-1.125c0-.4276428-.1025848-.8041992-.3076172-1.1293945-.2051697-.3251953-.4980927-.5477905-.8789062-.6679688-.3809509-.1200256-1.0342255-.1801758-1.9599609-.1801758h-2.5751953v3.8935547ZM16.8310699,18.5189896h3.2080078c.5506897,0,.9374084-.020462,1.1601562-.0615234.3924866-.0703125.7207031-.1874542.984375-.3515625.2636719-.1639709.4803772-.4027863.6503906-.7163086.1698761-.313385.2548828-.6752472.2548828-1.0854492,0-.4803848-.1230469-.8978653-.3691406-1.252449-.2460938-.3544312-.5874939-.6034241-1.0239258-.7470703-.4365692-.1434937-1.0649872-.215332-1.8852539-.215332h-2.9794922v4.4296951Z"/>
    <path d="M35.261795,15.5219116l1.7050781.4306641c-.3574677,1.4004898-1.0005798,2.4683609-1.9291992,3.2036209-.9287567.7353973-2.0640564,1.1030273-3.4057617,1.1030273-1.3886719,0-2.5180664-.2826233-3.3881836-.8481445-.8701172-.5653839-1.5323181-1.3842773-1.9863281-2.456543-.4541473-1.0722733-.6811523-2.2236404-.6811523-3.4541092,0-1.3417053.2562561-2.512146.769043-3.5112305.5126495-.9989319,1.2421417-1.7578125,2.1884766-2.2763672.9461975-.5185547,1.9877014-.777832,3.1245117-.777832,1.2889709,0,2.3730469.3282166,3.2519531.984375.8789062.656311,1.4911194,1.5791626,1.8369141,2.7685547l-1.6787109.3955078c-.2988281-.9374084-.7325134-1.6200562-1.3007812-2.0478516-.5684052-.4276428-1.2832031-.6416016-2.1445312-.6416016-.9902802,0-1.8179626.2373047-2.4829102.7119141-.6650848.4746094-1.1324158,1.1118164-1.4018555,1.9116211-.269577.7998047-.4042969,1.6246033-.4042969,2.4741211,0,1.0957642.1595764,2.0522461.4790039,2.8696365.3192902.8173828.8158722,1.4282227,1.4897461,1.8325195.6737366.4042969,1.4032288.6064453,2.1884766.6064453.9549866,0,1.7635803-.2753448,2.4257812-.8261719.6620636-.5506897,1.1103058-1.3680725,1.3447266-2.4521561Z"/>
  </g>
  <path d="M39.1069,14.0518033c-.0654-.1075-.1797-.1114-.2529-.0118033l-11.7734,19.5303028c-.0606.1074-.167.1143-.2383.0126972l-5.0518-6.687497c-.0742-.0996-.1738-.0869-.2207.0274l-2.4648,6.2166998c-.0459.1163-.0049.2715.0928.3497l8.2675,7.6590998c.0909.084.2256.0743.3037-.0244026l16.6084-19.1044969c.0928-.083.1114-.2334.045-.3379l-5.3155-7.6297998Z" fill="none" stroke="#000" stroke-width="2"/>
  <g mask="url(#mask)">
    <g>
      <path d="M39.1069,14.0518033c-.0654-.1075-.1797-.1114-.2529-.0118033l-11.7734,19.5303028c-.0606.1074-.167.1143-.2383.0126972l-5.0518-6.687497c-.0742-.0996-.1738-.0869-.2207.0274l-2.4648,6.2166998c-.0459.1163-.0049.2715.0928.3497l8.2675,7.6590998c.0909.084.2256.0743.3037-.0244026l16.6084-19.1044969c.0928-.083.1114-.2334.045-.3379l-5.3155-7.6297998Z" fill="url(#linear-gradient)"/>
      <path d="M40.9077,15.8516032c-.0654-.1055-.1797-.1104-.2529-.0108l-11.7735,19.5302995c-.0595.1064-.1669.1143-.2382.0127l-5.0508-6.6884998c-.0752-.0976-.1748-.0859-.2217.0283l-2.4648,6.2167998c-.0469.1153-.0049.2715.0927.3495972l8.2666,7.6592026c.0918.084.2276.0752.3037-.0234l16.6084-19.1064995c.0938-.082.1133-.2334.0459-.3369l-5.3154-7.6307998Z" fill="url(#linear-gradient-2)"/>
    </g>
  </g>
</svg>