<?xml version="1.0" encoding="UTF-8"?>
<svg id="Set_5" data-name="Set 5" xmlns="http://www.w3.org/2000/svg" width="48" height="48" xmlns:xlink="http://www.w3.org/1999/xlink" viewBox="0 0 48 48">
  <defs>
    <mask id="mask" x="-6.8885364" y="8.7746" width="46.9912293" height="39.3096145" maskUnits="userSpaceOnUse">
      <rect x="7.42" y="8.7746" width="32.0546929" height="32.0547" fill="#fff"/>
    </mask>
  </defs>
  <rect x="7.42" y="8.7746" width="32.0546929" height="32.0547" fill="none" stroke="#000" stroke-linecap="round" stroke-linejoin="round" stroke-width="2"/>
  <g mask="url(#mask)">
    <g>
      <rect x="7.42" y="8.7746" width="32.0546929" height="32.0547" fill="#65d081"/>
      <g>
        <path d="M29.9173932,11.1909c-21.1199995-.7925-37.5269991,6.9767-36.7814991,28.8402,3.7114999,1.2227,7.4862998,1.9329,11.1048997,3.2946,3.2965999,1.2365,4.9634999,3.2223,8.3746998,4.2122,10.2936997,2.9935,25.6236994-6.9943,27.4871993-13.4525-4.4216929-3.1636-.4754-1.5867-1.8499-6.5033-5.3068999,7.0119-2.9688999-9.9017-3.5772999-9.7803-3.9725999.7904,3.5215999-6.0279-2.1275999-8.585" fill="#9a5500"/>
        <path d="M26.9676933,14.1497c-16.9865996-.6379-30.1826933,5.6111-29.5829993,23.1958,2.9849999.9834,6.0208998,1.554,8.9315998,2.649,2.6512999.9952,3.9919999,2.5924,6.7354998,3.3886,8.2792998,2.4071,18.3217995-5.6255,19.8207995-10.8199-3.5562999-2.5447-2.4015931-1.9493-3.5069999-5.9033-3.0781999,4.0675-.657-6.7824-.3864-6.8358-2.1014999.418,4.6475999-5.2061.1041-7.2624" fill="#bc8600"/>
        <path d="M24.018,17.1085c-12.8533063-.4832-22.8385061,4.2455-22.3846061,17.5514,2.2584999.744,4.5556999,1.1751,6.7582998,2.0034,2.0060999.7539,3.0206999,1.9624,5.0963063,2.565,6.2648934,1.8208,11.02-4.2568,12.1544933-8.1872-2.6907999-1.9259-4.3276999-2.3119-5.1640999-5.3034-.8493934,1.1231,1.6548-3.663,2.8046066-3.8913-.2305066.0456,5.7735932-4.3844,2.3356933-5.9398" fill="#ddb800"/>
        <path d="M21.0682934,20.0673c-8.7198998-.3286-15.4941996,2.8799-15.1860996,11.9071,1.532.5046,3.0902999.7961,4.5849999,1.3577,1.3607.5127,2.0492999,1.3324,3.4570999,1.7413,4.2504999,1.2346,3.7180999-2.8879,4.4880999-5.5544-1.8253935-1.307-6.2538998-2.6746-6.8212998-4.7034,1.3794-1.8213,3.9667999-.5438,5.9956998-.9469,1.6405-.3267,6.8994998-3.5626,4.5672999-4.6172" fill="#ffe900"/>
      </g>
    </g>
  </g>
  <g>
    <polyline points="19.8102934 22.6577 21.2541934 24.0995 15.4336935 24.8019 16.1320935 18.9776 17.6111935 20.4585"/>
    <line x1="23.4472933" y1="16.7883" x2="17.7030935" y2="22.5305" fill="none" stroke="#000" stroke-linecap="round" stroke-miterlimit="3.8637" stroke-width=".7125"/>
  </g>
</svg>