<?xml version="1.0" encoding="UTF-8"?>
<svg id="Set_2" data-name="Set 2" xmlns="http://www.w3.org/2000/svg" width="48" height="48" viewBox="0 0 48 48">
  <g opacity=".75">
    <rect x="7.2560962" y="22.0609" width="32.0546992" height="6.0103" fill="#7b96cc" stroke="#4c6699" stroke-linecap="round" stroke-linejoin="round" stroke-width="2"/>
    <rect x="7.2560962" y="22.0609" width="32.0546992" height="6.0103" fill="#7b96cc"/>
  </g>
  <g>
    <line x1="19.2647959" y1="15.5224" x2="37.1546954" y2="15.5224" fill="none" stroke="#000" stroke-linecap="round" stroke-miterlimit="3.8637" stroke-width=".7125"/>
    <line x1="19.2647959" y1="25.5394" x2="37.1546954" y2="25.5394" fill="none" stroke="#000" stroke-linecap="round" stroke-miterlimit="3.8637" stroke-width=".7125"/>
    <line x1="19.2647959" y1="35.5565" x2="33.1477955" y2="35.5565" fill="none" stroke="#000" stroke-linecap="round" stroke-miterlimit="3.8637" stroke-width=".7125"/>
  </g>
  <g opacity=".4">
    <line x1="19.2647959" y1="17.5258" x2="37.1546954" y2="17.5258" fill="none" stroke="#000" stroke-linecap="round" stroke-miterlimit="3.8637" stroke-width=".7125"/>
    <line x1="19.2647959" y1="27.5429" x2="37.1546954" y2="27.5429" fill="none" stroke="#000" stroke-linecap="round" stroke-miterlimit="3.8637" stroke-width=".7125"/>
    <line x1="19.2647959" y1="37.5599" x2="33.1477955" y2="37.5599" fill="none" stroke="#000" stroke-linecap="round" stroke-miterlimit="3.8637" stroke-width=".7125"/>
  </g>
  <path d="M13.266396,15.0265c0,1.6472-1.3363,2.9817-2.9816999,2.9817-1.6492,0-2.9834999-1.3345-2.9834999-2.9817,0-1.6474,1.3343-2.9827,2.9834999-2.9827,1.6454,0,2.9816999,1.3353,2.9816999,2.9827Z" fill="#3f3f3f"/>
  <path d="M13.266396,25.0436c0,1.6472-1.3363,2.9817-2.9816999,2.9817-1.6492,0-2.9834999-1.3345-2.9834999-2.9817,0-1.6474,1.3343-2.9827,2.9834999-2.9827,1.6454,0,2.9816999,1.3353,2.9816999,2.9827Z" fill="#3f3f3f"/>
  <path d="M13.266396,35.0607c0,1.6472-1.3363,2.9817-2.9816999,2.9817-1.6492,0-2.9834999-1.3345-2.9834999-2.9817,0-1.6474,1.3343-2.9827,2.9834999-2.9827,1.6454,0,2.9816999,1.3353,2.9816999,2.9827Z" fill="#3f3f3f"/>
</svg>