<?xml version='1.0' encoding='UTF-8'?>
<svg xmlns="http://www.w3.org/2000/svg" xmlns:xlink="http://www.w3.org/1999/xlink" id="Set_3" data-name="Set 3" width="48" height="48" viewBox="0 0 48 48">
  <defs>
    <linearGradient id="linear-gradient" x1="34.7005419" y1="33.153152" x2="35.3758369" y2="39.7346906" gradientTransform="translate(2.6113 -4.7424)" gradientUnits="userSpaceOnUse">
      <stop offset="0" stop-color="#f3403f"/>
      <stop offset=".3789338" stop-color="#d02a27"/>
      <stop offset=".7765172" stop-color="#b11713"/>
      <stop offset="1" stop-color="#a6100c"/>
    </linearGradient>
    <radialGradient id="radial-gradient" cx="-73.13104" cy="14.7830309" fx="-73.13104" fy="14.7830309" r="28.7009002" gradientTransform="translate(83.0745 53.8868) rotate(45)" gradientUnits="userSpaceOnUse">
      <stop offset=".275281" stop-color="#fff"/>
      <stop offset=".357717" stop-color="#fafafa"/>
      <stop offset=".4545273" stop-color="#ebebeb"/>
      <stop offset=".5585637" stop-color="#d4d4d4"/>
      <stop offset=".6677012" stop-color="#b3b3b3"/>
      <stop offset=".7797489" stop-color="#898989"/>
      <stop offset=".808989" stop-color="#7d7d7d"/>
    </radialGradient>
    <mask id="mask" x="22.7416681" y="14.7268114" width="16.2831577" height="15.9723407" maskUnits="userSpaceOnUse">
      <path d="M24.610186,21.1922c2.8249999,4.2729,7.8335998,8.3629,11.1772997,9.1376,3.3532999.7739,3.7797999-2.0629.9546-6.3368-2.8231999-4.2749-7.8296998-8.3659-11.1772997-9.1388-3.3532999-.7747-3.779786,2.0641-.9546,6.338Z" fill="#fff"/>
    </mask>
    <radialGradient id="New_Gradient_Swatch_14" data-name="New Gradient Swatch 14" cx="46.6434675" cy="31.4086968" fx="46.6434675" fy="31.4086968" r="27.7902787" gradientUnits="userSpaceOnUse">
      <stop offset="0" stop-color="#fff"/>
      <stop offset="1" stop-color="#000"/>
    </radialGradient>
    <linearGradient id="linear-gradient-2" x1="33.0405342" y1="33.4096825" x2="25.8675653" y2="29.8235028" gradientTransform="translate(2.6113 -4.7424)" gradientUnits="userSpaceOnUse">
      <stop offset=".140449" stop-color="#f3403f"/>
      <stop offset=".257159" stop-color="#e83b3a"/>
      <stop offset=".4606825" stop-color="#cb302f"/>
      <stop offset=".7267947" stop-color="#9c1f1c"/>
      <stop offset="1" stop-color="#660a07"/>
    </linearGradient>
    <linearGradient id="New_Gradient_Swatch_32" data-name="New Gradient Swatch 32" x1="34.7005419" y1="33.153152" x2="35.3758369" y2="39.7346906" gradientTransform="translate(2.6113 -4.7424)" gradientUnits="userSpaceOnUse">
      <stop offset="0" stop-color="#f3403f"/>
      <stop offset=".3789338" stop-color="#d02a27"/>
      <stop offset=".7765172" stop-color="#b11713"/>
      <stop offset="1" stop-color="#a6100c"/>
    </linearGradient>
    <radialGradient id="radial-gradient-2" cx="-63.2993017" cy="22.8892571" fx="-63.2993017" fy="22.8892571" r="5.5083601" gradientTransform="translate(83.2386 53.1717) rotate(45)" gradientUnits="userSpaceOnUse"><stop offset=".275281" stop-color="#fff"/><stop offset=".357717" stop-color="#fafafa"/><stop offset=".4545273" stop-color="#ebebeb"/><stop offset=".5585637" stop-color="#d4d4d4"/><stop offset=".6677012" stop-color="#b3b3b3"/><stop offset=".7797489" stop-color="#898989"/><stop offset=".808989" stop-color="#7d7d7d"/></radialGradient>
    <radialGradient id="radial-gradient-3" cx="-60.644201" cy="25.2951566" fx="-60.644201" fy="25.2951566" r="3.1215624" gradientTransform="translate(83.2386 53.1717) rotate(45)" gradientUnits="userSpaceOnUse"><stop offset=".275281" stop-color="#fff"/><stop offset=".357717" stop-color="#fafafa"/><stop offset=".4545273" stop-color="#ebebeb"/><stop offset=".5585637" stop-color="#d4d4d4"/><stop offset=".6677012" stop-color="#b3b3b3"/><stop offset=".7797489" stop-color="#898989"/><stop offset=".808989" stop-color="#7d7d7d"/></radialGradient>
  </defs>
  <path d="M35.269,29.3097c1.3556857,1.3431,1.4163857,3.7221,1.5982857,5.5641.2036,2.0366.0138-1.3726.006.6711-.002,2.2478,1.6102,3.8884,2.4787999.9879.6339143-2.1168.6103.8697.6143-1.4124.002-2.3675.1056143-8.541-3.5842999-8.1635-.4029.0402-.8118.2085-1.2207.268-.1076.4177-.1116.7964-.0176,1.2189" fill="url(#linear-gradient)" stroke="#590001" stroke-width="2"/>
  <path d="M35.0205858,22.5159c-2.8232999-4.2749-7.8299998-8.3659-11.1774997-9.1388-1.1347-.262-1.9054-.0811-2.3553999.3983l-.0275-.0305-13.1198997,13.1192.0078.0096c-.8805.9402-.4442,3.1296,1.4282,5.9576,2.8249999,4.2739,7.8297998,8.3648,11.1772997,9.1375,1.0251.2368,1.7802.1321,2.2439999-.2464l.0078.0088,13.1179997-13.1191-.0391-.0411c1.0584-.8569.6946-3.0941-1.2637-6.0551Z" fill="none" stroke="#000" stroke-linecap="round" stroke-linejoin="round" stroke-width="2"/>
  <path d="M36.3233857,28.6121l-14.8631996-14.8672-13.1198997,13.1192.0078.0096c-.8805.9402-.4442,3.1296,1.4282,5.9576,2.8249999,4.2739,7.8297998,8.3648,11.1772997,9.1375,1.0251.2368,1.7802.1321,2.2439999-.2464l.0078.0088,13.1179997-13.1191Z" fill="url(#radial-gradient)"/>
  <g mask="url(#mask)">
    <g>
      <path d="M24.610186,21.1922c2.8249999,4.2729,7.8335998,8.3629,11.1772997,9.1376,3.3532999.7739,3.7797999-2.0629.9546-6.3368-2.8231999-4.2749-7.8296998-8.3659-11.1772997-9.1388-3.3532999-.7747-3.779786,2.0641-.9546,6.338Z" fill="url(#New_Gradient_Swatch_14)"/>
      <path d="M26.472586,25.8878c.4462,1.9329,4.1516999,4.5458,8.5731998,4.7922,5.1749999.2877,4.9517999-2.7252,1.3441-5.0514-2.2361999-1.4381-5.2040999-2.1453-7.1605998-2.0142-1.8331.1212-3.0539999.982-2.7566999,2.2734Z" fill="url(#linear-gradient-2)"/>
    </g>
  </g>
  <path d="M35.269,29.3097c1.3556857,1.3431,1.4163857,3.7221,1.5982857,5.5641.2036,2.0366.0138-1.3726.006.6711-.002,2.2478,1.6102,3.8884,2.4787999.9879.6339143-2.1168.6103.8697.6143-1.4124.002-2.3675.1056143-8.541-3.5842999-8.1635-.4029.0402-.8118.2085-1.2207.268-.1076.4177-.1116.7964-.0176,1.2189" fill="url(#New_Gradient_Swatch_32)"/>
  <path d="M24.619786,29.2842c-1.1796,1.1826-3.0969999,1.1836-4.2826999,0-1.1836-1.1828-1.1816-3.1021,0-4.2847,1.1839139-1.1846,3.1030999-1.1846,4.2826999,0,1.1877,1.1826,1.1877,3.1019,0,4.2847Z" fill="url(#radial-gradient-2)" stroke="gray" stroke-width=".5"/>
  <path d="M23.6102861,28.2737c-.6241.6241-1.6374.6241-2.2653999.001-.6241-.6271-.6241-1.6386,0-2.2657.628-.625,1.6413-.625,2.2653999,0,.6281.6271.6281,1.6386,0,2.2647Z" fill="url(#radial-gradient-3)"/>
  <path d="M31.9526859,11.9216v6.7205c.5127.4429,1.0116.9097,1.5026,1.3988h.5009v-8.1193c0-3.0139-2.6294999-7.4845-6.2606998-7.4845s-6.2606998,4.4706-6.2606998,7.4845v15.7427h2.0033999v-15.7427c0-2.114,1.9487-5.4811,4.2572999-5.4811,2.308514,0,4.2571999,3.3671,4.2571999,5.4811Z"/>
</svg>