<?xml version='1.0' encoding='UTF-8'?>
<svg xmlns="http://www.w3.org/2000/svg" xmlns:xlink="http://www.w3.org/1999/xlink" id="Icons_-_24x24" data-name="Icons - 24x24" width="48" height="48" viewBox="0 0 48 48">
  <defs>
    <linearGradient id="New_Gradient_18" data-name="New Gradient 18" x1="4.5702851" y1="24.1000799" x2="44.1653434" y2="24.1000799" gradientUnits="userSpaceOnUse">
      <stop offset="0" stop-color="#b2b2b2"/>
      <stop offset=".449432" stop-color="#b2b2b2"/>
      <stop offset=".696625" stop-color="#e5e5e5"/>
      <stop offset="1" stop-color="#e5e5e5"/>
    </linearGradient>
    <linearGradient id="linear-gradient" x1="7.4296578" y1="7.1836078" x2="41.2836301" y2="41.0375801" gradientUnits="userSpaceOnUse">
      <stop offset="0" stop-color="#87ba87"/>
      <stop offset="0" stop-color="#89b689"/>
      <stop offset="0" stop-color="#92a592"/>
      <stop offset="0" stop-color="#979c97"/>
      <stop offset="0" stop-color="#999"/>
      <stop offset=".1664031" stop-color="#9c9c9c"/>
      <stop offset=".3145137" stop-color="#a7a7a7"/>
      <stop offset=".404494" stop-color="#b2b2b2"/>
      <stop offset=".606741" stop-color="#e5e5e5"/>
      <stop offset="1" stop-color="#e5e5e5"/>
    </linearGradient>
    <linearGradient id="linear-gradient-2" x1="16.1573993" y1="16.1632418" x2="33.6958979" y2="33.7017404" gradientUnits="userSpaceOnUse">
      <stop offset="0" stop-color="#666"/>
      <stop offset=".0178513" stop-color="#6d6d6d"/>
      <stop offset=".1144914" stop-color="#949494"/>
      <stop offset=".2183295" stop-color="#b5b5b5"/>
      <stop offset=".3291794" stop-color="#d0d0d0"/>
      <stop offset=".4496279" stop-color="#e5e5e5"/>
      <stop offset=".5844797" stop-color="#f3f3f3"/>
      <stop offset=".745304" stop-color="#fcfcfc"/>
      <stop offset="1" stop-color="#fff"/>
    </linearGradient>
    <mask id="mask" x="4.1224455" y="3.8774604" width="40.0314742" height="40.0333312" maskUnits="userSpaceOnUse">
      <path d="M42.0562,16.5498c-1.879,1.877-4.5333,2.4941-6.9268,1.8574l-16.4766,16.4785c.6377,2.3907.0166,5.0489-1.8574,6.9258-1.7861,1.7891-4.2871,2.4336-6.5879,1.9375l3.9873-3.9863-1.1504-4.2891-4.2841-1.1465-4.0206,4.0157c-.5302-2.3223.1094-4.8594,1.917-6.668,1.8047-1.8027,4.3262-2.4473,6.6397-1.9277L29.9946,13.0537c-.5205-2.3164.125-4.8379,1.9239-6.6426,1.79-1.7851,4.2871-2.4336,6.5878-1.9355l-3.9863,3.9883,1.1485,4.2832,4.2871,1.1504,4.0175-4.0196c.5313,2.3262-.1084,4.8614-1.9169,6.6719Z" fill="#fff"/>
    </mask>
    <linearGradient id="linear-gradient-3" x1="34.7716294" y1="6.2662794" x2="45.3056551" y2="16.8003051" gradientUnits="userSpaceOnUse">
      <stop offset="0" stop-color="#b2b2b2"/>
      <stop offset=".35955" stop-color="#b2b2b2"/>
      <stop offset=".55618" stop-color="#e5e5e5"/>
      <stop offset="1" stop-color="#e5e5e5"/>
    </linearGradient>
    <linearGradient id="linear-gradient-4" x1="6.579032" y1="34.565382" x2="17.1100526" y2="45.0964026" gradientUnits="userSpaceOnUse"><stop offset="0" stop-color="#b2b2b2"/><stop offset=".35955" stop-color="#b2b2b2"/><stop offset=".55618" stop-color="#e5e5e5"/><stop offset="1" stop-color="#e5e5e5"/></linearGradient>
    <linearGradient id="linear-gradient-5" x1="15.0549693" y1="14.8425693" x2="25.8466073" y2="25.6342073" gradientUnits="userSpaceOnUse"><stop offset="0" stop-color="#b2b2b2"/><stop offset=".35955" stop-color="#b2b2b2"/><stop offset=".55618" stop-color="#e5e5e5"/><stop offset="1" stop-color="#e5e5e5"/></linearGradient>
    <linearGradient id="New_Gradient_17" data-name="New Gradient 17" x1="15.310645" y1="15.370695" x2="32.8555975" y2="32.9156475" gradientUnits="userSpaceOnUse">
      <stop offset="0" stop-color="#666"/>
      <stop offset="1" stop-color="#fff"/>
    </linearGradient>
  </defs>
  <path d="M42.0649,16.5381c-1.873,1.8769-4.5322,2.4941-6.9238,1.8555l-16.4775,16.4804c.6367,2.3906.0185,5.0469-1.8584,6.9239-1.7891,1.789-4.2871,2.4355-6.585,1.9394l3.9844-3.9883-1.1475-4.2871-4.289-1.1484-4.0166,4.0195c-.5323-2.3242.1084-4.8633,1.9179-6.6738,1.8018-1.8008,4.3233-2.4414,6.6377-1.9238L30.0054,13.0381c-.5205-2.3125.122-4.836,1.9238-6.6367,1.7881-1.7891,4.2881-2.4356,6.5869-1.9375l-3.9834,3.9863,1.1465,4.2852,4.2871,1.1503,4.0186-4.0195c.5302,2.3242-.1075,4.8613-1.92,6.6719Z" fill="url(#New_Gradient_18)" stroke="#000" stroke-linecap="round" stroke-linejoin="round" stroke-width="2"/>
  <path d="M42.0562,16.5498c-1.879,1.877-4.5333,2.4941-6.9268,1.8574l-16.4766,16.4785c.6377,2.3907.0166,5.0489-1.8574,6.9258-1.7861,1.7891-4.2871,2.4336-6.5879,1.9375l3.9873-3.9863-1.1504-4.2891-4.2841-1.1465-4.0206,4.0157c-.5302-2.3223.1094-4.8594,1.917-6.668,1.8047-1.8027,4.3262-2.4473,6.6397-1.9277L29.9946,13.0537c-.5205-2.3164.125-4.8379,1.9239-6.6426,1.79-1.7851,4.2871-2.4336,6.5878-1.9355l-3.9863,3.9883,1.1485,4.2832,4.2871,1.1504,4.0175-4.0196c.5313,2.3262-.1084,4.8614-1.9169,6.6719Z" fill="url(#linear-gradient)"/>
  <path d="M33.689,16.167h0c.7109.709.7109,1.8594,0,2.5703l-14.9522,14.959c-.7158.7109-1.8642.7109-2.5742,0h0c-.7119-.7109-.7119-1.8594,0-2.5703l14.9561-14.959c.7099-.7129,1.8623-.7129,2.5703,0Z" fill="url(#linear-gradient-2)" fill-rule="evenodd"/>
  <g mask="url(#mask)">
    <g>
      <g>
        <path d="M43.5356,9.4424l-4.0166,4.0195-3.5986-.9648.1836.6894,4.2871,1.1485,3.3252-3.3243c-.0029-.5253-.0625-1.0507-.1807-1.5683Z" fill="url(#linear-gradient-3)"/>
        <path d="M12.7944,35.7275l.961,3.5977-3.9854,3.9883c.5254.1133,1.0576.1621,1.5879.1582l3.2715-3.2735-1.1494-4.289-.6856-.1817Z" fill="url(#linear-gradient-4)"/>
        <path d="M37.354,4.7529l.7148-.7129c-2.2998-.498-4.7998.1485-6.5859,1.9375-1.8017,1.8028-2.4453,4.3223-1.9267,6.6368L12.8618,29.3115c-2.3183-.5176-4.8398.1231-6.6396,1.9239-1.8106,1.8125-2.4502,4.3496-1.919,6.6718l.6963-.6953c-.0058-1.8457.6865-3.6933,2.0977-5.1015,1.7998-1.8008,4.3213-2.4434,6.6377-1.9278L30.4302,13.4912c-.5196-2.3164.122-4.8398,1.9248-6.6406,1.3818-1.3828,3.1894-2.0801,4.999-2.0977Z" fill="url(#linear-gradient-5)"/>
      </g>
      <path d="M32.8491,15.3799h0c.711.709.711,1.8613,0,2.5722l-14.958,14.9551c-.7099.7129-1.8623.7129-2.5732,0h0c-.709-.707-.709-1.8593,0-2.5683l14.958-14.9629c.7109-.7071,1.8623-.7071,2.5732.0039Z" fill="url(#New_Gradient_17)" fill-rule="evenodd"/>
    </g>
  </g>
</svg>