<?xml version="1.0" encoding="UTF-8"?>
<svg id="Icons_-_24x24" data-name="Icons - 24x24" xmlns="http://www.w3.org/2000/svg" width="48" height="48" xmlns:xlink="http://www.w3.org/1999/xlink" viewBox="0 0 48 48">
  <defs>
    <mask id="mask" x="8" y="8" width="33.0946905" height="34.4297" maskUnits="userSpaceOnUse">
      <path d="M21.952091,25.9126c0-1.459,1.1836-2.9414,2.6416999-3.3091,1.4609-.3686,2.6444999.5166,2.6444999,1.9756,0,1.4595-1.1836,2.9404-2.6444999,3.3101-1.4581.3671-2.6416999-.5166-2.6416999-1.9766ZM9.4960913,29.0566c0-8.3388,6.7577998-16.8066,15.0976996-18.9106,8.3407998-2.1055,15.1014996,2.9492,15.1014996,11.2881,0,8.3398-6.7606998,16.8061-15.1014996,18.9116-8.3398998,2.105-15.0976996-2.9492-15.0976996-11.2891Z" fill="#fff" fill-rule="evenodd"/>
    </mask>
    <mask id="mask-1" x="8" y="8" width="33.0946905" height="34.4297" maskUnits="userSpaceOnUse">
      <path d="M24.5937909,10.9033c7.9247998-2.0005,14.3465996,2.8013,14.3465996,10.7241,0,7.9214-6.4217998,15.9659-14.3465996,17.9659-7.9218998,2-14.3437909-2.8023-14.3437909-10.7251,0-7.9219,6.4218911-15.9659,14.3437909-17.9649Z" fill="#fff"/>
    </mask>
    <linearGradient id="New_Gradient_2" data-name="New Gradient 2" x1="12.2494036" y1="15.250633" x2="36.9405086" y2="35.2450956" gradientUnits="userSpaceOnUse">
      <stop offset="0" stop-color="#fff"/>
      <stop offset="1" stop-color="#ccc"/>
    </linearGradient>
  </defs>
  <path d="M21.680691,25.8413c0-1.6025,1.2998-3.2309,2.901309-3.6348,1.6044909-.4047,2.9042908.5674,2.9042908,2.17,0,1.603-1.2998,3.2295-2.9042908,3.6357-1.6015091.4033-2.901309-.5674-2.901309-2.1709ZM8,29.2949c0-9.1592,7.4218911-18.4595,16.582-20.7705,9.1611907-2.3125,16.5868905,3.2393,16.5868905,12.398,0,9.1601-7.4256998,18.4585-16.5868905,20.7714-9.1601089,2.3116-16.582-3.2392-16.582-12.3989Z" fill="#b2b2b2" fill-rule="evenodd" stroke="#000" stroke-miterlimit="3.8637"/>
  <g mask="url(#mask)">
    <g>
      <path d="M21.952091,25.9126c0-1.459,1.1836-2.9414,2.6416999-3.3091,1.4609-.3686,2.6444999.5166,2.6444999,1.9756,0,1.4595-1.1836,2.9404-2.6444999,3.3101-1.4581.3671-2.6416999-.5166-2.6416999-1.9766ZM9.4960913,29.0566c0-8.3388,6.7577998-16.8066,15.0976996-18.9106,8.3407998-2.1055,15.1014996,2.9492,15.1014996,11.2881,0,8.3398-6.7606998,16.8061-15.1014996,18.9116-8.3398998,2.105-15.0976996-2.9492-15.0976996-11.2891Z" fill="#b2b2b2" fill-rule="evenodd"/>
      <g mask="url(#mask-1)">
        <g>
          <path d="M24.5937909,10.9033c7.9247998-2.0005,14.3465996,2.8013,14.3465996,10.7241,0,7.9214-6.4217998,15.9659-14.3465996,17.9659-7.9218998,2-14.3437909-2.8023-14.3437909-10.7251,0-7.9219,6.4218911-15.9659,14.3437909-17.9649Z" fill="url(#New_Gradient_2)"/>
          <g>
            <polygon points="24.5233909 25.2476 32.6737907 8 35.6054906 9.5542 24.5233909 25.2476" fill="#b2d6e8" fill-rule="evenodd"/>
            <polygon points="38.2714905 11.8633 24.5233909 25.2476 35.6054906 9.5542 38.2714905 11.8633" fill="#f6f8b2" fill-rule="evenodd"/>
            <polygon points="24.5233909 25.2476 39.8710905 14.6611 38.2714905 11.8633 24.5233909 25.2476" fill="#c8e9c2" fill-rule="evenodd"/>
            <polygon points="24.5233909 25.2476 40.9335905 17.9609 39.8710905 14.6611 24.5233909 25.2476" fill="#e5c9b0" fill-rule="evenodd"/>
            <polygon points="24.5233909 25.2476 41.0946905 21.5977 40.9335905 17.9609 24.5233909 25.2476" fill="#fff" fill-rule="evenodd"/>
          </g>
          <g>
            <polygon points="24.5731909 25.1821 16.4208911 42.4297 13.4901912 40.875 24.5731909 25.1821" fill="#b2d6e8" fill-rule="evenodd"/>
            <polygon points="10.8231912 38.5659 24.5731909 25.1821 13.4901912 40.875 10.8231912 38.5659" fill="#f6f8b2" fill-rule="evenodd"/>
            <polygon points="24.5731909 25.1821 9.2226913 35.769 10.8231912 38.5659 24.5731909 25.1821" fill="#c8e9c2" fill-rule="evenodd"/>
            <polygon points="24.5731909 25.1821 8.1591913 32.4683 9.2226913 35.769 24.5731909 25.1821" fill="#e5c9b0" fill-rule="evenodd"/>
            <polygon points="24.5731909 25.1821 8 28.8325 8.1591913 32.4683 24.5731909 25.1821" fill="#fff" fill-rule="evenodd"/>
          </g>
        </g>
      </g>
      <path d="M24.5937909,19.9629c2.9188999-.7363,5.2850999,1.0327,5.2850999,3.9517,0,2.9184-2.3661999,5.8823-5.2850999,6.6181-2.9179999.7378-5.2832999-1.0312-5.2832999-3.9512,0-2.9174,2.3652999-5.8818,5.2832999-6.6186Z" fill="#999" stroke="#666" stroke-miterlimit="3.8637" stroke-width="1.05"/>
      <path d="M21.952091,25.9126c0-1.459,1.1836-2.9414,2.6416999-3.3091,1.4609-.3686,2.6444999.5166,2.6444999,1.9756,0,1.4595-1.1836,2.9404-2.6444999,3.3101-1.4581.3671-2.6416999-.5166-2.6416999-1.9766ZM9.4960913,29.0566c0-8.3388,6.7577998-16.8066,15.0976996-18.9106,8.3407998-2.1055,15.1014996,2.9492,15.1014996,11.2881,0,8.3398-6.7606998,16.8061-15.1014996,18.9116-8.3398998,2.105-15.0976996-2.9492-15.0976996-11.2891Z" fill="none" fill-rule="evenodd"/>
    </g>
  </g>
</svg>