<?xml version="1.0" encoding="UTF-8"?>
<svg id="Set_3" data-name="Set 3" xmlns="http://www.w3.org/2000/svg" width="48" height="48" viewBox="0 0 48 48">
  <path d="M13.0923972,40.1736c-2.3006999,0-3.8795999-2.4846-3.9147999-6.9689,0-4.5704,1.7217-7.055,4.1144027-7.055,2.4651972,0,3.8991971,2.5453,3.8991971,6.8671,0,4.6115-1.5045,7.1568-4.0810999,7.1568h-.0177ZM13.1843972,38.7552c1.6142,0,2.3908999-2.1932,2.3908999-5.6561,0-3.3378-.7221-5.531-2.3908999-5.531-1.4517,0-2.3926999,2.1286-2.3926999,5.531-.0372,3.5275.9058,5.6561,2.3730999,5.6561h.0196Z"/>
  <g>
    <polyline points="24.9504969 35.6228 24.9504969 38.1702 19.1945971 33.6507 24.9504969 29.1274 24.9504969 31.7412"/>
    <polyline points="36.3077967 26.2006 36.3077967 33.6507 23.201497 33.6507" fill="none" stroke="#000" stroke-linecap="round" stroke-miterlimit="3.8637" stroke-width=".7125"/>
  </g>
  <path d="M8.1503974,22.1429c-.5713974,0-.9762-.4296-.9762-1.0017,0-.5722.4207-1.0017,1.0115-1.0017.587,0,.9919.4129.9919,1.0017,0,.5721-.4049,1.0017-1.0095,1.0017h-.0177Z"/>
  <path d="M35.13,22.1429c-2.3007033,0-3.8796032-2.4837-3.9149032-6.9699,0-4.5704,1.7218-7.054,4.1143999-7.054,2.4652999,0,3.8992999,2.5453,3.8992999,6.8661,0,4.6124-1.5046,7.1578-4.0811999,7.1578h-.0175967ZM35.222,20.7245c1.6140966,0,2.3907966-2.1922,2.3907966-5.6561,0-3.3389-.722-5.531-2.3907966-5.531-1.4517033,0-2.3927033,2.1286-2.3927033,5.531-.0372967,3.5274.9057033,5.6561,2.3729999,5.6561h.0197033Z" opacity=".5"/>
  <path d="M25.1128969,22.1429c-2.3006999,0-3.8795999-2.4837-3.9147999-6.9699,0-4.5704,1.7217-7.054,4.1143999-7.054,2.4651999,0,3.8991999,2.5453,3.8991999,6.8661,0,4.6124-1.5045,7.1578-4.0810999,7.1578h-.0177ZM25.2048969,20.7245c1.6141031,0,2.3908999-2.1922,2.3908999-5.6561,0-3.3389-.7221-5.531-2.3908999-5.531-1.4517,0-2.3926999,2.1286-2.3926999,5.531-.0373,3.5274.905803,5.6561,2.3730999,5.6561h.0196Z"/>
  <path d="M15.0958972,22.1429c-2.3007999,0-3.8796999-2.4837-3.9148972-6.9699,0-4.5704,1.7216972-7.054,4.1143972-7.054,2.4651999,0,3.8991999,2.5453,3.8991999,6.8661,0,4.6124-1.5045,7.1578-4.0810999,7.1578h-.0176ZM15.1877972,20.7245c1.6142028,0,2.3908999-2.1922,2.3908999-5.6561,0-3.3389-.722-5.531-2.3908999-5.531-1.4517,0-2.3926999,2.1286-2.3926999,5.531-.0372,3.5274.9058,5.6561,2.3730999,5.6561h.0196Z"/>
</svg>