<?xml version="1.0" encoding="UTF-8"?>
<svg id="Icons_-_24x24" data-name="Icons - 24x24" xmlns="http://www.w3.org/2000/svg" width="20" height="20" viewBox="0 0 20 20">
  <path d="M5.8564453,5.871582c.6894531-.1362305,1.6445312-.2089844,2.8632812-.21875,1.2851562-.0146484,2.2460938.1733398,2.8837891.5639648.3603516.1806641.6425781.4418945.8457031.7836914.2138672.3369141.3203125.7421875.3203125,1.2158203,0,.4394531-.1298828.8496094-.3886719,1.2304688-.2734375.3759766-.6933594.6811523-1.2597656.9155273v.0292969c.6005859.1464844,1.0839844.4296875,1.4501953.8496094.3486328.4199219.5273438.9667969.5361328,1.640625-.0185547.9277344-.3564453,1.640625-1.0126953,2.1386719-.6699219.6005859-1.9521484.9057617-3.8447266.9155273-1.0908203-.0097656-1.8886719-.0585938-2.3935547-.1459961V5.871582ZM8.0527344,9.7402344h.7265625c1.1767578-.0244141,1.7705078-.4418945,1.7792969-1.2529297-.0087891-.7768555-.53125-1.1699219-1.5673828-1.1796875-.4707031,0-.7832031.0244141-.9384766.0737305v2.3588867ZM8.0527344,14.2226562c.203125.0390625.4882812.0541992.8564453.0439453.5244141,0,.9707031-.1147461,1.3388672-.3452148.3535156-.2299805.5351562-.6069336.5449219-1.1313477-.0097656-.5092773-.1962891-.8789062-.5595703-1.109375-.3769531-.2104492-.8515625-.3154297-1.4228516-.3154297h-.7578125v2.8574219Z"/>
</svg>