<?xml version="1.0" encoding="UTF-8"?>
<svg id="Set_1" data-name="Set 1" xmlns="http://www.w3.org/2000/svg" width="20" height="20" viewBox="0 0 20 20">
  <g opacity=".25">
    <g>
      <line x1="3.4766938" y1="4.2143" x2="8.4261937" y2="4.2143" fill="none" stroke="#000" stroke-linecap="round" stroke-miterlimit="3.8637" stroke-width=".7125"/>
      <line x1="3.4766938" y1="6.705" x2="8.4261937" y2="6.705" fill="none" stroke="#000" stroke-linecap="round" stroke-miterlimit="3.8637" stroke-width=".7125"/>
      <line x1="3.4766938" y1="9.195" x2="8.4261937" y2="9.195" fill="none" stroke="#000" stroke-linecap="round" stroke-miterlimit="3.8637" stroke-width=".7125"/>
      <line x1="3.4766938" y1="11.6856" x2="8.4261937" y2="11.6856" fill="none" stroke="#000" stroke-linecap="round" stroke-miterlimit="3.8637" stroke-width=".7125"/>
      <line x1="3.4766938" y1="14.1762" x2="8.4261937" y2="14.1762" fill="none" stroke="#000" stroke-linecap="round" stroke-miterlimit="3.8637" stroke-width=".7125"/>
    </g>
    <g>
      <line x1="3.4766938" y1="5.0445" x2="8.4261937" y2="5.0445" fill="none" stroke="#999" stroke-linecap="round" stroke-miterlimit="3.8637" stroke-width=".7125"/>
      <line x1="3.4766938" y1="7.5345" x2="8.4261937" y2="7.5345" fill="none" stroke="#999" stroke-linecap="round" stroke-miterlimit="3.8637" stroke-width=".7125"/>
      <line x1="3.4766938" y1="10.0253" x2="8.4261937" y2="10.0253" fill="none" stroke="#999" stroke-linecap="round" stroke-miterlimit="3.8637" stroke-width=".7125"/>
      <line x1="3.4766938" y1="12.5159" x2="8.4261937" y2="12.5159" fill="none" stroke="#999" stroke-linecap="round" stroke-miterlimit="3.8637" stroke-width=".7125"/>
      <line x1="3.4766938" y1="15.0066" x2="8.4261937" y2="15.0066" fill="none" stroke="#999" stroke-linecap="round" stroke-miterlimit="3.8637" stroke-width=".7125"/>
    </g>
  </g>
  <g>
    <line x1="8.4823937" y1="4.2143" x2="16.7271935" y2="4.2143" fill="none" stroke="#000" stroke-linecap="round" stroke-miterlimit="3.8637" stroke-width=".7125"/>
    <line x1="8.4823937" y1="6.705" x2="16.7271935" y2="6.705" fill="none" stroke="#000" stroke-linecap="round" stroke-miterlimit="3.8637" stroke-width=".7125"/>
    <line x1="8.4823937" y1="9.195" x2="16.7271935" y2="9.195" fill="none" stroke="#000" stroke-linecap="round" stroke-miterlimit="3.8637" stroke-width=".7125"/>
    <line x1="8.4823937" y1="11.6856" x2="16.7271935" y2="11.6856" fill="none" stroke="#000" stroke-linecap="round" stroke-miterlimit="3.8637" stroke-width=".7125"/>
    <line x1="8.4823937" y1="14.1762" x2="13.4062936" y2="14.1762" fill="none" stroke="#000" stroke-linecap="round" stroke-miterlimit="3.8637" stroke-width=".7125"/>
  </g>
  <g>
    <line x1="8.4823937" y1="5.0445" x2="16.7271935" y2="5.0445" fill="none" stroke="#999" stroke-linecap="round" stroke-miterlimit="3.8637" stroke-width=".7125"/>
    <line x1="8.4823937" y1="7.5345" x2="16.7271935" y2="7.5345" fill="none" stroke="#999" stroke-linecap="round" stroke-miterlimit="3.8637" stroke-width=".7125"/>
    <line x1="8.4823937" y1="10.0253" x2="16.7271935" y2="10.0253" fill="none" stroke="#999" stroke-linecap="round" stroke-miterlimit="3.8637" stroke-width=".7125"/>
    <line x1="8.4823937" y1="12.5159" x2="16.7271935" y2="12.5159" fill="none" stroke="#999" stroke-linecap="round" stroke-miterlimit="3.8637" stroke-width=".7125"/>
    <line x1="8.4823937" y1="15.0066" x2="13.4062936" y2="15.0066" fill="none" stroke="#999" stroke-linecap="round" stroke-miterlimit="3.8637" stroke-width=".7125"/>
  </g>
  <line x1="1.8417939" y1="8.3648" x2="6.7657938" y2="8.3648" fill="none" stroke="#000" stroke-linecap="round" stroke-miterlimit="3.8637" stroke-width=".7125"/>
  <polyline points="4.3062938 8.8145 4.3062938 9.87 6.6923938 7.9977 4.3062938 6.1233 4.3062938 7.2058"/>
</svg>