<?xml version='1.0' encoding='UTF-8'?>
<svg xmlns="http://www.w3.org/2000/svg" xmlns:xlink="http://www.w3.org/1999/xlink" id="Set_2" data-name="Set 2" width="20" height="20" viewBox="0 0 20 20">
  <defs>
    <mask id="mask" x="2.7560928" y="1.292" width="15.5630997" height="16.9531" maskUnits="userSpaceOnUse">
      <path d="M13.3850926,17.2445l-9.6277998.0006-.0012-14.9531,13.5630997.0013-.0047,11.3566c0,1.7124-2.1015999,3.5946-3.9293999,3.5946Z" fill="#fff" fill-rule="evenodd" stroke="#fff" stroke-linecap="round" stroke-linejoin="round" stroke-width="2"/>
    </mask>
    <linearGradient id="New_Gradient_57" data-name="New Gradient 57" x1="6.2888649" y1="1.0566845" x2="14.7239835" y2="18.3512406" gradientUnits="userSpaceOnUse">
      <stop offset="0" stop-color="#e5e5e5"/>
      <stop offset="1" stop-color="#fff"/>
    </linearGradient>
    <radialGradient id="New_Gradient_93" data-name="New Gradient 93" cx="-22.2037306" cy="32.8171228" fx="-22.2037306" fy="32.8171228" r="4.4621033" gradientTransform="translate(35.6558 -17.8144114) scale(1.0313 .9421)" gradientUnits="userSpaceOnUse">
      <stop offset="0" stop-color="#fff"/>
      <stop offset="1" stop-color="#ccc"/>
    </radialGradient>
    <mask id="mask-1" x="3.7560928" y="2.292" width="13.5851997" height="15.0136" maskUnits="userSpaceOnUse">
      <path d="M13.3850926,17.2445l-9.6277998.0006-.0012-14.9531,13.5630997.0013-.0047,11.3566c0,1.7124-2.1015999,3.5946-3.9293999,3.5946Z" fill="#fff" fill-rule="evenodd"/>
    </mask>
    <linearGradient id="New_Gradient_55" data-name="New Gradient 55" x1="6.2888649" y1="1.0566845" x2="14.7239835" y2="18.3512406" gradientUnits="userSpaceOnUse">
      <stop offset="0" stop-color="#e5e5e5"/>
      <stop offset=".286514" stop-color="#f2f2f2"/>
      <stop offset=".646072" stop-color="#fff"/>
      <stop offset="1" stop-color="#fff"/>
    </linearGradient>
    <radialGradient id="New_Gradient_56" data-name="New Gradient 56" cx="-22.2037306" cy="32.8171228" fx="-22.2037306" fy="32.8171228" r="4.4621033" gradientTransform="translate(35.6558 -17.8144114) scale(1.0313 .9421)" gradientUnits="userSpaceOnUse">
      <stop offset="0" stop-color="#e5e5e5"/>
      <stop offset=".331467" stop-color="#e5e5e5"/>
      <stop offset="1" stop-color="#999"/>
    </radialGradient>
    <linearGradient id="linear-gradient" x1="9.0476927" y1="8.18265" x2="13.3032926" y2="8.18265" gradientUnits="userSpaceOnUse">
      <stop offset="0" stop-color="#c9ffc9"/>
      <stop offset=".55618" stop-color="#00cd00"/>
      <stop offset="1" stop-color="#23a11f"/>
    </linearGradient>
    <radialGradient id="radial-gradient" cx="6.8626307" cy="9.3293676" fx="6.8626307" fy="9.3293676" r="2.8093567" gradientUnits="userSpaceOnUse">
      <stop offset="0" stop-color="#fff"/>
      <stop offset=".0998635" stop-color="#fdfeff"/>
      <stop offset=".1358351" stop-color="#f6fcff"/>
      <stop offset=".1614737" stop-color="#eaf8ff"/>
      <stop offset=".1821949" stop-color="#d9f3ff"/>
      <stop offset=".1997497" stop-color="#c3ecff"/>
      <stop offset=".207865" stop-color="#b7e9ff"/>
      <stop offset=".426966" stop-color="#3c97f6"/>
      <stop offset=".865173" stop-color="#032c87"/>
      <stop offset="1" stop-color="#0342d3"/>
    </radialGradient>
    <mask id="mask-2" x="7.9788113" y="8.9649747" width="6.2338024" height="5.4210261" maskUnits="userSpaceOnUse">
      <path d="M8.7482927,13.7911c-.6854.0011-.9651-.4619-.6242927-1.0287l2.0317927-3.3723c.3422073-.5663.903-.567,1.2462073-.0011l2.0417926,3.3666c.342.5656.061,1.0293-.6232,1.0306l-4.0722999.0049Z" fill="#fff"/>
    </mask>
    <linearGradient id="linear-gradient-2" x1="7.9788113" y1="11.3780383" x2="13.5895114" y2="11.3780383" gradientUnits="userSpaceOnUse">
      <stop offset="0" stop-color="#f3403f"/>
      <stop offset=".3789338" stop-color="#d02a27"/>
      <stop offset=".7765172" stop-color="#b11713"/>
      <stop offset="1" stop-color="#a6100c"/>
    </linearGradient>
    <radialGradient id="radial-gradient-2" cx="10.7841613" cy="11.7970266" fx="10.7841613" fy="11.7970266" r="2.5778897" gradientTransform="translate(0 -.8484) scale(1 1.0364)" gradientUnits="userSpaceOnUse">
      <stop offset=".005618" stop-color="#ffffb3"/>
      <stop offset="1" stop-color="#d68100"/>
    </radialGradient>
    <linearGradient id="linear-gradient-3" x1="8.946141" y1="6.8088416" x2="14.5574299" y2="6.8088416" gradientTransform="translate(-.3545 5.7099836) scale(1 .9216)" gradientUnits="userSpaceOnUse"><stop offset="0" stop-color="#f3403f"/><stop offset=".3789338" stop-color="#d02a27"/><stop offset=".7765172" stop-color="#b11713"/><stop offset="1" stop-color="#a6100c"/></linearGradient>
  </defs>
  <g>
    <g mask="url(#mask)">
      <g>
        <path d="M13.3850926,17.2445l-9.6277998.0006-.0012-14.9531,13.5630997.0013-.0047,11.3566c0,1.7124-2.1015999,3.5946-3.9293999,3.5946Z" fill="url(#New_Gradient_57)" fill-rule="evenodd"/>
        <path d="M12.7570926,17.3049s2.2492999-.0787,2.2492999-2.3574c2.3153999.0006,2.3348999-1.8449,2.3348999-1.8449l-.0012,4.203-4.5829999-.0007Z" fill="url(#New_Gradient_93)" fill-rule="evenodd"/>
        <path d="M13.3850926,17.2445l-9.6277998.0006-.0012-14.9531,13.5630997.0013-.0047,11.3566c0,1.7124-2.1015999,3.5946-3.9293999,3.5946Z" fill="none" fill-rule="evenodd" stroke="#000" stroke-linecap="round" stroke-linejoin="round" stroke-width="2"/>
      </g>
    </g>
    <g mask="url(#mask-1)">
      <g>
        <path d="M13.3850926,17.2445l-9.6277998.0006-.0012-14.9531,13.5630997.0013-.0047,11.3566c0,1.7124-2.1015999,3.5946-3.9293999,3.5946Z" fill="url(#New_Gradient_55)" fill-rule="evenodd"/>
        <path d="M12.7570926,17.3049s1.5651-.5736,1.5651-2.8534c2.3140999-.0006,3.0190999-1.3489,3.0190999-1.3489l-.0012,4.203-4.5829999-.0007Z" fill="url(#New_Gradient_56)" fill-rule="evenodd"/>
      </g>
    </g>
  </g>
  <g>
    <g>
      <rect x="9.0476927" y="6.4016" width="4.2555999" height="3.5621" fill="#fff" stroke="#000" stroke-width="2"/>
      <rect x="9.0476927" y="6.4016" width="4.2555999" height="3.5621" fill="url(#linear-gradient)"/>
    </g>
    <g>
      <path d="M9.8222927,10.1959c0,1.049-.8504,1.8988-1.8986,1.8988-1.0483,0-1.9-.8498-1.9-1.8988,0-1.0483.8517-1.8987,1.9-1.8987,1.0482,0,1.8986.8504,1.8986,1.8987Z" fill="#24972f" stroke="#000" stroke-width="2"/>
      <path d="M9.8222927,10.2588c0,1.0838-.8797,1.9615-1.9622,1.9615s-1.961-.8777-1.961-1.9615c0-1.0837.8785-1.9616,1.961-1.9616s1.9622.8779,1.9622,1.9616Z" fill="url(#radial-gradient)"/>
    </g>
    <g>
      <path d="M8.7482927,13.7911c-.6854.0011-.9651-.4619-.6242927-1.0287l2.0317927-3.3723c.3422073-.5663.903-.567,1.2462073-.0011l2.0417926,3.3666c.342.5656.061,1.0293-.6232,1.0306l-4.0722999.0049Z" fill="none" stroke="#000" stroke-width="2"/>
      <g mask="url(#mask-2)">
        <g>
          <path d="M8.7482927,13.7911c-.6854.0011-.9651-.4619-.6242927-1.0287l2.0317927-3.3723c.3422073-.5663.903-.567,1.2462073-.0011l2.0417926,3.3666c.342.5656.061,1.0293-.6232,1.0306l-4.0722999.0049Z" fill="url(#linear-gradient-2)"/>
          <path d="M8.7482927,13.7911c-.6854.0011-.9651-.4619-.6242927-1.0287l2.0317927-3.3723c.3422073-.5663.903-.567,1.2462073-.0011l2.0417926,3.3666c.342.5656.061,1.0293-.6232,1.0306l-4.0722999.0049Z" fill="url(#radial-gradient-2)"/>
          <path d="M9.3714927,14.386c-.6856.0007-.9664927-.4623-.6244-1.0298l2.0331999-3.3724c.342-.5669.9017073-.5675,1.2462-.0011l2.0403999,3.3673c.342.565.061,1.0293-.6231,1.0299l-4.0722999.0061Z" fill="url(#linear-gradient-3)"/>
        </g>
      </g>
    </g>
  </g>
</svg>