<?xml version="1.0" encoding="UTF-8"?>
<svg id="Icons_-_24x24" data-name="Icons - 24x24" xmlns="http://www.w3.org/2000/svg" width="20" height="20" xmlns:xlink="http://www.w3.org/1999/xlink" viewBox="0 0 20 20">
  <defs>
    <radialGradient id="radial-gradient" cx="-7.6187019" cy="-15.1504334" fx="-7.6187019" fy="-15.1504334" r="15.5347379" gradientTransform="translate(16.3974 23.0654) scale(.8333)" gradientUnits="userSpaceOnUse">
      <stop offset=".191011" stop-color="gray"/>
      <stop offset=".2044765" stop-color="gray"/>
      <stop offset=".707865" stop-color="gray"/>
    </radialGradient>
    <radialGradient id="radial-gradient-2" cx="-9.8783522" cy="-16.4594865" fx="-9.8783522" fy="-16.4594865" r="14.6572617" gradientTransform="translate(16.3974 23.0654) scale(.8333)" gradientUnits="userSpaceOnUse">
      <stop offset=".44382" stop-color="#f9e917"/>
      <stop offset=".4866018" stop-color="#f8e616"/>
      <stop offset=".5107358" stop-color="#f5de16"/>
      <stop offset=".5302345" stop-color="#f0d015"/>
      <stop offset=".5471417" stop-color="#eabd15"/>
      <stop offset=".561798" stop-color="#e2a514"/>
      <stop offset=".702247" stop-color="#f9e917"/>
      <stop offset=".842697" stop-color="#e2a514"/>
      <stop offset=".938202" stop-color="#f9e917"/>
      <stop offset="1" stop-color="#d68112"/>
    </radialGradient>
    <radialGradient id="radial-gradient-3" cx="-7.5459" cy="-15.1899071" fx="-7.5459" fy="-15.1899071" r="14.3188928" gradientTransform="translate(16.3974 23.0654) scale(.8333)" gradientUnits="userSpaceOnUse">
      <stop offset=".191011" stop-color="gray"/>
      <stop offset=".2277988" stop-color="#9f9f9f"/>
      <stop offset=".2768374" stop-color="#c1c1c1"/>
      <stop offset=".3268178" stop-color="#dcdcdc"/>
      <stop offset=".3774113" stop-color="#efefef"/>
      <stop offset=".4290096" stop-color="#fbfbfb"/>
      <stop offset=".483146" stop-color="#fff"/>
      <stop offset=".5369519" stop-color="#fcfcfc"/>
      <stop offset=".5758184" stop-color="#f2f2f2"/>
      <stop offset=".6099931" stop-color="#e2e2e2"/>
      <stop offset=".6414513" stop-color="#ccc"/>
      <stop offset=".6710511" stop-color="#afafaf"/>
      <stop offset=".6988858" stop-color="#8c8c8c"/>
      <stop offset=".707865" stop-color="gray"/>
    </radialGradient>
    <mask id="mask" x=".3525" y="1.252909" width="19.1937183" height="19.4249499" maskUnits="userSpaceOnUse">
      <path d="M17.3472,10.3721c-.0982,3.9116-3.1861,6.7387-7.2168,6.8276-3.7041.0816-7.3072-3.2031-7.2154-6.8413.0992-3.9136,3.1836-6.7393,7.2154-6.8276,3.7055-.0806,7.3061,3.2031,7.2168,6.8413ZM10.1304,6.8301c-2.0616-.003-3.7329,1.5781-3.7329,3.5312,0,1.9527,1.6713,3.5371,3.7329,3.5406,2.061.0019,3.7339-1.5806,3.7339-3.5332,0-1.9522-1.6729-3.5372-3.7339-3.5386Z" fill="#fff"/>
    </mask>
    <radialGradient id="radial-gradient-4" cx="10.1094016" cy="10.4076504" fx="10.1094016" fy="10.4076504" r="11.9319333" gradientUnits="userSpaceOnUse">
      <stop offset=".224719" stop-color="gray"/>
      <stop offset=".2642511" stop-color="#9c9c9c"/>
      <stop offset=".332586" stop-color="#c6c6c6"/>
      <stop offset=".3942686" stop-color="#e5e5e5"/>
      <stop offset=".4465473" stop-color="#f8f8f8"/>
      <stop offset=".483146" stop-color="#fff"/>
      <stop offset=".5207264" stop-color="#fafafa"/>
      <stop offset=".5611494" stop-color="#ededed"/>
      <stop offset=".6029126" stop-color="#d8d8d8"/>
      <stop offset=".645574" stop-color="#bababa"/>
      <stop offset=".6885269" stop-color="#939393"/>
      <stop offset=".707865" stop-color="gray"/>
    </radialGradient>
    <radialGradient id="radial-gradient-5" cx="-59.5336624" cy="-68.0929446" fx="-59.5336624" fy="-68.0929446" r="6.7393513" gradientTransform="translate(79.0025 101.1014) rotate(13.2116182) scale(1.2032468 1.0736117) skewX(11.8306431)" gradientUnits="userSpaceOnUse">
      <stop offset=".325843" stop-color="#740000"/>
      <stop offset=".623595" stop-color="#df4e15"/>
      <stop offset=".6767685" stop-color="#da4a14"/>
      <stop offset=".7394779" stop-color="#cb3f11"/>
      <stop offset=".8070087" stop-color="#b42e0c"/>
      <stop offset=".8774485" stop-color="#931606"/>
      <stop offset=".932584" stop-color="#740000"/>
    </radialGradient>
  </defs>
  <path d="M17.1152,12.0181c.1368-.522.2178-1.0708.232-1.646.018-.7764-.1324-1.5391-.4146-2.2534.1612-1.1065.294-2.2168-.1758-3.3736-.7339-1.8008-3.083-1.499-5.1494-1.0693-.4839-.1055-.9795-.1553-1.477-.145-.9131.021-1.7783.1811-2.5708.4638-1.8164-.3823-4.1275-1.1738-5.1709-.144-1.0943,1.0801-.0196,3.2837.6894,5.146-.0947.437-.1513.8906-.1631,1.3618-.0205.8291.1524,1.6387.4717,2.394-.229,1.4512-.4341,3.0938.6944,4.0455,1.1069.9331,2.7885.5673,4.2749.1884.5791.1494,1.1757.2256,1.7744.2134.8105-.0176,1.5805-.1484,2.2983-.3726,2.0234.4361,4.4204,1.149,5.4151.0098.9619-1.1015-.125-3.1655-.7286-4.8188ZM15.6636,4.4824c.5722.4771.6816,1.3931.624,2.4048-.7661-1.1606-1.8906-2.1177-3.1763-2.7109,1.043-.1602,2-.1587,2.5523.3061ZM10.1304,13.9019c-2.0616-.0035-3.7329-1.5879-3.7329-3.5406,0-1.9531,1.6713-3.5342,3.7329-3.5312,2.061.0014,3.7339,1.5864,3.7339,3.5386,0,1.9526-1.6729,3.5351-3.7339,3.5332ZM3.1226,4.4814c.582-.5751,1.9897-.3173,3.3413.0054-1.3716.7549-2.4366,1.9199-3.0279,3.3604-.5224-1.3848-.9238-2.7627-.3134-3.3658ZM4.6055,16.2622c-.4942-.4165-.5611-1.2803-.4859-2.2075.7149,1,1.6978,1.8359,2.813,2.395-.956.1724-1.8555.2114-2.3271-.1875ZM17.082,16.2363c-.5527.6324-2.0088.437-3.498.1216,1.394-.7075,2.4941-1.8301,3.1367-3.2305.4849,1.2188.9028,2.4898.3613,3.1089Z" fill="url(#radial-gradient)" stroke="#000" stroke-miterlimit="3.8637" stroke-width="2"/>
  <path d="M15.6636,4.4824c1.4101,1.1797.0034,5.0386.2466,6.4014.2387,1.3638,2.0932,4.2983,1.1718,5.3525-1.0434,1.1944-5.3174-.5698-6.9414-.4961-1.1201.0508-4.4511,1.4375-5.5351.522-1.1231-.9482-.0332-4.207-.1172-5.2944-.1177-1.5366-2.5069-5.3584-1.3657-6.4864.9829-.9716,4.3227.4371,5.77.5079,1.4536.0717,5.3833-1.6724,6.771-.5069M8.7202,4.1675c-1.8359-.0908-5.0478-1.5855-6.3315-.3169-1.4912,1.4741,1.0473,5.0322,1.1953,6.9712.1191,1.5512-1.2002,4.5444.4971,5.9761,1.6806,1.4169,4.6943-.1622,6.3212-.2364,2.0533-.0927,6.0733,1.8408,7.4415.2754,1.185-1.3564-.7374-4.1728-1.0386-5.8838-.3692-2.0869.8213-4.0693-.0484-6.208-1.145-2.8154-6.249-.4897-8.0366-.5776" fill="url(#radial-gradient-2)"/>
  <path d="M17.3472,10.3721c-.0982,3.9116-3.1861,6.7387-7.2168,6.8276-3.7041.0816-7.3072-3.2031-7.2154-6.8413.0992-3.9136,3.1836-6.7393,7.2154-6.8276,3.7055-.0806,7.3061,3.2031,7.2168,6.8413ZM10.1304,6.8301c-2.0616-.003-3.7329,1.5781-3.7329,3.5312,0,1.9527,1.6713,3.5371,3.7329,3.5406,2.061.0019,3.7339-1.5806,3.7339-3.5332,0-1.9522-1.6729-3.5372-3.7339-3.5386Z" fill="url(#radial-gradient-3)" stroke="#000" stroke-miterlimit="3.8637" stroke-width="2"/>
  <g mask="url(#mask)">
    <g>
      <path d="M17.3472,10.3721c-.0982,3.9116-3.1861,6.7387-7.2168,6.8276-3.7041.0816-7.3072-3.2031-7.2154-6.8413.0992-3.9136,3.1836-6.7393,7.2154-6.8276,3.7055-.0806,7.3061,3.2031,7.2168,6.8413ZM10.1304,6.8301c-2.0616-.003-3.7329,1.5781-3.7329,3.5312,0,1.9527,1.6713,3.5371,3.7329,3.5406,2.061.0019,3.7339-1.5806,3.7339-3.5332,0-1.9522-1.6729-3.5372-3.7339-3.5386Z" fill="url(#radial-gradient-4)"/>
      <path d="M18.686,8.6099c-2.4575-.4131-4.4736.2929-7.7641-.479-.1118-1.2403.4175-3.9488,1.6943-5.3111-.7241-.3354-1.4775-.6094-2.2554-.7929-.7216-.169-1.4209-.251-2.0976-.2662-.9151,2.3951-1.4522,4.8946-.1807,7.9161-2.3608.9824-4.8657-.2393-7.1684-1.9034-.0381.3164-.0616.6397-.0616.9737,0,1.2231.2613,2.4502.7349,3.6235,2.665,1.0357,5.335,1.499,7.7515.4722.4829,2.5703-.6455,4.3506-2.1851,5.8032,1.0029.5742,2.0806,1.021,3.207,1.2852.4312.1015.8521.1645,1.2676.2094,1.1172-2.6821,1.9863-5.4311.5503-8.8418,2.3086,1.2486,5.958,1.6714,6.835,1.4761l-.3277-4.165Z" fill="url(#radial-gradient-5)" stroke="#c42e00" stroke-miterlimit="3.8637"/>
      <path d="M17.3472,10.3721c-.0982,3.9116-3.1861,6.7387-7.2168,6.8276-3.7041.0816-7.3072-3.2031-7.2154-6.8413.0992-3.9136,3.1836-6.7393,7.2154-6.8276,3.7055-.0806,7.3061,3.2031,7.2168,6.8413ZM10.1304,6.8301c-2.0616-.003-3.7329,1.5781-3.7329,3.5312,0,1.9527,1.6713,3.5371,3.7329,3.5406,2.061.0019,3.7339-1.5806,3.7339-3.5332,0-1.9522-1.6729-3.5372-3.7339-3.5386Z" fill="none"/>
    </g>
  </g>
</svg>