<?xml version='1.0' encoding='UTF-8'?>
<svg xmlns="http://www.w3.org/2000/svg" xmlns:xlink="http://www.w3.org/1999/xlink" id="Set_4" data-name="Set 4" width="20" height="20" viewBox="0 0 20 20">
  <defs>
    <linearGradient id="linear-gradient" x1="15.3638554" y1="12.3096951" x2="7.1907081" y2="4.720344" gradientUnits="userSpaceOnUse">
      <stop offset="0" stop-color="#7f7f7f"/>
      <stop offset="1" stop-color="#dcdcdc"/>
    </linearGradient>
    <linearGradient id="linear-gradient-2" x1="9.7876274" y1="7.3396992" x2="16.0181091" y2="12.6586077" gradientUnits="userSpaceOnUse"><stop offset="0" stop-color="#7f7f7f"/><stop offset="1" stop-color="#dcdcdc"/></linearGradient>
    <linearGradient id="linear-gradient-3" x1="11.868729" y1="14.7072696" x2="1.3839952" y2="8.0853172" gradientUnits="userSpaceOnUse">
      <stop offset="0" stop-color="#4c8bca"/>
      <stop offset="1" stop-color="#b7e9ff"/>
    </linearGradient>
    <linearGradient id="linear-gradient-4" x1="4.6012432" y1="9.5468236" x2="12.6020942" y2="16.3770811" gradientUnits="userSpaceOnUse">
      <stop offset="0" stop-color="#4c8bca"/>
      <stop offset="1" stop-color="#b7e9ff"/>
    </linearGradient>
  </defs>
  <g opacity=".75">
    <path d="M7.3294,9.1093c0-2.5353,2.0538-4.5879,4.5873-4.5879,2.5334,0,4.5873,2.0526,4.5873,4.5879,0,2.534-2.0539,4.5867-4.5873,4.5867-2.5335,0-4.5873-2.0527-4.5873-4.5867Z" fill="url(#linear-gradient)" stroke="#000"/>
    <path d="M8.6325,9.4343c0-1.9927,1.6158-3.6092,3.6097-3.6092,1.9935,0,3.6105,1.6165,3.6105,3.6092,0,1.9939-1.617,3.6117-3.6105,3.6117-1.9939,0-3.6097-1.6178-3.6097-3.6117Z" fill="url(#linear-gradient-2)"/>
  </g>
  <g>
    <rect x="2.9492" y="8.0671" width="8.808" height="7.5765" fill="url(#linear-gradient-3)" stroke="#000" stroke-linecap="round" stroke-linejoin="round"/>
    <rect x="4.1503" y="9.3182" width="7.2061" height="5.8391" fill="url(#linear-gradient-4)"/>
  </g>
</svg>