<?xml version='1.0' encoding='UTF-8'?>
<svg xmlns="http://www.w3.org/2000/svg" xmlns:xlink="http://www.w3.org/1999/xlink" id="Icons_-_24x24" data-name="Icons - 24x24" width="20" height="20" viewBox="0 0 20 20">
  <defs>
    <linearGradient id="New_Gradient_163" data-name="New Gradient 163" x1="20.2490828" y1="15.4981181" x2="8.6124965" y2="5.382588" gradientUnits="userSpaceOnUse">
      <stop offset="0" stop-color="#e5e5e5"/>
      <stop offset="1" stop-color="#ccc"/>
    </linearGradient>
    <linearGradient id="linear-gradient" x1="14.4384936" y1="5.342422" x2="14.4384936" y2="9.7248814" gradientUnits="userSpaceOnUse">
      <stop offset="0" stop-color="#333"/>
      <stop offset="1" stop-color="#ccc"/>
    </linearGradient>
    <linearGradient id="New_Gradient_162" data-name="New Gradient 162" x1="11.6854938" y1="17.6337352" x2=".0490986" y2="7.5183712" gradientUnits="userSpaceOnUse">
      <stop offset="0" stop-color="#e5e5e5"/>
      <stop offset="1" stop-color="#ccc"/>
    </linearGradient>
    <linearGradient id="New_Gradient_22" data-name="New Gradient 22" x1="10.0588054" y1="3.7150715" x2="3.9053648" y2="11.3139378" gradientUnits="userSpaceOnUse">
      <stop offset="0" stop-color="#d9d9d9"/>
      <stop offset=".522476" stop-color="#f2f2f2"/>
      <stop offset="1" stop-color="#ccc"/>
    </linearGradient>
    <linearGradient id="New_Gradient_22-2" data-name="New Gradient 22" x1="7.1339303" y1="3.7318785" x2="3.2878341" y2="8.4814119" gradientUnits="userSpaceOnUse"><stop offset="0" stop-color="#d9d9d9"/><stop offset=".522476" stop-color="#f2f2f2"/><stop offset="1" stop-color="#ccc"/></linearGradient>
    <linearGradient id="linear-gradient-2" x1="7.2626938" y1="10.4553111" x2="7.2626938" y2="4.6109317" gradientUnits="userSpaceOnUse">
      <stop offset="0" stop-color="#999"/>
      <stop offset="1" stop-color="#000"/>
    </linearGradient>
    <linearGradient id="New_Gradient_22-3" data-name="New Gradient 22" x1="15.9728313" y1="9.6094708" x2="9.819457" y2="17.2082552" gradientUnits="userSpaceOnUse"><stop offset="0" stop-color="#d9d9d9"/><stop offset=".522476" stop-color="#f2f2f2"/><stop offset="1" stop-color="#ccc"/></linearGradient>
    <linearGradient id="New_Gradient_22-4" data-name="New Gradient 22" x1="13.0480619" y1="9.6263377" x2="9.2020071" y2="14.3758199" gradientUnits="userSpaceOnUse"><stop offset="0" stop-color="#d9d9d9"/><stop offset=".522476" stop-color="#f2f2f2"/><stop offset="1" stop-color="#ccc"/></linearGradient>
    <linearGradient id="New_Gradient_1" data-name="New Gradient 1" x1="9.8974685" y1="11.5154713" x2="15.8930128" y2="15.2051666" gradientUnits="userSpaceOnUse">
      <stop offset="0" stop-color="#e5e5e5"/>
      <stop offset="1" stop-color="#ccc"/>
    </linearGradient>
    <linearGradient id="New_Gradient_1-2" data-name="New Gradient 1" x1="4.165788" y1="9.5328209" x2="6.7019912" y2="14.0676249" gradientUnits="userSpaceOnUse"><stop offset="0" stop-color="#e5e5e5"/><stop offset="1" stop-color="#ccc"/></linearGradient>
    <linearGradient id="linear-gradient-3" x1="14.2084738" y1="16.3972276" x2="13.1702568" y2="14.7454038" gradientUnits="userSpaceOnUse">
      <stop offset="0" stop-color="#999"/>
      <stop offset="1" stop-color="#ccc"/>
    </linearGradient>
    <linearGradient id="New_Gradient_1-3" data-name="New Gradient 1" x1="14.7303793" y1="16.4020844" x2="12.0346385" y2="14.0587127" gradientUnits="userSpaceOnUse"><stop offset="0" stop-color="#e5e5e5"/><stop offset="1" stop-color="#ccc"/></linearGradient>
  </defs>
  <polygon points="17.3964935 16.1968 11.4804936 10.0151 11.4804936 4.6973 17.3886935 10.8823 17.3964935 16.1968" fill="url(#New_Gradient_163)" fill-rule="evenodd" stroke="#000" stroke-linecap="round" stroke-linejoin="round" stroke-width="2"/>
  <polygon points="17.3964935 16.1968 11.4804936 10.0151 11.4804936 4.6973 17.3886935 10.8823 17.3964935 16.1968" fill="url(#linear-gradient)" fill-rule="evenodd"/>
  <polygon points="8.832 18.3335 2.918 12.1509 2.918 6.832 8.8261937 13.0166 8.832 18.3335" fill="url(#New_Gradient_162)" fill-rule="evenodd" stroke="#000" stroke-linecap="round" stroke-linejoin="round" stroke-width="2"/>
  <g>
    <path d="M3.0507939,12.252s-.5937939-.3409-.5937939-1.1817v-5.8183s-.0234061-.5342.3691939-.6465c.3926-.1128,7.3008061-1.7617,7.6581998-1.8575.4746063-.1274.9326063.2681.9326063.2681l-.0488064.0537.083-.0219v7.1162l-8.3769998,2.0673-.0234.0206Z" fill="url(#New_Gradient_22)" stroke="#000" stroke-linecap="round" stroke-linejoin="round" stroke-width="2"/>
    <path d="M3.0507939,12.252s-.5937939-.3409-.5937939-1.1817v-5.8183s-.0234061-.5342.3691939-.6465c.3926-.1128,7.3008061-1.7617,7.6581998-1.8575.4746063-.1274.9326063.2681.9326063.2681L3.0507939,12.252Z" fill="url(#New_Gradient_22-2)" fill-rule="evenodd"/>
    <polygon points="11.4511936 3.0479 3.0741939 5.1411 3.0741939 12.2314 11.4511936 10.1641 11.4511936 3.0479" fill="url(#linear-gradient-2)" fill-rule="evenodd"/>
    <path d="M2.918,12.0117v-6.8618c0-.0483.0624939-.1333.1053939-.1445l8.1357998-2.0659c.2178063-.0547.3574.2968.1406.352l-8.1171998,1.9907v6.8418c0,.2373-.2645939.1245-.2645939-.1123Z" fill="#fff"/>
    <polyline points="3.1825939 12.124 3.1825939 5.2822 11.334 3.2222" fill="none" stroke="#b2b2b2" stroke-linecap="round" stroke-linejoin="round" stroke-width=".75"/>
  </g>
  <g>
    <path d="M8.9638937,18.1455s-.5918-.3393-.5918-1.1802v-5.8188s-.0235-.5361.3701-.6485c.3906-.1113,7.2988063-1.7602,7.6561998-1.8549.4756065-.1285.9327.2675.9327.2675l-.0469.0538.082-.022v7.1147l-8.3759998,2.0694-.0263.019Z" fill="url(#New_Gradient_22-3)" stroke="#000" stroke-linecap="round" stroke-linejoin="round" stroke-width="2"/>
    <path d="M8.9638937,18.1455s-.5918-.3393-.5918-1.1802v-5.8188s-.0235-.5361.3701-.6485c.3906-.1113,7.2988063-1.7602,7.6561998-1.8549.4756065-.1285.9327.2675.9327.2675l-8.3671998,9.2349Z" fill="url(#New_Gradient_22-4)" fill-rule="evenodd"/>
    <polygon points="17.3661935 8.9424 8.9901937 11.0352 8.9901937 18.1265 17.3661935 16.0571 17.3661935 8.9424" fill="url(#New_Gradient_1)" fill-rule="evenodd"/>
    <path d="M8.832,17.9067v-6.8628c0-.0483.0634937-.1333.1074937-.1445l8.1346998-2.0644c.2168065-.0562.3574.2959.1406.3505l-8.1170998,1.9922v6.8418c0,.2364-.2656937.1231-.2656937-.1128Z" fill="#fff"/>
    <polyline points="9.0976937 18.0195 9.0976937 11.1777 17.25 9.1162" fill="none" stroke="#b2b2b2" stroke-linecap="round" stroke-linejoin="round" stroke-width=".75"/>
  </g>
  <polygon points="8.832 18.3335 2.918 12.1509 2.918 6.832 8.8261937 13.0166 8.832 18.3335" fill="url(#New_Gradient_1-2)" fill-rule="evenodd"/>
  <line x1="3.168" y1="7.335" x2="8.2968937" y2="12.7031" fill="none" stroke="#fff" stroke-linecap="round" stroke-linejoin="round"/>
  <line x1="3.2255939" y1="7.1558" x2="8.1776937" y2="12.3398" fill="none" stroke="#999" stroke-linecap="round" stroke-linejoin="round"/>
  <line x1="3.6093938" y1="7.2378" x2="3.6093938" y2="12.7402" fill="none" stroke="#636363" stroke-linecap="round" stroke-linejoin="round"/>
  <path d="M15.457,13.5107c-1.4316064.3555-2.8623064.712-4.2929063,1.0669v-2.7202c1.4306-.3545,2.8612999-.7109,4.2929063-1.0654v2.7187Z" fill="#fff" stroke="#999" stroke-miterlimit="3.8637"/>
  <path d="M15.4237935,15.5449c-1.1924.2959-2.3856999.5908-3.5799999.8882v-1.0098c1.1943-.2963,2.3875999-.5932,3.5799999-.8906v1.0122Z" fill="url(#linear-gradient-3)" fill-rule="evenodd"/>
  <path d="M15.1747936,15.2925c-1.1943.2973-2.3876999.5932-3.5809999.8901v-1.0112c1.1933-.2964,2.3866999-.5928,3.5809999-.8901v1.0112Z" fill="url(#New_Gradient_1-3)" fill-rule="evenodd" stroke="#999" stroke-miterlimit="3.8637"/>
</svg>