<?xml version='1.0' encoding='UTF-8'?>
<svg xmlns="http://www.w3.org/2000/svg" xmlns:xlink="http://www.w3.org/1999/xlink" id="Set_1" data-name="Set 1" width="20" height="20" viewBox="0 0 20 20">
  <defs>
    <mask id="mask" x="3.9581928" y="1.63311" width="15.7918072" height="17.79179" maskUnits="userSpaceOnUse">
      <path d="M14.3405926,18.4242l-9.3810998.0007-.0013-15.79179,13.7918072.00113-.006,12.28716c0,1.6683-2.622,3.5028-4.4034074,3.5028Z" fill="#fff" fill-rule="evenodd" stroke="#fff" stroke-linecap="round" stroke-linejoin="round" stroke-width="2"/>
    </mask>
    <linearGradient id="New_Gradient_27" data-name="New Gradient 27" x1="7.4181931" y1="1.4332877" x2="16.177019" y2="19.3915421" gradientUnits="userSpaceOnUse">
      <stop offset="0" stop-color="#e5e5e5"/>
      <stop offset="1" stop-color="#fff"/>
    </linearGradient>
    <radialGradient id="New_Gradient_28" data-name="New Gradient 28" cx="-21.2594855" cy="29.2656951" fx="-21.2594855" fy="29.2656951" r="4.633535" gradientTransform="translate(35.6558 -13.1824114) scale(1.0313 .9421)" gradientUnits="userSpaceOnUse">
      <stop offset="0" stop-color="#fff"/>
      <stop offset="1" stop-color="#ccc"/>
    </radialGradient>
    <mask id="mask-1" x="4.9581928" y="2.63311" width="13.8113997" height="15.85109" maskUnits="userSpaceOnUse">
      <path d="M14.3405926,18.4242l-9.3810998.0007-.0013-15.79179,13.7918072.00113-.006,12.28716c0,1.6683-2.622,3.5028-4.4034074,3.5028Z" fill="#fff" fill-rule="evenodd"/>
    </mask>
    <linearGradient id="New_Gradient_25" data-name="New Gradient 25" x1="7.4181931" y1="1.4332877" x2="16.177019" y2="19.3915421" gradientUnits="userSpaceOnUse">
      <stop offset="0" stop-color="#e5e5e5"/>
      <stop offset=".286514" stop-color="#f2f2f2"/>
      <stop offset=".646072" stop-color="#fff"/>
      <stop offset="1" stop-color="#fff"/>
    </linearGradient>
    <radialGradient id="New_Gradient_26" data-name="New Gradient 26" cx="-21.2594855" cy="29.2656951" fx="-21.2594855" fy="29.2656951" r="4.633535" gradientTransform="translate(35.6558 -13.1824114) scale(1.0313 .9421)" gradientUnits="userSpaceOnUse">
      <stop offset="0" stop-color="#e5e5e5"/>
      <stop offset=".331467" stop-color="#e5e5e5"/>
      <stop offset="1" stop-color="#999"/>
    </radialGradient>
    <radialGradient id="radial-gradient" cx="150.636579" cy="-141.1414229" fx="150.636579" fy="-141.1414229" r="13.6582252" gradientTransform="translate(-89.726 97.8512) scale(.6386)" gradientUnits="userSpaceOnUse">
      <stop offset="0" stop-color="#fff"/>
      <stop offset=".0998635" stop-color="#fdfeff"/>
      <stop offset=".1358351" stop-color="#f6fcff"/>
      <stop offset=".1614737" stop-color="#eaf8ff"/>
      <stop offset=".1821949" stop-color="#d9f3ff"/>
      <stop offset=".1997497" stop-color="#c3ecff"/>
      <stop offset=".207865" stop-color="#b7e9ff"/>
      <stop offset=".426966" stop-color="#3c97f6"/>
      <stop offset=".865173" stop-color="#032c87"/>
      <stop offset="1" stop-color="#0342d3"/>
    </radialGradient>
    <mask id="mask-2" x="2.9471929" y="4.58363" width="12.3260997" height="13.6055744" maskUnits="userSpaceOnUse">
      <path d="M2.9471929,10.314c0-3.16517,2.5656999-5.73037,5.7290999-5.73037,3.1668999,0,5.7325999,2.5652,5.7325999,5.73037,0,3.1651-2.5656999,5.7309-5.7325999,5.7309-3.1633999,0-5.7290999-2.5658-5.7290999-5.7309Z" fill="#fff" fill-rule="evenodd"/>
    </mask>
    <radialGradient id="radial-gradient-2" cx="6.6126444" cy="7.8856219" fx="6.6126444" fy="7.8856219" r="8.159374" gradientUnits="userSpaceOnUse">
      <stop offset="0" stop-color="#fff"/>
      <stop offset=".224719" stop-color="#b7e9ff"/>
      <stop offset=".561798" stop-color="#3c97f6"/>
      <stop offset=".865173" stop-color="#032c87"/>
      <stop offset="1" stop-color="#0342d3"/>
    </radialGradient>
    <mask id="mask-3" x="7.4110964" y="8.3844322" width="7.8621962" height="8.4523925" maskUnits="userSpaceOnUse">
      <path d="M13.9898926,9.79409c0,3.32461-2.0148926,5.65581-5.3135999,5.88671-.3508.0251-.4008-.2787-.0575-.3592,2.8077999-.6634,4.7075999-3.7724,5.0167999-5.56053.0292-.41538.3543-.3213.3543.03302Z" fill="#fff"/>
    </mask>
    <linearGradient id="New_Gradient_18" data-name="New Gradient 18" x1="8.1567299" y1="5.8292936" x2="7.5164123" y2="18.0472819" gradientUnits="userSpaceOnUse">
      <stop offset="0" stop-color="#c9ffc9"/>
      <stop offset="1" stop-color="#0f6124"/>
    </linearGradient>
    <radialGradient id="New_Gradient_12" data-name="New Gradient 12" cx="39.4160784" cy="-14.2067559" fx="39.4160784" fy="-14.2067559" r="11.4173842" gradientTransform="translate(-30.6574165 20.3756829) scale(.9178)" gradientUnits="userSpaceOnUse">
      <stop offset="0" stop-color="#fff"/>
      <stop offset=".539322" stop-color="#c9ffc9"/>
      <stop offset="1" stop-color="#23a11f"/>
    </radialGradient>
    <mask id="mask-4" x="3.7007419" y="5.945738" width="11.4429507" height="11.8684664" maskUnits="userSpaceOnUse">
      <path d="M4.0541928,6.46959c.0366.0897-.11.14775-.0123.16364.2199.02941.3471072-.13374.5668-.10384.0734.01164.11.0269.181.04217-.0196928.14663.0329.24497.0098.39285-.0306.21995-.2139.29627-.2433.51684-.0181928.13675.0525.22233.0356.3592-.0097928.06356-.0464.09471-.0623.15215l.0243-.19006c-.0427928-.00612-.0586-.03052-.1014-.03478-.215-.03115-.171.29139-.2833928.47218-.2125072.34519-.3947072.53511-.4521072.93348-.0806.58828.1711072.93528.0856,1.52298-.0306.2223.0916.3459.2272.5266.0317.003.0647.0012.088-.0103-.0379-.4925-.1222-.7515-.1063-1.23719.1271.16679.0574.33059.143.51379.1759.3622.2883.5664.4018.956.0405.14-.0475.2658.0294.3904.1687.2591.2469.4613.512.6305.149.0885.3115,0,.4336.1228.1859.1931.22.4606.4864.4978.1381.0191.2224072-.0549.3592-.0347.1637.0213.0611.2534.1235.4038.0598.1302.2259.0838.3407072.1753.1405928.1106.1625927.3005.3396927.3262.1051.0152.1467-.1081.2505-.0941.1662.0239.1112.2634.0892.4295-.0452.3268-.4386.3689-.4826.6946-.0109.0581.0501.0874.0427.1455-.0121.0836-.1197.1002-.1331.1838-.0318.2315.1454.3372.2687.5309.1113.171.0966.3391.2554.4649.2224.1759.595.1955.5535073.474-.0647073.4679-.4826073.5517-.7319073.9573.0428.0282.0661.0531.1199073.0599.562.0794.8355927-.3116,1.3756927-.4912.3654-.1203.6146-.0703.9553073-.2523.181-.0935.1992927-.2713.374-.3751.3641927-.2175.628-.2719.9186926-.5786.1821-.1936.1528-.4123.2823074-.6463.1857926-.3316.4116926-.4441.5631926-.7985-.0439-.028-.0647-.075-.1234-.0818l-.3885-.055c-.2406-.0341-.4202-.2461-.3861-.4887-.2663-.0428-.4203-.0543-.689-.091-.3434-.0495-.413-.4221-.7527-.471-.149-.0202-.2126.1417-.3604927.1223-.1966073-.0282-.287-.1272-.4802073-.1535-.1221-.0171-.1807.0916-.2332.2035l-.088.0078c-.0208-.0769-.0013-.1416.011-.2235.0036-.0306-.0502-.0323-.0551-.0598-.2454927.0659-.3274.339-.5814927.303-.0611073-.008-.0843073-.0758-.1466073-.0843-.1149-.0166-.1808.0598-.2957.0439-.2163-.0312-.424-.1832-.3934-.3989.011-.0775.0989-.0977.1087072-.1765.0293927-.1937-.1247072-.3189-.3054072-.4076l-.132.0234-.1905-.0264c.0061-.0366-.0098-.0604-.0074-.0972.0183072-.1362.204-.1434.2212-.279.0194-.1217.0012-.198.0439-.3159l-.3446-.0502c-.1478.0942-.2211.2713-.3995.2463-.3164-.044-.5082-.3598-.4616928-.6768.0535928-.3727.243-.79.6168928-.7381.127.0184.1808.0898.3079.1076.0891.0134.1161-.1118.2065-.0985.2358.0312.5143.1424.4813.3782-.0268.2151.1272.3653.3202.463.0196-.05.0282073-.0824.0428-.1343l-.0563-.6823c.1845-.3226.6414-.2751.6891-.6385l.0343-.24134c.0416-.27787.3531-.40436.6305-.36471-.0185-.10496-.0844-.16189-.071-.26748.0184-.11549.1491-.13075.2602-.15703-.0023927.04705,0,.07882.0013.13013.2541-.0458.5278-.08671.562-.33906.0048-.03241-.0465-.03416-.0549-.06106-.0807.01952-.1405.04266-.2297.03052-.1198-.01713-.0807-.18816-.0538-.30789-.0734-.01038-.116-.01038-.1905-.00551.0537-.08182.1307-.09834.2309-.11673l.1208.05993c.0661-.02877.1125073-.05379.182-.08245.0221.10009-.0059.23634.0992.25048l.4556.06406c.0343-.11424-.1246-.13676-.204-.22233-.0709-.07332.0146-.17904-.0501-.26337-.105-.1435-.2663-.11847-.4178-.2083-.2615-.16065-.2615-.5131-.5657-.55826-.0586927-.00676-.0806927.07444-.1381.06718-.2053-.02753-.2359-.26824-.4399-.2969-.0646927-.00925-.1039.01152-.165.0189.0074.10872.0868.16252.0698.26824-.0244927.17767-.2787.16915-.3043.34632-.0159.11185.0379.17227.0452.28526-.1649-.00601-.116-.23522-.2285-.3537-.1918-.1973-.6231-.13988-.5841-.4185.0538-.39461.7234-.2675.7784-.66273.0037-.03065-.0318-.04641-.0343-.07457.0502-.00801.0808-.03115.1346-.02202.1685073.0214.2466.13562.3238.28526-.1016.02941-.1638.02077-.2664.05017.2197.13137.4264.10022.5815.30478l.2041-.09834c-.0416-.07695-.0783-.12524-.1454-.18204.0439073-.01039.0843-.01464.1307-.00488-.1037927-.18504-.2969-.18504-.4704-.30477-.1785-.12161-.2615-.25174-.4753-.28289l.0135-.09833c.0182-.13325.1062-.17905.1905-.27989-.0562-.0299-.0904-.05554-.1527-.06343-.138-.01901-.3116-.01163-.3287.12399-.0111.08433.0697.11298.1014.1863-.0587.04403-.1014.07756-.1440927.13074.0463927.04341.0902927.09345.0817927.16064-.0036.04642-.0562.05192-.0953.07269-.0818-.14663-.1807-.24009-.1551-.40686-.0769.00425-.1736.008-.1845.08007-.0147.08983.0574.13199.0989.20769-.0733.03302-.1221.06718-.204.05742l-.1845-.02627c.0208-.05067.0734-.06531.0806-.12336l.0306-.2157c-.1234928-.00613-.1869-.03728-.3078-.0538-.1028-.01401-.2225.01652-.2372.11674-.0158.11185.0941.14725.16.23758-.0524928.01902-.0792.05743-.1367.04955-.1099-.01589-.0709-.17528-.1563-.2431-.1174-.08858-.2336-.02515-.3813-.03065.0073-.138-.0233-.30352-.1601-.32192-.3849-.0538-.6049.10698-.9677.2486-.2712.10698-.5082.0752-.7232.26462ZM6.6222928,8.62904c.1919-.06955.308-.1704.5157072-.14288.1282927.01952.1160927.18443.2175927.26262.1404073.11122.2809.09721.3969.22608-.0928.09346-.1564.16064-.2833.19667.0158073-.11535-.0416-.24184-.1578-.25898-.1905-.02565-.1002.32867-.2723927.41363-.0269073-.15027-.0513072-.24435-.0318073-.39098.0123-.07945.071-.11911.132-.1644-.0659-.04029-.1001927-.0996-.1784-.1111-.1039-.01414-.2334-.0269-.3385-.03066ZM8.0334927,9.11048l.1198.06105c-.1782927.19368-.38.27801-.6451.24073l-.1124-.01652c.16-.21194.3605-.26386.6377-.28526ZM8.2302927,12.5823c-.0562-.0079-.0135-.0899-.0159-.1455.0537-.0097.088-.0213.1467-.0226,0-.0488,0-.0793-.0013-.1295.0354.0061.055-.0133.0892073-.0079.2161927.0281.3151927.1295.5278927.1815-.1687.2424-.4583.1661-.7466.124ZM7.1941927,12.0312c-.1088-.0213-.2004-.0665-.226-.179.1404-.0214.2174-.0329.3628072-.0127.1905927.028.2932927.1007.463.1947.1296927.0716.33.0892.3091927.2353-.0121927.0911-.121.1021-.2101927.0886l-.1844073-.027c.0231-.0426.0477-.0775.0805-.1154-.1564-.1393-.2602-.2395-.4703-.27-.0366-.0055-.0916.0794-.1246.0855ZM8.449,6.29243c.2002927.1435.3078927.30239.5534927.30852.0268.15515.16.18992.2639.30053.1845.20218.292.38422.5656073.42276.0488927.00613.0770927-.00676.1257927-.00488-.0744-.17716-.2443-.25473-.2186-.44291.0183-.1161.1307-.15338.1442-.26824.0293-.19605-.2602-.18267-.4301-.2755-.2418-.13074-.3641-.28588-.6352927-.32567-.2468073-.03415-.4925073-.00425-.6085073.2157.066.02502.1662.06719.2395073.06969Z" fill="#fff" fill-rule="evenodd"/>
    </mask>
    <radialGradient id="radial-gradient-3" cx="5.5186602" cy="7.3367223" fx="5.5186602" fy="7.3367223" r="10.4788752" gradientUnits="userSpaceOnUse">
      <stop offset="0" stop-color="#fff"/>
      <stop offset=".0352419" stop-color="#efe"/>
      <stop offset=".0865141" stop-color="#dfd"/>
      <stop offset=".1503657" stop-color="#d1ffd1"/>
      <stop offset=".2399885" stop-color="#caffca"/>
      <stop offset=".488764" stop-color="#c9ffc9"/>
      <stop offset="1" stop-color="#23a11f"/>
    </radialGradient>
    <mask id="mask-5" x="7.5406964" y="8.5140322" width="7.6029962" height="8.1931925" maskUnits="userSpaceOnUse">
      <path d="M13.9898926,9.79409c0,3.32461-2.0148926,5.65581-5.3135999,5.88671-.3508.0251-.4008-.2787-.0575-.3592,2.8077999-.6634,4.7075999-3.7724,5.0167999-5.56053.0292-.41538.3543-.3213.3543.03302Z" fill="#fff"/>
    </mask>
    <radialGradient id="New_Gradient_12-2" data-name="New Gradient 12" cx="44.0652633" cy="-11.0435917" fx="44.0652633" fy="-11.0435917" r="6.5119562" gradientTransform="translate(-30.6574165 20.3756829) scale(.9178)" gradientUnits="userSpaceOnUse"><stop offset="0" stop-color="#fff"/><stop offset=".539322" stop-color="#c9ffc9"/><stop offset="1" stop-color="#23a11f"/></radialGradient>
  </defs>
  <g>
    <g>
      <g mask="url(#mask)">
        <g>
          <path d="M14.3405926,18.4242l-9.3810998.0007-.0013-15.79179,13.7918072.00113-.006,12.28716c0,1.6683-2.622,3.5028-4.4034074,3.5028Z" fill="url(#New_Gradient_27)" fill-rule="evenodd"/>
          <path d="M13.7308926,18.4829s2.1905999-.0769,2.1905999-2.2962c2.2566999,0,2.8480999-1.7979,2.8480999-1.7979v4.0954l-5.0386999-.0013Z" fill="url(#New_Gradient_28)" fill-rule="evenodd"/>
          <path d="M14.3405926,18.4242l-9.3810998.0007-.0013-15.79179,13.7918072.00113-.006,12.28716c0,1.6683-2.622,3.5028-4.4034074,3.5028Z" fill="none" fill-rule="evenodd" stroke="#000" stroke-linecap="round" stroke-linejoin="round" stroke-width="2"/>
        </g>
      </g>
      <g mask="url(#mask-1)">
        <g>
          <path d="M14.3405926,18.4242l-9.3810998.0007-.0013-15.79179,13.7918072.00113-.006,12.28716c0,1.6683-2.622,3.5028-4.4034074,3.5028Z" fill="url(#New_Gradient_25)" fill-rule="evenodd"/>
          <path d="M13.7308926,18.4829s1.5236-.5583,1.5236-2.7801c2.2565999-.0012,3.5150999-1.314,3.5150999-1.314v4.0954l-5.0386999-.0013Z" fill="url(#New_Gradient_26)" fill-rule="evenodd"/>
        </g>
      </g>
    </g>
    <g>
      <line x1="6.6981928" y1="8.30225" x2="9.6683927" y2="8.30225" fill="none" stroke="#999" stroke-linecap="round" stroke-miterlimit="3.8637" stroke-width=".7125"/>
      <line x1="13.5537926" y1="5.81161" x2="17.0944925" y2="5.81161" fill="none" stroke="#999" stroke-linecap="round" stroke-miterlimit="3.8637" stroke-width=".7125"/>
      <line x1="11.3812926" y1="8.30225" x2="17.0944925" y2="8.30225" fill="none" stroke="#999" stroke-linecap="round" stroke-miterlimit="3.8637" stroke-width=".7125"/>
      <line x1="6.5734928" y1="15.7742" x2="13.952" y2="15.7742" fill="none" stroke="#999" stroke-linecap="round" stroke-miterlimit="3.8637" stroke-width=".7125"/>
      <line x1="6.6981928" y1="10.7928" x2="9.0977927" y2="10.7928" fill="none" stroke="#999" stroke-linecap="round" stroke-miterlimit="3.8637" stroke-width=".7125"/>
      <line x1="10.5076927" y1="10.7928" x2="12.9036926" y2="10.7928" fill="none" stroke="#999" stroke-linecap="round" stroke-miterlimit="3.8637" stroke-width=".7125"/>
      <line x1="13.8554926" y1="10.7928" x2="17.0944925" y2="10.7928" fill="none" stroke="#999" stroke-linecap="round" stroke-miterlimit="3.8637" stroke-width=".7125"/>
      <line x1="6.6981928" y1="5.81161" x2="11.3812926" y2="5.81161" fill="none" stroke="#999" stroke-linecap="round" stroke-miterlimit="3.8637" stroke-width=".7125"/>
      <line x1="6.6981928" y1="13.2836" x2="10.6200927" y2="13.2836" fill="none" stroke="#999" stroke-linecap="round" stroke-miterlimit="3.8637" stroke-width=".7125"/>
      <line x1="11.7136926" y1="13.2836" x2="17.2838925" y2="13.2836" fill="none" stroke="#999" stroke-linecap="round" stroke-miterlimit="3.8637" stroke-width=".7125"/>
    </g>
  </g>
  <g>
    <path d="M2.9471929,10.314c0-3.16517,2.5656999-5.73037,5.7290999-5.73037,3.1668999,0,5.7325999,2.5652,5.7325999,5.73037,0,3.1651-2.5656999,5.7309-5.7325999,5.7309-3.1633999,0-5.7290999-2.5658-5.7290999-5.7309Z" fill="url(#radial-gradient)" fill-rule="evenodd" stroke="#000" stroke-miterlimit="3.8637" stroke-width="2"/>
    <g mask="url(#mask-2)">
      <g>
        <path d="M2.9471929,10.314c0-3.16517,2.5656999-5.73037,5.7290999-5.73037,3.1668999,0,5.7325999,2.5652,5.7325999,5.73037,0,3.1651-2.5656999,5.7309-5.7325999,5.7309-3.1633999,0-5.7290999-2.5658-5.7290999-5.7309Z" fill="url(#radial-gradient-2)" fill-rule="evenodd"/>
        <g mask="url(#mask-3)">
          <g>
            <path d="M13.9898926,9.79409c0,3.32461-2.0148926,5.65581-5.3135999,5.88671-.3508.0251-.4008-.2787-.0575-.3592,2.8077999-.6634,4.7075999-3.7724,5.0167999-5.56053.0292-.41538.3543-.3213.3543.03302Z" fill="#3c97f6"/>
            <path d="M14.1436926,9.81787c0,3.32573-2.0122999,5.65763-5.3122999,5.88803-.3506.0237-.4008-.2774-.0586-.3592,2.8076999-.6629,4.7075999-3.7712,5.0166999-5.56048.033-.41238.3542-.31892.3542.03165Z" fill="none" stroke="#297bea" stroke-miterlimit="3.8637" stroke-width="2.2592"/>
            <path d="M14.0655926,9.80573c0,3.32507-2.0110999,5.65637-5.3111999,5.88717-.3507.0246-.4007-.2772-.0587-.3585,2.8077999-.6629,4.7075999-3.7717,5.0155999-5.56107.0343-.41425.3543-.31829.3543.0324Z" fill="none" stroke="#165edf" stroke-miterlimit="3.8637" stroke-width="1.1296"/>
            <path d="M13.9898926,9.79409c0,3.32461-2.0148926,5.65581-5.3135999,5.88671-.3508.0251-.4008-.2787-.0575-.3592,2.8077999-.6634,4.7075999-3.7724,5.0167999-5.56053.0292-.41538.3543-.3213.3543.03302Z" fill="none" stroke="#0342d3" stroke-miterlimit="3.8637"/>
          </g>
        </g>
        <path d="M6.6138928,6.34986l.0464.04579c.0867072.07882.1856.23033.0122.29752l-.0489.02802c-.2395.13137-.3128-.06831-.3824-.23396-.1026-.0812-.4546.10022-.4387-.16065.0025072-.03477.0061-.13862-.0281-.16915-.4203928-.05931-.7306.2132-1.1203.30415-.1394.03241-.292.04954-.4130928.13324-.0073072.04643-.0304072.08671-.0574072.12637-.1661-.02314-.1465928-.0782-.0794-.17165.2225.03177.2274-.17228.7588072-.05856.1868928.04028.1258928.61268.0574928.74092-.1772.33793-.1969.16928-.1443.55475.0135.11786-.0073.18755-.0646.29139-.0587.17842-.2493.15577-.2811.02139l-.022.08183c-.0123.05868-.0354.13012-.0769.19367-.4021.64885-.5402.76244-.3899,1.59333.0525.27854.0868.52474.0453072.80824-.0184072.1179.0353928.2009.1012928.2925l.0966.1253-.0856-.0513c-.0451.0074-.0805.1748-.0818.1387-.0379-.4992-.1197-.7605-.1038-1.2524.0072-.26823.3213072-.19429.3677.2407.0073.074.0134.1485.044.2162.1552.3232.309.6311.4092.9769.0234072.0879-.011.3171.0123.3543.143.2224.2333.4393.4667.5847.1076.0641.292-.0269.4606.1466.1748072.1796.231.5144.5315.441.5902-.1453.3849.2726.468.4667.1673072.1015.2456.0129.4117.2445.0343.0507.093.1642.1577.174.0965-.0434.1051-.1149.2492-.0947.2406.0349.2517073.2755.2285.454l-.0183.1387c-.0538.3762-.4313.4429-.4814927.6726.0903927.1563.0330927.2564-.0928073.3628-.0123.1399.1772.3055.2468073.4208.0794927.1217.121.3472.2235927.4296.2261.1759.6695.204.6109.6067-.0647.452-.3799.5741-.6401.8602.4324.0133.8135-.3563,1.2145-.4913.3115-.1008.6462-.0867.937-.2414.1234-.0652.1893-.2676.3665-.3732.3617-.2162.8821-.3549,1.0154-.8039.0354-.1252.0696-.2505.1343-.3659.1393-.2499.3641-.4313.5023-.6763-.3581-.0519-.8053-.0862-.8553-.5565-.4863-.0697-.683,0-1.0263-.3501-.0477-.0489-.2189-.2309-.3177927-.1888-.0732073.0422-.0476073.0264-.1039073.0617-.2675.1619-.463-.0635-.7146-.0983-.1308.0965-.0197.1845-.2834927.212-.1479073.0164-.1748073-.1619-.1638073-.2639l.0061-.0538c-.0194-.0232-.0329-.047-.0402-.0751.0574.0354.1161.0702.1747.1038-.2444.069-.4545.526-.7869.2309-.0965-.0098-.1587.0544-.2957.0366-.3579-.0519-.7134-.4336-.4166-.7287.0305-.1014-.0244-.1675-.1735-.2467l-.0843.0157-.0439.0006-.1907-.0267-.1208-.1602c-.027-.1276.0169-.2217.1196072-.3012.0512928-.0396.0268928-.0226.0733928-.0556.0243-.0708.028-.1227.0316072-.1692l-.1356072-.0464-.0377.0342c-.121.1173-.2236.2297-.418.201-1.0458-.1454-.5461-2.093.391-1.6281.0379.019.0636.0294.0879.036.2738-.2615.8859.0753.8334072.4461-.0098073.0671.0133927.1324.0682927.1918-.0427-.5328-.1709-.6818.3164-.9396l.1113073-.0556c.2527927-.1308.215-.1991.2527927-.46978.0441-.30853.3092073-.45691.5707-.48995-.061-.21632.0696-.35006.27-.39835l.0856-.01952c.0854-.02202.1527.01952.1723.09771.1013-.02502.2211-.05367.2663-.13312-.0184-.01888-.0294-.04028-.0356-.06543.0563.03553.1162.07157.1736.10509-.2345.0593-.5192.08433-.4875-.27737-.287.01839-.1979-.30903.1039-.3836l.0795-.01527c.0475-.0085.1098.02265.1477.04342.264-.12098.3006-.08495.3374.18755l.0439.00612c-.0342-.07394-.0085927-.13562-.0147-.21207-.0513-.0653-.2871-.11171-.3776-.16551-.2016-.12525-.3396-.48807-.4777-.53086-.1392.12586-.314.0354-.4289-.08183-.0586927-.06543-.0354-.03915-.0892-.09909-.0866-.08795-.1148-.05005-.2187-.03653l.1235-.14976c.0086.16553.2077073.3293-.0929.53398l-.0573927.03666-.0439073.0269c-.0575.03841-.0526.06043-.0330927.12699l.0194927.0727c.0881.34881-.3006.32566-.3946.01713-.0768927-.25411-.1258-.21319-.3848-.3054-.4925-.17541-.3299-.62069.0428-.78321.1161073-.05129.3847-.11673.4289-.23821-.1431-.24935.4117-.46255.6999.10934.0221.04267.0221.08371.0074.11912.0281.01163.0587.02502.0855.03902-.0073-.02627-.0049-.05254.0062-.07631l-.1186-.05129c-.1991-.08859-.3727-.31529-.5693-.34282-.2017-.02802-.104-.34819-.0306-.4489-.0281,0-.0512927.00238-.0697.00788.0807.09708.1222.2157.0307.28225l-.0379.02866c.1539.28475-.2333927.46254-.3287.29088-.0953-.17053-.204-.27925-.1735-.49732l.1502.16189c.165.2401-.1269.37146-.3189.34331-.1574927-.02139-.4556-.05255-.2503-.29139l.0304-.03115.0073-.06105c-.0647-.01352-.1662-.04704-.232-.03115ZM3.9685928,6.56367l.0343-.14238c.2492-.21932.4923-.18328.766-.28951.3287-.12899,1.2133-.57915,1.311.05242l.0587-.00538c.0806-.00675.1796.00176.2748.0782.0623.04642.0929.11786.1136072.19055.0134928-.00851.0268928-.01339.0427928-.02015l-.0635.21871c-.1075-.14539-.308-.27376-.1222-.48144.1736-.1918.4203-.05743.6305-.0458.2138.01101.1368.40625.0281.5186-.0183.02027-.2345-.19355-.1283-.18141.2248.03302.154.05129.3128-.0189l-.066.20031c-.083-.14538-.2541-.3891.05-.47893.0246-.00852.0513-.01339.0819-.01526l.0648-.00726c.1943-.01351.121.18629.1748.29138.0329.06168.0757.12036.116.18992l-.1429-.04216c-.11-.1111-.1601-.146-.0197-.27487-.232-.32192.2456-.559.6404-.34944.2308.12161-.0734.29076-.1088.39899.1954.07269.3188.24609.5071.3293.1332073.06167.551.26936.4104.46241.1187.20832-.3274.41601-.4361.27125-.1088-.14538-.3788-.17291-.5388-.27062-.193-.11611-.0404-.2456.0928-.27188-.0158-.00976-.0293-.01776-.044-.02502-.1062.45267-.8515.39211-.766.65422.0806.07945.3689073.09221.5389073.26824.0742927.07757.0976927.17654.1280927.27488.0111.03478.0037.03478.0037.0354-.1075-.05255-.1149.27125-.1552.0996l-.0159-.06106c-.0562-.18266-.0169-.33355.1406-.44115l.0611-.03666.0452-.02739c.0892-.06169-.0257-.18029-.0331-.28352-.0121-.24071.4241-.19605.5841-.02815.0661.07333.0318.03303.0892.09847.0195.01952.0392073.03779.0586.04754.2872-.2461.5426073.22246.677.40875.0341.04642.0671.08307.1147.11123.2445.14475.5487.07994.5059073.5052.1197927.10197.292.13437.2321927.34881-.0586.20532-.7416.12712-.8101-.143-.0733.02878-.1417-.00612-.2076-.03778-.0453.0115-.0734.02014-.0918.04579l-.1282-.21807c.2505073-.01964.3702-.01289.3226.26574l-.0098.05004c.0647073-.01163.0964-.02264.1379-.03365l.1723.10572c-.0218-.01214-.0292-.03841-.0341-.05981.2846073.16553-.061.52048-.3897.59555-.0954.02389-.264.08257-.3373-.0164l.0379.0867c.1894.48744-.54.07019-.6012.50772-.0526.36284-.0488.49974-.4043.68294l-.1087927.0562c-.0795073.039-.154.0861-.2065073.1577l.0489.634-.0025.0439c-.1428927.5853-.6903-.0261-.6402-.381.0197-.1406-.2456-.1999-.3398-.2138-.2258.2161-.3346.0158-.5338-.0129-.4360928-.0598-.7073,1.0489-.1173,1.1326.1125.0171.2394-.2658.3983-.2437.5072.0715.4643-.0153.4387.3567-.0123.1637-.0036.2657-.1417.372-.0465.0349-.0245.0177-.0465.0349.4082-.0734.7953.4117.4777.7245-.0208.16.215.2694.3543.2223.1405-.0475.2469-.0536.3641.0489.1161.0171.3507-.2462.5181-.2926l.1797.102c-.0233-.0103-.0306-.0366-.0367-.0598.0342073.0195.0598.044.0757.0733.2456-.1662.5963.1502.7123.1038.0745-.0458.0428-.0256.1015-.0653.4581-.2737.6585.3713.9883.4184.2676.0379.4217.0477.6904073.0905.2248926.0378-.0036074.4331.3848926.4869.1087.017.4044.0115.5278.1252l.0367.0323s.0805.1216.0561.1771c-.1356.3202-.4043.5182-.5693.8132-.1271.2335-.0929.4478-.3055.6744-.303.3213-.5888.3887-.9445.6025-.1441.0835-.1709.2706-.3811927.38-.3273073.1733-.645.149-.9786073.2602-.4985.1662-1.0776.7532-1.6165.4166-.2505-.1546.3067-.581.4155-.6806.6011-.5419.0622-.5119-.2493-.7587-.1979-.1558-.1735-.3238-.2859-.4997-.1501927-.2346-.4985-.5407-.1735-.8101-.2076928-.3775.4166-.5711.4545-.8387l.0195-.1332c.0038-.0398.0087-.0764.0062-.1106-.4068927.2883-.512-.253-.7002-.3128-.1416-.0458-.2651-.0513-.3323-.2077-.0415-.0978-.0341-.1985-.0378-.2993l-.0305928-.0202c-.4398072.0574-.4923072.0702-.7746072-.3708-.1833-.2871-.2615-.088-.5046-.2346-.2896-.1814-.3837-.4038-.5571-.6739-.1196928-.1856-.0122-.3066-.0476928-.4283-.0489072-.1709-.1076072-.3303-.1796072-.4929.0245.206.0489.4105-.2297.3715-.0146928-.0031-.0843-.0454-.0916-.0557l-.0989-.1283c-.264-.3555-.1137-.4874-.1468-.8728-.0549-.63426-.2676-1.05939.0881-1.68984.0781-.14113.1807-.2755.2883-.44903.1161-.1918.1013-.71602.5241-.50646.1772.02565.1087.2511.0941072.35069l-.2748072-.06543c.0073-.02077.0158072-.04029.0243-.05806.1186-.21619-.1624928-.32128.1443-.74892.1478-.20469.0941-.23584.0831-.4588l-.0538-.00975c-.1124-.01652-1.0679.36658-.6805-.17353l.017.008ZM7.3591927,9.13375l-.011.03603-.0171927.07695c-.0721073.26999-.3469072.39398-.3898072.16252-.0415-.23158-.1063-.48819.1051-.65672l.0478-.03728.0097.23333c-.0343-.02077-.0647927-.04829-.0966-.07457-.0427-.0354-.292-.04266-.3494-.04516-.1857-.00613-.2175-.21019-.0427-.2755.2578-.09221.6329072-.32742.8125.03853.0684073.13863.0782.12887.2285.19055.1112.04279.3922.1973.2381.35132l-.0695.06781c-.0806927.07995-.1663.13375-.2774.16365-.2199.06168-.154-.17528-.1881-.23146ZM7.5655927,9.05005c-.0915927-.03728-.1772-.06844-.2567-.13074-.1086-.08621-.1158927-.19793-.1513-.23284-.1602-.02314-.3007.08258-.4435.1345l-.044-.2755c.1576.006.3847.00238.5155.10684.088.07269.2346.17466.0807.29202l-.0391.02866c-.1186.1216.105.33904-.2028.27862.0146073-.02014.0256073-.05443.0304-.07819l.0185-.07082c.0353-.15402.1111-.29815.3005-.27125.2015.02865.3043.23084.2774.41725l-.1797-.15701c.0367-.01164.0672-.0239.0941-.04154ZM8.2572927,9.10134c.2845.14051-.2102.58153-.7259.51135-.1183927-.0184-.3543-.05743-.2077-.2456.1979-.25899.4509-.31829.7428-.34094.0551-.00237.16.06056.1908.07519ZM8.1324927,9.35733l-.0854-.04279c-.2383.02077-.38.07082-.4998.22608l-.0928-.22796c.27.03854.4349.04042.6365073-.17891l.0414927.22358ZM8.2608927,12.3849l.1599-.1826c.198-.0489.4313.1264.6318.1766.2699.0641.0281.4306-.3544.4489-.149.0062-.2968-.0249-.4447-.0457-.1198-.016-.1662-.0941-.1514927-.2139l.0108927-.0538c.0636-.0617.1125-.1008.148-.1295ZM8.6883927,12.5438c-.0501-.0232-.094-.041-.1442-.0532-.0098.0623-.072.1215-.1367.124-.0513.0019-.082.0135-.1308.0196l.121-.149c.0037.0403-.0036927.0775-.0135.1172-.0623-.0097-.0977-.0397-.0928-.1033.1307.019.2651.0501.397.0447ZM7.386,12.1534c-.0648073.0544-.0978073.0702-.1235073.0739h-.0536c-.4058-.0757-.5756-.5767.1808-.4705.2151.0295.3311.1107.5155.2102.1613.0906.4192.1174.3813.38-.0391.2836-.3739.2115-.5548.1852-.111-.0146-.1575-.1063-.1099-.2046l.0183-.0325c-.0769-.0653-.1515-.1185-.2540927-.1417ZM7.2050927,11.9329c.1455-.1339.3385-.0489.4888.0445.0843.0551.2811073.1919.2773.3012-.0011.0758-.0611.1124-.0928.176l-.1087-.204.1063073.0146c-.1797073-.0691-.3287073-.198-.5254073-.2254-.1222-.0166-.1809-.0086-.3201.0116l.1173-.1742c.0036.0208.0134.0398.0573.0557ZM8.5307927,6.22036l.0441.01576c.1466.10022.2797.275.4741073.27988.1195927.00551.1170927.13988.1904927.20032.0574.04828.1185073.08983.1723.146.1209.13262.3054.39836.5083.37759.0268-.0025.0513-.0055.0819073-.0055l-.1345073.19668c-.0868-.21007-.3629-.34394-.1808-.64447.0097-.01526.0207-.0299.0305-.04516.033-.03728.0196-.0239.0489-.05805.0159073-.02565.0171-.03241.0208-.03666-.0172-.01777-.3044-.09897-.3628-.13075-.2848-.15639-.5279-.41912-.8933-.29564ZM8.669,6.67177c-.0746073-.05443-.1431073-.11973-.231-.18267-.8222073-.13924.0597927-.90419.8283927-.41474.0916073.0598.1796073.12761.2969.19242.1881.10385.551.08921.5045.42025-.0097.06356-.039.11973-.0769.16978-.0353.04467-.0195.02265-.0476.05994-.0599.09157.1515.32128.1857073.40749.0793927.19242-.1515073.21444-.2737073.19918-.325-.04654-.4558-.25298-.6525-.4668-.0916-.09834-.1992-.13312-.2637927-.26575-.1087073-.02076-.1968073-.06592-.27-.1191Z" fill="url(#New_Gradient_18)"/>
        <path d="M4.0541928,6.46959c.0366.0897-.11.14775-.0123.16364.2199.02941.3471072-.13374.5668-.10384.0734.01164.11.0269.181.04217-.0196928.14663.0329.24497.0098.39285-.0306.21995-.2139.29627-.2433.51684-.0181928.13675.0525.22233.0356.3592-.0097928.06356-.0464.09471-.0623.15215l.0243-.19006c-.0427928-.00612-.0586-.03052-.1014-.03478-.215-.03115-.171.29139-.2833928.47218-.2125072.34519-.3947072.53511-.4521072.93348-.0806.58828.1711072.93528.0856,1.52298-.0306.2223.0916.3459.2272.5266.0317.003.0647.0012.088-.0103-.0379-.4925-.1222-.7515-.1063-1.23719.1271.16679.0574.33059.143.51379.1759.3622.2883.5664.4018.956.0405.14-.0475.2658.0294.3904.1687.2591.2469.4613.512.6305.149.0885.3115,0,.4336.1228.1859.1931.22.4606.4864.4978.1381.0191.2224072-.0549.3592-.0347.1637.0213.0611.2534.1235.4038.0598.1302.2259.0838.3407072.1753.1405928.1106.1625927.3005.3396927.3262.1051.0152.1467-.1081.2505-.0941.1662.0239.1112.2634.0892.4295-.0452.3268-.4386.3689-.4826.6946-.0109.0581.0501.0874.0427.1455-.0121.0836-.1197.1002-.1331.1838-.0318.2315.1454.3372.2687.5309.1113.171.0966.3391.2554.4649.2224.1759.595.1955.5535073.474-.0647073.4679-.4826073.5517-.7319073.9573.0428.0282.0661.0531.1199073.0599.562.0794.8355927-.3116,1.3756927-.4912.3654-.1203.6146-.0703.9553073-.2523.181-.0935.1992927-.2713.374-.3751.3641927-.2175.628-.2719.9186926-.5786.1821-.1936.1528-.4123.2823074-.6463.1857926-.3316.4116926-.4441.5631926-.7985-.0439-.028-.0647-.075-.1234-.0818l-.3885-.055c-.2406-.0341-.4202-.2461-.3861-.4887-.2663-.0428-.4203-.0543-.689-.091-.3434-.0495-.413-.4221-.7527-.471-.149-.0202-.2126.1417-.3604927.1223-.1966073-.0282-.287-.1272-.4802073-.1535-.1221-.0171-.1807.0916-.2332.2035l-.088.0078c-.0208-.0769-.0013-.1416.011-.2235.0036-.0306-.0502-.0323-.0551-.0598-.2454927.0659-.3274.339-.5814927.303-.0611073-.008-.0843073-.0758-.1466073-.0843-.1149-.0166-.1808.0598-.2957.0439-.2163-.0312-.424-.1832-.3934-.3989.011-.0775.0989-.0977.1087072-.1765.0293927-.1937-.1247072-.3189-.3054072-.4076l-.132.0234-.1905-.0264c.0061-.0366-.0098-.0604-.0074-.0972.0183072-.1362.204-.1434.2212-.279.0194-.1217.0012-.198.0439-.3159l-.3446-.0502c-.1478.0942-.2211.2713-.3995.2463-.3164-.044-.5082-.3598-.4616928-.6768.0535928-.3727.243-.79.6168928-.7381.127.0184.1808.0898.3079.1076.0891.0134.1161-.1118.2065-.0985.2358.0312.5143.1424.4813.3782-.0268.2151.1272.3653.3202.463.0196-.05.0282073-.0824.0428-.1343l-.0563-.6823c.1845-.3226.6414-.2751.6891-.6385l.0343-.24134c.0416-.27787.3531-.40436.6305-.36471-.0185-.10496-.0844-.16189-.071-.26748.0184-.11549.1491-.13075.2602-.15703-.0023927.04705,0,.07882.0013.13013.2541-.0458.5278-.08671.562-.33906.0048-.03241-.0465-.03416-.0549-.06106-.0807.01952-.1405.04266-.2297.03052-.1198-.01713-.0807-.18816-.0538-.30789-.0734-.01038-.116-.01038-.1905-.00551.0537-.08182.1307-.09834.2309-.11673l.1208.05993c.0661-.02877.1125073-.05379.182-.08245.0221.10009-.0059.23634.0992.25048l.4556.06406c.0343-.11424-.1246-.13676-.204-.22233-.0709-.07332.0146-.17904-.0501-.26337-.105-.1435-.2663-.11847-.4178-.2083-.2615-.16065-.2615-.5131-.5657-.55826-.0586927-.00676-.0806927.07444-.1381.06718-.2053-.02753-.2359-.26824-.4399-.2969-.0646927-.00925-.1039.01152-.165.0189.0074.10872.0868.16252.0698.26824-.0244927.17767-.2787.16915-.3043.34632-.0159.11185.0379.17227.0452.28526-.1649-.00601-.116-.23522-.2285-.3537-.1918-.1973-.6231-.13988-.5841-.4185.0538-.39461.7234-.2675.7784-.66273.0037-.03065-.0318-.04641-.0343-.07457.0502-.00801.0808-.03115.1346-.02202.1685073.0214.2466.13562.3238.28526-.1016.02941-.1638.02077-.2664.05017.2197.13137.4264.10022.5815.30478l.2041-.09834c-.0416-.07695-.0783-.12524-.1454-.18204.0439073-.01039.0843-.01464.1307-.00488-.1037927-.18504-.2969-.18504-.4704-.30477-.1785-.12161-.2615-.25174-.4753-.28289l.0135-.09833c.0182-.13325.1062-.17905.1905-.27989-.0562-.0299-.0904-.05554-.1527-.06343-.138-.01901-.3116-.01163-.3287.12399-.0111.08433.0697.11298.1014.1863-.0587.04403-.1014.07756-.1440927.13074.0463927.04341.0902927.09345.0817927.16064-.0036.04642-.0562.05192-.0953.07269-.0818-.14663-.1807-.24009-.1551-.40686-.0769.00425-.1736.008-.1845.08007-.0147.08983.0574.13199.0989.20769-.0733.03302-.1221.06718-.204.05742l-.1845-.02627c.0208-.05067.0734-.06531.0806-.12336l.0306-.2157c-.1234928-.00613-.1869-.03728-.3078-.0538-.1028-.01401-.2225.01652-.2372.11674-.0158.11185.0941.14725.16.23758-.0524928.01902-.0792.05743-.1367.04955-.1099-.01589-.0709-.17528-.1563-.2431-.1174-.08858-.2336-.02515-.3813-.03065.0073-.138-.0233-.30352-.1601-.32192-.3849-.0538-.6049.10698-.9677.2486-.2712.10698-.5082.0752-.7232.26462ZM6.6222928,8.62904c.1919-.06955.308-.1704.5157072-.14288.1282927.01952.1160927.18443.2175927.26262.1404073.11122.2809.09721.3969.22608-.0928.09346-.1564.16064-.2833.19667.0158073-.11535-.0416-.24184-.1578-.25898-.1905-.02565-.1002.32867-.2723927.41363-.0269073-.15027-.0513072-.24435-.0318073-.39098.0123-.07945.071-.11911.132-.1644-.0659-.04029-.1001927-.0996-.1784-.1111-.1039-.01414-.2334-.0269-.3385-.03066ZM8.0334927,9.11048l.1198.06105c-.1782927.19368-.38.27801-.6451.24073l-.1124-.01652c.16-.21194.3605-.26386.6377-.28526ZM8.2302927,12.5823c-.0562-.0079-.0135-.0899-.0159-.1455.0537-.0097.088-.0213.1467-.0226,0-.0488,0-.0793-.0013-.1295.0354.0061.055-.0133.0892073-.0079.2161927.0281.3151927.1295.5278927.1815-.1687.2424-.4583.1661-.7466.124ZM7.1941927,12.0312c-.1088-.0213-.2004-.0665-.226-.179.1404-.0214.2174-.0329.3628072-.0127.1905927.028.2932927.1007.463.1947.1296927.0716.33.0892.3091927.2353-.0121927.0911-.121.1021-.2101927.0886l-.1844073-.027c.0231-.0426.0477-.0775.0805-.1154-.1564-.1393-.2602-.2395-.4703-.27-.0366-.0055-.0916.0794-.1246.0855ZM8.449,6.29243c.2002927.1435.3078927.30239.5534927.30852.0268.15515.16.18992.2639.30053.1845.20218.292.38422.5656073.42276.0488927.00613.0770927-.00676.1257927-.00488-.0744-.17716-.2443-.25473-.2186-.44291.0183-.1161.1307-.15338.1442-.26824.0293-.19605-.2602-.18267-.4301-.2755-.2418-.13074-.3641-.28588-.6352927-.32567-.2468073-.03415-.4925073-.00425-.6085073.2157.066.02502.1662.06719.2395073.06969Z" fill="url(#New_Gradient_12)" fill-rule="evenodd" stroke="#328e36" stroke-miterlimit="3.8637" stroke-width=".75"/>
        <g mask="url(#mask-4)">
          <g>
            <path d="M4.0541928,6.46959c.0366.0897-.11.14775-.0123.16364.2199.02941.3471072-.13374.5668-.10384.0734.01164.11.0269.181.04217-.0196928.14663.0329.24497.0098.39285-.0306.21995-.2139.29627-.2433.51684-.0181928.13675.0525.22233.0356.3592-.0097928.06356-.0464.09471-.0623.15215l.0243-.19006c-.0427928-.00612-.0586-.03052-.1014-.03478-.215-.03115-.171.29139-.2833928.47218-.2125072.34519-.3947072.53511-.4521072.93348-.0806.58828.1711072.93528.0856,1.52298-.0306.2223.0916.3459.2272.5266.0317.003.0647.0012.088-.0103-.0379-.4925-.1222-.7515-.1063-1.23719.1271.16679.0574.33059.143.51379.1759.3622.2883.5664.4018.956.0405.14-.0475.2658.0294.3904.1687.2591.2469.4613.512.6305.149.0885.3115,0,.4336.1228.1859.1931.22.4606.4864.4978.1381.0191.2224072-.0549.3592-.0347.1637.0213.0611.2534.1235.4038.0598.1302.2259.0838.3407072.1753.1405928.1106.1625927.3005.3396927.3262.1051.0152.1467-.1081.2505-.0941.1662.0239.1112.2634.0892.4295-.0452.3268-.4386.3689-.4826.6946-.0109.0581.0501.0874.0427.1455-.0121.0836-.1197.1002-.1331.1838-.0318.2315.1454.3372.2687.5309.1113.171.0966.3391.2554.4649.2224.1759.595.1955.5535073.474-.0647073.4679-.4826073.5517-.7319073.9573.0428.0282.0661.0531.1199073.0599.562.0794.8355927-.3116,1.3756927-.4912.3654-.1203.6146-.0703.9553073-.2523.181-.0935.1992927-.2713.374-.3751.3641927-.2175.628-.2719.9186926-.5786.1821-.1936.1528-.4123.2823074-.6463.1857926-.3316.4116926-.4441.5631926-.7985-.0439-.028-.0647-.075-.1234-.0818l-.3885-.055c-.2406-.0341-.4202-.2461-.3861-.4887-.2663-.0428-.4203-.0543-.689-.091-.3434-.0495-.413-.4221-.7527-.471-.149-.0202-.2126.1417-.3604927.1223-.1966073-.0282-.287-.1272-.4802073-.1535-.1221-.0171-.1807.0916-.2332.2035l-.088.0078c-.0208-.0769-.0013-.1416.011-.2235.0036-.0306-.0502-.0323-.0551-.0598-.2454927.0659-.3274.339-.5814927.303-.0611073-.008-.0843073-.0758-.1466073-.0843-.1149-.0166-.1808.0598-.2957.0439-.2163-.0312-.424-.1832-.3934-.3989.011-.0775.0989-.0977.1087072-.1765.0293927-.1937-.1247072-.3189-.3054072-.4076l-.132.0234-.1905-.0264c.0061-.0366-.0098-.0604-.0074-.0972.0183072-.1362.204-.1434.2212-.279.0194-.1217.0012-.198.0439-.3159l-.3446-.0502c-.1478.0942-.2211.2713-.3995.2463-.3164-.044-.5082-.3598-.4616928-.6768.0535928-.3727.243-.79.6168928-.7381.127.0184.1808.0898.3079.1076.0891.0134.1161-.1118.2065-.0985.2358.0312.5143.1424.4813.3782-.0268.2151.1272.3653.3202.463.0196-.05.0282073-.0824.0428-.1343l-.0563-.6823c.1845-.3226.6414-.2751.6891-.6385l.0343-.24134c.0416-.27787.3531-.40436.6305-.36471-.0185-.10496-.0844-.16189-.071-.26748.0184-.11549.1491-.13075.2602-.15703-.0023927.04705,0,.07882.0013.13013.2541-.0458.5278-.08671.562-.33906.0048-.03241-.0465-.03416-.0549-.06106-.0807.01952-.1405.04266-.2297.03052-.1198-.01713-.0807-.18816-.0538-.30789-.0734-.01038-.116-.01038-.1905-.00551.0537-.08182.1307-.09834.2309-.11673l.1208.05993c.0661-.02877.1125073-.05379.182-.08245.0221.10009-.0059.23634.0992.25048l.4556.06406c.0343-.11424-.1246-.13676-.204-.22233-.0709-.07332.0146-.17904-.0501-.26337-.105-.1435-.2663-.11847-.4178-.2083-.2615-.16065-.2615-.5131-.5657-.55826-.0586927-.00676-.0806927.07444-.1381.06718-.2053-.02753-.2359-.26824-.4399-.2969-.0646927-.00925-.1039.01152-.165.0189.0074.10872.0868.16252.0698.26824-.0244927.17767-.2787.16915-.3043.34632-.0159.11185.0379.17227.0452.28526-.1649-.00601-.116-.23522-.2285-.3537-.1918-.1973-.6231-.13988-.5841-.4185.0538-.39461.7234-.2675.7784-.66273.0037-.03065-.0318-.04641-.0343-.07457.0502-.00801.0808-.03115.1346-.02202.1685073.0214.2466.13562.3238.28526-.1016.02941-.1638.02077-.2664.05017.2197.13137.4264.10022.5815.30478l.2041-.09834c-.0416-.07695-.0783-.12524-.1454-.18204.0439073-.01039.0843-.01464.1307-.00488-.1037927-.18504-.2969-.18504-.4704-.30477-.1785-.12161-.2615-.25174-.4753-.28289l.0135-.09833c.0182-.13325.1062-.17905.1905-.27989-.0562-.0299-.0904-.05554-.1527-.06343-.138-.01901-.3116-.01163-.3287.12399-.0111.08433.0697.11298.1014.1863-.0587.04403-.1014.07756-.1440927.13074.0463927.04341.0902927.09345.0817927.16064-.0036.04642-.0562.05192-.0953.07269-.0818-.14663-.1807-.24009-.1551-.40686-.0769.00425-.1736.008-.1845.08007-.0147.08983.0574.13199.0989.20769-.0733.03302-.1221.06718-.204.05742l-.1845-.02627c.0208-.05067.0734-.06531.0806-.12336l.0306-.2157c-.1234928-.00613-.1869-.03728-.3078-.0538-.1028-.01401-.2225.01652-.2372.11674-.0158.11185.0941.14725.16.23758-.0524928.01902-.0792.05743-.1367.04955-.1099-.01589-.0709-.17528-.1563-.2431-.1174-.08858-.2336-.02515-.3813-.03065.0073-.138-.0233-.30352-.1601-.32192-.3849-.0538-.6049.10698-.9677.2486-.2712.10698-.5082.0752-.7232.26462ZM6.6222928,8.62904c.1919-.06955.308-.1704.5157072-.14288.1282927.01952.1160927.18443.2175927.26262.1404073.11122.2809.09721.3969.22608-.0928.09346-.1564.16064-.2833.19667.0158073-.11535-.0416-.24184-.1578-.25898-.1905-.02565-.1002.32867-.2723927.41363-.0269073-.15027-.0513072-.24435-.0318073-.39098.0123-.07945.071-.11911.132-.1644-.0659-.04029-.1001927-.0996-.1784-.1111-.1039-.01414-.2334-.0269-.3385-.03066ZM8.0334927,9.11048l.1198.06105c-.1782927.19368-.38.27801-.6451.24073l-.1124-.01652c.16-.21194.3605-.26386.6377-.28526ZM8.2302927,12.5823c-.0562-.0079-.0135-.0899-.0159-.1455.0537-.0097.088-.0213.1467-.0226,0-.0488,0-.0793-.0013-.1295.0354.0061.055-.0133.0892073-.0079.2161927.0281.3151927.1295.5278927.1815-.1687.2424-.4583.1661-.7466.124ZM7.1941927,12.0312c-.1088-.0213-.2004-.0665-.226-.179.1404-.0214.2174-.0329.3628072-.0127.1905927.028.2932927.1007.463.1947.1296927.0716.33.0892.3091927.2353-.0121927.0911-.121.1021-.2101927.0886l-.1844073-.027c.0231-.0426.0477-.0775.0805-.1154-.1564-.1393-.2602-.2395-.4703-.27-.0366-.0055-.0916.0794-.1246.0855ZM8.449,6.29243c.2002927.1435.3078927.30239.5534927.30852.0268.15515.16.18992.2639.30053.1845.20218.292.38422.5656073.42276.0488927.00613.0770927-.00676.1257927-.00488-.0744-.17716-.2443-.25473-.2186-.44291.0183-.1161.1307-.15338.1442-.26824.0293-.19605-.2602-.18267-.4301-.2755-.2418-.13074-.3641-.28588-.6352927-.32567-.2468073-.03415-.4925073-.00425-.6085073.2157.066.02502.1662.06719.2395073.06969Z" fill="url(#radial-gradient-3)" fill-rule="evenodd"/>
            <g mask="url(#mask-5)">
              <g>
                <path d="M13.9898926,9.79409c0,3.32461-2.0148926,5.65581-5.3135999,5.88671-.3508.0251-.4008-.2787-.0575-.3592,2.8077999-.6634,4.7075999-3.7724,5.0167999-5.56053.0292-.41538.3543-.3213.3543.03302Z" fill="#c9ffc9"/>
                <path d="M14.1436926,9.81787c0,3.32573-2.0122999,5.65763-5.3122999,5.88803-.3506.0237-.4008-.2774-.0586-.3592,2.8076999-.6629,4.7075999-3.7712,5.0166999-5.56048.033-.41238.3542-.31892.3542.03165Z" fill="url(#New_Gradient_12-2)" fill-rule="evenodd" stroke="#c9ffc9" stroke-miterlimit="3.8637" stroke-width="2"/>
                <path d="M14.0655926,9.80573c0,3.32507-2.0110999,5.65637-5.3111999,5.88717-.3507.0246-.4007-.2772-.0587-.3585,2.8077999-.6629,4.7075999-3.7717,5.0155999-5.56107.0343-.41425.3543-.31829.3543.0324Z" fill="none" stroke="#86e099" stroke-miterlimit="3.8637" stroke-width="1.1296"/>
                <path d="M13.9898926,9.79409c0,3.32461-2.0148926,5.65581-5.3135999,5.88671-.3508.0251-.4008-.2787-.0575-.3592,2.8077999-.6634,4.7075999-3.7724,5.0167999-5.56053.0292-.41538.3543-.3213.3543.03302Z" fill="none" stroke="#65d081" stroke-miterlimit="3.8637"/>
              </g>
            </g>
            <path d="M4.0541928,6.46959c.0366.0897-.11.14775-.0123.16364.2199.02941.3471072-.13374.5668-.10384.0734.01164.11.0269.181.04217-.0196928.14663.0329.24497.0098.39285-.0306.21995-.2139.29627-.2433.51684-.0181928.13675.0525.22233.0356.3592-.0097928.06356-.0464.09471-.0623.15215l.0243-.19006c-.0427928-.00612-.0586-.03052-.1014-.03478-.215-.03115-.171.29139-.2833928.47218-.2125072.34519-.3947072.53511-.4521072.93348-.0806.58828.1711072.93528.0856,1.52298-.0306.2223.0916.3459.2272.5266.0317.003.0647.0012.088-.0103-.0379-.4925-.1222-.7515-.1063-1.23719.1271.16679.0574.33059.143.51379.1759.3622.2883.5664.4018.956.0405.14-.0475.2658.0294.3904.1687.2591.2469.4613.512.6305.149.0885.3115,0,.4336.1228.1859.1931.22.4606.4864.4978.1381.0191.2224072-.0549.3592-.0347.1637.0213.0611.2534.1235.4038.0598.1302.2259.0838.3407072.1753.1405928.1106.1625927.3005.3396927.3262.1051.0152.1467-.1081.2505-.0941.1662.0239.1112.2634.0892.4295-.0452.3268-.4386.3689-.4826.6946-.0109.0581.0501.0874.0427.1455-.0121.0836-.1197.1002-.1331.1838-.0318.2315.1454.3372.2687.5309.1113.171.0966.3391.2554.4649.2224.1759.595.1955.5535073.474-.0647073.4679-.4826073.5517-.7319073.9573.0428.0282.0661.0531.1199073.0599.562.0794.8355927-.3116,1.3756927-.4912.3654-.1203.6146-.0703.9553073-.2523.181-.0935.1992927-.2713.374-.3751.3641927-.2175.628-.2719.9186926-.5786.1821-.1936.1528-.4123.2823074-.6463.1857926-.3316.4116926-.4441.5631926-.7985-.0439-.028-.0647-.075-.1234-.0818l-.3885-.055c-.2406-.0341-.4202-.2461-.3861-.4887-.2663-.0428-.4203-.0543-.689-.091-.3434-.0495-.413-.4221-.7527-.471-.149-.0202-.2126.1417-.3604927.1223-.1966073-.0282-.287-.1272-.4802073-.1535-.1221-.0171-.1807.0916-.2332.2035l-.088.0078c-.0208-.0769-.0013-.1416.011-.2235.0036-.0306-.0502-.0323-.0551-.0598-.2454927.0659-.3274.339-.5814927.303-.0611073-.008-.0843073-.0758-.1466073-.0843-.1149-.0166-.1808.0598-.2957.0439-.2163-.0312-.424-.1832-.3934-.3989.011-.0775.0989-.0977.1087072-.1765.0293927-.1937-.1247072-.3189-.3054072-.4076l-.132.0234-.1905-.0264c.0061-.0366-.0098-.0604-.0074-.0972.0183072-.1362.204-.1434.2212-.279.0194-.1217.0012-.198.0439-.3159l-.3446-.0502c-.1478.0942-.2211.2713-.3995.2463-.3164-.044-.5082-.3598-.4616928-.6768.0535928-.3727.243-.79.6168928-.7381.127.0184.1808.0898.3079.1076.0891.0134.1161-.1118.2065-.0985.2358.0312.5143.1424.4813.3782-.0268.2151.1272.3653.3202.463.0196-.05.0282073-.0824.0428-.1343l-.0563-.6823c.1845-.3226.6414-.2751.6891-.6385l.0343-.24134c.0416-.27787.3531-.40436.6305-.36471-.0185-.10496-.0844-.16189-.071-.26748.0184-.11549.1491-.13075.2602-.15703-.0023927.04705,0,.07882.0013.13013.2541-.0458.5278-.08671.562-.33906.0048-.03241-.0465-.03416-.0549-.06106-.0807.01952-.1405.04266-.2297.03052-.1198-.01713-.0807-.18816-.0538-.30789-.0734-.01038-.116-.01038-.1905-.00551.0537-.08182.1307-.09834.2309-.11673l.1208.05993c.0661-.02877.1125073-.05379.182-.08245.0221.10009-.0059.23634.0992.25048l.4556.06406c.0343-.11424-.1246-.13676-.204-.22233-.0709-.07332.0146-.17904-.0501-.26337-.105-.1435-.2663-.11847-.4178-.2083-.2615-.16065-.2615-.5131-.5657-.55826-.0586927-.00676-.0806927.07444-.1381.06718-.2053-.02753-.2359-.26824-.4399-.2969-.0646927-.00925-.1039.01152-.165.0189.0074.10872.0868.16252.0698.26824-.0244927.17767-.2787.16915-.3043.34632-.0159.11185.0379.17227.0452.28526-.1649-.00601-.116-.23522-.2285-.3537-.1918-.1973-.6231-.13988-.5841-.4185.0538-.39461.7234-.2675.7784-.66273.0037-.03065-.0318-.04641-.0343-.07457.0502-.00801.0808-.03115.1346-.02202.1685073.0214.2466.13562.3238.28526-.1016.02941-.1638.02077-.2664.05017.2197.13137.4264.10022.5815.30478l.2041-.09834c-.0416-.07695-.0783-.12524-.1454-.18204.0439073-.01039.0843-.01464.1307-.00488-.1037927-.18504-.2969-.18504-.4704-.30477-.1785-.12161-.2615-.25174-.4753-.28289l.0135-.09833c.0182-.13325.1062-.17905.1905-.27989-.0562-.0299-.0904-.05554-.1527-.06343-.138-.01901-.3116-.01163-.3287.12399-.0111.08433.0697.11298.1014.1863-.0587.04403-.1014.07756-.1440927.13074.0463927.04341.0902927.09345.0817927.16064-.0036.04642-.0562.05192-.0953.07269-.0818-.14663-.1807-.24009-.1551-.40686-.0769.00425-.1736.008-.1845.08007-.0147.08983.0574.13199.0989.20769-.0733.03302-.1221.06718-.204.05742l-.1845-.02627c.0208-.05067.0734-.06531.0806-.12336l.0306-.2157c-.1234928-.00613-.1869-.03728-.3078-.0538-.1028-.01401-.2225.01652-.2372.11674-.0158.11185.0941.14725.16.23758-.0524928.01902-.0792.05743-.1367.04955-.1099-.01589-.0709-.17528-.1563-.2431-.1174-.08858-.2336-.02515-.3813-.03065.0073-.138-.0233-.30352-.1601-.32192-.3849-.0538-.6049.10698-.9677.2486-.2712.10698-.5082.0752-.7232.26462ZM6.6222928,8.62904c.1919-.06955.308-.1704.5157072-.14288.1282927.01952.1160927.18443.2175927.26262.1404073.11122.2809.09721.3969.22608-.0928.09346-.1564.16064-.2833.19667.0158073-.11535-.0416-.24184-.1578-.25898-.1905-.02565-.1002.32867-.2723927.41363-.0269073-.15027-.0513072-.24435-.0318073-.39098.0123-.07945.071-.11911.132-.1644-.0659-.04029-.1001927-.0996-.1784-.1111-.1039-.01414-.2334-.0269-.3385-.03066ZM8.0334927,9.11048l.1198.06105c-.1782927.19368-.38.27801-.6451.24073l-.1124-.01652c.16-.21194.3605-.26386.6377-.28526ZM8.2302927,12.5823c-.0562-.0079-.0135-.0899-.0159-.1455.0537-.0097.088-.0213.1467-.0226,0-.0488,0-.0793-.0013-.1295.0354.0061.055-.0133.0892073-.0079.2161927.0281.3151927.1295.5278927.1815-.1687.2424-.4583.1661-.7466.124ZM7.1941927,12.0312c-.1088-.0213-.2004-.0665-.226-.179.1404-.0214.2174-.0329.3628072-.0127.1905927.028.2932927.1007.463.1947.1296927.0716.33.0892.3091927.2353-.0121927.0911-.121.1021-.2101927.0886l-.1844073-.027c.0231-.0426.0477-.0775.0805-.1154-.1564-.1393-.2602-.2395-.4703-.27-.0366-.0055-.0916.0794-.1246.0855ZM8.449,6.29243c.2002927.1435.3078927.30239.5534927.30852.0268.15515.16.18992.2639.30053.1845.20218.292.38422.5656073.42276.0488927.00613.0770927-.00676.1257927-.00488-.0744-.17716-.2443-.25473-.2186-.44291.0183-.1161.1307-.15338.1442-.26824.0293-.19605-.2602-.18267-.4301-.2755-.2418-.13074-.3641-.28588-.6352927-.32567-.2468073-.03415-.4925073-.00425-.6085073.2157.066.02502.1662.06719.2395073.06969Z" fill="none" fill-rule="evenodd"/>
          </g>
        </g>
      </g>
    </g>
  </g>
</svg>