<?xml version="1.0" encoding="UTF-8"?>
<svg id="Set_1" data-name="Set 1" xmlns="http://www.w3.org/2000/svg" width="20" height="20" xmlns:xlink="http://www.w3.org/1999/xlink" viewBox="0 0 20 20">
  <defs>
    <mask id="mask" x="8.0923091" y="5.3844631" width="11.2811622" height="12.0533491" maskUnits="userSpaceOnUse">
      <path d="M16.4033,5.41877c-.0268-.04392-.075-.0458-.1051-.00489l-4.8872,8.10732c-.0256.0434-.0696.0471-.0983.0049l-2.09789-2.7759c-.0299-.041-.07206-.0355-.09096.0115l-1.0233,2.5805c-.02014.0482-.00187.1124.03854.1449l3.43131,3.1804c.038.0341.0942.0305.1265-.011l6.8947-7.92962c.0372-.0349.0452-.09784.0178-.14175l-2.2061-3.16636Z" fill="#fff"/>
    </mask>
    <linearGradient id="linear-gradient" x1="13.3853003" y1="11.2778859" x2="14.1364406" y2="18.7892797" gradientUnits="userSpaceOnUse">
      <stop offset="0" stop-color="#c9ffc9"/>
      <stop offset=".80899" stop-color="#00cd00"/>
      <stop offset="1" stop-color="#00cd00"/>
    </linearGradient>
    <linearGradient id="linear-gradient-2" x1="10.5918441" y1="15.9473772" x2="18.2918878" y2="5.4766481" gradientUnits="userSpaceOnUse">
      <stop offset="0" stop-color="#c9ffc9"/>
      <stop offset=".55618" stop-color="#00cd00"/>
      <stop offset="1" stop-color="#23a11f"/>
    </linearGradient>
  </defs>
  <g>
    <path d="M2.65675,4.95147l-.3507,1.29267h-1.18019L2.66413,1.20783h1.48697l1.56993,5.03631h-1.22549l-.38848-1.29267h-1.45031ZM3.93478,4.09982l-.31403-1.06847c-.08182-.29864-.17104-.67986-.24672-.97125h-.02202c-.06719.29864-.14914.67986-.22358.97125l-.30666,1.06847h1.11301Z"/>
    <path d="M6.39301,1.28301c.29815-.05992.89681-.11247,1.47233-.11247.69401,0,1.12039.06719,1.48697.28413.3507.18693.59742.53023.59742.9939,0,.44053-.26148.85165-.82224,1.06847v.01464c.57552.14976,1.00191.59015,1.00191,1.24075,0,.46304-.2102.82174-.52424,1.06847-.36533.29138-.97863.45578-1.97929.45578-.56075,0-.97863-.03791-1.23286-.07519V1.28301ZM7.52078,3.20301h.37383c.6048,0,.91884-.24673.91884-.62007,0-.38122-.29076-.58277-.80636-.58277-.2541,0-.39585.01463-.48631.03728v1.16556ZM7.52078,5.43715c.11248.02253.24685.02253.44115.02253.51559,0,.97125-.20156.97125-.73242,0-.50834-.45566-.70989-1.02379-.70989h-.38861v1.41978Z"/>
    <path d="M14.5963,6.10976c-.2016.09709-.6794.21682-1.2841.21682-1.7412,0-2.638-1.09111-2.638-2.53342,0-1.71842,1.2255-2.66716,2.7491-2.66716.5902,0,1.0387.11973,1.2402.22421l-.2382.8968c-.2248-.09721-.5462-.18691-.9567-.18691-.8968,0-1.5994.54549-1.5994,1.67326,0,1.00916.5975,1.64386,1.6067,1.64386.3507,0,.7246-.06718.9566-.16427l.1638.89681Z"/>
  </g>
  <path d="M16.4033,5.41877c-.0268-.04392-.075-.0458-.1051-.00489l-4.8872,8.10732c-.0256.0434-.0696.0471-.0983.0049l-2.09789-2.7759c-.0299-.041-.07206-.0355-.09096.0115l-1.0233,2.5805c-.02014.0482-.00187.1124.03854.1449l3.43131,3.1804c.038.0341.0942.0305.1265-.011l6.8947-7.92962c.0372-.0349.0452-.09784.0178-.14175l-2.2061-3.16636Z" fill="none" stroke="#000" stroke-width="2"/>
  <polyline points="1 6.90451 3.29138 8.90451 5.58534 6.90451 7.87962 8.90451 10.1745 6.90451 12.473 8.90451 14.7716 6.90451" fill="none" stroke="#a70000"/>
  <g mask="url(#mask)">
    <g>
      <path d="M16.4033,5.41877c-.0268-.04392-.075-.0458-.1051-.00489l-4.8872,8.10732c-.0256.0434-.0696.0471-.0983.0049l-2.09789-2.7759c-.0299-.041-.07206-.0355-.09096.0115l-1.0233,2.5805c-.02014.0482-.00187.1124.03854.1449l3.43131,3.1804c.038.0341.0942.0305.1265-.011l6.8947-7.92962c.0372-.0349.0452-.09784.0178-.14175l-2.2061-3.16636Z" fill="url(#linear-gradient)"/>
      <path d="M17.1505,6.16656c-.0262-.04403-.0746-.04641-.1051-.00488l-4.8861,8.10732c-.0249.0439-.0701.0471-.0996.0056l-2.09583-2.7774c-.03241-.0402-.07332-.0347-.09296.0117l-1.02381,2.5811c-.01839.0476-.00062.1123.03967.1448l3.43083,3.1797c.0386.0337.0942.0312.1271-.0097l6.8928-7.93087c.0391-.03416.0477-.09709.019-.1405l-2.206-3.16687Z" fill="url(#linear-gradient-2)"/>
    </g>
  </g>
</svg>