<?xml version="1.0" encoding="UTF-8"?>
<svg id="Set_1" data-name="Set 1" xmlns="http://www.w3.org/2000/svg" width="20" height="20" xmlns:xlink="http://www.w3.org/1999/xlink" viewBox="0 0 20 20">
  <defs>
    <mask id="mask" x="1.5468939" y="1.6513" width="15.2174997" height="17.7917" maskUnits="userSpaceOnUse">
      <path d="M11.9302936,18.4424l-9.3821998.0006-.0012-15.7917,13.2174997.0011-.0061,12.2871c0,1.669-2.0476999,3.5029-3.8279999,3.5029Z" fill="#fff" fill-rule="evenodd" stroke="#fff" stroke-linecap="round" stroke-linejoin="round" stroke-width="2"/>
    </mask>
    <linearGradient id="New_Gradient_27" data-name="New Gradient 27" x1="4.7749058" y1="1.564626" x2="13.5091486" y2="19.4724777" gradientUnits="userSpaceOnUse">
      <stop offset="0" stop-color="#e5e5e5"/>
      <stop offset="1" stop-color="#fff"/>
    </linearGradient>
    <radialGradient id="New_Gradient_28" data-name="New Gradient 28" cx="-22.3850542" cy="30.5140764" fx="-22.3850542" fy="30.5140764" r="4.3485776" gradientTransform="translate(34.4038 -14.3404114) scale(1.0313 .9421)" gradientUnits="userSpaceOnUse">
      <stop offset="0" stop-color="#fff"/>
      <stop offset="1" stop-color="#ccc"/>
    </radialGradient>
    <mask id="mask-1" x="2.5468939" y="2.6513" width="13.2394997" height="15.851" maskUnits="userSpaceOnUse">
      <path d="M11.9302936,18.4424l-9.3821998.0006-.0012-15.7917,13.2174997.0011-.0061,12.2871c0,1.669-2.0476999,3.5029-3.8279999,3.5029Z" fill="#fff" fill-rule="evenodd"/>
    </mask>
    <linearGradient id="New_Gradient_25" data-name="New Gradient 25" x1="4.7749058" y1="1.564626" x2="13.5091486" y2="19.4724777" gradientUnits="userSpaceOnUse">
      <stop offset="0" stop-color="#e5e5e5"/>
      <stop offset=".286514" stop-color="#f2f2f2"/>
      <stop offset=".646072" stop-color="#fff"/>
      <stop offset="1" stop-color="#fff"/>
    </linearGradient>
    <radialGradient id="New_Gradient_26" data-name="New Gradient 26" cx="-22.3850542" cy="30.5140764" fx="-22.3850542" fy="30.5140764" r="4.3485776" gradientTransform="translate(34.4038 -14.3404114) scale(1.0313 .9421)" gradientUnits="userSpaceOnUse">
      <stop offset="0" stop-color="#e5e5e5"/>
      <stop offset=".331467" stop-color="#e5e5e5"/>
      <stop offset="1" stop-color="#999"/>
    </radialGradient>
    <linearGradient id="New_Gradient_371" data-name="New Gradient 371" x1="6.5066938" y1="11.73695" x2="15.3720935" y2="11.73695" gradientUnits="userSpaceOnUse">
      <stop offset="0" stop-color="#999"/>
      <stop offset=".20224" stop-color="#f2f2f2"/>
      <stop offset=".516861" stop-color="#b2b2b2"/>
      <stop offset=".769669" stop-color="#b2b2b2"/>
      <stop offset="1" stop-color="#737373"/>
    </linearGradient>
    <linearGradient id="New_Gradient_376" data-name="New Gradient 376" x1="16.434626" y1="12.2592926" x2="13.4823856" y2="15.2115329" gradientUnits="userSpaceOnUse">
      <stop offset="0" stop-color="#4c4c4c"/>
      <stop offset=".623596" stop-color="#d9d9d9"/>
      <stop offset="1" stop-color="#4c4c4c"/>
    </linearGradient>
    <linearGradient id="New_Gradient_377" data-name="New Gradient 377" x1="18.4944126" y1="13.1925146" x2="14.4132927" y2="17.2736345" gradientUnits="userSpaceOnUse">
      <stop offset="0" stop-color="#a70000"/>
      <stop offset=".662918" stop-color="#df4e15"/>
      <stop offset="1" stop-color="#740000"/>
    </linearGradient>
    <linearGradient id="New_Gradient_146" data-name="New Gradient 146" x1="17.0711992" y1="15.5332608" x2="17.9983075" y2="17.0169443" gradientUnits="userSpaceOnUse">
      <stop offset="0" stop-color="#df4e15"/>
      <stop offset="1" stop-color="#c42e00"/>
    </linearGradient>
    <linearGradient id="New_Gradient_378" data-name="New Gradient 378" x1="17.0711992" y1="15.5332608" x2="17.9983075" y2="17.0169443" gradientUnits="userSpaceOnUse">
      <stop offset="0" stop-color="#df4e15"/>
      <stop offset="1" stop-color="#c42e00"/>
    </linearGradient>
    <mask id="mask-2" x="6.3906938" y="4.7399" width="9.0151998" height="9.6761" maskUnits="userSpaceOnUse">
      <path d="M10.9406937,4.9878c2.4460999,0,4.4313999,1.7644,4.4313999,3.941,0,2.1761-1.9852999,3.9405-4.4313999,3.9405-2.4473999,0-4.4314999-1.7644-4.4314999-3.9405,0-2.1766,1.9840999-3.941,4.4314999-3.941Z" fill="#fff"/>
    </mask>
    <linearGradient id="New_Gradient_372" data-name="New Gradient 372" x1="6.5091938" y1="8.92855" x2="15.3720935" y2="8.92855" gradientUnits="userSpaceOnUse">
      <stop offset="0" stop-color="#999"/>
      <stop offset=".219101" stop-color="#b2b2b2"/>
      <stop offset=".466293" stop-color="#b2b2b2"/>
      <stop offset=".769669" stop-color="#f2f2f2"/>
      <stop offset="1" stop-color="#737373"/>
    </linearGradient>
    <mask id="mask-3" x="6.4741938" y="5.6359" width="8.9316998" height="8.7801" maskUnits="userSpaceOnUse">
      <path d="M10.9406937,6.1144c2.2028999,0,3.9866999,1.5878,3.9866999,3.5457,0,1.9591-1.7838,3.5475-3.9866999,3.5475-2.2040999,0-3.9879999-1.5884-3.9879999-3.5475,0-1.9579,1.7839-3.5457,3.9879999-3.5457Z" fill="#fff" stroke="#fff" stroke-miterlimit="3.8637" stroke-width=".957"/>
    </mask>
    <linearGradient id="New_Gradient_373" data-name="New Gradient 373" x1="6.9526938" y1="9.661" x2="14.9273936" y2="9.661" gradientUnits="userSpaceOnUse">
      <stop offset="0" stop-color="#5587c0"/>
      <stop offset=".20787" stop-color="#97bae0"/>
      <stop offset=".865173" stop-color="#b3e0ff"/>
      <stop offset="1" stop-color="#5587c0"/>
    </linearGradient>
    <radialGradient id="New_Gradient_374" data-name="New Gradient 374" cx="45.4845005" cy="42.8356321" fx="45.4845005" fy="42.8356321" r="7.16532" gradientTransform="translate(-31.9456221 -45.1649) scale(.8903 1.2253)" gradientUnits="userSpaceOnUse">
      <stop offset="0" stop-color="#78dcff"/>
      <stop offset="1" stop-color="#b7e9ff"/>
    </radialGradient>
    <linearGradient id="linear-gradient" x1="7.8233326" y1="5.7645531" x2="13.8045822" y2="11.7458027" gradientUnits="userSpaceOnUse">
      <stop offset="0" stop-color="gray"/>
      <stop offset=".187809" stop-color="#82868b"/>
      <stop offset=".5233754" stop-color="#8a99aa"/>
      <stop offset=".9651405" stop-color="#95b7db"/>
      <stop offset="1" stop-color="#97bae0"/>
    </linearGradient>
    <linearGradient id="New_Gradient_375" data-name="New Gradient 375" x1="7.9502458" y1="5.9382037" x2="13.9310169" y2="11.9189749" gradientUnits="userSpaceOnUse">
      <stop offset="0" stop-color="gray"/>
      <stop offset="1" stop-color="#fff"/>
    </linearGradient>
    <mask id="mask-4" x="6.9526938" y="6.9170774" width="7.9746998" height="7.4989226" maskUnits="userSpaceOnUse">
      <path d="M9.626,6.9392c.7513937-.1266,1.41.303,1.4684937.9603.0575063.6561-.5044937,1.2914-1.2547,1.4192-.7527.1252-1.4076-.3031-1.4685-.961-.0575-.6568.5032-1.2915,1.2547063-1.4185Z" fill="#fff"/>
    </mask>
  </defs>
  <g>
    <g>
      <g mask="url(#mask)">
        <g>
          <path d="M11.9302936,18.4424l-9.3821998.0006-.0012-15.7917,13.2174997.0011-.0061,12.2871c0,1.669-2.0476999,3.5029-3.8279999,3.5029Z" fill="url(#New_Gradient_27)" fill-rule="evenodd"/>
          <path d="M11.3180937,18.5011s2.1920999-.0769,2.1920999-2.2963c2.2565999,0,2.2761999-1.7979,2.2761999-1.7979l-.0012,4.0954-4.4670999-.0012Z" fill="url(#New_Gradient_28)" fill-rule="evenodd"/>
          <path d="M11.9302936,18.4424l-9.3821998.0006-.0012-15.7917,13.2174997.0011-.0061,12.2871c0,1.669-2.0476999,3.5029-3.8279999,3.5029Z" fill="none" fill-rule="evenodd" stroke="#000" stroke-linecap="round" stroke-linejoin="round" stroke-width="2"/>
        </g>
      </g>
      <g mask="url(#mask-1)">
        <g>
          <path d="M11.9302936,18.4424l-9.3821998.0006-.0012-15.7917,13.2174997.0011-.0061,12.2871c0,1.669-2.0476999,3.5029-3.8279999,3.5029Z" fill="url(#New_Gradient_25)" fill-rule="evenodd"/>
          <path d="M11.3180937,18.5011s1.5237-.5584,1.5249063-2.7801c2.2543936-.0013,2.9433935-1.3141,2.9433935-1.3141l-.0012,4.0954-4.4670999-.0012Z" fill="url(#New_Gradient_26)" fill-rule="evenodd"/>
        </g>
      </g>
    </g>
    <g>
      <line x1="4.2866938" y1="8.3204" x2="7.2568938" y2="8.3204" fill="none" stroke="#999" stroke-linecap="round" stroke-miterlimit="3.8637" stroke-width=".7125"/>
      <line x1="11.1408937" y1="5.8304" x2="14.11" y2="5.8304" fill="none" stroke="#999" stroke-linecap="round" stroke-miterlimit="3.8637" stroke-width=".7125"/>
      <line x1="8.9698937" y1="8.3204" x2="14.11" y2="8.3204" fill="none" stroke="#999" stroke-linecap="round" stroke-miterlimit="3.8637" stroke-width=".7125"/>
      <line x1="4.1632938" y1="15.7924" x2="11.5405936" y2="15.7924" fill="none" stroke="#999" stroke-linecap="round" stroke-miterlimit="3.8637" stroke-width=".7125"/>
      <line x1="4.2866938" y1="10.811" x2="6.685" y2="10.811" fill="none" stroke="#999" stroke-linecap="round" stroke-miterlimit="3.8637" stroke-width=".7125"/>
      <line x1="8.0950937" y1="10.811" x2="10.4922937" y2="10.811" fill="none" stroke="#999" stroke-linecap="round" stroke-miterlimit="3.8637" stroke-width=".7125"/>
      <line x1="11.4452936" y1="10.811" x2="14.11" y2="10.811" fill="none" stroke="#999" stroke-linecap="round" stroke-miterlimit="3.8637" stroke-width=".7125"/>
      <line x1="4.2866938" y1="13.3018" x2="8.2086937" y2="13.3018" fill="none" stroke="#999" stroke-linecap="round" stroke-miterlimit="3.8637" stroke-width=".7125"/>
      <line x1="9.3021937" y1="13.3018" x2="14.2994936" y2="13.3018" fill="none" stroke="#999" stroke-linecap="round" stroke-miterlimit="3.8637" stroke-width=".7125"/>
    </g>
  </g>
  <g>
    <path d="M18.5390935,15.4099c-.551-.5491-1.1425-1.1412-1.9647-1.9634-.3433-.3427-.744-.427-1.1119-.352l-.893-.8919c.5045064-.6383.8026-1.4166.8026-2.2577v-.3568h-.0670935c.0402935-.2151.0670935-.4338.0670935-.6593,0-.3505-.0573-.6884-.154-1.0111-.1355-.4832-.3628-.926-.667-1.314-.7966-1.1363-2.1992999-1.8638-3.7374999-1.8638-2.3690999,0-4.4228999,1.7161-4.4228999,4.0148,0,.3171.0426.622.116.914.0025.0891.0025.1772.0025.2762,0,2.1766,1.9840999,3.9409,4.4314999,3.9409.8832,0,1.7031-.2322,2.3934999-.6281v.0006l.9822.9799c-.0768.3709.0062.771.3508,1.1162.8211.8216,1.416,1.413,1.9647,1.9628.8051065.8052,2.7111065-1.1026,1.9072-1.9073Z" stroke="#000" stroke-linecap="round" stroke-linejoin="round" stroke-width="2"/>
    <g>
      <path d="M6.5066938,9.5881c0,.116.0025.2271.0025.3568,0,2.1766,1.9840999,3.9409,4.4314999,3.9409,2.4460999,0,4.4313999-1.7643,4.4313999-3.9409v-.3568H6.5066938Z" fill="url(#New_Gradient_371)" fill-rule="evenodd"/>
      <path d="M14.4801936,12.1141l1.8071,1.8052c1.1521,1.1553.0086,2.3001-1.1461,1.1437l-1.8046-1.8047c-.7625-.763.3812-1.9072,1.1436-1.1442Z" fill="url(#New_Gradient_376)"/>
      <g>
        <path d="M16.5743935,13.4465c.8222.8222,1.4137,1.4143,1.9647,1.9634.8039065.8047-1.1020935,2.7125-1.9072,1.9073-.5487-.5498-1.1436-1.1412-1.9647-1.9628-1.2023-1.2024.7049-3.1103,1.9072-1.9079Z" fill="url(#New_Gradient_377)"/>
        <path d="M14.7965936,13.8229c.6953.6951,1.344,1.3439,1.834,1.8332" fill="none" stroke="#ff7845" stroke-linecap="round" stroke-miterlimit="3.8637" stroke-width="1.4356"/>
        <path d="M17.795,15.2321c.6547935-.0818,1.0360935.2994.8406935.8419-.1932.5431-.7918,1.1393-1.3343,1.3349-.5437.1936-.9237-.1869-.8431-.8432.083-.6549.6819-1.2522,1.3367065-1.3336Z" fill="url(#New_Gradient_146)" stroke="#a70000" stroke-miterlimit="3.8637" stroke-width=".4785"/>
        <path d="M17.795,15.2321c.6547935-.0818,1.0360935.2994.8406935.8419-.1932.5431-.7918,1.1393-1.3343,1.3349-.5437.1936-.9237-.1869-.8431-.8432.083-.6549.6819-1.2522,1.3367065-1.3336Z" fill="url(#New_Gradient_378)"/>
      </g>
      <g mask="url(#mask-2)">
        <g>
          <path d="M10.9406937,4.9878c2.4460999,0,4.4313999,1.7644,4.4313999,3.941,0,2.1761-1.9852999,3.9405-4.4313999,3.9405-2.4473999,0-4.4314999-1.7644-4.4314999-3.9405,0-2.1766,1.9840999-3.941,4.4314999-3.941Z" fill="url(#New_Gradient_372)"/>
          <g mask="url(#mask-3)">
            <g>
              <path d="M10.9406937,6.1144c2.2028999,0,3.9866999,1.5878,3.9866999,3.5457,0,1.9591-1.7838,3.5475-3.9866999,3.5475-2.2040999,0-3.9879999-1.5884-3.9879999-3.5475,0-1.9579,1.7839-3.5457,3.9879999-3.5457Z" fill="url(#New_Gradient_373)"/>
              <path d="M10.9406937,7.3216c2.2028999,0,3.9866999,1.5883,3.9866999,3.5474,0,1.958-1.7838,3.547-3.9866999,3.547-2.2040999,0-3.9879999-1.589-3.9879999-3.547,0-1.9591,1.7839-3.5474,3.9879999-3.5474Z" fill="url(#New_Gradient_374)"/>
              <path d="M10.9406937,6.1144c2.2028999,0,3.9866999,1.5878,3.9866999,3.5457,0,1.9591-1.7838,3.5475-3.9866999,3.5475-2.2040999,0-3.9879999-1.5884-3.9879999-3.5475,0-1.9579,1.7839-3.5457,3.9879999-3.5457Z" fill="none" stroke="#69c" stroke-miterlimit="3.8637" stroke-width=".957"/>
            </g>
          </g>
          <path d="M10.8135937,4.7399c2.3690999,0,4.4241999,1.7161,4.4241999,4.0148,0,2.3002-2.0550999,4.0156-4.4241999,4.0156s-4.4228999-1.7154-4.4228999-4.0156c0-2.2987,2.0537999-4.0148,4.4228999-4.0148ZM10.8135937,5.2041c-2.3300999,0-4.0843999,1.6721-4.0843999,3.5506,0,1.8798,1.7543,3.5519,4.0843999,3.5519,2.3310999,0,4.0868999-1.6721,4.0868999-3.5519,0-1.8785-1.7558-3.5506-4.0868999-3.5506Z" fill="url(#linear-gradient)"/>
        </g>
      </g>
      <path d="M10.9406937,4.9134c2.3689999,0,4.4228999,1.716,4.4228999,4.0154,0,2.2989-2.0538999,4.0149-4.4228999,4.0149-2.3691999,0-4.4229999-1.716-4.4229999-4.0149,0-2.2994,2.0537999-4.0154,4.4229999-4.0154ZM10.9406937,5.3777c-2.3312999,0-4.0869999,1.6714-4.0869999,3.5511,0,1.8786,1.7557,3.5506,4.0869999,3.5506,2.3298999,0,4.0843999-1.672,4.0843999-3.5506,0-1.8797-1.7545-3.5511-4.0843999-3.5511Z" fill="url(#New_Gradient_375)"/>
      <g mask="url(#mask-4)">
        <g>
          <path d="M9.626,6.9392c.7513937-.1266,1.41.303,1.4684937.9603.0575063.6561-.5044937,1.2914-1.2547,1.4192-.7527.1252-1.4076-.3031-1.4685-.961-.0575-.6568.5032-1.2915,1.2547063-1.4185Z" fill="#b3e0ff"/>
          <path d="M10.9406937,7.3216c2.2028999,0,3.9866999,1.5883,3.9866999,3.5474,0,1.958-1.7838,3.547-3.9866999,3.547-2.2040999,0-3.9879999-1.589-3.9879999-3.547,0-1.9591,1.7839-3.5474,3.9879999-3.5474Z" fill="#fff"/>
        </g>
      </g>
    </g>
  </g>
</svg>