<?xml version="1.0" encoding="UTF-8"?>
<svg id="Set_2" data-name="Set 2" xmlns="http://www.w3.org/2000/svg" width="20" height="20" viewBox="0 0 20 20">
  <path d="M11.5380936,14.7852c-.0476,0-.0903-.0337-.1283-.1002-.0379-.0673-.0562-.1454-.0562-.2346,0-.0354.0061-.0855.0209-.1478.0146-.0622.0304-.0978.05-.1064.5192-.1251,1.0947-.4233,1.7228-.8931.6292-.4698.9433-.9108.9433-1.322v-.2015c0-.2059-.0453-.3532-.1345936-.4429-.0903064-.0892-.2308064-.1339-.4202064-.1339h-6.7467936c-.38,0-.6598062.0843-.8406062.2541-.1796.1693-.2981.5132-.3556,1.0314,0,.0267-.0391.0506-.1197.0732-.0794.0226-.1443.0336-.1907.0336-.0573938,0-.1221-.011-.1979-.0336-.0757-.0226-.1136-.0465-.1136-.0732,0-.4296.0159-.8695.044-1.3221.0305-.4527.0452-.881.0452-1.2866,0-.4142-.0147-.8449-.0452-1.2927-.0281-.4483-.044-.8913-.044-1.3287,0-.0268.0379-.0513.1136-.0732.0758-.0234.1405062-.0338.1979-.0338.0464,0,.1088.0104.1845.0338.0746.0219.1173.0464.1259.0732.0672062.5266.1845.8725.3556,1.0374.171.1655.4521.2479.8406062.2479h6.7467936c.2089,0,.353-.0402.4338-.1209.0817-.0806.121-.2321.121-.4557v-.1075c0-.3666-.291-.8174-.8712-1.3544-.5828-.5364-1.1803936-.9164-1.7949-1.14-.0292-.0085-.0477-.0415-.0562-.1002-.011-.058-.0147-.1051-.0147-.1398,0-.0813.0183-.1594.0562-.2347.038-.0762.0807-.1142.1283-.1142.4717.088,1.0496.1815,1.7349064.2823.6842936.1002,1.2535936.1723,1.707.2162-.055.314-.1026064.804-.1406064,1.4687-.0366.6653-.0548,1.7111-.0548,3.14,0,1.2212.0182,2.2378.0548,3.0514.038.8132.0856064,1.3496.1406064,1.6104-.4534064.0256-.9909064.0587-1.6153064.1008-.6232.0422-1.2328.0886-1.8266.1393Z"/>
</svg>