<?xml version='1.0' encoding='UTF-8'?>
<svg xmlns="http://www.w3.org/2000/svg" xmlns:xlink="http://www.w3.org/1999/xlink" id="Icons_-_24x24" data-name="Icons - 24x24" width="20" height="20" viewBox="0 0 20 20">
  <defs>
    <linearGradient id="White_Black" data-name="White, Black" x1="-11.0223714" y1="-8.7960715" x2="13.4081674" y2="14.276632" gradientUnits="userSpaceOnUse">
      <stop offset="0" stop-color="#fff"/>
      <stop offset="1" stop-color="#000"/>
    </linearGradient>
    <linearGradient id="White_Black-2" data-name="White, Black" x1="17.3699" y1="5.3203247" x2="17.3699" y2="6.269714" gradientUnits="userSpaceOnUse"><stop offset="0" stop-color="#fff"/><stop offset="1" stop-color="#000"/></linearGradient>
    <mask id="mask" x="1.5442503" y="5.2881" width="17.5656444" height="11.3812251" maskUnits="userSpaceOnUse">
      <path d="M13.8198,5.7666c-1.4653-.106-3.957-.144-5.9199.0527-1.3921.1436-3.5747-.3847-4.7227.4585-2.2597,1.6626-1.5893,6.6236-1.3618,9.4263.1133,1.398,11.8301.9424,13.648.6777,1.3149-.1919,2.4765.0586,3.0747-.5483.2705-.2759.4267-.7236.4302-1.4683.0058-1.4243.354-4.6714-.0635-6.229-.4194-1.5576-3.6192-2.2636-5.085-2.3696Z" fill="#fff"/>
    </mask>
    <linearGradient id="White_Black-3" data-name="White, Black" x1="-.1604257" y1="-.5153516" x2="13.5607735" y2="15.6115645" gradientUnits="userSpaceOnUse"><stop offset="0" stop-color="#fff"/><stop offset="1" stop-color="#000"/></linearGradient>
    <linearGradient id="White_Black-4" data-name="White, Black" x1="3.87135" y1="2.0767584" x2="6.8542183" y2="8.6212481" gradientUnits="userSpaceOnUse"><stop offset="0" stop-color="#fff"/><stop offset="1" stop-color="#000"/></linearGradient>
    <linearGradient id="White_Black-5" data-name="White, Black" x1="-1.6210441" y1="11.89745" x2="4.8798681" y2="11.89745" gradientUnits="userSpaceOnUse"><stop offset="0" stop-color="#fff"/><stop offset="1" stop-color="#000"/></linearGradient>
    <linearGradient id="White_Black-6" data-name="White, Black" x1="14.3243817" y1="11.7088375" x2="6.2141935" y2="11.7088375" gradientUnits="userSpaceOnUse"><stop offset="0" stop-color="#fff"/><stop offset="1" stop-color="#000"/></linearGradient>
    <radialGradient id="radial-gradient" cx="-6.9897243" cy=".8600064" fx="-6.9897243" fy=".8600064" r="1.7959578" gradientTransform="translate(13.0634 6.3954) scale(.8333)" gradientUnits="userSpaceOnUse">
      <stop offset="0" stop-color="#fff"/>
      <stop offset="1" stop-color="#000"/>
    </radialGradient>
    <linearGradient id="White_Black-7" data-name="White, Black" x1="9.3917686" y1="6.941088" x2="2.5821927" y2="6.941088" gradientUnits="userSpaceOnUse"><stop offset="0" stop-color="#fff"/><stop offset="1" stop-color="#000"/></linearGradient>
    <linearGradient id="White_Black-8" data-name="White, Black" x1="2.9088736" y1="5.5872946" x2="4.5791183" y2="7.164708" gradientUnits="userSpaceOnUse"><stop offset="0" stop-color="#fff"/><stop offset="1" stop-color="#000"/></linearGradient>
    <mask id="mask-1" x="8.761908" y="2.8711" width="7.7113234" height="8.6719" maskUnits="userSpaceOnUse">
      <path d="M16.4248,11.543h-7.6143c-.2519-2.7085.5069-5.2622,1.5518-7.7256h4.5098c1.0449,2.4634,1.8042,5.018,1.5527,7.7256Z" fill="#fff"/>
    </mask>
    <linearGradient id="White_Black-9" data-name="White, Black" x1="12.6175697" y1="-.6333182" x2="12.6175697" y2="9.4277307" gradientUnits="userSpaceOnUse"><stop offset="0" stop-color="#fff"/><stop offset="1" stop-color="#000"/></linearGradient>
    <linearGradient id="White_Black-10" data-name="White, Black" x1="12.61205" y1="1.771705" x2="12.61205" y2="7.4240097" gradientUnits="userSpaceOnUse"><stop offset="0" stop-color="#fff"/><stop offset="1" stop-color="#000"/></linearGradient>
    <linearGradient id="White_Black-11" data-name="White, Black" x1="12.61205" y1="3.1382029" x2="12.61205" y2="6.0312132" gradientUnits="userSpaceOnUse"><stop offset="0" stop-color="#fff"/><stop offset="1" stop-color="#000"/></linearGradient>
    <linearGradient id="White_Black-12" data-name="White, Black" x1="2.9679734" y1="4.6070091" x2="4.5026904" y2="6.0564273" gradientUnits="userSpaceOnUse"><stop offset="0" stop-color="#fff"/><stop offset="1" stop-color="#000"/></linearGradient>
    <radialGradient id="radial-gradient-2" cx="-.3637758" cy="5.9358656" fx="-.3637758" fy="5.9358656" r="5.5904429" gradientTransform="translate(13.0634 6.3954) scale(.8333)" gradientUnits="userSpaceOnUse">
      <stop offset="0" stop-color="#fff"/>
      <stop offset=".2059634" stop-color="#fcfcfc"/>
      <stop offset=".3496563" stop-color="#f3f3f3"/>
      <stop offset=".4744839" stop-color="#e3e3e3"/>
      <stop offset=".5884764" stop-color="#cdcdcd"/>
      <stop offset=".69512" stop-color="#b1b1b1"/>
      <stop offset=".7963673" stop-color="#8e8e8e"/>
      <stop offset=".8933228" stop-color="#656565"/>
      <stop offset=".9845413" stop-color="#363636"/>
      <stop offset="1" stop-color="#2e2e2e"/>
    </radialGradient>
    <radialGradient id="Black_White_Radial" data-name="Black, White Radial" cx="10.4782832" cy="15.9965269" fx="10.4782832" fy="15.9965269" r="6.403027" gradientTransform="translate(6.345 .7906) scale(.7456)" gradientUnits="userSpaceOnUse">
      <stop offset="0" stop-color="#fff"/>
      <stop offset="1" stop-color="#000"/>
    </radialGradient>
    <radialGradient id="radial-gradient-3" cx="-.6311209" cy="6.0440192" fx="-.6311209" fy="6.0440192" r="4.6844482" gradientTransform="translate(13.0634 6.3954) scale(.8333)" gradientUnits="userSpaceOnUse">
      <stop offset=".011236" stop-color="#0a50a1"/>
      <stop offset=".196629" stop-color="#ccecf4"/>
      <stop offset="1" stop-color="#081326"/>
    </radialGradient>
    <radialGradient id="radial-gradient-4" cx="16.9530954" cy="22.1324836" fx="16.9530954" fy="22.1324836" r="3.9312217" gradientTransform="translate(1.1566 -3.6522) scale(.6865)" gradientUnits="userSpaceOnUse">
      <stop offset=".011236" stop-color="#0a50a1"/>
      <stop offset=".196629" stop-color="#ccecf4"/>
      <stop offset=".3341815" stop-color="#c8e8f1"/>
      <stop offset=".4509816" stop-color="#bfdee7"/>
      <stop offset=".5602538" stop-color="#aeccd8"/>
      <stop offset=".6649202" stop-color="#97b3c1"/>
      <stop offset=".7663476" stop-color="#7a93a5"/>
      <stop offset=".8653144" stop-color="#556c82"/>
      <stop offset=".9605348" stop-color="#2b3f59"/>
      <stop offset="1" stop-color="#182a47"/>
    </radialGradient>
    <radialGradient id="radial-gradient-5" cx="-1.7533743" cy="4.7079745" fx="-1.7533743" fy="4.7079745" r="3.8263882" gradientTransform="translate(13.0634 6.3954) scale(.8333)" gradientUnits="userSpaceOnUse">
      <stop offset="0" stop-color="#fedfb3"/>
      <stop offset=".207865" stop-color="#000"/>
      <stop offset=".825843" stop-color="#2d1709"/>
      <stop offset="1" stop-color="#5e360e"/>
    </radialGradient>
  </defs>
  <path d="M18.9048,8.1362c-.1079-.3984-.3989-.7422-.7954-1.0332.1172-.1059.1909-.2607.1909-.4316,0-.3203-.2598-.5825-.5815-.5825h-1.4117c-.1059,0-.2046.0293-.291.0781-.0972-.0269-.1948-.0527-.2915-.0781-.2446-.7666-.5351-1.5235-.8525-2.2715h-4.5098c-.2642.6225-.5098,1.2534-.7261,1.8896-.5976.022-1.1875.0581-1.7363.1123-.9517.0977-2.2734-.1186-3.3813.0049-.0816-.0234-.1685-.039-.2574-.039-.2348,0-.4453.0898-.5991.2319-.1753.0669-.3384.1533-.4849.2607-2.2597,1.6626-1.5893,6.6236-1.3618,9.4263.1133,1.398,11.8301.9424,13.648.6777,1.3149-.1919,2.4765.0586,3.0747-.5483.2705-.2759.4267-.7236.4302-1.4683.0058-1.4243.354-4.6714-.0635-6.229Z" fill="url(#White_Black)" stroke="#000" stroke-width="2"/>
  <path d="M18.6885,6.3916c0,.3296-.2666.5972-.5962.5972h-1.4453c-.3286,0-.5957-.2676-.5957-.5972h0c0-.3286.2671-.5967.5957-.5967h1.4453c.3296,0,.5962.2681.5962.5967h0Z" fill="url(#White_Black-2)"/>
  <g mask="url(#mask)">
    <g>
      <path d="M13.8198,5.7666c-1.4653-.106-3.957-.144-5.9199.0527-1.3921.1436-3.5747-.3847-4.7227.4585-2.2597,1.6626-1.5893,6.6236-1.3618,9.4263.1133,1.398,11.8301.9424,13.648.6777,1.3149-.1919,2.4765.0586,3.0747-.5483.2705-.2759.4267-.7236.4302-1.4683.0058-1.4243.354-4.6714-.0635-6.229-.4194-1.5576-3.6192-2.2636-5.085-2.3696Z" fill="url(#White_Black-3)"/>
      <rect x="1.6299" y="5.2881" width="9.2158" height="3.9614" rx="1.1636" ry="1.1636" fill="url(#White_Black-4)"/>
      <rect x="1.7632" y="8.0908" width="3.6958" height="7.6133" fill="url(#White_Black-5)"/>
      <path d="M9.6128,8.3779c-1.5435.4414-2.6123.4414-4.1563,0,.001,2.2202.0015,4.4405.002,6.6597,1.3838.0029,2.7686.0029,4.1528,0,0-2.2192.001-4.4395.0015-6.6597Z" fill="url(#White_Black-6)"/>
      <path d="M8.4414,7.3364c0,.5396-.4385.9781-.9795.9781-.5405,0-.9785-.4385-.9785-.9781,0-.541.438-.9804.9785-.9804.541,0,.9795.4394.9795.9804Z" fill="#333"/>
      <path d="M8.2627,7.3364c0,.4419-.3574.7998-.8008.7998-.4424,0-.8017-.3579-.8017-.7998,0-.4433.3593-.8032.8017-.8032.4434,0,.8008.3599.8008.8032Z" fill="url(#radial-gradient)"/>
      <path d="M2.7432,6.6235c.4839.1187.9663.0049,1.438-.1001.2353-.0522.7885-.3042,1.0229-.2158.3701.1402.2065.4048.1206.6616-.2012.6001-.583.5616-1.2051.5884-.3008.0142-.5664.0391-.8569.0352-.2383-.0039-.9683.0132-1.1753-.1636-.5142-.437.5122-.7568.8779-.8057" fill="url(#White_Black-7)"/>
      <path d="M5.1099,6.9727c0,.2334-.3286.4233-.7339.4233-.4058,0-.7339-.1899-.7339-.4233s.3281-.4224.7339-.4224c.4053,0,.7339.189.7339.4224Z" fill="url(#White_Black-8)"/>
    </g>
  </g>
  <g mask="url(#mask-1)">
    <g>
      <path d="M16.4248,11.543h-7.6143c-.2519-2.7085.5069-5.2622,1.5518-7.7256h4.5098c1.0449,2.4634,1.8042,5.018,1.5527,7.7256Z" fill="url(#White_Black-9)"/>
      <path d="M15.3501,7.9126c0,.6431-.3579,1.1631-.8003,1.1631h-3.8755c-.4419,0-.8003-.52-.8003-1.1631v-.9658c0-.6441.3584-1.1646.8003-1.1646h3.8755c.4424,0,.8003.5205.8003,1.1646v.9658Z" fill="url(#White_Black-10)"/>
      <path d="M15.3501,5.001c0,.6421-.3579,1.1636-.8003,1.1636h-3.8755c-.4419,0-.8003-.5215-.8003-1.1636v-.9644c0-.6445.3584-1.1655.8003-1.1655h3.8755c.4424,0,.8003.521.8003,1.1655v.9644Z" fill="url(#White_Black-11)"/>
    </g>
  </g>
  <path d="M4.313,5.8823c.2583,0,.5107.0049.7549.0147-.1494-.2461-.4312-.4126-.7549-.4126-.3242,0-.6065.1665-.7559.4126.2447-.0098.4966-.0147.7559-.0147Z" fill="url(#White_Black-12)"/>
  <g>
    <path d="M17.7139,11.542c0,2.7183-2.2022,4.9194-4.919,4.9194-2.7173,0-4.9194-2.2011-4.9194-4.9194,0-2.7163,2.2021-4.9185,4.9194-4.9185,2.7168,0,4.919,2.2022,4.919,4.9185Z" fill="url(#radial-gradient-2)" stroke="#000" stroke-linecap="round" stroke-linejoin="round"/>
    <path d="M17.1963,11.542c0,2.4311-1.9707,4.4018-4.4014,4.4018-2.4306,0-4.4013-1.9707-4.4013-4.4018,0-2.4297,1.9707-4.4009,4.4013-4.4009,2.4307,0,4.4014,1.9712,4.4014,4.4009Z" fill="url(#Black_White_Radial)"/>
    <path d="M16.5732,11.542c0,2.0869-1.6914,3.7788-3.7783,3.7788s-3.7778-1.6919-3.7778-3.7788c0-2.0864,1.6909-3.7769,3.7778-3.7769s3.7783,1.6905,3.7783,3.7769Z" fill="url(#radial-gradient-3)"/>
    <path d="M15.9072,11.542c0,1.7197-1.3935,3.1123-3.1123,3.1123-1.7192,0-3.1123-1.3926-3.1123-3.1123,0-1.7178,1.3931-3.1128,3.1123-3.1128,1.7188,0,3.1123,1.395,3.1123,3.1128Z" fill="url(#radial-gradient-4)"/>
    <path d="M14.9478,11.542c0,1.1899-.9644,2.1543-2.1529,2.1543-1.1894,0-2.1533-.9644-2.1533-2.1543,0-1.187.9639-2.1524,2.1533-2.1524,1.1885,0,2.1529.9654,2.1529,2.1524Z" fill="url(#radial-gradient-5)"/>
  </g>
</svg>