<?xml version="1.0" encoding="UTF-8"?>
<svg id="Set_2" data-name="Set 2" xmlns="http://www.w3.org/2000/svg" width="20" height="20" viewBox="0 0 20 20">
  <polygon points="16.6476935 4.7942 12.4776936 4.7942 12.4776936 5.5726 16.6476935 5.5726 16.6476935 14.8033 3.7197938 14.8033 3.7197938 5.5726 4.9708938 5.5726 4.9708938 4.7942 3.7197938 4.7942 2.8864939 4.7942 2.8864939 5.5726 2.8864939 14.8033 2.8864939 15.6379 3.7197938 15.6379 16.6476935 15.6379 17.4822935 15.6379 17.4822935 14.8033 17.4822935 5.5726 17.4822935 4.7942 16.6476935 4.7942" fill="gray"/>
  <g>
    <path d="M8.2576937,7.0614l-.5072-.87c-.2053-.333-.3273-.5493-.4496-.777h-.0123c-.1111.2277-.2272.4379-.4264.7825l-.4728.8645h-.584l1.2034-1.9917-1.157-1.9438h.5902062l.5191938.9224c.1466.2567.2578062.4558.3617.6659h.0183c.1112-.234.2101-.4147.3555-.6659l.5327-.9224h.589l-1.1973,1.9152,1.2266,2.0203h-.59Z"/>
    <path d="M10.342,7.0614v-1.6702l-1.25-2.2653h.584l.5547937,1.0862c.1454.2976.2687.537.3909.8112h.0123063c.1050937-.2566.2442937-.5136.3970937-.8112l.5657-1.0862h.5717l-1.3134,2.2598v1.6757h-.5130937Z"/>
  </g>
</svg>