<?xml version='1.0' encoding='UTF-8'?>
<svg xmlns="http://www.w3.org/2000/svg" xmlns:xlink="http://www.w3.org/1999/xlink" id="Set_2" data-name="Set 2" width="20" height="20" viewBox="0 0 20 20">
  <defs>
    <radialGradient id="radial-gradient" cx="10.8273574" cy="13.2212908" fx="10.8273574" fy="13.2212908" r="1.5628907" gradientTransform="translate(1.562 .8225) scale(.8457 .8708)" gradientUnits="userSpaceOnUse">
      <stop offset="0" stop-color="#ffcd00"/>
      <stop offset="1" stop-color="#d68100"/>
    </radialGradient>
    <radialGradient id="radial-gradient-2" cx="10.8273574" cy="13.2212908" fx="10.8273574" fy="13.2212908" r="1.5628907" gradientTransform="translate(1.562 .8225) scale(.8457 .8708)" gradientUnits="userSpaceOnUse">
      <stop offset=".567416" stop-color="#ffcd00"/>
      <stop offset="1" stop-color="#d68100"/>
    </radialGradient>
    <radialGradient id="radial-gradient-3" cx="10.8273574" cy="9.3899862" fx="10.8273574" fy="9.3899862" r="1.5628357" gradientTransform="translate(1.562 .8225) scale(.8457 .8708)" gradientUnits="userSpaceOnUse">
      <stop offset="0" stop-color="#ffcd00"/>
      <stop offset="1" stop-color="#d68100"/>
    </radialGradient>
    <radialGradient id="radial-gradient-4" cx="10.8273574" cy="9.3899862" fx="10.8273574" fy="9.3899862" r="1.5628357" gradientTransform="translate(1.562 .8225) scale(.8457 .8708)" gradientUnits="userSpaceOnUse">
      <stop offset=".567416" stop-color="#ffcd00"/>
      <stop offset="1" stop-color="#d68100"/>
    </radialGradient>
    <radialGradient id="radial-gradient-5" cx="10.8273574" cy="5.5586817" fx="10.8273574" fy="5.5586817" r="1.5627807" gradientTransform="translate(1.562 .8225) scale(.8457 .8708)" gradientUnits="userSpaceOnUse">
      <stop offset="0" stop-color="#ffcd00"/>
      <stop offset="1" stop-color="#d68100"/>
    </radialGradient>
    <radialGradient id="radial-gradient-6" cx="10.8273574" cy="5.5586817" fx="10.8273574" fy="5.5586817" r="1.5627807" gradientTransform="translate(1.562 .8225) scale(.8457 .8708)" gradientUnits="userSpaceOnUse">
      <stop offset=".567416" stop-color="#ffcd00"/>
      <stop offset="1" stop-color="#d68100"/>
    </radialGradient>
    <radialGradient id="radial-gradient-7" cx="15.2659289" cy="15.1371727" fx="15.2659289" fy="15.1371727" r="1.5630961" gradientTransform="translate(1.562 .8225) scale(.8457 .8708)" gradientUnits="userSpaceOnUse">
      <stop offset="0" stop-color="#ffcd00"/>
      <stop offset="1" stop-color="#d68100"/>
    </radialGradient>
    <radialGradient id="radial-gradient-8" cx="15.2659289" cy="15.1371727" fx="15.2659289" fy="15.1371727" r="1.5630961" gradientTransform="translate(1.562 .8225) scale(.8457 .8708)" gradientUnits="userSpaceOnUse">
      <stop offset=".567416" stop-color="#ffcd00"/>
      <stop offset="1" stop-color="#d68100"/>
    </radialGradient>
    <radialGradient id="radial-gradient-9" cx="15.2659289" cy="12.2636656" fx="15.2659289" fy="12.2636656" r="1.5630961" gradientTransform="translate(1.562 .8225) scale(.8457 .8708)" gradientUnits="userSpaceOnUse"><stop offset="0" stop-color="#ffcd00"/><stop offset="1" stop-color="#d68100"/></radialGradient>
    <radialGradient id="radial-gradient-10" cx="15.2659289" cy="12.2636656" fx="15.2659289" fy="12.2636656" r="1.5630961" gradientTransform="translate(1.562 .8225) scale(.8457 .8708)" gradientUnits="userSpaceOnUse"><stop offset=".567416" stop-color="#ffcd00"/><stop offset="1" stop-color="#d68100"/></radialGradient>
    <radialGradient id="radial-gradient-11" cx="15.2659289" cy="9.3901585" fx="15.2659289" fy="9.3901585" r="1.5630961" gradientTransform="translate(1.562 .8225) scale(.8457 .8708)" gradientUnits="userSpaceOnUse">
      <stop offset="0" stop-color="#ffcd00"/>
      <stop offset="1" stop-color="#d68100"/>
    </radialGradient>
    <radialGradient id="radial-gradient-12" cx="15.2659289" cy="9.3901585" fx="15.2659289" fy="9.3901585" r="1.5630961" gradientTransform="translate(1.562 .8225) scale(.8457 .8708)" gradientUnits="userSpaceOnUse">
      <stop offset=".567416" stop-color="#ffcd00"/>
      <stop offset="1" stop-color="#d68100"/>
    </radialGradient>
    <radialGradient id="radial-gradient-13" cx="7.868566" cy="17.9306959" fx="7.868566" fy="17.9306959" r="1.562835" gradientTransform="translate(1.562 .8225) scale(.8457 .8708)" gradientUnits="userSpaceOnUse">
      <stop offset="0" stop-color="#ffcd00"/>
      <stop offset="1" stop-color="#d68100"/>
    </radialGradient>
    <radialGradient id="radial-gradient-14" cx="7.868566" cy="17.9306959" fx="7.868566" fy="17.9306959" r="1.562835" gradientTransform="translate(1.562 .8225) scale(.8457 .8708)" gradientUnits="userSpaceOnUse">
      <stop offset=".567416" stop-color="#ffcd00"/>
      <stop offset="1" stop-color="#d68100"/>
    </radialGradient>
    <radialGradient id="radial-gradient-15" cx="3.9233158" cy="15.6163298" fx="3.9233158" fy="15.6163298" r="1.5630419" gradientTransform="translate(1.562 .8225) scale(.8457 .8708)" gradientUnits="userSpaceOnUse">
      <stop offset="0" stop-color="#ffcd00"/>
      <stop offset="1" stop-color="#d68100"/>
    </radialGradient>
    <radialGradient id="radial-gradient-16" cx="3.9233158" cy="15.6163298" fx="3.9233158" fy="15.6163298" r="1.5630419" gradientTransform="translate(1.562 .8225) scale(.8457 .8708)" gradientUnits="userSpaceOnUse">
      <stop offset=".567416" stop-color="#ffcd00"/>
      <stop offset="1" stop-color="#d68100"/>
    </radialGradient>
  </defs>
  <g>
    <g>
      <path d="M9.0508962,12.3352c0-.4801.7472-.8687,1.6678-.8687.9212,0,1.6678.3886,1.6678.8687,0,.4802-.7466.8695-1.6678.8695-.9206,0-1.6678-.3893-1.6678-.8695Z" fill="url(#radial-gradient)" stroke="#000" stroke-width="2"/>
      <path d="M9.0508962,12.3352c0-.4801.7472-.8687,1.6678-.8687.9212,0,1.6678.3886,1.6678.8687,0,.4802-.7466.8695-1.6678.8695-.9206,0-1.6678-.3893-1.6678-.8695Z" fill="url(#radial-gradient-2)"/>
    </g>
    <g>
      <path d="M9.0508962,8.99905c0-.48015.7472-.8687,1.6678-.8687.9212,0,1.6678.38855,1.6678.8687,0,.4799-.7466.8692-1.6678.8692-.9206,0-1.6678-.3893-1.6678-.8692Z" fill="url(#radial-gradient-3)" stroke="#000" stroke-width="2"/>
      <path d="M9.0508962,8.99905c0-.48015.7472-.8687,1.6678-.8687.9212,0,1.6678.38855,1.6678.8687,0,.4799-.7466.8692-1.6678.8692-.9206,0-1.6678-.3893-1.6678-.8692Z" fill="url(#radial-gradient-4)"/>
    </g>
    <g>
      <path d="M9.0508962,5.6629c0-.4802.7472-.8687,1.6678-.8687.9212,0,1.6678.3885,1.6678.8687,0,.4796-.7466.8689-1.6678.8689-.9206,0-1.6678-.3893-1.6678-.8689Z" fill="url(#radial-gradient-5)" stroke="#000" stroke-width="2"/>
      <path d="M9.0508962,5.6629c0-.4802.7472-.8687,1.6678-.8687.9212,0,1.6678.3885,1.6678.8687,0,.4796-.7466.8689-1.6678.8689-.9206,0-1.6678-.3893-1.6678-.8689Z" fill="url(#radial-gradient-6)"/>
    </g>
  </g>
  <g>
    <g>
      <path d="M12.8042961,14.0035c0-.4799.7472-.8686,1.6677039-.8686.9212961,0,1.6684961.3887,1.6684961.8686,0,.4802-.7472.8695-1.6684961.8695-.9205039,0-1.6677039-.3893-1.6677039-.8695Z" fill="url(#radial-gradient-7)" stroke="#000" stroke-width="2"/>
      <path d="M12.8042961,14.0035c0-.4799.7472-.8686,1.6677039-.8686.9212961,0,1.6684961.3887,1.6684961.8686,0,.4802-.7472.8695-1.6684961.8695-.9205039,0-1.6677039-.3893-1.6677039-.8695Z" fill="url(#radial-gradient-8)"/>
    </g>
    <g>
      <path d="M12.8042961,11.5013c0-.48.7472-.86865,1.6677039-.86865.9212961,0,1.6684961.38865,1.6684961.86865,0,.4802-.7472.86945-1.6684961.86945-.9205039,0-1.6677039-.38925-1.6677039-.86945Z" fill="url(#radial-gradient-9)" stroke="#000" stroke-width="2"/>
      <path d="M12.8042961,11.5013c0-.48.7472-.86865,1.6677039-.86865.9212961,0,1.6684961.38865,1.6684961.86865,0,.4802-.7472.86945-1.6684961.86945-.9205039,0-1.6677039-.38925-1.6677039-.86945Z" fill="url(#radial-gradient-10)"/>
    </g>
    <g>
      <path d="M12.8042961,8.9991c0-.4801.7472-.8687,1.6677039-.8687.9212961,0,1.6684961.3886,1.6684961.8687,0,.4802-.7472.8694-1.6684961.8694-.9205039,0-1.6677039-.3892-1.6677039-.8694Z" fill="url(#radial-gradient-11)" stroke="#000" stroke-width="2"/>
      <path d="M12.8042961,8.9991c0-.4801.7472-.8687,1.6677039-.8687.9212961,0,1.6684961.3886,1.6684961.8687,0,.4802-.7472.8694-1.6684961.8694-.9205039,0-1.6677039-.3892-1.6677039-.8694Z" fill="url(#radial-gradient-12)"/>
    </g>
  </g>
  <g>
    <path d="M6.5486963,16.4363c0-.4801.7471-.8688,1.6678-.8688.9211,0,1.6677.3887,1.6677.8688,0,.4796-.7466.8693-1.6677.8693-.9207,0-1.6678-.3897-1.6678-.8693Z" fill="url(#radial-gradient-13)" stroke="#000" stroke-width="2"/>
    <path d="M6.5486963,16.4363c0-.4801.7471-.8688,1.6678-.8688.9211,0,1.6677.3887,1.6677.8688,0,.4796-.7466.8693-1.6677.8693-.9207,0-1.6678-.3897-1.6678-.8693Z" fill="url(#radial-gradient-14)"/>
  </g>
  <g>
    <path d="M3.2118964,14.4209c0-.4802.7478-.8687,1.6678-.8687.9211,0,1.6683037.3885,1.6683037.8687s-.7472037.8693-1.6683037.8693c-.92,0-1.6678-.3891-1.6678-.8693Z" fill="url(#radial-gradient-15)" stroke="#000" stroke-width="2"/>
    <path d="M3.2118964,14.4209c0-.4802.7478-.8687,1.6678-.8687.9211,0,1.6683037.3885,1.6683037.8687s-.7472037.8693-1.6683037.8693c-.92,0-1.6678-.3891-1.6678-.8693Z" fill="url(#radial-gradient-16)"/>
  </g>
</svg>