<?xml version="1.0" encoding="UTF-8"?>
<svg id="Set_3" data-name="Set 3" xmlns="http://www.w3.org/2000/svg" width="20" height="20" xmlns:xlink="http://www.w3.org/1999/xlink" viewBox="0 0 20 20">
  <defs>
    <mask id="mask" x="2.5946966" y="1.8939" width="12.5106446" height="14.7173013" maskUnits="userSpaceOnUse">
      <path d="M15.0825936,10.5834c.0452-1.9536.0097-3.0631.0061-5.0399,0-.4778-.3702-.5633-.821-.5413-.4496.0208-.8211.1381-.8211.6293.0049,1.8864.0256,2.8566.0025,4.7296-.0746.0806-.1712.1306-.275.1356-.6439.0293-.49-.4216-.496-.9347-.0060936-.5145.006-1.0044.0036-1.5151-.0036-1.0641-.0025-2.1345-.0036-3.2011,0-.2407-.0049-.4802-.0049-.7234,0-.4899-.3727-.5925-.8236-.5901-.4532.005-.8258.1173-.8258.6158,0,0,.0013,4.6845.0013,4.6894.001.3615.001.5474.0035.9089.0012.2542-.1845.4545-.4117.4447-.0733,0-.1368937-.0256-.1978937-.0634-.0234063-2.8847.0022937-4.1822-.0025063-7.0547,0-.5035-.3703-.6048-.8234937-.6048-.4521063,0-.8235063.1013-.8235063.6048-.0012,2.7233-.0049,3.8706-.0073,6.5941,0,.2284-.1551937.3982-.3519.4215-.1979-.0453-.3518-.2432-.3506-.4692.0023063-2.2994.006-3.2036.0085-5.5091.0012-.5009-.3701937-.6109-.8247-.6134-.4497-.0049-.8223.1027-.8223.5963-.0073,3.0191.0171,4.6502-.033,7.508-.0073.3164-.2211.0818-.413.2675-.7111-.9335-.3495-1.8303-1.4405-3.0191-.369-.4032-1.2621-.5302-1.4051-.2247-.1442.3017.1845.8918.3799,1.2828.7833,1.5627.2285062,3.3417,1.9098,5.5044.0403.05.8297062.5474,1.5273.7683.1233.0454.6794062.1957.832.2323.0574063.0098.1088.0159.1625.0183.0317.0109.0648.0256.0966.033,1.5334.2847,2.5510999.1149,3.9584999-.1576.6268064-.1211,1.7094-.7038,2.1443999-1.2609,1.0385-1.3428.942-4.4621.942-4.4621Z" fill="#fff"/>
    </mask>
    <radialGradient id="radial-gradient" cx="18.3068878" cy="7.9507424" fx="18.3068878" fy="7.9507424" r="8.7376102" gradientTransform="translate(-7.0148103 1.3598937) scale(.9497 .9698)" gradientUnits="userSpaceOnUse">
      <stop offset=".410112" stop-color="#fff"/>
      <stop offset=".563088" stop-color="#f9f9f9"/>
      <stop offset=".7551157" stop-color="#eaeaea"/>
      <stop offset=".9672775" stop-color="#d0d0d0"/>
      <stop offset="1" stop-color="#ccc"/>
    </radialGradient>
  </defs>
  <path d="M5.3068938,15.9069c-.1455-.7136.1442-1.1242.8187-.8908,2.7929999.9066,4.5792999.6208,7.4198998-.0672.6855064-.1588,1.1973.2725,1.1302.9885h0c-.0721.7171-.661,1.493-1.3074,1.6885-2.6718999.8736-4.4741999,1.3073-6.8396998.1136-.5742-.3017-1.0751-1.1191-1.2217-1.8326h0Z"/>
  <path d="M15.0825936,10.5834c.0452-1.9536.0097-3.0631.0061-5.0399,0-.4778-.3702-.5633-.821-.5413-.4496.0208-.8211.1381-.8211.6293.0049,1.8864.0256,2.8566.0025,4.7296-.0746.0806-.1712.1306-.275.1356-.6439.0293-.49-.4216-.496-.9347-.0060936-.5145.006-1.0044.0036-1.5151-.0036-1.0641-.0025-2.1345-.0036-3.2011,0-.2407-.0049-.4802-.0049-.7234,0-.4899-.3727-.5925-.8236-.5901-.4532.005-.8258.1173-.8258.6158,0,0,.0013,4.6845.0013,4.6894.001.3615.001.5474.0035.9089.0012.2542-.1845.4545-.4117.4447-.0733,0-.1368937-.0256-.1978937-.0634-.0234063-2.8847.0022937-4.1822-.0025063-7.0547,0-.5035-.3703-.6048-.8234937-.6048-.4521063,0-.8235063.1013-.8235063.6048-.0012,2.7233-.0049,3.8706-.0073,6.5941,0,.2284-.1551937.3982-.3519.4215-.1979-.0453-.3518-.2432-.3506-.4692.0023063-2.2994.006-3.2036.0085-5.5091.0012-.5009-.3701937-.6109-.8247-.6134-.4497-.0049-.8223.1027-.8223.5963-.0073,3.0191.0171,4.6502-.033,7.508-.0073.3164-.2211.0818-.413.2675-.7111-.9335-.3495-1.8303-1.4405-3.0191-.369-.4032-1.2621-.5302-1.4051-.2247-.1442.3017.1845.8918.3799,1.2828.7833,1.5627.2285062,3.3417,1.9098,5.5044.0403.05.8297062.5474,1.5273.7683.1233.0454.6794062.1957.832.2323.0574063.0098.1088.0159.1625.0183.0317.0109.0648.0256.0966.033,1.5334.2847,2.5510999.1149,3.9584999-.1576.6268064-.1211,1.7094-.7038,2.1443999-1.2609,1.0385-1.3428.942-4.4621.942-4.4621Z" fill="#999" stroke="#000" stroke-linecap="round" stroke-linejoin="round" stroke-width="2"/>
  <g mask="url(#mask)">
    <g>
      <path d="M15.0825936,10.5834c.0452-1.9536.0097-3.0631.0061-5.0399,0-.4778-.3702-.5633-.821-.5413-.4496.0208-.8211.1381-.8211.6293.0049,1.8864.0256,2.8566.0025,4.7296-.0746.0806-.1712.1306-.275.1356-.6439.0293-.49-.4216-.496-.9347-.0060936-.5145.006-1.0044.0036-1.5151-.0036-1.0641-.0025-2.1345-.0036-3.2011,0-.2407-.0049-.4802-.0049-.7234,0-.4899-.3727-.5925-.8236-.5901-.4532.005-.8258.1173-.8258.6158,0,0,.0013,4.6845.0013,4.6894.001.3615.001.5474.0035.9089.0012.2542-.1845.4545-.4117.4447-.0733,0-.1368937-.0256-.1978937-.0634-.0234063-2.8847.0022937-4.1822-.0025063-7.0547,0-.5035-.3703-.6048-.8234937-.6048-.4521063,0-.8235063.1013-.8235063.6048-.0012,2.7233-.0049,3.8706-.0073,6.5941,0,.2284-.1551937.3982-.3519.4215-.1979-.0453-.3518-.2432-.3506-.4692.0023063-2.2994.006-3.2036.0085-5.5091.0012-.5009-.3701937-.6109-.8247-.6134-.4497-.0049-.8223.1027-.8223.5963-.0073,3.0191.0171,4.6502-.033,7.508-.0073.3164-.2211.0818-.413.2675-.7111-.9335-.3495-1.8303-1.4405-3.0191-.369-.4032-1.2621-.5302-1.4051-.2247-.1442.3017.1845.8918.3799,1.2828.7833,1.5627.2285062,3.3417,1.9098,5.5044.0403.05.8297062.5474,1.5273.7683.1233.0454.6794062.1957.832.2323.0574063.0098.1088.0159.1625.0183.0317.0109.0648.0256.0966.033,1.5334.2847,2.5510999.1149,3.9584999-.1576.6268064-.1211,1.7094-.7038,2.1443999-1.2609,1.0385-1.3428.942-4.4621.942-4.4621Z" fill="#b2b2b2"/>
      <path d="M14.5803936,10.0104c.0478-1.9536.0111-3.0619.0086064-5.0437,0-.4777-.3739064-.5595-.8222064-.5376-.4497.0171-.8225.1369-.8225.6293.0051,1.8878.027,2.8553.0026,4.732-.0721.077-.1698936.1272-.2748936.1345-.6414064.0244-.4899064-.4239-.4948064-.9384-.0074-.5107.0049-1.0031.0049-1.5137-.0049-1.0668-.0049-2.137-.0049-3.2037,0-.2407-.0025-.479-.0038-.7184-.0011-.4949-.3726-.5951-.8246-.5902-.4545.0062-.8247.1161-.8235.6122,0,4.6869.0049,4.6282,0,4.6893.0011.3653.0011.5486.0011.909.0013.2529-.1833.4533-.4103937.4484-.0734063,0-.1357063-.0245-.1968063-.0647-.0245-2.8859,0-4.1812-.0025-7.0547-.0024-.5035-.3713-.6061-.8258-.6061-.4508937,0-.8223.1026-.8223.6061-.0012,2.722-.0037,3.8681-.0061,6.5928,0,.2236-.1527.3983-.3532.4215-.2002937-.0477-.3506-.2431-.3506-.4692.0024-2.3006.0061-3.2036.0098-5.5103,0-.496-.3689-.6109-.8224-.6133-.452-.0049-.8246.1013-.8258.601-.0049,3.0191.0208,4.6492-.0342938,7.502-.0049062.3214-.2198062.0855-.4142062.2737-.7111-.9396-.347-1.8339-1.4379-3.0203-.368-.407-1.2635-.5328-1.404-.2285-.143.3054.1833.8943.3776,1.2853.7831,1.5602.2309,3.3405,1.9109,5.5031.0378.0452.8319.546,1.5285.7722.1221062.0415.6817.1931.8319.2272.0551.0134.1088.0159.1626.0207.0306063.0123.0623.0244.0953.0343,1.5334.2835,2.5535999.1112,3.9598999-.1601.6232-.1173,1.7081-.7013,2.1454999-1.2658,1.0361-1.3317.9383-4.4559.9383-4.4559Z" fill="url(#radial-gradient)"/>
    </g>
  </g>
</svg>