<?xml version='1.0' encoding='UTF-8'?>
<svg xmlns="http://www.w3.org/2000/svg" xmlns:xlink="http://www.w3.org/1999/xlink" id="Layer_1" data-name="Layer 1" width="36" height="36" viewBox="0 0 36 36">
  <defs>
    <radialGradient id="radial-gradient" cx="-834.6949124" cy="-648.0448714" fx="-834.6949124" fy="-648.0448714" r="27.242945" gradientTransform="translate(335.757 233.8595) scale(.3803 .3328)" gradientUnits="userSpaceOnUse">
      <stop offset=".067416" stop-color="#000"/>
      <stop offset=".1261794" stop-color="#03040d"/>
      <stop offset=".3814362" stop-color="#111645"/>
      <stop offset=".5716483" stop-color="#1a2167"/>
      <stop offset=".674157" stop-color="#1e2675"/>
      <stop offset=".7155498" stop-color="#505795"/>
      <stop offset=".7633361" stop-color="#848ab7"/>
      <stop offset=".8050186" stop-color="#a9afcf"/>
      <stop offset=".8384878" stop-color="#c0c5de"/>
      <stop offset=".85955" stop-color="#c9cee4"/>
    </radialGradient>
    <radialGradient id="radial-gradient-2" cx="-794.4374768" cy="-946.2207505" fx="-794.4374768" fy="-946.2207505" r="33.0014465" gradientTransform="translate(341.1802 265.3288) scale(.3975 .2553)" gradientUnits="userSpaceOnUse"><stop offset=".067416" stop-color="#000"/><stop offset=".1261794" stop-color="#03040d"/><stop offset=".3814362" stop-color="#111645"/><stop offset=".5716483" stop-color="#1a2167"/><stop offset=".674157" stop-color="#1e2675"/><stop offset=".7155498" stop-color="#505795"/><stop offset=".7633361" stop-color="#848ab7"/><stop offset=".8050186" stop-color="#a9afcf"/><stop offset=".8384878" stop-color="#c0c5de"/><stop offset=".85955" stop-color="#c9cee4"/></radialGradient>
    <radialGradient id="radial-gradient-3" cx="-791.3052606" cy="-459.1521781" fx="-791.3052606" fy="-459.1521781" r="22.5564989" gradientTransform="translate(341.1816 210.7415) scale(.3975)" gradientUnits="userSpaceOnUse"><stop offset=".067416" stop-color="#000"/><stop offset=".1261794" stop-color="#03040d"/><stop offset=".3814362" stop-color="#111645"/><stop offset=".5716483" stop-color="#1a2167"/><stop offset=".674157" stop-color="#1e2675"/><stop offset=".7155498" stop-color="#505795"/><stop offset=".7633361" stop-color="#848ab7"/><stop offset=".8050186" stop-color="#a9afcf"/><stop offset=".8384878" stop-color="#c0c5de"/><stop offset=".85955" stop-color="#c9cee4"/></radialGradient>
  </defs>
  <path d="M23.791,16.5088c0,3.6748-2.873,6.6523-6.4199104,6.6523-3.5468999,0-6.4198998-2.9775-6.4198998-6.6523,0-3.6758,2.8729999-6.6553,6.4198998-6.6553,3.5469104,0,6.4199104,2.9795,6.4199104,6.6553Z" stroke="#000" stroke-width="1.5"/>
  <path d="M15.5390896,20.2832c0-2.6191,2.1210999-4.7432,4.7421999-4.7432,2.6190999,0,4.7401999,2.1241,4.7401999,4.7432s-2.1210999,4.7422-4.7401999,4.7422c-2.6210999,0-4.7421999-2.1231-4.7421999-4.7422Z" stroke="#000" stroke-width="1.5"/>
  <path d="M26.3847893,24.5303c0,1.79-1.4532,3.2412-3.2421999,3.2412-1.7891,0-3.2441999-1.4512-3.2441999-3.2412,0-1.7901,1.4551-3.2412,3.2441999-3.2412,1.789,0,3.2421999,1.4511,3.2421999,3.2412Z" stroke="#000" stroke-width="1.5"/>
  <g>
    <path d="M12.4843897,19.8262c-1.7246.3984-4.2363897,1.8086-5.7148999.749-.7148-.5147-1.1679-1.4092-1.7363-2.0615-.7129-.8174-1.4355-1.6328-2.0878999-2.5313" fill="none" stroke="#000"/>
    <path d="M22.5058894,17.8623c1.7754-.4287,5.1014999-.2344,5.6014999-2.0478.25-.8946.0313-1.4874.0547-2.2979.0313-1.0225-.0918-3.21-.2129-4.5166" fill="none" stroke="#000"/>
  </g>
  <g>
    <path d="M20.5585895,24.0273c-1.8848.3809-3.7831999,1.1465-5.6308999,1.9893-.0175.4365.5274.7588.7969,1.1025.3301.4141.5957.9063.8379,1.3887.1953.3867.3262,1.2061.7383,1.4951.6719.4717,2.4218999.2784,3.3046999.2774.1718.1963.3847.289.6386.4541" fill="none" stroke="#000"/>
    <path d="M25.7890893,22.8984c1.4414-.332,2.9940999-.3808,4.3905999-.3613.2773108.2608.248.6094.3476.8945.1192.3497.3145.7276.5118,1.0899.1582.292.6054.8135.6191,1.1221.0195.5127-.834,1.0732-1.2344,1.4326.0547.1914.0235.3398.0137.5508" fill="none" stroke="#000"/>
  </g>
  <line x1="4.1854899" y1="25.5586" x2="34.2343891" y2="18.6191" fill="none" stroke="#000"/>
  <path d="M23.791,15.4717c0,3.1035-2.873,5.6172-6.4199104,5.6172-3.5468999,0-6.4198998-2.5147-6.4198998-5.6172,0-3.1026,2.8729999-5.6182,6.4198998-5.6182,3.5469104,0,6.4199104,2.5156,6.4199104,5.6182Z" fill="url(#radial-gradient)" stroke="#000" stroke-width=".5"/>
  <path d="M15.5390896,20.2832c0-1.6816,2.1210999-3.0469,4.7421999-3.0469,2.6190999,0,4.7401999,1.3643,4.7401999,3.0469,0,1.6816-2.1210999,3.0459-4.7401999,3.0459-2.6210999,0-4.7421999-1.3643-4.7421999-3.0459Z" fill="url(#radial-gradient-2)" stroke="#000" stroke-width=".5"/>
  <path d="M26.3847893,24.5303c0,1.79-1.4532,3.2412-3.2421999,3.2412-1.7891,0-3.2441999-1.4512-3.2441999-3.2412,0-1.7901,1.4551-3.2412,3.2441999-3.2412,1.789,0,3.2421999,1.4511,3.2421999,3.2412Z" fill="url(#radial-gradient-3)" stroke="#000" stroke-width=".5"/>
</svg>