<?xml version='1.0' encoding='UTF-8'?>
<svg xmlns="http://www.w3.org/2000/svg" xmlns:xlink="http://www.w3.org/1999/xlink" id="Layer_1" data-name="Layer 1" width="36" height="36" viewBox="0 0 36 36">
  <defs>
    <linearGradient id="New_Gradient_14" data-name="New Gradient 14" x1="40.8049318" y1="136.619632" x2="40.8049318" y2="153.9389605" gradientTransform="translate(-29.131 -136.5154) rotate(-14.0000947) scale(1.191699 1.1219525) skewX(-13.2102833)" gradientUnits="userSpaceOnUse">
      <stop offset="0" stop-color="#ccc"/>
      <stop offset="1" stop-color="#fff"/>
    </linearGradient>
    <mask id="mask" x="7.7878733" y="9.4181974" width="20.5441267" height="21.0808026" maskUnits="userSpaceOnUse">
      <path d="M14.042,19.8018c-.0303149,1.7343,1.5390851,3.0009,3.333,2.5239,1.908185-.5108,3.2938849-2.3179,3.335-4.1846.0282849-1.7275-1.541115-3-3.335-2.52-1.9092149.5132-3.2988149,2.3164-3.333,4.1807ZM26.3290848,23.7593s-4.8212999.6035-5.5175999.0781c-.5654.4854-1.1864849.9033-1.8457,1.2271-.0039.9951,0,1.4912-.0039,2.4799-.5156.2212-1.586885,2.2217-1.586885,2.2217l-1.5928149-1.4302v-2.4765c-.6601.0024-.458.6601-1.0254.4609-.6953.8735-.3397851,1.9732-1.0361,2.8443-.8721-.3946-3.2997999-2.2935-3.9208999-3.0342.707-.8897,1.1914-1.4087,1.8877-2.2813-.3428-.4819-1.8457.4419-1.8457.4419h0c-.0439-.2422-1.5507852-1.4526-1.5507852-1.4526-.0869148-.5742-.1435148-.9605-.1445148-1.5928,0-.5532.0508-1.1118.1426-1.6631,1.0019148-.25,1.6464-.3574,2.6337999-.6025.1464-.6358.371-1.2554.6669-1.8511.0323-.0654-.1162-.0879-.1162-.0879l-1.6757-1.5019c.623-1.0498,1.5195-1.9136,2.3983999-2.7486.6924.5264,1.042.7896,1.7392,1.3208.5665149-.4863,1.1846-.9033,1.8467-1.2314v-2.479c.5196-.2207,1.0469-.4019,1.5918149-.5381.541-.1333,1.071285-.2178,1.587885-.2529l1.5313,1.4223s-.9493,1.0747-.67,1.1177c.3428151.0518.6729.1314.9864.2456.6982-.8794,1.0439-1.3115,1.7451-2.1851.8721.3956,3.1620999,2.399,3.7743999,3.1265-.6963.8735-2.6142999,1.3677-2.6142999,1.3677l.1075,1.0581c.9873-.2446,2.4657999-.6138,2.4657999-.6138,0,0,1.5312.8814,1.5312,1.4292,0,0-1.4375,1.2285-1.5312,1.7725-.9863.2432-1.4785.3706-2.4657999.6147-.1612.7036-.417,1.3955-.7588,2.0474.6933.5283,1.7422,1.3179,1.7422,1.3179l1.5234,1.4287Z" fill="#fff"/>
    </mask>
    <linearGradient id="linear-gradient" x1="16.765235" y1="19.1899185" x2="15.5875714" y2="18.7629567" gradientUnits="userSpaceOnUse">
      <stop offset="0" stop-color="#b0b0b0"/>
      <stop offset=".2299108" stop-color="#b3b3b3"/>
      <stop offset=".4528815" stop-color="#bfbfbf"/>
      <stop offset=".6731111" stop-color="#d3d3d3"/>
      <stop offset=".8903092" stop-color="#eee"/>
      <stop offset="1" stop-color="#fff"/>
    </linearGradient>
    <radialGradient id="radial-gradient" cx="64.7713854" cy="218.5315288" fx="64.7713854" fy="218.5315288" r="2.1827375" gradientTransform="translate(-72.5086 -251.3504) rotate(-.7607993) scale(1.3556195 1.2833869) skewX(-.7202653)" gradientUnits="userSpaceOnUse">
      <stop offset="0" stop-color="#999"/>
      <stop offset=".1611587" stop-color="#787878"/>
      <stop offset=".344564" stop-color="#5a5a5a"/>
      <stop offset=".5248598" stop-color="#444"/>
      <stop offset=".6988677" stop-color="#373737"/>
      <stop offset=".85955" stop-color="#333"/>
    </radialGradient>
    <radialGradient id="radial-gradient-2" cx="40.8262219" cy="219.1938321" fx="40.8262219" fy="219.1938321" r="4.0020378" gradientTransform="translate(-49.3354 -277.317) rotate(-.754624) scale(1.4578264 1.3803803) skewX(-.7145393)" gradientUnits="userSpaceOnUse">
      <stop offset=".005618" stop-color="#e6e6e6"/>
      <stop offset=".1767612" stop-color="#e1e1e1"/>
      <stop offset=".3536605" stop-color="#d5d5d5"/>
      <stop offset=".5331686" stop-color="silver"/>
      <stop offset=".7145471" stop-color="#a3a3a3"/>
      <stop offset=".8956025" stop-color="#7e7e7e"/>
      <stop offset="1" stop-color="#666"/>
    </radialGradient>
    <radialGradient id="radial-gradient-3" cx="41.8746274" cy="210.4111971" fx="41.8746274" fy="210.4111971" r="2.8986442" gradientTransform="translate(-49.3354 -277.317) rotate(-.754624) scale(1.4578264 1.3803803) skewX(-.7145393)" gradientUnits="userSpaceOnUse"><stop offset=".005618" stop-color="#e6e6e6"/><stop offset=".1767612" stop-color="#e1e1e1"/><stop offset=".3536605" stop-color="#d5d5d5"/><stop offset=".5331686" stop-color="silver"/><stop offset=".7145471" stop-color="#a3a3a3"/><stop offset=".8956025" stop-color="#7e7e7e"/><stop offset="1" stop-color="#666"/></radialGradient>
    <radialGradient id="radial-gradient-4" cx="43.4888785" cy="206.3982174" fx="43.4888785" fy="206.3982174" r="2.0644332" gradientTransform="translate(-44.7306 -269.8467) rotate(-.7630995) scale(1.4341272 1.3576782) skewX(-.7264203)" gradientUnits="userSpaceOnUse">
      <stop offset="0" stop-color="#e6e6e6"/>
      <stop offset="1" stop-color="#666"/>
    </radialGradient>
    <radialGradient id="radial-gradient-5" cx="39.428948" cy="212.131488" fx="39.428948" fy="212.131488" r="1.8818791" gradientTransform="translate(-44.7306 -269.8467) rotate(-.7630995) scale(1.4341272 1.3576782) skewX(-.7264203)" gradientUnits="userSpaceOnUse">
      <stop offset="0" stop-color="#ccc"/>
      <stop offset="1" stop-color="#595959"/>
    </radialGradient>
    <radialGradient id="radial-gradient-6" cx="41.4695543" cy="218.9036382" fx="41.4695543" fy="218.9036382" r="2.2896974" gradientTransform="translate(-49.3354 -277.317) rotate(-.754624) scale(1.4578264 1.3803803) skewX(-.7145393)" gradientUnits="userSpaceOnUse">
      <stop offset=".05618" stop-color="#333"/>
      <stop offset=".0916583" stop-color="#383838"/>
      <stop offset=".3724498" stop-color="#626262"/>
      <stop offset=".6271812" stop-color="gray"/>
      <stop offset=".8448738" stop-color="#929292"/>
      <stop offset="1" stop-color="#999"/>
    </radialGradient>
    <radialGradient id="radial-gradient-7" cx="46.1340539" cy="208.2879342" fx="46.1340539" fy="208.2879342" r="2.8604285" gradientTransform="translate(-44.7306 -269.8467) rotate(-.7630995) scale(1.4341272 1.3576782) skewX(-.7264203)" gradientUnits="userSpaceOnUse">
      <stop offset="0" stop-color="#e6e6e6"/>
      <stop offset=".1949535" stop-color="#bfbfbf"/>
      <stop offset=".4722457" stop-color="#8f8f8f"/>
      <stop offset=".6839972" stop-color="#717171"/>
      <stop offset=".803371" stop-color="#666"/>
    </radialGradient>
    <radialGradient id="radial-gradient-8" cx="63.7753309" cy="207.5709544" fx="63.7753309" fy="207.5709544" r="2.0885215" gradientTransform="translate(-72.5086 -251.3504) rotate(-.7607993) scale(1.3556195 1.2833869) skewX(-.7202653)" gradientUnits="userSpaceOnUse">
      <stop offset="0" stop-color="#ccc"/>
      <stop offset="1" stop-color="#999"/>
    </radialGradient>
    <radialGradient id="radial-gradient-9" cx="61.552031" cy="211.0272396" fx="61.552031" fy="211.0272396" r="1.7301175" gradientTransform="translate(-72.5086 -251.3504) rotate(-.7607993) scale(1.3556195 1.2833869) skewX(-.7202653)" gradientUnits="userSpaceOnUse">
      <stop offset="0" stop-color="#b0b0b0"/>
      <stop offset=".3271716" stop-color="#858585"/>
      <stop offset=".898876" stop-color="#333"/>
    </radialGradient>
    <linearGradient id="linear-gradient-2" x1="25.1957188" y1="52.3289082" x2="19.4189778" y2="51.1461704" gradientTransform="translate(-16.2833 -37.6637) rotate(-.8365157) scale(1.191827 1.1217804) skewX(-.787358)" gradientUnits="userSpaceOnUse">
      <stop offset="0" stop-color="#666"/>
      <stop offset=".1243792" stop-color="#787878"/>
      <stop offset=".3746937" stop-color="#a7a7a7"/>
      <stop offset=".696629" stop-color="#ededed"/>
    </linearGradient>
    <radialGradient id="radial-gradient-10" cx="45.7997717" cy="212.4081648" fx="45.7997717" fy="212.4081648" r="4.8437244" gradientTransform="translate(-44.7306 -269.8467) rotate(-.7630995) scale(1.4341272 1.3576782) skewX(-.7264203)" gradientUnits="userSpaceOnUse">
      <stop offset="0" stop-color="#b0b0b0"/>
      <stop offset=".325836" stop-color="#b0b0b0"/>
      <stop offset=".853928" stop-color="#7b7b7b"/>
      <stop offset="1" stop-color="#606060"/>
    </radialGradient>
    <radialGradient id="radial-gradient-11" cx="41.6219446" cy="87.7927619" fx="41.6219446" fy="87.7927619" r="14.4076938" gradientTransform="translate(-24.346 -71.5356) scale(1.1237)" gradientUnits="userSpaceOnUse">
      <stop offset=".297753" stop-color="#f2f2f2"/>
      <stop offset=".4221096" stop-color="#ededed"/>
      <stop offset=".5558546" stop-color="#e0e0e0"/>
      <stop offset=".6939879" stop-color="#cbcbcb"/>
      <stop offset=".8351285" stop-color="#adadad"/>
      <stop offset=".9773448" stop-color="#868686"/>
      <stop offset="1" stop-color="gray"/>
    </radialGradient>
  </defs>
  <path d="M27.8192847,19.7778c.0879-.542.1377153-1.0893.1377153-1.6362,0-.5449-.0498153-1.0693-.1377153-1.5635,0-.5478-1.5312-1.4292-1.5312-1.4292,0,0-.8379.2105-1.6699.4185-.0118-.0137-.0205-.0283-.0293-.0435.6992-.8764,1.0439-1.3135,1.7402-2.187-.0957-.1128-.2285-.2554-.3906-.414-.0469-.0499-.0987-.0992-.1484848-.146-.9238152-.9009-2.5361151-2.2481-3.2353151-2.5665-.7012.8736-1.0469,1.3057-1.7451,2.1851-.1015849-.0395-.211-.0669-.3164-.0967v-1.2666l-1.5313-1.4223c-.5166.0351-1.046885.1196-1.587885.2529-.544915.1362-1.072215.3174-1.5918149.5381v2.479c-.6621.3281-1.2801851.7451-1.8467,1.2314-.6972-.5312-1.0468-.7944-1.7392-1.3208-.8789.835-1.7754,1.6988-2.3983999,2.7486l1.6757,1.5019c.0391.0313.0733.0581.1162.0879h0c-.2959.5957-.5205,1.2153-.6669,1.8511-.9874.2451-1.6318852.3525-2.6337999.6025-.0918.5513-.1426,1.1099-.1426,1.6631.001.6323.0576,1.0186.1445148,1.5928,0,0,1.5068852,1.2104,1.5507852,1.4526.6934-.1758,1.2725-.3467,1.8076-.4839.0127.0147.0244.0249.0381.042-.6963.8726-1.1807,1.3916-1.8877,2.2813.2998.3574,1.1279.9023,1.8555,1.5249.5312.5815,1.1611,1.0532,1.8711,1.4082.0732.0381.1386149.0761.1943.1011.6963149-.8711,1.0488-1.3116,1.7451-2.1866.1026.0381.2119.0689.3164.0977v1.2602l1.5274,1.3736v.0566c.0215.002.0381-.0029.0595-.0088l.005915.0088s.001-.0078.001-.0093c.494085-.0371,1.003885-.1176,1.525385-.2485.5449-.1348,1.0752-.3154,1.5918-.5371v-2.4785c.6611-.3252,1.2812-.7422,1.8437-1.2285.7002.5239,1.0469.79,1.7451151,1.3173.875-.832,1.6347848-1.7905,2.2470848-2.8222l-1.5234-1.4287s-.0489-.0313-.1211-.0923c.2939-.5923.5254152-1.2129.6689-1.8443.9854-.2441,1.4766-.3691,2.4657999-.6162ZM15.5702851,21.2305c.0371-1.8653,1.4199-3.6709,3.3329999-4.1841.5723-.1524,1.1201-.1221,1.6006.0371.1357.3232.208.6797.2061151,1.0576-.0411151,1.8667-1.426815,3.6738-3.335,4.1846-.571315.1528-1.122115.1264-1.6064149-.0357-.1309-.3208-.2041-.6782-.1983-1.0595Z" fill="url(#New_Gradient_14)" fill-rule="evenodd" stroke="#000" stroke-linecap="round" stroke-linejoin="round" stroke-width="2"/>
  <g mask="url(#mask)">
    <g>
      <path d="M14.042,19.8018c-.0303149,1.7343,1.5390851,3.0009,3.333,2.5239,1.908185-.5108,3.2938849-2.3179,3.335-4.1846.0282849-1.7275-1.541115-3-3.335-2.52-1.9092149.5132-3.2988149,2.3164-3.333,4.1807ZM26.3290848,23.7593s-4.8212999.6035-5.5175999.0781c-.5654.4854-1.1864849.9033-1.8457,1.2271-.0039.9951,0,1.4912-.0039,2.4799-.5156.2212-1.586885,2.2217-1.586885,2.2217l-1.5928149-1.4302v-2.4765c-.6601.0024-.458.6601-1.0254.4609-.6953.8735-.3397851,1.9732-1.0361,2.8443-.8721-.3946-3.2997999-2.2935-3.9208999-3.0342.707-.8897,1.1914-1.4087,1.8877-2.2813-.3428-.4819-1.8457.4419-1.8457.4419h0c-.0439-.2422-1.5507852-1.4526-1.5507852-1.4526-.0869148-.5742-.1435148-.9605-.1445148-1.5928,0-.5532.0508-1.1118.1426-1.6631,1.0019148-.25,1.6464-.3574,2.6337999-.6025.1464-.6358.371-1.2554.6669-1.8511.0323-.0654-.1162-.0879-.1162-.0879l-1.6757-1.5019c.623-1.0498,1.5195-1.9136,2.3983999-2.7486.6924.5264,1.042.7896,1.7392,1.3208.5665149-.4863,1.1846-.9033,1.8467-1.2314v-2.479c.5196-.2207,1.0469-.4019,1.5918149-.5381.541-.1333,1.071285-.2178,1.587885-.2529l1.5313,1.4223s-.9493,1.0747-.67,1.1177c.3428151.0518.6729.1314.9864.2456.6982-.8794,1.0439-1.3115,1.7451-2.1851.8721.3956,3.1620999,2.399,3.7743999,3.1265-.6963.8735-2.6142999,1.3677-2.6142999,1.3677l.1075,1.0581c.9873-.2446,2.4657999-.6138,2.4657999-.6138,0,0,1.5312.8814,1.5312,1.4292,0,0-1.4375,1.2285-1.5312,1.7725-.9863.2432-1.4785.3706-2.4657999.6147-.1612.7036-.417,1.3955-.7588,2.0474.6933.5283,1.7422,1.3179,1.7422,1.3179l1.5234,1.4287Z" fill="url(#linear-gradient)"/>
      <polygon points="15.2860851 30.499 18.213885 30.4575 18.213885 26.2559 15.2860851 26.2935 15.2860851 30.499" fill="url(#radial-gradient)" fill-rule="evenodd"/>
      <path d="M8.2890852,19.5825c.666.3623,1.5527,1.4517,1.5527,1.4517v3.2568s-1.0605-.291-1.6289-1.3794c-.5674-1.0859-.5908-3.6894.0762-3.3291Z" fill="url(#radial-gradient-2)" fill-rule="evenodd"/>
      <polygon points="9.7978852 15.5391 12.1962851 12.7905 13.7216851 14.2197 11.4735852 17.041 9.7978852 15.5391" fill="url(#radial-gradient-3)" fill-rule="evenodd"/>
      <path d="M15.7821851,10.4004c.2305-1.103,2.8212999-1.1304,3.1816999-.791.3593.3325,1.5312,1.4209,1.5312,1.4209l-3.1854999.7949-1.5274-1.4248Z" fill="url(#radial-gradient-4)" fill-rule="evenodd"/>
      <path d="M10.9228852,18.9805c.2128.1718,1.0527.8418,1.5546,1.3091.5039.4697.7383-1.9278.7383-1.9278l-1.7422-1.1172s-.7685,1.5664-.5507,1.7359Z" fill="url(#radial-gradient-5)" fill-rule="evenodd"/>
      <path d="M13.2167851,25.2744l-1.5293-1.4253s-1.6816,2.0889-1.8877,2.2813c-.2051.1967,1.3291,1.7671,1.6738,1.333.3467-.4356,1.7432-2.189,1.7432-2.189Z" fill="url(#radial-gradient-6)" fill-rule="evenodd"/>
      <polygon points="20.8114849 12.395 22.3388849 13.8223 24.084 11.6323 22.5556849 10.209 20.8114849 12.395" fill="url(#radial-gradient-7)" fill-rule="evenodd"/>
      <polygon points="25.1552848 17.4316 28.1991847 16.6699 26.3124848 14.9097 24.2118848 15.3721 25.1552848 17.4316" fill="#666"/>
      <path d="M15.7821851,12.8794c.4444.4165,1.5293,1.4272,1.5293,1.4272l-1.8457,1.2305-1.5303-1.4263s1.4024-1.6479,1.8467-1.2314Z" fill="url(#radial-gradient-8)" fill-rule="evenodd"/>
      <path d="M10.9228852,18.9805c.7187.6762,1.5244,1.4282,1.5244,1.4282l.7685-2.0469-1.7422-1.3208-.5507,1.9395" fill="url(#radial-gradient-9)" fill-rule="evenodd"/>
      <path d="M8.2890852,19.5825c.6982.6548,1.5527,1.4517,1.5527,1.4517l2.6054999-.6255-1.5244-1.4287s-3.3330999-.0508-2.6337999.6025Z" fill="url(#linear-gradient-2)"/>
      <path d="M15.5702851,21.2305c-.0312,1.7309,1.5361,3.0029,3.3339999,2.5195,1.9092-.5093,3.2929999-2.3154,3.3310999-4.1816.0312-1.7295-1.5391-3.002-3.3320999-2.522-1.9131.5132-3.2958999,2.3188-3.3329999,4.1841ZM24.082,26.5815c-.6982151-.5273-1.0449151-.7934-1.7451151-1.3173-.5625.4863-1.1826.9033-1.8437,1.2285v2.4785c-.5166.2217-1.0469.4023-1.5918.5371-.542.1357-1.0733.2217-1.5918.2578v-2.478c-.6592.0005-1.2793-.1045-1.8438-.3101-.6963.875-1.0487851,1.3155-1.7451,2.1866-.8721-.3946-1.6356851-.9722-2.2470999-1.7012.6963-.8745,1.0459-1.3111,1.7432-2.189-.3427851-.4814-.6035-1.0405-.7686-1.6616-.9824.2441-1.6035.4263-2.6063999.6782-.0927852-.5039-.1436-1.0376-.1436-1.5918,0-.5581.0508148-1.1113.1436-1.665,1.0029-.2486,1.624-.3799,2.6054999-.6255.165-.7051.4267149-1.3955.7695-2.0469-.6973-.5298-1.0497851-.7934-1.7432-1.3208.6114148-1.0303,1.375-1.9883,2.2480999-2.8213.6953149.5269,1.0459.7915,1.7431,1.3184.5655-.4878,1.1856-.9053,1.8448-1.231,0-.9926,0-1.4858-.001-2.4804.5185-.2207,1.0478-.398,1.5918-.5357.5459-.1347,1.0742-.2187,1.5928-.2588v2.4815c.6572-.002,1.2793.104,1.8437.31.7012-.8735,1.0469-1.3134,1.7432-2.1894.876.3974,1.6367.9751,2.2489999,1.7026-.6963.8735-1.041,1.3106-1.7402,2.187.3418.482.6035,1.0449.7627,1.6685.9873-.2476,1.4785-.3682,2.4676999-.6143.0879.4942.1377153,1.0186.1377153,1.5635,0,.5469-.0498153,1.0942-.1377153,1.6362-.9892.2471-1.4804.3721-2.4657999.6162-.1601.7027-.4219,1.3931-.7627,2.045.6973.5288,1.0449.791,1.7383,1.3203-.6123,1.0317-1.3720848,1.9902-2.2470848,2.8222Z" fill="none" stroke="#4d4d4d" stroke-width=".75"/>
      <path d="M14.8017851,20.3062c0-2.5118,1.7539-4.5752,3.9149999-4.6026,2.157215-.0298,3.9140999,1.981,3.9149999,4.4981,0,2.5131-1.7567849,4.5771-3.9149999,4.6025-2.1620999.0317-3.9149999-1.9829-3.9149999-4.498Z" fill="url(#radial-gradient-10)" fill-rule="evenodd"/>
      <path d="M14.042,19.8018c-.0303149,1.7343,1.5390851,3.0009,3.333,2.5239,1.908185-.5108,3.2938849-2.3179,3.335-4.1846.0282849-1.7275-1.541115-3-3.335-2.52-1.9092149.5132-3.2988149,2.3164-3.333,4.1807ZM26.3290848,23.7593s-4.8212999.6035-5.5175999.0781c-.5654.4854-1.1864849.9033-1.8457,1.2271-.0039.9951,0,1.4912-.0039,2.4799-.5156.2212-1.586885,2.2217-1.586885,2.2217l-1.5928149-1.4302v-2.4765c-.6601.0024-.458.6601-1.0254.4609-.6953.8735-.3397851,1.9732-1.0361,2.8443-.8721-.3946-3.2997999-2.2935-3.9208999-3.0342.707-.8897,1.1914-1.4087,1.8877-2.2813-.3428-.4819-1.8457.4419-1.8457.4419h0c-.0439-.2422-1.5507852-1.4526-1.5507852-1.4526-.0869148-.5742-.1435148-.9605-.1445148-1.5928,0-.5532.0508-1.1118.1426-1.6631,1.0019148-.25,1.6464-.3574,2.6337999-.6025.1464-.6358.371-1.2554.6669-1.8511.0323-.0654-.1162-.0879-.1162-.0879l-1.6757-1.5019c.623-1.0498,1.5195-1.9136,2.3983999-2.7486.6924.5264,1.042.7896,1.7392,1.3208.5665149-.4863,1.1846-.9033,1.8467-1.2314v-2.479c.5196-.2207,1.0469-.4019,1.5918149-.5381.541-.1333,1.071285-.2178,1.587885-.2529l1.5313,1.4223s-.9493,1.0747-.67,1.1177c.3428151.0518.6729.1314.9864.2456.6982-.8794,1.0439-1.3115,1.7451-2.1851.8721.3956,3.1620999,2.399,3.7743999,3.1265-.6963.8735-2.6142999,1.3677-2.6142999,1.3677l.1075,1.0581c.9873-.2446,2.4657999-.6138,2.4657999-.6138,0,0,1.5312.8814,1.5312,1.4292,0,0-1.4375,1.2285-1.5312,1.7725-.9863.2432-1.4785.3706-2.4657999.6147-.1612.7036-.417,1.3955-.7588,2.0474.6933.5283,1.7422,1.3179,1.7422,1.3179l1.5234,1.4287Z" fill="none"/>
    </g>
  </g>
  <path d="M15.5702851,21.2305c-.0312,1.7309,1.5361,3.0029,3.3339999,2.5195,1.9092-.5093,3.2929999-2.3154,3.3310999-4.1816.0312-1.7295-1.5391-3.002-3.3320999-2.522-1.9131.5132-3.2958999,2.3188-3.3329999,4.1841ZM24.082,26.5815c-.6982151-.5273-1.0449151-.7934-1.7451151-1.3173-.5625.4863-1.1826.9033-1.8437,1.2285v2.4785c-.5166.2217-1.0469.4023-1.5918.5371-.542.1357-1.0733.2217-1.5918.2578v-2.478c-.6592.0005-1.2793-.1045-1.8438-.3101-.6963.875-1.0487851,1.3155-1.7451,2.1866-.8721-.3946-1.6356851-.9722-2.2470999-1.7012.6963-.8745,1.0459-1.3111,1.7432-2.189-.3427851-.4814-.6035-1.0405-.7686-1.6616-.9824.2441-1.6035.4263-2.6063999.6782-.0927852-.5039-.1436-1.0376-.1436-1.5918,0-.5581.0508148-1.1113.1436-1.665,1.0029-.2486,1.624-.3799,2.6054999-.6255.165-.7051.4267149-1.3955.7695-2.0469-.6973-.5298-1.0497851-.7934-1.7432-1.3208.6114148-1.0303,1.375-1.9883,2.2480999-2.8213.6953149.5269,1.0459.7915,1.7431,1.3184.5655-.4878,1.1856-.9053,1.8448-1.231,0-.9926,0-1.4858-.001-2.4804.5185-.2207,1.0478-.398,1.5918-.5357.5459-.1347,1.0742-.2187,1.5928-.2588v2.4815c.6572-.002,1.2793.104,1.8437.31.7012-.8735,1.0469-1.3134,1.7432-2.1894.876.3974,1.6367.9751,2.2489999,1.7026-.6963.8735-1.041,1.3106-1.7402,2.187.3418.482.6035,1.0449.7627,1.6685.9873-.2476,1.4785-.3682,2.4676999-.6143.0879.4942.1377153,1.0186.1377153,1.5635,0,.5469-.0498153,1.0942-.1377153,1.6362-.9892.2471-1.4804.3721-2.4657999.6162-.1601.7027-.4219,1.3931-.7627,2.045.6973.5288,1.0449.791,1.7383,1.3203-.6123,1.0317-1.3720848,1.9902-2.2470848,2.8222Z" fill="url(#radial-gradient-11)"/>
</svg>