<?xml version="1.0" encoding="UTF-8"?>
<svg id="Layer_1" data-name="Layer 1" xmlns="http://www.w3.org/2000/svg" width="36" height="36" xmlns:xlink="http://www.w3.org/1999/xlink" viewBox="0 0 36 36">
  <defs>
    <linearGradient id="linear-gradient" x1="16.2268218" y1="12.9605958" x2="24.0094406" y2="37.4177794" gradientUnits="userSpaceOnUse">
      <stop offset="0" stop-color="#a70000"/>
      <stop offset=".544944" stop-color="#ff8b8b"/>
      <stop offset=".6149436" stop-color="#ff9090"/>
      <stop offset=".7081626" stop-color="#ffa1a1"/>
      <stop offset=".8144835" stop-color="#ffbdbd"/>
      <stop offset=".9296755" stop-color="#ffe3e3"/>
      <stop offset="1" stop-color="#fff"/>
    </linearGradient>
  </defs>
  <path d="M25.2411903,11.3608c-1.1151903-1.124-2.7616999-1.6699-4.3749999-1.5571-1.5321904.1089-2.9882999.8428-3.8602999,2.0435-.1123.1494-.212.3071-.3028.4687-.6904-1.248-1.9901999-2.1274-3.4506999-2.417-1.6137-.3208-3.3636999.0552-4.6317999,1.0513-.8164.6426-1.3685907,1.5195-1.5757,2.5005-.2016.9556-.1113,2.0049.2974,2.9043.5371,1.3813,1.4834,2.562,2.4437999,3.7016,1.148,1.3589,2.2989093,2.7237,3.4565999,4.0694,1.1401,1.3188,2.3207999,2.604,3.4271999,3.9463.002-.002.0039-.0064.0078-.0127.003.0063.0078.0107.0118.0127.0019-.0054.0087-.0127.0136-.0161.0039095.0034.0088.0107.0127.0161.002-.002.0078-.0064.0117-.0127.0049.0063.0049.0107.0079.0127.75-.9131,1.5556095-1.794,2.3348999-2.6866,1.1602-1.3364,2.2890999-2.6992,3.4472999-4.04,1.3242-1.543,2.8114999-3.1006,3.5458999-4.9907.7285098-1.6245.4736-3.6856-.8223-4.9942" stroke="#000" stroke-width="1.9257"/>
  <path d="M25.2411903,11.3608c-1.1151903-1.124-2.7616999-1.6699-4.3749999-1.5571-1.5321904.1089-2.9882999.8428-3.8602999,2.0435-.1123.1494-.212.3071-.3028.4687-.6904-1.248-1.9901999-2.1274-3.4506999-2.417-1.6137-.3208-3.3636999.0552-4.6317999,1.0513-.8164.6426-1.3685907,1.5195-1.5757,2.5005-.2016.9556-.1113,2.0049.2974,2.9043.5371,1.3813,1.4834,2.562,2.4437999,3.7016,1.148,1.3589,2.2989093,2.7237,3.4565999,4.0694,1.1401,1.3188,2.3207999,2.604,3.4271999,3.9463.002-.002.0039-.0064.0078-.0127.003.0063.0078.0107.0118.0127.0019-.0054.0087-.0127.0136-.0161.0039095.0034.0088.0107.0127.0161.002-.002.0078-.0064.0117-.0127.0049.0063.0049.0107.0079.0127.75-.9131,1.5556095-1.794,2.3348999-2.6866,1.1602-1.3364,2.2890999-2.6992,3.4472999-4.04,1.3242-1.543,2.8114999-3.1006,3.5458999-4.9907.7285098-1.6245.4736-3.6856-.8223-4.9942" fill="url(#linear-gradient)"/>
  <path d="M9.9154907,19.2832c-.6577-.7695-1.27-1.54-1.7474907-2.3711-.0015093-.0098-.0049093-.0146-.0059093-.0205-.4038-.8696-.4912-1.8906-.3003-2.8169.1992093-.9517.732-1.8037,1.5181-2.4287,1.2251093-.9683,2.9291999-1.3374,4.4921999-1.0347.1592.0323.3222.0718.476.1172.4673.2671.8843.6104,1.2105,1.0098-.2197-.0747-.4517-.1397-.6815905-.1817-1.5679094-.3056-3.2647094.0606-4.4888094,1.0347-.7915.6265-1.3241906,1.4751-1.521,2.4273-.1934.9267-.1016,1.9438.2993,2.8164.1978.5092.457.9887.749,1.4482ZM21.252,10.4961c-1.4844096.1103-2.8916096.8286-3.7344095,1.9961-.0694.0893-.1309.1816-.1825905.2778.3534905.3233.6542905.6997.8915904,1.1206.0918-.1572.1845-.3135.2929-.4599.8487-1.1661,2.2519999-1.8809,3.7431999-1.9883.7803097-.0615,1.5664.0425,2.2968999.293-.0821-.0972-.17-.1905-.252-.2803-.2822-.2827-.6142-.5269-.9678-.7295-.6679-.2002-1.3817903-.2822-2.0877903-.2295Z" fill="#d17a7a"/>
</svg>