<?xml version='1.0' encoding='UTF-8'?>
<svg xmlns="http://www.w3.org/2000/svg" xmlns:xlink="http://www.w3.org/1999/xlink" id="Layer_1" data-name="Layer 1" width="36" height="36" viewBox="0 0 36 36">
  <defs>
    <linearGradient id="linear-gradient" x1="9.0459" y1="17.9175016" x2="26.5352" y2="17.9175016" gradientUnits="userSpaceOnUse">
      <stop offset="0" stop-color="#f3403f"/>
      <stop offset=".3789338" stop-color="#d02826"/>
      <stop offset=".7765172" stop-color="#b11411"/>
      <stop offset="1" stop-color="#a60d0a"/>
    </linearGradient>
    <mask id="mask" x="9.0459" y="9.1729" width="17.4893" height="17.4892033" maskUnits="userSpaceOnUse">
      <path d="M11.6064,11.7344c-1.6503,1.6513-2.5605,3.8476-2.5605,6.1826h0c0,2.3369.9102,4.5322,2.5605,6.1836,1.6514,1.6514,3.8487,2.5615,6.1836,2.5615,2.336.002,4.5313-.9101,6.1846-2.5615,1.6524-1.6514,2.5606-3.8467,2.5606-6.1836,0-2.335-.9092-4.5313-2.5606-6.1826-1.6533-1.6524-3.8467-2.5615-6.1846-2.5615-2.3349,0-4.5322.9111-6.1836,2.5615ZM13.1885,22.5176h0c-1.2266-1.2285-1.9043-2.8613-1.9053-4.5996,0-1.2754.3857-2.4903,1.085-3.5498.5195.5224,8.4492,8.4511,8.9736,8.9726-1.0615.6983-2.2764,1.085-3.5518,1.085-1.7382,0-3.372-.6778-4.6015-1.9082ZM17.79,11.4102c1.7393,0,3.3721.6757,4.6026,1.9062,1.2275,1.2295,1.9033,2.8633,1.9033,4.5996v.002c0,1.2754-.3838,2.4883-1.082,3.5508-.5215-.5235-8.4512-8.4532-8.9727-8.9756,1.0596-.6983,2.2725-1.083,3.5488-1.083Z" fill="#fff"/>
    </mask>
    <mask id="mask-1" x="9.0459" y="9.1729" width="18.3564" height="18.3554" maskUnits="userSpaceOnUse">
      <path d="M11.6064,11.7344c-1.6503,1.6513-2.5605,3.8476-2.5605,6.1826h0c0,2.3369.9102,4.5322,2.5605,6.1836,1.6514,1.6514,3.8487,2.5615,6.1836,2.5615,2.336.002,4.5313-.9101,6.1846-2.5615,1.6524-1.6514,2.5606-3.8467,2.5606-6.1836,0-2.335-.9092-4.5313-2.5606-6.1826-1.6533-1.6524-3.8467-2.5615-6.1846-2.5615-2.3349,0-4.5322.9111-6.1836,2.5615ZM13.1885,22.5176h0c-1.2266-1.2285-1.9043-2.8613-1.9053-4.5996,0-1.2754.3857-2.4903,1.085-3.5498.5195.5224,8.4492,8.4511,8.9736,8.9726-1.0615.6983-2.2764,1.085-3.5518,1.085-1.7382,0-3.372-.6778-4.6015-1.9082ZM17.79,11.4102c1.7393,0,3.3721.6757,4.6026,1.9062,1.2275,1.2295,1.9033,2.8633,1.9033,4.5996v.002c0,1.2754-.3838,2.4883-1.082,3.5508-.5215-.5235-8.4512-8.4532-8.9727-8.9756,1.0596-.6983,2.2725-1.083,3.5488-1.083Z" fill="#fff"/>
    </mask>
    <linearGradient id="linear-gradient-2" x1="9.0459" y1="17.9175016" x2="26.5352" y2="17.9175016" gradientUnits="userSpaceOnUse">
      <stop offset="0" stop-color="#f3403f"/>
      <stop offset=".3789338" stop-color="#d02826"/>
      <stop offset=".7765172" stop-color="#b11411"/>
      <stop offset="1" stop-color="#a60d0a"/>
    </linearGradient>
    <linearGradient id="New_Gradient_Swatch_7" data-name="New Gradient Swatch 7" x1="20.9248286" y1="21.0503355" x2="12.4753441" y2="12.600851" gradientUnits="userSpaceOnUse">
      <stop offset="0" stop-color="#f3403f"/>
      <stop offset=".3789338" stop-color="#d02826"/>
      <stop offset=".7765172" stop-color="#b11411"/>
      <stop offset="1" stop-color="#a60d0a"/>
    </linearGradient>
    <mask id="mask-2" x="9.0459" y="9.1729" width="17.4893" height="17.4892033" maskUnits="userSpaceOnUse">
      <path d="M11.6064,11.7344c-1.6503,1.6513-2.5605,3.8476-2.5605,6.1826h0c0,2.3369.9102,4.5322,2.5605,6.1836,1.6514,1.6514,3.8487,2.5615,6.1836,2.5615,2.336.002,4.5313-.9101,6.1846-2.5615,1.6524-1.6514,2.5606-3.8467,2.5606-6.1836,0-2.335-.9092-4.5313-2.5606-6.1826-1.6533-1.6524-3.8467-2.5615-6.1846-2.5615-2.3349,0-4.5322.9111-6.1836,2.5615ZM13.1885,22.5176h0c-1.2266-1.2285-1.9043-2.8613-1.9053-4.5996,0-1.2754.3857-2.4903,1.085-3.5498.5195.5224,8.4492,8.4511,8.9736,8.9726-1.0615.6983-2.2764,1.085-3.5518,1.085-1.7382,0-3.372-.6778-4.6015-1.9082ZM17.79,11.4102c1.7393,0,3.3721.6757,4.6026,1.9062,1.2275,1.2295,1.9033,2.8633,1.9033,4.5996v.002c0,1.2754-.3838,2.4883-1.082,3.5508-.5215-.5235-8.4512-8.4532-8.9727-8.9756,1.0596-.6983,2.2725-1.083,3.5488-1.083Z" fill="#fff"/>
    </mask>
    <mask id="mask-3" x="4.876" y="4.5156" width="26.4844" height="26.4844" maskUnits="userSpaceOnUse">
      <path d="M18.1182,4.5156c-7.3135,0-13.2422,5.9287-13.2422,13.2422s5.9287,13.2422,13.2422,13.2422c7.3134,0,13.2422-5.9287,13.2422-13.2422s-5.9288-13.2422-13.2422-13.2422ZM20.6992,22.7139c-.0996-.1016-.2236-.2237-.3476-.3487-1.7871-1.7871-6.1446-6.1464-7.6885-7.6894.4697-.7617,1.1055-1.4063,1.8623-1.8848.1562.1563.3467.3467.5566.5567,1.9034,1.9043,6.0293,6.0302,7.5039,7.5039-.4785.7558-1.123,1.3925-1.8867,1.8623Z" fill="#fff"/>
    </mask>
    <linearGradient id="linear-gradient-3" x1="-155.517259" y1="459.2184209" x2="-149.6190764" y2="459.2184209" gradientTransform="translate(299.4184 -122.7791152) rotate(45.0684091) scale(.6514579) skewX(.0808544)" gradientUnits="userSpaceOnUse">
      <stop offset="0" stop-color="#ffdea0"/>
      <stop offset=".1547921" stop-color="#f0cf91"/>
      <stop offset=".4521036" stop-color="#c9aa6c"/>
      <stop offset=".8582073" stop-color="#8a6e31"/>
      <stop offset="1" stop-color="#73581b"/>
    </linearGradient>
    <radialGradient id="radial-gradient" cx="-353.3913548" cy="455.7107102" fx="-353.3913548" fy="455.7107102" r="30.9165352" gradientTransform="translate(328.8016 -78.5871) rotate(45.0648456) scale(.4373458 .6248698) skewX(.1019136)" gradientUnits="userSpaceOnUse">
      <stop offset="0" stop-color="#ffdea0"/>
      <stop offset=".0080435" stop-color="#fedc9e"/>
      <stop offset=".3050006" stop-color="#edb55a"/>
      <stop offset=".5538701" stop-color="#e09929"/>
      <stop offset=".7422677" stop-color="#d8870b"/>
      <stop offset=".848315" stop-color="#d68100"/>
    </radialGradient>
    <mask id="mask-4" x="7.8008" y="21.9512" width="6.2256" height="5.7627" maskUnits="userSpaceOnUse">
      <polygon points="14.0264 23.8223 13.0518 24.3711 13.0938 22.8857 11.6123 22.9277 11.6123 22.9277 12.1621 21.9512 11.1885 22.5039 9.3203 26.6602 13.4756 24.7949 14.0264 23.8223" fill="#fff"/>
    </mask>
    <radialGradient id="radial-gradient-2" cx="10.975906" cy="22.7446665" fx="10.975906" fy="22.7446665" r="4.0990558" gradientUnits="userSpaceOnUse">
      <stop offset="0" stop-color="#ffdea0"/>
      <stop offset=".1216866" stop-color="#f0d091"/>
      <stop offset=".354407" stop-color="#cbad6a"/>
      <stop offset=".41573" stop-color="#c1a35f"/>
    </radialGradient>
    <radialGradient id="radial-gradient-3" cx="889.2275732" cy="601.4406642" fx="889.2275732" fy="601.4406642" r="10.3111818" gradientTransform="translate(436.8222 80.3153) rotate(-134.9255761) scale(.3810602 -.4374159) skewX(-.0854305)" gradientUnits="userSpaceOnUse">
      <stop offset="0" stop-color="#9a9999"/>
      <stop offset=".0534866" stop-color="#898888"/>
      <stop offset=".2032849" stop-color="#5f5e5e"/>
      <stop offset=".3563731" stop-color="#3c3c3c"/>
      <stop offset=".5111847" stop-color="#222121"/>
      <stop offset=".6683142" stop-color="#0f0f0f"/>
      <stop offset=".8293049" stop-color="#030303"/>
      <stop offset="1" stop-color="#000"/>
    </radialGradient>
    <radialGradient id="radial-gradient-4" cx="-25.7310795" cy="600.1909448" fx="-25.7310795" fy="600.1909448" r="10.3082752" gradientTransform="translate(211.5851 -144.7385) rotate(45.0687436) scale(1.0019003 .4374159) skewX(.0300125)" gradientUnits="userSpaceOnUse"><stop offset="0" stop-color="#9a9999"/><stop offset=".0534866" stop-color="#898888"/><stop offset=".2032849" stop-color="#5f5e5e"/><stop offset=".3563731" stop-color="#3c3c3c"/><stop offset=".5111847" stop-color="#222121"/><stop offset=".6683142" stop-color="#0f0f0f"/><stop offset=".8293049" stop-color="#030303"/><stop offset="1" stop-color="#000"/></radialGradient>
    <linearGradient id="White_Black" data-name="White, Black" x1="-153.2502683" y1="447.8351776" x2="-149.1075245" y2="453.6350571" gradientTransform="translate(299.4184 -122.7791152) rotate(45.0684091) scale(.6514579) skewX(.0808544)" gradientUnits="userSpaceOnUse">
      <stop offset="0" stop-color="#fff"/>
      <stop offset="1" stop-color="#000"/>
    </linearGradient>
    <linearGradient id="linear-gradient-4" x1="-131.0365775" y1="446.501045" x2="-126.0594315" y2="446.501045" gradientTransform="translate(292.5243 -130.258409) rotate(45.0640436) scale(.6958642 .6515276) skewX(.0716074)" gradientUnits="userSpaceOnUse">
      <stop offset="0" stop-color="#ccc"/>
      <stop offset=".0646036" stop-color="#cacaca"/>
      <stop offset=".0891761" stop-color="#c3c3c3"/>
      <stop offset=".1069277" stop-color="#b7b7b7"/>
      <stop offset=".1212965" stop-color="#a6a6a6"/>
      <stop offset=".129213" stop-color="#9a9999"/>
      <stop offset=".1363661" stop-color="#a3a2a2"/>
      <stop offset=".153957" stop-color="#b5b5b5"/>
      <stop offset=".1748508" stop-color="#c2c2c2"/>
      <stop offset=".2020002" stop-color="#c9c9c9"/>
      <stop offset=".258427" stop-color="#ccc"/>
      <stop offset=".3265975" stop-color="#cacaca"/>
      <stop offset=".3539575" stop-color="#c3c2c2"/>
      <stop offset=".3739927" stop-color="#b7b6b6"/>
      <stop offset=".3903486" stop-color="#a6a5a5"/>
      <stop offset=".398876" stop-color="#9a9999"/>
      <stop offset=".4052794" stop-color="#a09f9f"/>
      <stop offset=".4282017" stop-color="#b4b3b3"/>
      <stop offset=".4546022" stop-color="#c1c1c1"/>
      <stop offset=".4872499" stop-color="#c9c9c9"/>
      <stop offset=".544944" stop-color="#ccc"/>
      <stop offset=".592446" stop-color="#c9c9c9"/>
      <stop offset=".6267399" stop-color="#c0bfbf"/>
      <stop offset=".6567881" stop-color="#b0b0b0"/>
      <stop offset=".6843986" stop-color="#9a9999"/>
      <stop offset=".685393" stop-color="#9a9999"/>
      <stop offset=".7146848" stop-color="#adadad"/>
      <stop offset=".7510613" stop-color="#bebebe"/>
      <stop offset=".7902871" stop-color="#c8c8c8"/>
      <stop offset=".837079" stop-color="#ccc"/>
      <stop offset=".8808857" stop-color="#c7c7c7"/>
      <stop offset=".9290745" stop-color="#bababa"/>
      <stop offset=".9791801" stop-color="#a5a4a4"/>
      <stop offset="1" stop-color="#9a9999"/>
    </linearGradient>
    <linearGradient id="White_Black-2" data-name="White, Black" x1="-153.2502215" y1="444.4852198" x2="-149.1075286" y2="450.2850279" gradientTransform="translate(299.4184 -122.7791152) rotate(45.0684091) scale(.6514579) skewX(.0808544)" gradientUnits="userSpaceOnUse"><stop offset="0" stop-color="#fff"/><stop offset="1" stop-color="#000"/></linearGradient>
    <radialGradient id="radial-gradient-5" cx="-153.7581259" cy="442.1167571" fx="-153.7581259" fy="442.1167571" r="6.619833" gradientTransform="translate(299.4184 -122.7791152) rotate(45.0684091) scale(.6514579) skewX(.0808544)" gradientUnits="userSpaceOnUse">
      <stop offset="0" stop-color="#ff7845"/>
      <stop offset=".0609421" stop-color="#f87241"/>
      <stop offset=".1468911" stop-color="#e66238"/>
      <stop offset=".2476895" stop-color="#c74829"/>
      <stop offset=".3588101" stop-color="#9e2414"/>
      <stop offset=".455056" stop-color="#740000"/>
    </radialGradient>
  </defs>
  <path d="M11.6064,11.7344c-1.6503,1.6513-2.5605,3.8476-2.5605,6.1826h0c0,2.3369.9102,4.5322,2.5605,6.1836,1.6514,1.6514,3.8487,2.5615,6.1836,2.5615,2.336.002,4.5313-.9101,6.1846-2.5615,1.6524-1.6514,2.5606-3.8467,2.5606-6.1836,0-2.335-.9092-4.5313-2.5606-6.1826-1.6533-1.6524-3.8467-2.5615-6.1846-2.5615-2.3349,0-4.5322.9111-6.1836,2.5615ZM13.1885,22.5176h0c-1.2266-1.2285-1.9043-2.8613-1.9053-4.5996,0-1.2754.3857-2.4903,1.085-3.5498.5195.5224,8.4492,8.4511,8.9736,8.9726-1.0615.6983-2.2764,1.085-3.5518,1.085-1.7382,0-3.372-.6778-4.6015-1.9082ZM17.79,11.4102c1.7393,0,3.3721.6757,4.6026,1.9062,1.2275,1.2295,1.9033,2.8633,1.9033,4.5996v.002c0,1.2754-.3838,2.4883-1.082,3.5508-.5215-.5235-8.4512-8.4532-8.9727-8.9756,1.0596-.6983,2.2725-1.083,3.5488-1.083Z" fill="url(#linear-gradient)" stroke="#000" stroke-width="2"/>
  <g>
    <g mask="url(#mask)">
      <g>
        <path d="M11.6064,11.7344c-1.6503,1.6513-2.5605,3.8476-2.5605,6.1826h0c0,2.3369.9102,4.5322,2.5605,6.1836,1.6514,1.6514,3.8487,2.5615,6.1836,2.5615,2.336.002,4.5313-.9101,6.1846-2.5615,1.6524-1.6514,2.5606-3.8467,2.5606-6.1836,0-2.335-.9092-4.5313-2.5606-6.1826-1.6533-1.6524-3.8467-2.5615-6.1846-2.5615-2.3349,0-4.5322.9111-6.1836,2.5615ZM13.1885,22.5176h0c-1.2266-1.2285-1.9043-2.8613-1.9053-4.5996,0-1.2754.3857-2.4903,1.085-3.5498.5195.5224,8.4492,8.4511,8.9736,8.9726-1.0615.6983-2.2764,1.085-3.5518,1.085-1.7382,0-3.372-.6778-4.6015-1.9082ZM17.79,11.4102c1.7393,0,3.3721.6757,4.6026,1.9062,1.2275,1.2295,1.9033,2.8633,1.9033,4.5996v.002c0,1.2754-.3838,2.4883-1.082,3.5508-.5215-.5235-8.4512-8.4532-8.9727-8.9756,1.0596-.6983,2.2725-1.083,3.5488-1.083Z" fill="none"/>
        <path d="M11.6064,11.7344c-1.6503,1.6513-2.5605,3.8476-2.5605,6.1826h0c0,2.3369.9102,4.5322,2.5605,6.1836,1.6514,1.6514,3.8487,2.5615,6.1836,2.5615,2.336.002,4.5313-.9101,6.1846-2.5615,1.6524-1.6514,2.5606-3.8467,2.5606-6.1836,0-2.335-.9092-4.5313-2.5606-6.1826-1.6533-1.6524-3.8467-2.5615-6.1846-2.5615-2.3349,0-4.5322.9111-6.1836,2.5615ZM13.1885,22.5176h0c-1.2266-1.2285-1.9043-2.8613-1.9053-4.5996,0-1.2754.3857-2.4903,1.085-3.5498.5195.5224,8.4492,8.4511,8.9736,8.9726-1.0615.6983-2.2764,1.085-3.5518,1.085-1.7382,0-3.372-.6778-4.6015-1.9082ZM17.79,11.4102c1.7393,0,3.3721.6757,4.6026,1.9062,1.2275,1.2295,1.9033,2.8633,1.9033,4.5996v.002c0,1.2754-.3838,2.4883-1.082,3.5508-.5215-.5235-8.4512-8.4532-8.9727-8.9756,1.0596-.6983,2.2725-1.083,3.5488-1.083Z" fill="none"/>
      </g>
    </g>
    <g mask="url(#mask-1)">
      <g>
        <path d="M11.6064,11.7344c-1.6503,1.6513-2.5605,3.8476-2.5605,6.1826h0c0,2.3369.9102,4.5322,2.5605,6.1836,1.6514,1.6514,3.8487,2.5615,6.1836,2.5615,2.336.002,4.5313-.9101,6.1846-2.5615,1.6524-1.6514,2.5606-3.8467,2.5606-6.1836,0-2.335-.9092-4.5313-2.5606-6.1826-1.6533-1.6524-3.8467-2.5615-6.1846-2.5615-2.3349,0-4.5322.9111-6.1836,2.5615ZM13.1885,22.5176h0c-1.2266-1.2285-1.9043-2.8613-1.9053-4.5996,0-1.2754.3857-2.4903,1.085-3.5498.5195.5224,8.4492,8.4511,8.9736,8.9726-1.0615.6983-2.2764,1.085-3.5518,1.085-1.7382,0-3.372-.6778-4.6015-1.9082ZM17.79,11.4102c1.7393,0,3.3721.6757,4.6026,1.9062,1.2275,1.2295,1.9033,2.8633,1.9033,4.5996v.002c0,1.2754-.3838,2.4883-1.082,3.5508-.5215-.5235-8.4512-8.4532-8.9727-8.9756,1.0596-.6983,2.2725-1.083,3.5488-1.083Z" fill="none"/>
        <path d="M11.6064,11.7344c-1.6503,1.6513-2.5605,3.8476-2.5605,6.1826h0c0,2.3369.9102,4.5322,2.5605,6.1836,1.6514,1.6514,3.8487,2.5615,6.1836,2.5615,2.336.002,4.5313-.9101,6.1846-2.5615,1.6524-1.6514,2.5606-3.8467,2.5606-6.1836,0-2.335-.9092-4.5313-2.5606-6.1826-1.6533-1.6524-3.8467-2.5615-6.1846-2.5615-2.3349,0-4.5322.9111-6.1836,2.5615ZM13.1885,22.5176h0c-1.2266-1.2285-1.9043-2.8613-1.9053-4.5996,0-1.2754.3857-2.4903,1.085-3.5498.5195.5224,8.4492,8.4511,8.9736,8.9726-1.0615.6983-2.2764,1.085-3.5518,1.085-1.7382,0-3.372-.6778-4.6015-1.9082ZM17.79,11.4102c1.7393,0,3.3721.6757,4.6026,1.9062,1.2275,1.2295,1.9033,2.8633,1.9033,4.5996v.002c0,1.2754-.3838,2.4883-1.082,3.5508-.5215-.5235-8.4512-8.4532-8.9727-8.9756,1.0596-.6983,2.2725-1.083,3.5488-1.083Z" fill="url(#linear-gradient-2)"/>
        <path d="M12.4756,12.6006c-1.6543,1.6514-2.5635,3.8486-2.5635,6.1836h0c0,2.3369.9092,4.5332,2.5635,6.1826,1.6514,1.6523,3.8457,2.5615,6.1816,2.5615,2.335,0,4.5313-.9092,6.1836-2.5615,1.6494-1.6494,2.5615-3.8457,2.5615-6.1826,0-2.335-.9121-4.5322-2.5615-6.1836-1.6523-1.6514-3.8486-2.5606-6.1836-2.5606-2.3359,0-4.5302.9092-6.1816,2.5606ZM14.0576,23.3848h0c-1.2295-1.2285-1.9062-2.8614-1.9062-4.5996,0-1.2764.3828-2.4913,1.082-3.5508.5254.5215,8.4521,8.4511,8.9727,8.9726-1.0586.6993-2.2725,1.084-3.5489,1.084-1.7373,0-3.372-.6767-4.5996-1.9062ZM18.6572,12.2773c1.7364,0,3.3721.6778,4.6026,1.9063,1.2285,1.2295,1.9043,2.8623,1.9043,4.5996v.002c0,1.2753-.3848,2.4873-1.084,3.5488-.5215-.5215-8.4492-8.4512-8.9727-8.9727,1.0615-.6992,2.2744-1.084,3.5498-1.084Z" fill="url(#New_Gradient_Swatch_7)"/>
        <path d="M11.6064,11.7344c-1.6503,1.6513-2.5605,3.8476-2.5605,6.1826h0c0,2.3369.9102,4.5322,2.5605,6.1836,1.6514,1.6514,3.8487,2.5615,6.1836,2.5615,2.336.002,4.5313-.9101,6.1846-2.5615,1.6524-1.6514,2.5606-3.8467,2.5606-6.1836,0-2.335-.9092-4.5313-2.5606-6.1826-1.6533-1.6524-3.8467-2.5615-6.1846-2.5615-2.3349,0-4.5322.9111-6.1836,2.5615ZM13.1885,22.5176h0c-1.2266-1.2285-1.9043-2.8613-1.9053-4.5996,0-1.2754.3857-2.4903,1.085-3.5498.5195.5224,8.4492,8.4511,8.9736,8.9726-1.0615.6983-2.2764,1.085-3.5518,1.085-1.7382,0-3.372-.6778-4.6015-1.9082ZM17.79,11.4102c1.7393,0,3.3721.6757,4.6026,1.9062,1.2275,1.2295,1.9033,2.8633,1.9033,4.5996v.002c0,1.2754-.3838,2.4883-1.082,3.5508-.5215-.5235-8.4512-8.4532-8.9727-8.9756,1.0596-.6983,2.2725-1.083,3.5488-1.083Z" fill="none"/>
      </g>
    </g>
    <g mask="url(#mask-2)">
      <g>
        <path d="M11.6064,11.7344c-1.6503,1.6513-2.5605,3.8476-2.5605,6.1826h0c0,2.3369.9102,4.5322,2.5605,6.1836,1.6514,1.6514,3.8487,2.5615,6.1836,2.5615,2.336.002,4.5313-.9101,6.1846-2.5615,1.6524-1.6514,2.5606-3.8467,2.5606-6.1836,0-2.335-.9092-4.5313-2.5606-6.1826-1.6533-1.6524-3.8467-2.5615-6.1846-2.5615-2.3349,0-4.5322.9111-6.1836,2.5615ZM13.1885,22.5176h0c-1.2266-1.2285-1.9043-2.8613-1.9053-4.5996,0-1.2754.3857-2.4903,1.085-3.5498.5195.5224,8.4492,8.4511,8.9736,8.9726-1.0615.6983-2.2764,1.085-3.5518,1.085-1.7382,0-3.372-.6778-4.6015-1.9082ZM17.79,11.4102c1.7393,0,3.3721.6757,4.6026,1.9062,1.2275,1.2295,1.9033,2.8633,1.9033,4.5996v.002c0,1.2754-.3838,2.4883-1.082,3.5508-.5215-.5235-8.4512-8.4532-8.9727-8.9756,1.0596-.6983,2.2725-1.083,3.5488-1.083Z" fill="none"/>
        <path d="M11.6064,11.7344c-1.6503,1.6513-2.5605,3.8476-2.5605,6.1826h0c0,2.3369.9102,4.5322,2.5605,6.1836,1.6514,1.6514,3.8487,2.5615,6.1836,2.5615,2.336.002,4.5313-.9101,6.1846-2.5615,1.6524-1.6514,2.5606-3.8467,2.5606-6.1836,0-2.335-.9092-4.5313-2.5606-6.1826-1.6533-1.6524-3.8467-2.5615-6.1846-2.5615-2.3349,0-4.5322.9111-6.1836,2.5615ZM13.1885,22.5176h0c-1.2266-1.2285-1.9043-2.8613-1.9053-4.5996,0-1.2754.3857-2.4903,1.085-3.5498.5195.5224,8.4492,8.4511,8.9736,8.9726-1.0615.6983-2.2764,1.085-3.5518,1.085-1.7382,0-3.372-.6778-4.6015-1.9082ZM17.79,11.4102c1.7393,0,3.3721.6757,4.6026,1.9062,1.2275,1.2295,1.9033,2.8633,1.9033,4.5996v.002c0,1.2754-.3838,2.4883-1.082,3.5508-.5215-.5235-8.4512-8.4532-8.9727-8.9756,1.0596-.6983,2.2725-1.083,3.5488-1.083Z" fill="none"/>
      </g>
    </g>
  </g>
  <g mask="url(#mask-3)">
    <g>
      <path d="M18.1182,4.5156c-7.3135,0-13.2422,5.9287-13.2422,13.2422s5.9287,13.2422,13.2422,13.2422c7.3134,0,13.2422-5.9287,13.2422-13.2422s-5.9288-13.2422-13.2422-13.2422ZM20.6992,22.7139c-.0996-.1016-.2236-.2237-.3476-.3487-1.7871-1.7871-6.1446-6.1464-7.6885-7.6894.4697-.7617,1.1055-1.4063,1.8623-1.8848.1562.1563.3467.3467.5566.5567,1.9034,1.9043,6.0293,6.0302,7.5039,7.5039-.4785.7558-1.123,1.3925-1.8867,1.8623Z" fill="none"/>
      <g>
        <path d="M24.2461,14.0527l.5059-.5068c.3212-.0576.6347-.1865.9072-.3936.1142-.0869.1855-.2207.1943-.3632.0088-.1075-.0205-.2139-.0791-.3028.0606-.0888.1123-.1797.1553-.2754l.1621-.1611c.6299-.6338.6318-1.6592,0-2.293-.6318-.6318-1.6553-.6328-2.2881-.0009l-.1631.1621c-.0927.041-.1875.0918-.2734.1543-.0889-.0606-.1953-.0869-.3047-.0801-.1426.0078-.2734.082-.3623.1953-.207.2734-.335.5879-.3926.9072l-.5068.5088c-.085-.0498-.1817-.0742-.2822-.0683-.1436.0087-.2735.082-.3604.1953-.2461.3261-.3838.7031-.417,1.0898l-9.6172,9.6192.0645.0644-1.8682,4.1563,4.1553-1.8653.166-.291,9.3867-9.3906c.3858-.0352.7627-.1719,1.0889-.418.1123-.0859.1846-.2187.1924-.3633.0088-.0986-.0166-.1953-.0635-.2793Z" stroke="#000" stroke-linecap="round" stroke-linejoin="round" stroke-width="2"/>
        <polygon points="13.4121 24.7324 11.124 22.4395 21.6836 11.8789 23.9688 14.1719 13.4121 24.7324" fill="url(#linear-gradient-3)"/>
        <polygon points="12.9883 24.3086 11.5459 22.8623 22.1045 12.3027 23.5449 13.7461 12.9883 24.3086" fill="url(#radial-gradient)"/>
        <g mask="url(#mask-4)">
          <g>
            <polygon points="14.0264 23.8223 13.0518 24.3711 13.0938 22.8857 11.6123 22.9277 11.6123 22.9277 12.1621 21.9512 11.1885 22.5039 9.3203 26.6602 13.4756 24.7949 14.0264 23.8223" fill="url(#radial-gradient-2)"/>
            <polygon points="9.2334 26.4775 9.0762 25.6338 10.2441 24.4629 10.6084 26.3896 9.8779 27.1211 9.2334 26.4775" fill="url(#radial-gradient-3)"/>
            <polygon points="9.4932 26.7373 11.1504 27.7139 12.3213 26.543 8.5322 24.3105 7.8008 25.041 9.4932 26.7373" fill="url(#radial-gradient-4)"/>
          </g>
        </g>
        <path d="M24.3096,14.332c.0117-.1406-.041-.2812-.1416-.3828l-2.2647-2.2705c-.1006-.1006-.2422-.1533-.3847-.1435-.1436.0087-.2735.082-.3604.1953-.6338.8379-.5537,2.0293.1885,2.7734s1.9326.8262,2.7705.1914c.1123-.0859.1846-.2187.1924-.3633Z" fill="url(#White_Black)"/>
        <path d="M25.5313,10.3184c-.6758-.6758-1.7344-.711-2.3663-.0782l-1.4052,1.4024c-.6319.6328-.5967,1.6933.0771,2.3711.6768.6758,1.7354.7119,2.3672.0791l1.4053-1.4024c.6318-.6318.5947-1.6943-.0781-2.372Z" fill="url(#linear-gradient-4)"/>
        <path d="M25.8535,12.7891c.0108-.1426-.042-.2832-.1406-.3828l-2.2666-2.2696c-.0996-.1015-.2402-.1553-.3838-.1445-.1426.0078-.2734.082-.3623.1953-.6338.8379-.5527,2.0293.1904,2.7725.7422.7441,1.9326.8271,2.7686.1923.1142-.0869.1855-.2207.1943-.3632Z" fill="url(#White_Black-2)"/>
        <path d="M26.0918,9.7568c-.6318-.6318-1.6553-.6328-2.2881-.0009l-.4219.4218c-.6318.6328-.6338,1.6573-.0009,2.2911.6328.6347,1.6552.6347,2.288.0019l.4229-.4209c.6299-.6338.6318-1.6592,0-2.293Z" fill="url(#radial-gradient-5)"/>
        <path d="M19.1748,17.5576c-.2393.2393-.6309.2354-.873-.0088h0c-.2432-.2441-.2452-.6328-.0069-.873l1.5899-1.5918c.2382-.2383.6328-.2354.874.0078h0c.2432.2441.2451.6367.0068.875l-1.5908,1.5908Z"/>
        <path d="M19.5195,16.4277l.2666.2666-.0468.0459c-.1026.1036-.2002.1914-.294.2598-.0859.0635-.1728.1143-.2646.1523-.2051.086-.3545.084-.4453-.0107-.0918-.0889-.0977-.2373-.0206-.4404.0772-.2071.2149-.4082.4112-.6055.2021-.2012.4043-.3398.6113-.415.2051-.0752.3565-.0664.4492.0263.0508.0508.0742.1211.0733.209-.003.086-.0342.2012-.0928.3399l-.2139.0742c.0987-.2031.1104-.3447.0352-.4209-.0694-.0684-.1758-.0752-.3233-.0205-.1445.0527-.292.1543-.4414.3047-.1533.1533-.2558.3066-.3027.458-.0449.1396-.0381.2382.0176.2949.0478.0478.124.0557.2304.0264.1094-.0303.21-.0938.3135-.1836l-.1621-.1621.1992-.1993Z" fill="#fff"/>
      </g>
      <path d="M18.1182,4.5156c-7.3135,0-13.2422,5.9287-13.2422,13.2422s5.9287,13.2422,13.2422,13.2422c7.3134,0,13.2422-5.9287,13.2422-13.2422s-5.9288-13.2422-13.2422-13.2422ZM20.6992,22.7139c-.0996-.1016-.2236-.2237-.3476-.3487-1.7871-1.7871-6.1446-6.1464-7.6885-7.6894.4697-.7617,1.1055-1.4063,1.8623-1.8848.1562.1563.3467.3467.5566.5567,1.9034,1.9043,6.0293,6.0302,7.5039,7.5039-.4785.7558-1.123,1.3925-1.8867,1.8623Z" fill="none"/>
    </g>
  </g>
</svg>