<?xml version='1.0' encoding='UTF-8'?>
<svg xmlns="http://www.w3.org/2000/svg" xmlns:xlink="http://www.w3.org/1999/xlink" id="Layer_1" data-name="Layer 1" width="36" height="36" viewBox="0 0 36 36">
  <defs>
    <radialGradient id="radial-gradient" cx="50.0520391" cy="8.0508944" fx="50.0520391" fy="8.0508944" r="6.0730791" gradientTransform="translate(-27.2033172 16.8276824) scale(.9128)" gradientUnits="userSpaceOnUse">
      <stop offset=".005618" stop-color="#a70000"/>
      <stop offset=".35955" stop-color="#f5b472"/>
      <stop offset=".730337" stop-color="#ffffb3"/>
      <stop offset="1" stop-color="#fff95e"/>
    </radialGradient>
    <radialGradient id="radial-gradient-2" cx="50.5452333" cy="-5.5366205" fx="50.5452333" fy="-5.5366205" r="11.6816937" gradientTransform="translate(-27.2033172 16.8276824) scale(.9128)" gradientUnits="userSpaceOnUse"><stop offset=".005618" stop-color="#a70000"/><stop offset=".35955" stop-color="#f5b472"/><stop offset=".730337" stop-color="#ffffb3"/><stop offset="1" stop-color="#fff95e"/></radialGradient>
    <mask id="mask" x="9.2841889" y="6.3386689" width="16.6758111" height="24.6648165" maskUnits="userSpaceOnUse">
      <path d="M25.9481884,12.4014c-.0014-.0381-.0048-.0762-.0078-.1148-.0073-.1045-.0156-.2065-.0273-.3066-.0039-.0381-.0083-.0752-.0137-.1123-.0132-.104-.0288-.2056-.0469-.3052-.0048-.0269-.0097-.0542-.0146-.0815-.0244-.1241-.0513-.2447-.0825-.3628-.0005,0-.0005-.001-.0005-.002,0-.0654-.0088-.1279-.0132-.1919-.0044-.0639-.0044-.1299-.0122-.1919-.0093-.0635-.0254-.1245-.0376-.186-.0127-.0606-.021-.1231-.0366-.1817-.0147-.0542-.0357-.1059-.0537-.1591-.021-.064-.0385884-.1294-.064-.1924-.0098-.0235-.022-.0459-.0317-.0689-.6236-1.4502-2.2919999-2.457-3.4677999-3.0171-1.4702-.7011-3.3173999-.7758-5.5400885-.2241-1.6914113.4204-3.1181113,1.1529-4.2783112,2.1826-1.831,1.628-2.8168999,3.856-2.9354999,6.6861l1.7173,1.7163c1.7212-.4273,2.5819999-.6411,4.3041999-1.0679,0-.8135.2358-1.6567.7085-2.5293.4726-.8716,1.2739-1.4492,2.4051999-1.7295.1289-.0317.2525-.0581.3721-.0796.0659-.0122.1299-.0205.1924-.0293.0464-.0063.0928-.0136.1377-.019.0815-.0083.1606-.0147.2378-.0181.018-.0005.0351-.0014.0537-.0019.0874-.003.1723-.003.2534.0019.019.0972.0337.1978.0439.3003.001.0073.0025.0152.003.023.0097.1054.0161.2138.0161.3252,0,.6504-.2056,1.2978-.5859,1.9345-.2164.3619-.4975886.7305-.8487,1.0865-.4277.4472-.6416.6704-1.0693,1.1176-1.0547,1.0992-1.7085,2.002-1.9619,2.7066-.2539.7051-.4102,1.9092-.4688,3.6064l1.3555,1.356c-1.1709.5591-2.0434999,1.7939-2.0434999,3.0132,0,.0468.0035.0962.0103.146.0015.0166.0054.0337.0083.0503.0054.0341.0112.0678.0195113.1025.0048887.0205.0107887.0405.0165887.062.0093.0317.0186.0649.0293.0977.0069.0219.0156.0439.0239.0659.0118.0327.024.0664.0386.0991.0103.0225.02.0449.0303.0679.0151.0337.0317.0674.0488.102.0113.0225.022.0449.0352.0679.018.0361.0386.0718.06.1079.0127.021.0244.0425.0367.064.0249.0405.0507.081.0776113.1211.0111887.0171.0214887.0346.0331887.0517.0786.1177.166.2354.2602.3526.0098.0127.021.0254.0313.039.0366.0454.0752.0904.1143113.1353.0155887.0185.0321887.0361.0482887.0547.0347113.04.0698.0791.1064.1181.0186.02.0372.0396.0562.0601.0356.0371.0718.0737.1084.1108.02.02.0405.0401.0605.0606.0367.0356.0738.0713.1114.1069.021.0191.042.0396.0634.0591.0381.0356.0787.0713.1172.1059.0215.0181.0415.0357.062.0538.0425.0371.0874.0737.1314.1103.0176.0142.0356.0293.0522.044.0577.0463.1148.0913.1734.1352.0053.0029.0093.0068.0141.0103l.0005.0005c.107.1899.2427.3549.4043.4921.0015.0015.003.0025.0039.0035.1602.1352.3428.2436.5454113.3203.0087887.0039.0170887.0053.0253887.0088.0884.0317.1802.0581.2749.0781.0171.0039.0342.0083.0518.0112.104.02.2095.0337.3198.0381.0132.001.0269-.001.0391114,0,.0956886.0029.1932886-.001.2933886-.0093.0298-.0024.0591-.0053.0889-.0088.1143-.0136.23-.0322.3481-.0625,1.4668-.3632,2.6572999-1.813,2.6572999-3.2373,0-.0893-.0049-.1767-.0142-.2617-.0019-.0185-.0063-.0366-.0093-.0552-.0083-.0654-.0175-.1303-.0317-.1923-.0034-.0157-.0093-.0303-.0127-.0455-.0161-.0639-.0327-.1274-.0547-.1884-.0024-.0098-.0078-.0186-.0107-.0274-.0249-.0654-.0503-.1284-.0806-.1894-.0029-.0049-.0049-.0088-.0077886-.0142-.0322114-.064-.0684114-.1265-.1069114-.1855-.001-.001-.002-.0015-.002-.003-.1255-.1884-.2832-.3496-.4658-.4785h-.0005l-.001-.001c-.1806-.2168-.3837886-.4311-.6025-.6337-.0015-.0015-.0025-.002-.0039-.004-.145-.1347-.2959-.2641-.4512-.3867-.0029-.0019-.0049-.0034-.0073-.0053-.0723-.0572-.1455-.1119-.2193-.1651-.0078-.0063-.0155886-.0122-.0234-.0176-.1523-.1098-.3076-.2119-.4624-.3037-.0117-.0073-.0244-.0136-.0356-.0205-.0645-.0376-.128-.0732-.1919-.1069-.0162-.0083-.0322886-.0171-.0484-.0249-.0835-.043-.167-.0835-.2495-.1192.7676114-.1914,1.4551-.3618,2.4566114-.6108.0096886-.7988.0731886-1.4023.1913886-1.8101.1855-.6435.562-1.2597,1.1294-1.8501.4169-.4316.6245-.6469,1.0415-1.08,1.0571-1.0992,1.768-1.9693,2.1419999-2.5879.625-1.0327.9537115-2.1958.9537115-3.4795,0-.1485-.0044116-.292-.0118116-.4326Z" fill="#fff"/>
    </mask>
  </defs>
  <path d="M20.3412886,26.041c-.9682886-1.164-2.5946999-2.2378-3.5770999-1.9941-1.4673.3642-2.6572999,1.8139-2.6572999,3.2378,0,.7993.916,1.9609,1.979,2.7627.4283.7612,1.3384,1.1352,2.3954999.872,1.4668-.3632,2.6572999-1.813,2.6572999-3.2373,0-.7202-.3052-1.2959-.7974-1.6411Z" fill="#ecb300" stroke="#000" stroke-miterlimit="3.8637" stroke-width="2"/>
  <path d="M14.1068887,27.2847c0,1.4238,2.9067999,4,4.3744999,3.6347,1.4668-.3632,2.6572999-1.813,2.6572999-3.2373,0-1.4238-2.9067999-3.9995-4.3744999-3.6352-1.4673.3642-2.6572999,1.8139-2.6572999,3.2378Z" fill="url(#radial-gradient)"/>
  <path d="M25.7548884,11.1162c0-2.0918-2.2475999-3.4883-3.7167999-4.189-1.4702-.7011-3.3173999-.7758-5.5400885-.2241-1.6914113.4204-3.1181113,1.1529-4.2783112,2.1826-1.831,1.628-2.8168999,3.856-2.9354999,6.6861l1.7173,1.7163c1.7212-.4273,2.5819999-.6411,4.3041999-1.0679,0-.8135.2358-1.6567.7085-2.5293.4726-.8716,1.2739-1.4492,2.4051999-1.7295.479-.1191.8921-.165,1.2471-.146.04.2056.063.4209.063.6485,0,.6504-.2056,1.2978-.5859,1.9345-.2164.3619-.4975886.7305-.8487,1.0865-.4277.4472-.6416.6704-1.0693,1.1176-1.0547,1.0992-1.7085,2.002-1.9619,2.7066-.2539.7051-.4102,1.9092-.4688,3.6064l1.7173,1.7173c1.5957-.3965,2.3940999-.5947,3.9898113-.9912.0096886-.7988.0731886-1.4023.1913886-1.8101.1855-.6435.562-1.2597,1.1294-1.8501.4169-.4316.6245-.6469,1.0415-1.08,1.0571-1.0992,1.768-1.9693,2.1419999-2.5879.625-1.0327.9537115-2.1958.9537115-3.4795,0-.6372-.0689116-1.209-.2051116-1.7178Z" fill="#ecb300" stroke="#000" stroke-miterlimit="3.8637" stroke-width="2"/>
  <path d="M12.2196888,8.8857c1.1602-1.0297,2.5868999-1.7622,4.2783112-2.1826,2.2226886-.5517,4.0698886-.477,5.5400885.2241,1.4692.7007,3.7167999,2.0972,3.7167999,4.189,0,1.2847-1.8413,2.4468-2.4652999,3.48-.3741.6191-1.0855,1.4892-2.1425885,2.5879-.4165114.4331-.6245114.6484-1.042,1.0805-.5674114.5894-.9429114,1.2066-1.1294114,1.8506-.1172.4068-2.4633999,4.5176-2.4633999,4.5176l-1.7173-1.7173c.0586-1.6972.2149-2.9013.4688-3.6064.2534-.7046.9072-1.6074,1.9619-2.7066.4277-.4472.6416-.6704,1.0693-1.1176.3511114-.356.6323-.7246.8487-1.0865.3803-.6367.5859-1.2841.5859-1.9345,0-.7491-.2173-1.3775-.6514-1.8863-.4340886-.5073-1.226-.6196-2.3754999-.3335-1.1313.2798-1.9331.858-2.4056999,1.7305-.4727.8716-3.2953999,5.3135-3.2953999,5.3135l-1.7173-1.7163c.1186-2.8301,1.1045-5.0581,2.9354999-6.6861Z" fill="url(#radial-gradient-2)"/>
  <g mask="url(#mask)">
    <g>
      <g>
        <path d="M15.5492887,28.7271c0,1.4248,1.19,2.2827,2.6571999,1.9184,1.4673-.3642,2.6577999-1.814,2.6577999-3.2373,0-1.4243-1.1905-2.2832-2.6572886-1.9189-1.4673113.3647-2.6577113,1.8134-2.6577113,3.2378Z" fill="#ffffb3"/>
        <path d="M13.6630887,10.3286c1.1592-1.0298,2.5863999-1.7627,4.2782999-2.1826,2.2221999-.5522,4.0688999-.4766,5.5399999.2241,1.4683.7002,2.2040999,2.0972,2.2040999,4.1895,0,1.2842-.3291,2.4463-.9541,3.4795-.3735.6186-1.0849,1.4887-2.1410999,2.5883-.417.4322-.6259.6475-1.042,1.0801-.5678.5899-.9438,1.2066-1.1294,1.8496-.1181.4077-.1821,1.0108-.1908886,1.8101-1.5962114.3965-2.3945114.5942-3.9902113.9912.0581-1.6978.2148-2.9009.4683-3.6064.2534-.7056.9072-1.6075,1.9624-2.7071.4267-.4472.642-.6704,1.0693-1.1177.3516-.3559.6318-.7236.8491-1.0864.3789-.6357.5855-1.2842.5855-1.9341,0-.7495-.2183-1.3779-.6513886-1.8867-.4341114-.5078-1.2261114-.6191-2.376-.3335-1.1308113.2803-1.9331113.8579-2.4053113,1.73-.4726.8731-.7084,1.7158-.7084,2.5293-1.7227.4277-2.5830999.6406-4.3046999,1.0679.1181-2.8291,1.1045-5.0581,2.9364999-6.6851Z" fill="#ffffb3"/>
      </g>
      <g>
        <path d="M15.8241887,29.0015c0,1.4243,1.1895,2.2832,2.6571999,1.9179,1.4668-.3632,2.6572999-1.813,2.6572999-3.2373,0-1.4238-1.19-2.2822-2.6572999-1.9179-1.4668.3642-2.6571999,1.8134-2.6571999,3.2373Z" fill="#ff7845"/>
        <path d="M13.937,10.603c1.1601887-1.0298,2.5868887-1.7622,4.2787886-2.1826,2.2226999-.5522,4.0688999-.477,5.5390999.2241,1.4697.7002,2.2051115,2.0967,2.2051115,4.1895,0,1.2837-.3287116,2.4468-.9537115,3.4795-.374.6186-1.0849,1.4887-2.1419999,2.5879-.417.4331-.6246.6484-1.0415,1.08-.5674.5904-.9439,1.2066-1.1294,1.8501-.1182.4078-.1817,1.0113-.1913886,1.8101-1.5957114.3965-2.3941114.5947-3.9898113.9912.0586-1.6973.2149-2.9009.4683-3.6064.2534-.7056.9072-1.6079,1.9624-2.7071.4277-.4467.6421114-.6704,1.0693-1.1172.3511-.3559.6323-.7241.8486-1.0864.3804-.6367.5855-1.2842.5855-1.9345,0-.7496-.2172885-1.3775-.6514-1.8863-.4331-.5073-1.2256-.6191-2.3754999-.3335-1.1313.2803-1.9326.8579-2.4051999,1.7295-.4727.8726-.7085,1.7158-.7085,2.5293-1.7222.4268-2.5829999.6406-4.3041999,1.0679.1181-2.8291,1.104-5.0576,2.9355112-6.6851Z" fill="#ff7845"/>
      </g>
    </g>
  </g>
</svg>