<?xml version='1.0' encoding='UTF-8'?>
<svg xmlns="http://www.w3.org/2000/svg" xmlns:xlink="http://www.w3.org/1999/xlink" id="Icons_-_24x24" data-name="Icons - 24x24" width="24" height="24" viewBox="0 0 24 24">
  <defs>
    <linearGradient id="New_Gradient_163" data-name="New Gradient 163" x1="24.2990204" y1="18.5977336" x2="10.3348822" y2="6.4588935" gradientUnits="userSpaceOnUse">
      <stop offset="0" stop-color="#e5e5e5"/>
      <stop offset="1" stop-color="#ccc"/>
    </linearGradient>
    <linearGradient id="linear-gradient" x1="17.3261962" y1="6.4108407" x2="17.3261962" y2="11.669754" gradientUnits="userSpaceOnUse">
      <stop offset="0" stop-color="#333"/>
      <stop offset="1" stop-color="#ccc"/>
    </linearGradient>
    <linearGradient id="New_Gradient_162" data-name="New Gradient 162" x1="14.0225194" y1="21.1606458" x2=".0585835" y2="9.0219815" gradientUnits="userSpaceOnUse">
      <stop offset="0" stop-color="#e5e5e5"/>
      <stop offset="1" stop-color="#ccc"/>
    </linearGradient>
    <linearGradient id="New_Gradient_22" data-name="New Gradient 22" x1="12.0705906" y1="4.4580141" x2="4.6865486" y2="13.5765465" gradientUnits="userSpaceOnUse">
      <stop offset="0" stop-color="#d9d9d9"/>
      <stop offset=".522476" stop-color="#f2f2f2"/>
      <stop offset="1" stop-color="#ccc"/>
    </linearGradient>
    <linearGradient id="New_Gradient_22-2" data-name="New Gradient 22" x1="8.5607423" y1="4.4781504" x2="3.945481" y2="10.1775234" gradientUnits="userSpaceOnUse"><stop offset="0" stop-color="#d9d9d9"/><stop offset=".522476" stop-color="#f2f2f2"/><stop offset="1" stop-color="#ccc"/></linearGradient>
    <linearGradient id="linear-gradient-2" x1="8.7153425" y1="12.546432" x2="8.7153425" y2="5.533304" gradientUnits="userSpaceOnUse">
      <stop offset="0" stop-color="#999"/>
      <stop offset="1" stop-color="#000"/>
    </linearGradient>
    <linearGradient id="New_Gradient_22-3" data-name="New Gradient 22" x1="19.1672872" y1="11.5317384" x2="11.7833992" y2="20.6500807" gradientUnits="userSpaceOnUse"><stop offset="0" stop-color="#d9d9d9"/><stop offset=".522476" stop-color="#f2f2f2"/><stop offset="1" stop-color="#ccc"/></linearGradient>
    <linearGradient id="New_Gradient_22-4" data-name="New Gradient 22" x1="15.6573834" y1="11.5517701" x2="11.0422183" y2="17.2510243" gradientUnits="userSpaceOnUse"><stop offset="0" stop-color="#d9d9d9"/><stop offset=".522476" stop-color="#f2f2f2"/><stop offset="1" stop-color="#ccc"/></linearGradient>
    <linearGradient id="New_Gradient_1" data-name="New Gradient 1" x1="11.8768452" y1="13.818586" x2="19.0717985" y2="18.246405" gradientUnits="userSpaceOnUse">
      <stop offset="0" stop-color="#e5e5e5"/>
      <stop offset="1" stop-color="#ccc"/>
    </linearGradient>
    <linearGradient id="New_Gradient_1-2" data-name="New Gradient 1" x1="4.9985166" y1="11.4395764" x2="8.0419506" y2="16.8813238" gradientUnits="userSpaceOnUse"><stop offset="0" stop-color="#e5e5e5"/><stop offset="1" stop-color="#ccc"/></linearGradient>
    <linearGradient id="linear-gradient-3" x1="17.0500067" y1="19.6768697" x2="15.8038637" y2="17.6942315" gradientUnits="userSpaceOnUse">
      <stop offset="0" stop-color="#999"/>
      <stop offset="1" stop-color="#ccc"/>
    </linearGradient>
    <linearGradient id="New_Gradient_1-3" data-name="New Gradient 1" x1="17.6766893" y1="19.6827572" x2="14.4411684" y2="16.8701617" gradientUnits="userSpaceOnUse"><stop offset="0" stop-color="#e5e5e5"/><stop offset="1" stop-color="#ccc"/></linearGradient>
  </defs>
  <polygon points="20.876 19.436 13.7763924 12.0181 13.7763924 5.6367 20.8661922 13.0586 20.876 19.436" fill="url(#New_Gradient_163)" fill-rule="evenodd" stroke="#000" stroke-linecap="round" stroke-linejoin="round" stroke-width="2"/>
  <polygon points="20.876 19.436 13.7763924 12.0181 13.7763924 5.6367 20.8661922 13.0586 20.876 19.436" fill="url(#linear-gradient)" fill-rule="evenodd"/>
  <polygon points="10.5985925 22 3.501 14.5811 3.501 8.1987 10.5907925 15.6196 10.5985925 22" fill="url(#New_Gradient_162)" fill-rule="evenodd" stroke="#000" stroke-linecap="round" stroke-linejoin="round" stroke-width="2"/>
  <g>
    <path d="M3.6610926,14.7021s-.7129-.4086-.7129-1.4174v-6.9825s-.0273-.6411.4434-.7753c.4707-.1358,8.7606998-2.1143,9.1894998-2.2295.5703-.1529,1.1191.3217,1.1191.3217l-.0586.0645.0996-.0259v8.5391l-10.0516997,2.4809-.0284.0244Z" fill="url(#New_Gradient_22)" stroke="#000" stroke-linecap="round" stroke-linejoin="round" stroke-width="2"/>
    <path d="M3.6610926,14.7021s-.7129-.4086-.7129-1.4174v-6.9825s-.0273-.6411.4434-.7753c.4707-.1358,8.7606998-2.1143,9.1894998-2.2295.5703-.1529,1.1191.3217,1.1191.3217L3.6610926,14.7021Z" fill="url(#New_Gradient_22-2)" fill-rule="evenodd"/>
    <polygon points="13.7411924 3.6577 3.6894926 6.1694 3.6894926 14.6777 13.7411924 12.1968 13.7411924 3.6577" fill="url(#linear-gradient-2)" fill-rule="evenodd"/>
    <path d="M3.501,14.4141V6.1797c0-.0581.0760926-.1597.1268926-.1734l9.7626998-2.479c.2617-.0654.4297.3565.169.4224L3.8192926,6.3389v8.2099c0,.2847-.3182926.1494-.3182926-.1347Z" fill="#fff"/>
    <polyline points="3.8192926 14.5488 3.8192926 6.3389 13.6005924 3.8667" fill="none" stroke="#b2b2b2" stroke-linecap="round" stroke-linejoin="round" stroke-width=".75"/>
  </g>
  <g>
    <path d="M10.7567925,21.7749s-.7099-.4077-.7099-1.4165v-6.9829s-.0283-.6431.4433-.7778c.4698075-.1333,8.7588075-2.1123,9.1884998-2.2261.5703078-.1538,1.1182.3213,1.1182.3213l-.0557.0644.0986-.0263v8.5376l-10.0516997,2.4834-.0313.0229Z" fill="url(#New_Gradient_22-3)" stroke="#000" stroke-linecap="round" stroke-linejoin="round" stroke-width="2"/>
    <path d="M10.7567925,21.7749s-.7099-.4077-.7099-1.4165v-6.9829s-.0283-.6431.4433-.7778c.4698075-.1333,8.7588075-2.1123,9.1884998-2.2261.5703078-.1538,1.1182.3213,1.1182.3213l-10.0400997,11.082Z" fill="url(#New_Gradient_22-4)" fill-rule="evenodd"/>
    <polygon points="20.8397922 10.731 10.7880925 13.2422 10.7880925 21.752 20.8397922 19.2686 20.8397922 10.731" fill="url(#New_Gradient_1)" fill-rule="evenodd"/>
    <path d="M10.5985925,21.4883v-8.2354c0-.0581.0762-.1601.1289-.1738l9.7617998-2.477c.2597078-.0674.4287078.3549.1679.4204l-9.7401922,2.3911v8.2099c0,.2837-.3184075.1475-.3184075-.1352Z" fill="#fff"/>
    <polyline points="10.917 21.6235 10.917 13.4136 20.7001922 10.9395" fill="none" stroke="#b2b2b2" stroke-linecap="round" stroke-linejoin="round" stroke-width=".75"/>
  </g>
  <polygon points="10.5985925 22 3.501 14.5811 3.501 8.1987 10.5907925 15.6196 10.5985925 22" fill="url(#New_Gradient_1-2)" fill-rule="evenodd"/>
  <line x1="3.8017926" y1="8.8022" x2="9.9560925" y2="15.2437" fill="none" stroke="#fff" stroke-linecap="round" stroke-linejoin="round"/>
  <line x1="3.8710926" y1="8.5869" x2="9.8134925" y2="14.8076" fill="none" stroke="#999" stroke-linecap="round" stroke-linejoin="round"/>
  <line x1="4.3310926" y1="8.6855" x2="4.3310926" y2="15.2886" fill="none" stroke="#636363" stroke-linecap="round" stroke-linejoin="round"/>
  <path d="M18.5478923,16.2129c-1.7168.4267-3.4345999.8545-5.1503999,1.2803v-3.2642c1.7158-.4258,3.4335999-.8535,5.1503999-1.2788v3.2627Z" fill="#fff" stroke="#999" stroke-miterlimit="3.8637"/>
  <path d="M18.5087923,18.6538c-1.4307.355-2.8632999.709-4.2968999,1.0659v-1.2119c1.4336-.3555,2.8661999-.7114,4.2968999-1.0683v1.2143Z" fill="url(#linear-gradient-3)" fill-rule="evenodd"/>
  <path d="M18.21,18.3511c-1.4336077.3564-2.8653077.7119-4.2979076,1.0678v-1.2133c1.4326-.3555,2.8642999-.7115,4.2979076-1.0679v1.2134Z" fill="url(#New_Gradient_1-3)" fill-rule="evenodd" stroke="#999" stroke-miterlimit="3.8637"/>
</svg>