<?xml version="1.0" encoding="UTF-8"?>
<svg id="Set_3" data-name="Set 3" xmlns="http://www.w3.org/2000/svg" width="24" height="24" viewBox="0 0 24 24">
  <path d="M12.3711,5.624c0,.1748-.063.3262-.1904.4561-.126.1289-.2808.1933-.4629.1933-.1411,0-.315-.0732-.523-.2216-.2109-.1465-.3891-.2207-.5346-.2207-.273,0-.4976.0595-.6714.1796-.1743.1211-.3213.3194-.4414.5987-.1206.2773-.2784.8613-.4732,1.7539-.0664.3105-.1181.5508-.1553.7217h1.3775c.0454,0,.0752.0117.0898.0371.0142.0244.022.0771.022.1592,0,.083-.022.1591-.0654.2285-.044.0703-.0884.1054-.1338.1054l-1.4068-.0175-1.0288,4.2793c-.1787.749-.4184,1.4013-.7197,1.956-.3008.5527-.6474.9863-1.0395,1.3018-.3926.3144-.7696.4726-1.1309.4726-.2939,0-.5464-.0742-.7563-.2207-.2095-.1484-.3145-.3203-.3145-.5156,0-.3574.1792-.5371.5361-.5371.149,0,.3296.0947.5415.2832.212.1885.3921.2832.542.2832.2613,0,.4644-.1016.6075-.3047.1425-.2041.2851-.6416.4262-1.3135l1.1836-5.5361v-.043c0-.0703-.042-.1054-.1245-.1054h-1.0005c-.0752,0-.1128-.0547-.1128-.1631,0-.0674.0459-.1172.1377-.1504.8589-.1006,1.2969-.2285,1.3135-.3867.1284-.6299.3848-1.2608.7681-1.8926.3837-.6328.8173-1.124,1.3027-1.4766.4844-.3515.98-.5283,1.4858-.5283.6343,0,.9517.208.9517.624Z"/>
  <path d="M14.7759,7.7354c0,.0449-.0156.0771-.0454.0947-.8091.5713-1.44,1.2998-1.8931,2.1865-.4521.8867-.6787,1.8174-.6787,2.793,0,.4922.0659.9277.1977,1.3076.1314.3779.3384.7363.6202,1.0713l.0131.0361c0,.042-.0205.084-.0605.127-.041.042-.0791.0634-.1152.0634-.0332,0-.1509-.0947-.3536-.2851-.2021-.1904-.3818-.3994-.5375-.626-.4205-.6035-.6304-1.2529-.6304-1.9482,0-1.1993.4629-2.3243,1.3891-3.375.2163-.2471.4541-.4815.712-.7032.2583-.2197.5278-.4209.8095-.6045.2818-.1816.44-.2734.4732-.2734.0664,0,.0996.0449.0996.1358Z"/>
  <path d="M18.207,10.6582c0,.1523-.0341.2764-.1025.3711-.0679.0947-.1602.1416-.2754.1416-.1221,0-.2144-.0947-.2759-.2842-.0429-.1289-.0908-.1933-.145-.1933-.1094,0-.4419.3916-.998,1.1728-.0674.0928-.1128.1582-.1363.1943l.1236.6426c.1225.6885.2944,1.0323.5156,1.0323.1045,0,.1811-.0577.23-.1749.0498-.1162.0737-.3544.0737-.7158,0-.042.0229-.0644.0688-.0644.0684,0,.1128.0273.1324.082.02.0547.0356.1104.0473.168.0113.0586.0171.1172.0171.1777,0,.3301-.0747.5986-.2241.8037-.1489.2041-.3335.3067-.5537.3067-.2412,0-.438-.1123-.5894-.336-.1523-.2256-.2934-.624-.4233-1.2002-.2676.4317-.5425.7949-.8267,1.0918-.2841.2969-.5092.4444-.6762.4444-.1162,0-.2178-.0508-.3057-.1524-.0879-.1015-.1318-.2256-.1318-.3691,0-.1524.0361-.2803.1093-.3848.0733-.1025.1656-.1543.2774-.1543.1225,0,.2114.0772.2671.2295.0434.1065.0976.1592.1626.1592.1425,0,.4892-.4053,1.04-1.2158l-.1367-.6827c-.0596-.3095-.1353-.5556-.228-.7412-.0918-.1845-.191-.2773-.2979-.2773-.1099,0-.1885.0586-.2368.1768-.0488.1171-.0732.3544-.0732.7128,0,.043-.0249.0645-.0748.0645-.1269,0-.1904-.1426-.1904-.4277,0-.3282.0752-.5948.2256-.8008.1504-.2061.3394-.3096.5669-.3096.5342,0,.874.5186,1.02,1.5537.3999-.5849.7163-.9892.9492-1.2158.2334-.2256.4331-.3379.6026-.3379.1435,0,.2583.0479.3447.1416.085.0947.1279.2188.1279.3711Z"/>
  <path d="M21,10.4551c0,1.2002-.4644,2.3271-1.3936,3.3818-.2168.2481-.4536.4815-.7099.7031-.2564.2207-.5259.4219-.8076.6026-.2818.1816-.441.2724-.4776.2724-.063,0-.0947-.0459-.0947-.1357,0-.043.0156-.0742.0454-.0957.8086-.5684,1.44-1.2959,1.8926-2.1846.4526-.8886.6792-1.8213.6792-2.7978,0-.4922-.0664-.9278-.1983-1.3057-.1318-.3769-.3403-.7353-.624-1.0742l-.0093-.0361c0-.0391.0201-.0801.0611-.1221.0405-.043.0786-.0635.1147-.0635.0332,0,.1504.0947.354.2822.2022.1905.3809.3985.5376.6241.4204.6074.6304,1.2568.6304,1.9492Z"/>
</svg>