<?xml version='1.0' encoding='UTF-8'?>
<svg xmlns="http://www.w3.org/2000/svg" xmlns:xlink="http://www.w3.org/1999/xlink" id="Icons_-_24x24" data-name="Icons - 24x24" width="24" height="24" viewBox="0 0 24 24">
  <defs>
    <linearGradient id="linear-gradient" x1="14.9390382" y1="-74.2849496" x2="35.5306738" y2="-60.9125851" gradientTransform="translate(-58.2803 75.6126) rotate(17.8658635) scale(.8086975 1.2157395) skewX(-26.3546733)" gradientUnits="userSpaceOnUse">
      <stop offset="0" stop-color="#b4daea"/>
      <stop offset=".51123" stop-color="#b4daea"/>
      <stop offset=".646072" stop-color="#5387ba"/>
      <stop offset="1" stop-color="#16336e"/>
    </linearGradient>
    <mask id="mask" x="4.3066" y="5.77" width="14.3291" height="15.8428" maskUnits="userSpaceOnUse">
      <polygon points="5.8618 19.7749 17.5957 19.6812 17.9971 19.064 16.2549 7.4556 6.3086 6.2437 5.9033 6.8696 5.8618 19.7749" fill="#fff" fill-rule="evenodd"/>
    </mask>
    <linearGradient id="New_Gradient_21" data-name="New Gradient 21" x1="7.298588" y1="10.3469388" x2="15.2003238" y2="17.2158129" gradientUnits="userSpaceOnUse">
      <stop offset="0" stop-color="#5387ba"/>
      <stop offset="1" stop-color="#96bad6"/>
    </linearGradient>
    <linearGradient id="New_Gradient_23" data-name="New Gradient 23" x1="18.290733" y1="-69.1033685" x2="32.9490354" y2="-59.5841557" gradientTransform="translate(-58.2803 75.6126) rotate(17.8658635) scale(.8086975 1.2157395) skewX(-26.3546733)" gradientUnits="userSpaceOnUse">
      <stop offset="0" stop-color="#b4daea"/>
      <stop offset=".51123" stop-color="#b4daea"/>
      <stop offset=".646072" stop-color="#5387ba"/>
      <stop offset="1" stop-color="#16336e"/>
    </linearGradient>
    <linearGradient id="New_Gradient_24" data-name="New Gradient 24" x1="25.3054812" y1="-71.9520308" x2="25.3054812" y2="-60.8318081" gradientTransform="translate(-58.2803 75.6126) rotate(17.8658635) scale(.8086975 1.2157395) skewX(-26.3546733)" gradientUnits="userSpaceOnUse">
      <stop offset="0" stop-color="#b2b2b2"/>
      <stop offset="1" stop-color="#f2f2f2"/>
    </linearGradient>
    <mask id="mask-1" x="6.5347" y="3.7388" width="13.0132" height="14.5688" maskUnits="userSpaceOnUse">
      <polygon points="6.7524 17.7441 18.042 17.6499 18.4404 17.0332 18.4834 4.1489 7.1987 4.2114 6.793 4.8389 6.7524 17.7441" fill="#fff" fill-rule="evenodd"/>
    </mask>
    <linearGradient id="linear-gradient-2" x1="8.7419026" y1="7.5771468" x2="16.4912567" y2="14.3135576" gradientUnits="userSpaceOnUse">
      <stop offset=".005618" stop-color="#6498c1"/>
      <stop offset=".2332473" stop-color="#79a9cb"/>
      <stop offset=".7405465" stop-color="#a3cce1"/>
      <stop offset="1" stop-color="#b4daea"/>
    </linearGradient>
    <linearGradient id="New_Gradient_23-2" data-name="New Gradient 23" x1="17.9771669" y1="-71.4053539" x2="32.6133291" y2="-61.900519" gradientTransform="translate(-58.2803 75.6126) rotate(17.8658635) scale(.8086975 1.2157395) skewX(-26.3546733)" gradientUnits="userSpaceOnUse"><stop offset="0" stop-color="#b4daea"/><stop offset=".51123" stop-color="#b4daea"/><stop offset=".646072" stop-color="#5387ba"/><stop offset="1" stop-color="#16336e"/></linearGradient>
    <linearGradient id="New_Gradient_21-2" data-name="New Gradient 21" x1="14.6809536" y1="-70.2619464" x2="23.2215892" y2="-62.8376851" gradientTransform="translate(-58.2803 75.6126) rotate(17.8658635) scale(.8086975 1.2157395) skewX(-26.3546733)" gradientUnits="userSpaceOnUse"><stop offset="0" stop-color="#5387ba"/><stop offset="1" stop-color="#96bad6"/></linearGradient>
    <linearGradient id="New_Gradient_20" data-name="New Gradient 20" x1="-32.8166848" y1="-56.8615645" x2="-31.2122433" y2="-52.2019279" gradientTransform="translate(-7.0159 85.6913) rotate(17.9033405) scale(.984997 1.4712592) skewX(-26.2790975)" gradientUnits="userSpaceOnUse">
      <stop offset="0" stop-color="#ccc"/>
      <stop offset="1" stop-color="#f2f2f2"/>
    </linearGradient>
  </defs>
  <path d="M17.5098,17.7378c.0576-.1001-.3233.6431-.2432.5249.2905-.4307-.2686-.3711-.0156-.624l.747-.0044.3985-.6177.042-12.8823-11.2754.0605c.0508-.4131-.0484-.3071-.7788.7754-.7315,1.0855-.478,1.461-.5318,1.8779-.0073.0538-.0039.0899.0059.1133l-.041,12.7984,11.7348-.0948.4004-.6171-.4428-1.3101Z" fill="url(#linear-gradient)" stroke="#000" stroke-linecap="round" stroke-linejoin="round" stroke-width="2"/>
  <g>
    <g>
      <g mask="url(#mask)">
        <g>
          <polygon points="5.8618 19.7749 17.5957 19.6812 17.9971 19.064 16.2549 7.4556 6.3086 6.2437 5.9033 6.8696 5.8618 19.7749" fill="url(#New_Gradient_21)" fill-rule="evenodd"/>
          <polygon points="6.2871 6.1514 6.2451 19.2773 18.6357 19.0781 16.874 21.2676 4.3066 21.6128 4.4873 7.8022 5.8999 5.77 6.2871 6.1514" fill="url(#New_Gradient_23)" fill-rule="evenodd"/>
        </g>
      </g>
      <path d="M17.6982,17.2852s.17.1674-.3872.9931c-.5542.8238.3628.355.3628.355l-11.1474.166.0415-12.5229.5317-1.4966,10.5986,12.5054Z" fill="url(#New_Gradient_24)" fill-rule="evenodd"/>
      <g mask="url(#mask-1)">
        <g>
          <polygon points="6.7524 17.7441 18.042 17.6499 18.4404 17.0332 18.4834 4.1489 7.1987 4.2114 6.793 4.8389 6.7524 17.7441" fill="url(#linear-gradient-2)" fill-rule="evenodd"/>
          <polygon points="7.1802 4.1211 7.1367 17.2466 19.0791 17.0474 19.5479 17.96 6.5347 18.3076 6.7178 4.4966 6.7905 3.7388 7.1802 4.1211" fill="url(#New_Gradient_23-2)" fill-rule="evenodd"/>
        </g>
      </g>
    </g>
    <path d="M6.3848,18.2031c.602-.8916.6333-.9848.7509-.9062l.0689-12.6919c.0547-.418-.0449-.3115-.7769.7729-.7309,1.085-.4785,1.4615-.5327,1.8809-.0068.0517-.0034.0889.0083.1123l-.0429,12.6748c.0839-.4507-.1875-.7881.5244-1.8428Z" fill="#4d7ba6"/>
    <path d="M6.3857,17.8105c.6016-.8906.6319-.9838.752-.9057l.0708-12.6919c.0537-.418-.0493-.3106-.7808.7734-.7309,1.0835-.477,1.4595-.5322,1.8789-.0059.0518-.0034.0909.0083.1143l-.042,12.6743c.0825-.4507-.1875-.7871.5239-1.8433Z" fill="url(#New_Gradient_21-2)"/>
    <line x1="7.2085" y1="4.2129" x2="7.1357" y2="17.1646" fill="none" stroke="#5387ba" stroke-linejoin="round"/>
  </g>
  <polygon points="16.0801 9.7314 16.1226 5.8418 9.6782 5.8784 9.6782 9.7778 16.0801 9.7314" fill="url(#New_Gradient_20)" fill-rule="evenodd" stroke="gray" stroke-linecap="round" stroke-linejoin="round" stroke-width=".5"/>
</svg>