<?xml version='1.0' encoding='UTF-8'?>
<svg xmlns="http://www.w3.org/2000/svg" xmlns:xlink="http://www.w3.org/1999/xlink" id="Icons_-_24x24" data-name="Icons - 24x24" width="24" height="24" viewBox="0 0 24 24">
  <defs>
    <mask id="mask" x="4.9286908" y="1.9072" width="17.9218996" height="21.0215" maskUnits="userSpaceOnUse">
      <path d="M17.2313905,21.9277l-11.3006997.001-.002-19.0215,15.9218996.001-.0068,14.8003c0,2.0098-2.4667904,4.2192-4.6123999,4.2192Z" fill="#fff" fill-rule="evenodd" stroke="#fff" stroke-linecap="round" stroke-linejoin="round" stroke-width="2"/>
    </mask>
    <linearGradient id="New_Gradient_399" data-name="New Gradient 399" x1="8.6131149" y1="1.5979189" x2="19.1337803" y2="23.1684795" gradientUnits="userSpaceOnUse">
      <stop offset="0" stop-color="#e5e5e5"/>
      <stop offset="1" stop-color="#fff"/>
    </linearGradient>
    <radialGradient id="New_Gradient_400" data-name="New Gradient 400" cx="-20.0359832" cy="35.7948322" fx="-20.0359832" fy="35.7948322" r="5.2379347" gradientTransform="translate(37.1582 -16.6564114) scale(1.0313 .9421)" gradientUnits="userSpaceOnUse">
      <stop offset="0" stop-color="#fff"/>
      <stop offset="1" stop-color="#ccc"/>
    </radialGradient>
    <mask id="mask-1" x="5.9286908" y="2.9072" width="15.9473092" height="19.0928" maskUnits="userSpaceOnUse">
      <path d="M17.2313905,21.9277l-11.3006997.001-.002-19.0215,15.9218996.001-.0068,14.8003c0,2.0098-2.4667904,4.2192-4.6123999,4.2192Z" fill="#fff" fill-rule="evenodd"/>
    </mask>
    <linearGradient id="New_Gradient_401" data-name="New Gradient 401" x1="8.6131149" y1="1.5979189" x2="19.1337803" y2="23.1684795" gradientUnits="userSpaceOnUse">
      <stop offset="0" stop-color="#e5e5e5"/>
      <stop offset=".286514" stop-color="#f2f2f2"/>
      <stop offset=".646072" stop-color="#fff"/>
      <stop offset="1" stop-color="#fff"/>
    </linearGradient>
    <radialGradient id="New_Gradient_402" data-name="New Gradient 402" cx="-20.0359832" cy="35.7948322" fx="-20.0359832" fy="35.7948322" r="5.2379347" gradientTransform="translate(37.1582 -16.6564114) scale(1.0313 .9421)" gradientUnits="userSpaceOnUse">
      <stop offset="0" stop-color="#e5e5e5"/>
      <stop offset=".331467" stop-color="#e5e5e5"/>
      <stop offset="1" stop-color="#999"/>
    </radialGradient>
    <linearGradient id="linear-gradient" x1="7.2550563" y1="2.9363861" x2="12.8778421" y2="24.526146" gradientUnits="userSpaceOnUse">
      <stop offset="0" stop-color="#fff"/>
      <stop offset="1" stop-color="#a9c3dc"/>
    </linearGradient>
    <mask id="mask-2" x="-.4461816" y="7" width="21.7179575" height="16.4745673" maskUnits="userSpaceOnUse">
      <rect x="1.876" y="7" width="16" height="12" fill="#fff"/>
    </mask>
    <linearGradient id="linear-gradient-2" x1="10.8911985" y1="9.2776006" x2="7.8912952" y2="20.2772603" gradientUnits="userSpaceOnUse">
      <stop offset="0" stop-color="#b7e9ff"/>
      <stop offset="1" stop-color="#555b91"/>
    </linearGradient>
    <linearGradient id="linear-gradient-3" x1="13.2057407" y1="8.4264136" x2="14.6436656" y2="13.9476011" gradientUnits="userSpaceOnUse">
      <stop offset="0" stop-color="#ffe900"/>
      <stop offset="1" stop-color="#c40000"/>
    </linearGradient>
    <linearGradient id="linear-gradient-4" x1="18.8584649" y1="12.6589462" x2="22.4226864" y2="26.3444553" gradientTransform="translate(-13.6017) skewX(7.716581)" gradientUnits="userSpaceOnUse"><stop offset="0" stop-color="#fff"/><stop offset="1" stop-color="#a9c3dc"/></linearGradient>
    <radialGradient id="radial-gradient" cx="14.7510383" cy="9.8398349" fx="14.7510383" fy="9.8398349" r="14.2755798" gradientUnits="userSpaceOnUse">
      <stop offset=".134831" stop-color="#86e099"/>
      <stop offset=".882022" stop-color="#005e00"/>
    </radialGradient>
  </defs>
  <g>
    <g>
      <g mask="url(#mask)">
        <g>
          <path d="M17.2313905,21.9277l-11.3006997.001-.002-19.0215,15.9218996.001-.0068,14.8003c0,2.0098-2.4667904,4.2192-4.6123999,4.2192Z" fill="url(#New_Gradient_399)" fill-rule="evenodd"/>
          <path d="M16.4950905,21.999s2.6405999-.0923,2.6405999-2.7671c2.7177999.0005,2.7403096-2.166,2.7403096-2.166l-.001,4.9341-5.3799095-.001Z" fill="url(#New_Gradient_400)" fill-rule="evenodd"/>
          <path d="M17.2313905,21.9277l-11.3006997.001-.002-19.0215,15.9218996.001-.0068,14.8003c0,2.0098-2.4667904,4.2192-4.6123999,4.2192Z" fill="none" fill-rule="evenodd" stroke="#000" stroke-linecap="round" stroke-linejoin="round" stroke-width="2"/>
        </g>
      </g>
      <g mask="url(#mask-1)">
        <g>
          <path d="M17.2313905,21.9277l-11.3006997.001-.002-19.0215,15.9218996.001-.0068,14.8003c0,2.0098-2.4667904,4.2192-4.6123999,4.2192Z" fill="url(#New_Gradient_401)" fill-rule="evenodd"/>
          <path d="M16.4950905,21.999s1.836-.6733,1.836-3.3496c2.7176999-.0005,3.5449096-1.5835,3.5449096-1.5835l-.001,4.9341-5.3799095-.001Z" fill="url(#New_Gradient_402)" fill-rule="evenodd"/>
        </g>
      </g>
    </g>
    <g>
      <line x1="8.0263907" y1="9.7363" x2="11.6024906" y2="9.7363" fill="none" stroke="#999" stroke-linecap="round" stroke-miterlimit="3.8637" stroke-width=".7125"/>
      <line x1="16.2821905" y1="6.7363" x2="19.8583904" y2="6.7363" fill="none" stroke="#999" stroke-linecap="round" stroke-miterlimit="3.8637" stroke-width=".7125"/>
      <line x1="13.667" y1="9.7363" x2="19.8583904" y2="9.7363" fill="none" stroke="#999" stroke-linecap="round" stroke-miterlimit="3.8637" stroke-width=".7125"/>
      <line x1="7.876" y1="18.7363" x2="16.7626905" y2="18.7363" fill="none" stroke="#999" stroke-linecap="round" stroke-miterlimit="3.8637" stroke-width=".7125"/>
      <line x1="8.0263907" y1="12.7363" x2="10.915" y2="12.7363" fill="none" stroke="#999" stroke-linecap="round" stroke-miterlimit="3.8637" stroke-width=".7125"/>
      <line x1="12.6132906" y1="12.7363" x2="15.501" y2="12.7363" fill="none" stroke="#999" stroke-linecap="round" stroke-miterlimit="3.8637" stroke-width=".7125"/>
      <line x1="16.6474905" y1="12.7363" x2="19.8583904" y2="12.7363" fill="none" stroke="#999" stroke-linecap="round" stroke-miterlimit="3.8637" stroke-width=".7125"/>
      <line x1="8.0263907" y1="6.7363" x2="13.667" y2="6.7363" fill="none" stroke="#999" stroke-linecap="round" stroke-miterlimit="3.8637" stroke-width=".7125"/>
      <line x1="8.0263907" y1="15.7363" x2="12.749" y2="15.7363" fill="none" stroke="#999" stroke-linecap="round" stroke-miterlimit="3.8637" stroke-width=".7125"/>
      <line x1="14.0673906" y1="15.7363" x2="20.0868904" y2="15.7363" fill="none" stroke="#999" stroke-linecap="round" stroke-miterlimit="3.8637" stroke-width=".7125"/>
    </g>
  </g>
  <rect x="1.876" y="7" width="16" height="12" fill="url(#linear-gradient)" stroke="#333" stroke-width="2"/>
  <g mask="url(#mask-2)">
    <g>
      <rect x="1.876" y="7" width="16" height="12" fill="url(#linear-gradient-2)"/>
      <g>
        <circle cx="13.876" cy="11" r="2" fill="#c40000" stroke="#740000" stroke-width=".75"/>
        <circle cx="13.876" cy="11" r="2" fill="url(#linear-gradient-3)"/>
      </g>
      <g>
        <path d="M4.2860908,16.2334c1.0489092-.0083,1.5567-.7505,2.0507999-1.1646.543-.457,1.8545-.5478,2.1484999-1.0688,1.6953,1.5186,4.3514999,1.6924,5.6004999,3.2876.8604.2686.9073-.5122,1.4522-.5493.5078-.0337.9629095.4438,1.4746.7524.5391.3257,1.1797.5259,1.6963095,1.1177.7157904.8218.9188904,2.1938,1.167,2.9395-1.3994096-.0274-2.4317095.9511-4.25.9262-.8184095-.0112-1.9258094-.313-2.8926094-.372-.8652-.0538-1.623.1635-2.5429999.1704-.8886-.1177-1.8222-.23-2.8046999-.3443-1.5986-.1806-3.3104999-.3008-5.1522999-.355-.7743908-.1967-.8213-.1108-1.459-.4052.3945-1.2398-.9629-5.6446,1.8272-5.1031" fill="url(#linear-gradient-4)" stroke="#333" stroke-width="2"/>
        <path d="M4.2860908,16.2334c1.0489092-.0083,1.5567-.7505,2.0507999-1.1646.543-.457,1.8545-.5478,2.1484999-1.0688,1.6953,1.5186,4.3514999,1.6924,5.6004999,3.2876.8604.2686.9073-.5122,1.4522-.5493.5078-.0337.9629095.4438,1.4746.7524.5391.3257,1.1797.5259,1.6963095,1.1177.7157904.8218.9188904,2.1938,1.167,2.9395-1.3994096-.0274-2.4317095.9511-4.25.9262-.8184095-.0112-1.9258094-.313-2.8926094-.372-.8652-.0538-1.623.1635-2.5429999.1704-.8886-.1177-1.8222-.23-2.8046999-.3443-1.5986-.1806-3.3104999-.3008-5.1522999-.355-.7743908-.1967-.8213-.1108-1.459-.4052.3945-1.2398-.9629-5.6446,1.8272-5.1031" fill="url(#radial-gradient)"/>
      </g>
    </g>
  </g>
</svg>