<?xml version="1.0" encoding="UTF-8"?>
<svg id="Set_2" data-name="Set 2" xmlns="http://www.w3.org/2000/svg" width="24" height="24" viewBox="0 0 24 24">
  <polygon points="7.751 8 6.1952926 17.7637 3.7851926 12.8335 2 13.7139 2.1942927 14.1177 3.3690926 13.5425 6.3427926 19.6851 8.0780925 8.6855 21.3310922 8.6855 21.3310922 8 7.751 8"/>
  <path d="M16.8817923,17.8491c0,.6436.0176,1.3037.1182077,1.9302h-.7461077l-.1172-1.1675h-.0342c-.4062.6265-1.3037,1.354-2.6073999,1.354-1.6416,0-2.3876999-1.1509-2.3876999-2.2348,0-1.8789,1.6436076-3.0142,4.9618999-2.98v-.2207c0-.7949-.1532923-2.4043-2.0838999-2.3872-.711,0-1.4561.1865-2.0488999.6098l-.2539-.5932c.7451-.4908,1.6602-.6939,2.3876999-.6939,2.3544999,0,2.8114999,1.7608,2.8114999,3.2002v3.1831ZM16.0692923,15.4282c-1.7792923-.0512-4.1151999.2202-4.1151999,2.1675,0,1.168.7793,1.6929,1.626,1.6929,1.3535,0,2.1327999-.8296,2.4032999-1.6255.0684-.1694.0859-.355.0859-.4907v-1.7442Z"/>
</svg>