<?xml version="1.0" encoding="UTF-8"?>
<svg id="Set_5" data-name="Set 5" xmlns="http://www.w3.org/2000/svg" width="24" height="24" viewBox="0 0 24 24">
  <g>
    <g>
      <rect x="18" y="21" width="1" height="1"/>
      <rect x="14" y="21" width="1" height="1"/>
      <rect x="10" y="21" width="1" height="1"/>
      <rect x="6" y="21" width="1" height="1"/>
      <rect x="2" y="5" width="1" height="1"/>
      <rect x="2" y="9" width="1" height="1"/>
      <rect x="2" y="13" width="1" height="1"/>
      <rect x="2" y="17" width="1" height="1"/>
      <rect x="2" y="21" width="1" height="1"/>
    </g>
    <rect x="3" y="3" width="1" height="18"/>
    <rect x="3" y="20" width="18" height="1"/>
  </g>
  <g>
    <g>
      <rect x="18" y="21" width="1" height="1"/>
      <rect x="14" y="21" width="1" height="1"/>
      <rect x="10" y="21" width="1" height="1"/>
      <rect x="6" y="21" width="1" height="1"/>
      <rect x="2" y="5" width="1" height="1"/>
      <rect x="2" y="9" width="1" height="1"/>
      <rect x="2" y="13" width="1" height="1"/>
      <rect x="2" y="17" width="1" height="1"/>
      <rect x="2" y="21" width="1" height="1"/>
    </g>
    <rect x="3" y="3" width="1" height="18"/>
    <rect x="3" y="20" width="18" height="1"/>
  </g>
</svg>