<?xml version="1.0" encoding="UTF-8"?>
<svg id="Icons_-_24x24" data-name="Icons - 24x24" xmlns="http://www.w3.org/2000/svg" width="24" height="24" xmlns:xlink="http://www.w3.org/1999/xlink" viewBox="0 0 24 24">
  <defs>
    <radialGradient id="radial-gradient" cx="-50.4310777" cy="-46.5364116" fx="-50.4310777" fy="-46.5364116" r="12.6579495" gradientTransform="translate(80.0548 87.522) rotate(13.2104354) scale(1.3849495 1.2358082) skewX(11.8302285)" gradientUnits="userSpaceOnUse">
      <stop offset=".191011" stop-color="gray"/>
      <stop offset=".2044765" stop-color="gray"/>
      <stop offset=".707865" stop-color="gray"/>
    </radialGradient>
    <radialGradient id="radial-gradient-2" cx="-52.1069421" cy="-47.7208006" fx="-52.1069421" fy="-47.7208006" r="11.8694855" gradientTransform="translate(80.0548 87.522) rotate(13.2104354) scale(1.3849495 1.2358082) skewX(11.8302285)" gradientUnits="userSpaceOnUse">
      <stop offset=".44382" stop-color="#f9e917"/>
      <stop offset=".4866018" stop-color="#f8e616"/>
      <stop offset=".5107358" stop-color="#f5de16"/>
      <stop offset=".5302345" stop-color="#f0d015"/>
      <stop offset=".5471417" stop-color="#eabd15"/>
      <stop offset=".561798" stop-color="#e2a514"/>
      <stop offset=".702247" stop-color="#f9e917"/>
      <stop offset=".842697" stop-color="#e2a514"/>
      <stop offset=".938202" stop-color="#f9e917"/>
      <stop offset="1" stop-color="#d68112"/>
    </radialGradient>
    <radialGradient id="radial-gradient-3" cx="-50.3772425" cy="-46.5517692" fx="-50.3772425" fy="-46.5517692" r="11.0981189" gradientTransform="translate(80.0548 87.522) rotate(13.2104354) scale(1.3849495 1.2358082) skewX(11.8302285)" gradientUnits="userSpaceOnUse">
      <stop offset=".191011" stop-color="gray"/>
      <stop offset=".2277988" stop-color="#9f9f9f"/>
      <stop offset=".2768374" stop-color="#c1c1c1"/>
      <stop offset=".3268178" stop-color="#dcdcdc"/>
      <stop offset=".3774113" stop-color="#efefef"/>
      <stop offset=".4290096" stop-color="#fbfbfb"/>
      <stop offset=".483146" stop-color="#fff"/>
      <stop offset=".5369519" stop-color="#fcfcfc"/>
      <stop offset=".5758184" stop-color="#f2f2f2"/>
      <stop offset=".6099931" stop-color="#e2e2e2"/>
      <stop offset=".6414513" stop-color="#ccc"/>
      <stop offset=".6710511" stop-color="#afafaf"/>
      <stop offset=".6988858" stop-color="#8c8c8c"/>
      <stop offset=".707865" stop-color="gray"/>
    </radialGradient>
    <mask id="mask" x=".5229" y="1.6050689" width="22.826003" height="23.1006378" maskUnits="userSpaceOnUse">
      <path d="M20.8164,12.4468c-.1177,4.6938-3.8227,8.0864-8.6601,8.1928-4.4449.0977-8.7686-3.8437-8.6583-8.2094.1192-4.6963,3.8204-8.0869,8.6583-8.1934,4.4467-.0967,8.7675,3.8438,8.6601,8.21ZM12.1563,8.1958c-2.4737-.0034-4.4791,1.894-4.4791,4.2378,0,2.3433,2.0054,4.2446,4.4791,4.2485,2.4731.0025,4.4809-1.8965,4.4809-4.2397,0-2.3428-2.0078-4.2446-4.4809-4.2466Z" fill="#fff"/>
    </mask>
    <radialGradient id="radial-gradient-4" cx="12.1311639" cy="12.4890773" fx="12.1311639" fy="12.4890773" r="14.3182661" gradientUnits="userSpaceOnUse">
      <stop offset=".224719" stop-color="gray"/>
      <stop offset=".2642511" stop-color="#9c9c9c"/>
      <stop offset=".332586" stop-color="#c6c6c6"/>
      <stop offset=".3942686" stop-color="#e5e5e5"/>
      <stop offset=".4465473" stop-color="#f8f8f8"/>
      <stop offset=".483146" stop-color="#fff"/>
      <stop offset=".5207264" stop-color="#fafafa"/>
      <stop offset=".5611494" stop-color="#ededed"/>
      <stop offset=".6029126" stop-color="#d8d8d8"/>
      <stop offset=".645574" stop-color="#bababa"/>
      <stop offset=".6885269" stop-color="#939393"/>
      <stop offset=".707865" stop-color="gray"/>
    </radialGradient>
    <radialGradient id="radial-gradient-5" cx="-39.6476139" cy="-40.3055883" fx="-39.6476139" fy="-40.3055883" r="6.739246" gradientTransform="translate(66.8503 77.9881) rotate(13.2114368) scale(1.4439157 1.288374) skewX(11.8306806)" gradientUnits="userSpaceOnUse">
      <stop offset=".325843" stop-color="#740000"/>
      <stop offset=".623595" stop-color="#df4e15"/>
      <stop offset=".6767685" stop-color="#da4a14"/>
      <stop offset=".7394779" stop-color="#cb3f11"/>
      <stop offset=".8070087" stop-color="#b42e0c"/>
      <stop offset=".8774485" stop-color="#931606"/>
      <stop offset=".932584" stop-color="#740000"/>
    </radialGradient>
  </defs>
  <path d="M20.5381,14.4219c.1645-.6265.2612-1.2852.2783-1.9751.022-.9322-.1587-1.8472-.4976-2.7046.1939-1.3276.3531-2.6602-.2104-4.0479-.8809-2.1611-3.6997-1.7988-6.1792-1.2837-.5811-.1259-1.1758-.186-1.7729-.1738-1.0958.0254-2.1338.2178-3.085.5567-2.1792-.4585-4.9526-1.4087-6.2046-.1729-1.3135,1.2964-.0234,3.9404.8271,6.1753-.1137.5244-.1816,1.0688-.1958,1.6343-.0244.9946.1832,1.9663.566,2.8725-.2749,1.7417-.521,3.7129.833,4.8545,1.3286,1.1201,3.3467.6812,5.1303.2266.6949.1792,1.4107.2705,2.129.2558.9726-.0209,1.8969-.1782,2.7583-.4472,2.4277.5234,5.3042,1.3789,6.498.0117,1.1543-1.3218-.1499-3.7983-.8745-5.7822ZM18.7964,5.3789c.6865.5723.8179,1.6719.7485,2.8857-.9194-1.3925-2.2685-2.541-3.811-3.2529,1.251-.1924,2.3999-.1904,3.0625.3672ZM12.1563,16.6821c-2.4737-.0039-4.4791-1.9052-4.4791-4.2485,0-2.3438,2.0054-4.2412,4.4791-4.2378,2.4731.002,4.4809,1.9038,4.4809,4.2466,0,2.3432-2.0078,4.2422-4.4809,4.2397ZM3.7471,5.3779c.6982-.6904,2.3877-.3808,4.0092.0064-1.6455.9057-2.9233,2.3037-3.6333,4.0322-.6269-1.6616-1.1084-3.3149-.3759-4.0386ZM5.5269,19.5146c-.5933-.5-.6734-1.5361-.5835-2.6489.8579,1.2002,2.0376,2.2031,3.3754,2.874-1.1469.2071-2.2265.2535-2.7919-.2251ZM20.4985,19.4839c-.6631.7583-2.4106.5239-4.1977.1455,1.6728-.8491,2.9931-2.1958,3.7641-3.8765.5816,1.4624,1.0835,2.9878.4336,3.731Z" fill="url(#radial-gradient)" stroke="#000" stroke-miterlimit="3.8637" stroke-width="2"/>
  <path d="M18.7964,5.3789c1.6919,1.4155.0039,6.0464.2959,7.6816.2866,1.6368,2.5117,5.1583,1.4062,6.4234-1.2524,1.4331-6.3808-.6841-8.3296-.5957-1.3442.061-5.3413,1.7251-6.642.6264-1.3482-1.1376-.0401-5.0483-.1407-6.3535-.1416-1.8437-3.0088-6.4301-1.6391-7.7832,1.1792-1.166,5.187.5244,6.9238.6089,1.7446.0864,6.46-2.0063,8.1255-.6079M10.4644,5.001c-2.2032-.1089-6.0577-1.9024-7.5977-.3804-1.7896,1.769,1.2563,6.0386,1.4341,8.3657.143,1.8614-1.44,5.4532.5962,7.1709,2.0171,1.7007,5.6338-.1943,7.5859-.2837,2.4639-.1108,7.2881,2.209,8.9297.3306,1.4219-1.6274-.8848-5.0073-1.2466-7.0605-.4429-2.504.9859-4.8833-.0576-7.4493-1.374-3.3789-7.499-.5879-9.644-.6933" fill="url(#radial-gradient-2)"/>
  <path d="M20.8164,12.4468c-.1177,4.6938-3.8227,8.0864-8.6601,8.1928-4.4449.0977-8.7686-3.8437-8.6583-8.2094.1192-4.6963,3.8204-8.0869,8.6583-8.1934,4.4467-.0967,8.7675,3.8438,8.6601,8.21ZM12.1563,8.1958c-2.4737-.0034-4.4791,1.894-4.4791,4.2378,0,2.3433,2.0054,4.2446,4.4791,4.2485,2.4731.0025,4.4809-1.8965,4.4809-4.2397,0-2.3428-2.0078-4.2446-4.4809-4.2466Z" fill="url(#radial-gradient-3)" stroke="#000" stroke-miterlimit="3.8637" stroke-width="2"/>
  <g mask="url(#mask)">
    <g>
      <path d="M20.8164,12.4468c-.1177,4.6938-3.8227,8.0864-8.6601,8.1928-4.4449.0977-8.7686-3.8437-8.6583-8.2094.1192-4.6963,3.8204-8.0869,8.6583-8.1934,4.4467-.0967,8.7675,3.8438,8.6601,8.21ZM12.1563,8.1958c-2.4737-.0034-4.4791,1.894-4.4791,4.2378,0,2.3433,2.0054,4.2446,4.4791,4.2485,2.4731.0025,4.4809-1.8965,4.4809-4.2397,0-2.3428-2.0078-4.2446-4.4809-4.2466Z" fill="url(#radial-gradient-4)"/>
      <path d="M22.4233,10.332c-2.9492-.4961-5.3686.3516-9.3173-.5747-.1338-1.4887.5014-4.7387,2.0332-6.3735-.8687-.4024-1.7725-.7315-2.7061-.9517-.8662-.2026-1.7051-.3012-2.5171-.3193-1.0981,2.874-1.7427,5.8735-.2168,9.4995-2.8335,1.1787-5.8393-.2876-8.602-2.2842-.0459.3794-.0743.7676-.0743,1.1685,0,1.4678.3135,2.9399.8819,4.3481,3.1982,1.2427,6.4018,1.7989,9.3017.5664.5796,3.0845-.7744,5.2212-2.622,6.9639,1.2036.6895,2.4966,1.2256,3.8486,1.5425.5176.1216,1.0225.1972,1.521.251,1.3408-3.2183,2.3838-6.5171.6606-10.6099,2.7701,1.498,7.1495,2.0059,8.2017,1.7715l-.3931-4.9981Z" fill="url(#radial-gradient-5)" stroke="#c42e00" stroke-miterlimit="3.8637"/>
      <path d="M20.8164,12.4468c-.1177,4.6938-3.8227,8.0864-8.6601,8.1928-4.4449.0977-8.7686-3.8437-8.6583-8.2094.1192-4.6963,3.8204-8.0869,8.6583-8.1934,4.4467-.0967,8.7675,3.8438,8.6601,8.21ZM12.1563,8.1958c-2.4737-.0034-4.4791,1.894-4.4791,4.2378,0,2.3433,2.0054,4.2446,4.4791,4.2485,2.4731.0025,4.4809-1.8965,4.4809-4.2397,0-2.3428-2.0078-4.2446-4.4809-4.2466Z" fill="none"/>
    </g>
  </g>
</svg>