<?xml version="1.0" encoding="UTF-8"?>
<svg id="Icons_-_24x24" data-name="Icons - 24x24" xmlns="http://www.w3.org/2000/svg" width="24" height="24" xmlns:xlink="http://www.w3.org/1999/xlink" viewBox="0 0 24 24">
  <defs>
    <radialGradient id="New_Gradient_54" data-name="New Gradient 54" cx="7.8783952" cy="-9.5948361" fx="7.8783952" fy="-9.5948361" r="19.5067004" gradientTransform="translate(0 13.7395) scale(1 1.1193)" gradientUnits="userSpaceOnUse">
      <stop offset="0" stop-color="#b7e9ff"/>
      <stop offset=".69101" stop-color="#3c97f6"/>
      <stop offset="1" stop-color="#0342d3"/>
    </radialGradient>
    <mask id="mask" x="4.3203" y="13.5918" width="16.1465" height="7.0068" maskUnits="userSpaceOnUse">
      <polygon points="20.4668 18.2783 19.1514 19.874 4.9517 19.9668 4.8696 15.5352 4.6831 14.5518 20.4668 18.2783" fill="#fff" fill-rule="evenodd"/>
    </mask>
    <linearGradient id="New_Gradient_410" data-name="New Gradient 410" x1="60.6123078" y1="-34.9818693" x2="68.868795" y2="-43.2383565" gradientTransform="translate(-73.4336 35.2501958) rotate(12.1755879) scale(.9307361 .8723619) skewX(-18.2786539)" gradientUnits="userSpaceOnUse">
      <stop offset="0" stop-color="#999"/>
      <stop offset=".382019" stop-color="#999"/>
      <stop offset=".786514" stop-color="#666"/>
      <stop offset="1" stop-color="#666"/>
    </linearGradient>
    <mask id="mask-1" x="1" y="7.4722" width="21.4141" height="12.727" maskUnits="userSpaceOnUse">
      <path d="M20.4307,9.1123l-4.083.0523-11.4717-.0523s-2.7261,3.2739-1.6787,8.3394l1.3818,1.9262h2.3506l.0112.0679,13.3921-.0679,1.3828-1.9262c1.0469-5.0655-1.2851-8.3394-1.2851-8.3394Z" fill="#fff" fill-rule="evenodd"/>
    </mask>
    <radialGradient id="New_Gradient_13" data-name="New Gradient 13" cx="7.5283318" cy="10.8989621" fx="7.5283318" fy="10.8989621" r="13.8580103" gradientUnits="userSpaceOnUse">
      <stop offset="0" stop-color="#f2f2f2"/>
      <stop offset="1" stop-color="#b2b2b2"/>
    </radialGradient>
    <linearGradient id="New_Gradient_391" data-name="New Gradient 391" x1="48.2502515" y1="-72.0920875" x2="63.2587513" y2="-63.4269261" gradientTransform="translate(-72.9633 68.1076) rotate(14.8863413) scale(.9416027 1.0620235) skewX(-13.0522057)" gradientUnits="userSpaceOnUse">
      <stop offset="0" stop-color="#fff"/>
      <stop offset=".449432" stop-color="#fff"/>
      <stop offset="1" stop-color="#d9d9d9"/>
    </linearGradient>
    <linearGradient id="New_Gradient_404" data-name="New Gradient 404" x1="44.835469" y1="-72.5513076" x2="66.0591993" y2="-66.8644262" gradientTransform="translate(-72.9633 68.1076) rotate(14.8863413) scale(.9416027 1.0620235) skewX(-13.0522057)" gradientUnits="userSpaceOnUse">
      <stop offset="0" stop-color="#fff"/>
      <stop offset="1" stop-color="#999"/>
    </linearGradient>
    <linearGradient id="New_Gradient_406" data-name="New Gradient 406" x1="-.5829872" y1="-76.7354217" x2="2.2676392" y2="-66.0967393" gradientTransform="translate(-6.0072 77.8672) rotate(14.0007073) scale(1.0949273 1.0252468)" gradientUnits="userSpaceOnUse">
      <stop offset="0" stop-color="#fff"/>
      <stop offset=".662918" stop-color="#e5e5e5"/>
      <stop offset="1" stop-color="#737373"/>
    </linearGradient>
    <radialGradient id="New_Gradient_403" data-name="New Gradient 403" cx="31.2144861" cy="-82.2625303" fx="31.2144861" fy="-82.2625303" r="1.3964081" gradientTransform="translate(-61.1769 98.1342) rotate(17.2967718) scale(.9313164 1.2012358) skewX(-7.4101613)" gradientUnits="userSpaceOnUse">
      <stop offset="0" stop-color="#23a11f"/>
      <stop offset="1" stop-color="#005e00"/>
    </radialGradient>
    <radialGradient id="New_Gradient_398" data-name="New Gradient 398" cx="33.2259584" cy="-82.7480479" fx="33.2259584" fy="-82.7480479" r="1.3981199" gradientTransform="translate(-61.1769 98.1342) rotate(17.2967718) scale(.9313164 1.2012358) skewX(-7.4101613)" gradientUnits="userSpaceOnUse">
      <stop offset="0" stop-color="red"/>
      <stop offset="1" stop-color="#a70000"/>
    </radialGradient>
    <radialGradient id="New_Gradient_405" data-name="New Gradient 405" cx="42.4020966" cy="-60.1876319" fx="42.4020966" fy="-60.1876319" r="15.2514101" gradientTransform="translate(-61.1769 57.1492) rotate(13.8602388) scale(.9158673 .9676383) skewX(-15.1644557)" gradientUnits="userSpaceOnUse">
      <stop offset="0" stop-color="#3c97f6"/>
      <stop offset=".235962" stop-color="#3c97f6"/>
      <stop offset="1" stop-color="#0342d3"/>
    </radialGradient>
    <linearGradient id="New_Gradient_390" data-name="New Gradient 390" x1="60.7618009" y1="-71.8999464" x2="62.7284451" y2="-75.4478664" gradientTransform="translate(-72.9633 68.1076) rotate(14.8863413) scale(.9416027 1.0620235) skewX(-13.0522057)" gradientUnits="userSpaceOnUse">
      <stop offset="0" stop-color="#3c97f6"/>
      <stop offset="1" stop-color="#0342d3"/>
    </linearGradient>
    <radialGradient id="New_Gradient_389" data-name="New Gradient 389" cx="45.7414975" cy="-64.9340771" fx="45.7414975" fy="-64.9340771" r="11.1853858" gradientTransform="translate(-61.1769 57.1492) rotate(13.8602388) scale(.9158673 .9676383) skewX(-15.1644557)" gradientUnits="userSpaceOnUse">
      <stop offset="0" stop-color="#b7e9ff"/>
      <stop offset=".69101" stop-color="#3c97f6"/>
      <stop offset="1" stop-color="#0342d3"/>
    </radialGradient>
  </defs>
  <path d="M20.4307,9.1123l-1.3809.0195c-.0029-.0029-.0093-.0078-.0093-.0078l-.7275.0049c.0015.0029.0015.0068.0029.0112l-.8911.0083.2666-6.1484-9.436.0015-.357,6.125-.5654-.003c-.0005-.0009-.0015-.0073-.0015-.0073l-.2876.0064-2.562-.0103s-2.332,3.2739-1.2846,8.3394l1.3818,1.9262h.355l.0176.5889,14.1997-.0928.7949-.4922.3867-.0039,1.3828-1.9262c1.0469-5.0655-1.2851-8.3394-1.2851-8.3394Z" fill="url(#New_Gradient_54)" stroke="#000" stroke-miterlimit="3.8637" stroke-width="2"/>
  <g>
    <g>
      <g mask="url(#mask)">
        <g>
          <polygon points="20.4668 18.2783 19.1514 19.874 4.9517 19.9668 4.8696 15.5352 4.6831 14.5518 20.4668 18.2783" fill="gray" fill-rule="evenodd"/>
          <polygon points="4.5254 20.5986 6.1445 18.4063 4.5366 13.5918 4.3203 15.4014 4.5254 20.5986" fill="url(#New_Gradient_410)" fill-rule="evenodd"/>
        </g>
      </g>
      <g mask="url(#mask-1)">
        <g>
          <path d="M20.4307,9.1123l-4.083.0523-11.4717-.0523s-2.7261,3.2739-1.6787,8.3394l1.3818,1.9262h2.3506l.0112.0679,13.3921-.0679,1.3828-1.9262c1.0469-5.0655-1.2851-8.3394-1.2851-8.3394Z" fill="url(#New_Gradient_13)" fill-rule="evenodd"/>
          <path d="M2.6621,8.6973s1.9922,3.3847,2.5337,8.9428l-1.6572,2.5591-.8853-6.9785.0088-4.5234Z" fill="#e5e5e5" fill-rule="evenodd"/>
          <polygon points="2.957 19.8486 4.9399 16.7095 22.4141 16.8115 20.7295 19.687 2.957 19.8486" fill="#b2b2b2" fill-rule="evenodd"/>
          <polygon points="19.1768 7.4722 18.6904 12.1938 7.769 12.5767 6.7954 8.6763 19.1768 7.4722" fill="#4c4c4c" fill-rule="evenodd"/>
          <path d="M3.1992,9.3213s.1392.7817.064,2.1289c-.0781,1.3936-.3897,2.9966-1.3511,5.4531l19.8125.1021c.333.0034.207.4443-.1255.4424l-20.1753-.1065c-.0913-.001-.1582-.0937-.1284-.1709,1.1611-2.8291,1.752-5.6494,1.4214-7.6611-.0293-.1782.4512-.3667.4824-.188Z" fill="url(#New_Gradient_391)"/>
          <path d="M2.9468,9.1465c-.4131.7607-.249,2.5386.1513,4.2505.4966,2.1157,1.1392,2.3095,1.8438,2.414l15.4487-.0166c1.4273-.4243.5464-4.3916.6695-4.2656,1.2392,2.8716,1.1064,5.6719.833,5.7075l-18.959.0025s.1094-1.4102-.4219-4.0215c-.5278-2.5869-1.5122-4.0606-1.5122-4.0606l1.9468-.0102Z" fill="url(#New_Gradient_404)"/>
          <line x1="4.6226" y1="17.2808" x2="3.6279" y2="19.0571" fill="none" stroke="#fff" stroke-linecap="round" stroke-miterlimit="3.8637" stroke-width=".75"/>
        </g>
      </g>
      <polygon points="17.2861 12.0967 7.769 12.5767 7.4619 9.7993 8.2554 3.0015 17.6914 3 17.2861 12.0967" fill="url(#New_Gradient_406)" fill-rule="evenodd"/>
      <g>
        <path d="M5.1187,15.646c.1601-.3774.6196-.5884,1.0253-.4697.4039.1211.6045.5224.4439.8989-.1607.3789-.6206.5874-1.0264.4683-.4052-.1187-.6035-.5215-.4428-.8975Z" fill="url(#New_Gradient_403)" fill-rule="evenodd"/>
        <path d="M7.1362,15.6641c.1626-.3785.6206-.5894,1.0274-.4698.4067.1187.6064.521.4448.899-.1611.3789-.6216.5883-1.0273.4687-.4068-.1201-.604-.5205-.4449-.8979Z" fill="url(#New_Gradient_398)" fill-rule="evenodd"/>
      </g>
      <g>
        <path d="M18.313,9.1289c.3896.9395-.229,1.8276-.229,1.8276,0,0-2.7578-.685-10.5659-.1074-.3623-1.0132-.1866-1.7329-.1866-1.7329l-.9917.0191c-.1499,2.289-.789,4.8505-.789,4.8505,0,0,1.29.9009,7.2378.9649,5.3833.0615,7.0874-.6416,7.0874-.6416,0,0,.9492-1.0532.0425-3.5801-.461-1.2905-.878-1.605-.878-1.605l-.7275.0049Z" fill="url(#New_Gradient_405)" fill-rule="evenodd"/>
        <path d="M16.8306,11.0278s.9834.1211,1.6782.2554c0,0,.3486-1.2822.1313-1.958h.2886s.8423,1.4673.9243,3.8252c0,0-.6543-.8765-1.2387-1.2998-.5323-.3862-1.7837-.8228-1.7837-.8228Z" fill="url(#New_Gradient_390)" fill-rule="evenodd"/>
        <path d="M7.2397,11.2075c.3931-.0376,2.2271-.2036,4.1509-.2383,0,0,1.4419-.0283,2.5537,1.2178,1.2163,1.3565,5.3741,1.6026,5.3741,1.6026,0,0-6.7813.8149-11.5811-.1246l-1.1426-.1943c-.1054-2.5093.107-4.1953.107-4.1953l.3769-.002s-.1274.7539.1611,1.9341Z" fill="url(#New_Gradient_389)"/>
      </g>
    </g>
    <line x1="8.9956" y1="5.7939" x2="16.1313" y2="5.8423" fill="none" stroke="#999" stroke-linejoin="round" stroke-width=".75"/>
    <line x1="9.1274" y1="8.2251" x2="15.3501" y2="8.2656" fill="none" stroke="#999" stroke-linecap="round" stroke-linejoin="round" stroke-width=".75"/>
  </g>
</svg>