<?xml version='1.0' encoding='UTF-8'?>
<svg xmlns="http://www.w3.org/2000/svg" xmlns:xlink="http://www.w3.org/1999/xlink" id="Set_3" data-name="Set 3" width="24" height="24" viewBox="0 0 24 24">
  <defs>
    <linearGradient id="New_Gradient_87" data-name="New Gradient 87" x1="2.0653951" y1="13.43165" x2="16.5478947" y2="13.43165" gradientUnits="userSpaceOnUse">
      <stop offset="0" stop-color="#999"/>
      <stop offset=".20224" stop-color="#f2f2f2"/>
      <stop offset=".516861" stop-color="#b2b2b2"/>
      <stop offset=".769669" stop-color="#b2b2b2"/>
      <stop offset="1" stop-color="#737373"/>
    </linearGradient>
    <linearGradient id="New_Gradient_86" data-name="New Gradient 86" x1="18.2822586" y1="14.286224" x2="13.4600187" y2="19.1084639" gradientUnits="userSpaceOnUse">
      <stop offset="0" stop-color="#4c4c4c"/>
      <stop offset=".623596" stop-color="#d9d9d9"/>
      <stop offset="1" stop-color="#4c4c4c"/>
    </linearGradient>
    <linearGradient id="New_Gradient_85" data-name="New Gradient 85" x1="21.6488635" y1="15.8106067" x2="14.9841398" y2="22.4753304" gradientUnits="userSpaceOnUse">
      <stop offset="0" stop-color="#a70000"/>
      <stop offset=".662918" stop-color="#df4e15"/>
      <stop offset="1" stop-color="#740000"/>
    </linearGradient>
    <linearGradient id="New_Gradient_84" data-name="New Gradient 84" x1="19.3246643" y1="19.6335385" x2="20.839127" y2="22.0571853" gradientUnits="userSpaceOnUse">
      <stop offset="0" stop-color="#df4e15"/>
      <stop offset="1" stop-color="#c42e00"/>
    </linearGradient>
    <linearGradient id="New_Gradient_83" data-name="New Gradient 83" x1="19.3246643" y1="19.6335385" x2="20.839127" y2="22.0571853" gradientUnits="userSpaceOnUse">
      <stop offset="0" stop-color="#df4e15"/>
      <stop offset="1" stop-color="#c42e00"/>
    </linearGradient>
    <mask id="mask" x="1.876" y="2" width="14.6718947" height="15.8076" maskUnits="userSpaceOnUse">
      <path d="M9.3085949,2.4053c3.9979999,0,7.2392998,2.8818,7.2392998,6.4375,0,3.5556-3.2412999,6.4385-7.2392998,6.4385-3.9999999,0-7.2421998-2.8829-7.2421998-6.4385,0-3.5557,3.2421999-6.4375,7.2421998-6.4375Z" fill="#fff"/>
    </mask>
    <linearGradient id="New_Gradient_80" data-name="New Gradient 80" x1="2.0663951" y1="8.8433" x2="16.5478947" y2="8.8433" gradientUnits="userSpaceOnUse">
      <stop offset="0" stop-color="#999"/>
      <stop offset=".219101" stop-color="#b2b2b2"/>
      <stop offset=".466293" stop-color="#b2b2b2"/>
      <stop offset=".769669" stop-color="#f2f2f2"/>
      <stop offset="1" stop-color="#737373"/>
    </linearGradient>
    <mask id="mask-1" x="2.3135" y="3.7656" width="13.9872947" height="14.042" maskUnits="userSpaceOnUse">
      <path d="M9.3085949,4.2441c3.5966999,0,6.5136998,2.5957,6.5136998,5.795,0,3.2011-2.9169999,5.7939-6.5136998,5.7939-3.6005949,0-6.5165949-2.5928-6.5165949-5.7939,0-3.1993,2.916-5.795,6.5165949-5.795Z" fill="#fff" stroke="#fff" stroke-miterlimit="3.8637" stroke-width=".957"/>
    </mask>
    <linearGradient id="New_Gradient_81" data-name="New Gradient 81" x1="2.792" y1="10.03855" x2="15.8222947" y2="10.03855" gradientUnits="userSpaceOnUse">
      <stop offset="0" stop-color="#5587c0"/>
      <stop offset=".20787" stop-color="#97bae0"/>
      <stop offset=".865173" stop-color="#b3e0ff"/>
      <stop offset="1" stop-color="#5587c0"/>
    </linearGradient>
    <radialGradient id="New_Gradient_82" data-name="New Gradient 82" cx="32.0906291" cy="12.5158737" fx="32.0906291" fy="12.5158737" r="11.7065582" gradientTransform="translate(-23.1696221 -9.1169) scale(.8903 1.2253)" gradientUnits="userSpaceOnUse">
      <stop offset="0" stop-color="#78dcff"/>
      <stop offset="1" stop-color="#b7e9ff"/>
    </radialGradient>
    <linearGradient id="linear-gradient" x1="4.2162576" y1="3.6739845" x2="13.9874043" y2="13.4451312" gradientUnits="userSpaceOnUse">
      <stop offset="0" stop-color="gray"/>
      <stop offset=".187809" stop-color="#82868b"/>
      <stop offset=".5233754" stop-color="#8a99aa"/>
      <stop offset=".9651405" stop-color="#95b7db"/>
      <stop offset="1" stop-color="#97bae0"/>
    </linearGradient>
    <linearGradient id="New_Gradient_79" data-name="New Gradient 79" x1="4.4217666" y1="3.9575839" x2="14.192555" y2="13.7283723" gradientUnits="userSpaceOnUse">
      <stop offset="0" stop-color="gray"/>
      <stop offset="1" stop-color="#fff"/>
    </linearGradient>
    <mask id="mask-2" x="2.792" y="5.5561367" width="13.0302947" height="12.2514633" maskUnits="userSpaceOnUse">
      <path d="M7.162095,5.5918c1.2256-.2051,2.3007999.4951,2.3964999,1.5693.0957,1.0723-.8223,2.1104-2.0507999,2.3184-1.2265.2051-2.299795-.4951-2.3964999-1.5674-.0937-1.0742.8213-2.1113,2.0507999-2.3203Z" fill="#fff"/>
    </mask>
    <linearGradient id="linear-gradient-2" x1="7.843795" y1="7.0625" x2="12.9462948" y2="7.0625" gradientUnits="userSpaceOnUse">
      <stop offset="0" stop-color="#c9ffc9"/>
      <stop offset=".55618" stop-color="#00cd00"/>
      <stop offset="1" stop-color="#23a11f"/>
    </linearGradient>
    <radialGradient id="radial-gradient" cx="5.2244009" cy="8.4368487" fx="5.2244009" fy="8.4368487" r="3.368262" gradientUnits="userSpaceOnUse">
      <stop offset="0" stop-color="#fff"/>
      <stop offset=".0998635" stop-color="#fdfeff"/>
      <stop offset=".1358351" stop-color="#f6fcff"/>
      <stop offset=".1614737" stop-color="#eaf8ff"/>
      <stop offset=".1821949" stop-color="#d9f3ff"/>
      <stop offset=".1997497" stop-color="#c3ecff"/>
      <stop offset=".207865" stop-color="#b7e9ff"/>
      <stop offset=".426966" stop-color="#3c97f6"/>
      <stop offset=".865173" stop-color="#032c87"/>
      <stop offset="1" stop-color="#0342d3"/>
    </radialGradient>
    <mask id="mask-3" x="6.5627863" y="8.0001494" width="7.4739425" height="6.4998506" maskUnits="userSpaceOnUse">
      <path d="M7.485395,13.7871c-.8223,0-1.1573-.5547-.7481-1.2344l2.4355999-4.0429c.4101051-.6787,1.082-.6797,1.4941051-.002l2.4472948,4.0371c.4101.6778.0742,1.2344-.7461,1.2354l-4.8827999.0068Z" fill="#fff"/>
    </mask>
    <linearGradient id="linear-gradient-3" x1="6.5627863" y1="10.8936247" x2="13.2892466" y2="10.8936247" gradientUnits="userSpaceOnUse">
      <stop offset="0" stop-color="#f3403f"/>
      <stop offset=".3789338" stop-color="#d02a27"/>
      <stop offset=".7765172" stop-color="#b11713"/>
      <stop offset="1" stop-color="#a6100c"/>
    </linearGradient>
    <radialGradient id="radial-gradient-2" cx="9.9260164" cy="7.8174688" fx="9.9260164" fy="7.8174688" r="3.0907729" gradientTransform="translate(0 2.7916) scale(1 1.0364)" gradientUnits="userSpaceOnUse">
      <stop offset=".005618" stop-color="#ffffb3"/>
      <stop offset="1" stop-color="#d68100"/>
    </radialGradient>
    <linearGradient id="linear-gradient-4" x1="7.5347987" y1="14.7607749" x2="14.2623604" y2="14.7607749" gradientTransform="translate(-.2445 -1.9860164) scale(1 .9216)" gradientUnits="userSpaceOnUse"><stop offset="0" stop-color="#f3403f"/><stop offset=".3789338" stop-color="#d02a27"/><stop offset=".7765172" stop-color="#b11713"/><stop offset="1" stop-color="#a6100c"/></linearGradient>
  </defs>
  <g>
    <path d="M21.7216946,19.4316c-.8985-.8974-1.8662-1.8642-3.2079999-3.207-.5616-.5615-1.2158-.6982-1.8203-.5752l-1.4571-1.457c.8242-1.0459,1.3116-2.3154,1.3116-3.6895v-.582h-.1084c.0664-.3506.1084-.71.1084-1.0781,0-.5723-.0928-1.124-.25-1.6524-.2217-.7871-.5948-1.5117-1.0908947-2.1465-1.3017052-1.8574-3.5918051-3.0439-6.1054051-3.0439-3.8701999,0-7.2255949,2.8027-7.2255949,6.5596,0,.5175.0692951,1.0156.1903951,1.4922v.4511c0,3.5567,3.2421999,6.4395,7.2421998,6.4395,1.4414051,0,2.7831999-.3789,3.9120999-1.0274l.001.002,1.6015,1.6006c-.124.6054.0118052,1.2607.5752,1.8232,1.3418,1.3418,2.3106052,2.3086,3.2089999,3.2071,1.3164,1.3164,4.4286999-1.8018,3.1142999-3.1163Z" stroke="#000" stroke-linecap="round" stroke-linejoin="round" stroke-width="2"/>
    <g>
      <path d="M2.0653951,9.9209c.001.1885.001.3701.001.582,0,3.5567,3.2421999,6.4395,7.2421998,6.4395,3.9979999,0,7.2392998-2.8828,7.2392998-6.4395v-.582H2.0653951Z" fill="url(#New_Gradient_87)" fill-rule="evenodd"/>
      <path d="M15.0917948,14.0479l2.9492052,2.9501c1.8847946,1.8858.0175947,3.7549-1.8701053,1.8692l-2.9481999-2.9502c-1.2481-1.2461.6211-3.1143,1.8691-1.8691Z" fill="url(#New_Gradient_86)"/>
      <g>
        <path d="M18.5136947,16.2246c1.3418,1.3428,2.3094999,2.3096,3.2079999,3.207,1.3144,1.3145-1.7979,4.4327-3.1142999,3.1163-.8983947-.8985-1.8672-1.8653-3.2089999-3.2071-1.9648-1.9648,1.1504-5.081,3.1152999-3.1162Z" fill="url(#New_Gradient_85)"/>
        <path d="M15.6073948,16.8379c1.1358,1.1367,2.1972999,2.1982,2.9950999,2.9961" fill="none" stroke="#ff7845" stroke-linecap="round" stroke-miterlimit="3.8637" stroke-width="1.4356"/>
        <path d="M20.5058946,19.1416c1.0703-.1338,1.6933.4893,1.3769,1.375-.3183.8877-1.2969,1.8633-2.1835999,2.1807-.8867.3164-1.5088-.3067-1.375-1.377.1348053-1.0683,1.1113-2.0449,2.1816999-2.1787Z" fill="url(#New_Gradient_84)" stroke="#a70000" stroke-miterlimit="3.8637" stroke-width=".4785"/>
        <path d="M20.5058946,19.1416c1.0703-.1338,1.6933.4893,1.3769,1.375-.3183.8877-1.2969,1.8633-2.1835999,2.1807-.8867.3164-1.5088-.3067-1.375-1.377.1348053-1.0683,1.1113-2.0449,2.1816999-2.1787Z" fill="url(#New_Gradient_83)"/>
      </g>
      <g mask="url(#mask)">
        <g>
          <path d="M9.3085949,2.4053c3.9979999,0,7.2392998,2.8818,7.2392998,6.4375,0,3.5556-3.2412999,6.4385-7.2392998,6.4385-3.9999999,0-7.2421998-2.8829-7.2421998-6.4385,0-3.5557,3.2421999-6.4375,7.2421998-6.4375Z" fill="url(#New_Gradient_80)"/>
          <g mask="url(#mask-1)">
            <g>
              <path d="M9.3085949,4.2441c3.5966999,0,6.5136998,2.5957,6.5136998,5.795,0,3.2011-2.9169999,5.7939-6.5136998,5.7939-3.6005949,0-6.5165949-2.5928-6.5165949-5.7939,0-3.1993,2.916-5.795,6.5165949-5.795Z" fill="url(#New_Gradient_81)"/>
              <path d="M9.3085949,6.2188c3.5966999,0,6.5136998,2.5937,6.5136998,5.7949,0,3.1982-2.9169999,5.7939-6.5136998,5.7939-3.6005949,0-6.5165949-2.5957-6.5165949-5.7939,0-3.2012,2.916-5.7949,6.5165949-5.7949Z" fill="url(#New_Gradient_82)"/>
              <path d="M9.3085949,4.2441c3.5966999,0,6.5136998,2.5957,6.5136998,5.795,0,3.2011-2.9169999,5.7939-6.5136998,5.7939-3.6005949,0-6.5165949-2.5928-6.5165949-5.7939,0-3.1993,2.916-5.795,6.5165949-5.795Z" fill="none" stroke="#69c" stroke-miterlimit="3.8637" stroke-width=".957"/>
            </g>
          </g>
          <path d="M9.1015949,2c3.8700999,0,7.2264998,2.8027,7.2264998,6.5596,0,3.7568-3.3563999,6.5595-7.2264998,6.5595-3.8701999,0-7.2255949-2.8027-7.2255949-6.5595,0-3.7569,3.355395-6.5596,7.2255949-6.5596ZM9.1015949,2.7588c-3.8076999,0-6.6757998,2.7314-6.6757998,5.8008,0,3.0703,2.8680999,5.8027,6.6757998,5.8027,3.8075999,0,6.6756998-2.7324,6.6756998-5.8027,0-3.0694-2.8680999-5.8008-6.6756998-5.8008Z" fill="url(#linear-gradient)"/>
        </g>
      </g>
      <path d="M9.3085949,2.2842c3.8690999,0,7.2245998,2.8027,7.2245998,6.5586,0,3.7558-3.3554999,6.5595-7.2245998,6.5595-3.8710999,0-7.2284998-2.8037-7.2284998-6.5595,0-3.7559,3.3573999-6.5586,7.2284998-6.5586ZM9.3085949,3.042c-3.8085949,0-6.6757998,2.7305-6.6757998,5.8008,0,3.0713,2.8672049,5.8017,6.6757998,5.8017,3.8056999,0,6.6737998-2.7304,6.6737998-5.8017,0-3.0703-2.8680999-5.8008-6.6737998-5.8008Z" fill="url(#New_Gradient_79)"/>
      <g mask="url(#mask-2)">
        <g>
          <path d="M7.162095,5.5918c1.2256-.2051,2.3007999.4951,2.3964999,1.5693.0957,1.0723-.8223,2.1104-2.0507999,2.3184-1.2265.2051-2.299795-.4951-2.3964999-1.5674-.0937-1.0742.8213-2.1113,2.0507999-2.3203Z" fill="#b3e0ff"/>
          <path d="M9.3085949,6.2188c3.5966999,0,6.5136998,2.5937,6.5136998,5.7949,0,3.1982-2.9169999,5.7939-6.5136998,5.7939-3.6005949,0-6.5165949-2.5957-6.5165949-5.7939,0-3.2012,2.916-5.7949,6.5165949-5.7949Z" fill="#fff"/>
        </g>
      </g>
    </g>
  </g>
  <g opacity=".75">
    <g>
      <rect x="7.843795" y="4.9277" width="5.1024999" height="4.2696" fill="#fff" stroke="#000" stroke-width="2"/>
      <rect x="7.843795" y="4.9277" width="5.1024999" height="4.2696" fill="url(#linear-gradient-2)"/>
    </g>
    <g>
      <path d="M8.7724949,9.4766c0,1.2578-1.0196,2.2754-2.2753999,2.2754-1.2578,0-2.2782999-1.0176-2.2782999-2.2754s1.0205-2.2774,2.2782999-2.2774c1.2558,0,2.2753999,1.0196,2.2753999,2.2774Z" fill="#24972f" stroke="#000" stroke-width="2"/>
      <path d="M8.7724949,9.5508c0,1.2998-1.0537,2.3525-2.3525999,2.3525-1.296895,0-2.3505999-1.0527-2.3505999-2.3525,0-1.2988,1.053705-2.3516,2.3505999-2.3516,1.2989,0,2.3525999,1.0528,2.3525999,2.3516Z" fill="url(#radial-gradient)"/>
    </g>
    <g>
      <path d="M7.485395,13.7871c-.8223,0-1.1573-.5547-.7481-1.2344l2.4355999-4.0429c.4101051-.6787,1.082-.6797,1.4941051-.002l2.4472948,4.0371c.4101.6778.0742,1.2344-.7461,1.2354l-4.8827999.0068Z" fill="none" stroke="#000" stroke-width="2"/>
      <g mask="url(#mask-3)">
        <g>
          <path d="M7.485395,13.7871c-.8223,0-1.1573-.5547-.7481-1.2344l2.4355999-4.0429c.4101051-.6787,1.082-.6797,1.4941051-.002l2.4472948,4.0371c.4101.6778.0742,1.2344-.7461,1.2354l-4.8827999.0068Z" fill="url(#linear-gradient-3)"/>
          <path d="M7.485395,13.7871c-.8223,0-1.1573-.5547-.7481-1.2344l2.4355999-4.0429c.4101051-.6787,1.082-.6797,1.4941051-.002l2.4472948,4.0371c.4101.6778.0742,1.2344-.7461,1.2354l-4.8827999.0068Z" fill="url(#radial-gradient-2)"/>
          <path d="M8.2323949,14.5c-.8213,0-1.1592-.5547-.748-1.2354l2.4374999-4.0429c.4092-.6787,1.081-.6807,1.4931051-.001l2.4462948,4.0371c.4112.6777.0742,1.2344-.7461,1.2344l-4.8827999.0078Z" fill="url(#linear-gradient-4)"/>
        </g>
      </g>
    </g>
  </g>
</svg>