<?xml version="1.0" encoding="UTF-8"?>
<svg id="Set_3" data-name="Set 3" xmlns="http://www.w3.org/2000/svg" width="24" height="24" viewBox="0 0 24 24">
  <path d="M6.9541,20c-1.1484,0-1.9365-1.2402-1.9541-3.4785,0-2.2813.8594-3.5215,2.0537-3.5215,1.2305,0,1.9463,1.2705,1.9463,3.4277,0,2.3018-.751,3.5723-2.0371,3.5723h-.0088ZM7,19.292c.8057,0,1.1934-1.0947,1.1934-2.8232,0-1.6661-.3604-2.7608-1.1934-2.7608-.7246,0-1.1943,1.0625-1.1943,2.7608-.0186,1.7607.4521,2.8232,1.1845,2.8232h.0098Z"/>
  <g>
    <polyline points="12.873 17.7285 12.873 19 10 16.7441 12.873 14.4863 12.873 15.791"/>
    <polyline points="18.542 13.0254 18.542 16.7441 12 16.7441" fill="none" stroke="#000" stroke-linecap="round" stroke-miterlimit="3.8637" stroke-width=".7125"/>
  </g>
  <path d="M4.4873,11c-.2852,0-.4873-.2144-.4873-.5s.21-.5.5049-.5c.293,0,.4951.2061.4951.5,0,.2856-.2021.5-.5039.5h-.0088Z"/>
  <path d="M17.9541,11c-1.1484,0-1.9365-1.2397-1.9541-3.479,0-2.2813.8594-3.521,2.0537-3.521,1.2305,0,1.9463,1.2705,1.9463,3.4272,0,2.3023-.751,3.5728-2.0371,3.5728h-.0088ZM18,10.292c.8057,0,1.1934-1.0942,1.1934-2.8232,0-1.6666-.3604-2.7608-1.1934-2.7608-.7246,0-1.1943,1.0625-1.1943,2.7608-.0186,1.7607.4521,2.8232,1.1845,2.8232h.0098Z" opacity=".5"/>
  <path d="M12.9541,11c-1.1484,0-1.9365-1.2397-1.9541-3.479,0-2.2813.8594-3.521,2.0537-3.521,1.2305,0,1.9463,1.2705,1.9463,3.4272,0,2.3023-.751,3.5728-2.0371,3.5728h-.0088ZM13,10.292c.8057,0,1.1934-1.0942,1.1934-2.8232,0-1.6666-.3604-2.7608-1.1934-2.7608-.7246,0-1.1943,1.0625-1.1943,2.7608-.0186,1.7607.4521,2.8232,1.1845,2.8232h.0098Z"/>
  <path d="M7.9541,11c-1.1484,0-1.9365-1.2397-1.9541-3.479,0-2.2813.8594-3.521,2.0537-3.521,1.2305,0,1.9463,1.2705,1.9463,3.4272,0,2.3023-.751,3.5728-2.0371,3.5728h-.0088ZM8,10.292c.8057,0,1.1934-1.0942,1.1934-2.8232,0-1.6666-.3604-2.7608-1.1934-2.7608-.7246,0-1.1943,1.0625-1.1943,2.7608-.0186,1.7607.4521,2.8232,1.1845,2.8232h.0098Z"/>
</svg>