<?xml version="1.0" encoding="UTF-8"?>
<svg id="Set_5" data-name="Set 5" xmlns="http://www.w3.org/2000/svg" width="24" height="24" viewBox="0 0 24 24">
  <polygon points="16 4 12 4 8 4 4 4 4 8 4 12 4 16 4 20 8 20 12 20 16 20 20 20 20 16 20 12 20 8 20 4 16 4" fill="#c42e00" stroke="#000" stroke-linecap="round" stroke-linejoin="round" stroke-width="2"/>
  <g>
    <rect x="4" y="4" width="4" height="4" fill="#78dcff"/>
    <rect x="8" y="4" width="4" height="4" fill="#78dcff"/>
    <rect x="12" y="4" width="4" height="4" fill="#bbedff"/>
    <rect x="16" y="4" width="4" height="4" fill="#fff"/>
    <rect x="4" y="8" width="4" height="4" fill="#78dcff"/>
    <rect x="8" y="8" width="4" height="4" fill="#65d081"/>
    <rect x="12" y="8" width="4" height="4" fill="#78dcff"/>
    <rect x="16" y="8" width="4" height="4" fill="#78dcff"/>
    <rect x="4" y="12" width="4" height="4" fill="#65d081"/>
    <rect x="8" y="12" width="4" height="4" fill="#23a11f"/>
    <rect x="12" y="12" width="4" height="4" fill="#23a11f"/>
    <rect x="16" y="12" width="4" height="4" fill="#a8efb1"/>
    <rect x="4" y="16" width="4" height="4" fill="#005e00"/>
    <rect x="8" y="16" width="4" height="4" fill="#23a11f"/>
    <rect x="12" y="16" width="4" height="4" fill="#65d081"/>
    <rect x="16" y="16" width="4" height="4" fill="#c42e00"/>
  </g>
</svg>