<?xml version="1.0" encoding="UTF-8"?>
<svg id="Layer_1" data-name="Layer 1" xmlns="http://www.w3.org/2000/svg" width="36" height="36" xmlns:xlink="http://www.w3.org/1999/xlink" viewBox="0 0 36 36">
  <defs>
    <linearGradient id="New_Gradient_170" data-name="New Gradient 170" x1="4" y1="16.0206297" x2="23.123" y2="16.0206297" gradientUnits="userSpaceOnUse">
      <stop offset="0" stop-color="#ccc"/>
      <stop offset=".337082" stop-color="#999"/>
      <stop offset=".629211" stop-color="#b2b2b2"/>
      <stop offset="1" stop-color="#d9d9d9"/>
    </linearGradient>
    <linearGradient id="linear-gradient" x1="4" y1="16.0206297" x2="23.123" y2="16.0206297" gradientUnits="userSpaceOnUse">
      <stop offset="0" stop-color="#ccc"/>
      <stop offset=".337082" stop-color="#999"/>
      <stop offset=".629211" stop-color="#b2b2b2"/>
      <stop offset="1" stop-color="#d9d9d9"/>
    </linearGradient>
    <radialGradient id="radial-gradient" cx="5.5340607" cy="14.1915363" fx="5.5340607" fy="14.1915363" r="19.571745" gradientTransform="translate(.3788974 -.0374) scale(.9876)" gradientUnits="userSpaceOnUse">
      <stop offset=".140449" stop-color="#ffe900"/>
      <stop offset=".1588104" stop-color="#ffe204"/>
      <stop offset=".2913167" stop-color="#ffb420"/>
      <stop offset=".4092463" stop-color="#ff9334"/>
      <stop offset=".5071755" stop-color="#ff7f40"/>
      <stop offset=".573034" stop-color="#ff7845"/>
    </radialGradient>
    <linearGradient id="New_Gradient_161" data-name="New Gradient 161" x1="14.7102293" y1="26.9949881" x2="31.5339622" y2="12.8782" gradientUnits="userSpaceOnUse">
      <stop offset="0" stop-color="#ccc"/>
      <stop offset=".415726" stop-color="#f2f2f2"/>
      <stop offset=".48877" stop-color="#fff"/>
      <stop offset=".578659" stop-color="#e5e5e5"/>
      <stop offset="1" stop-color="#d9d9d9"/>
    </linearGradient>
    <linearGradient id="New_Gradient_157" data-name="New Gradient 157" x1="15.3008451" y1="23.7879417" x2="26.9977505" y2="12.0910363" gradientUnits="userSpaceOnUse">
      <stop offset="0" stop-color="#999"/>
      <stop offset=".415726" stop-color="#f2f2f2"/>
      <stop offset=".48877" stop-color="#fff"/>
      <stop offset=".578659" stop-color="#e5e5e5"/>
      <stop offset="1" stop-color="#d9d9d9"/>
    </linearGradient>
    <mask id="mask" x="19.3925895" y="13.0313657" width="11.4999997" height="17.9672988" maskUnits="userSpaceOnUse">
      <path d="M21.0448895,15.624l8.6621105-2.2231c.6562892-.168,1.1855892.2265,1.1855892.8813v12.9654c0,.6547-.5293,1.3212-1.1855892,1.4892l-8.6621105,2.2232c-.6543.1679-1.1855-.2266-1.1855-.8814v-12.9658c0-.6543.5312-1.3208,1.1855-1.4888Z" fill="#fff" fill-rule="evenodd"/>
    </mask>
    <linearGradient id="New_Gradient_155" data-name="New Gradient 155" x1="24.7424766" y1="13.1206758" x2="26.0096371" y2="31.2419151" gradientUnits="userSpaceOnUse">
      <stop offset="0" stop-color="#d9d9d9"/>
      <stop offset="1" stop-color="#ccc"/>
    </linearGradient>
    <linearGradient id="New_Gradient_156" data-name="New Gradient 156" x1="18.6154844" y1="14.0378284" x2="30.982606" y2="29.3099517" gradientUnits="userSpaceOnUse">
      <stop offset="0" stop-color="#ccc"/>
      <stop offset="1" stop-color="#fff"/>
    </linearGradient>
    <mask id="mask-1" x="19.8358895" y="18.9077535" width="9.3066998" height="9.6631726" maskUnits="userSpaceOnUse">
      <path d="M21.0097895,25.3965c0-2.2456,1.8203-4.5225,4.0682999-5.085,2.2460999-.5635,4.0624999.8008,4.0624999,3.0474,0,2.2451-1.8164,4.522-4.0624999,5.0854-2.2479999.5625-4.0682999-.8017-4.0682999-3.0478Z" fill="#fff" fill-rule="evenodd"/>
    </mask>
    <radialGradient id="New_Gradient_154" data-name="New Gradient 154" cx="58.1289426" cy="18.0537616" fx="58.1289426" fy="18.0537616" r="8.7048743" gradientTransform="translate(-24.7928199 10.7405799) scale(.9009)" gradientUnits="userSpaceOnUse">
      <stop offset="0" stop-color="#f2f2f2"/>
      <stop offset=".415726" stop-color="#ccc"/>
      <stop offset="1" stop-color="gray"/>
    </radialGradient>
    <mask id="mask-2" x="22.5057894" y="14.6625443" width="4.7715999" height="4.9388164" maskUnits="userSpaceOnUse">
      <path d="M23.1913894,18.0132c0-1.1236.9102-2.2622,2.0351999-2.544,1.123-.2817,2.0331999.4009,2.0331999,1.524,0,1.124-.9102,2.2636-2.0331999,2.5449-1.125.2812-2.0351999-.4014-2.0351999-1.5249Z" fill="#fff" fill-rule="evenodd"/>
    </mask>
    <mask id="mask-3" x="22.5057894" y="14.6625443" width="4.7715999" height="4.8984841" maskUnits="userSpaceOnUse">
      <path d="M22.8573894,17.6221c0-1.1241.9141-2.2627,2.0351999-2.5445,1.125-.2817,2.0331999.4009,2.0331999,1.5245,0,1.1235-.9082,2.2622-2.0331999,2.5439-1.1211.2817-2.0351999-.4014-2.0351999-1.5239Z" fill="#fff" fill-rule="evenodd" stroke="#fff" stroke-miterlimit="3.8637" stroke-width=".7032"/>
    </mask>
    <radialGradient id="New_Gradient_152" data-name="New Gradient 152" cx="26.8196041" cy="19.4007333" fx="26.8196041" fy="19.4007333" r="4.6230886" gradientUnits="userSpaceOnUse">
      <stop offset="0" stop-color="#f2f2f2"/>
      <stop offset=".443817" stop-color="#ccc"/>
      <stop offset="1" stop-color="gray"/>
    </radialGradient>
    <radialGradient id="New_Gradient_153" data-name="New Gradient 153" cx="54.2223541" cy="6.1841078" fx="54.2223541" fy="6.1841078" r="1.6513453" gradientTransform="translate(-24.7928199 10.7405799) scale(.9009)" gradientUnits="userSpaceOnUse">
      <stop offset="0" stop-color="#f2f2f2"/>
      <stop offset="1" stop-color="#999"/>
    </radialGradient>
    <radialGradient id="New_Gradient_151" data-name="New Gradient 151" cx="53.2888909" cy="13.1022152" fx="53.2888909" fy="13.1022152" r="2.9196268" gradientTransform="translate(-24.7928199 10.7405799) scale(.9009)" gradientUnits="userSpaceOnUse">
      <stop offset="0" stop-color="#f2f2f2"/>
      <stop offset="1" stop-color="#999"/>
    </radialGradient>
    <mask id="mask-4" x="20.3515895" y="16.2267025" width="1.2656" height="1.3394268" maskUnits="userSpaceOnUse">
      <path d="M21.1093895,16.5332c.2793-.0698.5078.1011.5078.3809,0,.2812-.2285.5654-.5078.6362-.2832.0703-.5098-.1001-.5098-.3814,0-.2802.2266-.5654.5098-.6357Z" fill="#fff"/>
    </mask>
    <mask id="mask-5" x="20.3515895" y="28.2401747" width="1.2656" height="1.3399631" maskUnits="userSpaceOnUse">
      <path d="M21.1093895,28.5469c.2793-.0703.5078.1006.5078.3813,0,.2808-.2285.565-.5078.6363-.2832.0698-.5098-.1006-.5098-.3809,0-.2813.2266-.5664.5098-.6367Z" fill="#fff"/>
    </mask>
    <mask id="mask-6" x="28.3046893" y="14.1271042" width="1.2656" height="1.3398645" maskUnits="userSpaceOnUse">
      <path d="M29.0585893,14.4336c.2832-.0698.5117.1006.5117.3813,0,.2808-.2285.566-.5117.6363-.2793.0703-.5059-.1011-.5059-.3819,0-.2802.2266-.5649.5059-.6357Z" fill="#fff"/>
    </mask>
    <mask id="mask-7" x="28.3476893" y="26.0652611" width="1.2617" height="1.3395732" maskUnits="userSpaceOnUse">
      <path d="M29.1015893,26.3721c.2812-.0703.5078.1006.5078.3813,0,.2803-.2266.565-.5078.6358-.2793.0698-.5078-.1006-.5078-.3819,0-.2802.2285-.5654.5078-.6352Z" fill="#fff"/>
    </mask>
    <linearGradient id="New_Gradient_150" data-name="New Gradient 150" x1="19.3014333" y1="14.1189058" x2="31.4495505" y2="30.2400018" gradientUnits="userSpaceOnUse">
      <stop offset="0" stop-color="#fff"/>
      <stop offset="1" stop-color="#e5e5e5"/>
    </linearGradient>
    <linearGradient id="New_Gradient_149" data-name="New Gradient 149" x1="22.33891" y1="12.293673" x2="26.8173212" y2="30.2555992" gradientUnits="userSpaceOnUse">
      <stop offset="0" stop-color="#b2b2b2"/>
      <stop offset="1" stop-color="gray"/>
    </linearGradient>
    <linearGradient id="New_Gradient_148" data-name="New Gradient 148" x1="14.7808674" y1="28.3113241" x2="20.35223" y2="23.6363957" gradientUnits="userSpaceOnUse">
      <stop offset="0" stop-color="#ccc"/>
      <stop offset="1" stop-color="#b2b2b2"/>
    </linearGradient>
    <linearGradient id="New_Gradient_147" data-name="New Gradient 147" x1="24.1617722" y1="13.386344" x2="29.1180717" y2="9.2275149" gradientUnits="userSpaceOnUse">
      <stop offset="0" stop-color="#d9d9d9"/>
      <stop offset="1" stop-color="#fff"/>
    </linearGradient>
  </defs>
  <g>
    <path d="M16.2714896,8.5933c-.5098.2426-1,.4946-1.5098.7451v-2.0425h-.1015c.5468104-.2666,1.0664-.5376,1.6113-.7949v2.0923ZM13.0565897,10.0928c-.3905897.1484-.8085897.2895-1.2675.4189l-.3887.106v-2.0933l.3887-.1055c.4589103-.1298.8769103-.2705,1.2675-.4189v2.0928ZM9.6952898,11.0039c-.7031.1323-1.3555.2207-1.9472898.2783v-2.0927c.5917898-.0577,1.2441898-.1456,1.9472898-.2784v2.0928ZM19.5272895,23.1973c-.5702895.1176-1.08.2588-1.5488.415v-2.0928c.4688-.1562.9785105-.2973,1.5488-.415v2.0928ZM16.2714896,24.3076c-.5098.2417-1,.4951-1.5098.7451v-2.042h-.1015c.5468104-.2666,1.0664-.538,1.6113-.7954v2.0923ZM13.0565897,25.8071c-.3905897.1485-.8085897.2901-1.2675.4195l-.3887.1054v-2.0927l.3887-.106c.4589103-.1294.8769103-.2705,1.2675-.4185v2.0923ZM9.6952898,26.7183c-.7031.1323-1.3555.2212-1.9472898.2788v-2.0928c.5917898-.0576,1.2441898-.1465,1.9472898-.2788v2.0928ZM19.5272895,7.4824c-.5702895.1182-1.08.2588-1.5488.416v-2.0937c.4688-.1563.9785105-.2969,1.5488-.4151v2.0928ZM4,24.1333v-12.8711c.2401899.0361.9198899.1206,1.9472898.1123v-2.0928c-1.0274.0083-1.7071-.0756-1.9472898-.1118v-1.0337s3.1190898.5826,7.7890897-.7348c4.1112999-1.1597,5.0077999-3.2559,11.3339103-3.4014v.9727c-.6328106.018-1.2128106.0561-1.7441105.1103v2.0928c.5313-.0542,1.1113-.0918,1.7441105-.1104v13.6221c-.6328106.0176-1.2128106.0557-1.7441105.1104v2.0922c.5313-.0547,1.1113-.0913,1.7441105-.1103v.9746c-6.3261104.145-7.2226104,2.2417-11.3339103,3.4009-4.6699999,1.3169-7.7890897.7759-7.7890897.7759v-.9541c.2401899.0361.9198899.1201,1.9472898.1118v-2.0923c-1.0274.0083-1.7071-.0762-1.9472898-.1118v-.7515Z" fill="url(#New_Gradient_170)" fill-rule="evenodd" stroke="#000" stroke-linecap="round" stroke-linejoin="round" stroke-width="1.75"/>
    <path d="M16.2714896,8.5933c-.5098.2426-1,.4946-1.5098.7451v-2.0425h-.1015c.5468104-.2666,1.0664-.5376,1.6113-.7949v2.0923ZM13.0565897,10.0928c-.3905897.1484-.8085897.2895-1.2675.4189l-.3887.106v-2.0933l.3887-.1055c.4589103-.1298.8769103-.2705,1.2675-.4189v2.0928ZM9.6952898,11.0039c-.7031.1323-1.3555.2207-1.9472898.2783v-2.0927c.5917898-.0577,1.2441898-.1456,1.9472898-.2784v2.0928ZM19.5272895,23.1973c-.5702895.1176-1.08.2588-1.5488.415v-2.0928c.4688-.1562.9785105-.2973,1.5488-.415v2.0928ZM16.2714896,24.3076c-.5098.2417-1,.4951-1.5098.7451v-2.042h-.1015c.5468104-.2666,1.0664-.538,1.6113-.7954v2.0923ZM13.0565897,25.8071c-.3905897.1485-.8085897.2901-1.2675.4195l-.3887.1054v-2.0927l.3887-.106c.4589103-.1294.8769103-.2705,1.2675-.4185v2.0923ZM9.6952898,26.7183c-.7031.1323-1.3555.2212-1.9472898.2788v-2.0928c.5917898-.0576,1.2441898-.1465,1.9472898-.2788v2.0928ZM19.5272895,7.4824c-.5702895.1182-1.08.2588-1.5488.416v-2.0937c.4688-.1563.9785105-.2969,1.5488-.4151v2.0928ZM4,24.1333v-12.8711c.2401899.0361.9198899.1206,1.9472898.1123v-2.0928c-1.0274.0083-1.7071-.0756-1.9472898-.1118v-1.0337s3.1190898.5826,7.7890897-.7348c4.1112999-1.1597,5.0077999-3.2559,11.3339103-3.4014v.9727c-.6328106.018-1.2128106.0561-1.7441105.1103v2.0928c.5313-.0542,1.1113-.0918,1.7441105-.1104v13.6221c-.6328106.0176-1.2128106.0557-1.7441105.1104v2.0922c.5313-.0547,1.1113-.0913,1.7441105-.1103v.9746c-6.3261104.145-7.2226104,2.2417-11.3339103,3.4009-4.6699999,1.3169-7.7890897.7759-7.7890897.7759v-.9541c.2401899.0361.9198899.1201,1.9472898.1118v-2.0923c-1.0274.0083-1.7071-.0762-1.9472898-.1118v-.7515Z" fill="url(#linear-gradient)" fill-rule="evenodd"/>
    <path d="M9.7440898,23.7925c-3.5135999.6679-5.7440898.2524-5.7440898.2524v-11.8691s2.2304898.416,5.7440898-.252v11.8687ZM19.5683895,20.3232c-3.3222999.6705-4.6093895,2.0923-7.7792998,2.9864-.1640897.0459-.3262.0903-.4844.1313v-11.8686c.1582-.0415.3203103-.085.4844-.1319,3.1835999-.8965,4.4393999-2.3564,7.7792998-3.0371v11.9199ZM23.1718894,19.957c-.711.0161-1.3574.0567-1.9473.1172v-11.9199c.5762-.0596,1.2051-.0986,1.8984105-.1147l.0488894,11.9174Z" fill="url(#radial-gradient)" fill-rule="evenodd" stroke="#d68100" stroke-width=".5"/>
  </g>
  <g>
    <path d="M20.082,30.7124l-4.4961104-4.5005c-.1386-.1582-.2207-.3745-.2207-.6318v-12.9658c0-.6543.5293-1.3208,1.1836-1.4888l8.6640998-2.2232c.3965-.1015.7285-.0009.9609.2471l4.4765999,4.4766c.1504.1606.2422.3867.2422.6562v12.9654c0,.6547-.5293,1.3212-1.1855892,1.4892l-8.6621105,2.2232c-.3965.1015-.748-.0025-.9628895-.2476Z" fill="url(#New_Gradient_161)" stroke="#000" stroke-miterlimit="3.8637" stroke-width="2"/>
    <path d="M20.082,30.7124l-4.4961104-4.5005c-.1386-.1582-.2207-.3745-.2207-.6318v-12.9658c0-.6543.5293-1.3208,1.1836-1.4888l8.6640998-2.2232c.3965-.1015.7285-.0009.9609.2471l4.4960999,4.5-10.5878892,17.063Z" fill="url(#New_Gradient_157)" fill-rule="evenodd"/>
    <g mask="url(#mask)">
      <g>
        <path d="M21.0448895,15.624l8.6621105-2.2231c.6562892-.168,1.1855892.2265,1.1855892.8813v12.9654c0,.6547-.5293,1.3212-1.1855892,1.4892l-8.6621105,2.2232c-.6543.1679-1.1855-.2266-1.1855-.8814v-12.9658c0-.6543.5312-1.3208,1.1855-1.4888Z" fill="url(#New_Gradient_155)" fill-rule="evenodd"/>
        <path d="M20.5546895,15.248l8.4901998-2.1787c.6406-.1645,1.1602.2212,1.1602.8628v12.7085c0,.6416-.5196,1.2945-1.1602,1.459l-8.4901998,2.1787c-.6426.1651-1.1621-.2221-1.1621-.8628v-12.708c0-.6421.5195-1.2949,1.1621-1.4595Z" fill="url(#New_Gradient_156)" fill-rule="evenodd"/>
      </g>
    </g>
    <g mask="url(#mask-1)">
      <g>
        <path d="M21.0097895,25.3965c0-2.2456,1.8203-4.5225,4.0682999-5.085,2.2460999-.5635,4.0624999.8008,4.0624999,3.0474,0,2.2451-1.8164,4.522-4.0624999,5.0854-2.2479999.5625-4.0682999-.8017-4.0682999-3.0478Z" fill="#ccc" fill-rule="evenodd"/>
        <path d="M20.4218895,24.7061c0-2.2457,1.8222-4.523,4.0682999-5.0855,2.2460999-.563,4.0663999.8008,4.0663999,3.0469,0,2.2451-1.8203,4.5229-4.0663999,5.0854-2.2460999.5635-4.0682999-.8012-4.0682999-3.0468Z" fill="url(#New_Gradient_154)" fill-rule="evenodd" stroke="#4c4c4c" stroke-miterlimit="3.8637" stroke-width="1.172"/>
      </g>
    </g>
    <g mask="url(#mask-2)">
      <g>
        <path d="M23.1913894,18.0132c0-1.1236.9102-2.2622,2.0351999-2.544,1.123-.2817,2.0331999.4009,2.0331999,1.524,0,1.124-.9102,2.2636-2.0331999,2.5449-1.125.2812-2.0351999-.4014-2.0351999-1.5249Z" fill="#b2b2b2" fill-rule="evenodd"/>
        <g mask="url(#mask-3)">
          <g>
            <path d="M22.8573894,17.6221c0-1.1241.9141-2.2627,2.0351999-2.5445,1.125-.2817,2.0331999.4009,2.0331999,1.5245,0,1.1235-.9082,2.2622-2.0331999,2.5439-1.1211.2817-2.0351999-.4014-2.0351999-1.5239Z" fill="url(#New_Gradient_152)" fill-rule="evenodd"/>
            <path d="M24.5058894,15.8447c.5058-.1264.914.1807.914.6856,0,.5058-.4082,1.0185-.914,1.1445-.5078894.127-.9161-.1807-.9161-.6855,0-.5059.4082106-1.0181.9161-1.1446Z" fill="url(#New_Gradient_153)" stroke="#737373" stroke-miterlimit="3.8637" stroke-width=".3161"/>
            <path d="M22.8573894,17.6221c0-1.1241.9141-2.2627,2.0351999-2.5445,1.125-.2817,2.0331999.4009,2.0331999,1.5245,0,1.1235-.9082,2.2622-2.0331999,2.5439-1.1211.2817-2.0351999-.4014-2.0351999-1.5239Z" fill="none" fill-rule="evenodd" stroke="#4c4c4c" stroke-miterlimit="3.8637" stroke-width=".7032"/>
          </g>
        </g>
      </g>
    </g>
    <path d="M23.9315894,21.3701c.9707-.2431,1.7579.3462,1.7579,1.3164,0,.9698-.7872,1.9531-1.7579,2.1963-.9687.2432-1.7558-.3467-1.7558-1.3164,0-.9692.7871-1.9531,1.7558-2.1963Z" fill="url(#New_Gradient_151)" stroke="#737373" stroke-miterlimit="3.8637" stroke-width=".4215"/>
    <g mask="url(#mask-4)">
      <g>
        <path d="M21.1093895,16.5332c.2793-.0698.5078.1011.5078.3809,0,.2812-.2285.5654-.5078.6362-.2832.0703-.5098-.1001-.5098-.3814,0-.2802.2266-.5654.5098-.6357Z" fill="gray"/>
        <path d="M20.8593895,16.2427c.2812-.0708.5097.1001.5097.3803,0,.2813-.2285.5655-.5097.6363-.2793.0703-.5078-.1001-.5078-.3809,0-.2807.2285-.5659.5078-.6357Z" fill="#4c4c4c"/>
      </g>
    </g>
    <g mask="url(#mask-5)">
      <g>
        <path d="M21.1093895,28.5469c.2793-.0703.5078.1006.5078.3813,0,.2808-.2285.565-.5078.6363-.2832.0698-.5098-.1006-.5098-.3809,0-.2813.2266-.5664.5098-.6367Z" fill="gray"/>
        <path d="M20.8593895,28.2563c.2812-.0712.5097.1001.5097.3814,0,.2808-.2285.5644-.5097.6357-.2793.0689-.5078-.1005-.5078-.3813s.2285-.5659.5078-.6358Z" fill="#4c4c4c"/>
      </g>
    </g>
    <g mask="url(#mask-6)">
      <g>
        <path d="M29.0585893,14.4336c.2832-.0698.5117.1006.5117.3813,0,.2808-.2285.566-.5117.6363-.2793.0703-.5059-.1011-.5059-.3819,0-.2802.2266-.5649.5059-.6357Z" fill="gray"/>
        <path d="M28.8124893,14.1431c.2813-.0708.5078.1001.5078.3808,0,.2808-.2265.565-.5078.6358-.2812.0698-.5078-.1001-.5078-.3809,0-.2803.2266-.5659.5078-.6357Z" fill="#4c4c4c"/>
      </g>
    </g>
    <g mask="url(#mask-7)">
      <g>
        <path d="M29.1015893,26.3721c.2812-.0703.5078.1006.5078.3813,0,.2803-.2266.565-.5078.6358-.2793.0698-.5078-.1006-.5078-.3819,0-.2802.2285-.5654.5078-.6352Z" fill="gray"/>
        <path d="M28.8554893,26.0811c.2793-.0704.5078.1005.5078.3813s-.2285.5649-.5078.6353c-.2832.0703-.5078-.1001-.5078-.3809,0-.2813.2246-.5654.5078-.6357Z" fill="#4c4c4c"/>
      </g>
    </g>
    <path d="M29.5331893,13.3604c.7559-.1924,1.4668107.2851,1.4668107,1.1171v12.708c0,.7378-.582,1.4532-1.291,1.6358l-8.4902105,2.1787c-.754.1934-1.4667895-.2852-1.4667895-1.1162v-12.708c0-.7383.58-1.4541,1.291-1.6358l8.4901893-2.1796ZM29.709,13.791l-8.4902105,2.1787c-.5704.1465-1.0313.7378-1.0313,1.2823v12.7094c0,.4502.3281.7451.8555105.6089l8.4901893-2.1787c.5723-.147,1.0313-.7383,1.0313-1.2827v-12.708c0-.4517-.3262-.7461-.8554892-.6099Z" fill="url(#New_Gradient_150)"/>
    <path d="M19.4081895,29.4131v-12.1782c0-.9859.6543-1.7857,1.3613-2.0147.6621-.2139,8.7870998-2.2046,8.7870998-2.2046.1817-.0449.2969.2481.1133.2935,0,0-8.1073998,1.9858-8.7675998,2.1992-.6112895.1982-1.1972.9111-1.1972,1.7788v12.1782c0,.1978-.2969.1455-.2969-.0522Z" fill="url(#New_Gradient_149)"/>
    <polygon points="15.709 22.5322 19.4218895 26.3071 19.4257895 29.4141 15.7108896 25.835 15.709 22.5322" fill="url(#New_Gradient_148)"/>
    <polygon points="25.4921894 9.1797 29.4257893 13.0176 27.6952893 13.4253 23.8476894 9.6016 25.4921894 9.1797" fill="url(#New_Gradient_147)"/>
  </g>
</svg>