<?xml version='1.0' encoding='UTF-8'?>
<svg xmlns="http://www.w3.org/2000/svg" xmlns:xlink="http://www.w3.org/1999/xlink" id="Layer_1" data-name="Layer 1" width="36" height="36" viewBox="0 0 36 36">
  <defs>
    <linearGradient id="New_Gradient_267" data-name="New Gradient 267" x1="14.9916823" y1="4.3015313" x2="14.9916823" y2="24.7270158" gradientUnits="userSpaceOnUse">
      <stop offset="0" stop-color="#d9d9d9"/>
      <stop offset=".157303" stop-color="#f2f2f2"/>
      <stop offset=".29776" stop-color="#fff"/>
      <stop offset=".58989" stop-color="#f2f2f2"/>
      <stop offset="1" stop-color="#d9d9d9"/>
    </linearGradient>
    <mask id="mask" x="6.8280825" y="4.301409" width="15.8739996" height="20.136091" maskUnits="userSpaceOnUse">
      <path d="M7.9735825,7.6792l13.6357997-3.3628c.5019-.125,1.0927.5728,1.0927.5728l-.1826,14.8471c0,.5406-.4082,1.0791-.9101,1.2022l-13.8622996,3.499s-.6826-.3496-.6826-.8901v-14.6665c0-.5401.4072-1.0777.9091-1.2017Z" fill="#fff" fill-rule="evenodd"/>
    </mask>
    <linearGradient id="New_Gradient_267-2" data-name="New Gradient 267" x1="14.8832823" y1="4.301409" x2="14.8832823" y2="24.4375" gradientUnits="userSpaceOnUse"><stop offset="0" stop-color="#d9d9d9"/><stop offset=".157303" stop-color="#f2f2f2"/><stop offset=".29776" stop-color="#fff"/><stop offset=".58989" stop-color="#f2f2f2"/><stop offset="1" stop-color="#d9d9d9"/></linearGradient>
    <mask id="mask-1" x="6.2157825" y="2.5574135" width="18.2656996" height="22.2786954" maskUnits="userSpaceOnUse">
      <path d="M8.375,8.0781l13.6347822-3.3618c.5009-.124.9091.2134.9091.7544v14.665c0,.542-.4082,1.0801-.9091,1.2041l-13.6367822,3.3619c-.5019175.1235-.9072175-.2139-.9072175-.7549v-14.6651c0-.5405.4053-1.0786.9092175-1.2036Z" fill="#fff" fill-rule="evenodd"/>
    </mask>
    <mask id="mask-2" x="7.9349325" y="5.3521489" width="14.4982996" height="18.7565301" maskUnits="userSpaceOnUse">
      <path d="M8.2294825,9.481c0-.2852.2344-.5733.5137-.6412l12.8778997-3.1782c.2881-.0683.5176.1045.5176.3892v13.9297c0,.2856-.2295.5737-.5176.643l-12.8778997,3.1748c-.2793.0708-.5137-.1025-.5137-.3881v-13.9292Z" fill="#fff" stroke="#fff" stroke-miterlimit="3.8637" stroke-width=".5891"/>
    </mask>
    <linearGradient id="New_Gradient_266" data-name="New Gradient 266" x1="12.8690036" y1="4.7024908" x2="17.4962217" y2="24.7451745" gradientUnits="userSpaceOnUse">
      <stop offset="0" stop-color="#69c"/>
      <stop offset=".893265" stop-color="#b3e0ff"/>
      <stop offset="1" stop-color="#b3e0ff"/>
    </linearGradient>
    <mask id="mask-3" x="6.2157825" y="2.5574135" width="18.2656996" height="22.2786954" maskUnits="userSpaceOnUse">
      <polygon points="6.5624826 7.3335 24.1347821 3 24.1347821 6.7695 6.5624826 11.1021 6.5624826 7.3335" fill="#fff" stroke="#fff" stroke-miterlimit="3.8637" stroke-width=".6934"/>
    </mask>
    <linearGradient id="New_Gradient_265" data-name="New Gradient 265" x1="7.798037" y1="1.3612683" x2="22.8996603" y2="12.7411577" gradientUnits="userSpaceOnUse">
      <stop offset="0" stop-color="#b2b2b2"/>
      <stop offset="1" stop-color="#fff"/>
    </linearGradient>
    <mask id="mask-4" x="9.7753825" y="22.936" width="22.2153494" height="6.5298001" maskUnits="userSpaceOnUse">
      <path d="M14.2694824,26.1304c0-.5288-.6601-.9585-1.4764824-.9585-.8145176,0-1.4746176.4297-1.4746176.9585,0,.5302.6601.9604,1.4746176.9604.8163824,0,1.4764824-.4302,1.4764824-.9604ZM20.5624822,25.1821h10.7108997l.5235.3404v.5551l-1.3848.8999-.4394-.2861h-.8106l-.4004.2612-.7734-.5024h-.738282l-.9609179.6269-.4473-.2895h-.7227l-.6562.4277h-.7793l-.4902-.3174-.4843821.3165h-2.1192178l.0079.5805s-.0606.1953-.4219.1953c-.7637,0-.4942-.6792-1.2149-.6792,0,0-.6504.1856-.6504.4351,0,.249-1.0117,1.7202-4.0624823,1.7197-3.7402175,0-4.4726175-1.9678-4.4726175-3.2485,0-1.2842.748-3.2813,4.4726175-3.2813,3.0507823,0,4.0624823,1.4707,4.0624823,1.7198,0,.249.6504.435.6504.435.7207,0,.4219-.6792,1.1856-.6792.3613,0,.4219.2608.4219.2608l-.0059.5097Z" fill="#fff" fill-rule="evenodd"/>
    </mask>
    <linearGradient id="New_Gradient_263" data-name="New Gradient 263" x1="20.1476074" y1="29.6238388" x2="21.3483067" y2="22.8143345" gradientUnits="userSpaceOnUse">
      <stop offset="0" stop-color="#f2f2f2"/>
      <stop offset="1" stop-color="#b2b2b2"/>
    </linearGradient>
    <linearGradient id="New_Gradient_264" data-name="New Gradient 264" x1="12.4934516" y1="31.8886481" x2="28.8472495" y2="22.4467785" gradientUnits="userSpaceOnUse">
      <stop offset="0" stop-color="#fff"/>
      <stop offset="1" stop-color="#e5e5e5"/>
    </linearGradient>
    <linearGradient id="New_Gradient_251" data-name="New Gradient 251" x1="13.0547924" y1="22.4683509" x2="14.5077996" y2="26.9402474" gradientUnits="userSpaceOnUse">
      <stop offset="0" stop-color="#fff"/>
      <stop offset=".112366" stop-color="#fff"/>
      <stop offset="1" stop-color="#ccc"/>
    </linearGradient>
    <linearGradient id="New_Gradient_245" data-name="New Gradient 245" x1="12.7769488" y1="26.1666185" x2="12.7769488" y2="27.6084" gradientUnits="userSpaceOnUse">
      <stop offset="0" stop-color="#d9d9d9"/>
      <stop offset=".814606" stop-color="#fff"/>
      <stop offset="1" stop-color="#fff"/>
    </linearGradient>
    <mask id="mask-5" x="10.5607317" y="19.44365" width="21.8285385" height="8.4985741" maskUnits="userSpaceOnUse">
      <path d="M15.1991823,24.5815c-.3047-.4917-1.164-.728-1.9199-.5302-.7559.1992-1.1211.7578-.8164,1.248.3066.4917,1.166.729,1.9219.5298.7558-.1982,1.1211-.7563.8144-1.2476ZM20.4862822,22.1694l9.9335997-2.6084.6817.1885.3183.5147-.7656,1.1709-.5684-.1582-.753882.1977-.222618.3403-1.0059-.2778-.6836.1787-.5312.8155-.5801-.1592-.668.1762-.3652.5567-.7207.1894-.6348-.1762-.2695.4116-1.9668.5171.3437.5356s.0567178.1968-.2792822.2857c-.707.1845-.8515178-.5118-1.5195178-.335,0,0-.4941.3311-.3514822.561.1444822.231.0545822,1.8413-2.7754177,2.585-3.4687999.9092-5.2792999-.7368-6.0195823-1.9248-.7382175-1.1885-1.1972175-3.2231,2.2558824-4.1304,2.8301176-.7427,4.6151999.374,4.7577999.606.1445.2304.8535.2446.8535.2446.668-.1748,0-.7324.7071-.918.3359-.0893.5429.1392.5429.1392l.2871.4736Z" fill="#fff" fill-rule="evenodd"/>
    </mask>
    <linearGradient id="New_Gradient_243" data-name="New Gradient 243" x1="22.6155878" y1="29.3744057" x2="19.9878032" y2="17.99222" gradientUnits="userSpaceOnUse">
      <stop offset="0" stop-color="#ffff87"/>
      <stop offset="1" stop-color="#ffad00"/>
    </linearGradient>
    <linearGradient id="New_Gradient_244" data-name="New Gradient 244" x1="17.9002104" y1="27.2496717" x2="24.6124595" y2="20.5374227" gradientUnits="userSpaceOnUse">
      <stop offset="0" stop-color="#ffffb3"/>
      <stop offset="1" stop-color="#ffe900"/>
    </linearGradient>
    <linearGradient id="New_Gradient_195" data-name="New Gradient 195" x1="13.5810013" y1="21.1020711" x2="15.0319967" y2="25.5677756" gradientUnits="userSpaceOnUse">
      <stop offset="0" stop-color="#ffffb3"/>
      <stop offset=".404495" stop-color="#ffffb3"/>
      <stop offset=".938202" stop-color="#ffcd00"/>
      <stop offset="1" stop-color="#ffcd00"/>
    </linearGradient>
    <linearGradient id="New_Gradient_70" data-name="New Gradient 70" x1="13.7373843" y1="24.2335865" x2="14.3251363" y2="26.5909309" gradientUnits="userSpaceOnUse">
      <stop offset="0" stop-color="#ffcd00"/>
      <stop offset=".578659" stop-color="#ffffb3"/>
      <stop offset="1" stop-color="#ffffb3"/>
    </linearGradient>
    <mask id="mask-6" x="4" y="21.5425" width="10.5624824" height="7.9541" maskUnits="userSpaceOnUse">
      <path d="M11.1562824,29.2827c-.5196.1157-1.4825.2139-1.8731.2139-2.6757999,0-5.2831825-1.5752-5.2831825-3.9761,0-2.4038,2.6073826-3.978,5.2831825-3.978,2.6738175,0,5.2792999,1.5742,5.2792999,3.978,0,.1504-.0059.1997-.0156.2568-.2617.1128-.9648824.21-1.4453-.0063.0058-.1226.0175-.125.0175-.2505,0-1.1943-1.4765-2.5347-3.8358999-2.5347-2.3632999,0-3.8397999,1.3404-3.8397999,2.5347,0,1.1929,1.4765,2.5332,3.8397999,2.5332.3164,0,.6309-.0259.7461-.0444,0,0,.3496.8379,1.127,1.2734Z" fill="#fff"/>
    </mask>
    <radialGradient id="New_Gradient_66" data-name="New Gradient 66" cx="13.0826786" cy="28.4243873" fx="13.0826786" fy="28.4243873" r="9.0815715" gradientUnits="userSpaceOnUse">
      <stop offset="0" stop-color="#333"/>
      <stop offset="1" stop-color="#999"/>
    </radialGradient>
    <linearGradient id="New_Gradient_68" data-name="New Gradient 68" x1="6.4889271" y1="27.1489268" x2="9.9993011" y2="28.8610506" gradientUnits="userSpaceOnUse">
      <stop offset="0" stop-color="gray"/>
      <stop offset="1" stop-color="#e5e5e5"/>
    </linearGradient>
    <linearGradient id="New_Gradient_67" data-name="New Gradient 67" x1="12.2428926" y1="23.9539246" x2="13.1141769" y2="24.8252088" gradientUnits="userSpaceOnUse">
      <stop offset="0" stop-color="#737373"/>
      <stop offset="1" stop-color="#d9d9d9"/>
    </linearGradient>
    <linearGradient id="New_Gradient_65" data-name="New Gradient 65" x1="5.5702897" y1="21.3234083" x2="11.2353764" y2="28.0747957" gradientUnits="userSpaceOnUse">
      <stop offset="0" stop-color="#fff"/>
      <stop offset=".146072" stop-color="#fff"/>
      <stop offset="1" stop-color="#737373"/>
    </linearGradient>
  </defs>
  <g>
    <path d="M7.9735825,7.6792l13.6357997-3.3628c.4668-.1152,1.0039.4741,1.081.561.1436179.1392.2285.3448.2285.5933v14.665c0,.542-.4082,1.0801-.9091,1.2041l-13.6367822,3.3619c-.3798175.0932-.706-.0777-.8417175-.4014-.1992825-.1519-.4668-.4146-.4668-.7529v-14.6665c0-.5401.4072-1.0777.9091-1.2017Z" fill="url(#New_Gradient_267)" stroke="#000" stroke-miterlimit="3.8637" stroke-width="2"/>
    <g mask="url(#mask)">
      <g>
        <path d="M7.9735825,7.6792l13.6357997-3.3628c.5019-.125,1.0927.5728,1.0927.5728l-.1826,14.8471c0,.5406-.4082,1.0791-.9101,1.2022l-13.8622996,3.499s-.6826-.3496-.6826-.8901v-14.6665c0-.5401.4072-1.0777.9091-1.2017Z" fill="url(#New_Gradient_267-2)" fill-rule="evenodd"/>
        <polygon points="7.5800825 11.1865 6.8280825 10.4336 7.0370825 10.2241 7.7890825 10.9766 7.5800825 11.1865" fill="gray"/>
      </g>
    </g>
    <g mask="url(#mask-1)">
      <g>
        <path d="M8.375,8.0781l13.6347822-3.3618c.5009-.124.9091.2134.9091.7544v14.665c0,.542-.4082,1.0801-.9091,1.2041l-13.6367822,3.3619c-.5019175.1235-.9072175-.2139-.9072175-.7549v-14.6651c0-.5405.4053-1.0786.9092175-1.2036Z" fill="#e5e5e5" fill-rule="evenodd"/>
        <path d="M22.625,5.0693c.0868821.1133.1356821.2666.1356821.4458v14.6538c0,.4498-.3359.8999-.7578,1.0025l-13.6258822,3.3613c-.1827175.0459-.3536175.0147-.4864175-.0718" fill="none" stroke="#ccc" stroke-linecap="round" stroke-linejoin="round" stroke-width=".5646"/>
        <path d="M7.6425825,24.0923c-.0155825-.0591-.0195825-.1216-.0195825-.189v-14.6543c0-.4507.337-.8999.754-1.0024l13.6258822-3.3604c.0381178-.0092.0733-.0146.128-.0224" fill="none" stroke="#fff" stroke-linecap="round" stroke-miterlimit="3.8637" stroke-width=".6934"/>
        <g mask="url(#mask-2)">
          <g>
            <path d="M8.2294825,9.481c0-.2852.2344-.5733.5137-.6412l12.8778997-3.1782c.2881-.0683.5176.1045.5176.3892v13.9297c0,.2856-.2295.5737-.5176.643l-12.8778997,3.1748c-.2793.0708-.5137-.1025-.5137-.3881v-13.9292Z" fill="url(#New_Gradient_266)"/>
            <path d="M8.8104825,24.0322s0-2.2475.5215175-2.7129c.419-.4399,3.2372824-2.0341,3.6572824-2.4741.206-.7261.417-.8896.417-.8896.208-.1636.4189-.2154.4189-.2154v-.3379c-.2813.0699-.6436-.8974-.8604-1.7353-.0175-.0698-.208.0288-.2519-.1856-.0762-.3378-.0801-.6401-.0801-.8569-.083-.5395.1533-.4482.1475-1.1211-.0235-2.8125,2.4012999-3.5146,2.4012999-3.5146,0,0,2.4169999-.5127,2.4034177,2.3296-.002.6753.1571823.396.1786823.8828.0215.2207-.0215.7275-.126,1.0893-.0391.2119-.2636823.1792-.2695.3809-.2031823.9741-.5411,1.9902-.8271823,2.0615v.3369s.207-.0512.418.0103c0,0,.208.0615.415.6826.4208823.2339,3.2392822.438,3.6572822.6719.5214.208.5214,2.4546.5214,2.4546l-12.7421997,3.143Z" fill="#01326e"/>
            <polygon points="8.2968825 10.5381 22.0468822 7.1499 22.0468822 7.7656 8.2968825 11.1548 8.2968825 10.5381" fill="#5587c0"/>
            <path d="M8.2294825,9.481c0-.2852.2344-.5733.5137-.6412l12.8778997-3.1782c.2881-.0683.5176.1045.5176.3892v13.9297c0,.2856-.2295.5737-.5176.643l-12.8778997,3.1748c-.2793.0708-.5137-.1025-.5137-.3881v-13.9292Z" fill="none" stroke="gray" stroke-miterlimit="3.8637" stroke-width=".5891"/>
          </g>
        </g>
        <g mask="url(#mask-3)">
          <g>
            <polygon points="6.5624826 7.3335 24.1347821 3 24.1347821 6.7695 6.5624826 11.1021 6.5624826 7.3335" fill="url(#New_Gradient_265)"/>
            <path d="M7.6425825,24.0923c-.0155825-.0591-.0195825-.1216-.0195825-.189v-14.6543c0-.4507.337-.8999.754-1.0024l13.6258822-3.3604c.0381178-.0092.0733-.0146.128-.0224" fill="none" stroke="#fff" stroke-linecap="round" stroke-miterlimit="3.8637" stroke-width=".7027"/>
            <path d="M22.625,5.0693c.0868821.1133.1356821.2666.1356821.4458v14.6538c0,.4498-.3359.8999-.7578,1.0025l-13.6258822,3.3613c-.1827175.0459-.3536175.0147-.4864175-.0718" fill="none" stroke="#ccc" stroke-linecap="round" stroke-linejoin="round" stroke-width=".5646"/>
            <polygon points="6.5624826 7.3335 24.1347821 3 24.1347821 6.7695 6.5624826 11.1021 6.5624826 7.3335" fill="none" stroke="gray" stroke-miterlimit="3.8637" stroke-width=".6934"/>
          </g>
        </g>
      </g>
    </g>
  </g>
  <g>
    <path d="M20.8827822,25.1821c-.0976-.0581-.1992-.1093-.3183-.1318l-.002.1318h.3203ZM12.957,25.7124c.0566824.0273.1171824.0513.1777824.0732l-.0313-.0576c-.0488-.0063-.0957-.0122-.1464824-.0156ZM10.5604825,24.1509c-.0019-.3208.0684-.6465.2422-.9595-.4511-.1299-.9609-.2056-1.5195-.2056-2.3632999,0-3.8397999,1.3404-3.8397999,2.5347,0,1.1929,1.4765,2.5332,3.8397999,2.5332.3164,0,.6309-.0259.7461-.0444,0,0,.0273.0708.0898.1816-.2578-.4883-.3437-1.0049-.3437-1.4399,0-.0864.0039-.1753.0117-.2652-.0078-.0922-.0117-.1826-.0117-.2685,0-.6235.1777-1.4151.7851-2.0664ZM20.4862822,22.1694l9.9335997-2.6084.6817.1885.3183.5147v.5341l-.7656,1.1719-.5684-.1592-.753882.1978-.222618.3413-1.0059-.2793-.6836.1802-.5312.8154-.5801-.1601-.668.1762-.3652.5562-.7207.1904-.6348-.1763-.2695.4112-1.6719.4443.0488.0742s.0196.0689-.0351.145l.0351.3897s.0079.0268,0,.0649h9.2460998l.5235.3404v1.0893l-1.3848.8999-.4394-.2856h-.8106l-.4004.2612-.7734-.5019h-.738282l-.9609179.6259-.4473-.289h-.7227l-.6562.4272h-.7793l-.4902-.3164-.4843821.3154h-2.1113178l-.0059.0645.0059.5156s-.0606.1963-.4219.1963c-.7637,0-.4942-.6787-1.2149-.6787,0,0-.6504.1865-.6504.4336,0,.25-1.0117,1.7202-4.0624823,1.7202-1.4316176,0-2.4218176-.2876-3.1015176-.7163-.5194824.1162-1.4746.2129-1.8633.2129-2.6757999,0-5.2831825-1.5752-5.2831825-3.9761,0-2.4038,2.6073826-3.978,5.2831825-3.978.957,0,1.9043.2016,2.7304999.5718.3574-.1851.7949-.3501,1.3242-.4903,2.8301176-.7427,4.6151999.374,4.7577999.606.1445.2304.8535.2446.8535.2446.668-.1748,0-.7324.7071-.918.3359-.0893.5429.1392.5429.1392l.2871.4736Z" fill="gray" stroke="#000" stroke-linecap="round" stroke-linejoin="round" stroke-width="2"/>
    <path d="M14.2694824,26.666c0-.5298-.6601-.9595-1.4764824-.9595-.8145176,0-1.4746176.4297-1.4746176.9595,0,.5288.6601.9585,1.4746176.9585.8163824,0,1.4764824-.4297,1.4764824-.9585ZM20.5624822,25.7173h10.7108997l.5235.3398v.5547l-1.3848.8999-.4394-.2856h-.8106l-.4004.2612-.7734-.5019h-.738282l-.9609179.6259-.4473-.289h-.7227l-.6562.4272h-.7793l-.4902-.3164-.4843821.3154h-2.1192178l.0079.5801s-.0606.1963-.4219.1963c-.7637,0-.4942-.6787-1.2149-.6787,0,0-.6504.1865-.6504.4336,0,.25-1.0117,1.7202-4.0624823,1.7202-3.7402175,0-4.4726175-1.9673-4.4726175-3.249,0-1.2827.748-3.2798,4.4726175-3.2798,3.0507823,0,4.0624823,1.4707,4.0624823,1.7197,0,.2481.6504.4351.6504.4351.7207,0,.4219-.6797,1.1856-.6797.3613,0,.4219.2607.4219.2607l-.0059.5103Z" fill="gray" fill-rule="evenodd"/>
    <g mask="url(#mask-4)">
      <g>
        <path d="M14.2694824,26.1304c0-.5288-.6601-.9585-1.4764824-.9585-.8145176,0-1.4746176.4297-1.4746176.9585,0,.5302.6601.9604,1.4746176.9604.8163824,0,1.4764824-.4302,1.4764824-.9604ZM20.5624822,25.1821h10.7108997l.5235.3404v.5551l-1.3848.8999-.4394-.2861h-.8106l-.4004.2612-.7734-.5024h-.738282l-.9609179.6269-.4473-.2895h-.7227l-.6562.4277h-.7793l-.4902-.3174-.4843821.3165h-2.1192178l.0079.5805s-.0606.1953-.4219.1953c-.7637,0-.4942-.6792-1.2149-.6792,0,0-.6504.1856-.6504.4351,0,.249-1.0117,1.7202-4.0624823,1.7197-3.7402175,0-4.4726175-1.9678-4.4726175-3.2485,0-1.2842.748-3.2813,4.4726175-3.2813,3.0507823,0,4.0624823,1.4707,4.0624823,1.7198,0,.249.6504.435.6504.435.7207,0,.4219-.6792,1.1856-.6792.3613,0,.4219.2608.4219.2608l-.0059.5097Z" fill="url(#New_Gradient_263)" fill-rule="evenodd"/>
        <path d="M17.7167823,25.5659h14.0058996c.3574,0,.3574.5337,0,.5337h-13.3867997c-.3554,0-.9746-.5337-.6191-.5337Z" fill="#666"/>
        <line x1="17.75" y1="25.6367" x2="31.7538819" y2="25.6367" fill="none" stroke="#fff" stroke-linecap="round" stroke-miterlimit="3.8637" stroke-width=".4623"/>
        <path d="M10.1972825,26.9038s.6269,2.2329,3.8983999,2.2329c3.8690999,0,3.9335999-2.1387,4.1210999-2.1387h13.6776997v-.5981H15.4472823s-.2481,1.6387-2.8906999,1.6387c-1.6972,0-2.3592999-1.1348-2.3592999-1.1348Z" fill="url(#New_Gradient_264)" fill-rule="evenodd"/>
        <path d="M14.2694824,26.1304c0-.5288-.6601-.9585-1.4764824-.9585-.8145176,0-1.4746176.4297-1.4746176.9585,0,.5302.6601.9604,1.4746176.9604.8163824,0,1.4764824-.4302,1.4764824-.9604ZM20.5624822,25.1821h10.7108997l.5235.3404v.5551l-1.3848.8999-.4394-.2861h-.8106l-.4004.2612-.7734-.5024h-.738282l-.9609179.6269-.4473-.2895h-.7227l-.6562.4277h-.7793l-.4902-.3174-.4843821.3165h-2.1192178l.0079.5805s-.0606.1953-.4219.1953c-.7637,0-.4942-.6792-1.2149-.6792,0,0-.6504.1856-.6504.4351,0,.249-1.0117,1.7202-4.0624823,1.7197-3.7402175,0-4.4726175-1.9678-4.4726175-3.2485,0-1.2842.748-3.2813,4.4726175-3.2813,3.0507823,0,4.0624823,1.4707,4.0624823,1.7198,0,.249.6504.435.6504.435.7207,0,.4219-.6792,1.1856-.6792.3613,0,.4219.2608.4219.2608l-.0059.5097Z" fill="none" fill-rule="evenodd"/>
      </g>
    </g>
    <path d="M9.9628825,25.9863s.0039-.1933.0859-.4814c.5196-1.857,2.4316999-2.4512,4.2050999-2.4512,2.9179999,0,3.7245999,1.5191,3.7597999,1.5923.1582.3193-.3203.5581-.4785.2393l-.0215-.0391c-.6309-.9868-2.2343999-1.2578-3.2597999-1.2578-1.5038824,0-3.2401999.4531-3.6913999,2.0615-.0586.2119-.0664.3545-.0664.3545-.0117.3555-.5469.3369-.5332-.0181Z" fill="url(#New_Gradient_251)"/>
    <path d="M11.123,26.3813s.004.042.0292824.1055c.2247176.603,1.0586.7217,1.5938.7217.5098,0,1.5781-.1709,1.6875-.8652.0332-.2657.4297-.2173.3965.0488,0,0-.0078.0859-.0606.2139-.3164.788-1.2597,1.0024-2.0233999,1.0024-.6856,0-1.9609-.2832-2.0233999-1.1909-.0215-.2666.3769-.3018.4003176-.0362Z" fill="url(#New_Gradient_245)"/>
    <path d="M15.1991823,25.1172c-.3047-.4922-1.164-.7295-1.9199-.5308-.7559.1983-1.1211.7569-.8164,1.2481.3066.4902,1.166.728,1.9219.5298.7558-.1988,1.1211-.7574.8144-1.2471ZM20.4862822,22.7036l9.9335997-2.6074,1.0215.1821-.0215.52-.7656,1.1719-.5684-.1592-.753882.1978-.222618.3413-1.0059-.2793-.6836.1802-.5312.8154-.5801-.1601-.668.1762-.3652.5562-.7207.1904-.6348-.1763-.2695.4112-1.6777.4463.0546.6069s.0567178.1963-.2792822.2837c-.707.187-.8515178-.5093-1.5195178-.3335,0,0-.4941.331-.3514822.562.1444822.2314.0545822,1.8403-2.7754177,2.583-3.4687999.9121-5.2792999-.7349-6.0195823-1.9233-.7382175-1.189-1.1972175-3.2237,2.2558824-4.1294,2.8301176-.7442,4.6151999.3735,4.7577999.6045.1445.2295.8535.2451.8535.2451.668-.1748,0-.7329.7071-.919.3359-.0879.5429.1397.5429.1397l.2871.4736Z" fill="#d68100" fill-rule="evenodd"/>
    <g mask="url(#mask-5)">
      <g>
        <path d="M15.1991823,24.5815c-.3047-.4917-1.164-.728-1.9199-.5302-.7559.1992-1.1211.7578-.8164,1.248.3066.4917,1.166.729,1.9219.5298.7558-.1982,1.1211-.7563.8144-1.2476ZM20.4862822,22.1694l9.9335997-2.6084.6817.1885.3183.5147-.7656,1.1709-.5684-.1582-.753882.1977-.222618.3403-1.0059-.2778-.6836.1787-.5312.8155-.5801-.1592-.668.1762-.3652.5567-.7207.1894-.6348-.1762-.2695.4116-1.9668.5171.3437.5356s.0567178.1968-.2792822.2857c-.707.1845-.8515178-.5118-1.5195178-.335,0,0-.4941.3311-.3514822.561.1444822.231.0545822,1.8413-2.7754177,2.585-3.4687999.9092-5.2792999-.7368-6.0195823-1.9248-.7382175-1.1885-1.1972175-3.2231,2.2558824-4.1304,2.8301176-.7427,4.6151999.374,4.7577999.606.1445.2304.8535.2446.8535.2446.668-.1748,0-.7324.7071-.918.3359-.0893.5429.1392.5429.1392l.2871.4736Z" fill="url(#New_Gradient_243)" fill-rule="evenodd"/>
        <g>
          <path d="M18.5253823,23.2217l13.5253997-3.6245c.3476-.0923.4824.4233.1387.5166l-12.9277997,3.4629c-.3436822.0937-1.082-.2632-.7363-.355Z" fill="#c96b00"/>
          <line x1="18.5097823" y1="23.2998" x2="32.0370819" y2="19.6748" fill="none" stroke="#fff" stroke-linecap="round" stroke-miterlimit="3.8637" stroke-width=".4623"/>
        </g>
        <path d="M16.3261823,24.6577l14.6229996-3.9922-.4414.6885s-10.6288997,3.0215-11.005782,3.1475c-.379.1259,1.0682822,1.7758-2.5137177,2.8007-3.3984999.9707-4.9687999-.8837-4.9687999-.8837,0,0,2.3906999,1.2607,4.0235176-.378.6268823-.6294.2831823-1.3828.2831823-1.3828Z" fill="url(#New_Gradient_244)" fill-rule="evenodd"/>
        <path d="M15.1991823,24.5815c-.3047-.4917-1.164-.728-1.9199-.5302-.7559.1992-1.1211.7578-.8164,1.248.3066.4917,1.166.729,1.9219.5298.7558-.1982,1.1211-.7563.8144-1.2476ZM20.4862822,22.1694l9.9335997-2.6084.6817.1885.3183.5147-.7656,1.1709-.5684-.1582-.753882.1977-.222618.3403-1.0059-.2778-.6836.1787-.5312.8155-.5801-.1592-.668.1762-.3652.5567-.7207.1894-.6348-.1762-.2695.4116-1.9668.5171.3437.5356s.0567178.1968-.2792822.2857c-.707.1845-.8515178-.5118-1.5195178-.335,0,0-.4941.3311-.3514822.561.1444822.231.0545822,1.8413-2.7754177,2.585-3.4687999.9092-5.2792999-.7368-6.0195823-1.9248-.7382175-1.1885-1.1972175-3.2231,2.2558824-4.1304,2.8301176-.7427,4.6151999.374,4.7577999.606.1445.2304.8535.2446.8535.2446.668-.1748,0-.7324.7071-.918.3359-.0893.5429.1392.5429.1392l.2871.4736Z" fill="none" fill-rule="evenodd"/>
      </g>
    </g>
    <path d="M10.9452824,24.8901s-.041-.0981-.0781-.2602c-.6758-3.065,5.1835999-3.7456,6.9238176-2.3389.25.2017-.0527177.5752-.3027177.374-1.668-1.3481-7.0507998-.3652-6.0976998,2.0445.1231.2964-.3261.479-.4453.1806Z" fill="url(#New_Gradient_195)"/>
    <path d="M12.5351824,25.5225c.748.9282,3.2499999.5273,2.8514999-.7412-.1972-.2496.3242-.6714.4219.0664.2285,1.7348-2.8437999,2.081-3.6073999.8955-.1465-.2227.1875-.4439.334-.2207Z" fill="url(#New_Gradient_70)"/>
    <g mask="url(#mask-6)">
      <g>
        <path d="M11.1562824,29.2827c-.5196.1157-1.4825.2139-1.8731.2139-2.6757999,0-5.2831825-1.5752-5.2831825-3.9761,0-2.4038,2.6073826-3.978,5.2831825-3.978,2.6738175,0,5.2792999,1.5742,5.2792999,3.978,0,.1504-.0059.1997-.0156.2568-.2617.1128-.9648824.21-1.4453-.0063.0058-.1226.0175-.125.0175-.2505,0-1.1943-1.4765-2.5347-3.8358999-2.5347-2.3632999,0-3.8397999,1.3404-3.8397999,2.5347,0,1.1929,1.4765,2.5332,3.8397999,2.5332.3164,0,.6309-.0259.7461-.0444,0,0,.3496.8379,1.127,1.2734Z" fill="url(#New_Gradient_66)"/>
        <path d="M6.3456826,27.4346s.0625.061.1953174.1513c1.0566825.7105,2.6991825.7442,3.8827825.6128.2657-.0283.3106.3692.043.399-1.0897825.1206-3.4901999.0854-4.4081999-.8848-.1855826-.1919.1016-.4707.2871-.2783Z" fill="url(#New_Gradient_68)"/>
        <path d="M11.8437824,22.9336s.1406.061.3437.1846c.9824.5952,1.7539,1.5683,1.5332,2.8154-.0449.2632-.4414.1938-.3945-.0689.2011-1.1406-.6758-2.1337-1.6426-2.5649-.2461-.1074-.082-.4751.1602-.3662Z" fill="url(#New_Gradient_67)"/>
      </g>
    </g>
    <path d="M5.1737826,27.6992s-.0937-.0947-.2265-.2651c-.668-.8789-.9452826-1.9907-.4882826-3.0606.7401826-1.7456,3.8241825-3.6328,7.7284824-1.9839.2441.1045.0879.4747-.1582.3697-3.7284999-1.5747-6.5604998.2563-7.2030998,1.7695-.4121.9707-.0938,2.1582.6328174,2.8862.1874826.1895-.0957174.4742-.2852174.2842Z" fill="url(#New_Gradient_65)"/>
  </g>
</svg>