<?xml version='1.0' encoding='UTF-8'?>
<svg xmlns="http://www.w3.org/2000/svg" xmlns:xlink="http://www.w3.org/1999/xlink" id="Layer_6" data-name="Layer 6" width="36" height="36" viewBox="0 0 36 36">
  <defs>
    <mask id="mask" x="4.9998003" y="6" width="28.4352916" height="24.5226987" maskUnits="userSpaceOnUse">
      <path d="M5.4633926,15.0786c-.001-.0029,0-.0068.001-.0098,0,.003,0,.0069-.001.0098M21.5858922,27.5352c.2427.2377.5279.4672.7276.7441-.2451-.2476-.4859-.4966-.7276-.7441M31.8710919,19.5923c-.3070919-.4849-.7378-.8735-1.1343-1.2822.3111.3032.6294.5996.9404.9043-.7387-.7447-1.4921-1.4703-2.2245999-2.2207.0796.0776.1597.1547.2383.2309-.3247-.3286-.3198-.3125-.2973-.7817.02-.4063.038-.8125.0517-1.2178.0352-.8931.053708-1.7856.02-2.6787-.0468-1.2505-.0615-2.6445-1.3081-3.2891-.5825-.3008-1.2407-.4428-1.8838-.5268-.3051-.041-2.0848999.0488-2.1942999-.1255-.3867-.6226-.7383-1.2656-1.1400921-1.8799-.3243078-.498-.5518078-.668-1.1504078-.5737-.8379.1318-1.6758.393-2.5019999.584-.7865922.1835-1.686.1479-2.4047999.5654-.9345.5454-.9365,2.1118-1.0897923,3.0556-.0357077.2242-2.6514076.6832-2.9502076.7574-1.0996.27-2.2001999.5537-3.2577924.959-1.0557075.4043-2.2359075.6611-3.1387074,1.3764-.9414.75-1.4862926,2.0982-1.4004,3.2993-.0102-.0073-.018-.0136-.0268-.0214.125.1074.0058,1.0805.0058,1.2651-.0018926.4609-.0068.9204-.0102,1.3808-.0049.9268.0132,1.8531.0132,2.7798,0,1.857-.0298,3.7124-.0268926,5.5684.001,1.0908.8827926,1.2563,1.8070926,1.4321.6475.1226,1.3003.1045,1.938-.0679,1.2456-.3388,2.4355999-.9116,2.4301999-2.3183.0063-.3491,4.9647999-1.2149,5.4638999-1.3291.5171-.1172,1.0268077-.2417,1.538-.3828.2496-.0679.4981-.1372.7476-.2071.1929.1988.3857.3975.5796.5948.7246078.7402,1.4541,1.4751,2.1820999,2.2114.3716.376.7036.7881,1.0767,1.1592.2524.2514.5654.4365.7983.7075-.0737-.0796-.1484-.1577-.2241-.2339,5.0922999,3.4468,12.5121997-5.0723,8.5336998-9.6948M31.8710919,19.5923c-.3070919-.4849-.7378-.8735-1.1343-1.2822.3111.3032.6294.5996.9404.9043-.7387-.7447-1.4921-1.4703-2.2245999-2.2207.0796.0776.1597.1547.2383.2309-.3247-.3286-.3198-.3125-.2973-.7817.02-.4063.038-.8125.0517-1.2178.0352-.8931.053708-1.7856.02-2.6787-.0468-1.2505-.0615-2.6445-1.3081-3.2891-.5825-.3008-1.2407-.4428-1.8838-.5268-.3051-.041-2.0848999.0488-2.1942999-.1255-.3867-.6226-.7383-1.2656-1.1400921-1.8799-.3243078-.498-.5518078-.668-1.1504078-.5737-.8379.1318-1.6758.393-2.5019999.584-.7865922.1835-1.686.1479-2.4047999.5654-.9345.5454-.9365,2.1118-1.0897923,3.0556-.0357077.2242-2.6514076.6832-2.9502076.7574-1.0996.27-2.2001999.5537-3.2577924.959-1.0557075.4043-2.2359075.6611-3.1387074,1.3764-.9414.75-1.4862926,2.0982-1.4004,3.2993-.0102-.0073-.018-.0136-.0268-.0214.125.1074.0058,1.0805.0058,1.2651-.0018926.4609-.0068.9204-.0102,1.3808-.0049.9268.0132,1.8531.0132,2.7798,0,1.857-.0298,3.7124-.0268926,5.5684.001,1.0908.8827926,1.2563,1.8070926,1.4321.6475.1226,1.3003.1045,1.938-.0679,1.2456-.3388,2.4355999-.9116,2.4301999-2.3183.0063-.3491,4.9647999-1.2149,5.4638999-1.3291.5171-.1172,1.0268077-.2417,1.538-.3828.2496-.0679.4981-.1372.7476-.2071.1929.1988.3857.3975.5796.5948.7246078.7402,1.4541,1.4751,2.1820999,2.2114.3716.376.7036.7881,1.0767,1.1592.2524.2514.5654.4365.7983.7075-.0737-.0796-.1484-.1577-.2241-.2339,5.0922999,3.4468,12.5121997-5.0723,8.5336998-9.6948" fill="#fff"/>
    </mask>
    <linearGradient id="linear-gradient" x1="6.7524526" y1="1.1778489" x2="18.5195352" y2="20.6670565" gradientUnits="userSpaceOnUse">
      <stop offset="0" stop-color="#fff"/>
      <stop offset="1" stop-color="#1a1a1a"/>
    </linearGradient>
    <linearGradient id="White_Black" data-name="White, Black" x1="3.3613594" y1="19.3202817" x2="14.7208145" y2="13.0909019" gradientUnits="userSpaceOnUse">
      <stop offset="0" stop-color="#fff"/>
      <stop offset="1" stop-color="#000"/>
    </linearGradient>
    <linearGradient id="linear-gradient-2" x1="7.2285144" y1="24.5931975" x2="14.1594069" y2="10.7314419" gradientUnits="userSpaceOnUse"><stop offset="0" stop-color="#fff"/><stop offset="1" stop-color="#1a1a1a"/></linearGradient>
    <linearGradient id="linear-gradient-3" x1="20.7262787" y1="13.9973929" x2="10.2857067" y2="13.9973929" gradientTransform="translate(3.6266 14.666) rotate(-34.7083589) scale(.9878829 .822061) skewX(-29.9584408)" gradientUnits="userSpaceOnUse">
      <stop offset="0" stop-color="#ccc"/>
      <stop offset="1" stop-color="#1a1a1a"/>
    </linearGradient>
    <radialGradient id="radial-gradient" cx="3.3352143" cy="-1.832518" fx="3.3352143" fy="-1.832518" r=".5793382" gradientTransform="translate(3.4791 22.063) rotate(-14.0014386) scale(3.1940978 3.0253631) skewX(-13.2887142)" gradientUnits="userSpaceOnUse">
      <stop offset="0" stop-color="#fff"/>
      <stop offset="1" stop-color="#000"/>
    </radialGradient>
    <linearGradient id="linear-gradient-4" x1="17.5497281" y1="9.8637163" x2="8.0657185" y2="9.8637163" gradientTransform="translate(0 8.8911) rotate(-13.9984894) scale(1.0306069 .9703021) skewX(-13.2089399)" gradientUnits="userSpaceOnUse"><stop offset="0" stop-color="#fff"/><stop offset="1" stop-color="#1a1a1a"/></linearGradient>
    <linearGradient id="White_Black-2" data-name="White, Black" x1="8.5179715" y1="7.9755405" x2="10.846986" y2="10.1751096" gradientTransform="translate(0 8.8911) rotate(-13.9984894) scale(1.0306069 .9703021) skewX(-13.2089399)" gradientUnits="userSpaceOnUse"><stop offset="0" stop-color="#fff"/><stop offset="1" stop-color="#000"/></linearGradient>
    <linearGradient id="linear-gradient-5" x1="11.9073774" y1="22.9927764" x2="5.3810108" y2="22.9927764" gradientUnits="userSpaceOnUse">
      <stop offset="0" stop-color="#191919"/>
      <stop offset=".1422387" stop-color="#242424"/>
      <stop offset=".3928764" stop-color="#414141"/>
      <stop offset=".488764" stop-color="#4f4f4f"/>
      <stop offset="1" stop-color="#333"/>
    </linearGradient>
    <mask id="mask-1" x="15.494017" y="6" width="10.6988751" height="11.6021" maskUnits="userSpaceOnUse">
      <path d="M26.1928921,15.2295c-3.3969999.79-6.7978921,1.581-10.1957997,2.3726-.9204-3.3272-.4556-6.774.4135-10.1978,2.0131999-.4683,4.0248999-.9365,6.0380998-1.4043,1.9307,2.771,3.4985999,5.7461,3.7441999,9.2295Z" fill="#fff"/>
    </mask>
    <linearGradient id="linear-gradient-6" x1="5.9573158" y1="6.0186092" x2="20.0973328" y2="12.182217" gradientUnits="userSpaceOnUse"><stop offset="0" stop-color="#fff"/><stop offset="1" stop-color="#1a1a1a"/></linearGradient>
    <linearGradient id="linear-gradient-7" x1="22.8484331" y1="-2.1761073" x2="22.8484331" y2="5.9126786" gradientTransform="translate(-2.0001 10.8488) rotate(-13.5405069) scale(1.0203613 .9392028) skewX(-10.7143751)" gradientUnits="userSpaceOnUse">
      <stop offset="0" stop-color="#fff"/>
      <stop offset="1" stop-color="#333"/>
    </linearGradient>
    <linearGradient id="linear-gradient-8" x1="25.0747441" y1="1.5602121" x2="25.0747441" y2="4.8688996" gradientTransform="translate(-4.131 11.105) rotate(-13.1016205) scale(.9872999 .9090009) skewX(-3.1102709)" gradientUnits="userSpaceOnUse">
      <stop offset="0" stop-color="#d9d9d9"/>
      <stop offset="1" stop-color="#000"/>
    </linearGradient>
    <linearGradient id="White_Black-3" data-name="White, Black" x1="8.659621" y1="8.1130919" x2="10.7980422" y2="10.1326609" gradientTransform="translate(0 8.8911) rotate(-13.9984894) scale(1.0306069 .9703021) skewX(-13.2089399)" gradientUnits="userSpaceOnUse"><stop offset="0" stop-color="#fff"/><stop offset="1" stop-color="#000"/></linearGradient>
    <linearGradient id="White_Black-4" data-name="White, Black" x1="25.4310797" y1="7.4839062" x2="27.9740682" y2="10.3696699" gradientUnits="userSpaceOnUse"><stop offset="0" stop-color="#fff"/><stop offset="1" stop-color="#000"/></linearGradient>
    <linearGradient id="White_Black-5" data-name="White, Black" x1="25.9543514" y1="8.4714805" x2="28.4744351" y2="9.8667302" gradientUnits="userSpaceOnUse"><stop offset="0" stop-color="#fff"/><stop offset="1" stop-color="#000"/></linearGradient>
    <linearGradient id="linear-gradient-9" x1="20.5262504" y1="25.9415311" x2="29.1913944" y2="17.2763872" gradientUnits="userSpaceOnUse">
      <stop offset="0" stop-color="#333"/>
      <stop offset=".1334557" stop-color="#3e3e3e"/>
      <stop offset=".348315" stop-color="#595959"/>
      <stop offset=".421348" stop-color="#9c9c9c"/>
      <stop offset=".42779" stop-color="#8d8d8d"/>
      <stop offset=".4427622" stop-color="#727272"/>
      <stop offset=".4579017" stop-color="#5e5e5e"/>
      <stop offset=".4731708" stop-color="#525252"/>
      <stop offset=".488764" stop-color="#4f4f4f"/>
      <stop offset="1" stop-color="#333"/>
    </linearGradient>
    <radialGradient id="radial-gradient-2" cx="5.6317429" cy=".5591082" fx="5.6317429" fy=".5591082" r="1.803868" gradientTransform="translate(9.8957 25.9272) rotate(-13.9999022) scale(3.0973018 2.9336904) skewX(-13.2872927)" gradientUnits="userSpaceOnUse">
      <stop offset="0" stop-color="#fff"/>
      <stop offset=".2059634" stop-color="#fcfcfc"/>
      <stop offset=".3496563" stop-color="#f3f3f3"/>
      <stop offset=".4744839" stop-color="#e3e3e3"/>
      <stop offset=".5884764" stop-color="#cdcdcd"/>
      <stop offset=".69512" stop-color="#b1b1b1"/>
      <stop offset=".7963673" stop-color="#8e8e8e"/>
      <stop offset=".8933228" stop-color="#656565"/>
      <stop offset=".9845413" stop-color="#363636"/>
      <stop offset="1" stop-color="#2e2e2e"/>
    </radialGradient>
    <radialGradient id="radial-gradient-3" cx="5.748152" cy=".7420714" fx="5.748152" fy=".7420714" r="1.8037114" gradientTransform="translate(9.8957 25.9272) rotate(-13.9999022) scale(3.0973018 2.9336904) skewX(-13.2872927)" gradientUnits="userSpaceOnUse"><stop offset="0" stop-color="#fff"/><stop offset=".2059634" stop-color="#fcfcfc"/><stop offset=".3496563" stop-color="#f3f3f3"/><stop offset=".4744839" stop-color="#e3e3e3"/><stop offset=".5884764" stop-color="#cdcdcd"/><stop offset=".69512" stop-color="#b1b1b1"/><stop offset=".7963673" stop-color="#8e8e8e"/><stop offset=".8933228" stop-color="#656565"/><stop offset=".9845413" stop-color="#363636"/><stop offset="1" stop-color="#2e2e2e"/></radialGradient>
    <radialGradient id="Black_White_Radial" data-name="Black, White Radial" cx="14.5182997" cy="-2.7165485" fx="14.5182997" fy="-2.7165485" r="2.066245" gradientTransform="translate(-10.2412 42.1513) rotate(-13.9996376) scale(2.7712126 2.6247511) skewX(-13.2866726)" gradientUnits="userSpaceOnUse">
      <stop offset="0" stop-color="#fff"/>
      <stop offset="1" stop-color="#000"/>
    </radialGradient>
    <radialGradient id="radial-gradient-4" cx="5.6617214" cy=".7770015" fx="5.6617214" fy=".7770015" r="1.5113687" gradientTransform="translate(9.8957 25.9272) rotate(-13.9999022) scale(3.0973018 2.9336904) skewX(-13.2872927)" gradientUnits="userSpaceOnUse">
      <stop offset=".011236" stop-color="#0a50a1"/>
      <stop offset=".196629" stop-color="#ccecf4"/>
      <stop offset="1" stop-color="#081326"/>
    </radialGradient>
    <radialGradient id="radial-gradient-5" cx="21.1843008" cy="-6.2924987" fx="21.1843008" fy="-6.2924987" r="1.2684308" gradientTransform="translate(-25.2369 52.8387) rotate(-14.0002992) scale(2.5515965 2.4168094) skewX(-13.2876608)" gradientUnits="userSpaceOnUse">
      <stop offset=".011236" stop-color="#0a50a1"/>
      <stop offset=".196629" stop-color="#ccecf4"/>
      <stop offset=".3341815" stop-color="#c8e8f1"/>
      <stop offset=".4509816" stop-color="#bfdee7"/>
      <stop offset=".5602538" stop-color="#aeccd8"/>
      <stop offset=".6649202" stop-color="#97b3c1"/>
      <stop offset=".7663476" stop-color="#7a93a5"/>
      <stop offset=".8653144" stop-color="#556c82"/>
      <stop offset=".9605348" stop-color="#2b3f59"/>
      <stop offset="1" stop-color="#182a47"/>
    </radialGradient>
    <radialGradient id="radial-gradient-6" cx="5.3000921" cy=".3460527" fx="5.3000921" fy=".3460527" r="1.2344196" gradientTransform="translate(9.8957 25.9272) rotate(-13.9999022) scale(3.0973018 2.9336904) skewX(-13.2872927)" gradientUnits="userSpaceOnUse">
      <stop offset="0" stop-color="#fedfb3"/>
      <stop offset=".207865" stop-color="#000"/>
      <stop offset=".825843" stop-color="#2d1709"/>
      <stop offset="1" stop-color="#5e360e"/>
    </radialGradient>
    <linearGradient id="linear-gradient-10" x1="20.0505994" y1="23.7494659" x2="25.9907959" y2="17.8092694" gradientUnits="userSpaceOnUse">
      <stop offset="0" stop-color="#000"/>
      <stop offset=".0598854" stop-color="#080808"/>
      <stop offset=".1542153" stop-color="#1e1e1e"/>
      <stop offset=".2711526" stop-color="#434343"/>
      <stop offset=".4050569" stop-color="#767676"/>
      <stop offset=".421348" stop-color="#7d7d7d"/>
      <stop offset=".4873588" stop-color="#727272"/>
      <stop offset=".8304142" stop-color="#414141"/>
      <stop offset="1" stop-color="#2e2e2e"/>
    </linearGradient>
    <linearGradient id="linear-gradient-11" x1="22.0372788" y1="25.7354643" x2="27.9775987" y2="19.7951445" gradientUnits="userSpaceOnUse"><stop offset="0" stop-color="#000"/><stop offset=".0598854" stop-color="#080808"/><stop offset=".1542153" stop-color="#1e1e1e"/><stop offset=".2711526" stop-color="#434343"/><stop offset=".4050569" stop-color="#767676"/><stop offset=".421348" stop-color="#7d7d7d"/><stop offset=".4873588" stop-color="#727272"/><stop offset=".8304142" stop-color="#414141"/><stop offset="1" stop-color="#2e2e2e"/></linearGradient>
  </defs>
  <path d="M5.4633926,15.0786c-.001-.0029,0-.0068.001-.0098,0,.003,0,.0069-.001.0098M21.5858922,27.5352c.2427.2377.5279.4672.7276.7441-.2451-.2476-.4859-.4966-.7276-.7441M31.8710919,19.5923c-.3070919-.4849-.7378-.8735-1.1343-1.2822.3111.3032.6294.5996.9404.9043-.7387-.7447-1.4921-1.4703-2.2245999-2.2207.0796.0776.1597.1547.2383.2309-.3247-.3286-.3198-.3125-.2973-.7817.02-.4063.038-.8125.0517-1.2178.0352-.8931.053708-1.7856.02-2.6787-.0468-1.2505-.0615-2.6445-1.3081-3.2891-.5825-.3008-1.2407-.4428-1.8838-.5268-.3051-.041-2.0848999.0488-2.1942999-.1255-.3867-.6226-.7383-1.2656-1.1400921-1.8799-.3243078-.498-.5518078-.668-1.1504078-.5737-.8379.1318-1.6758.393-2.5019999.584-.7865922.1835-1.686.1479-2.4047999.5654-.9345.5454-.9365,2.1118-1.0897923,3.0556-.0357077.2242-2.6514076.6832-2.9502076.7574-1.0996.27-2.2001999.5537-3.2577924.959-1.0557075.4043-2.2359075.6611-3.1387074,1.3764-.9414.75-1.4862926,2.0982-1.4004,3.2993-.0102-.0073-.018-.0136-.0268-.0214.125.1074.0058,1.0805.0058,1.2651-.0018926.4609-.0068.9204-.0102,1.3808-.0049.9268.0132,1.8531.0132,2.7798,0,1.857-.0298,3.7124-.0268926,5.5684.001,1.0908.8827926,1.2563,1.8070926,1.4321.6475.1226,1.3003.1045,1.938-.0679,1.2456-.3388,2.4355999-.9116,2.4301999-2.3183.0063-.3491,4.9647999-1.2149,5.4638999-1.3291.5171-.1172,1.0268077-.2417,1.538-.3828.2496-.0679.4981-.1372.7476-.2071.1929.1988.3857.3975.5796.5948.7246078.7402,1.4541,1.4751,2.1820999,2.2114.3716.376.7036.7881,1.0767,1.1592.2524.2514.5654.4365.7983.7075-.0737-.0796-.1484-.1577-.2241-.2339,5.0922999,3.4468,12.5121997-5.0723,8.5336998-9.6948M31.8710919,19.5923c-.3070919-.4849-.7378-.8735-1.1343-1.2822.3111.3032.6294.5996.9404.9043-.7387-.7447-1.4921-1.4703-2.2245999-2.2207.0796.0776.1597.1547.2383.2309-.3247-.3286-.3198-.3125-.2973-.7817.02-.4063.038-.8125.0517-1.2178.0352-.8931.053708-1.7856.02-2.6787-.0468-1.2505-.0615-2.6445-1.3081-3.2891-.5825-.3008-1.2407-.4428-1.8838-.5268-.3051-.041-2.0848999.0488-2.1942999-.1255-.3867-.6226-.7383-1.2656-1.1400921-1.8799-.3243078-.498-.5518078-.668-1.1504078-.5737-.8379.1318-1.6758.393-2.5019999.584-.7865922.1835-1.686.1479-2.4047999.5654-.9345.5454-.9365,2.1118-1.0897923,3.0556-.0357077.2242-2.6514076.6832-2.9502076.7574-1.0996.27-2.2001999.5537-3.2577924.959-1.0557075.4043-2.2359075.6611-3.1387074,1.3764-.9414.75-1.4862926,2.0982-1.4004,3.2993-.0102-.0073-.018-.0136-.0268-.0214.125.1074.0058,1.0805.0058,1.2651-.0018926.4609-.0068.9204-.0102,1.3808-.0049.9268.0132,1.8531.0132,2.7798,0,1.857-.0298,3.7124-.0268926,5.5684.001,1.0908.8827926,1.2563,1.8070926,1.4321.6475.1226,1.3003.1045,1.938-.0679,1.2456-.3388,2.4355999-.9116,2.4301999-2.3183.0063-.3491,4.9647999-1.2149,5.4638999-1.3291.5171-.1172,1.0268077-.2417,1.538-.3828.2496-.0679.4981-.1372.7476-.2071.1929.1988.3857.3975.5796.5948.7246078.7402,1.4541,1.4751,2.1820999,2.2114.3716.376.7036.7881,1.0767,1.1592.2524.2514.5654.4365.7983.7075-.0737-.0796-.1484-.1577-.2241-.2339,5.0922999,3.4468,12.5121997-5.0723,8.5336998-9.6948" fill="none" stroke="#000" stroke-linecap="round" stroke-linejoin="round" stroke-width="2"/>
  <g mask="url(#mask)">
    <g>
      <path d="M5.4633926,15.0786c-.001-.0029,0-.0068.001-.0098,0,.003,0,.0069-.001.0098M21.5858922,27.5352c.2427.2377.5279.4672.7276.7441-.2451-.2476-.4859-.4966-.7276-.7441M31.8710919,19.5923c-.3070919-.4849-.7378-.8735-1.1343-1.2822.3111.3032.6294.5996.9404.9043-.7387-.7447-1.4921-1.4703-2.2245999-2.2207.0796.0776.1597.1547.2383.2309-.3247-.3286-.3198-.3125-.2973-.7817.02-.4063.038-.8125.0517-1.2178.0352-.8931.053708-1.7856.02-2.6787-.0468-1.2505-.0615-2.6445-1.3081-3.2891-.5825-.3008-1.2407-.4428-1.8838-.5268-.3051-.041-2.0848999.0488-2.1942999-.1255-.3867-.6226-.7383-1.2656-1.1400921-1.8799-.3243078-.498-.5518078-.668-1.1504078-.5737-.8379.1318-1.6758.393-2.5019999.584-.7865922.1835-1.686.1479-2.4047999.5654-.9345.5454-.9365,2.1118-1.0897923,3.0556-.0357077.2242-2.6514076.6832-2.9502076.7574-1.0996.27-2.2001999.5537-3.2577924.959-1.0557075.4043-2.2359075.6611-3.1387074,1.3764-.9414.75-1.4862926,2.0982-1.4004,3.2993-.0102-.0073-.018-.0136-.0268-.0214.125.1074.0058,1.0805.0058,1.2651-.0018926.4609-.0068.9204-.0102,1.3808-.0049.9268.0132,1.8531.0132,2.7798,0,1.857-.0298,3.7124-.0268926,5.5684.001,1.0908.8827926,1.2563,1.8070926,1.4321.6475.1226,1.3003.1045,1.938-.0679,1.2456-.3388,2.4355999-.9116,2.4301999-2.3183.0063-.3491,4.9647999-1.2149,5.4638999-1.3291.5171-.1172,1.0268077-.2417,1.538-.3828.2496-.0679.4981-.1372.7476-.2071.1929.1988.3857.3975.5796.5948.7246078.7402,1.4541,1.4751,2.1820999,2.2114.3716.376.7036.7881,1.0767,1.1592.2524.2514.5654.4365.7983.7075-.0737-.0796-.1484-.1577-.2241-.2339,5.0922999,3.4468,12.5121997-5.0723,8.5336998-9.6948M31.8710919,19.5923c-.3070919-.4849-.7378-.8735-1.1343-1.2822.3111.3032.6294.5996.9404.9043-.7387-.7447-1.4921-1.4703-2.2245999-2.2207.0796.0776.1597.1547.2383.2309-.3247-.3286-.3198-.3125-.2973-.7817.02-.4063.038-.8125.0517-1.2178.0352-.8931.053708-1.7856.02-2.6787-.0468-1.2505-.0615-2.6445-1.3081-3.2891-.5825-.3008-1.2407-.4428-1.8838-.5268-.3051-.041-2.0848999.0488-2.1942999-.1255-.3867-.6226-.7383-1.2656-1.1400921-1.8799-.3243078-.498-.5518078-.668-1.1504078-.5737-.8379.1318-1.6758.393-2.5019999.584-.7865922.1835-1.686.1479-2.4047999.5654-.9345.5454-.9365,2.1118-1.0897923,3.0556-.0357077.2242-2.6514076.6832-2.9502076.7574-1.0996.27-2.2001999.5537-3.2577924.959-1.0557075.4043-2.2359075.6611-3.1387074,1.3764-.9414.75-1.4862926,2.0982-1.4004,3.2993-.0102-.0073-.018-.0136-.0268-.0214.125.1074.0058,1.0805.0058,1.2651-.0018926.4609-.0068.9204-.0102,1.3808-.0049.9268.0132,1.8531.0132,2.7798,0,1.857-.0298,3.7124-.0268926,5.5684.001,1.0908.8827926,1.2563,1.8070926,1.4321.6475.1226,1.3003.1045,1.938-.0679,1.2456-.3388,2.4355999-.9116,2.4301999-2.3183.0063-.3491,4.9647999-1.2149,5.4638999-1.3291.5171-.1172,1.0268077-.2417,1.538-.3828.2496-.0679.4981-.1372.7476-.2071.1929.1988.3857.3975.5796.5948.7246078.7402,1.4541,1.4751,2.1820999,2.2114.3716.376.7036.7881,1.0767,1.1592.2524.2514.5654.4365.7983.7075-.0737-.0796-.1484-.1577-.2241-.2339,5.0922999,3.4468,12.5121997-5.0723,8.5336998-9.6948" fill="none"/>
      <g>
        <path d="M22.1166922,8.8428c-2.0429999.3618-5.5111999,1.1714-8.2450998,2.1289-1.9385.6841-4.9775924.7021-6.5771998,2.2827-3.1454999,3.1133-2.2128999,9.8306-1.895,13.6772.1582,1.919,16.4726996-2.7861,19.0048995-3.788,1.8311-.7256,3.4497079-.7774,4.2817079-1.8355.377-.4805.593292-1.1626.599592-2.2056.0088-1.9985.4917-6.667-.0888-8.7055-.5845-2.0366-5.0400999-1.916-7.0800998-1.5542Z" fill="url(#linear-gradient)"/>
        <path d="M17.1532923,14.2725c.1538,1.0327-.373,2.1201-1.1899,2.3945l-9.2226998,3.0933c-.9066926.3042-1.5835-.439-1.5039-1.6182l.1875-2.7935c.0679-1.0263.7808-2.0298,1.583-2.2719l8.2143998-2.481c.7314-.2207,1.4287.314,1.5635,1.2183l.3681,2.4585Z" fill="url(#White_Black)"/>
        <path d="M16.9833923,14.7925c.1367.8691-.3311,1.7846-1.0562,2.0146l-8.1732998,2.6045c-.8047.2564-1.4028-.3701-1.3325-1.3603l.165-2.3526c.062-.8633.6909-1.708,1.4038-1.9116l7.2802998-2.0889c.6499-.1879,1.2671.2632,1.3867,1.0254l.3262,2.0689Z" fill="url(#linear-gradient-2)"/>
        <path d="M15.5326923,14.8037c-1.8598,2.0064-2.9633999,2.7544-4.3451999,3.103.0039,2.959.0088,5.9117.0137,8.8579,1.226-.2036,2.6522999-.4458,4.3304999-.7343,0-3.7315.001-7.4751.001-11.2266Z" fill="url(#linear-gradient-3)"/>
        <g>
          <path d="M15.2582923,13.6826c0,.6514-.5269,1.3115-1.1758,1.4746-.6474.1612-1.1733-.2373-1.1733-.8886,0-.6519.5259-1.3145,1.1733-1.4756.6489-.1636,1.1758.2358,1.1758.8896Z" fill="#333"/>
          <path d="M15.0443923,13.7354c0,.5341-.4292,1.0737-.9619,1.2055-.5303.1333-.9614-.1919-.9614-.7251,0-.5346.4311-1.0776.9614-1.209.5327-.1328.9619.1944.9619.7286Z" fill="url(#radial-gradient)"/>
        </g>
        <g>
          <path d="M8.2895925,16.2432c.6738-.002,1.3461-.3286,2.0034075-.6407.3275925-.1538,1.0961924-.6987,1.4242924-.6567.5161.0684.2871.4956.168.8848-.2802924.9111-.8121.9897-1.6792,1.2436-.4185.1231-.7880925.252-1.1919.3467-.3321.0767-1.3501.3535-1.6381925.1792-.7149074-.4351.7147925-1.2388,1.2225925-1.4346" fill="url(#linear-gradient-4)"/>
          <path d="M11.5858924,15.9092c0,.3286-.458.7075-1.0218924.8481-.5655075.1406-1.022-.0102-1.022-.3374,0-.3276.4564925-.706,1.022-.8467.5638924-.1406,1.0218924.0108,1.0218924.336Z" fill="url(#White_Black-2)"/>
        </g>
        <path d="M5.0180926,28.4854c2.3876999,1.3554,4.3104999.8427,6.1615998-.8697-.0151-3.2597-.0322-6.5024-.0479-9.7285-1.8383,1.0757-3.7460999.9517-6.1136998-1.1601v11.7583Z" fill="url(#linear-gradient-5)"/>
        <g mask="url(#mask-1)">
          <g>
            <path d="M26.1928921,15.2295c-3.3969999.79-6.7978921,1.581-10.1957997,2.3726-.9204-3.3272-.4556-6.774.4135-10.1978,2.0131999-.4683,4.0248999-.9365,6.0380998-1.4043,1.9307,2.771,3.4985999,5.7461,3.7441999,9.2295Z" fill="url(#linear-gradient-6)"/>
            <path d="M24.3686921,10.8013c.0258.8647-.4086921,1.6811-.9722,1.8276l-4.9418999,1.2891c-.564.1484-1.042-.4312-1.0698-1.2935l-.0396-1.2983c-.0259-.8648.4082-1.6822.9722-1.8291l4.9418999-1.2891c.5635-.147,1.0415.4331,1.0683,1.2959l.0411,1.2974Z" fill="url(#linear-gradient-7)"/>
            <path d="M24.2343921,8.1304c.1382.5879-.2285,1.1479-.8213,1.2485l-5.1894999.8809c-.5913.1001-1.1845-.2974-1.3217-.8853l-.209-.8843c-.1392-.5903.2295-1.1494.8203-1.2495l5.1908999-.8803c.5918-.1011,1.1821.2954,1.3213.8857l.209.8843Z" fill="url(#linear-gradient-8)"/>
          </g>
        </g>
        <path d="M10.5331925,16.1543c.3599-.0894.7119-.1699,1.0518075-.2402-.2066076-.2935-.6016076-.4287-1.0518075-.3164-.4511925.1123-.8437.4443-1.0527.8413.3408-.1001.6919-.1939,1.0527-.2847Z" fill="url(#White_Black-3)"/>
        <path d="M29.254892,9.9541c-.1934.5835-.881892.918-1.4815.7637l-2.0565999-.5342c-.3711-.0952-.5439-.5015-.4116-.9102h0c.1308079-.4077.5337-.7148.9262-.6801l2.1782999.1923c.6342.0562,1.04.5831.8452,1.1685h0Z" fill="url(#White_Black-4)"/>
        <path d="M29.333,9.7207c-.136208.4136-.776408.5996-1.371608.4331l-2.0448999-.5732c-.3682-.1031-.5708-.417-.4794921-.7071h0c.0927921-.2885.4574921-.479.8412921-.4199l2.1313999.3316c.6201.0961,1.0625.5205.923308.9355h0Z" fill="url(#White_Black-5)"/>
        <g>
          <path d="M31.2387919,18.8237c-1.291-1.31-2.5605999-2.6611-3.8969999-3.9233-2.2982999-2.3389-6.0170998-1.0249-8.0023998,1.0273-1.9623922,2.0303-3.2031999,5.6573-1.2061,8.0913.1084.1314.2227077.2554.3462.3721,1.2842,1.3169,2.5605077,2.6631,3.8978999,3.9243,2.2963999,2.3389,6.0161998,1.0259,8.0024998-1.0268,1.9624-2.0298,3.203108-5.6582,1.205108-8.0923-.1084081-.1299-.2237081-.2544-.3462081-.3726" fill="url(#linear-gradient-9)"/>
          <g>
            <path d="M32.585,22.1958c0,3.1821-2.564,6.398-5.723208,7.186-3.1635999.7881-5.7250999-1.1494-5.7250999-4.332,0-3.1802,2.5614999-6.3965,5.7250999-7.1865,3.159208-.7871,5.723208,1.1518,5.723208,4.3325Z" fill="url(#radial-gradient-2)" stroke="#000" stroke-linecap="round" stroke-linejoin="round"/>
            <path d="M32.9350919,22.6626c0,3.1812-2.5629999,6.3975-5.7241999,7.1841-3.1615999.789-5.7245999-1.1489-5.7245999-4.3296,0-3.1812,2.5629999-6.397,5.7245999-7.1865,3.1611999-.7881,5.7241999,1.1513,5.7241999,4.332Z" fill="url(#radial-gradient-3)" stroke="#000" stroke-linecap="round" stroke-linejoin="round"/>
            <path d="M32.3334919,22.8125c0,2.8452-2.2943999,5.7241-5.1225999,6.4297-2.8275999.7046-5.1219999-1.0308-5.1219999-3.8755,0-2.8457,2.2943999-5.7241,5.1219999-6.4302,2.8281999-.7051,5.1225999,1.0308,5.1225999,3.876Z" fill="url(#Black_White_Radial)"/>
            <path d="M31.6068919,22.9927c0,2.4428-1.9677,4.9145-4.3959999,5.519-2.4276999.606-4.3963999-.8843-4.3963999-3.3262,0-2.4433,1.9687-4.9121,4.3963999-5.5185,2.4282999-.605,4.3959999.8828,4.3959999,3.3257Z" fill="url(#radial-gradient-4)"/>
            <path d="M30.8334919,23.1865c0,2.0127-1.6226,4.0469-3.6225999,4.5449-1.9994999.4996-3.6219999-.7265-3.6219999-2.7387,0-2.0127,1.6225-4.0493,3.6219999-4.5474,1.9999999-.4995,3.6225999.7295,3.6225999,2.7412Z" fill="url(#radial-gradient-5)"/>
            <path d="M29.715792,23.4644c0,1.3925-1.1211,2.8022-2.5048999,3.1464-1.3838.3448-2.5043999-.5044-2.5043999-1.8969,0-1.3897,1.1206-2.8003,2.5043999-3.1451,1.3838-.3442,2.5048999.5059,2.5048999,1.8956Z" fill="url(#radial-gradient-6)"/>
          </g>
          <path d="M19.9774922,25.8877c-.1234922-.1167-.2397-.2402-.3471-.3706-1.9970999-2.4356-.7543922-6.062,1.207-8.0923,1.9853999-2.0537,5.7030999-3.3657,8.0004998-1.0269.2886.2715.5718.5489.853.8267-.4931-.4985-.9902-.9936-1.499-1.4726-2.2963999-2.3394-6.0165998-1.0254-8.0014998,1.0263-1.9613922,2.0303-3.2030999,5.6587-1.206,8.0923.1074.1314.2236078.2554.3467.3711.9941,1.0186,1.9842999,2.0562,3.0013999,3.0586-.7934-.7988-1.5737-1.6118-2.3549999-2.4126Z" fill="url(#linear-gradient-10)"/>
          <path d="M21.9608922,27.8779c-.1225-.1181-.2387-.2422-.3462-.3725-1.9969999-2.4346-.7563-6.063,1.2071-8.0918,1.9843999-2.0532,5.7030999-3.3657,8.0013998-1.0274.2867.2715.5708081.5503.854.8282-.4951-.4986-.9921-.9942-1.5019-1.4732-2.2963999-2.3393-6.0165998-1.0259-8.0009998,1.0264-1.9624,2.0293-3.2030999,5.6572-1.2055,8.0918.1074.1308.2226.2553.3457.3716.9951,1.018,1.9852999,2.0551,3.0013999,3.0581-.7915-.7989-1.5727-1.6114-2.3549999-2.4112Z" fill="url(#linear-gradient-11)"/>
        </g>
      </g>
      <path d="M5.4633926,15.0786c-.001-.0029,0-.0068.001-.0098,0,.003,0,.0069-.001.0098M21.5858922,27.5352c.2427.2377.5279.4672.7276.7441-.2451-.2476-.4859-.4966-.7276-.7441M31.8710919,19.5923c-.3070919-.4849-.7378-.8735-1.1343-1.2822.3111.3032.6294.5996.9404.9043-.7387-.7447-1.4921-1.4703-2.2245999-2.2207.0796.0776.1597.1547.2383.2309-.3247-.3286-.3198-.3125-.2973-.7817.02-.4063.038-.8125.0517-1.2178.0352-.8931.053708-1.7856.02-2.6787-.0468-1.2505-.0615-2.6445-1.3081-3.2891-.5825-.3008-1.2407-.4428-1.8838-.5268-.3051-.041-2.0848999.0488-2.1942999-.1255-.3867-.6226-.7383-1.2656-1.1400921-1.8799-.3243078-.498-.5518078-.668-1.1504078-.5737-.8379.1318-1.6758.393-2.5019999.584-.7865922.1835-1.686.1479-2.4047999.5654-.9345.5454-.9365,2.1118-1.0897923,3.0556-.0357077.2242-2.6514076.6832-2.9502076.7574-1.0996.27-2.2001999.5537-3.2577924.959-1.0557075.4043-2.2359075.6611-3.1387074,1.3764-.9414.75-1.4862926,2.0982-1.4004,3.2993-.0102-.0073-.018-.0136-.0268-.0214.125.1074.0058,1.0805.0058,1.2651-.0018926.4609-.0068.9204-.0102,1.3808-.0049.9268.0132,1.8531.0132,2.7798,0,1.857-.0298,3.7124-.0268926,5.5684.001,1.0908.8827926,1.2563,1.8070926,1.4321.6475.1226,1.3003.1045,1.938-.0679,1.2456-.3388,2.4355999-.9116,2.4301999-2.3183.0063-.3491,4.9647999-1.2149,5.4638999-1.3291.5171-.1172,1.0268077-.2417,1.538-.3828.2496-.0679.4981-.1372.7476-.2071.1929.1988.3857.3975.5796.5948.7246078.7402,1.4541,1.4751,2.1820999,2.2114.3716.376.7036.7881,1.0767,1.1592.2524.2514.5654.4365.7983.7075-.0737-.0796-.1484-.1577-.2241-.2339,5.0922999,3.4468,12.5121997-5.0723,8.5336998-9.6948M31.8710919,19.5923c-.3070919-.4849-.7378-.8735-1.1343-1.2822.3111.3032.6294.5996.9404.9043-.7387-.7447-1.4921-1.4703-2.2245999-2.2207.0796.0776.1597.1547.2383.2309-.3247-.3286-.3198-.3125-.2973-.7817.02-.4063.038-.8125.0517-1.2178.0352-.8931.053708-1.7856.02-2.6787-.0468-1.2505-.0615-2.6445-1.3081-3.2891-.5825-.3008-1.2407-.4428-1.8838-.5268-.3051-.041-2.0848999.0488-2.1942999-.1255-.3867-.6226-.7383-1.2656-1.1400921-1.8799-.3243078-.498-.5518078-.668-1.1504078-.5737-.8379.1318-1.6758.393-2.5019999.584-.7865922.1835-1.686.1479-2.4047999.5654-.9345.5454-.9365,2.1118-1.0897923,3.0556-.0357077.2242-2.6514076.6832-2.9502076.7574-1.0996.27-2.2001999.5537-3.2577924.959-1.0557075.4043-2.2359075.6611-3.1387074,1.3764-.9414.75-1.4862926,2.0982-1.4004,3.2993-.0102-.0073-.018-.0136-.0268-.0214.125.1074.0058,1.0805.0058,1.2651-.0018926.4609-.0068.9204-.0102,1.3808-.0049.9268.0132,1.8531.0132,2.7798,0,1.857-.0298,3.7124-.0268926,5.5684.001,1.0908.8827926,1.2563,1.8070926,1.4321.6475.1226,1.3003.1045,1.938-.0679,1.2456-.3388,2.4355999-.9116,2.4301999-2.3183.0063-.3491,4.9647999-1.2149,5.4638999-1.3291.5171-.1172,1.0268077-.2417,1.538-.3828.2496-.0679.4981-.1372.7476-.2071.1929.1988.3857.3975.5796.5948.7246078.7402,1.4541,1.4751,2.1820999,2.2114.3716.376.7036.7881,1.0767,1.1592.2524.2514.5654.4365.7983.7075-.0737-.0796-.1484-.1577-.2241-.2339,5.0922999,3.4468,12.5121997-5.0723,8.5336998-9.6948" fill="none"/>
    </g>
  </g>
</svg>