<?xml version='1.0' encoding='UTF-8'?>
<svg xmlns="http://www.w3.org/2000/svg" xmlns:xlink="http://www.w3.org/1999/xlink" id="Layer_7" data-name="Layer 7" width="36" height="36" viewBox="0 0 36 36">
  <defs>
    <linearGradient id="New_Gradient_335" data-name="New Gradient 335" x1="2.9550826" y1="25.7812553" x2="19.2366768" y2="25.7812553" gradientUnits="userSpaceOnUse">
      <stop offset="0" stop-color="#999"/>
      <stop offset=".20224" stop-color="#f2f2f2"/>
      <stop offset=".516861" stop-color="#b2b2b2"/>
      <stop offset=".769669" stop-color="#b2b2b2"/>
      <stop offset="1" stop-color="#737373"/>
    </linearGradient>
    <linearGradient id="New_Gradient_335-2" data-name="New Gradient 335" x1="2.9081826" y1="24.7946989" x2="14.8905823" y2="24.7946989" gradientUnits="userSpaceOnUse"><stop offset="0" stop-color="#999"/><stop offset=".20224" stop-color="#f2f2f2"/><stop offset=".516861" stop-color="#b2b2b2"/><stop offset=".769669" stop-color="#b2b2b2"/><stop offset="1" stop-color="#737373"/></linearGradient>
    <mask id="mask" x="2.7978827" y="17.7134" width="12.0926997" height="9.4658" maskUnits="userSpaceOnUse">
      <path d="M8.9228825,17.9561c3.2958999-.0005,5.9676998,1.7255,5.9676998,3.8535,0,2.1294-2.6717999,3.8559-5.9676998,3.8559-3.2958825,0-5.9677998-1.7265-5.9677998-3.8559,0-2.128,2.6719174-3.8535,5.9677998-3.8535Z" fill="#fff"/>
    </mask>
    <linearGradient id="New_Gradient_332" data-name="New Gradient 332" x1="2.9550826" y1="21.8107999" x2="14.8905823" y2="21.8107999" gradientUnits="userSpaceOnUse">
      <stop offset="0" stop-color="#999"/>
      <stop offset=".219101" stop-color="#b2b2b2"/>
      <stop offset=".466293" stop-color="#b2b2b2"/>
      <stop offset=".769669" stop-color="#f2f2f2"/>
      <stop offset="1" stop-color="#737373"/>
    </linearGradient>
    <mask id="mask-1" x="3.0741826" y="18.5791" width="11.6953174" height="8.6001" maskUnits="userSpaceOnUse">
      <path d="M8.9228825,19.0576c2.9637999,0,5.3681175,1.5532,5.3681175,3.4697,0,1.9161-2.4043176,3.4693-5.3681175,3.4693-2.9658825,0-5.3701999-1.5532-5.3701999-3.4693,0-1.9165,2.4043174-3.4697,5.3701999-3.4697Z" fill="#fff" stroke="#fff" stroke-miterlimit="3.8637" stroke-width=".957"/>
    </mask>
    <linearGradient id="New_Gradient_333" data-name="New Gradient 333" x1="3.5526826" y1="22.5271" x2="14.291" y2="22.5271" gradientUnits="userSpaceOnUse">
      <stop offset="0" stop-color="#5587c0"/>
      <stop offset=".20787" stop-color="#97bae0"/>
      <stop offset=".865173" stop-color="#b3e0ff"/>
      <stop offset="1" stop-color="#5587c0"/>
    </linearGradient>
    <radialGradient id="New_Gradient_334" data-name="New Gradient 334" cx="82.3391807" cy="41.1239718" fx="82.3391807" fy="41.1239718" r="9.8114713" gradientTransform="translate(-66.377225 -15.7597249) scale(.8754)" gradientUnits="userSpaceOnUse">
      <stop offset="0" stop-color="#78dcff"/>
      <stop offset="1" stop-color="#b7e9ff"/>
    </radialGradient>
    <linearGradient id="linear-gradient" x1="5.180728" y1="18.0691943" x2="12.3249419" y2="25.2134082" gradientUnits="userSpaceOnUse">
      <stop offset="0" stop-color="gray"/>
      <stop offset=".187809" stop-color="#82868b"/>
      <stop offset=".5233754" stop-color="#8a99aa"/>
      <stop offset=".9651405" stop-color="#95b7db"/>
      <stop offset="1" stop-color="#97bae0"/>
    </linearGradient>
    <linearGradient id="New_Gradient_331" data-name="New Gradient 331" x1="5.3499219" y1="18.2376538" x2="12.495295" y2="25.3830269" gradientUnits="userSpaceOnUse">
      <stop offset="0" stop-color="gray"/>
      <stop offset="1" stop-color="#fff"/>
    </linearGradient>
    <mask id="mask-2" x="3.5526826" y="19.8423364" width="10.7383174" height="7.3368636" maskUnits="userSpaceOnUse">
      <path d="M7.1542825,19.8643c1.0117175-.125,1.8955.2963,1.9727175.9394.08.6411-.6758175,1.2637-1.6875175,1.3882-1.0098.123-1.8964825-.2964-1.9747-.9385-.0781-.6435.6768-1.2656,1.6895-1.3891Z" fill="#fff"/>
    </mask>
    <linearGradient id="New_Gradient_330" data-name="New Gradient 330" x1="15.349596" y1="25.7468014" x2="11.3771338" y2="29.7192637" gradientUnits="userSpaceOnUse">
      <stop offset="0" stop-color="#4c4c4c"/>
      <stop offset=".623596" stop-color="#d9d9d9"/>
      <stop offset="1" stop-color="#4c4c4c"/>
    </linearGradient>
    <mask id="mask-3" x="12.6188999" y="26.9884388" width="6.8351324" height="6.8289112" maskUnits="userSpaceOnUse">
      <path d="M15.749,27.5527l2.9238822,2.9219c1.7099,1.7119-.8555,4.2788-2.5673999,2.5674l-2.9228999-2.9214c-1.7099-1.7129.8565-4.2788,2.5664176-2.5679Z" fill="#fff"/>
    </mask>
    <linearGradient id="New_Gradient_321" data-name="New Gradient 321" x1="18.6738087" y1="27.551431" x2="13.1813065" y2="33.0439332" gradientUnits="userSpaceOnUse">
      <stop offset="0" stop-color="#a70000"/>
      <stop offset=".662918" stop-color="#df4e15"/>
      <stop offset="1" stop-color="#740000"/>
    </linearGradient>
    <linearGradient id="New_Gradient_329" data-name="New Gradient 329" x1="16.4663258" y1="30.2571435" x2="18.3709291" y2="33.3051459" gradientUnits="userSpaceOnUse">
      <stop offset="0" stop-color="#df4e15"/>
      <stop offset="1" stop-color="#c42e00"/>
    </linearGradient>
    <linearGradient id="New_Gradient_326" data-name="New Gradient 326" x1="16.4663258" y1="30.2571435" x2="18.3709291" y2="33.3051459" gradientUnits="userSpaceOnUse">
      <stop offset="0" stop-color="#df4e15"/>
      <stop offset="1" stop-color="#c42e00"/>
    </linearGradient>
    <radialGradient id="radial-gradient" cx="754.6167858" cy="-27.8332078" fx="754.6167858" fy="-27.8332078" r="28.1115261" gradientTransform="translate(475.7004 20.2249) rotate(179.2125765) scale(.603957 -.7557691) skewX(-.6748893)" gradientUnits="userSpaceOnUse">
      <stop offset="0" stop-color="#fff"/>
      <stop offset=".505618" stop-color="#e5f2ff"/>
      <stop offset=".5429599" stop-color="#d8e8f9"/>
      <stop offset=".611775" stop-color="#b6cfea"/>
      <stop offset=".7036898" stop-color="#80a7d2"/>
      <stop offset=".769663" stop-color="#5587c0"/>
    </radialGradient>
    <radialGradient id="radial-gradient-2" cx="763.4394567" cy="-83.4516097" fx="763.4394567" fy="-83.4516097" r="30.6246635" gradientTransform="translate(495.1113 27.6903) rotate(175.0224365) scale(.6027732 -.7572342) skewX(-3.2594379)" gradientUnits="userSpaceOnUse">
      <stop offset=".55618" stop-color="#fff"/>
      <stop offset=".6126591" stop-color="#f9fbfd"/>
      <stop offset=".6825068" stop-color="#eaf0f7"/>
      <stop offset=".7594197" stop-color="#d1deee"/>
      <stop offset=".8414115" stop-color="#aec5e1"/>
      <stop offset=".9264778" stop-color="#81a6d0"/>
      <stop offset="1" stop-color="#5587c0"/>
    </radialGradient>
    <radialGradient id="New_Gradient_Swatch_2" data-name="New Gradient Swatch 2" cx="-37.0695208" cy="12.4119696" fx="-37.0695208" fy="12.4119696" r="10.0884791" gradientTransform="translate(28.0212 -8.5804) scale(.7514)" gradientUnits="userSpaceOnUse">
      <stop offset="0" stop-color="#fff"/>
      <stop offset="1" stop-color="#000"/>
    </radialGradient>
    <radialGradient id="New_Gradient_Swatch_2-2" data-name="New Gradient Swatch 2" cy="18.4111711" fy="18.4111711" cx="-37.0695208" fx="-37.0695208" r="10.0884791" gradientTransform="translate(28.0212 -8.5804) scale(.7514)" gradientUnits="userSpaceOnUse"><stop offset="0" stop-color="#fff"/><stop offset="1" stop-color="#000"/></radialGradient>
    <radialGradient id="New_Gradient_Swatch_2-3" data-name="New Gradient Swatch 2" cy="24.411038" fy="24.411038" cx="-37.0695208" fx="-37.0695208" r="10.0884791" gradientTransform="translate(28.0212 -8.5804) scale(.7514)" gradientUnits="userSpaceOnUse"><stop offset="0" stop-color="#fff"/><stop offset="1" stop-color="#000"/></radialGradient>
    <radialGradient id="New_Gradient_Swatch_2-4" data-name="New Gradient Swatch 2" cx="-26.5694408" cy="15.0367452" fx="-26.5694408" fy="15.0367452" r="5.0427018" gradientTransform="translate(28.0212 -8.5804) scale(.7514)" gradientUnits="userSpaceOnUse"><stop offset="0" stop-color="#fff"/><stop offset="1" stop-color="#000"/></radialGradient>
    <radialGradient id="New_Gradient_Swatch_2-5" data-name="New Gradient Swatch 2" cx="-29.5707161" cy="18.4111711" fx="-29.5707161" fy="18.4111711" r="10.0886712" gradientTransform="translate(28.0212 -8.5804) scale(.7514)" gradientUnits="userSpaceOnUse"><stop offset="0" stop-color="#fff"/><stop offset="1" stop-color="#000"/></radialGradient>
    <radialGradient id="New_Gradient_Swatch_2-6" data-name="New Gradient Swatch 2" cx="-26.5694408" cy="27.0357248" fx="-26.5694408" fy="27.0357248" r="5.0428369" gradientTransform="translate(28.0212 -8.5804) scale(.7514)" gradientUnits="userSpaceOnUse"><stop offset="0" stop-color="#fff"/><stop offset="1" stop-color="#000"/></radialGradient>
    <radialGradient id="New_Gradient_173" data-name="New Gradient 173" cx="20" cy="17.0988825" fx="20" fy="17.0988825" r="12.5031539" gradientTransform="translate(0 3.0908) scale(1 1.2813)" gradientUnits="userSpaceOnUse">
      <stop offset="0" stop-color="#b7e9ff"/>
      <stop offset=".69101" stop-color="#3c97f6"/>
      <stop offset="1" stop-color="#0342d3"/>
    </radialGradient>
    <linearGradient id="linear-gradient-2" x1="29.6921262" y1="24.3427296" x2="23.6921856" y2="20.5927638" gradientUnits="userSpaceOnUse">
      <stop offset=".005618" stop-color="#c40000"/>
      <stop offset="1" stop-color="#fc6"/>
    </linearGradient>
    <linearGradient id="New_Gradient_172" data-name="New Gradient 172" x1="23.1023648" y1="24.9142364" x2="19.3520179" y2="20.4138242" gradientUnits="userSpaceOnUse">
      <stop offset="0" stop-color="#c96b00"/>
      <stop offset=".179779" stop-color="#ecb300"/>
      <stop offset=".460678" stop-color="#ffffb3"/>
      <stop offset=".80899" stop-color="#ecb300"/>
      <stop offset="1" stop-color="#c96b00"/>
    </linearGradient>
  </defs>
  <g>
    <path d="M13.5390824,26.3682l.6464.6469c.5108-.0913,1.0723.0464,1.5635176.5376l2.9238822,2.9219c1.7099,1.7119-.8555,4.2788-2.5673999,2.5674l-2.9228999-2.9214c-.4912-.4922-.6299-1.0542-.5361-1.5654l-1.1524-1.1509c-.7783.2417-1.6513.3755-2.5711999.3755-3.2958825,0-5.9677998-1.7251-5.9677998-3.855,0-1.543.0019174-2.0644.0019174-2.0644l-.0019174-.0508c0-2.128,2.6719174-3.8535,5.9677998-3.8535,3.2958999-.0005,5.9676998,1.7255,5.9676998,3.8535v2.1152c0,.9282-.5097,1.7788-1.3515,2.4434Z" fill="url(#New_Gradient_335)" stroke="#000" stroke-miterlimit="3.8637" stroke-width="1.9141"/>
    <path d="M2.9550826,23.9248c0-1.543-.0469-2.0644-.0469-2.0644l11.9823997-.0508s0-.0137,0,2.1152c0,2.1299-2.6717999,3.855-5.9676998,3.855-3.2958825,0-5.9677998-1.7251-5.9677998-3.855Z" fill="url(#New_Gradient_335-2)" fill-rule="evenodd"/>
    <g mask="url(#mask)">
      <g>
        <path d="M8.9228825,17.9561c3.2958999-.0005,5.9676998,1.7255,5.9676998,3.8535,0,2.1294-2.6717999,3.8559-5.9676998,3.8559-3.2958825,0-5.9677998-1.7265-5.9677998-3.8559,0-2.128,2.6719174-3.8535,5.9677998-3.8535Z" fill="url(#New_Gradient_332)"/>
        <g mask="url(#mask-1)">
          <g>
            <path d="M8.9228825,19.0576c2.9637999,0,5.3681175,1.5532,5.3681175,3.4697,0,1.9161-2.4043176,3.4693-5.3681175,3.4693-2.9658825,0-5.3701999-1.5532-5.3701999-3.4693,0-1.9165,2.4043174-3.4697,5.3701999-3.4697Z" fill="url(#New_Gradient_333)"/>
            <path d="M8.9228825,20.2402c2.9637999,0,5.3681175,1.5523,5.3681175,3.4678,0,1.917-2.4043176,3.4712-5.3681175,3.4712-2.9658825,0-5.3701999-1.5542-5.3701999-3.4702,0-1.9165,2.4043174-3.4688,5.3701999-3.4688Z" fill="url(#New_Gradient_334)"/>
            <path d="M8.9228825,19.0576c2.9637999,0,5.3681175,1.5532,5.3681175,3.4697,0,1.9161-2.4043176,3.4693-5.3681175,3.4693-2.9658825,0-5.3701999-1.5532-5.3701999-3.4693,0-1.9165,2.4043174-3.4697,5.3701999-3.4697Z" fill="none" stroke="#69c" stroke-miterlimit="3.8637" stroke-width=".957"/>
          </g>
        </g>
        <path d="M8.7528825,17.7134c3.1904999,0,5.9541175,1.6782,5.9541175,3.9282,0,2.249-2.7636176,3.9268-5.9541175,3.9268-3.1883999,0-5.9549998-1.6778-5.9549998-3.9258,0-2.251,2.7665999-3.9292,5.9549998-3.9292ZM8.7528825,18.168c-3.1376999,0-5.5008825,1.6347-5.5008825,3.4746,0,1.8369,2.3631826,3.4721,5.5008825,3.4721s5.5009999-1.6352,5.5009999-3.4731c0-1.8389-2.3632999-3.4736-5.5009999-3.4736Z" fill="url(#linear-gradient)"/>
      </g>
    </g>
    <path d="M8.9228825,17.8833c3.1903999,0,5.9549998,1.6772,5.9549998,3.9263,0,2.2505-2.7645999,3.9292-5.9549998,3.9292-3.1894999,0-5.9560998-1.6787-5.9560998-3.9292,0-2.2491,2.7665999-3.9263,5.9560998-3.9263ZM8.9228825,18.3374c-3.1376999,0-5.5019999,1.6353-5.5019999,3.4722,0,1.8388,2.3642999,3.4751,5.5019999,3.4751,3.1366999,0,5.5008999-1.6363,5.5008999-3.4751,0-1.8369-2.3641999-3.4722-5.5008999-3.4722Z" fill="url(#New_Gradient_331)"/>
    <g mask="url(#mask-2)">
      <g>
        <path d="M7.1542825,19.8643c1.0117175-.125,1.8955.2963,1.9727175.9394.08.6411-.6758175,1.2637-1.6875175,1.3882-1.0098.123-1.8964825-.2964-1.9747-.9385-.0781-.6435.6768-1.2656,1.6895-1.3891Z" fill="#b3e0ff"/>
        <path d="M8.9228825,20.2402c2.9637999,0,5.3681175,1.5523,5.3681175,3.4678,0,1.917-2.4043176,3.4712-5.3681175,3.4712-2.9658825,0-5.3701999-1.5542-5.3701999-3.4702,0-1.9165,2.4043174-3.4688,5.3701999-3.4688Z" fill="#fff"/>
      </g>
    </g>
    <path d="M12.918,25.7476l2.4315823,2.4311c1.0254177,1.0278-.5145823,2.5669-1.541,1.5401l-2.4315824-2.4317c-1.0264175-1.0264.5135824-2.5654,1.541-1.5395Z" fill="url(#New_Gradient_330)"/>
    <g mask="url(#mask-3)">
      <g>
        <path d="M15.749,27.5527l2.9238822,2.9219c1.7099,1.7119-.8555,4.2788-2.5673999,2.5674l-2.9228999-2.9214c-1.7099-1.7129.8565-4.2788,2.5664176-2.5679Z" fill="url(#New_Gradient_321)"/>
        <path d="M17.4188823,29.9839c.9922,0,1.7959.8052,1.7959,1.7969,0,.9926-.8037,1.7973-1.7959,1.7973-.9921,0-1.7968-.8047-1.7968-1.7973,0-.9917.8047-1.7969,1.7968-1.7969Z" fill="url(#New_Gradient_329)" stroke="#a70000" stroke-miterlimit="3.8637" stroke-width=".4785"/>
        <path d="M17.4188823,29.9839c.9922,0,1.7959.8052,1.7959,1.7969,0,.9926-.8037,1.7973-1.7959,1.7973-.9921,0-1.7968-.8047-1.7968-1.7973,0-.9917.8047-1.7969,1.7968-1.7969Z" fill="url(#New_Gradient_326)"/>
        <line x1="13.3368824" y1="28.041" x2="15.6815823" y2="30.3857" fill="none" stroke="#ff7845" stroke-linecap="round" stroke-miterlimit="3.8637" stroke-width="1.4356"/>
      </g>
    </g>
  </g>
  <g>
    <path d="M18.876,3.3452c5.1327821-.6147,16.5634818.6182,13.6591819,8.1753-.5781819,1.5049-2.7080999,7.3369-5.8066999,7.9795,1.1611-.8735,1.8486-3.0625,1.7002-3.9683-2.0575999.4546-9.0018998.0855-11.3368997-2.1186-2.3124999-2.1826-4.5399999-9.4712,1.7842177-10.0679" fill="#ccc" stroke="#000" stroke-linecap="round" stroke-linejoin="round" stroke-width="1.8735"/>
    <path d="M18.876,3.3452c5.1327821-.6147,16.5634818.6182,13.6591819,8.1753-.5781819,1.5049-2.7080999,7.3369-5.8066999,7.9795,1.1611-.8735,1.8486-3.0625,1.7002-3.9683-2.0575999.4546-9.0018998.0855-11.3368997-2.1186-2.3124999-2.1826-4.5399999-9.4712,1.7842177-10.0679" fill="url(#radial-gradient)"/>
    <path d="M29.114282,15.5791c-.0254-.2593-.0528-.5176-.083-.7744.9716-1.0952,1.9803999-2.2666,2.341718-3.7334.5810819-2.3662-.7187181-4.8589-2.836918-5.2637-3.5155999-.667-12.3505997-2.4658-13.2938997,2.8838-.1191823-1.9072,1.0293-3.7915,2.9979999-4.1548,3.4179999-.6328,6.9413998-.3501,10.3701997.3306,2.7489999.5434,4.4227999,3.5449,3.6366999,6.3574-.3682,1.3174-1.0674,2.3833-2.1298999,3.2114.0342,1.0982-.4639,1.9722-1.0996,2.8496-.0254-.5766.0068-1.1455.0967-1.7065" fill="url(#radial-gradient-2)"/>
    <path d="M22.7362821,12.8047c-.1836-1.436,1.9512-1.1489,1.9872999.2241.0342,1.3125-1.8125,1.1519-1.9872999-.2241M24.127,10.9756c-.377.5068-.6915179-.251-.7745179-.5547-.1357-.4907-.2998-.9844-.4344821-1.4858-.2696179-1.0025-1.2451178-3.5142.3846821-4.002.6055-.1807,1.5352-.02,2.0370999.4439.6114.5654.5538,1.3754.4444,1.9834-.2334,1.3193-.8233,2.6289-1.6571821,3.6152" fill="#2d4866"/>
  </g>
  <g>
    <path d="M6.3651826,4.6904c0,.9336-.7568,1.6905-1.6914,1.6905-.9336,0-1.6894-.7569-1.6894-1.6905s.7558-1.6904,1.6894-1.6904c.9346,0,1.6914.7568,1.6914,1.6904Z" fill="url(#New_Gradient_Swatch_2)"/>
    <path d="M6.3651826,9.1982c0,.9336-.7568,1.6905-1.6914,1.6905-.9336,0-1.6894-.7569-1.6894-1.6905,0-.9331.7558-1.6904,1.6894-1.6904.9346,0,1.6914.7573,1.6914,1.6904Z" fill="url(#New_Gradient_Swatch_2-2)"/>
    <path d="M6.3651826,13.7065c0,.9341-.7568,1.6905-1.6914,1.6905-.9336,0-1.6894-.7564-1.6894-1.6905,0-.9336.7558-1.6904,1.6894-1.6904.9346,0,1.6914.7568,1.6914,1.6904Z" fill="url(#New_Gradient_Swatch_2-3)"/>
    <path d="M11.1542824,4.6904c0,.4668-.3779.8452-.8447.8452s-.8448-.3784-.8448-.8452.378-.8452.8448-.8452.8447.3784.8447.8452Z" fill="url(#New_Gradient_Swatch_2-4)"/>
    <path d="M12,9.1982c0,.9336-.7568176,1.6905-1.6904175,1.6905-.9335825,0-1.6905-.7569-1.6905-1.6905,0-.9331.7569175-1.6904,1.6905-1.6904.9336,0,1.6904175.7573,1.6904175,1.6904Z" fill="url(#New_Gradient_Swatch_2-5)"/>
    <path d="M11.1542824,13.7065c0,.4664-.3779.8453-.8447.8453s-.8448-.3789-.8448-.8453c0-.4663.378-.8452.8448-.8452s.8447.3789.8447.8452Z" fill="url(#New_Gradient_Swatch_2-6)"/>
  </g>
  <g>
    <g>
      <rect x="20" y="25.8457" width="12" height="2.8828" fill="none" stroke="#000" stroke-linecap="round" stroke-linejoin="round" stroke-width="2"/>
      <rect x="24.5" y="22" width="7.5" height="2.8828" fill="none" stroke="#000" stroke-linecap="round" stroke-linejoin="round" stroke-width="2"/>
      <rect x="20" y="22" width="3.75" height="2.8828" fill="none" stroke="#000" stroke-linecap="round" stroke-linejoin="round" stroke-width="2"/>
    </g>
    <g>
      <rect x="20" y="25.8457" width="12" height="2.8828" fill="url(#New_Gradient_173)"/>
      <rect x="24.5" y="22" width="7.5" height="2.8828" fill="url(#linear-gradient-2)"/>
      <rect x="20" y="22" width="3.75" height="2.8828" fill="url(#New_Gradient_172)"/>
    </g>
  </g>
</svg>