<?xml version="1.0" encoding="UTF-8"?>
<svg id="Layer_1" data-name="Layer 1" xmlns="http://www.w3.org/2000/svg" width="36" height="36" xmlns:xlink="http://www.w3.org/1999/xlink" viewBox="0 0 36 36">
  <defs>
    <mask id="mask" x="7.72165" y="2.8354777" width="21.9146" height="27.117976" maskUnits="userSpaceOnUse">
      <path d="M9.0718,10.8867c0-.5137.4292-1.0429.9585-1.1811l16.8994-4.419c.5293-.1391.957.1655.957.6792v18.3545c0,.5137-.4277,1.0425-.957,1.1797l-16.8994,4.4194c-.5293.1402-.9585-.1655-.9585-.6782V10.8867Z" fill="#fff"/>
    </mask>
    <mask id="mask-1" x="9.6455" y="6.0340338" width="17.668" height="23.138002" maskUnits="userSpaceOnUse">
      <path d="M10.0127,11.1855c0-.2563.2153-.5209.4795-.5898l15.9766-4.1777c.2646-.0694.4775.083.4775.3398v17.2627c0,.2564-.2129.5215-.4775.5899l-15.9766,4.1777c-.2642.0693-.4795-.083-.4795-.3389V11.1855Z" fill="#fff" stroke="#fff" stroke-miterlimit="3.8637" stroke-width=".7344"/>
    </mask>
    <linearGradient id="New_Gradient_227" data-name="New Gradient 227" x1="19.871059" y1="7.7017422" x2="17.0887028" y2="27.4992355" gradientUnits="userSpaceOnUse">
      <stop offset="0" stop-color="#6498c1"/>
      <stop offset=".893265" stop-color="#b4daea"/>
      <stop offset="1" stop-color="#b4daea"/>
    </linearGradient>
    <mask id="mask-2" x="7.72165" y="2.8354777" width="21.9146" height="26.8922329" maskUnits="userSpaceOnUse">
      <polygon points="7.9814 8.7676 29.3765 3.1719 29.3765 7.7554 7.9814 13.3501 7.9814 8.7676" fill="#fff" stroke="#fff" stroke-miterlimit="3.8637" stroke-width=".5195"/>
    </mask>
    <linearGradient id="New_Gradient_226" data-name="New Gradient 226" x1="9.4094977" y1="1.2759667" x2="27.9488829" y2="15.2463955" gradientUnits="userSpaceOnUse">
      <stop offset="0" stop-color="#b2b2b2"/>
      <stop offset="1" stop-color="#fff"/>
    </linearGradient>
  </defs>
  <path d="M9.0718,10.8853c0-.5123.4292-1.0425.9585-1.1802l16.8994-4.4195c.5293-.1386.957.1646.957.6783v18.3554c0,.5137-.4277,1.042-.957,1.1802l-16.8994,4.419c-.5293.1391-.9585-.1646-.9585-.6792V10.8853Z" fill="#e5e5e5" stroke="#000" stroke-miterlimit="3.8637" stroke-width="2"/>
  <g mask="url(#mask)">
    <g>
      <path d="M9.0718,10.8867c0-.5137.4292-1.0429.9585-1.1811l16.8994-4.419c.5293-.1391.957.1655.957.6792v18.3545c0,.5137-.4277,1.0425-.957,1.1797l-16.8994,4.4194c-.5293.1402-.9585-.1655-.9585-.6782V10.8867Z" fill="#e5e5e5"/>
      <path d="M27.6538,5.5039c.104.1353.166.3198.166.5396v17.8222c0,.5484-.4135,1.1001-.9243,1.232l-16.5879,4.3418c-.2265.0581-.4336.0249-.5937-.0782" fill="none" stroke="#ccc" stroke-linecap="round" stroke-linejoin="round" stroke-width=".5195"/>
      <path d="M9.4102,28.9175c-.0166-.0708-.0269-.147-.0269-.228V10.8662c0-.5483.4146-1.1001.9243-1.2334l16.5879-4.3398c.0459-.0127.0894-.0186.1533-.0308" fill="none" stroke="#fff" stroke-linecap="round" stroke-miterlimit="3.8637" stroke-width=".5195"/>
      <g mask="url(#mask-1)">
        <g>
          <path d="M10.0127,11.1855c0-.2563.2153-.5209.4795-.5898l15.9766-4.1777c.2646-.0694.4775.083.4775.3398v17.2627c0,.2564-.2129.5215-.4775.5899l-15.9766,4.1777c-.2642.0693-.4795-.083-.4795-.3389V11.1855Z" fill="url(#New_Gradient_227)"/>
          <path d="M10.8311,28.8237s0-2.7339.6367-3.3091c.5093-.5434,3.9414-2.5341,4.4511-3.0776.2549-.8862.5103-1.0903.5103-1.0903.2544-.2031.5083-.2705.5083-.2705v-.4097c-.3408.0894-.7837-1.0776-1.0474-2.0947-.0219-.0855-.2534.0386-.3042-.2197-.0947-.4107-.1005-.7769-.1005-1.0416-.1026-.6552.1855-.5478.1782-1.3662-.0269-3.4194,2.9262-4.3178,2.9262-4.3178,0,0,2.94-.6714,2.9263,2.7866-.0039.8213.1924.4805.2168,1.0718.0259.2661-.0244.8842-.1518,1.3261-.0513.2583-.3223.2232-.3306.4678-.2476,1.189-.6572,2.4321-1.0073,2.523v.4101s.2544-.0649.5097.0039c0,0,.2539.0703.5088.8233.5083.2773,3.9439.4721,4.4522.749.6357.2436.6357,2.9756.6357,2.9756l-15.5185,4.06Z" fill="#16336e"/>
          <polygon points="10.0967 12.9453 26.8369 8.5674 26.8369 9.3174 10.0967 13.6953 10.0967 12.9453" fill="#5387ba"/>
          <path d="M10.0127,11.1855c0-.2563.2153-.5209.4795-.5898l15.9766-4.1777c.2646-.0694.4775.083.4775.3398v17.2627c0,.2564-.2129.5215-.4775.5899l-15.9766,4.1777c-.2642.0693-.4795-.083-.4795-.3389V11.1855Z" fill="none" stroke="gray" stroke-miterlimit="3.8637" stroke-width=".7344"/>
        </g>
      </g>
      <g mask="url(#mask-2)">
        <g>
          <polygon points="7.9814 8.7676 29.3765 3.1719 29.3765 7.7554 7.9814 13.3501 7.9814 8.7676" fill="url(#New_Gradient_226)"/>
          <path d="M9.4102,28.9175c-.0166-.0708-.0269-.147-.0269-.228V10.8662c0-.5483.4146-1.1001.9243-1.2334l16.5879-4.3398c.0459-.0127.0894-.0186.1533-.0308" fill="none" stroke="#fff" stroke-linecap="round" stroke-miterlimit="3.8637" stroke-width=".5195"/>
          <path d="M27.6538,5.5039c.104.1353.166.3198.166.5396v17.8222c0,.5484-.4135,1.1001-.9243,1.232l-16.5879,4.3418c-.2265.0581-.4336.0249-.5937-.0782" fill="none" stroke="#ccc" stroke-linecap="round" stroke-linejoin="round" stroke-width=".5195"/>
          <polygon points="7.9814 8.7676 29.3765 3.1719 29.3765 7.7554 7.9814 13.3501 7.9814 8.7676" fill="none" stroke="gray" stroke-miterlimit="3.8637" stroke-width=".5195"/>
        </g>
      </g>
    </g>
  </g>
</svg>