<?xml version='1.0' encoding='UTF-8'?>
<svg xmlns="http://www.w3.org/2000/svg" xmlns:xlink="http://www.w3.org/1999/xlink" id="Layer_1" data-name="Layer 1" width="36" height="36" viewBox="0 0 36 36">
  <defs>
    <linearGradient id="New_Gradient_171" data-name="New Gradient 171" x1="-267.9530757" y1="153.7784465" x2="-256.5439189" y2="163.6962752" gradientTransform="translate(315.5243 -92.4804) rotate(21.7566897) scale(.7613325 1.3134613) skewX(-17.300561)" gradientUnits="userSpaceOnUse">
      <stop offset="0" stop-color="#e5e5e5"/>
      <stop offset="1" stop-color="#fff"/>
    </linearGradient>
    <mask id="mask" x="2.8993945" y="5.4736" width="29.8901992" height="15.3399" maskUnits="userSpaceOnUse">
      <path d="M13.2255942,20.8135c6.5204998-1.6563,13.0424997-3.3125,19.5639995-4.9702-4.1713999-4.147-6.2582998-6.2222-10.4301997-10.3697-6.4877998,1.6895-12.9731997,3.3814-19.4599995,5.0713,4.1298999,4.1074,6.1957998,6.1621,10.3261997,10.2686Z" fill="#fff" fill-rule="evenodd"/>
    </mask>
    <linearGradient id="New_Gradient_171-2" data-name="New Gradient 171" x1="11.9820722" y1="8.0926273" x2="23.7279298" y2="18.3031455" gradientTransform="matrix(1,0,0,1,0,0)" gradientUnits="userSpaceOnUse"><stop offset="0" stop-color="#e5e5e5"/><stop offset="1" stop-color="#fff"/></linearGradient>
    <mask id="mask-1" x="4.8231944" y="6.6426" width="25.8322894" height="13.7324" maskUnits="userSpaceOnUse">
      <path d="M13.0546942,18.2959c6.3085998-1.6133,9.4643058-2.4199,15.7733996-4.0347-2.7860938-2.7715-4.1805999-4.1562-6.9667998-6.9282-6.2928998,1.6314-9.4393998,2.4468-15.7328996,4.0791,2.7699999,2.7534,4.1552999,4.1309,6.9262998,6.8838Z" fill="#fff" fill-rule="evenodd" stroke="#fff" stroke-miterlimit="3.8637" stroke-width=".475"/>
    </mask>
    <mask id="mask-2" x="4.8231944" y="6.6426" width="19.6376995" height="13.7324" maskUnits="userSpaceOnUse">
      <path d="M22.523394,6.6426c-5.8988999,1.4804-11.8006997,2.956-17.7001996,4.438,3.7490999,3.7182,5.6220999,5.5771,9.3691998,9.2944,1.1015-.4546,1.6499-.6831,2.7509999-1.1392-2.7206999-2.7534-4.0805999-4.1303-6.8027998-6.8852,5.7270999-1.4658,8.5917998-2.1997,14.3202996-3.6665-.7754-.8164-1.1611-1.2256-1.9375-2.0415Z" fill="#fff" fill-rule="evenodd"/>
    </mask>
    <mask id="mask-3" x="4.9945654" y="14.3569722" width="21.3622597" height="18.101352" maskUnits="userSpaceOnUse">
      <path d="M14.8202942,16.2549c5.2465999.3096,9.3564998,3.6269,9.1825998,7.4111-.1767,3.7832-4.5726999,6.5986-9.8207998,6.2881-5.2465999-.3091-9.3578998-3.6274-9.1820942-7.4097.1762944-3.7832,4.5736943-6.6001,9.8202942-6.2895Z" fill="#fff" fill-rule="evenodd"/>
    </mask>
    <linearGradient id="linear-gradient" x1="5.8239112" y1="27.3754055" x2="23.3399412" y2="18.7549692" gradientUnits="userSpaceOnUse">
      <stop offset="0" stop-color="#2c6eb2"/>
      <stop offset=".213483" stop-color="#fff"/>
    </linearGradient>
    <linearGradient id="linear-gradient-2" x1="4.1743785" y1="31.7439422" x2="25.4471918" y2="22.7579978" gradientUnits="userSpaceOnUse">
      <stop offset="0" stop-color="#fff"/>
      <stop offset=".0659937" stop-color="#d7d9e1"/>
      <stop offset=".1372393" stop-color="#b5b8c7"/>
      <stop offset=".2162204" stop-color="#989bb1"/>
      <stop offset=".3033519" stop-color="#80849f"/>
      <stop offset=".4021126" stop-color="#6e7291"/>
      <stop offset=".5192141" stop-color="#616687"/>
      <stop offset=".672578" stop-color="#5a5f81"/>
      <stop offset="1" stop-color="#585d80"/>
    </linearGradient>
    <mask id="mask-4" x="4.9945654" y="13.8796424" width="21.3895415" height="16.1323339" maskUnits="userSpaceOnUse">
      <path d="M14.8202942,15.5898c5.2465999.2759,9.3564998,3.2227,9.1825998,6.585-.1767,3.3608-4.5726999,5.8623-9.8207998,5.5874-5.2465999-.2759-9.3578998-3.2231-9.1820942-6.5845.1762944-3.3613,4.5736943-5.8632,9.8202942-5.5879Z" fill="#fff" fill-rule="evenodd"/>
    </mask>
    <linearGradient id="linear-gradient-3" x1="1.1806025" y1="30.2874543" x2="19.3466384" y2="18.5437721" gradientUnits="userSpaceOnUse">
      <stop offset="0" stop-color="#fff"/>
      <stop offset=".193443" stop-color="#c3dffc"/>
      <stop offset=".5249655" stop-color="#62abf7"/>
      <stop offset=".674157" stop-color="#3c97f6"/>
    </linearGradient>
    <linearGradient id="linear-gradient-4" x1="6.5067072" y1="30.1901755" x2="22.2793576" y2="23.3125797" gradientUnits="userSpaceOnUse">
      <stop offset="0" stop-color="#fff"/>
      <stop offset=".5218671" stop-color="#a7abcf"/>
      <stop offset=".780899" stop-color="#8187ba"/>
    </linearGradient>
  </defs>
  <g>
    <path d="M13.2255942,20.8135c6.5204998-1.6563,13.0424997-3.3125,19.5639995-4.9702-4.1713999-4.147-6.2582998-6.2222-10.4301997-10.3697-6.4877998,1.6895-12.9731997,3.3814-19.4599995,5.0713,4.1298999,4.1074,6.1957998,6.1621,10.3261997,10.2686Z" fill="url(#New_Gradient_171)" fill-rule="evenodd" stroke="#000" stroke-linecap="round" stroke-linejoin="round" stroke-width="2"/>
    <g mask="url(#mask)">
      <path d="M13.2255942,20.8135c6.5204998-1.6563,13.0424997-3.3125,19.5639995-4.9702-4.1713999-4.147-6.2582998-6.2222-10.4301997-10.3697-6.4877998,1.6895-12.9731997,3.3814-19.4599995,5.0713,4.1298999,4.1074,6.1957998,6.1621,10.3261997,10.2686Z" fill="url(#New_Gradient_171-2)" fill-rule="evenodd"/>
    </g>
    <g mask="url(#mask-1)">
      <g>
        <g mask="url(#mask-2)">
          <path d="M22.523394,6.6426c-5.8988999,1.4804-11.8006997,2.956-17.7001996,4.438,3.7490999,3.7182,5.6220999,5.5771,9.3691998,9.2944,1.1015-.4546,1.6499-.6831,2.7509999-1.1392-2.7206999-2.7534-4.0805999-4.1303-6.8027998-6.8852,5.7270999-1.4658,8.5917998-2.1997,14.3202996-3.6665-.7754-.8164-1.1611-1.2256-1.9375-2.0415Z" fill="#b7e9ff" fill-rule="evenodd"/>
        </g>
        <path d="M24.6874939,8.6235c-6.0302998,1.5733-12.0604939,3.147-18.0917995,4.7188,6.0313056-1.5718,12.0614997-3.1455,18.0917995-4.7188Z" fill="none" fill-rule="evenodd" stroke="#999" stroke-miterlimit="3.8637" stroke-width=".475"/>
        <path d="M26.1640939,9.9199c-6.0385998,1.5655-12.0751997,3.1348-18.1122995,4.7012,6.0370998-1.5664,12.0736997-3.1357,18.1122995-4.7012Z" fill="none" fill-rule="evenodd" stroke="#999" stroke-miterlimit="3.8637" stroke-width=".475"/>
        <path d="M27.6425938,11.2158c-6.0448998,1.563-12.0893997,3.125-18.1347995,4.6836,6.0453998-1.5586,12.0898997-3.1206,18.1347995-4.6836Z" fill="none" fill-rule="evenodd" stroke="#999" stroke-miterlimit="3.8637" stroke-width=".475"/>
        <path d="M29.1186938,12.5137c-6.0507998,1.5556-12.1030997,3.1103-18.1533995,4.665,6.0502998-1.5547,12.1025997-3.1094,18.1533995-4.665Z" fill="none" fill-rule="evenodd" stroke="#999" stroke-miterlimit="3.8637" stroke-width=".475"/>
        <path d="M30.5966938,13.8105c-6.0585998,1.5479-12.1166938,3.0977-18.1733995,4.6465,6.0567058-1.5488,12.1147997-3.0986,18.1733995-4.6465Z" fill="none" fill-rule="evenodd" stroke="#999" stroke-miterlimit="3.8637" stroke-width=".475"/>
        <path d="M13.0546942,18.2959c6.3085998-1.6133,9.4643058-2.4199,15.7733996-4.0347-2.7860938-2.7715-4.1805999-4.1562-6.9667998-6.9282-6.2928998,1.6314-9.4393998,2.4468-15.7328996,4.0791,2.7699999,2.7534,4.1552999,4.1309,6.9262998,6.8838Z" fill="none" fill-rule="evenodd" stroke="#999" stroke-miterlimit="3.8637" stroke-width=".475"/>
      </g>
    </g>
    <path d="M8.6044943,10.8779c2.7343999,2.7232,4.1025057,4.085,6.8378998,6.8067" fill="none" stroke="#999" stroke-miterlimit="3.8637" stroke-width=".5"/>
    <path d="M12.6693942,9.6753c2.7880999,2.7744,4.1830999,4.1601,6.9706998,6.936" fill="none" stroke="#999" stroke-miterlimit="3.8637" stroke-width=".5"/>
    <path d="M17.1854941,8.5405c2.7827999,2.7676,4.1748999,4.1519,6.9560998,6.9195" fill="none" stroke="#999" stroke-miterlimit="3.8637" stroke-width=".5"/>
  </g>
  <g>
    <path d="M24.0028939,22.1748c.1739-3.3623-3.9359999-6.3091-9.1825998-6.585-5.2465999-.2753-9.6439998,2.2266-9.8202942,5.5879-.0156056.294.0033944.5821.0507944.8672-.0235.1641-.042.3296-.0507944.4995-.1758056,3.7823,3.9354943,7.1006,9.1820942,7.4097,5.2480999.3105,9.6440998-2.5049,9.8207998-6.2881.0157-.3432-.0068-.6831-.0581-1.0166.0279-.1562.0493-.3154.0581-.4746Z" fill="#2c6eb2" fill-rule="evenodd" stroke="#000" stroke-width="2"/>
    <g mask="url(#mask-3)">
      <g>
        <path d="M14.8202942,16.2549c5.2465999.3096,9.3564998,3.6269,9.1825998,7.4111-.1767,3.7832-4.5726999,6.5986-9.8207998,6.2881-5.2465999-.3091-9.3578998-3.6274-9.1820942-7.4097.1762944-3.7832,4.5736943-6.6001,9.8202942-6.2895Z" fill="url(#linear-gradient)" fill-rule="evenodd"/>
        <polygon points="8.0648943 23.0742 8.0844943 28.7725 19.806594 32.167 25.8900939 22.9526 8.0648943 23.0742" fill="url(#linear-gradient-2)" fill-rule="evenodd" stroke="#585d80" stroke-width=".5"/>
        <polygon points="14.335 22.9526 16.1708941 14.7285 25.3788939 19.5063 14.335 22.9526" fill="#ff7845" fill-rule="evenodd" stroke="#000" stroke-width=".5"/>
      </g>
    </g>
    <g mask="url(#mask-4)">
      <g>
        <path d="M14.8202942,15.5898c5.2465999.2759,9.3564998,3.2227,9.1825998,6.585-.1767,3.3608-4.5726999,5.8623-9.8207998,5.5874-5.2465999-.2759-9.3578998-3.2231-9.1820942-6.5845.1762944-3.3613,4.5736943-5.8632,9.8202942-5.5879Z" fill="url(#linear-gradient-3)" fill-rule="evenodd"/>
        <polygon points="14.335 21.4395 7.2704944 26.5034 19.806594 29.728 25.8900939 21.541 14.335 21.4395" fill="url(#linear-gradient-4)" fill-rule="evenodd" stroke="#8187ba" stroke-width=".5"/>
        <polygon points="14.335 21.541 25.584 22.46 23.541 17.8066 14.335 21.541" fill="#65d081" fill-rule="evenodd" stroke="#4b995f" stroke-width=".5"/>
        <polygon points="14.335 21.541 16.1708941 14.2329 25.3788939 18.4795 14.335 21.541" fill="#ff7845" fill-rule="evenodd" stroke="#cc6037" stroke-width=".5"/>
      </g>
    </g>
  </g>
</svg>