<?xml version='1.0' encoding='UTF-8'?>
<svg xmlns="http://www.w3.org/2000/svg" xmlns:xlink="http://www.w3.org/1999/xlink" id="Layer_1" data-name="Layer 1" width="36" height="36" viewBox="0 0 36 36">
  <defs>
    <linearGradient id="New_Gradient_301" data-name="New Gradient 301" x1="8.0527005" y1="21.5912688" x2="24.4358483" y2="7.8441755" gradientUnits="userSpaceOnUse">
      <stop offset="0" stop-color="#d9d9d9"/>
      <stop offset=".455063" stop-color="#fff"/>
      <stop offset="1" stop-color="#d9d9d9"/>
    </linearGradient>
    <linearGradient id="New_Gradient_301-2" data-name="New Gradient 301" x1="7.8093817" y1="20.9207401" x2="23.1746559" y2="8.0277442" gradientUnits="userSpaceOnUse"><stop offset="0" stop-color="#d9d9d9"/><stop offset=".455063" stop-color="#fff"/><stop offset="1" stop-color="#d9d9d9"/></linearGradient>
    <linearGradient id="New_Gradient_300" data-name="New Gradient 300" x1="6.5262133" y1="6.7565333" x2="26.2531891" y2="23.9049318" gradientUnits="userSpaceOnUse">
      <stop offset="0" stop-color="#e5e5e5"/>
      <stop offset="1" stop-color="#f2f2f2"/>
    </linearGradient>
    <mask id="mask" x="8.478" y="8.4839" width="16.0175912" height="16.4507" maskUnits="userSpaceOnUse">
      <polygon points="15.3422914 13.8633 15.3422914 11.6758 23.7528912 9.5664 23.7528912 18.3037 15.3422914 20.415 15.3422914 22.603 9.0321916 24.186 9.0321916 15.4458 15.3422914 13.8633" fill="#fff" fill-rule="evenodd" stroke="#fff" stroke-miterlimit="3.8637" stroke-width=".9779"/>
    </mask>
    <linearGradient id="New_Gradient_299" data-name="New Gradient 299" x1="8.8269595" y1="4.2070001" x2="23.3944734" y2="25.8042276" gradientUnits="userSpaceOnUse">
      <stop offset="0" stop-color="#b2b2b2"/>
      <stop offset="1" stop-color="#e5e5e5"/>
    </linearGradient>
    <linearGradient id="New_Gradient_298" data-name="New Gradient 298" x1="17.686555" y1="27.6296775" x2="29.8881637" y2="17.3913121" gradientUnits="userSpaceOnUse">
      <stop offset="0" stop-color="gray"/>
      <stop offset=".117981" stop-color="#b2b2b2"/>
      <stop offset=".516861" stop-color="#fff"/>
      <stop offset=".882019" stop-color="#b2b2b2"/>
      <stop offset="1" stop-color="gray"/>
    </linearGradient>
    <linearGradient id="New_Gradient_298-2" data-name="New Gradient 298" x1="17.8376621" y1="26.1061067" x2="28.409209" y2="17.2355256" gradientUnits="userSpaceOnUse"><stop offset="0" stop-color="gray"/><stop offset=".117981" stop-color="#b2b2b2"/><stop offset=".516861" stop-color="#fff"/><stop offset=".882019" stop-color="#b2b2b2"/><stop offset="1" stop-color="gray"/></linearGradient>
    <mask id="mask-1" x="17.1073914" y="15.7323111" width="14.8290996" height="15.3137228" maskUnits="userSpaceOnUse">
      <path d="M24.6044912,16.1699c4.0492999-.9746,7.3319998,1.5171,7.3319998,5.5664,0,4.0489-3.2826999,8.1216-7.3319998,9.0982-4.0497999.9756-7.3319998-1.5161-7.3319998-5.565,0-4.0493,3.2821999-8.124,7.3319998-9.0996Z" fill="#fff"/>
    </mask>
    <radialGradient id="New_Gradient_292" data-name="New Gradient 292" cx="28.9010431" cy="27.6725163" fx="28.9010431" fy="27.6725163" r="11.7123026" gradientUnits="userSpaceOnUse">
      <stop offset="0" stop-color="#e5e5e5"/>
      <stop offset=".280899" stop-color="#e5e5e5"/>
      <stop offset="1" stop-color="#999"/>
    </radialGradient>
    <radialGradient id="New_Gradient_293" data-name="New Gradient 293" cx="13.3000316" cy="27.0375304" fx="13.3000316" fy="27.0375304" r="10.4049565" gradientTransform="translate(13.1128933 -.2999063) scale(.9688)" gradientUnits="userSpaceOnUse">
      <stop offset="0" stop-color="#fff"/>
      <stop offset=".48877" stop-color="#f2f2f2"/>
      <stop offset="1" stop-color="#ccc"/>
    </radialGradient>
    <linearGradient id="New_Gradient_285" data-name="New Gradient 285" x1="30.4731696" y1="29.3704067" x2="18.7367675" y2="17.6340046" gradientUnits="userSpaceOnUse">
      <stop offset="0" stop-color="#fff"/>
      <stop offset="1" stop-color="#737373"/>
    </linearGradient>
  </defs>
  <g>
    <path d="M7.6464916,8.2793l15.7572996-3.9536c.2749-.0689,1.062.5503,1.2573.7842.1123.0835.1822.2236.1822.3989v15.3755c0,.3354-.2564.6714-.5728.7514l-15.7558996,3.9551c-.2225916.0542-.413-.0307-.5092-.2016-.2095-.2212-.9312-.6963-.9312-.9839v-15.374c0-.3355.2559-.6724.5723-.752Z" fill="url(#New_Gradient_301)" stroke="#000" stroke-miterlimit="3.8637" stroke-width="2"/>
    <path d="M7.6464916,8.2793l15.7572996-3.9536c.3145-.0801,1.3003.8374,1.3003.8374l-.7295,14.6992c0,.3359-.2563.6729-.5708.752l-15.3402996,4.833s-.9893-.7056-.9893-1.042v-15.374c0-.3355.2559-.6724.5723-.752Z" fill="url(#New_Gradient_301-2)" fill-rule="evenodd"/>
    <path d="M7.9394916,9.5391c0-.211.1709-.4258.3823-.479l16.1356996-4.0489c.2114-.0532.3823.0752.3823.2862v15.8256c0,.211-.1709.4249-.3823.4781l-16.1356996,4.0488c-.2114.0532-.3823-.0742-.3823-.2871v-15.8237Z" fill="url(#New_Gradient_300)"/>
    <polygon points="8.7465916 10.126 23.9520912 6.311 23.9520912 8.4404 8.7465916 12.2573 8.7465916 10.126" fill="#3c97f6"/>
    <g mask="url(#mask)">
      <g>
        <polygon points="15.3422914 13.8633 15.3422914 11.6758 23.7528912 9.5664 23.7528912 18.3037 15.3422914 20.415 15.3422914 22.603 9.0321916 24.186 9.0321916 15.4458 15.3422914 13.8633" fill="#fff" fill-rule="evenodd"/>
        <polygon points="8.478 14.1958 11.0971915 14.6577 11.0971915 24.9346 8.478 24.4727 8.478 14.1958" fill="#b7e9ff"/>
        <polygon points="21.6767913 8.4839 24.4955912 8.981 24.4955912 20.458 21.6767913 19.9604 21.6767913 8.4839" fill="#b7e9ff"/>
        <polygon points="15.3422914 13.8633 15.3422914 11.6758 23.7528912 9.5664 23.7528912 18.3037 15.3422914 20.415 15.3422914 22.603 9.0321916 24.186 9.0321916 15.4458 15.3422914 13.8633" fill="none" fill-rule="evenodd" stroke="#b2b2b2" stroke-miterlimit="3.8637" stroke-width=".9779"/>
      </g>
    </g>
    <line x1="13.2382915" y1="14.2925" x2="13.2382915" y2="23.2163" fill="none" stroke="#b2b2b2" stroke-miterlimit="3.8637" stroke-width=".9779"/>
    <line x1="15.3422914" y1="11.5479" x2="15.3422914" y2="22.6455" fill="none" stroke="#b2b2b2" stroke-miterlimit="3.8637" stroke-width=".9779"/>
    <line x1="17.4442914" y1="11.1484" x2="17.4442914" y2="19.8872" fill="none" stroke="#b2b2b2" stroke-miterlimit="3.8637" stroke-width=".9779"/>
    <line x1="19.5463913" y1="10.6216" x2="19.5463913" y2="19.2451" fill="none" stroke="#b2b2b2" stroke-miterlimit="3.8637" stroke-width=".9779"/>
    <line x1="21.6503913" y1="9.9219" x2="21.6503913" y2="18.7598" fill="none" stroke="#b2b2b2" stroke-miterlimit="3.8637" stroke-width=".9779"/>
    <line x1="11.1342915" y1="14.9063" x2="11.1342915" y2="23.6592" fill="none" stroke="#b2b2b2" stroke-miterlimit="3.8637" stroke-width=".9779"/>
    <line x1="8.9911916" y1="15.4561" x2="23.7528912" y2="11.7495" fill="none" stroke="#b2b2b2" stroke-miterlimit="3.8637" stroke-width=".9779"/>
    <line x1="9.0731916" y1="17.6206" x2="23.7943912" y2="13.9263" fill="none" stroke="#b2b2b2" stroke-miterlimit="3.8637" stroke-width=".9779"/>
    <line x1="9.0731916" y1="19.8052" x2="23.6723912" y2="16.1416" fill="none" stroke="#b2b2b2" stroke-miterlimit="3.8637" stroke-width=".9779"/>
    <line x1="9.1127916" y1="21.9814" x2="23.7943912" y2="18.2959" fill="none" stroke="#b2b2b2" stroke-miterlimit="3.8637" stroke-width=".9779"/>
    <path d="M7.8075916,24.9536v-14.8955c0-.5561.0938-.9526.7114084-1.1289.5200916-.1489,15.7006912-3.9917,15.7006912-3.9917.2339-.0601.3838.3184.1504.3779,0,0-15.1718996,3.8409-15.6918996,3.9893-.4233.1201-.4887.3369-.4887.8208v14.895c0,.2559-.3819.1875-.3819-.0669Z" fill="url(#New_Gradient_299)"/>
  </g>
  <g>
    <path d="M31.077091,18.4595l.1763.2964c-.0571-.0996-.1152-.1983-.1763-.2964ZM18.7201913,29.313l-1.0849-.8662c-1.4078-1.0562-2.2426999-2.7554-2.2426999-4.8931,0-4.2524,3.4481999-8.5303,7.6976998-9.5537,2.9062999-.6997,5.4111999.2959,6.7460998,2.3589l1.2407,2.1006c.0611.0981.1192.1968.1763.2964.4771.873.746609,1.913.746609,3.083,0,4.0522-3.2646089,8.0864-7.2866088,9.0551-2.4198999.5835-4.6117999-.0761-5.9931998-1.581Z" fill="url(#New_Gradient_298)" stroke="#000" stroke-miterlimit="3.8637" stroke-width="2"/>
    <path d="M31.253391,18.7559l-.4638,1.0864c0,4.2524-3.4467999,8.5298-7.6992998,9.5537-2.1122912.5098-3.6537999.4912-3.6537999.4912l-1.8012-1.4404c-1.4078-1.0562-2.2426999-2.7554-2.2426999-4.8931,0-4.2524,3.4481999-8.5303,7.6976998-9.5537,2.9062999-.6997,5.4111999.2959,6.7460998,2.3589l1.417,2.397Z" fill="url(#New_Gradient_298-2)" fill-rule="evenodd"/>
    <g mask="url(#mask-1)">
      <g>
        <path d="M24.6044912,16.1699c4.0492999-.9746,7.3319998,1.5171,7.3319998,5.5664,0,4.0489-3.2826999,8.1216-7.3319998,9.0982-4.0497999.9756-7.3319998-1.5161-7.3319998-5.565,0-4.0493,3.2821999-8.124,7.3319998-9.0996Z" fill="url(#New_Gradient_292)"/>
        <path d="M24.0722912,15.9336c3.8475999-.9277,6.9657998,1.4394,6.9657998,5.2866,0,3.8462-3.1181999,7.7173-6.9657998,8.6441-3.8466999.9257-6.9648998-1.4419-6.9648998-5.2867,0-3.8491,3.1181999-7.7177,6.9648998-8.644Z" fill="url(#New_Gradient_293)"/>
      </g>
    </g>
    <g>
      <polygon points="26.9325911 18.5488 27.3437911 18.4502 27.3437911 16.9014 26.9804911 16.9893 26.4555911 17.458 26.6381911 17.6929 26.9325911 17.4131 26.9325911 18.5488" fill="#737373" fill-rule="evenodd"/>
      <path d="M28.4013911,20.0049l1.122-.2695v-.292l-.6132.1474.1123-.1211c.1464-.1626.4702-.5459.4702-.8476,0-.3086-.2471-.3955-.5943-.3116-.0898.0215-.2368.0684-.4599.2022l.0166.3164c.0957-.0771.2734-.1709.4062-.2036.1241-.0298.2202.0054.2202.1421,0,.2095-.3637.5952-.6801.9433v.294Z" fill="#737373" fill-rule="evenodd"/>
      <path d="M29.1767911,21.3955c.0883-.062.2197-.1167.3584-.1484.123-.0308.2666-.0367.2666.1113,0,.1274-.1577911.21-.2535.2334-.0576.0132-.1069.0278-.1772.0376v.2754c.0474-.0142.1055-.0303.1728-.0464.0972-.0234.2818-.0508.2818.1099,0,.1587-.19.2431-.313.2719-.1475.0371-.2846911.0537-.3833.0196l-.021.3315c.1113.0127.2793-.0142.4536089-.0552.3012911-.0737.6757911-.2646.6757911-.6455,0-.1924-.1206-.2856-.3081-.2773v-.0059c.1709-.0879.2842-.2295.2842-.4077,0-.3379-.3194-.3472-.6075-.2759-.1718.0406-.3095.0957-.4516.1724l.022.2993Z" fill="#737373" fill-rule="evenodd"/>
      <path d="M28.9013911,25.3901l.3867-.0927v-.2945l.2187-.0532v-.2798l-.2187.0532v-.9741l-.4566.1104-.6224911,1.0747v.3286l.6923911-.1665v.2939ZM28.9276911,24.8096l-.4248.1015.42-.7553.0048-.0005v.6543Z" fill="#737373" fill-rule="evenodd"/>
      <path d="M26.4603911,27.1646c.1114-.0557.2247-.0914.3375-.1197.164-.0381.3452-.0288.3452.1441,0,.1987-.1626.2881-.314.3237-.1309.0312-.2593.0361-.377.0078l-.0073.3359c.127,0,.2627-.0078.416-.0449.3453-.082.6812089-.2998.6812089-.7324,0-.3418-.2778089-.4106-.5928089-.3359-.0273.0058-.0644.0195-.1221.0385v-.2583l.6553-.1582v-.2788l-1.0102.2427-.0118.8355Z" fill="#737373" fill-rule="evenodd"/>
      <path d="M24.6923912,27.6509c-.1187-.0176-.2446-.0113-.4019.0254-.5132.124-.685.5576-.685,1.0341,0,.3873.1552.6968.5947.5914.3428088-.0835.583-.3789.583-.6641,0-.2778-.1797-.4458-.4644-.3774-.1552.0376-.2622.1167-.3344.2377l-.0059.0025c.0025088-.2744.0869-.4766.3628-.5425.1509-.0371.2598-.0249.3257088.0034l.0253912-.3105ZM23.9970912,28.8467c0-.1206.0674-.2446.2021-.2783.1431-.0332.1963.0712.1963.1992,0,.1191-.0674.2373-.1963.2676-.1338.0327-.2021-.0625-.2021-.1885Z" fill="#737373" fill-rule="evenodd"/>
      <polygon points="21.1522913 29.2007 21.5966913 29.0938 22.1513913 27.7476 22.1513913 27.4121 21.0360913 27.6797 21.0360913 27.9722 21.729 27.8062 21.1522913 29.2007" fill="#737373" fill-rule="evenodd"/>
      <path d="M19.0614913,26.5225c0,.1523.1211.2519.2666.2656v.0039-.0015c-.167.0884-.3070913.229-.3070913.4551,0,.3174.2704913.377.6034913.2959.3247-.0776.6089-.2759.6089-.6084,0-.2339-.145-.2944-.3135-.3081v-.0039c.1358-.0825.2559-.2251.2559-.415,0-.2745-.2266-.3448-.5342-.2706-.3052.0738-.5801.2569-.5801.587ZM19.834,27.0132c0,.1255-.0957087.2231-.2129087.2505-.1099.0268-.2007-.0342-.2007-.1446,0-.1211.0796087-.2036.1792-.2744.1055.0059.2344087.0303.2344087.1685ZM19.4345913,26.4341c0-.1065.082-.2017.1811-.2251.0908-.0225.187.0078.187.1186,0,.104-.0664.1763-.1762.2642-.0957-.019-.1919-.04-.1919-.1577Z" fill="#737373" fill-rule="evenodd"/>
      <path d="M18.3598914,25.2295c.1181086.0176.2446.0107.4018-.0259.5127-.1245.6846-.5581.6846-1.0317,0-.3887-.1532913-.6978-.5952-.5928-.3418.083-.5816.3779-.5816.665,0,.2774.1807.4444.4639.3755.1553-.0366.2622-.1157.3354-.2378l.0044-.0009c-.0029.2729-.0864.4755-.3618.5424-.1509.0362-.2597.0235-.3261-.0039l-.0254.3101ZM19.0556913,24.0352c0,.1181-.0664.2441-.2026913.2763-.143.0342-.1963087-.0703-.1963087-.1987,0-.1191.0674-.2363.1963087-.2676.1337913-.0322.2026913.062.2026913.19Z" fill="#737373" fill-rule="evenodd"/>
      <g>
        <polygon points="18.8915913 22.6846 19.3041913 22.5854 19.3041913 21.0376 18.9403913 21.124 18.4145913 21.5928 18.5985913 21.8291 18.8915913 21.5483 18.8915913 22.6846" fill="#737373" fill-rule="evenodd"/>
        <path d="M20.1225913,22.416c.5127-.1245.6005-.5454.6005-.9472,0-.4014-.0878-.7789-.6005-.6563-.5122.1245-.6001.5449-.6001.9463s.0879.7793.6001.6572ZM20.1225913,22.1357c-.1861.045-.2022-.226-.2022-.4736,0-.2456.0161-.5249.2022-.5698.187-.0449.2021.227.2021.4722,0,.2475-.0151.5263-.2021.5712Z" fill="#737373" fill-rule="evenodd"/>
      </g>
      <g>
        <polygon points="20.8642913 19.9927 21.2768913 19.8936 21.2768913 18.3452 20.9130913 18.4316 20.3871913 18.9023 20.5702913 19.1367 20.8642913 18.8564 20.8642913 19.9927" fill="#737373" fill-rule="evenodd"/>
        <polygon points="21.9325913 19.7354 22.3456913 19.6362 22.3456913 18.0869 21.9818913 18.1753 21.4550913 18.6445 21.6395913 18.8784 21.9325913 18.5991 21.9325913 19.7354" fill="#737373" fill-rule="evenodd"/>
      </g>
      <g>
        <polygon points="23.6864912 18.3887 24.0985912 18.2881 24.0985912 16.7402 23.7357912 16.8271 23.209 17.2969 23.394 17.5313 23.6864912 17.252 23.6864912 18.3887" fill="#737373" fill-rule="evenodd"/>
        <path d="M24.2631912,18.249l1.1201-.2705v-.2925l-.6118.1485.1103-.1221c.147-.1626.4727-.5444.4727-.8457,0-.3086-.2476-.396-.5933-.3125-.0923.0225-.2387.0669-.4604.2017l.0156.3183c.0952-.0796.2725-.1728.4072-.2046.1226-.0293.2193.0044.2193.1421,0,.209-.3648.5938-.6797.9419v.2954Z" fill="#737373" fill-rule="evenodd"/>
      </g>
    </g>
    <path d="M24.4955912,16.1104c4.0771999-.9815,7.5044088,1.5595,7.5044088,5.7285,0,4.0522-3.2646089,8.0864-7.2866088,9.0551-4.0756999.981-7.5033912-1.559-7.5033912-5.728,0-4.0537,3.2650913-8.0864,7.2855912-9.0556ZM24.7133912,16.6704c-3.8339999.9234-6.9374998,4.793-6.9374998,8.5952,0,3.6865,2.9403999,5.9795,6.7196998,5.0684,3.8349999-.9234,6.9389998-4.793,6.9389998-8.5943,0-3.6875-2.9399999-5.9799-6.7211998-5.0693Z" fill="url(#New_Gradient_285)"/>
    <path d="M24.2382912,24.2856c0,.8287,1.3828.4703,1.3828-.4335,0-.4517-.3008-4.4009-.3008-4.4009l-.6045.1196-.4775,4.7148Z" fill="#b2b2b2" fill-rule="evenodd"/>
    <path d="M24.3778912,23.5845c-.6396.2866-.4531,1.6245.2456,1.312.3477-.1563,4.3730999-1.9238,4.3730999-1.9238l-.0034-.5176-4.6152999,1.1294Z" fill="#b2b2b2" fill-rule="evenodd"/>
    <path d="M23.9301912,24.0596c0,.8291,1.3833.4697,1.3833-.4326,0-.4522-.3032-4.4024-.3032-4.4024l-.6016.1211-.4785,4.7139Z" fill="#a70000" fill-rule="evenodd"/>
    <path d="M24.3422912,23.2012c-.6377.2871-.4502,1.625.2466,1.3139.3481088-.1577,4.3724999-1.9243,4.3724999-1.9243l-.0019-.5185-4.6171999,1.1289Z" fill="red" fill-rule="evenodd"/>
  </g>
</svg>