<?xml version="1.0" encoding="UTF-8"?>
<svg xmlns="http://www.w3.org/2000/svg" width="36" height="36" xmlns:xlink="http://www.w3.org/1999/xlink" viewBox="0 0 36 36">
  <defs>
    <linearGradient id="linear-gradient" x1=".0615589" y1="23.7806185" x2="12.8163883" y2="37.2239415" gradientTransform="translate(11.0180955 -9.1128) rotate(4.4505758) scale(.9149589 .9341407) skewX(8.9454709)" gradientUnits="userSpaceOnUse">
      <stop offset=".005618" stop-color="#c40000"/>
      <stop offset="1" stop-color="#fc6"/>
    </linearGradient>
    <linearGradient id="linear-gradient-2" x1="127.3020221" y1="43.499066" x2="153.3859613" y2="43.499066" gradientTransform="translate(149.6299 63.913) rotate(164.8270847) scale(.8863996 1.8920447) skewX(-15.4477059)" gradientUnits="userSpaceOnUse">
      <stop offset=".005618" stop-color="#f90"/>
      <stop offset=".331461" stop-color="#ff9"/>
      <stop offset="1" stop-color="#fc6"/>
    </linearGradient>
    <linearGradient id="linear-gradient-3" x1="175.0028257" y1="36.8288382" x2="196.687708" y2="36.8288382" gradientTransform="translate(195.0448 37.6879) rotate(164.8270847) scale(.8863996 1.8219559) skewX(.1094388)" gradientUnits="userSpaceOnUse">
      <stop offset=".005618" stop-color="#fff"/>
      <stop offset=".4451768" stop-color="#ffffd0"/>
      <stop offset="1" stop-color="#ff9"/>
    </linearGradient>
    <radialGradient id="radial-gradient" cx="-61.7709978" cy="84.4908942" fx="-61.7709978" fy="84.4908942" r="15.2460171" gradientTransform="translate(71.2876763 -59.4503194) scale(.8967)" gradientUnits="userSpaceOnUse">
      <stop offset="0" stop-color="#fff"/>
      <stop offset=".207865" stop-color="#b7e9ff"/>
      <stop offset=".47191" stop-color="#3c97f6"/>
      <stop offset=".668539" stop-color="#032c87"/>
      <stop offset="1" stop-color="#0342d3"/>
    </radialGradient>
    <mask id="mask" x="10.2987852" y="11.3315" width="19.0319496" height="21.2463367" maskUnits="userSpaceOnUse">
      <path d="M10.2987852,20.3896c0-5.0029,4.0566999-9.0581,9.0605998-9.0581,5.0018999,0,9.058615,4.0552,9.058615,9.0581,0,5.004-4.0567152,9.0596-9.058615,9.0596-5.0038999,0-9.0605998-4.0556-9.0605998-9.0596Z" fill="#fff" fill-rule="evenodd"/>
    </mask>
    <radialGradient id="radial-gradient-2" cx="16.0933101" cy="16.5512094" fx="16.0933101" fy="16.5512094" r="12.898426" gradientUnits="userSpaceOnUse">
      <stop offset="0" stop-color="#dfeaeb"/>
      <stop offset=".303371" stop-color="#b7e9ff"/>
      <stop offset=".52809" stop-color="#3c97f6"/>
      <stop offset=".825843" stop-color="#032c87"/>
      <stop offset="1" stop-color="#0342d3"/>
    </radialGradient>
    <mask id="mask-1" x="17.8076859" y="17.7894632" width="11.5230489" height="12.459549" maskUnits="userSpaceOnUse">
      <path d="M27.752,19.5659c0,5.2554-3.1817152,8.9409-8.396515,9.3047-.5528.0405-.6309-.4375-.0918-.5659,4.4374999-1.0488,7.4413998-5.9624,7.9296998-8.7901.0488-.6523.5586152-.5034.5586152.0513Z" fill="#fff"/>
    </mask>
    <linearGradient id="linear-gradient-4" x1="18.5343651" y1="13.3029787" x2="17.5139768" y2="32.7731472" gradientUnits="userSpaceOnUse">
      <stop offset="0" stop-color="#65bd7b"/>
      <stop offset=".0074065" stop-color="#60bb74"/>
      <stop offset=".0565792" stop-color="#45af4f"/>
      <stop offset=".1023037" stop-color="#32a734"/>
      <stop offset=".1428936" stop-color="#27a224"/>
      <stop offset=".174157" stop-color="#23a11f"/>
      <stop offset=".2984012" stop-color="#1c871d"/>
      <stop offset=".4981417" stop-color="#14651b"/>
      <stop offset=".6872815" stop-color="#0e4c19"/>
      <stop offset=".8596362" stop-color="#0b3d18"/>
      <stop offset="1" stop-color="#0a3818"/>
    </linearGradient>
    <mask id="mask-2" x="11.4913343" y="13.4852494" width="17.8394005" height="18.7602687" maskUnits="userSpaceOnUse">
      <path d="M12.0526851,14.312c.0547.1431-.1776851.2378-.0214.2598.3496.0483.5468-.2114.8945-.1626.1191.0166.1738.041.289.0659-.0332.2329.0469.3872.0137.6196-.0508.3496-.3359.4693-.3867.8189-.0293.2163.0879.3506.0566.5659-.0136.1001-.0722.1509-.1015.2402l.041-.2983c-.0664-.0103-.0918-.0469-.1602-.0571-.3418-.0474-.2675.4614-.4433.75-.3399.5459-.6289.8437-.7168,1.4755-.1289.9288.2656,1.4761.1367,2.4058-.0488.3491.1406.5449.3574.8296.0488.0068.1016.0049.1387-.0147-.0625-.7792-.1895-1.1865-.168-1.9541.2012.2652.0918.521.2266149.8106.2733851.5723.457.894.6327851,1.5117.0625.2207-.0762.4209.0508.6162.2637.4092.3867.7315.8066.9947.2344.143.4922.0014.6856.1967.2929.3057.3457.7261.7695.7862.2148.0312.3496-.0865.5664-.0562.2578.0371.0957.4024.1973149.6401.089785.2046.355385.1333.537085.2764.2207.1758.253915.4766.5371.5166.1641.023.2285-.1719.3926-.1474.2675.0371.1797.413.1406.6801-.0703.5132-.6895.5786-.7617,1.0933-.013685.0913.082.1396.070315.2295-.019515.1338-.191415.1601-.211.2925-.052715.3662.230485.5322.423885.8379.1738.271.1504.5385.4043.7348.3515.2788.9394.3101.8769.7505-.1035.7383-.7636.8745-1.162085,1.5132.070285.0439.111285.083.193385.0957.8867.123,1.3203-.4937,2.1718999-.7798.5781-.1894.9726-.1084,1.5136-.3975.2832-.1459.3145-.4292.5899-.5937.5742151-.3423.9922151-.4282,1.4492151-.9146.289-.3066.2460849-.6503.4511849-1.02.2929-.5259.6484-.7046.8867-1.2646-.0703-.0425-.1016-.1148-.1934-.1275l-.6133-.0864c-.3808-.0542-.666-.3896-.6131849-.771-.4219151-.0683-.6622151-.0859-1.0879151-.1455-.5410849-.0752-.6504-.666-1.1895-.7427-.2344-.0327-.3359.2232-.5683.1909-.3106-.0429-.4571-.1992-.7637-.2426-.1895-.0269-.2813.1465-.3672.3208l-.1367.0146c-.0352-.123-.002-.2197.0156-.353.0078-.0498-.0781-.0537-.0859-.0972-.3887.1065-.5176.5371-.9161.4815-.0976-.0137-.1347-.1211-.236285-.1343-.181615-.0249-.283215.0962-.466815.0693-.3398-.0483-.6699-.2895-.623-.6294.0176-.1245.1582-.1562.173815-.2802.046885-.3077-.197315-.5025-.482415-.6441l-.209.0376-.3008-.0415c.0098-.0581-.0195-.0957-.0117-.1538.0312-.2158.3223-.2261.3496-.4434.029315-.1894.0039-.3115.070315-.4965l-.5469149-.0767c-.2324.144-.3457.4253-.6308.3848-.4981-.0699-.7988-.5694-.7285-1.0674.082-.5908.3847-1.2485.9746-1.167.1992.0283.2871.1416.4844.1694.1425.0196.1835-.1767.3261-.1562.373115.0512.8164.2241.7656.5971-.0488.3409.1973.5791.5059.7315.0274-.0796.0449-.1289.0625-.2105l-.085885-1.0786c.291-.5092,1.009685-.4345,1.091785-1.0068l.0527-.3823c.062515-.44.5566-.6421.9961-.5791-.0293-.1656-.1328-.2569-.1113-.4224.0254-.1826.2324-.2051.4101-.2471-.0039.0752-.0019.126.0039.2041.3985-.0717.8321-.1377.886715-.5366.0078849-.0483-.0761151-.0532-.0878151-.0972-.1309.0328-.2207.0704-.3633.0508-.1895-.0263-.127-.2973-.0821-.4863-.1171-.0166-.1855-.0176-.3027-.0088.0859151-.1318.2051-.1562.3633-.1855l.1894.0937c.1094-.043.1817-.083.2891-.1279.0371151.1582-.0098.3711.1563.3955l.7226.1006c.0527-.1792-.1973-.2139-.3223-.3501-.1113-.1167.0235151-.2852-.0761-.4185-.1719-.2265-.4239-.185-.666-.3301-.4141-.2519-.4102-.81-.8946-.8779-.089785-.0132-.125.1177-.216785.1045-.322215-.0464-.373-.4248-.693315-.4697-.1035-.0147-.1641.019-.2598.0307.0098.1709.1328.2559.1074.4224-.039.2822-.4414.2676-.4824.5498-.0234.1753.0645.2715.0723.4507-.2617-.0112-.1836-.3726-.3614-.5591-.3027-.3135-.9863-.2231-.921785-.6636.085885-.6225,1.142485-.4233,1.230385-1.0454.0079-.0498-.0488-.0757-.0507-.1176.0781-.0142.123-.0499.207-.0376.2656.0361.3926.2153.5137.4516-.1602.0454-.2598.0318-.418.0777.3437.2089.6719.1606.9141.4833l.3261-.1572c-.0664-.1191-.123-.1953-.2285-.2866.0684-.0151.128915-.0229.2012-.0034-.1621-.2949-.4649-.2954-.7442-.4863-.2773-.1924-.4082-.3975-.7519-.4439l.0234-.1587c.0293-.2075.166-.2817.3008-.4409-.0879-.0454-.1406-.0874-.2422-.1021-.2129-.0297-.4863-.0166-.5156.1993-.0215.1328.107415.1762.1621.2929-.095685.0713-.1621.1231-.2344.2051.0782.0698.1485.1485.1328.2559-.0097.0737-.0878.0805-.1484.1142-.1309-.23-.2871-.3799-.25-.645-.1191.0093-.2734.0132-.2891.1294-.0175.1406.0899.207.1563.3267-.1152.0512-.1914.1084-.3242.0893l-.291-.041c.0351-.0791.1152-.1016.1289-.1924l.0468-.3408c-.1933-.0098-.2949-.0596-.4863-.0859-.1582-.0235-.3516.0263-.373.1845-.0254.1753.1445.2325.2519149.3741-.080115.0312-.123.0927-.212915.0795-.1758-.0244-.1152-.2773-.2519-.3823-.1836-.1435-.3671851-.042-.6035-.0508.0136-.2182-.0332-.4785-.25-.5087-.6075-.085-.9532.1699-1.5293.395-.4297.1684-.8028.1147-1.1407.415ZM16.111285,17.7266c.3008-.1094.4864-.2701.8086-.2251.207115.0293.1875.2895.3496.414.2188.1739.4414.1548.627.3594-.1504.148-.2481.2524-.4512.3081.0274-.1826-.0664-.3809-.248-.4067-.2989-.042-.1582.519-.4297.6508-.041-.2343-.0801-.3837-.0488-.6171.0175-.1246.113215-.1871.207-.2588-.1035-.0645-.1563-.1573-.2813-.1748-.166-.0235-.3672-.0425-.5332-.0498ZM18.339785,18.4893l.1895.0937c-.281285.3076-.6035.4404-1.0176.3823l-.1855-.0263c.2597-.3355.5761-.4185,1.0136-.4497ZM18.650385,23.9766c-.0899-.0142-.0215-.148-.025385-.2329.087885-.0137.140585-.0318.232385-.0347.0039-.0762.002-.127-.0039-.2041.0586.0088.0879-.022.146515-.0142.339785.0489.494085.2056.8300849.2866-.2656.3868-.7207.2632-1.1797.1993ZM17.013685,23.1021c-.1739-.0323-.3164-.1036-.3594-.2789.2246-.0361.343715-.0527.5703-.0219.3067.0439.4688.1601.7363.3076.2032.1123.5235.1411.4883.3725-.0176.1416-.1914.1602-.334.1407l-.289-.041c.0351-.0723.0761-.125.1269-.1851-.246085-.2212-.410085-.3799-.744085-.4268-.056715-.0078-.142615.1231-.195315.1329ZM19,14.0352c.312485.2226.482385.4741.8710849.4858.041.2436.2539151.2993.4141.4736.2949.3223.4648151.6075.8984.668.0742.0107.1191-.0078.1953-.0049-.1133-.2807-.3848-.4033-.3418-.7012.0254-.1831.2012-.2421.2285-.4248.0449-.3076-.416-.2866-.6835849-.435-.3769151-.2051-.5722151-.4527-1.001915-.5137-.3906-.0537-.7793-.0078-.9629.3389.1074.04.2656.105.382815.1133Z" fill="#fff" fill-rule="evenodd"/>
    </mask>
    <radialGradient id="radial-gradient-3" cx="14.3645026" cy="15.6839529" fx="14.3645026" fy="15.6839529" r="16.5631737" gradientUnits="userSpaceOnUse">
      <stop offset="0" stop-color="#d3edd5"/>
      <stop offset=".0881577" stop-color="#ceebd0"/>
      <stop offset=".1888042" stop-color="#c1e5c2"/>
      <stop offset=".2955934" stop-color="#aadbab"/>
      <stop offset=".4067144" stop-color="#8bce8b"/>
      <stop offset=".5211732" stop-color="#64bd62"/>
      <stop offset=".6367876" stop-color="#34a830"/>
      <stop offset=".674157" stop-color="#23a11f"/>
      <stop offset=".6869737" stop-color="#209b1c"/>
      <stop offset=".7628023" stop-color="#128010"/>
      <stop offset=".8398735" stop-color="#086d07"/>
      <stop offset=".9182832" stop-color="#016101"/>
      <stop offset="1" stop-color="#005e00"/>
    </radialGradient>
    <mask id="mask-3" x="17.8076859" y="17.7894632" width="11.5230489" height="12.459549" maskUnits="userSpaceOnUse">
      <path d="M27.752,19.5659c0,5.2554-3.1817152,8.9409-8.396515,9.3047-.5528.0405-.6309-.4375-.0918-.5659,4.4374999-1.0488,7.4413998-5.9624,7.9296998-8.7901.0488-.6523.5586152-.5034.5586152.0513Z" fill="#fff"/>
    </mask>
  </defs>
  <g isolation="isolate">
    <g id="Layer_1" data-name="Layer 1">
      <path d="M13.998,13.8555c-6.1542147,4.9775-8.9238147,11.7553-6.1835147,15.1386,2.7362999,3.3838,9.9452997,2.0909,16.0995996-2.8872,6.1542998-4.978,8.9217998-11.7553,6.1854998-15.1386-2.7382999-3.3838-9.9452997-2.0909-16.1015847,2.8872Z" fill="none" stroke="#000" stroke-width="2"/>
      <path d="M13.998,13.8555c-6.1542147,4.9775-8.9238147,11.7553-6.1835147,15.1386,2.7362999,3.3838,9.9452997,2.0909,16.0995996-2.8872,6.1542998-4.978,8.9217998-11.7553,6.1854998-15.1386-2.7382999-3.3838-9.9452997-2.0909-16.1015847,2.8872Z" fill="url(#linear-gradient)"/>
      <g>
        <path d="M12.7343851,15.8105c.914,1.8965-.8418-.8295-6.7070998,3.3589,1.4581-5.3349,8.4658998-2.3227-1.3828-5.7373,8.8242998,2.4297,2.9130999-.8755,6.1542998,3.1856-3.7987852-.9551,1.3516-2.7735-3.8876999-5.6128,4.1523999,2.7617,1.0537.373-2.3270853-2.3169,1.3505853,1.1919,4.209,2.4697,6.9804852,1.0884,1.3388-.0801-2.5908999-1.0938-5.1181999,2.6699,7.3007998-.521,7.7509998.5444,1.7978-.3672-.0234-2.855.1329148-1.5522-.0370852,3.6611,4.7324851-3.123,5.2431851-5.0019,5.209-5.9516-3.7451148.6401,2.501.313.5058851,1.9023-3.4052999-1.8677-2.6562999.3037-4.7333999-3.3281,1.0117.1836,4.3905999.4141-1.3477,4.6084.9678-3.834,7.4980998-6.5234,11.0234997-6.1108-7.0771998,3.3042-1.9258,3.246-5.4423999,4.3593-2.0956999-2.1093-2.3056999,1.336-1.8106-.7837,6.7237148-3.164,2.9247999-.75,2.8467148-1.415,5.5956849,3.1636,1.2177851,2.1099,2.136685,1.9185-.2373.9545.2676-.4703-.1465-3.6412-1.5097,3.8467-3.9940999,2.17,1.4092,1.1924-3.1884999,3.4282,2.9081999-5.9858.7393-6.1909-1.7315-2.7666-5.9394998,7.9834-4.886685,9.1143,6.7860849-1.2266,3.840785-5.3135-1.7989149-3.295,2.9882999,2.2134,5.6503999,4.1119,2.6435999.8785-1.6386851,2.1259,1.1767-4.3829-.0136851-1.8487.3778851-.2617,1.1220851.5547,1.589885,3.6319-.172885,3.0791-.1641-3.9009,3.9354999-4.7871-1.8682,3.6699-3.4325999,5.5961-2.1044999,8.268-2.5682999-3.2666-4.4794999-7.3066-2.9813999-5.6875-4.2548999,8.0869,22.0087994-2.2436,3.9569999,6.3242-7.4267998-4.2295,7.8427998-9.3505,5.937515-6.2461-5.409215-.6123-3.0498151-.6596-6.294915-2.1586,2.6552999,5.6191,8.0067998,1.0029,9.4120998-2.9288-3.4648999,4.8116-2.5204999,6.294-.5147,10.7754-1.7587.2979-3.3993999-7.2026-2.1825999-8.9882-1.5937,3.1464-2.4296999,11.9458.5039,12.0996-2.2303999-1.4204-.1523-5.1822,2.6806999-2.5454-4.1815999.2519-2.0106999-1.1548,1.7187,5.0117-1.2128-3.1241-9.6405998-6.7159-8.1971847-6.2222,6.3270847,3.4175,4.958,4.6382,6.2850847,6.9644-10.7274997,1.3852-4.6493999-4.4917-10.9872997-6.4751-1.1455,7.3999,2.4618999,9.1626,1.9424,12.7431-7.4852998-.5903-8.3602998-6.4643-9.700185-11.3105" fill="none" stroke="#930" stroke-linecap="round" stroke-linejoin="round" stroke-width="1.3838"/>
        <g>
          <path d="M7.0644853,13.5708c5.0643999,5.5557.5976,3.3369,3.2967999,6.8735-5.6717999-7.7089.1729-6.018,3.6484999-8.6753-6.3134998-1.2744-4.0888999.002-1.1289,1.1563-4.2167999,2.9829-5.7822999.2012-6.2538851-4.519-1.1866147,2.4243-.5811147.1909,4.0653852,4.3691,3.3231999-.9033-1.0137.0293,3.5136999-4.5361-1.2979.3979-7.1103998,1.3149-3.2773999,1.7114-2.3026852.0273-2.9354999,1.9429,1.2725-1.5235-1.6699,2.0342-6.4335998,7.8829,1.9717,8.1661-5.9667998.1186-5.4208851-2.2627,1.6269-2.208-.3887-4.2925.3047-2.8882-1.1894,1.7168-1.7442-5.6094.9384-4.6377,2.1473999-5.0459-2.6718999-1.3902-.4863-1.9375-6.2372998-2.1426,2.1825999-.2564.0186,2.6079-.7539,1.3027,5.8290999-2.54,2.3388999.0288,5.8417999-2.4927-.9277,2.9522,3.3397999,2.522-4.5409999,4.8257.8525-1.9531,6.4696998-.4829,3.2274999-3.0835,4.2314999-.5498,4.7665999-.292,5.1288999-1.6455-6.5809998,4.5747-8.0594998,4.4556-4.5819999.5205,3.5956999,2.1695.8467,3.9859,1.7461,2.6055-.4336-1.8945,3.7948999-6.8565,1.8779-6.9751-1.291-4.0825-2.2284999,9.3872-.3379,4.7983,1.8897,1.1304-.7685-4.2002,1.8233-.6562-4.9921849.8545-1.7207,4.2143-4.4511849,4.1157-1.3496149-2.0234.386685-7.189-2.8848149-3.6064,7.3613998-2.2857,5.2949999.4018,5.8066999,4.9238-4.5263999-4.5899-5.544885-5.0401-1.6377-7.9038-3.4550999,2.1689-3.5400999,7.1406,1.9687,5.0205-3.6815999-2.2398-2.2684999-1.2861,1.5508-3.8311-13.7186849,9.398,20.1845995-2.644-2.1425999,5.7417-9.2469998-5.644,6.2773998-1.5747,1.8965-3.81-1.3799-2.8018-1.6982.813-5.7938999,2.4258-.3809,3.9106,13.2303997-3.2784,8.0106998-7.3457-3.0145999,3.0522-3.2450999,9.7192,2.9356151,8.3115-.3467152.7021,4.1434847-4.9375-2.1338151-4.4624,6.7294998.8105-.833,9.5112,1.6367,10.8174-3.9218848-2.6182,4.6201152-3.8697,2.3691152-8.4629,6.0126846,4.7685,1.0917847,9.018-2.789,10.6723-1.3379151-2.9765,4.6512847-3.8301,1.9823848-4.3457-1.4403848-2.519,1.8154.7437-2.5663848,7.5708,1.3641848-5.625-6.067415-6.8901-4.627-9.1279,2.2431849,6.9228-.616215,5.1758-8.3427148,11.5493-4.4501999-2.373,3.8583999-11.4673,3.1024999-10.8652" fill="url(#linear-gradient-2)"/>
          <path d="M7.0644853,13.5708c5.0643999,5.5557.5976,3.3369,3.2967999,6.8735-5.6717999-7.7089.1729-6.018,3.6484999-8.6753-6.3134998-1.2744-4.0888999.002-1.1289,1.1563-4.2167999,2.9829-5.7822999.2012-6.2538851-4.519-1.1866147,2.4243-.5811147.1909,4.0653852,4.3691,3.3231999-.9033-1.0137.0293,3.5136999-4.5361-1.2979.3979-7.1103998,1.3149-3.2773999,1.7114-2.3026852.0273-2.9354999,1.9429,1.2725-1.5235-1.6699,2.0342-6.4335998,7.8829,1.9717,8.1661-5.9667998.1186-5.4208851-2.2627,1.6269-2.208-.3887-4.2925.3047-2.8882-1.1894,1.7168-1.7442-5.6094.9384-4.6377,2.1473999-5.0459-2.6718999-1.3902-.4863-1.9375-6.2372998-2.1426,2.1825999-.2564.0186,2.6079-.7539,1.3027,5.8290999-2.54,2.3388999.0288,5.8417999-2.4927-.9277,2.9522,3.3397999,2.522-4.5409999,4.8257.8525-1.9531,6.4696998-.4829,3.2274999-3.0835,4.2314999-.5498,4.7665999-.292,5.1288999-1.6455-6.5809998,4.5747-8.0594998,4.4556-4.5819999.5205,3.5956999,2.1695.8467,3.9859,1.7461,2.6055-.4336-1.8945,3.7948999-6.8565,1.8779-6.9751-1.291-4.0825-2.2284999,9.3872-.3379,4.7983,1.8897,1.1304-.7685-4.2002,1.8233-.6562-4.9921849.8545-1.7207,4.2143-4.4511849,4.1157-1.3496149-2.0234.386685-7.189-2.8848149-3.6064,7.3613998-2.2857,5.2949999.4018,5.8066999,4.9238-4.5263999-4.5899-5.544885-5.0401-1.6377-7.9038-3.4550999,2.1689-3.5400999,7.1406,1.9687,5.0205-3.6815999-2.2398-2.2684999-1.2861,1.5508-3.8311-13.7186849,9.398,20.1845995-2.644-2.1425999,5.7417-9.2469998-5.644,6.2773998-1.5747,1.8965-3.81-1.3799-2.8018-1.6982.813-5.7938999,2.4258-.3809,3.9106,13.2303997-3.2784,8.0106998-7.3457-3.0145999,3.0522-3.2450999,9.7192,2.9356151,8.3115-.3467152.7021,4.1434847-4.9375-2.1338151-4.4624,6.7294998.8105-.833,9.5112,1.6367,10.8174-3.9218848-2.6182,4.6201152-3.8697,2.3691152-8.4629,6.0126846,4.7685,1.0917847,9.018-2.789,10.6723-1.3379151-2.9765,4.6512847-3.8301,1.9823848-4.3457-1.4403848-2.519,1.8154.7437-2.5663848,7.5708,1.3641848-5.625-6.067415-6.8901-4.627-9.1279,2.2431849,6.9228-.616215,5.1758-8.3427148,11.5493-4.4501999-2.373,3.8583999-11.4673,3.1024999-10.8652" fill="none" stroke="#cc6635" stroke-width=".4613"/>
        </g>
        <path d="M22.834,17.918c.0663849-3.5752,5.1825847-6.5664,3.4432848-9.1934-8.0389998-2.727-12.6727997,6.5137-14.6268996,4.8281-15.7860996.4737,26.6513993,11.9693,11.2069997,5.1055" fill="url(#linear-gradient-3)"/>
      </g>
      <g>
        <path d="M10.2987852,20.3896c0-5.0029,4.0566999-9.0581,9.0605998-9.0581,5.0018999,0,9.058615,4.0552,9.058615,9.0581,0,5.004-4.0567152,9.0596-9.058615,9.0596-5.0038999,0-9.0605998-4.0556-9.0605998-9.0596Z" fill="url(#radial-gradient)" fill-rule="evenodd" stroke="#000" stroke-miterlimit="3.8637" stroke-width="2.0682"/>
        <g mask="url(#mask)">
          <g>
            <path d="M10.2987852,20.3896c0-5.0029,4.0566999-9.0581,9.0605998-9.0581,5.0018999,0,9.058615,4.0552,9.058615,9.0581,0,5.004-4.0567152,9.0596-9.058615,9.0596-5.0038999,0-9.0605998-4.0556-9.0605998-9.0596Z" fill="url(#radial-gradient-2)" fill-rule="evenodd"/>
            <g mask="url(#mask-1)">
              <g>
                <path d="M27.752,19.5659c0,5.2554-3.1817152,8.9409-8.396515,9.3047-.5528.0405-.6309-.4375-.0918-.5659,4.4374999-1.0488,7.4413998-5.9624,7.9296998-8.7901.0488-.6523.5586152-.5034.5586152.0513Z" fill="#3c97f6"/>
                <path d="M27.9960847,19.6055c0,5.2568-3.1796999,8.9424-8.3944998,9.3066-.5547.0391-.6328-.4399-.0918-.5674,4.4374999-1.0483,7.4393998-5.9619,7.9296998-8.7885.0507-.6543.5566-.5064.5566.0493Z" fill="none" stroke="#2b76b4" stroke-miterlimit="3.8637" stroke-width="2.6693"/>
                <path d="M27.873,19.5845c0,5.2573-3.1796152,8.9428-8.394515,9.3071-.5547.0381-.6328-.438-.0918-.5664,4.4374999-1.0483,7.4413998-5.9614,7.9277998-8.7891.0527-.6538.5585152-.5058.5585152.0484Z" fill="none" stroke="#1459a5" stroke-miterlimit="3.8637" stroke-width="1.3347"/>
                <path d="M27.752,19.5659c0,5.2554-3.1817152,8.9409-8.396515,9.3047-.5528.0405-.6309-.4375-.0918-.5659,4.4374999-1.0488,7.4413998-5.9624,7.9296998-8.7901.0488-.6523.5586152-.5034.5586152.0513Z" fill="none" stroke="#1d3f99" stroke-miterlimit="3.8637"/>
              </g>
            </g>
            <path d="M16.095685,14.123l.0742.0752c.1367.1231.293.3633.0176.4688l-.0742.0434c-.3789.2085-.4961-.1079-.6055-.3691-.1621-.1269-.7207.1577-.6933-.2529.0039-.0557.0058-.2212-.0469-.2666-.6621-.0947-1.1524.3364-1.7715.4795-.2188.0522-.459.0786-.6504.2085-.0136851.0737-.0488.1386-.0936851.2006-.2637149-.0375-.2286149-.122-.1231149-.269.3496.0488.3613-.2744,1.1992-.0937.2949149.0625.1973.9692.0938,1.1704-.2852.5356-.3145.268-.2344.8745.0254.1885-.0098.2998-.0977.4619-.0957.2822-.3945.249-.4453.0361l-.0332.1275c-.0234.0932-.0566.2065-.1211.3061-.6386,1.0264-.8554,1.2066-.6151851,2.5196.0780851.4394.1308851.8281.0683851,1.2753-.0273851.1895.0546149.3204.1621.4629l.1523.2002-.1367-.0815c-.0723.0102-.127.2768-.1328.2192-.0567-.789-.1895-1.2021-.1641-1.9785.0137-.4238.5098148-.3101.584.3799.0137.1152.0195.2344.0684.3408.248.5108.4941.9985.6484149,1.5474.0370851.1362-.0156149.4975.0214851.5556.2265149.3516.3691.6949.7383.9253.1699.1021.459-.042.7265.231.2754.2832.3594.8149.8379.6977.9336-.2309.6094.4317.7422.7383.2617.1607.3867.0205.6484.3853.0586.0786.1504.2617.25.2763.1504-.0712.1661-.1801.3926-.1484.3809.0532.4004.4331.3653.7173l-.0332.2163c-.0821.5967-.6778.7002-.7559,1.064.1387.2465.0488.4067-.1504.5722-.0176.2212.2773.4844.3926.667.125.1929.1875.5479.3555.6778.3515.2793,1.050715.3217.9609.9589-.1016.7159-.6016.9073-1.0117,1.3614.6816.0195,1.2851-.5645,1.9238-.7769.4883-.1611,1.0156-.1367,1.4766-.3818.1972-.1026.3007-.4234.58-.5899.5743-.3423,1.3946-.5595,1.6055-1.2715.0586151-.1977.1094-.3955.2109-.5791.2227151-.393.5782-.6811.795-1.0698-.5645-.0791-1.2696-.1318-1.3555-.8779-.7656-.1108-1.0781.001-1.6172-.5523-.0762-.0771-.3475849-.3637-.5039-.2993-.1152.0694-.0742.042-.1641.1006-.4238.2534-.7304-.102-1.1289-.1587-.2089.1548-.0351.2925-.4511.3365-.2344.0253-.2754-.2559-.2578-.4185l.0117-.084c-.0332-.0342-.0547-.0732-.0664-.1172.0918.0537.1855.1089.2793.1626-.3887.107-.7188.8311-1.2422.3653-.158185-.0171-.2559.0864-.4668.0576-.5703-.0806-1.1328-.6866-.6621-1.1509.0488-.1636-.0391-.2651-.2735-.3901l-.1347.0244-.0723.0019-.298785-.0425-.1914149-.2544c-.043-.2011.0312-.352.1875-.4775.0839149-.0615.0468-.0332.1191-.0859.0391-.1128.043-.1963.048815-.2686l-.2148149-.0732-.0586.0537c-.1914.185-.3535.3628-.6602.3193-1.6503851-.2324-.8632-3.31.6211-2.5732.0567.0283.0938.0464.1368.0571.4335-.4131,1.3984.1157,1.3164.7017-.013685.1084.0195.2114.1074.3056-.0684-.8442-.2696-1.0771.501915-1.4858l.173885-.0894c.4004-.2065.3418-.3125.4004-.7402.0683-.4858.4882-.7231.9003-.7734-.0957-.3462.109415-.5528.4258-.6319l.1348-.0312c.1367-.0337.2441.0322.2734.1528.1602-.0361.3516-.0825.4219-.2056-.0273-.0317-.043-.0668-.0527-.1044.0918.0556.1797.1098.2695.165-.3691.0918-.8202849.1357-.7676-.439-.457.0308-.3125-.4883.166-.6054l.1211-.024c.0782151-.0141.1778.0362.2364.0664.416-.1875.4746-.1323.5312.2998l.0703.0098c-.0526849-.1196-.0136849-.2178-.0234-.3374-.0781-.102-.4531-.1772-.5938-.2622-.3222-.1973-.539-.771-.7539-.8354-.224585.1953-.5019.0546-.681585-.1324-.093815-.103-.056715-.062-.140615-.1552-.1348-.1407-.1778-.0811-.3438-.0601l.193415-.2358c.015585.2646.33.521-.146515.8457l-.0918.0576-.0723.0444c-.0859.0591-.0781.0938-.0469.1992l.0333.1148c.1328.5508-.4786.5136-.627.0263-.125-.4018-.2012-.3369-.6094-.4824-.7773-.2788-.5215-.9809.0664-1.2383.1856-.081.6094-.185.6817-.3764-.2246-.395.6484-.7305,1.103515.1728.035085.0655.035085.1319.013685.188.0449.0186.0918.0371.1347.0615-.0117-.042-.0078-.0849.0059-.1225l-.1856-.0796c-.3125-.1401-.5898-.4985-.8984-.542-.320285-.0449-.166-.5508-.0508-.709-.043,0-.0801.0029-.1094.0112.130915.1539.1914.3423.0508.4473l-.0586.0464c.2403.4492-.3711.7295-.5234.459-.1524-.271-.3223-.4414-.2734-.7862l.2382.2559c.2598.3799-.2011.5859-.5039.5444-.248-.0356-.7246-.0859-.3945-.4633l.0449-.0489.009815-.0966c-.099615-.0215-.259815-.0733-.363315-.0499ZM11.9120851,14.4639l.0567-.2276c.3925-.3476.7792149-.2881,1.2089-.456.5196-.2041,1.92-.9175,2.0743149.0825l.0936851-.0103c.1289-.0083.2832.0044.4316.1236.1016.0752.1485.187.1797149.3012.023485-.0107.046885-.0214.068385-.0312l-.0977.3452c-.1738-.2285-.4863-.4321-.1933-.7578.2715-.3057.664-.0923.9922-.0747.3418.0181.2187.6435.0468.8213-.0293.0312-.3711-.3086-.2031-.2852.3555.0498.2422.0772.4961-.0322l-.109385.3169c-.128915-.2319-.400415-.6128.082085-.7578.041-.0122.082-.02.128915-.0249l.103485-.0088c.3066-.0205.1933.2905.2773.4575.0489.0972.119215.1895.1817.3018l-.2266-.0679c-.1738-.1738-.251885-.2275-.0312-.4336-.3653-.5098.3886-.8843,1.0136-.5513.3633.1924-.1152.459-.1699.6275.3047.1157.502.3891.7969.5234.2129.0957.8711.4238.6484.729.1875.3316-.5136849.6607-.6855.4302-.1739-.23-.6016-.2744-.8535-.4277-.3028-.1851-.0645-.3892.1464-.4297-.0234-.0161-.0468-.0298-.0703-.0401-.164.7149-1.3457.6187-1.207,1.0347.1289.1255.582.145.8535.4238.1133.1216.1504.2783.1992.4331.0176.0542.0078.0542.0078.0567-.1718-.086-.1796.4292-.248.1557l-.0254-.0962c-.084-.2871-.0254-.5254.2246-.6958l.0938-.0581.0703-.0439c.1426-.0967-.0371-.2866-.0488-.4473-.0215-.3789.6699-.3081.9238-.0439.1035.1142.0469.0537.1406.1577.0273.0278.0586.0571.093815.0737.4510849-.3882.8534849.3516,1.0682849.6446.0527151.0751.1094.1318.1797151.1757.3866849.229.8671849.128.8026849.7998.1856.1582.459.21.3633151.5513-.0898151.3242-1.1719151.2017-1.2793151-.2275-.1152.0478-.2265-.0088-.3281-.0596-.0703.0176-.1172.0317-.1445.0742l-.2050849-.3481c.3964849-.0274.5858849-.0191.5116849.4228l-.0136849.0777c.1034849-.0186.1523849-.0357.2167849-.0503l.2715.165c-.0351-.0195-.0449-.0591-.0547-.0942.4512.2627-.0957.8227-.6152.9419-.1503849.0346-.418.1298-.5313-.0288l.0567.1386c.3047.7715-.8535.1104-.9492.8047-.0801.5713-.0762.7876-.6387,1.0781l-.171885.087c-.121115.0639-.242215.1381-.326215.2509l.078215,1.003-.002.0708c-.226515.9228-1.091815-.042-1.013715-.6045.0332-.2227-.3886-.3155-.5351-.3399-.3594.3438-.533185.0279-.8477-.0176-.6894-.0957-1.1191,1.6578-.1836,1.7886.1797.0274.3789-.4199.6309-.3847.7988.1127.7305-.0245.6895.5629-.0196.2593-.002.419-.2188.5889-.0742.0557-.043.0308-.0742.0557.6445-.1157,1.2539.6494.7539,1.1455-.035185.2549.3379.4253.5605.3501.2207-.0747.3926-.0835.572315.0776.185485.0283.556585-.3891.822285-.4634l.2793.1641c-.0352-.0205-.0469-.0601-.0567-.0952.0547.0312.0938.0693.1192.1152.3906-.2627.9453.2368,1.125.1621.1172-.0717.0683-.04.164-.1006.7246-.4321,1.041.5855,1.5586.6587.4258.0596.668.0777,1.0918.146.3594.0567-.0039.6846.6094.7686.1738.0254.6387.0185.8359.1958l.0586.0517s.127.1924.0879.2803c-.2148.5044-.6387.8184-.9004,1.2847-.2011.3672-.1465.709-.4804,1.0644-.4786.5088-.9317.6163-1.4981.9551-.2246.1319-.2676.4268-.5996.5987-.5195.2753-1.0156.2373-1.5469.4121-.7851.2627-1.7051,1.1914-2.5565999.6611-.3945-.2471.4844-.9209.6582-1.0772.9492-.8584.0976-.8095-.3926-1.2006-.3164-.2447-.2754-.5093-.4551-.7896-.2343-.3706-.7871-.8516-.2734-1.2793-.3262-.5967.6601-.9043.7207-1.3281l.0293-.209c.0078-.061.0137-.1206.0117-.1738-.6426.4551-.8086-.4004-1.1094-.4966-.2226-.0708-.416-.0776-.5254-.3281-.0664-.1509-.0527-.312-.0585-.4732l-.0527851-.0293c-.6894149.0913-.7773149.1094-1.2207149-.5898-.2871-.4531-.414-.1358-.7969-.3706-.4589-.2847-.6015-.6343-.8808-1.0635-.1875-.292-.0195851-.481-.0762-.6768-.0781-.2675-.1699-.521-.2832-.7758.0352.3213.0781.6455-.3613.5839-.0235-.0039-.1348-.0688-.1485-.0869l-.1543-.2021c-.4179-.5615-.1796-.7686-.2324-1.3809-.0859-1.0009-.4219-1.6748.1406-2.6689.125-.2237.2852-.4365.4551-.7119.1836149-.3028.1602-1.1319.8301-.7993.2793.0395.1719.3969.1484.5532l-.4355-.1021c.0098-.0346.0234-.0649.0391-.0942.1875149-.3403-.2579-.5049.2304-1.1817.2324-.3232.1446-.3735.1289-.7241l-.0879-.0166c-.1757-.0259-1.6875.5796-1.0742-.2749l.0254.0147ZM17.275385,18.5259l-.0195.0542-.0293.122c-.1133.4278-.545.6246-.6153.2579-.0664-.3653-.164-.772.17-1.0391l.0742-.0576.0136.3701c-.0546-.0352-.1015-.0771-.1503-.1201-.0704-.0547-.461-.0659-.5547-.0703-.295-.0113-.3438-.335-.0645-.4351.4063-.1475.9981-.5176,1.2793.0586.1074.2202.1289.2056.3672.3003.171915.0703.6172.314.375.5576l-.1094.1079c-.1289.1221-.2656.211-.4414.2593-.3457.0967-.2441-.2778-.2949-.3657ZM17.597685,18.3921c-.1465-.0591-.2754-.1089-.4024-.2085-.1699-.1328-.1855-.311-.2402-.3662-.252-.0357-.4766.1308-.703085.2124l-.068415-.4365c.2519.0102.6113.0044.814415.1689.138685.1157.371085.2769.127.4614l-.062515.0479c-.1836.1894.1699.5347-.3164.4375.0234-.0303.0391-.086.0488-.1226l.0254-.1098c.056715-.2432.1738-.4737.4746-.4307.3203.0439.4805.3662.4395.6611l-.2832-.249c.0625-.0151.1074-.0376.1465-.0659ZM18.695285,18.4736c.4473.2222-.3379.9204-1.1504.8057-.1855-.0259-.5566-.0879-.3301-.3848.3165-.4126.7149-.5044,1.1758-.5381.0879-.0068.2539.0923.3047.1172ZM18.496085,18.877l-.1348-.0669c-.3769.0327-.5996.1113-.791.3579l-.1445-.3599c.4277.0601.6855.063,1.0039-.2852l.0664.3541ZM18.697285,23.6646l.2519-.2901c.3145-.0781.6836.2012,1,.2764.4258151.1035.0469.6845-.5586.7114-.2383.0107-.4707-.0391-.7051-.0713-.187485-.0264-.2578-.1489-.2382-.3389l.0156-.0854c.1035-.0967.1777-.1597.2344-.2021ZM19.375,23.9131c-.076215-.0352-.148415-.064-.226615-.0845-.0156.1001-.1152.1929-.2148.1968-.084.0034-.1309.0215-.209.0322l.1895-.2353c.0058.062-.0078.1225-.0196.1831-.0976-.0127-.1582-.062-.1484-.1607.209.0298.421915.0777.628915.0684ZM17.316385,23.2964c-.1016.0889-.1543.1123-.1973.1196l-.082-.001c-.6426-.122-.912085-.9121.2852-.7446.3379.0484.5254.1743.8144.3325.2539.1416.6602.1836.5996.6026-.0605.4477-.5859.3315-.875.291-.1738-.0259-.248-.1675-.1718-.3233l.0293-.0517c-.1231-.1035-.2403-.188-.4024-.2251ZM17.029285,22.9502c.2305-.2134.5371-.0811.7734.0703.1328.085.4434.3018.4375.4751-.0019.1191-.0957.1773-.1484.2773l-.168-.3227.168.0234c-.2871-.1113-.5195-.3125-.832-.3559-.1914-.0279-.2832-.0156-.5039.0195l.1836-.2759c.0058.0342.0234.064.0898.0889ZM19.125,13.918l.070285.0258c.2285.1617.4434.4361.7481.4449.1875.0063.1855.2197.3007.3144.0938.0786.1914.1416.2735.2324.1914151.209.4844151.6294.8066.5958.0371-.0049.0762-.0088.127-.0084l-.2149.3111c-.1347-.332-.5702849-.5449-.2832-1.0195.0176-.024.0332-.0469.0489151-.0699.0487849-.062.0311849-.039.0760849-.0923.0254-.0405.0313-.0502.0332-.0605-.0292849-.0273-.4804-.1548-.5702849-.2051-.4531151-.2471-.837915-.6631-1.416-.4687ZM19.343785,14.6328c-.1172-.083-.2266-.1885-.3653-.289-1.3008-.2217.0938-1.4288,1.3086-.6553.1465.0923.2852.2031.4668.3027.3027.167.8731151.1411.8008.6631-.0156.1025-.0606.1929-.1231.2739-.0527.0669-.0273.0347-.0742.0913-.0898.1455.2403.5098.2969.6436.123.3032-.2441.3413-.4375.3144-.5117-.0712-.7207-.3979-1.0313-.7392-.1424849-.1529-.3124849-.2075-.4179-.4165-.1699-.0318-.3047-.104-.4238-.189Z" fill="url(#linear-gradient-4)"/>
            <g mask="url(#mask-2)">
              <g>
                <path d="M12.0526851,14.312c.0547.1431-.1776851.2378-.0214.2598.3496.0483.5468-.2114.8945-.1626.1191.0166.1738.041.289.0659-.0332.2329.0469.3872.0137.6196-.0508.3496-.3359.4693-.3867.8189-.0293.2163.0879.3506.0566.5659-.0136.1001-.0722.1509-.1015.2402l.041-.2983c-.0664-.0103-.0918-.0469-.1602-.0571-.3418-.0474-.2675.4614-.4433.75-.3399.5459-.6289.8437-.7168,1.4755-.1289.9288.2656,1.4761.1367,2.4058-.0488.3491.1406.5449.3574.8296.0488.0068.1016.0049.1387-.0147-.0625-.7792-.1895-1.1865-.168-1.9541.2012.2652.0918.521.2266149.8106.2733851.5723.457.894.6327851,1.5117.0625.2207-.0762.4209.0508.6162.2637.4092.3867.7315.8066.9947.2344.143.4922.0014.6856.1967.2929.3057.3457.7261.7695.7862.2148.0312.3496-.0865.5664-.0562.2578.0371.0957.4024.1973149.6401.089785.2046.355385.1333.537085.2764.2207.1758.253915.4766.5371.5166.1641.023.2285-.1719.3926-.1474.2675.0371.1797.413.1406.6801-.0703.5132-.6895.5786-.7617,1.0933-.013685.0913.082.1396.070315.2295-.019515.1338-.191415.1601-.211.2925-.052715.3662.230485.5322.423885.8379.1738.271.1504.5385.4043.7348.3515.2788.9394.3101.8769.7505-.1035.7383-.7636.8745-1.162085,1.5132.070285.0439.111285.083.193385.0957.8867.123,1.3203-.4937,2.1718999-.7798.5781-.1894.9726-.1084,1.5136-.3975.2832-.1459.3145-.4292.5899-.5937.5742151-.3423.9922151-.4282,1.4492151-.9146.289-.3066.2460849-.6503.4511849-1.02.2929-.5259.6484-.7046.8867-1.2646-.0703-.0425-.1016-.1148-.1934-.1275l-.6133-.0864c-.3808-.0542-.666-.3896-.6131849-.771-.4219151-.0683-.6622151-.0859-1.0879151-.1455-.5410849-.0752-.6504-.666-1.1895-.7427-.2344-.0327-.3359.2232-.5683.1909-.3106-.0429-.4571-.1992-.7637-.2426-.1895-.0269-.2813.1465-.3672.3208l-.1367.0146c-.0352-.123-.002-.2197.0156-.353.0078-.0498-.0781-.0537-.0859-.0972-.3887.1065-.5176.5371-.9161.4815-.0976-.0137-.1347-.1211-.236285-.1343-.181615-.0249-.283215.0962-.466815.0693-.3398-.0483-.6699-.2895-.623-.6294.0176-.1245.1582-.1562.173815-.2802.046885-.3077-.197315-.5025-.482415-.6441l-.209.0376-.3008-.0415c.0098-.0581-.0195-.0957-.0117-.1538.0312-.2158.3223-.2261.3496-.4434.029315-.1894.0039-.3115.070315-.4965l-.5469149-.0767c-.2324.144-.3457.4253-.6308.3848-.4981-.0699-.7988-.5694-.7285-1.0674.082-.5908.3847-1.2485.9746-1.167.1992.0283.2871.1416.4844.1694.1425.0196.1835-.1767.3261-.1562.373115.0512.8164.2241.7656.5971-.0488.3409.1973.5791.5059.7315.0274-.0796.0449-.1289.0625-.2105l-.085885-1.0786c.291-.5092,1.009685-.4345,1.091785-1.0068l.0527-.3823c.062515-.44.5566-.6421.9961-.5791-.0293-.1656-.1328-.2569-.1113-.4224.0254-.1826.2324-.2051.4101-.2471-.0039.0752-.0019.126.0039.2041.3985-.0717.8321-.1377.886715-.5366.0078849-.0483-.0761151-.0532-.0878151-.0972-.1309.0328-.2207.0704-.3633.0508-.1895-.0263-.127-.2973-.0821-.4863-.1171-.0166-.1855-.0176-.3027-.0088.0859151-.1318.2051-.1562.3633-.1855l.1894.0937c.1094-.043.1817-.083.2891-.1279.0371151.1582-.0098.3711.1563.3955l.7226.1006c.0527-.1792-.1973-.2139-.3223-.3501-.1113-.1167.0235151-.2852-.0761-.4185-.1719-.2265-.4239-.185-.666-.3301-.4141-.2519-.4102-.81-.8946-.8779-.089785-.0132-.125.1177-.216785.1045-.322215-.0464-.373-.4248-.693315-.4697-.1035-.0147-.1641.019-.2598.0307.0098.1709.1328.2559.1074.4224-.039.2822-.4414.2676-.4824.5498-.0234.1753.0645.2715.0723.4507-.2617-.0112-.1836-.3726-.3614-.5591-.3027-.3135-.9863-.2231-.921785-.6636.085885-.6225,1.142485-.4233,1.230385-1.0454.0079-.0498-.0488-.0757-.0507-.1176.0781-.0142.123-.0499.207-.0376.2656.0361.3926.2153.5137.4516-.1602.0454-.2598.0318-.418.0777.3437.2089.6719.1606.9141.4833l.3261-.1572c-.0664-.1191-.123-.1953-.2285-.2866.0684-.0151.128915-.0229.2012-.0034-.1621-.2949-.4649-.2954-.7442-.4863-.2773-.1924-.4082-.3975-.7519-.4439l.0234-.1587c.0293-.2075.166-.2817.3008-.4409-.0879-.0454-.1406-.0874-.2422-.1021-.2129-.0297-.4863-.0166-.5156.1993-.0215.1328.107415.1762.1621.2929-.095685.0713-.1621.1231-.2344.2051.0782.0698.1485.1485.1328.2559-.0097.0737-.0878.0805-.1484.1142-.1309-.23-.2871-.3799-.25-.645-.1191.0093-.2734.0132-.2891.1294-.0175.1406.0899.207.1563.3267-.1152.0512-.1914.1084-.3242.0893l-.291-.041c.0351-.0791.1152-.1016.1289-.1924l.0468-.3408c-.1933-.0098-.2949-.0596-.4863-.0859-.1582-.0235-.3516.0263-.373.1845-.0254.1753.1445.2325.2519149.3741-.080115.0312-.123.0927-.212915.0795-.1758-.0244-.1152-.2773-.2519-.3823-.1836-.1435-.3671851-.042-.6035-.0508.0136-.2182-.0332-.4785-.25-.5087-.6075-.085-.9532.1699-1.5293.395-.4297.1684-.8028.1147-1.1407.415ZM16.111285,17.7266c.3008-.1094.4864-.2701.8086-.2251.207115.0293.1875.2895.3496.414.2188.1739.4414.1548.627.3594-.1504.148-.2481.2524-.4512.3081.0274-.1826-.0664-.3809-.248-.4067-.2989-.042-.1582.519-.4297.6508-.041-.2343-.0801-.3837-.0488-.6171.0175-.1246.113215-.1871.207-.2588-.1035-.0645-.1563-.1573-.2813-.1748-.166-.0235-.3672-.0425-.5332-.0498ZM18.339785,18.4893l.1895.0937c-.281285.3076-.6035.4404-1.0176.3823l-.1855-.0263c.2597-.3355.5761-.4185,1.0136-.4497ZM18.650385,23.9766c-.0899-.0142-.0215-.148-.025385-.2329.087885-.0137.140585-.0318.232385-.0347.0039-.0762.002-.127-.0039-.2041.0586.0088.0879-.022.146515-.0142.339785.0489.494085.2056.8300849.2866-.2656.3868-.7207.2632-1.1797.1993ZM17.013685,23.1021c-.1739-.0323-.3164-.1036-.3594-.2789.2246-.0361.343715-.0527.5703-.0219.3067.0439.4688.1601.7363.3076.2032.1123.5235.1411.4883.3725-.0176.1416-.1914.1602-.334.1407l-.289-.041c.0351-.0723.0761-.125.1269-.1851-.246085-.2212-.410085-.3799-.744085-.4268-.056715-.0078-.142615.1231-.195315.1329ZM19,14.0352c.312485.2226.482385.4741.8710849.4858.041.2436.2539151.2993.4141.4736.2949.3223.4648151.6075.8984.668.0742.0107.1191-.0078.1953-.0049-.1133-.2807-.3848-.4033-.3418-.7012.0254-.1831.2012-.2421.2285-.4248.0449-.3076-.416-.2866-.6835849-.435-.3769151-.2051-.5722151-.4527-1.001915-.5137-.3906-.0537-.7793-.0078-.9629.3389.1074.04.2656.105.382815.1133Z" fill="url(#radial-gradient-3)" fill-rule="evenodd"/>
                <g mask="url(#mask-3)">
                  <g mix-blend-mode="screen" opacity=".3">
                    <path d="M27.752,19.5659c0,5.2554-3.1817152,8.9409-8.396515,9.3047-.5528.0405-.6309-.4375-.0918-.5659,4.4374999-1.0488,7.4413998-5.9624,7.9296998-8.7901.0488-.6523.5586152-.5034.5586152.0513Z" fill="#c9ffc9"/>
                    <path d="M27.9960847,19.6055c0,5.2568-3.1796999,8.9424-8.3944998,9.3066-.5547.0391-.6328-.4399-.0918-.5674,4.4374999-1.0483,7.4393998-5.9619,7.9296998-8.7885.0507-.6543.5566-.5064.5566.0493Z" fill="none" stroke="#a7dbaa" stroke-miterlimit="3.8637" stroke-width="2.6693"/>
                    <path d="M27.873,19.5845c0,5.2573-3.1796152,8.9428-8.394515,9.3071-.5547.0381-.6328-.438-.0918-.5664,4.4374999-1.0483,7.4413998-5.9614,7.9277998-8.7891.0527-.6538.5585152-.5058.5585152.0484Z" fill="none" stroke="#85cd92" stroke-miterlimit="3.8637" stroke-width="1.3347"/>
                    <path d="M27.752,19.5659c0,5.2554-3.1817152,8.9409-8.396515,9.3047-.5528.0405-.6309-.4375-.0918-.5659,4.4374999-1.0488,7.4413998-5.9624,7.9296998-8.7901.0488-.6523.5586152-.5034.5586152.0513Z" fill="none" stroke="#65bd7b" stroke-miterlimit="3.8637"/>
                  </g>
                </g>
                <path d="M12.0526851,14.312c.0547.1431-.1776851.2378-.0214.2598.3496.0483.5468-.2114.8945-.1626.1191.0166.1738.041.289.0659-.0332.2329.0469.3872.0137.6196-.0508.3496-.3359.4693-.3867.8189-.0293.2163.0879.3506.0566.5659-.0136.1001-.0722.1509-.1015.2402l.041-.2983c-.0664-.0103-.0918-.0469-.1602-.0571-.3418-.0474-.2675.4614-.4433.75-.3399.5459-.6289.8437-.7168,1.4755-.1289.9288.2656,1.4761.1367,2.4058-.0488.3491.1406.5449.3574.8296.0488.0068.1016.0049.1387-.0147-.0625-.7792-.1895-1.1865-.168-1.9541.2012.2652.0918.521.2266149.8106.2733851.5723.457.894.6327851,1.5117.0625.2207-.0762.4209.0508.6162.2637.4092.3867.7315.8066.9947.2344.143.4922.0014.6856.1967.2929.3057.3457.7261.7695.7862.2148.0312.3496-.0865.5664-.0562.2578.0371.0957.4024.1973149.6401.089785.2046.355385.1333.537085.2764.2207.1758.253915.4766.5371.5166.1641.023.2285-.1719.3926-.1474.2675.0371.1797.413.1406.6801-.0703.5132-.6895.5786-.7617,1.0933-.013685.0913.082.1396.070315.2295-.019515.1338-.191415.1601-.211.2925-.052715.3662.230485.5322.423885.8379.1738.271.1504.5385.4043.7348.3515.2788.9394.3101.8769.7505-.1035.7383-.7636.8745-1.162085,1.5132.070285.0439.111285.083.193385.0957.8867.123,1.3203-.4937,2.1718999-.7798.5781-.1894.9726-.1084,1.5136-.3975.2832-.1459.3145-.4292.5899-.5937.5742151-.3423.9922151-.4282,1.4492151-.9146.289-.3066.2460849-.6503.4511849-1.02.2929-.5259.6484-.7046.8867-1.2646-.0703-.0425-.1016-.1148-.1934-.1275l-.6133-.0864c-.3808-.0542-.666-.3896-.6131849-.771-.4219151-.0683-.6622151-.0859-1.0879151-.1455-.5410849-.0752-.6504-.666-1.1895-.7427-.2344-.0327-.3359.2232-.5683.1909-.3106-.0429-.4571-.1992-.7637-.2426-.1895-.0269-.2813.1465-.3672.3208l-.1367.0146c-.0352-.123-.002-.2197.0156-.353.0078-.0498-.0781-.0537-.0859-.0972-.3887.1065-.5176.5371-.9161.4815-.0976-.0137-.1347-.1211-.236285-.1343-.181615-.0249-.283215.0962-.466815.0693-.3398-.0483-.6699-.2895-.623-.6294.0176-.1245.1582-.1562.173815-.2802.046885-.3077-.197315-.5025-.482415-.6441l-.209.0376-.3008-.0415c.0098-.0581-.0195-.0957-.0117-.1538.0312-.2158.3223-.2261.3496-.4434.029315-.1894.0039-.3115.070315-.4965l-.5469149-.0767c-.2324.144-.3457.4253-.6308.3848-.4981-.0699-.7988-.5694-.7285-1.0674.082-.5908.3847-1.2485.9746-1.167.1992.0283.2871.1416.4844.1694.1425.0196.1835-.1767.3261-.1562.373115.0512.8164.2241.7656.5971-.0488.3409.1973.5791.5059.7315.0274-.0796.0449-.1289.0625-.2105l-.085885-1.0786c.291-.5092,1.009685-.4345,1.091785-1.0068l.0527-.3823c.062515-.44.5566-.6421.9961-.5791-.0293-.1656-.1328-.2569-.1113-.4224.0254-.1826.2324-.2051.4101-.2471-.0039.0752-.0019.126.0039.2041.3985-.0717.8321-.1377.886715-.5366.0078849-.0483-.0761151-.0532-.0878151-.0972-.1309.0328-.2207.0704-.3633.0508-.1895-.0263-.127-.2973-.0821-.4863-.1171-.0166-.1855-.0176-.3027-.0088.0859151-.1318.2051-.1562.3633-.1855l.1894.0937c.1094-.043.1817-.083.2891-.1279.0371151.1582-.0098.3711.1563.3955l.7226.1006c.0527-.1792-.1973-.2139-.3223-.3501-.1113-.1167.0235151-.2852-.0761-.4185-.1719-.2265-.4239-.185-.666-.3301-.4141-.2519-.4102-.81-.8946-.8779-.089785-.0132-.125.1177-.216785.1045-.322215-.0464-.373-.4248-.693315-.4697-.1035-.0147-.1641.019-.2598.0307.0098.1709.1328.2559.1074.4224-.039.2822-.4414.2676-.4824.5498-.0234.1753.0645.2715.0723.4507-.2617-.0112-.1836-.3726-.3614-.5591-.3027-.3135-.9863-.2231-.921785-.6636.085885-.6225,1.142485-.4233,1.230385-1.0454.0079-.0498-.0488-.0757-.0507-.1176.0781-.0142.123-.0499.207-.0376.2656.0361.3926.2153.5137.4516-.1602.0454-.2598.0318-.418.0777.3437.2089.6719.1606.9141.4833l.3261-.1572c-.0664-.1191-.123-.1953-.2285-.2866.0684-.0151.128915-.0229.2012-.0034-.1621-.2949-.4649-.2954-.7442-.4863-.2773-.1924-.4082-.3975-.7519-.4439l.0234-.1587c.0293-.2075.166-.2817.3008-.4409-.0879-.0454-.1406-.0874-.2422-.1021-.2129-.0297-.4863-.0166-.5156.1993-.0215.1328.107415.1762.1621.2929-.095685.0713-.1621.1231-.2344.2051.0782.0698.1485.1485.1328.2559-.0097.0737-.0878.0805-.1484.1142-.1309-.23-.2871-.3799-.25-.645-.1191.0093-.2734.0132-.2891.1294-.0175.1406.0899.207.1563.3267-.1152.0512-.1914.1084-.3242.0893l-.291-.041c.0351-.0791.1152-.1016.1289-.1924l.0468-.3408c-.1933-.0098-.2949-.0596-.4863-.0859-.1582-.0235-.3516.0263-.373.1845-.0254.1753.1445.2325.2519149.3741-.080115.0312-.123.0927-.212915.0795-.1758-.0244-.1152-.2773-.2519-.3823-.1836-.1435-.3671851-.042-.6035-.0508.0136-.2182-.0332-.4785-.25-.5087-.6075-.085-.9532.1699-1.5293.395-.4297.1684-.8028.1147-1.1407.415ZM16.111285,17.7266c.3008-.1094.4864-.2701.8086-.2251.207115.0293.1875.2895.3496.414.2188.1739.4414.1548.627.3594-.1504.148-.2481.2524-.4512.3081.0274-.1826-.0664-.3809-.248-.4067-.2989-.042-.1582.519-.4297.6508-.041-.2343-.0801-.3837-.0488-.6171.0175-.1246.113215-.1871.207-.2588-.1035-.0645-.1563-.1573-.2813-.1748-.166-.0235-.3672-.0425-.5332-.0498ZM18.339785,18.4893l.1895.0937c-.281285.3076-.6035.4404-1.0176.3823l-.1855-.0263c.2597-.3355.5761-.4185,1.0136-.4497ZM18.650385,23.9766c-.0899-.0142-.0215-.148-.025385-.2329.087885-.0137.140585-.0318.232385-.0347.0039-.0762.002-.127-.0039-.2041.0586.0088.0879-.022.146515-.0142.339785.0489.494085.2056.8300849.2866-.2656.3868-.7207.2632-1.1797.1993ZM17.013685,23.1021c-.1739-.0323-.3164-.1036-.3594-.2789.2246-.0361.343715-.0527.5703-.0219.3067.0439.4688.1601.7363.3076.2032.1123.5235.1411.4883.3725-.0176.1416-.1914.1602-.334.1407l-.289-.041c.0351-.0723.0761-.125.1269-.1851-.246085-.2212-.410085-.3799-.744085-.4268-.056715-.0078-.142615.1231-.195315.1329ZM19,14.0352c.312485.2226.482385.4741.8710849.4858.041.2436.2539151.2993.4141.4736.2949.3223.4648151.6075.8984.668.0742.0107.1191-.0078.1953-.0049-.1133-.2807-.3848-.4033-.3418-.7012.0254-.1831.2012-.2421.2285-.4248.0449-.3076-.416-.2866-.6835849-.435-.3769151-.2051-.5722151-.4527-1.001915-.5137-.3906-.0537-.7793-.0078-.9629.3389.1074.04.2656.105.382815.1133Z" fill="none" fill-rule="evenodd"/>
              </g>
            </g>
          </g>
        </g>
      </g>
    </g>
  </g>
</svg>