<?xml version='1.0' encoding='UTF-8'?>
<svg xmlns="http://www.w3.org/2000/svg" xmlns:xlink="http://www.w3.org/1999/xlink" id="Layer_7" data-name="Layer 7" width="36" height="36" viewBox="0 0 36 36">
  <defs>
    <mask id="mask" x="13.0743369" y="3.8218" width="18.9254996" height="28.6621569" maskUnits="userSpaceOnUse">
      <path d="M14.0067869,7.1147v15.4351l9.0507998,8.9917s2.2929999.1343,4.6952999-.5811c2.4072999-.7143,3.3144999-1.7241,3.3144999-1.7241v-15.5742l-8.7763865-8.6753-8.2842131,2.1279Z" fill="#fff" fill-rule="evenodd" stroke="#fff" stroke-linecap="round" stroke-linejoin="round" stroke-width="1.8649"/>
    </mask>
    <linearGradient id="New_Gradient_180" data-name="New Gradient 180" x1="16.1304107" y1="11.699274" x2="29.1099115" y2="24.6787748" gradientUnits="userSpaceOnUse">
      <stop offset="0" stop-color="#d9d9d9"/>
      <stop offset="1" stop-color="#fff"/>
    </linearGradient>
    <linearGradient id="New_Gradient_194" data-name="New Gradient 194" x1="22.8983867" y1="21.6921" x2="31.9901865" y2="21.6921" gradientUnits="userSpaceOnUse">
      <stop offset="0" stop-color="#d9d9d9"/>
      <stop offset=".196625" stop-color="#fff"/>
      <stop offset="1" stop-color="#999"/>
    </linearGradient>
    <linearGradient id="New_Gradient_181" data-name="New Gradient 181" x1="16.1322652" y1="16.3113715" x2="28.60769" y2="3.8359467" gradientUnits="userSpaceOnUse">
      <stop offset="0" stop-color="#f2f2f2"/>
      <stop offset="1" stop-color="#e5e5e5"/>
    </linearGradient>
    <mask id="mask-1" x="13.4530869" y="3.8218" width="18.5370995" height="27.7297069" maskUnits="userSpaceOnUse">
      <path d="M14.0067869,7.1147v15.4351l9.0507998,8.9917s2.2929999.1343,4.6952999-.5811c2.4072999-.7143,3.3144999-1.7241,3.3144999-1.7241v-15.5742l-8.7763865-8.6753-8.2842131,2.1279Z" fill="#fff" fill-rule="evenodd"/>
    </mask>
    <linearGradient id="New_Gradient_180-2" data-name="New Gradient 180" x1="16.1284516" y1="11.6973149" x2="29.1079523" y2="24.6768156" gradientUnits="userSpaceOnUse"><stop offset="0" stop-color="#d9d9d9"/><stop offset="1" stop-color="#fff"/></linearGradient>
    <mask id="mask-2" x="24.1776867" y="16.1978" width="6.4267998" height="3.6967" maskUnits="userSpaceOnUse">
      <path d="M24.8231866,17.7607c1.9454-.0776,3.7949999-.539,5.3134999-1.5629.1377.3393.1074,1.0854,0,1.2876-.0526865.0581-.6006.4067-1.5459.7597-.9267.3438-2.2343999.7002-3.7587865.7373-.1836134-.289-.1357134-1.0503-.0088134-1.2217Z" fill="#fff"/>
    </mask>
    <mask id="mask-3" x="24.1776867" y="18.4448" width="6.4267998" height="3.6958" maskUnits="userSpaceOnUse">
      <path d="M24.8231866,20.0054c1.9454-.0782,3.7949999-.5381,5.3134999-1.5606.1377.3379.1074,1.083,0,1.2881-.0526865.0576-.6006.4048-1.5459.7603-.9267.3442-2.2343999.6972-3.7587865.7353-.1836134-.29-.1357134-1.0513-.0088134-1.2231Z" fill="#fff"/>
    </mask>
    <radialGradient id="New_Gradient_179" data-name="New Gradient 179" cx="-303.5733005" cy="77.3902609" fx="-303.5733005" fy="77.3902609" r="2.4318146" gradientTransform="translate(195.7102 -15.1321) scale(.555)" gradientUnits="userSpaceOnUse">
      <stop offset="0" stop-color="#c9ffc9"/>
      <stop offset="1" stop-color="#23a11f"/>
    </radialGradient>
    <radialGradient id="New_Gradient_177" data-name="New Gradient 177" cx="93.9149581" cy="161.9532222" fx="93.9149581" fy="161.9532222" r="12.0848034" gradientTransform="translate(-128.9079 -89.3867) rotate(-22.4981443) scale(.9269482)" gradientUnits="userSpaceOnUse">
      <stop offset="0" stop-color="#328e36"/>
      <stop offset="1" stop-color="#00cd00"/>
    </radialGradient>
    <mask id="mask-4" x="10.023387" y="14.4626591" width="10.5644997" height="9.4221409" maskUnits="userSpaceOnUse">
      <path d="M18.6337868,23.6323l-6.3153998-3.5498,2.388613-.9897c-.4228131-1.0205-.9922131-2.4541-2.570313-2.0928-1.3369.3062-1.8222,1.0474-1.8222,1.0474.2929-1.0586.9892-2.6983,3.2987999-3.419,3.1991999-1.0014,4.5800999,2.8565,4.6425999,2.9937l2.3319999-.9658-1.9541,6.976Z" fill="#fff"/>
    </mask>
    <radialGradient id="New_Gradient_177-2" data-name="New Gradient 177" cx="10.314487" cy="14.4626591" fx="10.314487" fy="14.4626591" r="9.8403865" gradientTransform="matrix(1,0,0,1,0,0)" gradientUnits="userSpaceOnUse"><stop offset="0" stop-color="#328e36"/><stop offset="1" stop-color="#00cd00"/></radialGradient>
    <radialGradient id="radial-gradient" cx="97.755459" cy="164.5297736" fx="97.755459" fy="164.5297736" r="10.0614272" gradientTransform="translate(-128.9079 -89.3867) rotate(-22.4981443) scale(.9269482)" gradientUnits="userSpaceOnUse">
      <stop offset="0" stop-color="#c9ffc9"/>
      <stop offset=".578652" stop-color="#00cd00"/>
      <stop offset="1" stop-color="#00cd00"/>
    </radialGradient>
    <radialGradient id="New_Gradient_177-3" data-name="New Gradient 177" cx="-758.2770444" cy="-28.2010707" fx="-758.2770444" fy="-28.2010707" r="12.083979" gradientTransform="translate(-641.7859 273.9726) rotate(157.5018557) scale(.9269482)" gradientUnits="userSpaceOnUse"><stop offset="0" stop-color="#328e36"/><stop offset="1" stop-color="#00cd00"/></radialGradient>
    <mask id="mask-5" x="5.9843871" y="21.2754" width="10.5653997" height="9.4230707" maskUnits="userSpaceOnUse">
      <path d="M7.9384871,21.5293l6.3163998,3.5498-2.3905999.9893c.4248,1.0205.9931,2.4541,2.5711999,2.0927,1.337-.3061,1.8213-1.0468,1.8213-1.0468-.292,1.059-.9873,2.6972-3.2977869,3.4184-3.199213,1.0015-4.5791129-2.8564-4.6426129-2.9941l-2.3319999.9668,1.9541-6.9761Z" fill="#fff"/>
    </mask>
    <radialGradient id="New_Gradient_177-4" data-name="New Gradient 177" cx="5.9843871" cy="21.5293" fx="5.9843871" fy="21.5293" r="9.8396297" gradientTransform="matrix(1,0,0,1,0,0)" gradientUnits="userSpaceOnUse"><stop offset="0" stop-color="#328e36"/><stop offset="1" stop-color="#00cd00"/></radialGradient>
    <radialGradient id="radial-gradient-2" cx="24.1156118" cy="197.5237759" fx="24.1156118" fy="197.5237759" r="8.1041167" gradientTransform="translate(-86.6602 -141.1004) rotate(-22.5020339) scale(.9612866)" gradientUnits="userSpaceOnUse">
      <stop offset="0" stop-color="#c9ffc9"/>
      <stop offset=".58427" stop-color="#00cd00"/>
      <stop offset="1" stop-color="#00cd00"/>
    </radialGradient>
  </defs>
  <g>
    <g mask="url(#mask)">
      <g>
        <path d="M14.0067869,7.1147v15.4351l9.0507998,8.9917s2.2929999.1343,4.6952999-.5811c2.4072999-.7143,3.3144999-1.7241,3.3144999-1.7241v-15.5742l-8.7763865-8.6753-8.2842131,2.1279Z" fill="url(#New_Gradient_180)" fill-rule="evenodd"/>
        <rect x="22.8983867" y="11.8735" width="9.0917998" height="19.6372" fill="url(#New_Gradient_194)"/>
        <path d="M31.1171865,12.7466L22.3427867,3.8218l-8.8896998,2.7051,9.6347998,9.5s2.3827999-.066,4.5624999-.6475c2.1766999-.5781,3.4677999-1.5903,3.4677999-1.5903l-.001-1.0425Z" fill="url(#New_Gradient_181)" fill-rule="evenodd"/>
        <path d="M14.0067869,7.1147v15.4351l9.0507998,8.9917s2.2929999.1343,4.6952999-.5811c2.4072999-.7143,3.3144999-1.7241,3.3144999-1.7241v-15.5742l-8.7763865-8.6753-8.2842131,2.1279Z" fill="none" fill-rule="evenodd" stroke="#000" stroke-linecap="round" stroke-linejoin="round" stroke-width="1.8649"/>
      </g>
    </g>
    <g mask="url(#mask-1)">
      <g>
        <path d="M14.0067869,7.1147v15.4351l9.0507998,8.9917s2.2929999.1343,4.6952999-.5811c2.4072999-.7143,3.3144999-1.7241,3.3144999-1.7241v-15.5742l-8.7763865-8.6753-8.2842131,2.1279Z" fill="url(#New_Gradient_180-2)" fill-rule="evenodd"/>
        <rect x="22.8983867" y="11.8735" width="9.0917998" height="19.6372" fill="url(#New_Gradient_194)"/>
        <path d="M31.1171865,12.7466L22.3427867,3.8218l-8.8896998,2.7051,9.6347998,9.5s2.3827999-.066,4.5624999-.6475c2.1766999-.5781,3.4677999-1.5903,3.4677999-1.5903l-.001-1.0425Z" fill="url(#New_Gradient_181)" fill-rule="evenodd"/>
      </g>
    </g>
    <path d="M14.1942869,7.2598l8.9052998,8.7758s2.1034999.1402,4.4989999-.5019c2.3007999-.6123,3.3857999-1.7119,3.3857999-1.7119" fill="none" stroke="#fff" stroke-linecap="round" stroke-miterlimit="3.8637" stroke-width=".4669"/>
    <line x1="23.04" y1="16.1548" x2="23.04" y2="31.3569" fill="none" stroke="#fff" stroke-linecap="round" stroke-miterlimit="3.8637" stroke-width=".4669"/>
    <g mask="url(#mask-2)">
      <g>
        <path d="M24.8231866,17.7607c1.9454-.0776,3.7949999-.539,5.3134999-1.5629.1377.3393.1074,1.0854,0,1.2876-.0526865.0581-.6006.4067-1.5459.7597-.9267.3438-2.2343999.7002-3.7587865.7373-.1836134-.289-.1357134-1.0503-.0088134-1.2217Z" fill="gray"/>
        <polygon points="24.1776867 19.0767 30.6044865 17.3716 30.5 18.1558 24.2997867 19.8945 24.1776867 19.0767" fill="#b2b2b2" fill-rule="evenodd"/>
      </g>
    </g>
    <g mask="url(#mask-3)">
      <g>
        <path d="M24.8231866,20.0054c1.9454-.0782,3.7949999-.5381,5.3134999-1.5606.1377.3379.1074,1.083,0,1.2881-.0526865.0576-.6006.4048-1.5459.7603-.9267.3442-2.2343999.6972-3.7587865.7353-.1836134-.29-.1357134-1.0513-.0088134-1.2231Z" fill="gray"/>
        <polygon points="24.1776867 21.3237 30.6044865 19.6172 30.5 20.4009 24.2997867 22.1406 24.1776867 21.3237" fill="#b2b2b2" fill-rule="evenodd"/>
      </g>
    </g>
    <path d="M24.666,30.0342v-7.2544s1.1825866-.0064,3.043-.5357c1.8612865-.5239,2.4530865-1.081,2.4530865-1.081v7.1445s-.8984.7446-2.6522999,1.2481c-1.7452.5034-2.8437866.4785-2.8437866.4785Z" fill="none" fill-rule="evenodd" stroke="#b2b2b2" stroke-linecap="round" stroke-linejoin="round" stroke-width=".4669"/>
    <path d="M27.6044866,26.7954c.4033-.1152.7295134.1455.7295134.5752,0,.4346-.3262134.8799-.7295134.9927-.3994.1147-.7236-.1441-.7236-.5757,0-.4346.3242-.8765.7236-.9922Z" fill="url(#New_Gradient_179)" stroke="#328e36" stroke-miterlimit="3.8637" stroke-width=".4202"/>
  </g>
  <g>
    <g>
      <path d="M18.6337868,23.6323l-6.3153998-3.5498,2.388613-.9897c-.4228131-1.0205-.9922131-2.4541-2.570313-2.0928-1.3369.3062-1.8222,1.0474-1.8222,1.0474.2929-1.0586.9892-2.6983,3.2987999-3.419,3.1991999-1.0014,4.5800999,2.8565,4.6425999,2.9937l2.3319999-.9658-1.9541,6.976Z" fill="url(#New_Gradient_177)" stroke="#000" stroke-linecap="round" stroke-linejoin="round" stroke-width="2"/>
      <g mask="url(#mask-4)">
        <g>
          <path d="M18.6337868,23.6323l-6.3153998-3.5498,2.388613-.9897c-.4228131-1.0205-.9922131-2.4541-2.570313-2.0928-1.3369.3062-1.8222,1.0474-1.8222,1.0474.2929-1.0586.9892-2.6983,3.2987999-3.419,3.1991999-1.0014,4.5800999,2.8565,4.6425999,2.9937l2.3319999-.9658-1.9541,6.976Z" fill="url(#New_Gradient_177-2)"/>
          <path d="M10.023387,18.8979s.9229-3.9208,4.394613-3.8862c2.6581868.0259,3.5214868,3.2603,3.5214868,3.2603l1.9726-.8174-1.8203,6.4302-8.0683998-4.9869Z" fill="url(#radial-gradient)"/>
        </g>
      </g>
    </g>
    <g>
      <path d="M7.9384871,21.5293l6.3163998,3.5498-2.3905999.9893c.4248,1.0205.9931,2.4541,2.5711999,2.0927,1.337-.3061,1.8213-1.0468,1.8213-1.0468-.292,1.059-.9873,2.6972-3.2977869,3.4184-3.199213,1.0015-4.5791129-2.8564-4.6426129-2.9941l-2.3319999.9668,1.9541-6.9761Z" fill="url(#New_Gradient_177-3)" stroke="#000" stroke-linecap="round" stroke-linejoin="round" stroke-width="2"/>
      <g mask="url(#mask-5)">
        <g>
          <path d="M7.9384871,21.5293l6.3163998,3.5498-2.3905999.9893c.4248,1.0205.9931,2.4541,2.5711999,2.0927,1.337-.3061,1.8213-1.0468,1.8213-1.0468-.292,1.059-.9873,2.6972-3.2977869,3.4184-3.199213,1.0015-4.5791129-2.8564-4.6426129-2.9941l-2.3319999.9668,1.9541-6.9761Z" fill="url(#New_Gradient_177-4)"/>
          <path d="M16.5497868,26.2627s-.9227868,3.9209-4.3944999,3.8872c-2.6591999-.0264-3.5224999-3.2612-3.5224999-3.2612l-1.9736.8183,1.8203-6.4316,8.0702998,4.9873Z" fill="url(#radial-gradient-2)"/>
        </g>
      </g>
    </g>
  </g>
</svg>