<?xml version='1.0' encoding='UTF-8'?>
<svg xmlns="http://www.w3.org/2000/svg" xmlns:xlink="http://www.w3.org/1999/xlink" id="Layer_7" data-name="Layer 7" width="36" height="36" viewBox="0 0 36 36">
  <defs>
    <linearGradient id="New_Gradient_318" data-name="New Gradient 318" x1="14.0805405" y1="32.6986321" x2="31.2161195" y2="18.320174" gradientUnits="userSpaceOnUse">
      <stop offset="0" stop-color="#b2b2b2"/>
      <stop offset=".168533" stop-color="#e5e5e5"/>
      <stop offset=".230331" stop-color="#fff"/>
      <stop offset=".280899" stop-color="#e5e5e5"/>
      <stop offset="1" stop-color="#ccc"/>
    </linearGradient>
    <linearGradient id="linear-gradient" x1="14.9260158" y1="30.7161552" x2="27.8924512" y2="17.7497198" gradientUnits="userSpaceOnUse">
      <stop offset="0" stop-color="#b2b2b2"/>
      <stop offset=".168533" stop-color="#e5e5e5"/>
      <stop offset=".230331" stop-color="#fff"/>
      <stop offset=".280899" stop-color="#e5e5e5"/>
      <stop offset=".5" stop-color="#c2c2c2"/>
    </linearGradient>
    <linearGradient id="New_Gradient_312" data-name="New Gradient 312" x1="20.8303056" y1="23.6152675" x2="32.2153995" y2="35.0003615" gradientUnits="userSpaceOnUse">
      <stop offset="0" stop-color="#ccc"/>
      <stop offset="1" stop-color="#fff"/>
    </linearGradient>
    <linearGradient id="New_Gradient_317" data-name="New Gradient 317" x1="29.3447651" y1="35.5846978" x2="23.7125176" y2="22.9344629" gradientUnits="userSpaceOnUse">
      <stop offset="0" stop-color="#b2b2b2"/>
      <stop offset=".5" stop-color="#e5e5e5"/>
      <stop offset="1" stop-color="#fff"/>
    </linearGradient>
    <linearGradient id="New_Gradient_316" data-name="New Gradient 316" x1="31.1116813" y1="28.5906415" x2="31.6722466" y2="30.1307819" gradientUnits="userSpaceOnUse">
      <stop offset="0" stop-color="#0f6124"/>
      <stop offset="1" stop-color="#219630"/>
    </linearGradient>
    <linearGradient id="New_Gradient_315" data-name="New Gradient 315" x1="11.824514" y1="31.8000271" x2="19.0018934" y2="24.6226477" gradientUnits="userSpaceOnUse">
      <stop offset="0" stop-color="#e5e5e5"/>
      <stop offset="1" stop-color="#ccc"/>
    </linearGradient>
    <linearGradient id="linear-gradient-2" x1="24.1266856" y1="25.1916464" x2="31.2506526" y2="18.0676794" gradientUnits="userSpaceOnUse">
      <stop offset="0" stop-color="#bfbfbf"/>
      <stop offset="1" stop-color="#f2f2f2"/>
    </linearGradient>
    <mask id="mask" x="1" y="6.6499" width="20.4306822" height="21.2539" maskUnits="userSpaceOnUse">
      <path d="M9.6122825,17.708c0-.9014.7315-1.8159,1.6309-2.0434.9013-.2271,1.6318176.3188,1.6318176,1.2192,0,.9009-.7305176,1.8159-1.6318176,2.0439-.8994.2266-1.6309-.3188-1.6309-1.2197ZM1.9228827,19.6484c0-5.1479,4.1727999-10.3745,9.3202998-11.6743,5.1493999-1.2993,9.3231998,1.8208,9.3231998,6.9688,0,5.1484-4.1737999,10.3745-9.3231998,11.6743-5.1474999,1.2998-9.3202998-1.8203-9.3202998-6.9688Z" fill="#fff" fill-rule="evenodd"/>
    </mask>
    <mask id="mask-1" x="1" y="6.6499" width="20.4306822" height="21.2539" maskUnits="userSpaceOnUse">
      <path d="M11.2431824,8.4419c4.8915999-1.2349,8.8563998,1.7295,8.8563998,6.6201s-3.9647999,9.8565-8.8563998,11.0908c-4.8896999,1.2344-8.8544998-1.7295-8.8544998-6.6201,0-4.8911,3.9647999-9.8564,8.8544998-11.0908Z" fill="#fff"/>
    </mask>
    <linearGradient id="New_Gradient_313" data-name="New Gradient 313" x1="3.6230639" y1="11.1259257" x2="18.864985" y2="23.46859" gradientUnits="userSpaceOnUse">
      <stop offset="0" stop-color="#fff"/>
      <stop offset="1" stop-color="#ccc"/>
    </linearGradient>
    <radialGradient id="radial-gradient" cx="-108.8856608" cy="-29.1913443" fx="-108.8856608" fy="-29.1913443" r="11.5557375" gradientTransform="translate(170.6358 57.1316) scale(1.4871)" gradientUnits="userSpaceOnUse">
      <stop offset="0" stop-color="#fff"/>
      <stop offset=".0189232" stop-color="#edf5f9"/>
      <stop offset=".0834349" stop-color="#b6d7e8"/>
      <stop offset=".1463504" stop-color="#89beda"/>
      <stop offset=".2062392" stop-color="#65abd0"/>
      <stop offset=".262314" stop-color="#4c9dc8"/>
      <stop offset=".3131118" stop-color="#3d94c3"/>
      <stop offset=".353932" stop-color="#3892c2"/>
      <stop offset=".7437657" stop-color="#378dbf"/>
      <stop offset="1" stop-color="#3786bb"/>
    </radialGradient>
    <radialGradient id="radial-gradient-2" cx="51.5885215" cy="-3.9669988" fx="51.5885215" fy="-3.9669988" r="22.9076743" gradientTransform="translate(-33.7783176 30.7308819) scale(.9142)" gradientUnits="userSpaceOnUse"><stop offset="0" stop-color="#fff"/><stop offset=".0189232" stop-color="#edf5f9"/><stop offset=".0834349" stop-color="#b6d7e8"/><stop offset=".1463504" stop-color="#89beda"/><stop offset=".2062392" stop-color="#65abd0"/><stop offset=".262314" stop-color="#4c9dc8"/><stop offset=".3131118" stop-color="#3d94c3"/><stop offset=".353932" stop-color="#3892c2"/><stop offset=".7437657" stop-color="#378dbf"/><stop offset="1" stop-color="#3786bb"/></radialGradient>
  </defs>
  <g>
    <path d="M19.4276822,33.5923l-7.7342998-7.6333c-.0782-.0899-.1192-.2085-.1192-.3526v-4.2519c0-.3696.2979-.7427.668-.835l13.1171997-3.249c.2246179-.0557.4238.0044.5429.1426l7.7167998,7.6113c.0899181.1143.1309181.2285.1309181.3662v4.2525c0,.3676-.2998181.7422-.6699181.8349l-13.1152997,3.2471c-.2207.0562-.4169-.0015-.5371-.1328Z" fill="url(#New_Gradient_318)" stroke="#000" stroke-miterlimit="3.8637" stroke-width="1.8248"/>
    <path d="M19.4276822,33.5923l-7.7342998-7.6333c-.0782-.0899-.1192-.2085-.1192-.3526v-4.2519c0-.3696.2979-.7427.668-.835l13.1171997-3.249c.2246179-.0557.4238.0044.5429.1426l7.7382998,7.6367-14.2128996,8.5425Z" fill="url(#linear-gradient)" fill-rule="evenodd"/>
    <path d="M19.9647822,28.1357l13.1152997-3.2475c.3701-.0913.6699181.1323.6699181.5024v4.2525c0,.3676-.2998181.7422-.6699181.8349l-13.1152997,3.2471c-.3701.0933-.6709-.1323-.6709-.501v-4.2505c0-.3691.3008-.7431.6709-.8379Z" fill="url(#New_Gradient_312)" fill-rule="evenodd"/>
    <path d="M32.7001819,24.707c.6387-.1728,1.0498181.147,1.0498181.8208v4.0376c0,.4829-.3682181.9243-.8154181,1.0362l-12.5615819,3.2046c-.3417178.0844-1.0488178.0893-1.0488178-.7349v-4.1255c0-.4819.3672-.9229.8145-1.0356l12.5614997-3.2032ZM19.9247822,33.2466c.0361.0014.1045,0,.2139-.0274l12.5633997-3.2036c.254-.0644.4551-.334.4551-.5537v-4.039c0-.0943,0-.1319-.0107-.1626-.0391-.0015-.1074.0043-.21.0317l-12.5634819,3.206c-.2558178.064-.456.3321-.456.5518v4.1265l.0077822.0703Z" fill="url(#New_Gradient_317)"/>
    <path d="M30.8378819,28.9565l1.1094-.2573c.709-.165.709.9009,0,1.0654l-1.1094.2569c-.7108819.166-.7108819-.9009,0-1.065Z" fill="url(#New_Gradient_316)"/>
    <line x1="30.7948819" y1="29.4082" x2="31.8612819" y2="29.1577" fill="none" stroke="#7cc771" stroke-linecap="round" stroke-miterlimit="3.8637" stroke-width="1.1405"/>
    <path d="M12.085,25.6938l6.6571822,6.3658-.0341822-2.1104c-1.1494177.5454-6.623-5.5869-6.623-5.5869v1.3315Z" fill="url(#New_Gradient_315)" fill-rule="evenodd"/>
    <path d="M25.4755821,17.8589l6.6962998,6.4097-6.8534998,1.8603c7.2108998-4.4849-1.3868-7.8643-1.3868-7.8643l1.544-.4057Z" fill="url(#linear-gradient-2)" fill-rule="evenodd"/>
  </g>
  <g>
    <g>
      <path d="M9.6122825,17.708c0-.9014.7315-1.8159,1.6309-2.0434.9013-.2271,1.6318176.3188,1.6318176,1.2192,0,.9009-.7305176,1.8159-1.6318176,2.0439-.8994.2266-1.6309-.3188-1.6309-1.2197ZM1.9228827,19.6484c0-5.1479,4.1727999-10.3745,9.3202998-11.6743,5.1493999-1.2993,9.3231998,1.8208,9.3231998,6.9688,0,5.1484-4.1737999,10.3745-9.3231998,11.6743-5.1474999,1.2998-9.3202998-1.8203-9.3202998-6.9688Z" fill="#b2b2b2" fill-rule="evenodd" stroke="#000" stroke-miterlimit="3.8637" stroke-width="1.5"/>
      <g mask="url(#mask)">
        <g>
          <path d="M9.6122825,17.708c0-.9014.7315-1.8159,1.6309-2.0434.9013-.2271,1.6318176.3188,1.6318176,1.2192,0,.9009-.7305176,1.8159-1.6318176,2.0439-.8994.2266-1.6309-.3188-1.6309-1.2197ZM1.9228827,19.6484c0-5.1479,4.1727999-10.3745,9.3202998-11.6743,5.1493999-1.2993,9.3231998,1.8208,9.3231998,6.9688,0,5.1484-4.1737999,10.3745-9.3231998,11.6743-5.1474999,1.2998-9.3202998-1.8203-9.3202998-6.9688Z" fill="#b2b2b2" fill-rule="evenodd"/>
          <g mask="url(#mask-1)">
            <g>
              <path d="M11.2431824,8.4419c4.8915999-1.2349,8.8563998,1.7295,8.8563998,6.6201s-3.9647999,9.8565-8.8563998,11.0908c-4.8896999,1.2344-8.8544998-1.7295-8.8544998-6.6201,0-4.8911,3.9647999-9.8564,8.8544998-11.0908Z" fill="url(#New_Gradient_313)"/>
              <g>
                <polygon points="11.1991824 17.2974 16.2323823 6.6499 18.041 7.6089 11.1991824 17.2974" fill="#b2d6e8" fill-rule="evenodd"/>
                <polygon points="19.6864822 9.0352 11.1991824 17.2974 18.041 7.6089 19.6864822 9.0352" fill="#f6f8b2" fill-rule="evenodd"/>
                <polygon points="11.1991824 17.2974 20.6747822 10.7612 19.6864822 9.0352 11.1991824 17.2974" fill="#c8e9c2" fill-rule="evenodd"/>
                <polygon points="11.1991824 17.2974 21.3310822 12.7993 20.6747822 10.7612 11.1991824 17.2974" fill="#e5c9b0" fill-rule="evenodd"/>
                <polygon points="11.1991824 17.2974 21.4306822 15.0439 21.3310822 12.7993 11.1991824 17.2974" fill="#fff" fill-rule="evenodd"/>
              </g>
              <g>
                <polygon points="11.2304824 17.2563 6.1972826 27.9038 4.3895826 26.9443 11.2304824 17.2563" fill="#b2d6e8" fill-rule="evenodd"/>
                <polygon points="2.7431827 25.5186 11.2304824 17.2563 4.3895826 26.9443 2.7431827 25.5186" fill="#f6f8b2" fill-rule="evenodd"/>
                <polygon points="11.2304824 17.2563 1.7548827 23.7925 2.7431827 25.5186 11.2304824 17.2563" fill="#c8e9c2" fill-rule="evenodd"/>
                <polygon points="11.2304824 17.2563 1.0985827 21.7544 1.7548827 23.7925 11.2304824 17.2563" fill="#e5c9b0" fill-rule="evenodd"/>
                <polygon points="11.2304824 17.2563 1 19.5098 1.0985827 21.7544 11.2304824 17.2563" fill="#fff" fill-rule="evenodd"/>
              </g>
            </g>
          </g>
          <path d="M11.2431824,14.0347c1.8037-.4546,3.2635999.6377,3.2635999,2.4389,0,1.8023-1.4599,3.6314-3.2635999,4.0865-1.8008.4545-3.2617999-.6372-3.2617999-2.439s1.461-3.6318,3.2617999-4.0864Z" fill="#999" stroke="#666" stroke-miterlimit="3.8637" stroke-width="1.05"/>
          <path d="M9.6122825,17.708c0-.9014.7315-1.8159,1.6309-2.0434.9013-.2271,1.6318176.3188,1.6318176,1.2192,0,.9009-.7305176,1.8159-1.6318176,2.0439-.8994.2266-1.6309-.3188-1.6309-1.2197ZM1.9228827,19.6484c0-5.1479,4.1727999-10.3745,9.3202998-11.6743,5.1493999-1.2993,9.3231998,1.8208,9.3231998,6.9688,0,5.1484-4.1737999,10.3745-9.3231998,11.6743-5.1474999,1.2998-9.3202998-1.8203-9.3202998-6.9688Z" fill="none" fill-rule="evenodd"/>
        </g>
      </g>
    </g>
    <g>
      <path d="M14.8397823,6.002c-.5487823-.1397-1.1142.1787-1.6806.4047-.7168.2862-1.124.0523-1.7539-.0698l.0683-.2231c.1407-.4414-.4541-.523-.5927-.0811l-2.1816999,6.9126c-.5741825-.6909-1.6621-.8823-2.6190999-.561-.8028.2676-1.5996,1.0742-1.292,1.9453.457,1.2851,3.9120999,1.7798,4.2030999-.4199.0264-.0376.0479-.0791.0625-.1245l1.2715-4.0332c.2744,1.0595,1.4424.1137,2.0946999-.3985.7197-.5659,1.6172-1.3291,2.4121176-1.0449.0888823.0322.4648823.3218.5810823.1943.1611-.1689.1064-.6435.1006-.8149-.0196-.5708-.1035-1.541-.6739-1.686" fill="#d68112" fill-rule="evenodd" stroke="#000" stroke-width="1.5"/>
      <path d="M14.8397823,6.002c-.5487823-.1397-1.1142.1787-1.6806.4047-.7168.2862-1.124.0523-1.7539-.0698l.0683-.2231c.1407-.4414-.4541-.523-.5927-.0811l-2.1816999,6.9126c-.5741825-.6909-1.6621-.8823-2.6190999-.561-.8028.2676-1.5996,1.0742-1.292,1.9453.457,1.2851,3.9120999,1.7798,4.2030999-.4199.0264-.0376.0479-.0791.0625-.1245l1.2715-4.0332c.2744,1.0595,1.4424.1137,2.0946999-.3985.7197-.5659,1.6172-1.3291,2.4121176-1.0449.0888823.0322.4648823.3218.5810823.1943.1611-.1689.1064-.6435.1006-.8149-.0196-.5708-.1035-1.541-.6739-1.686" fill="url(#radial-gradient)" fill-rule="evenodd"/>
    </g>
    <g>
      <path d="M21.7421822,19.8447c.0635-.1982-.0391-.3716-.2139-.3759-.0712822-.0469-.1894-.0816-.3681-.107l-2.6152999-.3594-.5517-.0771-2.6132999-.3584c-.1826-.0259-.3135-.0225-.4053.0015-.1631-.0494-.3691.0859-.4307.2866l-2.1424999,6.7846c-.5772-.6958-1.6875-.8784-2.6474999-.5244-.7373.2715-1.4512,1.0132-1.2108825,1.8218.2577825.8677,1.2460825,1.1929,2.0868825,1.1489.7392-.0371,1.9228-.4775,2.0595999-1.4995.0253-.0371.0459-.0776.0595176-.122l1.416-4.4888c.0400824.0088.083.0156.1318824.0224l2.6122999.3584.5527.0762,2.6132999.3589c.0449.0073.0869.0112.124.0147l-1.1797,3.7431c-.5761-.6958-1.6864822-.8794-2.6473999-.5244-.7364.272-1.4522,1.0142-1.21,1.8237.2568.8653,1.2461,1.1895,2.0839999,1.148.7432-.0376,1.9248-.4795,2.0595999-1.5005.0273178-.0366.0468-.0781.0615-.1231l2.3749999-7.5283M20.4794822,21.5117l-2.6132999-.3594-.5537-.0752-2.6112999-.3593c-.0489-.0054-.0928-.0113-.1348-.0137l.2774-.8804c.04.0078.083.0161.1318.0225l2.6132999.3589.5517.0762,2.6132999.3603c.0449.0054.0879.0107.126.0127l-.2783.8784c-.0371-.0078-.0782-.0146-.1221-.021" fill="#d68112" fill-rule="evenodd" stroke="#000" stroke-width="1.5"/>
      <path d="M21.7421822,19.8447c.0635-.1982-.0391-.3716-.2139-.3759-.0712822-.0469-.1894-.0816-.3681-.107l-2.6152999-.3594-.5517-.0771-2.6132999-.3584c-.1826-.0259-.3135-.0225-.4053.0015-.1631-.0494-.3691.0859-.4307.2866l-2.1424999,6.7846c-.5772-.6958-1.6875-.8784-2.6474999-.5244-.7373.2715-1.4512,1.0132-1.2108825,1.8218.2577825.8677,1.2460825,1.1929,2.0868825,1.1489.7392-.0371,1.9228-.4775,2.0595999-1.4995.0253-.0371.0459-.0776.0595176-.122l1.416-4.4888c.0400824.0088.083.0156.1318824.0224l2.6122999.3584.5527.0762,2.6132999.3589c.0449.0073.0869.0112.124.0147l-1.1797,3.7431c-.5761-.6958-1.6864822-.8794-2.6473999-.5244-.7364.272-1.4522,1.0142-1.21,1.8237.2568.8653,1.2461,1.1895,2.0839999,1.148.7432-.0376,1.9248-.4795,2.0595999-1.5005.0273178-.0366.0468-.0781.0615-.1231l2.3749999-7.5283M20.4794822,21.5117l-2.6132999-.3594-.5537-.0752-2.6112999-.3593c-.0489-.0054-.0928-.0113-.1348-.0137l.2774-.8804c.04.0078.083.0161.1318.0225l2.6132999.3589.5517.0762,2.6132999.3603c.0449.0054.0879.0107.126.0127l-.2783.8784c-.0371-.0078-.0782-.0146-.1221-.021" fill="url(#radial-gradient-2)" fill-rule="evenodd"/>
    </g>
  </g>
</svg>