<?xml version='1.0' encoding='UTF-8'?>
<svg xmlns="http://www.w3.org/2000/svg" xmlns:xlink="http://www.w3.org/1999/xlink" id="Icons_-_24x24" data-name="Icons - 24x24" width="24" height="24" viewBox="0 0 24 24">
  <defs>
    <linearGradient id="linear-gradient" x1="2.9289825" y1="2.1923826" x2="13.6900805" y2="18.8231977" gradientUnits="userSpaceOnUse">
      <stop offset="0" stop-color="#555b91"/>
      <stop offset=".539326" stop-color="#a4aad9"/>
      <stop offset=".6294817" stop-color="#9ca2d1"/>
      <stop offset=".7675427" stop-color="#868cbe"/>
      <stop offset=".9354859" stop-color="#646a9e"/>
      <stop offset="1" stop-color="#555b91"/>
    </linearGradient>
    <linearGradient id="linear-gradient-2" x1="6.0452484" y1="3.1268812" x2="11.2806017" y2="11.2178951" gradientUnits="userSpaceOnUse"><stop offset="0" stop-color="#555b91"/><stop offset=".539326" stop-color="#a4aad9"/><stop offset=".6294817" stop-color="#9ca2d1"/><stop offset=".7675427" stop-color="#868cbe"/><stop offset=".9354859" stop-color="#646a9e"/><stop offset="1" stop-color="#555b91"/></linearGradient>
  </defs>
  <rect x="8.8153955" y="4.7285" width="1.9999999" height="16.4004" fill="#999" stroke="#000" stroke-linecap="round" stroke-linejoin="round" stroke-width="2"/>
  <polygon points="15.0727954 9 9.8461955 3.7734 4.6181956 9 15.0727954 9" fill="#999" stroke="#000" stroke-linecap="round" stroke-linejoin="round" stroke-width="2"/>
  <rect x="8.876" y="4.7285" width="2" height="16.4004" fill="url(#linear-gradient)"/>
  <polygon points="15.0727954 9 9.8461955 3.7734 4.6181956 9 15.0727954 9" fill="url(#linear-gradient-2)"/>
  <g>
    <path d="M17.9331055,5.1118164h-.0170898l-1.081543.5317383-.2172852-1.0258789,1.5073242-.7167969h1.0908203v5.8491211h-1.2822266v-4.6381836Z"/>
    <path d="M16.6499023,21.2573242c.152832.0234375.3442383.0234375.5737305,0,.4316406-.0234375.8076172-.1430664,1.1279297-.359375.3774414-.2626953.6162109-.6220703.7158203-1.0786133l-.0219727-.0087891c-.2495117.28125-.6323242.421875-1.1484375.421875-.487793,0-.9003906-.1611328-1.237793-.4833984-.3432617-.3251953-.5180664-.7719727-.5234375-1.3398438.0053711-.5947266.2099609-1.0927734.6132812-1.4941406.3886719-.4042969.8969727-.609375,1.5244141-.6152344.7324219.0117188,1.2758789.2607422,1.6308594.7470703.3432617.4804688.5151367,1.0722656.5151367,1.7753906-.0112305,1.2158203-.3393555,2.1123047-.984375,2.6894531-.5537109.5097656-1.28125.7822266-2.1816406.8173828-.2324219.0146484-.4335938.0146484-.6035156,0v-1.0717773ZM18.2280273,17.2924805c-.2211914,0-.4042969.0932617-.5493164.2788086-.1503906.1889648-.2255859.4399414-.2255859.7524414,0,.2597656.0693359.480957.2084961.6640625.1337891.1860352.3310547.2788086.5917969.2788086.1933594,0,.3505859-.0400391.4726562-.1196289.1220703-.0708008.2143555-.1577148.2768555-.2612305.0424805-.0795898.0639648-.1972656.0639648-.3540039.0117188-.3242188-.0463867-.6108398-.1748047-.8583984-.1362305-.2480469-.3544922-.375-.6552734-.3808594h-.0087891Z"/>
  </g>
  <rect x="18.126" y="12" width="1" height="1"/>
  <rect x="18.126" y="14" width="1" height="1"/>
</svg>