<?xml version="1.0" encoding="UTF-8"?>
<svg id="Icons_-_24x24" data-name="Icons - 24x24" xmlns="http://www.w3.org/2000/svg" width="24" height="24" xmlns:xlink="http://www.w3.org/1999/xlink" viewBox="0 0 24 24">
  <defs>
    <linearGradient id="New_Gradient_Swatch_9" data-name="New Gradient Swatch 9" x1="-111.2217672" y1="144.4510819" x2="-118.1810266" y2="137.4918225" gradientTransform="translate(48.1317 -165.9351) rotate(-28.0027189)" gradientUnits="userSpaceOnUse">
      <stop offset="0" stop-color="#f3403f"/>
      <stop offset=".3789338" stop-color="#d02a27"/>
      <stop offset=".7765172" stop-color="#b11713"/>
      <stop offset="1" stop-color="#a6100c"/>
    </linearGradient>
    <mask id="mask" x="6.9462944" y="3.5361" width="12.2450997" height="17.4639" maskUnits="userSpaceOnUse">
      <path d="M6.9462944,5.4082c1.5068,6.3843-.0752,9.7485,4.2197056,13.7178.6620942.6103,1.0683942.8745,1.9687942,1.3095-.1621-1.1494.0722058-1.8432.5175-3.1235,1.6094-.102,2.4677999-.186,4.1835999-.396-.6425-.4487-.9765-.6938-1.5771-1.2324-3.9110999-3.499-2.7294999-5.8052-5.8827941-12.1475-.9444057.7364-1.6709057,1.0591-3.4297056,1.8721Z" fill="#fff"/>
    </mask>
    <linearGradient id="New_Gradient_Swatch_5" data-name="New Gradient Swatch 5" x1="11.7502658" y1="11.9855433" x2="18.2337135" y2="12.3098853" gradientUnits="userSpaceOnUse">
      <stop offset="0" stop-color="#f3403f"/>
      <stop offset=".3789338" stop-color="#d02a27"/>
      <stop offset=".7765172" stop-color="#b11713"/>
      <stop offset="1" stop-color="#a6100c"/>
    </linearGradient>
    <linearGradient id="New_Gradient_Swatch_11" data-name="New Gradient Swatch 11" x1="11.4920756" y1="12.2885964" x2="3.9193849" y2="3.6340841" gradientUnits="userSpaceOnUse">
      <stop offset="0" stop-color="#f3403f"/>
      <stop offset=".3789338" stop-color="#d02a27"/>
      <stop offset=".7765172" stop-color="#b11713"/>
      <stop offset="1" stop-color="#a6100c"/>
    </linearGradient>
  </defs>
  <path d="M6.9462944,5.4082c1.5068,6.3843-.0752,9.7485,4.2197056,13.7178.6620942.6103,1.0683942.8745,1.9687942,1.3095-.1621-1.1494.0722058-1.8432.5175-3.1235,1.6094-.102,2.4677999-.186,4.1835999-.396-.6425-.4487-.9765-.6938-1.5771-1.2324-3.9110999-3.499-2.7294999-5.8052-5.8827941-12.1475-.9444057.7364-1.6709057,1.0591-3.4297056,1.8721Z" fill="url(#New_Gradient_Swatch_9)" stroke="#000" stroke-linecap="round" stroke-linejoin="round" stroke-width="2"/>
  <g mask="url(#mask)">
    <g>
      <path d="M6.9462944,5.4082c1.5068,6.3843-.0752,9.7485,4.2197056,13.7178.6620942.6103,1.0683942.8745,1.9687942,1.3095-.1621-1.1494.0722058-1.8432.5175-3.1235,1.6094-.102,2.4677999-.186,4.1835999-.396-.6425-.4487-.9765-.6938-1.5771-1.2324-3.9110999-3.499-2.7294999-5.8052-5.8827941-12.1475-.9444057.7364-1.6709057,1.0591-3.4297056,1.8721Z" fill="url(#New_Gradient_Swatch_5)"/>
      <path d="M7.5917944,6.832c1.7461,6.1817.1973,9.522,4.7577999,13.0464.7022.5415,1.1328.7681,2.0790999,1.1216-.2021-1.0762.0195-1.75.4424-2.9902,1.6641-.189,2.5487999-.316,4.3202999-.6192-.6797-.3808-1.0342-.5918-1.6738-1.0674-4.1532999-3.0859-2.9862999-5.354-6.4316998-11.4394-.955.748-1.6992,1.0903-3.4940999,1.9482Z" fill="url(#New_Gradient_Swatch_11)"/>
    </g>
  </g>
</svg>