<?xml version="1.0" encoding="UTF-8"?>
<svg id="Set_2" data-name="Set 2" xmlns="http://www.w3.org/2000/svg" width="24" height="24" viewBox="0 0 24 24">
  <g>
    <g>
      <polygon points="20.998 17 20.998 9 19.998 9 4 9 4 16 4 17 20.998 17" fill="#555"/>
      <polygon points="20.998 17 20.998 9 19.998 9 4 9 4 16 4 17 20.998 17" fill="none" stroke="#555" stroke-width="2"/>
    </g>
    <rect x="4" y="9" width="17" height="7.998" fill="silver"/>
    <rect x="5" y="10" width="15.999" height="6.999" fill="#fff"/>
  </g>
  <g>
    <path d="M7.503895,14.4741l-.4902,1.4839h-.6299l1.6035-4.7178h.7344l1.6103051,4.7178h-.6513051l-.5039-1.4839h-1.6729ZM9.0507949,13.998l-.4687949-1.3579c-.0976051-.3081-.1679051-.5879-.2382051-.8613h-.0206c-.0634.2734-.1406.5674-.2314.854l-.4619,1.3652h1.4209Z" fill="#4d4d4d"/>
    <path d="M11.0253949,11.3101c.2656051-.063.6924-.105,1.1123-.105.6094,0,1.001.105,1.2881.3428.2451.1821.3994.4624.3994.833,0,.4624-.3076.8613-.7979,1.0361v.021c.4483.105.9727052.4761.9727052,1.1758,0,.4062-.1611052.7143-.4062052.9453-.3213.3008-.8536.4409-1.6241.4409-.4199,0-.7412-.0278-.9443-.0562v-4.6337ZM11.6337949,13.2422h.5537c.6367,0,1.0146-.3433,1.0146-.7984,0-.5459-.413-.77-1.0292-.77-.2793,0-.4405.021-.5391.042v1.5264ZM11.6337949,15.4961c.126.021.2939.0278.5117.0278.6299,0,1.2109-.2309,1.2109-.917,0-.6367-.5537-.9101-1.2187-.9101h-.5039v1.7993Z" fill="#4d4d4d"/>
  </g>
  <g opacity=".9">
    <path d="M17,15.9668c.0028947.2588.0038947.3877.0058947.6455.7802.2402.0048.3115,1.9921053.3877-.0644053-.2881-.0976053-.4316-.1621053-.7187-1.9306-.0821-1.0791-.0733-1.8358947-.3145ZM14,16.9629c1.9872947-.0762,1.2108948-.1436,1.9911947-.3838.0029-.2578.0059-.3867.0088053-.6455-.7568052.2422.0937947.2285-1.8379052.3105-.0644.2872-.0967.4307-.1620948.7188Z"/>
    <path d="M16,11.0332c-.0029053-.2588-.0039053-.3877-.0059053-.6455-.7802-.2402-.0048-.3115-1.9920947-.3877.0643948.2881.0975948.4316.1620948.7188,1.9306.082,1.0791.0732,1.8359052.3144ZM19,10c-1.9873053.0762-1.2109053.1475-1.9912053.3877-.0029.2578-.0059.3867-.0087947.6455.7567947-.2422-.0937053-.2324,1.8378947-.3144.0644-.2872.0967-.4307.1621053-.7188Z"/>
    <path d="M16,16h1v-5h-1v5Z"/>
  </g>
</svg>