<?xml version='1.0' encoding='UTF-8'?>
<svg xmlns="http://www.w3.org/2000/svg" xmlns:xlink="http://www.w3.org/1999/xlink" id="Icons_-_24x24" data-name="Icons - 24x24" width="24" height="24" viewBox="0 0 24 24">
  <defs>
    <linearGradient id="linear-gradient" x1="11.4074887" y1="17.4737067" x2="8.3670331" y2="8.453706" gradientTransform="translate(-2.7486 .001) skewX(2.7938177)" gradientUnits="userSpaceOnUse">
      <stop offset=".005618" stop-color="#6498c1"/>
      <stop offset=".2332473" stop-color="#79a9cb"/>
      <stop offset=".7405465" stop-color="#a3cce1"/>
      <stop offset="1" stop-color="#b4daea"/>
    </linearGradient>
    <linearGradient id="linear-gradient-2" x1="34.6148155" y1="-127.1737503" x2="53.8227893" y2="-114.6999462" gradientTransform="translate(-104.3789 129.2031) rotate(17.606554) scale(.8202224 1.1986387) skewX(-23.580122)" gradientUnits="userSpaceOnUse">
      <stop offset="0" stop-color="#b4daea"/>
      <stop offset=".51123" stop-color="#b4daea"/>
      <stop offset=".646072" stop-color="#5387ba"/>
      <stop offset="1" stop-color="#16336e"/>
    </linearGradient>
    <mask id="mask" x="7.4608944" y="9.6343" width="14.6865996" height="14.2524" maskUnits="userSpaceOnUse">
      <polygon points="9.4071943 22.1172 21.136694 22.0264 21.507794 21.4326 19.2128941 11.2568 9.209 10.0898 8.832 10.6929 9.4071943 22.1172" fill="#fff" fill-rule="evenodd"/>
    </mask>
    <linearGradient id="New_Gradient_21" data-name="New Gradient 21" x1="10.6585475" y1="13.5128023" x2="18.3318063" y2="20.1830645" gradientUnits="userSpaceOnUse">
      <stop offset="0" stop-color="#5387ba"/>
      <stop offset="1" stop-color="#96bad6"/>
    </linearGradient>
    <linearGradient id="New_Gradient_23" data-name="New Gradient 23" x1="37.7686905" y1="-122.3803494" x2="51.4536689" y2="-113.4932205" gradientTransform="translate(-104.3789 129.2031) rotate(17.606554) scale(.8202224 1.1986387) skewX(-23.580122)" gradientUnits="userSpaceOnUse">
      <stop offset="0" stop-color="#b4daea"/>
      <stop offset=".51123" stop-color="#b4daea"/>
      <stop offset=".646072" stop-color="#5387ba"/>
      <stop offset="1" stop-color="#16336e"/>
    </linearGradient>
    <linearGradient id="linear-gradient-3" x1="20.8159392" y1="13.0279138" x2="5.3321831" y2="20.5398439" gradientTransform="translate(-2.7486 .001) skewX(2.7938177)" gradientUnits="userSpaceOnUse">
      <stop offset="0" stop-color="#fff"/>
      <stop offset=".0936965" stop-color="#f9f9f9"/>
      <stop offset=".2185896" stop-color="#e8e8e8"/>
      <stop offset=".3611084" stop-color="#ccc"/>
      <stop offset=".5167169" stop-color="#a5a5a5"/>
      <stop offset=".6830218" stop-color="#737373"/>
      <stop offset=".8553623" stop-color="#373737"/>
      <stop offset="1" stop-color="#000"/>
    </linearGradient>
    <linearGradient id="New_Gradient_24" data-name="New Gradient 24" x1="43.4046322" y1="-124.8126985" x2="43.4046322" y2="-114.565572" gradientTransform="translate(-104.3789 129.2031) rotate(17.606554) scale(.8202224 1.1986387) skewX(-23.580122)" gradientUnits="userSpaceOnUse">
      <stop offset="0" stop-color="#b2b2b2"/>
      <stop offset="1" stop-color="#f2f2f2"/>
    </linearGradient>
    <linearGradient id="New_Gradient_21-2" data-name="New Gradient 21" x1="34.1366279" y1="-123.1885396" x2="41.7899507" y2="-116.5356075" gradientTransform="translate(-104.3789 129.2031) rotate(17.606554) scale(.8202224 1.1986387) skewX(-23.580122)" gradientUnits="userSpaceOnUse"><stop offset="0" stop-color="#5387ba"/><stop offset="1" stop-color="#96bad6"/></linearGradient>
    <linearGradient id="linear-gradient-4" x1="10.5165729" y1="9.5075576" x2="-10.9199307" y2="18.6602006" gradientTransform="matrix(1,0,0,1,0,0)" gradientUnits="userSpaceOnUse"><stop offset="0" stop-color="#fff"/><stop offset=".0936965" stop-color="#f9f9f9"/><stop offset=".2185896" stop-color="#e8e8e8"/><stop offset=".3611084" stop-color="#ccc"/><stop offset=".5167169" stop-color="#a5a5a5"/><stop offset=".6830218" stop-color="#737373"/><stop offset=".8553623" stop-color="#373737"/><stop offset="1" stop-color="#000"/></linearGradient>
  </defs>
  <path d="M11.2050943,19.6802c-3.1308999-2.3706-4.7831999-3.2969-7.9003998-4.648-.1309-.2739-.1943-.4116-.3242-.6841-.042-4.8183-.0634945-7.2265-.1044945-12.0449,3.0653944,1.2837,4.6981944,2.1734,7.8016943,4.4624.1338.3189.2002.4776.334.7979.0772,4.8462.1153057,7.27.1934,12.1167Z" fill="url(#linear-gradient)" fill-rule="evenodd" stroke="#000" stroke-width="2"/>
  <path d="M20.958,20.1563c.052694-.0967-.292.6186-.217806.5053.2696-.415-.2871-.3574-.0468-.6006l.748-.0044.3682-.5947-.5713-11.4018-11.2734997.0581c.0323-.398-.0625-.2964-.7421.7465-.6796943,1.0445-.4082,1.4063-.4414,1.8077-.0049.0512,0,.0864.0117057.1089l.5682943,11.3212,11.7314997-.0908.3701-.5942-.504894-1.2612Z" fill="url(#linear-gradient-2)" stroke="#000" stroke-linecap="round" stroke-linejoin="round" stroke-width="2"/>
  <g mask="url(#mask)">
    <g>
      <polygon points="9.4071943 22.1172 21.136694 22.0264 21.507794 21.4326 19.2128941 11.2568 9.209 10.0898 8.832 10.6929 9.4071943 22.1172" fill="url(#New_Gradient_21)" fill-rule="evenodd"/>
      <polygon points="9.1825943 10.002 9.7665943 21.6382 22.147494 21.4463 20.490194 23.5542 7.9394943 23.8867 7.4608944 11.5908 8.7772943 9.6343 9.1825943 10.002" fill="url(#New_Gradient_23)" fill-rule="evenodd"/>
    </g>
  </g>
  <path d="M21.238294,8.0601l.3164,11.8613s-.252-.0396-.7695.7549c-.5147.7934.3789.3418.3789.3418l-11.1386997.1601-.5566-11.0561.5429-1.9864,11.2265997-.0756Z" fill="url(#linear-gradient-3)" fill-rule="evenodd"/>
  <polygon points="9.04 8.4771 9.623 20.1138 21.554694 19.9214 21.164094 21.0181 9.0712943 21.1343 8.5956943 8.8384 8.6327943 8.1089 9.04 8.4771" fill="url(#New_Gradient_24)" fill-rule="evenodd"/>
  <path d="M9.8554943,20.604c.5586-.8589.5859-.9477.707-.873l-.5361-11.2173c.0341-.4033-.0596-.3008-.7403.7436-.6787,1.044-.4090943,1.4063-.4423,1.8101-.0049.0498,0,.0859.0126.1079l.5616057,11.2031c.0624943-.4341-.2246057-.7593.4374943-1.7744Z" fill="#4d7ba6"/>
  <path d="M9.8358943,20.2266c.5606-.8579.586-.9478.71-.8731l-.5342-11.2178c.0332-.4033-.0644-.2998-.7441.7447-.6797,1.0425-.4072,1.4048-.4424,1.8086-.0039.0493.001.0874.0137.1093l.5625,11.2022c.0605-.4336-.2256-.7583.4345-1.7739Z" fill="url(#New_Gradient_21-2)"/>
  <line x1="10.0116943" y1="8.1357" x2="10.5565943" y2="19.6045" fill="none" stroke="#5387ba" stroke-linejoin="round"/>
  <path d="M11.2050943,19.6802c-3.1308999-2.3706-4.7831999-3.2969-7.9003998-4.648-.1309-.2739-.1943-.4116-.3242-.6841-.042-4.8183-.0634945-7.2265-.1044945-12.0449,3.0653944,1.2837,4.6981944,2.1734,7.8016943,4.4624.1338.3189.2002.4776.334.7979.0772,4.8462.1153057,7.27.1934,12.1167Z" fill="url(#linear-gradient-4)" fill-rule="evenodd"/>
</svg>