<?xml version='1.0' encoding='UTF-8'?>
<svg xmlns="http://www.w3.org/2000/svg" xmlns:xlink="http://www.w3.org/1999/xlink" id="Set_6" data-name="Set 6" width="24" height="24" viewBox="0 0 24 24">
  <defs>
    <radialGradient id="radial-gradient" cx="6.1391405" cy="-3.6105845" fx="6.1391405" fy="-3.6105845" r="6.4264051" gradientTransform="translate(-2.3756 18.0801) scale(1.2131)" gradientUnits="userSpaceOnUse">
      <stop offset=".005618" stop-color="#e8f0f7"/>
      <stop offset=".606741" stop-color="#69c"/>
      <stop offset="1" stop-color="#16336e"/>
    </radialGradient>
    <radialGradient id="radial-gradient-2" cx="8.6121435" cy="-6.0835875" fx="8.6121435" fy="-6.0835875" r="6.4264051" gradientTransform="translate(-2.3756 18.0801) scale(1.2131)" gradientUnits="userSpaceOnUse"><stop offset=".005618" stop-color="#e8f0f7"/><stop offset=".606741" stop-color="#69c"/><stop offset="1" stop-color="#16336e"/></radialGradient>
    <radialGradient id="radial-gradient-3" cx="11.0851465" cy="-8.5565906" fx="11.0851465" fy="-8.5565906" r="6.4264051" gradientTransform="translate(-2.3756 18.0801) scale(1.2131)" gradientUnits="userSpaceOnUse"><stop offset=".005618" stop-color="#e8f0f7"/><stop offset=".606741" stop-color="#69c"/><stop offset="1" stop-color="#16336e"/></radialGradient>
    <radialGradient id="radial-gradient-4" cx="32.1061155" cy="14.0961465" fx="32.1061155" fy="14.0961465" r="13.5213454" gradientTransform="translate(-16.268812 -.5190086) scale(.9409 .9593)" gradientUnits="userSpaceOnUse">
      <stop offset=".5" stop-color="#fff"/>
      <stop offset=".5120147" stop-color="#f4f4f4"/>
      <stop offset=".5921692" stop-color="#b4b4b4"/>
      <stop offset=".6712713" stop-color="#7d7d7d"/>
      <stop offset=".7473915" stop-color="#505050"/>
      <stop offset=".81997" stop-color="#2d2d2d"/>
      <stop offset=".8880428" stop-color="#141414"/>
      <stop offset=".9499014" stop-color="#050505"/>
      <stop offset="1" stop-color="#000"/>
    </radialGradient>
  </defs>
  <circle cx="7.9966913" cy="15.8924" r="5.4999999" fill="url(#radial-gradient)" opacity=".25" stroke="#000"/>
  <circle cx="10.9966912" cy="12.8924" r="5.4999999" fill="url(#radial-gradient-2)" opacity=".5" stroke="#000"/>
  <circle cx="13.9966912" cy="9.8924" r="5.4999999" fill="url(#radial-gradient-3)" stroke="#000"/>
  <g>
    <path d="M12.2940912,20.493c0-.5615.4965-1.0166,1.1079088-1.0166h4.4276911c.6108,0,1.1069.4551,1.1069,1.0166h0c0,.5596-.4961,1.0146-1.1069,1.0146h-4.4276911c-.6114088,0-1.1079088-.455-1.1079088-1.0146h0Z" fill="#032c87"/>
    <path d="M18.604091,15.4139c-.183091,0-.3315.3037-.3315.6767v.3389c0,.1875-.1489.3379-.333.3379-.1831,0-.3315911-.1504-.3315911-.3379v-1.0156c0-.3731-.1489089-.6777-.3315089-.6777-.1831,0-.3324911.3046-.3324911.6777v.3379c0,.1875-.1485089.3388-.3321089.3388-.1831,0-.332-.1513-.332-.3388v-.3379c0-.3731-.1494-.6777-.3325-.6777-.1826,0-.332.3046-.332.6777v.3379c0,.1875-.149.3388-.3321.3388-.1841,0-.332-.1513-.332-.3388v-3.1826c0-.3741-.2992911-.6778-.6641-.6778-.3651912,0-.6635.3037-.6635.6778v4.9043c0,.25-.0972.4785-.2515.6494-.5908-.6885-.6201-1.8086-1.4009-2.6416-.2651-.2842-.9009-.3116-1.0044-.0596-.1025.249.1328.6807.273.9639.563,1.1377.1396,1.9716,1.2329,3.3369.0239.0303.9228.1855,1.539.1855h.7242088c.0462911,0,.0897911-.0068.1351911-.0097.0269.0009.0532.0097.0801.0097h1.9927089c.7308911,0,1.992591-.4316,1.992591-1.7851h0v-2.0323c0-.373-.1489-.6767-.3325-.6767Z" stroke="#000" stroke-linejoin="round" stroke-width="2"/>
    <path d="M18.604091,15.5301c-.183091,0-.3315.3125-.3315.6963v.3486c0,.1924-.1489.3477-.333.3477-.1831,0-.3315911-.1553-.3315911,0v-1.044c0-.7324-.1489089-1.0459-.3315089-1.0459-.1831,0-.3324911.3135-.3324911.6973v.6963c0,.1924-.1485089.3486-.3321089.3486-.1831,0-.332-.1562-.332-.3486v-.6963c0-.3838-.1494-.6973-.3325-.6973-.1826,0-.332.3135-.332.6973v.6963c0,.1924-.149.3486-.3321.3486-.1841,0-.332-.1562-.332-.3486v-3.6377c0-.3838-.2992911-.6973-.6641-.6973-.3651912,0-.6635.3135-.6635.6973v5.0586c0,.2597-.1778.0869-.3321.2637-.5908-.7081-.5395-1.4541-1.3203-2.3116-.2651-.292-.9009-.3193-1.0044-.0615-.1025.2578.1328.7002.273.9922.563,1.1689.1396,2.0293,1.2329,3.4326.0239.0303.9228.1904,1.539.1904h.7242088c.0462911,0,.0897911-.0068.1351911-.0107.0269.0029.0532.0107.0801.0107h1.9927089c.7308911,0,1.992591-.4433,1.992591-1.8369h0v-2.0898c0-.3838-.1489-.6963-.3325-.6963Z" fill="url(#radial-gradient-4)"/>
  </g>
</svg>