<?xml version="1.0" encoding="UTF-8"?>
<svg id="Set_3" data-name="Set 3" xmlns="http://www.w3.org/2000/svg" width="24" height="24" xmlns:xlink="http://www.w3.org/1999/xlink" viewBox="0 0 24 24">
  <defs>
    <mask id="mask" x="6.325944" y="6.450325" width="12.8500997" height="12.848975" maskUnits="userSpaceOnUse">
      <path d="M15.124,7c0,.001-.0019083.002-.0029083.0039l-2.7948999,2.794-2.7968999-2.7974h0l-.001-.0005c-.7314-.7329-1.9189-.7329-2.6522919,0-.733408.7324-.733408,1.9199,0,2.6528l2.7977919,2.7984-2.7967919,2.7973c-.733408.7325-.733408,1.92,0,2.6529.7323919.7324,1.9198919.7324,2.6522919,0,0-.001.001-.002.002-.0039l2.7948999-2.7935,2.7978082,2.7969h0v.0005c.7323917.7324,1.9198917.7324,2.6513917,0,.7334-.7329.7334-1.9204,0-2.6524h0l-2.7958999-2.7978,2.7968999-2.7984c.7334-.7329.7334-1.9204,0-2.6528-.7315-.7329-1.92-.7329-2.6523917,0Z" fill="#fff"/>
    </mask>
    <linearGradient id="linear-gradient" x1="7.9909701" y1="1.6811869" x2="15.198498" y2="19.583745" gradientUnits="userSpaceOnUse">
      <stop offset=".005618" stop-color="#f8cccc"/>
      <stop offset="1" stop-color="#cb1009"/>
    </linearGradient>
    <linearGradient id="linear-gradient-2" x1="10.7864162" y1="8.3084997" x2="16.536734" y2="20.3155012" gradientUnits="userSpaceOnUse">
      <stop offset="0" stop-color="#f3403f"/>
      <stop offset=".3789338" stop-color="#d02a27"/>
      <stop offset=".7765172" stop-color="#b11713"/>
      <stop offset="1" stop-color="#a6100c"/>
    </linearGradient>
  </defs>
  <path d="M15.124,7c0,.001-.0019083.002-.0029083.0039l-2.7948999,2.794-2.7968999-2.7974h0l-.001-.0005c-.7314-.7329-1.9189-.7329-2.6522919,0-.733408.7324-.733408,1.9199,0,2.6528l2.7977919,2.7984-2.7967919,2.7973c-.733408.7325-.733408,1.92,0,2.6529.7323919.7324,1.9198919.7324,2.6522919,0,0-.001.001-.002.002-.0039l2.7948999-2.7935,2.7978082,2.7969h0v.0005c.7323917.7324,1.9198917.7324,2.6513917,0,.7334-.7329.7334-1.9204,0-2.6524h0l-2.7958999-2.7978,2.7968999-2.7984c.7334-.7329.7334-1.9204,0-2.6528-.7315-.7329-1.92-.7329-2.6523917,0Z" stroke="#000" stroke-linecap="round" stroke-linejoin="round" stroke-width="2"/>
  <g mask="url(#mask)">
    <g>
      <path d="M15.124,7c0,.001-.0019083.002-.0029083.0039l-2.7948999,2.794-2.7968999-2.7974h0l-.001-.0005c-.7314-.7329-1.9189-.7329-2.6522919,0-.733408.7324-.733408,1.9199,0,2.6528l2.7977919,2.7984-2.7967919,2.7973c-.733408.7325-.733408,1.92,0,2.6529.7323919.7324,1.9198919.7324,2.6522919,0,0-.001.001-.002.002-.0039l2.7948999-2.7935,2.7978082,2.7969h0v.0005c.7323917.7324,1.9198917.7324,2.6513917,0,.7334-.7329.7334-1.9204,0-2.6524h0l-2.7958999-2.7978,2.7968999-2.7984c.7334-.7329.7334-1.9204,0-2.6528-.7315-.7329-1.92-.7329-2.6523917,0Z" fill="url(#linear-gradient)"/>
      <path d="M15.9735917,7.8486c0,.001-.0009.002-.0009.0039l-2.7968999,2.794-2.7968999-2.7974h0l-.001-.0005c-.7314-.7329-1.9208919-.7329-2.6522999,0-.7324.7325-.7324,1.92,0,2.6529l2.7977999,2.7983-2.7967999,2.7974c-.7325.7319-.7325,1.9199,0,2.6528.7304081.7324,1.9199.7324,2.6522999,0,.001-.001.002-.002.0029-.0039l2.7939999-2.7935,2.7977999,2.7969h0v.0005c.7325.7324,1.919.7324,2.6514083,0,.7333916-.7329.7333916-1.9209,0-2.6523h0l-2.7969083-2.7979,2.7979083-2.7983c.7333916-.7329.7333916-1.9204,0-2.6529-.7324083-.7329-1.919-.7329-2.6524083,0Z" fill="url(#linear-gradient-2)"/>
    </g>
  </g>
</svg>