<?xml version="1.0" encoding="UTF-8"?>
<svg id="Set_5" data-name="Set 5" xmlns="http://www.w3.org/2000/svg" width="24" height="24" viewBox="0 0 24 24">
  <path d="M9.0869,16.748c-2.8374,0-5.539.3262-5.0464-3.748.3462-2.8691,3.2832-3.5176,5.0801-4.5" fill="none" stroke="#000" stroke-linecap="round" stroke-miterlimit="3.8637" stroke-width=".7125"/>
  <polyline points="9.126 17.7324 9.126 19.0039 11.999 16.748 9.7104 14.4902 9.126 15.7949"/>
  <path d="M15.7021,16.7695l-.5712,1.7305h-.7334l1.8681-5.5h.8574l1.876,5.5h-.7588l-.5879-1.7305h-1.9502ZM17.5059,16.2148l-.5469-1.583c-.1143-.3584-.1963-.6855-.2764-1.0039h-.0254c-.0732.3184-.1631.6612-.2685.9961l-.5391,1.5908h1.6563Z"/>
  <path d="M11.9473,10.4639l3.0527-4.4639v-.0244h-2.792v-.5957h3.7139v.4326l-3.0352,4.4473v.0254h3.0762v.5947h-4.0156v-.416Z"/>
</svg>