<?xml version='1.0' encoding='UTF-8'?>
<svg xmlns="http://www.w3.org/2000/svg" xmlns:xlink="http://www.w3.org/1999/xlink" id="Set_5" data-name="Set 5" width="24" height="24" viewBox="0 0 24 24">
  <defs>
    <linearGradient id="linear-gradient" x1="5" y1="8" x2="7" y2="8" gradientUnits="userSpaceOnUse">
      <stop offset="0" stop-color="#767676"/>
      <stop offset=".2125458" stop-color="#676767"/>
      <stop offset=".7167534" stop-color="#484848"/>
      <stop offset="1" stop-color="#3d3d3d"/>
    </linearGradient>
    <linearGradient id="linear-gradient-2" x1="10.0029" y1="7" x2="12.0029" y2="7" gradientUnits="userSpaceOnUse"><stop offset="0" stop-color="#767676"/><stop offset=".2125458" stop-color="#676767"/><stop offset=".7167534" stop-color="#484848"/><stop offset="1" stop-color="#3d3d3d"/></linearGradient>
    <linearGradient id="linear-gradient-3" x1="15.0078" x2="17.0078" y1="8" y2="8" gradientUnits="userSpaceOnUse"><stop offset="0" stop-color="#767676"/><stop offset=".2125458" stop-color="#676767"/><stop offset=".7167534" stop-color="#484848"/><stop offset="1" stop-color="#3d3d3d"/></linearGradient>
  </defs>
  <g opacity=".5">
    <rect x="5" y="6" width="2" height="4" stroke="#404040" stroke-width="2"/>
    <rect x="5" y="6" width="2" height="4" fill="url(#linear-gradient)"/>
  </g>
  <g opacity=".5">
    <rect x="10.0029" y="4" width="2" height="6" stroke="#404040" stroke-width="2"/>
    <rect x="10.0029" y="4" width="2" height="6" fill="url(#linear-gradient-2)"/>
  </g>
  <g opacity=".5">
    <rect x="15.0078" y="6" width="2" height="4" stroke="#404040" stroke-width="2"/>
    <rect x="15.0078" y="6" width="2" height="4" fill="url(#linear-gradient-3)"/>
  </g>
  <g>
    <rect x="3.0195" y="13" width="17" height="9" fill="#fff"/>
    <g>
      <g>
        <rect x="15" y="21" width="1" height="1" fill="#c42e00"/>
        <rect x="11" y="21" width="1" height="1" fill="#c42e00"/>
        <rect x="7" y="21" width="1" height="1" fill="#c42e00"/>
        <rect x="3" y="15" width="1" height="1" fill="#c42e00"/>
        <rect x="3" y="13" width="1" height="1" fill="#c42e00"/>
        <rect x="3" y="21" width="1" height="1" fill="#c42e00"/>
        <rect x="3" y="19" width="1" height="1" fill="#c42e00"/>
        <rect x="17" y="21" width="1" height="1" fill="#c42e00"/>
        <rect x="13" y="21" width="1" height="1" fill="#c42e00"/>
        <rect x="9" y="21" width="1" height="1" fill="#c42e00"/>
        <rect x="5" y="21" width="1" height="1" fill="#c42e00"/>
        <rect x="7" y="13" width="1" height="1" fill="#c42e00"/>
        <rect x="11" y="13" width="1" height="1" fill="#c42e00"/>
        <rect x="15" y="13" width="1" height="1" fill="#c42e00"/>
        <rect x="19" y="21" width="1" height="1" fill="#c42e00"/>
        <rect x="19" y="19" width="1" height="1" fill="#c42e00"/>
        <rect x="19" y="13" width="1" height="1" fill="#c42e00"/>
        <rect x="19" y="17" width="1" height="1" fill="#c42e00"/>
        <rect x="3" y="17" width="1" height="1" fill="#c42e00"/>
        <rect x="3" y="15" width="1" height="1" fill="#c42e00"/>
        <rect x="19" y="15" width="1" height="1" fill="#c42e00"/>
        <rect x="5" y="13" width="1" height="1" fill="#c42e00"/>
        <rect x="9" y="13" width="1" height="1" fill="#c42e00"/>
        <rect x="13" y="13" width="1" height="1" fill="#c42e00"/>
        <rect x="17" y="13" width="1" height="1" fill="#c42e00"/>
      </g>
      <g>
        <path d="M6.2402,18.3184l-.5434,1.5234h-.6968l1.7754-4.8418h.813l1.7837,4.8418h-.7212l-.5586-1.5234h-1.8521ZM7.9526,17.8301l-.5185-1.3946c-.1074-.3144-.1856-.6035-.2632-.8828h-.0234c-.0708.2793-.1553.5821-.2564.875l-.5112,1.4024h1.5727Z"/>
        <path d="M10.1401,15.1504c.2935-.0645.7657-.1084,1.231-.1084.6753,0,1.1094.1084,1.4268.3516.2705.1904.4428.4746.4428.8564,0,.4746-.3428.8828-.8847,1.0635v.0215c.4956.1074,1.0776.4882,1.0776,1.208,0,.414-.1777.7324-.4502.9677-.3569.3096-.9458.4522-1.7979.4522-.4653,0-.8212-.0293-1.0454-.0566v-4.7559ZM10.8135,17.1328h.6123c.706,0,1.1245-.3515,1.1245-.8174,0-.5605-.458-.791-1.1397-.791-.311,0-.4877.0225-.5971.042v1.5664ZM10.8135,19.4463c.1401.0205.3257.0283.5659.0283.6977,0,1.3403-.2363,1.3403-.9404,0-.6543-.6123-.9336-1.3486-.9336h-.5576v1.8457Z"/>
        <path d="M17.9849,19.7676c-.2432.1162-.7461.2324-1.3809.2324-1.4722,0-2.5732-.8613-2.5732-2.459,0-1.5215,1.1079-2.541,2.728-2.541.6431,0,1.0625.1289,1.2412.2158l-.1714.5088c-.2475-.1133-.6123-.2002-1.0473-.2002-1.2237,0-2.0381.7256-2.0381,1.9971,0,1.1924.7363,1.9453,2.0005,1.9453.4179,0,.8374-.0781,1.1084-.2002l.1328.501Z"/>
      </g>
    </g>
  </g>
  <g>
    <g>
      <rect x="17" y="11" width="1" height="1"/>
      <rect x="13" y="11" width="1" height="1"/>
      <rect x="9" y="11" width="1" height="1"/>
      <rect x="5" y="11" width="1" height="1"/>
    </g>
    <rect x="3.001" y="10" width="16.999" height="1"/>
  </g>
</svg>