<?xml version='1.0' encoding='UTF-8'?>
<svg xmlns="http://www.w3.org/2000/svg" xmlns:xlink="http://www.w3.org/1999/xlink" id="Set_1" data-name="Set 1" width="24" height="24" viewBox="0 0 24 24">
  <defs>
    <mask id="mask" x="1.876" y="2.1143" width="14.9775" height="15.8344" maskUnits="userSpaceOnUse">
      <path d="M11.9902,16.9453l-9.1132.0034-.001-13.834,12.9775-.0004-.0049,10.6254c0,1.5274-2.0634,3.2056-3.8584,3.2056Z" fill="#fff" fill-rule="evenodd" stroke="#fff" stroke-linecap="round" stroke-linejoin="round" stroke-width="2"/>
    </mask>
    <linearGradient id="New_Gradient_11" data-name="New Gradient 11" x1="5.3929592" y1="1.887097" x2="13.2625002" y2="18.022047" gradientUnits="userSpaceOnUse">
      <stop offset="0" stop-color="#e5e5e5"/>
      <stop offset="1" stop-color="#fff"/>
    </linearGradient>
    <radialGradient id="New_Gradient_13" data-name="New Gradient 13" cx="-17.1252531" cy="35.3536637" fx="-17.1252531" fy="35.3536637" r="4.3570285" gradientTransform="translate(29.1356 -17.1601) scale(1.0371 .8602)" gradientUnits="userSpaceOnUse">
      <stop offset="0" stop-color="#fff"/>
      <stop offset="1" stop-color="#ccc"/>
    </radialGradient>
    <mask id="mask-1" x="2.876" y="3.1143" width="13" height="13.8857" maskUnits="userSpaceOnUse">
      <path d="M11.9902,16.9453l-9.1132.0034-.001-13.834,12.9775-.0004-.0049,10.6254c0,1.5274-2.0634,3.2056-3.8584,3.2056Z" fill="#fff" fill-rule="evenodd"/>
    </mask>
    <linearGradient id="New_Gradient_3" data-name="New Gradient 3" x1="5.3929592" y1="1.887097" x2="13.2625002" y2="18.022047" gradientUnits="userSpaceOnUse">
      <stop offset="0" stop-color="#e5e5e5"/>
      <stop offset=".286514" stop-color="#f2f2f2"/>
      <stop offset=".646072" stop-color="#fff"/>
      <stop offset="1" stop-color="#fff"/>
    </linearGradient>
    <radialGradient id="New_Gradient_7" data-name="New Gradient 7" cx="-17.1252531" cy="35.3536637" fx="-17.1252531" fy="35.3536637" r="4.3570285" gradientTransform="translate(29.1356 -17.1601) scale(1.0371 .8602)" gradientUnits="userSpaceOnUse">
      <stop offset="0" stop-color="#e5e5e5"/>
      <stop offset=".331467" stop-color="#e5e5e5"/>
      <stop offset="1" stop-color="#999"/>
    </radialGradient>
    <mask id="mask-2" x="6.876" y="7.1143" width="14.9775" height="15.8344" maskUnits="userSpaceOnUse">
      <path d="M16.9902,21.9453l-9.1132.0034-.001-13.834,12.9775-.0004-.0049,10.6254c0,1.5274-2.0634,3.2056-3.8584,3.2056Z" fill="#fff" fill-rule="evenodd" stroke="#fff" stroke-linecap="round" stroke-linejoin="round" stroke-width="2"/>
    </mask>
    <linearGradient id="New_Gradient_11-2" data-name="New Gradient 11" x1="10.3929592" y1="6.887097" x2="18.2625002" y2="23.022047" gradientUnits="userSpaceOnUse"><stop offset="0" stop-color="#e5e5e5"/><stop offset="1" stop-color="#fff"/></linearGradient>
    <radialGradient id="New_Gradient_13-2" data-name="New Gradient 13" cx="-12.3041173" cy="41.1668258" fx="-12.3041173" fy="41.1668258" r="4.3570285" gradientTransform="translate(29.1356 -17.1601) scale(1.0371 .8602)" gradientUnits="userSpaceOnUse"><stop offset="0" stop-color="#fff"/><stop offset="1" stop-color="#ccc"/></radialGradient>
    <mask id="mask-3" x="7.876" y="8.1143" width="13" height="13.8857" maskUnits="userSpaceOnUse">
      <path d="M16.9902,21.9453l-9.1132.0034-.001-13.834,12.9775-.0004-.0049,10.6254c0,1.5274-2.0634,3.2056-3.8584,3.2056Z" fill="#fff" fill-rule="evenodd"/>
    </mask>
    <linearGradient id="New_Gradient_3-2" data-name="New Gradient 3" x1="10.3929592" y1="6.887097" x2="18.2625002" y2="23.022047" gradientUnits="userSpaceOnUse"><stop offset="0" stop-color="#e5e5e5"/><stop offset=".286514" stop-color="#f2f2f2"/><stop offset=".646072" stop-color="#fff"/><stop offset="1" stop-color="#fff"/></linearGradient>
    <radialGradient id="New_Gradient_7-2" data-name="New Gradient 7" cx="-12.3041173" cy="41.1668258" fx="-12.3041173" fy="41.1668258" r="4.3570285" gradientTransform="translate(29.1356 -17.1601) scale(1.0371 .8602)" gradientUnits="userSpaceOnUse"><stop offset="0" stop-color="#e5e5e5"/><stop offset=".331467" stop-color="#e5e5e5"/><stop offset="1" stop-color="#999"/></radialGradient>
  </defs>
  <g>
    <g>
      <g mask="url(#mask)">
        <g>
          <path d="M11.9902,16.9453l-9.1132.0034-.001-13.834,12.9775-.0004-.0049,10.6254c0,1.5274-2.0634,3.2056-3.8584,3.2056Z" fill="url(#New_Gradient_11)" fill-rule="evenodd"/>
          <path d="M11.375,17s2.209-.0708,2.209-2.103c2.2715,0,2.292-1.6446,2.292-1.6446l-.001,3.7476h-4.5Z" fill="url(#New_Gradient_13)" fill-rule="evenodd"/>
          <path d="M11.9902,16.9453l-9.1132.0034-.001-13.834,12.9775-.0004-.0049,10.6254c0,1.5274-2.0634,3.2056-3.8584,3.2056Z" fill="none" fill-rule="evenodd" stroke="#000" stroke-linecap="round" stroke-linejoin="round" stroke-width="2"/>
        </g>
      </g>
      <g mask="url(#mask-1)">
        <g>
          <path d="M11.9902,16.9453l-9.1132.0034-.001-13.834,12.9775-.0004-.0049,10.6254c0,1.5274-2.0634,3.2056-3.8584,3.2056Z" fill="url(#New_Gradient_3)" fill-rule="evenodd"/>
          <path d="M11.375,17s1.5352-.5117,1.5352-2.5444c2.2724,0,2.9658-1.2032,2.9658-1.2032l-.001,3.7476h-4.5Z" fill="url(#New_Gradient_7)" fill-rule="evenodd"/>
        </g>
      </g>
    </g>
    <line x1="4.6504" y1="7.5957" x2="7.5391" y2="7.5957" fill="none" stroke="#999" stroke-linecap="round" stroke-miterlimit="3.8637" stroke-width=".7125"/>
    <line x1="11.3203" y1="5.5991" x2="14.207" y2="5.5991" fill="none" stroke="#999" stroke-linecap="round" stroke-miterlimit="3.8637" stroke-width=".7125"/>
    <line x1="9.2061" y1="7.5957" x2="14.207" y2="7.5957" fill="none" stroke="#999" stroke-linecap="round" stroke-miterlimit="3.8637" stroke-width=".7125"/>
    <line x1="4.5273" y1="13.5835" x2="11.708" y2="13.5835" fill="none" stroke="#999" stroke-linecap="round" stroke-miterlimit="3.8637" stroke-width=".7125"/>
    <line x1="4.6504" y1="9.5918" x2="6.9844" y2="9.5918" fill="none" stroke="#999" stroke-linecap="round" stroke-miterlimit="3.8637" stroke-width=".7125"/>
    <line x1="8.3555" y1="9.5918" x2="10.6895" y2="9.5918" fill="none" stroke="#999" stroke-linecap="round" stroke-miterlimit="3.8637" stroke-width=".7125"/>
    <line x1="11.6152" y1="9.5918" x2="14.207" y2="9.5918" fill="none" stroke="#999" stroke-linecap="round" stroke-miterlimit="3.8637" stroke-width=".7125"/>
    <line x1="4.6504" y1="5.5991" x2="9.2061" y2="5.5991" fill="none" stroke="#999" stroke-linecap="round" stroke-miterlimit="3.8637" stroke-width=".7125"/>
    <line x1="4.6504" y1="11.5879" x2="8.4648" y2="11.5879" fill="none" stroke="#999" stroke-linecap="round" stroke-miterlimit="3.8637" stroke-width=".7125"/>
    <line x1="9.5303" y1="11.5879" x2="14.3926" y2="11.5879" fill="none" stroke="#999" stroke-linecap="round" stroke-miterlimit="3.8637" stroke-width=".7125"/>
  </g>
  <g>
    <g>
      <g mask="url(#mask-2)">
        <g>
          <path d="M16.9902,21.9453l-9.1132.0034-.001-13.834,12.9775-.0004-.0049,10.6254c0,1.5274-2.0634,3.2056-3.8584,3.2056Z" fill="url(#New_Gradient_11-2)" fill-rule="evenodd"/>
          <path d="M16.375,22s2.209-.0708,2.209-2.103c2.2715,0,2.292-1.6446,2.292-1.6446l-.001,3.7476h-4.5Z" fill="url(#New_Gradient_13-2)" fill-rule="evenodd"/>
          <path d="M16.9902,21.9453l-9.1132.0034-.001-13.834,12.9775-.0004-.0049,10.6254c0,1.5274-2.0634,3.2056-3.8584,3.2056Z" fill="none" fill-rule="evenodd" stroke="#000" stroke-linecap="round" stroke-linejoin="round" stroke-width="2"/>
        </g>
      </g>
      <g mask="url(#mask-3)">
        <g>
          <path d="M16.9902,21.9453l-9.1132.0034-.001-13.834,12.9775-.0004-.0049,10.6254c0,1.5274-2.0634,3.2056-3.8584,3.2056Z" fill="url(#New_Gradient_3-2)" fill-rule="evenodd"/>
          <path d="M16.375,22s1.5352-.5117,1.5352-2.5444c2.2724,0,2.9658-1.2032,2.9658-1.2032l-.001,3.7476h-4.5Z" fill="url(#New_Gradient_7-2)" fill-rule="evenodd"/>
        </g>
      </g>
    </g>
    <line x1="9.6504" y1="12.5957" x2="12.5391" y2="12.5957" fill="none" stroke="#999" stroke-linecap="round" stroke-miterlimit="3.8637" stroke-width=".7125"/>
    <line x1="16.3203" y1="10.5991" x2="19.207" y2="10.5991" fill="none" stroke="#999" stroke-linecap="round" stroke-miterlimit="3.8637" stroke-width=".7125"/>
    <line x1="14.2061" y1="12.5957" x2="19.207" y2="12.5957" fill="none" stroke="#999" stroke-linecap="round" stroke-miterlimit="3.8637" stroke-width=".7125"/>
    <line x1="9.5273" y1="18.5835" x2="16.708" y2="18.5835" fill="none" stroke="#999" stroke-linecap="round" stroke-miterlimit="3.8637" stroke-width=".7125"/>
    <line x1="9.6504" y1="14.5918" x2="11.9844" y2="14.5918" fill="none" stroke="#999" stroke-linecap="round" stroke-miterlimit="3.8637" stroke-width=".7125"/>
    <line x1="13.3555" y1="14.5918" x2="15.6895" y2="14.5918" fill="none" stroke="#999" stroke-linecap="round" stroke-miterlimit="3.8637" stroke-width=".7125"/>
    <line x1="16.6152" y1="14.5918" x2="19.207" y2="14.5918" fill="none" stroke="#999" stroke-linecap="round" stroke-miterlimit="3.8637" stroke-width=".7125"/>
    <line x1="9.6504" y1="10.5991" x2="14.2061" y2="10.5991" fill="none" stroke="#999" stroke-linecap="round" stroke-miterlimit="3.8637" stroke-width=".7125"/>
    <line x1="9.6504" y1="16.5879" x2="13.4648" y2="16.5879" fill="none" stroke="#999" stroke-linecap="round" stroke-miterlimit="3.8637" stroke-width=".7125"/>
    <line x1="14.5303" y1="16.5879" x2="19.3926" y2="16.5879" fill="none" stroke="#999" stroke-linecap="round" stroke-miterlimit="3.8637" stroke-width=".7125"/>
  </g>
</svg>