<?xml version='1.0' encoding='UTF-8'?>
<svg xmlns="http://www.w3.org/2000/svg" xmlns:xlink="http://www.w3.org/1999/xlink" id="Layer_3" data-name="Layer 3" width="24" height="24" viewBox="0 0 24 24">
  <defs>
    <linearGradient id="linear-gradient" x1="5.7441" y1="12.0089455" x2="13.4355" y2="12.0089455" gradientUnits="userSpaceOnUse">
      <stop offset="0" stop-color="#999"/>
      <stop offset=".20224" stop-color="#f2f2f2"/>
      <stop offset=".662921" stop-color="#b2b2b2"/>
      <stop offset="1" stop-color="#737373"/>
    </linearGradient>
    <linearGradient id="New_Gradient_96" data-name="New Gradient 96" x1="234.71" y1="2.9648" x2="240.3653" y2="2.9648" gradientTransform="translate(9.0029 -225.6924) rotate(90)" gradientUnits="userSpaceOnUse">
      <stop offset="0" stop-color="#999"/>
      <stop offset=".20224" stop-color="#f2f2f2"/>
      <stop offset=".516861" stop-color="#b2b2b2"/>
      <stop offset=".769669" stop-color="#b2b2b2"/>
      <stop offset="1" stop-color="#737373"/>
    </linearGradient>
    <linearGradient id="linear-gradient-2" x1="234.71" y1="2.9648" x2="240.3653" y2="2.9648" gradientTransform="translate(9.0029 -225.6924) rotate(90)" gradientUnits="userSpaceOnUse"><stop offset="0" stop-color="#999"/><stop offset=".20224" stop-color="#f2f2f2"/><stop offset=".662921" stop-color="#b2b2b2"/><stop offset="1" stop-color="#737373"/></linearGradient>
    <mask id="mask" x="5.7441" y="4.5068459" width="8.1914" height="15.0045612" maskUnits="userSpaceOnUse">
      <path d="M11.7148,5.0107c-.9453-.1962-5.9687,2.2442-5.9707,6.9961,0,4.753,5.0274,7.1914,5.9707,7.001h0V5.0107Z" fill="#fff" fill-rule="evenodd"/>
    </mask>
    <linearGradient id="New_Gradient_89" data-name="New Gradient 89" x1="8.5684725" y1="15.2874505" x2="13.7183079" y2="2.3755541" gradientUnits="userSpaceOnUse">
      <stop offset="0" stop-color="#999"/>
      <stop offset=".415726" stop-color="#f2f2f2"/>
      <stop offset=".48877" stop-color="#fff"/>
      <stop offset=".578659" stop-color="#e5e5e5"/>
      <stop offset="1" stop-color="#d9d9d9"/>
    </linearGradient>
    <linearGradient id="White_Black" data-name="White, Black" x1="144.3903431" y1="90.2522661" x2="144.45173" y2="94.4885542" gradientTransform="translate(-19.1294 -152.2229) rotate(47.9995846)" gradientUnits="userSpaceOnUse">
      <stop offset="0" stop-color="#fff"/>
      <stop offset="1" stop-color="#000"/>
    </linearGradient>
    <radialGradient id="New_Gradient_95" data-name="New Gradient 95" cx="145.3506273" cy="47.988093" fx="145.3506273" fy="47.988093" r="5.3140577" gradientTransform="translate(-66.9887 -167.5051) rotate(48.0003092) scale(1.2969145)" gradientUnits="userSpaceOnUse">
      <stop offset="0" stop-color="#f2f2f2"/>
      <stop offset=".415726" stop-color="#ccc"/>
      <stop offset="1" stop-color="gray"/>
    </radialGradient>
    <radialGradient id="radial-gradient" cx="147.8012132" cy="46.3060968" fx="147.8012132" fy="46.3060968" r="7.454314" gradientTransform="translate(-66.9887 -167.5051) rotate(48.0003092) scale(1.2969145)" gradientUnits="userSpaceOnUse">
      <stop offset=".146067" stop-color="#e5e5e5"/>
      <stop offset=".640449" stop-color="gray"/>
      <stop offset="1" stop-color="#4c4c4c"/>
    </radialGradient>
    <linearGradient id="linear-gradient-3" x1="113.1779555" y1="117.4951568" x2="116.4204999" y2="117.7788427" gradientTransform="translate(18.8819 -152.1275) rotate(55.6373492) scale(.9002018 .8434787) skewX(14.5605026)" gradientUnits="userSpaceOnUse">
      <stop offset="0" stop-color="#eaeaea"/>
      <stop offset=".219101" stop-color="#fff"/>
      <stop offset="1" stop-color="#d7d7d7"/>
    </linearGradient>
    <linearGradient id="linear-gradient-4" x1="12.8759218" y1="14.3191031" x2="17.4140781" y2="18.8572594" gradientUnits="userSpaceOnUse">
      <stop offset="0" stop-color="#ff936a"/>
      <stop offset=".148471" stop-color="#ff845f"/>
      <stop offset=".4334744" stop-color="#ff5d43"/>
      <stop offset=".8224383" stop-color="#ff1e16"/>
      <stop offset="1" stop-color="red"/>
    </linearGradient>
  </defs>
  <g>
    <path d="M11.7148,5.0107c-.9453-.1962-5.9687,2.2442-5.9707,6.9961,0,4.753,5.0274,7.1914,5.9707,7.001.545-.1113,1.7207-2.6689,1.7207-7.001,0-4.3281-1.1738-6.8857-1.7207-6.9961Z" fill="url(#linear-gradient)" stroke="#000" stroke-miterlimit="3.8637" stroke-width="2"/>
    <path d="M5.7227,9.0176h2.3535v5.6553h-2.3535c-.9512,0-1.7227-1.2637-1.7227-2.8282,0-1.5605.7715-2.8271,1.7227-2.8271Z" fill="url(#New_Gradient_96)" fill-rule="evenodd" stroke="#000" stroke-miterlimit="3.8637" stroke-width="2"/>
    <path d="M5.7227,9.0176h2.3535v5.6553h-2.3535c-.9512,0-1.7227-1.2637-1.7227-2.8282,0-1.5605.7715-2.8271,1.7227-2.8271Z" fill="url(#linear-gradient-2)" fill-rule="evenodd"/>
    <g>
      <g>
        <g mask="url(#mask)">
          <g>
            <path d="M11.7148,5.0107c-.9453-.1962-5.9687,2.2442-5.9707,6.9961,0,4.753,5.0274,7.1914,5.9707,7.001h0V5.0107Z" fill="url(#New_Gradient_89)" fill-rule="evenodd"/>
            <path d="M9.9453,16.1221c-.1367.5527-.625.5244-1.7285-.1641-.3906-.249-.7695-.6016-1.0547-.9678-.1074.0684-.166.1817-.1777.3418-.041.6455,1.0469,2.0196,1.9648,2.6338,1.0899.7344,1.4922,1.1367,1.8047.6465.3203-.5029-.1406-1.4502-.8086-2.4902Z" fill="url(#White_Black)" fill-rule="evenodd" opacity=".6"/>
            <path d="M11.7148,19.0078c-.5449.1104-2.2617-2.3154-2.2617-6.999,0-4.6865,1.7168-7.1123,2.2617-6.9981.5469.1104,1.7207,2.668,1.7207,6.9961,0,4.3321-1.1757,6.8897-1.7207,7.001Z" fill="url(#New_Gradient_95)" fill-rule="evenodd" stroke="#4d4d4d" stroke-miterlimit="3.8637"/>
          </g>
        </g>
        <path d="M11.7148,19.0078c-.5449.1104-2.2617-2.3154-2.2617-6.999,0-4.6865,1.7168-7.1123,2.2617-6.9981.5469.1104,1.7207,2.668,1.7207,6.9961,0,4.3321-1.1757,6.8897-1.7207,7.001Z" fill="url(#radial-gradient)" fill-rule="evenodd"/>
      </g>
      <g>
        <path d="M10.875,9.9473l-.834-.002c-.334.001-.6035.8731-.6035,1.9463,0,1.0752.2715,1.9492.6035,1.9492h.832l.002-3.8935Z" fill="#666" fill-rule="evenodd"/>
        <path d="M11.209,9.9707l-.8301-.0019c-.334.0019-.6055.874-.6055,1.9462,0,1.0762.2735,1.9473.6055,1.9463l.8301.001v-3.8916Z" fill="#c5c5c5"/>
        <path d="M10.8281,13.8389c-.334-.002-.6015-.8741-.6015-1.9512-.002-1.0732.2695-1.9443.6015-1.9434.334-.0019.6055.8702.6055,1.9453-.002,1.0752-.2715,1.9483-.6055,1.9493Z" fill="url(#linear-gradient-3)"/>
        <path d="M11.209,13.8623c-.3301.001-.5996-.8711-.5996-1.9443,0-1.0762.2695-1.9483.5996-1.9473.3359,0,.6055.8682.6074,1.9434,0,1.0761-.2695,1.9492-.6074,1.9482Z" fill="#c5c5c5"/>
      </g>
    </g>
  </g>
  <g>
    <path d="M15.1455,13.3794c1.7725,0,3.208,1.4365,3.208,3.209,0,1.772-1.4355,3.2085-3.208,3.2085s-3.21-1.4365-3.21-3.2085c0-1.7725,1.4375-3.209,3.21-3.209Z" fill="url(#linear-gradient-4)" stroke="#000" stroke-linecap="round" stroke-linejoin="round" stroke-width=".5"/>
    <g>
      <g>
        <line x1="14.0176" y1="15.4619" x2="16.4082" y2="17.8516" fill="none" stroke="#730a08" stroke-linecap="round" stroke-linejoin="round" stroke-width="2"/>
        <line x1="16.4082" y1="15.4619" x2="14.0176" y2="17.8516" fill="none" stroke="#730a08" stroke-linecap="round" stroke-linejoin="round" stroke-width="2"/>
      </g>
      <g>
        <line x1="14.0176" y1="15.4619" x2="16.4082" y2="17.8516" fill="none" stroke="#f2f2f2" stroke-linecap="round" stroke-linejoin="round"/>
        <line x1="16.4082" y1="15.4619" x2="14.0176" y2="17.8516" fill="none" stroke="#f2f2f2" stroke-linecap="round" stroke-linejoin="round"/>
      </g>
    </g>
  </g>
</svg>