<?xml version="1.0" encoding="UTF-8"?>
<svg id="Set_1" data-name="Set 1" xmlns="http://www.w3.org/2000/svg" width="24" height="24" xmlns:xlink="http://www.w3.org/1999/xlink" viewBox="0 0 24 24">
  <defs>
    <mask id="mask" x="1.8417927" y="1.9072" width="17.9227996" height="21.0215" maskUnits="userSpaceOnUse">
      <path d="M14.1454924,21.9277l-11.3016997.001-.002-19.0215,15.9227996.001-.0078,14.8003c0,2.0098-2.4667923,4.2192-4.6112999,4.2192Z" fill="#fff" fill-rule="evenodd" stroke="#fff" stroke-linecap="round" stroke-linejoin="round" stroke-width="2"/>
    </mask>
    <linearGradient id="New_Gradient_11" data-name="New Gradient 11" x1="5.5265803" y1="1.5977416" x2="16.0473115" y2="23.1684371" gradientUnits="userSpaceOnUse">
      <stop offset="0" stop-color="#e5e5e5"/>
      <stop offset="1" stop-color="#fff"/>
    </linearGradient>
    <radialGradient id="New_Gradient_13" data-name="New Gradient 13" cx="-20.8430211" cy="31.3698242" fx="-20.8430211" fy="31.3698242" r="5.2378853" gradientTransform="translate(34.9046 -12.4876114) scale(1.0313 .9421)" gradientUnits="userSpaceOnUse">
      <stop offset="0" stop-color="#fff"/>
      <stop offset="1" stop-color="#ccc"/>
    </radialGradient>
    <mask id="mask-1" x="2.8417927" y="2.9072" width="15.9482073" height="19.0928" maskUnits="userSpaceOnUse">
      <path d="M14.1454924,21.9277l-11.3016997.001-.002-19.0215,15.9227996.001-.0078,14.8003c0,2.0098-2.4667923,4.2192-4.6112999,4.2192Z" fill="#fff" fill-rule="evenodd"/>
    </mask>
    <linearGradient id="New_Gradient_3" data-name="New Gradient 3" x1="5.5265803" y1="1.5977416" x2="16.0473115" y2="23.1684371" gradientUnits="userSpaceOnUse">
      <stop offset="0" stop-color="#e5e5e5"/>
      <stop offset=".286514" stop-color="#f2f2f2"/>
      <stop offset=".646072" stop-color="#fff"/>
      <stop offset="1" stop-color="#fff"/>
    </linearGradient>
    <radialGradient id="New_Gradient_7" data-name="New Gradient 7" cx="-20.8430211" cy="31.3698242" fx="-20.8430211" fy="31.3698242" r="5.2378853" gradientTransform="translate(34.9046 -12.4876114) scale(1.0313 .9421)" gradientUnits="userSpaceOnUse">
      <stop offset="0" stop-color="#e5e5e5"/>
      <stop offset=".331467" stop-color="#e5e5e5"/>
      <stop offset="1" stop-color="#999"/>
    </radialGradient>
    <linearGradient id="New_Gradient_371" data-name="New Gradient 371" x1="8.0673925" y1="13.5232" x2="18.7450923" y2="13.5232" gradientUnits="userSpaceOnUse">
      <stop offset="0" stop-color="#999"/>
      <stop offset=".20224" stop-color="#f2f2f2"/>
      <stop offset=".516861" stop-color="#b2b2b2"/>
      <stop offset=".769669" stop-color="#b2b2b2"/>
      <stop offset="1" stop-color="#737373"/>
    </linearGradient>
    <linearGradient id="New_Gradient_376" data-name="New Gradient 376" x1="20.0239456" y1="14.1531376" x2="16.4688298" y2="17.7082533" gradientUnits="userSpaceOnUse">
      <stop offset="0" stop-color="#4c4c4c"/>
      <stop offset=".623596" stop-color="#d9d9d9"/>
      <stop offset="1" stop-color="#4c4c4c"/>
    </linearGradient>
    <linearGradient id="New_Gradient_377" data-name="New Gradient 377" x1="22.5056302" y1="15.2770061" x2="17.5912185" y2="20.1914177" gradientUnits="userSpaceOnUse">
      <stop offset="0" stop-color="#a70000"/>
      <stop offset=".662918" stop-color="#df4e15"/>
      <stop offset="1" stop-color="#740000"/>
    </linearGradient>
    <linearGradient id="New_Gradient_146" data-name="New Gradient 146" x1="20.7918562" y1="18.095504" x2="21.9086127" y2="19.882688" gradientUnits="userSpaceOnUse">
      <stop offset="0" stop-color="#df4e15"/>
      <stop offset="1" stop-color="#c42e00"/>
    </linearGradient>
    <linearGradient id="New_Gradient_378" data-name="New Gradient 378" x1="20.7918562" y1="18.095504" x2="21.9086127" y2="19.882688" gradientUnits="userSpaceOnUse">
      <stop offset="0" stop-color="#df4e15"/>
      <stop offset="1" stop-color="#c42e00"/>
    </linearGradient>
    <mask id="mask-2" x="7.9276925" y="5.0947" width="10.8173997" height="11.6548" maskUnits="userSpaceOnUse">
      <path d="M13.4071924,5.3936c2.9472999,0,5.3378999,2.125,5.3378999,4.7465,0,2.6211-2.3905999,4.7461-5.3378999,4.7461-2.9491924,0-5.3387999-2.125-5.3387999-4.7461,0-2.6215,2.3896075-4.7465,5.3387999-4.7465Z" fill="#fff"/>
    </mask>
    <linearGradient id="New_Gradient_372" data-name="New Gradient 372" x1="8.0683925" y1="10.1399" x2="18.7450923" y2="10.1399" gradientUnits="userSpaceOnUse">
      <stop offset="0" stop-color="#999"/>
      <stop offset=".219101" stop-color="#b2b2b2"/>
      <stop offset=".466293" stop-color="#b2b2b2"/>
      <stop offset=".769669" stop-color="#f2f2f2"/>
      <stop offset="1" stop-color="#737373"/>
    </linearGradient>
    <mask id="mask-3" x="8.1239925" y="6.271" width="10.5645075" height="10.4785" maskUnits="userSpaceOnUse">
      <path d="M13.4071924,6.7495c2.6523999,0,4.8028076,1.9136,4.8028076,4.2725,0,2.3598-2.1504077,4.2719-4.8028076,4.2719-2.6542999,0-4.8046999-1.9121-4.8046999-4.2719,0-2.3589,2.1503999-4.2725,4.8046999-4.2725Z" fill="#fff" stroke="#fff" stroke-miterlimit="3.8637" stroke-width=".957"/>
    </mask>
    <linearGradient id="New_Gradient_373" data-name="New Gradient 373" x1="8.6024925" y1="11.0217" x2="18.21" y2="11.0217" gradientUnits="userSpaceOnUse">
      <stop offset="0" stop-color="#5587c0"/>
      <stop offset=".20787" stop-color="#97bae0"/>
      <stop offset=".865173" stop-color="#b3e0ff"/>
      <stop offset="1" stop-color="#5587c0"/>
    </linearGradient>
    <radialGradient id="New_Gradient_374" data-name="New Gradient 374" cx="49.6762188" cy="49.4406268" fx="49.6762188" fy="49.4406268" r="8.6313839" gradientTransform="translate(-33.7008221 -52.3745) scale(.8903 1.2253)" gradientUnits="userSpaceOnUse">
      <stop offset="0" stop-color="#78dcff"/>
      <stop offset="1" stop-color="#b7e9ff"/>
    </radialGradient>
    <linearGradient id="linear-gradient" x1="9.6530972" y1="6.3290205" x2="16.8571955" y2="13.5331188" gradientUnits="userSpaceOnUse">
      <stop offset="0" stop-color="gray"/>
      <stop offset=".187809" stop-color="#82868b"/>
      <stop offset=".5233754" stop-color="#8a99aa"/>
      <stop offset=".9651405" stop-color="#95b7db"/>
      <stop offset="1" stop-color="#97bae0"/>
    </linearGradient>
    <linearGradient id="New_Gradient_375" data-name="New Gradient 375" x1="9.8050434" y1="6.5381348" x2="17.0088378" y2="13.7419292" gradientUnits="userSpaceOnUse">
      <stop offset="0" stop-color="gray"/>
      <stop offset="1" stop-color="#fff"/>
    </linearGradient>
    <mask id="mask-4" x="8.6024925" y="7.7167242" width="9.6075075" height="9.0327758" maskUnits="userSpaceOnUse">
      <path d="M11.8241924,7.7432c.9053-.1519,1.6963.3652,1.7676,1.1567.0703.7905-.6064,1.5562-1.5107,1.7095-.9063.1513-1.6963-.3657-1.7676-1.1563-.0703-.7915.6054-1.5561,1.5107-1.7099Z" fill="#fff"/>
    </mask>
  </defs>
  <g>
    <g>
      <g mask="url(#mask)">
        <g>
          <path d="M14.1454924,21.9277l-11.3016997.001-.002-19.0215,15.9227996.001-.0078,14.8003c0,2.0098-2.4667923,4.2192-4.6112999,4.2192Z" fill="url(#New_Gradient_11)" fill-rule="evenodd"/>
          <path d="M13.4091924,21.999s2.6395999-.0923,2.6405999-2.7671c2.7167999.0005,2.7402077-2.166,2.7402077-2.166l-.0019078,4.9341-5.3788999-.001Z" fill="url(#New_Gradient_13)" fill-rule="evenodd"/>
          <path d="M14.1454924,21.9277l-11.3016997.001-.002-19.0215,15.9227996.001-.0078,14.8003c0,2.0098-2.4667923,4.2192-4.6112999,4.2192Z" fill="none" fill-rule="evenodd" stroke="#000" stroke-linecap="round" stroke-linejoin="round" stroke-width="2"/>
        </g>
      </g>
      <g mask="url(#mask-1)">
        <g>
          <path d="M14.1454924,21.9277l-11.3016997.001-.002-19.0215,15.9227996.001-.0078,14.8003c0,2.0098-2.4667923,4.2192-4.6112999,4.2192Z" fill="url(#New_Gradient_3)" fill-rule="evenodd"/>
          <path d="M13.4091924,21.999s1.8349-.6733,1.8359-3.3496c2.7167999-.0005,3.5449077-1.5835,3.5449077-1.5835l-.0019078,4.9341-5.3788999-.001Z" fill="url(#New_Gradient_7)" fill-rule="evenodd"/>
        </g>
      </g>
    </g>
    <g>
      <line x1="4.9403926" y1="9.7363" x2="8.5165925" y2="9.7363" fill="none" stroke="#999" stroke-linecap="round" stroke-miterlimit="3.8637" stroke-width=".7125"/>
      <line x1="13.1962924" y1="6.7363" x2="16.7714923" y2="6.7363" fill="none" stroke="#999" stroke-linecap="round" stroke-miterlimit="3.8637" stroke-width=".7125"/>
      <line x1="10.5800925" y1="9.7363" x2="16.7714923" y2="9.7363" fill="none" stroke="#999" stroke-linecap="round" stroke-miterlimit="3.8637" stroke-width=".7125"/>
      <line x1="4.79" y1="18.7363" x2="13.6757924" y2="18.7363" fill="none" stroke="#999" stroke-linecap="round" stroke-miterlimit="3.8637" stroke-width=".7125"/>
      <line x1="4.9403926" y1="12.7363" x2="7.8280925" y2="12.7363" fill="none" stroke="#999" stroke-linecap="round" stroke-miterlimit="3.8637" stroke-width=".7125"/>
      <line x1="9.5263925" y1="12.7363" x2="12.4140924" y2="12.7363" fill="none" stroke="#999" stroke-linecap="round" stroke-miterlimit="3.8637" stroke-width=".7125"/>
      <line x1="13.5614924" y1="12.7363" x2="16.7714923" y2="12.7363" fill="none" stroke="#999" stroke-linecap="round" stroke-miterlimit="3.8637" stroke-width=".7125"/>
      <line x1="4.9403926" y1="15.7363" x2="9.6630925" y2="15.7363" fill="none" stroke="#999" stroke-linecap="round" stroke-miterlimit="3.8637" stroke-width=".7125"/>
      <line x1="10.9813924" y1="15.7363" x2="17.001" y2="15.7363" fill="none" stroke="#999" stroke-linecap="round" stroke-miterlimit="3.8637" stroke-width=".7125"/>
    </g>
  </g>
  <g>
    <path d="M22.5595922,17.9473c-.6621-.6621-1.376-1.375-2.3652999-2.3648-.414-.4136-.8964-.5146-1.3418-.4243l-1.0742-1.0742c.6074-.77.9668-1.707.9668-2.7197v-.4297h-.081c.0498-.2588.081-.5235.081-.7945,0-.4223-.0683-.8286-.1846-1.2182-.163-.5811-.4384-1.1148-.8037-1.5825-.9599-1.3692-2.6483999-2.2447-4.5018999-2.2447-2.8534999,0-5.3271999,2.0669-5.3271999,4.836,0,.3818.0518.7495.1397,1.101.001.1075.001.212.001.3326,0,2.622,2.3896075,4.7475,5.3387999,4.7475,1.0645,0,2.0528076-.2803,2.8848076-.7573v.001l1.1815923,1.1801c-.0918.4463.0078.9297.4229,1.3443.9902.9892,1.7041,1.7016,2.3671999,2.3647.9697.9702,3.2645999-1.3281,2.2958999-2.2973Z" stroke="#000" stroke-linecap="round" stroke-linejoin="round" stroke-width="2"/>
    <g>
      <path d="M8.0673925,10.9346c0,.1391.001.2734.001.4297,0,2.622,2.3896075,4.7475,5.3387999,4.7475,2.9472999,0,5.3378999-2.1255,5.3378999-4.7475v-.4297h-10.6776997Z" fill="url(#New_Gradient_371)" fill-rule="evenodd"/>
      <path d="M17.6708923,13.9775l2.1757999,2.1748c1.3887,1.3912.0117,2.7691-1.3799,1.3775l-2.1737923-2.1743c-.919-.919.459-2.2964,1.3778923-1.378Z" fill="url(#New_Gradient_376)"/>
      <g>
        <path d="M20.1942922,15.5825c.9893.9898,1.7032,1.7027,2.3652999,2.3648.9687.9692-1.3262,3.2675-2.2958999,2.2973-.6631-.6631-1.377-1.3755-2.3671999-2.3647-1.4483-1.4487.8486-3.7461,2.2977999-2.2974Z" fill="url(#New_Gradient_377)"/>
        <path d="M18.0507923,16.0347c.8388.8379,1.6201,1.6201,2.2089999,2.2085" fill="none" stroke="#ff7845" stroke-linecap="round" stroke-miterlimit="3.8637" stroke-width="1.4356"/>
        <path d="M21.6630922,17.7329c.789-.0981,1.248.3609,1.0146,1.0142-.2343.6543-.955,1.373-1.6093,1.6074-.6543.2329-1.1123-.2261-1.0137-1.0151.0986-.7881.8193078-1.5083,1.6084-1.6065Z" fill="url(#New_Gradient_146)" stroke="#a70000" stroke-miterlimit="3.8637" stroke-width=".4785"/>
        <path d="M21.6630922,17.7329c.789-.0981,1.248.3609,1.0146,1.0142-.2343.6543-.955,1.373-1.6093,1.6074-.6543.2329-1.1123-.2261-1.0137-1.0151.0986-.7881.8193078-1.5083,1.6084-1.6065Z" fill="url(#New_Gradient_378)"/>
      </g>
      <g mask="url(#mask-2)">
        <g>
          <path d="M13.4071924,5.3936c2.9472999,0,5.3378999,2.125,5.3378999,4.7465,0,2.6211-2.3905999,4.7461-5.3378999,4.7461-2.9491924,0-5.3387999-2.125-5.3387999-4.7461,0-2.6215,2.3896075-4.7465,5.3387999-4.7465Z" fill="url(#New_Gradient_372)"/>
          <g mask="url(#mask-3)">
            <g>
              <path d="M13.4071924,6.7495c2.6523999,0,4.8028076,1.9136,4.8028076,4.2725,0,2.3598-2.1504077,4.2719-4.8028076,4.2719-2.6542999,0-4.8046999-1.9121-4.8046999-4.2719,0-2.3589,2.1503999-4.2725,4.8046999-4.2725Z" fill="url(#New_Gradient_373)"/>
              <path d="M13.4071924,8.2051c2.6523999,0,4.8028076,1.9126,4.8028076,4.2724,0,2.3584-2.1504077,4.272-4.8028076,4.272-2.6542999,0-4.8046999-1.9136-4.8046999-4.272,0-2.3598,2.1503999-4.2724,4.8046999-4.2724Z" fill="url(#New_Gradient_374)"/>
              <path d="M13.4071924,6.7495c2.6523999,0,4.8028076,1.9136,4.8028076,4.2725,0,2.3598-2.1504077,4.2719-4.8028076,4.2719-2.6542999,0-4.8046999-1.9121-4.8046999-4.2719,0-2.3589,2.1503999-4.2725,4.8046999-4.2725Z" fill="none" stroke="#69c" stroke-miterlimit="3.8637" stroke-width=".957"/>
            </g>
          </g>
          <path d="M13.2548924,5.0947c2.8534999,0,5.3281076,2.0669,5.3281076,4.836,0,2.7705-2.4746077,4.8364-5.3281076,4.8364s-5.3271999-2.0659-5.3271999-4.8364c0-2.7691,2.4736999-4.836,5.3271999-4.836ZM13.2548924,5.6543c-2.8066999,0-4.9218924,2.0137-4.9218924,4.2764,0,2.2641,2.1151925,4.2788,4.9218924,4.2788,2.8075999,0,4.9218999-2.0147,4.9218999-4.2788,0-2.2627-2.1142999-4.2764-4.9218999-4.2764Z" fill="url(#linear-gradient)"/>
        </g>
      </g>
      <path d="M13.4071924,5.3037c2.8534999,0,5.3271999,2.0674,5.3271999,4.8364,0,2.7691-2.4736999,4.836-5.3271999,4.836s-5.3280999-2.0669-5.3280999-4.836c0-2.769,2.4745999-4.8364,5.3280999-4.8364ZM13.4071924,5.8628c-2.8075999,0-4.9217999,2.0132-4.9217999,4.2773,0,2.2632,2.1141999,4.2769,4.9217999,4.2769,2.8066999,0,4.9208999-2.0137,4.9208999-4.2769,0-2.2641-2.1141999-4.2773-4.9208999-4.2773Z" fill="url(#New_Gradient_375)"/>
      <g mask="url(#mask-4)">
        <g>
          <path d="M11.8241924,7.7432c.9053-.1519,1.6963.3652,1.7676,1.1567.0703.7905-.6064,1.5562-1.5107,1.7095-.9063.1513-1.6963-.3657-1.7676-1.1563-.0703-.7915.6054-1.5561,1.5107-1.7099Z" fill="#b3e0ff"/>
          <path d="M13.4071924,8.2051c2.6523999,0,4.8028076,1.9126,4.8028076,4.2724,0,2.3584-2.1504077,4.272-4.8028076,4.272-2.6542999,0-4.8046999-1.9136-4.8046999-4.272,0-2.3598,2.1503999-4.2724,4.8046999-4.2724Z" fill="#fff"/>
        </g>
      </g>
    </g>
  </g>
</svg>