<?xml version="1.0" encoding="UTF-8"?>
<svg id="Set_2" data-name="Set 2" xmlns="http://www.w3.org/2000/svg" width="24" height="24" viewBox="0 0 24 24">
  <g>
    <g>
      <polygon points="20.998 17 20.998 9 19.998 9 4 9 4 16 4 17 20.998 17" fill="#555"/>
      <polygon points="20.998 17 20.998 9 19.998 9 4 9 4 16 4 17 20.998 17" fill="none" stroke="#555" stroke-width="2"/>
    </g>
    <rect x="4" y="9" width="17" height="7.998" fill="silver"/>
    <rect x="5" y="10" width="15.999" height="6.999" fill="#fff"/>
  </g>
  <g>
    <path d="M6.9238,11.6509h-.0136l-.7911.4272-.1191-.4692.9941-.5318h.5249v4.5499h-.5952v-3.9761Z" fill="#4d4d4d"/>
    <path d="M9.1777,15.627v-.378l.4829-.4692c1.1622-1.106,1.6944-1.6939,1.6944-2.3799,0-.4619-.2173-.8892-.896-.8892-.4131,0-.7564.2105-.9663.3853l-.1958-.4341c.3081-.2588.7627-.4619,1.2881-.4619.9726,0,1.3857.6719,1.3857,1.3228,0,.8403-.6089,1.519-1.5679,2.4433l-.3569.336v.0136h2.0371v.5113h-2.9053Z" fill="#4d4d4d"/>
    <path d="M12.9155,14.9268c.1753.1049.5742.2802,1.0083.2802.7837,0,1.0357-.497,1.0288-.8818-.0068-.6372-.581-.9102-1.1762-.9102h-.3428v-.4619h.3428c.4482,0,1.0151-.2309,1.0151-.77,0-.3643-.231-.686-.7978-.686-.3643,0-.7139.1611-.9102.3008l-.168-.4478c.2451-.1753.7071-.3501,1.1973-.3501.896,0,1.3018.5317,1.3018,1.085,0,.476-.2872.875-.8399,1.0781v.0137c.5601.1049,1.0147.5253,1.0147,1.1621,0,.728-.5738,1.3652-1.6587,1.3652-.5113,0-.959-.1611-1.1831-.3081l.1679-.4692Z" fill="#4d4d4d"/>
  </g>
</svg>