/* XPM */
static char * maximize_active_xpm[] = {
"18 16 29 1",
" 	c None",
".	c #74769B",
"+	c #F7F6FB",
"@	c #DED9ED",
"#	c #DFDAED",
"$	c #DFDBED",
"%	c #E0DBEE",
"&	c #E1DCEE",
"*	c #E1DDEE",
"=	c #E2DDEF",
"-	c #E3DFEF",
";	c #E4E0F0",
">	c #E4E0F0",
",	c #E5E1F0",
"'	c #BEC0D4",
")	c #E6E2F1",
"!	c #605973",
"~	c #615A73",
"{	c #625B73",
"]	c #E8E4F2",
"^	c #E8E4F2",
"/	c #625B74",
"(	c #EAE7F3",
"_	c #625B74",
":	c #EBE7F3",
"<	c #EBE8F4",
"[	c #ECE9F4",
"}	c #EDE9F4",
"|	c #EDEAF5",
"  ..............  ",
" .++++++++++++++. ",
".+@@#$%&*==-;>,,'.",
".+@#$%&*==-;>,,)'.",
".+#$%!!~~~~{,,))'.",
".+$%&!~~~~{{,))]'.",
".+%&*~~~~{{{))]^'.",
".+&*=~-;>,,{)]^^'.",
".+==-~>,,))/^^(('.",
".+=-;{,,))]_^((:'.",
".+-;>{{{{/__((:<'.",
".+;>,,))]^^((:<['.",
".+>,,))]^^((:<[}'.",
".+,,))]^^((:<[}|'.",
" .''''''''''''''. ",
"  ..............  "};
