/* XPM */
static char * maximize_inactive_xpm[] = {
"18 16 9 1",
" 	c None",
".	c #A5ADC3",
"+	c #E0E3ED",
"@	c #DFE2EC",
"#	c #DEE1EB",
"$	c #979F98",
"%	c #DBDFEA",
"&	c #DADDE9",
"*	c #D8DCE8",
"  ..............  ",
" .++++++++++++++. ",
".@@@@@@@@@@@@@@@@.",
".@@@@@@@@@@@@@@@@.",
".####$$$$$$$#####.",
".####$$$$$$$#####.",
".####$$$$$$$#####.",
".%%%%$%%%%%$%%%%%.",
".%%%%$%%%%%$%%%%%.",
".%%%%$%%%%%$%%%%%.",
".&&&&$$$$$$$&&&&&.",
".&&&&&&&&&&&&&&&&.",
".&&&&&&&&&&&&&&&&.",
".****************.",
" .**************. ",
"  ..............  "};
