/* XPM */
static char * title_3_inactive_xpm[] = {
"5 22 10 1",
" 	c None",
".	c #000000",
"+	c #D5D9E7",
"@	c #CFD4E2",
"#	c #C9CFDE",
"$	c #C3C9DA",
"%	c #C1C7D8",
"&	c #BEC5D6",
"*	c #BCC2D4",
"=	c #ADB4C9",
".....",
"+++++",
"@@@@@",
"#####",
"$$$$$",
"$$$$$",
"$$$$$",
"$$$$$",
"$$$$$",
"$$$$$",
"$$$$$",
"$$$$$",
"$$$$$",
"$$$$$",
"$$$$$",
"$$$$$",
"$$$$$",
"%%%%%",
"&&&&&",
"*****",
"*****",
"====="};
