<?xml version='1.0' encoding='UTF-8'?>
<svg xmlns="http://www.w3.org/2000/svg" xmlns:xlink="http://www.w3.org/1999/xlink" id="Layer_1" data-name="Layer 1" width="20" height="20" viewBox="0 0 20 20">
  <defs>
    <radialGradient id="radial-gradient" cx="-3.976851" cy="-13.4945743" fx="-3.976851" fy="-13.4945743" r="10.1313036" gradientTransform="translate(12.3461 21.536) scale(1.1575 1.129)" gradientUnits="userSpaceOnUse">
      <stop offset="0" stop-color="#fff"/>
      <stop offset=".331467" stop-color="#ffffb3"/>
      <stop offset=".561798" stop-color="#ffe900"/>
      <stop offset=".865173" stop-color="#d68100"/>
    </radialGradient>
    <mask id="mask" x="6.49761" y="4.78" width="11.86349" height="11.8032115" maskUnits="userSpaceOnUse">
      <path d="M6.62261,9.6218c0-2.6055,2.1114-4.7168,4.71629-4.7168,2.6055,0,4.7173,2.1113,4.7173,4.7168,0,2.6044-2.1118,4.7158-4.7173,4.7158-2.60489,0-4.71629-2.1114-4.71629-4.7158Z" fill="#fff" fill-rule="evenodd" stroke="#fff" stroke-width=".25"/>
    </mask>
    <radialGradient id="radial-gradient-2" cx="9.6394721" cy="7.6225321" fx="9.6394721" fy="7.6225321" r="6.715363" gradientTransform="matrix(1,0,0,1,0,0)" gradientUnits="userSpaceOnUse"><stop offset="0" stop-color="#fff"/><stop offset=".331467" stop-color="#ffffb3"/><stop offset=".561798" stop-color="#ffe900"/><stop offset=".865173" stop-color="#d68100"/></radialGradient>
    <mask id="mask-1" x="8.7025208" y="6.4371343" width="9.6585792" height="10.1460773" maskUnits="userSpaceOnUse">
      <path d="M15.7081,9.1921c0,2.7363-1.6548,4.6552-4.3696,4.8447-.2881.0205-.3301-.2275-.0479-.2949,2.3096-.5459,3.8735-3.1045,4.1279-4.5762.0264-.3408.2896-.2627.2896.0264Z" fill="#fff"/>
    </mask>
  </defs>
  <path d="M5.21441,5.444c2.8579.1543,2.7813-1.1582,2.9361-3.8613,2.00779,2.0078,3.15129,3.6826,5.19769.9053.4375,3.2236,2.0947,2.5293,5.0669,1.7353-2.3384,3.2735-2.0464,4.4141.292,5.5547-2.5825,1.1406-1.6074,2.8262-.5356,4.959-1.2925-.4863-3.7115-1.7041-3.7642.75-2.749-1.9336-3.1157,1.1582-3.7856,2.4717-.95069-2.3311-2.16309-5.0205-4.94339-2.626,2.3174-3.9395-1.7773-4.5576-3.0903-5.2539,3.0512-1.0039,4.2348-2.2041,2.6264-4.6348Z" fill="url(#radial-gradient)" fill-rule="evenodd" stroke="#000" stroke-width=".75"/>
  <g mask="url(#mask)">
    <g>
      <path d="M6.62261,9.6218c0-2.6055,2.1114-4.7168,4.71629-4.7168,2.6055,0,4.7173,2.1113,4.7173,4.7168,0,2.6044-2.1118,4.7158-4.7173,4.7158-2.60489,0-4.71629-2.1114-4.71629-4.7158Z" fill="url(#radial-gradient-2)" fill-rule="evenodd"/>
      <g mask="url(#mask-1)">
        <g>
          <path d="M15.7081,9.1921c0,2.7363-1.6548,4.6552-4.3696,4.8447-.2881.0205-.3301-.2275-.0479-.2949,2.3096-.5459,3.8735-3.1045,4.1279-4.5762.0264-.3408.2896-.2627.2896.0264Z" fill="#f6893c"/>
          <path d="M15.8365,9.2136c0,2.7343-1.6558,4.6543-4.3701,4.8437-.2891.0215-.3296-.2275-.0479-.2949,2.3091-.5449,3.8731-3.1035,4.1284-4.5762.0259-.3398.2896-.2637.2896.0274Z" fill="none" stroke="#ea9d29" stroke-miterlimit="3.8637" stroke-width="5.0492"/>
          <path d="M15.7725,9.2018c0,2.7364-1.6557,4.6563-4.3701,4.8457-.2886.0205-.3301-.2285-.0478-.2949,2.309-.5469,3.8735-3.1045,4.1279-4.5762.0259-.3408.29-.2636.29.0254Z" fill="none" stroke="#df8f16" stroke-miterlimit="3.8637" stroke-width="2.5247"/>
          <path d="M15.7081,9.1921c0,2.7363-1.6548,4.6552-4.3696,4.8447-.2881.0205-.3301-.2275-.0479-.2949,2.3096-.5459,3.8735-3.1045,4.1279-4.5762.0264-.3408.2896-.2627.2896.0264Z" fill="none" stroke="#d3b003" stroke-miterlimit="3.8637"/>
        </g>
      </g>
      <path d="M6.62261,9.6218c0-2.6055,2.1114-4.7168,4.71629-4.7168,2.6055,0,4.7173,2.1113,4.7173,4.7168,0,2.6044-2.1118,4.7158-4.7173,4.7158-2.60489,0-4.71629-2.1114-4.71629-4.7158Z" fill="none" fill-rule="evenodd" stroke="#d68100" stroke-width=".25"/>
    </g>
  </g>
</svg>