<?xml version='1.0' encoding='UTF-8'?>
<svg xmlns="http://www.w3.org/2000/svg" xmlns:xlink="http://www.w3.org/1999/xlink" id="Layer_1" data-name="Layer 1" width="32" height="32" viewBox="0 0 32 32">
  <defs>
    <radialGradient id="radial-gradient" cx="22.3509943" cy="11.5561015" fx="22.3509943" fy="11.5561015" r="15.6611866" gradientTransform="translate(-14.2013 .1159) scale(1.0368 .9867)" gradientUnits="userSpaceOnUse">
      <stop offset="0" stop-color="#fff"/>
      <stop offset=".331467" stop-color="#ffffb3"/>
      <stop offset=".561798" stop-color="#ffe900"/>
      <stop offset=".865173" stop-color="#d68100"/>
    </radialGradient>
    <mask id="mask" x="7.296" y="9.50739" width="15.4074" height="15.017383" maskUnits="userSpaceOnUse">
      <path d="M7.421,16.0045c0-3.5196,2.9229-6.37211,6.5303-6.37211,3.6064,0,6.5303,2.85251,6.5303,6.37211,0,3.5205-2.9239,6.372-6.5303,6.372-3.6074,0-6.5303-2.8515-6.5303-6.372Z" fill="#fff" fill-rule="evenodd" stroke="#fff" stroke-width=".25"/>
    </mask>
    <radialGradient id="radial-gradient-2" cx="38.8636827" cy="33.1310848" fx="38.8636827" fy="33.1310848" r="10.3804357" gradientTransform="translate(-23.2124207 -15.6526) scale(.8957 .874)" gradientUnits="userSpaceOnUse"><stop offset="0" stop-color="#fff"/><stop offset=".331467" stop-color="#ffffb3"/><stop offset=".561798" stop-color="#ffe900"/><stop offset=".865173" stop-color="#d68100"/></radialGradient>
    <mask id="mask-1" x="11.2714367" y="12.5894301" width="11.4319633" height="11.9353428" maskUnits="userSpaceOnUse">
      <path d="M20.0011,15.4244c0,3.6972-2.291,6.29-6.0508,6.5459-.4004.0273-.457-.3086-.0664-.3985,3.1973-.7382,5.3633-4.1933,5.7149-6.1836.0371-.4589.4023-.3554.4023.0362Z" fill="#fff"/>
    </mask>
    <radialGradient id="radial-gradient-3" cx="45.9289157" cy="38.0502161" fx="45.9289157" fy="38.0502161" r="22.8545072" gradientTransform="translate(-19.1218158 -15.6526) scale(.9204 .874)" gradientUnits="userSpaceOnUse">
      <stop offset="0" stop-color="#fff"/>
      <stop offset="1" stop-color="#cacaca"/>
    </radialGradient>
    <radialGradient id="radial-gradient-4" cx="41.718657" cy="41.7961161" fx="41.718657" fy="41.7961161" r="4.9815956" gradientTransform="translate(-42.6177 -11.2339) scale(1.2392 .825)" gradientUnits="userSpaceOnUse">
      <stop offset="0" stop-color="#fff"/>
      <stop offset=".331467" stop-color="#f7f7f7"/>
      <stop offset=".561798" stop-color="#d6d6d6"/>
      <stop offset=".865173" stop-color="#8c8c8c"/>
    </radialGradient>
    <radialGradient id="radial-gradient-5" cx="38.0381196" cy="29.6318668" fx="38.0381196" fy="29.6318668" r="23.5666432" gradientTransform="translate(-19.1218158 -.3941) scale(.9204 .6356)" gradientUnits="userSpaceOnUse">
      <stop offset="0" stop-color="#fff"/>
      <stop offset=".1317347" stop-color="#fcfcfc"/>
      <stop offset=".2296964" stop-color="#f2f2f2"/>
      <stop offset=".316744" stop-color="#e2e2e2"/>
      <stop offset=".3974831" stop-color="#cbcbcb"/>
      <stop offset=".4738526" stop-color="#aeaeae"/>
      <stop offset=".5458712" stop-color="#8a8a8a"/>
      <stop offset=".612359" stop-color="#636363"/>
      <stop offset="1" stop-color="#000"/>
    </radialGradient>
    <radialGradient id="radial-gradient-6" cx="138.1641357" cy="19.7608079" fx="138.1641357" fy="19.7608079" r="10.9667424" gradientTransform="translate(124.3838 146.8166) rotate(-135.2752324) scale(1.2070452 .8470547) skewX(-2.0785996)" gradientUnits="userSpaceOnUse"><stop offset="0" stop-color="#fff"/><stop offset=".331467" stop-color="#f7f7f7"/><stop offset=".561798" stop-color="#d6d6d6"/><stop offset=".865173" stop-color="#8c8c8c"/></radialGradient>
    <radialGradient id="radial-gradient-7" cx="135.8870667" cy="23.7437268" fx="135.8870667" fy="23.7437268" r="10.9837462" gradientTransform="translate(124.3838 146.8166) rotate(-135.2752324) scale(1.2070452 .8470547) skewX(-2.0785996)" gradientUnits="userSpaceOnUse"><stop offset="0" stop-color="#fff"/><stop offset=".331467" stop-color="#f7f7f7"/><stop offset=".561798" stop-color="#d6d6d6"/><stop offset=".865173" stop-color="#8c8c8c"/></radialGradient>
    <mask id="mask-2" x="16.7604422" y="19.605141" width="14.2457778" height="9.69961" maskUnits="userSpaceOnUse">
      <path d="M28.23742,22.3726c0,2.8867-3.541,4.1846-8.74022,4.3848-.5508.0215-.6309-.2402-.0908-.3125,4.42092-.5752,7.78812-2.5469,8.27632-4.1006.0508-.3584.5547-.2773.5547.0283Z" fill="#fff"/>
    </mask>
  </defs>
  <g>
    <path d="M5.4708,10.3619c3.958.209,3.8506-1.56541,4.0655-5.21781,2.7793,2.7129,4.3623,4.97561,7.1962,1.2236.6065,4.35551,2.8995,3.417,7.01572,2.3457-3.23732,4.42191-2.83302,5.96201.4043,7.50301-3.57522,1.541-2.22662,3.8193-.7422,6.7002-1.78912-.6573-5.13772-2.3028-5.21192,1.0127-3.8057-2.6123-4.3135,1.5644-5.2403,3.3398-1.3164-3.1484-2.9951-6.7832-6.8457-3.5488,3.209-5.3223-2.4599-6.1572-4.2773-7.0957,4.2236-1.3574,5.8623-2.9795,3.6357-6.2627Z" fill="url(#radial-gradient)" fill-rule="evenodd" stroke="#000" stroke-width=".75"/>
    <g mask="url(#mask)">
      <g>
        <path d="M7.421,16.0045c0-3.5196,2.9229-6.37211,6.5303-6.37211,3.6064,0,6.5303,2.85251,6.5303,6.37211,0,3.5205-2.9239,6.372-6.5303,6.372-3.6074,0-6.5303-2.8515-6.5303-6.372Z" fill="url(#radial-gradient-2)" fill-rule="evenodd"/>
        <g mask="url(#mask-1)">
          <g>
            <path d="M20.0011,15.4244c0,3.6972-2.291,6.29-6.0508,6.5459-.4004.0273-.457-.3086-.0664-.3985,3.1973-.7382,5.3633-4.1933,5.7149-6.1836.0371-.4589.4023-.3554.4023.0362Z" fill="#f6893c"/>
            <path d="M20.1788,15.4527c0,3.6973-2.2929,6.2891-6.0517,6.5459-.3994.0273-.4561-.3086-.0674-.3984,3.1992-.7383,5.3643-4.1944,5.7168-6.1827.0371-.4599.4023-.3554.4023.0352Z" fill="none" stroke="#ea9d29" stroke-miterlimit="3.8637" stroke-width="5.0492"/>
            <path d="M20.089,15.439c0,3.6963-2.291,6.2891-6.0508,6.545-.3984.0292-.457-.3086-.0664-.3985,3.1992-.7363,5.3633-4.1933,5.7168-6.1826.0352-.459.4004-.3545.4004.0361Z" fill="none" stroke="#df8f16" stroke-miterlimit="3.8637" stroke-width="2.5247"/>
            <path d="M20.0011,15.4244c0,3.6972-2.291,6.29-6.0508,6.5459-.4004.0273-.457-.3086-.0664-.3985,3.1973-.7382,5.3633-4.1933,5.7149-6.1836.0371-.4589.4023-.3554.4023.0362Z" fill="none" stroke="#d3b003" stroke-miterlimit="3.8637"/>
          </g>
        </g>
        <path d="M7.421,16.0045c0-3.5196,2.9229-6.37211,6.5303-6.37211,3.6064,0,6.5303,2.85251,6.5303,6.37211,0,3.5205-2.9239,6.372-6.5303,6.372-3.6074,0-6.5303-2.8515-6.5303-6.372Z" fill="none" fill-rule="evenodd" stroke="#d68100" stroke-width=".25"/>
      </g>
    </g>
  </g>
  <g>
    <path d="M10.6622,27.6597c-7.0674-.3164-5.8691-6.7715.3672-6.1406-.084-1.6572.6651-3.0781,2.4112-3.8682,1.2373-.5595,3.6572-.2363,4.4062,1.1055.748-1.7373,1.5791-2.6846,3.3242-3,2.33992-.4228,5.41212,1.3604,4.82812,4.5518,3.2325-.208,3.6524,3.4668,2.4825,4.7158-2.0762,2.2178-5.1114,1.9424-9.20122,2.3584-1.9561.1982-8.6182.2773-8.6182.2773Z" fill="url(#radial-gradient-3)" fill-rule="evenodd" stroke="#000" stroke-width=".75"/>
    <path d="M6.0607,24.4215c0-1.4532,1.5341-2.6895,3.7168-2.6895,2.1826,0,5.7246,1.0391,5.7246,2.4922s-3.542,2.7695-5.7246,2.7695c-2.1827,0-3.7168-1.1191-3.7168-2.5722Z" fill="url(#radial-gradient-4)" fill-rule="evenodd"/>
    <path d="M28.90252,23.481c0,1.8379-2.4932,3.0869-5.2588,3.3809-2.61042.2783-12.72562.8994-14.62502.4853-2.7666-.6025-2.9844-2.459-2.958-2.7392.0361-.3955.7539,2.6035,4.1259,1.249,3.7247-1.498,12.12502-4.6475,15.59382-5.3418,2.1172-.207,3.1221,1.127,3.1221,2.9658Z" fill="url(#radial-gradient-5)" fill-rule="evenodd"/>
    <path d="M25.91712,19.8668c.0313,3.0507-10.65432,6.4746-13.50192,3.9433-.6231-.5527-2.2168-2.8926-.3301-4.959,2.6289-2.8789,5.6611-.5195,5.7344.3477,1.2226-4.6123,8.04292-4.6904,8.09762.668Z" fill="url(#radial-gradient-6)" fill-rule="evenodd"/>
    <path d="M25.88982,20.2037c-.2559,2.1494-4.52832,3.9541-6.90242,1.9072-.6308-.543-2.0976-2.7207-.2187-4.7939,1.5703-1.7334-.2559,2.9619,2,4.0048,5.33982,2.4707,5.38082-3.3066,5.12112-1.1181Z" fill="url(#radial-gradient-7)" fill-rule="evenodd"/>
    <g mask="url(#mask-2)">
      <g>
        <path d="M28.23742,22.3726c0,2.8867-3.541,4.1846-8.74022,4.3848-.5508.0215-.6309-.2402-.0908-.3125,4.42092-.5752,7.78812-2.5469,8.27632-4.1006.0508-.3584.5547-.2773.5547.0283Z" fill="#a1a1a1"/>
        <path d="M28.48162,22.3941c0,2.8877-3.543,4.1856-8.73932,4.3848-.5517.0215-.6308-.2403-.0908-.3106,4.42192-.5761,7.78712-2.5488,8.27542-4.1015.0508-.3594.5547-.2774.5547.0273Z" fill="none" stroke="#a7a7a7" stroke-miterlimit="3.8637" stroke-width="5.0492"/>
        <path d="M28.36052,22.3834c0,2.8877-3.543,4.1845-8.74032,4.3857-.5527.0205-.6308-.2422-.0918-.3125,4.42192-.5752,7.78912-2.5469,8.27642-4.1016.0508-.3584.5557-.2773.5557.0284Z" fill="none" stroke="#9a9a9a" stroke-miterlimit="3.8637" stroke-width="2.5247"/>
        <path d="M28.23742,22.3726c0,2.8867-3.541,4.1846-8.74022,4.3848-.5508.0215-.6309-.2402-.0908-.3125,4.42092-.5752,7.78812-2.5469,8.27632-4.1006.0508-.3584.5547-.2773.5547.0283Z" fill="none" stroke="#a7a7a7" stroke-miterlimit="3.8637"/>
      </g>
    </g>
  </g>
</svg>