<?xml version="1.0" encoding="UTF-8"?>
<svg id="Set_5" data-name="Set 5" xmlns="http://www.w3.org/2000/svg" width="48" height="48" viewBox="0 0 48 48">
  <g>
    <g>
      <line x1="34.9734858" y1="34.5786" x2="34.9734858" y2="11.8522" fill="none" stroke="#000" stroke-linecap="round" stroke-miterlimit="3.8637"/>
      <polyline points="36.9455857 34.9915 39.493 34.9915 34.9734858 40.7473 30.4501859 34.9915 33.064 34.9915"/>
    </g>
    <polyline points="32.9974858 16.4519 30.4501859 16.4519 34.9696858 10.6961 39.493 16.4519 36.8790857 16.4519"/>
  </g>
  <path d="M12.3798828,31.1005859l-2.4365234,7.6435547h-3.1533203l7.9921875-24.2988281h3.6640625l8.0263672,24.2988281h-3.2373047l-2.5224609-7.6435547h-8.3330078ZM20.0820312,28.6738281l-2.3339844-7.0097656c-.4658203-1.5615234-.8583984-3.0410156-1.1757812-4.4384766h-.1191406c-.1367188.7041016-.2958984,1.4150391-.4775391,2.1308594-.2158203.7519531-.4375,1.5087891-.6650391,2.2724609l-2.2998047,7.0449219h7.0712891Z"/>
</svg>