<?xml version="1.0" encoding="UTF-8"?>
<svg id="Icons_-_24x24" data-name="Icons - 24x24" xmlns="http://www.w3.org/2000/svg" width="48" height="48" xmlns:xlink="http://www.w3.org/1999/xlink" viewBox="0 0 48 48">
  <defs>
    <linearGradient id="New_Gradient_170" data-name="New Gradient 170" x1="-141.6139547" y1="387.300425" x2="-110.4212968" y2="387.300425" gradientTransform="translate(321.8272 76.8436) rotate(85.6463507) scale(1.0143269 .7675146) skewX(7.3263493)" gradientUnits="userSpaceOnUse">
      <stop offset="0" stop-color="#ccc"/>
      <stop offset=".337082" stop-color="#999"/>
      <stop offset=".629211" stop-color="#b2b2b2"/>
      <stop offset="1" stop-color="#d9d9d9"/>
    </linearGradient>
    <linearGradient id="linear-gradient" x1="-141.6139547" y1="387.300425" x2="-110.4212968" y2="387.300425" gradientTransform="translate(321.8272 76.8436) rotate(85.6463507) scale(1.0143269 .7675146) skewX(7.3263493)" gradientUnits="userSpaceOnUse">
      <stop offset="0" stop-color="#ccc"/>
      <stop offset=".337082" stop-color="#999"/>
      <stop offset=".629211" stop-color="#b2b2b2"/>
      <stop offset="1" stop-color="#d9d9d9"/>
    </linearGradient>
    <radialGradient id="radial-gradient" cx="-163.2733" cy="405.3317819" fx="-163.2733" fy="405.3317819" r="34.6484971" gradientTransform="translate(288.6449 90.484) rotate(86.0294612) scale(.9329393 .6447774) skewX(7.870284)" gradientUnits="userSpaceOnUse">
      <stop offset=".140449" stop-color="#ffe900"/>
      <stop offset=".1588104" stop-color="#ffe204"/>
      <stop offset=".2913167" stop-color="#ffb420"/>
      <stop offset=".4092463" stop-color="#ff9334"/>
      <stop offset=".5071755" stop-color="#ff7f40"/>
      <stop offset=".573034" stop-color="#ff7845"/>
    </radialGradient>
    <radialGradient id="radial-gradient-2" cx="136.9092886" cy="-44.4667959" fx="136.9092886" fy="-44.4667959" r="27.8541533" gradientTransform="translate(-254.9078 127.2878) scale(2.0327)" gradientUnits="userSpaceOnUse">
      <stop offset="0" stop-color="#fff"/>
      <stop offset=".0148633" stop-color="#f1f7fe"/>
      <stop offset=".0801777" stop-color="#badafb"/>
      <stop offset=".1438424" stop-color="#8dc2f9"/>
      <stop offset=".2044479" stop-color="#69aff8"/>
      <stop offset=".2612008" stop-color="#50a2f6"/>
      <stop offset=".312615" stop-color="#4199f6"/>
      <stop offset=".353932" stop-color="#3c97f6"/>
      <stop offset=".5755021" stop-color="#3b94f1"/>
      <stop offset=".8388609" stop-color="#3a8de2"/>
      <stop offset="1" stop-color="#3a88d6"/>
    </radialGradient>
  </defs>
  <g>
    <path d="M28.3735,24.71c-.3339-.7735-.6767-1.5059-1.0195-2.2774l2.3398-.5664-.0117-.168c.3643.8282.7334,1.6075,1.0879,2.4317l-2.3965.5801ZM26.3032,19.8389c-.2129-.5996-.4228-1.25-.6201-1.9668l-.1631-.6075,2.3965-.58.1641.6035c.1982.7187.4072,1.375.6181,1.9707l-2.3955.5801ZM24.8882,14.5654c-.2295-1.1172-.4014-2.166-.5332-3.1211l2.3955-.58c.1318.957.3057,2.0039.5351,3.123l-2.3974.5781ZM12.0103,34.1123c-.1983-.9062-.417-1.7031-.6475-2.4316l2.3945-.5821c.2324.7305.4512,1.5254.6494,2.4317l-2.3964.582ZM10.3784,29.0654c-.333-.7695-.6748-1.5039-1.0195-2.2734l2.3389-.5684-.0118-.164c.3662.8242.7344,1.6054,1.0879,2.4277l-2.3955.5781ZM8.3071,24.1982c-.2119-.5957-.4218-1.2519-.6181-1.9687l-.1641-.6074,2.3955-.5782.1641.6055c.1992.7168.4082,1.3711.6191,1.9668l-2.3965.582ZM6.8931,18.9268c-.2276-1.1192-.4024-2.1661-.5352-3.1231l2.3994-.582c.1319.957.3057,2.0058.5332,3.123l-2.3974.5821ZM30.0034,29.7529c-.1963-.9062-.415-1.705-.6455-2.4316l2.3975-.5801c.2304.7285.4472,1.5254.6465,2.4317l-2.3985.58ZM9.2261,8.8486l5.1181-1.2402,9.6221-2.3301c-.0146.4063-.0371,1.543.084,3.2305l2.3975-.582c-.1231-1.6875-.1016-2.8262-.087-3.2286l1.1856-.2871s-.3252,5.2871,1.6992,12.5957c1.7803,6.4395,4.2793,7.3282,5.1436,17.6875l-1.1143.2696c-.0908-1.0332-.1973-1.9746-.3193-2.8379l-2.3965.584c.1221.8593.2285,1.8027.3183,2.8379l-9.6914,2.3457-5.0713,1.2285-.8359.2031c-.0898-1.0352-.1963-1.9766-.3174-2.8359l-2.3965.5781c.1211.8594.2286,1.8047.3174,2.8398l-1.1152.2696c-.8633-10.3594-3.3613-11.25-5.1426-17.6914-2.0234-7.3067-1.7451-12.5821-1.7451-12.5821l1.0918-.2656c-.0156.4043-.0352,1.543.0859,3.2305l2.3955-.5821c-.122-1.6855-.1005-2.8261-.0859-3.2285l.8594-.209Z" fill="url(#New_Gradient_170)" fill-rule="evenodd" stroke="#000" stroke-linecap="round" stroke-linejoin="round" stroke-width="1.75"/>
    <path d="M28.3735,24.71c-.3339-.7735-.6767-1.5059-1.0195-2.2774l2.3398-.5664-.0117-.168c.3643.8282.7334,1.6075,1.0879,2.4317l-2.3965.5801ZM26.3032,19.8389c-.2129-.5996-.4228-1.25-.6201-1.9668l-.1631-.6075,2.3965-.58.1641.6035c.1982.7187.4072,1.375.6181,1.9707l-2.3955.5801ZM24.8882,14.5654c-.2295-1.1172-.4014-2.166-.5332-3.1211l2.3955-.58c.1318.957.3057,2.0039.5351,3.123l-2.3974.5781ZM12.0103,34.1123c-.1983-.9062-.417-1.7031-.6475-2.4316l2.3945-.5821c.2324.7305.4512,1.5254.6494,2.4317l-2.3964.582ZM10.3784,29.0654c-.333-.7695-.6748-1.5039-1.0195-2.2734l2.3389-.5684-.0118-.164c.3662.8242.7344,1.6054,1.0879,2.4277l-2.3955.5781ZM8.3071,24.1982c-.2119-.5957-.4218-1.2519-.6181-1.9687l-.1641-.6074,2.3955-.5782.1641.6055c.1992.7168.4082,1.3711.6191,1.9668l-2.3965.582ZM6.8931,18.9268c-.2276-1.1192-.4024-2.1661-.5352-3.1231l2.3994-.582c.1319.957.3057,2.0058.5332,3.123l-2.3974.5821ZM30.0034,29.7529c-.1963-.9062-.415-1.705-.6455-2.4316l2.3975-.5801c.2304.7285.4472,1.5254.6465,2.4317l-2.3985.58ZM9.2261,8.8486l5.1181-1.2402,9.6221-2.3301c-.0146.4063-.0371,1.543.084,3.2305l2.3975-.582c-.1231-1.6875-.1016-2.8262-.087-3.2286l1.1856-.2871s-.3252,5.2871,1.6992,12.5957c1.7803,6.4395,4.2793,7.3282,5.1436,17.6875l-1.1143.2696c-.0908-1.0332-.1973-1.9746-.3193-2.8379l-2.3965.584c.1221.8593.2285,1.8027.3183,2.8379l-9.6914,2.3457-5.0713,1.2285-.8359.2031c-.0898-1.0352-.1963-1.9766-.3174-2.8359l-2.3965.5781c.1211.8594.2286,1.8047.3174,2.8398l-1.1152.2696c-.8633-10.3594-3.3613-11.25-5.1426-17.6914-2.0234-7.3067-1.7451-12.5821-1.7451-12.5821l1.0918-.2656c-.0156.4043-.0352,1.543.0859,3.2305l2.3955-.5821c-.122-1.6855-.1005-2.8261-.0859-3.2285l.8594-.209Z" fill="url(#linear-gradient)" fill-rule="evenodd"/>
    <path d="M10.2505,18.1943c-1.1514-5.5918-.9219-9.3711-.9219-9.3711l13.5899-3.2929s-.2305,3.7812.9228,9.373l-13.5908,3.291ZM15.3052,33.3799c-1.1348-5.2715-2.9043-6.9942-4.2774-11.959-.0703-.2559-.1396-.5078-.2031-.7598l13.5918-3.291c.0654.25.1318.502.2041.7559,1.377,4.9902,3.1875,6.6445,4.333,11.9472l-13.6484,3.3067ZM16.1216,39.2021c-.0987-1.164-.2149-2.2167-.3506-3.166l13.6514-3.3086c.1308.9317.2451,1.9532.3398,3.0899l-13.6406,3.3847Z" fill="url(#radial-gradient)" fill-rule="evenodd" stroke="#d68100" stroke-width=".5"/>
  </g>
  <g>
    <path d="M45.981,17.2959c.1689-.5371-.1075-1.0039-.5831-1.0137-.1894-.1269-.5078-.2207-.9941-.2949l-7.0684-.9707-1.4892-.207-7.0674-.9688c-.4902-.0722-.8457-.0547-1.0986.0078-.4375-.1367-.9932.2305-1.1631.7754l-5.7881,18.3399c-1.5596-1.8789-4.5654-2.3731-7.1572-1.4121-1.9951.7304-3.9287,2.7363-3.2754,4.9238.6973,2.3418,3.3701,3.2207,5.6357,3.1035,2.001-.0977,5.2032-1.291,5.5713-4.0547.0703-.0996.1231-.209.1631-.3301l3.8281-12.1386c.1094.0254.2276.0449.3575.0644l7.0634.9707,1.4922.2012,7.0654.9726c.1202.0176.2334.0293.337.0372l-3.1895,10.1211c-1.5576-1.879-4.5615-2.3731-7.1592-1.4161-1.9941.7344-3.9248,2.7383-3.2715,4.9317.6924,2.332,3.3692,3.2148,5.6338,3.1015,2.0069-.1035,5.2032-1.2988,5.5674-4.0605.0742-.0938.127-.207.168-.3262l6.4219-20.3574M42.5669,21.8037l-7.0664-.9687-1.4942-.209-7.0605-.9668c-.1357-.0176-.2529-.0332-.3652-.0352l.7509-2.3828c.1055.0215.2227.043.3555.0645l7.0645.9668,1.4931.205,7.0625.9727c.1221.0156.2354.0273.3408.0332l-.7519,2.375c-.0996-.0215-.209-.0371-.3291-.0547" fill="#d68100" fill-rule="evenodd" stroke="#000" stroke-width="1.5"/>
    <path d="M45.981,17.2959c.1689-.5371-.1075-1.0039-.5831-1.0137-.1894-.1269-.5078-.2207-.9941-.2949l-7.0684-.9707-1.4892-.207-7.0674-.9688c-.4902-.0722-.8457-.0547-1.0986.0078-.4375-.1367-.9932.2305-1.1631.7754l-5.7881,18.3399c-1.5596-1.8789-4.5654-2.3731-7.1572-1.4121-1.9951.7304-3.9287,2.7363-3.2754,4.9238.6973,2.3418,3.3701,3.2207,5.6357,3.1035,2.001-.0977,5.2032-1.291,5.5713-4.0547.0703-.0996.1231-.209.1631-.3301l3.8281-12.1386c.1094.0254.2276.0449.3575.0644l7.0634.9707,1.4922.2012,7.0654.9726c.1202.0176.2334.0293.337.0372l-3.1895,10.1211c-1.5576-1.879-4.5615-2.3731-7.1592-1.4161-1.9941.7344-3.9248,2.7383-3.2715,4.9317.6924,2.332,3.3692,3.2148,5.6338,3.1015,2.0069-.1035,5.2032-1.2988,5.5674-4.0605.0742-.0938.127-.207.168-.3262l6.4219-20.3574M42.5669,21.8037l-7.0664-.9687-1.4942-.209-7.0605-.9668c-.1357-.0176-.2529-.0332-.3652-.0352l.7509-2.3828c.1055.0215.2227.043.3555.0645l7.0645.9668,1.4931.205,7.0625.9727c.1221.0156.2354.0273.3408.0332l-.7519,2.375c-.0996-.0215-.209-.0371-.3291-.0547" fill="url(#radial-gradient-2)" fill-rule="evenodd"/>
  </g>
</svg>