<?xml version="1.0" encoding="UTF-8"?>
<svg id="Set_1" data-name="Set 1" xmlns="http://www.w3.org/2000/svg" width="48" height="48" xmlns:xlink="http://www.w3.org/1999/xlink" viewBox="0 0 48 48">
  <defs>
    <linearGradient id="New_Gradient_51" data-name="New Gradient 51" x1="11.7171171" y1="-5.0421374" x2="27.7431156" y2="59.2346319" gradientUnits="userSpaceOnUse">
      <stop offset="0" stop-color="#666"/>
      <stop offset=".876404" stop-color="#d9d9d9"/>
      <stop offset="1" stop-color="#b2b2b2"/>
    </linearGradient>
    <linearGradient id="linear-gradient" x1="-7.3197642" y1="-65.8981039" x2="20.0655881" y2="-88.8771429" gradientTransform="translate(12.3438 98.5487) rotate(13.2092189) scale(1.0586085 .9446279) skewX(11.82935)" gradientUnits="userSpaceOnUse">
      <stop offset="0" stop-color="#6b3200"/>
      <stop offset=".0731411" stop-color="#844400"/>
      <stop offset=".1947417" stop-color="#a75e00"/>
      <stop offset=".3091029" stop-color="#c17100"/>
      <stop offset=".4122566" stop-color="#d07d00"/>
      <stop offset=".494385" stop-color="#d68100"/>
      <stop offset=".6225836" stop-color="#d17d00"/>
      <stop offset=".7553839" stop-color="#c57400"/>
      <stop offset=".889808" stop-color="#b06500"/>
      <stop offset="1" stop-color="#9a5500"/>
    </linearGradient>
    <linearGradient id="linear-gradient-2" x1="-4.970394" y1="-91.6685771" x2="21.2211072" y2="-59.3247668" gradientTransform="translate(12.3438 98.5487) rotate(13.2092189) scale(1.0586085 .9446279) skewX(11.82935)" gradientUnits="userSpaceOnUse">
      <stop offset="0" stop-color="#6b3200"/>
      <stop offset=".0901757" stop-color="#783a00"/>
      <stop offset=".414098" stop-color="#a35400"/>
      <stop offset=".6664352" stop-color="#be6400"/>
      <stop offset=".814607" stop-color="#c96b00"/>
      <stop offset=".853932" stop-color="#c4680a"/>
    </linearGradient>
    <linearGradient id="New_Gradient_48" data-name="New Gradient 48" x1="1.8068983" y1="-99.6718434" x2="5.7083878" y2="-84.0238234" gradientTransform="translate(12.3438 98.5487) rotate(13.2092189) scale(1.0586085 .9446279) skewX(11.82935)" gradientUnits="userSpaceOnUse">
      <stop offset="0" stop-color="#666"/>
      <stop offset=".876404" stop-color="#d9d9d9"/>
      <stop offset="1" stop-color="#b2b2b2"/>
    </linearGradient>
    <linearGradient id="New_Gradient_47" data-name="New Gradient 47" x1="-820.7822818" y1="105.4032078" x2="-816.880792" y2="121.0512288" gradientTransform="translate(-820.4737 98.5487) rotate(166.7907811) scale(1.0586085 -.9446279) skewX(11.82935)" gradientUnits="userSpaceOnUse">
      <stop offset="0" stop-color="#666"/>
      <stop offset=".876404" stop-color="#d9d9d9"/>
      <stop offset="1" stop-color="#b2b2b2"/>
    </linearGradient>
    <linearGradient id="linear-gradient-3" x1="-1.1724675" y1="-92.4064664" x2="10.3016266" y2="-88.2302377" gradientTransform="translate(12.3438 98.5487) rotate(13.2092189) scale(1.0586085 .9446279) skewX(11.82935)" gradientUnits="userSpaceOnUse">
      <stop offset="0" stop-color="#fff"/>
      <stop offset=".1293922" stop-color="#fbfbfb"/>
      <stop offset=".2464236" stop-color="#f0f0f0"/>
      <stop offset=".3583322" stop-color="#dedede"/>
      <stop offset=".438202" stop-color="#ccc"/>
      <stop offset="1" stop-color="gray"/>
    </linearGradient>
    <linearGradient id="linear-gradient-4" x1="-823.8475005" y1="112.7131029" x2="-812.4229288" y2="116.8713069" gradientTransform="translate(-820.3399 98.5487) rotate(166.7907811) scale(1.0586085 -.9446279) skewX(11.82935)" gradientUnits="userSpaceOnUse">
      <stop offset="0" stop-color="#4c4c4c"/>
      <stop offset=".640449" stop-color="gray"/>
      <stop offset="1" stop-color="#ccc"/>
    </linearGradient>
    <linearGradient id="New_Gradient_46" data-name="New Gradient 46" x1="5.1297491" y1="-97.8281862" x2="3.7457337" y2="-89.979045" gradientTransform="translate(12.3438 98.5487) rotate(13.2092189) scale(1.0586085 .9446279) skewX(11.82935)" gradientUnits="userSpaceOnUse">
      <stop offset="0" stop-color="#e5e5e5"/>
      <stop offset="1" stop-color="#b2b2b2"/>
    </linearGradient>
    <mask id="mask" x="14.3491911" y="16.7587" width="27.9992993" height="29.7162" maskUnits="userSpaceOnUse">
      <path d="M33.6086907,45.4681l-18.2574995.0068-.002-27.7152,25.9992993-.001-.0098,21.2873c0,3.06-4.1338999,6.4221-7.7299998,6.4221Z" fill="#fff" fill-rule="evenodd" stroke="#fff" stroke-linecap="round" stroke-linejoin="round" stroke-width="2"/>
    </mask>
    <linearGradient id="New_Gradient_11" data-name="New Gradient 11" x1="20.3917436" y1="15.3002828" x2="36.1576829" y2="47.6252486" gradientUnits="userSpaceOnUse">
      <stop offset="0" stop-color="#e5e5e5"/>
      <stop offset="1" stop-color="#fff"/>
    </linearGradient>
    <radialGradient id="New_Gradient_13" data-name="New Gradient 13" cx="-.3095259" cy="36.9144833" fx="-.3095259" fy="36.9144833" r="8.7289512" gradientTransform="translate(32.6972 6.3167) scale(1.0371 .8602)" gradientUnits="userSpaceOnUse">
      <stop offset="0" stop-color="#fff"/>
      <stop offset="1" stop-color="#ccc"/>
    </radialGradient>
    <mask id="mask-1" x="15.3491911" y="17.7587" width="26.0443993" height="27.819" maskUnits="userSpaceOnUse">
      <path d="M33.6086907,45.4681l-18.2574995.0068-.002-27.7152,25.9992993-.001-.0098,21.2873c0,3.06-4.1338999,6.4221-7.7299998,6.4221Z" fill="#fff" fill-rule="evenodd"/>
    </mask>
    <linearGradient id="New_Gradient_3" data-name="New Gradient 3" x1="20.3917436" y1="15.3002828" x2="36.1576829" y2="47.6252486" gradientUnits="userSpaceOnUse">
      <stop offset="0" stop-color="#e5e5e5"/>
      <stop offset=".286514" stop-color="#f2f2f2"/>
      <stop offset=".646072" stop-color="#fff"/>
      <stop offset="1" stop-color="#fff"/>
    </linearGradient>
    <radialGradient id="New_Gradient_7" data-name="New Gradient 7" cx="-.3095259" cy="36.9144833" fx="-.3095259" fy="36.9144833" r="8.7289512" gradientTransform="translate(32.6972 6.3167) scale(1.0371 .8602)" gradientUnits="userSpaceOnUse">
      <stop offset="0" stop-color="#e5e5e5"/>
      <stop offset=".331467" stop-color="#e5e5e5"/>
      <stop offset="1" stop-color="#999"/>
    </radialGradient>
  </defs>
  <g>
    <path d="M33.0961907,11.2995l.002-.092s-1.3657-1.8371-2.3517999-1.8351l-5.4798999.0166c-1.0488-.6729-1.397-1.4849-1.7804909-2.2236-.63-1.2032-1.0564091-3.3719-3.390509-3.2701-.0449.004-.0802.0186-.1233.0206-.043-.002-.0783-.0166-.123191-.0206-2.3341089-.1018-2.7607089,2.0669-3.3905089,3.2701-.3913.7523-.7414911,1.5761-1.8314,2.2599l-7.5127998.0204c-.984.005-1.7822.7405-1.7802,1.6376l-.002,27.8952c0,.8991,1.2637,2.1608,1.2637,2.1608h.0177c.3287.3308.7885087.548,1.3148.546l23.6320994-.0723c.9861-.002,1.7822-.7337,1.7822-1.6356V12.0772c0-.2877-.1017-.5439-.2464-.7777ZM19.972191,5.3666c.9549.0028,1.7256.6994,1.7296,1.5582-.004.8569-.7729,1.5565-1.7296,1.5575-.9548-.001-1.7237-.7006-1.7295-1.5575.004-.8588.7747-1.5554,1.7295-1.5582Z" fill="url(#New_Gradient_51)" fill-rule="evenodd" stroke="#000" stroke-miterlimit="3.8637" stroke-width="2"/>
    <path d="M7.1142913,9.4457l23.6320994-.0733c.9861-.002,2.3517999,1.8351,2.3517999,1.8351l-.5693,27.6898c0,.899-.7964,1.6336-1.7825,1.6356l-24.1505994.6064s-1.2637-1.2617-1.2637-2.1608l.002-27.8952c-.002-.8971.7962-1.6326,1.7802-1.6376Z" fill="url(#linear-gradient)" fill-rule="evenodd"/>
    <path d="M9.7457913,12.897l21.9417994-.0637c.9156-.0058,1.655.6691,1.655,1.5016v25.7637c0,.8364-.7394,1.5182-1.655,1.5222l-21.9417994.0645c-.9155.002-1.657-.672-1.657-1.5084V14.4152c0-.8374.7415-1.5134,1.657-1.5182Z" fill="url(#linear-gradient-2)" fill-rule="evenodd"/>
  </g>
  <path d="M28.9170908,12.0898c-1.6707-.5653-1.3968-1.3773-1.976-2.2244h-5.1493999l.0059.1116c-.088-.0236-.2661-.0745-.3659-.1116h-4.1652999c-.4519.5997.1076089,1.129-.401,1.5104-.3971.2641-.8803.5067-1.4928.714-2.4787999.8405-3.8757999.8591-4.3100999,2.2451l11.0835088-.0635,11.0791907.0635c-.4323-1.386-1.8273-1.4046-4.3080999-2.2451Z" fill="#333"/>
  <path d="M28.9170908,12.0898c-1.6707-.5653-1.3968-1.3773-1.976-2.2244h-5.1493999l.0059.1116c-.088-.0236-.2661-.0745-.3659-.1116h-4.1652999c-.4519.5997.1076089,1.129-.401,1.5104-.3971.2641-.8803.5067-1.4928.714-2.4787999.8405-3.8757999.8591-4.3100999,2.2451l11.0835088-.0635,11.0791907.0635c-.4323-1.386-1.8273-1.4046-4.3080999-2.2451Z" fill="#333"/>
  <g>
    <path d="M17.8317911,8.3697c.004,1.0085.8883,1.8273,1.9917999,1.8293,1.1015.0058,1.9895999-.807,1.9915999-1.8137,0-1.0065-.8901-1.8273-1.9915999-1.8303-1.1015-.0058-1.9877999.8052-1.9917999,1.8147ZM8.7304913,14.4777c.4303-1.3852-.3053-1.4036,2.7506999-2.245,3.1498999-.8657,3.6565999-2.3066,4.3042999-3.5725.7238-1.4066,1.2129-3.9461,3.8952999-3.8239,2.9385999.1322,3.895209,2.9181,3.4882999,3.9765-.5928,1.5339,1.3265,3.0551,1.3265,3.0551,2.1441999,1.302-.313,2.5229-.313,2.5229l-15.4520996.0869Z" fill="url(#New_Gradient_48)" fill-rule="evenodd"/>
    <path d="M19.823591,6.555c-1.1015.003-1.9917999.8238-1.9917999,1.8303,0,1.0067.8903,1.8195,1.9917999,1.8137,1.1035-.002,1.9877999-.8208,1.9915999-1.8293-.0038-1.0095-.8901-1.8205-1.9915999-1.8147ZM15.4370911,14.3908s-2.4316999-1.2209-.2875-2.5229c0,0,1.9193-1.5212,1.3285-3.0551-.4109-1.0584.5477-3.8443,3.4882999-3.9765,2.6821999-.1222,3.1713999,2.4173,3.8952999,3.8239.6475,1.2659,1.1543091,2.7068,4.3023091,3.5725,3.0577907.8414,2.2948907.8598,2.7252907,2.245l-15.4521996-.0869Z" fill="url(#New_Gradient_47)" fill-rule="evenodd"/>
    <path d="M11.1132912,13.6843s.9705-.487,2.5531999-.8195c1.5829-.3346,1.8606-1.9223,2.2715088-2.8585.4088911-.9332,1.1933911-2.2979,1.1933911-2.2979,0,0-.219,1.8381,1.041,2.6206,1.4789.9236,3.3336999.5235,3.9616999-.4694,0,0-.0332,1.0388,1.1426,2.331.6946.7661-.4011,1.309-.4011,1.309l-11.7622997.1847Z" fill="url(#linear-gradient-3)" fill-rule="evenodd"/>
    <path d="M28.7391908,13.6843s-.9725-.487-2.5531908-.8195c-1.5849091-.3346-1.7804091-1.9223-2.1951091-2.8585-.4071-.9332-1.1896-2.2979-1.1896-2.2979,0,0,.2151,1.8381-1.0428,2.6206-1.4771.9236-3.3318999.5235-3.9617999-.4694,0,0,.0333089,1.0388-1.1426911,2.331-.6964089.7661.3228911,1.309.3228911,1.309l11.7622997.1847Z" fill="url(#linear-gradient-4)" fill-rule="evenodd"/>
    <path d="M12.9406912,11.7328s.1096-.042.2935-.1486c1.2579-.7337,2.1834999-2.0611,2.7389999-3.4171,1.2678089-3.1127,2.5042999-3.7642,4.5272999-3.2956.4616.1086.583.7904.1193.6818-1.623791-.3757-2.7330999.0206-3.9773999,3.0716-.548,1.3423-.8569,3.2137-2.0484999,3.7761-.2915.1428-2.0111999-.5273-1.6532-.6682Z" fill="url(#New_Gradient_46)"/>
    <path d="M21.286891,6.7908s1.0097.7581.8452,1.8588c-.176091,1.1972-1.0956,2.1344-2.9229999,1.7978" fill="none" stroke="#f2f2f2" stroke-linecap="round" stroke-miterlimit="3.8637" stroke-width=".5272"/>
    <line x1="8.6168913" y1="14.5825" x2="30.5291907" y2="14.4495" fill="none" stroke="gray" stroke-linecap="round" stroke-miterlimit="3.8637" stroke-width=".5272"/>
  </g>
  <g>
    <g>
      <g mask="url(#mask)">
        <g>
          <path d="M33.6086907,45.4681l-18.2574995.0068-.002-27.7152,25.9992993-.001-.0098,21.2873c0,3.06-4.1338999,6.4221-7.7299998,6.4221Z" fill="url(#New_Gradient_11)" fill-rule="evenodd"/>
          <path d="M32.3761907,45.5777s4.4254999-.1418,4.4254999-4.2134c4.5507999,0,4.5918999-3.2946,4.5918999-3.2946l-.002,7.508h-9.0153998Z" fill="url(#New_Gradient_13)" fill-rule="evenodd"/>
          <path d="M33.6086907,45.4681l-18.2574995.0068-.002-27.7152,25.9992993-.001-.0098,21.2873c0,3.06-4.1338999,6.4221-7.7299998,6.4221Z" fill="none" fill-rule="evenodd" stroke="#000" stroke-linecap="round" stroke-linejoin="round" stroke-width="2"/>
        </g>
      </g>
      <g mask="url(#mask-1)">
        <g>
          <path d="M33.6086907,45.4681l-18.2574995.0068-.002-27.7152,25.9992993-.001-.0098,21.2873c0,3.06-4.1338999,6.4221-7.7299998,6.4221Z" fill="url(#New_Gradient_3)" fill-rule="evenodd"/>
          <path d="M32.3761907,45.5777s3.0755999-1.0251,3.0755999-5.0977c4.5525999,0,5.9417998-2.4103,5.9417998-2.4103l-.002,7.508h-9.0153998Z" fill="url(#New_Gradient_7)" fill-rule="evenodd"/>
        </g>
      </g>
    </g>
    <line x1="18.904" y1="26.737" x2="24.6912909" y2="26.737" fill="none" stroke="#999" stroke-linecap="round" stroke-miterlimit="3.8637" stroke-width=".7125"/>
    <line x1="32.2665907" y1="22.737" x2="38.0498906" y2="22.737" fill="none" stroke="#999" stroke-linecap="round" stroke-miterlimit="3.8637" stroke-width=".7125"/>
    <line x1="28.031" y1="26.737" x2="38.0498906" y2="26.737" fill="none" stroke="#999" stroke-linecap="round" stroke-miterlimit="3.8637" stroke-width=".7125"/>
    <line x1="18.657391" y1="38.733" x2="33.0432907" y2="38.733" fill="none" stroke="#999" stroke-linecap="round" stroke-miterlimit="3.8637" stroke-width=".7125"/>
    <line x1="18.904" y1="30.736" x2="23.58" y2="30.736" fill="none" stroke="#999" stroke-linecap="round" stroke-miterlimit="3.8637" stroke-width=".7125"/>
    <line x1="26.3268908" y1="30.736" x2="31.0028907" y2="30.736" fill="none" stroke="#999" stroke-linecap="round" stroke-miterlimit="3.8637" stroke-width=".7125"/>
    <line x1="32.8573907" y1="30.736" x2="38.0498906" y2="30.736" fill="none" stroke="#999" stroke-linecap="round" stroke-miterlimit="3.8637" stroke-width=".7125"/>
    <line x1="18.904" y1="22.737" x2="28.031" y2="22.737" fill="none" stroke="#999" stroke-linecap="round" stroke-miterlimit="3.8637" stroke-width=".7125"/>
    <line x1="18.904" y1="34.735" x2="26.5458908" y2="34.735" fill="none" stroke="#999" stroke-linecap="round" stroke-miterlimit="3.8637" stroke-width=".7125"/>
    <line x1="28.6804908" y1="34.735" x2="38.4216905" y2="34.735" fill="none" stroke="#999" stroke-linecap="round" stroke-miterlimit="3.8637" stroke-width=".7125"/>
  </g>
</svg>