<?xml version="1.0" encoding="UTF-8"?>
<svg id="Set_1" data-name="Set 1" xmlns="http://www.w3.org/2000/svg" width="48" height="48" xmlns:xlink="http://www.w3.org/1999/xlink" viewBox="0 0 48 48">
  <defs>
    <mask id="mask" x="8.6667864" y="4.4379" width="33.8998992" height="40.1079" maskUnits="userSpaceOnUse">
      <path d="M32.3106858,43.5438l-22.6400994.002-.0038-38.1079,31.8998992.002-.0136,29.6521c0,4.0265-4.9419999,8.4518-9.2423998,8.4518Z" fill="#fff" fill-rule="evenodd" stroke="#fff" stroke-linecap="round" stroke-linejoin="round" stroke-width="2"/>
    </mask>
    <linearGradient id="New_Gradient_11" data-name="New Gradient 11" x1="15.0454281" y1="2.8145612" x2="36.1229595" y2="46.0299049" gradientUnits="userSpaceOnUse">
      <stop offset="0" stop-color="#e5e5e5"/>
      <stop offset="1" stop-color="#fff"/>
    </linearGradient>
    <radialGradient id="New_Gradient_13" data-name="New Gradient 13" cx="-5.4003822" cy="37.3372374" fx="-5.4003822" fy="37.3372374" r="10.4921864" gradientTransform="translate(36.407 -1.3708114) scale(1.0313 .9421)" gradientUnits="userSpaceOnUse">
      <stop offset="0" stop-color="#fff"/>
      <stop offset="1" stop-color="#ccc"/>
    </radialGradient>
    <mask id="mask-1" x="9.6667864" y="5.4379" width="31.9487992" height="38.2508" maskUnits="userSpaceOnUse">
      <path d="M32.3106858,43.5438l-22.6400994.002-.0038-38.1079,31.8998992.002-.0136,29.6521c0,4.0265-4.9419999,8.4518-9.2423998,8.4518Z" fill="#fff" fill-rule="evenodd"/>
    </mask>
    <linearGradient id="New_Gradient_3" data-name="New Gradient 3" x1="15.0454281" y1="2.8145612" x2="36.1229595" y2="46.0299049" gradientUnits="userSpaceOnUse">
      <stop offset="0" stop-color="#e5e5e5"/>
      <stop offset=".286514" stop-color="#f2f2f2"/>
      <stop offset=".646072" stop-color="#fff"/>
      <stop offset="1" stop-color="#fff"/>
    </linearGradient>
    <radialGradient id="New_Gradient_7" data-name="New Gradient 7" cx="-5.4003822" cy="37.3372374" fx="-5.4003822" fy="37.3372374" r="10.4921864" gradientTransform="translate(36.407 -1.3708114) scale(1.0313 .9421)" gradientUnits="userSpaceOnUse">
      <stop offset="0" stop-color="#e5e5e5"/>
      <stop offset=".331467" stop-color="#e5e5e5"/>
      <stop offset="1" stop-color="#999"/>
    </radialGradient>
    <radialGradient id="New_Gradient_2" data-name="New Gradient 2" cx="-796.7677422" cy="825.1023134" fx="-796.7677422" fy="825.1023134" r="9.3095457" gradientTransform="translate(-819.6631 819.6630926) rotate(90) scale(1 -1)" gradientUnits="userSpaceOnUse">
      <stop offset="0" stop-color="#328e36"/>
      <stop offset="1" stop-color="#00cd00"/>
    </radialGradient>
    <mask id="mask-2" x="-.2858133" y="20.3159" width="12.2434997" height="12.805" maskUnits="userSpaceOnUse">
      <polyline points="5.834 30.4249 5.834 33.1209 11.9263864 28.3373 5.834 23.55 5.834 26.3163" fill="#fff"/>
    </mask>
    <radialGradient id="radial-gradient" cx="6.6168716" cy="23.9280506" fx="6.6168716" fy="23.9280506" r="5.0489692" gradientUnits="userSpaceOnUse">
      <stop offset="0" stop-color="#c9ffc9"/>
      <stop offset=".80899" stop-color="#00cd00"/>
    </radialGradient>
    <radialGradient id="radial-gradient-2" cx="-884.3303062" cy="908.9813039" fx="-884.3303062" fy="908.9813039" r="9.914162" gradientTransform="translate(-810.6671136 820.8334) rotate(90) scale(.8948 -.8948)" gradientUnits="userSpaceOnUse">
      <stop offset="0" stop-color="#c9ffc9"/>
      <stop offset=".80899" stop-color="#00cd00"/>
      <stop offset="1" stop-color="#00cd00"/>
    </radialGradient>
    <mask id="mask-3" x="17.9287862" y="19.6477" width="30.3563992" height="18.0307" maskUnits="userSpaceOnUse">
      <rect x="17.9287862" y="19.6477" width="28.0478993" height="15.6303" fill="#fff"/>
    </mask>
  </defs>
  <g>
    <g>
      <g mask="url(#mask)">
        <g>
          <path d="M32.3106858,43.5438l-22.6400994.002-.0038-38.1079,31.8998992.002-.0136,29.6521c0,4.0265-4.9419999,8.4518-9.2423998,8.4518Z" fill="url(#New_Gradient_11)" fill-rule="evenodd"/>
          <path d="M30.8375859,43.6867s5.2882999-.1857,5.2882999-5.5427c5.4467999,0,5.4896999-4.3394,5.4896999-4.3394v9.8841l-10.7779997-.002Z" fill="url(#New_Gradient_13)" fill-rule="evenodd"/>
          <path d="M32.3106858,43.5438l-22.6400994.002-.0038-38.1079,31.8998992.002-.0136,29.6521c0,4.0265-4.9419999,8.4518-9.2423998,8.4518Z" fill="none" fill-rule="evenodd" stroke="#000" stroke-linecap="round" stroke-linejoin="round" stroke-width="2"/>
        </g>
      </g>
      <g mask="url(#mask-1)">
        <g>
          <path d="M32.3106858,43.5438l-22.6400994.002-.0038-38.1079,31.8998992.002-.0136,29.6521c0,4.0265-4.9419999,8.4518-9.2423998,8.4518Z" fill="url(#New_Gradient_3)" fill-rule="evenodd"/>
          <path d="M30.8375859,43.6867s3.6760999-1.3479,3.6760999-6.7106c5.4468999-.0021,7.1018998-3.1715,7.1018998-3.1715v9.8841l-10.7779997-.002Z" fill="url(#New_Gradient_7)" fill-rule="evenodd"/>
        </g>
      </g>
    </g>
    <g>
      <line x1="13.8710863" y1="19.1194" x2="21.0336861" y2="19.1194" fill="none" stroke="#999" stroke-linecap="round" stroke-miterlimit="3.8637" stroke-width=".7125"/>
      <line x1="30.4090859" y1="13.1092" x2="37.5736857" y2="13.1092" fill="none" stroke="#999" stroke-linecap="round" stroke-miterlimit="3.8637" stroke-width=".7125"/>
      <line x1="25.169786" y1="19.1194" x2="37.5736857" y2="19.1194" fill="none" stroke="#999" stroke-linecap="round" stroke-miterlimit="3.8637" stroke-width=".7125"/>
      <line x1="13.5677863" y1="37.1501" x2="31.3717859" y2="37.1501" fill="none" stroke="#999" stroke-linecap="round" stroke-miterlimit="3.8637" stroke-width=".7125"/>
      <line x1="13.8710863" y1="25.1297" x2="19.6563862" y2="25.1297" fill="none" stroke="#999" stroke-linecap="round" stroke-miterlimit="3.8637" stroke-width=".7125"/>
      <line x1="23.0605861" y1="25.1297" x2="28.8437859" y2="25.1297" fill="none" stroke="#999" stroke-linecap="round" stroke-miterlimit="3.8637" stroke-width=".7125"/>
      <line x1="31.1406859" y1="25.1297" x2="37.5736857" y2="25.1297" fill="none" stroke="#999" stroke-linecap="round" stroke-miterlimit="3.8637" stroke-width=".7125"/>
      <line x1="13.8710863" y1="13.1092" x2="25.169786" y2="13.1092" fill="none" stroke="#999" stroke-linecap="round" stroke-miterlimit="3.8637" stroke-width=".7125"/>
      <line x1="13.8710863" y1="31.1399" x2="23.3305861" y2="31.1399" fill="none" stroke="#999" stroke-linecap="round" stroke-miterlimit="3.8637" stroke-width=".7125"/>
      <line x1="25.971686" y1="31.1399" x2="38.0334857" y2="31.1399" fill="none" stroke="#999" stroke-linecap="round" stroke-miterlimit="3.8637" stroke-width=".7125"/>
    </g>
  </g>
  <g>
    <polygon points="5.834 30.4249 5.834 33.1209 11.9263864 28.3373 5.834 23.55 5.834 26.3163 5.834 30.4249" fill="url(#New_Gradient_2)" stroke="#000" stroke-linecap="round" stroke-linejoin="round" stroke-width="2"/>
    <g mask="url(#mask-2)">
      <g>
        <polyline points="5.834 30.4249 5.834 33.1209 11.9263864 28.3373 5.834 23.55 5.834 26.3163" fill="url(#radial-gradient)"/>
        <polyline points="6.3466865 29.9691 6.3466865 32.1348 11.9576864 27.6994 -.2858133 20.3159" fill="url(#radial-gradient-2)"/>
      </g>
    </g>
  </g>
  <g opacity=".85">
    <rect x="17.9287862" y="19.6477" width="28.0478993" height="15.6303" fill="#032c87" stroke="#1459a5" stroke-width="2"/>
    <g mask="url(#mask-3)">
      <g>
        <rect x="17.9287862" y="19.6477" width="28.0478993" height="15.6303" fill="#fff"/>
        <rect x="20.2413862" y="21.9925" width="28.0437993" height="15.6859" fill="#d8eafd"/>
      </g>
    </g>
    <g>
      <path d="M19.9322862,22.6607c.72-.1371,1.661-.2397,2.8601999-.2397,1.4733,0,2.5531999.3424,3.2378999.9587.6341.5477,1.0272,1.3871,1.0272,2.4153,0,1.0446-.3071,1.8674-.9078,2.467-.7865.8394-2.0718999,1.2668-3.5273999,1.2668-.4461,0-.857-.0167-1.1993861-.1026v4.6251h-1.4907138v-11.3906ZM21.423,28.2101c.3248861.0862.7532861.1204,1.2326861.1204,1.8155,0,2.8954999-.8911,2.8954999-2.4496,0-1.5416-1.08-2.2782-2.7233999-2.2782-.6515,0-1.1484.0685-1.4047861.1194v4.488Z"/>
      <path d="M28.4565859,22.6607c.9254141-.1371,2.0054141-.2397,3.1869999-.2397,2.1404999,0,1.661.4793,2.6725999,1.4215,1.0447.942,1.6434,2.2949,1.6434,4.1623,0,1.884-.5987,3.4256-1.6611,4.488-1.0956,1.079-.8744858,1.661-3.1184858,1.661-1.078,0-1.9527141-.0342-2.7234141-.1368v-11.3563ZM29.9648859,32.8861c.3757.0685.9236.0685,1.5066.0685,3.1869999.0176,2.9131999-1.7814,2.9131999-4.899.0176-2.7577.4792-4.4529-2.6725999-4.4529-.7709,0-1.3539.0685-1.7472.1536v9.1298Z"/>
      <path d="M37.963,22.5062h6.2175855v1.2501h-4.7109999v3.8376h4.3509999v1.2325h-4.3509999v5.2249h-1.5065857v-11.5451Z"/>
    </g>
  </g>
</svg>