<?xml version="1.0" encoding="UTF-8"?>
<svg xmlns="http://www.w3.org/2000/svg" width="48" height="48" xmlns:xlink="http://www.w3.org/1999/xlink" viewBox="0 0 48 48">
  <defs>
    <linearGradient id="linear-gradient" x1="21.6917898" y1="31.73195" x2="23.6931897" y2="31.73195" gradientUnits="userSpaceOnUse">
      <stop offset="0" stop-color="#4c8bca"/>
      <stop offset="1" stop-color="#b7e9ff"/>
    </linearGradient>
    <linearGradient id="linear-gradient-2" x1="17.687" y1="29.72855" x2="19.6883898" y2="29.72855" gradientUnits="userSpaceOnUse">
      <stop offset="0" stop-color="#1c8019"/>
      <stop offset=".325843" stop-color="#23a11f"/>
      <stop offset="1" stop-color="#a8efb1"/>
    </linearGradient>
    <linearGradient id="New_Gradient_Swatch_33" data-name="New Gradient Swatch 33" x1="13.68189" y1="30.73025" x2="15.6835899" y2="30.73025" gradientUnits="userSpaceOnUse">
      <stop offset="0" stop-color="#f3403f"/>
      <stop offset=".3789338" stop-color="#d02a27"/>
      <stop offset=".7765172" stop-color="#b11713"/>
      <stop offset="1" stop-color="#a6100c"/>
    </linearGradient>
  </defs>
  <g isolation="isolate">
    <g id="Set_5" data-name="Set 5">
      <g>
        <rect x="5.7014902" y="6.6892" width="38.025899" height="38.0649" fill="#fff"/>
        <g>
          <rect x="33.7102894" y="42.7507" width="2.0033999" height="2.0034" fill="#c42e00"/>
          <rect x="25.6965897" y="42.7507" width="2.0034103" height="2.0034" fill="#c42e00"/>
          <rect x="17.683" y="42.7507" width="2.0033898" height="2.0034" fill="#c42e00"/>
          <rect x="5.6624902" y="10.6961" width="2.0033999" height="2.0034" fill="#c42e00"/>
          <rect x="5.6624902" y="6.6892" width="2.0033999" height="2.0035" fill="#c42e00"/>
          <rect x="5.6624902" y="22.7166" width="2.0033999" height="2.0034" fill="#c42e00"/>
          <rect x="5.6624902" y="30.7302" width="2.0033999" height="2.0034" fill="#c42e00"/>
          <rect x="5.6624902" y="42.7507" width="2.0033999" height="2.0034" fill="#c42e00"/>
          <rect x="5.6624902" y="18.7097" width="2.0033999" height="2.0035" fill="#c42e00"/>
          <rect x="5.6624902" y="26.7234" width="2.0033999" height="2.0034" fill="#c42e00"/>
          <rect x="5.6624902" y="34.7371" width="2.0033999" height="2.0034" fill="#c42e00"/>
          <rect x="37.7170893" y="42.7507" width="2.0033999" height="2.0034" fill="#c42e00"/>
          <rect x="29.7034895" y="42.7507" width="2.0033999" height="2.0034" fill="#c42e00"/>
          <rect x="21.6897898" y="42.7507" width="2.0033999" height="2.0034" fill="#c42e00"/>
          <rect x="13.67609" y="42.7507" width="2.0034999" height="2.0034" fill="#c42e00"/>
          <rect x="17.683" y="6.6892" width="2.0033898" height="2.0035" fill="#c42e00"/>
          <rect x="25.6965897" y="6.6892" width="2.0034103" height="2.0035" fill="#c42e00"/>
          <rect x="33.7102894" y="6.6892" width="2.0033999" height="2.0035" fill="#c42e00"/>
          <rect x="41.724" y="34.7371" width="2.0033892" height="2.0034" fill="#c42e00"/>
          <rect x="5.6624902" y="38.7439" width="2.0033999" height="2.0034" fill="#c42e00"/>
          <rect x="41.724" y="38.7439" width="2.0033892" height="2.0034" fill="#c42e00"/>
          <rect x="41.724" y="42.7507" width="2.0033892" height="2.0034" fill="#c42e00"/>
          <rect x="41.724" y="26.7234" width="2.0033892" height="2.0034" fill="#c42e00"/>
          <rect x="41.724" y="18.7097" width="2.0033892" height="2.0035" fill="#c42e00"/>
          <rect x="41.724" y="6.6892" width="2.0033892" height="2.0035" fill="#c42e00"/>
          <rect x="41.724" y="30.7302" width="2.0033892" height="2.0034" fill="#c42e00"/>
          <rect x="41.724" y="22.7166" width="2.0033892" height="2.0034" fill="#c42e00"/>
          <rect x="41.724" y="14.7029" width="2.0033892" height="2.0034" fill="#c42e00"/>
          <rect x="5.6624902" y="14.7029" width="2.0033999" height="2.0034" fill="#c42e00"/>
          <rect x="5.6624902" y="10.6961" width="2.0033999" height="2.0034" fill="#c42e00"/>
          <rect x="41.724" y="10.6961" width="2.0033892" height="2.0034" fill="#c42e00"/>
          <rect x="13.67609" y="6.6892" width="2.0034999" height="2.0035" fill="#c42e00"/>
          <rect x="9.6692901" y="42.7507" width="2.0033999" height="2.0034" fill="#c42e00"/>
          <rect x="9.6692901" y="6.6892" width="2.0033999" height="2.0035" fill="#c42e00"/>
          <rect x="21.6897898" y="6.6892" width="2.0033999" height="2.0035" fill="#c42e00"/>
          <rect x="29.7034895" y="6.6892" width="2.0033999" height="2.0035" fill="#c42e00"/>
          <rect x="37.7170893" y="6.6892" width="2.0033999" height="2.0035" fill="#c42e00"/>
        </g>
      </g>
      <g>
        <g>
          <rect x="31.7068895" y="22.7166" width="1.9993999" height="1.9643" fill="#cc6037"/>
          <rect x="31.7068895" y="26.7352" width="1.9993999" height="1.9642" fill="#4b995f"/>
          <rect x="31.7068895" y="30.7537" width="1.9993999" height="1.9643" fill="#2c6eb2"/>
        </g>
        <g mix-blend-mode="multiply">
          <line x1="36.4238894" y1="23.4248" x2="38.3763893" y2="23.4248" fill="none" stroke="#4c4c4c" stroke-linecap="round" stroke-miterlimit="3.8637" stroke-width=".7125"/>
          <line x1="36.4238894" y1="27.7193" x2="38.8968893" y2="27.7193" fill="none" stroke="#4c4c4c" stroke-linecap="round" stroke-miterlimit="3.8637" stroke-width=".7125"/>
          <line x1="36.4238894" y1="32.0136" x2="39.0004893" y2="32.0136" fill="none" stroke="#4c4c4c" stroke-linecap="round" stroke-miterlimit="3.8637" stroke-width=".7125"/>
        </g>
      </g>
      <g>
        <g>
          <g>
            <rect x="21.6917898" y="28.7268" width="2.0013999" height="6.0103" stroke="#012859" stroke-width="2"/>
            <rect x="17.687" y="24.72" width="2.0013898" height="10.0171" stroke="#0f6124" stroke-width="2"/>
            <rect x="13.68189" y="26.7234" width="2.0016999" height="8.0137" stroke="#740000" stroke-width="2"/>
          </g>
          <g>
            <rect x="21.6917898" y="28.7268" width="2.0013999" height="6.0103" fill="url(#linear-gradient)"/>
            <rect x="17.687" y="24.72" width="2.0013898" height="10.0171" fill="url(#linear-gradient-2)"/>
            <rect x="13.68189" y="26.7234" width="2.0016999" height="8.0137" fill="url(#New_Gradient_Swatch_33)"/>
          </g>
        </g>
        <rect x="25.6965897" y="36.7405" width="2.0034103" height="2.0034"/>
        <rect x="17.683" y="36.7405" width="2.0033898" height="2.0034"/>
        <rect x="9.6692901" y="20.7132" width="2.0033999" height="2.0034"/>
        <rect x="9.6692901" y="28.7268" width="2.0033999" height="2.0034"/>
        <rect x="9.6692901" y="36.7405" width="2.0033999" height="2.0034"/>
        <polygon points="27.7 34.7371 13.67609 34.7371 13.67609 20.7132 11.67269 20.7132 11.67269 34.7371 11.67269 36.7405 13.67609 36.7405 27.7 36.7405 27.7 34.7371"/>
      </g>
      <g>
        <path d="M17.1702899,16.6887l-.6515,1.8313h-.8392l2.1344101-5.8185h.9761898l2.1462999,5.8185h-.8687l-.6729-1.8313h-2.2245999ZM19.2305898,16.1017l-.6261-1.6747c-.1292-.3794-.2231-.7238-.3169-1.0624h-.0255c-.0880898.3386-.1879.7024-.3110898,1.0546l-.6144101,1.6825h1.894Z"/>
        <path d="M21.8600897,12.8834c.352-.0801.9193-.131,1.4789103-.131.81,0,1.3324897.131,1.7138897.4225.3248.227.5321103.5714.5321103,1.0292,0,.5693-.4107103,1.0624-1.0642103,1.2793v.0237c.5966.129,1.2952103.5868,1.2952103,1.4517,0,.5008-.2113103.8803-.5401103,1.1659-.4283.3699-1.1385.544-2.1598897.544-.5595103,0-.9899103-.0353-1.2559103-.0686v-5.7167ZM22.6660897,15.2665h.7376c.8471,0,1.3519-.4228,1.3519-.9843,0-.673-.5517-.9508-1.3695-.9508-.3757,0-.587.0274-.72.0509v1.8842ZM22.6660897,18.0464c.1682.0254.3912.0353.6807.0353.8415,0,1.6122103-.2857,1.6122103-1.1308,0-.7865-.7357103-1.1231-1.62-1.1231h-.6729103v2.2186Z"/>
        <path d="M31.2861895,18.4339c-.2895.137-.896.2778-1.6591.2778-1.7686,0-3.0911999-1.0369-3.0911999-2.9542,0-1.8293,1.3304-3.056,3.2771104-3.056.7747895,0,1.2795895.1565,1.4927895.2582l-.2074.6143c-.2973-.1389-.7336-.2426-1.2561-.2426-1.4731,0-2.4493999.8727-2.4493999,2.4025,0,1.4322.8823,2.3379,2.4024999,2.3379.5049,0,1.0057-.0937,1.3323-.2406l.1585.6027Z"/>
      </g>
    </g>
  </g>
</svg>