<?xml version="1.0" encoding="UTF-8"?>
<svg id="Icons_-_24x24" data-name="Icons - 24x24" xmlns="http://www.w3.org/2000/svg" width="48" height="48" viewBox="0 0 48 48">
  <path d="M30.4765883,14.04c0,.002-.0039.0039-.0059.0079l-5.5897999,5.5878-5.5937999-5.5947h0l-.0019-.001c-1.4629-1.4658-3.8378999-1.4658-5.3046999,0-1.4668,1.4649-1.4668,3.8399,0,5.3057l5.5956999,5.5967-5.5937999,5.5947c-1.4668,1.4649-1.4668,3.8399,0,5.3057,1.4649,1.4648,3.8398999,1.4648,5.3046999,0,0-.002.002-.0039.0039114-.0078l5.5898885-5.587,5.5956999,5.5938h0v.001c1.4648,1.4648,3.8397999,1.4648,5.3026999,0,1.4668-1.4658,1.4668-3.8408,0-5.3047h0l-5.5917999-5.5957,5.5937999-5.5967c1.4667118-1.4658,1.4667118-3.8408,0-5.3057-1.4629-1.4658-3.8398999-1.4658-5.3046999,0Z"/>
</svg>