<?xml version="1.0" encoding="UTF-8"?>
<svg id="Set_4" data-name="Set 4" xmlns="http://www.w3.org/2000/svg" width="48" height="48" xmlns:xlink="http://www.w3.org/1999/xlink" viewBox="0 0 48 48">
  <defs>
    <linearGradient id="New_Gradient_130" data-name="New Gradient 130" x1="373.1659671" y1="-1382.2925071" x2="405.7970294" y2="-1382.2925071" gradientTransform="translate(1098.1179 -108.3788) rotate(94.3536493) scale(1.0143269 -.7675146) skewX(7.3263493)" gradientUnits="userSpaceOnUse">
      <stop offset="0" stop-color="#ccc"/>
      <stop offset=".337082" stop-color="#999"/>
      <stop offset=".629211" stop-color="#b2b2b2"/>
      <stop offset="1" stop-color="#d9d9d9"/>
    </linearGradient>
    <linearGradient id="linear-gradient" x1="373.1659671" y1="-1382.2925071" x2="405.7970294" y2="-1382.2925071" gradientTransform="translate(1098.1179 -108.3788) rotate(94.3536493) scale(1.0143269 -.7675146) skewX(7.3263493)" gradientUnits="userSpaceOnUse">
      <stop offset="0" stop-color="#ccc"/>
      <stop offset=".337082" stop-color="#999"/>
      <stop offset=".629211" stop-color="#b2b2b2"/>
      <stop offset="1" stop-color="#d9d9d9"/>
    </linearGradient>
    <radialGradient id="radial-gradient" cx="-59.3934604" cy="13.9790467" fx="-59.3934604" fy="13.9790467" r="41.877412" gradientTransform="translate(55.5283 11.2008) scale(.6768)" gradientUnits="userSpaceOnUse">
      <stop offset=".140449" stop-color="#ffe900"/>
      <stop offset=".1588104" stop-color="#ffe204"/>
      <stop offset=".2913167" stop-color="#ffb420"/>
      <stop offset=".4092463" stop-color="#ff9334"/>
      <stop offset=".5071755" stop-color="#ff7f40"/>
      <stop offset=".573034" stop-color="#ff7845"/>
    </radialGradient>
  </defs>
  <path d="M12.2147961,27.1523c.3708-.8609.7601-1.6767,1.1387-2.5433l-.0128.1741,2.4485999.5888c-.3591.8079-.7161,1.575-1.0655,2.3868l-2.5089999-.6064ZM14.381496,22.0538c.2211-.6183.4393-1.307.6487-2.0601l.1721-.6321,2.5051999.6066-.1693.6339c-.2063.7513-.4265,1.4341-.6515,2.0543l-2.5051999-.6026ZM15.857796,16.5444c.2416-1.1758.4245-2.2677.5633-3.2694l2.5042999.6067c-.1378.9977-.3179,2.0992-.5585,3.2653l-2.5090999-.6026ZM29.3298956,36.9835c.2074-.9489.4382-1.7785.6818-2.5414l2.5033044.6065c-.2416045.759-.4666044,1.5965-.676,2.5473l-2.5091044-.6124ZM31.0388956,31.7089c.3708-.8609.7542-1.6787,1.1387-2.5356l-.0158.1701,2.4524999.5928c-.363.8004-.721,1.5731-1.0692,2.3753l-2.5061999-.6026ZM33.2036955,26.6142c.222-.6221.4402-1.3048.6496-2.0561l.17-.6339,2.5052999.6044-.1691.6339c-.2064954.7495-.4264954,1.4401-.6477,2.0603l-2.5080999-.6086ZM34.6818955,21.103c.2434-1.172.4185-2.2677.5575-3.2674l2.5120999.6064c-.1398,1.0038-.322,2.0954-.5616,3.2714l-2.5079999-.6104ZM10.5086961,32.4231c.2075-.945.4353039-1.7785.6759-2.5357l2.5072999.6026c-.2396.7571-.4676,1.5945-.674,2.5433l-2.5091999-.6102ZM35.6482955,11.3832c.0156.4225.0421,1.618-.0881,3.375l2.5051999.6104c.1272-1.7628.1058-2.9504.0892-3.3749l1.1425.2758s.2925,5.521-1.8245,13.1573c-1.8625954,6.7438-4.4763999,7.673-5.3782999,18.5099l-1.1688-.2837c.0947-1.0818.2091-2.0699.3325044-2.9678l-2.5052044-.6047c-.1293.8962-.2397,1.8802-.3316,2.9641l-.8775-.2094-5.3039999-1.2834-10.1354997-2.4612c.0939-1.08.2045-2.0641.3325-2.962l-2.5051999-.6104c-.129.9019-.2424,1.884-.3364,2.9698l-1.1662-.2837c.903-10.8368,3.5187999-11.768,5.3803999-18.5041,2.1167999-7.6458,1.7784-13.1749,1.7784-13.1749l1.241304.2955c.0138959.4284.0382959,1.616-.0909041,3.3846l2.5072999.6064c.1262-1.7666.1017-2.9542.0859-3.3767l10.0651997,2.4319,5.3536999,1.301.8981.2152Z" fill="url(#New_Gradient_130)" fill-rule="evenodd" stroke="#000" stroke-linecap="round" stroke-linejoin="round" stroke-width="1.75"/>
  <path d="M12.2147961,27.1523c.3708-.8609.7601-1.6767,1.1387-2.5433l-.0128.1741,2.4485999.5888c-.3591.8079-.7161,1.575-1.0655,2.3868l-2.5089999-.6064ZM14.381496,22.0538c.2211-.6183.4393-1.307.6487-2.0601l.1721-.6321,2.5051999.6066-.1693.6339c-.2063.7513-.4265,1.4341-.6515,2.0543l-2.5051999-.6026ZM15.857796,16.5444c.2416-1.1758.4245-2.2677.5633-3.2694l2.5042999.6067c-.1378.9977-.3179,2.0992-.5585,3.2653l-2.5090999-.6026ZM29.3298956,36.9835c.2074-.9489.4382-1.7785.6818-2.5414l2.5033044.6065c-.2416045.759-.4666044,1.5965-.676,2.5473l-2.5091044-.6124ZM31.0388956,31.7089c.3708-.8609.7542-1.6787,1.1387-2.5356l-.0158.1701,2.4524999.5928c-.363.8004-.721,1.5731-1.0692,2.3753l-2.5061999-.6026ZM33.2036955,26.6142c.222-.6221.4402-1.3048.6496-2.0561l.17-.6339,2.5052999.6044-.1691.6339c-.2064954.7495-.4264954,1.4401-.6477,2.0603l-2.5080999-.6086ZM34.6818955,21.103c.2434-1.172.4185-2.2677.5575-3.2674l2.5120999.6064c-.1398,1.0038-.322,2.0954-.5616,3.2714l-2.5079999-.6104ZM10.5086961,32.4231c.2075-.945.4353039-1.7785.6759-2.5357l2.5072999.6026c-.2396.7571-.4676,1.5945-.674,2.5433l-2.5091999-.6102ZM35.6482955,11.3832c.0156.4225.0421,1.618-.0881,3.375l2.5051999.6104c.1272-1.7628.1058-2.9504.0892-3.3749l1.1425.2758s.2925,5.521-1.8245,13.1573c-1.8625954,6.7438-4.4763999,7.673-5.3782999,18.5099l-1.1688-.2837c.0947-1.0818.2091-2.0699.3325044-2.9678l-2.5052044-.6047c-.1293.8962-.2397,1.8802-.3316,2.9641l-.8775-.2094-5.3039999-1.2834-10.1354997-2.4612c.0939-1.08.2045-2.0641.3325-2.962l-2.5051999-.6104c-.129.9019-.2424,1.884-.3364,2.9698l-1.1662-.2837c.903-10.8368,3.5187999-11.768,5.3803999-18.5041,2.1167999-7.6458,1.7784-13.1749,1.7784-13.1749l1.241304.2955c.0138959.4284.0382959,1.616-.0909041,3.3846l2.5072999.6064c.1262-1.7666.1017-2.9542.0859-3.3767l10.0651997,2.4319,5.3536999,1.301.8981.2152Z" fill="url(#linear-gradient)" fill-rule="evenodd"/>
  <path d="M19.4614959,17.4972c1.2091-5.8499.9685041-9.7999.9685041-9.7999l14.2125955,3.4473s.2398,3.9499-.9634,9.7979l-14.2176996-3.4453ZM14.116396,33.3641c1.1974-5.5447,3.0892999-7.2702,4.5320999-12.4921.0744-.2699.1449-.5281.2152-.7904l14.2155996,3.4435c-.0672955.2621-.1388.5223-.2141.7942-1.4351,5.1906-3.2857999,6.9905-4.4754999,12.5077l-14.2732996-3.4629ZM13.273196,39.3763c.0959-1.1876.2151-2.2616.3542-3.2301l14.2762996,3.4609c-.141.9881-.2612,2.0934-.366,3.3103l-14.2644996-3.5411Z" fill="url(#radial-gradient)" fill-rule="evenodd" stroke="#d68100" stroke-width=".5"/>
</svg>