<?xml version='1.0' encoding='UTF-8'?>
<svg xmlns="http://www.w3.org/2000/svg" xmlns:xlink="http://www.w3.org/1999/xlink" id="Set_5" data-name="Set 5" width="48" height="48" viewBox="0 0 48 48">
  <defs>
    <linearGradient id="New_Gradient_Swatch_18" data-name="New Gradient Swatch 18" x1="7.5" y1="34.44015" x2="29.537492" y2="34.44015" gradientUnits="userSpaceOnUse">
      <stop offset="0" stop-color="#b0caff"/>
      <stop offset=".1381484" stop-color="#97b5f2"/>
      <stop offset=".4019205" stop-color="#6f93dd"/>
      <stop offset=".64258" stop-color="#527ace"/>
      <stop offset=".8499057" stop-color="#406bc5"/>
      <stop offset="1" stop-color="#3a66c2"/>
    </linearGradient>
    <linearGradient id="New_Gradient_Swatch_18-2" data-name="New Gradient Swatch 18" y1="17.47095" y2="17.47095" x1="7.5" x2="29.537492" gradientUnits="userSpaceOnUse"><stop offset="0" stop-color="#b0caff"/><stop offset=".1381484" stop-color="#97b5f2"/><stop offset=".4019205" stop-color="#6f93dd"/><stop offset=".64258" stop-color="#527ace"/><stop offset=".8499057" stop-color="#406bc5"/><stop offset="1" stop-color="#3a66c2"/></linearGradient>
    <linearGradient id="New_Gradient_Swatch_18-3" data-name="New Gradient Swatch 18" y1="25.95405" y2="25.95405" x1="7.5" x2="29.537492" gradientUnits="userSpaceOnUse"><stop offset="0" stop-color="#b0caff"/><stop offset=".1381484" stop-color="#97b5f2"/><stop offset=".4019205" stop-color="#6f93dd"/><stop offset=".64258" stop-color="#527ace"/><stop offset=".8499057" stop-color="#406bc5"/><stop offset="1" stop-color="#3a66c2"/></linearGradient>
    <linearGradient id="linear-gradient" x1="23.0033756" y1="37.0951" x2="9.9373466" y2="37.0951" gradientUnits="userSpaceOnUse">
      <stop offset="0" stop-color="#575757"/>
      <stop offset=".325843" stop-color="#6d6d6d"/>
      <stop offset="1" stop-color="#d3d3d3"/>
    </linearGradient>
    <linearGradient id="linear-gradient-2" x1="18.9147685" y1="31.5936669" x2="8.820087" y2="23.5179231" gradientUnits="userSpaceOnUse">
      <stop offset="0" stop-color="#404040"/>
      <stop offset=".325843" stop-color="#6d6d6d"/>
      <stop offset="1" stop-color="#e9e9e9"/>
    </linearGradient>
    <linearGradient id="linear-gradient-3" y1="28.60995" y2="28.60995" x1="23.0033756" x2="9.9373466" gradientUnits="userSpaceOnUse"><stop offset="0" stop-color="#575757"/><stop offset=".325843" stop-color="#6d6d6d"/><stop offset="1" stop-color="#d3d3d3"/></linearGradient>
    <linearGradient id="linear-gradient-4" x1="18.9148353" y1="23.1062885" x2="8.8200623" y2="15.0304714" gradientUnits="userSpaceOnUse"><stop offset="0" stop-color="#404040"/><stop offset=".325843" stop-color="#6d6d6d"/><stop offset="1" stop-color="#e9e9e9"/></linearGradient>
    <linearGradient id="linear-gradient-5" y1="20.1259" y2="20.1259" x1="23.0033756" x2="9.9373466" gradientUnits="userSpaceOnUse"><stop offset="0" stop-color="#575757"/><stop offset=".325843" stop-color="#6d6d6d"/><stop offset="1" stop-color="#d3d3d3"/></linearGradient>
    <linearGradient id="linear-gradient-6" x1="18.9146526" y1="14.6218988" x2="8.819797" y2="6.5460157" gradientUnits="userSpaceOnUse"><stop offset="0" stop-color="#404040"/><stop offset=".325843" stop-color="#6d6d6d"/><stop offset="1" stop-color="#e9e9e9"/></linearGradient>
    <mask id="mask" x="19.5194922" y="12.8709" width="25.0411337" height="26.041" maskUnits="userSpaceOnUse">
      <path d="M21.9904922,29.057l10.0590997-8.129-.1741,4.9047c2.0827999.0685,6.3251998.2348,7.2320998-2.4982,1.6805-5.1045-7.3650998-9.4636-7.3650998-9.4636,6.9562998.3757,14.2362996,6.1747,11.0451997,13.975-2.7253999,6.658-10.3936916,5.2786-10.6753997,5.2746l-.1584,4.7914-9.9633997-8.8549Z" fill="#fff" stroke="#fff" stroke-linecap="round" stroke-linejoin="round" stroke-width="2"/>
    </mask>
    <radialGradient id="New_Gradient_188" data-name="New Gradient 188" cx="40.6118429" cy="-335.7904209" fx="40.6118429" fy="-335.7904209" r="22.3389274" gradientTransform="translate(.3334 -304.4922) scale(.9936 -1)" gradientUnits="userSpaceOnUse">
      <stop offset="0" stop-color="#fff"/>
      <stop offset="1" stop-color="#00cd00"/>
    </radialGradient>
    <radialGradient id="New_Gradient_189" data-name="New Gradient 189" cx="-140.1855811" cy="-232.1220584" fx="-140.1855811" fy="-232.1220584" r="20.0509052" gradientTransform="translate(125.2848 -202.7772) rotate(-125.8577783) scale(.948828) skewX(.447967)" gradientUnits="userSpaceOnUse">
      <stop offset="0" stop-color="#328e36"/>
      <stop offset="1" stop-color="#00cd00"/>
    </radialGradient>
    <mask id="mask-1" x="19.5194922" y="12.8634" width="25.4009726" height="25.0485" maskUnits="userSpaceOnUse">
      <path d="M21.9904922,29.057l10.0590997-8.129-.1741,4.9047c2.0827999.0685,6.3251998.2348,7.2320998-2.4982,1.6805-5.1045-7.3650998-9.4636-7.3650998-9.4636,6.9562998.3757,14.2362996,6.1747,11.0451997,13.975-2.7253999,6.658-10.3936916,5.2786-10.6753997,5.2746l-.1584,4.7914-9.9633997-8.8549Z" fill="#fff"/>
    </mask>
    <linearGradient id="linear-gradient-7" x1="32.775559" y1="32.6156677" x2="32.775559" y2="24.160448" gradientUnits="userSpaceOnUse">
      <stop offset=".005618" stop-color="#a70000"/>
      <stop offset="1" stop-color="#fff95e"/>
    </linearGradient>
  </defs>
  <g>
    <g>
      <path d="M18.5197923,25.9657c-6.0885998,0-11.0197923,2.3773-11.0197923,5.3099v6.3254c0,2.9326,4.9311924,5.3136,11.0197923,5.3136,6.0854998,0,11.0176997-2.381,11.0176997-5.3136v-6.3254c0-2.9326-4.9321999-5.3099-11.0176997-5.3099Z" fill="url(#New_Gradient_Swatch_18)" stroke="#000" stroke-linecap="round" stroke-linejoin="round" stroke-width="2"/>
      <path d="M18.5197923,8.9936c-6.0885998,0-11.0197923,2.3771-11.0197923,5.3099v6.331c0,2.9307,4.9311924,5.3138,11.0197923,5.3138,6.0854998,0,11.0176997-2.3831,11.0176997-5.3138v-6.331c0-2.9328-4.9321999-5.3099-11.0176997-5.3099Z" fill="url(#New_Gradient_Swatch_18-2)" stroke="#000" stroke-linecap="round" stroke-linejoin="round" stroke-width="2"/>
      <path d="M18.5197923,17.4767c-6.0885998,0-11.0197923,2.379-11.0197923,5.3118v6.3272c0,2.9346,4.9311924,5.3157,11.0197923,5.3157,6.0854998,0,11.0176997-2.3811,11.0176997-5.3157v-6.3272c0-2.9328-4.9321999-5.3118-11.0176997-5.3118Z" fill="url(#New_Gradient_Swatch_18-3)" stroke="#000" stroke-linecap="round" stroke-linejoin="round" stroke-width="2"/>
    </g>
    <g>
      <path d="M7.5,31.2756v6.3254c0,2.9326,4.9311924,5.3136,11.0197923,5.3136,6.0854998,0,11.0176997-2.381,11.0176997-5.3136v-6.3254H7.5Z" fill="url(#linear-gradient)"/>
      <path d="M29.537492,31.2756c0,2.9368-4.9321999,5.3118-11.0176997,5.3118-6.0885998,0-11.0197923-2.375-11.0197923-5.3118,0-2.9326,4.9311924-5.3099,11.0197923-5.3099,6.0854998,0,11.0176997,2.3773,11.0176997,5.3099Z" fill="url(#linear-gradient-2)"/>
    </g>
    <g>
      <path d="M7.5,22.7885v6.3272c0,2.9346,4.9311924,5.3157,11.0197923,5.3157,6.0854998,0,11.0176997-2.3811,11.0176997-5.3157v-6.3272H7.5Z" fill="url(#linear-gradient-3)"/>
      <path d="M29.537492,22.7885c0,2.9366-4.9321999,5.3119-11.0176997,5.3119-6.0885998,0-11.0197923-2.3753-11.0197923-5.3119,0-2.9328,4.9311924-5.3118,11.0197923-5.3118,6.0854998,0,11.0176997,2.379,11.0176997,5.3118Z" fill="url(#linear-gradient-4)"/>
    </g>
    <g>
      <path d="M7.5,14.3035v6.331c0,2.9307,4.9311924,5.3138,11.0197923,5.3138,6.0854998,0,11.0176997-2.3831,11.0176997-5.3138v-6.331H7.5Z" fill="url(#linear-gradient-5)"/>
      <path d="M29.537492,14.3035c0,2.9366-4.9321999,5.3156-11.0176997,5.3156-6.0885998,0-11.0197923-2.379-11.0197923-5.3156,0-2.9328,4.9311924-5.3099,11.0197923-5.3099,6.0854998,0,11.0176997,2.3771,11.0176997,5.3099Z" fill="url(#linear-gradient-6)"/>
    </g>
  </g>
  <g>
    <g mask="url(#mask)">
      <g>
        <path d="M21.9904922,29.057l10.0590997-8.129-.1741,4.9047c2.0827999.0685,6.3251998.2348,7.2320998-2.4982,1.6805-5.1045-7.3650998-9.4636-7.3650998-9.4636,6.9562998.3757,14.2362996,6.1747,11.0451997,13.975-2.7253999,6.658-10.3936916,5.2786-10.6753997,5.2746l-.1584,4.7914-9.9633997-8.8549Z" fill="url(#New_Gradient_188)"/>
        <path d="M19.5194922,28.8555l2.5951999,1.6572,9.4163998-6.7106.1273,3.4334s4.7023999,1.0448,6.8163998-1.2619c3.6878999-4.0049-2.2235999-7.953-2.2235999-7.953l-16.7316996,10.8349Z" fill="url(#New_Gradient_189)" fill-rule="evenodd"/>
        <path d="M21.9904922,29.057l10.0590997-8.129-.1741,4.9047c2.0827999.0685,6.3251998.2348,7.2320998-2.4982,1.6805-5.1045-7.3650998-9.4636-7.3650998-9.4636,6.9562998.3757,14.2362996,6.1747,11.0451997,13.975-2.7253999,6.658-10.3936916,5.2786-10.6753997,5.2746l-.1584,4.7914-9.9633997-8.8549Z" fill="none" stroke="#000" stroke-linecap="round" stroke-linejoin="round" stroke-width="2"/>
      </g>
    </g>
    <g mask="url(#mask-1)">
      <g>
        <path d="M21.9904922,29.057l10.0590997-8.129-.1741,4.9047c2.0827999.0685,6.3251998.2348,7.2320998-2.4982,1.6805-5.1045-7.3650998-9.4636-7.3650998-9.4636,6.9562998.3757,14.2362996,6.1747,11.0451997,13.975-2.7253999,6.658-10.3936916,5.2786-10.6753997,5.2746l-.1584,4.7914-9.9633997-8.8549Z" fill="url(#linear-gradient-7)"/>
        <path d="M23.1780921,27.8479l10.0590997-8.129-.1641919,4.9126c2.0746918.0627,6.4903917.4363,7.3933917-2.297,1.6874-5.1063-7.3641998-9.4711-7.3641998-9.4711,6.9582998.3815,14.2362996,6.1805,11.0451997,13.9828-2.7183916,6.6578-11.7142997,4.5037-11.9959997,4.5019l-.129,3.6917-8.8442998-7.1919Z" fill="#ff7845"/>
        <path d="M19.5194922,28.8555l5.1045078-.1331,6.5891919-4.6034.1282,3.4375s5.0193999.7238,7.1333998-1.5829c3.6878999-4.0049-2.2235999-7.953-2.2235999-7.953l-16.7316996,10.8349Z" fill="#fff95e"/>
      </g>
    </g>
  </g>
</svg>