<?xml version='1.0' encoding='UTF-8'?>
<svg xmlns="http://www.w3.org/2000/svg" xmlns:xlink="http://www.w3.org/1999/xlink" id="Icons_-_24x24" data-name="Icons - 24x24" width="48" height="48" viewBox="0 0 48 48">
  <defs>
    <linearGradient id="linear-gradient" x1="16.8758229" y1="-203.7282144" x2="63.0215162" y2="-173.7608508" gradientTransform="translate(-188.5773 161.8527) rotate(31.8641887) scale(.8086642 1.2157348) skewX(-26.3580759)" gradientUnits="userSpaceOnUse">
      <stop offset="0" stop-color="#b4daea"/>
      <stop offset=".51123" stop-color="#b4daea"/>
      <stop offset=".646072" stop-color="#5387ba"/>
      <stop offset="1" stop-color="#16336e"/>
    </linearGradient>
    <mask id="mask" x="1.9804951" y="7.1035" width="33.6503991" height="39.6426" maskUnits="userSpaceOnUse">
      <polygon points="6.357395 37.5332 31.916 43.6865 33.127 42.5645 35.6308942 16.3828 14.6620948 8.3555 13.4413948 9.499 6.357395 37.5332" fill="#fff" fill-rule="evenodd"/>
    </mask>
    <linearGradient id="New_Gradient_21" data-name="New Gradient 21" x1="13.5204217" y1="20.4611917" x2="30.1814659" y2="34.9444166" gradientUnits="userSpaceOnUse">
      <stop offset="0" stop-color="#5387ba"/>
      <stop offset="1" stop-color="#96bad6"/>
    </linearGradient>
    <linearGradient id="New_Gradient_23" data-name="New Gradient 23" x1="24.3875565" y1="-192.117345" x2="57.2336044" y2="-170.7868721" gradientTransform="translate(-188.5773 161.8527) rotate(31.8641887) scale(.8086642 1.2157348) skewX(-26.3580759)" gradientUnits="userSpaceOnUse">
      <stop offset="0" stop-color="#b4daea"/>
      <stop offset=".51123" stop-color="#b4daea"/>
      <stop offset=".646072" stop-color="#5387ba"/>
      <stop offset="1" stop-color="#16336e"/>
    </linearGradient>
    <linearGradient id="New_Gradient_24" data-name="New Gradient 24" x1="40.1041427" y1="-198.5010672" x2="40.1041427" y2="-173.5828769" gradientTransform="translate(-188.5773 161.8527) rotate(31.8641887) scale(.8086642 1.2157348) skewX(-26.3580759)" gradientUnits="userSpaceOnUse">
      <stop offset="0" stop-color="#b2b2b2"/>
      <stop offset="1" stop-color="#f2f2f2"/>
    </linearGradient>
    <mask id="mask-1" x="8.6151949" y="3.1689" width="33.6523991" height="37.835" maskUnits="userSpaceOnUse">
      <polygon points="9.3944949 33.5996 33.9901943 39.5137 35.1894943 38.3906 42.2675941 10.4014 17.7011947 4.4189 16.4765947 5.5635 9.3944949 33.5996" fill="#fff" fill-rule="evenodd"/>
    </mask>
    <linearGradient id="linear-gradient-2" x1="17.7037838" y1="14.93558" x2="33.9588917" y2="29.0659298" gradientUnits="userSpaceOnUse">
      <stop offset=".005618" stop-color="#6498c1"/>
      <stop offset=".2332473" stop-color="#79a9cb"/>
      <stop offset=".7405465" stop-color="#a3cce1"/>
      <stop offset="1" stop-color="#b4daea"/>
    </linearGradient>
    <linearGradient id="New_Gradient_23-2" data-name="New Gradient 23" x1="23.6828386" y1="-197.276385" x2="56.4802508" y2="-175.9774964" gradientTransform="translate(-188.5773 161.8527) rotate(31.8641887) scale(.8086642 1.2157348) skewX(-26.3580759)" gradientUnits="userSpaceOnUse"><stop offset="0" stop-color="#b4daea"/><stop offset=".51123" stop-color="#b4daea"/><stop offset=".646072" stop-color="#5387ba"/><stop offset="1" stop-color="#16336e"/></linearGradient>
    <linearGradient id="New_Gradient_21-2" data-name="New Gradient 21" x1="16.2996102" y1="-194.7141565" x2="35.4351619" y2="-178.0798752" gradientTransform="translate(-188.5773 161.8527) rotate(31.8641887) scale(.8086642 1.2157348) skewX(-26.3580759)" gradientUnits="userSpaceOnUse"><stop offset="0" stop-color="#5387ba"/><stop offset="1" stop-color="#96bad6"/></linearGradient>
    <linearGradient id="New_Gradient_20" data-name="New Gradient 20" x1="-59.8444109" y1="-167.9562396" x2="-56.2509582" y2="-157.5200954" gradientTransform="translate(-117.0832 206.9683) rotate(31.9054983) scale(.9850151 1.4712796) skewX(-26.2737722)" gradientUnits="userSpaceOnUse">
      <stop offset="0" stop-color="#ccc"/>
      <stop offset="1" stop-color="#f2f2f2"/>
    </linearGradient>
    <linearGradient id="New_Gradient_Swatch_6" data-name="New Gradient Swatch 6" x1="8.1791862" y1="-312.1899235" x2="-4.3537599" y2="-324.7228696" gradientTransform="translate(-233.1134 205.9246) rotate(55.9984591)" gradientUnits="userSpaceOnUse">
      <stop offset="0" stop-color="#f3403f"/>
      <stop offset=".3789338" stop-color="#d02a27"/>
      <stop offset=".7765172" stop-color="#b11713"/>
      <stop offset="1" stop-color="#a6100c"/>
    </linearGradient>
    <mask id="mask-2" x="17.6854947" y="16.7656" width="31.4609992" height="24.0918" maskUnits="userSpaceOnUse">
      <path d="M46.904294,25.3418l-5.7851999-8.5762c-2.5780941.9336-17.8202995,7.9483-20.7694995,9.8213-1.4004.8848-1.9999999,1.4727-2.6640999,3.4483,1.8165053-.2608,2.9960999.0087,5.5546999.8398-.2441,2.5977-.2656,4.0459.2286,7.7373.6582054-1.9785,1.2636-2.5664,2.6620999-3.4521,2.9511055-1.8721,18.1913995-8.8887,20.7733995-9.8184Z" fill="#fff"/>
    </mask>
    <linearGradient id="New_Gradient_Swatch_5" data-name="New Gradient Swatch 5" x1="23.7350896" y1="25.0818307" x2="43.5549089" y2="31.119161" gradientUnits="userSpaceOnUse">
      <stop offset="0" stop-color="#f3403f"/>
      <stop offset=".3789338" stop-color="#d02a27"/>
      <stop offset=".7765172" stop-color="#b11713"/>
      <stop offset="1" stop-color="#a6100c"/>
    </linearGradient>
    <linearGradient id="New_Gradient_Swatch_8" data-name="New Gradient Swatch 8" x1="34.9427812" y1="30.1811268" x2="22.4775581" y2="22.564734" gradientUnits="userSpaceOnUse">
      <stop offset="0" stop-color="#f3403f"/>
      <stop offset=".3789338" stop-color="#d02a27"/>
      <stop offset=".7765172" stop-color="#b11713"/>
      <stop offset="1" stop-color="#a6100c"/>
    </linearGradient>
  </defs>
  <g>
    <path d="M32.7870943,39.4189c.1797-.1875-1.0547,1.2188-.8144,1.0069.8652-.7754-.3848-.9512.3066-1.3672l1.625.3984,1.1992-1.1308,7.0741998-27.9805-24.5448994-5.9834c.334-.8701.0606-.6934-2.1151999,1.2676-2.1796999,1.9599-1.8281,2.915-2.1737999,3.793-.045.1142-.0547.1904-.0489.25l-7.0253998,27.8037,25.5663994,6.1552,1.2012-1.1279-.25-3.085Z" fill="url(#linear-gradient)" stroke="#000" stroke-linecap="round" stroke-linejoin="round" stroke-width="2"/>
    <g>
      <g>
        <g mask="url(#mask)">
          <g>
            <polygon points="6.357395 37.5332 31.916 43.6865 33.127 42.5645 35.6308942 16.3828 14.6620948 8.3555 13.4413948 9.499 6.357395 37.5332" fill="url(#New_Gradient_21)" fill-rule="evenodd"/>
            <polygon points="14.666 8.1436 7.459 36.6582 34.5058943 42.9404 29.4901944 46.7461 1.9804951 40.6855 9.8612949 10.7559 14.0331948 7.1035 14.666 8.1436" fill="url(#New_Gradient_23)" fill-rule="evenodd"/>
          </g>
        </g>
        <path d="M33.4413943,38.5361s.2793.4541-1.3809,1.9493c-1.6523,1.4902.5958.9667.5958.9667l-24.3261994-5.6816,6.8789051-27.2012,1.9667947-2.9697,16.2655996,32.9365Z" fill="url(#New_Gradient_24)" fill-rule="evenodd"/>
        <g mask="url(#mask-1)">
          <g>
            <polygon points="9.3944949 33.5996 33.9901943 39.5137 35.1894943 38.3906 42.2675941 10.4014 17.7011947 4.4189 16.4765947 5.5635 9.3944949 33.5996" fill="url(#linear-gradient-2)" fill-rule="evenodd"/>
            <polygon points="17.7050947 4.2129 10.498 32.7246 36.5722942 38.7646 37.0956942 41.0039 8.6151949 34.707 16.5 4.7764 17.0683947 3.1689 17.7050947 4.2129" fill="url(#New_Gradient_23-2)" fill-rule="evenodd"/>
          </g>
        </g>
      </g>
      <path d="M8.3456949,34.3984c1.793-1.6123,1.9102-1.7988,2.1249999-1.5654l7.0293051-27.5566c.3456947-.876.0722947-.6993-2.1074052,1.2597-2.1777999,1.9639-1.836,2.9209-2.1796999,3.8028-.041.1084-.0547.1894-.041.2451l-6.9648948,27.5361c.429695-.9316.021495-1.8144,2.1386949-3.7217Z" fill="#4d7ba6"/>
      <path d="M8.5604949,33.543c1.7911-1.6104,1.9102-1.794,2.1249999-1.5606l7.0390998-27.5556c.3399-.878.0567-.6993-2.1229999,1.2587-2.1718999,1.959-1.8262,2.918-2.1718999,3.7969-.041.1104-.0566948.1953-.0449.253l-6.9609998,27.5302c.4239-.9326.0215-1.8086,2.1366999-3.7226Z" fill="url(#New_Gradient_21-2)"/>
      <line x1="17.7245947" y1="4.4268" x2="10.541" y2="32.5488" fill="none" stroke="#5387ba" stroke-linejoin="round"/>
    </g>
    <polygon points="34.0175943 21.2334 36.2167942 12.8008 22.1854946 9.3896 20.0722946 17.8652 34.0175943 21.2334" fill="url(#New_Gradient_20)" fill-rule="evenodd" stroke="gray" stroke-linecap="round" stroke-linejoin="round" stroke-width=".5"/>
  </g>
  <g>
    <path d="M46.904294,25.3418l-5.7851999-8.5762c-2.5780941.9336-17.8202995,7.9483-20.7694995,9.8213-1.4004.8848-1.9999999,1.4727-2.6640999,3.4483,1.8165053-.2608,2.9960999.0087,5.5546999.8398-.2441,2.5977-.2656,4.0459.2286,7.7373.6582054-1.9785,1.2636-2.5664,2.6620999-3.4521,2.9511055-1.8721,18.1913995-8.8887,20.7733995-9.8184Z" fill="url(#New_Gradient_Swatch_6)" stroke="#000" stroke-linecap="round" stroke-linejoin="round"/>
    <g mask="url(#mask-2)">
      <g>
        <path d="M46.904294,25.3418l-5.7851999-8.5762c-2.5780941.9336-17.8202995,7.9483-20.7694995,9.8213-1.4004.8848-1.9999999,1.4727-2.6640999,3.4483,1.8165053-.2608,2.9960999.0087,5.5546999.8398-.2441,2.5977-.2656,4.0459.2286,7.7373.6582054-1.9785,1.2636-2.5664,2.6620999-3.4521,2.9511055-1.8721,18.1913995-8.8887,20.7733995-9.8184Z" fill="url(#New_Gradient_Swatch_5)"/>
        <path d="M49.1464939,27.585l-5.7831999-8.5723c-2.5761999.9297-17.8144995,7.9492-20.7714995,9.8203-1.3965.8848-1.9979999,1.4727-2.6601999,3.4483,1.8204054-.2598,2.9960999.0087,5.5546999.8378-.2461,2.6006-.2695,4.0459.2305,7.7383.6582055-1.9775,1.2617-2.5654,2.6602055-3.4502,2.9530944-1.873,18.191394-8.8886,20.7694939-9.8222Z" fill="url(#New_Gradient_Swatch_8)"/>
      </g>
    </g>
  </g>
</svg>