<?xml version='1.0' encoding='UTF-8'?>
<svg xmlns="http://www.w3.org/2000/svg" xmlns:xlink="http://www.w3.org/1999/xlink" id="Icons_-_24x24" data-name="Icons - 24x24" width="48" height="48" viewBox="0 0 48 48">
  <defs>
    <radialGradient id="New_Gradient_54" data-name="New Gradient 54" cx="15.9857544" cy="11.0273385" fx="15.9857544" fy="11.0273385" r="39.0134199" gradientTransform="translate(0 -6.3029) scale(1 1.1193)" gradientUnits="userSpaceOnUse">
      <stop offset="0" stop-color="#b7e9ff"/>
      <stop offset=".69101" stop-color="#3c97f6"/>
      <stop offset="1" stop-color="#0342d3"/>
    </radialGradient>
    <mask id="mask" x="8.8696" y="27.223603" width="32.293" height="14.0136996" maskUnits="userSpaceOnUse">
      <polygon points="41.1626 36.5967027 38.5317 39.7881026 10.1323 39.9736026 9.9683 31.1104029 9.5952 29.1436029 41.1626 36.5967027" fill="#fff" fill-rule="evenodd"/>
    </mask>
    <linearGradient id="New_Gradient_410" data-name="New Gradient 410" x1="-24.7398941" y1="1.8442537" x2="-8.2268026" y2="-14.6688378" gradientTransform="translate(20.9512 42.6157958) rotate(12.1755879) scale(.9307361 .8723619) skewX(-18.2786539)" gradientUnits="userSpaceOnUse">
      <stop offset="0" stop-color="#999"/>
      <stop offset=".382019" stop-color="#999"/>
      <stop offset=".786514" stop-color="#666"/>
      <stop offset="1" stop-color="#666"/>
    </linearGradient>
    <mask id="mask-1" x="2.229" y="14.9844033" width="42.8281" height="25.4540994" maskUnits="userSpaceOnUse">
      <path d="M41.0903,18.2646032l-8.166.1045-22.9433-.1045s-5.4522,6.5478998-3.3575,16.6787996l2.7637,3.8524999h4.7012l.0224.1357,26.7842-.1357,2.7656-3.8524999c2.0938-10.1308997-2.5703-16.6787996-2.5703-16.6787996Z" fill="#fff" fill-rule="evenodd"/>
    </mask>
    <radialGradient id="New_Gradient_13" data-name="New Gradient 13" cx="15.2856166" cy="21.8379274" fx="15.2856166" fy="21.8379274" r="27.7160475" gradientUnits="userSpaceOnUse">
      <stop offset="0" stop-color="#f2f2f2"/>
      <stop offset="1" stop-color="#b2b2b2"/>
    </radialGradient>
    <linearGradient id="New_Gradient_391" data-name="New Gradient 391" x1="-18.104321" y1="-14.6216883" x2="11.9127396" y2="2.7086697" gradientTransform="translate(21.2751 38.2636) rotate(14.8863413) scale(.9416027 1.0620235) skewX(-13.0522057)" gradientUnits="userSpaceOnUse">
      <stop offset="0" stop-color="#fff"/>
      <stop offset=".449432" stop-color="#fff"/>
      <stop offset="1" stop-color="#d9d9d9"/>
    </linearGradient>
    <linearGradient id="New_Gradient_404" data-name="New Gradient 404" x1="-24.9338039" y1="-15.5400307" x2="17.5135812" y2="-4.1662882" gradientTransform="translate(21.2751 38.2636) rotate(14.8863413) scale(.9416027 1.0620235) skewX(-13.0522057)" gradientUnits="userSpaceOnUse">
      <stop offset="0" stop-color="#fff"/>
      <stop offset="1" stop-color="#999"/>
    </linearGradient>
    <linearGradient id="New_Gradient_406" data-name="New Gradient 406" x1="-9.7998946" y1="-35.3905008" x2="-4.0986409" y2="-14.1131324" gradientTransform="translate(26.6712 40.5952) rotate(14.0007073) scale(1.0949273 1.0252468)" gradientUnits="userSpaceOnUse">
      <stop offset="0" stop-color="#fff"/>
      <stop offset=".662918" stop-color="#e5e5e5"/>
      <stop offset="1" stop-color="#737373"/>
    </linearGradient>
    <radialGradient id="New_Gradient_403" data-name="New Gradient 403" cx="-26.5943798" cy="-1.2974806" fx="-26.5943798" fy="-1.2974806" r="2.7928763" gradientTransform="translate(34.2087 39.6294) rotate(17.2967718) scale(.9313164 1.2012358) skewX(-7.4101613)" gradientUnits="userSpaceOnUse">
      <stop offset="0" stop-color="#23a11f"/>
      <stop offset="1" stop-color="#005e00"/>
    </radialGradient>
    <radialGradient id="New_Gradient_398" data-name="New Gradient 398" cx="-22.5712654" cy="-2.2684082" fx="-22.5712654" fy="-2.2684082" r="2.7961879" gradientTransform="translate(34.2087 39.6294) rotate(17.2967718) scale(.9313164 1.2012358) skewX(-7.4101613)" gradientUnits="userSpaceOnUse">
      <stop offset="0" stop-color="red"/>
      <stop offset="1" stop-color="#a70000"/>
    </radialGradient>
    <radialGradient id="New_Gradient_405" data-name="New Gradient 405" cx="-33.8205203" cy="-12.8194072" fx="-33.8205203" fy="-12.8194072" r="30.5027754" gradientTransform="translate(34.2087 45.7156) rotate(13.8602388) scale(.9158673 .9676383) skewX(-15.1644557)" gradientUnits="userSpaceOnUse">
      <stop offset="0" stop-color="#3c97f6"/>
      <stop offset=".235962" stop-color="#3c97f6"/>
      <stop offset="1" stop-color="#0342d3"/>
    </radialGradient>
    <linearGradient id="New_Gradient_390" data-name="New Gradient 390" x1="6.9187923" y1="-14.2371978" x2="10.852183" y2="-21.3332225" gradientTransform="translate(21.2751 38.2636) rotate(14.8863413) scale(.9416027 1.0620235) skewX(-13.0522057)" gradientUnits="userSpaceOnUse">
      <stop offset="0" stop-color="#3c97f6"/>
      <stop offset="1" stop-color="#0342d3"/>
    </linearGradient>
    <radialGradient id="New_Gradient_389" data-name="New Gradient 389" cx="-27.1418747" cy="-22.3122871" fx="-27.1418747" fy="-22.3122871" r="22.3706938" gradientTransform="translate(34.2087 45.7156) rotate(13.8602388) scale(.9158673 .9676383) skewX(-15.1644557)" gradientUnits="userSpaceOnUse">
      <stop offset="0" stop-color="#b7e9ff"/>
      <stop offset=".69101" stop-color="#3c97f6"/>
      <stop offset="1" stop-color="#0342d3"/>
    </radialGradient>
    <linearGradient id="New_Gradient_371" data-name="New Gradient 371" x1="19.7505" y1="31.1998746" x2="46.0721445" y2="31.1998746" gradientUnits="userSpaceOnUse">
      <stop offset="0" stop-color="#999"/>
      <stop offset=".20224" stop-color="#f2f2f2"/>
      <stop offset=".516861" stop-color="#b2b2b2"/>
      <stop offset=".769669" stop-color="#b2b2b2"/>
      <stop offset="1" stop-color="#737373"/>
    </linearGradient>
    <linearGradient id="New_Gradient_371-2" data-name="New Gradient 371" x1="19.6772" y1="29.6064513" x2="39.0444" y2="29.6064513" gradientUnits="userSpaceOnUse"><stop offset="0" stop-color="#999"/><stop offset=".20224" stop-color="#f2f2f2"/><stop offset=".516861" stop-color="#b2b2b2"/><stop offset=".769669" stop-color="#b2b2b2"/><stop offset="1" stop-color="#737373"/></linearGradient>
    <mask id="mask-2" x="19.4976" y="18.1572032" width="19.5468" height="15.3007968" maskUnits="userSpaceOnUse">
      <path d="M29.3989,18.5498032c5.3282,0,9.6455,2.7880999,9.6455,6.2304998,0,3.4432999-4.3173,6.2313998-9.6455,6.2313998-5.3271,0-9.6484-2.7880999-9.6484-6.2313998,0-3.4423999,4.3213-6.2304998,9.6484-6.2304998Z" fill="#fff"/>
    </mask>
    <linearGradient id="New_Gradient_372" data-name="New Gradient 372" x1="19.7505" y1="24.780753" x2="39.0444" y2="24.780753" gradientUnits="userSpaceOnUse">
      <stop offset="0" stop-color="#999"/>
      <stop offset=".219101" stop-color="#b2b2b2"/>
      <stop offset=".466293" stop-color="#b2b2b2"/>
      <stop offset=".769669" stop-color="#f2f2f2"/>
      <stop offset="1" stop-color="#737373"/>
    </linearGradient>
    <mask id="mask-3" x="20.2398" y="19.8496031" width="18.3173" height="13.6083969" maskUnits="userSpaceOnUse">
      <path d="M29.3989,20.3281031c4.7949,0,8.6797,2.5136999,8.6797,5.6113999,0,3.0985999-3.8848,5.6083999-8.6797,5.6083999-4.7959,0-8.6806-2.5097999-8.6806-5.6083999,0-3.0976999,3.8847-5.6113999,8.6806-5.6113999Z" fill="#fff" stroke="#fff" stroke-miterlimit="3.8637" stroke-width=".957"/>
    </mask>
    <linearGradient id="New_Gradient_373" data-name="New Gradient 373" x1="20.7183" y1="25.938003" x2="38.0786" y2="25.938003" gradientUnits="userSpaceOnUse">
      <stop offset="0" stop-color="#5587c0"/>
      <stop offset=".20787" stop-color="#97bae0"/>
      <stop offset=".865173" stop-color="#b3e0ff"/>
      <stop offset="1" stop-color="#5587c0"/>
    </linearGradient>
    <radialGradient id="New_Gradient_374" data-name="New Gradient 374" cx="11.7985557" cy="17.4585252" fx="11.7985557" fy="17.4585252" r="15.5957383" gradientTransform="translate(13.6895779 6.6978781) scale(.8903)" gradientUnits="userSpaceOnUse">
      <stop offset="0" stop-color="#78dcff"/>
      <stop offset="1" stop-color="#b7e9ff"/>
    </radialGradient>
    <linearGradient id="linear-gradient" x1="23.3496376" y1="18.7318026" x2="34.8996827" y2="30.2818477" gradientUnits="userSpaceOnUse">
      <stop offset="0" stop-color="gray"/>
      <stop offset=".187809" stop-color="#82868b"/>
      <stop offset=".5233754" stop-color="#8a99aa"/>
      <stop offset=".9651405" stop-color="#95b7db"/>
      <stop offset="1" stop-color="#97bae0"/>
    </linearGradient>
    <linearGradient id="New_Gradient_375" data-name="New Gradient 375" x1="23.6234256" y1="19.0060518" x2="35.1730641" y2="30.5556903" gradientUnits="userSpaceOnUse">
      <stop offset="0" stop-color="gray"/>
      <stop offset="1" stop-color="#fff"/>
    </linearGradient>
    <mask id="mask-4" x="20.7183" y="21.5997936" width="17.3603" height="11.8582064" maskUnits="userSpaceOnUse">
      <path d="M26.5396,21.6348031c1.6347-.2002,3.0644.4785,3.1943,1.5175.1269,1.0381-1.0957,2.0429999-2.7315,2.2451999-1.6367.1982-3.0654-.4776-3.1933-1.5186-.1279-1.0391,1.0957-2.043903,2.7305-2.2440999Z" fill="#fff"/>
    </mask>
    <linearGradient id="New_Gradient_376" data-name="New Gradient 376" x1="39.7888148" y1="31.1453876" x2="33.3675848" y2="37.5666177" gradientUnits="userSpaceOnUse">
      <stop offset="0" stop-color="#4c4c4c"/>
      <stop offset=".623596" stop-color="#d9d9d9"/>
      <stop offset="1" stop-color="#4c4c4c"/>
    </linearGradient>
    <mask id="mask-5" x="35.3744544" y="33.1525513" width="10.9052956" height="10.8933013" maskUnits="userSpaceOnUse">
      <path d="M40.436,34.0645028l4.7237,4.7235999c2.7666,2.7665999-1.3828,6.9159973-4.1494,4.1493999l-4.7237-4.7226999c-2.7656-2.7665999,1.3819-6.9159998,4.1494-4.1502999Z" fill="#fff"/>
    </mask>
    <linearGradient id="New_Gradient_377" data-name="New Gradient 377" x1="45.1606191" y1="34.0639456" x2="36.2852279" y2="42.9393367" gradientUnits="userSpaceOnUse">
      <stop offset="0" stop-color="#a70000"/>
      <stop offset=".662918" stop-color="#df4e15"/>
      <stop offset="1" stop-color="#740000"/>
    </linearGradient>
    <linearGradient id="New_Gradient_146" data-name="New Gradient 146" x1="41.5941876" y1="38.4361254" x2="44.6738082" y2="43.3645485" gradientUnits="userSpaceOnUse">
      <stop offset="0" stop-color="#df4e15"/>
      <stop offset="1" stop-color="#c42e00"/>
    </linearGradient>
    <linearGradient id="New_Gradient_378" data-name="New Gradient 378" x1="41.5941876" y1="38.4361254" x2="44.6738082" y2="43.3645485" gradientUnits="userSpaceOnUse">
      <stop offset="0" stop-color="#df4e15"/>
      <stop offset="1" stop-color="#c42e00"/>
    </linearGradient>
  </defs>
  <path d="M41.0903,18.2646032l-2.7617.0391c-.0058-.0058-.0185-.0156-.0185-.0156l-1.4551.0098c.0029.0058.0029.0136.0058.0224l-1.7822.0166.5332-12.2969032-18.8721.003-.7138,12.25-1.1309-.0058968c-.001-.0019-.0029-.0146-.0029-.0146l-.5752.0127-5.124-.0206s-4.6641,6.5478998-2.5694,16.6787996l2.7637,3.8524999h.71l.0351,1.1777,28.3994-.1855,1.5899-.9844.7734-.0078,2.7656-3.8524999c2.0938-10.1308997-2.5703-16.6787996-2.5703-16.6787996Z" fill="url(#New_Gradient_54)" stroke="#000" stroke-miterlimit="3.8637" stroke-width="2"/>
  <g>
    <g>
      <g mask="url(#mask)">
        <g>
          <polygon points="41.1626 36.5967027 38.5317 39.7881026 10.1323 39.9736026 9.9683 31.1104029 9.5952 29.1436029 41.1626 36.5967027" fill="gray" fill-rule="evenodd"/>
          <polygon points="9.2798 41.2373026 12.5181 36.8525027 9.3022 27.223603 8.8696 30.8428029 9.2798 41.2373026" fill="url(#New_Gradient_410)" fill-rule="evenodd"/>
        </g>
      </g>
      <g mask="url(#mask-1)">
        <g>
          <path d="M41.0903,18.2646032l-8.166.1045-22.9433-.1045s-5.4522,6.5478998-3.3575,16.6787996l2.7637,3.8524999h4.7012l.0224.1357,26.7842-.1357,2.7656-3.8524999c2.0938-10.1308997-2.5703-16.6787996-2.5703-16.6787996Z" fill="url(#New_Gradient_13)" fill-rule="evenodd"/>
          <path d="M5.5532,17.4346032s3.9844,6.7694998,5.0674,17.8856995l-3.3144,5.1181999-1.7706-13.9570996.0176-9.0467998Z" fill="#e5e5e5" fill-rule="evenodd"/>
          <polygon points="6.1431 39.7373026 10.1089 33.459 45.0571 33.6631028 41.688 39.4141026 6.1431 39.7373026" fill="#b2b2b2" fill-rule="evenodd"/>
          <polygon points="38.5825 14.9844033 37.6099 24.427703 15.7671 25.193403 13.8198 17.3926032 38.5825 14.9844033" fill="#4c4c4c" fill-rule="evenodd"/>
          <path d="M6.6274,18.6826032s.2784,1.5635.128,4.2577999c-.1563,2.7870999-.7793,5.9931998-2.7022,10.9062997l39.625.2041c.666.0068.4141.8887-.251.8847l-40.3505-.2128c-.1827-.002-.3164-.1875-.2569-.3418,2.3223-5.6581999,3.5039-11.2989028,2.8428-15.3222996-.0586-.3565.9023-.7334.9648-.376Z" fill="url(#New_Gradient_391)"/>
          <path d="M6.1226,18.333c-.8262,1.5215031-.4981,5.077203.3027,8.501.9932,4.2314029,2.2783,4.6191028,3.6875,4.8281028l30.8975-.0332c2.8544-.8486,1.0927-8.7831998,1.3388-8.5311998,2.4785,5.7430999,2.2129,11.3436997,1.666,11.4149997l-37.9179.0049s.2187-2.8202999-.8438-8.0429998c-1.0556-5.1737999-3.0244-8.1210998-3.0244-8.1210998l3.8936-.0205032Z" fill="url(#New_Gradient_404)"/>
          <line x1="9.4741" y1="34.6016028" x2="7.4849" y2="38.1543027" fill="none" stroke="#fff" stroke-linecap="round" stroke-miterlimit="3.8637" stroke-width=".75"/>
        </g>
      </g>
      <polygon points="34.8013 24.233403 15.7671 25.193403 15.1528 19.6387031 16.7397 6.043 35.6118 6.04 34.8013 24.233403" fill="url(#New_Gradient_406)" fill-rule="evenodd"/>
      <g>
        <path d="M10.4663,31.332c.3203-.7548971,1.2393-1.1766971,2.0508-.9393971.8076.2422,1.209,1.0449.8877,1.7978-.3213.7578-1.2412,1.1748-2.0527.9365972-.8106-.2373972-1.2071-1.043-.8858-1.795Z" fill="url(#New_Gradient_403)" fill-rule="evenodd"/>
        <path d="M14.5015,31.3682028c.3252-.7569,1.2412-1.1787,2.0547-.9395.8134.2372971,1.2128,1.042.8896,1.7979-.3223.7578-1.2432,1.1767-2.0547.9375-.8135-.2403-1.208-1.0411028-.8896-1.7959Z" fill="url(#New_Gradient_398)" fill-rule="evenodd"/>
      </g>
      <g>
        <path d="M36.855,18.2979032c.7793,1.8789-.458,3.6551999-.458,3.6551999,0,0-5.5157-1.3701031-21.1319-.2148-.7246-2.0263999-.373-3.4657999-.373-3.4657999l-1.9834.038c-.2998,4.5781999-1.5781,9.7011998-1.5781,9.7011998,0,0,2.58,1.8018,14.4756,1.9297,10.7666.1231,14.1748-1.2832,14.1748-1.2832,0,0,1.8984-2.1063999.0849-7.1602029-.9219-2.581-1.7558-3.2098968-1.7558-3.2098968l-1.4551.0098Z" fill="url(#New_Gradient_405)" fill-rule="evenodd"/>
        <path d="M33.8901,22.0957031s1.9668.2422,3.3565.5107c0,0,.6972-2.5644031.2627-3.9159999h.5771s1.6846,2.9345968,1.8487,7.6503998c0,0-1.3086-1.7529-2.4776-2.5995999-1.0644-.7725-3.5674-1.6455-3.5674-1.6455Z" fill="url(#New_Gradient_390)" fill-rule="evenodd"/>
        <path d="M14.7085,22.4551031c.7861-.0752,4.4541-.4072,8.3018-.4766,0,0,2.8837-.0566,5.1074,2.4355999,2.4326,2.712897,10.748,3.2049999,10.748,3.2049999,0,0-13.5625,1.6298971-23.1621-.249l-2.2851-.3887c-.211-5.0184999.2138-8.3905998.2138-8.3905998l.7539-.0039s-.2549,1.5078.3223,3.8681999Z" fill="url(#New_Gradient_389)"/>
      </g>
    </g>
    <line x1="18.2202" y1="11.6279033" x2="32.4917" y2="11.7246033" fill="none" stroke="#999" stroke-linejoin="round" stroke-width=".75"/>
    <line x1="18.4839" y1="16.4902032" x2="30.9292" y2="16.5713032" fill="none" stroke="#999" stroke-linecap="round" stroke-linejoin="round" stroke-width=".75"/>
  </g>
  <g>
    <path d="M36.8608,32.1484028l1.0479,1.0479c.8232-.1504,1.7344.0732,2.5273.8682l4.7237,4.7235999c2.7666,2.7665999-1.3828,6.9159973-4.1494,4.1493999l-4.7237-4.7226999c-.7959-.7959-1.0185-1.7041-.8701-2.5282999l-1.8603-1.8623c-1.2608.3887-2.669.6084-4.1573.6084-5.3271,0-9.6484-2.7909999-9.6484-6.2333998,0-2.4950999.0019-3.3378999.0019-3.3378999l-.0019-.081c0-3.4423999,4.3213-6.2304998,9.6484-6.2304998,5.3282,0,9.6455,2.7880999,9.6455,6.2304998v3.4188999c0,1.4981-.8193,2.8749999-2.1836,3.9491999Z" fill="url(#New_Gradient_371)" stroke="#000" stroke-miterlimit="3.8637" stroke-width="1.9141"/>
    <path d="M19.7505,28.1992029c0-2.4950999-.0733-3.3378999-.0733-3.3378999l19.3672-.081s0-.0215,0,3.4188999c0,3.4423999-4.3173,6.2333998-9.6455,6.2333998-5.3271,0-9.6484-2.7909999-9.6484-6.2333998Z" fill="url(#New_Gradient_371-2)" fill-rule="evenodd"/>
    <g mask="url(#mask-2)">
      <g>
        <path d="M29.3989,18.5498032c5.3282,0,9.6455,2.7880999,9.6455,6.2304998,0,3.4432999-4.3173,6.2313998-9.6455,6.2313998-5.3271,0-9.6484-2.7880999-9.6484-6.2313998,0-3.4423999,4.3213-6.2304998,9.6484-6.2304998Z" fill="url(#New_Gradient_372)"/>
        <g mask="url(#mask-3)">
          <g>
            <path d="M29.3989,20.3281031c4.7949,0,8.6797,2.5136999,8.6797,5.6113999,0,3.0985999-3.8848,5.6083999-8.6797,5.6083999-4.7959,0-8.6806-2.5097999-8.6806-5.6083999,0-3.0976999,3.8847-5.6113999,8.6806-5.6113999Z" fill="url(#New_Gradient_373)"/>
            <path d="M29.3989,22.2412031c4.7949,0,8.6797,2.5107969,8.6797,5.6093999,0,3.0966999-3.8848,5.6073971-8.6797,5.6073971-4.7959,0-8.6806-2.5106971-8.6806-5.6073971,0-3.0986029,3.8847-5.6093999,8.6806-5.6093999Z" fill="url(#New_Gradient_374)"/>
            <path d="M29.3989,20.3281031c4.7949,0,8.6797,2.5136999,8.6797,5.6113999,0,3.0985999-3.8848,5.6083999-8.6797,5.6083999-4.7959,0-8.6806-2.5097999-8.6806-5.6083999,0-3.0976999,3.8847-5.6113999,8.6806-5.6113999Z" fill="none" stroke="#69c" stroke-miterlimit="3.8637" stroke-width=".957"/>
          </g>
        </g>
        <path d="M29.1245,18.1572032c5.1572,0,9.627,2.7138999,9.627,6.3495998,0,3.6357999-4.4698,6.3495998-9.627,6.3495998-5.1562,0-9.6269-2.7137999-9.6269-6.3495998,0-3.6356999,4.4707-6.3495998,9.6269-6.3495998ZM29.1245,18.8906032c-5.0723,0-8.8935,2.6454999-8.8935,5.6161999,0,2.9716999,3.8212,5.617197,8.8935,5.617197,5.0742,0,8.8936-2.6454971,8.8936-5.617197,0-2.9706999-3.8194-5.6161999-8.8936-5.6161999Z" fill="url(#linear-gradient)"/>
      </g>
    </g>
    <path d="M29.3989,18.4307032c5.1563,0,9.626,2.7157999,9.626,6.3495998,0,3.635697-4.4697,6.3505998-9.626,6.3505998-5.1562,0-9.6279-2.7149029-9.6279-6.3505998,0-3.6337999,4.4717-6.3495998,9.6279-6.3495998ZM29.3989,19.165c-5.0732,0-8.8926,2.6436031-8.8926,5.615303,0,2.971697,3.8194,5.6171999,8.8926,5.6171999,5.0713,0,8.8946-2.6455029,8.8946-5.6171999,0-2.9716999-3.8233-5.615303-8.8946-5.615303Z" fill="url(#New_Gradient_375)"/>
    <g mask="url(#mask-4)">
      <g>
        <path d="M26.5396,21.6348031c1.6347-.2002,3.0644.4785,3.1943,1.5175.1269,1.0381-1.0957,2.0429999-2.7315,2.2451999-1.6367.1982-3.0654-.4776-3.1933-1.5186-.1279-1.0391,1.0957-2.043903,2.7305-2.2440999Z" fill="#b3e0ff"/>
        <path d="M29.3989,22.2412031c4.7949,0,8.6797,2.5107969,8.6797,5.6093999,0,3.0966999-3.8848,5.6073971-8.6797,5.6073971-4.7959,0-8.6806-2.5106971-8.6806-5.6073971,0-3.0986029,3.8847-5.6093999,8.6806-5.6093999Z" fill="#fff"/>
      </g>
    </g>
    <path d="M35.8589,31.1465029l3.9287,3.9286999c1.6602,1.6611-.8301,4.1513999-2.4893,2.4901999l-3.9306-3.9296999c-1.6612-1.6601.831-4.1473999,2.4912-2.4891999Z" fill="url(#New_Gradient_376)"/>
    <g mask="url(#mask-5)">
      <g>
        <path d="M40.436,34.0645028l4.7237,4.7235999c2.7666,2.7665999-1.3828,6.9159973-4.1494,4.1493999l-4.7237-4.7226999c-2.7656-2.7665999,1.3819-6.9159998,4.1494-4.1502999Z" fill="url(#New_Gradient_377)"/>
        <path d="M43.1333,37.9951027c1.6035,0,2.9072,1.3008,2.9072,2.9052999,0,1.6035-1.3037,2.9061999-2.9072,2.9061999s-2.9053-1.3027-2.9053-2.9061999c0-1.6045,1.3018-2.9052999,2.9053-2.9052999Z" fill="url(#New_Gradient_146)" stroke="#a70000" stroke-miterlimit="3.8637" stroke-width=".4785"/>
        <path d="M43.1333,37.9951027c1.6035,0,2.9072,1.3008,2.9072,2.9052999,0,1.6035-1.3037,2.9061999-2.9072,2.9061999s-2.9053-1.3027-2.9053-2.9061999c0-1.6045,1.3018-2.9052999,2.9053-2.9052999Z" fill="url(#New_Gradient_378)"/>
        <line x1="36.5356" y1="34.8535028" x2="40.3276" y2="38.6455027" fill="none" stroke="#ff7845" stroke-linecap="round" stroke-miterlimit="3.8637" stroke-width="1.4356"/>
      </g>
    </g>
  </g>
</svg>