<?xml version="1.0" encoding="UTF-8"?>
<svg id="Set_3" data-name="Set 3" xmlns="http://www.w3.org/2000/svg" width="48" height="48" viewBox="0 0 48 48">
  <line x1="13.0832" y1="37.7395" x2="35.8093" y2="37.7395" fill="none" stroke="#000" stroke-linecap="round" stroke-miterlimit="3.8637" stroke-width=".7125"/>
  <polyline points="13.0049 39.7116 13.0049 42.259 7.24885 37.7395 13.0049 33.2162 13.0049 35.83"/>
  <path d="M16.7837,13.7983c-.1545-1.1895-.5732-2.203-2.601-2.5766v5.2667c3.0197.8805,4.848,1.4107,4.848,4.4725,0,3.7468-3.0403,4.7386-4.848,4.7386v2.1149h-1.035v-2.1149c-2.7333-.1546-4.8707-1.301-4.8707-5.1123h1.9389c.132,2.3577.7278,3.152,2.9318,3.504v-5.8399c-2.248-.5302-4.56257-1.3011-4.56257-4.3414,0-2.3811,1.93987-4.2984,4.56257-4.2984v-1.4106h1.035v1.4106c1.3889.1116,4.3414.6397,4.4734,4.1868h-1.8724ZM13.1477,11.2217c-1.6973,0-2.6227,1.211-2.6227,2.5551,0,1.5653,1.3001,2.2695,2.6227,2.4907v-5.0458ZM14.1827,24.0912c1.9613,0,2.9091-1.3441,2.9091-2.7781,0-1.2325-.7933-2.1579-1.7187-2.4456l-1.1904-.3736v5.5973Z"/>
  <path d="M26.0946,10.3824c2.0493,0,3.7466,1.6513,3.7466,3.7232,0,2.0717-1.6757,3.768-3.7466,3.768-2.072,0-3.7682-1.6512-3.7682-3.768,0-2.0936,1.6962-3.7232,3.7682-3.7232ZM26.0719,16.332c1.2786,0,2.2266-1.0135,2.2266-2.2264,0-1.2345-.9919-2.1815-2.2039-2.1815-1.2562,0-2.2256.9919-2.2256,2.1815,0,1.3675,1.0349,2.2264,2.2029,2.2264ZM27.4827,26.1163h-1.1896l8.7042-15.912h1.2121l-8.7267,15.912ZM36.452,18.3588c2.0495,0,3.7466,1.6533,3.7466,3.7252s-1.6746,3.768-3.7466,3.768c-2.0719,0-3.7682-1.653-3.7682-3.768,0-2.0934,1.6963-3.7252,3.7682-3.7252ZM36.4296,24.3084c1.2786,0,2.2264-1.0133,2.2264-2.2244,0-1.2345-.9919-2.1815-2.204-2.1815-1.2561,0-2.2254.9901-2.2254,2.1815,0,1.3655,1.035,2.2244,2.203,2.2244Z"/>
</svg>