<?xml version="1.0" encoding="UTF-8"?>
<svg id="Icons_-_24x24" data-name="Icons - 24x24" xmlns="http://www.w3.org/2000/svg" width="48" height="48" xmlns:xlink="http://www.w3.org/1999/xlink" viewBox="0 0 48 48">
  <defs>
    <linearGradient id="linear-gradient" x1="7.4266016" y1="33.6077682" x2="-8.4270168" y2="-17.3493534" gradientTransform="translate(23.7612 15.8629) rotate(7.0020657)" gradientUnits="userSpaceOnUse">
      <stop offset="0" stop-color="#ccc"/>
      <stop offset=".264045" stop-color="#333"/>
      <stop offset=".606741" stop-color="#a4a4a4"/>
      <stop offset="1" stop-color="#000"/>
    </linearGradient>
    <linearGradient id="White_Black" data-name="White, Black" x1="-8.3364008" y1="7.6073098" x2="4.0334015" y2="21.9181586" gradientTransform="translate(23.7612 15.8629) rotate(7.0020657)" gradientUnits="userSpaceOnUse">
      <stop offset="0" stop-color="#fff"/>
      <stop offset="1" stop-color="#000"/>
    </linearGradient>
    <linearGradient id="linear-gradient-2" x1="17.4563868" y1="23.0930656" x2="21.4911313" y2="25.192642" gradientUnits="userSpaceOnUse">
      <stop offset="0" stop-color="#df4e15"/>
      <stop offset="1" stop-color="#740000"/>
    </linearGradient>
    <radialGradient id="radial-gradient" cx="29.9919416" cy="8.0622613" fx="29.9919416" fy="8.0622613" r="12.3546967" gradientUnits="userSpaceOnUse">
      <stop offset="0" stop-color="#e3e3e3"/>
      <stop offset="1" stop-color="#525252"/>
    </radialGradient>
    <linearGradient id="linear-gradient-3" x1="7.9001023" y1="9.4025555" x2="1.0755572" y2="-12.5330787" gradientTransform="translate(23.7612 15.8629) rotate(7.0020657)" gradientUnits="userSpaceOnUse">
      <stop offset="0" stop-color="#ccc"/>
      <stop offset=".264045" stop-color="#595959"/>
      <stop offset=".606741" stop-color="#dbdbdb"/>
      <stop offset="1" stop-color="#a8a8a8"/>
    </linearGradient>
  </defs>
  <g>
    <path d="M40.8325,39.5928c-9.8994-6.6231-25.8193,15.6504-33.3994,1.7441" fill="none"/>
    <path d="M41.2603,38.9814c-10.5699-6.2612-25.6138,14.6954-33.1529,2.0352-.4878-.8184-1.8418-.1875-1.3486.6406,8.6811,14.5762,22.9097-7.813,33.646-1.4531.8227.4873,1.685-.7314.8555-1.2227h0Z"/>
  </g>
  <path d="M36.2427,18.269c.0918-.1113.1885-.2246.2724-.3496,2.8028-4,1.8301-9.5156-2.1699-12.3164-4.0019-2.8047-9.5185-1.834-12.3213,2.1699-.0986.1446-.1816.2911-.2734.4375-.4961-.1601-1.0401-.0996-1.4395.2422-.6035.5215-.6015,1.4942.0313,2.1465.1025.1055.2002.2012.3017.3067-.3222,1.4296-.2832,2.9101.1026,4.3066-4.3526,7.0488-8.7061,14.0996-13.0606,21.1445-1.0449,1.6934-.8359,3.6719.4102,4.5.7539.5,1.124.7618,1.8506,1.295,1.206.8867,3.1367.4062,4.3681-1.1504,5.084-6.4453,10.1719-12.8828,15.2579-19.3243,1.5576-.0546,3.0888-.5078,4.4238-1.3496.2275.1016.4512.2032.6875.3125.8291.3711,1.7471.0371,2.0283-.705.2246-.5918.0068-1.2422-.4697-1.6661Z" fill="url(#linear-gradient)" stroke="#000" stroke-linecap="round" stroke-linejoin="round" stroke-width="2"/>
  <path d="M14.3149,41.0015c-1.2314,1.5566-3.1621,2.0371-4.3681,1.1504-.7266-.5332-1.0967-.795-1.8506-1.295-1.2461-.8281-1.4551-2.8066-.4102-4.5,4.4102-7.1367,8.8213-14.2793,13.2305-21.4218,1.0439-1.6856,3.4561-2.1563,5.3096-.9239,1.1152.7442,1.666,1.1309,2.748,1.9278,1.7901,1.3164,2.1758,3.7422.9453,5.3007-5.2041,6.586-10.4052,13.1719-15.6045,19.7618Z" fill="url(#White_Black)"/>
  <g>
    <path d="M18.9575,27.7534c-.2246.25-.7441.1973-1.1699-.1074-.2568-.1856-.3848-.2773-.6465-.4531-.4326-.295-.6621-.7657-.5029-1.0645.6748-1.2539,1.3486-2.5156,2.0244-3.7715.1582-.2929.8193-.2011,1.4629.2403.3867.2636.5762.3984.9609.6738.6309.4512.9502,1.0391.7237,1.2891-.9512,1.0644-1.9014,2.1289-2.8526,3.1933Z" fill="#740000"/>
    <path d="M19.1011,26.5835c-.2256.25-.7451.1953-1.168-.1074-.2588-.1836-.3877-.2754-.6494-.4532-.4316-.2929-.6611-.7656-.5-1.0644.6738-1.2578,1.3476-2.5137,2.0225-3.7695.1591-.2989.8183-.1993,1.4619.2382.3877.2657.5791.4004.9599.6719.6328.4531.9522,1.041.7237,1.293-.9473,1.0605-1.9004,2.1269-2.8506,3.1914Z" fill="url(#linear-gradient-2)"/>
  </g>
  <path d="M36.5151,17.9194c-2.8007,4.002-8.3164,4.9746-12.3203,2.1739-4-2.8028-4.9717-8.3184-2.1709-12.3204,2.8028-4.0039,8.3194-4.9746,12.3213-2.1699,4,2.8008,4.9727,8.3164,2.1699,12.3164Z" fill="url(#radial-gradient)"/>
  <path d="M36.7124,19.9351c-.2812.7421-1.1992,1.0761-2.0283.705-6.4414-2.8886-9.4229-4.9785-14.3418-10.041-.6328-.6523-.6348-1.625-.0313-2.1465h0c.6045-.5214,1.5557-.4394,2.1465.1739,4.5811,4.7109,7.3613,6.664,13.3604,9.3496.7715.3496,1.1787,1.2129.8945,1.959h0Z" fill="url(#linear-gradient-3)"/>
</svg>