<?xml version="1.0" encoding="UTF-8"?>
<svg id="Icons_-_24x24" data-name="Icons - 24x24" xmlns="http://www.w3.org/2000/svg" width="48" height="48" xmlns:xlink="http://www.w3.org/1999/xlink" viewBox="0 0 48 48">
  <defs>
    <linearGradient id="New_Gradient_371" data-name="New Gradient 371" x1="4.3598963" y1="26.9033" x2="33.3246955" y2="26.9033" gradientUnits="userSpaceOnUse">
      <stop offset="0" stop-color="#999"/>
      <stop offset=".20224" stop-color="#f2f2f2"/>
      <stop offset=".516861" stop-color="#b2b2b2"/>
      <stop offset=".769669" stop-color="#b2b2b2"/>
      <stop offset="1" stop-color="#737373"/>
    </linearGradient>
    <linearGradient id="New_Gradient_376" data-name="New Gradient 376" x1="36.7927906" y1="28.6133177" x2="27.1494655" y2="38.2566428" gradientUnits="userSpaceOnUse">
      <stop offset="0" stop-color="#4c4c4c"/>
      <stop offset=".623596" stop-color="#d9d9d9"/>
      <stop offset="1" stop-color="#4c4c4c"/>
    </linearGradient>
    <linearGradient id="New_Gradient_377" data-name="New Gradient 377" x1="43.5270299" y1="31.661098" x2="30.1966201" y2="44.9915078" gradientUnits="userSpaceOnUse">
      <stop offset="0" stop-color="#a70000"/>
      <stop offset=".662918" stop-color="#df4e15"/>
      <stop offset="1" stop-color="#740000"/>
    </linearGradient>
    <linearGradient id="New_Gradient_146" data-name="New Gradient 146" x1="38.878293" y1="39.3071116" x2="41.9072225" y2="44.1544121" gradientUnits="userSpaceOnUse">
      <stop offset="0" stop-color="#df4e15"/>
      <stop offset="1" stop-color="#c42e00"/>
    </linearGradient>
    <linearGradient id="New_Gradient_378" data-name="New Gradient 378" x1="38.878293" y1="39.3071116" x2="41.9072225" y2="44.1544121" gradientUnits="userSpaceOnUse">
      <stop offset="0" stop-color="#df4e15"/>
      <stop offset="1" stop-color="#c42e00"/>
    </linearGradient>
    <mask id="mask" x="3.981" y="4.04" width="29.3436955" height="31.6153" maskUnits="userSpaceOnUse">
      <path d="M18.8451959,4.8506c7.9970998,0,14.4794996,5.7637,14.4794996,12.875s-6.4823998,12.8769-14.4794996,12.8769c-7.9989998,0-14.4823996-5.7656-14.4823996-12.8769s6.4833998-12.875,14.4823996-12.875Z" fill="#fff"/>
    </mask>
    <linearGradient id="New_Gradient_372" data-name="New Gradient 372" x1="4.3627963" y1="17.72655" x2="33.3246955" y2="17.72655" gradientUnits="userSpaceOnUse">
      <stop offset="0" stop-color="#999"/>
      <stop offset=".219101" stop-color="#b2b2b2"/>
      <stop offset=".466293" stop-color="#b2b2b2"/>
      <stop offset=".769669" stop-color="#f2f2f2"/>
      <stop offset="1" stop-color="#737373"/>
    </linearGradient>
    <mask id="mask-1" x="5.3345" y="8.0498" width="27.0184956" height="27.6055" maskUnits="userSpaceOnUse">
      <path d="M18.8451959,8.5283c7.1943998,0,13.0292997,5.1914,13.0292997,11.5899,0,6.4023-5.8348999,11.5879-13.0292997,11.5879-7.2001959,0-13.0321959-5.1856-13.0321959-11.5879,0-6.3985,5.832-11.5899,13.0321959-11.5899Z" fill="#fff" stroke="#fff" stroke-miterlimit="3.8637" stroke-width=".957"/>
    </mask>
    <linearGradient id="New_Gradient_373" data-name="New Gradient 373" x1="5.813" y1="20.1172" x2="31.8744956" y2="20.1172" gradientUnits="userSpaceOnUse">
      <stop offset="0" stop-color="#5587c0"/>
      <stop offset=".20787" stop-color="#97bae0"/>
      <stop offset=".865173" stop-color="#b3e0ff"/>
      <stop offset="1" stop-color="#5587c0"/>
    </linearGradient>
    <radialGradient id="New_Gradient_374" data-name="New Gradient 374" cx="32.4997569" cy="52.9274463" fx="32.4997569" fy="52.9274463" r="23.4136887" gradientTransform="translate(-17.9040221 -52.3745) scale(.8903 1.2253)" gradientUnits="userSpaceOnUse">
      <stop offset="0" stop-color="#78dcff"/>
      <stop offset="1" stop-color="#b7e9ff"/>
    </radialGradient>
    <linearGradient id="linear-gradient" x1="8.6615376" y1="7.388014" x2="28.2038656" y2="26.930342" gradientUnits="userSpaceOnUse">
      <stop offset="0" stop-color="gray"/>
      <stop offset=".187809" stop-color="#82868b"/>
      <stop offset=".5233754" stop-color="#8a99aa"/>
      <stop offset=".9651405" stop-color="#95b7db"/>
      <stop offset="1" stop-color="#97bae0"/>
    </linearGradient>
    <linearGradient id="New_Gradient_375" data-name="New Gradient 375" x1="9.0724752" y1="7.9553368" x2="28.6138385" y2="27.4967" gradientUnits="userSpaceOnUse">
      <stop offset="0" stop-color="gray"/>
      <stop offset="1" stop-color="#fff"/>
    </linearGradient>
    <mask id="mask-2" x="5.813" y="11.1523046" width="26.0614956" height="24.5029954" maskUnits="userSpaceOnUse">
      <path d="M14.552196,11.2236c2.4521999-.4101,4.6015999.9903,4.7929999,3.1387.1914,2.1445-1.6435,4.2207-4.0995999,4.6367-2.4540999.4102-4.600596-.9902-4.7938999-3.1347-.1885-2.1485,1.6425-4.2227,4.1004999-4.6407Z" fill="#fff"/>
    </mask>
  </defs>
  <g>
    <path d="M43.6723953,38.9033c-1.7969-1.7949-3.7324999-3.7285-6.4169998-6.414-1.1221-1.1231-2.4306999-1.3965-3.6406999-1.1504l-2.9120999-2.9141c1.6475-2.0918,2.6220999-4.6309,2.6220999-7.3789v-1.1641h-.2178c.1328-.7011.2178-1.4199.2178-2.1562,0-1.1445-.1846-2.2481-.5-3.3047-.4434-1.5742-1.1885-3.0234-2.1815999-4.293-2.6034999-3.7148-7.1835998-6.0879-12.2109997-6.0879-7.7401998,0-14.4510959,5.6055-14.4510959,13.1192,0,1.0351.1385963,2.0312.3797963,2.9844.001.2929.002.5761.002.9023,0,7.1133,6.4833998,12.8789,14.4823996,12.8789,2.8848041,0,5.5683999-.7578,7.8261998-2.0547l.001.0039,3.2030999,3.2012c-.249,1.2109.0234,2.5215,1.1494,3.6465,2.6845999,2.6836,4.6221044,4.6172,6.4198998,6.414,2.6318999,2.6329,8.8564998-3.6035,6.2275998-6.2324Z" stroke="#000" stroke-linecap="round" stroke-linejoin="round" stroke-width="2"/>
    <g>
      <path d="M4.3598963,19.8818c.0009.377.0029.7403.0029,1.1641,0,7.1133,6.4833998,12.8789,14.4823996,12.8789,7.9970998,0,14.4794996-5.7656,14.4794996-12.8789v-1.1641H4.3598963Z" fill="url(#New_Gradient_371)" fill-rule="evenodd"/>
      <path d="M30.4115956,28.1357l5.9004044,5.9004c3.7685953,3.7715.0331954,7.5098-3.7412045,3.7383l-5.8974999-5.9004c-2.4940999-2.4922,1.2442-6.2285,3.7382999-3.7383Z" fill="url(#New_Gradient_376)"/>
      <g>
        <path d="M37.2553954,32.4893c2.6844999,2.6855,4.6200999,4.6191,6.4169998,6.414,2.6288999,2.6289-3.5956999,8.8653-6.2275998,6.2324-1.7977954-1.7968-3.7352999-3.7304-6.4198998-6.414-3.9286999-3.9297,2.3026999-10.1621,6.2304998-6.2324Z" fill="url(#New_Gradient_377)"/>
        <path d="M31.4428956,33.7158c2.2723999,2.2735,4.3944999,4.3965,5.9911998,5.9922" fill="none" stroke="#ff7845" stroke-linecap="round" stroke-miterlimit="3.8637" stroke-width="1.4356"/>
        <path d="M41.2406953,38.3232c2.1405999-.2675,3.3866999.9786,2.7538999,2.75-.6367,1.7754-2.5936999,3.7266-4.3671999,4.3614-1.7743954.6328-3.0174999-.6133-2.7489999-2.7539.2686046-2.1368,2.2216999-4.0899,4.3622999-4.3575Z" fill="url(#New_Gradient_146)" stroke="#a70000" stroke-miterlimit="3.8637" stroke-width=".4785"/>
        <path d="M41.2406953,38.3232c2.1405999-.2675,3.3866999.9786,2.7538999,2.75-.6367,1.7754-2.5936999,3.7266-4.3671999,4.3614-1.7743954.6328-3.0174999-.6133-2.7489999-2.7539.2686046-2.1368,2.2216999-4.0899,4.3622999-4.3575Z" fill="url(#New_Gradient_378)"/>
      </g>
      <g mask="url(#mask)">
        <g>
          <path d="M18.8451959,4.8506c7.9970998,0,14.4794996,5.7637,14.4794996,12.875s-6.4823998,12.8769-14.4794996,12.8769c-7.9989998,0-14.4823996-5.7656-14.4823996-12.8769s6.4833998-12.875,14.4823996-12.875Z" fill="url(#New_Gradient_372)"/>
          <g mask="url(#mask-1)">
            <g>
              <path d="M18.8451959,8.5283c7.1943998,0,13.0292997,5.1914,13.0292997,11.5899,0,6.4023-5.8348999,11.5879-13.0292997,11.5879-7.2001959,0-13.0321959-5.1856-13.0321959-11.5879,0-6.3985,5.832-11.5899,13.0321959-11.5899Z" fill="url(#New_Gradient_373)"/>
              <path d="M18.8451959,12.4775c7.1943998,0,13.0292997,5.1875,13.0292997,11.5899,0,6.3965-5.8348999,11.5879-13.0292997,11.5879-7.2001959,0-13.0321959-5.1914-13.0321959-11.5879,0-6.4024,5.832-11.5899,13.0321959-11.5899Z" fill="url(#New_Gradient_374)"/>
              <path d="M18.8451959,8.5283c7.1943998,0,13.0292997,5.1914,13.0292997,11.5899,0,6.4023-5.8348999,11.5879-13.0292997,11.5879-7.2001959,0-13.0321959-5.1856-13.0321959-11.5879,0-6.3985,5.832-11.5899,13.0321959-11.5899Z" fill="none" stroke="#69c" stroke-miterlimit="3.8637" stroke-width=".957"/>
            </g>
          </g>
          <path d="M18.4320959,4.04c7.7402998,0,14.4531996,5.6055,14.4531996,13.1192s-6.7128998,13.1191-14.4531996,13.1191c-7.7401998,0-14.4510959-5.6054-14.4510959-13.1191s6.7108961-13.1192,14.4510959-13.1192ZM18.4320959,5.5576c-7.6151998,0-13.3514997,5.4629-13.3514997,11.6016,0,6.1406,5.7362999,11.6054,13.3514997,11.6054,7.6152998,0,13.3515997-5.4648,13.3515997-11.6054,0-6.1387-5.7362999-11.6016-13.3515997-11.6016Z" fill="url(#linear-gradient)"/>
        </g>
      </g>
      <path d="M18.8451959,4.6084c7.7382998,0,14.4501996,5.6055,14.4501996,13.1172s-6.7118998,13.1191-14.4501996,13.1191c-7.7421959,0-14.4550996-5.6074-14.4550996-13.1191s6.7129037-13.1172,14.4550996-13.1172ZM18.8451959,6.124c-7.6151959,0-13.3495997,5.461-13.3495997,11.6016,0,6.1426,5.7344038,11.6035,13.3495997,11.6035,7.6122998,0,13.3495997-5.4609,13.3495997-11.6035,0-6.1406-5.7372999-11.6016-13.3495997-11.6016Z" fill="url(#New_Gradient_375)"/>
      <g mask="url(#mask-2)">
        <g>
          <path d="M14.552196,11.2236c2.4521999-.4101,4.6015999.9903,4.7929999,3.1387.1914,2.1445-1.6435,4.2207-4.0995999,4.6367-2.4540999.4102-4.600596-.9902-4.7938999-3.1347-.1885-2.1485,1.6425-4.2227,4.1004999-4.6407Z" fill="#b3e0ff"/>
          <path d="M18.8451959,12.4775c7.1943998,0,13.0292997,5.1875,13.0292997,11.5899,0,6.3965-5.8348999,11.5879-13.0292997,11.5879-7.2001959,0-13.0321959-5.1914-13.0321959-11.5879,0-6.4024,5.832-11.5899,13.0321959-11.5899Z" fill="#fff"/>
        </g>
      </g>
    </g>
  </g>
  <g>
    <polygon points="15.981 15.7549 17.981 15.7549 17.981 14.04 13.981 14.04 13.981 18.04 15.981 18.04 15.981 15.7549" fill="#16336e"/>
    <polygon points="15.981 22.3252 15.981 20.04 13.981 20.04 13.981 24.04 17.981 24.04 17.981 22.3252 15.981 22.3252" fill="#16336e"/>
    <polygon points="21.981 22.3252 19.981 22.3252 19.981 24.04 23.981 24.04 23.981 20.04 21.981 20.04 21.981 22.3252" fill="#16336e"/>
    <polygon points="19.981 14.04 19.981 15.7549 21.981 15.7549 21.981 18.04 23.981 18.04 23.981 14.04 19.981 14.04" fill="#16336e"/>
  </g>
</svg>