<?xml version="1.0" encoding="UTF-8"?>
<svg id="Set_3" data-name="Set 3" xmlns="http://www.w3.org/2000/svg" width="48" height="48" xmlns:xlink="http://www.w3.org/1999/xlink" viewBox="0 0 48 48">
  <defs>
    <linearGradient id="New_Gradient_37" data-name="New Gradient 37" x1="3.3802963" y1="27.1784" x2="32.3947955" y2="27.1784" gradientUnits="userSpaceOnUse">
      <stop offset="0" stop-color="#999"/>
      <stop offset=".20224" stop-color="#f2f2f2"/>
      <stop offset=".516861" stop-color="#b2b2b2"/>
      <stop offset=".769669" stop-color="#b2b2b2"/>
      <stop offset="1" stop-color="#737373"/>
    </linearGradient>
    <linearGradient id="New_Gradient_36" data-name="New Gradient 36" x1="35.8686974" y1="28.8912296" x2="26.2088752" y2="38.5510519" gradientUnits="userSpaceOnUse">
      <stop offset="0" stop-color="#4c4c4c"/>
      <stop offset=".623596" stop-color="#d9d9d9"/>
      <stop offset="1" stop-color="#4c4c4c"/>
    </linearGradient>
    <linearGradient id="New_Gradient_35" data-name="New Gradient 35" x1="42.6144472" y1="31.9442248" x2="29.2611482" y2="45.2975238" gradientUnits="userSpaceOnUse">
      <stop offset="0" stop-color="#a70000"/>
      <stop offset=".662918" stop-color="#df4e15"/>
      <stop offset="1" stop-color="#740000"/>
    </linearGradient>
    <linearGradient id="New_Gradient_34" data-name="New Gradient 34" x1="37.9577584" y1="39.6033618" x2="40.9918403" y2="44.4589079" gradientUnits="userSpaceOnUse">
      <stop offset="0" stop-color="#df4e15"/>
      <stop offset="1" stop-color="#c42e00"/>
    </linearGradient>
    <linearGradient id="New_Gradient_33" data-name="New Gradient 33" x1="37.9577584" y1="39.6033618" x2="40.9918403" y2="44.4589079" gradientUnits="userSpaceOnUse">
      <stop offset="0" stop-color="#df4e15"/>
      <stop offset="1" stop-color="#c42e00"/>
    </linearGradient>
    <mask id="mask" x="3.0008963" y="4.276" width="29.3938993" height="31.6692" maskUnits="userSpaceOnUse">
      <path d="M17.8903959,5.088c8.0106998,0,14.5043996,5.7735,14.5043996,12.897,0,7.1234-6.4936998,12.899-14.5043996,12.899-8.0125998,0-14.5070996-5.7756-14.5070996-12.899,0-7.1235,6.4944998-12.897,14.5070996-12.897Z" fill="#fff"/>
    </mask>
    <linearGradient id="New_Gradient_30" data-name="New Gradient 30" x1="3.3832963" y1="17.986" x2="32.3947955" y2="17.986" gradientUnits="userSpaceOnUse">
      <stop offset="0" stop-color="#999"/>
      <stop offset=".219101" stop-color="#b2b2b2"/>
      <stop offset=".466293" stop-color="#b2b2b2"/>
      <stop offset=".769669" stop-color="#f2f2f2"/>
      <stop offset="1" stop-color="#737373"/>
    </linearGradient>
    <mask id="mask-1" x="4.3575" y="8.2934" width="27.0630956" height="27.6518" maskUnits="userSpaceOnUse">
      <path d="M17.8903959,8.7719c7.2066998,0,13.0516997,5.2003,13.0516997,11.6098,0,6.4131-5.8449999,11.6076-13.0516997,11.6076-7.2124998,0-13.0543959-5.1945-13.0543959-11.6076,0-6.4095,5.8418961-11.6098,13.0543959-11.6098Z" fill="#fff" stroke="#fff" stroke-miterlimit="3.8637" stroke-width=".957"/>
    </mask>
    <linearGradient id="New_Gradient_31" data-name="New Gradient 31" x1="4.836" y1="20.3806" x2="30.9420956" y2="20.3806" gradientUnits="userSpaceOnUse">
      <stop offset="0" stop-color="#5587c0"/>
      <stop offset=".20787" stop-color="#97bae0"/>
      <stop offset=".865173" stop-color="#b3e0ff"/>
      <stop offset="1" stop-color="#5587c0"/>
    </linearGradient>
    <radialGradient id="New_Gradient_32" data-name="New Gradient 32" cx="7.7547596" cy="17.828287" fx="7.7547596" fy="17.828287" r="23.4536118" gradientTransform="translate(3.1583779 -9.1169) scale(.8903 1.2253)" gradientUnits="userSpaceOnUse">
      <stop offset="0" stop-color="#78dcff"/>
      <stop offset="1" stop-color="#b7e9ff"/>
    </radialGradient>
    <linearGradient id="linear-gradient" x1="7.6893759" y1="7.6297014" x2="27.2650448" y2="27.2053703" gradientUnits="userSpaceOnUse">
      <stop offset="0" stop-color="gray"/>
      <stop offset=".187809" stop-color="#82868b"/>
      <stop offset=".5233754" stop-color="#8a99aa"/>
      <stop offset=".9651405" stop-color="#95b7db"/>
      <stop offset="1" stop-color="#97bae0"/>
    </linearGradient>
    <linearGradient id="New_Gradient_29" data-name="New Gradient 29" x1="8.1010885" y1="8.1980318" x2="27.6757371" y2="27.7726805" gradientUnits="userSpaceOnUse">
      <stop offset="0" stop-color="gray"/>
      <stop offset="1" stop-color="#fff"/>
    </linearGradient>
    <mask id="mask-2" x="4.836" y="11.4004521" width="26.1060956" height="24.5447479" maskUnits="userSpaceOnUse">
      <path d="M13.590096,11.4719c2.4563999-.4109,4.6094999.9919,4.8011999,3.144.1917041,2.1482-1.6464,4.228-4.1065999,4.6447-2.4581999.4109-4.6084999-.9919-4.8021999-3.1402-.1887-2.152,1.6454-4.2298,4.1075999-4.6485Z" fill="#fff"/>
    </mask>
  </defs>
  <g>
    <path d="M42.76,39.1988c-1.8-1.7979-3.7387046-3.7348-6.4279046-6.425-1.1240954-1.1249-2.4347999-1.3988-3.6467999-1.1523l-2.9171999-2.919c1.6502-2.0954,2.6266999-4.6387,2.6266999-7.3916v-1.166h-.2182c.133-.7024.2182-1.4224.2182-2.1599,0-1.1465-.185-2.2518-.5009-3.3104-.4441-1.5769-1.1906-3.0286-2.1854999-4.3004-2.6078999-3.7211-7.1958998-6.0982-12.2316997-6.0982-7.7535998,0-14.4757996,5.615-14.4757996,13.1416,0,1.0368.1388,2.0347.3804,2.9895.001.2933.002.577.002.9038,0,7.1255,6.4944998,12.901,14.5070996,12.901,2.8897999,0,5.5778999-.7591,7.8396041-2.0583l.001.004,3.2084956,3.2066c-.2494956,1.2129.0236,2.5257,1.1513,3.6527,2.6892044,2.6881,4.6300999,4.625,6.4309998,6.4251,2.6362999,2.6373,8.8714998-3.6097,6.2382046-6.2432Z" stroke="#000" stroke-linecap="round" stroke-linejoin="round" stroke-width="2"/>
    <g>
      <path d="M3.3802963,20.1449c.001.3776.003.7415.003,1.166,0,7.1255,6.4944998,12.901,14.5070996,12.901,8.0106998,0,14.5043996-5.7755,14.5043996-12.901v-1.166H3.3802963Z" fill="url(#New_Gradient_37)" fill-rule="evenodd"/>
      <path d="M29.4765956,28.413l5.9104999,5.9103c3.7749999,3.778.0332,7.5226-3.7475999,3.7447l-5.9074956-5.9104c-2.4985042-2.4965,1.2460957-6.2393,3.7445956-3.7446Z" fill="url(#New_Gradient_36)"/>
      <g>
        <path d="M36.3320954,32.7738c2.6891999,2.6902,4.6279046,4.6271,6.4279046,6.425,2.6332952,2.6335-3.6019046,8.8805-6.2382046,6.2432-1.8009-1.8001-3.7417954-3.737-6.4309998-6.4251-3.9352999-3.9363,2.3067999-10.1794,6.2412998-6.2431Z" fill="url(#New_Gradient_35)"/>
        <path d="M30.5095956,34.0025c2.2764044,2.2773,4.4020999,4.4039,6.0014044,6.0024" fill="none" stroke="#ff7845" stroke-linecap="round" stroke-miterlimit="3.8637" stroke-width="1.4356"/>
        <path d="M40.3242953,38.6178c2.1441999-.2681,3.3923999.9803,2.7584999,2.7547-.6377,1.7784-2.5981999,3.7329-4.3746999,4.3688-1.7774.6339-3.0226999-.6144-2.7536999-2.7587.2691-2.1402,2.2253999-4.0968,4.3698999-4.3648Z" fill="url(#New_Gradient_34)" stroke="#a70000" stroke-miterlimit="3.8637" stroke-width=".4785"/>
        <path d="M40.3242953,38.6178c2.1441999-.2681,3.3923999.9803,2.7584999,2.7547-.6377,1.7784-2.5981999,3.7329-4.3746999,4.3688-1.7774.6339-3.0226999-.6144-2.7536999-2.7587.2691-2.1402,2.2253999-4.0968,4.3698999-4.3648Z" fill="url(#New_Gradient_33)"/>
      </g>
      <g mask="url(#mask)">
        <g>
          <path d="M17.8903959,5.088c8.0106998,0,14.5043996,5.7735,14.5043996,12.897,0,7.1234-6.4936998,12.899-14.5043996,12.899-8.0125998,0-14.5070996-5.7756-14.5070996-12.899,0-7.1235,6.4944998-12.897,14.5070996-12.897Z" fill="url(#New_Gradient_30)"/>
          <g mask="url(#mask-1)">
            <g>
              <path d="M17.8903959,8.7719c7.2066998,0,13.0516997,5.2003,13.0516997,11.6098,0,6.4131-5.8449999,11.6076-13.0516997,11.6076-7.2124998,0-13.0543959-5.1945-13.0543959-11.6076,0-6.4095,5.8418961-11.6098,13.0543959-11.6098Z" fill="url(#New_Gradient_31)"/>
              <path d="M17.8903959,12.7281c7.2066998,0,13.0516997,5.1962,13.0516997,11.6095,0,6.4074-5.8449999,11.6076-13.0516997,11.6076-7.2124998,0-13.0543959-5.2002-13.0543959-11.6076,0-6.4133,5.8418961-11.6095,13.0543959-11.6095Z" fill="url(#New_Gradient_32)"/>
              <path d="M17.8903959,8.7719c7.2066998,0,13.0516997,5.2003,13.0516997,11.6098,0,6.4131-5.8449999,11.6076-13.0516997,11.6076-7.2124998,0-13.0543959-5.1945-13.0543959-11.6076,0-6.4095,5.8418961-11.6098,13.0543959-11.6098Z" fill="none" stroke="#69c" stroke-miterlimit="3.8637" stroke-width=".957"/>
            </g>
          </g>
          <path d="M17.4766959,4.276c7.7534998,0,14.4776996,5.615,14.4776996,13.1416,0,7.5265-6.7241998,13.1414-14.4776996,13.1414-7.7535998,0-14.4757996-5.6149-14.4757996-13.1414,0-7.5266,6.7221998-13.1416,14.4757996-13.1416ZM17.4766959,5.7962c-7.6283998,0-13.3743997,5.4722-13.3743997,11.6214,0,6.1511,5.7459999,11.6253,13.3743997,11.6253,7.6281998,0,13.3741997-5.4742,13.3741997-11.6253,0-6.1492-5.7459999-11.6214-13.3741997-11.6214Z" fill="url(#linear-gradient)"/>
        </g>
      </g>
      <path d="M17.8903959,4.8454c7.7514998,0,14.4748996,5.615,14.4748996,13.1396,0,7.5244-6.7233998,13.1414-14.4748996,13.1414-7.7553959,0-14.4795996-5.617-14.4795996-13.1414,0-7.5246,6.7242037-13.1396,14.4795996-13.1396ZM17.8903959,6.3636c-7.6281998,0-13.3723959,5.4703-13.3723959,11.6214,0,6.1531,5.7441961,11.6232,13.3723959,11.6232,7.6253998,0,13.3723997-5.4701,13.3723997-11.6232,0-6.1511-5.7469999-11.6214-13.3723997-11.6214Z" fill="url(#New_Gradient_29)"/>
      <g mask="url(#mask-2)">
        <g>
          <path d="M13.590096,11.4719c2.4563999-.4109,4.6094999.9919,4.8011999,3.144.1917041,2.1482-1.6464,4.228-4.1065999,4.6447-2.4581999.4109-4.6084999-.9919-4.8021999-3.1402-.1887-2.152,1.6454-4.2298,4.1075999-4.6485Z" fill="#b3e0ff"/>
          <path d="M17.8903959,12.7281c7.2066998,0,13.0516997,5.1962,13.0516997,11.6095,0,6.4074-5.8449999,11.6076-13.0516997,11.6076-7.2124998,0-13.0543959-5.2002-13.0543959-11.6076,0-6.4133,5.8418961-11.6095,13.0543959-11.6095Z" fill="#fff"/>
        </g>
      </g>
    </g>
  </g>
  <g>
    <polygon points="15.021396 16.0109 17.0247959 16.0109 17.0247959 14.2931 13.017896 14.2931 13.017896 18.3 15.021396 18.3 15.021396 16.0109" fill="#16336e"/>
    <polygon points="15.021396 22.5925 15.021396 20.3034 13.017896 20.3034 13.017896 24.3102 17.0247959 24.3102 17.0247959 22.5925 15.021396 22.5925" fill="#16336e"/>
    <polygon points="21.0315958 22.5925 19.0281959 22.5925 19.0281959 24.3102 23.035 24.3102 23.035 20.3034 21.0315958 20.3034 21.0315958 22.5925" fill="#16336e"/>
    <polygon points="19.0281959 14.2931 19.0281959 16.0109 21.0315958 16.0109 21.0315958 18.3 23.035 18.3 23.035 14.2931 19.0281959 14.2931" fill="#16336e"/>
  </g>
</svg>