<?xml version="1.0" encoding="UTF-8"?>
<svg id="Set_2" data-name="Set 2" xmlns="http://www.w3.org/2000/svg" width="48" height="48" viewBox="0 0 48 48">
  <g>
    <g>
      <polygon points="41.7198892 33.9994 41.7198892 17.9721 39.7164893 17.9721 7.6658901 17.9721 7.6658901 31.996 7.6658901 33.9994 41.7198892 33.9994" fill="#555"/>
      <polygon points="41.7198892 33.9994 41.7198892 17.9721 39.7164893 17.9721 7.6658901 17.9721 7.6658901 31.996 7.6658901 33.9994 41.7198892 33.9994" fill="none" stroke="#555" stroke-width="2"/>
    </g>
    <rect x="7.6658901" y="17.9721" width="34.0581099" height="16.0233" fill="silver"/>
    <rect x="9.6692901" y="19.9755" width="32.0525992" height="14.0219" fill="#fff"/>
  </g>
  <g>
    <path d="M14.6856899,28.939l-.9821,2.9729h-1.262l3.2124999-9.4517h1.4713l3.2260999,9.4517h-1.3048l-1.0095-2.9729h-3.3514999ZM17.7846899,27.9852l-.9392-2.7204c-.1954899-.6173-.3363-1.1779-.4772-1.7256h-.0412c-.1270899.5477-.2817,1.1368-.4636,1.7109l-.9254,2.7351h2.8465999Z" fill="#4d4d4d"/>
    <path d="M21.7406898,22.6002c.5321-.1262,1.3871-.2103,2.2283999-.2103,1.2209103,0,2.0053999.2103,2.5805999.6867.491.3648.8001.9264.8001,1.6689,0,.9264-.6162,1.7255-1.5985,2.0757v.0421c.8981.2103,1.9487104.9538,1.9487104,2.3556,0,.8138-.3227104,1.431-.8138104,1.8938-.6436.6027-1.7101.8833-3.2536999.8833-.8412,0-1.4849-.0557-1.8918-.1126v-9.2832ZM22.9595897,26.471h1.1092c1.2756,0,2.0326999-.6878,2.0326999-1.5995,0-1.0937-.8274-1.5426-2.0618999-1.5426-.5595897,0-.8825.042-1.08.0841v3.058ZM22.9595897,30.9865c.2524103.0421.5888.0557,1.0251.0557,1.262,0,2.4258999-.4626,2.4258999-1.8371,0-1.2756-1.1093-1.8233-2.4414999-1.8233h-1.0095v3.6047Z" fill="#4d4d4d"/>
  </g>
  <g opacity=".9">
    <path d="M33.7102894,31.9295c.0058.5185.0078.7767.0118,1.2932,1.5631.4812.0096.6241,3.9909999.7767-.129-.5771-.1955-.8646-.3247-1.4398-3.8677999-.1645-2.1618999-.1469-3.6780999-.6301ZM27.7,33.9251c3.9813895-.1526,2.426-.2877,3.9891895-.7689.0058105-.5165.0119-.7747.0177-1.2932-1.5162.4852.1879.4578-3.6820999.6221-.129.5753-.1937.8628-.3247896,1.44Z"/>
    <path d="M31.7068895,22.0455c-.0058-.5185-.0078-.7768-.0118895-1.2932-1.563-.4813-.0096105-.6241-3.9909104-.7768.129.5772.1955.8647.3247,1.4401,3.8677999.1643,2.1618999.1466,3.6780999.6299ZM37.7170893,19.9755c-3.9813999.1527-2.4258999.2955-3.9891999.7768-.0058.5164-.0118.7747-.0176,1.2932,1.5162-.4853-.1877-.4656,3.6820999-.6299.129-.5754.1937-.8629.3247-1.4401Z"/>
    <path d="M31.7068895,31.996h2.0033999v-10.017h-2.0033999v10.017Z"/>
  </g>
</svg>