<?xml version="1.0" encoding="UTF-8"?>
<svg id="Set_5" data-name="Set 5" xmlns="http://www.w3.org/2000/svg" width="48" height="48" xmlns:xlink="http://www.w3.org/1999/xlink" viewBox="0 0 48 48">
  <defs>
    <mask id="mask" x="7.0088816" y="10.1501" width="32.5015395" height="33.3033" maskUnits="userSpaceOnUse">
      <path d="M10.245,22.6793l13.1826812,10.5885-.225-6.3879c2.7251999-.092,8.2854998-.3092,9.4748998,3.2517,2.2011999,6.6461-9.6529998,12.3218-9.6529998,12.3218,9.1170998-.4912,18.6527995-8.0411,14.4737996-18.199-3.5685999-8.6672-13.6169997-6.8711-13.9885996-6.8673l-.2073-6.237-13.0574812,11.5292Z" fill="#fff" stroke="#fff" stroke-linecap="round" stroke-linejoin="round" stroke-width="2"/>
    </mask>
    <radialGradient id="New_Gradient_150" data-name="New Gradient 150" cx="34.7426405" cy="19.7616378" fx="34.7426405" fy="19.7616378" r="29.0870236" gradientUnits="userSpaceOnUse">
      <stop offset="0" stop-color="#fff"/>
      <stop offset="1" stop-color="#00cd00"/>
    </radialGradient>
    <radialGradient id="New_Gradient_151" data-name="New Gradient 151" cx="-614.4359453" cy="382.9546616" fx="-614.4359453" fy="382.9546616" r="26.1073422" gradientTransform="translate(-621.9595 272.6951) rotate(126.0335751) scale(.9509413 -.9503974) skewX(.0983448)" gradientUnits="userSpaceOnUse">
      <stop offset="0" stop-color="#328e36"/>
      <stop offset="1" stop-color="#00cd00"/>
    </radialGradient>
    <mask id="mask-1" x="7.0088816" y="11.1501" width="33.285875" height="32.6101" maskUnits="userSpaceOnUse">
      <path d="M10.245,22.6793l13.1826812,10.5885-.225-6.3879c2.7251999-.092,8.2854998-.3092,9.4748998,3.2517,2.2011999,6.6461-9.6529998,12.3218-9.6529998,12.3218,9.1170998-.4912,18.6527995-8.0411,14.4737996-18.199-3.5685999-8.6672-13.6169997-6.8711-13.9885996-6.8673l-.2073-6.237-13.0574812,11.5292Z" fill="#fff"/>
    </mask>
    <radialGradient id="radial-gradient" cx="8.4529723" cy="38.3338857" fx="8.4529723" fy="38.3338857" r="24.0246693" gradientUnits="userSpaceOnUse">
      <stop offset=".005618" stop-color="#a70000"/>
      <stop offset="1" stop-color="#fff95e"/>
    </radialGradient>
    <linearGradient id="linear-gradient" x1="5.029081" y1="28.8869401" x2="65.0112947" y2="33.2904955" gradientUnits="userSpaceOnUse">
      <stop offset=".005618" stop-color="#a70000"/>
      <stop offset="1" stop-color="#fff95e"/>
    </linearGradient>
  </defs>
  <polyline points="8.2395816 40.3618 8.2395816 43.7504 16.2532814 37.7422 8.2395816 31.7299 8.2395816 35.2026"/>
  <g>
    <g mask="url(#mask)">
      <g>
        <path d="M10.245,22.6793l13.1826812,10.5885-.225-6.3879c2.7251999-.092,8.2854998-.3092,9.4748998,3.2517,2.2011999,6.6461-9.6529998,12.3218-9.6529998,12.3218,9.1170998-.4912,18.6527995-8.0411,14.4737996-18.199-3.5685999-8.6672-13.6169997-6.8711-13.9885996-6.8673l-.2073-6.237-13.0574812,11.5292Z" fill="url(#New_Gradient_150)"/>
        <path d="M7.0088816,22.9415l3.4003999-2.1578,12.3393997,8.7413.1643188-4.4783s6.1648811-1.3539,8.935181,1.6454c4.8324999,5.2159-2.915181,10.3595-2.915181,10.3595L7.0088816,22.9415Z" fill="url(#New_Gradient_151)" fill-rule="evenodd"/>
        <path d="M10.245,22.6793l13.1826812,10.5885-.225-6.3879c2.7251999-.092,8.2854998-.3092,9.4748998,3.2517,2.2011999,6.6461-9.6529998,12.3218-9.6529998,12.3218,9.1170998-.4912,18.6527995-8.0411,14.4737996-18.199-3.5685999-8.6672-13.6169997-6.8711-13.9885996-6.8673l-.2073-6.237-13.0574812,11.5292Z" fill="none" stroke="#000" stroke-linecap="round" stroke-linejoin="round" stroke-width="2"/>
      </g>
    </g>
    <g mask="url(#mask-1)">
      <g>
        <path d="M10.245,22.6793l13.1826812,10.5885-.225-6.3879c2.7251999-.092,8.2854998-.3092,9.4748998,3.2517,2.2011999,6.6461-9.6529998,12.3218-9.6529998,12.3218,9.1170998-.4912,18.6527995-8.0411,14.4737996-18.199-3.5685999-8.6672-13.6169997-6.8711-13.9885996-6.8673l-.2073-6.237-13.0574812,11.5292Z" fill="url(#radial-gradient)"/>
        <path d="M11.8021815,24.2504l13.1826997,10.5884-.2151-6.3957c2.7193999-.0861,8.5045998-.5693,9.6882998,2.9895,2.2106999,6.648-9.6492998,12.3276-9.6492998,12.3276,9.1172188-.493,18.6529995-8.0411,14.4738996-18.2028-3.5646808-8.6672-15.3503996-5.8636-15.7181996-5.8616l-.1721-4.805-11.5901997,9.3596Z" fill="#ff7845"/>
        <path d="M7.0088816,22.9415l6.6891998.1721,8.6339185,5.9929.1682812-4.4745s6.5775998-.9392,9.3478998,2.0601c4.8324999,5.2159-2.915181,10.3595-2.915181,10.3595L7.0088816,22.9415Z" fill="url(#linear-gradient)"/>
      </g>
    </g>
  </g>
</svg>