<?xml version="1.0" encoding="UTF-8"?>
<svg id="Set_2" data-name="Set 2" xmlns="http://www.w3.org/2000/svg" width="48" height="48" viewBox="0 0 48 48">
  <polygon points="40.0483844 11.8799 30.0312847 11.8799 30.0312847 13.7493 40.0483844 13.7493 40.0483844 37.9243 9.9970852 37.9243 9.9970852 13.7493 12.0005851 13.7493 12.0005851 11.8799 9.9970852 11.8799 7.9936852 11.8799 7.9936852 13.7493 7.9936852 37.9243 7.9936852 39.9277 9.9970852 39.9277 40.0483844 39.9277 42.0517844 39.9277 42.0517844 37.9243 42.0517844 13.7493 42.0517844 11.8799 40.0483844 11.8799" fill="gray"/>
  <g>
    <path d="M19.8947849,17.3248l-1.2189-2.0896c-.493-.7991-.7863-1.3186-1.0798-1.8653h-.0275c-.268.5467-.5477,1.0516-1.0251,1.879l-1.1348,2.0759h-1.4046851l2.891685-4.7825-2.7783999-4.6692h1.4167149l1.248085,2.2158c.3502.6162.6182,1.0936.8687,1.5983h.043c.2661-.5616.5049-.9959.8551-1.5983l1.2776-2.2158h1.4164l-2.8760999,4.5996,2.9445999,4.8521h-1.4166Z"/>
    <path d="M24.9014848,17.3248v-4.0108l-3.0012999-5.4409h1.4008151l1.3342848,2.608c.3484.7151.6437152,1.2902.9392,1.9496h.0274c.2523-.6173.5888-1.2345.9547-1.9496l1.3579-2.608h1.3753l-3.1557847,5.4272v4.0245h-1.2325152Z"/>
  </g>
</svg>