<?xml version="1.0" encoding="UTF-8"?>
<svg id="Set_5" data-name="Set 5" xmlns="http://www.w3.org/2000/svg" width="48" height="48" viewBox="0 0 48 48">
  <g>
    <g>
      <rect x="35.14" y="42.7507" width="2.0034" height="2.0034"/>
      <rect x="27.1263" y="42.7507" width="2.0035" height="2.0034"/>
      <rect x="19.1127" y="42.7507" width="2.0034" height="2.0034"/>
      <rect x="11.099" y="42.7507" width="2.0034" height="2.0034"/>
      <rect x="3.0854" y="10.6961" width="2.0034" height="2.0034"/>
      <rect x="3.0854" y="18.7097" width="2.0034" height="2.0035"/>
      <rect x="3.0854" y="26.7234" width="2.0034" height="2.0034"/>
      <rect x="3.0854" y="34.7371" width="2.0034" height="2.0034"/>
      <rect x="3.0854" y="42.7507" width="2.0034" height="2.0034"/>
    </g>
    <rect x="5.0888" y="6.6892" width="2.0034" height="36.0615"/>
    <rect x="5.0888" y="40.7473" width="36.0615" height="2.0034"/>
  </g>
  <g>
    <g>
      <rect x="35.14" y="42.7507" width="2.0034" height="2.0034"/>
      <rect x="27.1263" y="42.7507" width="2.0035" height="2.0034"/>
      <rect x="19.1127" y="42.7507" width="2.0034" height="2.0034"/>
      <rect x="11.099" y="42.7507" width="2.0034" height="2.0034"/>
      <rect x="3.0854" y="10.6961" width="2.0034" height="2.0034"/>
      <rect x="3.0854" y="18.7097" width="2.0034" height="2.0035"/>
      <rect x="3.0854" y="26.7234" width="2.0034" height="2.0034"/>
      <rect x="3.0854" y="34.7371" width="2.0034" height="2.0034"/>
      <rect x="3.0854" y="42.7507" width="2.0034" height="2.0034"/>
    </g>
    <rect x="5.0888" y="6.6892" width="2.0034" height="36.0615"/>
    <rect x="5.0888" y="40.7473" width="36.0615" height="2.0034"/>
  </g>
</svg>