<?xml version='1.0' encoding='UTF-8'?>
<svg xmlns="http://www.w3.org/2000/svg" xmlns:xlink="http://www.w3.org/1999/xlink" id="Icons_-_24x24" data-name="Icons - 24x24" width="48" height="48" viewBox="0 0 48 48">
  <defs>
    <linearGradient id="White_Black" data-name="White, Black" x1="-26.2247248" y1="-21.0709368" x2="32.4084642" y2="34.3034531" gradientUnits="userSpaceOnUse">
      <stop offset="0" stop-color="#fff"/>
      <stop offset="1" stop-color="#000"/>
    </linearGradient>
    <linearGradient id="White_Black-2" data-name="White, Black" x1="41.91695" y1="12.8092432" x2="41.91695" y2="15.0877298" gradientUnits="userSpaceOnUse"><stop offset="0" stop-color="#fff"/><stop offset="1" stop-color="#000"/></linearGradient>
    <mask id="mask" x="3.9351741" y="12.7314" width="42.1573264" height="27.3147847" maskUnits="userSpaceOnUse">
      <path d="M33.397,13.8799c-3.5176-.2539-9.4971-.3457-14.208.1269-3.3409.3438-8.5801-.9238-11.335,1.0996-5.4228,3.9903-3.8144,15.8965-3.2676,22.6231.2715,3.3555,28.3916,2.2617,32.7549,1.6269,3.1553-.4609,5.9434.1407,7.3789-1.3164.6494-.6621,1.0244-1.7363,1.0322-3.5234.0147-3.418.8497-11.2109-.1523-14.9492-1.0059-3.7383-8.6855-5.4336-12.2031-5.6875Z" fill="#fff"/>
    </mask>
    <linearGradient id="White_Black-3" data-name="White, Black" x1="-.1562564" y1="-1.1971706" x2="32.7746195" y2="37.5074256" gradientUnits="userSpaceOnUse"><stop offset="0" stop-color="#fff"/><stop offset="1" stop-color="#000"/></linearGradient>
    <linearGradient id="White_Black-4" data-name="White, Black" x1="9.51978" y1="5.0243819" x2="16.6787853" y2="20.7314238" gradientUnits="userSpaceOnUse"><stop offset="0" stop-color="#fff"/><stop offset="1" stop-color="#000"/></linearGradient>
    <linearGradient id="White_Black-5" data-name="White, Black" x1="-3.6620421" y1="28.59375" x2="11.9406397" y2="28.59375" gradientUnits="userSpaceOnUse"><stop offset="0" stop-color="#fff"/><stop offset="1" stop-color="#000"/></linearGradient>
    <linearGradient id="White_Black-6" data-name="White, Black" x1="34.6065066" y1="28.141625" x2="15.1430696" y2="28.141625" gradientUnits="userSpaceOnUse"><stop offset="0" stop-color="#fff"/><stop offset="1" stop-color="#000"/></linearGradient>
    <radialGradient id="radial-gradient" cx="17.6024434" cy="17.1091045" fx="17.6024434" fy="17.1091045" r="3.5923321" gradientUnits="userSpaceOnUse">
      <stop offset="0" stop-color="#fff"/>
      <stop offset="1" stop-color="#000"/>
    </radialGradient>
    <linearGradient id="White_Black-7" data-name="White, Black" x1="22.7685411" y1="16.6987491" x2="6.4264951" y2="16.6987491" gradientUnits="userSpaceOnUse"><stop offset="0" stop-color="#fff"/><stop offset="1" stop-color="#000"/></linearGradient>
    <linearGradient id="White_Black-8" data-name="White, Black" x1="7.210205" y1="13.4492403" x2="11.2189995" y2="17.2352283" gradientUnits="userSpaceOnUse"><stop offset="0" stop-color="#fff"/><stop offset="1" stop-color="#000"/></linearGradient>
    <mask id="mask-1" x="21.2578638" y="6.9307" width="18.5065835" height="20.8125" maskUnits="userSpaceOnUse">
      <path d="M39.6479,27.7432h-18.2734c-.6045-6.5,1.2158-12.6289,3.7246-18.5411h10.8223c2.5088,5.9122,4.331,12.043,3.7265,18.5411Z" fill="#fff"/>
    </mask>
    <linearGradient id="White_Black-9" data-name="White, Black" x1="30.5111555" y1="-1.4794277" x2="30.5111555" y2="22.6666468" gradientUnits="userSpaceOnUse"><stop offset="0" stop-color="#fff"/><stop offset="1" stop-color="#000"/></linearGradient>
    <linearGradient id="White_Black-10" data-name="White, Black" x1="30.49755" y1="4.2919339" x2="30.49755" y2="17.8572935" gradientUnits="userSpaceOnUse"><stop offset="0" stop-color="#fff"/><stop offset="1" stop-color="#000"/></linearGradient>
    <linearGradient id="White_Black-11" data-name="White, Black" x1="30.49755" y1="7.5717387" x2="30.49755" y2="14.5148759" gradientUnits="userSpaceOnUse"><stop offset="0" stop-color="#fff"/><stop offset="1" stop-color="#000"/></linearGradient>
    <linearGradient id="White_Black-12" data-name="White, Black" x1="7.3523309" y1="11.0966516" x2="11.0355259" y2="14.5751367" gradientUnits="userSpaceOnUse"><stop offset="0" stop-color="#fff"/><stop offset="1" stop-color="#000"/></linearGradient>
    <radialGradient id="radial-gradient-2" cx="30.853907" cy="27.2605274" fx="30.853907" fy="27.2605274" r="11.1805781" gradientUnits="userSpaceOnUse">
      <stop offset="0" stop-color="#fff"/>
      <stop offset=".2059634" stop-color="#fcfcfc"/>
      <stop offset=".3496563" stop-color="#f3f3f3"/>
      <stop offset=".4744839" stop-color="#e3e3e3"/>
      <stop offset=".5884764" stop-color="#cdcdcd"/>
      <stop offset=".69512" stop-color="#b1b1b1"/>
      <stop offset=".7963673" stop-color="#8e8e8e"/>
      <stop offset=".8933228" stop-color="#656565"/>
      <stop offset=".9845413" stop-color="#363636"/>
      <stop offset="1" stop-color="#2e2e2e"/>
    </radialGradient>
    <radialGradient id="Black_White_Radial" data-name="Black, White Radial" cx="34.6061916" cy="35.6323639" fx="34.6061916" fy="35.6323639" r="12.8066556" gradientTransform="translate(3.2453 -1.3176215) scale(.8947)" gradientUnits="userSpaceOnUse">
      <stop offset="0" stop-color="#fff"/>
      <stop offset="1" stop-color="#000"/>
    </radialGradient>
    <radialGradient id="radial-gradient-3" cx="30.3186033" cy="27.4766478" fx="30.3186033" fy="27.4766478" r="9.3683457" gradientUnits="userSpaceOnUse">
      <stop offset=".011236" stop-color="#0a50a1"/>
      <stop offset=".196629" stop-color="#ccecf4"/>
      <stop offset="1" stop-color="#081326"/>
    </radialGradient>
    <radialGradient id="radial-gradient-4" cx="31.3358218" cy="36.7275431" fx="31.3358218" fy="36.7275431" r="7.8621066" gradientTransform="translate(5.1221 -2.5159) scale(.8238)" gradientUnits="userSpaceOnUse">
      <stop offset=".011236" stop-color="#0a50a1"/>
      <stop offset=".196629" stop-color="#ccecf4"/>
      <stop offset=".3341815" stop-color="#c8e8f1"/>
      <stop offset=".4509816" stop-color="#bfdee7"/>
      <stop offset=".5602538" stop-color="#aeccd8"/>
      <stop offset=".6649202" stop-color="#97b3c1"/>
      <stop offset=".7663476" stop-color="#7a93a5"/>
      <stop offset=".8653144" stop-color="#556c82"/>
      <stop offset=".9605348" stop-color="#2b3f59"/>
      <stop offset="1" stop-color="#182a47"/>
    </radialGradient>
    <radialGradient id="radial-gradient-5" cx="28.0747385" cy="24.8046536" fx="28.0747385" fy="24.8046536" r="7.652447" gradientUnits="userSpaceOnUse">
      <stop offset="0" stop-color="#fedfb3"/>
      <stop offset=".207865" stop-color="#000"/>
      <stop offset=".825843" stop-color="#2d1709"/>
      <stop offset="1" stop-color="#5e360e"/>
    </radialGradient>
  </defs>
  <path d="M45.6001,19.5674c-.2588-.957-.957-1.7813-1.9082-2.4805.2812-.2539.458-.625.458-1.0351,0-.7696-.624-1.3985-1.3965-1.3985h-3.3877c-.2539,0-.4912.0703-.6982.1875-.2334-.0644-.4678-.1269-.6992-.1875-.587-1.8398-1.2852-3.6562-2.0469-5.4512h-10.8223c-.6347,1.4942-1.2246,3.0079-1.7431,4.5352-1.4346.0527-2.8497.1387-4.167.2695-2.2842.2344-5.4561-.2851-8.1153.0118-.1963-.0567-.4043-.0938-.6181-.0938-.5635,0-1.0684.2148-1.4375.5566-.4209.1602-.8125.3672-1.1641.625-5.4228,3.9903-3.8144,15.8965-3.2676,22.6231.2715,3.3555,28.3916,2.2617,32.7549,1.6269,3.1553-.4609,5.9434.1407,7.3789-1.3164.6494-.6621,1.0244-1.7363,1.0322-3.5234.0147-3.418.8497-11.2109-.1523-14.9492Z" fill="url(#White_Black)" stroke="#000" stroke-width="2"/>
  <path d="M45.0815,15.3799c0,.791-.6396,1.4336-1.4306,1.4336h-3.4688c-.789,0-1.4297-.6426-1.4297-1.4336h0c0-.7891.6407-1.4317,1.4297-1.4317h3.4688c.791,0,1.4306.6426,1.4306,1.4317h0Z" fill="url(#White_Black-2)"/>
  <g mask="url(#mask)">
    <g>
      <path d="M33.397,13.8799c-3.5176-.2539-9.4971-.3457-14.208.1269-3.3409.3438-8.5801-.9238-11.335,1.0996-5.4228,3.9903-3.8144,15.8965-3.2676,22.6231.2715,3.3555,28.3916,2.2617,32.7549,1.6269,3.1553-.4609,5.9434.1407,7.3789-1.3164.6494-.6621,1.0244-1.7363,1.0322-3.5234.0147-3.418.8497-11.2109-.1523-14.9492-1.0059-3.7383-8.6855-5.4336-12.2031-5.6875Z" fill="url(#White_Black-3)"/>
      <path d="M6.9331,12.7314h16.5302c1.5426025,0,2.795,1.2523975,2.795,2.795v3.9179c0,1.5426025-1.2523975,2.795-2.795,2.795H6.9331c-1.5414987,0-2.793-1.2515013-2.793-2.793v-3.9219c0-1.5414987,1.2515013-2.793,2.793-2.793Z" fill="url(#White_Black-4)"/>
      <rect x="4.4604" y="19.458" width="8.8702" height="18.2715" fill="url(#White_Black-5)"/>
      <path d="M23.2993,20.1475c-3.7041,1.0586-6.2695,1.0586-9.9746,0,.002,5.3281.0039,10.6562.0049,15.9824,3.3213.0078,6.6445.0078,9.9668,0,0-5.3262.0019-10.6543.0029-15.9824Z" fill="url(#White_Black-6)"/>
      <path d="M20.4878,17.6475c0,1.2949-1.0518,2.3476-2.3506,2.3476-1.2969,0-2.3486-1.0527-2.3486-2.3476,0-1.2989,1.0517-2.3536,2.3486-2.3536,1.2988,0,2.3506,1.0547,2.3506,2.3536Z" fill="#333"/>
      <path d="M20.0601,17.6475c0,1.0605-.8584,1.9199-1.9229,1.9199-1.0615,0-1.9238-.8594-1.9238-1.9199,0-1.0645.8623-1.9278,1.9238-1.9278,1.0645,0,1.9229.8633,1.9229,1.9278Z" fill="url(#radial-gradient)"/>
      <path d="M6.812,15.9365c1.1621.2852,2.3193.0117,3.4522-.2402.5644-.125,1.8916-.7305,2.4541-.5176.8886.3359.4961.9707.29,1.5879-.4824,1.4395-1.3994,1.3477-2.8926,1.4121-.7217.0332-1.3594.0938-2.0556.084-.5723-.0098-2.3243.0312-2.8213-.3926-1.2334-1.0488,1.2295-1.8164,2.1074-1.9336" fill="url(#White_Black-7)"/>
      <path d="M12.4927,16.7744c0,.5606-.7881,1.0156-1.7608,1.0156-.9746,0-1.7617-.455-1.7617-1.0156,0-.5605.7871-1.0137,1.7617-1.0137.9727,0,1.7608.4532,1.7608,1.0137Z" fill="url(#White_Black-8)"/>
    </g>
  </g>
  <g mask="url(#mask-1)">
    <g>
      <path d="M39.6479,27.7432h-18.2734c-.6045-6.5,1.2158-12.6289,3.7246-18.5411h10.8223c2.5088,5.9122,4.331,12.043,3.7265,18.5411Z" fill="url(#White_Black-9)"/>
      <path d="M37.0688,19.0303c0,1.5429-.8584,2.791-1.9199,2.791h-9.3017c-1.0606,0-1.9209-1.2481-1.9209-2.791v-2.3184c0-1.5449.8603-2.7949,1.9209-2.7949h9.3017c1.0615,0,1.9199,1.25,1.9199,2.7949v2.3184Z" fill="url(#White_Black-10)"/>
      <path d="M37.0688,12.042c0,1.541-.8584,2.793-1.9199,2.793h-9.3017c-1.0606,0-1.9209-1.252-1.9209-2.793v-2.3145c0-1.5468.8603-2.7968,1.9209-2.7968h9.3017c1.0615,0,1.9199,1.25,1.9199,2.7968v2.3145Z" fill="url(#White_Black-11)"/>
    </g>
  </g>
  <path d="M10.5806,14.1572c.6191,0,1.2256.0117,1.8115.0352-.3584-.5899-1.0352-.9903-1.8115-.9903-.7784,0-1.4561.4004-1.8145.9903.5869-.0235,1.1924-.0352,1.8145-.0352Z" fill="url(#White_Black-12)"/>
  <g>
    <path d="M42.7427,27.7412c0,6.5234-5.2862,11.8067-11.8057,11.8067-6.5215,0-11.8066-5.2833-11.8066-11.8067,0-6.5195,5.2851-11.8047,11.8066-11.8047,6.5195,0,11.8057,5.2852,11.8057,11.8047Z" fill="url(#radial-gradient-2)" stroke="#000" stroke-linecap="round" stroke-linejoin="round"/>
    <path d="M41.5005,27.7412c0,5.834-4.7305,10.5645-10.5635,10.5645-5.834,0-10.5635-4.7305-10.5635-10.5645,0-5.832,4.7295-10.5625,10.5635-10.5625,5.833,0,10.5635,4.7305,10.5635,10.5625Z" fill="url(#Black_White_Radial)"/>
    <path d="M40.0044,27.7412c0,5.0078-4.0596,9.0684-9.0674,9.0684-5.0088,0-9.0674-4.0606-9.0674-9.0684s4.0586-9.0644,9.0674-9.0644c5.0078,0,9.0674,4.0566,9.0674,9.0644Z" fill="url(#radial-gradient-3)"/>
    <path d="M38.4058,27.7412c0,4.127-3.3438,7.4688-7.4688,7.4688-4.126,0-7.4697-3.3418-7.4697-7.4688,0-4.123,3.3437-7.4707,7.4697-7.4707,4.125,0,7.4688,3.3477,7.4688,7.4707Z" fill="url(#radial-gradient-4)"/>
    <path d="M36.104,27.7412c0,2.8555-2.3144,5.1699-5.167,5.1699-2.8545,0-5.168-2.3144-5.168-5.1699,0-2.8496,2.3135-5.166,5.168-5.166,2.8526,0,5.167,2.3164,5.167,5.166Z" fill="url(#radial-gradient-5)"/>
  </g>
</svg>