<?xml version="1.0" encoding="UTF-8"?>
<svg id="Set_5" data-name="Set 5" xmlns="http://www.w3.org/2000/svg" width="48" height="48" viewBox="0 0 48 48">
  <polygon points="31.379 8.7746 23.3653946 8.7746 15.3516948 8.7746 7.338095 8.7746 7.338095 16.7883 7.338095 24.8019 7.338095 32.8156 7.338095 40.8293 15.3516948 40.8293 23.3653946 40.8293 31.379 40.8293 39.3926942 40.8293 39.3926942 32.8156 39.3926942 24.8019 39.3926942 16.7883 39.3926942 8.7746 31.379 8.7746" fill="#c42e00" stroke="#000" stroke-linecap="round" stroke-linejoin="round" stroke-width="2"/>
  <g>
    <rect x="7.338095" y="8.7746" width="8.0135998" height="8.0137" fill="#78dcff"/>
    <rect x="15.3516948" y="8.7746" width="8.0136998" height="8.0137" fill="#78dcff"/>
    <rect x="23.3653946" y="8.7746" width="8.0136054" height="8.0137" fill="#bbedff"/>
    <rect x="31.379" y="8.7746" width="8.0136942" height="8.0137" fill="#fff"/>
    <rect x="7.338095" y="16.7883" width="8.0135998" height="8.0136" fill="#78dcff"/>
    <rect x="15.3516948" y="16.7883" width="8.0136998" height="8.0136" fill="#65d081"/>
    <rect x="23.3653946" y="16.7883" width="8.0136054" height="8.0136" fill="#78dcff"/>
    <rect x="31.379" y="16.7883" width="8.0136942" height="8.0136" fill="#78dcff"/>
    <rect x="7.338095" y="24.8019" width="8.0135998" height="8.0137" fill="#65d081"/>
    <rect x="15.3516948" y="24.8019" width="8.0136998" height="8.0137" fill="#23a11f"/>
    <rect x="23.3653946" y="24.8019" width="8.0136054" height="8.0137" fill="#23a11f"/>
    <rect x="31.379" y="24.8019" width="8.0136942" height="8.0137" fill="#a8efb1"/>
    <rect x="7.338095" y="32.8156" width="8.0135998" height="8.0137" fill="#005e00"/>
    <rect x="15.3516948" y="32.8156" width="8.0136998" height="8.0137" fill="#23a11f"/>
    <rect x="23.3653946" y="32.8156" width="8.0136054" height="8.0137" fill="#65d081"/>
    <rect x="31.379" y="32.8156" width="8.0136942" height="8.0137" fill="#c42e00"/>
  </g>
</svg>