<?xml version='1.0' encoding='UTF-8'?>
<svg xmlns="http://www.w3.org/2000/svg" xmlns:xlink="http://www.w3.org/1999/xlink" id="Set_4" data-name="Set 4" width="48" height="48" viewBox="0 0 48 48">
  <defs>
    <radialGradient id="radial-gradient" cx="109.2302256" cy="-136.3901716" fx="109.2302256" fy="-136.3901716" r="18.2382415" gradientTransform="translate(-189.4545 282.1345) scale(1.89)" gradientUnits="userSpaceOnUse">
      <stop offset="0" stop-color="#fff"/>
      <stop offset=".0148633" stop-color="#f1f7fe"/>
      <stop offset=".0801777" stop-color="#badafb"/>
      <stop offset=".1438424" stop-color="#8dc2f9"/>
      <stop offset=".2044479" stop-color="#69aff8"/>
      <stop offset=".2612008" stop-color="#50a2f6"/>
      <stop offset=".312615" stop-color="#4199f6"/>
      <stop offset=".353932" stop-color="#3c97f6"/>
      <stop offset=".5755021" stop-color="#3b94f1"/>
      <stop offset=".8388609" stop-color="#3a8de2"/>
      <stop offset="1" stop-color="#3a88d6"/>
    </radialGradient>
    <radialGradient id="radial-gradient-2" cx="39.2344828" cy="21.5100717" fx="39.2344828" fy="21.5100717" r="36.153619" gradientTransform="translate(-21.1576 13.3774) scale(1.1619)" gradientUnits="userSpaceOnUse"><stop offset="0" stop-color="#fff"/><stop offset=".0148633" stop-color="#f1f7fe"/><stop offset=".0801777" stop-color="#badafb"/><stop offset=".1438424" stop-color="#8dc2f9"/><stop offset=".2044479" stop-color="#69aff8"/><stop offset=".2612008" stop-color="#50a2f6"/><stop offset=".312615" stop-color="#4199f6"/><stop offset=".353932" stop-color="#3c97f6"/><stop offset=".5755021" stop-color="#3b94f1"/><stop offset=".8388609" stop-color="#3a8de2"/><stop offset="1" stop-color="#3a88d6"/></radialGradient>
  </defs>
  <g>
    <path d="M29.246,9.057c-1.1015031-.2798-2.2352031.3561-3.37.81-1.437.5772-2.255803.1036-3.521803-.139l.1401-.448c.2806-.8863-.9108-1.0486-1.1887-.1624l-4.376597,13.8654c-1.1514028-1.3852-3.3347028-1.7686-5.254-1.1269-1.6111027.5381-3.2106026,2.16-2.5914027,3.9052.9176,2.5746,7.8474027,3.5705,8.4324027-.8432.0508971-.0763.0938971-.1567.1241971-.2504l2.5512999-8.088c.5498,2.1246,2.8915999.2268,4.2003999-.8004,1.443103-1.1327,3.2438999-2.6645,4.8384999-2.0954.1789.0647.9321.6437,1.1659.3895.3228-.3386.2114-1.2932.2016-1.6356-.0401-1.1445-.2094-3.0913-1.3518968-3.3808" fill="#d68100" fill-rule="evenodd" stroke="#000" stroke-width="1.5"/>
    <path d="M29.246,9.057c-1.1015031-.2798-2.2352031.3561-3.37.81-1.437.5772-2.255803.1036-3.521803-.139l.1401-.448c.2806-.8863-.9108-1.0486-1.1887-.1624l-4.376597,13.8654c-1.1514028-1.3852-3.3347028-1.7686-5.254-1.1269-1.6111027.5381-3.2106026,2.16-2.5914027,3.9052.9176,2.5746,7.8474027,3.5705,8.4324027-.8432.0508971-.0763.0938971-.1567.1241971-.2504l2.5512999-8.088c.5498,2.1246,2.8915999.2268,4.2003999-.8004,1.443103-1.1327,3.2438999-2.6645,4.8384999-2.0954.1789.0647.9321.6437,1.1659.3895.3228-.3386.2114-1.2932.2016-1.6356-.0401-1.1445-.2094-3.0913-1.3518968-3.3808" fill="url(#radial-gradient)" fill-rule="evenodd"/>
  </g>
  <g>
    <path d="M41.1958965,23.8088c.1243-.3993-.0821-.7435-.4323-.7533-.1418-.096-.3775965-.1645-.7384-.2172l-5.2443999-.722-1.1055-.1525-5.2422967-.72c-.3658031-.0509-.6271031-.0451-.8158031.0038-.3247-.0977-.7387.1703-.8629.5734l-4.2942969,13.611c-1.157403-1.397-3.3866029-1.7646-5.3118029-1.0546-1.4791971.5479-2.9121971,2.0349-2.4289999,3.6566.5175,1.7394,2.5012999,2.3909,4.1818999,2.303,1.485-.0726,3.8611999-.9549,4.1340999-3.0072.0509-.0725.0909-.1564.1212-.2466l2.8397999-9.0015c.0804.0156.1683.0312.2643.0449l5.2402999.72,1.1083.1506,5.2402999.7219c.092.0138.1751.0216.2515.0294l-2.3662999,7.507c-1.1563-1.395-3.3856999-1.7628-5.3117999-1.0526-1.4781.5478-2.9111999,2.0347-2.4269999,3.6585.5135,1.7355,2.4992999,2.387,4.1819999,2.3047,1.4869-.0761,3.8589999-.9645,4.1299999-3.0109.0547-.0744.093-.1565.1242033-.2465l4.7638965-15.0999M38.6623966,27.1523l-5.2412999-.72-1.1103-.1525-5.2384999-.722c-.0998-.0118-.1857-.0215-.2709-.0275l.5566031-1.7646c.0772969.0156.1671969.0293.264.0449l5.2414967.722,1.1083.1507,5.2403999.7238c.0889.0098.1741.0197.2524.0255l-.5585966,1.7588c-.0743034-.0137-.1536034-.0293-.2436034-.0391" fill="#d68100" fill-rule="evenodd" stroke="#000" stroke-width="1.5"/>
    <path d="M41.1958965,23.8088c.1243-.3993-.0821-.7435-.4323-.7533-.1418-.096-.3775965-.1645-.7384-.2172l-5.2443999-.722-1.1055-.1525-5.2422967-.72c-.3658031-.0509-.6271031-.0451-.8158031.0038-.3247-.0977-.7387.1703-.8629.5734l-4.2942969,13.611c-1.157403-1.397-3.3866029-1.7646-5.3118029-1.0546-1.4791971.5479-2.9121971,2.0349-2.4289999,3.6566.5175,1.7394,2.5012999,2.3909,4.1818999,2.303,1.485-.0726,3.8611999-.9549,4.1340999-3.0072.0509-.0725.0909-.1564.1212-.2466l2.8397999-9.0015c.0804.0156.1683.0312.2643.0449l5.2402999.72,1.1083.1506,5.2402999.7219c.092.0138.1751.0216.2515.0294l-2.3662999,7.507c-1.1563-1.395-3.3856999-1.7628-5.3117999-1.0526-1.4781.5478-2.9111999,2.0347-2.4269999,3.6585.5135,1.7355,2.4992999,2.387,4.1819999,2.3047,1.4869-.0761,3.8589999-.9645,4.1299999-3.0109.0547-.0744.093-.1565.1242033-.2465l4.7638965-15.0999M38.6623966,27.1523l-5.2412999-.72-1.1103-.1525-5.2384999-.722c-.0998-.0118-.1857-.0215-.2709-.0275l.5566031-1.7646c.0772969.0156.1671969.0293.264.0449l5.2414967.722,1.1083.1507,5.2403999.7238c.0889.0098.1741.0197.2524.0255l-.5585966,1.7588c-.0743034-.0137-.1536034-.0293-.2436034-.0391" fill="url(#radial-gradient-2)" fill-rule="evenodd"/>
  </g>
</svg>