<?xml version="1.0" encoding="UTF-8"?>
<svg id="Set_2" data-name="Set 2" xmlns="http://www.w3.org/2000/svg" width="48" height="48" viewBox="0 0 48 48">
  <g>
    <g>
      <polygon points="41.9657856 33.9175 41.9657856 17.8902 39.9623857 17.8902 7.9117865 17.8902 7.9117865 31.9141 7.9117865 33.9175 41.9657856 33.9175" fill="#555"/>
      <polygon points="41.9657856 33.9175 41.9657856 17.8902 39.9623857 17.8902 7.9117865 17.8902 7.9117865 31.9141 7.9117865 33.9175 41.9657856 33.9175" fill="none" stroke="#555" stroke-width="2"/>
    </g>
    <rect x="7.9117865" y="17.8902" width="34.0579991" height="16.0233" fill="silver"/>
    <rect x="9.9151864" y="19.8936" width="32.0525992" height="14.0219" fill="#fff"/>
  </g>
  <g opacity=".75">
    <path d="M13.9337863,22.4762c1.26,0,2.0893999.9811,2.0893999,2.7204,0,1.9213-.9977,2.8749-2.1754999,2.8749-1.1486,0-2.1167999-.9254-2.1306863-2.7487,0-1.8235.9820863-2.8466,2.201-2.8466h.0157863ZM13.8768863,23.2197c-.7571,0-1.1778.9115-1.1778,2.0611-.0292,1.1503.4207,2.0473,1.1916,2.0473.8138,0,1.1779-.8695,1.1779-2.0758,0-1.1073-.321-2.0326-1.1779-2.0326h-.0138ZM13.7498863,31.9141l5.3723999-9.4517h.7845l-5.3705999,9.4517h-.7863ZM19.8793862,26.2482c1.2619,0,2.0894999.9821,2.0894999,2.7205,0,1.9212-.9958861,2.8749-2.1736999,2.8749-1.1504,0-2.1167999-.9254-2.1323999-2.7477,0-1.8235.982-2.8477,2.2028999-2.8477h.0137ZM19.8226862,26.9917c-.7571,0-1.1779.9115-1.1779,2.0611-.0272,1.1504.4208,2.0483,1.1935,2.0483.812,0,1.1778-.8695,1.1778-2.0758,0-1.1082-.3248-2.0336-1.1778-2.0336h-.0156Z"/>
    <path d="M24.858686,22.2941h5.0905999v1.0233h-3.8581999v3.1412h3.5626999v1.0105h-3.5626999v4.2767h-1.2324v-9.4517Z"/>
  </g>
</svg>