<?xml version='1.0' encoding='UTF-8'?>
<svg xmlns="http://www.w3.org/2000/svg" xmlns:xlink="http://www.w3.org/1999/xlink" id="Layer_1" data-name="Layer 1" width="32" height="32" viewBox="0 0 32 32">
  <defs>
    <mask id="mask" x="2.357575" y="11.2232132" width="25.996425" height="17.6966803" maskUnits="userSpaceOnUse">
      <path d="M26.2979,25.0469l-11.2593,2.8662c-.1621.0395-.6714-.1011-.7891-.2188L3.6904,17.1357c-.4868-.4878-.4995-1.8549.3667-2.0688l11.2813-2.8369c.1611-.0396.6704.102.7866.2197l10.54,10.5391c.4869.4863.4947,1.8437-.3671,2.0581Z" fill="#fff" stroke="#fff" stroke-linecap="round" stroke-linejoin="round" stroke-width="2"/>
    </mask>
    <linearGradient id="New_Gradient_3" data-name="New Gradient 3" x1="20.0969244" y1="20.4930197" x2="21.8762362" y2="29.6467855" gradientUnits="userSpaceOnUse">
      <stop offset="0" stop-color="#b2b2b2"/>
      <stop offset="1" stop-color="#666"/>
    </linearGradient>
    <linearGradient id="New_Gradient_2" data-name="New Gradient 2" x1="14.6753693" y1="15.2808526" x2="3.1358402" y2="27.2303848" gradientUnits="userSpaceOnUse">
      <stop offset="0" stop-color="#ccc"/>
      <stop offset="1" stop-color="#999"/>
    </linearGradient>
    <mask id="mask-1" x="2.5151" y="12.2232132" width="28.1587" height="17.6009868" maskUnits="userSpaceOnUse">
      <path d="M26.2979,25.0469l-11.2593,2.8662c-.1621.0395-.6714-.1011-.7891-.2188L3.6904,17.1357c-.4868-.4878-.4995-1.8549.3667-2.0678l11.2813-2.8379c.1606-.0396.6704.102.7866.2197l10.54,10.5391c.4869.4863.4947,1.8437-.3671,2.0581Z" fill="#fff"/>
    </mask>
    <linearGradient id="New_Gradient_3-2" data-name="New Gradient 3" x1="21.3374762" y1="20.8812891" x2="23.3496386" y2="31.2329675" gradientUnits="userSpaceOnUse"><stop offset="0" stop-color="#b2b2b2"/><stop offset="1" stop-color="#666"/></linearGradient>
    <linearGradient id="New_Gradient_2-2" data-name="New Gradient 2" x1="15.2038621" y1="14.9903767" x2="2.1602633" y2="28.4974187" gradientUnits="userSpaceOnUse"><stop offset="0" stop-color="#ccc"/><stop offset="1" stop-color="#999"/></linearGradient>
    <mask id="mask-2" x="5.8486" y="13.3052" width="11.5435" height="5.1748" maskUnits="userSpaceOnUse">
      <polygon points="5.8486 15.5942 8.1875 17.9321 17.3921 15.5942 15.103 13.3052 5.8486 15.5942" fill="#fff" fill-rule="evenodd"/>
    </mask>
    <mask id="mask-3" x="9.151797" y="17.6284" width="3.681203" height="2.2460694" maskUnits="userSpaceOnUse">
      <path d="M12.5977,19.2065l-2.1753.5415c-.0254.0074-.105-.0146-.1231-.0336l-.9702-.9707c-.0767-.0762-.0781-.3902.0571-.4234l2.1787-.5376c.0254-.0063.1045.0156.1236.0342l.9668.9673c.0761.0757.0776.3891-.0576.4223Z" fill="#fff" stroke="#fff" stroke-width=".25"/>
    </mask>
    <linearGradient id="linear-gradient" x1="10.845332" y1="17.5383315" x2="11.2659094" y2="19.5169925" gradientUnits="userSpaceOnUse">
      <stop offset="0" stop-color="#ccc"/>
      <stop offset=".0685891" stop-color="#d1d1d1"/>
      <stop offset=".3565746" stop-color="#e3e3e3"/>
      <stop offset=".6596427" stop-color="#eee"/>
      <stop offset="1" stop-color="#f2f2f2"/>
    </linearGradient>
    <mask id="mask-4" x="10.8685563" y="19.3452" width="3.6807437" height="2.2459623" maskUnits="userSpaceOnUse">
      <path d="M14.314,20.9219l-2.1753.5434c-.0259.0054-.105-.0156-.1236-.0341l-.9692-.9708c-.0767-.0756-.0781-.3906.0566-.4243l2.1783-.5376c.0254-.0068.1054.0161.1235.0342l.9678.9673c.0757.0767.0771.3887-.0581.4219Z" fill="#fff" stroke="#fff" stroke-width=".25"/>
    </mask>
    <linearGradient id="linear-gradient-2" x1="12.5614551" y1="19.2552253" x2="12.9817245" y2="21.2324374" gradientUnits="userSpaceOnUse"><stop offset="0" stop-color="#ccc"/><stop offset=".0685891" stop-color="#d1d1d1"/><stop offset=".3565746" stop-color="#e3e3e3"/><stop offset=".6596427" stop-color="#eee"/><stop offset="1" stop-color="#f2f2f2"/></linearGradient>
    <mask id="mask-5" x="12.5841556" y="21.061" width="3.6809444" height="2.2461343" maskUnits="userSpaceOnUse">
      <path d="M16.0308,22.6387l-2.1758.5425c-.0254.0058-.105-.0166-.1236-.0342l-.9702-.9702c-.0761-.0762-.0781-.3912.0572-.4248l2.1792-.5376c.0249-.0059.1049.0166.123.0341l.9668.9683c.0762.0757.0776.3882-.0566.4219Z" fill="#fff" stroke="#fff" stroke-width=".25"/>
    </mask>
    <linearGradient id="linear-gradient-3" x1="14.2775126" y1="20.9706609" x2="14.6980109" y2="22.9489499" gradientUnits="userSpaceOnUse"><stop offset="0" stop-color="#ccc"/><stop offset=".0685891" stop-color="#d1d1d1"/><stop offset=".3565746" stop-color="#e3e3e3"/><stop offset=".6596427" stop-color="#eee"/><stop offset="1" stop-color="#f2f2f2"/></linearGradient>
    <mask id="mask-6" x="12.3794729" y="16.8115" width="3.6806271" height="2.2462323" maskUnits="userSpaceOnUse">
      <path d="M15.8257,18.3887l-2.1753.5429c-.0254.0064-.105-.0156-.1235-.0341l-.9707-.9703c-.0762-.0761-.0772-.3901.0581-.4238l2.1787-.5386c.0258-.0053.1049.0166.123.0347l.9673.9673c.0762.0762.0771.3887-.0576.4219Z" fill="#fff" stroke="#fff" stroke-width=".25"/>
    </mask>
    <linearGradient id="linear-gradient-4" x1="14.0726755" y1="16.7216273" x2="14.4928828" y2="18.6985469" gradientUnits="userSpaceOnUse"><stop offset="0" stop-color="#ccc"/><stop offset=".0685891" stop-color="#d1d1d1"/><stop offset=".3565746" stop-color="#e3e3e3"/><stop offset=".6596427" stop-color="#eee"/><stop offset="1" stop-color="#f2f2f2"/></linearGradient>
    <mask id="mask-7" x="14.0959822" y="18.5278" width="3.6809178" height="2.2460766" maskUnits="userSpaceOnUse">
      <path d="M17.542,20.1055l-2.1753.5424c-.0259.0059-.1055-.0161-.123-.0346l-.9712-.9697c-.0757-.0767-.0772-.3912.0581-.4244l2.1797-.538c.0244-.0059.1035.0161.122.0351l.9668.9668c.0767.0762.0781.3887-.0571.4224Z" fill="#fff" stroke="#fff" stroke-width=".25"/>
    </mask>
    <linearGradient id="linear-gradient-5" x1="15.7894213" y1="18.4377223" x2="16.2097953" y2="20.4154262" gradientUnits="userSpaceOnUse"><stop offset="0" stop-color="#ccc"/><stop offset=".0685891" stop-color="#d1d1d1"/><stop offset=".3565746" stop-color="#e3e3e3"/><stop offset=".6596427" stop-color="#eee"/><stop offset="1" stop-color="#f2f2f2"/></linearGradient>
    <mask id="mask-8" x="15.8123333" y="20.2441" width="3.6808667" height="2.2458004" maskUnits="userSpaceOnUse">
      <path d="M19.2588,21.8218l-2.1763.542c-.0254.0063-.1045-.0157-.123-.0342l-.9702-.9707c-.0762-.0762-.0777-.3901.0571-.4234l2.1792-.5376c.0249-.0058.105.0152.1235.0337l.9668.9668c.0752.0762.0772.3892-.0571.4234Z" fill="#fff" stroke="#fff" stroke-width=".25"/>
    </mask>
    <linearGradient id="linear-gradient-6" x1="17.5056593" y1="20.1541804" x2="17.9259748" y2="22.1316094" gradientUnits="userSpaceOnUse"><stop offset="0" stop-color="#ccc"/><stop offset=".0685891" stop-color="#d1d1d1"/><stop offset=".3565746" stop-color="#e3e3e3"/><stop offset=".6596427" stop-color="#eee"/><stop offset="1" stop-color="#f2f2f2"/></linearGradient>
    <mask id="mask-9" x="15.6077738" y="15.9951" width="3.6813262" height="2.2455946" maskUnits="userSpaceOnUse">
      <path d="M19.0542,17.5718l-2.1758.5429c-.0249.0059-.1055-.0156-.123-.0341l-.9707-.9698c-.0762-.0766-.0777-.3911.0576-.4248l2.1792-.5381c.0249-.0058.1035.0162.1225.0342l.9668.9678c.0767.0762.0782.3887-.0566.4219Z" fill="#fff" stroke="#fff" stroke-width=".25"/>
    </mask>
    <linearGradient id="linear-gradient-7" x1="17.3013869" y1="15.9047955" x2="17.7217126" y2="17.8822726" gradientUnits="userSpaceOnUse"><stop offset="0" stop-color="#ccc"/><stop offset=".0685891" stop-color="#d1d1d1"/><stop offset=".3565746" stop-color="#e3e3e3"/><stop offset=".6596427" stop-color="#eee"/><stop offset="1" stop-color="#f2f2f2"/></linearGradient>
    <mask id="mask-10" x="17.3239057" y="17.7109" width="3.6814943" height="2.2459057" maskUnits="userSpaceOnUse">
      <path d="M20.7705,19.2881l-2.1763.5425c-.0244.0068-.1045-.0166-.123-.0342l-.9702-.9702c-.0762-.0767-.0781-.3911.0571-.4239l2.1797-.5376c.0254-.0068.1035.0157.1221.0332l.9672.9683c.0762.0752.0767.3887-.0566.4219Z" fill="#fff" stroke="#fff" stroke-width=".25"/>
    </mask>
    <linearGradient id="linear-gradient-8" x1="19.0175813" y1="17.6206487" x2="19.4380211" y2="19.5986627" gradientUnits="userSpaceOnUse"><stop offset="0" stop-color="#ccc"/><stop offset=".0685891" stop-color="#d1d1d1"/><stop offset=".3565746" stop-color="#e3e3e3"/><stop offset=".6596427" stop-color="#eee"/><stop offset="1" stop-color="#f2f2f2"/></linearGradient>
    <mask id="mask-11" x="19.040074" y="19.4268" width="3.681126" height="2.2457059" maskUnits="userSpaceOnUse">
      <path d="M22.4868,21.0039l-2.1767.5425c-.0249.0063-.1036-.0156-.1226-.0332l-.9707-.9707c-.0757-.0762-.0776-.3906.0571-.4238l2.1792-.5386c.0254-.0054.105.0156.1236.0346l.9668.9673c.0761.0757.0771.3887-.0567.4219Z" fill="#fff" stroke="#fff" stroke-width=".25"/>
    </mask>
    <linearGradient id="linear-gradient-9" x1="20.7331719" y1="19.3368899" x2="21.1534618" y2="21.3141983" gradientUnits="userSpaceOnUse"><stop offset="0" stop-color="#ccc"/><stop offset=".0685891" stop-color="#d1d1d1"/><stop offset=".3565746" stop-color="#e3e3e3"/><stop offset=".6596427" stop-color="#eee"/><stop offset="1" stop-color="#f2f2f2"/></linearGradient>
    <mask id="mask-12" x="14.2593645" y="22.7363" width="3.6805355" height="2.2460599" maskUnits="userSpaceOnUse">
      <path d="M17.7056,24.3135l-2.1758.5429c-.0249.0059-.1045-.0166-.1231-.0346l-.9707-.9697c-.0756-.0767-.0776-.3917.0577-.4244l2.1796-.539c.0254-.0049.1045.0171.1226.0356l.9673.9673c.0757.0762.0766.3887-.0576.4219Z" fill="#fff" stroke="#fff" stroke-width=".25"/>
    </mask>
    <linearGradient id="linear-gradient-10" x1="15.9524952" y1="22.6467848" x2="16.3728107" y2="24.6242137" gradientUnits="userSpaceOnUse"><stop offset="0" stop-color="#ccc"/><stop offset=".0685891" stop-color="#d1d1d1"/><stop offset=".3565746" stop-color="#e3e3e3"/><stop offset=".6596427" stop-color="#eee"/><stop offset="1" stop-color="#f2f2f2"/></linearGradient>
    <mask id="mask-13" x="17.4877468" y="21.9194" width="3.6807532" height="2.2459224" maskUnits="userSpaceOnUse">
      <path d="M20.9341,23.4966l-2.1763.5425c-.0254.0068-.1045-.0162-.1225-.0337l-.9703-.9707c-.0766-.0762-.0781-.3907.0572-.4243l2.1782-.5376c.0259-.0064.105.0161.124.0341l.9673.9668c.0752.0767.0762.3892-.0576.4229Z" fill="#fff" stroke="#fff" stroke-width=".25"/>
    </mask>
    <linearGradient id="linear-gradient-11" x1="19.1808017" y1="21.829715" x2="19.6008751" y2="23.8060052" gradientUnits="userSpaceOnUse"><stop offset="0" stop-color="#ccc"/><stop offset=".0685891" stop-color="#d1d1d1"/><stop offset=".3565746" stop-color="#e3e3e3"/><stop offset=".6596427" stop-color="#eee"/><stop offset="1" stop-color="#f2f2f2"/></linearGradient>
    <mask id="mask-14" x="20.7150464" y="21.1021" width="3.6809536" height="2.2458467" maskUnits="userSpaceOnUse">
      <path d="M24.1616,22.6802l-2.1758.5415c-.0254.0068-.1045-.0156-.123-.0337l-.9707-.9702c-.0762-.0772-.0781-.3907.0576-.4239l2.1792-.5385c.0249-.0059.105.0161.1226.0342l.9673.9677c.0766.0752.0771.3887-.0572.4229Z" fill="#fff" stroke="#fff" stroke-width=".25"/>
    </mask>
    <linearGradient id="linear-gradient-12" x1="22.4085046" y1="21.0123438" x2="22.8287908" y2="22.9896346" gradientUnits="userSpaceOnUse"><stop offset="0" stop-color="#ccc"/><stop offset=".0685891" stop-color="#d1d1d1"/><stop offset=".3565746" stop-color="#e3e3e3"/><stop offset=".6596427" stop-color="#eee"/><stop offset="1" stop-color="#f2f2f2"/></linearGradient>
  </defs>
  <g>
    <g mask="url(#mask)">
      <g>
        <path d="M26.2979,25.0469l-11.2593,2.8662c-.1621.0395-.6714-.1011-.7891-.2188L3.6904,17.1357c-.4868-.4878-.4995-1.8549.3667-2.0688l11.2813-2.8369c.1611-.0396.6704.102.7866.2197l10.54,10.5391c.4869.4863.4947,1.8437-.3671,2.0581Z" fill="#d9d9d9"/>
        <polygon points="13.7905 25.145 28.2222 21.7139 28.354 24.6177 13.7461 28.4009 13.7905 25.145" fill="url(#New_Gradient_3)" fill-rule="evenodd"/>
        <path d="M3.8032,14.6304l10.375,10.3911c-.3066,1.1001,0,2.6831,0,2.6831L3.4507,17.5776l.3525-2.9472Z" fill="url(#New_Gradient_2)" fill-rule="evenodd"/>
        <path d="M26.2979,25.0469l-11.2593,2.8662c-.1621.0395-.6714-.1011-.7891-.2188L3.6904,17.1357c-.4868-.4878-.4995-1.8549.3667-2.0688l11.2813-2.8369c.1611-.0396.6704.102.7866.2197l10.54,10.5391c.4869.4863.4947,1.8437-.3671,2.0581Z" fill="none" stroke="#000" stroke-linecap="round" stroke-linejoin="round" stroke-width="2"/>
      </g>
    </g>
    <g>
      <g mask="url(#mask-1)">
        <g>
          <path d="M26.2979,25.0469l-11.2593,2.8662c-.1621.0395-.6714-.1011-.7891-.2188L3.6904,17.1357c-.4868-.4878-.4995-1.8549.3667-2.0678l11.2813-2.8379c.1606-.0396.6704.102.7866.2197l10.54,10.5391c.4869.4863.4947,1.8437-.3671,2.0581Z" fill="#d9d9d9"/>
          <polygon points="14.2065 26.1421 30.5254 22.2622 30.6738 25.5459 14.1563 29.8242 14.2065 26.1421" fill="url(#New_Gradient_3-2)" fill-rule="evenodd"/>
          <path d="M2.9121,14.2524l11.7319,11.7505c-.3457,1.2427,0,3.0337,0,3.0337L2.5151,17.5854l.397-3.333Z" fill="url(#New_Gradient_2-2)" fill-rule="evenodd"/>
        </g>
      </g>
      <g mask="url(#mask-2)">
        <g>
          <polygon points="5.8486 15.5942 8.1875 17.9321 17.3921 15.5942 15.103 13.3052 5.8486 15.5942" fill="#487653" fill-rule="evenodd"/>
          <polygon points="5.8486 16.1416 8.1875 18.48 17.3921 16.1416 15.103 13.853 5.8486 16.1416" fill="#76b781" fill-rule="evenodd"/>
        </g>
      </g>
      <g>
        <g mask="url(#mask-3)">
          <g>
            <path d="M12.5977,19.2065l-2.1753.5415c-.0254.0074-.105-.0146-.1231-.0336l-.9702-.9707c-.0767-.0762-.0781-.3902.0571-.4234l2.1787-.5376c.0254-.0063.1045.0156.1236.0342l.9668.9673c.0761.0757.0776.3891-.0576.4223Z" fill="#666"/>
            <polygon points="9.2783 18.2827 10.4629 19.4268 12.833 18.7729 11.7295 17.6284 9.2783 18.2827" fill="url(#linear-gradient)" fill-rule="evenodd"/>
            <path d="M12.5977,19.2065l-2.1753.5415c-.0254.0074-.105-.0146-.1231-.0336l-.9702-.9707c-.0767-.0762-.0781-.3902.0571-.4234l2.1787-.5376c.0254-.0063.1045.0156.1236.0342l.9668.9673c.0761.0757.0776.3891-.0576.4223Z" fill="none" stroke="#4f4f4f" stroke-width=".25"/>
          </g>
        </g>
        <g mask="url(#mask-4)">
          <g>
            <path d="M14.314,20.9219l-2.1753.5434c-.0259.0054-.105-.0156-.1236-.0341l-.9692-.9708c-.0767-.0756-.0781-.3906.0566-.4243l2.1783-.5376c.0254-.0068.1054.0161.1235.0342l.9678.9673c.0757.0767.0771.3887-.0581.4219Z" fill="#666"/>
            <polygon points="10.9941 19.999 12.1792 21.1426 14.5493 20.4897 13.4453 19.3452 10.9941 19.999" fill="url(#linear-gradient-2)" fill-rule="evenodd"/>
            <path d="M14.314,20.9219l-2.1753.5434c-.0259.0054-.105-.0156-.1236-.0341l-.9692-.9708c-.0767-.0756-.0781-.3906.0566-.4243l2.1783-.5376c.0254-.0068.1054.0161.1235.0342l.9678.9673c.0757.0767.0771.3887-.0581.4219Z" fill="none" stroke="#4f4f4f" stroke-width=".25"/>
          </g>
        </g>
        <g mask="url(#mask-5)">
          <g>
            <path d="M16.0308,22.6387l-2.1758.5425c-.0254.0058-.105-.0166-.1236-.0342l-.9702-.9702c-.0761-.0762-.0781-.3912.0572-.4248l2.1792-.5376c.0249-.0059.1049.0166.123.0341l.9668.9683c.0762.0757.0776.3882-.0566.4219Z" fill="#666"/>
            <polygon points="12.7104 21.7144 13.896 22.8589 16.2651 22.2051 15.1616 21.061 12.7104 21.7144" fill="url(#linear-gradient-3)" fill-rule="evenodd"/>
            <path d="M16.0308,22.6387l-2.1758.5425c-.0254.0058-.105-.0166-.1236-.0342l-.9702-.9702c-.0761-.0762-.0781-.3912.0572-.4248l2.1792-.5376c.0249-.0059.1049.0166.123.0341l.9668.9683c.0762.0757.0776.3882-.0566.4219Z" fill="none" stroke="#4f4f4f" stroke-width=".25"/>
          </g>
        </g>
        <g mask="url(#mask-6)">
          <g>
            <path d="M15.8257,18.3887l-2.1753.5429c-.0254.0064-.105-.0156-.1235-.0341l-.9707-.9703c-.0762-.0761-.0772-.3901.0581-.4238l2.1787-.5386c.0258-.0053.1049.0166.123.0347l.9673.9673c.0762.0762.0771.3887-.0576.4219Z" fill="#666"/>
            <polygon points="12.5054 17.4648 13.6909 18.6089 16.0601 17.9551 14.957 16.8115 12.5054 17.4648" fill="url(#linear-gradient-4)" fill-rule="evenodd"/>
            <path d="M15.8257,18.3887l-2.1753.5429c-.0254.0064-.105-.0156-.1235-.0341l-.9707-.9703c-.0762-.0761-.0772-.3901.0581-.4238l2.1787-.5386c.0258-.0053.1049.0166.123.0347l.9673.9673c.0762.0762.0771.3887-.0576.4219Z" fill="none" stroke="#4f4f4f" stroke-width=".25"/>
          </g>
        </g>
        <g mask="url(#mask-7)">
          <g>
            <path d="M17.542,20.1055l-2.1753.5424c-.0259.0059-.1055-.0161-.123-.0346l-.9712-.9697c-.0757-.0767-.0772-.3912.0581-.4244l2.1797-.538c.0244-.0059.1035.0161.122.0351l.9668.9668c.0767.0762.0781.3887-.0571.4224Z" fill="#666"/>
            <polygon points="14.2222 19.1812 15.4077 20.3257 17.7769 19.6714 16.6733 18.5278 14.2222 19.1812" fill="url(#linear-gradient-5)" fill-rule="evenodd"/>
            <path d="M17.542,20.1055l-2.1753.5424c-.0259.0059-.1055-.0161-.123-.0346l-.9712-.9697c-.0757-.0767-.0772-.3912.0581-.4244l2.1797-.538c.0244-.0059.1035.0161.122.0351l.9668.9668c.0767.0762.0781.3887-.0571.4224Z" fill="none" stroke="#4f4f4f" stroke-width=".25"/>
          </g>
        </g>
        <g mask="url(#mask-8)">
          <g>
            <path d="M19.2588,21.8218l-2.1763.542c-.0254.0063-.1045-.0157-.123-.0342l-.9702-.9707c-.0762-.0762-.0777-.3901.0571-.4234l2.1792-.5376c.0249-.0058.105.0152.1235.0337l.9668.9668c.0752.0762.0772.3892-.0571.4234Z" fill="#666"/>
            <polygon points="15.9385 20.8979 17.1235 22.042 19.4932 21.3882 18.3901 20.2441 15.9385 20.8979" fill="url(#linear-gradient-6)" fill-rule="evenodd"/>
            <path d="M19.2588,21.8218l-2.1763.542c-.0254.0063-.1045-.0157-.123-.0342l-.9702-.9707c-.0762-.0762-.0777-.3901.0571-.4234l2.1792-.5376c.0249-.0058.105.0152.1235.0337l.9668.9668c.0752.0762.0772.3892-.0571.4234Z" fill="none" stroke="#4f4f4f" stroke-width=".25"/>
          </g>
        </g>
        <g mask="url(#mask-9)">
          <g>
            <path d="M19.0542,17.5718l-2.1758.5429c-.0249.0059-.1055-.0156-.123-.0341l-.9707-.9698c-.0762-.0766-.0777-.3911.0576-.4248l2.1792-.5381c.0249-.0058.1035.0162.1225.0342l.9668.9678c.0767.0762.0782.3887-.0566.4219Z" fill="#666"/>
            <polygon points="15.7339 16.6479 16.9189 17.7925 19.2891 17.1387 18.1851 15.9951 15.7339 16.6479" fill="url(#linear-gradient-7)" fill-rule="evenodd"/>
            <path d="M19.0542,17.5718l-2.1758.5429c-.0249.0059-.1055-.0156-.123-.0341l-.9707-.9698c-.0762-.0766-.0777-.3911.0576-.4248l2.1792-.5381c.0249-.0058.1035.0162.1225.0342l.9668.9678c.0767.0762.0782.3887-.0566.4219Z" fill="none" stroke="#4f4f4f" stroke-width=".25"/>
          </g>
        </g>
        <g mask="url(#mask-10)">
          <g>
            <path d="M20.7705,19.2881l-2.1763.5425c-.0244.0068-.1045-.0166-.123-.0342l-.9702-.9702c-.0762-.0767-.0781-.3911.0571-.4239l2.1797-.5376c.0254-.0068.1035.0157.1221.0332l.9672.9683c.0762.0752.0767.3887-.0566.4219Z" fill="#666"/>
            <polygon points="17.4502 18.3643 18.6353 19.5088 21.0054 18.855 19.9019 17.7109 17.4502 18.3643" fill="url(#linear-gradient-8)" fill-rule="evenodd"/>
            <path d="M20.7705,19.2881l-2.1763.5425c-.0244.0068-.1045-.0166-.123-.0342l-.9702-.9702c-.0762-.0767-.0781-.3911.0571-.4239l2.1797-.5376c.0254-.0068.1035.0157.1221.0332l.9672.9683c.0762.0752.0767.3887-.0566.4219Z" fill="none" stroke="#4f4f4f" stroke-width=".25"/>
          </g>
        </g>
        <g mask="url(#mask-11)">
          <g>
            <path d="M22.4868,21.0039l-2.1767.5425c-.0249.0063-.1036-.0156-.1226-.0332l-.9707-.9707c-.0757-.0762-.0776-.3906.0571-.4238l2.1792-.5386c.0254-.0054.105.0156.1236.0346l.9668.9673c.0761.0757.0771.3887-.0567.4219Z" fill="#666"/>
            <polygon points="19.1655 20.0806 20.3511 21.2246 22.7212 20.5708 21.6182 19.4268 19.1655 20.0806" fill="url(#linear-gradient-9)" fill-rule="evenodd"/>
            <path d="M22.4868,21.0039l-2.1767.5425c-.0249.0063-.1036-.0156-.1226-.0332l-.9707-.9707c-.0757-.0762-.0776-.3906.0571-.4238l2.1792-.5386c.0254-.0054.105.0156.1236.0346l.9668.9673c.0761.0757.0771.3887-.0567.4219Z" fill="none" stroke="#4f4f4f" stroke-width=".25"/>
          </g>
        </g>
        <g mask="url(#mask-12)">
          <g>
            <path d="M17.7056,24.3135l-2.1758.5429c-.0249.0059-.1045-.0166-.1231-.0346l-.9707-.9697c-.0756-.0767-.0776-.3917.0577-.4244l2.1796-.539c.0254-.0049.1045.0171.1226.0356l.9673.9673c.0757.0762.0766.3887-.0576.4219Z" fill="#666"/>
            <polygon points="14.3853 23.3901 15.5708 24.5342 17.9399 23.8804 16.8374 22.7363 14.3853 23.3901" fill="url(#linear-gradient-10)" fill-rule="evenodd"/>
            <path d="M17.7056,24.3135l-2.1758.5429c-.0249.0059-.1045-.0166-.1231-.0346l-.9707-.9697c-.0756-.0767-.0776-.3917.0577-.4244l2.1796-.539c.0254-.0049.1045.0171.1226.0356l.9673.9673c.0757.0762.0766.3887-.0576.4219Z" fill="none" stroke="#4f4f4f" stroke-width=".25"/>
          </g>
        </g>
        <g mask="url(#mask-13)">
          <g>
            <path d="M20.9341,23.4966l-2.1763.5425c-.0254.0068-.1045-.0162-.1225-.0337l-.9703-.9707c-.0766-.0762-.0781-.3907.0572-.4243l2.1782-.5376c.0259-.0064.105.0161.124.0341l.9673.9668c.0752.0767.0762.3892-.0576.4229Z" fill="#666"/>
            <polygon points="17.6133 22.5728 18.7983 23.7163 21.1685 23.0635 20.0654 21.9194 17.6133 22.5728" fill="url(#linear-gradient-11)" fill-rule="evenodd"/>
            <path d="M20.9341,23.4966l-2.1763.5425c-.0254.0068-.1045-.0162-.1225-.0337l-.9703-.9707c-.0766-.0762-.0781-.3907.0572-.4243l2.1782-.5376c.0259-.0064.105.0161.124.0341l.9673.9668c.0752.0767.0762.3892-.0576.4229Z" fill="none" stroke="#4f4f4f" stroke-width=".25"/>
          </g>
        </g>
        <g mask="url(#mask-14)">
          <g>
            <path d="M24.1616,22.6802l-2.1758.5415c-.0254.0068-.1045-.0156-.123-.0337l-.9707-.9702c-.0762-.0772-.0781-.3907.0576-.4239l2.1792-.5385c.0249-.0059.105.0161.1226.0342l.9673.9677c.0766.0752.0771.3887-.0572.4229Z" fill="#666"/>
            <polygon points="20.8413 21.7559 22.0269 22.8999 24.396 22.2461 23.293 21.1021 20.8413 21.7559" fill="url(#linear-gradient-12)" fill-rule="evenodd"/>
            <path d="M24.1616,22.6802l-2.1758.5415c-.0254.0068-.1045-.0156-.123-.0337l-.9707-.9702c-.0762-.0772-.0781-.3907.0576-.4239l2.1792-.5385c.0249-.0059.105.0161.1226.0342l.9673.9677c.0766.0752.0771.3887-.0572.4229Z" fill="none" stroke="#4f4f4f" stroke-width=".25"/>
          </g>
        </g>
      </g>
    </g>
  </g>
  <g>
    <polyline points="13.4043 19.5327 11.1025 20.0361 12.1792 21.1426" fill="none" stroke="#fff" stroke-linecap="square" stroke-linejoin="bevel" stroke-width=".5"/>
    <polyline points="15.1206 21.2485 12.8184 21.752 13.896 22.8589" fill="none" stroke="#fff" stroke-linecap="square" stroke-linejoin="bevel" stroke-width=".5"/>
    <polyline points="16.7954 22.9243 14.4937 23.4277 15.5703 24.5342" fill="none" stroke="#fff" stroke-linecap="square" stroke-linejoin="bevel" stroke-width=".5"/>
    <polyline points="11.6851 17.814 9.3843 18.3179 10.4609 19.4243" fill="none" stroke="#fff" stroke-linecap="square" stroke-linejoin="bevel" stroke-width=".5"/>
    <polyline points="16.5103 18.6812 14.2075 19.1851 15.2847 20.291" fill="none" stroke="#fff" stroke-linecap="square" stroke-linejoin="bevel" stroke-width=".5"/>
    <polyline points="18.2256 20.3975 15.9233 20.9009 17.0005 22.0073" fill="none" stroke="#fff" stroke-linecap="square" stroke-linejoin="bevel" stroke-width=".5"/>
    <polyline points="19.9004 22.0728 17.5991 22.5767 18.6758 23.6831" fill="none" stroke="#fff" stroke-linecap="square" stroke-linejoin="bevel" stroke-width=".5"/>
    <polyline points="14.791 16.9629 12.4888 17.4663 13.5659 18.5728" fill="none" stroke="#fff" stroke-linecap="square" stroke-linejoin="bevel" stroke-width=".5"/>
    <polyline points="19.7378 17.8647 17.4355 18.3687 18.5122 19.4741" fill="none" stroke="#fff" stroke-linecap="square" stroke-linejoin="bevel" stroke-width=".5"/>
    <polyline points="21.4531 19.5801 19.1519 20.0835 20.229 21.1899" fill="none" stroke="#fff" stroke-linecap="square" stroke-linejoin="bevel" stroke-width=".5"/>
    <polyline points="23.1289 21.2554 20.8267 21.7593 21.9038 22.8652" fill="none" stroke="#fff" stroke-linecap="square" stroke-linejoin="bevel" stroke-width=".5"/>
    <polyline points="18.019 16.145 15.7168 16.6494 16.7939 17.7554" fill="none" stroke="#fff" stroke-linecap="square" stroke-linejoin="bevel" stroke-width=".5"/>
  </g>
</svg>