<?xml version="1.0" encoding="UTF-8"?>
<svg id="Layer_7" data-name="Layer 7" xmlns="http://www.w3.org/2000/svg" width="32" height="32" xmlns:xlink="http://www.w3.org/1999/xlink" viewBox="0 0 32 32">
  <defs>
    <linearGradient id="New_Gradient_Swatch_8" data-name="New Gradient Swatch 8" x1="6.123" y1="17.0347" x2="25.3222872" y2="17.0347" gradientUnits="userSpaceOnUse">
      <stop offset="0" stop-color="#b0caff"/>
      <stop offset=".1381484" stop-color="#97b5f2"/>
      <stop offset=".4019205" stop-color="#6f93dd"/>
      <stop offset=".64258" stop-color="#527ace"/>
      <stop offset=".8499057" stop-color="#406bc5"/>
      <stop offset="1" stop-color="#3a66c2"/>
    </linearGradient>
    <radialGradient id="radial-gradient" cx="11.0725762" cy="2.1852653" fx="11.0725762" fy="2.1852653" r="27.9425538" gradientUnits="userSpaceOnUse">
      <stop offset="0" stop-color="#b0caff"/>
      <stop offset=".0650509" stop-color="#9cb8f2"/>
      <stop offset=".2011342" stop-color="#7999db"/>
      <stop offset=".3392313" stop-color="#5e81c9"/>
      <stop offset=".4783251" stop-color="#4a6fbc"/>
      <stop offset=".6190887" stop-color="#3e65b4"/>
      <stop offset=".764045" stop-color="#3b62b2"/>
    </radialGradient>
  </defs>
  <path d="M8.4092,7.4346h14.6278996c1.2612294,0,2.2851877,1.0239583,2.2851877,2.2851877v14.6289123c0,1.2617329-1.0243671,2.2861-2.2861,2.2861h-14.6279873c-1.2612362,0-2.2851999-1.0239638-2.2851999-2.2851999v-14.6288001c0-1.2617881,1.0244119-2.2862,2.2862-2.2862Z" fill="#69c" stroke="#000" stroke-width="2"/>
  <g>
    <path d="M8.4092,7.4346h14.6278996c1.2612294,0,2.2851877,1.0239583,2.2851877,2.2851877v14.6289123c0,1.2617329-1.0243671,2.2861-2.2861,2.2861h-14.6279873c-1.2612362,0-2.2851999-1.0239638-2.2851999-2.2851999v-14.6288001c0-1.2617881,1.0244119-2.2862,2.2862-2.2862Z" fill="url(#New_Gradient_Swatch_8)"/>
    <path d="M8.4092,7.4346h14.6278996c1.2612294,0,2.2851877,1.0239583,2.2851877,2.2851877v14.6289123c0,1.2617329-1.0243671,2.2861-2.2861,2.2861h-14.6279873c-1.2612362,0-2.2851999-1.0239638-2.2851999-2.2851999v-14.6288001c0-1.2617881,1.0244119-2.2862,2.2862-2.2862Z" fill="url(#radial-gradient)"/>
  </g>
  <g>
    <polygon points="22.0585873 20.5957 20.4843874 20.9888 18.5448874 16.937 18.3593874 16.5479 17.9276874 16.5479 13.4608875 16.5479 13.4608875 15.6733 16.8046874 15.6733 16.8046874 14.3018 13.4608875 14.3018 13.4608875 10.4971 12.0897876 10.4971 12.0897876 14.9878 12.0897876 17.2334 12.0897876 17.9189 12.7753876 17.9189 17.4940874 17.9189 19.4882874 22.0854 19.7284874 22.5903 20.2733874 22.4551 22.3925873 21.9268 22.0585873 20.5957" fill="#fff"/>
    <path d="M14.8241875,10.9541c0,.8794-.7129,1.5923-1.5918,1.5923s-1.5918-.7129-1.5918-1.5923c0-.8789.7129-1.5918,1.5918-1.5918s1.5918.7129,1.5918,1.5918Z" fill="#fff"/>
    <path d="M18,20.5635l-.123-.0445c-.5293126,1.4673-1.9297125,2.4527-3.4844125,2.4527-2.0429999,0-3.7050999-1.6626-3.7050999-3.7061,0-.8012.2559-1.5537.7168-2.1787v-1.8852l-.0176-.0225c-1.2969.9565-2.0702999,2.4839-2.0702999,4.0864,0,2.7998,2.2773999,5.0777,5.0761999,5.0777,1.7578,0,3.3671999-.918,4.2850999-2.3638-.2129-.4439-.4511-.9409-.6776874-1.416Z" fill="#fff"/>
  </g>
  <path d="M8.1562877,8.3037h15.1346996c.6424843,0,1.1641.5216157,1.1641,1.1641v15.1323001c0,.6435329-.5224671,1.166-1.166,1.166h-15.1322996c-.6427602,0-1.1646-.5218398-1.1646-1.1646v-15.1337c0-.6424843.5216157-1.1641,1.1641-1.1641Z" fill="none" opacity=".25" stroke="#fff"/>
</svg>