<?xml version='1.0' encoding='UTF-8'?>
<svg xmlns="http://www.w3.org/2000/svg" xmlns:xlink="http://www.w3.org/1999/xlink" width="32" height="32" viewBox="0 0 32 32">
  <defs>
    <radialGradient id="radial-gradient" cx="122.8811169" cy="21.193577" fx="122.8811169" fy="21.193577" r="5.5592143" gradientTransform="translate(-285.0753 -41.2992) scale(2.4268)" gradientUnits="userSpaceOnUse">
      <stop offset="0" stop-color="#fff"/>
      <stop offset=".207865" stop-color="#b7e9ff"/>
      <stop offset=".47191" stop-color="#3c97f6"/>
      <stop offset=".668539" stop-color="#032c87"/>
      <stop offset="1" stop-color="#0342d3"/>
    </radialGradient>
    <mask id="mask" x="7.6073966" y="5.2139" width="18.7985496" height="20.9669722" maskUnits="userSpaceOnUse">
      <path d="M7.6073966,14.1538c0-4.937,4.0019999-8.9399,8.9394998-8.9399,4.9369999,0,8.9413998,4.0029,8.9413998,8.9399s-4.0043999,8.9385-8.9413998,8.9385c-4.9374999,0-8.9394998-4-8.9394998-8.9385Z" fill="#fff" fill-rule="evenodd"/>
    </mask>
    <radialGradient id="radial-gradient-2" cx="13.3257082" cy="10.364667" fx="13.3257082" fy="10.364667" r="12.728404" gradientUnits="userSpaceOnUse">
      <stop offset="0" stop-color="#dfeaeb"/>
      <stop offset=".303371" stop-color="#b7e9ff"/>
      <stop offset=".52809" stop-color="#3c97f6"/>
      <stop offset=".825843" stop-color="#032c87"/>
      <stop offset="1" stop-color="#0342d3"/>
    </radialGradient>
    <mask id="mask-1" x="14.9990437" y="11.5702034" width="11.4069024" height="12.3301829" maskUnits="userSpaceOnUse">
      <path d="M24.8285961,13.3408c0,5.1856-3.1386999,8.8228-8.2841998,9.1817-.5473.039-.6235-.4322-.0893-.5581,4.3773999-1.0352,7.3407998-5.8838,7.8236998-8.6744.0493-.644.5498-.4975.5498.0508Z" fill="#fff"/>
    </mask>
    <linearGradient id="linear-gradient" x1="15.7330296" y1="7.1597585" x2="14.7260777" y2="26.3735451" gradientUnits="userSpaceOnUse">
      <stop offset="0" stop-color="#65bd7b"/>
      <stop offset=".0074065" stop-color="#60bb74"/>
      <stop offset=".0565792" stop-color="#45af4f"/>
      <stop offset=".1023037" stop-color="#32a734"/>
      <stop offset=".1428936" stop-color="#27a224"/>
      <stop offset=".174157" stop-color="#23a11f"/>
      <stop offset=".2984012" stop-color="#1c871d"/>
      <stop offset=".4981417" stop-color="#14651b"/>
      <stop offset=".6872815" stop-color="#0e4c19"/>
      <stop offset=".8596362" stop-color="#0b3d18"/>
      <stop offset="1" stop-color="#0a3818"/>
    </linearGradient>
    <mask id="mask-2" x="8.7838556" y="7.339702" width="17.6220906" height="18.5122177" maskUnits="userSpaceOnUse">
      <path d="M9.3358965,8.1553c.0557.1416-.1743.2343-.0185.2568.3437.0479.5381-.2095.8838-.1601.1152.0156.1699.0405.2822.0639-.0322.2305.0459.3828.0142.6128-.0479.3438-.3315965.4629-.3819.8071-.0283.2139.0874.3457.0562.5591-.0137.0977-.0718.148-.0996.2364l.041-.2945c-.0645-.0093-.0928-.0473-.1582-.0561-.3374-.0469-.2660965.4555-.4385.7412-.3335.5371-.6187.832-.7065,1.4551-.1285.9169.2636,1.4565.1333,2.374-.0463965.3452.142.5376.353.8188.0508.0073.1011.0049.1372-.0156-.0601-.7681-.1865-1.1694-.1631-1.9272.1948.2607.085.5136.2207.7998.2705.5649.4536.8828.6245,1.4912.062.2182-.0742.416.0503035.6089.2597965.4052.3808965.7221.7968965.9814.2309.1406.4849.0005.6753.1938.2915.3018.3428035.7168.7602.7764.212.0313.3433-.0845.5601-.0556.2524.0375.0942.3974.1924.6308.0903.2031.3511036.1318.5322.2739.2168.1724.2505.4703.5283.5093.1651.0235.2246036-.1694.3887-.1455.2627.0352.1763.4087.1387.6714-.0694.5059-.6807.5718-.7515,1.0791-.0137.0903.0796.1372.0679.2266-.0186.1318-.19.1577-.208.2885-.0498.3604.227.5249.4189.8277.1699036.2671.1499036.5312.3989036.7241.3447964.2759.9267964.3071.8647964.7412-.1021.7285-.7564.8623-1.1465,1.4917.0693.0444.1069.084.189.0942.8774.1221,1.3042-.4848,2.1464999-.7685.5698-.187.9589-.1074,1.4921-.3921.2798-.144.3116-.4233.5826-.585.5669-.3379.9799-.4233,1.4311-.9033.2847-.3013.2402-.6411.4429-1.0068.2895038-.5181.6406-.6948.8774-1.2471-.0703-.0435-.1015-.1133-.1914-.1265l-.6064-.0849c-.3765-.0532-.6553-.3848-.6035-.7617-.417-.0674-.6573-.084-1.0752-.1426-.5328-.0747-.6407-.6582-1.1739-.7339-.2294963-.0317-.3304963.2207-.5624963.1894-.3027037-.0419-.4472037-.1977-.7514037-.2402-.1885-.0259-.2784.1455-.3609.3169l-.1366964.0147c-.0327036-.1216-.0024036-.2168.0150964-.3497.0079036-.0478-.0752-.0522-.0864-.0942-.3823.104-.5093.5293-.9013.4751-.0987-.0142-.1338-.1201-.2325-.1333-.1792-.0249-.2812.0942-.4618964.0689-.3359036-.0479-.6616036-.2852-.6147036-.6211.0171-.1236.1557036-.1543.1723-.2769.0445-.3032-.1967-.4961-.4775-.6362l-.2050964.0381-.2949036-.0411c.0078-.0585-.0195-.0952-.0132-.1523.0308-.2129.3154-.2231.3457-.4375.0274036-.1865.0025-.3066.0693-.4897l-.541-.0767c-.2298964.1426-.3427.4204-.6211.3809-.4917-.0694-.7905-.5625-.7221-1.0542.083-.5816.3828-1.232.9648-1.1509.1953.0273.2822.1386.4776.167.1381.02.1826-.1739.3222-.1548.3682.0517.8037036.2217.7549.5903-.0478.3364.1934.5713.4981.7217.0278-.0796.0444-.1265.0629-.207l-.0864-1.0655c.2896-.5034.9995-.4287,1.0781-.9936l.0528-.377c.0595-.4341.5488-.6323.9834-.5717-.0298-.1626-.1319-.2525-.1089-.4161.0244-.1806.228-.2031.4004-.2446-.002.0742,0,.125.0068.2012.3926037-.0698.8203-.1353.876-.5288.0063-.0489-.0762-.0528-.0873963-.0957-.1294037.0317-.2197037.0693-.3574037.0493-.188-.0259-.1265-.2935-.083-.479-.1172-.0171-.1812-.0176-.2998-.0083.0854-.1304.205-.1558.3613-.1836l.1855.0918c.106-.0425.1787-.082.2862-.1265.0361.1558-.0107963.3677.1538.3897l.7124037.1006c.0492963-.1773-.1953037-.2115-.3184037-.3458-.1094-.1147.0244037-.2812-.0757-.4121-.1698963-.2246-.4165-.1836-.6562-.3252-.4086963-.2495-.4048-.8012-.8823-.8681-.0889-.0127-.1241.1162-.2143963.1035-.3189036-.0449-.3667036-.4194-.6865036-.4629-.0977-.0156-.1607.0186-.2544.0293.0097.1685.1308.2524.1064.417-.0381.2783-.4364964.2642-.4764964.5415-.0225036.1743.062.27.0712964.4458-.2564-.0112-.1817-.3682-.3575-.5522-.2987964-.3086-.9712-.2198-.9092-.6543.0865-.6138,1.1285-.4175,1.2173-1.0318.0044-.0493-.0512-.0742-.0542-.1152.0782-.0152.1245-.0508.2066-.0376.2622.0361.3882.2119.5063.4463-.1572.0444-.2558.0307-.414.0757.3388.2065.6645.1596.9028.4775l.3242-.1553c-.0674-.1181-.123-.1924-.229-.2827.0698-.0142.1289-.0234.2012-.0044-.1602-.29-.459-.291-.7349-.4805-.2728964-.1879-.4053-.3906-.7417-.4375l.0235-.1562c.0293036-.2046.165-.2773.2963036-.4341-.0874036-.0459-.1391036-.0869-.2377036-.1011-.2125-.0297-.4825-.0161-.5122964.1958-.019.1319.1098964.1748.1621964.2901-.0943.0698-.1611964.1211-.23.2016.0722.0684.145.147.1303.2535-.0092.0727-.0844.0786-.1499.1118-.1269-.2266-.2827-.3731-.2441-.6353-.1172.0083-.2686.0122-.2837.126-.021.1387.0879.2046.1538.3228-.1162.0507-.1904.1074-.3213.0888l-.2871-.041c.0352-.0767.1148036-.0996.1265-.1895l.0469-.3369c-.1895-.0092-.2915-.0581-.482-.0844-.1533-.0235-.3437.0263-.3667.1816-.0228964.1738.1441036.23.2486.3696-.0782.0303-.1216.0923-.211.0786-.1719-.0244-.1113-.2734-.247-.3774-.1807-.1416-.3643-.0415-.5957-.0498.0146-.2148-.0347-.4727-.2457-.502-.5986-.0844-.9438.1675-1.5083.3887-.4233.166-.7929.1143-1.1289.4102ZM13.3417964,11.5244c.2988-.1069.4795-.2656.7988-.2207.2051.0288.1856.2847.3452.4067.2173.1729.4366.1548.6182036.3555-.147.146-.2446036.2481-.4453036.3042.0249-.1797-.063-.376-.2446-.4013-.294-.0406-.1534.5126-.4239.642-.0415-.2309-.0791-.3794-.0483-.6079.0176-.123.1103-.1855.206-.2568-.103-.0635-.1567-.1543-.2802-.1719-.1626-.0224-.3618-.041-.5259-.0498ZM15.5424964,12.2773l.1865036.0928c-.2764036.3047-.5957036.4351-1.0054036.377l-.1815964-.0249c.2567964-.3316.5683964-.4131,1.0004964-.4449ZM15.8485964,17.6924c-.0908-.0127-.02-.1445-.0258-.229.0844-.0132.1391-.0313.2304-.0347.0015-.0752.0005-.1255-.0053-.2012.0581036.0083.0878-.0214.1435-.0136.3364.0483.4902.2031.8218.2832-.2621963.3818-.7134.2592-1.1646.1953ZM14.2323964,16.8306c-.1713964-.0327-.3105-.1021-.3535-.2764.2222-.0352.3408-.0513.563-.0205.3027.0434.4604.1582.7266.3032.2006.1113.5131.1387.4819.3672-.0186.1406-.189.1582-.3281.1387l-.2871-.041c.0351-.0704.0761-.1221.125-.1817-.2421964-.2187-.4063-.3755-.7325-.4219-.0595-.0063-.1425.1216-.1953.1324ZM16.1913964,7.8823c.313.2202.4785.4673.8608.4805.042.2383.2505.2944.4112.4663.289.3174.459.6001.8847.6602.0738.0102.1182-.0083.1929037-.0054-.1118037-.2774-.3804037-.3975-.3359037-.6919.0244-.1812.1982-.2398.2241-.4199.0435-.3028-.4101963-.2827-.6733-.4297-.3736-.2022-.5668963-.4453-.9913-.5059-.3852-.0542-.7685-.0078-.9501.334.1054.04.2622.1035.3769.1118Z" fill="#fff" fill-rule="evenodd"/>
    </mask>
    <radialGradient id="radial-gradient-3" cx="11.6193588" cy="9.5093339" fx="11.6193588" fy="9.5093339" r="16.3446768" gradientUnits="userSpaceOnUse">
      <stop offset="0" stop-color="#d3edd5"/>
      <stop offset=".0881577" stop-color="#ceebd0"/>
      <stop offset=".1888042" stop-color="#c1e5c2"/>
      <stop offset=".2955934" stop-color="#aadbab"/>
      <stop offset=".4067144" stop-color="#8bce8b"/>
      <stop offset=".5211732" stop-color="#64bd62"/>
      <stop offset=".6367876" stop-color="#34a830"/>
      <stop offset=".674157" stop-color="#23a11f"/>
      <stop offset=".6869737" stop-color="#209b1c"/>
      <stop offset=".7628023" stop-color="#128010"/>
      <stop offset=".8398735" stop-color="#086d07"/>
      <stop offset=".9182832" stop-color="#016101"/>
      <stop offset="1" stop-color="#005e00"/>
    </radialGradient>
    <mask id="mask-3" x="14.9990437" y="11.5702034" width="11.4069024" height="12.3301829" maskUnits="userSpaceOnUse">
      <path d="M24.8285961,13.3408c0,5.1856-3.1386999,8.8228-8.2841998,9.1817-.5473.039-.6235-.4322-.0893-.5581,4.3773999-1.0352,7.3407998-5.8838,7.8236998-8.6744.0493-.644.5498-.4975.5498.0508Z" fill="#fff"/>
    </mask>
    <mask id="mask-4" x="2.7152967" y="11.5806" width="16.6337996" height="19.6059" maskUnits="userSpaceOnUse">
      <rect x="2.7152967" y="14.8193" width="16.6337996" height="16.3672" fill="#fff"/>
    </mask>
    <mask id="mask-5" x="6.0985966" y="22.0703" width="9.2006998" height="8.1387" maskUnits="userSpaceOnUse">
      <polygon points="11.3700965 22.0703 15.2992964 26.0381 10.3822965 29.9209 8.0224966 27.5566 7.5766966 27.6182 6.4403966 26.4795 6.4403966 23.4248 11.3700965 22.0703" fill="#fff"/>
    </mask>
    <linearGradient id="New_Gradient_164" data-name="New Gradient 164" x1="7.3698135" y1="28.231483" x2="13.1063057" y2="22.4949908" gradientUnits="userSpaceOnUse">
      <stop offset="0" stop-color="#b2b2b2"/>
      <stop offset=".320221" stop-color="#f2f2f2"/>
      <stop offset="1" stop-color="#e5e5e5"/>
    </linearGradient>
    <mask id="mask-6" x="10.3822965" y="26.0361" width="4.9291999" height="4.0093" maskUnits="userSpaceOnUse">
      <polygon points="10.3822965 27.3662 15.3114964 26.0361 15.3114964 28.6025 10.3822965 29.9336 10.3822965 27.3662" fill="#fff" fill-rule="evenodd"/>
    </mask>
    <linearGradient id="New_Gradient_159" data-name="New Gradient 159" x1="13.8677087" y1="25.7561863" x2="9.9363882" y2="24.1678297" gradientUnits="userSpaceOnUse">
      <stop offset="0" stop-color="#999"/>
      <stop offset=".966293" stop-color="#d9d9d9"/>
      <stop offset="1" stop-color="#e5e5e5"/>
    </linearGradient>
    <mask id="mask-7" x="9.3241965" y="22.2656" width="4.7528999" height="4.9077" maskUnits="userSpaceOnUse">
      <polygon points="11.606 26.9912 11.0785965 26.4639 10.6786965 25.1104 9.5600965 23.2744 9.5600965 22.8198 11.3861965 22.3696 13.3686964 24.6104 14.0770964 25.583 11.606 26.9912" fill="#fff" fill-rule="evenodd"/>
    </mask>
    <mask id="mask-8" x="11.2782965" y="25.5684" width="3.2217035" height="2.9047" maskUnits="userSpaceOnUse">
      <polygon points="14.5 25.999 14.5 27.3672 12.0404965 28.0264 11.6015965 27.5972 11.6015965 26.2314 14.0624964 25.5684 14.5 25.999" fill="#fff"/>
    </mask>
    <mask id="mask-9" x="11.3270965" y="8.6377" width="9.7822998" height="9.727" maskUnits="userSpaceOnUse">
      <polygon points="14.0033964 8.6377 14.1093964 12.0874 11.3270965 14.1265 14.6381964 15.0913 15.7167964 18.3647 17.6601963 15.5166 21.1093962 15.4966 18.998 12.7725 20.0482963 9.4897 16.8021963 10.6528 14.0033964 8.6377" fill="#fff"/>
    </mask>
    <radialGradient id="radial-gradient-4" cx="-116.1611508" cy="65.6633629" fx="-116.1611508" fy="65.6633629" r="6.9139004" gradientTransform="translate(-111.7797 -21.3978) rotate(166.0012765) scale(.9999988 -.9999988)" gradientUnits="userSpaceOnUse">
      <stop offset=".410112" stop-color="#f9e917"/>
      <stop offset="1" stop-color="#d68112"/>
    </radialGradient>
    <radialGradient id="radial-gradient-5" cx="-164.3291541" cy="52.6783191" fx="-164.3291541" fy="52.6783191" r="7.1825623" gradientTransform="translate(-133.6702 .117) rotate(166.0035596) scale(.8728132 -.8728132)" gradientUnits="userSpaceOnUse"><stop offset=".410112" stop-color="#f9e917"/><stop offset="1" stop-color="#d68112"/></radialGradient>
  </defs>
  <g isolation="isolate">
    <g id="Layer_7" data-name="Layer 7">
      <g>
        <path d="M7.6073966,14.1538c0-4.937,4.0019999-8.9399,8.9394998-8.9399,4.9369999,0,8.9413998,4.0029,8.9413998,8.9399s-4.0043999,8.9385-8.9413998,8.9385c-4.9374999,0-8.9394998-4-8.9394998-8.9385Z" fill="url(#radial-gradient)" fill-rule="evenodd" stroke="#000" stroke-miterlimit="3.8637" stroke-width="2.0682"/>
        <g mask="url(#mask)">
          <g>
            <path d="M7.6073966,14.1538c0-4.937,4.0019999-8.9399,8.9394998-8.9399,4.9369999,0,8.9413998,4.0029,8.9413998,8.9399s-4.0043999,8.9385-8.9413998,8.9385c-4.9374999,0-8.9394998-4-8.9394998-8.9385Z" fill="url(#radial-gradient-2)" fill-rule="evenodd"/>
            <g mask="url(#mask-1)">
              <g>
                <path d="M24.8285961,13.3408c0,5.1856-3.1386999,8.8228-8.2841998,9.1817-.5473.039-.6235-.4322-.0893-.5581,4.3773999-1.0352,7.3407998-5.8838,7.8236998-8.6744.0493-.644.5498-.4975.5498.0508Z" fill="#3c97f6"/>
                <path d="M25.0712961,13.3794c0,5.186-3.1376999,8.8247-8.2841998,9.1841-.5483.0386-.6245-.4336-.0898-.5601,4.3773999-1.0337,7.3397998-5.8838,7.8251998-8.6738.0483-.6441.5488-.4971.5488.0498Z" fill="none" stroke="#2b76b4" stroke-miterlimit="3.8637" stroke-width="2.6693"/>
                <path d="M24.9481961,13.3594c0,5.187-3.1371961,8.8242-8.2806998,9.1841-.5493.0376-.627-.4327-.0923-.5591,4.3768999-1.0347,7.3428037-5.8838,7.8241998-8.6743.0503-.6441.5488-.4981.5488.0493Z" fill="none" stroke="#1459a5" stroke-miterlimit="3.8637" stroke-width="1.3347"/>
                <path d="M24.8285961,13.3408c0,5.1856-3.1386999,8.8228-8.2841998,9.1817-.5473.039-.6235-.4322-.0893-.5581,4.3773999-1.0352,7.3407998-5.8838,7.8236998-8.6744.0493-.644.5498-.4975.5498.0508Z" fill="none" stroke="#1d3f99" stroke-miterlimit="3.8637"/>
              </g>
            </g>
            <path d="M13.3285964,7.9702l.0728.0723c.1347.1225.2881.3589.0156036.4634l-.0732036.042c-.3746.2065-.4893-.1055-.5977-.3643-.1602-.1245-.7075.1562-.6826-.2485.0019-.0547.0049-.2183-.0459-.2642-.6563-.0923-1.1392.3325-1.7475965.4746-.2173035.0498-.4521035.0767-.643.2056-.0132035.0727-.0494035.1372-.0918035.1968-.2598-.0357-.2247-.1192-.1216-.2647.3457.0479.355-.27,1.1821-.0928.293.063.1948.9561.0898,1.1553-.2778.5288-.3071.2647-.2284965.8633.0243965.1865-.0073035.2959-.0966035.4546-.0948.2798-.3892.2466-.4395.0366l-.0303.126c-.0259.0923-.0585965.2036-.122.3032-.628,1.0117-.8438,1.189-.607,2.4858.0772.4327.1304035.8164.0679,1.2578-.0264.1861.0552.316.1592.4571l.1504.1977-.1333-.0805c-.0717965.0102-.1265.2724-.1289.2163-.0591-.7793-.188-1.1861-.1656-1.9527.0142-.4189.5049-.3056.5777035.3755.0121965.1138.0174965.2295.0677965.336.2427.5044.4864.9853.6377,1.5273.0376.1333-.0136.4893.0225035.5483.2225965.3467.3651965.6851.7274965.9122.1665035.101.4532-.042.7173.228.273.2803.357.8047.8277.6885.9218-.2276.5996.4262.7319.7285.2602.1587.3813.02.6411.3803.0547.0787.1465036.2588.2451.2725.1509-.0703.166-.1777.3887-.146.3755.0518.395.4273.3599.708l-.0313.2144c-.0825.5869-.6708964.6904-.7476,1.0498.1387036.2422.0489.4004-.1469.5639-.02.2188.2739.4781.3877.6582.122.1895.1831.5401.3496.6695.3467.2744,1.0356.3154.9468.9448-.0987.7075-.5918.896-.9971,1.3442.6728.0186,1.2705-.5561,1.896-.7651.4839-.1601,1.0039-.1367,1.4599-.3789.1939-.1001.2969-.416.5723-.5801.5654037-.3393,1.3755-.5537,1.585-1.2558.0576-.1949.1084037-.3907.208-.5723.2177-.3882.5708-.6704.7827-1.0557-.5571-.0786-1.2515-.1294-1.3359-.8662-.7549-.1089-1.0655.002-1.5987-.5439-.0742-.0767-.3413-.3594-.4956-.2954-.1138.0678-.0727.041-.1620963.0986-.4185037.2495-.7227037-.1011-1.1138037-.1567-.2065.1528-.0331963.2895-.4433.332-.2324.0254-.272-.2524-.2558964-.4131l.0116964-.083c-.0312-.0342-.0546964-.0728-.0664-.1157.0923.0532.1851.1074.2754.1611-.3833.105-.709.8193-1.2246.3613-.1582-.0185-.2534.085-.4595.0552-.561-.0791-1.1185964-.6772-.6538-1.1367.0459-.1602-.0376-.2603-.2715-.3843l-.1312964.0239-.0718036.0025-.2949-.042-.1895-.251c-.0415-.1982.0308-.3467.1856-.4712.083-.061.0454-.0332.1162-.0849.0381-.1109.0439-.1929.0493-.2652l-.2098964-.0713-.0611036.0528c-.1875.1826-.3481.3574-.6494.3154-1.6299-.229-.852-3.2661.6104-2.5395.0556.0273.0932.0454.1372.0556.4277-.4072,1.3784.1148,1.2988.6929-.0142.1069.019.208.1064.3022-.0669-.8335-.2685-1.0639.4947036-1.4673l.1698964-.0874c.395-.2041.335-.3076.395-.7314.0679-.4775.4819-.7129.8897-.7632-.0938-.3408.1074036-.5459.4213-.6235l.1329-.0303c.1342037-.0327.2412037.0317.268.1514.1597-.0357.3482037-.0825.4185-.2032-.0274-.0317-.0459-.0654-.0537-.103.0903.0537.1767.1084.2666.1631-.3638.0894-.8071963.1328-.7564-.4351-.4526.0308-.3105-.4804.1616-.5961l.1226037-.0235c.0736963-.0151.1723963.0352.2318963.0659.4097-.186.4668-.1303.5245.2954l.0688.0093c-.0503-.1167-.0137-.2143-.0244-.332-.0762-.1016-.4463-.1753-.5874-.2588-.3163963-.1943-.5298-.7607-.7432-.8252-.2207.1924-.4941.0542-.6723-.1304-.0923-.1015-.0542-.0615-.1373-.1538-.1337-.1391-.1757-.0796-.3408-.0591l.1934-.2319c.0137.2608.3242.5132-.1455.8335l-.0923.0567-.0703.0449c-.0845.0576-.0777.0918-.0459.1953l.0317.1133c.1333.5439-.4707.5073-.6191.0268-.1226-.3965-.1963-.333-.5996-.477-.7676-.2749-.5157-.9668.0644-1.2207.1817-.0801.6021-.1831.6739-.3721-.2237-.3896.6401-.7217,1.0874.1714.0341036.0644.0376.1304.0141036.1846.0448964.018.0902964.0376.1327964.061-.0122-.041-.0087964-.084.0078-.1196l-.1825964-.0791c-.3105036-.1382-.584-.4922-.8886036-.5347-.3165-.0449-.1626-.5449-.0493964-.7002-.0429036,0-.0786036.0029-.1074036.0107.125.1519.1895.3365.0479.4414l-.0577.0455c.2378.4428-.3657.7202-.5161.4526-.1484-.2666-.3178-.4356-.269-.7754l.2344.2524c.2553.3746-.1978.5787-.4976.5372-.2451-.0347-.7148-.084-.3896-.4561l.0449-.0498.0127-.0947c-.1021-.021-.2598-.0733-.3599-.0479ZM9.2001965,8.3052l.0552-.2261c.3857-.3413.7661-.2822,1.1919-.4497.5136-.2007,1.894-.9038,2.0487999.0825l.0923-.0102c.1264-.0069.2773.0048.4253.122.0986.0738.144.1836.1772.2979.021-.0108.0454-.021.0679-.0308l-.0996.3408c-.169-.2255-.4761-.4267-.19-.7485.2705-.3013.6563-.0903.981-.0742.3359.019.2168036.6352.0469.8125-.0308.0303-.3672-.3062-.1997-.2837.3505.0503.2373.0776.4878-.0313l-.107.3125c-.1294-.2285-.3955-.6049.0801-.7475.04-.0122.083-.02.1299-.0235l.0996-.0083c.3013-.0219.1899.2857.2734.4498.0474.0961.1177.1875.1792.2978l-.2231-.0659c-.1719-.1719-.2481-.2246-.0292964-.4287-.3618036-.503.3822964-.8726.9984964-.5445.3599.1905-.1147.4532-.1699.6211.3037.1128.498.3833.79.5157.209.0942.8594036.4184.6387.7202.186.3262-.5049.6509-.6787.4238-.1689-.2275-.5903-.2715-.8389-.4224-.3012-.1826-.0644-.3842.1421-.4233-.021-.0166-.0444-.0303-.0674-.0405-.1626.7055-1.33.6113-1.1938,1.021.1269.1245.5781.144.8428.4189.1137.1196.1508.2735.1982.4273.0171.0532.0068.0532.0078.0551-.1699-.0839-.1767.4239-.2441.1543l-.0264-.0937c-.083-.2837-.0238964-.5191.2227-.6885l.0908-.0571.0708-.0435c.1392-.0947-.0376-.2822-.0483-.4414-.021-.374.6591036-.3032.9096-.042.104.1123.0488.0528.1416.1543.0259036.0288.0562.0567.0913.0733.4444-.3828.8418.3471,1.0547.6367.0518.0727.1079037.1299.1782.1719.3789.2265.854.1269.7911.7895.1831.1577.4526037.2085.3579.5444-.0918.3199-1.1538.1997-1.2618-.2251-.1147.0484-.2221-.0078-.3251-.0576-.0683963.0171-.1153.0308-.1397.0723l-.2041-.3423c.3906-.0283.5791-.0185.5054037.418l-.0142037.0747c.1016-.0176.1514-.0337.2124-.0484l.2691.1631c-.0337-.0205-.0435-.0595-.0547-.0942.4463.2598-.0938.812-.6045.9302-.1504.0351-.4140963.1289-.5244-.0284l.0556.1358c.2984.7622-.8427.1089-.9394.7949-.0767.5635-.0733.7769-.6308964,1.0635l-.168.0864c-.1171036.063-.2387036.1358-.3198036.2466l.0772.9907-.0043964.0694c-.2232036.9106-1.0772036-.0406-1-.5967.0326964-.2193-.3828036-.3111-.5283036-.335-.3516.3399-.524.0274-.8345-.0171-.6817-.0952-1.105,1.6363-.1811965,1.7647.1767965.0263.3720964-.4151.6210964-.3794.7886.1108.7227-.0244.6802.5552-.0186.2563-.0024.414-.2172964.5815-.0722036.0542-.0415036.0308-.0722036.0542.6367-.1143,1.2377.6411.7421,1.1309-.0337.2504.3374.4209.5552.3447.2183-.0723.3882-.0811.565.0771.184.0274.5483-.3838.8125-.456l.2753.1611c-.0341-.02-.0458964-.0591-.0551-.0933.0522036.0293.0913.0669.1172036.1124.3851963-.2588.9325963.2343,1.1092963.1606.1167037-.0708.0694-.0405.1631-.0996.7134-.4258,1.0264.5781,1.5362.6499.4218.0591.6616.0766,1.0795.145.3526.0547-.0058.6748.5997.7578.1718.0254.6308.0181.8266.1924l.0562.0527s.125.1895.0859.2764c-.2139.4981-.6294.8081-.8843,1.2676-.2021.3618-.1465.7002-.4775,1.0498-.4716962.5029-.9199.6089-1.4771.9424-.2215963.1308-.2632.4214-.5942.5913-.5083.272-1.0023963.2344-1.5243963.4067-.7769036.2598-1.6836036,1.1753-2.523.6519-.3891036-.2427.4765964-.9077.6493964-1.062.9371-.8472.0972-.7994-.3891-1.1846-.3096-.2432-.27-.5044-.4468-.7798-.2334-.3657-.7793-.8403-.2714964-1.2632-.3193036-.5879.6523964-.8916.7113964-1.3115l.0303-.2056c.0069-.0586.0113036-.1186.0093036-.1714-.6338036.4498-.7983036-.3945-1.0918036-.4887-.2217-.0708-.4121-.0777-.5195-.3238-.0659-.1503-.0518-.3095-.0576-.4687l-.0528-.0278c-.6816.0903-.7666.1079-1.2055-.5826-.2837-.4467-.4087-.1337-.7852-.3657-.4525965-.2807-.5962-.6255-.8687-1.0493-.185-.2876-.0205-.4746-.0756-.667-.0757-.2651-.1665-.5161-.2818-.7666.0366.3174.0801.6377-.3534965.5762-.0239035-.0029-.1338035-.0669-.1475035-.0855l-.1503-.2002c-.4146-.5532-.1801965-.7578-.231-1.3628-.0854-.9868-.4185-1.6523.1382-2.6333.1245-.2202.2812-.4301.4502-.7026.1802-.2978.1562-1.1172.8164035-.7881.2792965.0391.1718965.3916.1488965.5459l-.4302-.1006c.0098-.0341.0235-.0644.0376-.0927.1856-.3365-.2529-.4981.2266-1.1665.2305-.3194.1455-.3697.1274-.7164l-.0854-.0136c-.1734-.0269-1.6636.5713-1.0606-.2735l.0269.0152ZM14.4901964,12.314l-.0166.0547-.0302.1196c-.1113964.4219-.5391.6167-.606.2539-.0659-.3613-.1641-.7608.1665-1.0249l.0742-.0576.0137.3647c-.0552-.0351-.1016-.0766-.1499-.1177-.0693-.0542-.4546-.0649-.5454-.0683-.2924964-.0113-.3408-.3316-.0654-.4302.3999036-.1455.9858-.5107,1.2631.0576.107.2168.126.2027.3609.2969.1714.0679.6098.3101.3711.5493l-.1079.1065c-.127.1211-.2632.2094-.4336.2568-.3428.0947-.2451-.2739-.2945-.3613ZM14.8085964,12.1831c-.1435964-.0586-.2715-.1094-.396-.207-.1694-.1304-.1825964-.3062-.2388-.3618-.2461-.0352-.4697.1298-.6924.2104l-.0673-.4307c.25.0093.6015.0039.8042.1661.1357036.1147.3647036.2729.1255.4555l-.0625.0479c-.1802.1865.1694.5268-.314.4316.0239-.0303.0386-.0849.0483-.1216l.0269-.1084c.0561-.2407.1714-.4663.4678-.4253.3178.0445.4746.3619.4345.6529l-.2797964-.2456c.0610964-.0166.104-.0371.1435964-.064ZM15.8925964,12.2627c.4399.2192-.3315964.9082-1.1363.7949-.1831-.0254-.5488-.0869-.3247-.3799.3155-.4072.7046-.498,1.1582-.5312.0899-.0069.254.0918.3028.1162ZM15.6952964,12.6597l-.1328-.0655c-.3706.0332-.5908.1099-.7778.3531l-.146-.3545c.4223036.0586.6777.0625.9907-.2818l.0659.3487ZM15.8954964,17.3853l.249-.2867c.312-.0766.6739.1988.9868.2725.4195.1025.044.6758-.5537.7026-.2334.0103-.4643-.0381-.6928-.0708-.1875-.0258-.2577964-.1469-.2364-.334l.0147-.0844c.103-.0952.1758-.1577.2324-.1992ZM16.563,17.6304c-.0772037-.0352-.1441036-.063-.2256036-.0825-.0122.0981-.1103.1875-.21.1933-.081.0025-.1303.02-.2055.0322l.187-.2324c.0044.0611-.0098.1201-.0191.1807-.0976-.0142-.1572-.0611-.1445-.1587.2041.0298.4131.0766.6177036.0674ZM14.5321964,17.022c-.1006.0874-.1533.1108-.1943.1176h-.082c-.6328964-.121-.8998964-.9008.2822-.7348.334.0473.5181.1714.8027.3276.249.1406.6529.1807.5943.5943-.0620964.4419-.5810964.3266-.8648.2871-.1714-.0249-.2446-.1651-.1699-.3189l.0283-.0517c-.1221-.1016-.2353-.1851-.3965-.2212ZM14.2484964,16.6787c.2286-.209.5323-.0786.7613.0703.1333.085.4399.2979.434.4688-.0024.1186-.0947.1758-.1464.2749l-.1651-.3189.1626.0225c-.2832-.1099-.5093-.3081-.8203-.3506-.188-.0278-.2793-.0151-.4941.019l.1797-.2719c.0068036.0332.0253.0625.0883.0859ZM16.3173964,7.7666l.0679.0259c.2275.1596.4389.4297.7377036.4389.1874963.0059.1855963.2168.2983963.3106.0923.0776.188.1406.27.2285.1895.2066.4785.6211.7949.5884.0376-.0044.0782-.0083.1255-.0083l-.2119.3066c-.1328-.3291-.562-.5366-.2793-1.0053.0151-.024.0327-.0474.0483-.0699.0499-.0605.0318-.0381.0757-.0908.0235-.0395.0293-.0488.0318-.0596-.0283963-.0268-.4732-.1523-.5635-.2026-.4473-.2436-.8247-.6553-1.3955-.4624ZM16.5316963,8.4717c-.1146963-.0821-.2231-.1856-.3584-.2847-1.2856-.2178.0909-1.4101,1.2901-.647.144.0904.2822.2002.4629.2994.2973.164.8608.1391.7885.6547-.0161.1006-.0585.1905-.122.2696-.0517963.0654-.0269.0327-.0727963.0908-.0898037.1435.2377963.5029.2904963.6348.1226.2988-.2387.3359-.4287.3105-.5067963-.0718-.7099-.3935-1.0166-.73-.1401-.1518-.31-.2051-.414-.4111-.1665-.0317-.3008-.103-.4195-.187Z" fill="url(#linear-gradient)"/>
            <g mask="url(#mask-2)">
              <g>
                <path d="M9.3358965,8.1553c.0557.1416-.1743.2343-.0185.2568.3437.0479.5381-.2095.8838-.1601.1152.0156.1699.0405.2822.0639-.0322.2305.0459.3828.0142.6128-.0479.3438-.3315965.4629-.3819.8071-.0283.2139.0874.3457.0562.5591-.0137.0977-.0718.148-.0996.2364l.041-.2945c-.0645-.0093-.0928-.0473-.1582-.0561-.3374-.0469-.2660965.4555-.4385.7412-.3335.5371-.6187.832-.7065,1.4551-.1285.9169.2636,1.4565.1333,2.374-.0463965.3452.142.5376.353.8188.0508.0073.1011.0049.1372-.0156-.0601-.7681-.1865-1.1694-.1631-1.9272.1948.2607.085.5136.2207.7998.2705.5649.4536.8828.6245,1.4912.062.2182-.0742.416.0503035.6089.2597965.4052.3808965.7221.7968965.9814.2309.1406.4849.0005.6753.1938.2915.3018.3428035.7168.7602.7764.212.0313.3433-.0845.5601-.0556.2524.0375.0942.3974.1924.6308.0903.2031.3511036.1318.5322.2739.2168.1724.2505.4703.5283.5093.1651.0235.2246036-.1694.3887-.1455.2627.0352.1763.4087.1387.6714-.0694.5059-.6807.5718-.7515,1.0791-.0137.0903.0796.1372.0679.2266-.0186.1318-.19.1577-.208.2885-.0498.3604.227.5249.4189.8277.1699036.2671.1499036.5312.3989036.7241.3447964.2759.9267964.3071.8647964.7412-.1021.7285-.7564.8623-1.1465,1.4917.0693.0444.1069.084.189.0942.8774.1221,1.3042-.4848,2.1464999-.7685.5698-.187.9589-.1074,1.4921-.3921.2798-.144.3116-.4233.5826-.585.5669-.3379.9799-.4233,1.4311-.9033.2847-.3013.2402-.6411.4429-1.0068.2895038-.5181.6406-.6948.8774-1.2471-.0703-.0435-.1015-.1133-.1914-.1265l-.6064-.0849c-.3765-.0532-.6553-.3848-.6035-.7617-.417-.0674-.6573-.084-1.0752-.1426-.5328-.0747-.6407-.6582-1.1739-.7339-.2294963-.0317-.3304963.2207-.5624963.1894-.3027037-.0419-.4472037-.1977-.7514037-.2402-.1885-.0259-.2784.1455-.3609.3169l-.1366964.0147c-.0327036-.1216-.0024036-.2168.0150964-.3497.0079036-.0478-.0752-.0522-.0864-.0942-.3823.104-.5093.5293-.9013.4751-.0987-.0142-.1338-.1201-.2325-.1333-.1792-.0249-.2812.0942-.4618964.0689-.3359036-.0479-.6616036-.2852-.6147036-.6211.0171-.1236.1557036-.1543.1723-.2769.0445-.3032-.1967-.4961-.4775-.6362l-.2050964.0381-.2949036-.0411c.0078-.0585-.0195-.0952-.0132-.1523.0308-.2129.3154-.2231.3457-.4375.0274036-.1865.0025-.3066.0693-.4897l-.541-.0767c-.2298964.1426-.3427.4204-.6211.3809-.4917-.0694-.7905-.5625-.7221-1.0542.083-.5816.3828-1.232.9648-1.1509.1953.0273.2822.1386.4776.167.1381.02.1826-.1739.3222-.1548.3682.0517.8037036.2217.7549.5903-.0478.3364.1934.5713.4981.7217.0278-.0796.0444-.1265.0629-.207l-.0864-1.0655c.2896-.5034.9995-.4287,1.0781-.9936l.0528-.377c.0595-.4341.5488-.6323.9834-.5717-.0298-.1626-.1319-.2525-.1089-.4161.0244-.1806.228-.2031.4004-.2446-.002.0742,0,.125.0068.2012.3926037-.0698.8203-.1353.876-.5288.0063-.0489-.0762-.0528-.0873963-.0957-.1294037.0317-.2197037.0693-.3574037.0493-.188-.0259-.1265-.2935-.083-.479-.1172-.0171-.1812-.0176-.2998-.0083.0854-.1304.205-.1558.3613-.1836l.1855.0918c.106-.0425.1787-.082.2862-.1265.0361.1558-.0107963.3677.1538.3897l.7124037.1006c.0492963-.1773-.1953037-.2115-.3184037-.3458-.1094-.1147.0244037-.2812-.0757-.4121-.1698963-.2246-.4165-.1836-.6562-.3252-.4086963-.2495-.4048-.8012-.8823-.8681-.0889-.0127-.1241.1162-.2143963.1035-.3189036-.0449-.3667036-.4194-.6865036-.4629-.0977-.0156-.1607.0186-.2544.0293.0097.1685.1308.2524.1064.417-.0381.2783-.4364964.2642-.4764964.5415-.0225036.1743.062.27.0712964.4458-.2564-.0112-.1817-.3682-.3575-.5522-.2987964-.3086-.9712-.2198-.9092-.6543.0865-.6138,1.1285-.4175,1.2173-1.0318.0044-.0493-.0512-.0742-.0542-.1152.0782-.0152.1245-.0508.2066-.0376.2622.0361.3882.2119.5063.4463-.1572.0444-.2558.0307-.414.0757.3388.2065.6645.1596.9028.4775l.3242-.1553c-.0674-.1181-.123-.1924-.229-.2827.0698-.0142.1289-.0234.2012-.0044-.1602-.29-.459-.291-.7349-.4805-.2728964-.1879-.4053-.3906-.7417-.4375l.0235-.1562c.0293036-.2046.165-.2773.2963036-.4341-.0874036-.0459-.1391036-.0869-.2377036-.1011-.2125-.0297-.4825-.0161-.5122964.1958-.019.1319.1098964.1748.1621964.2901-.0943.0698-.1611964.1211-.23.2016.0722.0684.145.147.1303.2535-.0092.0727-.0844.0786-.1499.1118-.1269-.2266-.2827-.3731-.2441-.6353-.1172.0083-.2686.0122-.2837.126-.021.1387.0879.2046.1538.3228-.1162.0507-.1904.1074-.3213.0888l-.2871-.041c.0352-.0767.1148036-.0996.1265-.1895l.0469-.3369c-.1895-.0092-.2915-.0581-.482-.0844-.1533-.0235-.3437.0263-.3667.1816-.0228964.1738.1441036.23.2486.3696-.0782.0303-.1216.0923-.211.0786-.1719-.0244-.1113-.2734-.247-.3774-.1807-.1416-.3643-.0415-.5957-.0498.0146-.2148-.0347-.4727-.2457-.502-.5986-.0844-.9438.1675-1.5083.3887-.4233.166-.7929.1143-1.1289.4102ZM13.3417964,11.5244c.2988-.1069.4795-.2656.7988-.2207.2051.0288.1856.2847.3452.4067.2173.1729.4366.1548.6182036.3555-.147.146-.2446036.2481-.4453036.3042.0249-.1797-.063-.376-.2446-.4013-.294-.0406-.1534.5126-.4239.642-.0415-.2309-.0791-.3794-.0483-.6079.0176-.123.1103-.1855.206-.2568-.103-.0635-.1567-.1543-.2802-.1719-.1626-.0224-.3618-.041-.5259-.0498ZM15.5424964,12.2773l.1865036.0928c-.2764036.3047-.5957036.4351-1.0054036.377l-.1815964-.0249c.2567964-.3316.5683964-.4131,1.0004964-.4449ZM15.8485964,17.6924c-.0908-.0127-.02-.1445-.0258-.229.0844-.0132.1391-.0313.2304-.0347.0015-.0752.0005-.1255-.0053-.2012.0581036.0083.0878-.0214.1435-.0136.3364.0483.4902.2031.8218.2832-.2621963.3818-.7134.2592-1.1646.1953ZM14.2323964,16.8306c-.1713964-.0327-.3105-.1021-.3535-.2764.2222-.0352.3408-.0513.563-.0205.3027.0434.4604.1582.7266.3032.2006.1113.5131.1387.4819.3672-.0186.1406-.189.1582-.3281.1387l-.2871-.041c.0351-.0704.0761-.1221.125-.1817-.2421964-.2187-.4063-.3755-.7325-.4219-.0595-.0063-.1425.1216-.1953.1324ZM16.1913964,7.8823c.313.2202.4785.4673.8608.4805.042.2383.2505.2944.4112.4663.289.3174.459.6001.8847.6602.0738.0102.1182-.0083.1929037-.0054-.1118037-.2774-.3804037-.3975-.3359037-.6919.0244-.1812.1982-.2398.2241-.4199.0435-.3028-.4101963-.2827-.6733-.4297-.3736-.2022-.5668963-.4453-.9913-.5059-.3852-.0542-.7685-.0078-.9501.334.1054.04.2622.1035.3769.1118Z" fill="url(#radial-gradient-3)" fill-rule="evenodd"/>
                <g mask="url(#mask-3)">
                  <g mix-blend-mode="screen" opacity=".3">
                    <path d="M24.8285961,13.3408c0,5.1856-3.1386999,8.8228-8.2841998,9.1817-.5473.039-.6235-.4322-.0893-.5581,4.3773999-1.0352,7.3407998-5.8838,7.8236998-8.6744.0493-.644.5498-.4975.5498.0508Z" fill="#c9ffc9"/>
                    <path d="M25.0712961,13.3794c0,5.186-3.1376999,8.8247-8.2841998,9.1841-.5483.0386-.6245-.4336-.0898-.5601,4.3773999-1.0337,7.3397998-5.8838,7.8251998-8.6738.0483-.6441.5488-.4971.5488.0498Z" fill="none" stroke="#a7dbaa" stroke-miterlimit="3.8637" stroke-width="2.6693"/>
                    <path d="M24.9481961,13.3594c0,5.187-3.1371961,8.8242-8.2806998,9.1841-.5493.0376-.627-.4327-.0923-.5591,4.3768999-1.0347,7.3428037-5.8838,7.8241998-8.6743.0503-.6441.5488-.4981.5488.0493Z" fill="none" stroke="#85cd92" stroke-miterlimit="3.8637" stroke-width="1.3347"/>
                    <path d="M24.8285961,13.3408c0,5.1856-3.1386999,8.8228-8.2841998,9.1817-.5473.039-.6235-.4322-.0893-.5581,4.3773999-1.0352,7.3407998-5.8838,7.8236998-8.6744.0493-.644.5498-.4975.5498.0508Z" fill="none" stroke="#65bd7b" stroke-miterlimit="3.8637"/>
                  </g>
                </g>
                <path d="M9.3358965,8.1553c.0557.1416-.1743.2343-.0185.2568.3437.0479.5381-.2095.8838-.1601.1152.0156.1699.0405.2822.0639-.0322.2305.0459.3828.0142.6128-.0479.3438-.3315965.4629-.3819.8071-.0283.2139.0874.3457.0562.5591-.0137.0977-.0718.148-.0996.2364l.041-.2945c-.0645-.0093-.0928-.0473-.1582-.0561-.3374-.0469-.2660965.4555-.4385.7412-.3335.5371-.6187.832-.7065,1.4551-.1285.9169.2636,1.4565.1333,2.374-.0463965.3452.142.5376.353.8188.0508.0073.1011.0049.1372-.0156-.0601-.7681-.1865-1.1694-.1631-1.9272.1948.2607.085.5136.2207.7998.2705.5649.4536.8828.6245,1.4912.062.2182-.0742.416.0503035.6089.2597965.4052.3808965.7221.7968965.9814.2309.1406.4849.0005.6753.1938.2915.3018.3428035.7168.7602.7764.212.0313.3433-.0845.5601-.0556.2524.0375.0942.3974.1924.6308.0903.2031.3511036.1318.5322.2739.2168.1724.2505.4703.5283.5093.1651.0235.2246036-.1694.3887-.1455.2627.0352.1763.4087.1387.6714-.0694.5059-.6807.5718-.7515,1.0791-.0137.0903.0796.1372.0679.2266-.0186.1318-.19.1577-.208.2885-.0498.3604.227.5249.4189.8277.1699036.2671.1499036.5312.3989036.7241.3447964.2759.9267964.3071.8647964.7412-.1021.7285-.7564.8623-1.1465,1.4917.0693.0444.1069.084.189.0942.8774.1221,1.3042-.4848,2.1464999-.7685.5698-.187.9589-.1074,1.4921-.3921.2798-.144.3116-.4233.5826-.585.5669-.3379.9799-.4233,1.4311-.9033.2847-.3013.2402-.6411.4429-1.0068.2895038-.5181.6406-.6948.8774-1.2471-.0703-.0435-.1015-.1133-.1914-.1265l-.6064-.0849c-.3765-.0532-.6553-.3848-.6035-.7617-.417-.0674-.6573-.084-1.0752-.1426-.5328-.0747-.6407-.6582-1.1739-.7339-.2294963-.0317-.3304963.2207-.5624963.1894-.3027037-.0419-.4472037-.1977-.7514037-.2402-.1885-.0259-.2784.1455-.3609.3169l-.1366964.0147c-.0327036-.1216-.0024036-.2168.0150964-.3497.0079036-.0478-.0752-.0522-.0864-.0942-.3823.104-.5093.5293-.9013.4751-.0987-.0142-.1338-.1201-.2325-.1333-.1792-.0249-.2812.0942-.4618964.0689-.3359036-.0479-.6616036-.2852-.6147036-.6211.0171-.1236.1557036-.1543.1723-.2769.0445-.3032-.1967-.4961-.4775-.6362l-.2050964.0381-.2949036-.0411c.0078-.0585-.0195-.0952-.0132-.1523.0308-.2129.3154-.2231.3457-.4375.0274036-.1865.0025-.3066.0693-.4897l-.541-.0767c-.2298964.1426-.3427.4204-.6211.3809-.4917-.0694-.7905-.5625-.7221-1.0542.083-.5816.3828-1.232.9648-1.1509.1953.0273.2822.1386.4776.167.1381.02.1826-.1739.3222-.1548.3682.0517.8037036.2217.7549.5903-.0478.3364.1934.5713.4981.7217.0278-.0796.0444-.1265.0629-.207l-.0864-1.0655c.2896-.5034.9995-.4287,1.0781-.9936l.0528-.377c.0595-.4341.5488-.6323.9834-.5717-.0298-.1626-.1319-.2525-.1089-.4161.0244-.1806.228-.2031.4004-.2446-.002.0742,0,.125.0068.2012.3926037-.0698.8203-.1353.876-.5288.0063-.0489-.0762-.0528-.0873963-.0957-.1294037.0317-.2197037.0693-.3574037.0493-.188-.0259-.1265-.2935-.083-.479-.1172-.0171-.1812-.0176-.2998-.0083.0854-.1304.205-.1558.3613-.1836l.1855.0918c.106-.0425.1787-.082.2862-.1265.0361.1558-.0107963.3677.1538.3897l.7124037.1006c.0492963-.1773-.1953037-.2115-.3184037-.3458-.1094-.1147.0244037-.2812-.0757-.4121-.1698963-.2246-.4165-.1836-.6562-.3252-.4086963-.2495-.4048-.8012-.8823-.8681-.0889-.0127-.1241.1162-.2143963.1035-.3189036-.0449-.3667036-.4194-.6865036-.4629-.0977-.0156-.1607.0186-.2544.0293.0097.1685.1308.2524.1064.417-.0381.2783-.4364964.2642-.4764964.5415-.0225036.1743.062.27.0712964.4458-.2564-.0112-.1817-.3682-.3575-.5522-.2987964-.3086-.9712-.2198-.9092-.6543.0865-.6138,1.1285-.4175,1.2173-1.0318.0044-.0493-.0512-.0742-.0542-.1152.0782-.0152.1245-.0508.2066-.0376.2622.0361.3882.2119.5063.4463-.1572.0444-.2558.0307-.414.0757.3388.2065.6645.1596.9028.4775l.3242-.1553c-.0674-.1181-.123-.1924-.229-.2827.0698-.0142.1289-.0234.2012-.0044-.1602-.29-.459-.291-.7349-.4805-.2728964-.1879-.4053-.3906-.7417-.4375l.0235-.1562c.0293036-.2046.165-.2773.2963036-.4341-.0874036-.0459-.1391036-.0869-.2377036-.1011-.2125-.0297-.4825-.0161-.5122964.1958-.019.1319.1098964.1748.1621964.2901-.0943.0698-.1611964.1211-.23.2016.0722.0684.145.147.1303.2535-.0092.0727-.0844.0786-.1499.1118-.1269-.2266-.2827-.3731-.2441-.6353-.1172.0083-.2686.0122-.2837.126-.021.1387.0879.2046.1538.3228-.1162.0507-.1904.1074-.3213.0888l-.2871-.041c.0352-.0767.1148036-.0996.1265-.1895l.0469-.3369c-.1895-.0092-.2915-.0581-.482-.0844-.1533-.0235-.3437.0263-.3667.1816-.0228964.1738.1441036.23.2486.3696-.0782.0303-.1216.0923-.211.0786-.1719-.0244-.1113-.2734-.247-.3774-.1807-.1416-.3643-.0415-.5957-.0498.0146-.2148-.0347-.4727-.2457-.502-.5986-.0844-.9438.1675-1.5083.3887-.4233.166-.7929.1143-1.1289.4102ZM13.3417964,11.5244c.2988-.1069.4795-.2656.7988-.2207.2051.0288.1856.2847.3452.4067.2173.1729.4366.1548.6182036.3555-.147.146-.2446036.2481-.4453036.3042.0249-.1797-.063-.376-.2446-.4013-.294-.0406-.1534.5126-.4239.642-.0415-.2309-.0791-.3794-.0483-.6079.0176-.123.1103-.1855.206-.2568-.103-.0635-.1567-.1543-.2802-.1719-.1626-.0224-.3618-.041-.5259-.0498ZM15.5424964,12.2773l.1865036.0928c-.2764036.3047-.5957036.4351-1.0054036.377l-.1815964-.0249c.2567964-.3316.5683964-.4131,1.0004964-.4449ZM15.8485964,17.6924c-.0908-.0127-.02-.1445-.0258-.229.0844-.0132.1391-.0313.2304-.0347.0015-.0752.0005-.1255-.0053-.2012.0581036.0083.0878-.0214.1435-.0136.3364.0483.4902.2031.8218.2832-.2621963.3818-.7134.2592-1.1646.1953ZM14.2323964,16.8306c-.1713964-.0327-.3105-.1021-.3535-.2764.2222-.0352.3408-.0513.563-.0205.3027.0434.4604.1582.7266.3032.2006.1113.5131.1387.4819.3672-.0186.1406-.189.1582-.3281.1387l-.2871-.041c.0351-.0704.0761-.1221.125-.1817-.2421964-.2187-.4063-.3755-.7325-.4219-.0595-.0063-.1425.1216-.1953.1324ZM16.1913964,7.8823c.313.2202.4785.4673.8608.4805.042.2383.2505.2944.4112.4663.289.3174.459.6001.8847.6602.0738.0102.1182-.0083.1929037-.0054-.1118037-.2774-.3804037-.3975-.3359037-.6919.0244-.1812.1982-.2398.2241-.4199.0435-.3028-.4101963-.2827-.6733-.4297-.3736-.2022-.5668963-.4453-.9913-.5059-.3852-.0542-.7685-.0078-.9501.334.1054.04.2622.1035.3769.1118Z" fill="none" fill-rule="evenodd"/>
              </g>
            </g>
          </g>
        </g>
      </g>
      <path d="M11.561,12.5044s.1733965.0278.4174965.1216c1.459.5527,1.8867,1.8618,1.4668,3.3838-.0708.2588-.458.1518-.3867-.1065.3613-1.3154-.0322-2.2168-1.2969-2.6958-.2012-.0766-.3423-.1011-.3423-.1011-.2631-.0449-.1206-.6474.1416035-.602Z" fill="#f2f2f2"/>
      <g mask="url(#mask-4)">
        <g>
          <path d="M5.5580966,22.1602c-1.3184-2.2623-.0360966-5.1963,3.8427999-4.9996,2.6166999.1314,2.8301035-3.0898.5283-3.2285l.0806-1.3515c4.0707999.2431,3.7225999,6.1533-.6777965,5.9321-2.4121034-.1211-3.5092034,1.5352-2.6655034,2.9692l2.1376999-.5747c.3457-.0923.5273.2974.3726.522l.4917-.1338c.3706-.1001.5532.3545.3354.5674l.4981035-.1357c.3221965-.0875.5023965.2436.4017965.4711l.4663-.1279,3.9291999,3.9678.0122,2.5644-4.9291999,1.3311-2.3597999-2.377-.4458.0616-1.1363-1.1387v-.3701c-.1772.0122-.3652-.1011-.3652-.3384v-.2583c-.1387-.0308-.2583-.1406-.2583-.3301v-.2344c-.1392-.0293-.2588-.1401-.2588-.3295v-2.4585Z" fill="#ccc" stroke="#000" stroke-linecap="round" stroke-linejoin="round" stroke-width="2"/>
          <path d="M7.9242966,24.1367c-4.2660999-1.7798-3.7704999-7.2407,1.4766-6.9761,2.6166999.1314,2.8301035-3.0898.5283-3.2285l.0806-1.3515c4.0707999.2431,3.7225999,6.1533-.6777965,5.9321-3.3086034-.167-4.1425034,3.0156-.8867034,4.3745l-.521,1.2495Z" fill="#ccc"/>
          <path d="M6.8490966,18.7275c1.8623-1.415,2.9965999-.123,4.5702999-1.416.9629-.79,1.0235-1.4863.8804-2.521-.0322-.2231.3032035-.271.335-.0473.0542036.3921.1245.7417.084,1.144-.1456,1.4448-1.4244,2.3799-2.7910999,2.4478-1.1356965.0566-1.8315-.1304-2.8739999.6621-.1786966.1367-.3838-.1328-.2046-.2696Z" fill="#999"/>
          <path d="M5.6693966,22.2056c-.6772-.9644-.6913966-2.5533.0332-3.5396.8843-1.2016,2.5825999-1.3901,3.9628999-1.3882l.104-.0005c.3482-.0058.2559.3335.0069.3384l-.1113965.0005c-1.2666034-.0019-2.7871034.2134-3.5966034,1.314-.6372.8657-.5225,2.0908.0678,2.936.1299.1851-.3354.5244-.4668.3394Z" fill="#f2f2f2"/>
          <path d="M5.5580966,24.6187v-2.5796c0-.1197.1353-.2954.251-.3267l2.9950999-.8052c.437-.1167.6118035.5371.1763.6543l-2.7455999.7378v2.3194c0,.4506-.6768.4506-.6768,0Z" fill="#999"/>
          <polyline points="5.8612966 24.7432 5.8612966 22.2939 9.0917965 21.3994" fill="none" stroke="#4c4c4c" stroke-linecap="round" stroke-linejoin="round"/>
          <path d="M5.8168966,25.1826v-2.5796c0-.1191.1348-.2949.2495-.3266l3.6020999-.981c.4365035-.1186.6137.5352.1787.6538l-3.3530999.9126v2.3208c0,.4512-.6772.4512-.6772,0Z" fill="#999"/>
          <polyline points="6.1410966 25.3975 6.1347966 22.8599 10.0458965 21.8521" fill="none" stroke="#4c4c4c" stroke-linecap="round" stroke-linejoin="round"/>
          <path d="M6.0751966,25.771v-2.5786c0-.1192.1357-.2954.25-.3267l4.1768034-1.1386c.437-.1187.6136965.5346.1781965.6533l-3.9281965,1.0703v2.3203c0,.4517-.6768034.4517-.6768034,0Z" fill="#999"/>
          <g mask="url(#mask-5)">
            <g>
              <polygon points="11.3700965 22.0703 15.2992964 26.0381 10.3822965 29.9209 8.0224966 27.5566 7.5766966 27.6182 6.4403966 26.4795 6.4403966 23.4248 11.3700965 22.0703" fill="url(#New_Gradient_164)"/>
              <polygon points="6.2074966 23.147 10.5966965 27.5371 10.5966965 30.209 6.0985966 26.7192 6.2074966 23.147" fill="#e5e5e5" fill-rule="evenodd"/>
            </g>
          </g>
          <g mask="url(#mask-6)">
            <g>
              <polygon points="10.3822965 27.3662 15.3114964 26.0361 15.3114964 28.6025 10.3822965 29.9336 10.3822965 27.3662" fill="#b2b2b2" fill-rule="evenodd"/>
              <polygon points="11.459 28.146 11.459 30.0454 10.9511965 30.0454 10.9511965 28.2734 11.459 28.146" fill="#666"/>
              <polygon points="12.2870965 27.9277 12.2870965 29.8271 11.7792965 29.8271 11.7792965 28.0552 12.2870965 27.9277" fill="#666"/>
              <polygon points="13.1132964 27.709 13.1132964 29.6084 12.6063964 29.6084 12.6063964 27.8369 13.1132964 27.709" fill="#666"/>
              <polygon points="13.9403964 27.4912 13.9403964 29.3911 13.4330964 29.3911 13.4330964 27.6187 13.9403964 27.4912" fill="#666"/>
              <polygon points="14.7670964 27.2729 14.7670964 29.1729 14.2597964 29.1729 14.2597964 27.4009 14.7670964 27.2729" fill="#666"/>
            </g>
          </g>
          <polyline points="6.5927966 23.5601 10.3788965 27.3555 10.3607965 29.6636" fill="none" stroke="#fff" stroke-linecap="round" stroke-miterlimit="3.8637" stroke-width=".75"/>
          <polygon points="11.1776965 27.1514 10.1508965 26.0259 9.292 23.8569 10.0644965 23.625 11.5746965 22.3477 13.5590964 24.4434 14.292 25.4697 14.6840964 25.9282 14.6840964 26.2358 12.7411964 26.7915 11.1776965 27.1514" fill="url(#New_Gradient_159)" fill-rule="evenodd"/>
          <g mask="url(#mask-7)">
            <g>
              <polygon points="11.606 26.9912 11.0785965 26.4639 10.6786965 25.1104 9.5600965 23.2744 9.5600965 22.8198 11.3861965 22.3696 13.3686964 24.6104 14.0770964 25.583 11.606 26.9912" fill="#d9d9d9" fill-rule="evenodd"/>
              <polygon points="11.0600965 25.147 13.5873964 24.4648 11.2782965 22.2656 9.3974965 22.8198 11.0600965 25.147" fill="#fff" fill-rule="evenodd"/>
              <polygon points="9.4882965 22.7476 11.2968965 25.0928 11.624 26.2192 11.6420965 27.1733 10.8607965 26.5557 9.3241965 23.4375 9.4882965 22.7476" fill="#e5e5e5" fill-rule="evenodd"/>
            </g>
          </g>
          <g mask="url(#mask-8)">
            <g>
              <polygon points="14.5 25.999 14.5 27.3672 12.0404965 28.0264 11.6015965 27.5972 11.6015965 26.2314 14.0624964 25.5684 14.5 25.999" fill="#ccc"/>
              <polygon points="11.479 26.0552 12.2694965 26.8467 12.2694965 28.4731 11.2782965 27.4829 11.479 26.0552" fill="#e5e5e5" fill-rule="evenodd"/>
            </g>
          </g>
          <polygon points="12.0351965 26.6641 14.5 25.999 14.5 27.3672 12.0351965 28.0322 12.0351965 26.6641" fill="#999" fill-rule="evenodd"/>
          <polyline points="9.5995965 23.0425 9.5995965 23.4443 10.6815965 25.2041 11.0687965 26.5293 11.5180965 27.0205" fill="none" stroke="#999" stroke-linecap="round" stroke-linejoin="round" stroke-width=".75"/>
          <polyline points="6.3954966 26.1694 6.3622966 23.3306 10.8837965 22.1401" fill="none" stroke="#4c4c4c" stroke-linecap="round" stroke-linejoin="round" stroke-width=".5"/>
        </g>
      </g>
      <g>
        <polygon points="14.1093964 12.0874 14.0033964 8.6377 16.8021963 10.6528 20.0482963 9.4897 18.998 12.7725 21.1093962 15.4966 18.2362963 15.5127 23.8690962 26.1045 22.8827962 26.6274 17.2763963 16.0781 15.7167964 18.3647 14.6381964 15.0913 11.3270965 14.1265 14.1093964 12.0874" fill="none" stroke="#000" stroke-width="2"/>
        <polygon points="17.0604963 15.6753 18.0468963 15.1533 23.8690962 26.1045 22.8827962 26.6274 17.0604963 15.6753" fill="#9c3e0d"/>
        <g mask="url(#mask-9)">
          <g>
            <polygon points="14.0033964 8.6377 14.1093964 12.0874 11.3270965 14.1265 14.6381964 15.0913 15.7167964 18.3647 17.6601963 15.5166 21.1093962 15.4966 18.998 12.7725 20.0482963 9.4897 16.8021963 10.6528 14.0033964 8.6377" fill="url(#radial-gradient-4)"/>
            <polygon points="14.5082964 9.5918 14.5932964 12.249 12.4525965 13.8228 15.0028964 14.5669 15.8363964 17.0928 17.332 14.8936 19.9882963 14.8809 18.3612963 12.7783 19.1693963 10.2446 16.6703963 11.1406 14.5082964 9.5918" fill="url(#radial-gradient-5)"/>
          </g>
        </g>
        <line x1="17.5175963" y1="8.5469" x2="19.1293963" y2="4.6309" fill="none" stroke="#ff0" stroke-linecap="round" stroke-linejoin="round"/>
        <line x1="22.1840962" y1="12.9502" x2="25.627" y2="12.9629" fill="none" stroke="#ff0" stroke-linecap="round" stroke-linejoin="round"/>
        <line x1="12.6112964" y1="16.8047" x2="11.041" y2="20.2749" fill="none" stroke="#ff0" stroke-linecap="round" stroke-linejoin="round"/>
        <line x1="11.4237965" y1="10.6748" x2="7.499" y2="7.4277" fill="none" stroke="#ff0" stroke-linecap="round" stroke-linejoin="round"/>
      </g>
    </g>
  </g>
</svg>