<?xml version='1.0' encoding='UTF-8'?>
<svg xmlns="http://www.w3.org/2000/svg" xmlns:xlink="http://www.w3.org/1999/xlink" id="Layer_1" data-name="Layer 1" width="32" height="32" viewBox="0 0 32 32">
  <defs>
    <linearGradient id="New_Gradient_242" data-name="New Gradient 242" x1="-357.9709801" y1="285.5505988" x2="-349.4535319" y2="292.9547036" gradientTransform="translate(480.4158 -128.1225) rotate(39.0606108) scale(.7188854 1.390918) skewX(-4.6216426)" gradientUnits="userSpaceOnUse">
      <stop offset="0" stop-color="#e5e5e5"/>
      <stop offset="1" stop-color="#fff"/>
    </linearGradient>
    <linearGradient id="New_Gradient_242-2" data-name="New Gradient 242" x1="11.4982627" y1="13.0651413" x2="21.1280114" y2="21.4361542" gradientTransform="matrix(1,0,0,1,0,0)" gradientUnits="userSpaceOnUse"><stop offset="0" stop-color="#e5e5e5"/><stop offset="1" stop-color="#fff"/></linearGradient>
    <linearGradient id="New_Gradient_242-3" data-name="New Gradient 242" x1="11.4982627" y1="13.0651413" x2="21.1280114" y2="21.4361542" gradientTransform="matrix(1,0,0,1,0,0)" gradientUnits="userSpaceOnUse"><stop offset="0" stop-color="#e5e5e5"/><stop offset="1" stop-color="#fff"/></linearGradient>
    <mask id="mask" x="3.6917787" y="18.3150963" width="22.2105744" height="9.8176915" maskUnits="userSpaceOnUse">
      <path d="M25.0565961,27.853l-.1113.273s-3.7103999-.4458-12.3378997-3.9312c-7.7274998-3.123-8.1996998-4.1396-8.0096998-4.6089.1899-.4687,1.2348-.872,8.9627998,2.25,8.6269998,3.4859,11.6059997,5.7422,11.6059997,5.7422l-.1099.2749Z" fill="#fff" fill-rule="evenodd"/>
    </mask>
    <linearGradient id="linear-gradient" x1="6.591017" y1="18.7684696" x2="22.9634374" y2="28.900584" gradientUnits="userSpaceOnUse">
      <stop offset="0" stop-color="#a4aad9"/>
      <stop offset=".325843" stop-color="#555b91"/>
      <stop offset=".3425679" stop-color="#575d93"/>
      <stop offset=".3540667" stop-color="#60669b"/>
      <stop offset=".3639986" stop-color="#7076a9"/>
      <stop offset=".3730103" stop-color="#858bbd"/>
      <stop offset=".3813708" stop-color="#a1a7d6"/>
      <stop offset=".382022" stop-color="#a4aad9"/>
      <stop offset=".5652403" stop-color="#b5badc"/>
      <stop offset=".719101" stop-color="#bfc3de"/>
      <stop offset="1" stop-color="#fff"/>
    </linearGradient>
    <linearGradient id="linear-gradient-2" x1="714.5186029" y1="275.1365419" x2="716.9633151" y2="276.7855211" gradientTransform="translate(-734.6712642 194.3967289) rotate(-33.994089)" gradientUnits="userSpaceOnUse">
      <stop offset="0" stop-color="#7e5b39"/>
      <stop offset=".10112" stop-color="#a48765"/>
      <stop offset=".258423" stop-color="#e5c9b0"/>
      <stop offset=".943817" stop-color="#7e5b39"/>
      <stop offset="1" stop-color="#7e5b39"/>
    </linearGradient>
    <linearGradient id="linear-gradient-3" x1="718.9086193" y1="269.4469319" x2="720.7292702" y2="270.6749764" gradientTransform="translate(-741.3233248 199.0099819) rotate(-34.0097066)" gradientUnits="userSpaceOnUse">
      <stop offset="0" stop-color="#7e5b39"/>
      <stop offset=".168533" stop-color="#a48765"/>
      <stop offset=".286514" stop-color="#e5c9b0"/>
      <stop offset=".70224" stop-color="#a48765"/>
      <stop offset="1" stop-color="#7e5b39"/>
    </linearGradient>
  </defs>
  <g>
    <path d="M13.1601964,19.3735c4.1400999-.3652,8.2792998-.7236,12.4198997-1.0737-2.0043999-3.624-4.0180961-7.2427-6.0331998-10.8589-4.1093999.3736-8.2192998.7534-12.3266997,1.1436,1.9848999,3.5927,3.9668034,7.1889,5.9399998,10.789Z" fill="url(#New_Gradient_242)" fill-rule="evenodd" stroke="#000" stroke-linecap="round" stroke-linejoin="round" stroke-width="2"/>
    <path d="M13.1601964,19.3735c4.1400999-.3652,8.2792998-.7236,12.4198997-1.0737-2.0043999-3.624-4.0180961-7.2427-6.0331998-10.8589-4.1093999.3736-8.2192998.7534-12.3266997,1.1436,1.9848999,3.5927,3.9668034,7.1889,5.9399998,10.789Z" fill="url(#New_Gradient_242)" fill-rule="evenodd"/>
    <path d="M9.8612965,9.9424c1.5435-.1611,2.3163999-.2407,3.8632999-.3999" fill="none" stroke="#999" stroke-linecap="round" stroke-miterlimit="3.8637" stroke-width=".7125"/>
    <path d="M10.3451965,10.8188c1.9234-.1904,2.8852999-.2841,4.8114999-.4721" fill="none" stroke="#999" stroke-linecap="round" stroke-miterlimit="3.8637" stroke-width=".7125"/>
    <path d="M11.2357965,12.436c3.1738999-.313,4.7612999-.4692,7.9404998-.7773" fill="none" stroke="#999" stroke-linecap="round" stroke-miterlimit="3.8637" stroke-width=".7125"/>
    <path d="M11.7177965,13.3105c3.2235999-.3164,4.8373999-.4721,8.0692998-.7807" fill="none" stroke="#999" stroke-linecap="round" stroke-miterlimit="3.8637" stroke-width=".7125"/>
    <path d="M12.2011965,14.1851c2.6771999-.2671,4.0165999-.3999,6.6986998-.6617" fill="none" stroke="#999" stroke-linecap="round" stroke-miterlimit="3.8637" stroke-width=".7125"/>
    <path d="M13.1693964,15.9453c1.6582-.1523,2.4882999-.2261,4.1474999-.3769" fill="none" stroke="#999" stroke-linecap="round" stroke-miterlimit="3.8637" stroke-width=".7125"/>
    <g>
      <path d="M14.2484964,16.8027c.0049.0547.0122.146.0122.146,0,0,.0108-.1655-.0634-.1777-.1602-.0254-.2437.2056-.2989.374-.0761.232-.0136.4859.2124.521.2696.043.6885-.3657.6885-.3657,0,0-.0527.0425-.063.0767-.0136.0444-.0429.1093-.039.1171.0039.0054.0434.0059.0703.0103.0757.0117.1631-.0405.1875-.1191.021-.064.0527-.1587.0527-.1587,0,0-.0332.0459-.043.0747-.021.063.0455.0966.1055.1064.1035.0166.2471-.1572.2554-.1567.0097.0014.0425.0879.0967.0962.0791.0132.1753-.0889.2085-.0869.0092.0009.0185.0424.0449.0468.0893.0142.228-.101.2363-.0952.0244.0195.0396.2271.0381.3897" fill="none" stroke="#0342d3" stroke-linecap="round" stroke-linejoin="round" stroke-width=".3545"/>
      <path d="M16.3578964,16.6201c-.0537.1983-.0468964.3164-.0913.5152" fill="none" stroke="#0342d3" stroke-linecap="round" stroke-linejoin="round" stroke-width=".3545"/>
      <path d="M16.3183964,16.7075c-.0245.0322-.0367.0484-.0621.0796.1675-.0596.4185-.1601.4278-.1509.0014.0025.0137.0323.0068.0547-.0425.1289-.1767.3111-.1767.3111.0112.0122.4716-.1519.5122-.1177.0088.0073.0151.0659.0029.1069-.0234.0728-.0615.1065-.1074.1699.0176-.0039.0254-.0039.042-.0068" fill="none" stroke="#0342d3" stroke-linecap="round" stroke-linejoin="round" stroke-width=".3545"/>
      <path d="M17.2748963,16.7144c-.0146.018-.021.0263-.0356.0444.1245-.0132.1914-.0869.3115-.104-.0386.1196-.0571.1792-.0947.2983.1279037-.1386.3188-.3325.3549037-.3232.0263963.0063-.0063037.2856.0087963.2881.0664.0117.5586-.4849.5972037-.4707.0341963.0131-.0967037.3984.0673963.4238.1333.0229.3257-.2134.3257-.2134,0,0-.0616.0611-.0972.104.0176.0083.0254.0132.0444.021.1197037-.043.1909-.0952.3125-.1362-.0107.0312-.0151.0444-.0249.0752.0176.0049.0259.0185.0484.0224.1162.0171.3139-.1103.3139-.1103.0039.0024-.0268.1025.0157.1089.2119.0346.3574-.0757.5761037-.1616" fill="none" stroke="#0342d3" stroke-linecap="round" stroke-linejoin="round" stroke-width=".3545"/>
    </g>
  </g>
  <g>
    <polygon points="14.9311964 23.8638 27.7655961 20.7051 17.7211963 10.6602 4.8412966 13.7852 14.9311964 23.8638" fill="url(#New_Gradient_242-2)" fill-rule="evenodd" stroke="#000" stroke-linecap="round" stroke-linejoin="round" stroke-width="2"/>
    <polygon points="14.9311964 23.8638 27.7655961 20.7051 17.7211963 10.6602 4.8412966 13.7852 14.9311964 23.8638" fill="url(#New_Gradient_242-3)" fill-rule="evenodd"/>
    <line x1="8.1435966" y1="14.7495" x2="12.1620965" y2="13.7261" fill="none" stroke="#999" stroke-linecap="round" stroke-miterlimit="3.8637" stroke-width=".7125"/>
    <line x1="8.958" y1="15.5649" x2="13.9677964" y2="14.3125" fill="none" stroke="#999" stroke-linecap="round" stroke-miterlimit="3.8637" stroke-width=".7125"/>
    <line x1="10.4647965" y1="17.0708" x2="18.71" y2="14.998" fill="none" stroke="#999" stroke-linecap="round" stroke-miterlimit="3.8637" stroke-width=".7125"/>
    <line x1="11.2802965" y1="17.8862" x2="19.6513963" y2="15.7832" fill="none" stroke="#999" stroke-linecap="round" stroke-miterlimit="3.8637" stroke-width=".7125"/>
    <line x1="12.0956965" y1="18.7012" x2="19.0380963" y2="16.939" fill="none" stroke="#999" stroke-linecap="round" stroke-miterlimit="3.8637" stroke-width=".7125"/>
    <line x1="13.7401964" y1="20.3462" x2="18.041" y2="19.2832" fill="none" stroke="#999" stroke-linecap="round" stroke-miterlimit="3.8637" stroke-width=".7125"/>
    <g>
      <path d="M15.1894964,21.0474c.0253.0551.0449.0932.0668.1479-.0175-.0796-.0488-.1709-.1312964-.1709-.1792036,0-.1895036.249-.1895036.4302,0,.2524.1558.5015.4083.5015.3022036,0,.5278-.1846.6088-.4883-.0151.0346-.0429.0512-.0429.0884v.1269h.0805c.0835,0,.1582-.0688.1582-.1543v-.1709c-.0058.0313-.0213964.0523-.0213964.083,0,.0679.0833964.0923.1517964.0923.1157,0,.1636-.0923.2178-.2026.0454037.0449.0747.083.1367.083.0879,0,.1255-.0581.1914-.1226.0225.0122.0342.0405.064.0405.0986,0,.1303037-.0991.2182-.1362.0474.1602.1231037.2246.1768.3916" fill="none" stroke="#0342d3" stroke-linecap="round" stroke-linejoin="round" stroke-width=".3545"/>
      <path d="M17.3812963,20.5156c.0108.2129.0572.3321.0777037.5425" fill="none" stroke="#0342d3" stroke-linecap="round" stroke-linejoin="round" stroke-width=".3545"/>
      <path d="M17.3671963,20.6113l-.0376.0928c.1582-.0884.2319-.1641.4028-.2261.0025.0205.0264.0318.0264.0557,0,.1401-.0674.207-.0811.3476.1861-.102.293-.1606.5039-.2055.0176.039.0425.0649.0425.1094,0,.0791-.0283.1201-.0556.1923l.041-.0146" fill="none" stroke="#0342d3" stroke-linecap="round" stroke-linejoin="round" stroke-width=".3545"/>
      <path d="M18.3915963,20.4619l-.0249.0513c.1289-.0352.1743037-.1201.2954-.1568v.3194c.0899037-.1626.1367-.2544.2695-.3882.083.082.0245.209.1104037.2935.1727963-.2325.2597963-.3882.4745963-.5796.1084037.1469.0342.4223.2188.4223.1489,0,.1865-.1499.2719-.2729-.0244.0444-.0444.0727-.0692963.123l.0541963.0137c.1133-.064.1714-.1289.2871-.1899v.0815c.0215.0024.0342.0132.0586.0132.1323,0,.1977-.0781.2964-.1641.0107038.0484.0073.1089.0542.1089.2392,0,.3559-.1357.561-.2588" fill="none" stroke="#0342d3" stroke-linecap="round" stroke-linejoin="round" stroke-width=".3545"/>
    </g>
  </g>
  <g>
    <path d="M25.1571961,27.6021l.3335.1347c.3335.1343.1304.6348-.2036.5005l-.332-.1352c-.0098.0239-3.7201999-.4219-12.3476997-3.9073-2.9452999-1.1914-4.8358999-2.0747-6.0389998-2.7387-.1446.8247,3.3807999,2.1186,3.3807999,2.1186,0,0,.3379-.0454.8511.1621.5142.2075.2793.6587.2793.6587,0,0-2.7519999-1.2026-4.1649999-1.7729-1.6597-.6714-1.4214-1.565-1.3418-1.7671-1.0025-.6773-1.0689-1.0386-.9751-1.2696.1899-.4687,1.2348-.872,8.9627998,2.25,8.6269998,3.4859,11.6059997,5.7422,11.6059997,5.7422l-.0093.024Z" fill="#f2f2f2" stroke="#000" stroke-linecap="round" stroke-linejoin="round" stroke-width="2"/>
    <g>
      <g>
        <path d="M5.5922966,20.813s-.5606,1.0483,1.3223,1.8096c1.413.5703,4.1649999,1.7729,4.1649999,1.7729,0,0,.2349-.4512-.2793-.6587-.5132-.2075-.8511-.1621-.8511-.1621,0,0-3.6967999-1.3569-3.3651965-2.1782.2577966-.6362-.9917034-.5835-.9917034-.5835Z" fill="#ff9" fill-rule="evenodd" stroke="#ffcd00" stroke-width=".5"/>
        <path d="M24.2714962,27.2451l1.2192.4917c.3335.1343.1304.6348-.2036.5005l-1.2168-.4932c-.332-.1342-.1308-.6347.2012-.499Z" fill="#999"/>
        <g mask="url(#mask)">
          <g>
            <path d="M25.0565961,27.853l-.1113.273s-3.7103999-.4458-12.3378997-3.9312c-7.7274998-3.123-8.1996998-4.1396-8.0096998-4.6089.1899-.4687,1.2348-.872,8.9627998,2.25,8.6269998,3.4859,11.6059997,5.7422,11.6059997,5.7422l-.1099.2749Z" fill="url(#linear-gradient)" fill-rule="evenodd"/>
            <path d="M25.5155961,27.4902s-4.2792999-2.5756-12.0057997-5.6972c-8.5805998-3.4668-9.1860998-2.5196-9.1860998-2.5196" fill="none" stroke="#999dbd" stroke-miterlimit="3.8637" stroke-width="1.5"/>
            <rect x="11.2657478" y="22.1383172" width="3.4709472" height="1.7773657" transform="translate(-13.2190359 26.4581213) rotate(-68.0058228)" fill="url(#linear-gradient-2)" stroke="#7e5b39" stroke-miterlimit="3.8637" stroke-width=".5"/>
            <rect x="4.8606454" y="19.6958025" width="3.0438523" height="1.138645" transform="translate(-14.7975921 18.5878721) rotate(-67.9902053)" fill="url(#linear-gradient-3)" stroke="#7e5b39" stroke-miterlimit="3.8637" stroke-width=".5"/>
          </g>
        </g>
      </g>
      <path d="M24.4340961,27.7676s-3.4233999-.7661-10.4506997-3.4815l.2139-.5298,10.2367997,4.0113Z" fill="#fff" fill-rule="evenodd"/>
      <path d="M11.6781965,22.7632l-4.4320999-1.8897-.1630966.4029s2.0634965,1.081,4.3817965,2.0166l.2134-.5298Z" fill="#fff" fill-rule="evenodd"/>
    </g>
  </g>
</svg>