<?xml version='1.0' encoding='UTF-8'?>
<svg xmlns="http://www.w3.org/2000/svg" xmlns:xlink="http://www.w3.org/1999/xlink" id="Layer_7" data-name="Layer 7" width="32" height="32" viewBox="0 0 32 32">
  <defs>
    <linearGradient id="New_Gradient_335" data-name="New Gradient 335" x1="4.0761845" y1="23.2596984" x2="17.1020194" y2="23.2596984" gradientUnits="userSpaceOnUse">
      <stop offset="0" stop-color="#999"/>
      <stop offset=".20224" stop-color="#f2f2f2"/>
      <stop offset=".516861" stop-color="#b2b2b2"/>
      <stop offset=".769669" stop-color="#b2b2b2"/>
      <stop offset="1" stop-color="#737373"/>
    </linearGradient>
    <linearGradient id="New_Gradient_335-2" data-name="New Gradient 335" x1="4.0390845" y1="22.4704491" x2="13.625" y2="22.4704491" gradientUnits="userSpaceOnUse"><stop offset="0" stop-color="#999"/><stop offset=".20224" stop-color="#f2f2f2"/><stop offset=".516861" stop-color="#b2b2b2"/><stop offset=".769669" stop-color="#b2b2b2"/><stop offset="1" stop-color="#737373"/></linearGradient>
    <mask id="mask" x="3.9511845" y="16.8057" width="9.6738155" height="7.5722" maskUnits="userSpaceOnUse">
      <path d="M8.8515844,16.9995c2.6366999-.0005,4.7734156,1.3804,4.7734156,3.083,0,1.7036-2.1367156,3.0845-4.7734156,3.0845-2.6367999,0-4.7753999-1.3809-4.7753999-3.0845,0-1.7026,2.1385999-3.083,4.7753999-3.083Z" fill="#fff"/>
    </mask>
    <linearGradient id="New_Gradient_332" data-name="New Gradient 332" x1="4.0761845" y1="20.0832499" x2="13.625" y2="20.0832499" gradientUnits="userSpaceOnUse">
      <stop offset="0" stop-color="#999"/>
      <stop offset=".219101" stop-color="#b2b2b2"/>
      <stop offset=".466293" stop-color="#b2b2b2"/>
      <stop offset=".769669" stop-color="#f2f2f2"/>
      <stop offset="1" stop-color="#737373"/>
    </linearGradient>
    <mask id="mask-1" x="4.0761845" y="17.4024" width="9.5467998" height="6.9755" maskUnits="userSpaceOnUse">
      <path d="M8.8515844,17.8809c2.3710999,0,4.2928999,1.2426,4.2928999,2.7758,0,1.5328-1.9218,2.7754-4.2928999,2.7754-2.3730999,0-4.2968999-1.2426-4.2968999-2.7754,0-1.5332,1.9238-2.7758,4.2968999-2.7758Z" fill="#fff" stroke="#fff" stroke-miterlimit="3.8637" stroke-width=".957"/>
    </mask>
    <linearGradient id="New_Gradient_333" data-name="New Gradient 333" x1="4.5546845" y1="20.6565" x2="13.1444843" y2="20.6565" gradientUnits="userSpaceOnUse">
      <stop offset="0" stop-color="#5587c0"/>
      <stop offset=".20787" stop-color="#97bae0"/>
      <stop offset=".865173" stop-color="#b3e0ff"/>
      <stop offset="1" stop-color="#5587c0"/>
    </linearGradient>
    <radialGradient id="New_Gradient_334" data-name="New Gradient 334" cx="79.0070682" cy="37.2323794" fx="79.0070682" fy="37.2323794" r="7.8484815" gradientTransform="translate(-62.888425 -13.7661249) scale(.8754)" gradientUnits="userSpaceOnUse">
      <stop offset="0" stop-color="#78dcff"/>
      <stop offset="1" stop-color="#b7e9ff"/>
    </radialGradient>
    <linearGradient id="linear-gradient" x1="5.8573745" y1="17.0900549" x2="11.5727897" y2="22.8054701" gradientUnits="userSpaceOnUse">
      <stop offset="0" stop-color="gray"/>
      <stop offset=".187809" stop-color="#82868b"/>
      <stop offset=".5233754" stop-color="#8a99aa"/>
      <stop offset=".9651405" stop-color="#95b7db"/>
      <stop offset="1" stop-color="#97bae0"/>
    </linearGradient>
    <linearGradient id="New_Gradient_331" data-name="New Gradient 331" x1="5.9924108" y1="17.2248451" x2="11.7087569" y2="22.9411912" gradientUnits="userSpaceOnUse">
      <stop offset="0" stop-color="gray"/>
      <stop offset="1" stop-color="#fff"/>
    </linearGradient>
    <mask id="mask-2" x="4.5546845" y="18.5087923" width="8.5897998" height="5.8691077" maskUnits="userSpaceOnUse">
      <path d="M7.4354845,18.5264c.8106-.1001,1.5176.2368,1.5782.7514.0644.5127-.541,1.0108-1.3496,1.1104-.8086.0986-1.5176-.2368-1.5800844-.7505-.0625155-.5151.541-1.0127,1.3514845-1.1113Z" fill="#fff"/>
    </mask>
    <linearGradient id="New_Gradient_330" data-name="New Gradient 330" x1="13.9919225" y1="23.2322868" x2="10.8145708" y2="26.4096385" gradientUnits="userSpaceOnUse">
      <stop offset="0" stop-color="#4c4c4c"/>
      <stop offset=".623596" stop-color="#d9d9d9"/>
      <stop offset="1" stop-color="#4c4c4c"/>
    </linearGradient>
    <mask id="mask-3" x="11.6649843" y="24.2254027" width="5.6582657" height="5.5109473" maskUnits="userSpaceOnUse">
      <path d="M14.3124843,24.6768l2.3378999,2.3378c1.3691,1.3692-.6836,3.4229-2.0526999,2.0538l-2.3398999-2.337c-1.3672-1.3706.6856-3.4233,2.0546999-2.0546Z" fill="#fff"/>
    </mask>
    <linearGradient id="New_Gradient_321" data-name="New Gradient 321" x1="16.6514093" y1="24.6761437" x2="12.2570225" y2="29.0705305" gradientUnits="userSpaceOnUse">
      <stop offset="0" stop-color="#a70000"/>
      <stop offset=".662918" stop-color="#df4e15"/>
      <stop offset="1" stop-color="#740000"/>
    </linearGradient>
    <linearGradient id="New_Gradient_329" data-name="New Gradient 329" x1="14.885755" y1="26.8406717" x2="16.4092915" y2="29.2788397" gradientUnits="userSpaceOnUse">
      <stop offset="0" stop-color="#df4e15"/>
      <stop offset="1" stop-color="#c42e00"/>
    </linearGradient>
    <linearGradient id="New_Gradient_326" data-name="New Gradient 326" x1="14.885755" y1="26.8406717" x2="16.4092915" y2="29.2788397" gradientUnits="userSpaceOnUse">
      <stop offset="0" stop-color="#df4e15"/>
      <stop offset="1" stop-color="#c42e00"/>
    </linearGradient>
    <radialGradient id="radial-gradient" cx="832.034733" cy="-31.5086862" fx="832.034733" fy="-31.5086862" r="22.4893156" gradientTransform="translate(520.3296 23.9029) rotate(179.2125765) scale(.603957 -.7557691) skewX(-.6748893)" gradientUnits="userSpaceOnUse">
      <stop offset="0" stop-color="#fff"/>
      <stop offset=".505618" stop-color="#e5f2ff"/>
      <stop offset=".5429599" stop-color="#d8e8f9"/>
      <stop offset=".611775" stop-color="#b6cfea"/>
      <stop offset=".7036898" stop-color="#80a7d2"/>
      <stop offset=".769663" stop-color="#5587c0"/>
    </radialGradient>
    <radialGradient id="radial-gradient-2" cx="840.9015059" cy="-89.9889321" fx="840.9015059" fy="-89.9889321" r="24.4994937" gradientTransform="translate(538.3269 30.2035) rotate(175.0224365) scale(.6027732 -.7572342) skewX(-3.2594379)" gradientUnits="userSpaceOnUse">
      <stop offset=".55618" stop-color="#fff"/>
      <stop offset=".6126591" stop-color="#f9fbfd"/>
      <stop offset=".6825068" stop-color="#eaf0f7"/>
      <stop offset=".7594197" stop-color="#d1deee"/>
      <stop offset=".8414115" stop-color="#aec5e1"/>
      <stop offset=".9264778" stop-color="#81a6d0"/>
      <stop offset="1" stop-color="#5587c0"/>
    </radialGradient>
    <radialGradient id="New_Gradient_Swatch_2" data-name="New Gradient Swatch 2" cx="-44.0997807" cy="10.4263284" fx="-44.0997807" fy="10.4263284" r="8.0713728" gradientTransform="translate(34.982 -4.6028) scale(.7514)" gradientUnits="userSpaceOnUse">
      <stop offset="0" stop-color="#fff"/>
      <stop offset="1" stop-color="#000"/>
    </radialGradient>
    <radialGradient id="New_Gradient_Swatch_2-2" data-name="New Gradient Swatch 2" cy="15.2259026" fy="15.2259026" cx="-44.0997807" fx="-44.0997807" r="8.0713728" gradientTransform="translate(34.982 -4.6028) scale(.7514)" gradientUnits="userSpaceOnUse"><stop offset="0" stop-color="#fff"/><stop offset="1" stop-color="#000"/></radialGradient>
    <radialGradient id="New_Gradient_Swatch_2-3" data-name="New Gradient Swatch 2" cy="20.0256985" fy="20.0256985" r="8.0712378" cx="-44.0997807" fx="-44.0997807" gradientTransform="translate(34.982 -4.6028) scale(.7514)" gradientUnits="userSpaceOnUse"><stop offset="0" stop-color="#fff"/><stop offset="1" stop-color="#000"/></radialGradient>
    <radialGradient id="New_Gradient_Swatch_2-4" data-name="New Gradient Swatch 2" cx="-35.6973922" cy="12.5258472" fx="-35.6973922" fy="12.5258472" r="4.0343764" gradientTransform="translate(34.982 -4.6028) scale(.7514)" gradientUnits="userSpaceOnUse"><stop offset="0" stop-color="#fff"/><stop offset="1" stop-color="#000"/></radialGradient>
    <radialGradient id="New_Gradient_Swatch_2-5" data-name="New Gradient Swatch 2" cx="-38.1005794" cy="15.2259026" fx="-38.1005794" fy="15.2259026" r="8.0713728" gradientTransform="translate(34.982 -4.6028) scale(.7514)" gradientUnits="userSpaceOnUse"><stop offset="0" stop-color="#fff"/><stop offset="1" stop-color="#000"/></radialGradient>
    <radialGradient id="New_Gradient_Swatch_2-6" data-name="New Gradient Swatch 2" cx="-35.6973922" cy="22.1251285" fx="-35.6973922" fy="22.1251285" r="4.0343764" gradientTransform="translate(34.982 -4.6028) scale(.7514)" gradientUnits="userSpaceOnUse"><stop offset="0" stop-color="#fff"/><stop offset="1" stop-color="#000"/></radialGradient>
    <radialGradient id="New_Gradient_173" data-name="New Gradient 173" cx="17.7128842" cy="18.7658084" fx="17.7128842" fy="18.7658084" r="10.0021196" gradientTransform="translate(0 -1.41) scale(1 1.2813)" gradientUnits="userSpaceOnUse">
      <stop offset="0" stop-color="#b7e9ff"/>
      <stop offset=".69101" stop-color="#3c97f6"/>
      <stop offset="1" stop-color="#0342d3"/>
    </radialGradient>
    <linearGradient id="linear-gradient-2" x1="25.4661714" y1="22.1090052" x2="20.6662755" y2="19.1090678" gradientUnits="userSpaceOnUse">
      <stop offset=".005618" stop-color="#c40000"/>
      <stop offset="1" stop-color="#fc6"/>
    </linearGradient>
    <linearGradient id="New_Gradient_172" data-name="New Gradient 172" x1="20.1947474" y1="22.5661848" x2="17.1945573" y2="18.9659599" gradientUnits="userSpaceOnUse">
      <stop offset="0" stop-color="#c96b00"/>
      <stop offset=".179779" stop-color="#ecb300"/>
      <stop offset=".460678" stop-color="#ffffb3"/>
      <stop offset=".80899" stop-color="#ecb300"/>
      <stop offset="1" stop-color="#c96b00"/>
    </linearGradient>
  </defs>
  <g>
    <path d="M12.543,23.7295l.5174843.5176c.4083-.0733.8575157.0371,1.252.4297l2.3378999,2.3378c1.3691,1.3692-.6836,3.4229-2.0526999,2.0538l-2.3398999-2.337c-.3926-.394-.5039-.8437-.4277-1.2524l-.9219-.9209c-.623.1934-1.3223.3003-2.0565999.3003-2.6367999,0-4.7753999-1.3799-4.7753999-3.084,0-1.2344.0019-1.6514.0019-1.6514l-.0019-.0405c0-1.7026,2.1385999-3.083,4.7753999-3.083,2.6366999-.0005,4.7734156,1.3804,4.7734156,3.083v1.6919c0,.7427-.4082157,1.4234-1.082,1.9551Z" fill="url(#New_Gradient_335)" stroke="#000" stroke-miterlimit="3.8637" stroke-width="1.9141"/>
    <path d="M4.0761845,21.7744c0-1.2344-.0371-1.6514-.0371-1.6514l9.5859155-.0405s0-.0112,0,1.6919c0,1.7041-2.1367156,3.084-4.7734156,3.084-2.6367999,0-4.7753999-1.3799-4.7753999-3.084Z" fill="url(#New_Gradient_335-2)" fill-rule="evenodd"/>
    <g mask="url(#mask)">
      <g>
        <path d="M8.8515844,16.9995c2.6366999-.0005,4.7734156,1.3804,4.7734156,3.083,0,1.7036-2.1367156,3.0845-4.7734156,3.0845-2.6367999,0-4.7753999-1.3809-4.7753999-3.0845,0-1.7026,2.1385999-3.083,4.7753999-3.083Z" fill="url(#New_Gradient_332)"/>
        <g mask="url(#mask-1)">
          <g>
            <path d="M8.8515844,17.8809c2.3710999,0,4.2928999,1.2426,4.2928999,2.7758,0,1.5328-1.9218,2.7754-4.2928999,2.7754-2.3730999,0-4.2968999-1.2426-4.2968999-2.7754,0-1.5332,1.9238-2.7758,4.2968999-2.7758Z" fill="url(#New_Gradient_333)"/>
            <path d="M8.8515844,18.8271c2.3710999,0,4.2928999,1.2417,4.2928999,2.774,0,1.5337-1.9218,2.7768-4.2928999,2.7768-2.3730999,0-4.2968999-1.2431-4.2968999-2.7758,0-1.5333,1.9238-2.775,4.2968999-2.775Z" fill="url(#New_Gradient_334)"/>
            <path d="M8.8515844,17.8809c2.3710999,0,4.2928999,1.2426,4.2928999,2.7758,0,1.5328-1.9218,2.7754-4.2928999,2.7754-2.3730999,0-4.2968999-1.2426-4.2968999-2.7754,0-1.5332,1.9238-2.7758,4.2968999-2.7758Z" fill="none" stroke="#69c" stroke-miterlimit="3.8637" stroke-width=".957"/>
          </g>
        </g>
        <path d="M8.7147844,16.8057c2.5527999,0,4.7636999,1.3422,4.7636999,3.1425,0,1.7989-2.2108999,3.1412-4.7636999,3.1412-2.5506999,0-4.7635999-1.3423-4.7635999-3.1407,0-1.8008,2.2128999-3.143,4.7635999-3.143ZM8.7147844,17.1689c-2.5096999,0-4.4002999,1.3082-4.4002999,2.7798,0,1.4698,1.8906,2.7779,4.4002999,2.7779,2.5097999,0,4.4003999-1.3081,4.4003999-2.7784,0-1.4711-1.8906-2.7793-4.4003999-2.7793Z" fill="url(#linear-gradient)"/>
      </g>
    </g>
    <path d="M8.8515844,16.9414c2.5506999,0,4.7635999,1.3418,4.7635999,3.1411,0,1.8003-2.2128999,3.1431-4.7635999,3.1431-2.5527999,0-4.7656999-1.3428-4.7656999-3.1431,0-1.7993,2.2128999-3.1411,4.7656999-3.1411ZM8.8515844,17.3047c-2.5117999,0-4.4023999,1.3081-4.4023999,2.7778,0,1.4712,1.8906,2.7798,4.4023999,2.7798,2.5077999,0,4.4004156-1.3086,4.4004156-2.7798,0-1.4697-1.8926156-2.7778-4.4004156-2.7778Z" fill="url(#New_Gradient_331)"/>
    <g mask="url(#mask-2)">
      <g>
        <path d="M7.4354845,18.5264c.8106-.1001,1.5176.2368,1.5782.7514.0644.5127-.541,1.0108-1.3496,1.1104-.8086.0986-1.5176-.2368-1.5800844-.7505-.0625155-.5151.541-1.0127,1.3514845-1.1113Z" fill="#b3e0ff"/>
        <path d="M8.8515844,18.8271c2.3710999,0,4.2928999,1.2417,4.2928999,2.774,0,1.5337-1.9218,2.7768-4.2928999,2.7768-2.3730999,0-4.2968999-1.2431-4.2968999-2.7758,0-1.5333,1.9238-2.775,4.2968999-2.775Z" fill="#fff"/>
      </g>
    </g>
    <path d="M12.0468843,23.2329l1.9453,1.9448c.8203.8223-.4121,2.0537-1.2324,1.232l-1.9453-1.9453c-.8223-.8208.4101-2.0523,1.2324-1.2315Z" fill="url(#New_Gradient_330)"/>
    <g mask="url(#mask-3)">
      <g>
        <path d="M14.3124843,24.6768l2.3378999,2.3378c1.3691,1.3692-.6836,3.4229-2.0526999,2.0538l-2.3398999-2.337c-1.3672-1.3706.6856-3.4233,2.0546999-2.0546Z" fill="url(#New_Gradient_321)"/>
        <path d="M15.6483842,26.6221c.793,0,1.4356158.644,1.4356158,1.4375,0,.7939-.6426158,1.4375-1.4356158,1.4375-.7949,0-1.4375-.6436-1.4375-1.4375,0-.7935.6426-1.4375,1.4375-1.4375Z" fill="url(#New_Gradient_329)" stroke="#a70000" stroke-miterlimit="3.8637" stroke-width=".4785"/>
        <path d="M15.6483842,26.6221c.793,0,1.4356158.644,1.4356158,1.4375,0,.7939-.6426158,1.4375-1.4356158,1.4375-.7949,0-1.4375-.6436-1.4375-1.4375,0-.7935.6426-1.4375,1.4375-1.4375Z" fill="url(#New_Gradient_326)"/>
        <line x1="12.3827843" y1="25.0674" x2="14.2577843" y2="26.9434" fill="none" stroke="#ff7845" stroke-linecap="round" stroke-miterlimit="3.8637" stroke-width="1.4356"/>
      </g>
    </g>
  </g>
  <g>
    <path d="M16.8124842,5.311c4.1073999-.4917,13.2519997.4947,10.9276997,6.5401-.4629,1.2041-2.1659999,5.8696-4.6444999,6.3838.9277-.6988,1.4785-2.4502,1.3594-3.1748-1.6465.3637-7.2011998.0683-9.0683998-1.6949-1.8515-1.7461-3.6327999-7.5771,1.4258-8.0542" fill="#ccc" stroke="#000" stroke-linecap="round" stroke-linejoin="round" stroke-width="1.8735"/>
    <path d="M16.8124842,5.311c4.1073999-.4917,13.2519997.4947,10.9276997,6.5401-.4629,1.2041-2.1659999,5.8696-4.6444999,6.3838.9277-.6988,1.4785-2.4502,1.3594-3.1748-1.6465.3637-7.2011998.0683-9.0683998-1.6949-1.8515-1.7461-3.6327999-7.5771,1.4258-8.0542" fill="url(#radial-gradient)"/>
    <path d="M25.003884,15.0981c-.0195-.2075-.043-.414-.0664-.6196.7773-.876,1.584-1.8135,1.873-2.9868.4649-1.8931-.5742-3.8872-2.269484-4.2109-2.8125159-.5337-9.8808157-1.9727-10.6347157,2.3071-.0958-1.5259.8242-3.0332,2.3983999-3.3237,2.7343999-.5064,5.5526999-.2803,8.2968998.2641,2.1991999.4351,3.5370999,2.836,2.9081999,5.086-.295,1.0542-.8535,1.9067-1.7032,2.5693.027416.8784-.3711,1.5776-.8808,2.2798-.0195-.4614.0058-.9165.0781-1.3653" fill="url(#radial-gradient-2)"/>
    <path d="M19.9022841,12.8784c-.1484-1.1489,1.5606-.9189,1.5899.1792.0273,1.0503-1.4511841.9219-1.5899-.1792M21.0136841,11.415c-.3008.4058-.5528-.2006-.6192-.4433-.1093-.3926-.2402-.7876-.3476-1.189-.2148841-.8017-.9961-2.811.3086-3.2016.4843-.1446,1.2265159-.0157,1.6289.3554.4883.4522.4433,1.1001.3554,1.5864-.1875,1.0557-.6582,2.1031-1.3261,2.8921" fill="#2d4866"/>
  </g>
  <g>
    <path d="M6.8046845,6.3872c0,.7466-.6055,1.3521-1.3535,1.3521-.7461,0-1.3516-.6055-1.3516-1.3521,0-.7471.6055-1.3525,1.3516-1.3525.748,0,1.3535.6054,1.3535,1.3525Z" fill="url(#New_Gradient_Swatch_2)"/>
    <path d="M6.8046845,9.9932c0,.747-.6055,1.3525-1.3535,1.3525-.7461,0-1.3516-.6055-1.3516-1.3525,0-.7461.6055-1.3521,1.3516-1.3521.748,0,1.3535.606,1.3535,1.3521Z" fill="url(#New_Gradient_Swatch_2-2)"/>
    <path d="M6.8046845,13.6001c0,.7471-.6055,1.352-1.3535,1.352-.7461,0-1.3516-.6049-1.3516-1.352s.6055-1.3525,1.3516-1.3525c.748,0,1.3535.6054,1.3535,1.3525Z" fill="url(#New_Gradient_Swatch_2-3)"/>
    <path d="M10.6366844,6.3872c0,.3735-.3026844.6763-.6758.6763-.375,0-.6757-.3028-.6757-.6763s.3007-.6763.6757-.6763c.3731156,0,.6758.3028.6758.6763Z" fill="url(#New_Gradient_Swatch_2-4)"/>
    <path d="M11.3124844,9.9932c0,.747-.6054844,1.3525-1.3516,1.3525-.748,0-1.3535-.6055-1.3535-1.3525,0-.7461.6055-1.3521,1.3535-1.3521.7461156,0,1.3516.606,1.3516,1.3521Z" fill="url(#New_Gradient_Swatch_2-5)"/>
    <path d="M10.6366844,13.6001c0,.373-.3026844.6763-.6758.6763-.375,0-.6757-.3033-.6757-.6763s.3007-.6763.6757-.6763c.3731156,0,.6758.3033.6758.6763Z" fill="url(#New_Gradient_Swatch_2-6)"/>
  </g>
  <g>
    <g>
      <rect x="17.7128842" y="23.3115" width="9.5995998" height="2.3062" fill="none" stroke="#000" stroke-linecap="round" stroke-linejoin="round" stroke-width="2"/>
      <rect x="21.3124841" y="20.2349" width="5.9999998" height="2.3061" fill="none" stroke="#000" stroke-linecap="round" stroke-linejoin="round" stroke-width="2"/>
      <rect x="17.7128842" y="20.2349" width="2.9999999" height="2.3061" fill="none" stroke="#000" stroke-linecap="round" stroke-linejoin="round" stroke-width="2"/>
    </g>
    <g>
      <rect x="17.7128842" y="23.3115" width="9.5995998" height="2.3062" fill="url(#New_Gradient_173)"/>
      <rect x="21.3124841" y="20.2349" width="5.9999998" height="2.3061" fill="url(#linear-gradient-2)"/>
      <rect x="17.7128842" y="20.2349" width="2.9999999" height="2.3061" fill="url(#New_Gradient_172)"/>
    </g>
  </g>
</svg>