<?xml version='1.0' encoding='UTF-8'?>
<svg xmlns="http://www.w3.org/2000/svg" xmlns:xlink="http://www.w3.org/1999/xlink" id="Layer_1" data-name="Layer 1" width="32" height="32" viewBox="0 0 32 32">
  <defs>
    <linearGradient id="New_Gradient_176" data-name="New Gradient 176" x1="20.8583428" y1="8.2592979" x2="8.2850563" y2="23.7860137" gradientUnits="userSpaceOnUse">
      <stop offset="0" stop-color="#d9d9d9"/>
      <stop offset=".522476" stop-color="#f2f2f2"/>
      <stop offset="1" stop-color="#ccc"/>
    </linearGradient>
    <linearGradient id="New_Gradient_176-2" data-name="New Gradient 176" x1="14.8848323" y1="8.2959624" x2="7.026128" y2="18.000654" gradientUnits="userSpaceOnUse"><stop offset="0" stop-color="#d9d9d9"/><stop offset=".522476" stop-color="#f2f2f2"/><stop offset="1" stop-color="#ccc"/></linearGradient>
    <linearGradient id="New_Gradient_175" data-name="New Gradient 175" x1="24.6699036" y1="24.5583786" x2="5.6227085" y2="8.0009045" gradientUnits="userSpaceOnUse">
      <stop offset="0" stop-color="#e5e5e5"/>
      <stop offset="1" stop-color="#ccc"/>
    </linearGradient>
    <mask id="mask" x="8.2948885" y="7.7798" width="17.2441996" height="19.1538" maskUnits="userSpaceOnUse">
      <polygon points="22.3573881 9.0884 8.2948885 12.5962 8.2948885 23.2876 22.3573881 19.8228 22.3573881 9.0884" fill="#fff" fill-rule="evenodd"/>
    </mask>
    <linearGradient id="New_Gradient_192" data-name="New Gradient 192" x1="23.7179926" y1="20.8396808" x2="6.9359312" y2="11.5372323" gradientUnits="userSpaceOnUse">
      <stop offset="0" stop-color="#01326e"/>
      <stop offset="1" stop-color="#012859"/>
    </linearGradient>
    <radialGradient id="New_Gradient_193" data-name="New Gradient 193" cx="43.7475442" cy="-22.9643041" fx="43.7475442" fy="-22.9643041" r="15.8989806" gradientTransform="translate(-23.9315 32.9464) scale(.8507)" gradientUnits="userSpaceOnUse">
      <stop offset="0" stop-color="#23468e"/>
      <stop offset="1" stop-color="#012859"/>
    </radialGradient>
    <radialGradient id="radial-gradient" cx="102.4172089" cy="20.8386649" fx="102.4172089" fy="20.8386649" r="2.5753755" gradientTransform="translate(-71.4172 6.568) scale(.8563)" gradientUnits="userSpaceOnUse">
      <stop offset="0" stop-color="#ffe900"/>
      <stop offset=".589888" stop-color="#ffcd00"/>
      <stop offset=".6721381" stop-color="#fac500"/>
      <stop offset=".7966745" stop-color="#efb000"/>
      <stop offset=".947329" stop-color="#dd8e00"/>
      <stop offset="1" stop-color="#d68100"/>
    </radialGradient>
    <radialGradient id="radial-gradient-2" cx="-850.8763885" cy="20.8009336" fx="-850.8763885" fy="20.8009336" r="3.1877283" gradientTransform="translate(-706.5132 6.568) scale(-.8563 .8563)" gradientUnits="userSpaceOnUse"><stop offset="0" stop-color="#ffe900"/><stop offset=".589888" stop-color="#ffcd00"/><stop offset=".6721381" stop-color="#fac500"/><stop offset=".7966745" stop-color="#efb000"/><stop offset=".947329" stop-color="#dd8e00"/><stop offset="1" stop-color="#d68100"/></radialGradient>
    <radialGradient id="radial-gradient-3" cx="104.4616425" cy="9.8770117" fx="104.4616425" fy="9.8770117" r="9.4214152" gradientTransform="translate(-71.4172 6.568) scale(.8563)" gradientUnits="userSpaceOnUse">
      <stop offset="0" stop-color="#ccc"/>
      <stop offset=".0554436" stop-color="#a2a2a2"/>
      <stop offset=".1793984" stop-color="#3b3b3b"/>
      <stop offset=".247191" stop-color="#000"/>
      <stop offset="1" stop-color="#000"/>
    </radialGradient>
    <radialGradient id="radial-gradient-4" cx="108.7846629" cy="10.0891213" fx="108.7846629" fy="10.0891213" r="8.1489773" gradientTransform="translate(-71.4172 6.568) scale(.8563)" gradientUnits="userSpaceOnUse">
      <stop offset="0" stop-color="#ccc"/>
      <stop offset="1" stop-color="#000"/>
    </radialGradient>
    <radialGradient id="radial-gradient-5" cx="99.0857497" cy="14.5744897" fx="99.0857497" fy="14.5744897" r="5.2284842" gradientTransform="translate(-71.4172 6.568) scale(.8563)" gradientUnits="userSpaceOnUse"><stop offset="0" stop-color="#ccc"/><stop offset="1" stop-color="#000"/></radialGradient>
    <radialGradient id="radial-gradient-6" cx="105.8569926" cy="8.9270975" fx="105.8569926" fy="8.9270975" r="4.5995575" gradientTransform="translate(-71.4172 6.568) scale(.8563)" gradientUnits="userSpaceOnUse"><stop offset="0" stop-color="#ccc"/><stop offset=".0554436" stop-color="#a2a2a2"/><stop offset=".1793984" stop-color="#3b3b3b"/><stop offset=".247191" stop-color="#000"/><stop offset="1" stop-color="#000"/></radialGradient>
    <radialGradient id="radial-gradient-7" cx="106.0332862" cy="16.3882627" fx="106.0332862" fy="16.3882627" r="6.6823117" gradientTransform="translate(-71.4172 6.568) scale(.8563)" gradientUnits="userSpaceOnUse">
      <stop offset="0" stop-color="#fff"/>
      <stop offset=".3005241" stop-color="#fcfcfc"/>
      <stop offset=".4838126" stop-color="#f4f4f4"/>
      <stop offset=".6356382" stop-color="#e5e5e5"/>
      <stop offset=".7702902" stop-color="#d1d1d1"/>
      <stop offset=".8923941" stop-color="#b7b7b7"/>
      <stop offset="1" stop-color="#999"/>
    </radialGradient>
    <radialGradient id="radial-gradient-8" cx="102.4172089" cy="20.8386649" fx="102.4172089" fy="20.8386649" r="2.5753755" gradientTransform="translate(-71.4172 6.568) scale(.8563)" gradientUnits="userSpaceOnUse">
      <stop offset="0" stop-color="#ffe900"/>
      <stop offset=".589888" stop-color="#ffcd00"/>
      <stop offset=".6721381" stop-color="#fac500"/>
      <stop offset=".7966745" stop-color="#efb000"/>
      <stop offset=".947329" stop-color="#dd8e00"/>
      <stop offset="1" stop-color="#d68100"/>
    </radialGradient>
    <radialGradient id="radial-gradient-9" cx="-850.8763885" cy="20.8009336" fx="-850.8763885" fy="20.8009336" r="3.1877283" gradientTransform="translate(-706.5132 6.568) scale(-.8563 .8563)" gradientUnits="userSpaceOnUse"><stop offset="0" stop-color="#ffe900"/><stop offset=".589888" stop-color="#ffcd00"/><stop offset=".6721381" stop-color="#fac500"/><stop offset=".7966745" stop-color="#efb000"/><stop offset=".947329" stop-color="#dd8e00"/><stop offset="1" stop-color="#d68100"/></radialGradient>
    <radialGradient id="radial-gradient-10" cx="107.4988545" cy="10.4189638" fx="107.4988545" fy="10.4189638" r=".602744" gradientTransform="translate(-71.4172 6.568) scale(.8563)" gradientUnits="userSpaceOnUse">
      <stop offset="0" stop-color="#fff"/>
      <stop offset=".0597022" stop-color="#dcdcdc"/>
      <stop offset=".1584658" stop-color="#a9a9a9"/>
      <stop offset=".2618442" stop-color="#7b7b7b"/>
      <stop offset=".3678324" stop-color="#555"/>
      <stop offset=".4770854" stop-color="#363636"/>
      <stop offset=".5906921" stop-color="#1e1e1e"/>
      <stop offset=".7104593" stop-color="#0d0d0d"/>
      <stop offset=".8405047" stop-color="#030303"/>
      <stop offset="1" stop-color="#000"/>
    </radialGradient>
    <radialGradient id="radial-gradient-11" cx="105.9334146" fx="105.9334146" r=".6022245" cy="10.4189638" fy="10.4189638" gradientTransform="translate(-71.4172 6.568) scale(.8563)" gradientUnits="userSpaceOnUse"><stop offset="0" stop-color="#fff"/><stop offset=".0597022" stop-color="#dcdcdc"/><stop offset=".1584658" stop-color="#a9a9a9"/><stop offset=".2618442" stop-color="#7b7b7b"/><stop offset=".3678324" stop-color="#555"/><stop offset=".4770854" stop-color="#363636"/><stop offset=".5906921" stop-color="#1e1e1e"/><stop offset=".7104593" stop-color="#0d0d0d"/><stop offset=".8405047" stop-color="#030303"/><stop offset="1" stop-color="#000"/></radialGradient>
    <radialGradient id="radial-gradient-12" cx="143.4062851" cy="1.1162" fx="143.4062851" fy="1.1162" r="3.1773" gradientTransform="translate(-94.4323 15.5882) scale(.7951)" gradientUnits="userSpaceOnUse"><stop offset="0" stop-color="#ffe900"/><stop offset=".589888" stop-color="#ffcd00"/><stop offset=".6721381" stop-color="#fac500"/><stop offset=".7966745" stop-color="#efb000"/><stop offset=".947329" stop-color="#dd8e00"/><stop offset="1" stop-color="#d68100"/></radialGradient>
    <radialGradient id="radial-gradient-13" cx="143.3519579" cy="-10.0053208" fx="143.3519579" fy="-10.0053208" r="3.1698781" gradientTransform="translate(-94.4323 23.5323) scale(.7951 .7171)" gradientUnits="userSpaceOnUse"><stop offset="0" stop-color="#ffe900"/><stop offset=".589888" stop-color="#ffcd00"/><stop offset=".6721381" stop-color="#fac500"/><stop offset=".7966745" stop-color="#efb000"/><stop offset=".947329" stop-color="#dd8e00"/><stop offset="1" stop-color="#d68100"/></radialGradient>
  </defs>
  <g>
    <path d="M6.5292885,25.6943s-1.2148-.6938-1.2148-2.4101v-11.8799s-.045-1.0928.7578-1.3218c.7988-.228,14.9297115-3.5947,15.6639996-3.791.9707119-.2598,1.9063.5469,1.9063.5469l-.0977.1084.168-.041v14.5258l-17.1327996,4.2222-.0508.0405Z" fill="url(#New_Gradient_176)" stroke="#000" stroke-linecap="round" stroke-linejoin="round" stroke-width="2"/>
    <path d="M6.5292885,25.6943s-1.2148-.6938-1.2148-2.4101v-11.8799s-.045-1.0928.7578-1.3218c.7988-.228,14.9297115-3.5947,15.6639996-3.791.9707119-.2598,1.9063.5469,1.9063.5469L6.5292885,25.6943Z" fill="url(#New_Gradient_176-2)" fill-rule="evenodd"/>
    <polygon points="23.7128881 6.9058 6.5800885 11.1782 6.5800885 25.6538 23.7128881 21.4316 23.7128881 6.9058" fill="url(#New_Gradient_175)" fill-rule="evenodd"/>
    <g mask="url(#mask)">
      <g>
        <polygon points="22.3573881 9.0884 8.2948885 12.5962 8.2948885 23.2876 22.3573881 19.8228 22.3573881 9.0884" fill="url(#New_Gradient_192)" fill-rule="evenodd"/>
        <path d="M21.4218881,8.5532s-4.4589999,2.3677-6.8808881,7.6631c-2.4219116,5.294-.7617117,10.7173-.7617117,10.7173l11.7597997-3.3306-.6289-15.8232-3.4882999.7734Z" fill="url(#New_Gradient_193)" fill-rule="evenodd"/>
      </g>
    </g>
    <path d="M6.2577885,25.207v-14.0122c0-.0986.1289-.2724.2188-.2944l16.6405996-4.2168c.4433-.1128.7324.604.2871.7173L6.7987885,11.4688v13.9677c0,.4839-.541.2534-.541-.2295Z" fill="#fff"/>
    <polyline points="6.7987885 25.4365 6.7987885 11.4688 23.4765881 7.2593" fill="none" stroke="#b2b2b2" stroke-linecap="round" stroke-linejoin="round" stroke-width=".75"/>
    <polyline points="8.4140885 23.3574 22.4081881 19.9282 22.4081881 9.1665" fill="none" stroke="#fff" stroke-linecap="round" stroke-miterlimit="3.8637" stroke-width=".9039"/>
    <polyline points="8.252 23.0664 8.252 12.6299 22.1366881 9.1138" fill="none" stroke="gray" stroke-linecap="round" stroke-linejoin="round" stroke-width=".8877"/>
    <g>
      <polygon points="10.2421884 13.5278 12.8632884 14.5635 10.2421884 16.9448 9.7772884 16.356 11.3124884 14.9614 9.7772884 14.3555 10.2421884 13.5278" fill="#fff"/>
      <polygon points="12.8085884 16.1436 15.5995883 15.4272 15.5995883 16.2744 12.8085884 16.9897 12.8085884 16.1436" fill="#fff"/>
    </g>
  </g>
  <g>
    <path d="M25.587888,20.876c-1.8066-.4619-2.4530999-1.2534-3.505888-2.687-.0449119-.0616-.0898119-.1079-.1328119-.148-.0039-.0054-.0097-.0093-.0137-.0132-.0429-.0356-.0839-.0615-.123-.0781v-.0019c.0254-.0352.0469-.0762.0723-.1128.0488-.0708.0976-.1397.1386-.2168.0293-.0533.0489-.1128.0743-.1695.0351-.0757.0703119-.1499.0957-.2304.0254-.0757.0371-.1568.0546119-.2359.0156881-.0683.0351881-.1343.043-.2046.0214881-.1533.0273881-.3115.0194881-.4731-.0194881-.3833-.0332-.5742-.0584881-.958-.084-1.3394-1.0235119-2.3428-2.0625118-2.3306-.2012.002-.2989.002-.5,0-1.0391-.0098-1.9766.9942-2.0624882,2.334-.0235118.3818-.0332118.5732-.0547118.9561-.0078.1626,0,.3212.0175.4751.0098.061.0274.1176.0391.1772.0176.0889.0352.1787.0606.2627.0253.0767.0605118.1465.0918.2187.0253.0606.0488.1231.08.1797.0391.0772.0899.1465.1407118.2173.0233882.0352.041.0752.0702882.1089-.002.0015-.002.0024-.0039.0039-.0391.0166-.0801.043-.1211.0801-.0059.0029-.0078.0058-.0137.0098-.043.04-.0879.0869-.1328.1494-1.0507882,1.4336-1.6973,2.2246-3.5058999,2.687-.4883.125-.8301.4834-.6543.9233.1758.4409.7676.8945,1.2207.8311.5567117-.0782.9922-.2271,1.375-.439-.0682883.147-.1328.2935-.2031.4409-.0937.187-.1543.3677-.1991883.5435-.7031117-.0337-1.3184117.2475-1.4746117,1.0141-.3711,1.8081,1.8476117,3.0879,3.3456999,2.7818.4551-.0923.75-.3384.9062-.6499.252.0439.5039.0669.7461.0674h1.168c.1523,0,.3047-.0127.4609-.0293.1621.2934.4532.5229.8907118.6118,1.5.3061,3.718688-.9741,3.347588-2.7818-.1348-.6547-.6035-.9565-1.1758-1.0097-.0449-.1778-.1074-.3594-.2011-.5489-.0664-.1464-.1329-.2934-.2012-.4399.3828.2114.8164.3599,1.3711.438.459.0644,1.0469-.3892,1.2246-.8301.175812-.4399-.166-.7983-.6543-.9233Z" stroke="#000" stroke-width="2"/>
    <g>
      <g>
        <path d="M14.3593883,24.1899c-.3711,1.8081,1.8476117,3.0879,3.3456999,2.7818.8359118-.1709,1.1523-.8467,1.0078-1.5264-.125-.6011-.6406-1.313-1.3633-1.769-1.0975882-.6934-2.7225882-.8047-2.9901999.5136Z" fill="url(#radial-gradient)" stroke="#000" stroke-width="1.5"/>
        <path d="M25.224588,24.1899c.3711,1.8077-1.847588,3.0879-3.347588,2.7818-.836-.1709-1.1524118-.8467-1.0079118-1.5264.127-.6011.6426-1.313,1.3653-1.769,1.0957-.6934,2.7206999-.8047,2.9901999.5136Z" fill="url(#radial-gradient-2)" stroke="#000" stroke-width="1.5"/>
      </g>
      <path d="M25.587888,20.876c-1.8066-.4619-2.4530999-1.2534-3.505888-2.687-.0937119-.128-.1855119-.2051-.2715119-.2408.3399-.434.5352-1.0107.5-1.6435-.0194881-.3833-.0332-.5742-.0584881-.958-.084-1.3394-1.0235119-2.3428-2.0625118-2.3306-.2012.002-.2989.002-.5,0-1.0391-.0098-1.9766.9942-2.0624882,2.334-.0235118.3818-.0332118.5732-.0547118.9561-.0352.6323.1601,1.208.5,1.642-.086.0357-.1778.1128-.2715.2408-1.0507882,1.4336-1.6973,2.2246-3.5058999,2.687-.4883.125-.8301.4834-.6543.9233.1758.4409.7676.8945,1.2207.8311,1.6875-.2368,2.3359999-1.0655,3.3749999-2.6475.2735-.418.3516-1.1587.2461-1.6338.3321.2476.7344.3926,1.1699.3931.2325.0005.3477118.0005.5801,0,.4356118-.001.836-.1455,1.168-.3916-.1073881.4741-.0273881,1.2143.2461,1.6323,1.039,1.582,1.6855119,2.4102,3.3710999,2.6465.459.0644,1.0469-.3892,1.2246-.8301.175812-.4399-.166-.7983-.6543-.9233Z" fill="url(#radial-gradient-3)" stroke="#000" stroke-width=".5"/>
      <g>
        <path d="M26.242188,21.7993c.175812-.4399-.166-.7983-.6543-.9233-1.8066-.4619-2.4530999-1.2534-3.505888-2.687-.2832119-.3882-.5547119-.3521-.6738119.1196h0c-.1191.4717-.0449,1.2441.2383,1.6743,1.039,1.582,1.6855119,2.4102,3.3710999,2.6465.459.0644,1.0469-.3892,1.2246-.8301h0Z" fill="url(#radial-gradient-4)"/>
        <path d="M13.6405883,21.7993c.1758.4409.7676.8945,1.2207.8311,1.6875-.2368,2.3359999-1.0655,3.3749999-2.6475.2813-.4302.3594-1.2026.2383-1.6743h0c-.1211-.4717-.3887-.5078-.6738-.1196-1.0507882,1.4336-1.6973,2.2246-3.5058999,2.687-.4883.125-.8301.4834-.6543.9233h0Z" fill="url(#radial-gradient-5)"/>
      </g>
      <path d="M23.8476881,22.6313c-1.0528-2.2685-2.0273999-4.4975-2.8554999-6.8584-.3477-.06-.7011882-.0917-1.0625-.0917-.3535-.001-.6992.0302-1.0371.0869-.8281,2.3628-1.8047,4.5937-2.8593999,6.8642-1.1387,2.293,1.3789,3.7549,3.3241999,3.7569h1.168c1.9453-.002,4.4608999-1.4639,3.3222999-3.7579Z"/>
      <path d="M22.3104881,16.3047c.0743,1.3384-.871,2.4346-2.0780999,2.4375-.2323882.0005-.3476.0005-.5801,0-1.207-.0015-2.1522882-1.0982-2.0799999-2.436.0215-.3829.0312-.5743.0547118-.9561.0858882-1.3398,1.0233882-2.3438,2.0624882-2.334.2011.002.2988.002.5,0,1.039-.0122,1.9785118.9912,2.0625118,2.3306.0252881.3838.039.5747.0584881.958Z" fill="url(#radial-gradient-6)"/>
      <g>
        <path d="M21.5370881,15.688c.0274.7095-.291,1.2964-.6992,1.3042-.4121.0063-.7441-.5645-.7461-1.2691-.0039-.707.3086-1.2812.6953-1.2929s.7246.5464.75,1.2578Z" fill="#fff" stroke="#000" stroke-width=".5"/>
        <path d="M19.9823882,15.7231c0,.7222-.375,1.3072-.8398,1.3003-.4629-.0078-.8223-.6088-.7969-1.3354s.4043118-1.2964.8418-1.2847c.4395118.0122.793.5972.7949,1.3198Z" fill="#fff" stroke="#000" stroke-width=".5"/>
      </g>
      <path d="M22.8573881,22.6548c.5547,1.5063-.7303881,3.0683-2.9061999,3.0644h0c-2.1757999-.0053-3.4804999-1.541-2.9335999-3.0493.2793-.7724.414-1.1474.664-1.8838.4942-1.437,1.4532-2.4131,2.2499999-2.4223h0c.7989-.0093,1.7539.9736,2.2499999,2.4101.2559.7349.3926,1.1094.6758,1.8809Z" fill="url(#radial-gradient-7)"/>
      <g>
        <path d="M14.3593883,24.1899c-.3711,1.8081,1.8476117,3.0879,3.3456999,2.7818.8359118-.1709,1.1523-.8467,1.0078-1.5264-.125-.6011-.6406-1.313-1.3633-1.769-1.0975882-.6934-2.7225882-.8047-2.9901999.5136Z" fill="url(#radial-gradient-8)" stroke="#d68100" stroke-width=".375"/>
        <path d="M25.224588,24.1899c.3711,1.8077-1.847588,3.0879-3.347588,2.7818-.836-.1709-1.1524118-.8467-1.0079118-1.5264.127-.6011.6426-1.313,1.3653-1.769,1.0957-.6934,2.7206999-.8047,2.9901999.5136Z" fill="url(#radial-gradient-9)" stroke="#d68100" stroke-width=".375"/>
      </g>
      <g>
        <path d="M21.127,15.6724c0,.2964-.1661118.5346-.3731118.5346-.2051,0-.375-.2382-.375-.5341,0-.2955.1699-.5337.375-.5337.207,0,.3731118.2382.3731118.5332Z" fill="url(#radial-gradient-10)"/>
        <path d="M19.7851882,15.6729c0,.2959-.1661.5341-.3731.5341s-.373-.2382-.373-.5341c0-.2955.166-.5337.373-.5337s.3731.2382.3731.5337Z" fill="url(#radial-gradient-11)"/>
      </g>
      <g>
        <path d="M21.4843881,16.4893c.3515.1518-.1406,1.6543-1.543,1.6543-1.4003882,0-1.8945-1.5025-1.541-1.6539.3516118-.1523.8965-.4248,1.541-.4248s1.1895.2725,1.543.4244Z" fill="url(#radial-gradient-12)"/>
        <path d="M21.4843881,16.4893c.3515.1518-.1406,1.6543-1.543,1.6543-1.4003882,0-1.8945-1.5025-1.541-1.6539.3516118-.1523.8965-.4248,1.541-.4248s1.1895.2725,1.543.4244Z" fill="#ffcd00"/>
        <path d="M21.4843881,16.4893c.3515.1518-.1406,1.6543-1.543,1.6543-1.4003882,0-1.8945-1.5025-1.541-1.6539.3516118-.1523.8965-.4248,1.541-.4248s1.1895.2725,1.543.4244Z" fill="none" stroke="#d68100" stroke-width=".375"/>
      </g>
      <path d="M21.666,16.4521c-.3945119-.1381-1.0039118-.3872-1.7246118-.3872s-1.3301.2491-1.7246.3877c-.0879.0303-.127.1241-.1211.2471.3359.5244,1.0371.8867,1.8516.8867.8047118,0,1.498-.353,1.8379-.8662.0117-.1338-.0274-.2353-.1191881-.2681Z" fill="url(#radial-gradient-13)" stroke="#d68100" stroke-width=".375"/>
    </g>
  </g>
</svg>