<?xml version="1.0" encoding="UTF-8"?>
<svg xmlns="http://www.w3.org/2000/svg" width="32" height="32" xmlns:xlink="http://www.w3.org/1999/xlink" viewBox="0 0 32 32">
  <defs>
    <radialGradient id="b" cx="-32.7748303" cy="87.2859065" fx="-32.7748303" fy="87.2859065" r="12.1964894" gradientTransform="translate(50.2301 -89.4554) scale(1.1892)" gradientUnits="userSpaceOnUse">
      <stop offset="0" stop-color="#fff"/>
      <stop offset=".207865" stop-color="#b7e9ff"/>
      <stop offset=".47191" stop-color="#3c97f6"/>
      <stop offset=".668539" stop-color="#032c87"/>
      <stop offset="1" stop-color="#0342d3"/>
    </radialGradient>
    <mask id="c" data-name="mask" x="5.3144885" y="9.0601" width="20.1119495" height="22.5409181" maskUnits="userSpaceOnUse">
      <path d="M5.3144885,18.6704c0-5.3076,4.3045999-9.6103,9.6131998-9.6103,5.3066999,0,9.6093998,4.3027,9.6093998,9.6103,0,5.3081-4.3026999,9.6113-9.6093998,9.6113-5.3085999,0-9.6131998-4.3032-9.6131998-9.6113Z" fill="#fff" fill-rule="evenodd"/>
    </mask>
    <radialGradient id="d" cx="11.4618759" cy="14.597843" fx="11.4618759" fy="14.597843" r="13.6841125" gradientUnits="userSpaceOnUse">
      <stop offset="0" stop-color="#dfeaeb"/>
      <stop offset=".303371" stop-color="#b7e9ff"/>
      <stop offset=".52809" stop-color="#3c97f6"/>
      <stop offset=".825843" stop-color="#032c87"/>
      <stop offset="1" stop-color="#0342d3"/>
    </radialGradient>
    <mask id="e" data-name="mask-1" x="13.3627617" y="15.9927656" width="12.0636764" height="13.056186" maskUnits="userSpaceOnUse">
      <path d="M23.8300881,17.7964c0,5.5752-3.3749999,9.4853-8.9062998,9.8721-.5859.0419-.6699-.4649-.0957-.6006,4.7050999-1.1128,7.8925998-6.3262,8.4101998-9.3257.0547119-.6924.5918-.5352.5918.0542Z" fill="#fff"/>
    </mask>
    <linearGradient id="f" x1="14.05153" y1="11.1516138" x2="12.9689678" y2="31.8081298" gradientUnits="userSpaceOnUse">
      <stop offset="0" stop-color="#65bd7b"/>
      <stop offset=".0074065" stop-color="#60bb74"/>
      <stop offset=".0565792" stop-color="#45af4f"/>
      <stop offset=".1023037" stop-color="#32a734"/>
      <stop offset=".1428936" stop-color="#27a224"/>
      <stop offset=".174157" stop-color="#23a11f"/>
      <stop offset=".2984012" stop-color="#1c871d"/>
      <stop offset=".4981417" stop-color="#14651b"/>
      <stop offset=".6872815" stop-color="#0e4c19"/>
      <stop offset=".8596362" stop-color="#0b3d18"/>
      <stop offset="1" stop-color="#0a3818"/>
    </linearGradient>
    <mask id="g" data-name="mask-2" x="6.5797343" y="11.3449893" width="18.8467038" height="19.9032121" maskUnits="userSpaceOnUse">
      <path d="M7.1737885,12.2222c.0606.1518-.1875.2519-.0195.2754.3711.0512.5781-.2247.9492-.1719.125.0171.1836.043.3047.0693-.0351885.2471.0488115.4112.0156.6577-.0547.3706-.3593.4976-.4101.8687-.0313.229.0918.3721.0586.6006-.0137.1054-.0762.1596-.1055.2549l.043-.3169c-.0703-.0108-.0996-.0503-.1719-.0601-.3594-.0508-.2832.4893-.4688.7949-.3593.5791-.666.8955-.7617,1.5655-.1367.9853.2852,1.5668.1446115,2.5527-.0489115.3701.1522885.5781.3807885.8799.0527.0078.1074.0058.1445-.0157-.0625-.8261-.1992-1.2578-.1738-2.0727.211.2812.0938.5522.2363.8599.293.6074.4864.9492.6739,1.6035.0664.2343-.0801.4467.0508.6543.2812.4345.414.7763.8593,1.0547.2481.1523.5215.0019.7266.2089.3125.3243.3672.7701.8144.8345.2305.0327.3731-.0913.6016-.06.2734.04.1016116.4277.209.6787.0957.2177.3769.1421.5703.2939.2344.186.2715.5054.5703116.5479.1757884.0244.2421884-.1827.418-.1568.2811884.0396.1913884.4395.1483884.7217-.0742.5444-.7323884.6147-.8086,1.1597-.0136.0981.086.1484.0742116.2441-.0195116.1406-.2031116.1694-.2226116.311-.0547.3877.2422.564.4512.8887.1816.2876.1582.5713.4257.7793.3731.2959.9981.3291.9297116.7964-.1093117.7827-.8105116.9277-1.2304116,1.605.0742.0464.1152.0884.2011.1011.9434.1313,1.4024-.5225,2.3085999-.8262.6133-.2017,1.0313-.1157,1.6055-.4224.3008-.1548.332-.4555.625-.6294.6094-.3633,1.0527-.4551,1.5371-.9707.3086-.3247.2617-.6899.4785-1.082.3106118-.5576.6875-.7481.9414-1.3413-.0742-.0459-.1093-.1221-.205-.1362l-.6524-.0909c-.4043-.0576-.7051-.4135-.6483882-.8183-.4473118-.0723-.7051118-.0913-1.1543118-.1543-.5742-.0801-.6914-.7071-1.2616882-.7881-.25-.0342-.3575117.2373-.6055117.2026-.3281-.0454-.4824-.2114-.8086-.2578-.2031-.0278-.2988.1563-.3906.3408l-.1446.0152c-.0351-.1299-.0019-.2324.0176-.3745.0078-.0523-.084-.0567-.0937-.1031-.4102.1133-.5469.5699-.9688.5113-.1074-.0152-.1445-.1289-.2519-.1436-.1914-.0259-.3008.1025-.4961.0742-.3594-.0512-.711-.3061-.6602-.6679.0195-.1319.168-.1651.1856-.2969.0468116-.3267-.2129-.5327-.5137-.6841l-.2207.041-.3184-.0449c.0098-.061-.0195-.1016-.0117-.1626.0313116-.229.3398-.2397.3711-.4702.0293-.2012.002-.3311.0742116-.5274l-.582-.082c-.2461116.1538-.3672116.4522-.668.4097-.5293116-.0742-.8496116-.605-.7734116-1.1333.0859-.626.4082-1.3252,1.0351-1.2373.211.0293.3028.1489.5118.1797.1523.0205.1972-.188.3476-.1665.3965.0551.8652.2382.8106.6337-.0508.3619.2089.6143.5371.7759.0312116-.0844.0468-.1362.0683-.2231l-.0918-1.1446c.3106-.5405,1.0703-.4609,1.1563-1.0683l.0566-.4048c.0664-.4668.5918117-.6816,1.0567-.6152-.0293-.1748-.1407-.2715-.1153-.4473.0254117-.1943.2442-.2178.4317-.2627-.002.0791,0,.1338.0058.2163.4219117-.0752.8828-.146.9395-.5688.0097-.0523-.0801-.0567-.0938-.1035-.1367.0351-.2324.0751-.3827883.0542-.2012117-.0284-.1347117-.316-.0879117-.5162-.125-.0171-.1953-.018-.3222-.0088.0898-.1406.2207-.166.3867-.1972l.2012.0996c.1132117-.0459.1914-.0884.3066-.1367.0391.1679-.0098.3945.1641.4199l.7695117.1074c.0526882-.1904-.211-.227-.3438117-.3716-.1191-.1235.0235-.3022-.082-.4428-.1816-.2412-.4473-.1978-.7051-.3501-.4394-.2681-.4355-.8609-.9492-.9331-.0957-.0132-.1328.125-.2305.1113-.3418-.0488-.3945-.4512-.7363-.4985-.1074-.0152-.1738.0205-.2754.0332.0117.1806.1406.271.1153117.4477-.0411117.2993-.4688117.2837-.5118117.583-.0254.1861.0664.2881.0762.4785-.2753883-.0117-.1953-.396-.3828-.5932-.3223-.333-1.0449-.2368-.9785-.7041.0918-.6602,1.2109116-.4492,1.3047-1.1099.0078-.0517-.0527883-.0796-.0547-.1235.0859117-.0161.1328-.0542.2207-.0406.2832117.0391.418.2286.5449.4795-.1699.0479-.2734.0337-.4453.0826.3672.2211.7148.1704.9707.5127l.3496-.1666c-.0723-.1279-.1348-.207-.2461-.3046.0742-.0162.1367-.0249.2149-.0049-.1719-.3115-.4922-.312-.7891-.5147-.2949-.2036-.4356-.4214-.7969-.4707l.0235117-.1679c.0311883-.2207.1776883-.2994.3202883-.4683-.0938-.0479-.1485-.0928-.2578-.1079-.2266-.0322-.5157-.0176-.5489.2109-.0195.1406.1172.187.1739.3111-.1016.0752-.1719.1298-.2481.2177.0801.0728.1563.1568.1387.2715-.0078.0786-.0899.0845-.1582.1206-.1367-.2441-.3028-.4023-.2637-.6845-.125.0097-.2891.0136-.3047.1372-.0234.1494.0938.2192.1641.3471-.1231.0542-.2031.1153-.3438.0952l-.3086-.0439c.0371-.0835.1211-.1079.1368116-.2046l.0487884-.3613c-.2051-.0098-.3106-.063-.5176-.0913-.1641-.0244-.3711.0283-.3926.1958-.0273.1865.1524116.2466.2676.3965-.0859.0336-.1328.0996-.2266.0849-.1875-.0259-.123-.2939-.2675-.4057-.1953-.1519-.3887-.0445-.6387-.0533.0117-.2314-.0391-.5083-.2656-.54-.6446-.0903-1.0137.1802-1.625.4189-.4532.1783-.8496.1221-1.211.4405ZM11.4804884,15.8447c.3203-.1162.5156-.2866.8593-.2387.2188.0312.1993.3071.3711.4389.2325.1851.4707.1651.6641116.3809-.1582117.1572-.2637116.2685-.4785116.3276.0273-.1938-.0684-.4043-.2617-.4316-.3184-.0445-.168.5508-.4571.6899-.0429-.2485-.0859-.4072-.0506884-.6543.0174884-.1318.1170884-.1982.2186884-.2739-.1094-.0689-.166-.1675-.2988-.186-.1758-.0245-.3887-.0445-.5664-.0528ZM13.8456883,16.6538l.2012.0996c-.2968883.3262-.6387.4668-1.0801.4058l-.1953-.0283c.2754-.3555.6113-.4439,1.0742-.4771ZM14.1757883,22.4756c-.0957-.0152-.0235-.1563-.0274-.2471.0918-.0141.1504-.0332.2481-.0366.0019-.0811.0019-.1353-.0059-.2168.0625.0088.0938-.0234.1543-.0147.3614.0518.5274.2183.8828.3042-.2812.4102-.7675.2793-1.2519.211ZM12.4394884,21.5483c-.1836-.0351-.336-.1103-.3809-.2968.2383-.0376.3652-.0557.6055-.023.3222.0469.4961.1704.7812.3267.2149.1191.5527117.1499.5176.3955-.0195.1504-.2031.1699-.3535.1489l-.3086-.0434c.0371-.0767.082-.1329.1367-.1963-.2637-.2354-.4374883-.4034-.791-.4532-.0606-.0078-.1524.1309-.207.1416ZM14.5448883,11.9287c.334.2354.5117.5029.9258.5147.0449.2592.2676.3178.4395.5034.3125.3408.4941.6445.9531.7085.0781.0112.1269-.0088.207-.0054-.1211-.2969-.4082-.4277-.3632883-.7441.0292883-.1939.2167883-.2569.2421883-.4512.0488117-.3257-.4394-.3037-.7226-.4609-.4024-.2178-.6075-.4805-1.0664-.545-.4141-.0576-.8243-.0083-1.0196.3594.1114117.0425.2813.1113.4043.1206Z" fill="#fff" fill-rule="evenodd"/>
    </mask>
    <radialGradient id="h" cx="9.6281081" cy="13.6776457" fx="9.6281081" fy="13.6776457" r="17.5725131" gradientUnits="userSpaceOnUse">
      <stop offset="0" stop-color="#d3edd5"/>
      <stop offset=".0881577" stop-color="#ceebd0"/>
      <stop offset=".1888042" stop-color="#c1e5c2"/>
      <stop offset=".2955934" stop-color="#aadbab"/>
      <stop offset=".4067144" stop-color="#8bce8b"/>
      <stop offset=".5211732" stop-color="#64bd62"/>
      <stop offset=".6367876" stop-color="#34a830"/>
      <stop offset=".674157" stop-color="#23a11f"/>
      <stop offset=".6869737" stop-color="#209b1c"/>
      <stop offset=".7628023" stop-color="#128010"/>
      <stop offset=".8398735" stop-color="#086d07"/>
      <stop offset=".9182832" stop-color="#016101"/>
      <stop offset="1" stop-color="#005e00"/>
    </radialGradient>
    <mask id="i" data-name="mask-3" x="13.3627617" y="15.9927656" width="12.0636764" height="13.056186" maskUnits="userSpaceOnUse">
      <path d="M23.8300881,17.7964c0,5.5752-3.3749999,9.4853-8.9062998,9.8721-.5859.0419-.6699-.4649-.0957-.6006,4.7050999-1.1128,7.8925998-6.3262,8.4101998-9.3257.0547119-.6924.5918-.5352.5918.0542Z" fill="#fff"/>
    </mask>
  </defs>
  <g isolation="isolate">
    <g id="a" data-name="Layer 4">
      <g>
        <path d="M5.3144885,18.6704c0-5.3076,4.3045999-9.6103,9.6131998-9.6103,5.3066999,0,9.6093998,4.3027,9.6093998,9.6103,0,5.3081-4.3026999,9.6113-9.6093998,9.6113-5.3085999,0-9.6131998-4.3032-9.6131998-9.6113Z" fill="url(#b)" fill-rule="evenodd" stroke="#000" stroke-miterlimit="3.8637" stroke-width="2.0682"/>
        <g mask="url(#c)">
          <g>
            <path d="M5.3144885,18.6704c0-5.3076,4.3045999-9.6103,9.6131998-9.6103,5.3066999,0,9.6093998,4.3027,9.6093998,9.6103,0,5.3081-4.3026999,9.6113-9.6093998,9.6113-5.3085999,0-9.6131998-4.3032-9.6131998-9.6113Z" fill="url(#d)" fill-rule="evenodd"/>
            <g mask="url(#e)">
              <g>
                <path d="M23.8300881,17.7964c0,5.5752-3.3749999,9.4853-8.9062998,9.8721-.5859.0419-.6699-.4649-.0957-.6006,4.7050999-1.1128,7.8925998-6.3262,8.4101998-9.3257.0547119-.6924.5918-.5352.5918.0542Z" fill="#3c97f6"/>
                <path d="M24.0917881,17.8379c0,5.5767-3.3749999,9.4878-8.9081998,9.874-.5879.0415-.6699-.4668-.0957-.6011,4.7069999-1.1132,7.8905998-6.3261,8.4141117-9.3261.0506881-.6929.5897881-.5357.5897881.0532Z" fill="none" stroke="#2b76b4" stroke-miterlimit="3.8637" stroke-width="2.6693"/>
                <path d="M23.9608881,17.8169c0,5.5767-3.3749999,9.4863-8.9061998,9.8735-.5879.041-.6719-.4653-.0996-.601,4.7109117-1.1123,7.8964998-6.3257,8.4139998-9.3252.0547-.6934.5918-.5357.5918.0527Z" fill="none" stroke="#1459a5" stroke-miterlimit="3.8637" stroke-width="1.3347"/>
                <path d="M23.8300881,17.7964c0,5.5752-3.3749999,9.4853-8.9062998,9.8721-.5859.0419-.6699-.4649-.0957-.6006,4.7050999-1.1128,7.8925998-6.3262,8.4101998-9.3257.0547119-.6924.5918-.5352.5918.0542Z" fill="none" stroke="#1d3f99" stroke-miterlimit="3.8637"/>
              </g>
            </g>
            <path d="M11.4667884,12.0225l.0762116.0786c.1464884.1308.3124884.3847.0194884.497l-.0781.0459c-.4043.2212-.5273884-.1132-.6446-.3906-.1717884-.1352-.7617.167-.7343-.2676.0039-.0595.0058-.2363-.0489-.2846-.7031-.0996-1.2245884.3574-1.8789.5092-.2324.0547-.4882.0831-.6914.2222-.0136.0781-.0527.147-.0996.2114-.2773-.0395-.2422-.1289-.1289-.2851.3711.0517.3809-.2901,1.2695-.0991.3165.0669.211,1.0278.0997115,1.2417-.3008115.5683-.3321115.2846-.2481115.9282.0274.2002-.0098.3179-.1035.4897-.1016.2989-.418.2637-.4707.0386l-.0352.1353c-.0254.0991-.0624885.2187-.1289.3247-.6777,1.0888-.9082,1.2793-.6543,2.6733.084.4663.1407115.8784.0723,1.3535-.0273.1997.0605.3394.1719.4907l.1621.212-.1445885-.0865c-.0761115.0108-.1347115.294-.1386115.2329-.0606-.8374-.2012-1.2749-.1758-2.0991.0137-.4497.543-.3286.6211.4029.0117.1225.0176.2475.0723115.3613.2596885.5425.5233885,1.0596.6874885,1.6421.039.144-.0157.5273.0214.5898.2403.3721.3907.7368.7832.9805.1797.1089.4864-.0444.7715.2461.291.3003.3828.8642.8887.7392.9902-.2441.6445.4585.7871.7832.2793.1709.4102.0225.6895.4097.0605.0835.1562.2769.2636.2925.1621-.0752.1778-.19.42-.1572.4023.0561.4218.4594.3828.7607l-.0312883.2305c-.0879117.6328-.7207116.7427-.8047116,1.1284.1485.2617.0528.4311-.1582.6069-.0215.2354.2949116.5147.416.7075.1329116.2041.1993.5806.375.7198.375.2954,1.1172.3408,1.0215,1.0171-.1074.7588-.6385883.9629-1.0742,1.4443.7246116.0205,1.3652-.5986,2.0390999-.8247.5215117-.1709,1.08-.1445,1.5683-.4048.209-.1084.3203-.4492.6172117-.625.6073882-.3638,1.4784882-.5937,1.7011882-1.3496.0644-.2095.1191-.4199.2266-.6152.2343-.4165.6113-.7212.8417-1.1343-.5996-.084-1.3476-.1397-1.4374882-.9321-.8144118-.1172-1.1445118.0024-1.7167117-.584-.0801-.083-.3692-.3867-.5332883-.3184-.123.0728-.08.0444-.1757117.106-.4492883.269-.7754-.1079-1.1972883-.1675-.2227117.1641-.0371117.31-.4766117.3564-.25.0264-.2929-.2715-.2753883-.4448l.0117883-.0884c-.0332-.0366-.0567-.0781-.0703-.124.0996.0571.1972.1148.2968.1719-.414.1133-.7636.8818-1.3182883.3887-.166-.0186-.2715116.0913-.4942116.0595-.6035-.0849-1.2031-.728-.7031-1.2207.0508-.1733-.0391-.2812-.291-.414l-.1406.0258-.0762.003-.3184-.0459-.2031-.2696c-.0449-.2138.0313-.373.1992-.5063.0879-.0659.0489-.0357.127-.0918.039-.1191.0469-.208.0508-.2847l-.2266-.0771-.0645.0571c-.2031.1963-.375.3843-.6972.3384-1.7539-.2461-.916-3.5117.6562-2.7295.0586.0298.1016.0488.1446.0596.4609-.438,1.4843.123,1.3964.7441-.0156.1157.0215.2251.1153.3247-.0703-.895-.2852-1.1426.5312-1.5762l.1856-.0947c.4238-.2187.3613-.331.4238-.7851.0723-.5147.5176-.7676.957-.8208-.1015-.3677.1153-.5865.4532-.6705l.1425-.0332c.1426-.0351.2579.0347.2891117.1631.1698883-.039.375-.0884.4472883-.2187-.0292883-.0332-.0469-.0708-.0567-.1109.0957.0591.1914117.1167.2871.1753-.3925.0972-.8711.1431-.8144-.4663-.4862883.0327-.332-.518.1758-.6421l.1289117-.0258c.082-.0147.1874883.039.2518883.0708.4395-.1988.5-.1402.5625.3183l.0742.0103c-.0545883-.1265-.0155883-.2305-.0253-.3579-.084-.1084-.4825-.1885-.6309-.2779-.3418-.2094-.5703-.8178-.7988-.8872-.2403.207-.5332.0586-.7245883-.1391-.0977117-.1104-.0586117-.0664-.1485117-.1661-.1426-.1499-.1874883-.0854-.3652-.0634l.207-.2491c.0156.2798.3496.5513-.1562.896l-.0977.0611-.0762.0473c-.0918.0625-.082.0996-.0507.211l.0351.1211c.1426.5854-.5058.5464-.666.0293-.1309-.4258-.2129-.3579-.6445-.5127-.8262-.295-.5528-1.0401.0703-1.313.1933-.0855.6484-.1963.7207-.3994-.2363-.4195.6914-.7754,1.1719117.1836.039.0693.039.1396.0155883.1987.0469.02.0957.04.1406.0654-.0117-.0449-.0078-.0893.0098117-.1289l-.1973117-.0849c-.332-.1485-.625-.5293-.9531-.5752-.3418-.0479-.1758-.5845-.0547-.752-.0448883,0-.0858883.0034-.1152.0117.1367.1631.2031.3618.0527.4746l-.0625.0489c.2559.4765-.3926.7744-.5547.4868-.1601884-.2876-.3437-.4683-.2891-.834l.252.2715c.2734.4033-.2129.622-.5352.5776-.2636-.0376-.7675-.0903-.4198884-.4907l.0487884-.0527.0137-.1021c-.1094-.0229-.2793-.0786-.3867-.0522ZM7.0272885,12.3833l.0606-.2422c.4141115-.3682.8242-.3052,1.2812-.4834.5508-.2163,2.0351999-.9731,2.2031999.0879l.0976-.0107c.1367-.0088.3008.0048.4571116.1308.1073884.0796.1561884.1978.1913884.3198.0234-.0117.0488-.0234.0742-.0332l-.1074.3658c-.1817-.2417-.5157-.458-.2051-.8037.289-.3243.707-.0977,1.0547-.0796.3613.019.2343.6826.0488.8725-.0313.0323-.3925884-.3286-.2129-.3037.377.0532.2559.083.5234-.0342l-.1132.336c-.1387-.2456-.4258-.6504.0839-.8037.045-.0127.0899-.021.1387-.0264l.1094-.0088c.3242-.0225.2031116.3081.293.4854.0527.103.1269.2011.1933.3198l-.2383-.0723c-.1855-.1841-.2695-.2412-.0332-.4599-.3886-.5416.4102-.9375,1.0743116-.585.3866883.2046-.1231117.4868-.1817117.6665.3242.1226.5332.4126.8477117.5547.2245883.1015.9237883.4502.6854883.7739.2012.3516-.543.7002-.7264883.4561-.1836117-.2437-.6368117-.2911-.9043117-.4527-.3223-.1972-.0684-.414.1543117-.4565-.0235117-.0176-.0489117-.0318-.0743117-.0435-.1738.7593-1.4276883.6568-1.2812,1.0982.1367.1328.6211.1538.9043.4492.123.1294.1621.2949.2148.4595.0176.0576.0059.0581.0078.0605-.1836-.0908-.1913883.4551-.2636.166l-.0274-.1015c-.0898-.3057-.0273-.5581.2383-.7393l.0996-.062.0742-.0464c.1524-.1025-.041-.3037-.0507-.4746-.0215-.4019.707-.3272.9785-.0459.1093.1211.0507117.0566.1504.1665.0293117.0308.0605.0606.0996.0781.4765-.4111.9043.3741,1.1328.6841.0547.0796.1172.1406.1894.1865.4102.2427.92.1353.8535117.8482.1953882.1694.4863882.2236.3828882.5854-.0957.3438-1.2403.2144-1.3555-.2422-.1231.0508-.2402-.0087-.3477-.0625-.0742.0181-.125.0332-.1523.0782l-.2188-.3692c.42-.0293.6231-.0195.5411.4492l-.0136883.0811c.1093883-.0181.164-.0361.2304883-.0522l.289.1752c-.0371-.021-.0469-.0634-.0604883-.1005.4803883.2793-.0996117.873-.6504117,1-.1602.0366-.4434.1372-.5645-.0308l.0606.147c.3222.8188-.9043.1167-1.0078.8535-.084.6064-.0801.8354-.6778,1.144l-.1816.0923c-.1289.0679-.2559.146-.3457.2661l.084,1.0645-.0059.0747c-.2383.9785-1.1582-.0449-1.0723-.6416.0332-.2354-.414-.334-.5703-.3604-.3789.3653-.5625.0293-.8984-.018-.7305-.1021-1.1875,1.7578-.1934,1.8969.1895116.0293.4004-.4453.668-.4082.8477.1197.7754-.0254.7344.5972-.0215.2749-.0058884.4448-.2364.6255-.0781.0581-.0429.0327-.0781.0581.6836116-.1226,1.3321.6899.8008,1.2153-.0391.2705.3594.4522.5938116.3721.2342884-.0791.416-.0889.6092883.082.1953.0298.5899-.4126.8731-.4907l.2949.1733c-.0371-.0214-.0508-.0634-.0586-.1005.0547.0332.0977.0732.125.122.4141-.2783,1.002.2515,1.1953117.1719.125-.0762.0702883-.043.1718883-.1074.7695-.4575,1.1035.6216,1.6543.6992.4512.0635.709.082,1.1582.1553.3828.0605-.0039.7261.6465.8159.1836.0259.6758.019.8886.2065l.0606.0562s.1328.2036.0918.2969c-.2266.5351-.6777.8681-.9531,1.3628-.2149.3896-.1563.7519-.5097882,1.1289-.5078118.54-.9902118.6538-1.5898118,1.0136-.2364.1397-.2831882.4522-.6387.6353-.5488.292-1.0762.2515-1.6387.4365-.834.2793-1.8105,1.2647-2.7108999.7017-.4198884-.2617.5117-.9761.6972-1.1426,1.0079117-.9106.1036-.8584-.4179-1.2739-.334-.2593-.293-.5406-.4805-.8374-.25-.3931-.8379-.9038-.293-1.3575-.3436884-.6323.7012-.9594.7637-1.4096l.0332-.2212c.0078-.065.0156-.1279.0117-.1846-.6816.4829-.8592884-.4243-1.1777-.5263-.2363-.0757-.4395-.0835-.5565884-.3482-.0704116-.1606-.0547116-.3315-.0625116-.5024l-.0547-.0308c-.7325.0972-.8243.1167-1.2969-.6255-.3047-.4814-.4375-.1445-.8438-.3931-.4863-.3022-.6406-.6733-.9336-1.1289-.1992-.3095-.0214-.5107-.082-.7177-.0801-.2837-.1797-.5528-.3008-.8228.0391.3403.084.6846-.3846885.6187-.0235115-.0035-.1426115-.0728-.1563115-.0923l-.1621-.2139c-.4433-.5957-.1914-.8154-.248-1.4653-.0918-1.062-.4493-1.7769.1504115-2.8311.1327885-.2373.3006885-.4634.4842885-.7558.1934-.3208.166-1.2012.877-.8477.2969.0425.1836.4209.1582.5864l-.461-.1079c.0098-.0361.0254-.0688.043-.0991.1973-.3618-.2754-.5361.2422-1.2539.2461-.3437.1543115-.3975.1367-.769l-.0918-.0171c-.1875-.0274-1.789.6152-1.1405885-.2925l.0272885.0161ZM12.7147884,16.6929l-.0175.0581-.0312884.1294c-.1191116.4536-.5801116.6626-.6523116.2734-.0723-.3887-.1758-.8193.1777-1.103l.0801-.0611.0137.3916c-.0567-.0361-.1075-.0815-.1581884-.1269-.0762116-.0576-.4903116-.0693-.5879116-.0737-.3145-.0118-.3653-.3555-.0703-.4624.4316-.1563,1.0605-.5484,1.3593.0625.1133.2338.1348.2182.3867.3188.1856.0742.6563.333.3965.5913l-.1132883.1148c-.1367117.1294-.2832117.2241-.4667116.2754-.3672.102-.2618-.295-.3165-.3882ZM13.0585884,16.5513c-.1543-.0625-.293-.1162-.4258-.2217-.1816-.1406-.1973-.3296-.2557884-.3892-.2657116-.0376-.5059116.1397-.7461116.2266l-.0723-.4634c.2676.0108.6465.0049.8652.1787.1465.1231.3907.294.1328.4893l-.0664.0513c-.1933.2011.1817.5668-.3379.4643.0274-.0322.043-.0908.0528-.1304l.0293-.1167c.0586116-.2588.1855-.5019.5039-.4565.3398.0469.5078.3887.4668.7007l-.3028-.2637c.0665-.0171.1133-.0395.1563-.0693ZM14.2226883,16.6377c.4746.2353-.3555.9766-1.2206883.8545-.1973116-.0278-.5918116-.0933-.3497116-.4087.3379-.4375.7579-.5352,1.2481-.5708.0937-.0068.2695.0981.3223.125ZM14.0116883,17.0645l-.1426-.0704c-.3984.0352-.6386.1182-.8378.3799l-.1562884-.3823c.4550883.0645.7284883.0669,1.0663883-.3018l.0703.3746ZM14.2265883,22.144l.2675-.3066c.334-.083.7247.2124,1.0606.293.4512.1093.0488.7256-.5956883.7544-.252.0117-.4981117-.0406-.7461117-.0757-.1992-.0278-.2734-.1582-.252-.3589l.0157-.0908c.1093-.1026.1894117-.1699.25-.2154ZM14.9452883,22.4082c-.084-.0376-.1562-.0674-.2422-.0889-.0156.106-.1210883.2036-.2265.2085-.0879.003-.1387.022-.2227.0342l.2012-.25c.0058.0659-.0078.1299-.0215.1943-.1035-.0146-.166-.0654-.1543-.1704.2207117.0313.4453.0821.666.0723ZM12.7597884,21.7544c-.1075.0937-.1641.1182-.209.1265l-.0879-.0005c-.6797-.1294-.9668-.9683.3027-.7896.3614116.0508.5567.1841.8633.3526.2715.1499.7031117.1938.6406.6386-.0664.4742-.625.3511-.9316.3086-.1836-.0268-.2617-.1772-.1816-.3427l.0312-.0552c-.1309-.1099-.2559-.1992-.4277-.2383ZM12.4550884,21.3862c.2461-.226.5703-.0859.8203.0752.1406117.0908.4707.3194.4648.5039-.0039.1265-.1015.188-.1561883.295l-.1777117-.3428.1757117.0244c-.3066117-.1182-.5488116-.3315-.8808116-.3774-.2031884-.0298-.3008-.0162-.5351884.0205l.1952884-.2925c.0078.0356.0235.0674.0938.0937ZM14.6796883,11.8042l.0723117.0273c.2440883.1714.4725883.4624.7948883.4712.1992.0074.1972.2339.3203.335.0976.0825.2031.1504.291.2461.2031.2207.5137.668.8535.6323.041-.0049.0821-.0098.1367-.0088l-.2285.3296c-.1445-.353-.6054-.5776-.3008-1.0815.0157-.0259.0332-.0503.0508-.0742.0528-.066.0352-.0416.0821117-.0977.0272883-.0435.0311883-.0532.0331883-.0645-.0293-.0293-.5079-.164-.6055-.2177-.4785-.2617-.8866883-.7041-1.5-.4971ZM14.9120883,12.5625c-.125-.0884-.2402-.1997-.3867-.3071-1.3809-.2344.0976117-1.5152,1.3867-.6949.1543.0977.3027.2154.4961.3218.3203.1763.9277.1499.8496.7031-.0156.1089-.0664.2051-.1307882.2901-.0567117.0718-.0293117.0361-.0782117.0976-.0976.1548.2539.5406.3125.6827.1309.3217-.2578.3618-.4609.3339-.5469-.0766-.7656-.4228-1.0938-.7846-.1523-.1626-.3339-.2207-.4453-.4429-.1797-.0332-.3242-.1103-.4492-.1997Z" fill="url(#f)"/>
            <g mask="url(#g)">
              <g>
                <path d="M7.1737885,12.2222c.0606.1518-.1875.2519-.0195.2754.3711.0512.5781-.2247.9492-.1719.125.0171.1836.043.3047.0693-.0351885.2471.0488115.4112.0156.6577-.0547.3706-.3593.4976-.4101.8687-.0313.229.0918.3721.0586.6006-.0137.1054-.0762.1596-.1055.2549l.043-.3169c-.0703-.0108-.0996-.0503-.1719-.0601-.3594-.0508-.2832.4893-.4688.7949-.3593.5791-.666.8955-.7617,1.5655-.1367.9853.2852,1.5668.1446115,2.5527-.0489115.3701.1522885.5781.3807885.8799.0527.0078.1074.0058.1445-.0157-.0625-.8261-.1992-1.2578-.1738-2.0727.211.2812.0938.5522.2363.8599.293.6074.4864.9492.6739,1.6035.0664.2343-.0801.4467.0508.6543.2812.4345.414.7763.8593,1.0547.2481.1523.5215.0019.7266.2089.3125.3243.3672.7701.8144.8345.2305.0327.3731-.0913.6016-.06.2734.04.1016116.4277.209.6787.0957.2177.3769.1421.5703.2939.2344.186.2715.5054.5703116.5479.1757884.0244.2421884-.1827.418-.1568.2811884.0396.1913884.4395.1483884.7217-.0742.5444-.7323884.6147-.8086,1.1597-.0136.0981.086.1484.0742116.2441-.0195116.1406-.2031116.1694-.2226116.311-.0547.3877.2422.564.4512.8887.1816.2876.1582.5713.4257.7793.3731.2959.9981.3291.9297116.7964-.1093117.7827-.8105116.9277-1.2304116,1.605.0742.0464.1152.0884.2011.1011.9434.1313,1.4024-.5225,2.3085999-.8262.6133-.2017,1.0313-.1157,1.6055-.4224.3008-.1548.332-.4555.625-.6294.6094-.3633,1.0527-.4551,1.5371-.9707.3086-.3247.2617-.6899.4785-1.082.3106118-.5576.6875-.7481.9414-1.3413-.0742-.0459-.1093-.1221-.205-.1362l-.6524-.0909c-.4043-.0576-.7051-.4135-.6483882-.8183-.4473118-.0723-.7051118-.0913-1.1543118-.1543-.5742-.0801-.6914-.7071-1.2616882-.7881-.25-.0342-.3575117.2373-.6055117.2026-.3281-.0454-.4824-.2114-.8086-.2578-.2031-.0278-.2988.1563-.3906.3408l-.1446.0152c-.0351-.1299-.0019-.2324.0176-.3745.0078-.0523-.084-.0567-.0937-.1031-.4102.1133-.5469.5699-.9688.5113-.1074-.0152-.1445-.1289-.2519-.1436-.1914-.0259-.3008.1025-.4961.0742-.3594-.0512-.711-.3061-.6602-.6679.0195-.1319.168-.1651.1856-.2969.0468116-.3267-.2129-.5327-.5137-.6841l-.2207.041-.3184-.0449c.0098-.061-.0195-.1016-.0117-.1626.0313116-.229.3398-.2397.3711-.4702.0293-.2012.002-.3311.0742116-.5274l-.582-.082c-.2461116.1538-.3672116.4522-.668.4097-.5293116-.0742-.8496116-.605-.7734116-1.1333.0859-.626.4082-1.3252,1.0351-1.2373.211.0293.3028.1489.5118.1797.1523.0205.1972-.188.3476-.1665.3965.0551.8652.2382.8106.6337-.0508.3619.2089.6143.5371.7759.0312116-.0844.0468-.1362.0683-.2231l-.0918-1.1446c.3106-.5405,1.0703-.4609,1.1563-1.0683l.0566-.4048c.0664-.4668.5918117-.6816,1.0567-.6152-.0293-.1748-.1407-.2715-.1153-.4473.0254117-.1943.2442-.2178.4317-.2627-.002.0791,0,.1338.0058.2163.4219117-.0752.8828-.146.9395-.5688.0097-.0523-.0801-.0567-.0938-.1035-.1367.0351-.2324.0751-.3827883.0542-.2012117-.0284-.1347117-.316-.0879117-.5162-.125-.0171-.1953-.018-.3222-.0088.0898-.1406.2207-.166.3867-.1972l.2012.0996c.1132117-.0459.1914-.0884.3066-.1367.0391.1679-.0098.3945.1641.4199l.7695117.1074c.0526882-.1904-.211-.227-.3438117-.3716-.1191-.1235.0235-.3022-.082-.4428-.1816-.2412-.4473-.1978-.7051-.3501-.4394-.2681-.4355-.8609-.9492-.9331-.0957-.0132-.1328.125-.2305.1113-.3418-.0488-.3945-.4512-.7363-.4985-.1074-.0152-.1738.0205-.2754.0332.0117.1806.1406.271.1153117.4477-.0411117.2993-.4688117.2837-.5118117.583-.0254.1861.0664.2881.0762.4785-.2753883-.0117-.1953-.396-.3828-.5932-.3223-.333-1.0449-.2368-.9785-.7041.0918-.6602,1.2109116-.4492,1.3047-1.1099.0078-.0517-.0527883-.0796-.0547-.1235.0859117-.0161.1328-.0542.2207-.0406.2832117.0391.418.2286.5449.4795-.1699.0479-.2734.0337-.4453.0826.3672.2211.7148.1704.9707.5127l.3496-.1666c-.0723-.1279-.1348-.207-.2461-.3046.0742-.0162.1367-.0249.2149-.0049-.1719-.3115-.4922-.312-.7891-.5147-.2949-.2036-.4356-.4214-.7969-.4707l.0235117-.1679c.0311883-.2207.1776883-.2994.3202883-.4683-.0938-.0479-.1485-.0928-.2578-.1079-.2266-.0322-.5157-.0176-.5489.2109-.0195.1406.1172.187.1739.3111-.1016.0752-.1719.1298-.2481.2177.0801.0728.1563.1568.1387.2715-.0078.0786-.0899.0845-.1582.1206-.1367-.2441-.3028-.4023-.2637-.6845-.125.0097-.2891.0136-.3047.1372-.0234.1494.0938.2192.1641.3471-.1231.0542-.2031.1153-.3438.0952l-.3086-.0439c.0371-.0835.1211-.1079.1368116-.2046l.0487884-.3613c-.2051-.0098-.3106-.063-.5176-.0913-.1641-.0244-.3711.0283-.3926.1958-.0273.1865.1524116.2466.2676.3965-.0859.0336-.1328.0996-.2266.0849-.1875-.0259-.123-.2939-.2675-.4057-.1953-.1519-.3887-.0445-.6387-.0533.0117-.2314-.0391-.5083-.2656-.54-.6446-.0903-1.0137.1802-1.625.4189-.4532.1783-.8496.1221-1.211.4405ZM11.4804884,15.8447c.3203-.1162.5156-.2866.8593-.2387.2188.0312.1993.3071.3711.4389.2325.1851.4707.1651.6641116.3809-.1582117.1572-.2637116.2685-.4785116.3276.0273-.1938-.0684-.4043-.2617-.4316-.3184-.0445-.168.5508-.4571.6899-.0429-.2485-.0859-.4072-.0506884-.6543.0174884-.1318.1170884-.1982.2186884-.2739-.1094-.0689-.166-.1675-.2988-.186-.1758-.0245-.3887-.0445-.5664-.0528ZM13.8456883,16.6538l.2012.0996c-.2968883.3262-.6387.4668-1.0801.4058l-.1953-.0283c.2754-.3555.6113-.4439,1.0742-.4771ZM14.1757883,22.4756c-.0957-.0152-.0235-.1563-.0274-.2471.0918-.0141.1504-.0332.2481-.0366.0019-.0811.0019-.1353-.0059-.2168.0625.0088.0938-.0234.1543-.0147.3614.0518.5274.2183.8828.3042-.2812.4102-.7675.2793-1.2519.211ZM12.4394884,21.5483c-.1836-.0351-.336-.1103-.3809-.2968.2383-.0376.3652-.0557.6055-.023.3222.0469.4961.1704.7812.3267.2149.1191.5527117.1499.5176.3955-.0195.1504-.2031.1699-.3535.1489l-.3086-.0434c.0371-.0767.082-.1329.1367-.1963-.2637-.2354-.4374883-.4034-.791-.4532-.0606-.0078-.1524.1309-.207.1416ZM14.5448883,11.9287c.334.2354.5117.5029.9258.5147.0449.2592.2676.3178.4395.5034.3125.3408.4941.6445.9531.7085.0781.0112.1269-.0088.207-.0054-.1211-.2969-.4082-.4277-.3632883-.7441.0292883-.1939.2167883-.2569.2421883-.4512.0488117-.3257-.4394-.3037-.7226-.4609-.4024-.2178-.6075-.4805-1.0664-.545-.4141-.0576-.8243-.0083-1.0196.3594.1114117.0425.2813.1113.4043.1206Z" fill="url(#h)" fill-rule="evenodd"/>
                <g mask="url(#i)">
                  <g mix-blend-mode="screen" opacity=".3">
                    <path d="M23.8300881,17.7964c0,5.5752-3.3749999,9.4853-8.9062998,9.8721-.5859.0419-.6699-.4649-.0957-.6006,4.7050999-1.1128,7.8925998-6.3262,8.4101998-9.3257.0547119-.6924.5918-.5352.5918.0542Z" fill="#c9ffc9"/>
                    <path d="M24.0917881,17.8379c0,5.5767-3.3749999,9.4878-8.9081998,9.874-.5879.0415-.6699-.4668-.0957-.6011,4.7069999-1.1132,7.8905998-6.3261,8.4141117-9.3261.0506881-.6929.5897881-.5357.5897881.0532Z" fill="none" stroke="#a7dbaa" stroke-miterlimit="3.8637" stroke-width="2.6693"/>
                    <path d="M23.9608881,17.8169c0,5.5767-3.3749999,9.4863-8.9061998,9.8735-.5879.041-.6719-.4653-.0996-.601,4.7109117-1.1123,7.8964998-6.3257,8.4139998-9.3252.0547-.6934.5918-.5357.5918.0527Z" fill="none" stroke="#85cd92" stroke-miterlimit="3.8637" stroke-width="1.3347"/>
                    <path d="M23.8300881,17.7964c0,5.5752-3.3749999,9.4853-8.9062998,9.8721-.5859.0419-.6699-.4649-.0957-.6006,4.7050999-1.1128,7.8925998-6.3262,8.4101998-9.3257.0547119-.6924.5918-.5352.5918.0542Z" fill="none" stroke="#65bd7b" stroke-miterlimit="3.8637"/>
                  </g>
                </g>
                <path d="M7.1737885,12.2222c.0606.1518-.1875.2519-.0195.2754.3711.0512.5781-.2247.9492-.1719.125.0171.1836.043.3047.0693-.0351885.2471.0488115.4112.0156.6577-.0547.3706-.3593.4976-.4101.8687-.0313.229.0918.3721.0586.6006-.0137.1054-.0762.1596-.1055.2549l.043-.3169c-.0703-.0108-.0996-.0503-.1719-.0601-.3594-.0508-.2832.4893-.4688.7949-.3593.5791-.666.8955-.7617,1.5655-.1367.9853.2852,1.5668.1446115,2.5527-.0489115.3701.1522885.5781.3807885.8799.0527.0078.1074.0058.1445-.0157-.0625-.8261-.1992-1.2578-.1738-2.0727.211.2812.0938.5522.2363.8599.293.6074.4864.9492.6739,1.6035.0664.2343-.0801.4467.0508.6543.2812.4345.414.7763.8593,1.0547.2481.1523.5215.0019.7266.2089.3125.3243.3672.7701.8144.8345.2305.0327.3731-.0913.6016-.06.2734.04.1016116.4277.209.6787.0957.2177.3769.1421.5703.2939.2344.186.2715.5054.5703116.5479.1757884.0244.2421884-.1827.418-.1568.2811884.0396.1913884.4395.1483884.7217-.0742.5444-.7323884.6147-.8086,1.1597-.0136.0981.086.1484.0742116.2441-.0195116.1406-.2031116.1694-.2226116.311-.0547.3877.2422.564.4512.8887.1816.2876.1582.5713.4257.7793.3731.2959.9981.3291.9297116.7964-.1093117.7827-.8105116.9277-1.2304116,1.605.0742.0464.1152.0884.2011.1011.9434.1313,1.4024-.5225,2.3085999-.8262.6133-.2017,1.0313-.1157,1.6055-.4224.3008-.1548.332-.4555.625-.6294.6094-.3633,1.0527-.4551,1.5371-.9707.3086-.3247.2617-.6899.4785-1.082.3106118-.5576.6875-.7481.9414-1.3413-.0742-.0459-.1093-.1221-.205-.1362l-.6524-.0909c-.4043-.0576-.7051-.4135-.6483882-.8183-.4473118-.0723-.7051118-.0913-1.1543118-.1543-.5742-.0801-.6914-.7071-1.2616882-.7881-.25-.0342-.3575117.2373-.6055117.2026-.3281-.0454-.4824-.2114-.8086-.2578-.2031-.0278-.2988.1563-.3906.3408l-.1446.0152c-.0351-.1299-.0019-.2324.0176-.3745.0078-.0523-.084-.0567-.0937-.1031-.4102.1133-.5469.5699-.9688.5113-.1074-.0152-.1445-.1289-.2519-.1436-.1914-.0259-.3008.1025-.4961.0742-.3594-.0512-.711-.3061-.6602-.6679.0195-.1319.168-.1651.1856-.2969.0468116-.3267-.2129-.5327-.5137-.6841l-.2207.041-.3184-.0449c.0098-.061-.0195-.1016-.0117-.1626.0313116-.229.3398-.2397.3711-.4702.0293-.2012.002-.3311.0742116-.5274l-.582-.082c-.2461116.1538-.3672116.4522-.668.4097-.5293116-.0742-.8496116-.605-.7734116-1.1333.0859-.626.4082-1.3252,1.0351-1.2373.211.0293.3028.1489.5118.1797.1523.0205.1972-.188.3476-.1665.3965.0551.8652.2382.8106.6337-.0508.3619.2089.6143.5371.7759.0312116-.0844.0468-.1362.0683-.2231l-.0918-1.1446c.3106-.5405,1.0703-.4609,1.1563-1.0683l.0566-.4048c.0664-.4668.5918117-.6816,1.0567-.6152-.0293-.1748-.1407-.2715-.1153-.4473.0254117-.1943.2442-.2178.4317-.2627-.002.0791,0,.1338.0058.2163.4219117-.0752.8828-.146.9395-.5688.0097-.0523-.0801-.0567-.0938-.1035-.1367.0351-.2324.0751-.3827883.0542-.2012117-.0284-.1347117-.316-.0879117-.5162-.125-.0171-.1953-.018-.3222-.0088.0898-.1406.2207-.166.3867-.1972l.2012.0996c.1132117-.0459.1914-.0884.3066-.1367.0391.1679-.0098.3945.1641.4199l.7695117.1074c.0526882-.1904-.211-.227-.3438117-.3716-.1191-.1235.0235-.3022-.082-.4428-.1816-.2412-.4473-.1978-.7051-.3501-.4394-.2681-.4355-.8609-.9492-.9331-.0957-.0132-.1328.125-.2305.1113-.3418-.0488-.3945-.4512-.7363-.4985-.1074-.0152-.1738.0205-.2754.0332.0117.1806.1406.271.1153117.4477-.0411117.2993-.4688117.2837-.5118117.583-.0254.1861.0664.2881.0762.4785-.2753883-.0117-.1953-.396-.3828-.5932-.3223-.333-1.0449-.2368-.9785-.7041.0918-.6602,1.2109116-.4492,1.3047-1.1099.0078-.0517-.0527883-.0796-.0547-.1235.0859117-.0161.1328-.0542.2207-.0406.2832117.0391.418.2286.5449.4795-.1699.0479-.2734.0337-.4453.0826.3672.2211.7148.1704.9707.5127l.3496-.1666c-.0723-.1279-.1348-.207-.2461-.3046.0742-.0162.1367-.0249.2149-.0049-.1719-.3115-.4922-.312-.7891-.5147-.2949-.2036-.4356-.4214-.7969-.4707l.0235117-.1679c.0311883-.2207.1776883-.2994.3202883-.4683-.0938-.0479-.1485-.0928-.2578-.1079-.2266-.0322-.5157-.0176-.5489.2109-.0195.1406.1172.187.1739.3111-.1016.0752-.1719.1298-.2481.2177.0801.0728.1563.1568.1387.2715-.0078.0786-.0899.0845-.1582.1206-.1367-.2441-.3028-.4023-.2637-.6845-.125.0097-.2891.0136-.3047.1372-.0234.1494.0938.2192.1641.3471-.1231.0542-.2031.1153-.3438.0952l-.3086-.0439c.0371-.0835.1211-.1079.1368116-.2046l.0487884-.3613c-.2051-.0098-.3106-.063-.5176-.0913-.1641-.0244-.3711.0283-.3926.1958-.0273.1865.1524116.2466.2676.3965-.0859.0336-.1328.0996-.2266.0849-.1875-.0259-.123-.2939-.2675-.4057-.1953-.1519-.3887-.0445-.6387-.0533.0117-.2314-.0391-.5083-.2656-.54-.6446-.0903-1.0137.1802-1.625.4189-.4532.1783-.8496.1221-1.211.4405ZM11.4804884,15.8447c.3203-.1162.5156-.2866.8593-.2387.2188.0312.1993.3071.3711.4389.2325.1851.4707.1651.6641116.3809-.1582117.1572-.2637116.2685-.4785116.3276.0273-.1938-.0684-.4043-.2617-.4316-.3184-.0445-.168.5508-.4571.6899-.0429-.2485-.0859-.4072-.0506884-.6543.0174884-.1318.1170884-.1982.2186884-.2739-.1094-.0689-.166-.1675-.2988-.186-.1758-.0245-.3887-.0445-.5664-.0528ZM13.8456883,16.6538l.2012.0996c-.2968883.3262-.6387.4668-1.0801.4058l-.1953-.0283c.2754-.3555.6113-.4439,1.0742-.4771ZM14.1757883,22.4756c-.0957-.0152-.0235-.1563-.0274-.2471.0918-.0141.1504-.0332.2481-.0366.0019-.0811.0019-.1353-.0059-.2168.0625.0088.0938-.0234.1543-.0147.3614.0518.5274.2183.8828.3042-.2812.4102-.7675.2793-1.2519.211ZM12.4394884,21.5483c-.1836-.0351-.336-.1103-.3809-.2968.2383-.0376.3652-.0557.6055-.023.3222.0469.4961.1704.7812.3267.2149.1191.5527117.1499.5176.3955-.0195.1504-.2031.1699-.3535.1489l-.3086-.0434c.0371-.0767.082-.1329.1367-.1963-.2637-.2354-.4374883-.4034-.791-.4532-.0606-.0078-.1524.1309-.207.1416ZM14.5448883,11.9287c.334.2354.5117.5029.9258.5147.0449.2592.2676.3178.4395.5034.3125.3408.4941.6445.9531.7085.0781.0112.1269-.0088.207-.0054-.1211-.2969-.4082-.4277-.3632883-.7441.0292883-.1939.2167883-.2569.2421883-.4512.0488117-.3257-.4394-.3037-.7226-.4609-.4024-.2178-.6075-.4805-1.0664-.545-.4141-.0576-.8243-.0083-1.0196.3594.1114117.0425.2813.1113.4043.1206Z" fill="none" fill-rule="evenodd"/>
              </g>
            </g>
          </g>
        </g>
      </g>
    </g>
  </g>
</svg>