<?xml version='1.0' encoding='UTF-8'?>
<svg xmlns="http://www.w3.org/2000/svg" xmlns:xlink="http://www.w3.org/1999/xlink" id="Layer_1" data-name="Layer 1" width="32" height="32" viewBox="0 0 32 32">
  <defs>
    <linearGradient id="New_Gradient_208" data-name="New Gradient 208" x1="10.034055" y1="14.2919282" x2="22.0489994" y2="24.73636" gradientUnits="userSpaceOnUse">
      <stop offset="0" stop-color="#5387ba"/>
      <stop offset="1" stop-color="#96bad6"/>
    </linearGradient>
    <mask id="mask" x="5.4691974" y="14.6128" width="23.1269994" height="14.4175" maskUnits="userSpaceOnUse">
      <polygon points="15.5507972 27.3276 27.751 24.3081 27.7333969 23.7681 18.5087971 14.6128 6.2890974 17.6064 6.3085974 18.1553 15.5507972 27.3276" fill="#fff" fill-rule="evenodd"/>
    </mask>
    <linearGradient id="New_Gradient_208-2" data-name="New Gradient 208" x1="12.3301691" y1="16.8848757" x2="21.7179302" y2="25.0455319" gradientUnits="userSpaceOnUse"><stop offset="0" stop-color="#5387ba"/><stop offset="1" stop-color="#96bad6"/></linearGradient>
    <linearGradient id="New_Gradient_209" data-name="New Gradient 209" x1="9.9897708" y1="18.6401581" x2="24.0761931" y2="27.7879877" gradientUnits="userSpaceOnUse">
      <stop offset="0" stop-color="#b4daea"/>
      <stop offset=".51123" stop-color="#b4daea"/>
      <stop offset=".646072" stop-color="#5387ba"/>
      <stop offset="1" stop-color="#16336e"/>
    </linearGradient>
    <linearGradient id="New_Gradient_210" data-name="New Gradient 210" x1="16.8564471" y1="15.1167" x2="16.8564471" y2="26.4634" gradientUnits="userSpaceOnUse">
      <stop offset="0" stop-color="#b2b2b2"/>
      <stop offset="1" stop-color="#f2f2f2"/>
    </linearGradient>
    <mask id="mask-1" x="5.4691974" y="11.6943" width="23.1269994" height="14.4175" maskUnits="userSpaceOnUse">
      <polygon points="15.5507972 24.4092 27.751 21.3896 27.7333969 20.8491 18.5087971 11.6943 6.2890974 14.687 6.3085974 15.2358 15.5507972 24.4092" fill="#fff" fill-rule="evenodd"/>
    </mask>
    <linearGradient id="New_Gradient_211" data-name="New Gradient 211" x1="12.3297871" y1="13.9660936" x2="21.7178174" y2="22.1269838" gradientUnits="userSpaceOnUse">
      <stop offset="0" stop-color="#6498c1"/>
      <stop offset="1" stop-color="#b4daea"/>
    </linearGradient>
    <linearGradient id="New_Gradient_209-2" data-name="New Gradient 209" x1="9.9896566" y1="15.7213339" x2="24.0760789" y2="24.8691635" gradientUnits="userSpaceOnUse"><stop offset="0" stop-color="#b4daea"/><stop offset=".51123" stop-color="#b4daea"/><stop offset=".646072" stop-color="#5387ba"/><stop offset="1" stop-color="#16336e"/></linearGradient>
    <linearGradient id="New_Gradient_212" data-name="New Gradient 212" x1="4.1334049" y1="14.952414" x2="8.2766432" y2="17.7470634" gradientUnits="userSpaceOnUse">
      <stop offset="0" stop-color="#fff"/>
      <stop offset="1" stop-color="gray"/>
    </linearGradient>
    <linearGradient id="New_Gradient_213" data-name="New Gradient 213" x1="6.1585316" y1="14.1802352" x2="7.3518563" y2="17.2889524" gradientUnits="userSpaceOnUse">
      <stop offset="0" stop-color="#000"/>
      <stop offset="1" stop-color="gray"/>
    </linearGradient>
    <linearGradient id="New_Gradient_214" data-name="New Gradient 214" x1="6.2276788" y1="18.9448216" x2="6.1278533" y2="18.5124299" gradientUnits="userSpaceOnUse">
      <stop offset="0" stop-color="#fff"/>
      <stop offset="1" stop-color="gray"/>
    </linearGradient>
    <linearGradient id="New_Gradient_215" data-name="New Gradient 215" x1="6.7148354" y1="19.6837636" x2="6.1958561" y2="18.820037" gradientUnits="userSpaceOnUse">
      <stop offset="0" stop-color="#000"/>
      <stop offset="1" stop-color="gray"/>
    </linearGradient>
    <linearGradient id="New_Gradient_212-2" data-name="New Gradient 212" x1="5.5885093" y1="16.396802" x2="9.7309458" y2="19.1909107" gradientUnits="userSpaceOnUse"><stop offset="0" stop-color="#fff"/><stop offset="1" stop-color="gray"/></linearGradient>
    <linearGradient id="New_Gradient_213-2" data-name="New Gradient 213" x1="7.6137338" y1="15.6242986" x2="8.8072529" y2="18.7335221" gradientUnits="userSpaceOnUse"><stop offset="0" stop-color="#000"/><stop offset="1" stop-color="gray"/></linearGradient>
    <linearGradient id="New_Gradient_214-2" data-name="New Gradient 214" x1="7.6825723" y1="20.3884601" x2="7.5827748" y2="19.9561896" gradientUnits="userSpaceOnUse"><stop offset="0" stop-color="#fff"/><stop offset="1" stop-color="gray"/></linearGradient>
    <linearGradient id="New_Gradient_215-2" data-name="New Gradient 215" x1="8.1699831" y1="21.127761" x2="7.6514785" y2="20.2648244" gradientUnits="userSpaceOnUse"><stop offset="0" stop-color="#000"/><stop offset="1" stop-color="gray"/></linearGradient>
    <linearGradient id="New_Gradient_212-3" data-name="New Gradient 212" x1="7.0434088" y1="17.8404205" x2="11.1860569" y2="20.6346719" gradientUnits="userSpaceOnUse"><stop offset="0" stop-color="#fff"/><stop offset="1" stop-color="gray"/></linearGradient>
    <linearGradient id="New_Gradient_213-3" data-name="New Gradient 213" x1="9.0689656" y1="17.0680708" x2="10.2623325" y2="20.1768978" gradientUnits="userSpaceOnUse"><stop offset="0" stop-color="#000"/><stop offset="1" stop-color="gray"/></linearGradient>
    <linearGradient id="New_Gradient_214-3" data-name="New Gradient 214" x1="9.1377684" y1="21.8330867" x2="9.0379144" y2="21.4005713" gradientUnits="userSpaceOnUse"><stop offset="0" stop-color="#fff"/><stop offset="1" stop-color="gray"/></linearGradient>
    <linearGradient id="New_Gradient_215-3" data-name="New Gradient 215" x1="9.6253874" y1="22.5722433" x2="9.1061128" y2="21.7080254" gradientUnits="userSpaceOnUse"><stop offset="0" stop-color="#000"/><stop offset="1" stop-color="gray"/></linearGradient>
    <linearGradient id="New_Gradient_212-4" data-name="New Gradient 212" x1="8.4987038" y1="19.2851115" x2="12.6407285" y2="22.0789423" gradientUnits="userSpaceOnUse"><stop offset="0" stop-color="#fff"/><stop offset="1" stop-color="gray"/></linearGradient>
    <linearGradient id="New_Gradient_213-4" data-name="New Gradient 213" x1="10.5241198" y1="18.51257" x2="11.7171291" y2="21.6204654" gradientUnits="userSpaceOnUse"><stop offset="0" stop-color="#000"/><stop offset="1" stop-color="gray"/></linearGradient>
    <linearGradient id="New_Gradient_214-4" data-name="New Gradient 214" x1="10.5930091" y1="23.2765406" x2="10.4931489" y2="22.8439989" gradientUnits="userSpaceOnUse"><stop offset="0" stop-color="#fff"/><stop offset="1" stop-color="gray"/></linearGradient>
    <linearGradient id="New_Gradient_215-4" data-name="New Gradient 215" x1="11.0804336" y1="24.015895" x2="10.5614344" y2="23.1521353" gradientUnits="userSpaceOnUse"><stop offset="0" stop-color="#000"/><stop offset="1" stop-color="gray"/></linearGradient>
    <linearGradient id="New_Gradient_212-5" data-name="New Gradient 212" x1="9.9538502" y1="20.7288983" x2="14.0961929" y2="23.5229437" gradientUnits="userSpaceOnUse"><stop offset="0" stop-color="#fff"/><stop offset="1" stop-color="gray"/></linearGradient>
    <linearGradient id="New_Gradient_213-5" data-name="New Gradient 213" x1="11.9795321" y1="19.9576874" x2="13.1720277" y2="23.0642446" gradientUnits="userSpaceOnUse"><stop offset="0" stop-color="#000"/><stop offset="1" stop-color="gray"/></linearGradient>
    <linearGradient id="New_Gradient_214-5" data-name="New Gradient 214" x1="12.0480138" y1="24.7213288" x2="11.9481713" y2="24.2888636" gradientUnits="userSpaceOnUse"><stop offset="0" stop-color="#fff"/><stop offset="1" stop-color="gray"/></linearGradient>
    <linearGradient id="New_Gradient_215-5" data-name="New Gradient 215" x1="12.5360889" y1="25.4604401" x2="12.0169053" y2="24.5963736" gradientUnits="userSpaceOnUse"><stop offset="0" stop-color="#000"/><stop offset="1" stop-color="gray"/></linearGradient>
    <linearGradient id="New_Gradient_212-6" data-name="New Gradient 212" x1="11.4089157" y1="22.1728488" x2="15.5518128" y2="24.9672681" gradientUnits="userSpaceOnUse"><stop offset="0" stop-color="#fff"/><stop offset="1" stop-color="gray"/></linearGradient>
    <linearGradient id="New_Gradient_213-6" data-name="New Gradient 213" x1="13.4342623" y1="21.4006695" x2="14.6273309" y2="24.5087194" gradientUnits="userSpaceOnUse"><stop offset="0" stop-color="#000"/><stop offset="1" stop-color="gray"/></linearGradient>
    <linearGradient id="New_Gradient_214-6" data-name="New Gradient 214" x1="13.5032301" y1="26.1650615" x2="13.40339" y2="25.7326068" gradientUnits="userSpaceOnUse"><stop offset="0" stop-color="#fff"/><stop offset="1" stop-color="gray"/></linearGradient>
    <linearGradient id="New_Gradient_215-6" data-name="New Gradient 215" x1="13.9910824" y1="26.9044437" x2="13.4716186" y2="26.0399108" gradientUnits="userSpaceOnUse"><stop offset="0" stop-color="#000"/><stop offset="1" stop-color="gray"/></linearGradient>
    <linearGradient id="New_Gradient_216" data-name="New Gradient 216" x1="15.0944211" y1="13.1857605" x2="16.5830957" y2="17.5091855" gradientUnits="userSpaceOnUse">
      <stop offset="0" stop-color="#ccc"/>
      <stop offset="1" stop-color="#f2f2f2"/>
    </linearGradient>
  </defs>
  <path d="M14.7655972,26.5474c-1.435.6333-2.6483999-.0367-2.9769999-1.2486-.7173-.1587-1.2534-.6997-1.4555973-1.4443-.7173027-.1587-1.2529027-.6992-1.4556026-1.4439-.7163-.1591-1.2529-.7002-1.455-1.4438-.7168-.1592-1.2525-.7002-1.4551-1.4443-.9199-.2041-1.543-1.0367-1.543-2.125,0-2.1597,2.2294999-3.7071,3.7558999-3.1729l10.3285997-2.5303,9.2245998,9.1548.0176031.5405-.7915031.1958c-.0889.2447-.1817.5894-.1817.9678,0,.1026.0054.1963.0166.2822l.939.9327.0176031.54-12.2002028,3.0195-.7852-.7802ZM6.751,18.5952c-.0069026.0547-.0113026.1099-.0132026.168.0488-.0093.0986-.0215.147-.0352l-.1337974-.1328ZM5.8886974,18.6074c.0508-.6723.3159-1.2778.7016-1.768v-1.3223l-.1406-.1406c-.6392.4209-1.1689,1.1684-1.1689,2.021,0,.5727.2509.9897.6079,1.2099ZM8.2055974,20.0386c-.0059.0547-.0108.1113-.0122.1679.0488-.0092.0976026-.021.1469-.0351l-.1347-.1328ZM7.3437974,20.0508c.0185-.2505.0673-.4912.1411-.7207-.208.0903-.4102.1543-.6065.1933.1079.23.2705.4087.4654.5274ZM9.6610973,21.4829c-.0068.0552-.0112.1104-.0132.168.0489-.0093.0977-.021.147-.0357l-.1338-.1323ZM8.7987974,21.4956c.0186-.251.0669-.4922.1407-.7212-.2071.0903-.4097.1533-.6054973.1934.1078974.2295.2704974.4082.4647974.5278ZM12.5580973,24.5386c.0493-.0093.0982-.021.1475-.0352l-.1343-.1328c-.0068.0557-.0112.1118-.0132.168ZM11.2436973,23.8555c.1084.2299.2705.4091.4653027.5278.019-.251.0673973-.4912.1410973-.7212-.2075.0903-.4102.1548-.6064.1934ZM11.1156973,22.9268c-.0063.0551-.0112.1103-.0126973.1679.0488973-.0093.0986973-.0205.1474973-.0346l-.1348-.1333ZM10.2533973,22.9395c.0191-.251.0679-.4917.1416027-.7212-.2075027.0898-.4101027.1547-.6064027.1933.1079.2305.271.4092.4648.5279ZM13.3104972,25.1035c-.2094.0923-.414.1572-.6108.1963.2676.5708.8731.8228,1.4609.6475l-.8501-.8438Z" fill="url(#New_Gradient_208)" stroke="#000" stroke-linecap="round" stroke-linejoin="round" stroke-width="2"/>
  <g mask="url(#mask)">
    <g>
      <polygon points="15.5507972 27.3276 27.751 24.3081 27.7333969 23.7681 18.5087971 14.6128 6.2890974 17.6064 6.3085974 18.1553 15.5507972 27.3276" fill="url(#New_Gradient_208-2)" fill-rule="evenodd"/>
      <polygon points="6.2025974 17.5479 15.6020972 26.8755 28.4242969 23.6138 28.5961969 25.5054 15.2133972 29.0303 5.4691974 19.1821 5.5121974 17.3765 6.2025974 17.5479" fill="url(#New_Gradient_209)" fill-rule="evenodd"/>
    </g>
  </g>
  <path d="M27.1225969,21.2183s-.3448.6064-.3448,1.3349c0,.7276.3018.9922.3018.9922l-11.5204997,2.918-8.9687998-8.8989v-2.4478l20.5322995,6.1016Z" fill="url(#New_Gradient_210)" fill-rule="evenodd"/>
  <g mask="url(#mask-1)">
    <g>
      <polygon points="15.5507972 24.4092 27.751 21.3896 27.7333969 20.8491 18.5087971 11.6943 6.2890974 14.687 6.3085974 15.2358 15.5507972 24.4092" fill="url(#New_Gradient_211)" fill-rule="evenodd"/>
      <polygon points="6.2025974 14.6289 15.6020972 23.957 28.4242969 20.6948 28.5961969 22.5864 15.2133972 26.1118 5.4691974 16.2632 5.5121974 14.4575 6.2025974 14.6289" fill="url(#New_Gradient_209-2)" fill-rule="evenodd"/>
    </g>
  </g>
  <g>
    <path d="M8.6112974,14.7446c.4082,0,.7398.2266.7398.5054,0,.2798-.3316.5063-.7398.5063-.4092-.0004-.7407-.2265-.7407-.5068,0-.2783.3315-.5049.7407-.5049Z" fill="#5387ba" stroke="#16336e" stroke-miterlimit="3.8637" stroke-width=".5"/>
    <g>
      <path d="M7.4940974,19.3257c-1.6875.7466-3.0697999-.3067-3.0697999-1.9282,0-2.7598,3.6405999-4.5191,4.8027999-2.2144.0273.186-.2349.457-.8052.3213-.7495-1.2559-3.1410999.081-3.1410999,1.8931,0,1.0376.8227,1.5664,1.6088,1.3286l.6045.5996Z" fill="gray"/>
      <path d="M4.8168975,18.5396c-.0142-.0196-.4556-.6397-.2368-1.858.2256-1.2524,1.7505-2.6049,3.0746999-2.4712.1538.0157.1304.2461-.0239.23-1.1812-.1201-2.6137999,1.1265-2.8217999,2.2813-.0800975.4477-.1020975,1.2617.1968,1.6826.0913.1245-.0977.2603-.189.1353Z" fill="url(#New_Gradient_212)"/>
      <path d="M8.481,15.3203s-.0113026-.0234-.0381026-.06c-.2138974-.292-.6133-.3897-.958-.3897-.8096,0-1.855.7017-2.2358974,1.915-.0464026.1465-.2685026.0772-.2221026-.0703.4062-1.292,1.5302-2.0757,2.4579999-2.0757.4023,0,1.0249.1646,1.2085.586.0639.1406-.1485.2358-.2123974.0947Z" fill="url(#New_Gradient_213)"/>
      <path d="M5.6137974,18.4961s.0234.0283.0693.0684c.3115.268.7349026.3334,1.1362.2534.1529-.0313.1988.1953.0469.2265-.4668.0923-1.1138-.0058-1.4321-.4023-.0987-.1192.082-.2651.1797-.146Z" fill="url(#New_Gradient_214)"/>
      <path d="M5.7772974,19.1289s.022.0147.0655.0332c.3867.1636.9277.0791,1.3047-.0298.1479-.0429.2138.1787.0644.2222-.3725.1079-1.188.2353-1.5678974-.0361-.1274026-.0874.0053974-.2769.1332974-.1895Z" fill="url(#New_Gradient_215)"/>
    </g>
  </g>
  <g>
    <path d="M10.0663973,16.1885c.4087,0,.7402.227.7402.5053,0,.2803-.3315.5069-.7402.5069-.4097,0-.7407-.2266-.7407-.5069,0-.2783.331-.5053.7407-.5053Z" fill="#5387ba" stroke="#16336e" stroke-miterlimit="3.8637" stroke-width=".5"/>
    <g>
      <path d="M8.9491973,20.77c-1.687.7456-3.0697999-.3071-3.0697999-1.9282,0-2.7598,3.6410999-4.52,4.8026999-2.2144.0269027.1856-.2343.4571-.8050973.3213-.7496027-1.2558-3.1412026.0811-3.1412026,1.8931,0,1.0371.8228,1.5659,1.6094,1.3281l.604.6001Z" fill="gray"/>
      <path d="M6.272,19.9839c-.0137026-.02-.4566026-.6406-.2364026-1.8584.2247-1.2525,1.7505-2.6045,3.0732999-2.4707.1553.0156.1313.2456-.0235.2295-1.1811-.1192-2.6131999,1.1264-2.8211999,2.2817-.0801.4478-.1021,1.2617.1972,1.6821.0908.1246-.0986.2598-.1893974.1358Z" fill="url(#New_Gradient_212-2)"/>
      <path d="M9.936,16.7646s-.0117027-.0234-.0381027-.0605c-.2138-.292-.6132-.3892-.958-.3892-.809,0-1.8545.7012-2.2357999,1.9146-.0459.147-.2686.0771-.2222-.0698.4058-1.2925,1.5308-2.0762,2.4579999-2.0762.4024,0,1.0254.1645,1.209.5864.0635.1406-.1488973.2354-.2128973.0947Z" fill="url(#New_Gradient_213-2)"/>
      <path d="M7.0692974,19.9404s.023.0279.0684.0679c.312.2686.7358.3335,1.1372.2534.1523-.0307.1982.1958.0464.2261-.4652974.0937-1.1128-.0054-1.4326-.4014-.0976974-.1196.0825-.2656.1806-.146Z" fill="url(#New_Gradient_214-2)"/>
      <path d="M7.2323974,20.5732s.022.0142.0659.0332c.3863.1636.9278.0787,1.3038-.0302.1489026-.043.2138.1792.0649026.2226-.3726026.107-1.1885026.2349-1.5679026-.0366-.1269-.0869.0049026-.2768.1333-.189Z" fill="url(#New_Gradient_215-2)"/>
    </g>
  </g>
  <g>
    <path d="M11.5214973,17.6323c.4087,0,.7407.2266.7407.5059s-.332.5063-.7407.5063c-.4092,0-.7402-.227-.7402-.5063s.331-.5059.7402-.5059Z" fill="#5387ba" stroke="#16336e" stroke-miterlimit="3.8637" stroke-width=".5"/>
    <g>
      <path d="M10.4047973,22.2139c-1.688.7465-3.0702999-.3067-3.0702999-1.9283,0-2.7597,3.6415999-4.5195,4.8016999-2.2143.0284.186-.2334.457-.8037.3208-.75-1.2549-3.1415999.082-3.1415999,1.8935,0,1.0376.8228,1.5665,1.6094,1.3291l.6045.5992Z" fill="gray"/>
      <path d="M7.7274974,21.4272c-.0146-.0195-.4554974-.6391-.2368-1.8574.2251-1.2534,1.75-2.6054,3.0737999-2.4707.1543.0156.1303.2451-.023.229-1.1821-.1196-2.6137999,1.1265-2.8217999,2.2818-.0805.4477-.1025,1.2617.1963026,1.6826.0907974.1245-.0976026.2597-.1885026.1347Z" fill="url(#New_Gradient_212-3)"/>
      <path d="M11.3915973,18.2085s-.0122-.0239-.0381-.0606c-.2143-.291-.6138-.3886-.958-.3886-.8101,0-1.855.7011-2.2362999,1.914-.0459.147-.2686.0772-.2211974-.0698.4057974-1.292,1.5297973-2.0762,2.4574973-2.0762.4019,0,1.0249.1646,1.2085027.587.0634973.1401-.1484027.2348-.2124027.0942Z" fill="url(#New_Gradient_213-3)"/>
      <path d="M8.5243974,21.3843s.023.0278.0694.0678c.311.2686.7348.334,1.1362026.2535.1522973-.0303.1981973.1963.0463973.227-.4659.0923-1.1138-.0058-1.4322-.4018-.0986-.1192.0821-.2657.1802-.1465Z" fill="url(#New_Gradient_214-3)"/>
      <path d="M8.688,22.0171s.0214974.0142.0653974.0332c.3862.1636.9268.0791,1.3042-.0298.1489-.0425.2134027.1792.0654027.2222-.373.1079-1.1889027.2358-1.5688026-.0362-.127-.0878.0059-.2773.1338026-.1894Z" fill="url(#New_Gradient_215-3)"/>
    </g>
  </g>
  <g>
    <path d="M12.9770972,19.0762c.4082,0,.7397.2275.7397.5053,0,.2803-.3315.5069-.7397.5069-.4102,0-.7403-.2266-.7403-.5069,0-.2778.3301-.5053.7403-.5053Z" fill="#5387ba" stroke="#16336e" stroke-miterlimit="3.8637" stroke-width=".5"/>
    <g>
      <path d="M11.8598973,23.6577c-1.6875.7461-3.0702999-.3066-3.0702999-1.9282,0-2.7593,3.6410999-4.5191,4.8021999-2.2144.0278.1861-.2339.458-.8042.3213-.7495-1.2549-3.1405973.0811-3.1405973,1.8931,0,1.0376.8217973,1.5664,1.6078973,1.3286l.605.5996Z" fill="gray"/>
      <path d="M9.1820973,22.8721c-.0140973-.02-.456-.6402-.2363-1.8584.2251-1.2525,1.7505-2.6045,3.0736999-2.4702.1543.0146.1309.2451-.0234.2294-1.1816-.1201-2.6132999,1.1255-2.8212999,2.2808-.0806.4478-.102,1.2617.1963,1.6826.0908.1245-.0977.2603-.189.1358Z" fill="url(#New_Gradient_212-4)"/>
      <path d="M12.8461973,19.6523s-.0117-.0234-.0381-.0605c-.2134-.2915-.6123-.3892-.958-.3892-.8090973,0-1.8545.7032-2.2357999,1.9146-.0459.1474-.2681.0776-.2222-.0698.4067-1.292,1.5312-2.0757,2.4579999-2.0757.4023,0,1.0254.1645,1.209.5864.0639028.1406-.1489.2354-.2129.0942Z" fill="url(#New_Gradient_213-4)"/>
      <path d="M9.979,22.8281s.0238973.0288.0688973.0679c.312.2695.7358.334,1.1372.2539.1528-.0312.1982.1953.0459027.2266-.4659027.0927-1.1128027-.0054-1.4317027-.4024-.0981-.1191.082-.2651.1797027-.146Z" fill="url(#New_Gradient_214-4)"/>
      <path d="M10.1430973,23.4614s.0215.0142.0654.0327c.3857.1636.9272.0787,1.3037-.0297.1489-.043.2144.1792.0659.2221-.373.1074-1.1889.2359-1.5683-.0361-.1275-.0874.0053-.2764.1333-.189Z" fill="url(#New_Gradient_215-4)"/>
    </g>
  </g>
  <g>
    <path d="M14.4320972,20.521c.4082,0,.7398.2266.7398.5049,0,.2803-.3316.5068-.7398.5068-.4096,0-.7407-.2265-.7407-.5068,0-.2783.3311-.5049.7407-.5049Z" fill="#5387ba" stroke="#16336e" stroke-miterlimit="3.8637" stroke-width=".5"/>
    <g>
      <path d="M13.3148972,25.1016c-1.6875.7465-3.0702999-.3067-3.0702999-1.9278,0-2.7597,3.6415999-4.5195,4.8027999-2.2143.0273.1855-.2343972.4575-.8047.3213-.7495-1.2559-3.1415999.081-3.1415999,1.893,0,1.0376.8232,1.5659,1.6093,1.3286l.6045.5992Z" fill="gray"/>
      <path d="M10.6376973,24.3159c-.0142-.02-.4561-.6401-.2368-1.8584.2251027-1.2529,1.751-2.6045,3.0741999-2.4697.1543.0146.1309028.2446-.0239.229-1.1811972-.1196-2.6132999,1.1265-2.8212999,2.2812-.0806.4478-.1021,1.2623.1968,1.6827.0903027.1245-.0982.2597-.189.1352Z" fill="url(#New_Gradient_212-5)"/>
      <path d="M14.3017972,21.0962s-.0117972-.023-.0381-.0596c-.2134-.292-.6128-.3896-.9585-.3896-.8086,0-1.855.7021-2.2358999,1.9145-.0464.147-.268.0772-.2221-.0698.4067-1.293,1.5312-2.0752,2.4579999-2.0752.4028028,0,1.0254.1636,1.209.5859.0634.1402-.1485.2349-.2124.0938Z" fill="url(#New_Gradient_213-5)"/>
      <path d="M11.4345973,24.2725s.0234027.0278.0688.0678c.3115.2691.7354.334,1.1367.253.1524-.0303.1983.1967.0464.2275-.4658.0928-1.1137-.0059-1.4321-.4019-.0986-.1191.0825-.2651.1802-.1464Z" fill="url(#New_Gradient_214-5)"/>
      <path d="M11.5980973,24.9053s.0215.0141.0655.0337c.3867.1626.9272.0781,1.3037-.0308.1494-.043.2148.1792.0659.2231-.373.1065-1.189.2349-1.5679-.0361-.1274-.0879.0049-.2773.1328-.1899Z" fill="url(#New_Gradient_215-5)"/>
    </g>
  </g>
  <g>
    <path d="M15.8866972,21.9644c.4087,0,.7407.2265.7407.5053,0,.2798-.332.5064-.7407.5064-.4092,0-.7396972-.2266-.7396972-.5064,0-.2788.3304972-.5053.7396972-.5053Z" fill="#5387ba" stroke="#16336e" stroke-miterlimit="3.8637" stroke-width=".5"/>
    <g>
      <path d="M14.77,26.5459c-1.6875028.7466-3.0703027-.3071-3.0703027-1.9282,0-2.7598,3.6410999-4.5196,4.8026999-2.2139.0274.1856-.2348.457-.8046.3208-.7496-1.2549-3.1415999.0816-3.1415999,1.8931,0,1.0376.8227,1.5664,1.6093,1.3286l.6045028.5996Z" fill="gray"/>
      <path d="M12.0922973,25.7598c-.0137-.0201-.4556-.6397-.2362973-1.8579.2254973-1.253,1.7508972-2.6055,3.0741972-2.4707.1543.0156.1303.246-.0239.2294-1.1812-.1196-2.6137999,1.126-2.8208999,2.2813-.081.4477-.103,1.2622.1963,1.6826.0913027.1245-.0981.2598-.1894.1353Z" fill="url(#New_Gradient_212-6)"/>
      <path d="M15.7562972,22.5405s-.0117-.0239-.0375-.0595c-.2139-.293-.6127972-.3897-.9585-.3897-.8091,0-1.855.7022-2.2353999,1.9141-.0468973.1469-.2686.0771-.2222-.0699.4058-1.2919,1.5303027-2.0756,2.4575999-2.0756.4023,0,1.0258.164,1.2089.5869.064.1396-.1489.2344-.2129.0937Z" fill="url(#New_Gradient_213-6)"/>
      <path d="M12.8900972,25.7163s.023.0278.0679028.0679c.3124972.269.7362972.3345,1.1376972.2539.1523028-.0313.1978.1958.0459.2265-.4653.0928-1.1133-.0053-1.4321-.4018-.0982-.1191.082-.2656.1806-.1465Z" fill="url(#New_Gradient_214-6)"/>
      <path d="M13.0531972,26.3491s.0215.0147.0659.0332c.3858.1636.9268.0786,1.3033-.0293.1494-.0434.2143.1787.0664.2222-.3736.1069-1.1895.2349-1.5684-.0366-.1279-.0874.0054-.2774.1328-.1895Z" fill="url(#New_Gradient_215-6)"/>
    </g>
  </g>
  <polygon points="19.7807971 15.7964 17.5165971 13.5093 11.8964973 14.8979 14.2025972 17.1865 19.7807971 15.7964" fill="url(#New_Gradient_216)" fill-rule="evenodd" stroke="#5387ba" stroke-linecap="round" stroke-linejoin="round"/>
</svg>