<?xml version='1.0' encoding='UTF-8'?>
<svg xmlns="http://www.w3.org/2000/svg" xmlns:xlink="http://www.w3.org/1999/xlink" id="Layer_1" data-name="Layer 1" width="32" height="32" viewBox="0 0 32 32">
  <defs>
    <linearGradient id="New_Gradient_371" data-name="New Gradient 371" x1="5.7939" y1="17.8089939" x2="25.7852405" y2="17.8089939" gradientUnits="userSpaceOnUse">
      <stop offset="0" stop-color="#999"/>
      <stop offset=".20224" stop-color="#f2f2f2"/>
      <stop offset=".516861" stop-color="#b2b2b2"/>
      <stop offset=".769669" stop-color="#b2b2b2"/>
      <stop offset="1" stop-color="#737373"/>
    </linearGradient>
    <linearGradient id="New_Gradient_371-2" data-name="New Gradient 371" x1="5.7363" y1="16.5942487" x2="20.4487" y2="16.5942487" gradientUnits="userSpaceOnUse"><stop offset="0" stop-color="#999"/><stop offset=".20224" stop-color="#f2f2f2"/><stop offset=".516861" stop-color="#b2b2b2"/><stop offset=".769669" stop-color="#b2b2b2"/><stop offset="1" stop-color="#737373"/></linearGradient>
    <mask id="mask" x="5.6011" y="7.8711" width="14.8476" height="11.6587" maskUnits="userSpaceOnUse">
      <path d="M13.1216,8.1709c4.0459-.0005,7.3271,2.1245,7.3271,4.7466,0,2.6235-3.2807,4.7495-7.3271,4.7495-4.0479,0-7.3277-2.126-7.3277-4.7495,0-2.6221,3.2798-4.7466,7.3277-4.7466Z" fill="#fff"/>
    </mask>
    <linearGradient id="New_Gradient_372" data-name="New Gradient 372" x1="5.7939" y1="12.91895" x2="20.4487" y2="12.91895" gradientUnits="userSpaceOnUse">
      <stop offset="0" stop-color="#999"/>
      <stop offset=".219101" stop-color="#b2b2b2"/>
      <stop offset=".466293" stop-color="#b2b2b2"/>
      <stop offset=".769669" stop-color="#f2f2f2"/>
      <stop offset="1" stop-color="#737373"/>
    </linearGradient>
    <mask id="mask-1" x="6.0493" y="9.0488" width="14.1445" height="10.481" maskUnits="userSpaceOnUse">
      <path d="M13.1216,9.5273c3.6421,0,6.5937,1.9126,6.5937,4.2735,0,2.3598-2.9516,4.2734-6.5937,4.2734-3.6416,0-6.5938-1.9131-6.5938-4.2734,0-2.3609,2.9522-4.2735,6.5938-4.2735Z" fill="#fff" stroke="#fff" stroke-miterlimit="3.8637" stroke-width=".957"/>
    </mask>
    <linearGradient id="New_Gradient_373" data-name="New Gradient 373" x1="6.5278" y1="13.80075" x2="19.7153" y2="13.80075" gradientUnits="userSpaceOnUse">
      <stop offset="0" stop-color="#5587c0"/>
      <stop offset=".20787" stop-color="#97bae0"/>
      <stop offset=".865173" stop-color="#b3e0ff"/>
      <stop offset="1" stop-color="#5587c0"/>
    </linearGradient>
    <radialGradient id="New_Gradient_374" data-name="New Gradient 374" cx="5.5120047" cy="19.1477795" fx="5.5120047" fy="19.1477795" r="12.0437487" gradientTransform="translate(4.341075 -5.8379243) scale(.8757)" gradientUnits="userSpaceOnUse">
      <stop offset="0" stop-color="#78dcff"/>
      <stop offset="1" stop-color="#b7e9ff"/>
    </radialGradient>
    <linearGradient id="linear-gradient" x1="8.5226541" y1="8.3193215" x2="17.3038442" y2="17.1005115" gradientUnits="userSpaceOnUse">
      <stop offset="0" stop-color="gray"/>
      <stop offset=".187809" stop-color="#82868b"/>
      <stop offset=".5233754" stop-color="#8a99aa"/>
      <stop offset=".9651405" stop-color="#95b7db"/>
      <stop offset="1" stop-color="#97bae0"/>
    </linearGradient>
    <linearGradient id="New_Gradient_375" data-name="New Gradient 375" x1="8.7306325" y1="8.527523" x2="17.5119658" y2="17.3088563" gradientUnits="userSpaceOnUse">
      <stop offset="0" stop-color="gray"/>
      <stop offset="1" stop-color="#fff"/>
    </linearGradient>
    <mask id="mask-2" x="6.5278" y="10.4943245" width="13.1875" height="9.0354755" maskUnits="userSpaceOnUse">
      <path d="M10.9502,10.5215c1.2417-.1543,2.3276.3642,2.4243,1.1562.0977.7911-.8315,1.5577-2.0742,1.71-1.2432.1533-2.3286-.3657-2.4243-1.1558-.0967-.792.8315-1.559,2.0742-1.7104Z" fill="#fff"/>
    </mask>
    <linearGradient id="New_Gradient_376" data-name="New Gradient 376" x1="21.0220761" y1="17.7655485" x2="16.1268481" y2="22.6607765" gradientUnits="userSpaceOnUse">
      <stop offset="0" stop-color="#4c4c4c"/>
      <stop offset=".623596" stop-color="#d9d9d9"/>
      <stop offset="1" stop-color="#4c4c4c"/>
    </linearGradient>
    <mask id="mask-3" x="17.6598893" y="19.2961606" width="8.3400607" height="8.3556894" maskUnits="userSpaceOnUse">
      <path d="M21.5039,19.9912l3.5879,3.5991c2.102,2.1089-1.0493,5.2691-3.1509,3.1617l-3.5879-3.5992c-2.1015-2.1084,1.0503-5.269,3.1509-3.1616Z" fill="#fff"/>
    </mask>
    <linearGradient id="New_Gradient_377" data-name="New Gradient 377" x1="25.1036001" y1="19.9907499" x2="18.3412345" y2="26.7531156" gradientUnits="userSpaceOnUse">
      <stop offset="0" stop-color="#a70000"/>
      <stop offset=".662918" stop-color="#df4e15"/>
      <stop offset="1" stop-color="#740000"/>
    </linearGradient>
    <linearGradient id="New_Gradient_146" data-name="New Gradient 146" x1="22.3820392" y1="23.3238424" x2="24.7261134" y2="27.0751453" gradientUnits="userSpaceOnUse">
      <stop offset="0" stop-color="#df4e15"/>
      <stop offset="1" stop-color="#c42e00"/>
    </linearGradient>
    <linearGradient id="New_Gradient_378" data-name="New Gradient 378" x1="22.3820392" y1="23.3238424" x2="24.7261134" y2="27.0751453" gradientUnits="userSpaceOnUse">
      <stop offset="0" stop-color="#df4e15"/>
      <stop offset="1" stop-color="#c42e00"/>
    </linearGradient>
  </defs>
  <path d="M18.7886,18.5317l.7954.7979c.6279-.1133,1.3179.0566,1.9199.6616l3.5879,3.5991c2.102,2.1089-1.0493,5.2691-3.1509,3.1617l-3.5879-3.5992c-.6045-.6049-.7739-1.2964-.6601-1.9262l-1.4136-1.418c-.9556.2969-2.0278.4624-3.1577.4624-4.0479,0-7.3277-2.1255-7.3277-4.7485,0-1.9009.0005-2.5425.0005-2.5425l-.0005-.0625c0-2.6221,3.2798-4.7466,7.3277-4.7466,4.0459-.0005,7.3271,2.1245,7.3271,4.7466v2.605c0,1.1435-.623,2.1904-1.6601,3.0092Z" fill="url(#New_Gradient_371)" stroke="#000" stroke-miterlimit="3.8637" stroke-width="1.9141"/>
  <path d="M5.7939,15.5225c0-1.9009-.0576-2.5425-.0576-2.5425l14.7124-.0625s0-.0166,0,2.605c0,2.6225-3.2807,4.7485-7.3271,4.7485-4.0479,0-7.3277-2.1255-7.3277-4.7485Z" fill="url(#New_Gradient_371-2)" fill-rule="evenodd"/>
  <g mask="url(#mask)">
    <g>
      <path d="M13.1216,8.1709c4.0459-.0005,7.3271,2.1245,7.3271,4.7466,0,2.6235-3.2807,4.7495-7.3271,4.7495-4.0479,0-7.3277-2.126-7.3277-4.7495,0-2.6221,3.2798-4.7466,7.3277-4.7466Z" fill="url(#New_Gradient_372)"/>
      <g mask="url(#mask-1)">
        <g>
          <path d="M13.1216,9.5273c3.6421,0,6.5937,1.9126,6.5937,4.2735,0,2.3598-2.9516,4.2734-6.5937,4.2734-3.6416,0-6.5938-1.9131-6.5938-4.2734,0-2.3609,2.9522-4.2735,6.5938-4.2735Z" fill="url(#New_Gradient_373)"/>
          <path d="M13.1216,10.9834c3.6421,0,6.5937,1.9131,6.5937,4.2725,0,2.3608-2.9516,4.2739-6.5937,4.2739-3.6416,0-6.5938-1.9131-6.5938-4.2735,0-2.3598,2.9522-4.2729,6.5938-4.2729Z" fill="url(#New_Gradient_374)"/>
          <path d="M13.1216,9.5273c3.6421,0,6.5937,1.9126,6.5937,4.2735,0,2.3598-2.9516,4.2734-6.5937,4.2734-3.6416,0-6.5938-1.9131-6.5938-4.2734,0-2.3609,2.9522-4.2735,6.5938-4.2735Z" fill="none" stroke="#69c" stroke-miterlimit="3.8637" stroke-width=".957"/>
        </g>
      </g>
      <path d="M12.9136,7.8711c3.916,0,7.3115,2.0679,7.3115,4.8384,0,2.7719-3.3955,4.8379-7.3115,4.8379s-7.3125-2.066-7.3125-4.8365c0-2.7719,3.3965-4.8398,7.3125-4.8398ZM12.9136,8.4307c-3.8535,0-6.7549,2.0141-6.7549,4.2802,0,2.2632,2.9014,4.2769,6.7549,4.2769,3.853,0,6.7553-2.0137,6.7553-4.2783,0-2.2647-2.9023-4.2788-6.7553-4.2788Z" fill="url(#linear-gradient)"/>
    </g>
  </g>
  <path d="M13.1216,8.0806c3.9155,0,7.312,2.0669,7.312,4.8369,0,2.7715-3.3965,4.8393-7.312,4.8393-3.9165,0-7.3125-2.0678-7.3125-4.8393,0-2.77,3.396-4.8369,7.3125-4.8369ZM13.1216,8.6396c-3.8535,0-6.7549,2.0142-6.7549,4.2779,0,2.2651,2.9014,4.2798,6.7549,4.2798,3.8525,0,6.7549-2.0147,6.7549-4.2798,0-2.2637-2.9024-4.2779-6.7549-4.2779Z" fill="url(#New_Gradient_375)"/>
  <g mask="url(#mask-2)">
    <g>
      <path d="M10.9502,10.5215c1.2417-.1543,2.3276.3642,2.4243,1.1562.0977.7911-.8315,1.5577-2.0742,1.71-1.2432.1533-2.3286-.3657-2.4243-1.1558-.0967-.792.8315-1.559,2.0742-1.7104Z" fill="#b3e0ff"/>
      <path d="M13.1216,10.9834c3.6421,0,6.5937,1.9131,6.5937,4.2725,0,2.3608-2.9516,4.2739-6.5937,4.2739-3.6416,0-6.5938-1.9131-6.5938-4.2735,0-2.3598,2.9522-4.2729,6.5938-4.2729Z" fill="#fff"/>
    </g>
  </g>
  <path d="M18.0273,17.7676l2.9854,2.9941c1.2607,1.2656-.6314,3.1621-1.8916,1.8965l-2.9854-2.9941c-1.2597-1.2642.6314-3.1617,1.8916-1.8965Z" fill="url(#New_Gradient_376)"/>
  <g mask="url(#mask-3)">
    <g>
      <path d="M21.5039,19.9912l3.5879,3.5991c2.102,2.1089-1.0493,5.2691-3.1509,3.1617l-3.5879-3.5992c-2.1015-2.1084,1.0503-5.269,3.1509-3.1616Z" fill="url(#New_Gradient_377)"/>
      <path d="M23.5547,22.9858c1.2182,0,2.206.9917,2.206,2.2134,0,1.2227-.9878,2.2134-2.206,2.2134-1.2193,0-2.2075-.9907-2.2075-2.2134,0-1.2217.9887-2.2134,2.2075-2.2134Z" fill="url(#New_Gradient_146)" stroke="#a70000" stroke-miterlimit="3.8637" stroke-width=".4785"/>
      <path d="M23.5547,22.9858c1.2182,0,2.206.9917,2.206,2.2134,0,1.2227-.9878,2.2134-2.206,2.2134-1.2193,0-2.2075-.9907-2.2075-2.2134,0-1.2217.9887-2.2134,2.2075-2.2134Z" fill="url(#New_Gradient_378)"/>
      <line x1="18.542" y1="20.5918" x2="21.4214" y2="23.4805" fill="none" stroke="#ff7845" stroke-linecap="round" stroke-miterlimit="3.8637" stroke-width="1.4356"/>
    </g>
  </g>
</svg>