<?xml version="1.0" encoding="UTF-8"?>
<svg id="Layer_1" data-name="Layer 1" xmlns="http://www.w3.org/2000/svg" width="48" height="48" xmlns:xlink="http://www.w3.org/1999/xlink" viewBox="0 0 48 48">
  <defs>
    <linearGradient id="New_Gradient_470" data-name="New Gradient 470" x1="8.4240934" y1="43.8799152" x2="32.9995692" y2="23.2586425" gradientUnits="userSpaceOnUse">
      <stop offset="0" stop-color="#b2b2b2"/>
      <stop offset=".168533" stop-color="#e5e5e5"/>
      <stop offset=".230331" stop-color="#fff"/>
      <stop offset=".280899" stop-color="#e5e5e5"/>
      <stop offset="1" stop-color="#ccc"/>
    </linearGradient>
    <linearGradient id="New_Gradient_469" data-name="New Gradient 469" x1="9.8001466" y1="40.8593263" x2="28.3650386" y2="22.2944343" gradientUnits="userSpaceOnUse">
      <stop offset="0" stop-color="#b2b2b2"/>
      <stop offset=".168533" stop-color="#e5e5e5"/>
      <stop offset=".230331" stop-color="#fff"/>
      <stop offset=".280899" stop-color="#e5e5e5"/>
      <stop offset="1" stop-color="#ccc"/>
    </linearGradient>
    <linearGradient id="New_Gradient_468" data-name="New Gradient 468" x1="18.2542888" y1="30.6916583" x2="34.556276" y2="46.9936455" gradientUnits="userSpaceOnUse">
      <stop offset="0" stop-color="#ccc"/>
      <stop offset="1" stop-color="#fff"/>
    </linearGradient>
    <linearGradient id="New_Gradient_467" data-name="New Gradient 467" x1="30.445343" y1="47.8303495" x2="22.3817299" y2="29.7191778" gradientUnits="userSpaceOnUse">
      <stop offset="0" stop-color="#b2b2b2"/>
      <stop offset=".5" stop-color="#e5e5e5"/>
      <stop offset="1" stop-color="#fff"/>
    </linearGradient>
    <linearGradient id="New_Gradient_466" data-name="New Gradient 466" x1="32.9775096" y1="37.8168576" x2="33.7796544" y2="40.0207323" gradientUnits="userSpaceOnUse">
      <stop offset="0" stop-color="#005e00"/>
      <stop offset="1" stop-color="#23a11f"/>
    </linearGradient>
    <linearGradient id="New_Gradient_465" data-name="New Gradient 465" x1="5.3652799" y1="42.4069273" x2="15.6349228" y2="32.1372844" gradientUnits="userSpaceOnUse">
      <stop offset="0" stop-color="#e5e5e5"/>
      <stop offset="1" stop-color="#ccc"/>
    </linearGradient>
    <linearGradient id="New_Gradient_464" data-name="New Gradient 464" x1="22.9745272" y1="32.9475799" x2="33.1689155" y2="22.7531916" gradientUnits="userSpaceOnUse">
      <stop offset="0" stop-color="#d9d9d9"/>
      <stop offset="1" stop-color="#f2f2f2"/>
    </linearGradient>
    <linearGradient id="New_Gradient_463" data-name="New Gradient 463" x1="28.915492" y1="5.1211156" x2="28.915492" y2="22.0308152" gradientUnits="userSpaceOnUse">
      <stop offset="0" stop-color="#333"/>
      <stop offset="1" stop-color="#4c4c4c"/>
    </linearGradient>
  </defs>
  <g>
    <path d="M16.5165923,45.2485146l-11.3446997-11.2001997c-.1084-.1289-.1718926-.2993149-.1718926-.5063149v-6.0868849c0-.5283.4286926-1.0645.9560926-1.1973l18.7840995-4.6508999c.3203-.0805.6045.0074.7793.2060848l11.0439997,10.897c.1308.163.1904.3286149.1904.5234149v6.1732998c0,.5288-.4287,1.0645-.958,1.1972852l-18.5116995,4.8364146c-.3125.0791-.5908-.0019-.7676-.1919Z" fill="url(#New_Gradient_470)" stroke="#000" stroke-miterlimit="3.8637" stroke-width="2"/>
    <path d="M16.2440923,44.9766146l-11.0721997-10.9282997c-.1084-.1289-.1718926-.2993149-.1718926-.5063149v-6.0868849c0-.5283.4286926-1.0645.9560926-1.1973l18.7840995-4.6508999c.3203-.0805.6045.0074.7793.2060848l11.0761997,10.9341149-20.3515995,12.2294997Z" fill="url(#New_Gradient_469)" fill-rule="evenodd"/>
    <path d="M17.0136923,37.1675148l18.7821995-4.6523999c.5293-.1323.958.1895.958.7183v6.0873998c0,.5278-.4287,1.064-.958,1.1963l-18.7821995,4.6503999c-.5293.1333-.958-.1875146-.958-.7154v-6.0882998c0-.5284.4287-1.065.958-1.1963Z" fill="url(#New_Gradient_468)" fill-rule="evenodd"/>
    <path d="M35.249,32.2534149c.917-.2466,1.503.2129,1.503,1.1763v5.7831999c0,.6909-.5245082,1.3218-1.1661082,1.4824l-17.9872995,4.5888999c-.4863.1211-1.5009.1269-1.5009-1.0523v-5.9081999c0-.6899.5263077-1.3213,1.1679-1.4814l17.9834077-4.5888999ZM16.957,44.4829146c.0527923.0029.1493923,0,.3085923-.0391l17.9864077-4.5882999c.3631918-.0904.6512918-.4785148.6512918-.792v-5.7836999c0-.1333.002-.1885-.0127-.2329-.0585918-.0034-.1552.0058-.3008.0459l-17.9911995,4.5892999c-.3642.0918-.6513.4781-.6513.7915v5.9081999l.0097077.1011Z" fill="url(#New_Gradient_467)"/>
    <path d="M32.585,38.3403148l1.5868919-.3696c1.0176-.2363,1.0176,1.2905,0,1.5269l-1.5868919.3681c-1.0176081.2364-1.0176081-1.2895,0-1.5254Z" fill="url(#New_Gradient_466)"/>
    <line x1="32.5243919" y1="38.9858148" x2="34.0468919" y2="38.6279148" fill="none" stroke="#7eff81" stroke-linecap="round" stroke-miterlimit="3.8637" stroke-width=".7042"/>
    <path d="M5.7353926,33.6675149l9.5291998,9.1141998-.0478-3.0204999c-1.6455.7817852-9.4813998-7.9984998-9.4813998-7.9984998v1.9048Z" fill="url(#New_Gradient_465)" fill-rule="evenodd"/>
    <path d="M24.9081921,22.4512152l9.5819998,9.1776998-9.8094998,2.6606999c10.3260997-6.4194998-1.9853999-11.2597997-1.9853999-11.2597997l2.2128999-.5786Z" fill="url(#New_Gradient_464)" fill-rule="evenodd"/>
  </g>
  <g>
    <polygon points="39.2675917 12.7974154 40.6093917 12.439 41.749 13.5781154 41.749 15.2773154 43.0888916 14.9199154 44.2274916 16.0581154 44.2274916 18.4189153 43.6454916 17.8354153 43.6454916 19.4316153 44.1464916 18.8169153 45.5858916 20.0156153 43.6063916 20.8154152 43.0692916 20.2793153 26.829092 24.3691151 24.9726921 22.5137152 24.9726921 25.8916151 22.458 26.4907151 20.8524922 24.8765151 23.0106921 24.3408151 23.0106921 20.5508152 22.4345922 19.9746153 22.4345922 23.3506152 19.9198922 23.9517152 18.3124923 22.3369152 20.4716922 21.8018152 20.4716922 18.0122153 19.8925922 17.4341153 19.8925922 20.8115152 17.3798923 21.4121152 15.7733923 19.7974153 17.9306923 19.2627153 17.9306923 15.4717154 17.3534923 14.895 17.3534923 18.2715153 14.8397923 18.8716153 13.2323924 17.2568153 15.3915923 16.7236153 15.3915923 12.9321154 14.8144924 12.3545155 14.8144924 15.7324154 12.2997924 16.3315154 10.6933925 14.7178154 12.8515924 14.1826154 12.8515924 10.0312155 14.1854924 9.7246155 14.1854924 9.3867155 30.9677919 5.1211156 31.3378919 5.4893156 33.1688919 5 34.3085919 6.1396156 34.3085919 7.8379156 35.6493918 7.4805156 36.7880918 8.6196155 36.7880918 10.3174155 38.1298918 9.9595155 39.2675917 11.0986155 39.2675917 12.7974154" fill="#ecb300" stroke="#000" stroke-linecap="round" stroke-linejoin="round" stroke-width="2"/>
    <polygon points="43.0087916 20.2168153 43.6063916 20.8154152 45.5858916 20.0156153 44.1464916 18.8169153 43.0087916 20.2168153" fill="#ecb300" fill-rule="evenodd"/>
    <polygon points="14.1854924 11.7246155 26.829092 24.3691151 43.6454916 20.1357153 43.6454916 17.7979153 14.1854924 9.3867155 14.1854924 11.7246155" fill="#666" fill-rule="evenodd"/>
    <polygon points="14.1854924 9.3867155 26.829092 22.0308152 43.6454916 17.7979153 30.9677919 5.1211156 14.1854924 9.3867155" fill="url(#New_Gradient_463)" fill-rule="evenodd"/>
    <polyline points="14.5136924 9.6382155 26.867192 21.9126152 43.127 17.8574153" fill="none" stroke="#999" stroke-linecap="round" stroke-miterlimit="3.8637" stroke-width=".75"/>
    <g>
      <polygon points="17.9315923 10.7998155 14.8144924 11.5659155 14.8144924 15.7324154 12.2997924 16.3315154 10.6933925 14.7178154 12.8515924 14.1826154 12.8515924 10.0312155 16.373 9.2187155 17.9315923 10.7998155" fill="#ecb300"/>
      <polyline points="11.332 14.9585154 12.3124924 15.938 14.4325924 15.377 14.4325924 11.2187155 17.1522923 10.5596155" fill="none" stroke="#c96b00" stroke-linecap="round" stroke-miterlimit="3.8637"/>
    </g>
    <g>
      <polygon points="20.4716922 13.3394154 17.3534923 14.1064154 17.3534923 18.2725153 14.8397923 18.8716153 13.2323924 17.2568153 15.3915923 16.7236153 15.3915923 12.5723154 18.9120922 11.7588155 20.4716922 13.3394154" fill="#ecb300"/>
      <polyline points="13.8720924 17.4971153 14.8524923 18.478 16.9716923 17.9175153 16.9716923 13.7588154 19.6913922 13.0996154" fill="none" stroke="#c96b00" stroke-linecap="round" stroke-miterlimit="3.8637"/>
    </g>
    <g>
      <polygon points="23.0106921 15.8789154 19.8935922 16.6465153 19.8935922 20.8115152 17.3808923 21.4121152 15.7733923 19.7974153 17.9315923 19.2627153 17.9315923 15.1113154 21.4511922 14.2983154 23.0106921 15.8789154" fill="#ecb300"/>
      <polyline points="16.4120923 20.0371153 17.3915923 21.0186152 19.5126922 20.4561152 19.5126922 16.2974154 22.2323922 15.6392154" fill="none" stroke="#c96b00" stroke-linecap="round" stroke-miterlimit="3.8637"/>
    </g>
    <g>
      <polygon points="25.5507921 18.4189153 22.4345922 19.1865153 22.4345922 23.3506152 19.9198922 23.9517152 18.3124923 22.3369152 20.4716922 21.8018152 20.4716922 17.6514153 23.9911921 16.8374153 25.5507921 18.4189153" fill="#ecb300"/>
      <polyline points="18.9530922 22.5771152 19.9315922 23.5581152 22.0517922 22.9961152 22.0517922 18.8384153 24.7714921 18.1787153" fill="none" stroke="#c96b00" stroke-linecap="round" stroke-miterlimit="3.8637"/>
    </g>
    <g>
      <polygon points="28.091792 20.9585152 24.9726921 21.7251152 24.9726921 25.8916151 22.458 26.4907151 20.8524922 24.8765151 23.0106921 24.3408151 23.0106921 20.1904153 26.5312921 19.3784153 28.091792 20.9585152" fill="#ecb300"/>
      <polyline points="21.4911922 25.1167151 22.4726922 26.0972151 24.5917921 25.5361151 24.5917921 21.3779152 27.311492 20.7178152" fill="none" stroke="#c96b00" stroke-linecap="round" stroke-miterlimit="3.8637"/>
    </g>
    <g>
      <polygon points="19.9696922 10.0459155 28.051792 18.1255153 37.8573918 15.6572154 29.759792 7.5571156 19.9696922 10.0459155" fill="#999" fill-rule="evenodd"/>
      <polyline points="19.9667922 10.4062155 28.010692 18.4512153 37.7812918 16.0034154" fill="none" stroke="#191919" stroke-linecap="round" stroke-miterlimit="3.8637"/>
    </g>
    <g>
      <polygon points="29.349592 6.0186156 33.1688919 5 34.3085919 6.1396156 34.3085919 8.4985155 32.7890919 6.979 30.8095919 7.4585156 29.349592 6.0186156" fill="#ecb300" fill-rule="evenodd"/>
      <polyline points="30.9901919 7.04 34.0097919 6.3193156 34.0097919 7.8403156" fill="none" stroke="#c96b00" stroke-linecap="round" stroke-linejoin="round"/>
    </g>
    <g>
      <polygon points="31.8290919 8.4985155 35.6493918 7.4805156 36.7880918 8.6196155 36.7880918 10.98 35.2685918 9.4585155 33.29 9.939 31.8290919 8.4985155" fill="#ecb300" fill-rule="evenodd"/>
      <polyline points="33.4716919 9.5181155 36.4892918 8.7998155 36.4892918 10.3203155" fill="none" stroke="#c96b00" stroke-linecap="round" stroke-linejoin="round"/>
    </g>
    <g>
      <polygon points="34.3085919 10.98 38.1298918 9.9595155 39.2675917 11.0986155 39.2675917 13.458 37.749 11.9385155 35.7704918 12.4175154 34.3085919 10.98" fill="#ecb300" fill-rule="evenodd"/>
      <polyline points="35.9501918 11.998 38.9677917 11.2793155 38.9677917 12.7993154" fill="none" stroke="#c96b00" stroke-linecap="round" stroke-linejoin="round"/>
    </g>
    <g>
      <polygon points="36.7880918 13.458 40.6093917 12.439 41.749 13.5781154 41.749 15.938 40.2274917 14.4185154 38.249 14.8979154 36.7880918 13.458" fill="#ecb300" fill-rule="evenodd"/>
      <polyline points="38.4296918 14.4785154 41.4481917 13.7588154 41.4481917 15.2798154" fill="none" stroke="#c96b00" stroke-linecap="round" stroke-linejoin="round"/>
    </g>
    <polygon points="39.2675917 15.938 43.0888916 14.9199154 44.2274916 16.0581154 44.2274916 18.4189153 42.7060916 16.8965153 40.7294917 17.3784153 39.2675917 15.938" fill="#ecb300" fill-rule="evenodd"/>
    <polyline points="40.9101917 16.9575153 43.9276916 16.2383154 43.9276916 20.5181152 45.2851916 20.1572153" fill="none" stroke="#c96b00" stroke-linecap="round" stroke-linejoin="round"/>
  </g>
</svg>