<?xml version="1.0" encoding="UTF-8"?>
<svg xmlns="http://www.w3.org/2000/svg" width="48" height="48" xmlns:xlink="http://www.w3.org/1999/xlink" viewBox="0 0 48 48">
  <defs>
    <radialGradient id="b" cx="-34.8238737" cy="104.780174" fx="-34.8238737" fy="104.780174" r="20.3270366" gradientTransform="translate(59.3117 -107.6282) scale(1.1892)" gradientUnits="userSpaceOnUse">
      <stop offset="0" stop-color="#fff"/>
      <stop offset=".207865" stop-color="#b7e9ff"/>
      <stop offset=".47191" stop-color="#3c97f6"/>
      <stop offset=".668539" stop-color="#032c87"/>
      <stop offset="1" stop-color="#0342d3"/>
    </radialGradient>
    <mask id="c" data-name="mask" x="8" y="8.1641192" width="32.62765" height="37.5686533" maskUnits="userSpaceOnUse">
      <path d="M8,24.1816188c0-8.8461998,7.1718826-16.0174996,16.0194824-16.0174996,8.8447998,0,16.0165996,7.1712998,16.0165996,16.0174996,0,8.8466998-7.1717998,16.0185996-16.0165996,16.0185996-8.8475998,0-16.0194824-7.1713998-16.0194824-16.0185996Z" fill="#fff" fill-rule="evenodd"/>
    </mask>
    <radialGradient id="d" cx="18.245139" cy="17.3937194" fx="18.245139" fy="17.3937194" r="22.806353" gradientUnits="userSpaceOnUse">
      <stop offset="0" stop-color="#dfeaeb"/>
      <stop offset=".303371" stop-color="#b7e9ff"/>
      <stop offset=".52809" stop-color="#3c97f6"/>
      <stop offset=".825843" stop-color="#032c87"/>
      <stop offset="1" stop-color="#0342d3"/>
    </radialGradient>
    <mask id="e" data-name="mask-1" x="22.3023394" y="20.6088422" width="18.3253106" height="19.9803441" maskUnits="userSpaceOnUse">
      <path d="M38.859382,22.7246188c0,9.2924998-5.6259999,15.8095996-14.8456996,16.4535996-.9785.0697816-1.1162-.7744-.1612-1.001,7.8447998-1.8544,13.1572997-10.5433997,14.0205176-15.5423996.0888821-1.1543.986382-.8921.986382.0898Z" fill="#fff"/>
    </mask>
    <linearGradient id="f" x1="22.5607711" y1="11.6505405" x2="20.7565035" y2="46.0780172" gradientUnits="userSpaceOnUse">
      <stop offset="0" stop-color="#65bd7b"/>
      <stop offset=".0074065" stop-color="#60bb74"/>
      <stop offset=".0565792" stop-color="#45af4f"/>
      <stop offset=".1023037" stop-color="#32a734"/>
      <stop offset=".1428936" stop-color="#27a224"/>
      <stop offset=".174157" stop-color="#23a11f"/>
      <stop offset=".2984012" stop-color="#1c871d"/>
      <stop offset=".4981417" stop-color="#14651b"/>
      <stop offset=".6872815" stop-color="#0e4c19"/>
      <stop offset=".8596362" stop-color="#0b3d18"/>
      <stop offset="1" stop-color="#0a3818"/>
    </linearGradient>
    <mask id="g" data-name="mask-2" x="10.1071587" y="11.9726411" width="30.5204913" height="33.1717329" maskUnits="userSpaceOnUse">
      <path d="M11.0995827,13.4341191c.0986.2534-.3164.4204-.0361.4595.6172.0859.9658-.3741,1.582-.2867.208.0284.3066.0718.5088.1158-.0576.4121.083.6855.0254,1.0961-.0879.6177-.5956827.8296-.6836,1.4478-.0518.3818.1543.6201.0996,1.001-.0234.1758-.1279.2666-.1776827.4243l.0721827-.5278c-.1181-.0176-.166-.084-.2851-.100119-.6026-.084481-.4737.8154189-.7842,1.3256189-.5986.9649-1.1084,1.4917-1.2666,2.6083811-.2305,1.6426188.4717172,2.6114188.2412,4.2544188-.084.6177.252.9634.6318,1.4663.0889.0127.1797173.0098.2442-.0253-.1064827-1.377-.334-2.0971999-.293-3.4550999.3526.4686812.1563.9209.3965173,1.4331.4872827,1.0122.8104827,1.582,1.1210827,2.6727999.1113.3902-.1318.7442.0879173,1.0904.4677827.7241.6854827,1.2939,1.4296827,1.7583.4131.2534.8681.0024,1.209.3480814.5214.5401186.6142,1.2832186,1.3613174,1.3906186.3807826.0542.6190826-.1523,1.001-.1001.456.0664.1708826.7124.3495826,1.1314.1582.3628.6269.2363.9502.4897.3916.3096.4502175.8423.9502175.9126.2928825.041.4032825-.3037.6952825-.2612185.4697175.0659185.3174.7324185.249,1.2031185-.126.9077-1.2217,1.0244-1.3477,1.9331-.0244.1631.1436.2466.1221.4067815-.0322.2348184-.3379.2822184-.373.518-.0909.6465184.4082.9405184.7529,1.4815184.3047.479.2666.9516.7129,1.2988.6201.4926816,1.6601.5479,1.5488,1.3272-.1826,1.3046-1.3515,1.5459-2.0516999,2.6747999.124.0776.1914175.1474.3359.1684,1.5732.2188,2.3378999-.8711,3.8466999-1.3769,1.0224-.336,1.7197-.1924,2.6748176-.7036.501-.2579.5565823-.7598,1.0438823-1.0489,1.0156-.6054,1.753-.7588,2.5624999-1.6181.5127-.5415.4336177-1.1499.7949-1.8037.5186-.9292,1.1475-1.2461,1.5713-2.2353999-.1259-.0762-.1815822-.2036-.3427-.227l-1.086-.1514c-.6748-.0957185-1.1767-.689-1.082-1.3643-.7451-.1201-1.1738-.1518-1.9248-.2563-.9550823-.1333-1.1514-1.1787-2.1044999-1.314-.4121-.0571186-.5938.3955-1.0059.3378814-.5468-.0756814-.8056-.3524814-1.3496-.4291814-.3359-.0464-.498.2598-.6484.5674l-.2422.0254c-.0596-.2168-.0039-.3877.0273-.624.0137-.087-.1367-.0948-.1543-.1714-.6844824.188-.9121.9492-1.6162.8515-.1767-.0249-.2392-.2148-.4179-.2387186-.3193825-.044-.501.1699186-.8252.1235186-.6016-.0855186-1.1856-.5107-1.1016-1.1133.0313-.2202186.2783-.2754.3076-.4951.0801-.5439-.3525-.8882-.8545-1.1397l-.3681.0674-.5313-.0742c.0166-.102-.0351-.1699-.0205-.2715.0527-.3813.5664-.3999.6182174-.7837.0497826-.3349.0038826-.5512.124-.8784187l-.9687174-.1366813c-.4112.2559-.6124.7534-1.1132826.6826-.8809174-.124-1.417-1.0088-1.292-1.8891.1454826-1.043.6825826-2.2080999,1.7264826-2.0624999.3516.0498.5059.249.8545174.2998.253.0346.3290826-.313.5790826-.2774.6602.0918,1.4414.397,1.3516,1.0567-.085.603.3486,1.0234.8936,1.2929.0517175-.1406.0791-.2275.1152-.372l-.1543-1.9073187c.5166-.9012812,1.7861-.768,1.9277-1.7806812l.0957-.6753188c.1094175-.7773812.9854175-1.1347812,1.7608-1.0243812-.0508-.2915-.2353824-.4532-.1943824-.7461.044-.3238.4081824-.3628.7216824-.4375189-.0058.1323189-.0019.2231189.0088.3603189.7031-.1255,1.4717-.2431,1.5684-.9477.0136-.0869-.1358-.0943-.1563-.1724-.2305.0576-.3895824.125-.6415824.0897811-.334-.0467811-.2246176-.5262811-.1465176-.8602811-.208-.0283-.3261-.0298-.5371-.0142.1524-.2343.3672-.2773.6455-.3286l.335.1655c.1904-.0761.3203-.1474189.5117-.227.0645.2793-.0175824.6572.2754176.6992l1.2792823.1792c.0889-.3174-.3506-.3789-.5722823-.6196-.1963177-.2061.0400823-.5039-.1357177-.7383-.3028-.4018-.7471-.3291-1.1768-.5835-.7304-.4468-.7246-1.4341-1.5801-1.5542-.1611-.0225-.2216.2075-.3847.1851-.5703-.0816-.6582-.7515-1.2285-.8311-.1787-.0254-.2891.0342-.4571.0552.0186.3013.2354.4517.1914.7461-.0693.499-.7832.4736-.8534825.9722-.042.3095.1132825.4804.127.797281-.46-.0194811-.3252175-.660081-.6377175-.988781-.5371-.5546-1.7422-.395-1.6319-1.1733.1524-1.1006,2.0214999-.7485,2.1767999-1.8496.0117-.0869-.0879-.1328-.0908-.2065.1396175-.0264.2207-.0894.3681-.0674.4698.0649.6934.3808.9063.7993-.2813.0791-.4561.0557-.7402.1372.6084175.3696,1.1894175.2847,1.6172.855l.5791-.277919c-.1192-.212781-.2217-.345181-.4083-.507281.1241-.0273.2295-.0415.3604176-.0083-.2861176-.519-.8242176-.52-1.3154176-.858419-.4922-.3392809-.7265824-.7015809-1.3291-.7845809l.041-.2798c.0498-.3672.2939-.4986191.5293-.7798-.1543-.0801-.2471-.1553-.4257825-.1797-.3779175-.0542-.8633175-.0303-.916.3511-.0332175.2343.1942825.3115.2880825.5185-.167.1255-.2862.2162809-.4120825.3628.1337825.1221.2616825.2617.2333825.4522-.0157.1312809-.1523825.1416-.2666.2016-.2276-.4072-.5049-.6709-.4375-1.1406-.212.0161-.4834.0229-.5108.228-.0351.249.1582.3657.2774.5786-.2061.0904-.3398825.1919-.5752.1586809l-.5136825-.0731809c.0614825-.1392.2030825-.1792.2265825-.3408191l.082-.6020809c-.3399-.0166-.5185825-.105-.8604-.1523-.2773-.0406191-.6201.0473-.6581826.3266-.0439174.3106.2558826.4112.4452826.6612-.1425.0555809-.2197.165-.3779.1411-.3086-.043-.2021-.4907-.4443-.6763-.3242-.2534-.6494-.0742191-1.0655-.0889.0225-.3862-.0615-.8471-.4433-.8999-1.0712826-.1508-1.6875.3003-2.7040999.6978-.7588.2969-1.418.2041-2.0175999.7339ZM18.2753826,19.4722189c.5332-.1939.8584-.4771,1.4326174-.398.3651825.0517811.3300825.5117.6161825.732.3897.3081.7842.2744,1.1074.6347-.2627.2617-.4365.4468-.7959.5454.0469-.3227-.1142-.6733189-.4394-.7197-.5264-.0732-.2764.9189-.7588,1.1509-.0742-.4146-.1426-.6792-.0869-1.0908.0312-.2203.1973-.3306.3672-.4571-.1826-.1147-.2774-.2788-.5-.3095-.292-.0406-.6475-.0747-.9424-.0879ZM22.2177825,20.8203189l.3349.166c-.4951.544-1.0673.7783-1.8016825.6763l-.3242175-.0464c.4589-.5928,1.0175-.7402189,1.791-.7959ZM22.7685824,30.5234186c-.1622-.0244186-.0391-.2607-.0479-.4116.1543176-.0234.249-.0552.4131-.061.0039-.1353.0029-.2251-.0087824-.3613.1034824.0151.1562824-.0391.2577824-.0245187.6016.086.877.3633186,1.4707.5069186-.4697.6836-1.2773.4653-2.0848999.3515ZM19.8720825,28.9775187c-.3057-.0576-.5576-.1831-.6338-.4941.3955-.063.6103-.0928,1.0088-.0381.54.0781.8271.2836813,1.3008.5444.3603.1982813.9218.2496.8642.6587-.0332.251-.3389.2832-.5898.2485813l-.5127-.0727814c.0634175-.1274.1357-.2217.2265-.3266-.4384-.3921-.7285-.6719-1.3183-.7554-.1006-.0132187-.253.2182-.3457.2353ZM23.3827824,12.9453191c.5576.3926.8545.8384,1.542.8584.0742176.4312.4482176.5292809.7344.8384.5195.5683.8232,1.0737,1.5869,1.1811.1318.0186.2109177-.0146.3457-.0097-.2012-.4942-.6816-.7119-.6055-1.2393.0469-.3237.3594-.428219.4043-.7519.0801-.543-.7343-.5064-1.207-.7691-.669-.3623-1.0127-.7998-1.7744-.9077-.6904-.0957-1.377-.0142-1.7021824.5986.1865824.0713.4687824.1861.6757824.2012Z" fill="#fff" fill-rule="evenodd"/>
    </mask>
    <radialGradient id="h" cx="15.188078" cy="15.8603682" fx="15.188078" fy="15.8603682" r="29.287797" gradientUnits="userSpaceOnUse">
      <stop offset="0" stop-color="#d3edd5"/>
      <stop offset=".0881577" stop-color="#ceebd0"/>
      <stop offset=".1888042" stop-color="#c1e5c2"/>
      <stop offset=".2955934" stop-color="#aadbab"/>
      <stop offset=".4067144" stop-color="#8bce8b"/>
      <stop offset=".5211732" stop-color="#64bd62"/>
      <stop offset=".6367876" stop-color="#34a830"/>
      <stop offset=".674157" stop-color="#23a11f"/>
      <stop offset=".6869737" stop-color="#209b1c"/>
      <stop offset=".7628023" stop-color="#128010"/>
      <stop offset=".8398735" stop-color="#086d07"/>
      <stop offset=".9182832" stop-color="#016101"/>
      <stop offset="1" stop-color="#005e00"/>
    </radialGradient>
    <mask id="i" data-name="mask-3" x="22.3023394" y="20.6088422" width="18.3253106" height="19.9803441" maskUnits="userSpaceOnUse">
      <path d="M38.859382,22.7246188c0,9.2924998-5.6259999,15.8095996-14.8456996,16.4535996-.9785.0697816-1.1162-.7744-.1612-1.001,7.8447998-1.8544,13.1572997-10.5433997,14.0205176-15.5423996.0888821-1.1543.986382-.8921.986382.0898Z" fill="#fff"/>
    </mask>
  </defs>
  <g isolation="isolate">
    <g id="a" data-name="Layer 4">
      <g>
        <path d="M8,24.1816188c0-8.8461998,7.1718826-16.0174996,16.0194824-16.0174996,8.8447998,0,16.0165996,7.1712998,16.0165996,16.0174996,0,8.8466998-7.1717998,16.0185996-16.0165996,16.0185996-8.8475998,0-16.0194824-7.1713998-16.0194824-16.0185996Z" fill="url(#b)" fill-rule="evenodd" stroke="#000" stroke-miterlimit="3.8637" stroke-width="2.0682"/>
        <g mask="url(#c)">
          <g>
            <path d="M8,24.1816188c0-8.8461998,7.1718826-16.0174996,16.0194824-16.0174996,8.8447998,0,16.0165996,7.1712998,16.0165996,16.0174996,0,8.8466998-7.1717998,16.0185996-16.0165996,16.0185996-8.8475998,0-16.0194824-7.1713998-16.0194824-16.0185996Z" fill="url(#d)" fill-rule="evenodd"/>
            <g mask="url(#e)">
              <g>
                <path d="M38.859382,22.7246188c0,9.2924998-5.6259999,15.8095996-14.8456996,16.4535996-.9785.0697816-1.1162-.7744-.1612-1.001,7.8447998-1.8544,13.1572997-10.5433997,14.0205176-15.5423996.0888821-1.1543.986382-.8921.986382.0898Z" fill="#3c97f6"/>
                <path d="M39.293,22.7944188c0,9.2944998-5.6231178,15.8119996-14.8448176,16.4560996-.9794.0693-1.1181-.7778-.1621-1.002,7.8456998-1.8545184,13.1542997-10.5433997,14.0224996-15.5423996.0879-1.1553.9844179-.8936.9844179.0883Z" fill="none" stroke="#2b76b4" stroke-miterlimit="3.8637" stroke-width="2.6693"/>
                <path d="M39.074182,22.7588188c0,9.2943998-5.6229999,15.8109996-14.8436996,16.4559996-.9784824.0684-1.1192-.7753-.1621-1.0019,7.8466176-1.8535,13.1571997-10.5419997,14.0194996-15.5414996.0918-1.1558.9863-.8931.9863.0874Z" fill="none" stroke="#1459a5" stroke-miterlimit="3.8637" stroke-width="1.3347"/>
                <path d="M38.859382,22.7246188c0,9.2924998-5.6259999,15.8095996-14.8456996,16.4535996-.9785.0697816-1.1162-.7744-.1612-1.001,7.8447998-1.8544,13.1572997-10.5433997,14.0205176-15.5423996.0888821-1.1543.986382-.8921.986382.0898Z" fill="none" stroke="#1d3f99" stroke-miterlimit="3.8637"/>
              </g>
            </g>
            <path d="M18.251,13.1016191l.1298826.1308c.2402.2188.5185.6421.0302.8291l-.1308.0767c-.6719.3686-.878-.1895-1.0712826-.6514-.2871174-.2256-1.2715174.2783-1.2246174-.4468191.0058-.0985809.0088-.393-.084-.4735809-1.1719-.166-2.0380999.5957-3.1298999.8485809-.3887.0909191-.8134827.1382191-1.1514.3702191-.0224.1303-.0888.2451-.166.353-.4648-.0664-.4033-.2153-.2177-.4756.6201.0863809.6376173-.4834,2.1190999-.165.5244.1113.3516,1.7128.1631,2.0692999-.5.9473-.5528.474081-.4102,1.5469.043.3335-.0156.530181-.1728.8159-.1709.499-.6992.4404-.7871.0644l-.0577.2256c-.0439.1651-.1044.3648-.2157827.5415-1.1279172,1.8145-1.5117172,2.1323999-1.0908172,4.4550999.1406.7774.2363,1.4639.1231,2.2558999-.0469.333.0996.5659.2871.8177812l.2685.3531187-.2402-.1436c-.1279.0181-.2236827.4893-.2315.3877-.1035-1.3955-.3359-2.1239999-.2929-3.4979999.0234-.75.9033-.5484,1.0332.6713.0205173.2046.0322.4126.1211.6026.4355.9033.8711,1.7651,1.1445,2.7357999.0674.2407-.0264.8789.0371.9834.4023.6206.6523,1.2281,1.3066,1.6348.2989.1811.8096-.0742,1.2842173.4092.4872826.5009.6396826,1.4409,1.4814826,1.2329,1.6513-.4072186,1.0771.7637,1.3134,1.3052.4639.2845814.6827.0371,1.1495.6825814.0996175.1391185.2587.4619185.4384.4873185.2686-.125.2969-.3169.6973-.2622.6719175.0937.7061.7656.6426,1.2685l-.0556825.3838c-.1465175,1.0547-1.1992175,1.2378-1.3398175,1.8809.249.4355.0869.7182-.2647,1.0116815-.0342.3916184.4922.8569184.6963,1.1787184.2197.3402816.3291.9682816.625,1.1997.6221.4927,1.8584.5679,1.6992175,1.6953-.1787175,1.2647-1.0605175,1.604-1.7881175,2.4071999,1.2061175.0337,2.2753999-.9975,3.3984999-1.3745.8662-.2851,1.7988-.2412,2.6141999-.6753.3477-.1801183.5323-.7475,1.0264177-1.0415,1.0136823-.6059,2.4657823-.9897,2.8368822-2.2489999.1065-.3496184.1963-.6997.376-1.0249.3906-.6948,1.0215-1.2026,1.4043-1.8911-.999-.1396185-2.2450999-.2329-2.3954999-1.5532-1.3565-.1953-1.9072.0039-2.8622999-.9741-.1338-.1377-.6143-.6441-.8887-.5298-.2041.1211-.1318.0737-.292.1767-.75.4483-1.2929-.1806-1.9960999-.2798-.3691.2735-.0605.5171-.7959.5948-.415.0439-.4863-.4532185-.457-.7412185l.0205-.148c-.0566-.061-.0967-.1293814-.1171824-.2064814.1630824.0947.3280824.1914.4921824.2866-.6865.189-1.2705,1.4697-2.1942999.6475-.2803-.0313-.4532.1523-.8252.1-1.0069-.1425-2.0048999-1.2138-1.1719-2.0356185.0859-.2880814-.0674-.4677814-.4844-.6893814l-.2363.0429-.127.0044-.5293-.0757-.3377826-.4492186c-.0762174-.3568814.0526826-.6220814.332-.8441814.1473826-.1094.081-.0596.209-.1524.0673826-.1992.0780826-.3471.0878826-.4751l-.3798826-.1289-.1045174.0952c-.3389.3272-.627.6407-1.166.5645-2.9199999-.4102-1.5254-5.8529999,1.0957-4.5497999.0986.0498.167.0815.2422.1001.7666174-.7305,2.4726174.2051,2.3280999,1.2402-.0264.1929.0351.3745.1914.541-.1201-1.4917-.4775-1.9047.8848-2.6268999l.3086-.1582c.708-.3648.6005-.5513.708-1.3086.1191-.8579188.8613-1.2788,1.5927175-1.3677-.1689176-.6128.1923824-.9775.7548824-1.1172189l.2373-.0555811c.2403-.0586.4307.0575811.4815.2719.2861-.0649.625-.1479.748-.3647-.0488-.0557-.0791-.1182-.0956824-.1846189.1601824.0982189.3192824.1944189.4794824.2915189-.6533.1621-1.4512.2393-1.3574-.7763-.8096.0542-.5557-.8633.291-1.0704l.2178-.0434c.1338-.0244189.3105.0654.4179.1181.7315-.3315189.835-.2338.9375.5303l.1241.0171c-.0928-.2104-.0245-.3843-.043-.5962-.1377-.1806-.8018-.3135-1.0508-.4629-.5683-.3496-.9521-1.3633-1.333-1.4785-.3975.3452-.8857.0972-1.2041-.2324-.1641-.1836-.0996-.1108-.251-.276919-.2363-.249-.3124824-.142081-.6074-.104881l.3457-.416119c.0254.467319.582.92-.2617,1.494219l-.1620825.1015-.127.0787c-.1523175.1049-.1386175.166-.084.3515l.0585825.2027c.2373.9746-.8437.9096-1.1093.0478-.2188-.71-.3536-.5962-1.0762-.854-1.375-.4917-.9219-1.733419.1172-2.1884999.3242-.1426,1.0801-.3276,1.2041-.666-.3975-.6982,1.1494-1.292,1.9531.3062.0615176.1157.0635176.2334.0244.3315.0791176.0327.1611176.066381.2363.1089-.0205-.0742-.0136-.1489.0147-.2149l-.3281-.141619c-.5557-.247481-1.044-.8817809-1.5917824-.9583809-.5664175-.0796191-.2901175-.9742-.0879175-1.2535-.0752,0-.1426.0054-.1934.0196.2276.2719.3399.6035.0879.791l-.1025.081c.4248.795-.6563,1.291-.9258.8116-.2676-.4795-.5712825-.780319-.4834-1.3897l.4209.4522c.458.6718-.3545,1.0366-.8926.9624-.4385-.0625-1.2783-.1504-.6973-.8179l.0811175-.0874.0204825-.1699191c-.1807-.0385809-.4639-.1308809-.6444825-.0873809ZM10.8534827,13.7031191l.0996-.4033c.6914-.6138191,1.374-.5088191,2.1366999-.8066.918-.3599,3.3925999-1.6216,3.6689999.1469l.165-.018c.2266-.0142.4991.0078.7637.2182.1777.1328.2598.3296.3184.5336809.039-.0194809.08-.0394809.1201174-.0555809l-.1748174.6093c-.3047-.4033-.8604-.7636-.3438-1.3393.4834-.541,1.1778-.1626,1.7588-.1323.6016.0317.3877,1.1372.082,1.4536-.0537.0537-.6561825-.5474-.3584-.5059.6299.0884.4278.1377.875-.0571l-.1894.5595c-.2315-.4086-.709-1.0834.1406175-1.3393.0722825-.0215.1493825-.0352.2304825-.0435l.1816-.0151c.542-.0371.3399175.5136809.4903.8091.0869.1714.2109.3349.3222.5332l-.3994-.1206191c-.3086-.3066809-.4463-.4018809-.0547-.7665809-.6484-.9024191.6865175-1.5625,1.7901-.9751.6445.3408-.2032.812-.3028,1.1113.542.2036.8877.6875,1.4141.9243.376.1695,1.5391176.75,1.1445,1.290081.3321.585419-.9072,1.166519-1.2158.759719-.3037-.4062-1.0595824-.4848-1.5049-.7549-.5371-.3286-.1142-.6894.2578-.7602-.04-.0293-.082-.0532-.123-.0728-.291,1.265181-2.3818999,1.0953-2.1376999,1.8306.2275.2217,1.0342175.2564,1.5078.749.2061.2154.2715.4912.3574175.7657.0302825.0957.0107825.0966.0126825.1005-.3046825-.1508-.3174.7583-.4375.2763811l-.0469-.1688811c-.1484-.5088-.0449-.9302.3995-1.232l.163-.1035.126-.077619c.252-.170881-.0683-.506381-.0859-.790581-.0371-.670419,1.1806-.5449,1.6299-.0766.1836.2016.0849.094181.2519.2778.0488.0503.1026.1006.167.130381.794-.686,1.5068.622619,1.8867,1.139619.0938.1329.1934.234381.3174.3106.6826.4053,1.5322176.2261,1.4209,1.414.3272.2817811.8115.3721.6397.9761-.1612.5728-2.0683823.3565-2.2587999-.4043189-.2071.085-.4004-.0145811-.5811-.104-.126.0303189-.207.0552189-.2549.1299189l-.3642-.6147c.7011-.0494,1.0381-.0328.9023.7485l-.0215.1352c.1807-.0302.2715-.0605.3819-.0874l.4834.2924811c-.0624824-.0355811-.0811-.1058811-.0996-.1674811.7988.4649-.168,1.4551-1.085,1.6661-.2686.0615-.7393.2295-.9424-.0508l.1026.2446c.5361,1.3648-1.5088.1948-1.6807,1.4229-.1416,1.0102-.1318,1.3925-1.1289,1.9066812l-.3027.1538188c-.2129.1133-.4277825.2437-.5752.4434l.1377,1.7739-.0088.1245c-.3984825,1.6309-1.9297-.0742-1.7881-1.0693.0556175-.3926-.6885-.5567-.9473-.6001-.6348.6084-.9414.0483-1.498-.0308-1.2198-.1699-1.9794999,2.9301999-.3233,3.1620999.3155.0488.667-.7427,1.1123-.6802,1.4141.1993,1.2949174-.0429,1.2227.9952-.0342.458-.0069.7412-.3916,1.042-.1309.0971-.0733.0546-.1309.0971,1.1416-.2041,2.2187999,1.1499,1.334,2.0258999-.0635.4502.5996.7534.9922.6196.3887-.1313.6924-.1479,1.0127.1372.3271.0494.9834-.688,1.4551-.8183186l.4922.289c-.0616-.0360814-.084-.1058814-.0977-.1678814.0937.0556.1641.122.2109.2031.6875-.4634,1.668.4194,1.9873176.2871.209-.1269.1210824-.0713186.2890824-.1787,1.2813-.7632,1.8398,1.0356,2.7567999,1.165.752.1055,1.1817.1372,1.9327.2588.6337.1005815-.0098,1.21,1.0742,1.3599.3066.0434,1.1289.0312,1.4814.3446815l.1016.0928185s.2226.3398.1533.4946c-.3799.8921-1.1289,1.4478-1.5889,2.2719999-.3584.6494-.2597,1.2534-.8506,1.8813-.8457.8999-1.6484,1.0899-2.6483999,1.6895-.3965.2329-.4736.7539-1.0644,1.0586-.9141.4873-1.795.4194-2.7324999.728-1.3896.4653-3.0145999,2.1073999-4.5184999,1.1694-.6992-.4365.8545-1.6274,1.1631-1.9047,1.6777-1.5171.1728-1.4307-.6953-2.1225999-.5577-.4326-.4873-.9014-.8028-1.396-.417-.6553-1.3965-1.5063-.4863-2.2626999-.5732-1.0537,1.1689-1.5986,1.2725175-2.3490999l.0555825-.3692c.0117-.1074.0244175-.2133.0186-.3071-1.1358.8051815-1.4317-.7075-1.961-.8774-.3945-.126-.7363-.1392-.9277-.5801-.1182-.2676-.0937-.5527-.1054826-.8379l-.0927174-.0508c-1.2198.1612-1.3721.1939-2.1581999-1.0429-.5088-.8018-.7334-.2403-1.4092-.6548-.8106-.5044-1.0664-1.1226-1.5557-1.8814-.331-.5161-.0361-.8511-.1357-1.1963-.1358-.4736-.2989-.9214-.501-1.3711.0635173.5674.1387,1.1407-.6406,1.0308-.0401-.0054-.2373-.1216-.2608-.1538l-.2724-.3569c-.7393-.9927-.3203-1.3584-.4121-2.4418999-.1514-1.7701-.7471-2.9609999.25-4.7183188.2207-.396.5019-.772.8056-1.2597811.3233-.5346.2803-2.0013999,1.4649-1.4126.4951.070381.3037.7012.2636.9776l-.7705-.1802189c.0176-.060481.044-.114681.0703-.165481.3311-.6026-.456-.8926.4053-2.0898999.4121-.5722.2578-.6621.2285-1.2817l-.1542827-.0283c-.3115173-.0459-2.9804172,1.025381-1.9004172-.4873l.0469.0268ZM20.333,20.8857189l-.0293175.0967-.0526825.2154c-.2002175.7563-.9668175,1.1049-1.0879175.4555-.1182-.6474-.294-1.3647.2978-1.8374l.1329-.102.0234.6528c-.0947-.0605-.1797-.1362-.2666-.2114-.125-.0967-.8154-.1157-.9775825-.1236-.5234174-.0195-.6103174-.5922-.1181174-.7705.7178-.2597,1.7676-.9135,2.2665999.1045.1894.3892.2256.3632811.6445175.5312811.3075825.1235189,1.0927825.5551189.6620825.9853189l-.1904.1914c-.2275.2159-.4706825.3736-.7793.4585-.6113.1709-.4355-.4912189-.5253825-.6465ZM20.9052825,20.6494189c-.2578-.104-.4892825-.1929-.71-.3691-.3027-.2349-.3281-.5493189-.4267-.649-.4444-.062-.8428.233-1.2422.378l-.1201-.772c.4443.0176,1.0771.0073,1.4404.2979.2451.205.6533175.4897.2226.8154l-.1102825.0849c-.3252175.335.3007825.9454-.5625175.774.0439-.0537.0703-.1514.0869-.2173l.0479-.1943c.0996-.4312.3085-.837.8398-.7608.5654.0781.8477.648.7764,1.168l-.501-.44c.1094-.0283.1875175-.0659.2588-.1157ZM22.8456824,20.7935189c.791.393-.5936824,1.6279-2.0341999,1.4248-.3301-.0464-.9863-.1558-.583-.6812.5625175-.729,1.2637-.8921189,2.0771999-.9517.1591-.0112.4521.1635811.54.2081ZM22.4940825,21.5054189l-.2392-.1172c-.6651.0581-1.0615.1967811-1.3965.6327811l-.2588-.6366811c.7559.1064,1.2129.1113,1.7764175-.5034l.1180825.6245ZM22.8505824,29.9717186l.4473-.5122c.5556-.1382,1.207.3544813,1.7666.4887.7529.1827.08,1.2095-.9913,1.2579-.4189.019-.831-.0684-1.2431-.127-.333-.0459-.459-.2632-.4219-.5981186l.0264-.1508814c.1826-.1714.3154175-.2832.416-.3584ZM24.0487824,30.4116186c-.1377-.0625-.2607-.1128-.4033-.1489-.0254.1768-.2002.3398-.3779.3477-.1465.0053-.2324.0371-.3692.0571l.336-.4165186c.0078.1094186-.0166.2163186-.0362.3237186-.1738-.0239-.2801824-.1094-.2597-.2837186.3681.0523186.7422.1367186,1.1103.1206186ZM20.4081825,29.3213187c-.1797.1562-.2744.1968-.3486.2109l-.1465-.001c-1.1338-.2153-1.6123-1.6132187.5039175-1.3159.6005825.085.9296825.3066813,1.4403825.5879.4483.25,1.1699.3227813,1.0655,1.0645-.1114.7905-1.0411.5854-1.5498824.5146-.3076175-.0454-.4384175-.2959-.3046175-.5718l.0517-.0918c-.2197-.1831-.4258-.332-.7119-.3974ZM19.9003825,28.708c.4092-.3764813.9512-.1430813,1.3662.1255187.2363.1509.7852.5327.7754175.8398-.0049175.2105-.1699175.313-.2607175.4913l-.2979-.5713.2949.041c-.5107-.1968-.916-.5528-1.4697-.6294-.3379-.0493-.502-.0274-.8905825.0342l.3231825-.4869c.0127.0591.043.1119.1592.1557813ZM23.6073824,12.7378191l.1211.0459c.4072.2856.7861.7705,1.3242.7856.333.0118.3301.3892.5323176.5576809.164.138119.3378824.250419.4852824.410119.3369.3682.8555,1.1133,1.4238,1.0537.0674-.0083.1368-.0161.2266-.0146l-.3799.5493c-.2402-.5879-1.0107-.9624-.5019-1.8023.0283-.0429.0566-.0839.0859-.124.0889-.1094.0557-.0688.1338-.1631.0469-.0717.0547-.0883.0586-.1064-.0498-.0493-.8457-.2739-1.0098-.3633-.7988-.4365-1.4785-1.1733-2.4999999-.8286ZM23.9931824,14.002c-.2071-.148-.4004-.3334809-.6455-.5117809-2.2997999-.3906.165-2.5253999,2.3143999-1.1582191.2568.1626191.5029176.3589191.8262.5362191.5332.2939,1.5449.2495,1.416,1.1723-.0272823.1807-.1094.3413-.2188.4829-.0957.1197-.0488.0601-.1318.1631-.1611.2573.4248.9004.5215,1.1377.2197.5357-.4297.603-.7695.5557-.9073-.127-1.2725-.7041-1.8223-1.3071-.252-.271-.5537-.3677-.7393-.737819-.3017-.055681-.541-.183581-.7509-.333Z" fill="url(#f)"/>
            <g mask="url(#g)">
              <g>
                <path d="M11.0995827,13.4341191c.0986.2534-.3164.4204-.0361.4595.6172.0859.9658-.3741,1.582-.2867.208.0284.3066.0718.5088.1158-.0576.4121.083.6855.0254,1.0961-.0879.6177-.5956827.8296-.6836,1.4478-.0518.3818.1543.6201.0996,1.001-.0234.1758-.1279.2666-.1776827.4243l.0721827-.5278c-.1181-.0176-.166-.084-.2851-.100119-.6026-.084481-.4737.8154189-.7842,1.3256189-.5986.9649-1.1084,1.4917-1.2666,2.6083811-.2305,1.6426188.4717172,2.6114188.2412,4.2544188-.084.6177.252.9634.6318,1.4663.0889.0127.1797173.0098.2442-.0253-.1064827-1.377-.334-2.0971999-.293-3.4550999.3526.4686812.1563.9209.3965173,1.4331.4872827,1.0122.8104827,1.582,1.1210827,2.6727999.1113.3902-.1318.7442.0879173,1.0904.4677827.7241.6854827,1.2939,1.4296827,1.7583.4131.2534.8681.0024,1.209.3480814.5214.5401186.6142,1.2832186,1.3613174,1.3906186.3807826.0542.6190826-.1523,1.001-.1001.456.0664.1708826.7124.3495826,1.1314.1582.3628.6269.2363.9502.4897.3916.3096.4502175.8423.9502175.9126.2928825.041.4032825-.3037.6952825-.2612185.4697175.0659185.3174.7324185.249,1.2031185-.126.9077-1.2217,1.0244-1.3477,1.9331-.0244.1631.1436.2466.1221.4067815-.0322.2348184-.3379.2822184-.373.518-.0909.6465184.4082.9405184.7529,1.4815184.3047.479.2666.9516.7129,1.2988.6201.4926816,1.6601.5479,1.5488,1.3272-.1826,1.3046-1.3515,1.5459-2.0516999,2.6747999.124.0776.1914175.1474.3359.1684,1.5732.2188,2.3378999-.8711,3.8466999-1.3769,1.0224-.336,1.7197-.1924,2.6748176-.7036.501-.2579.5565823-.7598,1.0438823-1.0489,1.0156-.6054,1.753-.7588,2.5624999-1.6181.5127-.5415.4336177-1.1499.7949-1.8037.5186-.9292,1.1475-1.2461,1.5713-2.2353999-.1259-.0762-.1815822-.2036-.3427-.227l-1.086-.1514c-.6748-.0957185-1.1767-.689-1.082-1.3643-.7451-.1201-1.1738-.1518-1.9248-.2563-.9550823-.1333-1.1514-1.1787-2.1044999-1.314-.4121-.0571186-.5938.3955-1.0059.3378814-.5468-.0756814-.8056-.3524814-1.3496-.4291814-.3359-.0464-.498.2598-.6484.5674l-.2422.0254c-.0596-.2168-.0039-.3877.0273-.624.0137-.087-.1367-.0948-.1543-.1714-.6844824.188-.9121.9492-1.6162.8515-.1767-.0249-.2392-.2148-.4179-.2387186-.3193825-.044-.501.1699186-.8252.1235186-.6016-.0855186-1.1856-.5107-1.1016-1.1133.0313-.2202186.2783-.2754.3076-.4951.0801-.5439-.3525-.8882-.8545-1.1397l-.3681.0674-.5313-.0742c.0166-.102-.0351-.1699-.0205-.2715.0527-.3813.5664-.3999.6182174-.7837.0497826-.3349.0038826-.5512.124-.8784187l-.9687174-.1366813c-.4112.2559-.6124.7534-1.1132826.6826-.8809174-.124-1.417-1.0088-1.292-1.8891.1454826-1.043.6825826-2.2080999,1.7264826-2.0624999.3516.0498.5059.249.8545174.2998.253.0346.3290826-.313.5790826-.2774.6602.0918,1.4414.397,1.3516,1.0567-.085.603.3486,1.0234.8936,1.2929.0517175-.1406.0791-.2275.1152-.372l-.1543-1.9073187c.5166-.9012812,1.7861-.768,1.9277-1.7806812l.0957-.6753188c.1094175-.7773812.9854175-1.1347812,1.7608-1.0243812-.0508-.2915-.2353824-.4532-.1943824-.7461.044-.3238.4081824-.3628.7216824-.4375189-.0058.1323189-.0019.2231189.0088.3603189.7031-.1255,1.4717-.2431,1.5684-.9477.0136-.0869-.1358-.0943-.1563-.1724-.2305.0576-.3895824.125-.6415824.0897811-.334-.0467811-.2246176-.5262811-.1465176-.8602811-.208-.0283-.3261-.0298-.5371-.0142.1524-.2343.3672-.2773.6455-.3286l.335.1655c.1904-.0761.3203-.1474189.5117-.227.0645.2793-.0175824.6572.2754176.6992l1.2792823.1792c.0889-.3174-.3506-.3789-.5722823-.6196-.1963177-.2061.0400823-.5039-.1357177-.7383-.3028-.4018-.7471-.3291-1.1768-.5835-.7304-.4468-.7246-1.4341-1.5801-1.5542-.1611-.0225-.2216.2075-.3847.1851-.5703-.0816-.6582-.7515-1.2285-.8311-.1787-.0254-.2891.0342-.4571.0552.0186.3013.2354.4517.1914.7461-.0693.499-.7832.4736-.8534825.9722-.042.3095.1132825.4804.127.797281-.46-.0194811-.3252175-.660081-.6377175-.988781-.5371-.5546-1.7422-.395-1.6319-1.1733.1524-1.1006,2.0214999-.7485,2.1767999-1.8496.0117-.0869-.0879-.1328-.0908-.2065.1396175-.0264.2207-.0894.3681-.0674.4698.0649.6934.3808.9063.7993-.2813.0791-.4561.0557-.7402.1372.6084175.3696,1.1894175.2847,1.6172.855l.5791-.277919c-.1192-.212781-.2217-.345181-.4083-.507281.1241-.0273.2295-.0415.3604176-.0083-.2861176-.519-.8242176-.52-1.3154176-.858419-.4922-.3392809-.7265824-.7015809-1.3291-.7845809l.041-.2798c.0498-.3672.2939-.4986191.5293-.7798-.1543-.0801-.2471-.1553-.4257825-.1797-.3779175-.0542-.8633175-.0303-.916.3511-.0332175.2343.1942825.3115.2880825.5185-.167.1255-.2862.2162809-.4120825.3628.1337825.1221.2616825.2617.2333825.4522-.0157.1312809-.1523825.1416-.2666.2016-.2276-.4072-.5049-.6709-.4375-1.1406-.212.0161-.4834.0229-.5108.228-.0351.249.1582.3657.2774.5786-.2061.0904-.3398825.1919-.5752.1586809l-.5136825-.0731809c.0614825-.1392.2030825-.1792.2265825-.3408191l.082-.6020809c-.3399-.0166-.5185825-.105-.8604-.1523-.2773-.0406191-.6201.0473-.6581826.3266-.0439174.3106.2558826.4112.4452826.6612-.1425.0555809-.2197.165-.3779.1411-.3086-.043-.2021-.4907-.4443-.6763-.3242-.2534-.6494-.0742191-1.0655-.0889.0225-.3862-.0615-.8471-.4433-.8999-1.0712826-.1508-1.6875.3003-2.7040999.6978-.7588.2969-1.418.2041-2.0175999.7339ZM18.2753826,19.4722189c.5332-.1939.8584-.4771,1.4326174-.398.3651825.0517811.3300825.5117.6161825.732.3897.3081.7842.2744,1.1074.6347-.2627.2617-.4365.4468-.7959.5454.0469-.3227-.1142-.6733189-.4394-.7197-.5264-.0732-.2764.9189-.7588,1.1509-.0742-.4146-.1426-.6792-.0869-1.0908.0312-.2203.1973-.3306.3672-.4571-.1826-.1147-.2774-.2788-.5-.3095-.292-.0406-.6475-.0747-.9424-.0879ZM22.2177825,20.8203189l.3349.166c-.4951.544-1.0673.7783-1.8016825.6763l-.3242175-.0464c.4589-.5928,1.0175-.7402189,1.791-.7959ZM22.7685824,30.5234186c-.1622-.0244186-.0391-.2607-.0479-.4116.1543176-.0234.249-.0552.4131-.061.0039-.1353.0029-.2251-.0087824-.3613.1034824.0151.1562824-.0391.2577824-.0245187.6016.086.877.3633186,1.4707.5069186-.4697.6836-1.2773.4653-2.0848999.3515ZM19.8720825,28.9775187c-.3057-.0576-.5576-.1831-.6338-.4941.3955-.063.6103-.0928,1.0088-.0381.54.0781.8271.2836813,1.3008.5444.3603.1982813.9218.2496.8642.6587-.0332.251-.3389.2832-.5898.2485813l-.5127-.0727814c.0634175-.1274.1357-.2217.2265-.3266-.4384-.3921-.7285-.6719-1.3183-.7554-.1006-.0132187-.253.2182-.3457.2353ZM23.3827824,12.9453191c.5576.3926.8545.8384,1.542.8584.0742176.4312.4482176.5292809.7344.8384.5195.5683.8232,1.0737,1.5869,1.1811.1318.0186.2109177-.0146.3457-.0097-.2012-.4942-.6816-.7119-.6055-1.2393.0469-.3237.3594-.428219.4043-.7519.0801-.543-.7343-.5064-1.207-.7691-.669-.3623-1.0127-.7998-1.7744-.9077-.6904-.0957-1.377-.0142-1.7021824.5986.1865824.0713.4687824.1861.6757824.2012Z" fill="url(#h)" fill-rule="evenodd"/>
                <g mask="url(#i)">
                  <g mix-blend-mode="screen" opacity=".3">
                    <path d="M38.859382,22.7246188c0,9.2924998-5.6259999,15.8095996-14.8456996,16.4535996-.9785.0697816-1.1162-.7744-.1612-1.001,7.8447998-1.8544,13.1572997-10.5433997,14.0205176-15.5423996.0888821-1.1543.986382-.8921.986382.0898Z" fill="#c9ffc9"/>
                    <path d="M39.293,22.7944188c0,9.2944998-5.6231178,15.8119996-14.8448176,16.4560996-.9794.0693-1.1181-.7778-.1621-1.002,7.8456998-1.8545184,13.1542997-10.5433997,14.0224996-15.5423996.0879-1.1553.9844179-.8936.9844179.0883Z" fill="none" stroke="#a7dbaa" stroke-miterlimit="3.8637" stroke-width="2.6693"/>
                    <path d="M39.074182,22.7588188c0,9.2943998-5.6229999,15.8109996-14.8436996,16.4559996-.9784824.0684-1.1192-.7753-.1621-1.0019,7.8466176-1.8535,13.1571997-10.5419997,14.0194996-15.5414996.0918-1.1558.9863-.8931.9863.0874Z" fill="none" stroke="#85cd92" stroke-miterlimit="3.8637" stroke-width="1.3347"/>
                    <path d="M38.859382,22.7246188c0,9.2924998-5.6259999,15.8095996-14.8456996,16.4535996-.9785.0697816-1.1162-.7744-.1612-1.001,7.8447998-1.8544,13.1572997-10.5433997,14.0205176-15.5423996.0888821-1.1543.986382-.8921.986382.0898Z" fill="none" stroke="#65bd7b" stroke-miterlimit="3.8637"/>
                  </g>
                </g>
                <path d="M11.0995827,13.4341191c.0986.2534-.3164.4204-.0361.4595.6172.0859.9658-.3741,1.582-.2867.208.0284.3066.0718.5088.1158-.0576.4121.083.6855.0254,1.0961-.0879.6177-.5956827.8296-.6836,1.4478-.0518.3818.1543.6201.0996,1.001-.0234.1758-.1279.2666-.1776827.4243l.0721827-.5278c-.1181-.0176-.166-.084-.2851-.100119-.6026-.084481-.4737.8154189-.7842,1.3256189-.5986.9649-1.1084,1.4917-1.2666,2.6083811-.2305,1.6426188.4717172,2.6114188.2412,4.2544188-.084.6177.252.9634.6318,1.4663.0889.0127.1797173.0098.2442-.0253-.1064827-1.377-.334-2.0971999-.293-3.4550999.3526.4686812.1563.9209.3965173,1.4331.4872827,1.0122.8104827,1.582,1.1210827,2.6727999.1113.3902-.1318.7442.0879173,1.0904.4677827.7241.6854827,1.2939,1.4296827,1.7583.4131.2534.8681.0024,1.209.3480814.5214.5401186.6142,1.2832186,1.3613174,1.3906186.3807826.0542.6190826-.1523,1.001-.1001.456.0664.1708826.7124.3495826,1.1314.1582.3628.6269.2363.9502.4897.3916.3096.4502175.8423.9502175.9126.2928825.041.4032825-.3037.6952825-.2612185.4697175.0659185.3174.7324185.249,1.2031185-.126.9077-1.2217,1.0244-1.3477,1.9331-.0244.1631.1436.2466.1221.4067815-.0322.2348184-.3379.2822184-.373.518-.0909.6465184.4082.9405184.7529,1.4815184.3047.479.2666.9516.7129,1.2988.6201.4926816,1.6601.5479,1.5488,1.3272-.1826,1.3046-1.3515,1.5459-2.0516999,2.6747999.124.0776.1914175.1474.3359.1684,1.5732.2188,2.3378999-.8711,3.8466999-1.3769,1.0224-.336,1.7197-.1924,2.6748176-.7036.501-.2579.5565823-.7598,1.0438823-1.0489,1.0156-.6054,1.753-.7588,2.5624999-1.6181.5127-.5415.4336177-1.1499.7949-1.8037.5186-.9292,1.1475-1.2461,1.5713-2.2353999-.1259-.0762-.1815822-.2036-.3427-.227l-1.086-.1514c-.6748-.0957185-1.1767-.689-1.082-1.3643-.7451-.1201-1.1738-.1518-1.9248-.2563-.9550823-.1333-1.1514-1.1787-2.1044999-1.314-.4121-.0571186-.5938.3955-1.0059.3378814-.5468-.0756814-.8056-.3524814-1.3496-.4291814-.3359-.0464-.498.2598-.6484.5674l-.2422.0254c-.0596-.2168-.0039-.3877.0273-.624.0137-.087-.1367-.0948-.1543-.1714-.6844824.188-.9121.9492-1.6162.8515-.1767-.0249-.2392-.2148-.4179-.2387186-.3193825-.044-.501.1699186-.8252.1235186-.6016-.0855186-1.1856-.5107-1.1016-1.1133.0313-.2202186.2783-.2754.3076-.4951.0801-.5439-.3525-.8882-.8545-1.1397l-.3681.0674-.5313-.0742c.0166-.102-.0351-.1699-.0205-.2715.0527-.3813.5664-.3999.6182174-.7837.0497826-.3349.0038826-.5512.124-.8784187l-.9687174-.1366813c-.4112.2559-.6124.7534-1.1132826.6826-.8809174-.124-1.417-1.0088-1.292-1.8891.1454826-1.043.6825826-2.2080999,1.7264826-2.0624999.3516.0498.5059.249.8545174.2998.253.0346.3290826-.313.5790826-.2774.6602.0918,1.4414.397,1.3516,1.0567-.085.603.3486,1.0234.8936,1.2929.0517175-.1406.0791-.2275.1152-.372l-.1543-1.9073187c.5166-.9012812,1.7861-.768,1.9277-1.7806812l.0957-.6753188c.1094175-.7773812.9854175-1.1347812,1.7608-1.0243812-.0508-.2915-.2353824-.4532-.1943824-.7461.044-.3238.4081824-.3628.7216824-.4375189-.0058.1323189-.0019.2231189.0088.3603189.7031-.1255,1.4717-.2431,1.5684-.9477.0136-.0869-.1358-.0943-.1563-.1724-.2305.0576-.3895824.125-.6415824.0897811-.334-.0467811-.2246176-.5262811-.1465176-.8602811-.208-.0283-.3261-.0298-.5371-.0142.1524-.2343.3672-.2773.6455-.3286l.335.1655c.1904-.0761.3203-.1474189.5117-.227.0645.2793-.0175824.6572.2754176.6992l1.2792823.1792c.0889-.3174-.3506-.3789-.5722823-.6196-.1963177-.2061.0400823-.5039-.1357177-.7383-.3028-.4018-.7471-.3291-1.1768-.5835-.7304-.4468-.7246-1.4341-1.5801-1.5542-.1611-.0225-.2216.2075-.3847.1851-.5703-.0816-.6582-.7515-1.2285-.8311-.1787-.0254-.2891.0342-.4571.0552.0186.3013.2354.4517.1914.7461-.0693.499-.7832.4736-.8534825.9722-.042.3095.1132825.4804.127.797281-.46-.0194811-.3252175-.660081-.6377175-.988781-.5371-.5546-1.7422-.395-1.6319-1.1733.1524-1.1006,2.0214999-.7485,2.1767999-1.8496.0117-.0869-.0879-.1328-.0908-.2065.1396175-.0264.2207-.0894.3681-.0674.4698.0649.6934.3808.9063.7993-.2813.0791-.4561.0557-.7402.1372.6084175.3696,1.1894175.2847,1.6172.855l.5791-.277919c-.1192-.212781-.2217-.345181-.4083-.507281.1241-.0273.2295-.0415.3604176-.0083-.2861176-.519-.8242176-.52-1.3154176-.858419-.4922-.3392809-.7265824-.7015809-1.3291-.7845809l.041-.2798c.0498-.3672.2939-.4986191.5293-.7798-.1543-.0801-.2471-.1553-.4257825-.1797-.3779175-.0542-.8633175-.0303-.916.3511-.0332175.2343.1942825.3115.2880825.5185-.167.1255-.2862.2162809-.4120825.3628.1337825.1221.2616825.2617.2333825.4522-.0157.1312809-.1523825.1416-.2666.2016-.2276-.4072-.5049-.6709-.4375-1.1406-.212.0161-.4834.0229-.5108.228-.0351.249.1582.3657.2774.5786-.2061.0904-.3398825.1919-.5752.1586809l-.5136825-.0731809c.0614825-.1392.2030825-.1792.2265825-.3408191l.082-.6020809c-.3399-.0166-.5185825-.105-.8604-.1523-.2773-.0406191-.6201.0473-.6581826.3266-.0439174.3106.2558826.4112.4452826.6612-.1425.0555809-.2197.165-.3779.1411-.3086-.043-.2021-.4907-.4443-.6763-.3242-.2534-.6494-.0742191-1.0655-.0889.0225-.3862-.0615-.8471-.4433-.8999-1.0712826-.1508-1.6875.3003-2.7040999.6978-.7588.2969-1.418.2041-2.0175999.7339ZM18.2753826,19.4722189c.5332-.1939.8584-.4771,1.4326174-.398.3651825.0517811.3300825.5117.6161825.732.3897.3081.7842.2744,1.1074.6347-.2627.2617-.4365.4468-.7959.5454.0469-.3227-.1142-.6733189-.4394-.7197-.5264-.0732-.2764.9189-.7588,1.1509-.0742-.4146-.1426-.6792-.0869-1.0908.0312-.2203.1973-.3306.3672-.4571-.1826-.1147-.2774-.2788-.5-.3095-.292-.0406-.6475-.0747-.9424-.0879ZM22.2177825,20.8203189l.3349.166c-.4951.544-1.0673.7783-1.8016825.6763l-.3242175-.0464c.4589-.5928,1.0175-.7402189,1.791-.7959ZM22.7685824,30.5234186c-.1622-.0244186-.0391-.2607-.0479-.4116.1543176-.0234.249-.0552.4131-.061.0039-.1353.0029-.2251-.0087824-.3613.1034824.0151.1562824-.0391.2577824-.0245187.6016.086.877.3633186,1.4707.5069186-.4697.6836-1.2773.4653-2.0848999.3515ZM19.8720825,28.9775187c-.3057-.0576-.5576-.1831-.6338-.4941.3955-.063.6103-.0928,1.0088-.0381.54.0781.8271.2836813,1.3008.5444.3603.1982813.9218.2496.8642.6587-.0332.251-.3389.2832-.5898.2485813l-.5127-.0727814c.0634175-.1274.1357-.2217.2265-.3266-.4384-.3921-.7285-.6719-1.3183-.7554-.1006-.0132187-.253.2182-.3457.2353ZM23.3827824,12.9453191c.5576.3926.8545.8384,1.542.8584.0742176.4312.4482176.5292809.7344.8384.5195.5683.8232,1.0737,1.5869,1.1811.1318.0186.2109177-.0146.3457-.0097-.2012-.4942-.6816-.7119-.6055-1.2393.0469-.3237.3594-.428219.4043-.7519.0801-.543-.7343-.5064-1.207-.7691-.669-.3623-1.0127-.7998-1.7744-.9077-.6904-.0957-1.377-.0142-1.7021824.5986.1865824.0713.4687824.1861.6757824.2012Z" fill="none" fill-rule="evenodd"/>
              </g>
            </g>
          </g>
        </g>
      </g>
    </g>
  </g>
</svg>