<?xml version='1.0' encoding='UTF-8'?>
<svg xmlns="http://www.w3.org/2000/svg" xmlns:xlink="http://www.w3.org/1999/xlink" width="48" height="48" viewBox="0 0 48 48">
  <defs>
    <radialGradient id="New_Gradient_200" data-name="New Gradient 200" cx="4.6561138" cy="-6.3705223" fx="4.6561138" fy="-6.3705223" r="13.7393868" gradientTransform="translate(25.7231 15.4131) scale(1.1072)" gradientUnits="userSpaceOnUse">
      <stop offset="0" stop-color="#328e36"/>
      <stop offset="1" stop-color="#00cd00"/>
    </radialGradient>
    <mask id="mask" x="30.6972762" y="9.02179" width="14.4208996" height="13.97821" maskUnits="userSpaceOnUse">
      <path d="M39.041,22.9614152l-6.0801239-7.7352998h3.5126999c0-1.4995.0303-3.5932999-2.1366999-3.9618999-1.8388761-.3111-2.8309999.3686-2.8309999.3686.916-1.1787,2.6415999-2.8720999,5.9139999-2.5770999,4.5361999.4082,4.2636999,5.9657998,4.2704999,6.1703998h3.4277999l-6.0771758,7.7352998Z" fill="#fff"/>
    </mask>
    <radialGradient id="New_Gradient_200-2" data-name="New Gradient 200" cx="31.5058762" cy="9.02179" fx="31.5058762" fy="9.02179" r="13.9229701" gradientTransform="matrix(1,0,0,1,0,0)" gradientUnits="userSpaceOnUse"><stop offset="0" stop-color="#328e36"/><stop offset="1" stop-color="#00cd00"/></radialGradient>
    <radialGradient id="radial-gradient" cx="9.0222996" cy="-3.44033" fx="9.0222996" fy="-3.44033" r="11.4416021" gradientTransform="translate(25.7231 15.4131) scale(1.1072)" gradientUnits="userSpaceOnUse">
      <stop offset="0" stop-color="#c9ffc9"/>
      <stop offset=".80899" stop-color="#00cd00"/>
      <stop offset="1" stop-color="#00cd00"/>
    </radialGradient>
    <linearGradient id="New_Gradient_103" data-name="New Gradient 103" x1="18.7745317" y1="43.597847" x2="41.6213813" y2="24.427064" gradientUnits="userSpaceOnUse">
      <stop offset="0" stop-color="#b2b2b2"/>
      <stop offset=".168533" stop-color="#e5e5e5"/>
      <stop offset=".230331" stop-color="#fff"/>
      <stop offset=".280899" stop-color="#e5e5e5"/>
      <stop offset="1" stop-color="#ccc"/>
    </linearGradient>
    <linearGradient id="linear-gradient" x1="19.9018346" y1="40.9545287" x2="37.1900747" y2="23.6662885" gradientUnits="userSpaceOnUse">
      <stop offset="0" stop-color="#b2b2b2"/>
      <stop offset=".168533" stop-color="#e5e5e5"/>
      <stop offset=".230331" stop-color="#fff"/>
      <stop offset=".280899" stop-color="#e5e5e5"/>
      <stop offset=".5" stop-color="#c2c2c2"/>
    </linearGradient>
    <linearGradient id="New_Gradient_102" data-name="New Gradient 102" x1="27.7737863" y1="31.4868014" x2="42.9542065" y2="46.6672216" gradientUnits="userSpaceOnUse">
      <stop offset="0" stop-color="#ccc"/>
      <stop offset="1" stop-color="#fff"/>
    </linearGradient>
    <linearGradient id="New_Gradient_101" data-name="New Gradient 101" x1="39.1263978" y1="47.4462421" x2="31.6168767" y2="30.5795816" gradientUnits="userSpaceOnUse">
      <stop offset="0" stop-color="#b2b2b2"/>
      <stop offset=".5" stop-color="#e5e5e5"/>
      <stop offset="1" stop-color="#fff"/>
    </linearGradient>
    <linearGradient id="New_Gradient_100" data-name="New Gradient 100" x1="41.4821877" y1="38.121109" x2="42.2295669" y2="40.1745163" gradientUnits="userSpaceOnUse">
      <stop offset="0" stop-color="#0f6124"/>
      <stop offset="1" stop-color="#219630"/>
    </linearGradient>
    <linearGradient id="New_Gradient_89" data-name="New Gradient 89" x1="15.7654883" y1="42.400553" x2="25.3365399" y2="32.8295014" gradientUnits="userSpaceOnUse">
      <stop offset="0" stop-color="#e5e5e5"/>
      <stop offset="1" stop-color="#ccc"/>
    </linearGradient>
    <linearGradient id="linear-gradient-2" x1="32.1690789" y1="33.5889545" x2="41.6671293" y2="24.0909042" gradientUnits="userSpaceOnUse">
      <stop offset="0" stop-color="#bfbfbf"/>
      <stop offset="1" stop-color="#f2f2f2"/>
    </linearGradient>
    <mask id="mask-1" x=".7265769" y="3.4653157" width="26.5790993" height="27.6498993" maskUnits="userSpaceOnUse">
      <path d="M11.9306767,17.8511153c0-1.1724.9511-2.3622999,2.1219999-2.6581999,1.1729-.2954,2.1230999.4145,2.1230999,1.5864s-.9502,2.3622999-2.1230999,2.6586847c-1.1709.2949153-2.1219999-.4145847-2.1219999-1.5868847ZM1.9267769,20.376c0-6.6972846,5.4286999-13.4970844,12.1258997-15.1874844,6.6983234-1.6905156,12.1279997,2.3685999,12.1279997,9.0653998,0,6.6977998-5.4296763,13.4970846-12.1279997,15.1879996-6.6971998,1.6904-12.1258997-2.3681999-12.1258997-9.065915Z" fill="#fff" fill-rule="evenodd"/>
    </mask>
    <mask id="mask-2" x=".7265769" y="3.4653157" width="26.5790993" height="27.6498993" maskUnits="userSpaceOnUse">
      <path d="M14.0526766,5.7969156c6.3633234-1.6065,11.5214997,2.2494999,11.5214997,8.6122998,0,6.3622998-5.1581763,12.8221997-11.5214997,14.4281996-6.3612998,1.606-11.5194997-2.2499999-11.5194997-8.6122998,0-6.3627998,5.1581999-12.8227997,11.5194997-14.4281996Z" fill="#fff"/>
    </mask>
    <linearGradient id="New_Gradient_87" data-name="New Gradient 87" x1="4.1391664" y1="9.2884523" x2="23.9679327" y2="25.3454707" gradientUnits="userSpaceOnUse">
      <stop offset="0" stop-color="#fff"/>
      <stop offset="1" stop-color="#ccc"/>
    </linearGradient>
    <radialGradient id="radial-gradient-2" cx="-140.2576541" cy="-10.2850783" fx="-140.2576541" fy="-10.2850783" r="15.033393" gradientTransform="translate(219.3278 27.9616) scale(1.4871)" gradientUnits="userSpaceOnUse">
      <stop offset="0" stop-color="#fff"/>
      <stop offset=".0189232" stop-color="#edf5f9"/>
      <stop offset=".0834349" stop-color="#b6d7e8"/>
      <stop offset=".1463504" stop-color="#89beda"/>
      <stop offset=".2062392" stop-color="#65abd0"/>
      <stop offset=".262314" stop-color="#4c9dc8"/>
      <stop offset=".3131118" stop-color="#3d94c3"/>
      <stop offset=".353932" stop-color="#3892c2"/>
      <stop offset=".7437657" stop-color="#378dbf"/>
      <stop offset="1" stop-color="#3786bb"/>
    </radialGradient>
    <radialGradient id="radial-gradient-3" cx="64.7514698" cy="-6.3482361" fx="64.7514698" fy="-6.3482361" r="29.8013879" gradientTransform="translate(-42.3583176 35.8788819) scale(.9142)" gradientUnits="userSpaceOnUse"><stop offset="0" stop-color="#fff"/><stop offset=".0189232" stop-color="#edf5f9"/><stop offset=".0834349" stop-color="#b6d7e8"/><stop offset=".1463504" stop-color="#89beda"/><stop offset=".2062392" stop-color="#65abd0"/><stop offset=".262314" stop-color="#4c9dc8"/><stop offset=".3131118" stop-color="#3d94c3"/><stop offset=".353932" stop-color="#3892c2"/><stop offset=".7437657" stop-color="#378dbf"/><stop offset="1" stop-color="#3786bb"/></radialGradient>
  </defs>
  <g id="Layer_1" data-name="Layer 1">
    <g>
      <path d="M39.041,22.9614152l-6.0801239-7.7352998h3.5126999c0-1.4995.0303-3.5932999-2.1366999-3.9618999-1.8388761-.3111-2.8309999.3686-2.8309999.3686.916-1.1787,2.6415999-2.8720999,5.9139999-2.5770999,4.5361999.4082,4.2636999,5.9657998,4.2704999,6.1703998h3.4277999l-6.0771758,7.7352998Z" fill="url(#New_Gradient_200)" stroke="#000" stroke-linecap="round" stroke-linejoin="round" stroke-width="2"/>
      <g mask="url(#mask)">
        <g>
          <path d="M39.041,22.9614152l-6.0801239-7.7352998h3.5126999c0-1.4995.0303-3.5932999-2.1366999-3.9618999-1.8388761-.3111-2.8309999.3686-2.8309999.3686.916-1.1787,2.6415999-2.8720999,5.9139999-2.5770999,4.5361999.4082,4.2636999,5.9657998,4.2704999,6.1703998h3.4277999l-6.0771758,7.7352998Z" fill="url(#New_Gradient_200-2)"/>
          <path d="M30.6972762,12.5483154s3.1952999-4.4398999,7.5321998-2.5931999c3.3231999,1.414,2.7255999,5.9218845,2.7255999,5.9218845h2.9022999l-5.6278999,7.123-7.5321998-10.4516846Z" fill="url(#radial-gradient)"/>
        </g>
      </g>
    </g>
  </g>
  <g id="Layer_9" data-name="Layer 9">
    <g>
      <path d="M25.9032763,44.7896146l-10.3114997-10.1777997c-.1055-.1196-.1602-.2778149-.1602-.4697v-5.6693999c0-.492715.3975-.9903.8916-1.1133l17.4892996-4.3320999c.2998-.0742.5645239.0059.7246.19l10.2880997,10.1483997c.1201.1524.1748242.3052.1748242.4882851v5.6699148c0,.4907-.3994242.9898-.8926242,1.1133l-17.4882996,4.3295999c-.2939.0747-.5556-.002-.7158-.1772Z" fill="url(#New_Gradient_103)" stroke="#000" stroke-miterlimit="3.8637" stroke-width="1.8248"/>
      <path d="M25.9032763,44.7896146l-10.3114997-10.1777997c-.1055-.1196-.1602-.2778149-.1602-.4697v-5.6693999c0-.492715.3975-.9903.8916-1.1133l17.4892996-4.3320999c.2998-.0742.5645239.0059.7246.19l10.3173997,10.1825997-18.9511995,11.3896997Z" fill="url(#linear-gradient)" fill-rule="evenodd"/>
      <path d="M26.6190763,37.5146148l17.4882996-4.3304999c.4932-.1216.8926242.1767.8926242.6698851v5.6699148c0,.4907-.3994242.9898-.8926242,1.1133l-17.4882996,4.3295999c-.4930763.124-.8935-.1768146-.8935-.668v-5.6674999c0-.4921.4004237-.9907.8935-1.1167Z" fill="url(#New_Gradient_102)" fill-rule="evenodd"/>
      <path d="M43.6005759,32.9424149c.8515-.2305,1.3994241.1963,1.3994241,1.0947v5.3837999c0,.6436-.4912242,1.2319-1.0869241,1.3813l-16.7489996,4.2724999c-.4550763.1128-1.3985.1191-1.3985-.9795v-5.5009999c0-.6421.4903-1.2304,1.086-1.3803l16.7489996-4.2714999ZM26.5663763,44.3286146c.0488.0025.1397,0,.2852-.0361l16.7508996-4.2719999c.3389-.0859.6075241-.4453.6075241-.7378v-5.3851999c0-.126,0-.1763-.0147242-.2173-.0527-.002-.1435.0063-.2802758.0425l-16.7509237,4.2743999c-.3409.0854-.6084.4433-.6084.7363v5.5014999l.0107.0937Z" fill="url(#New_Gradient_101)"/>
      <path d="M41.1171759,38.6089148l1.4785-.3433c.9463241-.2202.9463241,1.2012,0,1.4209l-1.4785.3418c-.9483.2216852-.9483-1.2007,0-1.4194Z" fill="url(#New_Gradient_100)"/>
      <line x1="41.0595759" y1="39.2109148" x2="42.4813759" y2="38.877" fill="none" stroke="#7cc771" stroke-linecap="round" stroke-miterlimit="3.8637" stroke-width="1.1405"/>
      <path d="M16.1132766,34.2583149l8.8759998,8.4877998-.045-2.8139999c-1.5322.7276-8.8309998-7.4486998-8.8309998-7.4486998v1.7749Z" fill="url(#New_Gradient_89)" fill-rule="evenodd"/>
      <path d="M33.9677761,23.812l8.9276998,8.5464149-9.1376998,2.4799999c9.6152239-5.9794998-1.8486-10.4854149-1.8486-10.4854149l2.0585999-.541Z" fill="url(#linear-gradient-2)" fill-rule="evenodd"/>
    </g>
    <g>
      <g>
        <path d="M11.9306767,17.8511153c0-1.1724.9511-2.3622999,2.1219999-2.6581999,1.1729-.2954,2.1230999.4145,2.1230999,1.5864s-.9502,2.3622999-2.1230999,2.6586847c-1.1709.2949153-2.1219999-.4145847-2.1219999-1.5868847ZM1.9267769,20.376c0-6.6972846,5.4286999-13.4970844,12.1258997-15.1874844,6.6983234-1.6905156,12.1279997,2.3685999,12.1279997,9.0653998,0,6.6977998-5.4296763,13.4970846-12.1279997,15.1879996-6.6971998,1.6904-12.1258997-2.3681999-12.1258997-9.065915Z" fill="#b2b2b2" fill-rule="evenodd" stroke="#000" stroke-miterlimit="3.8637" stroke-width="1.5"/>
        <g mask="url(#mask-1)">
          <g>
            <path d="M11.9306767,17.8511153c0-1.1724.9511-2.3622999,2.1219999-2.6581999,1.1729-.2954,2.1230999.4145,2.1230999,1.5864s-.9502,2.3622999-2.1230999,2.6586847c-1.1709.2949153-2.1219999-.4145847-2.1219999-1.5868847ZM1.9267769,20.376c0-6.6972846,5.4286999-13.4970844,12.1258997-15.1874844,6.6983234-1.6905156,12.1279997,2.3685999,12.1279997,9.0653998,0,6.6977998-5.4296763,13.4970846-12.1279997,15.1879996-6.6971998,1.6904-12.1258997-2.3681999-12.1258997-9.065915Z" fill="#b2b2b2" fill-rule="evenodd"/>
            <g mask="url(#mask-2)">
              <g>
                <path d="M14.0526766,5.7969156c6.3633234-1.6065,11.5214997,2.2494999,11.5214997,8.6122998,0,6.3622998-5.1581763,12.8221997-11.5214997,14.4281996-6.3612998,1.606-11.5194997-2.2499999-11.5194997-8.6122998,0-6.3627998,5.1581999-12.8227997,11.5194997-14.4281996Z" fill="url(#New_Gradient_87)"/>
                <g>
                  <polygon points="13.9950766 17.3169153 20.543 3.4653157 22.8954764 4.7129156 13.9950766 17.3169153" fill="#b2d6e8" fill-rule="evenodd"/>
                  <polygon points="25.0370763 6.5684156 13.9950766 17.3169153 22.8954764 4.7129156 25.0370763 6.5684156" fill="#f6f8b2" fill-rule="evenodd"/>
                  <polygon points="13.9950766 17.3169153 26.3222763 8.814 25.0370763 6.5684156 13.9950766 17.3169153" fill="#c8e9c2" fill-rule="evenodd"/>
                  <polygon points="13.9950766 17.3169153 27.1757763 11.4653155 26.3222763 8.814 13.9950766 17.3169153" fill="#e5c9b0" fill-rule="evenodd"/>
                  <polygon points="13.9950766 17.3169153 27.3056763 14.3857154 27.1757763 11.4653155 13.9950766 17.3169153" fill="#fff" fill-rule="evenodd"/>
                </g>
                <g>
                  <polygon points="14.0360766 17.2637153 7.4882768 31.115215 5.1356768 29.867215 14.0360766 17.2637153" fill="#b2d6e8" fill-rule="evenodd"/>
                  <polygon points="2.9940769 28.0122151 14.0360766 17.2637153 5.1356768 29.867215 2.9940769 28.0122151" fill="#f6f8b2" fill-rule="evenodd"/>
                  <polygon points="14.0360766 17.2637153 1.709 25.7671151 2.9940769 28.0122151 14.0360766 17.2637153" fill="#c8e9c2" fill-rule="evenodd"/>
                  <polygon points="14.0360766 17.2637153 .8544769 23.1152152 1.709 25.7671151 14.0360766 17.2637153" fill="#e5c9b0" fill-rule="evenodd"/>
                  <polygon points="14.0360766 17.2637153 .7265769 20.1953153 .8544769 23.1152152 14.0360766 17.2637153" fill="#fff" fill-rule="evenodd"/>
                </g>
              </g>
            </g>
            <path d="M14.0526766,13.0723154c2.3456999-.5913154,4.2451999.8296,4.2451999,3.1732999,0,2.3441999-1.8995,4.7240999-4.2451999,5.3158999-2.3426766.5918-4.2440999-.8286-4.2440999-3.1727999,0-2.3437999,1.9014233-4.7245999,4.2440999-5.3163999Z" fill="#999" stroke="#666" stroke-miterlimit="3.8637" stroke-width="1.05"/>
            <path d="M11.9306767,17.8511153c0-1.1724.9511-2.3622999,2.1219999-2.6581999,1.1729-.2954,2.1230999.4145,2.1230999,1.5864s-.9502,2.3622999-2.1230999,2.6586847c-1.1709.2949153-2.1219999-.4145847-2.1219999-1.5868847ZM1.9267769,20.376c0-6.6972846,5.4286999-13.4970844,12.1258997-15.1874844,6.6983234-1.6905156,12.1279997,2.3685999,12.1279997,9.0653998,0,6.6977998-5.4296763,13.4970846-12.1279997,15.1879996-6.6971998,1.6904-12.1258997-2.3681999-12.1258997-9.065915Z" fill="none" fill-rule="evenodd"/>
          </g>
        </g>
      </g>
      <g>
        <path d="M18.7313765,2.6226157c-.7138-.1817-1.4492.2323843-2.1864999.5263-.9326.3726-1.4628765.0679-2.2821999-.0908l.0898-.29c.1827-.5743-.5908-.6802-.7714-.1055l-2.8378999,8.9926998c-.7471-.899-2.1620999-1.1475-3.4081767-.73-1.044.3481-2.0811232,1.3979-1.6807232,2.5307999.5947232,1.6718,5.0897999,2.3153999,5.4687232-.5464.0341767-.0489.0615767-.1026.0810767-.1617154l1.6543-5.247c.3564,1.3784155,1.876.1479156,2.7246234-.5185844.9364765-.7358,2.1044765-1.729,3.1376765-1.3589.1162.0414844.6055.4184844.7568.2524844.209-.2197844.1377-.8368844.1299-1.0600844-.0243765-.7427-.1347-2.0049156-.876-2.1932999" fill="#d68112" fill-rule="evenodd" stroke="#000" stroke-width="1.5"/>
        <path d="M18.7313765,2.6226157c-.7138-.1817-1.4492.2323843-2.1864999.5263-.9326.3726-1.4628765.0679-2.2821999-.0908l.0898-.29c.1827-.5743-.5908-.6802-.7714-.1055l-2.8378999,8.9926998c-.7471-.899-2.1620999-1.1475-3.4081767-.73-1.044.3481-2.0811232,1.3979-1.6807232,2.5307999.5947232,1.6718,5.0897999,2.3153999,5.4687232-.5464.0341767-.0489.0615767-.1026.0810767-.1617154l1.6543-5.247c.3564,1.3784155,1.876.1479156,2.7246234-.5185844.9364765-.7358,2.1044765-1.729,3.1376765-1.3589.1162.0414844.6055.4184844.7568.2524844.209-.2197844.1377-.8368844.1299-1.0600844-.0243765-.7427-.1347-2.0049156-.876-2.1932999" fill="url(#radial-gradient-2)" fill-rule="evenodd"/>
      </g>
      <g>
        <path d="M27.7108763,20.6313152c.083-.2583152-.0507-.4834-.2783-.4892-.0928-.061-.2461-.1065-.4795-.1392l-3.4012999-.4677-.7177764-.1001-3.4004235-.4664c-.2373-.0336-.4072-.0292-.5273.002-.212-.064-.4795.1118-.5596.3726l-2.7870999,8.8265998c-.751-.9053-2.1952999-1.1426-3.4443999-.6821-.9589.353-1.8886,1.3179-1.5751767,2.3695999.335,1.1289,1.6210767,1.5523,2.7138766,1.4947.9619-.0479,2.5019999-.6207,2.6796999-1.9507.0332-.0479.0596-.1011.0781-.1587l1.8418-5.8393999c.0518.0113.1084.02.1709.0288l3.3993999.4668.7188.0987,3.3994236.4672c.0585763.0093.1132763.0147.1620763.0186l-1.5352,4.8695849c-.75-.904785-2.1942999-1.1434849-3.4442999-.681585-.958.3535-1.8887,1.3188-1.5742,2.3724999.334,1.1255,1.6211,1.5474,2.7108999,1.4932.9668-.0488,2.5048999-.624,2.6797236-1.9521149.0351763-.047885.0605763-.101585.0800763-.160185l3.0897999-9.7934998M26.0683763,22.7998152l-3.3994999-.4678152-.7207-.0975848-3.3973999-.4678c-.0635-.0068-.1201-.0146152-.1747765-.0176152l.3602765-1.1454848c.0518.0103.1084.021.1719.0293l3.3993999.4668.7178.0996,3.4003999.4687848c.0576.0068152.1133.0136152.1631.0166152l-.3614,1.1425c-.0488-.0102-.1014763-.019-.1591-.0273" fill="#d68112" fill-rule="evenodd" stroke="#000" stroke-width="1.5"/>
        <path d="M27.7108763,20.6313152c.083-.2583152-.0507-.4834-.2783-.4892-.0928-.061-.2461-.1065-.4795-.1392l-3.4012999-.4677-.7177764-.1001-3.4004235-.4664c-.2373-.0336-.4072-.0292-.5273.002-.212-.064-.4795.1118-.5596.3726l-2.7870999,8.8265998c-.751-.9053-2.1952999-1.1426-3.4443999-.6821-.9589.353-1.8886,1.3179-1.5751767,2.3695999.335,1.1289,1.6210767,1.5523,2.7138766,1.4947.9619-.0479,2.5019999-.6207,2.6796999-1.9507.0332-.0479.0596-.1011.0781-.1587l1.8418-5.8393999c.0518.0113.1084.02.1709.0288l3.3993999.4668.7188.0987,3.3994236.4672c.0585763.0093.1132763.0147.1620763.0186l-1.5352,4.8695849c-.75-.904785-2.1942999-1.1434849-3.4442999-.681585-.958.3535-1.8887,1.3188-1.5742,2.3724999.334,1.1255,1.6211,1.5474,2.7108999,1.4932.9668-.0488,2.5048999-.624,2.6797236-1.9521149.0351763-.047885.0605763-.101585.0800763-.160185l3.0897999-9.7934998M26.0683763,22.7998152l-3.3994999-.4678152-.7207-.0975848-3.3973999-.4678c-.0635-.0068-.1201-.0146152-.1747765-.0176152l.3602765-1.1454848c.0518.0103.1084.021.1719.0293l3.3993999.4668.7178.0996,3.4003999.4687848c.0576.0068152.1133.0136152.1631.0166152l-.3614,1.1425c-.0488-.0102-.1014763-.019-.1591-.0273" fill="url(#radial-gradient-3)" fill-rule="evenodd"/>
      </g>
    </g>
  </g>
</svg>