<?xml version='1.0' encoding='UTF-8'?>
<svg xmlns="http://www.w3.org/2000/svg" xmlns:xlink="http://www.w3.org/1999/xlink" id="Layer_1" data-name="Layer 1" width="48" height="48" viewBox="0 0 48 48">
  <defs>
    <linearGradient id="New_Gradient_267" data-name="New Gradient 267" x1="20.4589764" y1="9.0085678" x2="20.4589764" y2="36.0337733" gradientUnits="userSpaceOnUse">
      <stop offset="0" stop-color="#d9d9d9"/>
      <stop offset=".157303" stop-color="#f2f2f2"/>
      <stop offset=".29776" stop-color="#fff"/>
      <stop offset=".58989" stop-color="#f2f2f2"/>
      <stop offset="1" stop-color="#d9d9d9"/>
    </linearGradient>
    <mask id="mask" x="9.6591767" y="9.0085637" width="21.0018995" height="26.6418548" maskUnits="userSpaceOnUse">
      <path d="M11.1737767,13.4775191l18.0419995-4.4491999c.6651-.165,1.4453.7578,1.4453.7578l-.2412,19.6440995c0,.7153-.539,1.4277-1.2041,1.5907813l-18.3417762,4.6294185s-.9033233-.4624185-.9033233-1.1777V15.067419c0-.7149.5391-1.4258,1.2031-1.5899Z" fill="#fff" fill-rule="evenodd"/>
    </mask>
    <linearGradient id="New_Gradient_267-2" data-name="New Gradient 267" x1="20.3158764" y1="9.0085637" x2="20.3158764" y2="35.6504185" gradientUnits="userSpaceOnUse"><stop offset="0" stop-color="#d9d9d9"/><stop offset=".157303" stop-color="#f2f2f2"/><stop offset=".29776" stop-color="#fff"/><stop offset=".58989" stop-color="#f2f2f2"/><stop offset="1" stop-color="#d9d9d9"/></linearGradient>
    <mask id="mask-1" x="8.9589767" y="6.8440381" width="23.9433994" height="29.2425879" maskUnits="userSpaceOnUse">
      <path d="M11.7040767,14.004919l18.0409995-4.4472999c.6641-.1645,1.2022.2822,1.2022.9976v19.4037809c0,.7168186-.5381,1.4292186-1.2022,1.5932186l-18.0419995,4.4477814c-.665.1636185-1.2010767-.2831815-1.2010767-.999V15.597719c0-.7149.5360767-1.4273,1.2020767-1.5928Z" fill="#fff" fill-rule="evenodd"/>
    </mask>
    <mask id="mask-2" x="11.2181267" y="10.49371" width="18.9914233" height="24.6264985" maskUnits="userSpaceOnUse">
      <path d="M11.5126767,15.861319c0-.3769.3086-.7588.6807-.8486l17.0389996-4.2045999c.3789-.0908.6826238.1382.6826238.5147v18.4305995c0,.3779-.3037238.7588-.6826238.8511l-17.0389996,4.2001999c-.3721.0937-.6807-.1358-.6807-.5137185V15.861319Z" fill="#fff" stroke="#fff" stroke-miterlimit="3.8637" stroke-width=".5891"/>
    </mask>
    <linearGradient id="New_Gradient_266" data-name="New Gradient 266" x1="17.6508691" y1="9.5395114" x2="23.7731003" y2="36.0578082" gradientUnits="userSpaceOnUse">
      <stop offset="0" stop-color="#69c"/>
      <stop offset=".893265" stop-color="#b3e0ff"/>
      <stop offset="1" stop-color="#b3e0ff"/>
    </linearGradient>
    <mask id="mask-3" x="8.9589767" y="6.8440381" width="23.9433994" height="29.2425879" maskUnits="userSpaceOnUse">
      <polygon points="9.3056767 13.02 32.5556761 7.2866192 32.5556761 12.2739191 9.3056767 18.0068189 9.3056767 13.02" fill="#fff" stroke="#fff" stroke-miterlimit="3.8637" stroke-width=".6934"/>
    </mask>
    <linearGradient id="New_Gradient_265" data-name="New Gradient 265" x1="10.9402246" y1="5.1183736" x2="30.9213594" y2="20.1752387" gradientUnits="userSpaceOnUse">
      <stop offset="0" stop-color="#b2b2b2"/>
      <stop offset="1" stop-color="#fff"/>
    </linearGradient>
    <mask id="mask-4" x="14.1151766" y="33.5" width="29.6181803" height="8.7065184" maskUnits="userSpaceOnUse">
      <path d="M20.1054765,37.7593184c0-.7051-.8799-1.2783184-1.9678-1.2783184-1.085,0-1.9658.5732185-1.9658,1.2783184,0,.707.8808,1.2803,1.9658,1.2803,1.0879,0,1.9678-.5733,1.9678-1.2803ZM28.4960762,36.4946185h14.2821996l.6983.4541v.7398l-1.8467,1.2002-.585-.3814h-1.082l-.5332.3482-1.0322-.67h-.9834l-1.2823.836-.5957-.3862h-.9638l-.8741.5708h-1.039l-.6533-.4239-.6475.4219h-2.8241999l.0107.7744s-.081.2603-.5625.2603c-1.0195,0-.6601-.9053-1.622-.9053,0,0-.8663.2476-.8663.5801,0,.332-1.3476,2.2933816-5.4159999,2.2928999-4.9872999,0-5.9628998-2.6239999-5.9628998-4.3315183,0-1.7118815.9971-4.375,5.9628998-4.375,4.0683999,0,5.4159999,1.9609185,5.4159999,2.293,0,.332.8663.58.8663.58.9619,0,.5634-.9051815,1.581-.9051815.4824,0,.5635.3476.5635.3476l-.0088.6792Z" fill="#fff" fill-rule="evenodd"/>
    </mask>
    <linearGradient id="New_Gradient_263" data-name="New Gradient 263" x1="27.9444611" y1="42.4172443" x2="29.5454329" y2="33.3376816" gradientUnits="userSpaceOnUse">
      <stop offset="0" stop-color="#f2f2f2"/>
      <stop offset="1" stop-color="#b2b2b2"/>
    </linearGradient>
    <linearGradient id="New_Gradient_264" data-name="New Gradient 264" x1="17.7383674" y1="45.4369344" x2="39.5442938" y2="32.8472769" gradientUnits="userSpaceOnUse">
      <stop offset="0" stop-color="#fff"/>
      <stop offset="1" stop-color="#e5e5e5"/>
    </linearGradient>
    <linearGradient id="New_Gradient_251" data-name="New Gradient 251" x1="18.4867665" y1="32.876489" x2="20.4240758" y2="38.8389137" gradientUnits="userSpaceOnUse">
      <stop offset="0" stop-color="#fff"/>
      <stop offset=".112366" stop-color="#fff"/>
      <stop offset="1" stop-color="#ccc"/>
    </linearGradient>
    <linearGradient id="New_Gradient_245" data-name="New Gradient 245" x1="18.1164464" y1="37.8074219" x2="18.1164464" y2="39.73" gradientUnits="userSpaceOnUse">
      <stop offset="0" stop-color="#d9d9d9"/>
      <stop offset=".814606" stop-color="#fff"/>
      <stop offset="1" stop-color="#fff"/>
    </linearGradient>
    <mask id="mask-5" x="15.1615096" y="28.9207687" width="29.1047841" height="11.2542" maskUnits="userSpaceOnUse">
      <path d="M21.3456764,35.6938185c-.4053-.6552-1.5526764-.9707-2.5585999-.7065-1.0078.2651-1.4950765,1.0103-1.0889,1.6641.4092.6552,1.5538235.9715815,2.5615999.706,1.0078-.2641,1.4941-1.0088,1.0859-1.6636ZM28.3964762,32.4775186l13.2440997-3.4775186.9073.2515187.4257.686-1.0215,1.561-.7568-.2104-1.0068.2632-.2959.4541-1.3418-.3706-.9102.2381814-.7099,1.0874186-.7715-.2124186-.8926.2354186-.4863.7422-.96.2519-.8476-.2348-.3594.5488-2.6210999.6894815.459.7143185s.0752.2622-.3731.3809c-.9433.2461-1.1367-.6822185-2.0253999-.4468,0,0-.6591.4414-.4686763.748.1913763.3081.0722763,2.4550999-3.7022236,3.4467999-4.6239999,1.2124-7.0389998-.9824-8.0253998-2.5663999-.9843-1.5849-1.5957-4.2973999,3.0078999-5.5072999,3.7743999-.9898,6.1542998.499,6.3447235.8081.1903763.3071,1.1376763.3262,1.1376763.3262.8906-.2329,0-.9766.9424-1.2242.4463-.1186186.7246.1856.7246.1856l.3828.6313Z" fill="#fff" fill-rule="evenodd"/>
    </mask>
    <linearGradient id="New_Gradient_243" data-name="New Gradient 243" x1="31.2345194" y1="42.0843054" x2="27.7308464" y2="26.9082302" gradientUnits="userSpaceOnUse">
      <stop offset="0" stop-color="#ffff87"/>
      <stop offset="1" stop-color="#ffad00"/>
    </linearGradient>
    <linearGradient id="New_Gradient_244" data-name="New Gradient 244" x1="24.9475242" y1="39.2514206" x2="33.8973021" y2="30.3016426" gradientUnits="userSpaceOnUse">
      <stop offset="0" stop-color="#ffffb3"/>
      <stop offset="1" stop-color="#ffe900"/>
    </linearGradient>
    <linearGradient id="New_Gradient_195" data-name="New Gradient 195" x1="19.1886115" y1="31.0548009" x2="21.123193" y2="37.0088306" gradientUnits="userSpaceOnUse">
      <stop offset="0" stop-color="#ffffb3"/>
      <stop offset=".404495" stop-color="#ffffb3"/>
      <stop offset=".938202" stop-color="#ffcd00"/>
      <stop offset="1" stop-color="#ffcd00"/>
    </linearGradient>
    <linearGradient id="New_Gradient_70" data-name="New Gradient 70" x1="19.3973837" y1="35.2299094" x2="20.1810743" y2="38.3731208" gradientUnits="userSpaceOnUse">
      <stop offset="0" stop-color="#ffcd00"/>
      <stop offset=".578659" stop-color="#ffffb3"/>
      <stop offset="1" stop-color="#ffffb3"/>
    </linearGradient>
    <mask id="mask-6" x="6.4140768" y="31.6416186" width="14.0839232" height="10.6059997" maskUnits="userSpaceOnUse">
      <path d="M15.9560766,41.9619183c-.6944.1548-1.9776.2857-2.4990766.2857-3.5674233,0-7.0429232-2.1006183-7.0429232-5.3017999,0-3.2045999,3.4754999-5.3041999,7.0429232-5.3041999,3.5654765,0,7.041,2.0995999,7.041,5.3041999,0,.2007-.0097236.2661-.0224236.3428-.3485764.1499-1.2852.2798-1.9277-.0088.0078-.1631.0244-.1665.0244-.334,0-1.5923-1.9678-3.3793999-5.1152765-3.3793999-3.1513233,0-5.1201232,1.7871-5.1201232,3.3793999,0,1.5903,1.9688,3.3778999,5.1201232,3.3778999.4238766,0,.8408766-.0346.9950766-.0591,0,0,.4668,1.1167,1.504,1.6973Z" fill="#fff"/>
    </mask>
    <radialGradient id="New_Gradient_66" data-name="New Gradient 66" cx="18.5248424" cy="40.8179296" fx="18.5248424" fy="40.8179296" r="12.1093174" gradientUnits="userSpaceOnUse">
      <stop offset="0" stop-color="#333"/>
      <stop offset="1" stop-color="#999"/>
    </radialGradient>
    <linearGradient id="New_Gradient_68" data-name="New Gradient 68" x1="9.7322529" y1="39.1172331" x2="14.4122621" y2="41.3998261" gradientUnits="userSpaceOnUse">
      <stop offset="0" stop-color="gray"/>
      <stop offset="1" stop-color="#e5e5e5"/>
    </linearGradient>
    <linearGradient id="New_Gradient_67" data-name="New Gradient 67" x1="17.4039786" y1="34.8567026" x2="18.5656863" y2="36.0184103" gradientUnits="userSpaceOnUse">
      <stop offset="0" stop-color="#737373"/>
      <stop offset="1" stop-color="#d9d9d9"/>
    </linearGradient>
    <linearGradient id="New_Gradient_65" data-name="New Gradient 65" x1="8.5063616" y1="31.3495592" x2="16.0609966" y2="40.3528226" gradientUnits="userSpaceOnUse">
      <stop offset="0" stop-color="#fff"/>
      <stop offset=".146072" stop-color="#fff"/>
      <stop offset="1" stop-color="#737373"/>
    </linearGradient>
  </defs>
  <g>
    <path d="M11.1737767,13.4775191l18.0419995-4.4491999c.6162238-.1528,1.3281.6275,1.4307.7426808.1894.1841191.3008.4556191.3008.7842191v19.4037809c0,.7168186-.5381,1.4292186-1.2022,1.5932186l-18.0419995,4.4477814c-.5019.124-.9355-.1024815-1.1152-.5312815-.2637-.2001-.6172-.5483-.6172-.996V15.067419c0-.7149.5391-1.4258,1.2031-1.5899Z" fill="url(#New_Gradient_267)" stroke="#000" stroke-miterlimit="3.8637" stroke-width="2"/>
    <g mask="url(#mask)">
      <g>
        <path d="M11.1737767,13.4775191l18.0419995-4.4491999c.6651-.165,1.4453.7578,1.4453.7578l-.2412,19.6440995c0,.7153-.539,1.4277-1.2041,1.5907813l-18.3417762,4.6294185s-.9033233-.4624185-.9033233-1.1777V15.067419c0-.7149.5391-1.4258,1.2031-1.5899Z" fill="url(#New_Gradient_267-2)" fill-rule="evenodd"/>
        <polygon points="10.6532767 18.1182189 9.6591767 17.121619 9.9335767 16.844719 10.9296767 17.840319 10.6532767 18.1182189" fill="gray"/>
      </g>
    </g>
    <g mask="url(#mask-1)">
      <g>
        <path d="M11.7040767,14.004919l18.0409995-4.4472999c.6641-.1645,1.2022.2822,1.2022.9976v19.4037809c0,.7168186-.5381,1.4292186-1.2022,1.5932186l-18.0419995,4.4477814c-.665.1636185-1.2010767-.2831815-1.2010767-.999V15.597719c0-.7149.5360767-1.4273,1.2020767-1.5928Z" fill="#e5e5e5" fill-rule="evenodd"/>
        <path d="M30.5604762,10.0244191c.1133.1499.1788.353.1788.5899v19.3885995c0,.5948-.4462762,1.1905-1.002,1.3267l-18.0302762,4.4472999c-.2412233.06-.4668233.0185-.6425233-.0953" fill="none" stroke="#ccc" stroke-linecap="round" stroke-linejoin="round" stroke-width=".5646"/>
        <path d="M10.7362767,35.1943185c-.0205-.0781-.0254-.1616-.0254-.2505V15.554719c0-.596719.4454-1.1909.9961233-1.3262l18.0302762-4.4457999c.0479-.0127192.0967238-.0195.169-.0298" fill="none" stroke="#fff" stroke-linecap="round" stroke-miterlimit="3.8637" stroke-width=".6934"/>
        <g mask="url(#mask-2)">
          <g>
            <path d="M11.5126767,15.861319c0-.3769.3086-.7588.6807-.8486l17.0389996-4.2045999c.3789-.0908.6826238.1382.6826238.5147v18.4305995c0,.3779-.3037238.7588-.6826238.8511l-17.0389996,4.2001999c-.3721.0937-.6807-.1358-.6807-.5137185V15.861319Z" fill="url(#New_Gradient_266)"/>
            <path d="M12.2812767,35.1143185s0-2.9736999.6894-3.5893999c.5547-.582,4.2851999-2.6919186,4.8397999-3.2739186.2735235-.96.5518-1.1767813.5518-1.1767813.2744-.2163.5527235-.2851.5527235-.2851v-.4468c-.3711235.0928-.8496235-1.187-1.1377235-2.2958999-.0234-.0928-.2762765.0381-.332-.2456-.1015-.4473-.1084-.8472-.1084-1.1338188-.1094-.7138812.2051235-.5927812.1963-1.4833811-.0321765-3.7211999,3.1776999-4.6503999,3.1776999-4.6503999,0,0,3.1962999-.678219,3.1786999,3.0829999-.0019.8926.209.523.2364236,1.168.0292764.2915-.0274236.9619-.166,1.4414-.0528236.2798-.3496236.2363-.3555236.5033812-.2694764,1.2886188-.7168,2.6333188-1.0957,2.7275188v.4458s.2754-.0678.5537.0136813c0,0,.2764.0816187.5498.9033187.5557236.3091,4.2860999.5791,4.8368999.8886813.6914.2754187.6914,3.2481186.6914,3.2481186l-16.8592996,4.1581999Z" fill="#01326e"/>
            <polygon points="11.6015767 17.260319 29.7938762 12.7773191 29.7938762 13.5918191 11.6015767 18.0762189 11.6015767 17.260319" fill="#5587c0"/>
            <path d="M11.5126767,15.861319c0-.3769.3086-.7588.6807-.8486l17.0389996-4.2045999c.3789-.0908.6826238.1382.6826238.5147v18.4305995c0,.3779-.3037238.7588-.6826238.8511l-17.0389996,4.2001999c-.3721.0937-.6807-.1358-.6807-.5137185V15.861319Z" fill="none" stroke="gray" stroke-miterlimit="3.8637" stroke-width=".5891"/>
          </g>
        </g>
        <g mask="url(#mask-3)">
          <g>
            <polygon points="9.3056767 13.02 32.5556761 7.2866192 32.5556761 12.2739191 9.3056767 18.0068189 9.3056767 13.02" fill="url(#New_Gradient_265)"/>
            <path d="M10.7362767,35.1943185c-.0205-.0781-.0254-.1616-.0254-.2505V15.554719c0-.596719.4454-1.1909.9961233-1.3262l18.0302762-4.4457999c.0479-.0127192.0967238-.0195.169-.0298" fill="none" stroke="#fff" stroke-linecap="round" stroke-miterlimit="3.8637" stroke-width=".7027"/>
            <path d="M30.5604762,10.0244191c.1133.1499.1788.353.1788.5899v19.3885995c0,.5948-.4462762,1.1905-1.002,1.3267l-18.0302762,4.4472999c-.2412233.06-.4668233.0185-.6425233-.0953" fill="none" stroke="#ccc" stroke-linecap="round" stroke-linejoin="round" stroke-width=".5646"/>
            <polygon points="9.3056767 13.02 32.5556761 7.2866192 32.5556761 12.2739191 9.3056767 18.0068189 9.3056767 13.02" fill="none" stroke="gray" stroke-miterlimit="3.8637" stroke-width=".6934"/>
          </g>
        </g>
      </g>
    </g>
  </g>
  <g>
    <path d="M28.9237762,36.4946185c-.1299-.0771-.2656-.146-.4247762-.1753l-.0029238.1753h.4277ZM18.3563765,37.2021185c.0752.0362.1563.0678815.2374.0972l-.043-.0766c-.0635-.0083-.1279-.0162-.1944-.0206ZM15.1620766,35.1201185c-.0039-.4282.0899234-.8623.3213-1.2798-.6016-.1728-1.2803-.2739-2.0263766-.2739-3.1513233,0-5.1201232,1.7871-5.1201232,3.3793999,0,1.5903,1.9688,3.3778999,5.1201232,3.3778999.4238766,0,.8408766-.0346.9950766-.0591,0,0,.0372.0943.1202.2422-.3438-.6513-.4571-1.3398184-.4571-1.9204,0-.1147.0049-.2334184.0137-.3535-.0088-.123-.0137-.2436-.0137-.3579184,0-.8314815.2354-1.8866815,1.0469-2.7548815ZM28.3964762,32.4775186l13.2440997-3.4775186.9073.2515187.4257.686v.7119l-1.0215,1.5625-.7568-.2119186-1.0068.2637186-.2959.455-1.3418-.3725-.9102.2402-.7099,1.0874-.7715-.2134-.8926.2349-.4863.7416814-.96.2539185-.8476-.2353-.3594.5483-2.2275999.5928.0655.0986s.0244.0918-.0469.1934l.0469.5195s.0097.0356,0,.0864h12.3270997l.6983.4541v1.4527l-1.8467,1.1997-.585-.3809h-1.082l-.5332.3482-1.0322-.6695h-.9834l-1.2823.835-.5957-.3858h-.9638l-.8741.5698816h-1.039l-.6533-.4218816-.6475.4204h-2.8134999l-.0097.0864.0097.6875s-.081.2617-.5625.2617c-1.0195,0-.6601-.9052-1.622-.9052,0,0-.8663.249-.8663.5780816,0,.333-1.3476,2.2935183-5.4159999,2.2935183-1.9082,0-3.2303999-.3833-4.1346999-.9546-.6943766.1543-1.9678.2837-2.4863766.2837-3.5674233,0-7.0429232-2.1006183-7.0429232-5.3017999,0-3.2045999,3.4754999-5.3041999,7.0429232-5.3041999,1.2763766,0,2.541.269,3.6406765.7627.4775-.2471,1.0615-.4668,1.7666-.6538,3.7743999-.9898,6.1542998.499,6.3447235.8081.1903763.3071,1.1376763.3262,1.1376763.3262.8906-.2329,0-.9766.9424-1.2242.4463-.1186186.7246.1856.7246.1856l.3828.6313Z" fill="gray" stroke="#000" stroke-linecap="round" stroke-linejoin="round" stroke-width="2"/>
    <path d="M20.1054765,38.4731184c0-.706-.8799-1.2788-1.9678-1.2788-1.085,0-1.9658.5728-1.9658,1.2788,0,.7051.8808,1.2778816,1.9658,1.2778816,1.0879,0,1.9678-.5727816,1.9678-1.2778816ZM28.4960762,37.208h14.2821996l.6983.4531184v.7403l-1.8467,1.1997-.585-.3809h-1.082l-.5332.3482-1.0322-.6695h-.9834l-1.2823.835-.5957-.3858h-.9638l-.8741.5698816h-1.039l-.6533-.4218816-.6475.4204h-2.8241999l.0107.7739s-.081.2617-.5625.2617c-1.0195,0-.6601-.9052-1.622-.9052,0,0-.8663.249-.8663.5780816,0,.333-1.3476,2.2935183-5.4159999,2.2935183-4.9872999,0-5.9628998-2.6225999-5.9628998-4.3320999,0-1.7099.9971-4.3724999,5.9628998-4.3724999,4.0683999,0,5.4159999,1.9604,5.4159999,2.2923999,0,.3311.8663.5801.8663.5801.9619,0,.5634-.9062,1.581-.9062.4824,0,.5635.3476.5635.3476l-.0088.6801815Z" fill="gray" fill-rule="evenodd"/>
    <g mask="url(#mask-4)">
      <g>
        <path d="M20.1054765,37.7593184c0-.7051-.8799-1.2783184-1.9678-1.2783184-1.085,0-1.9658.5732185-1.9658,1.2783184,0,.707.8808,1.2803,1.9658,1.2803,1.0879,0,1.9678-.5733,1.9678-1.2803ZM28.4960762,36.4946185h14.2821996l.6983.4541v.7398l-1.8467,1.2002-.585-.3814h-1.082l-.5332.3482-1.0322-.67h-.9834l-1.2823.836-.5957-.3862h-.9638l-.8741.5708h-1.039l-.6533-.4239-.6475.4219h-2.8241999l.0107.7744s-.081.2603-.5625.2603c-1.0195,0-.6601-.9053-1.622-.9053,0,0-.8663.2476-.8663.5801,0,.332-1.3476,2.2933816-5.4159999,2.2928999-4.9872999,0-5.9628998-2.6239999-5.9628998-4.3315183,0-1.7118815.9971-4.375,5.9628998-4.375,4.0683999,0,5.4159999,1.9609185,5.4159999,2.293,0,.332.8663.58.8663.58.9619,0,.5634-.9051815,1.581-.9051815.4824,0,.5635.3476.5635.3476l-.0088.6792Z" fill="url(#New_Gradient_263)" fill-rule="evenodd"/>
        <path d="M24.7030763,37.0063185h18.6729237c.4764759,0,.4764759.712,0,.712h-17.8467237c-.4746,0-1.3008-.712-.8262-.712Z" fill="#666"/>
        <line x1="24.748" y1="37.1011185" x2="43.4198759" y2="37.1011185" fill="none" stroke="#fff" stroke-linecap="round" stroke-miterlimit="3.8637" stroke-width=".4623"/>
        <path d="M14.6767766,38.79s.8349,2.9776183,5.1982234,2.9776183c5.1571763,0,5.2431763-2.8516183,5.4931763-2.8516183h18.2391995v-.7977816h-21.9315994s-.3301,2.1849999-3.8525999,2.1849999c-2.2626999,0-3.1463999-1.5132184-3.1463999-1.5132184Z" fill="url(#New_Gradient_264)" fill-rule="evenodd"/>
        <path d="M20.1054765,37.7593184c0-.7051-.8799-1.2783184-1.9678-1.2783184-1.085,0-1.9658.5732185-1.9658,1.2783184,0,.707.8808,1.2803,1.9658,1.2803,1.0879,0,1.9678-.5733,1.9678-1.2803ZM28.4960762,36.4946185h14.2821996l.6983.4541v.7398l-1.8467,1.2002-.585-.3814h-1.082l-.5332.3482-1.0322-.67h-.9834l-1.2823.836-.5957-.3862h-.9638l-.8741.5708h-1.039l-.6533-.4239-.6475.4219h-2.8241999l.0107.7744s-.081.2603-.5625.2603c-1.0195,0-.6601-.9053-1.622-.9053,0,0-.8663.2476-.8663.5801,0,.332-1.3476,2.2933816-5.4159999,2.2928999-4.9872999,0-5.9628998-2.6239999-5.9628998-4.3315183,0-1.7118815.9971-4.375,5.9628998-4.375,4.0683999,0,5.4159999,1.9609185,5.4159999,2.293,0,.332.8663.58.8663.58.9619,0,.5634-.9051815,1.581-.9051815.4824,0,.5635.3476.5635.3476l-.0088.6792Z" fill="none" fill-rule="evenodd"/>
      </g>
    </g>
    <path d="M14.3642766,37.5669185s.0058-.2578.1142-.6416c.6934-2.4760999,3.2431999-3.2685999,5.6073999-3.2685999,3.8906999,0,4.9648999,2.0258999,5.0126999,2.1230999.211.4258-.4267.7441-.6377.3193l-.0302-.0522c-.8389-1.3159185-2.9775999-1.6768-4.3447999-1.6768-2.0047999,0-4.3202999.6035-4.9217999,2.7480999-.0782.2832-.0879.4726-.0879.4726-.0176.4746-.7305.4497-.7119-.0239Z" fill="url(#New_Gradient_251)"/>
    <path d="M15.9101766,38.0937184s.0068234.0557.039.1407c.3008234.8042,1.4121.9619,2.1269999.9619.6787,0,2.1024999-.2276,2.2489999-1.1533184.0439-.3544816.5732-.2895816.5293.0654184,0,0-.0117.1143-.0811.2847-.4228,1.0507-1.6806,1.3368816-2.6971999,1.3368816-.9151,0-2.6152999-.3778816-2.6991765-1.5883816-.0293234-.355.5028766-.4023.5331766-.0479Z" fill="url(#New_Gradient_245)"/>
    <path d="M21.3456764,36.4082185c-.4053-.6562185-1.5526764-.9727-2.5585999-.708-1.0078.2646-1.4950765,1.0097815-1.0889,1.6641.4092.6543,1.5538235.9711,2.5615999.7065,1.0078-.2651,1.4941-1.0098184,1.0859-1.6626ZM28.3964762,33.1899186l13.2440997-3.4764999,1.3623.2431-.0293.6929-1.0215,1.5625-.7568-.2119186-1.0068.2637186-.2959.455-1.3418-.3725-.9102.2402-.7099,1.0874-.7715-.2134-.8926.2349-.4863.7416814-.96.2539185-.8476-.2353-.3594.5483-2.2362761.5947.0741762.8096s.0752.2617-.3731.3784c-.9433.249-1.1367-.6792-2.0253999-.4448,0,0-.6591.4414-.4686763.7495.1913763.3081.0722763,2.4535999-3.7022236,3.4438999-4.6239999,1.2163-7.0389998-.98-8.0253998-2.5644999-.9843-1.585-1.5957-4.2982999,3.0078999-5.5058999,3.7743999-.9921,6.1542998.4981,6.3447235.8061814.1903763.3061186,1.1376763.3267186,1.1376763.3267186.8906-.2334,0-.9771.9424-1.2256.4463-.1167.7246.1865.7246.1865l.3828.6313Z" fill="#d68100" fill-rule="evenodd"/>
    <g mask="url(#mask-5)">
      <g>
        <path d="M21.3456764,35.6938185c-.4053-.6552-1.5526764-.9707-2.5585999-.7065-1.0078.2651-1.4950765,1.0103-1.0889,1.6641.4092.6552,1.5538235.9715815,2.5615999.706,1.0078-.2641,1.4941-1.0088,1.0859-1.6636ZM28.3964762,32.4775186l13.2440997-3.4775186.9073.2515187.4257.686-1.0215,1.561-.7568-.2104-1.0068.2632-.2959.4541-1.3418-.3706-.9102.2381814-.7099,1.0874186-.7715-.2124186-.8926.2354186-.4863.7422-.96.2519-.8476-.2348-.3594.5488-2.6210999.6894815.459.7143185s.0752.2622-.3731.3809c-.9433.2461-1.1367-.6822185-2.0253999-.4468,0,0-.6591.4414-.4686763.748.1913763.3081.0722763,2.4550999-3.7022236,3.4467999-4.6239999,1.2124-7.0389998-.9824-8.0253998-2.5663999-.9843-1.5849-1.5957-4.2973999,3.0078999-5.5072999,3.7743999-.9898,6.1542998.499,6.3447235.8081.1903763.3071,1.1376763.3262,1.1376763.3262.8906-.2329,0-.9766.9424-1.2242.4463-.1186186.7246.1856.7246.1856l.3828.6313Z" fill="url(#New_Gradient_243)" fill-rule="evenodd"/>
        <g>
          <path d="M25.7812763,33.8809185l18.0331995-4.8329999c.4628-.1226.6445241.5649.1855241.6889l-17.2363237,4.6176999c-.46.125-1.4444-.3511-.9824-.4736Z" fill="#c96b00"/>
          <line x1="25.7606763" y1="33.9849185" x2="43.7958759" y2="29.1519187" fill="none" stroke="#fff" stroke-linecap="round" stroke-miterlimit="3.8637" stroke-width=".4623"/>
        </g>
        <path d="M22.8495764,35.7959185l19.4970995-5.3231999-.5889.9179s-14.1727759,4.0282999-14.6747759,4.1967999c-.5059237.168,1.4247762,2.3676999-3.3506236,3.7338999-4.5311999,1.2949-6.6259998-1.1782-6.6259998-1.1782,0,0,3.1866235,1.6811,5.3642999-.5039.8369-.8389.3789-1.8433.3789-1.8433Z" fill="url(#New_Gradient_244)" fill-rule="evenodd"/>
        <path d="M21.3456764,35.6938185c-.4053-.6552-1.5526764-.9707-2.5585999-.7065-1.0078.2651-1.4950765,1.0103-1.0889,1.6641.4092.6552,1.5538235.9715815,2.5615999.706,1.0078-.2641,1.4941-1.0088,1.0859-1.6636ZM28.3964762,32.4775186l13.2440997-3.4775186.9073.2515187.4257.686-1.0215,1.561-.7568-.2104-1.0068.2632-.2959.4541-1.3418-.3706-.9102.2381814-.7099,1.0874186-.7715-.2124186-.8926.2354186-.4863.7422-.96.2519-.8476-.2348-.3594.5488-2.6210999.6894815.459.7143185s.0752.2622-.3731.3809c-.9433.2461-1.1367-.6822185-2.0253999-.4468,0,0-.6591.4414-.4686763.748.1913763.3081.0722763,2.4550999-3.7022236,3.4467999-4.6239999,1.2124-7.0389998-.9824-8.0253998-2.5663999-.9843-1.5849-1.5957-4.2973999,3.0078999-5.5072999,3.7743999-.9898,6.1542998.499,6.3447235.8081.1903763.3071,1.1376763.3262,1.1376763.3262.8906-.2329,0-.9766.9424-1.2242.4463-.1186186.7246.1856.7246.1856l.3828.6313Z" fill="none" fill-rule="evenodd"/>
      </g>
    </g>
    <path d="M15.6737766,36.1055185s-.0537-.1309-.1035-.3472c-.9004-4.0863999,6.9110998-4.9940999,9.2314998-3.1181999.3339.2686-.0704.7666-.4043.4986-2.2226999-1.7979-9.4013998-.4868-8.1298998,2.7255999.1631.3955-.4335765.6391-.5938.2412Z" fill="url(#New_Gradient_195)"/>
    <path d="M17.7948765,36.9487185c.9961235,1.2378,4.3329999.7032,3.8007999-.9883-.2636764-.333.4326-.895.5635.0884.3047,2.3129999-3.7929999,2.7748999-4.8095999,1.1939-.1973-.2969.25-.5918.4453-.294Z" fill="url(#New_Gradient_70)"/>
    <g mask="url(#mask-6)">
      <g>
        <path d="M15.9560766,41.9619183c-.6944.1548-1.9776.2857-2.4990766.2857-3.5674233,0-7.0429232-2.1006183-7.0429232-5.3017999,0-3.2045999,3.4754999-5.3041999,7.0429232-5.3041999,3.5654765,0,7.041,2.0995999,7.041,5.3041999,0,.2007-.0097236.2661-.0224236.3428-.3485764.1499-1.2852.2798-1.9277-.0088.0078-.1631.0244-.1665.0244-.334,0-1.5923-1.9678-3.3793999-5.1152765-3.3793999-3.1513233,0-5.1201232,1.7871-5.1201232,3.3793999,0,1.5903,1.9688,3.3778999,5.1201232,3.3778999.4238766,0,.8408766-.0346.9950766-.0591,0,0,.4668,1.1167,1.504,1.6973Z" fill="url(#New_Gradient_66)"/>
        <path d="M9.541,39.498s.084.0811184.2597767.2017184c1.4092233.9478,3.5995999.9922,5.1766999.8169.3555234-.0371.4141.4922.0586.5322-1.4540766.1611816-4.6532999.1138-5.8768999-1.1797-.249-.2558.1357-.6274.3818233-.3711184Z" fill="url(#New_Gradient_68)"/>
        <path d="M16.873,33.4966186s.1865765.0815.4580765.2461c1.3085.7934,2.3377999,2.0912815,2.0429235,3.7538999-.0605235.3511-.5869235.2588-.5244235-.0913.2666-1.521-.9033-2.8456999-2.1923999-3.4203999-.3281-.1431-.1093-.6333.2158235-.4883Z" fill="url(#New_Gradient_67)"/>
      </g>
    </g>
    <path d="M7.9784768,39.8511184s-.126-.1265-.3017-.3535c-.8907-1.1724-1.2597768-2.6542999-.6524-4.0810999.9873-2.3270999,5.0996232-4.8436999,10.3046997-2.6449999.3262.1391.1191.6328-.209.4931-4.9716999-2.0999999-8.7489998.3413814-9.6044998,2.3588999-.5488,1.2944815-.125,2.8774815.8428,3.8486999.25.2524-.1279.6317816-.3799.3789Z" fill="url(#New_Gradient_65)"/>
  </g>
</svg>