<?xml version='1.0' encoding='UTF-8'?>
<svg xmlns="http://www.w3.org/2000/svg" xmlns:xlink="http://www.w3.org/1999/xlink" id="Layer_1" data-name="Layer 1" width="24" height="24" viewBox="0 0 24 24">
  <defs>
    <radialGradient id="radial-gradient" cx="8.7575867" cy="4.1933125" fx="8.7575867" fy="4.1933125" r="17.6217265" gradientTransform="translate(8.0738) scale(1.0276 1)" gradientUnits="userSpaceOnUse">
      <stop offset="0" stop-color="#fff"/>
      <stop offset="1" stop-color="#cacaca"/>
    </radialGradient>
    <radialGradient id="radial-gradient-2" cx="-14.046909" cy="4.7461405" fx="-14.046909" fy="4.7461405" r="3.8409404" gradientTransform="translate(24.3932 4.6933884) scale(1.3835 .944)" gradientUnits="userSpaceOnUse">
      <stop offset="0" stop-color="#fff"/>
      <stop offset=".331467" stop-color="#f7f7f7"/>
      <stop offset=".561798" stop-color="#d6d6d6"/>
      <stop offset=".865173" stop-color="#8c8c8c"/>
    </radialGradient>
    <radialGradient id="radial-gradient-3" cx="2.6728732" cy="-12.0809156" fx="2.6728732" fy="-12.0809156" r="18.1706677" gradientTransform="translate(8.0738 13.7186) scale(1.0276 .7273)" gradientUnits="userSpaceOnUse">
      <stop offset="0" stop-color="#fff"/>
      <stop offset=".1317347" stop-color="#fcfcfc"/>
      <stop offset=".2296964" stop-color="#f2f2f2"/>
      <stop offset=".316744" stop-color="#e2e2e2"/>
      <stop offset=".3974831" stop-color="#cbcbcb"/>
      <stop offset=".4738526" stop-color="#aeaeae"/>
      <stop offset=".5458712" stop-color="#8a8a8a"/>
      <stop offset=".612359" stop-color="#636363"/>
      <stop offset="1" stop-color="#000"/>
    </radialGradient>
    <radialGradient id="radial-gradient-4" cx="-15.6127992" cy="82.1527423" fx="-15.6127992" fy="82.1527423" r="8.4570557" gradientTransform="translate(-59.586 43.1954) rotate(-134.5723832) scale(1.3643298 .9572899) skewX(-1.0925723)" gradientUnits="userSpaceOnUse"><stop offset="0" stop-color="#fff"/><stop offset=".331467" stop-color="#f7f7f7"/><stop offset=".561798" stop-color="#d6d6d6"/><stop offset=".865173" stop-color="#8c8c8c"/></radialGradient>
    <radialGradient id="radial-gradient-5" cx="-17.3683988" cy="85.2238966" fx="-17.3683988" fy="85.2238966" r="8.4697889" gradientTransform="translate(-59.586 43.1954) rotate(-134.5723832) scale(1.3643298 .9572899) skewX(-1.0925723)" gradientUnits="userSpaceOnUse"><stop offset="0" stop-color="#fff"/><stop offset=".331467" stop-color="#f7f7f7"/><stop offset=".561798" stop-color="#d6d6d6"/><stop offset=".865173" stop-color="#8c8c8c"/></radialGradient>
    <mask id="mask" x="11.2196015" y="5.662777" width="12.9676949" height="9.1524724" maskUnits="userSpaceOnUse">
      <path d="M21.4517964,8.4019c0,2.5469-3.0488999,3.6914-7.5243998,3.8672-.4756.0195-.542-.2119-.0791-.2735,3.8075999-.5078,6.7049998-2.248,7.1249998-3.6191.0439-.3164.4785-.2441.4785.0254Z" fill="#fff"/>
    </mask>
    <radialGradient id="radial-gradient-6" cx="6.3978259" cy="17.6542497" fx="6.3978259" fy="17.6542497" r="2.2310234" gradientTransform="translate(1.1991 -3.5725)" gradientUnits="userSpaceOnUse">
      <stop offset="0" stop-color="#ccf"/>
      <stop offset=".0960257" stop-color="#c8caff"/>
      <stop offset=".1899474" stop-color="#bcc6ff"/>
      <stop offset=".2830687" stop-color="#a8bfff"/>
      <stop offset=".3757257" stop-color="#8db4ff"/>
      <stop offset=".468052" stop-color="#69a7ff"/>
      <stop offset=".5601728" stop-color="#3d97ff"/>
      <stop offset=".6504703" stop-color="#0b85ff"/>
      <stop offset=".668539" stop-color="#0081ff"/>
      <stop offset="1" stop-color="#0019b5"/>
    </radialGradient>
    <radialGradient id="radial-gradient-7" cx="11.9131622" cy="20.0803053" fx="11.9131622" fy="20.0803053" r="1.8350263" gradientTransform="translate(3.2058 -3.3542029) rotate(-.8193557)" gradientUnits="userSpaceOnUse"><stop offset="0" stop-color="#ccf"/><stop offset=".0960257" stop-color="#c8caff"/><stop offset=".1899474" stop-color="#bcc6ff"/><stop offset=".2830687" stop-color="#a8bfff"/><stop offset=".3757257" stop-color="#8db4ff"/><stop offset=".468052" stop-color="#69a7ff"/><stop offset=".5601728" stop-color="#3d97ff"/><stop offset=".6504703" stop-color="#0b85ff"/><stop offset=".668539" stop-color="#0081ff"/><stop offset="1" stop-color="#0019b5"/></radialGradient>
    <radialGradient id="radial-gradient-8" cx="18.4735514" cy="19.8526939" fx="18.4735514" fy="19.8526939" r="1.5887031" gradientTransform="translate(-1.3646 2.4462)" gradientUnits="userSpaceOnUse"><stop offset="0" stop-color="#ccf"/><stop offset=".0960257" stop-color="#c8caff"/><stop offset=".1899474" stop-color="#bcc6ff"/><stop offset=".2830687" stop-color="#a8bfff"/><stop offset=".3757257" stop-color="#8db4ff"/><stop offset=".468052" stop-color="#69a7ff"/><stop offset=".5601728" stop-color="#3d97ff"/><stop offset=".6504703" stop-color="#0b85ff"/><stop offset=".668539" stop-color="#0081ff"/><stop offset="1" stop-color="#0019b5"/></radialGradient>
    <radialGradient id="radial-gradient-9" cx="27.9487268" cy="55.3245434" fx="27.9487268" fy="55.3245434" r="1.5889202" gradientTransform="translate(-14.0494 -26.2884) rotate(-.2742716) scale(.8356096)" gradientUnits="userSpaceOnUse"><stop offset="0" stop-color="#ccf"/><stop offset=".0960257" stop-color="#c8caff"/><stop offset=".1899474" stop-color="#bcc6ff"/><stop offset=".2830687" stop-color="#a8bfff"/><stop offset=".3757257" stop-color="#8db4ff"/><stop offset=".468052" stop-color="#69a7ff"/><stop offset=".5601728" stop-color="#3d97ff"/><stop offset=".6504703" stop-color="#0b85ff"/><stop offset=".668539" stop-color="#0081ff"/><stop offset="1" stop-color="#0019b5"/></radialGradient>
    <radialGradient id="radial-gradient-10" cx="47.0146858" cy="71.5141927" fx="47.0146858" fy="71.5141927" r="1.5884413" gradientTransform="translate(-14.6529 -35.2414) rotate(-1.0187764) scale(.6974102)" gradientUnits="userSpaceOnUse"><stop offset="0" stop-color="#ccf"/><stop offset=".0960257" stop-color="#c8caff"/><stop offset=".1899474" stop-color="#bcc6ff"/><stop offset=".2830687" stop-color="#a8bfff"/><stop offset=".3757257" stop-color="#8db4ff"/><stop offset=".468052" stop-color="#69a7ff"/><stop offset=".5601728" stop-color="#3d97ff"/><stop offset=".6504703" stop-color="#0b85ff"/><stop offset=".668539" stop-color="#0081ff"/><stop offset="1" stop-color="#0019b5"/></radialGradient>
  </defs>
  <g>
    <g>
      <g opacity=".75">
        <polygon points="16.024 14.2281 17.4761965 16.5367 14.7993966 20.1245 16.0347966 16.5425 14.2896966 13.4644 15.5015966 12.0913 18.0962965 12.0806 16.024 14.2281" fill="#ffe900" fill-rule="evenodd" stroke="#d68112" stroke-width=".75"/>
        <polyline points="15.9185966 12.1597 14.7388966 13.4878 16.3853966 16.4312 15.277 19.3863" fill="none" fill-rule="evenodd" stroke="#ffffb3" stroke-width="2.5"/>
        <polygon points="16.024 14.2281 17.4761965 16.5367 14.7993966 20.1245 16.0347966 16.5425 14.2896966 13.4644 15.5015966 12.0913 18.0962965 12.0806 16.024 14.2281" fill="none" fill-rule="evenodd" stroke="#d68112" stroke-width=".75"/>
      </g>
      <path d="M6.3208968,13.065c-6.0829998-.2783-5.0507999-5.9737.3164-5.417-.0722-1.4619.5723-2.7168,2.0761999-3.4121,1.0644-.4942,3.1483999-.209,3.7919999.9746.6455033-1.5322,1.3603-2.3672,2.8622999-2.6465,2.0145999-.3731,4.6600999,1.2012,4.1562034,4.0156,2.7831964-.1836,3.1445964,3.0596,2.1386964,4.1602-1.7871,1.957-4.4022999,1.7129-7.9227998,2.0801-1.6827.1757-7.4189998.2451-7.4189998.2451Z" fill="url(#radial-gradient)" fill-rule="evenodd" stroke="#000" stroke-width=".75"/>
      <path d="M2.36,10.2085c0-1.2812,1.3202969-2.372,3.1991968-2.372s4.9286999.9169,4.9286999,2.1992c0,1.2812-3.0497999,2.4424-4.9286999,2.4424s-3.1991968-.9873-3.1991968-2.2696Z" fill="url(#radial-gradient-2)" fill-rule="evenodd"/>
      <path d="M22.024,9.3784c0,1.6231-2.1464035,2.7247-4.5273035,2.9825-2.2480999.2461-10.9550997.7949-12.5907997.4297-2.3818968-.5323-2.5693999-2.17-2.5458968-2.418.0321969-.3477.6493969,2.2988,3.5526968,1.1016,3.2060999-1.3213,10.4374997-4.0997,13.4228997-4.711,1.8232-.1836,2.6884035.9942,2.6884035,2.6152Z" fill="url(#radial-gradient-3)" fill-rule="evenodd"/>
      <g>
        <polygon points="10.8931967 13.3081 13.5855966 16.6783 10.0161967 22.7925 11.3208967 16.9439 8.0337968 12.4156 9.694 10.0435 13.7720966 9.565 10.8931967 13.3081" fill="#ffe900" fill-rule="evenodd" stroke="#d68112" stroke-width=".75"/>
        <polyline points="10.3618967 10.0757 8.7427967 12.3726 11.8530967 16.7066 10.6353967 21.5464" fill="none" fill-rule="evenodd" stroke="#ffffb3" stroke-width="2.5"/>
        <polygon points="10.8931967 13.3081 13.5855966 16.6783 10.0161967 22.7925 11.3208967 16.9439 8.0337968 12.4156 9.694 10.0435 13.7720966 9.565 10.8931967 13.3081" fill="none" fill-rule="evenodd" stroke="#d68112" stroke-width=".75"/>
      </g>
      <path d="M19.4536965,6.189c.0274,2.6934-9.1717998,5.7129-11.6239997,3.4805-.5342-.4873-1.9072-2.5528-.2832-4.375,2.2636999-2.5391,4.8729999-.459,4.9365032.3056,1.0527966-4.0693,6.9238965-4.1377,6.9706965.5889Z" fill="url(#radial-gradient-4)" fill-rule="evenodd"/>
      <path d="M19.4302965,6.4878c-.2197,1.8965-3.8983999,3.4883-5.9413998,1.6826-.543-.4795-1.8047-2.3994-.1895-4.2295,1.3516034-1.5292-.2197,2.6133,1.7217,3.5333,4.5976999,2.1796,4.6327999-2.918,4.4091999-.9864Z" fill="url(#radial-gradient-5)" fill-rule="evenodd"/>
      <g mask="url(#mask)">
        <g>
          <path d="M21.4517964,8.4019c0,2.5469-3.0488999,3.6914-7.5243998,3.8672-.4756.0195-.542-.2119-.0791-.2735,3.8075999-.5078,6.7049998-2.248,7.1249998-3.6191.0439-.3164.4785-.2441.4785.0254Z" fill="#a1a1a1"/>
          <path d="M21.6626964,8.4204c0,2.5479-3.0507999,3.6924-7.5253998,3.8692-.4746.0185-.542-.2129-.0781-.2754,3.8065999-.5078,6.7050998-2.2471,7.1249998-3.6182.043-.3164.4785-.2441.4785.0244Z" fill="none" stroke="#a7a7a7" stroke-miterlimit="3.8637" stroke-width="5.0492"/>
          <path d="M21.5571964,8.4117c0,2.5468-3.0487999,3.6914-7.5233998,3.8671-.4766.0196-.543-.2119-.0801-.2744,3.8066999-.5088,6.7050998-2.247,7.1249998-3.6181.043-.3174.4785-.2452.4785.0254Z" fill="none" stroke="#9a9a9a" stroke-miterlimit="3.8637" stroke-width="2.5247"/>
          <path d="M21.4517964,8.4019c0,2.5469-3.0488999,3.6914-7.5243998,3.8672-.4756.0195-.542-.2119-.0791-.2735,3.8075999-.5078,6.7049998-2.248,7.1249998-3.6191.0439-.3164.4785-.2441.4785.0254Z" fill="none" stroke="#a7a7a7" stroke-miterlimit="3.8637"/>
        </g>
      </g>
    </g>
    <path d="M7.5845968,14.8394c-2.4384999-.0069-.586-2.7031.0117-4.2168.6563,1.1211,2.2948999,4.2226-.0117,4.2168Z" fill="url(#radial-gradient-6)" fill-rule="evenodd" stroke="#000" stroke-width=".5"/>
    <path d="M15.4458966,17.1617c-2.0057999.0283-.5195-2.2149-.0488-3.4688.5547.9141,1.9453,3.4414.0488,3.4688Z" fill="url(#radial-gradient-7)" fill-rule="evenodd" stroke="#000" stroke-width=".4"/>
    <path d="M17.1773965,22.7886c-1.7363965.0039-.4258-1.9238-.0059-3.0029.4717.7959,1.6484,2.999.0059,3.0029Z" fill="url(#radial-gradient-8)" fill-rule="evenodd" stroke="#000" stroke-width=".5"/>
  </g>
  <path d="M9.5513967,20.2691c-1.4512.0068-.3613-1.6074-.0117-2.5098.3955.6641,1.3838,2.502.0117,2.5098Z" fill="url(#radial-gradient-9)" fill-rule="evenodd" stroke="#000" stroke-width=".25"/>
  <path d="M19.0435965,14.4097c-1.211.0215-.3184-1.3369-.0381-2.0957.3369.5508,1.1826,2.0742.0381,2.0957Z" fill="url(#radial-gradient-10)" fill-rule="evenodd" stroke="#000" stroke-width=".25"/>
</svg>